<?xml version="1.0" encoding="utf-8"?>
<!-- Generator: Adobe Illustrator 16.0.0, SVG Export Plug-In . SVG Version: 6.00 Build 0)  -->
<!DOCTYPE svg PUBLIC "-//W3C//DTD SVG 1.1//EN" "http://www.w3.org/Graphics/SVG/1.1/DTD/svg11.dtd">
<svg version="1.1" id="Layer_1" xmlns="http://www.w3.org/2000/svg" xmlns:xlink="http://www.w3.org/1999/xlink" x="0px" y="0px"
	 width="487.857px" height="246.072px" viewBox="0 0 487.857 246.072" enable-background="new 0 0 487.857 246.072"
	 xml:space="preserve">
<g>
	<rect x="0" y="0" fill="#436AA8" width="487.836" height="52.984"/>
	<rect x="0" y="52.984" fill="#726E65" width="5.172" height="150.272"/>
	<rect x="482.685" y="52.984" fill="#726E65" width="5.173" height="150.272"/>
</g>
<g>
	<rect x="417.479" y="100.191" fill="#18303A" width="38.062" height="26.41"/>
	<rect x="412.021" y="104.607" fill="#18303A" width="26.799" height="9.709"/>
	<rect x="432.606" y="104.607" fill="#18303A" width="26.799" height="6.074"/>
	<g>
		<polygon fill="#18303A" points="393.093,110.385 393.093,100.14 402.519,103.017 402.519,110.385 		"/>
		<polygon fill="#18303A" points="393.093,108.542 393.093,118.784 402.519,115.906 402.519,108.542 		"/>
	</g>
	<rect x="402.519" y="103.017" fill="#18303A" width="9.502" height="12.894"/>
	<rect x="431.851" y="110.676" fill="#18303A" width="9.494" height="19.507"/>
	<rect x="427.017" y="130.181" fill="#18303A" width="18.987" height="5.696"/>
	
		<rect x="420.298" y="132.628" transform="matrix(-0.9715 -0.2369 0.2369 -0.9715 793.7094 424.1157)" fill="#18303A" width="4.073" height="63.492"/>
	<rect x="425.42" y="106.374" fill="#43626D" width="15.925" height="8.616"/>
	<rect x="434.672" y="133.029" fill="#18303A" width="5.179" height="62.651"/>
	<polygon fill="#18303A" points="416.608,192.846 414.428,192.315 401.336,246.072 403.646,246.072 	"/>
	<polygon fill="#18303A" points="458.746,192.315 459.386,194.945 460.324,194.718 445.302,133.029 441.345,133.994 456.367,195.68 
		457.205,195.476 456.565,192.846 	"/>
	<polygon fill="#18303A" points="459.386,194.945 457.205,195.476 469.527,246.072 471.838,246.072 	"/>
	
		<rect x="456.85" y="192.538" transform="matrix(-0.9717 0.2362 -0.2362 -0.9717 948.7826 274.1308)" fill="#18303A" width="2.245" height="2.707"/>
	<rect x="436.226" y="190.529" fill="#18303A" width="2.33" height="55.543"/>
	<rect x="459.404" y="103.017" fill="#18303A" width="2.326" height="9.053"/>
	<rect x="441.345" y="106.374" fill="#DD1D27" width="3.038" height="3.092"/>
</g>
</svg>
