<?xml version="1.0" encoding="utf-8"?>
<!-- Generator: Adobe Illustrator 16.0.0, SVG Export Plug-In . SVG Version: 6.00 Build 0)  -->
<!DOCTYPE svg PUBLIC "-//W3C//DTD SVG 1.1//EN" "http://www.w3.org/Graphics/SVG/1.1/DTD/svg11.dtd">
<svg version="1.1" id="Layer_1" xmlns="http://www.w3.org/2000/svg" xmlns:xlink="http://www.w3.org/1999/xlink" x="0px" y="0px"
	 width="487.857px" height="246.072px" viewBox="0 0 487.857 246.072" enable-background="new 0 0 487.857 246.072"
	 xml:space="preserve">
<g>
	<g>
		<path fill="#59787F" d="M236.48,84.161c0,1.655-1.341,2.996-2.996,2.996h-1.831c-1.655,0-2.996-1.341-2.996-2.996v-3.994
			c0-1.655,1.341-2.997,2.996-2.997h1.831c1.654,0,2.996,1.342,2.996,2.997V84.161z"/>
		<rect x="232.194" y="85.16" fill="#59787F" width="0.749" height="23.97"/>
		<path fill="#59787F" d="M247.382,84.161c0,1.655-1.342,2.996-2.998,2.996h-1.831c-1.655,0-2.996-1.341-2.996-2.996v-3.994
			c0-1.655,1.341-2.997,2.996-2.997h1.831c1.656,0,2.998,1.342,2.998,2.997V84.161z"/>
		<rect x="243.095" y="85.16" fill="#59787F" width="0.748" height="23.97"/>
		<path fill="#59787F" d="M258.28,84.161c0,1.655-1.34,2.996-2.996,2.996h-1.83c-1.656,0-2.996-1.341-2.996-2.996v-3.994
			c0-1.655,1.34-2.997,2.996-2.997h1.83c1.656,0,2.996,1.342,2.996,2.997V84.161z"/>
		<rect x="253.995" y="85.16" fill="#59787F" width="0.748" height="23.97"/>
	</g>
	<rect x="197.314" y="102.991" fill="#B76325" width="92.31" height="112.628"/>
	<g>
		<path fill="#E8EEEF" d="M260.163,138.991c0,9.219-7.475,16.693-16.695,16.693c-9.22,0-16.694-7.475-16.694-16.693
			c0-9.223,7.474-16.697,16.694-16.697C252.688,122.294,260.163,129.768,260.163,138.991z"/>
		<circle fill="#7FABB5" cx="243.469" cy="138.991" r="13.25"/>
	</g>
</g>
</svg>
