<?xml version="1.0" encoding="utf-8"?>
<!-- Generator: Adobe Illustrator 16.0.0, SVG Export Plug-In . SVG Version: 6.00 Build 0)  -->
<!DOCTYPE svg PUBLIC "-//W3C//DTD SVG 1.1//EN" "http://www.w3.org/Graphics/SVG/1.1/DTD/svg11.dtd">
<svg version="1.1" id="Layer_1" xmlns="http://www.w3.org/2000/svg" xmlns:xlink="http://www.w3.org/1999/xlink" x="0px" y="0px"
	 width="487.857px" height="246.072px" viewBox="52.973 69.635 487.857 246.072"
	 enable-background="new 52.973 69.635 487.857 246.072" xml:space="preserve">
<g>
	<rect x="52.973" y="69.635" fill="#436AA8" width="487.837" height="52.984"/>
	<rect x="52.973" y="122.619" fill="#726E65" width="5.172" height="150.272"/>
	<rect x="535.657" y="122.619" fill="#726E65" width="5.173" height="150.272"/>
</g>
<g>
	<rect x="470.452" y="169.826" fill="#18303A" width="38.062" height="26.41"/>
	<rect x="464.993" y="174.242" fill="#18303A" width="26.799" height="9.709"/>
	<rect x="485.579" y="174.242" fill="#18303A" width="26.799" height="6.074"/>
	<g>
		<polygon fill="#18303A" points="446.065,180.019 446.065,169.775 455.491,172.652 455.491,180.019 		"/>
		<polygon fill="#18303A" points="446.065,178.177 446.065,188.419 455.491,185.541 455.491,178.177 		"/>
	</g>
	<rect x="455.491" y="172.652" fill="#18303A" width="9.502" height="12.894"/>
	<rect x="484.823" y="180.31" fill="#18303A" width="9.494" height="19.507"/>
	<rect x="479.989" y="199.816" fill="#18303A" width="18.988" height="5.696"/>
	
		<rect x="473.275" y="202.244" transform="matrix(0.9716 0.2367 -0.2367 0.9716 68.8797 -105.8416)" fill="#18303A" width="4.073" height="63.491"/>
	<rect x="478.393" y="176.009" fill="#43626D" width="15.924" height="8.616"/>
	<rect x="487.645" y="202.664" fill="#18303A" width="5.178" height="62.651"/>
	<polygon fill="#18303A" points="469.581,262.481 467.4,261.95 454.309,315.707 456.618,315.707 	"/>
	<polygon fill="#18303A" points="511.719,261.95 512.358,264.58 513.297,264.352 498.274,202.664 494.317,203.629 509.34,265.315 
		510.178,265.111 509.538,262.481 	"/>
	<polygon fill="#18303A" points="512.358,264.58 510.178,265.111 522.5,315.707 524.811,315.707 	"/>
	
		<rect x="509.826" y="262.177" transform="matrix(0.9716 -0.2366 0.2366 0.9716 -47.8435 128.3704)" fill="#18303A" width="2.245" height="2.707"/>
	<rect x="489.198" y="260.164" fill="#18303A" width="2.33" height="55.543"/>
	<rect x="512.377" y="172.652" fill="#18303A" width="2.326" height="9.053"/>
	<rect x="494.317" y="176.009" fill="#DD1D27" width="3.039" height="3.091"/>
</g>
</svg>
