<?xml version="1.0" encoding="utf-8"?>
<!-- Generator: Adobe Illustrator 16.0.0, SVG Export Plug-In . SVG Version: 6.00 Build 0)  -->
<!DOCTYPE svg PUBLIC "-//W3C//DTD SVG 1.1//EN" "http://www.w3.org/Graphics/SVG/1.1/DTD/svg11.dtd">
<svg version="1.1" id="Layer_1" xmlns="http://www.w3.org/2000/svg" xmlns:xlink="http://www.w3.org/1999/xlink" x="0px" y="0px"
	 width="487.857px" height="246.072px" viewBox="52.973 69.635 487.857 246.072"
	 enable-background="new 52.973 69.635 487.857 246.072" xml:space="preserve">
<g>
	<g>
		<path fill="#59787F" d="M289.453,153.657c0,1.655-1.341,2.996-2.996,2.996h-1.831c-1.655,0-2.996-1.341-2.996-2.996v-3.994
			c0-1.655,1.341-2.997,2.996-2.997h1.831c1.654,0,2.996,1.342,2.996,2.997V153.657z"/>
		<rect x="285.167" y="154.656" fill="#59787F" width="0.749" height="23.97"/>
		<path fill="#59787F" d="M300.354,153.657c0,1.655-1.341,2.996-2.997,2.996h-1.831c-1.655,0-2.996-1.341-2.996-2.996v-3.994
			c0-1.655,1.341-2.997,2.996-2.997h1.831c1.655,0,2.997,1.342,2.997,2.997V153.657z"/>
		<rect x="296.067" y="154.656" fill="#59787F" width="0.749" height="23.97"/>
		<path fill="#59787F" d="M311.254,153.657c0,1.655-1.341,2.996-2.997,2.996h-1.831c-1.655,0-2.996-1.341-2.996-2.996v-3.994
			c0-1.655,1.341-2.997,2.996-2.997h1.831c1.655,0,2.997,1.342,2.997,2.997V153.657z"/>
		<rect x="306.968" y="154.656" fill="#59787F" width="0.749" height="23.97"/>
	</g>
	<rect x="250.287" y="172.487" fill="#B76325" width="92.31" height="112.628"/>
	<g>
		<circle fill="#E8EEEF" cx="296.442" cy="208.486" r="16.695"/>
		<circle fill="#7FABB5" cx="296.442" cy="208.486" r="13.25"/>
	</g>
</g>
</svg>
