<?xml version="1.0" encoding="utf-8"?>
<!-- Generator: Adobe Illustrator 16.0.0, SVG Export Plug-In . SVG Version: 6.00 Build 0)  -->
<!DOCTYPE svg PUBLIC "-//W3C//DTD SVG 1.1//EN" "http://www.w3.org/Graphics/SVG/1.1/DTD/svg11.dtd">
<svg version="1.1" id="Layer_1" xmlns="http://www.w3.org/2000/svg" xmlns:xlink="http://www.w3.org/1999/xlink" x="0px" y="0px"
	 width="1224.527px" height="233.665px" viewBox="0 0 1224.527 233.665" enable-background="new 0 0 1224.527 233.665"
	 xml:space="preserve">
<g>
	<rect x="427.059" y="82.234" fill="#99A565" width="11.773" height="151.216"/>
	<rect x="438.832" y="82.234" fill="#DDE0AD" width="11.773" height="151.216"/>
	<rect x="450.604" y="82.234" fill="#99A565" width="11.773" height="151.216"/>
</g>
<g>
	<rect x="462.378" y="82.234" fill="#DDE0AD" width="11.772" height="151.216"/>
	<rect x="474.151" y="82.234" fill="#99A565" width="11.772" height="151.216"/>
	<rect x="485.923" y="82.234" fill="#DDE0AD" width="11.773" height="151.216"/>
	<rect x="497.697" y="82.234" fill="#99A565" width="11.772" height="151.216"/>
	<rect x="509.47" y="82.234" fill="#DDE0AD" width="11.773" height="151.216"/>
	<rect x="521.244" y="82.234" fill="#99A565" width="11.772" height="151.216"/>
</g>
<g>
	<rect x="533.016" y="82.234" fill="#DDE0AD" width="11.772" height="151.216"/>
	<rect x="544.789" y="82.234" fill="#99A565" width="11.772" height="151.216"/>
	<rect x="556.562" y="82.234" fill="#DDE0AD" width="11.773" height="151.216"/>
	<rect x="568.335" y="82.234" fill="#99A565" width="11.772" height="151.216"/>
	<rect x="580.108" y="82.234" fill="#DDE0AD" width="11.772" height="151.216"/>
	<rect x="591.881" y="82.234" fill="#99A565" width="11.773" height="151.216"/>
</g>
<g>
	<rect x="603.655" y="82.234" fill="#DDE0AD" width="11.773" height="151.216"/>
	<rect x="615.428" y="82.234" fill="#99A565" width="11.773" height="151.216"/>
	<rect x="627.201" y="82.234" fill="#DDE0AD" width="11.771" height="151.216"/>
	<rect x="638.973" y="82.234" fill="#99A565" width="11.773" height="151.216"/>
	<rect x="650.746" y="82.234" fill="#DDE0AD" width="11.773" height="151.216"/>
	<rect x="662.52" y="82.234" fill="#99A565" width="11.773" height="151.216"/>
</g>
<g>
	<rect x="674.293" y="82.234" fill="#DDE0AD" width="11.771" height="151.216"/>
	<rect x="686.064" y="82.234" fill="#99A565" width="11.773" height="151.216"/>
	<rect x="697.838" y="82.234" fill="#DDE0AD" width="11.773" height="151.216"/>
	<rect x="709.611" y="82.234" fill="#99A565" width="11.773" height="151.216"/>
	<rect x="721.385" y="82.234" fill="#DDE0AD" width="11.773" height="151.216"/>
	<rect x="733.158" y="82.234" fill="#99A565" width="11.773" height="151.216"/>
</g>
<g>
	<g>
		<rect x="125.219" y="73.592" fill="#7C3116" width="4.081" height="47.381"/>
		<circle fill="#7A7F0A" cx="127.352" cy="68.326" r="16.373"/>
		<circle fill="#C75651" cx="131.774" cy="76.787" r="2.473"/>
		<circle fill="#C75651" cx="125.219" cy="69.36" r="1.581"/>
		<circle fill="#C75651" cx="134.248" cy="60.936" r="1.581"/>
		<circle fill="#C75651" cx="116.124" cy="70.241" r="1.581"/>
		<circle fill="#C75651" cx="137.577" cy="70.942" r="1.389"/>
	</g>
	<g>
		<rect x="230.732" y="73.592" fill="#7C3116" width="4.081" height="47.381"/>
		<circle fill="#7A7F0A" cx="232.863" cy="68.326" r="16.372"/>
		<circle fill="#C75651" cx="237.287" cy="76.787" r="2.473"/>
		<circle fill="#C75651" cx="230.732" cy="69.36" r="1.581"/>
		<circle fill="#C75651" cx="239.759" cy="60.936" r="1.581"/>
		<circle fill="#C75651" cx="221.635" cy="70.241" r="1.581"/>
		<circle fill="#C75651" cx="243.088" cy="70.942" r="1.389"/>
	</g>
	<g>
		<rect x="402.918" y="73.592" fill="#7C3116" width="4.081" height="47.381"/>
		<circle fill="#7A7F0A" cx="405.048" cy="68.326" r="16.373"/>
		<circle fill="#C75651" cx="409.471" cy="76.787" r="2.473"/>
		<circle fill="#C75651" cx="402.918" cy="69.36" r="1.581"/>
		<circle fill="#C75651" cx="411.944" cy="60.936" r="1.581"/>
		<circle fill="#C75651" cx="393.821" cy="70.241" r="1.581"/>
		<circle fill="#C75651" cx="415.274" cy="70.942" r="1.389"/>
	</g>
	<g>
		<rect x="302.513" y="73.592" fill="#7C3116" width="4.081" height="47.381"/>
		<circle fill="#7A7F0A" cx="304.646" cy="68.326" r="16.373"/>
		<circle fill="#C75651" cx="309.067" cy="76.787" r="2.473"/>
		<circle fill="#C75651" cx="302.514" cy="69.36" r="1.581"/>
		<circle fill="#C75651" cx="311.542" cy="60.936" r="1.581"/>
		<circle fill="#C75651" cx="293.417" cy="70.241" r="1.581"/>
		<circle fill="#C75651" cx="314.871" cy="70.942" r="1.389"/>
	</g>
</g>
<g>
	<rect x="744.932" y="82.234" fill="#DDE0AD" width="11.771" height="151.216"/>
	<rect x="756.703" y="82.234" fill="#99A565" width="11.773" height="151.216"/>
	<rect x="768.477" y="82.234" fill="#DDE0AD" width="11.773" height="151.216"/>
	<rect x="780.25" y="82.234" fill="#99A565" width="11.773" height="151.216"/>
	<rect x="792.023" y="82.234" fill="#DDE0AD" width="11.773" height="151.216"/>
	<rect x="803.797" y="82.234" fill="#99A565" width="11.771" height="151.216"/>
</g>
<g>
	<g>
		<rect x="77.573" y="67.825" fill="#A55032" width="5.694" height="72.738"/>
		<circle fill="#8E9B16" cx="80.546" cy="60.478" r="22.845"/>
		<circle fill="#C75651" cx="86.718" cy="72.283" r="3.45"/>
		<circle fill="#C75651" cx="77.573" cy="61.919" r="2.206"/>
		<circle fill="#C75651" cx="90.168" cy="50.166" r="2.206"/>
		<circle fill="#C75651" cx="64.88" cy="63.15" r="2.206"/>
		<circle fill="#C75651" cx="94.814" cy="64.126" r="1.936"/>
	</g>
	<g>
		<rect x="201.89" y="67.825" fill="#A55032" width="5.694" height="72.738"/>
		<circle fill="#8E9B16" cx="204.863" cy="60.478" r="22.845"/>
		<circle fill="#C75651" cx="211.035" cy="72.283" r="3.451"/>
		<circle fill="#C75651" cx="201.89" cy="61.919" r="2.206"/>
		<circle fill="#C75651" cx="214.484" cy="50.166" r="2.206"/>
		<circle fill="#C75651" cx="189.197" cy="63.15" r="2.206"/>
		<circle fill="#C75651" cx="219.131" cy="64.126" r="1.936"/>
	</g>
	<g>
		<rect x="323.207" y="67.825" fill="#A55032" width="5.694" height="72.738"/>
		<circle fill="#8E9B16" cx="326.179" cy="60.478" r="22.844"/>
		<circle fill="#C75651" cx="332.351" cy="72.283" r="3.45"/>
		<circle fill="#C75651" cx="323.207" cy="61.919" r="2.206"/>
		<circle fill="#C75651" cx="335.801" cy="50.166" r="2.206"/>
		<circle fill="#C75651" cx="310.513" cy="63.15" r="2.206"/>
		<circle fill="#C75651" cx="340.447" cy="64.126" r="1.936"/>
	</g>
</g>
<g>
	<g>
		<rect x="32.191" y="50.523" fill="#D47F65" width="9.048" height="114.925"/>
		<g>
			<circle fill="#AEC622" cx="36.917" cy="38.848" r="36.301"/>
			<circle fill="#C75651" cx="46.723" cy="57.609" r="5.483"/>
			<circle fill="#C75651" cx="32.191" cy="41.139" r="3.506"/>
			<circle fill="#C75651" cx="52.206" cy="22.463" r="3.506"/>
			<circle fill="#C75651" cx="12.023" cy="43.092" r="3.506"/>
			<circle fill="#C75651" cx="59.589" cy="44.644" r="3.077"/>
		</g>
	</g>
	<g>
		<rect x="144.57" y="50.523" fill="#D47F65" width="9.048" height="114.925"/>
		<g>
			<circle fill="#AEC622" cx="149.295" cy="38.848" r="36.301"/>
			<circle fill="#C75651" cx="159.102" cy="57.609" r="5.483"/>
			<circle fill="#C75651" cx="144.57" cy="41.139" r="3.506"/>
			<circle fill="#C75651" cx="164.585" cy="22.463" r="3.505"/>
			<circle fill="#C75651" cx="124.402" cy="43.092" r="3.506"/>
			<circle fill="#C75651" cx="171.967" cy="44.644" r="3.077"/>
		</g>
	</g>
	<g>
		<rect x="256.949" y="50.523" fill="#D47F65" width="9.049" height="114.925"/>
		<g>
			<circle fill="#AEC622" cx="261.674" cy="38.848" r="36.301"/>
			<circle fill="#C75651" cx="271.481" cy="57.609" r="5.483"/>
			<circle fill="#C75651" cx="256.951" cy="41.139" r="3.505"/>
			<circle fill="#C75651" cx="276.963" cy="22.463" r="3.505"/>
			<circle fill="#C75651" cx="236.781" cy="43.093" r="3.505"/>
			<circle fill="#C75651" cx="284.346" cy="44.644" r="3.077"/>
		</g>
	</g>
	<g>
		<rect x="369.329" y="50.523" fill="#D47F65" width="9.049" height="114.925"/>
		<g>
			<circle fill="#AEC622" cx="374.053" cy="38.848" r="36.3"/>
			<circle fill="#C75651" cx="383.86" cy="57.609" r="5.483"/>
			<circle fill="#C75651" cx="369.329" cy="41.139" r="3.506"/>
			<circle fill="#C75651" cx="389.342" cy="22.463" r="3.505"/>
			<circle fill="#C75651" cx="349.161" cy="43.092" r="3.506"/>
			<circle fill="#C75651" cx="396.726" cy="44.644" r="3.077"/>
		</g>
	</g>
</g>
<circle fill="#C75651" cx="110.391" cy="162.045" r="5.483"/>
<circle fill="#C75651" cx="302.777" cy="162.044" r="3.505"/>
<circle fill="#C75651" cx="229.708" cy="164.023" r="3.505"/>
<circle fill="#C75651" cx="66.612" cy="156.563" r="3.506"/>
<circle fill="#C75651" cx="281.27" cy="158.54" r="3.077"/>
<g>
	<path fill="#1D3749" d="M650.797,94.788c0,1.17-0.949,2.119-2.119,2.119h-6.898c-1.172,0-2.119-0.949-2.119-2.119V84.385
		c0-1.17,0.947-2.119,2.119-2.119h6.898c1.17,0,2.119,0.949,2.119,2.119V94.788z"/>
	<path fill="#1D3749" d="M596.876,120.008c0,0.635-0.904,1.146-2.019,1.146h-12.465c-1.115,0-2.02-0.513-2.02-1.146v-3.771
		c0-0.634,0.904-1.147,2.02-1.147h12.465c1.114,0,2.019,0.515,2.019,1.147V120.008z"/>
	<path fill="#1D3749" d="M583.708,119.577c0,0.436-0.437,0.789-0.975,0.789h-13.848c-0.538,0-0.974-0.354-0.974-0.789l0,0
		c0-0.435,0.436-0.787,0.974-0.787h13.848C583.272,118.79,583.708,119.143,583.708,119.577L583.708,119.577z"/>
	<path fill="#1D3749" d="M628.879,119.577c0,0.436-0.648,0.789-1.451,0.789h-20.611c-0.803,0-1.449-0.354-1.449-0.789l0,0
		c0-0.435,0.646-0.787,1.449-0.787h20.611C628.23,118.79,628.879,119.143,628.879,119.577L628.879,119.577z"/>
	<rect x="601.039" y="117.424" fill="#1D3749" width="6.888" height="4.306"/>
	<rect x="566.175" y="102.941" fill="#1D3749" width="58.629" height="16.638"/>
	<path fill="#FF4E31" d="M597.879,109.051c0,0.783-0.514,1.42-1.148,1.42h-39.032c-0.634,0-1.148-0.637-1.148-1.42V83.686
		c0-0.784,0.515-1.42,1.148-1.42h39.032c0.635,0,1.148,0.636,1.148,1.42V109.051z"/>
	<g>
		<circle fill="#465866" cx="562.459" cy="121.319" r="14.785"/>
		<circle fill="#E6FFFF" cx="562.459" cy="121.319" r="8.584"/>
	</g>
	<polygon fill="#FF4E31" points="588.097,82.266 588.097,117.814 635.57,117.814 641.812,84.446 641.812,82.266 	"/>
	<g>
		<path fill="#FF4E31" d="M641.75,28.95c0-1.213-0.736-2.195-1.646-2.195h-33.811c-0.909,0-1.647,0.982-1.647,2.195v2.584h37.105
			V28.95z"/>
		<rect x="638.691" y="31.534" fill="#FF4E31" width="1.936" height="52.1"/>
		<rect x="627.83" y="31.534" fill="#FF4E31" width="1.049" height="52.1"/>
		<polygon fill="#FF4E31" points="598.276,85.405 597.106,85.12 604.687,29.763 605.856,30.046 		"/>
	</g>
	<path fill="#ADCBDB" d="M553.718,84.87c2.099,0,3.799,1.7,3.799,3.799c0,2.098-1.7,3.799-3.799,3.799"/>
	<path fill="#ADCBDB" d="M627.066,85.543c0,0.633-0.514,1.146-1.146,1.146h-4.186c-0.635,0-1.148-0.514-1.148-1.146v-0.432
		c0-0.634,0.514-1.148,1.148-1.148h4.186c0.633,0,1.146,0.516,1.146,1.148V85.543z"/>
	<g>
		<circle fill="#465866" cx="644.539" cy="109.062" r="26.867"/>
		<circle fill="#E6FFFF" cx="644.539" cy="109.062" r="15.598"/>
	</g>
</g>
<g>
	<rect x="895.596" y="81.781" fill="#9B4D18" width="9.133" height="51.89"/>
	<polygon fill="#667A2E" points="921.656,102.764 878.668,102.764 900.162,13.528 900.162,13.528 	"/>
</g>
<g>
	<rect x="1046.219" y="71.201" fill="#844012" width="6.186" height="35.144"/>
	<polygon fill="#556321" points="1063.867,85.413 1034.752,85.413 1049.311,24.975 1049.311,24.975 	"/>
</g>
<g>
	<rect x="1012.234" y="81.781" fill="#9B4D18" width="9.133" height="51.89"/>
	<polygon fill="#667A2E" points="1038.295,102.764 995.305,102.764 1016.799,13.528 1016.799,13.528 	"/>
</g>
<g>
	<rect x="935.631" y="70.141" fill="#844012" width="6.186" height="35.144"/>
	<polygon fill="#556321" points="953.281,84.352 924.166,84.352 938.723,23.914 938.723,23.914 	"/>
</g>
<g>
	<rect x="1121.441" y="70.141" fill="#844012" width="6.186" height="35.144"/>
	<polygon fill="#556321" points="1139.09,84.352 1109.975,84.352 1124.533,23.914 1124.533,23.914 	"/>
</g>
<g>
	<rect x="1206.264" y="70.141" fill="#844012" width="6.186" height="35.144"/>
	<polygon fill="#556321" points="1223.912,84.352 1194.797,84.352 1209.355,23.914 1209.355,23.914 	"/>
</g>
<g>
	<rect x="1143.896" y="81.781" fill="#9B4D18" width="9.133" height="51.89"/>
	<polygon fill="#667A2E" points="1169.955,102.764 1126.967,102.764 1148.461,13.528 1148.461,13.528 	"/>
</g>
<g>
	<path fill="#944322" d="M794.602,90.48c0,2.804-2.271,5.075-5.076,5.075h-38.471c-2.803,0-5.076-2.271-5.076-5.075V75.25
		c0-2.804,2.273-5.074,5.076-5.074h38.471c2.805,0,5.076,2.271,5.076,5.074V90.48z"/>
	<g>
		<path fill="#FFB297" d="M742.482,76.217c-0.824,0-1.6-0.2-2.289-0.549c-0.031,0.178-0.051,0.361-0.051,0.549
			c0,1.802,1.461,3.265,3.264,3.265h8.023c1.803,0,3.264-1.463,3.264-3.265c0-0.188-0.02-0.371-0.051-0.549
			c-0.688,0.349-1.465,0.549-2.289,0.549H742.482z"/>
		<g>
			<g>
				<path fill="#C1BC9D" d="M743.822,63.738c0,0.739-0.6,1.339-1.34,1.339l0,0c-0.74,0-1.34-0.6-1.34-1.339v-5.501
					c0-0.738,0.6-1.34,1.34-1.34l0,0c0.74,0,1.34,0.602,1.34,1.34V63.738z"/>
				<path fill="#C1BC9D" d="M753.693,63.738c0,0.739-0.6,1.339-1.34,1.339l0,0c-0.738,0-1.34-0.6-1.34-1.339v-5.501
					c0-0.738,0.602-1.34,1.34-1.34l0,0c0.74,0,1.34,0.602,1.34,1.34V63.738z"/>
			</g>
			<path fill="#944322" d="M752.354,60.143h-9.871c-2.803,0-5.076,2.271-5.076,5.074v5.924c0,1.98,1.135,3.689,2.787,4.527
				c0.262-1.541,1.6-2.715,3.213-2.715h8.023c1.613,0,2.951,1.174,3.213,2.715c1.652-0.84,2.787-2.549,2.787-4.527v-5.924
				C757.43,62.415,755.156,60.143,752.354,60.143z"/>
			<path fill="#FF9364" d="M751.43,72.954h-8.023c-1.613,0-2.951,1.174-3.213,2.715c0.689,0.349,1.465,0.549,2.289,0.549h9.871
				c0.824,0,1.602-0.2,2.289-0.549C754.381,74.127,753.045,72.954,751.43,72.954z"/>
			<g>
				<path fill="#944322" d="M738.182,63.174c0,2.103-1.705,3.807-3.807,3.807c-2.105,0-3.811-1.704-3.811-3.807"/>
				<path fill="#944322" d="M764.27,63.174c0,2.103-1.705,3.807-3.809,3.807c-2.102,0-3.807-1.704-3.807-3.807"/>
			</g>
		</g>
	</g>
	<path fill="#944322" d="M749.604,84.678c0-1.002-0.812-1.812-1.812-1.812s-1.812,0.812-1.812,1.812v25.402h3.625V84.678
		L749.604,84.678z"/>
	<path fill="#944322" d="M757.318,84.678c0-1.002-0.812-1.812-1.812-1.812s-1.812,0.812-1.812,1.812v25.402h3.627V84.678H757.318z"
		/>
	<path fill="#944322" d="M786.887,84.678c0-1.002-0.811-1.812-1.812-1.812c-1,0-1.812,0.812-1.812,1.812v25.402h3.627V84.678
		H786.887z"/>
	<path fill="#944322" d="M794.602,84.678c0-1.002-0.811-1.812-1.812-1.812c-1,0-1.812,0.812-1.812,1.812v25.402h3.625V84.678
		L794.602,84.678z"/>
	<path fill="#4C3731" d="M747.791,112.478c1.002,0,1.812-0.812,1.812-1.812v-0.586h-3.625v0.586
		C745.979,111.667,746.791,112.478,747.791,112.478z"/>
	<path fill="#4C3731" d="M755.506,112.478c1,0,1.812-0.812,1.812-1.812v-0.586h-3.627v0.586
		C753.693,111.667,754.504,112.478,755.506,112.478z"/>
	<path fill="#4C3731" d="M785.074,112.478c1.002,0,1.812-0.812,1.812-1.812v-0.586h-3.625v0.586
		C783.262,111.667,784.074,112.478,785.074,112.478z"/>
	<path fill="#4C3731" d="M792.789,112.478c1.002,0,1.812-0.812,1.812-1.812v-0.586h-3.625v0.586
		C790.977,111.667,791.789,112.478,792.789,112.478z"/>
</g>
<g>
	<rect x="853.826" y="94.598" fill="#B65C1F" width="12.629" height="71.758"/>
	<polygon fill="#7B9140" points="889.863,123.615 830.416,123.615 860.139,0.214 860.139,0.214 	"/>
</g>
<g>
	<rect x="963.273" y="94.598" fill="#B65C1F" width="12.629" height="71.758"/>
	<polygon fill="#7B9140" points="999.311,123.615 939.863,123.615 969.586,0.214 969.586,0.214 	"/>
</g>
<g>
	<rect x="1072.721" y="94.598" fill="#B65C1F" width="12.629" height="71.758"/>
	<polygon fill="#7B9140" points="1108.758,123.615 1049.311,123.615 1079.033,0.214 1079.033,0.214 	"/>
</g>
<g>
	<rect x="1182.168" y="94.598" fill="#B65C1F" width="12.629" height="71.758"/>
	<polygon fill="#7B9140" points="1218.205,123.615 1158.758,123.615 1188.48,0.214 1188.48,0.214 	"/>
</g>
</svg>
