<?xml version="1.0" encoding="utf-8"?>
<!-- Generator: Adobe Illustrator 16.0.0, SVG Export Plug-In . SVG Version: 6.00 Build 0)  -->
<!DOCTYPE svg PUBLIC "-//W3C//DTD SVG 1.1//EN" "http://www.w3.org/Graphics/SVG/1.1/DTD/svg11.dtd">
<svg version="1.1" id="Layer_1" xmlns="http://www.w3.org/2000/svg" xmlns:xlink="http://www.w3.org/1999/xlink" x="0px" y="0px"
	 width="1224.527px" height="233.665px" viewBox="-77.701 82.042 1224.527 233.665"
	 enable-background="new -77.701 82.042 1224.527 233.665" xml:space="preserve">
<g>
	<rect x="349.972" y="164.062" fill="#99A565" width="11.773" height="151.216"/>
	<rect x="361.745" y="164.062" fill="#DDE0AD" width="11.773" height="151.216"/>
	<rect x="373.518" y="164.062" fill="#99A565" width="11.773" height="151.216"/>
</g>
<g>
	<rect x="385.292" y="164.062" fill="#DDE0AD" width="11.772" height="151.216"/>
	<rect x="397.064" y="164.062" fill="#99A565" width="11.773" height="151.216"/>
	<rect x="408.837" y="164.062" fill="#DDE0AD" width="11.773" height="151.216"/>
	<rect x="420.61" y="164.062" fill="#99A565" width="11.773" height="151.216"/>
	<rect x="432.384" y="164.062" fill="#DDE0AD" width="11.773" height="151.216"/>
	<rect x="444.157" y="164.062" fill="#99A565" width="11.773" height="151.216"/>
</g>
<g>
	<rect x="455.93" y="164.062" fill="#DDE0AD" width="11.772" height="151.216"/>
	<rect x="467.702" y="164.062" fill="#99A565" width="11.773" height="151.216"/>
	<rect x="479.476" y="164.062" fill="#DDE0AD" width="11.773" height="151.216"/>
	<rect x="491.249" y="164.062" fill="#99A565" width="11.773" height="151.216"/>
	<rect x="503.021" y="164.062" fill="#DDE0AD" width="11.773" height="151.216"/>
	<rect x="514.795" y="164.062" fill="#99A565" width="11.773" height="151.216"/>
</g>
<g>
	<rect x="526.568" y="164.062" fill="#DDE0AD" width="11.773" height="151.216"/>
	<rect x="538.341" y="164.062" fill="#99A565" width="11.773" height="151.216"/>
	<rect x="550.115" y="164.062" fill="#DDE0AD" width="11.772" height="151.216"/>
	<rect x="561.887" y="164.062" fill="#99A565" width="11.772" height="151.216"/>
	<rect x="573.66" y="164.062" fill="#DDE0AD" width="11.773" height="151.216"/>
	<rect x="585.433" y="164.062" fill="#99A565" width="11.773" height="151.216"/>
</g>
<g>
	<rect x="597.207" y="164.062" fill="#DDE0AD" width="11.772" height="151.216"/>
	<rect x="608.979" y="164.062" fill="#99A565" width="11.773" height="151.216"/>
	<rect x="620.752" y="164.062" fill="#DDE0AD" width="11.772" height="151.216"/>
	<rect x="632.525" y="164.062" fill="#99A565" width="11.773" height="151.216"/>
	<rect x="644.298" y="164.062" fill="#DDE0AD" width="11.773" height="151.216"/>
	<rect x="656.072" y="164.062" fill="#99A565" width="11.773" height="151.216"/>
</g>
<g>
	<g>
		<rect x="48.133" y="155.42" fill="#7C3116" width="4.081" height="47.381"/>
		<circle fill="#7A7F0A" cx="50.265" cy="150.154" r="16.373"/>
		<circle fill="#C75651" cx="54.688" cy="158.615" r="2.473"/>
		<circle fill="#C75651" cx="48.133" cy="151.188" r="1.581"/>
		<circle fill="#C75651" cx="57.161" cy="142.764" r="1.581"/>
		<circle fill="#C75651" cx="39.037" cy="152.069" r="1.581"/>
		<circle fill="#C75651" cx="60.49" cy="152.77" r="1.388"/>
	</g>
	<g>
		<rect x="153.646" y="155.42" fill="#7C3116" width="4.081" height="47.381"/>
		<circle fill="#7A7F0A" cx="155.777" cy="150.154" r="16.372"/>
		<circle fill="#C75651" cx="160.2" cy="158.615" r="2.473"/>
		<circle fill="#C75651" cx="153.646" cy="151.188" r="1.581"/>
		<circle fill="#C75651" cx="162.673" cy="142.764" r="1.581"/>
		<circle fill="#C75651" cx="144.549" cy="152.069" r="1.581"/>
		<circle fill="#C75651" cx="166.002" cy="152.77" r="1.388"/>
	</g>
	<g>
		<rect x="325.832" y="155.42" fill="#7C3116" width="4.081" height="47.381"/>
		<circle fill="#7A7F0A" cx="327.962" cy="150.154" r="16.373"/>
		<circle fill="#C75651" cx="332.385" cy="158.615" r="2.473"/>
		<circle fill="#C75651" cx="325.832" cy="151.188" r="1.581"/>
		<circle fill="#C75651" cx="334.858" cy="142.764" r="1.581"/>
		<circle fill="#C75651" cx="316.735" cy="152.069" r="1.581"/>
		<circle fill="#C75651" cx="338.188" cy="152.77" r="1.388"/>
	</g>
	<g>
		<rect x="225.427" y="155.42" fill="#7C3116" width="4.081" height="47.381"/>
		<circle fill="#7A7F0A" cx="227.559" cy="150.154" r="16.373"/>
		<circle fill="#C75651" cx="231.981" cy="158.615" r="2.473"/>
		<circle fill="#C75651" cx="225.428" cy="151.188" r="1.581"/>
		<circle fill="#C75651" cx="234.455" cy="142.764" r="1.581"/>
		<circle fill="#C75651" cx="216.331" cy="152.069" r="1.581"/>
		<circle fill="#C75651" cx="237.784" cy="152.77" r="1.388"/>
	</g>
</g>
<g>
	<rect x="667.845" y="164.062" fill="#DDE0AD" width="11.771" height="151.216"/>
	<rect x="679.617" y="164.062" fill="#99A565" width="11.773" height="151.216"/>
	<rect x="691.39" y="164.062" fill="#DDE0AD" width="11.773" height="151.216"/>
	<rect x="703.164" y="164.062" fill="#99A565" width="11.773" height="151.216"/>
	<rect x="714.937" y="164.062" fill="#DDE0AD" width="11.773" height="151.216"/>
	<rect x="726.71" y="164.062" fill="#99A565" width="11.771" height="151.216"/>
</g>
<g>
	<g>
		<rect x="0.487" y="149.653" fill="#A55032" width="5.694" height="72.738"/>
		<circle fill="#8E9B16" cx="3.46" cy="142.306" r="22.845"/>
		<circle fill="#C75651" cx="9.632" cy="154.111" r="3.45"/>
		<circle fill="#C75651" cx="0.487" cy="143.748" r="2.206"/>
		<circle fill="#C75651" cx="13.082" cy="131.994" r="2.206"/>
		<circle fill="#C75651" cx="-12.206" cy="144.978" r="2.206"/>
		<circle fill="#C75651" cx="17.728" cy="145.954" r="1.936"/>
	</g>
	<g>
		<rect x="124.803" y="149.653" fill="#A55032" width="5.694" height="72.738"/>
		<circle fill="#8E9B16" cx="127.777" cy="142.306" r="22.845"/>
		<circle fill="#C75651" cx="133.948" cy="154.111" r="3.451"/>
		<circle fill="#C75651" cx="124.803" cy="143.748" r="2.206"/>
		<circle fill="#C75651" cx="137.398" cy="131.994" r="2.206"/>
		<circle fill="#C75651" cx="112.111" cy="144.978" r="2.206"/>
		<circle fill="#C75651" cx="142.045" cy="145.954" r="1.936"/>
	</g>
	<g>
		<rect x="246.12" y="149.653" fill="#A55032" width="5.694" height="72.738"/>
		<circle fill="#8E9B16" cx="249.093" cy="142.306" r="22.844"/>
		<circle fill="#C75651" cx="255.264" cy="154.111" r="3.45"/>
		<circle fill="#C75651" cx="246.12" cy="143.748" r="2.206"/>
		<circle fill="#C75651" cx="258.715" cy="131.994" r="2.206"/>
		<circle fill="#C75651" cx="233.427" cy="144.978" r="2.206"/>
		<circle fill="#C75651" cx="263.361" cy="145.954" r="1.936"/>
	</g>
</g>
<g>
	<g>
		<rect x="-44.895" y="132.351" fill="#D47F65" width="9.048" height="114.925"/>
		<g>
			<circle fill="#AEC622" cx="-40.17" cy="120.676" r="36.301"/>
			<circle fill="#C75651" cx="-30.364" cy="139.437" r="5.483"/>
			<circle fill="#C75651" cx="-44.895" cy="122.967" r="3.506"/>
			<circle fill="#C75651" cx="-24.881" cy="104.291" r="3.506"/>
			<circle fill="#C75651" cx="-65.063" cy="124.921" r="3.506"/>
			<circle fill="#C75651" cx="-17.497" cy="126.472" r="3.077"/>
		</g>
	</g>
	<g>
		<rect x="67.484" y="132.351" fill="#D47F65" width="9.048" height="114.925"/>
		<g>
			<circle fill="#AEC622" cx="72.209" cy="120.676" r="36.301"/>
			<circle fill="#C75651" cx="82.015" cy="139.437" r="5.483"/>
			<circle fill="#C75651" cx="67.484" cy="122.967" r="3.506"/>
			<circle fill="#C75651" cx="87.499" cy="104.291" r="3.505"/>
			<circle fill="#C75651" cx="47.316" cy="124.921" r="3.506"/>
			<circle fill="#C75651" cx="94.881" cy="126.472" r="3.077"/>
		</g>
	</g>
	<g>
		<rect x="179.863" y="132.351" fill="#D47F65" width="9.049" height="114.925"/>
		<g>
			<circle fill="#AEC622" cx="184.588" cy="120.676" r="36.301"/>
			<circle fill="#C75651" cx="194.395" cy="139.437" r="5.483"/>
			<circle fill="#C75651" cx="179.864" cy="122.967" r="3.505"/>
			<circle fill="#C75651" cx="199.877" cy="104.291" r="3.505"/>
			<circle fill="#C75651" cx="159.695" cy="124.921" r="3.505"/>
			<circle fill="#C75651" cx="207.26" cy="126.472" r="3.077"/>
		</g>
	</g>
	<g>
		<rect x="292.242" y="132.351" fill="#D47F65" width="9.049" height="114.925"/>
		<g>
			<circle fill="#AEC622" cx="296.967" cy="120.676" r="36.3"/>
			<circle fill="#C75651" cx="306.774" cy="139.437" r="5.483"/>
			<circle fill="#C75651" cx="292.242" cy="122.967" r="3.506"/>
			<circle fill="#C75651" cx="312.256" cy="104.291" r="3.505"/>
			<circle fill="#C75651" cx="272.074" cy="124.921" r="3.506"/>
			<circle fill="#C75651" cx="319.639" cy="126.472" r="3.077"/>
		</g>
	</g>
</g>
<circle fill="#C75651" cx="33.304" cy="243.873" r="5.483"/>
<circle fill="#C75651" cx="225.691" cy="243.873" r="3.505"/>
<circle fill="#C75651" cx="152.621" cy="245.851" r="3.505"/>
<circle fill="#C75651" cx="-10.474" cy="238.392" r="3.506"/>
<circle fill="#C75651" cx="204.183" cy="240.368" r="3.077"/>
<g>
	<path fill="#1D3749" d="M573.71,176.616c0,1.17-0.949,2.119-2.119,2.119h-6.898c-1.171,0-2.119-0.949-2.119-2.119v-10.402
		c0-1.171,0.948-2.12,2.119-2.12h6.898c1.17,0,2.119,0.949,2.119,2.12V176.616z"/>
	<path fill="#1D3749" d="M519.79,201.837c0,0.634-0.904,1.146-2.019,1.146h-12.464c-1.116,0-2.02-0.513-2.02-1.146v-3.771
		c0-0.634,0.904-1.147,2.02-1.147h12.464c1.115,0,2.019,0.514,2.019,1.147V201.837z"/>
	<path fill="#1D3749" d="M506.621,201.405c0,0.436-0.436,0.789-0.974,0.789h-13.848c-0.538,0-0.974-0.354-0.974-0.789l0,0
		c0-0.435,0.436-0.787,0.974-0.787h13.848C506.186,200.618,506.621,200.971,506.621,201.405L506.621,201.405z"/>
	<path fill="#1D3749" d="M551.792,201.405c0,0.436-0.648,0.789-1.45,0.789H529.73c-0.802,0-1.449-0.354-1.449-0.789l0,0
		c0-0.435,0.647-0.787,1.449-0.787h20.612C551.144,200.618,551.792,200.971,551.792,201.405L551.792,201.405z"/>
	<rect x="523.952" y="199.253" fill="#1D3749" width="6.888" height="4.305"/>
	<rect x="489.089" y="184.769" fill="#1D3749" width="58.629" height="16.638"/>
	<path fill="#FF4E31" d="M520.793,190.88c0,0.783-0.514,1.419-1.148,1.419h-39.033c-0.633,0-1.148-0.636-1.148-1.419v-25.366
		c0-0.784,0.515-1.42,1.148-1.42h39.033c0.634,0,1.148,0.636,1.148,1.42V190.88z"/>
	<g>
		<circle fill="#465866" cx="485.373" cy="203.147" r="14.785"/>
		<circle fill="#E6FFFF" cx="485.373" cy="203.147" r="8.584"/>
	</g>
	<polygon fill="#FF4E31" points="511.011,164.094 511.011,199.642 558.483,199.642 564.726,166.274 564.726,164.094 	"/>
	<g>
		<path fill="#FF4E31" d="M564.664,110.778c0-1.213-0.736-2.195-1.646-2.195h-33.812c-0.909,0-1.647,0.982-1.647,2.195v2.584h37.105
			V110.778z"/>
		<rect x="561.605" y="113.362" fill="#FF4E31" width="1.936" height="52.1"/>
		<rect x="550.744" y="113.362" fill="#FF4E31" width="1.049" height="52.1"/>
		<polygon fill="#FF4E31" points="521.189,167.233 520.02,166.948 527.601,111.591 528.77,111.874 		"/>
	</g>
	<path fill="#ADCBDB" d="M476.632,166.697c2.099,0,3.799,1.701,3.799,3.8c0,2.097-1.7,3.798-3.799,3.798"/>
	<path fill="#ADCBDB" d="M549.98,167.371c0,0.634-0.514,1.147-1.146,1.147h-4.186c-0.635,0-1.148-0.514-1.148-1.147v-0.431
		c0-0.634,0.514-1.148,1.148-1.148h4.186c0.633,0,1.146,0.515,1.146,1.148V167.371z"/>
	<g>
		<circle fill="#465866" cx="567.453" cy="190.89" r="26.867"/>
		<circle fill="#E6FFFF" cx="567.453" cy="190.89" r="15.598"/>
	</g>
</g>
<g>
	<rect x="818.509" y="163.609" fill="#9B4D18" width="9.133" height="51.889"/>
	<polygon fill="#667A2E" points="844.569,184.592 801.581,184.592 823.075,95.356 823.075,95.356 	"/>
</g>
<g>
	<rect x="969.132" y="153.029" fill="#844012" width="6.186" height="35.144"/>
	<polygon fill="#556321" points="986.781,167.24 957.666,167.24 972.224,106.803 972.224,106.803 	"/>
</g>
<g>
	<rect x="935.148" y="163.609" fill="#9B4D18" width="9.133" height="51.889"/>
	<polygon fill="#667A2E" points="961.208,184.592 918.219,184.592 939.713,95.356 939.713,95.356 	"/>
</g>
<g>
	<rect x="858.544" y="151.969" fill="#844012" width="6.186" height="35.144"/>
	<polygon fill="#556321" points="876.194,166.18 847.08,166.18 861.636,105.742 861.636,105.742 	"/>
</g>
<g>
	<rect x="1044.355" y="151.969" fill="#844012" width="6.186" height="35.144"/>
	<polygon fill="#556321" points="1062.003,166.18 1032.888,166.18 1047.447,105.742 1047.447,105.742 	"/>
</g>
<g>
	<rect x="1129.177" y="151.969" fill="#844012" width="6.186" height="35.144"/>
	<polygon fill="#556321" points="1146.826,166.18 1117.71,166.18 1132.269,105.742 1132.269,105.742 	"/>
</g>
<g>
	<rect x="1066.81" y="163.609" fill="#9B4D18" width="9.133" height="51.889"/>
	<polygon fill="#667A2E" points="1092.869,184.592 1049.88,184.592 1071.375,95.356 1071.375,95.356 	"/>
</g>
<g>
	<path fill="#944322" d="M717.515,172.308c0,2.804-2.271,5.076-5.076,5.076h-38.471c-2.803,0-5.076-2.272-5.076-5.076v-15.229
		c0-2.804,2.273-5.075,5.076-5.075h38.471c2.805,0,5.076,2.271,5.076,5.075V172.308z"/>
	<g>
		<path fill="#FFB297" d="M665.396,158.045c-0.825,0-1.6-0.2-2.29-0.549c-0.03,0.179-0.05,0.362-0.05,0.549
			c0,1.802,1.461,3.265,3.264,3.265h8.023c1.803,0,3.264-1.463,3.264-3.265c0-0.187-0.02-0.37-0.051-0.549
			c-0.688,0.349-1.465,0.549-2.289,0.549H665.396z"/>
		<g>
			<g>
				<path fill="#C1BC9D" d="M666.736,145.566c0,0.739-0.6,1.339-1.34,1.339l0,0c-0.74,0-1.34-0.6-1.34-1.339v-5.501
					c0-0.739,0.6-1.34,1.34-1.34l0,0c0.74,0,1.34,0.601,1.34,1.34V145.566z"/>
				<path fill="#C1BC9D" d="M676.606,145.566c0,0.739-0.599,1.339-1.339,1.339l0,0c-0.739,0-1.34-0.6-1.34-1.339v-5.501
					c0-0.739,0.601-1.34,1.34-1.34l0,0c0.74,0,1.339,0.601,1.339,1.34V145.566z"/>
			</g>
			<path fill="#944322" d="M675.267,141.971h-9.871c-2.803,0-5.076,2.272-5.076,5.075v5.924c0,1.979,1.135,3.688,2.786,4.526
				c0.263-1.541,1.6-2.714,3.214-2.714h8.023c1.614,0,2.951,1.173,3.214,2.714c1.651-0.839,2.786-2.548,2.786-4.526v-5.924
				C680.343,144.243,678.07,141.971,675.267,141.971z"/>
			<path fill="#FF9364" d="M674.343,154.782h-8.023c-1.614,0-2.951,1.173-3.214,2.714c0.69,0.349,1.465,0.549,2.29,0.549h9.871
				c0.824,0,1.602-0.2,2.29-0.549C677.294,155.955,675.958,154.782,674.343,154.782z"/>
			<g>
				<path fill="#944322" d="M661.095,145.002c0,2.103-1.705,3.807-3.807,3.807c-2.104,0-3.809-1.704-3.809-3.807"/>
				<path fill="#944322" d="M687.183,145.002c0,2.103-1.705,3.807-3.808,3.807s-3.808-1.704-3.808-3.807"/>
			</g>
		</g>
	</g>
	<path fill="#944322" d="M672.517,166.506c0-1.001-0.812-1.812-1.812-1.812c-1,0-1.812,0.812-1.812,1.812v25.402h3.625V166.506z"/>
	<path fill="#944322" d="M680.232,166.506c0-1.001-0.812-1.812-1.812-1.812c-1.001,0-1.813,0.812-1.813,1.812v25.402h3.626V166.506z
		"/>
	<path fill="#944322" d="M709.801,166.506c0-1.001-0.812-1.812-1.813-1.812c-1,0-1.812,0.812-1.812,1.812v25.402h3.626V166.506z"/>
	<path fill="#944322" d="M717.515,166.506c0-1.001-0.811-1.812-1.812-1.812c-1,0-1.812,0.812-1.812,1.812v25.402h3.625V166.506z"/>
	<path fill="#4C3731" d="M670.705,194.306c1.001,0,1.812-0.812,1.812-1.812v-0.586h-3.625v0.586
		C668.892,193.494,669.705,194.306,670.705,194.306z"/>
	<path fill="#4C3731" d="M678.419,194.306c1,0,1.812-0.812,1.812-1.812v-0.586h-3.626v0.586
		C676.606,193.494,677.418,194.306,678.419,194.306z"/>
	<path fill="#4C3731" d="M707.988,194.306c1.002,0,1.813-0.812,1.813-1.812v-0.586h-3.626v0.586
		C706.175,193.494,706.988,194.306,707.988,194.306z"/>
	<path fill="#4C3731" d="M715.703,194.306c1.002,0,1.812-0.812,1.812-1.812v-0.586h-3.625v0.586
		C713.89,193.494,714.703,194.306,715.703,194.306z"/>
</g>
<g>
	<rect x="776.74" y="176.427" fill="#B65C1F" width="12.629" height="71.757"/>
	<polygon fill="#7B9140" points="812.777,205.443 753.33,205.443 783.052,82.042 783.052,82.042 	"/>
</g>
<g>
	<rect x="886.187" y="176.427" fill="#B65C1F" width="12.629" height="71.757"/>
	<polygon fill="#7B9140" points="922.224,205.443 862.777,205.443 892.5,82.042 892.5,82.042 	"/>
</g>
<g>
	<rect x="995.634" y="176.427" fill="#B65C1F" width="12.629" height="71.757"/>
	<polygon fill="#7B9140" points="1031.671,205.443 972.224,205.443 1001.947,82.042 1001.947,82.042 	"/>
</g>
<g>
	<rect x="1105.082" y="176.427" fill="#B65C1F" width="12.629" height="71.757"/>
	<polygon fill="#7B9140" points="1141.119,205.443 1081.671,205.443 1111.394,82.042 1111.394,82.042 	"/>
</g>
</svg>
