<?xml version="1.0" encoding="utf-8"?>
<!-- Generator: Adobe Illustrator 16.0.0, SVG Export Plug-In . SVG Version: 6.00 Build 0)  -->
<!DOCTYPE svg PUBLIC "-//W3C//DTD SVG 1.1//EN" "http://www.w3.org/Graphics/SVG/1.1/DTD/svg11.dtd">
<svg version="1.1" id="Layer_1" xmlns="http://www.w3.org/2000/svg" xmlns:xlink="http://www.w3.org/1999/xlink" x="0px" y="0px"
	 width="1054.598px" height="315.707px" viewBox="0 0 1054.598 315.707" enable-background="new 0 0 1054.598 315.707"
	 xml:space="preserve">
<g>
	<path fill="#FFFFFF" d="M23.598,27.085v288.317H1031V27.085H23.598z M1012.442,315.13H42.156V50.343h970.286V315.13z"/>
</g>
<g>
	<polygon fill="#DC4A29" points="57.284,34.426 0,34.426 19.094,-0.006 57.284,-0.006 	"/>
	<polygon fill="#DC4A29" points="997.315,34.426 1054.598,34.426 1035.502,-0.006 997.315,-0.006 	"/>
	<rect x="49.817" y="-0.006" fill="#DC4A29" width="964.033" height="34.432"/>
</g>
<g>
	<rect x="42.156" y="114.746" fill="#BAA665" width="67.087" height="200.967"/>
	<circle fill="#B5D6DB" cx="75.699" cy="151.897" r="2.501"/>
	<g>
		<circle fill="#B5D6DB" cx="98.099" cy="214.55" r="3.67"/>
		
			<line fill="none" stroke="#8A9C9F" stroke-width="2.0807" stroke-linecap="round" stroke-linejoin="round" stroke-miterlimit="10" x1="83.925" y1="214.55" x2="98.319" y2="214.55"/>
	</g>
</g>
<g>
	<g>
		<rect x="976.273" y="230.4" display="none" fill="#202E42" width="7.756" height="9.933"/>
		<rect x="948.521" y="230.4" display="none" fill="#202E42" width="7.756" height="9.933"/>
		<g display="none">
			<g display="inline">
				<path fill="#2C313A" d="M906.232,313.202c0.637-1.9,1.24-2.113,5.354-2.312l2.998-0.955c1.682-0.414,3.158-1.34,4.26-2.604
					c0.246-0.287,0.473-0.59,0.68-0.906c1.898,0.139,1.627,1.865,1.627,1.865h5.35v0.723v1.006v1.008v2.176v0.957v0.572h-5.891
					v-0.572v-0.953l-2.615,1.525h-12.012C905.982,314.196,906.07,313.683,906.232,313.202z"/>
				<rect x="917.566" y="256.944" fill="#202E42" width="8.934" height="51.643"/>
			</g>
			<path display="inline" fill="#1F2328" d="M917.656,313.202c0.639-1.9,1.24-2.113,5.355-2.312l2.998-0.955
				c1.68-0.414,3.158-1.34,4.26-2.604c0.246-0.287,0.473-0.59,0.68-0.906c1.898,0.139,1.627,1.865,1.627,1.865h5.35v0.723v1.006
				v1.008v2.176v0.957v0.572h-5.891v-0.572v-0.953l-2.615,1.525h-12.014C917.406,314.196,917.496,313.683,917.656,313.202z"/>
			<rect x="928.99" y="256.944" display="inline" fill="#202E42" width="8.936" height="51.643"/>
			<rect x="917.566" y="252.997" display="inline" fill="#202E42" width="50.852" height="8.932"/>
			<path display="inline" fill="#202E42" d="M954.025,253.663c0,4.566,3.703,8.266,8.27,8.266h6.256
				c4.568,0,8.268-3.699,8.268-8.266v-6.258c0-4.568-3.699-8.269-8.268-8.269h-6.256c-4.566,0-8.27,3.7-8.27,8.269V253.663z"/>
		</g>
		<g display="none">
			<path display="inline" fill="#F9B69B" d="M938.646,237.547L938.646,237.547l-2.389,0.001l0,0v6.902h-3.279h-4.326
				c-0.002,0-0.004,0-0.006,0c-0.004,0-0.006,0-0.008,0h-0.334v-0.033c-1.744-0.174-3.111-1.629-3.111-3.418
				c0-1.791,1.367-3.246,3.111-3.418v-0.034h0.334c0.002,0,0.004-0.001,0.008-0.001c0.002,0,0.004,0.001,0.006,0.001h3.543
				c-0.004-0.034-0.012-0.065-0.012-0.101c0-0.68,0.551-1.23,1.23-1.23c0.678,0,1.23,0.551,1.23,1.23
				c0,0.035-0.008,0.066-0.012,0.101h3.023H938.646z"/>
			<rect x="936.257" y="237.548" display="inline" fill="#FFFFFF" width="0" height="6.902"/>
			<polygon display="inline" fill="#FFFFFF" points="938.646,244.45 938.646,244.45 936.257,244.45 936.257,244.45 936.257,244.45 
				936.257,244.45 			"/>
			<polygon display="inline" fill="#FFFFFF" points="938.646,244.45 938.646,244.45 936.257,244.45 936.257,244.45 937.656,244.45 
							"/>
			<polygon display="inline" opacity="0.3" fill="#84A8C1" points="938.646,244.45 938.646,244.45 936.257,244.45 936.257,244.45 
				937.656,244.45 			"/>
			<polygon display="inline" fill="#FFFFFF" points="938.646,243.422 938.646,244.45 937.656,244.45 936.257,244.45 
				936.257,237.548 938.646,237.548 			"/>
			<rect x="937.808" y="235.802" display="inline" fill="#202E42" width="32.479" height="9.062"/>
		</g>
		<g display="none">
			<path display="inline" fill="#F9B69B" d="M958.001,178.524l0.176-0.221h12.658v27.002l0,0v10.191h-9.658v-10.191l0,0v-0.01
				c0-2.117,0-2.117,0-2.646c0-1.235-1.41-1.41-1.41-1.41h-2.957v-11.645h-3.75L958.001,178.524z"/>
			<circle display="inline" fill="#2E3D49" cx="959.821" cy="182.704" r="0.519"/>
			<path display="inline" fill="#CE857C" d="M958.578,192.526c0.197,0,0.359-0.162,0.359-0.36h0.529
				c0,0.489-0.398,0.888-0.889,0.888h-1.768v-0.527H958.578z"/>
			<path display="inline" fill="none" d="M964.406,183.376c0,0.013-0.004,0.024-0.004,0.037v-0.037H964.406z"/>
			<g display="inline">
				<rect x="954.091" y="248.22" fill="#9B390D" width="22.758" height="2.008"/>
				<polygon fill="#202E42" points="956.328,250.228 956.328,248.22 957.347,248.22 957.347,250.228 970.966,250.228 
					970.966,248.22 971.988,248.22 971.988,250.228 976.849,250.228 976.849,252.997 954.091,252.997 954.091,250.228 				"/>
			</g>
			<polygon display="inline" fill="#FFFFFF" points="961.177,205.306 961.183,202.824 963.357,202.824 965.218,202.824 
				967.251,202.824 969.044,202.824 970.835,202.824 970.835,205.306 970.878,205.306 970.878,248.22 961.167,248.22 
				961.167,205.306 			"/>
			<path display="inline" opacity="0.3" fill="#84A8C1" d="M963.041,224.71c0,0.751-0.609,1.358-1.359,1.358h-5.318
				c-0.75,0-1.357-0.607-1.357-1.358v-7.094h8.035V224.71z"/>
			<polygon display="inline" fill="#BF2E2E" points="963.57,205.515 965.667,202.824 967.763,205.515 966.613,206.665 
				967.595,241.247 967.595,241.247 965.671,243.172 963.746,241.247 963.74,241.247 964.72,206.665 			"/>
			<path display="inline" fill="#303235" d="M956.986,172.451c1.508,0,2.732,1.223,2.732,2.733c0,0.177-0.021,0.35-0.053,0.517
				h11.805v15.129c0,0,0,0-1.367,0c-4.146,0-3.926-3.926-3.926-3.926v-1.718c0.041,0.003,0.078,0.012,0.117,0.012
				c0.963,0,1.742-0.779,1.742-1.741s-0.779-1.741-1.742-1.741c-0.494,0-0.936,0.206-1.256,0.537v1.123v1.286v0.536h-1.855v-4.469
				c-0.631,0-1.562,0-2.961,0c-3.838,0-5.297-3.14-5.74-4.453c-0.146-0.334-0.23-0.704-0.23-1.092
				C954.251,173.674,955.476,172.451,956.986,172.451z"/>
			<polygon display="inline" fill="#344E68" points="959.208,205.294 958.513,207.753 959.72,209.288 958.144,210.862 
				961.167,233.049 961.167,211.126 961.167,209.021 961.167,205.294 			"/>
			<g display="inline">
				<path fill="#202E42" d="M972.794,205.294h5.537c3.146,0,5.697,2.548,5.697,5.693V211v4.161v0.012v16.525h-7.18v0.013v16.509
					v4.777h-0.564h-5.406v-4.777v-42.914v-0.012H972.794z"/>
				<path fill="#202E42" d="M954.214,205.306h5.539h1.414v42.914v4.777h-5.404h-1.672v-4.777v-16.521h-5.57v-6.707v-5.926V211
					C948.521,207.854,951.07,205.306,954.214,205.306z"/>
				<polygon fill="#344E68" points="972.794,205.294 973.492,207.753 972.283,209.288 973.859,210.862 970.835,233.049 
					970.835,211.126 970.835,209.021 970.835,205.294 				"/>
				<polygon fill="#344E68" points="959.208,205.294 958.513,207.753 959.72,209.288 958.144,210.862 961.167,233.049 
					961.167,211.126 961.167,209.021 961.167,205.294 				"/>
			</g>
		</g>
		<g display="none">
			<path display="inline" fill="#F9B69B" d="M960.337,235.761v0.002h-2.387h-0.002v6.902h-3.277h-4.328c-0.004,0-0.004,0-0.008,0
				s-0.006,0-0.008,0h-0.334v-0.035c-1.744-0.174-3.111-1.627-3.111-3.418c0-1.79,1.367-3.244,3.111-3.417v-0.034h0.334
				c0.002,0,0.004,0,0.008,0s0.004,0,0.008,0h3.545c-0.006-0.033-0.012-0.064-0.012-0.1c0-0.679,0.549-1.23,1.227-1.23
				c0.682,0,1.232,0.552,1.232,1.23c0,0.035-0.008,0.066-0.01,0.1h3.021H960.337z"/>
			<rect x="957.949" y="235.763" display="inline" fill="#FFFFFF" width="0.002" height="6.902"/>
			<polygon display="inline" fill="#FFFFFF" points="960.337,242.665 960.337,242.665 957.949,242.665 957.949,242.665 
				957.951,242.665 957.951,242.665 			"/>
			<polygon display="inline" fill="#FFFFFF" points="960.337,242.665 960.337,242.665 957.951,242.665 957.951,242.665 
				959.347,242.665 			"/>
			<polygon display="inline" opacity="0.3" fill="#84A8C1" points="960.337,242.665 960.337,242.665 957.951,242.665 
				957.951,242.665 959.347,242.665 			"/>
			<polygon display="inline" fill="#FFFFFF" points="960.337,241.637 960.337,242.665 959.347,242.665 957.951,242.665 
				957.951,235.763 960.337,235.763 			"/>
			<rect x="959.5" y="235.643" display="inline" fill="#202E42" width="24.529" height="9.062"/>
		</g>
		<g>
			<g>
				<rect x="971.089" y="245.899" fill="#9B9B9B" width="2.26" height="16.969"/>
				<circle fill="#9B9B9B" cx="972.224" cy="262.866" r="1.135"/>
			</g>
			<path fill="#0085BA" d="M988.882,246.823c0,1.346-1.09,2.438-2.436,2.438H942.24c-1.344,0-2.436-1.092-2.436-2.438l0,0
				c0-1.346,1.092-2.436,2.436-2.436h44.207C987.792,244.388,988.882,245.478,988.882,246.823L988.882,246.823z"/>
		</g>
	</g>
</g>
</svg>
