<?xml version="1.0" encoding="utf-8"?>
<!-- Generator: Adobe Illustrator 16.0.0, SVG Export Plug-In . SVG Version: 6.00 Build 0)  -->
<!DOCTYPE svg PUBLIC "-//W3C//DTD SVG 1.1//EN" "http://www.w3.org/Graphics/SVG/1.1/DTD/svg11.dtd">
<svg version="1.1" id="Layer_1" xmlns="http://www.w3.org/2000/svg" xmlns:xlink="http://www.w3.org/1999/xlink" x="0px" y="0px"
	 width="1054.598px" height="315.707px" viewBox="0 0 1054.598 315.707" enable-background="new 0 0 1054.598 315.707"
	 xml:space="preserve">
<g>
	<rect x="42.156" y="50.311" fill="#EAF1F4" width="970.286" height="264.787"/>
	
		<polyline fill="none" stroke="#B3C7CE" stroke-width="1.6396" stroke-linecap="round" stroke-linejoin="round" stroke-miterlimit="10" points="
		128.589,297.609 161.337,297.609 161.337,311.05 738.719,311.05 743.364,297.609 747.463,297.609 	"/>
	<g>
		<g opacity="0.5">
			<rect x="261.415" y="98.832" fill="#B5D6DB" width="62.108" height="40.115"/>
			<rect x="261.415" y="142.607" fill="#B5D6DB" width="62.108" height="103.918"/>
			<rect x="327.182" y="98.832" fill="#B5D6DB" width="62.107" height="40.115"/>
			<rect x="327.182" y="142.607" fill="#B5D6DB" width="62.107" height="103.918"/>
			<rect x="323.523" y="98.832" fill="#FFFFFF" width="3.658" height="40.115"/>
			<rect x="323.523" y="142.607" fill="#FFFFFF" width="3.658" height="103.918"/>
			<rect x="261.415" y="138.947" fill="#FFFFFF" width="62.108" height="3.66"/>
			<rect x="327.182" y="138.947" fill="#FFFFFF" width="62.107" height="3.66"/>
			<rect x="323.523" y="138.947" fill="#FFFFFF" width="3.658" height="3.66"/>
		</g>
		<rect x="255.261" y="246.21" fill="#FFFFFF" width="140.183" height="3.265"/>
	</g>
	<g>
		<g opacity="0.5">
			<rect x="98.412" y="98.832" fill="#B5D6DB" width="62.108" height="40.115"/>
			<rect x="98.412" y="142.607" fill="#B5D6DB" width="62.108" height="103.918"/>
			<rect x="164.179" y="98.832" fill="#B5D6DB" width="62.107" height="40.115"/>
			<rect x="164.179" y="142.607" fill="#B5D6DB" width="62.107" height="103.918"/>
			<rect x="160.52" y="98.832" fill="#FFFFFF" width="3.659" height="40.115"/>
			<rect x="160.52" y="142.607" fill="#FFFFFF" width="3.659" height="103.918"/>
			<rect x="98.412" y="138.947" fill="#FFFFFF" width="62.108" height="3.66"/>
			<rect x="164.179" y="138.947" fill="#FFFFFF" width="62.107" height="3.66"/>
			<rect x="160.52" y="138.947" fill="#FFFFFF" width="3.659" height="3.66"/>
		</g>
		<rect x="92.259" y="246.21" fill="#FFFFFF" width="140.182" height="3.265"/>
	</g>
	<g>
		<g>
			<rect x="563.434" y="69.575" fill="#FFFFFF" width="111.039" height="6.147"/>
			<g>
				<rect x="578.34" y="50.311" fill="#869392" width="0.576" height="19.265"/>
				<rect x="658.991" y="50.311" fill="#869392" width="0.576" height="19.265"/>
			</g>
		</g>
		<g>
			<rect x="360.96" y="69.575" fill="#FFFFFF" width="111.04" height="6.147"/>
			<g>
				<rect x="375.868" y="50.311" fill="#869392" width="0.576" height="19.265"/>
				<rect x="456.516" y="50.311" fill="#869392" width="0.578" height="19.265"/>
			</g>
		</g>
		<g>
			<rect x="765.907" y="69.575" fill="#FFFFFF" width="111.039" height="6.147"/>
			<g>
				<rect x="780.815" y="50.311" fill="#869392" width="0.574" height="19.265"/>
				<rect x="861.461" y="50.311" fill="#869392" width="0.576" height="19.265"/>
			</g>
		</g>
		<g>
			<rect x="158.487" y="69.575" fill="#FFFFFF" width="111.041" height="6.147"/>
			<g>
				<rect x="173.395" y="50.311" fill="#869392" width="0.577" height="19.265"/>
				<rect x="254.044" y="50.311" fill="#869392" width="0.576" height="19.265"/>
			</g>
		</g>
	</g>
	<g>
		<g>
			
				<path fill="none" stroke="#BF6328" stroke-width="1.7377" stroke-linecap="round" stroke-linejoin="round" stroke-miterlimit="10" d="
				M259.583,150.421c0,10.157-8.233,18.392-18.391,18.392c-10.157,0-18.391-8.233-18.391-18.392"/>
			<path fill="none" stroke="#BF6328" stroke-width="1.7377" stroke-linecap="square" stroke-miterlimit="10" d="M231.2,314.432
				c0-5.52,4.474-9.992,9.992-9.992c5.519,0,9.992,4.474,9.992,9.992"/>
			
				<line fill="none" stroke="#BF6328" stroke-width="1.7377" stroke-linecap="round" stroke-linejoin="round" stroke-miterlimit="10" x1="241.192" y1="145.535" x2="241.192" y2="303.59"/>
		</g>
		
			<line fill="none" stroke="#BF6328" stroke-width="1.7377" stroke-miterlimit="10" x1="241.192" y1="314.949" x2="241.192" y2="302.786"/>
	</g>
	<g>
		<rect x="449.706" y="118.941" fill="#E4C28F" width="130.865" height="68.052"/>
		<rect x="452.03" y="121.422" fill="#FFFFFF" width="126.218" height="63.092"/>
		<g>
			
				<line fill="none" stroke="#C0E5EF" stroke-width="0.4099" stroke-miterlimit="10" x1="461.564" y1="126.9" x2="461.564" y2="179.15"/>
			
				<line fill="none" stroke="#C0E5EF" stroke-width="0.4099" stroke-miterlimit="10" x1="466.754" y1="126.9" x2="466.754" y2="179.15"/>
			
				<line fill="none" stroke="#C0E5EF" stroke-width="0.4099" stroke-miterlimit="10" x1="471.945" y1="126.9" x2="471.945" y2="179.15"/>
			
				<line fill="none" stroke="#C0E5EF" stroke-width="0.4099" stroke-miterlimit="10" x1="477.135" y1="126.9" x2="477.135" y2="179.15"/>
			
				<line fill="none" stroke="#C0E5EF" stroke-width="0.4099" stroke-miterlimit="10" x1="482.325" y1="126.9" x2="482.325" y2="179.15"/>
			
				<line fill="none" stroke="#C0E5EF" stroke-width="0.4099" stroke-miterlimit="10" x1="487.515" y1="126.9" x2="487.515" y2="179.15"/>
			
				<line fill="none" stroke="#C0E5EF" stroke-width="0.4099" stroke-miterlimit="10" x1="492.706" y1="126.9" x2="492.706" y2="179.15"/>
			
				<line fill="none" stroke="#C0E5EF" stroke-width="0.4099" stroke-miterlimit="10" x1="497.896" y1="126.9" x2="497.896" y2="179.15"/>
			
				<line fill="none" stroke="#C0E5EF" stroke-width="0.4099" stroke-miterlimit="10" x1="503.086" y1="126.9" x2="503.086" y2="179.15"/>
			
				<line fill="none" stroke="#C0E5EF" stroke-width="0.4099" stroke-miterlimit="10" x1="508.277" y1="126.9" x2="508.277" y2="179.15"/>
			
				<line fill="none" stroke="#C0E5EF" stroke-width="0.4099" stroke-miterlimit="10" x1="513.467" y1="126.9" x2="513.467" y2="179.15"/>
			
				<line fill="none" stroke="#C0E5EF" stroke-width="0.4099" stroke-miterlimit="10" x1="518.658" y1="126.9" x2="518.658" y2="179.15"/>
			
				<line fill="none" stroke="#C0E5EF" stroke-width="0.4099" stroke-miterlimit="10" x1="523.848" y1="126.9" x2="523.848" y2="179.15"/>
			
				<line fill="none" stroke="#C0E5EF" stroke-width="0.4099" stroke-miterlimit="10" x1="529.04" y1="126.9" x2="529.04" y2="179.15"/>
			
				<line fill="none" stroke="#C0E5EF" stroke-width="0.4099" stroke-miterlimit="10" x1="534.229" y1="126.9" x2="534.229" y2="179.15"/>
			
				<line fill="none" stroke="#C0E5EF" stroke-width="0.4099" stroke-miterlimit="10" x1="539.418" y1="126.9" x2="539.418" y2="179.15"/>
			
				<line fill="none" stroke="#C0E5EF" stroke-width="0.4099" stroke-miterlimit="10" x1="544.61" y1="126.9" x2="544.61" y2="179.15"/>
			
				<line fill="none" stroke="#C0E5EF" stroke-width="0.4099" stroke-miterlimit="10" x1="549.799" y1="126.9" x2="549.799" y2="179.15"/>
			
				<line fill="none" stroke="#C0E5EF" stroke-width="0.4099" stroke-miterlimit="10" x1="554.991" y1="126.9" x2="554.991" y2="179.15"/>
			
				<line fill="none" stroke="#C0E5EF" stroke-width="0.4099" stroke-miterlimit="10" x1="560.178" y1="126.9" x2="560.178" y2="179.15"/>
			
				<line fill="none" stroke="#C0E5EF" stroke-width="0.4099" stroke-miterlimit="10" x1="565.37" y1="126.9" x2="565.37" y2="179.15"/>
		</g>
		
			<polyline opacity="0.6" fill="none" stroke="#F15E3C" stroke-width="1.6396" stroke-linecap="round" stroke-linejoin="round" stroke-miterlimit="10" enable-background="new    " points="
			456.944,171.25 480.642,138.262 491.098,157.102 499.606,144.498 507.045,156.947 510.042,150.949 521.059,169.114 
			526.306,158.447 531.44,165.828 544.299,143.682 557.043,159.254 568.292,143.682 		"/>
	</g>
	<path fill="#699A40" d="M219.107,152.832l-6.559,77.812c0,0,0.459-1.845,4.918,3.01c4.235,4.611,6.968-5.301,13.39-4.266
		l-6.348-78.688C224.509,150.701,220.044,145.743,219.107,152.832z"/>
	<g>
		<rect x="420.895" y="292.955" fill="#9B9B9B" width="5.646" height="14.213"/>
		<rect x="422.343" y="268.127" fill="#9B9B9B" width="2.75" height="27.251"/>
		<g>
			
				<rect x="430.229" y="300.627" transform="matrix(-0.2725 0.9622 -0.9622 -0.2725 844.8988 -22.2738)" fill="#9B9B9B" width="1.283" height="15.307"/>
			
				<rect x="416.964" y="300.627" transform="matrix(0.2704 0.9628 -0.9628 0.2704 601.4849 -177.1262)" fill="#9B9B9B" width="1.282" height="15.307"/>
			<circle fill="#9B9B9B" cx="410.387" cy="311.687" r="1.937"/>
			<circle fill="#9B9B9B" cx="438.05" cy="311.687" r="1.937"/>
		</g>
		<rect x="422.509" y="307.021" fill="#9B9B9B" width="2.418" height="4.974"/>
		<rect x="421.714" y="310.761" fill="#9B9B9B" width="4.008" height="3.862"/>
		<path fill="#005593" d="M444.229,213.412c0-3.227-2.614-5.844-5.842-5.844h-30.338c-3.228,0-5.842,2.617-5.842,5.844v52.132
			h42.021L444.229,213.412L444.229,213.412z"/>
		<path fill="#0586BB" d="M447.262,267.617c0,1.795-1.455,3.25-3.25,3.25h-41.59c-1.793,0-3.248-1.455-3.248-3.25l0,0
			c0-1.795,1.455-3.248,3.248-3.248h41.59C445.807,264.369,447.262,265.822,447.262,267.617L447.262,267.617z"/>
	</g>
	<g>
		<g>
			<rect x="439.088" y="228.564" fill="#FFFFFF" width="28.42" height="4.926"/>
			
				<line fill="none" stroke="#AEAEAE" stroke-width="0.1025" stroke-miterlimit="10" x1="439.088" y1="228.828" x2="467.508" y2="228.828"/>
			
				<line fill="none" stroke="#AEAEAE" stroke-width="0.1025" stroke-miterlimit="10" x1="439.088" y1="229.136" x2="467.508" y2="229.136"/>
			
				<line fill="none" stroke="#AEAEAE" stroke-width="0.1025" stroke-miterlimit="10" x1="439.088" y1="229.443" x2="467.508" y2="229.443"/>
			
				<line fill="none" stroke="#AEAEAE" stroke-width="0.1025" stroke-miterlimit="10" x1="439.088" y1="229.751" x2="467.508" y2="229.751"/>
			
				<line fill="none" stroke="#AEAEAE" stroke-width="0.1025" stroke-miterlimit="10" x1="439.088" y1="230.059" x2="467.508" y2="230.059"/>
			
				<line fill="none" stroke="#AEAEAE" stroke-width="0.1025" stroke-miterlimit="10" x1="439.088" y1="230.365" x2="467.508" y2="230.365"/>
			
				<line fill="none" stroke="#AEAEAE" stroke-width="0.1025" stroke-miterlimit="10" x1="439.088" y1="230.673" x2="467.508" y2="230.673"/>
			
				<line fill="none" stroke="#AEAEAE" stroke-width="0.1025" stroke-miterlimit="10" x1="439.088" y1="230.98" x2="467.508" y2="230.98"/>
			
				<line fill="none" stroke="#AEAEAE" stroke-width="0.1025" stroke-miterlimit="10" x1="439.088" y1="231.289" x2="467.508" y2="231.289"/>
			
				<line fill="none" stroke="#AEAEAE" stroke-width="0.1025" stroke-miterlimit="10" x1="439.088" y1="231.596" x2="467.508" y2="231.596"/>
			
				<line fill="none" stroke="#AEAEAE" stroke-width="0.1025" stroke-miterlimit="10" x1="439.088" y1="231.902" x2="467.508" y2="231.902"/>
			
				<line fill="none" stroke="#AEAEAE" stroke-width="0.1025" stroke-miterlimit="10" x1="439.088" y1="232.21" x2="467.508" y2="232.21"/>
			
				<line fill="none" stroke="#AEAEAE" stroke-width="0.1025" stroke-miterlimit="10" x1="439.088" y1="232.518" x2="467.508" y2="232.518"/>
			
				<line fill="none" stroke="#AEAEAE" stroke-width="0.1025" stroke-miterlimit="10" x1="439.088" y1="232.824" x2="467.508" y2="232.824"/>
			
				<line fill="none" stroke="#AEAEAE" stroke-width="0.1025" stroke-miterlimit="10" x1="439.088" y1="233.132" x2="467.508" y2="233.132"/>
		</g>
		<rect x="434.307" y="236.471" fill="#BAA665" width="145.135" height="78.627"/>
		<rect x="431.057" y="233.332" fill="#BAA665" width="151.635" height="3.139"/>
		<rect x="434.307" y="236.471" fill="#9B8A57" width="145.135" height="3.135"/>
		<g>
			<path fill="#FFFFFF" d="M540.721,225.039c0,1.484-1.203,2.689-2.688,2.689h-39.666c-1.485,0-2.689-1.205-2.689-2.689v-23.53
				c0-1.483,1.204-2.688,2.689-2.688h39.666c1.484,0,2.688,1.205,2.688,2.688V225.039z"/>
			<rect x="512.485" y="227.729" fill="#FFFFFF" width="11.431" height="5.604"/>
			<rect x="512.485" y="227.729" opacity="0.7" fill="#ABBBB9" enable-background="new    " width="11.431" height="2.354"/>
			<circle fill="#ABBBB9" cx="518.201" cy="209.465" r="1.681"/>
			<g>
				<path fill="#ABBBB9" d="M514.503,224.854c0,0.086,0.067,0.154,0.152,0.154l0,0c0.084,0,0.151-0.068,0.151-0.154V219.3
					c0-0.085-0.067-0.153-0.151-0.153l0,0c-0.085,0-0.152,0.068-0.152,0.153V224.854z"/>
				<path fill="#ABBBB9" d="M515.146,224.854c0,0.086,0.068,0.154,0.152,0.154l0,0c0.085,0,0.153-0.068,0.153-0.154V219.3
					c0-0.085-0.068-0.153-0.153-0.153l0,0c-0.084,0-0.152,0.068-0.152,0.153V224.854z"/>
				<path fill="#ABBBB9" d="M515.792,224.854c0,0.086,0.068,0.154,0.152,0.154l0,0c0.085,0,0.151-0.068,0.151-0.154V219.3
					c0-0.085-0.066-0.153-0.151-0.153l0,0c-0.084,0-0.152,0.068-0.152,0.153V224.854z"/>
				<path fill="#ABBBB9" d="M516.436,224.854c0,0.086,0.068,0.154,0.153,0.154l0,0c0.084,0,0.152-0.068,0.152-0.154V219.3
					c0-0.085-0.068-0.153-0.152-0.153l0,0c-0.085,0-0.153,0.068-0.153,0.153V224.854z"/>
				<path fill="#ABBBB9" d="M517.081,224.854c0,0.086,0.068,0.154,0.153,0.154l0,0c0.084,0,0.15-0.068,0.15-0.154V219.3
					c0-0.085-0.066-0.153-0.15-0.153l0,0c-0.085,0-0.153,0.068-0.153,0.153V224.854z"/>
				<path fill="#ABBBB9" d="M517.726,224.854c0,0.086,0.067,0.154,0.152,0.154l0,0c0.084,0,0.152-0.068,0.152-0.154V219.3
					c0-0.085-0.068-0.153-0.152-0.153l0,0c-0.085,0-0.152,0.068-0.152,0.153V224.854z"/>
				<path fill="#ABBBB9" d="M518.37,224.854c0,0.086,0.069,0.154,0.151,0.154l0,0c0.086,0,0.154-0.068,0.154-0.154V219.3
					c0-0.085-0.068-0.153-0.154-0.153l0,0c-0.082,0-0.151,0.068-0.151,0.153V224.854z"/>
				<path fill="#ABBBB9" d="M519.014,224.854c0,0.086,0.069,0.154,0.153,0.154l0,0c0.083,0,0.152-0.068,0.152-0.154V219.3
					c0-0.085-0.069-0.153-0.152-0.153l0,0c-0.084,0-0.153,0.068-0.153,0.153V224.854z"/>
				<path fill="#ABBBB9" d="M519.659,224.854c0,0.086,0.067,0.154,0.153,0.154l0,0c0.084,0,0.151-0.068,0.151-0.154V219.3
					c0-0.085-0.067-0.153-0.151-0.153l0,0c-0.086,0-0.153,0.068-0.153,0.153V224.854z"/>
				<path fill="#ABBBB9" d="M520.304,224.854c0,0.086,0.068,0.154,0.151,0.154l0,0c0.085,0,0.153-0.068,0.153-0.154V219.3
					c0-0.085-0.068-0.153-0.153-0.153l0,0c-0.083,0-0.151,0.068-0.151,0.153V224.854z"/>
				<path fill="#ABBBB9" d="M520.949,224.854c0,0.086,0.066,0.154,0.151,0.154l0,0c0.084,0,0.152-0.068,0.152-0.154V219.3
					c0-0.085-0.068-0.153-0.152-0.153l0,0c-0.085,0-0.151,0.068-0.151,0.153V224.854z"/>
				<path fill="#ABBBB9" d="M521.592,224.854c0,0.086,0.068,0.154,0.152,0.154l0,0c0.085,0,0.152-0.068,0.152-0.154V219.3
					c0-0.085-0.067-0.153-0.152-0.153l0,0c-0.084,0-0.152,0.068-0.152,0.153V224.854z"/>
			</g>
		</g>
		<g>
			<path fill="#356732" d="M560.325,223.869c-0.637,0.634-1.666,0.634-2.301,0l-0.318-0.32c-0.637-0.636-0.637-1.665,0-2.301
				l3.514-3.516c0.635-0.635,1.664-0.635,2.301,0l0.32,0.319c0.633,0.638,0.633,1.665,0,2.302L560.325,223.869z"/>
			<path fill="#356732" d="M559.247,219.383c0.637,0.637,0.637,1.666,0,2.301l-0.318,0.32c-0.635,0.635-1.664,0.635-2.301,0
				l-5.631-5.633c-0.637-0.635-0.637-1.666,0-2.301l0.318-0.319c0.635-0.636,1.664-0.636,2.301,0L559.247,219.383z"/>
			<path fill="#3D7D3C" d="M560.772,222.725c0,1.484-1.205,2.689-2.689,2.689h-0.748c-1.484,0-2.688-1.205-2.688-2.689v-8.218
				c0-1.483,1.203-2.688,2.688-2.688h0.748c1.484,0,2.689,1.205,2.689,2.688V222.725z"/>
			<path fill="#DC4A29" d="M551.713,231.986c0,0.744,0.604,1.346,1.344,1.346h9.471c0.74,0,1.344-0.602,1.344-1.346v-9.553h-12.156
				v9.553H551.713z"/>
		</g>
		<g>
			<rect x="470.901" y="230.189" fill="#479DD3" width="21.331" height="3.143"/>
			<rect x="488.518" y="230.189" fill="#B4E2F0" width="1.051" height="3.143"/>
			<rect x="486.571" y="230.189" fill="#B4E2F0" width="1.05" height="3.143"/>
			<rect x="472.131" y="230.189" fill="#B4E2F0" width="4.936" height="3.143"/>
		</g>
		<g>
			<rect x="444.241" y="221.799" fill="#2F783B" width="21.33" height="2.393"/>
			<rect x="453.312" y="222.518" fill="#3A3C18" width="11.271" height="0.957"/>
		</g>
		<g>
			<rect x="450.536" y="217.428" fill="#E91461" width="15.934" height="4.371"/>
			<rect x="452.866" y="218.503" fill="#211B23" width="2.729" height="2.308"/>
		</g>
		<g>
			<rect x="445.833" y="224.191" fill="#8E5723" width="18.665" height="4.373"/>
			<rect x="459.04" y="224.191" fill="#C6CB79" width="2.101" height="4.373"/>
			<rect x="448.47" y="224.191" fill="#C6CB79" width="0.478" height="4.373"/>
		</g>
	</g>
	<g>
		<rect x="618.305" y="130.775" fill="#5E5F5F" width="120.307" height="184.323"/>
		<rect x="623.172" y="171.172" fill="#40434C" width="110.57" height="30.643"/>
		<rect x="623.172" y="135.909" fill="#40434C" width="110.57" height="30.643"/>
		<rect x="623.172" y="207.371" fill="#40434C" width="110.57" height="30.645"/>
		<rect x="623.172" y="243.572" fill="#40434C" width="110.57" height="30.643"/>
		<rect x="623.172" y="279.771" fill="#40434C" width="110.57" height="30.643"/>
	</g>
	<g>
		<rect x="625.834" y="231.643" fill="#F7D21E" width="23.002" height="6.373"/>
		<rect x="638.057" y="233.034" fill="#F4F4F4" width="9.047" height="3.591"/>
		<rect x="645.428" y="233.034" fill="#8D9696" width="1.779" height="3.591"/>
		<g>
			
				<line fill="none" stroke="#2B7CBE" stroke-width="0.1025" stroke-miterlimit="10" x1="639.231" y1="236.221" x2="639.231" y2="233.457"/>
			
				<line fill="none" stroke="#2B7CBE" stroke-width="0.1025" stroke-miterlimit="10" x1="640.198" y1="236.221" x2="640.198" y2="233.457"/>
			
				<line fill="none" stroke="#2B7CBE" stroke-width="0.1025" stroke-miterlimit="10" x1="641.167" y1="236.221" x2="641.167" y2="233.457"/>
			
				<line fill="none" stroke="#2B7CBE" stroke-width="0.1025" stroke-miterlimit="10" x1="642.131" y1="236.221" x2="642.131" y2="233.457"/>
			
				<line fill="none" stroke="#2B7CBE" stroke-width="0.1025" stroke-miterlimit="10" x1="643.098" y1="236.221" x2="643.098" y2="233.457"/>
			
				<line fill="none" stroke="#2B7CBE" stroke-width="0.1025" stroke-miterlimit="10" x1="644.065" y1="236.221" x2="644.065" y2="233.457"/>
		</g>
		<g>
			<circle fill="#C2D7D7" cx="629.78" cy="234.852" r="1.502"/>
			<circle fill="#52595A" cx="629.78" cy="234.829" r="1.208"/>
		</g>
	</g>
	<g>
		
			<rect x="725.108" y="250.75" transform="matrix(-0.979 -0.2041 0.2041 -0.979 1387.7495 667.6027)" fill="#4094D1" width="6.374" height="23.002"/>
		
			<rect x="725.468" y="262.888" transform="matrix(-0.9789 -0.2045 0.2045 -0.9789 1384.4836 677.879)" fill="#F4F4F4" width="3.592" height="9.046"/>
		
			<rect x="724.67" y="270.23" transform="matrix(-0.9789 -0.2042 0.2042 -0.9789 1382.2546 684.8788)" fill="#8D9696" width="3.591" height="1.778"/>
		<g>
			
				<line fill="none" stroke="#2B7CBE" stroke-width="0.1025" stroke-miterlimit="10" x1="726.549" y1="263.857" x2="729.252" y2="264.424"/>
			
				<line fill="none" stroke="#2B7CBE" stroke-width="0.1025" stroke-miterlimit="10" x1="726.352" y1="264.807" x2="729.055" y2="265.37"/>
			
				<line fill="none" stroke="#2B7CBE" stroke-width="0.1025" stroke-miterlimit="10" x1="726.155" y1="265.752" x2="728.858" y2="266.316"/>
			
				<line fill="none" stroke="#2B7CBE" stroke-width="0.1025" stroke-miterlimit="10" x1="725.958" y1="266.697" x2="728.661" y2="267.262"/>
			
				<line fill="none" stroke="#2B7CBE" stroke-width="0.1025" stroke-miterlimit="10" x1="725.758" y1="267.645" x2="728.463" y2="268.209"/>
			
				<line fill="none" stroke="#2B7CBE" stroke-width="0.1025" stroke-miterlimit="10" x1="725.563" y1="268.591" x2="728.266" y2="269.154"/>
		</g>
		<g>
			<circle fill="#C2D7D7" cx="729.821" cy="254.885" r="1.501"/>
			<circle fill="#52595A" cx="729.84" cy="254.89" r="1.208"/>
		</g>
	</g>
	<g>
		
			<rect x="715.787" y="250.952" transform="matrix(-0.8968 -0.4424 0.4424 -0.8968 1247.636 815.9138)" fill="#4094D1" width="6.372" height="23"/>
		
			<rect x="714.844" y="262.647" transform="matrix(-0.8969 -0.4422 0.4422 -0.8969 1241.2603 823.6993)" fill="#F4F4F4" width="3.591" height="9.047"/>
		
			<rect x="713.222" y="269.652" transform="matrix(-0.8969 -0.4422 0.4422 -0.8969 1236.6929 829.378)" fill="#8D9696" width="3.593" height="1.778"/>
		<g>
			
				<line fill="none" stroke="#2B7CBE" stroke-width="0.1025" stroke-miterlimit="10" x1="716.885" y1="263.559" x2="719.362" y2="264.779"/>
			
				<line fill="none" stroke="#2B7CBE" stroke-width="0.1025" stroke-miterlimit="10" x1="716.458" y1="264.424" x2="718.934" y2="265.646"/>
			
				<line fill="none" stroke="#2B7CBE" stroke-width="0.1025" stroke-miterlimit="10" x1="716.03" y1="265.291" x2="718.504" y2="266.514"/>
			
				<line fill="none" stroke="#2B7CBE" stroke-width="0.1025" stroke-miterlimit="10" x1="715.6" y1="266.158" x2="718.079" y2="267.381"/>
			
				<line fill="none" stroke="#2B7CBE" stroke-width="0.1025" stroke-miterlimit="10" x1="715.174" y1="267.025" x2="717.651" y2="268.247"/>
			
				<line fill="none" stroke="#2B7CBE" stroke-width="0.1025" stroke-miterlimit="10" x1="714.747" y1="267.893" x2="717.223" y2="269.113"/>
		</g>
		<g>
			<circle fill="#C2D7D7" cx="722.292" cy="255.686" r="1.502"/>
			<circle fill="#52595A" cx="722.313" cy="255.694" r="1.208"/>
		</g>
	</g>
	<g>
		
			<rect x="705.76" y="251.804" transform="matrix(-0.7724 -0.6351 0.6351 -0.7724 1089.3269 916.9442)" fill="#4094D1" width="6.372" height="23.002"/>
		
			<rect x="703.793" y="262.781" transform="matrix(-0.7723 -0.6352 0.6352 -0.7723 1080.7145 921.969)" fill="#F4F4F4" width="3.591" height="9.046"/>
		
			<rect x="701.419" y="269.301" transform="matrix(-0.7723 -0.6352 0.6352 -0.7723 1074.6733 925.577)" fill="#8D9696" width="3.591" height="1.779"/>
		<g>
			
				<line fill="none" stroke="#2B7CBE" stroke-width="0.1025" stroke-miterlimit="10" x1="706.631" y1="263.87" x2="708.764" y2="265.625"/>
			
				<line fill="none" stroke="#2B7CBE" stroke-width="0.1025" stroke-miterlimit="10" x1="706.018" y1="264.617" x2="708.153" y2="266.371"/>
			
				<line fill="none" stroke="#2B7CBE" stroke-width="0.1025" stroke-miterlimit="10" x1="705.405" y1="265.363" x2="707.538" y2="267.118"/>
			
				<line fill="none" stroke="#2B7CBE" stroke-width="0.1025" stroke-miterlimit="10" x1="704.792" y1="266.111" x2="706.922" y2="267.865"/>
			
				<line fill="none" stroke="#2B7CBE" stroke-width="0.1025" stroke-miterlimit="10" x1="704.174" y1="266.857" x2="706.309" y2="268.611"/>
			
				<line fill="none" stroke="#2B7CBE" stroke-width="0.1025" stroke-miterlimit="10" x1="703.563" y1="267.604" x2="705.696" y2="269.359"/>
		</g>
		<g>
			<circle fill="#C2D7D7" cx="713.694" cy="257.438" r="1.501"/>
			<circle fill="#52595A" cx="713.711" cy="257.453" r="1.209"/>
		</g>
	</g>
	<g>
		<rect x="625.834" y="218.773" fill="#224F26" width="23.002" height="6.375"/>
		<rect x="627.569" y="220.166" fill="#F4F4F4" width="9.045" height="3.591"/>
		<rect x="627.463" y="220.166" fill="#8D9696" width="1.777" height="3.591"/>
		<g>
			
				<line fill="none" stroke="#2B7CBE" stroke-width="0.1025" stroke-miterlimit="10" x1="635.44" y1="223.352" x2="635.44" y2="220.59"/>
			
				<line fill="none" stroke="#2B7CBE" stroke-width="0.1025" stroke-miterlimit="10" x1="634.471" y1="223.352" x2="634.471" y2="220.59"/>
			
				<line fill="none" stroke="#2B7CBE" stroke-width="0.1025" stroke-miterlimit="10" x1="633.506" y1="223.352" x2="633.506" y2="220.59"/>
			
				<line fill="none" stroke="#2B7CBE" stroke-width="0.1025" stroke-miterlimit="10" x1="632.54" y1="223.352" x2="632.54" y2="220.59"/>
			
				<line fill="none" stroke="#2B7CBE" stroke-width="0.1025" stroke-miterlimit="10" x1="631.573" y1="223.352" x2="631.573" y2="220.59"/>
			
				<line fill="none" stroke="#2B7CBE" stroke-width="0.1025" stroke-miterlimit="10" x1="630.606" y1="223.352" x2="630.606" y2="220.59"/>
		</g>
		<g>
			<circle fill="#C2D7D7" cx="644.891" cy="221.984" r="1.502"/>
			<circle fill="#52595A" cx="644.891" cy="221.962" r="1.208"/>
		</g>
	</g>
	<g>
		<rect x="628.698" y="225.189" fill="#DC4A29" width="23.002" height="6.371"/>
		<rect x="640.92" y="226.58" fill="#F4F4F4" width="9.047" height="3.592"/>
		<rect x="648.292" y="226.58" fill="#8D9696" width="1.779" height="3.592"/>
		<g>
			
				<line fill="none" stroke="#2B7CBE" stroke-width="0.1025" stroke-miterlimit="10" x1="642.094" y1="229.768" x2="642.094" y2="227.005"/>
			
				<line fill="none" stroke="#2B7CBE" stroke-width="0.1025" stroke-miterlimit="10" x1="643.061" y1="229.768" x2="643.061" y2="227.005"/>
			
				<line fill="none" stroke="#2B7CBE" stroke-width="0.1025" stroke-miterlimit="10" x1="644.028" y1="229.768" x2="644.028" y2="227.005"/>
			
				<line fill="none" stroke="#2B7CBE" stroke-width="0.1025" stroke-miterlimit="10" x1="644.995" y1="229.768" x2="644.995" y2="227.005"/>
			
				<line fill="none" stroke="#2B7CBE" stroke-width="0.1025" stroke-miterlimit="10" x1="645.959" y1="229.768" x2="645.959" y2="227.005"/>
			
				<line fill="none" stroke="#2B7CBE" stroke-width="0.1025" stroke-miterlimit="10" x1="646.926" y1="229.768" x2="646.926" y2="227.005"/>
		</g>
		<g>
			<circle fill="#C2D7D7" cx="632.641" cy="228.398" r="1.502"/>
			<circle fill="#52595A" cx="632.641" cy="228.376" r="1.208"/>
		</g>
	</g>
	<g>
		<rect x="623.807" y="178.814" fill="#F7D21E" width="6.373" height="23"/>
		<rect x="625.2" y="191.037" fill="#F4F4F4" width="3.59" height="9.045"/>
		<rect x="625.2" y="198.408" fill="#8D9696" width="3.59" height="1.777"/>
		<g>
			
				<line fill="none" stroke="#2B7CBE" stroke-width="0.1025" stroke-miterlimit="10" x1="625.604" y1="192.209" x2="628.366" y2="192.209"/>
			
				<line fill="none" stroke="#2B7CBE" stroke-width="0.1025" stroke-miterlimit="10" x1="625.604" y1="193.178" x2="628.366" y2="193.178"/>
			
				<line fill="none" stroke="#2B7CBE" stroke-width="0.1025" stroke-miterlimit="10" x1="625.604" y1="194.145" x2="628.366" y2="194.145"/>
			
				<line fill="none" stroke="#2B7CBE" stroke-width="0.1025" stroke-miterlimit="10" x1="625.604" y1="195.111" x2="628.366" y2="195.111"/>
			
				<line fill="none" stroke="#2B7CBE" stroke-width="0.1025" stroke-miterlimit="10" x1="625.604" y1="196.078" x2="628.366" y2="196.078"/>
			
				<line fill="none" stroke="#2B7CBE" stroke-width="0.1025" stroke-miterlimit="10" x1="625.604" y1="197.044" x2="628.366" y2="197.044"/>
		</g>
		<g>
			<circle fill="#C2D7D7" cx="626.971" cy="182.758" r="1.502"/>
			<circle fill="#52595A" cx="626.995" cy="182.758" r="1.208"/>
		</g>
	</g>
	<g>
		<rect x="725.672" y="178.814" fill="#F7D21E" width="6.371" height="23"/>
		<rect x="727.063" y="191.037" fill="#F4F4F4" width="3.592" height="9.045"/>
		<rect x="727.063" y="198.408" fill="#8D9696" width="3.592" height="1.777"/>
		<g>
			
				<line fill="none" stroke="#2B7CBE" stroke-width="0.1025" stroke-miterlimit="10" x1="727.467" y1="192.209" x2="730.231" y2="192.209"/>
			
				<line fill="none" stroke="#2B7CBE" stroke-width="0.1025" stroke-miterlimit="10" x1="727.467" y1="193.178" x2="730.231" y2="193.178"/>
			
				<line fill="none" stroke="#2B7CBE" stroke-width="0.1025" stroke-miterlimit="10" x1="727.467" y1="194.145" x2="730.231" y2="194.145"/>
			
				<line fill="none" stroke="#2B7CBE" stroke-width="0.1025" stroke-miterlimit="10" x1="727.467" y1="195.111" x2="730.231" y2="195.111"/>
			
				<line fill="none" stroke="#2B7CBE" stroke-width="0.1025" stroke-miterlimit="10" x1="727.467" y1="196.078" x2="730.231" y2="196.078"/>
			
				<line fill="none" stroke="#2B7CBE" stroke-width="0.1025" stroke-miterlimit="10" x1="727.467" y1="197.044" x2="730.231" y2="197.044"/>
		</g>
		<g>
			<circle fill="#C2D7D7" cx="728.836" cy="182.758" r="1.501"/>
			<circle fill="#52595A" cx="728.86" cy="182.758" r="1.209"/>
		</g>
	</g>
	<g>
		
			<rect x="631.994" y="178.417" transform="matrix(-0.9884 0.1522 -0.1522 -0.9884 1291.8623 280.9759)" fill="#4094D1" width="6.373" height="23.003"/>
		
			<rect x="634.143" y="190.576" transform="matrix(-0.9884 0.1518 -0.1518 -0.9884 1294.1191 291.4182)" fill="#F4F4F4" width="3.59" height="9.044"/>
		
			<rect x="634.696" y="197.89" transform="matrix(-0.9883 0.1522 -0.1522 -0.9883 1295.8264 298.3557)" fill="#8D9696" width="3.593" height="1.779"/>
		<g>
			
				<line fill="none" stroke="#2B7CBE" stroke-width="0.1025" stroke-miterlimit="10" x1="634.059" y1="192.021" x2="636.79" y2="191.6"/>
			
				<line fill="none" stroke="#2B7CBE" stroke-width="0.1025" stroke-miterlimit="10" x1="634.206" y1="192.977" x2="636.936" y2="192.557"/>
			
				<line fill="none" stroke="#2B7CBE" stroke-width="0.1025" stroke-miterlimit="10" x1="634.354" y1="193.932" x2="637.083" y2="193.511"/>
			
				<line fill="none" stroke="#2B7CBE" stroke-width="0.1025" stroke-miterlimit="10" x1="634.5" y1="194.887" x2="637.231" y2="194.467"/>
			
				<line fill="none" stroke="#2B7CBE" stroke-width="0.1025" stroke-miterlimit="10" x1="634.647" y1="195.842" x2="637.377" y2="195.422"/>
			
				<line fill="none" stroke="#2B7CBE" stroke-width="0.1025" stroke-miterlimit="10" x1="634.793" y1="196.799" x2="637.524" y2="196.377"/>
		</g>
		<g>
			<circle fill="#C2D7D7" cx="633.973" cy="182.469" r="1.501"/>
			<circle fill="#52595A" cx="633.997" cy="182.466" r="1.209"/>
		</g>
	</g>
	<g>
		
			<rect x="641.422" y="178.422" transform="matrix(-0.9105 0.4136 -0.4136 -0.9105 1310.0557 96.2505)" fill="#224F26" width="6.375" height="23.003"/>
		
			<rect x="644.994" y="190.199" transform="matrix(-0.9105 0.4136 -0.4136 -0.9105 1316.2 104.4829)" fill="#F4F4F4" width="3.591" height="9.047"/>
		
			<rect x="646.568" y="197.246" transform="matrix(-0.9105 0.4136 -0.4136 -0.9105 1320.6194 110.3532)" fill="#8D9696" width="3.591" height="1.779"/>
		<g>
			
				<line fill="none" stroke="#2B7CBE" stroke-width="0.1025" stroke-miterlimit="10" x1="644.137" y1="192.236" x2="646.653" y2="191.094"/>
			
				<line fill="none" stroke="#2B7CBE" stroke-width="0.1025" stroke-miterlimit="10" x1="644.538" y1="193.117" x2="647.051" y2="191.975"/>
			
				<line fill="none" stroke="#2B7CBE" stroke-width="0.1025" stroke-miterlimit="10" x1="644.938" y1="193.997" x2="647.452" y2="192.855"/>
			
				<line fill="none" stroke="#2B7CBE" stroke-width="0.1025" stroke-miterlimit="10" x1="645.336" y1="194.876" x2="647.852" y2="193.734"/>
			
				<line fill="none" stroke="#2B7CBE" stroke-width="0.1025" stroke-miterlimit="10" x1="645.737" y1="195.757" x2="648.25" y2="194.615"/>
			
				<line fill="none" stroke="#2B7CBE" stroke-width="0.1025" stroke-miterlimit="10" x1="646.135" y1="196.637" x2="648.651" y2="195.494"/>
		</g>
		<g>
			<circle fill="#C2D7D7" cx="641.473" cy="183.064" r="1.502"/>
			<circle fill="#52595A" cx="641.495" cy="183.056" r="1.208"/>
		</g>
	</g>
	<g>
		<rect x="652.278" y="178.814" fill="#DC4A29" width="6.373" height="23"/>
		<rect x="653.667" y="191.037" fill="#F4F4F4" width="3.594" height="9.045"/>
		<rect x="653.667" y="198.408" fill="#8D9696" width="3.594" height="1.777"/>
		<g>
			
				<line fill="none" stroke="#2B7CBE" stroke-width="0.1025" stroke-miterlimit="10" x1="654.073" y1="192.209" x2="656.834" y2="192.209"/>
			
				<line fill="none" stroke="#2B7CBE" stroke-width="0.1025" stroke-miterlimit="10" x1="654.073" y1="193.178" x2="656.834" y2="193.178"/>
			
				<line fill="none" stroke="#2B7CBE" stroke-width="0.1025" stroke-miterlimit="10" x1="654.073" y1="194.145" x2="656.834" y2="194.145"/>
			
				<line fill="none" stroke="#2B7CBE" stroke-width="0.1025" stroke-miterlimit="10" x1="654.073" y1="195.111" x2="656.834" y2="195.111"/>
			
				<line fill="none" stroke="#2B7CBE" stroke-width="0.1025" stroke-miterlimit="10" x1="654.073" y1="196.078" x2="656.834" y2="196.078"/>
			
				<line fill="none" stroke="#2B7CBE" stroke-width="0.1025" stroke-miterlimit="10" x1="654.073" y1="197.044" x2="656.834" y2="197.044"/>
		</g>
		<g>
			<circle fill="#C2D7D7" cx="655.442" cy="182.758" r="1.501"/>
			<circle fill="#52595A" cx="655.463" cy="182.758" r="1.208"/>
		</g>
	</g>
	<g>
		<rect x="717.077" y="178.814" fill="#DC4A29" width="6.371" height="23"/>
		<rect x="718.465" y="191.037" fill="#F4F4F4" width="3.592" height="9.045"/>
		<rect x="718.465" y="198.408" fill="#8D9696" width="3.592" height="1.777"/>
		<g>
			
				<line fill="none" stroke="#2B7CBE" stroke-width="0.1025" stroke-miterlimit="10" x1="718.87" y1="192.209" x2="721.633" y2="192.209"/>
			
				<line fill="none" stroke="#2B7CBE" stroke-width="0.1025" stroke-miterlimit="10" x1="718.87" y1="193.178" x2="721.633" y2="193.178"/>
			
				<line fill="none" stroke="#2B7CBE" stroke-width="0.1025" stroke-miterlimit="10" x1="718.87" y1="194.145" x2="721.633" y2="194.145"/>
			
				<line fill="none" stroke="#2B7CBE" stroke-width="0.1025" stroke-miterlimit="10" x1="718.87" y1="195.111" x2="721.633" y2="195.111"/>
			
				<line fill="none" stroke="#2B7CBE" stroke-width="0.1025" stroke-miterlimit="10" x1="718.87" y1="196.078" x2="721.633" y2="196.078"/>
			
				<line fill="none" stroke="#2B7CBE" stroke-width="0.1025" stroke-miterlimit="10" x1="718.87" y1="197.044" x2="721.633" y2="197.044"/>
		</g>
		<g>
			<circle fill="#C2D7D7" cx="720.239" cy="182.758" r="1.502"/>
			<circle fill="#52595A" cx="720.26" cy="182.758" r="1.208"/>
		</g>
	</g>
	<g>
		<circle fill="#303030" cx="814.706" cy="143.774" r="17.972"/>
		<circle fill="#FFFFFF" cx="814.598" cy="143.774" r="15.625"/>
		<circle fill="#303030" cx="814.706" cy="143.774" r="1.386"/>
		<rect x="814.057" y="134.939" fill="#303030" width="1.158" height="8.835"/>
		
			<rect x="812.763" y="143.623" transform="matrix(-0.9634 -0.2682 0.2682 -0.9634 1556.2444 512.0497)" fill="#303030" width="0.677" height="12.186"/>
	</g>
	<g>
		<g>
			<path fill="#B3C7CE" d="M127.781,301.318c0,0.947-0.768,1.714-1.714,1.714H74.165c-0.947,0-1.714-0.767-1.714-1.714v-31.709
				c0-0.945,0.767-1.713,1.714-1.713h51.902c0.946,0,1.714,0.768,1.714,1.713V301.318z"/>
			<rect x="126.009" y="295.423" fill="#B3C7CE" width="5.16" height="4.372"/>
		</g>
		<g>
			<path fill="#ABBBB9" d="M74.165,304.958c0,0.591,0.479,1.071,1.071,1.071l0,0c0.592,0,1.072-0.48,1.072-1.071v-38.985
				c0-0.594-0.48-1.072-1.072-1.072l0,0c-0.592,0-1.071,0.479-1.071,1.072V304.958z"/>
			<path fill="#ABBBB9" d="M78.688,304.958c0,0.591,0.479,1.071,1.071,1.071l0,0c0.592,0,1.072-0.48,1.072-1.071v-38.985
				c0-0.594-0.479-1.072-1.072-1.072l0,0c-0.592,0-1.071,0.479-1.071,1.072V304.958z"/>
			<path fill="#ABBBB9" d="M83.212,304.958c0,0.591,0.479,1.071,1.071,1.071l0,0c0.592,0,1.072-0.48,1.072-1.071v-38.985
				c0-0.594-0.479-1.072-1.072-1.072l0,0c-0.591,0-1.071,0.479-1.071,1.072V304.958z"/>
			<path fill="#ABBBB9" d="M87.735,304.958c0,0.591,0.479,1.071,1.071,1.071l0,0c0.592,0,1.071-0.48,1.071-1.071v-38.985
				c0-0.594-0.479-1.072-1.071-1.072l0,0c-0.592,0-1.071,0.479-1.071,1.072V304.958z"/>
			<path fill="#ABBBB9" d="M92.259,304.958c0,0.591,0.479,1.071,1.071,1.071l0,0c0.592,0,1.072-0.48,1.072-1.071v-38.985
				c0-0.594-0.479-1.072-1.072-1.072l0,0c-0.592,0-1.071,0.479-1.071,1.072V304.958z"/>
			<path fill="#ABBBB9" d="M96.782,304.958c0,0.591,0.48,1.071,1.072,1.071l0,0c0.592,0,1.071-0.48,1.071-1.071v-38.985
				c0-0.594-0.479-1.072-1.071-1.072l0,0c-0.592,0-1.072,0.479-1.072,1.072V304.958z"/>
			<path fill="#ABBBB9" d="M101.306,304.958c0,0.591,0.479,1.071,1.071,1.071l0,0c0.592,0,1.071-0.48,1.071-1.071v-38.985
				c0-0.594-0.479-1.072-1.071-1.072l0,0c-0.592,0-1.071,0.479-1.071,1.072V304.958z"/>
			<path fill="#ABBBB9" d="M105.83,304.958c0,0.591,0.479,1.071,1.071,1.071l0,0c0.592,0,1.072-0.48,1.072-1.071v-38.985
				c0-0.594-0.479-1.072-1.072-1.072l0,0c-0.592,0-1.071,0.479-1.071,1.072V304.958z"/>
			<path fill="#ABBBB9" d="M110.353,304.958c0,0.591,0.479,1.071,1.071,1.071l0,0c0.592,0,1.072-0.48,1.072-1.071v-38.985
				c0-0.594-0.479-1.072-1.072-1.072l0,0c-0.592,0-1.071,0.479-1.071,1.072V304.958z"/>
			<path fill="#ABBBB9" d="M114.877,304.958c0,0.591,0.479,1.071,1.072,1.071l0,0c0.591,0,1.071-0.48,1.071-1.071v-38.985
				c0-0.594-0.479-1.072-1.071-1.072l0,0c-0.592,0-1.072,0.479-1.072,1.072V304.958z"/>
			<path fill="#ABBBB9" d="M119.4,304.958c0,0.591,0.479,1.071,1.072,1.071l0,0c0.591,0,1.071-0.48,1.071-1.071v-38.985
				c0-0.594-0.479-1.072-1.071-1.072l0,0c-0.592,0-1.072,0.479-1.072,1.072V304.958z"/>
			<path fill="#ABBBB9" d="M123.924,304.958c0,0.591,0.48,1.071,1.072,1.071l0,0c0.592,0,1.071-0.48,1.071-1.071v-38.985
				c0-0.594-0.479-1.072-1.071-1.072l0,0c-0.592,0-1.072,0.479-1.072,1.072V304.958z"/>
		</g>
	</g>
	<path fill="#B3C7CE" d="M749.377,301.318c0,0.947,0.768,1.714,1.713,1.714h51.902c0.947,0,1.715-0.767,1.715-1.714v-31.709
		c0-0.945-0.768-1.713-1.715-1.713H751.09c-0.945,0-1.713,0.768-1.713,1.713V301.318z"/>
	<rect x="745.989" y="295.423" fill="#B3C7CE" width="5.16" height="4.372"/>
	<rect x="802.995" y="295.423" fill="#B3C7CE" width="5.16" height="4.372"/>
	<g>
		<path fill="#ABBBB9" d="M802.995,304.958c0,0.591-0.48,1.071-1.072,1.071l0,0c-0.592,0-1.07-0.48-1.07-1.071v-38.985
			c0-0.594,0.479-1.072,1.07-1.072l0,0c0.592,0,1.072,0.479,1.072,1.072V304.958z"/>
		<path fill="#ABBBB9" d="M798.469,304.958c0,0.591-0.479,1.071-1.07,1.071l0,0c-0.592,0-1.07-0.48-1.07-1.071v-38.985
			c0-0.594,0.479-1.072,1.07-1.072l0,0c0.592,0,1.07,0.479,1.07,1.072V304.958z"/>
		<path fill="#ABBBB9" d="M793.948,304.958c0,0.591-0.48,1.071-1.072,1.071l0,0c-0.592,0-1.072-0.48-1.072-1.071v-38.985
			c0-0.594,0.48-1.072,1.072-1.072l0,0c0.592,0,1.072,0.479,1.072,1.072V304.958z"/>
		<path fill="#ABBBB9" d="M789.422,304.958c0,0.591-0.479,1.071-1.07,1.071l0,0c-0.594,0-1.072-0.48-1.072-1.071v-38.985
			c0-0.594,0.479-1.072,1.072-1.072l0,0c0.592,0,1.07,0.479,1.07,1.072V304.958z"/>
		<path fill="#ABBBB9" d="M784.899,304.958c0,0.591-0.479,1.071-1.07,1.071l0,0c-0.592,0-1.072-0.48-1.072-1.071v-38.985
			c0-0.594,0.48-1.072,1.072-1.072l0,0c0.592,0,1.07,0.479,1.07,1.072V304.958z"/>
		<path fill="#ABBBB9" d="M780.375,304.958c0,0.591-0.479,1.071-1.072,1.071l0,0c-0.592,0-1.07-0.48-1.07-1.071v-38.985
			c0-0.594,0.479-1.072,1.07-1.072l0,0c0.594,0,1.072,0.479,1.072,1.072V304.958z"/>
		<path fill="#ABBBB9" d="M775.852,304.958c0,0.591-0.479,1.071-1.07,1.071l0,0c-0.592,0-1.072-0.48-1.072-1.071v-38.985
			c0-0.594,0.48-1.072,1.072-1.072l0,0c0.592,0,1.07,0.479,1.07,1.072V304.958z"/>
		<path fill="#ABBBB9" d="M771.329,304.958c0,0.591-0.479,1.071-1.072,1.071l0,0c-0.59,0-1.07-0.48-1.07-1.071v-38.985
			c0-0.594,0.48-1.072,1.07-1.072l0,0c0.594,0,1.072,0.479,1.072,1.072V304.958z"/>
		<path fill="#ABBBB9" d="M766.805,304.958c0,0.591-0.479,1.071-1.07,1.071l0,0c-0.594,0-1.072-0.48-1.072-1.071v-38.985
			c0-0.594,0.479-1.072,1.072-1.072l0,0c0.592,0,1.07,0.479,1.07,1.072V304.958z"/>
		<path fill="#ABBBB9" d="M762.282,304.958c0,0.591-0.48,1.071-1.072,1.071l0,0c-0.59,0-1.07-0.48-1.07-1.071v-38.985
			c0-0.594,0.48-1.072,1.07-1.072l0,0c0.592,0,1.072,0.479,1.072,1.072V304.958z"/>
		<path fill="#ABBBB9" d="M757.758,304.958c0,0.591-0.479,1.071-1.072,1.071l0,0c-0.592,0-1.07-0.48-1.07-1.071v-38.985
			c0-0.594,0.479-1.072,1.07-1.072l0,0c0.594,0,1.072,0.479,1.072,1.072V304.958z"/>
		<path fill="#ABBBB9" d="M753.235,304.958c0,0.591-0.48,1.071-1.072,1.071l0,0c-0.592,0-1.07-0.48-1.07-1.071v-38.985
			c0-0.594,0.479-1.072,1.07-1.072l0,0c0.592,0,1.072,0.479,1.072,1.072V304.958z"/>
	</g>
	<g>
		<rect x="823.807" y="236.471" fill="#BAA665" width="80.006" height="78.627"/>
		<rect x="820.557" y="233.332" fill="#BAA665" width="86.506" height="3.139"/>
		<rect x="823.807" y="236.471" fill="#9B8A57" width="80.006" height="3.135"/>
		<g>
			<rect x="862.557" y="225.1" fill="#FFFFFF" width="25.928" height="6.918"/>
			<path fill="#0D6CB3" d="M863.215,226.693c0.002-0.037,0.014-0.07,0.02-0.107h-4.213v6.746h31.268v-2.859l-25.055-1.502
				C864.049,228.898,863.147,227.881,863.215,226.693z"/>
		</g>
		<path fill="#FFFFFF" d="M898.885,232.674c0,0.363-0.295,0.658-0.656,0.658h-19.488c-0.363,0-0.656-0.295-0.656-0.658l0,0
			c0-0.361,0.293-0.656,0.656-0.656h19.488C898.59,232.018,898.885,232.312,898.885,232.674L898.885,232.674z"/>
		<g>
			<g>
				
					<rect x="839.54" y="193.67" transform="matrix(0.965 0.2623 -0.2623 0.965 83.5095 -213.1402)" fill="#7AB242" width="0.856" height="25.008"/>
				<circle fill="#EE6427" cx="843.868" cy="194.279" r="1.028"/>
				<circle fill="#EE6427" cx="842.813" cy="198.165" r="1.028"/>
				<circle fill="#EE6427" cx="841.76" cy="202.048" r="1.028"/>
				<circle fill="#EE6427" cx="840.706" cy="205.933" r="1.027"/>
				<circle fill="#EE6427" cx="839.653" cy="209.818" r="1.028"/>
				<circle fill="#EE6427" cx="841.758" cy="195.838" r="1.028"/>
				<circle fill="#EE6427" cx="840.706" cy="199.722" r="1.028"/>
				<circle fill="#EE6427" cx="839.651" cy="203.606" r="1.027"/>
				<circle fill="#EE6427" cx="838.598" cy="207.491" r="1.028"/>
			</g>
			<g>
				
					<rect x="832.502" y="192.55" transform="matrix(-0.9875 0.1574 -0.1574 -0.9875 1687.7512 276.4799)" fill="#7AB242" width="0.856" height="25.011"/>
				<circle fill="#EE6427" cx="830.321" cy="192.849" r="1.028"/>
				<circle fill="#EE6427" cx="830.952" cy="196.823" r="1.028"/>
				<circle fill="#EE6427" cx="831.583" cy="200.798" r="1.027"/>
				<circle fill="#EE6427" cx="832.215" cy="204.773" r="1.028"/>
				<circle fill="#EE6427" cx="832.844" cy="208.749" r="1.026"/>
				<circle fill="#EE6427" cx="832.25" cy="194.623" r="1.027"/>
				<circle fill="#EE6427" cx="832.881" cy="198.599" r="1.027"/>
				<circle fill="#EE6427" cx="833.512" cy="202.573" r="1.027"/>
				<circle fill="#EE6427" cx="834.143" cy="206.548" r="1.027"/>
			</g>
			<g>
				
					<rect x="835.813" y="194.536" transform="matrix(-0.9997 0.0228 -0.0228 -0.9997 1676.9814 394.9825)" fill="#7AB242" width="0.858" height="25.008"/>
				<circle fill="#EE6427" cx="835.295" cy="194.563" r="1.028"/>
				<circle fill="#EE6427" cx="835.389" cy="198.588" r="1.028"/>
				<circle fill="#EE6427" cx="835.487" cy="202.611" r="1.028"/>
				<circle fill="#EE6427" cx="835.581" cy="206.635" r="1.028"/>
				<circle fill="#EE6427" cx="835.674" cy="210.659" r="1.027"/>
				<circle fill="#EE6427" cx="836.971" cy="196.58" r="1.027"/>
				<circle fill="#EE6427" cx="837.065" cy="200.604" r="1.027"/>
				<circle fill="#EE6427" cx="837.161" cy="204.628" r="1.028"/>
				<circle fill="#EE6427" cx="837.256" cy="208.652" r="1.028"/>
			</g>
			<path fill="#282828" d="M832.639,231.771c0,0.722,0.584,1.305,1.305,1.305h4.566c0.721,0,1.305-0.583,1.305-1.305v-18.664
				c0-0.722-0.584-1.306-1.305-1.306h-4.566c-0.721,0-1.305,0.584-1.305,1.306V231.771z"/>
			<g>
				<path fill="#FFFFFF" d="M833.62,231.161c0,0.208,0.168,0.378,0.377,0.378l0,0c0.209,0,0.377-0.17,0.377-0.378v-16.984
					c0-0.208-0.168-0.376-0.377-0.376l0,0c-0.209,0-0.377,0.168-0.377,0.376V231.161z"/>
				<circle fill="#FFFFFF" cx="833.995" cy="213.078" r="0.38"/>
			</g>
		</g>
		<g>
			<g>
				<path fill="#FFFFFF" d="M846.262,193.166c-1.416,0.096-2.486,1.322-2.391,2.736l1.984,29.418
					c0.096,1.416,1.32,2.486,2.736,2.391l0.568-0.038l-2.332-34.545L846.262,193.166z"/>
				
					<rect x="848.005" y="193.094" transform="matrix(-0.9978 0.0665 -0.0665 -0.9978 1708.5382 363.9244)" fill="#272626" width="0.411" height="34.624"/>
			</g>
			<path fill="none" stroke="#FFFFFF" stroke-width="0.6148" stroke-miterlimit="10" d="M845.854,211.211l-8.033,15.611h-0.002
				c-0.08,0.143-0.15,0.292-0.213,0.445c-0.199,0.487-0.312,1.021-0.312,1.582c0,2.307,1.871,4.176,4.178,4.176h9.764"/>
		</g>
	</g>
	<path fill="none" stroke="#B3C7CE" stroke-width="1.6396" stroke-linecap="square" stroke-miterlimit="10" d="M812.344,297.609
		c2.5,0,4.525,2.024,4.525,4.522"/>
	
		<line fill="none" stroke="#B3C7CE" stroke-width="1.6396" stroke-linecap="square" stroke-linejoin="round" stroke-miterlimit="10" x1="804.602" y1="297.609" x2="811.708" y2="297.609"/>
	
		<line fill="none" stroke="#B3C7CE" stroke-width="1.6396" stroke-linejoin="round" stroke-miterlimit="10" x1="816.87" y1="302.887" x2="816.87" y2="315.098"/>
	<g>
		<rect x="887.879" y="123.697" fill="#FFFFFF" width="55.021" height="74.657"/>
		
			<rect x="887.879" y="123.697" fill="none" stroke="#BAA665" stroke-width="1.6396" stroke-miterlimit="10" width="55.021" height="74.657"/>
		<g opacity="0.2">
			<polygon fill="#246CB6" points="895.799,141.166 898.202,141.166 898.202,131.812 902.002,131.812 902.002,129.424 
				891.965,129.424 891.965,131.827 895.799,131.827 			"/>
			<polygon fill="#246CB6" points="911.057,133.959 905.68,133.959 905.68,129.424 903.28,129.424 903.28,141.166 905.68,141.166 
				905.68,136.345 911.088,136.345 911.088,141.166 913.459,141.166 913.459,129.424 911.057,129.424 			"/>
			<rect x="914.733" y="129.424" fill="#246CB6" width="2.402" height="11.742"/>
			<polygon fill="#246CB6" points="928.381,141.166 928.381,129.424 925.979,129.424 925.979,136.934 920.793,129.424 
				918.407,129.424 918.407,141.166 920.807,141.166 920.807,133.656 925.995,141.166 			"/>
			<polygon fill="#246CB6" points="932.057,137.111 935.733,141.166 938.961,141.166 933.665,135.311 938.979,129.424 
				935.749,129.424 932.057,133.513 932.057,129.424 929.657,129.424 929.657,141.166 932.057,141.166 			"/>
			<g>
				<path fill="#246CB6" d="M918.059,147.916c0-0.033-0.01-0.17-0.025-0.416c-0.016-0.245-0.041-0.443-0.074-0.591
					c-0.031-0.31-0.117-0.641-0.258-0.993c-0.139-0.352-0.318-0.694-0.541-1.03c-0.219-0.336-0.488-0.646-0.799-0.933
					c-0.312-0.285-0.654-0.527-1.029-0.723c-0.131-0.064-0.266-0.133-0.395-0.197c-0.133-0.065-0.238-0.113-0.322-0.147
					c-0.016,0-0.08-0.021-0.193-0.061c-0.115-0.042-0.248-0.085-0.395-0.136c-0.146-0.047-0.291-0.09-0.43-0.122
					c-0.139-0.034-0.25-0.051-0.334-0.051h-21.109v18.134h20.988c0.031,0,0.158-0.021,0.381-0.062
					c0.221-0.039,0.398-0.079,0.527-0.108c0.689-0.166,1.285-0.439,1.795-0.823c0.508-0.384,0.926-0.819,1.254-1.302
					c0.328-0.48,0.568-0.995,0.727-1.534c0.154-0.538,0.232-1.054,0.232-1.545c0-0.556-0.096-1.154-0.283-1.791
					c-0.188-0.639-0.496-1.187-0.92-1.645c-0.033-0.032-0.068-0.072-0.109-0.123c-0.041-0.047-0.078-0.09-0.111-0.122
					c0.508-0.558,0.871-1.167,1.092-1.828S918.059,148.486,918.059,147.916z M914.071,156.203c-0.188,0.347-0.455,0.569-0.799,0.667
					c-0.062,0.019-0.15,0.042-0.258,0.077c-0.105,0.033-0.176,0.039-0.207,0.023h-16.949v-3.41h16.949
					c0.018,0,0.086,0.02,0.207,0.062c0.123,0.04,0.229,0.078,0.309,0.11c0.033,0.018,0.072,0.032,0.121,0.05
					c0.051,0.018,0.092,0.042,0.125,0.073c0.129,0.066,0.244,0.157,0.342,0.273c0.1,0.114,0.182,0.242,0.246,0.382
					c0.064,0.142,0.113,0.276,0.148,0.408c0.033,0.132,0.047,0.246,0.047,0.347C914.354,155.545,914.258,155.858,914.071,156.203z
					 M914.305,148.234c-0.033,0.131-0.084,0.268-0.148,0.405c-0.064,0.14-0.143,0.267-0.232,0.38
					c-0.09,0.115-0.191,0.205-0.309,0.271c-0.047,0.032-0.098,0.061-0.146,0.085s-0.098,0.044-0.146,0.06
					c-0.08,0.035-0.18,0.072-0.293,0.113c-0.115,0.039-0.189,0.059-0.223,0.059h-16.949v-3.409h17.023
					c0.031,0,0.09,0.018,0.172,0.048c0.08,0.033,0.154,0.06,0.219,0.074c0.197,0.049,0.367,0.141,0.504,0.271
					c0.141,0.131,0.25,0.272,0.33,0.428c0.084,0.157,0.146,0.312,0.186,0.466c0.043,0.157,0.062,0.292,0.062,0.405
					C914.354,147.988,914.338,148.104,914.305,148.234z"/>
				<rect x="919.999" y="142.541" fill="#246CB6" width="3.703" height="18.109"/>
				<path fill="#246CB6" d="M933.272,153.462h2.084v3.509h-1.203c-0.08,0-0.191-0.016-0.33-0.051
					c-0.139-0.031-0.283-0.07-0.43-0.109c-0.146-0.041-0.281-0.083-0.406-0.124c-0.121-0.04-0.207-0.067-0.258-0.085
					c-0.619-0.245-1.143-0.561-1.568-0.945c-0.426-0.383-0.77-0.801-1.029-1.25c-0.262-0.451-0.455-0.92-0.578-1.412
					c-0.123-0.49-0.184-0.965-0.184-1.423c0-0.442,0.035-0.806,0.109-1.089c0.074-0.291,0.201-0.677,0.383-1.167
					c0.031-0.067,0.059-0.128,0.084-0.185c0.023-0.059,0.051-0.102,0.086-0.135c0.148-0.311,0.348-0.609,0.602-0.896
					c0.254-0.286,0.527-0.544,0.82-0.774c0.297-0.229,0.604-0.424,0.922-0.588c0.318-0.162,0.627-0.277,0.92-0.343
					c0.066,0,0.168-0.026,0.307-0.075c0.139-0.049,0.355-0.09,0.65-0.122h1.131v-3.682h-1.154c-0.033,0-0.148,0.013-0.346,0.038
					c-0.193,0.025-0.352,0.045-0.465,0.06c-0.146,0.035-0.307,0.07-0.479,0.112c-0.174,0.041-0.324,0.078-0.453,0.111
					c-0.623,0.162-1.322,0.457-2.1,0.881c-0.775,0.426-1.514,0.996-2.207,1.705c-0.695,0.714-1.285,1.58-1.77,2.604
					c-0.48,1.021-0.73,2.22-0.746,3.595c-0.02,0.751,0.088,1.55,0.318,2.391c0.229,0.843,0.592,1.653,1.092,2.431
					c0.498,0.775,1.133,1.491,1.9,2.146c0.77,0.652,1.691,1.178,2.773,1.57c0.324,0.131,0.627,0.221,0.908,0.27
					c0.275,0.051,0.562,0.1,0.857,0.146c0.082,0.016,0.18,0.031,0.293,0.05c0.115,0.019,0.189,0.024,0.223,0.024h5.029v-10.872
					h-5.789v3.683H933.272z"/>
			</g>
		</g>
		<g>
			<rect x="891.965" y="162.494" opacity="0.2" fill="#F05335" enable-background="new    " width="5.387" height="31.781"/>
			<rect x="902.374" y="162.494" opacity="0.2" fill="#F05335" enable-background="new    " width="5.387" height="31.781"/>
			<rect x="912.78" y="162.494" opacity="0.2" fill="#F05335" enable-background="new    " width="5.385" height="31.781"/>
			<rect x="923.184" y="162.494" opacity="0.2" fill="#F05335" enable-background="new    " width="5.389" height="31.781"/>
			<rect x="933.59" y="162.494" opacity="0.2" fill="#F05335" enable-background="new    " width="5.389" height="31.781"/>
		</g>
	</g>
	<g opacity="0.7">
		<polygon fill="none" points="199.408,299.639 199.223,299.453 199.168,299.879 		"/>
		
			<rect x="191.429" y="298.156" transform="matrix(-0.7075 -0.7067 0.7067 -0.7075 117.6412 647.9539)" fill="#869392" width="2.952" height="2.953"/>
		
			<rect x="189.231" y="300.363" transform="matrix(-0.7071 -0.7071 0.7071 -0.7071 112.1263 650.1229)" fill="#869392" width="2.954" height="2.953"/>
		<polygon fill="#869392" points="184.094,301.959 182.492,303.561 182.635,304.676 184.094,306.135 186.182,304.047 		"/>
		<polygon fill="#869392" points="182.938,289.656 180.841,289.656 181.89,290.705 		"/>
		<polygon fill="#869392" points="190.591,312.863 188.503,310.775 186.414,312.865 188.146,314.596 188.859,314.596 		"/>
		<polygon fill="#869392" points="180.712,289.759 180.954,291.641 181.773,290.822 		"/>
		
			<rect x="184.822" y="300.362" transform="matrix(-0.7069 -0.7073 0.7073 -0.7069 104.5195 646.9854)" fill="#869392" width="2.955" height="2.953"/>
		
			<rect x="187.027" y="298.159" transform="matrix(-0.7071 -0.7071 0.7071 -0.7071 109.9213 644.8014)" fill="#869392" width="2.953" height="2.953"/>
		
			<rect x="189.229" y="309.173" transform="matrix(-0.707 0.7072 -0.7072 -0.707 545.2273 395.4219)" fill="#869392" width="2.954" height="2.953"/>
		<polygon fill="#869392" points="184.094,306.367 182.995,307.467 183.288,309.736 184.094,310.544 186.182,308.455 		"/>
		
			<rect x="189.222" y="295.952" transform="matrix(-0.7069 -0.7074 0.7074 -0.7069 115.1086 642.5606)" fill="#869392" width="2.954" height="2.953"/>
		<polygon fill="#869392" points="193.268,314.596 195,312.863 192.912,310.775 190.823,312.863 192.554,314.596 193.093,314.596 		
			"/>
		
			<rect x="187.019" y="306.996" transform="matrix(-0.7074 0.7069 -0.7069 -0.7074 539.8755 393.4325)" fill="#869392" width="2.952" height="2.954"/>
		
			<rect x="184.816" y="304.782" transform="matrix(-0.7072 0.707 -0.707 -0.7072 534.5698 391.1281)" fill="#869392" width="2.953" height="2.954"/>
		<polygon fill="#869392" points="195.232,312.863 196.963,314.596 197.271,314.596 197.712,311.168 197.32,310.775 		"/>
		
			<rect x="193.639" y="309.164" transform="matrix(-0.7069 0.7074 -0.7074 -0.7069 552.7689 392.2043)" fill="#869392" width="2.953" height="2.953"/>
		<polygon fill="#869392" points="197.32,306.368 195.232,308.455 197.32,310.544 197.863,310.001 198.216,307.264 		"/>
		<polygon fill="#869392" points="193.5,314.596 196.731,314.596 195.115,312.98 		"/>
		
			<rect x="191.456" y="306.985" transform="matrix(-0.7074 0.7069 -0.7069 -0.7074 547.4434 390.2788)" fill="#869392" width="2.952" height="2.954"/>
		
			<rect x="189.227" y="304.773" transform="matrix(-0.7072 0.707 -0.707 -0.7072 542.0932 387.9967)" fill="#869392" width="2.953" height="2.955"/>
		<polygon fill="#869392" points="197.739,310.963 197.829,310.268 197.436,310.66 		"/>
		
			<rect x="193.656" y="291.549" transform="matrix(-0.7073 -0.7069 0.7069 -0.7073 125.9935 638.2217)" fill="#869392" width="2.953" height="2.952"/>
		
			<rect x="195.849" y="293.744" transform="matrix(0.7072 -0.707 0.707 0.7072 -150.95 225.9577)" fill="#869392" width="2.953" height="2.954"/>
		<polygon fill="#869392" points="199.25,299.248 199.727,295.548 199.524,295.346 197.436,297.434 		"/>
		
			<rect x="187.019" y="302.587" transform="matrix(-0.7072 0.707 -0.707 -0.7072 536.7771 385.8233)" fill="#869392" width="2.953" height="2.954"/>
		
			<rect x="191.426" y="293.749" transform="matrix(-0.7069 -0.7074 0.7074 -0.7069 120.4291 640.3593)" fill="#869392" width="2.954" height="2.953"/>
		<polygon fill="#869392" points="199.524,295.113 199.82,294.816 200.23,291.643 199.524,290.938 197.436,293.025 		"/>
		<polygon fill="#869392" points="196.165,289.656 194.067,289.656 195.115,290.705 		"/>
		<polygon fill="#869392" points="190.591,290.822 189.427,289.656 188.092,289.656 187.579,289.656 186.414,290.822 
			188.503,292.909 		"/>
		<polygon fill="#869392" points="191.755,289.656 189.659,289.656 190.707,290.705 		"/>
		<polygon fill="#869392" points="182.017,299.881 182.465,303.355 183.979,301.843 		"/>
		<polygon fill="#869392" points="200.256,291.438 200.439,290.021 199.641,290.822 		"/>
		<polygon fill="#869392" points="200.473,289.757 200.486,289.656 198.476,289.656 199.524,290.705 		"/>
		
			<rect x="184.828" y="309.162" transform="matrix(0.7069 0.7074 -0.7074 0.7069 274.3459 -40.7231)" fill="#869392" width="2.954" height="2.955"/>
		
			<rect x="191.429" y="302.578" transform="matrix(-0.7072 0.707 -0.707 -0.7072 544.3007 382.6899)" fill="#869392" width="2.953" height="2.952"/>
		
			<rect x="193.656" y="304.782" transform="matrix(0.7069 0.7074 -0.7074 0.7069 273.8353 -48.2505)" fill="#869392" width="2.953" height="2.954"/>
		
			<rect x="184.831" y="291.547" transform="matrix(-0.7072 -0.707 0.707 -0.7072 110.887 631.9711)" fill="#869392" width="2.953" height="2.953"/>
		
			<rect x="193.64" y="300.363" transform="matrix(-0.7071 -0.7071 0.7071 -0.7071 119.6524 653.2404)" fill="#869392" width="2.954" height="2.953"/>
		<polygon fill="#869392" points="183.978,297.434 181.89,295.346 181.484,295.751 181.961,299.451 		"/>
		
			<rect x="182.602" y="293.746" transform="matrix(-0.707 -0.7072 0.7072 -0.707 105.447 634.1311)" fill="#869392" width="2.952" height="2.954"/>
		<polygon fill="#869392" points="187.347,289.656 185.25,289.656 186.298,290.705 		"/>
		
			<rect x="184.822" y="295.953" transform="matrix(-0.7073 -0.7069 0.7069 -0.7073 107.7971 639.4966)" fill="#869392" width="2.953" height="2.953"/>
		
			<rect x="187.01" y="293.746" transform="matrix(-0.7069 -0.7074 0.7074 -0.7069 112.8929 637.2313)" fill="#869392" width="2.953" height="2.954"/>
		
			<rect x="182.619" y="298.159" transform="matrix(-0.7071 -0.7071 0.7071 -0.7071 102.396 641.6833)" fill="#869392" width="2.953" height="2.952"/>
		<polygon fill="#869392" points="181.364,294.82 181.458,295.546 181.773,295.23 		"/>
		<polygon fill="#869392" points="182.669,304.943 182.968,307.262 183.978,306.25 		"/>
		<polygon fill="#869392" points="197.32,301.959 195.232,304.047 197.32,306.135 198.516,304.939 198.719,303.357 		"/>
		
			<rect x="189.248" y="291.549" transform="matrix(-0.7072 -0.707 0.707 -0.7072 118.4262 635.0964)" fill="#869392" width="2.953" height="2.952"/>
		<polygon fill="#869392" points="195.232,290.822 197.32,292.909 199.408,290.822 198.244,289.656 196.396,289.656 		"/>
		<polygon fill="#869392" points="195,290.822 193.835,289.656 193.093,289.656 191.987,289.656 190.823,290.822 192.911,292.909 		
			"/>
		<polygon fill="#869392" points="189.091,314.596 192.322,314.596 190.707,312.98 		"/>
		<polygon fill="#869392" points="184.683,314.596 187.914,314.596 186.298,312.98 		"/>
		<polygon fill="#869392" points="183.322,310.004 183.471,311.166 183.978,310.66 		"/>
		<polygon fill="#869392" points="184.094,310.775 183.498,311.371 183.914,314.596 184.451,314.596 186.182,312.865 		"/>
		<polygon fill="#869392" points="186.182,290.822 185.018,289.656 183.17,289.656 182.005,290.822 184.094,292.909 		"/>
		<polygon fill="#869392" points="198.243,307.057 198.481,305.206 197.436,306.252 		"/>
		<polygon fill="#869392" points="197.32,301.727 199.168,299.879 199.223,299.453 197.32,297.551 195.232,299.637 		"/>
		<polygon fill="#869392" points="199.753,295.343 199.787,295.084 199.64,295.23 		"/>
		<polygon fill="#869392" points="198.746,303.152 199.134,300.145 197.436,301.843 		"/>
		<polygon fill="#869392" points="181.89,295.115 183.978,293.025 181.89,290.938 180.98,291.846 181.33,294.555 		"/>
		
			<rect x="193.631" y="295.952" transform="matrix(-0.7069 -0.7074 0.7074 -0.7069 122.634 645.6793)" fill="#869392" width="2.954" height="2.953"/>
		<polygon fill="#EAF1F4" points="199.408,290.822 199.524,290.705 198.476,289.656 198.244,289.656 		"/>
		<polygon fill="#EAF1F4" points="199.524,290.938 200.23,291.643 200.256,291.438 199.641,290.822 		"/>
		<polygon fill="#EAF1F4" points="199.524,295.346 199.727,295.548 199.753,295.343 199.64,295.23 		"/>
		
			<rect x="198.336" y="292.672" transform="matrix(0.7041 -0.7101 0.7101 0.7041 -150.1589 227.9154)" fill="#EAF1F4" width="0.165" height="2.952"/>
		
			<rect x="196.137" y="290.454" transform="matrix(0.7056 -0.7086 0.7086 0.7056 -149.0958 224.9792)" fill="#EAF1F4" width="0.164" height="2.952"/>
		<polygon fill="#EAF1F4" points="194.067,289.656 193.835,289.656 195,290.822 195.115,290.705 		"/>
		
			<rect x="192.552" y="294.046" transform="matrix(-0.7068 -0.7074 0.7074 -0.7068 123.0867 639.2737)" fill="#EAF1F4" width="2.954" height="0.164"/>
		<polygon fill="#EAF1F4" points="189.659,289.656 189.427,289.656 190.591,290.822 190.707,290.705 		"/>
		
			<rect x="190.329" y="291.863" transform="matrix(-0.7074 -0.7069 0.7069 -0.7074 121.1149 634.0332)" fill="#EAF1F4" width="2.952" height="0.164"/>
		
			<rect x="196.137" y="294.847" transform="matrix(0.7101 -0.7041 0.7041 0.7101 -151.7595 224.0701)" fill="#EAF1F4" width="0.164" height="2.953"/>
		<polygon fill="#EAF1F4" points="199.223,299.453 199.25,299.248 197.436,297.434 197.32,297.551 		"/>
		
			<rect x="185.91" y="291.836" transform="matrix(-0.7076 -0.7066 0.7066 -0.7076 113.7097 630.8873)" fill="#EAF1F4" width="2.952" height="0.163"/>
		
			<rect x="192.538" y="298.451" transform="matrix(-0.7071 -0.7071 0.7071 -0.7071 120.1073 646.8174)" fill="#EAF1F4" width="2.953" height="0.165"/>
		
			<rect x="196.139" y="299.263" transform="matrix(0.7071 -0.7071 0.7071 0.7071 -155.1836 226.8341)" fill="#EAF1F4" width="0.164" height="2.954"/>
		<polygon fill="#EAF1F4" points="185.25,289.656 185.018,289.656 186.182,290.822 186.298,290.705 		"/>
		
			<rect x="190.342" y="296.249" transform="matrix(-0.7072 -0.707 0.707 -0.7072 117.9582 641.512)" fill="#EAF1F4" width="2.953" height="0.163"/>
		<polygon fill="#EAF1F4" points="197.32,301.959 198.719,303.357 198.746,303.152 197.436,301.843 		"/>
		
			<rect x="188.123" y="294.067" transform="matrix(-0.7069 -0.7074 0.7074 -0.7069 115.5525 636.185)" fill="#EAF1F4" width="2.954" height="0.164"/>
		
			<rect x="188.143" y="298.455" transform="matrix(-0.7068 -0.7074 0.7074 -0.7068 112.4429 643.6813)" fill="#EAF1F4" width="2.954" height="0.165"/>
		
			<rect x="185.941" y="296.251" transform="matrix(-0.7073 -0.7069 0.7069 -0.7073 110.4841 638.413)" fill="#EAF1F4" width="2.953" height="0.163"/>
		
			<rect x="183.735" y="294.046" transform="matrix(-0.7068 -0.7074 0.7074 -0.7068 108.0378 633.0361)" fill="#EAF1F4" width="2.954" height="0.163"/>
		
			<rect x="181.502" y="291.836" transform="matrix(-0.7074 -0.7068 0.7068 -0.7074 106.1041 627.7556)" fill="#EAF1F4" width="2.953" height="0.163"/>
		<polygon fill="#EAF1F4" points="197.32,306.368 198.216,307.264 198.243,307.057 197.436,306.252 		"/>
		
			<rect x="192.52" y="302.855" transform="matrix(-0.7069 -0.7074 0.7074 -0.7069 116.8409 654.2951)" fill="#EAF1F4" width="2.953" height="0.163"/>
		
			<rect x="190.342" y="300.656" transform="matrix(-0.7072 -0.707 0.707 -0.7072 114.8406 649.0372)" fill="#EAF1F4" width="2.953" height="0.164"/>
		<polygon fill="#EAF1F4" points="181.89,290.705 180.841,289.656 180.699,289.656 180.712,289.759 181.773,290.822 		"/>
		
			<rect x="194.757" y="305.073" transform="matrix(0.7069 0.7073 -0.7073 0.7069 273.3362 -49.3624)" fill="#EAF1F4" width="2.955" height="0.165"/>
		
			<rect x="185.942" y="300.659" transform="matrix(-0.7072 -0.707 0.707 -0.7072 107.3279 645.9308)" fill="#EAF1F4" width="2.953" height="0.164"/>
		
			<rect x="183.734" y="298.455" transform="matrix(-0.7069 -0.7073 0.7073 -0.7069 104.9973 640.5809)" fill="#EAF1F4" width="2.953" height="0.165"/>
		
			<rect x="191.725" y="303.68" transform="matrix(-0.7116 0.7026 -0.7026 -0.7116 542.7008 387.5256)" fill="#EAF1F4" width="0.164" height="2.954"/>
		
			<rect x="188.112" y="302.856" transform="matrix(-0.707 -0.7072 0.7072 -0.707 109.3973 651.1973)" fill="#EAF1F4" width="2.952" height="0.164"/>
		<polygon fill="#EAF1F4" points="181.89,295.115 181.33,294.555 181.364,294.82 181.773,295.23 		"/>
		
			<rect x="193.927" y="305.877" transform="matrix(-0.7071 0.7071 -0.7071 -0.7071 548.5256 387.4983)" fill="#EAF1F4" width="0.164" height="2.951"/>
		<polygon fill="#EAF1F4" points="197.32,310.775 197.712,311.168 197.739,310.963 197.436,310.66 		"/>
		
			<rect x="194.748" y="309.482" transform="matrix(0.7069 0.7074 -0.7074 0.7069 276.4928 -48.0547)" fill="#EAF1F4" width="2.954" height="0.164"/>
		
			<rect x="181.533" y="296.251" transform="matrix(-0.7073 -0.7069 0.7069 -0.7073 102.9573 635.2963)" fill="#EAF1F4" width="2.953" height="0.163"/>
		
			<rect x="187.316" y="303.674" transform="matrix(-0.7071 0.7071 -0.7071 -0.7071 535.6814 388.4143)" fill="#EAF1F4" width="0.163" height="2.953"/>
		
			<rect x="193.929" y="310.287" transform="matrix(-0.7071 0.7071 -0.7071 -0.7071 551.6464 395.0279)" fill="#EAF1F4" width="0.163" height="2.953"/>
		
			<rect x="183.712" y="302.857" transform="matrix(-0.707 -0.7072 0.7072 -0.707 101.886 648.0885)" fill="#EAF1F4" width="2.954" height="0.164"/>
		<polygon fill="#EAF1F4" points="195.115,312.98 196.731,314.596 196.963,314.596 195.232,312.863 		"/>
		
			<rect x="189.502" y="305.869" transform="matrix(-0.7026 0.7115 -0.7115 -0.7026 541.4839 388.4039)" fill="#EAF1F4" width="0.165" height="2.952"/>
		
			<rect x="191.726" y="308.074" transform="matrix(-0.7056 0.7086 -0.7086 -0.7056 546.4972 392.0617)" fill="#EAF1F4" width="0.164" height="2.954"/>
		<polygon fill="#EAF1F4" points="183.979,301.843 184.094,301.727 182.006,299.637 181.988,299.657 182.017,299.881 		"/>
		
			<rect x="189.519" y="310.287" transform="matrix(-0.7086 0.7056 -0.7056 -0.7086 543.9361 398.895)" fill="#EAF1F4" width="0.163" height="2.952"/>
		
			<rect x="187.314" y="308.08" transform="matrix(-0.7101 0.7041 -0.7041 -0.7101 538.4274 397.4189)" fill="#EAF1F4" width="0.164" height="2.953"/>
		
			<rect x="185.093" y="305.869" transform="matrix(-0.7041 0.7101 -0.7101 -0.7041 533.7991 392.2752)" fill="#EAF1F4" width="0.165" height="2.952"/>
		<polygon fill="#EAF1F4" points="184.094,306.135 182.635,304.676 182.669,304.943 183.978,306.25 		"/>
		<polygon fill="#EAF1F4" points="190.823,312.863 190.707,312.98 192.322,314.596 192.554,314.596 		"/>
		<polygon fill="#EAF1F4" points="188.146,314.596 186.414,312.865 186.298,312.98 187.914,314.596 188.092,314.596 		"/>
		
			<rect x="185.111" y="310.288" transform="matrix(-0.7116 0.7026 -0.7026 -0.7116 536.0173 403.501)" fill="#EAF1F4" width="0.163" height="2.953"/>
		<polygon fill="#EAF1F4" points="184.094,310.544 183.288,309.736 183.322,310.004 183.978,310.66 		"/>
		<polygon fill="#EAF1F4" points="182.005,290.822 183.17,289.656 182.938,289.656 181.89,290.705 		"/>
		<polygon fill="#EAF1F4" points="181.89,290.938 181.773,290.822 180.954,291.641 180.98,291.846 		"/>
		
			<rect x="181.811" y="290.72" transform="matrix(-0.7041 0.7101 -0.7101 -0.7041 516.4589 366.4124)" fill="#EAF1F4" width="0.165" height="0.164"/>
		
			<rect x="185.122" y="290.448" transform="matrix(-0.7116 -0.7026 0.7026 -0.7116 111.8738 629.7749)" fill="#EAF1F4" width="0.164" height="2.952"/>
		<polygon fill="#EAF1F4" points="186.414,290.822 187.579,289.656 187.347,289.656 186.298,290.705 		"/>
		
			<rect x="182.919" y="292.651" transform="matrix(-0.7086 -0.7056 0.7056 -0.7086 105.1311 631.6735)" fill="#EAF1F4" width="0.165" height="2.953"/>
		<polygon fill="#EAF1F4" points="181.89,295.346 181.773,295.23 181.458,295.546 181.484,295.751 		"/>
		
			<rect x="186.219" y="290.72" transform="matrix(-0.7026 -0.7115 0.7115 -0.7026 110.2884 627.6933)" fill="#EAF1F4" width="0.165" height="0.164"/>
		
			<rect x="184.007" y="292.94" transform="matrix(-0.7086 -0.7056 0.7056 -0.7086 107.7746 630.5532)" fill="#EAF1F4" width="0.163" height="0.165"/>
		
			<rect x="181.811" y="295.147" transform="matrix(0.7086 -0.7056 0.7056 0.7086 -155.3127 214.3752)" fill="#EAF1F4" width="0.163" height="0.163"/>
		
			<rect x="187.319" y="292.647" transform="matrix(-0.7026 -0.7115 0.7115 -0.7026 109.796 634.1331)" fill="#EAF1F4" width="0.165" height="2.954"/>
		
			<rect x="189.526" y="290.445" transform="matrix(-0.7086 -0.7056 0.7056 -0.7086 117.9813 632.5652)" fill="#EAF1F4" width="0.163" height="2.952"/>
		
			<rect x="185.112" y="294.858" transform="matrix(-0.7086 -0.7056 0.7056 -0.7086 107.3252 636.9926)" fill="#EAF1F4" width="0.163" height="2.953"/>
		<polygon fill="#EAF1F4" points="190.823,290.822 191.987,289.656 191.755,289.656 190.707,290.705 		"/>
		<polygon fill="#EAF1F4" points="182.006,299.637 184.094,297.551 183.978,297.434 181.961,299.451 181.982,299.615 		"/>
		
			<rect x="190.604" y="290.735" transform="matrix(-0.7041 -0.7101 0.7101 -0.7041 118.459 630.9937)" fill="#EAF1F4" width="0.165" height="0.165"/>
		
			<rect x="188.417" y="292.94" transform="matrix(-0.7086 -0.7056 0.7056 -0.7086 115.3089 633.6637)" fill="#EAF1F4" width="0.163" height="0.164"/>
		
			<rect x="186.224" y="295.15" transform="matrix(-0.7086 -0.7056 0.7056 -0.7086 109.9976 635.8914)" fill="#EAF1F4" width="0.165" height="0.163"/>
		
			<rect x="184.015" y="297.35" transform="matrix(-0.7086 -0.7056 0.7056 -0.7086 104.6759 638.0919)" fill="#EAF1F4" width="0.163" height="0.163"/>
		<polygon fill="#EAF1F4" points="181.982,299.615 181.988,299.657 182.006,299.637 		"/>
		
			<rect x="191.722" y="292.647" transform="matrix(-0.7026 -0.7115 0.7115 -0.7026 117.2936 637.2653)" fill="#EAF1F4" width="0.165" height="2.954"/>
		
			<rect x="193.935" y="290.446" transform="matrix(-0.7071 -0.7071 0.7071 -0.7071 124.7871 635.5322)" fill="#EAF1F4" width="0.163" height="2.952"/>
		
			<rect x="189.525" y="294.864" transform="matrix(-0.7101 -0.7041 0.7041 -0.7101 115.5843 640.2728)" fill="#EAF1F4" width="0.164" height="2.953"/>
		<polygon fill="#EAF1F4" points="195.232,290.822 196.396,289.656 196.165,289.656 195.115,290.705 		"/>
		
			<rect x="187.298" y="297.055" transform="matrix(-0.7041 -0.7101 0.7101 -0.7041 107.3468 641.7923)" fill="#EAF1F4" width="0.165" height="2.954"/>
		
			<rect x="185.117" y="299.262" transform="matrix(-0.7071 -0.7071 0.7071 -0.7071 103.4995 644.3475)" fill="#EAF1F4" width="0.163" height="2.952"/>
		<polygon fill="#EAF1F4" points="184.094,301.959 183.979,301.843 182.465,303.355 182.492,303.561 		"/>
		
			<rect x="195.022" y="290.735" transform="matrix(-0.7086 -0.7056 0.7056 -0.7086 128.1453 634.557)" fill="#EAF1F4" width="0.165" height="0.165"/>
		
			<rect x="192.83" y="292.94" transform="matrix(-0.7086 -0.7056 0.7056 -0.7086 122.8503 636.7781)" fill="#EAF1F4" width="0.163" height="0.164"/>
		
			<rect x="190.628" y="295.147" transform="matrix(-0.7071 -0.7071 0.7071 -0.7071 116.8029 638.8384)" fill="#EAF1F4" width="0.163" height="0.163"/>
		
			<rect x="188.424" y="297.35" transform="matrix(-0.7071 -0.7071 0.7071 -0.7071 111.4825 641.0408)" fill="#EAF1F4" width="0.163" height="0.163"/>
		
			<rect x="186.224" y="299.559" transform="matrix(-0.7086 -0.7056 0.7056 -0.7086 106.8875 643.4233)" fill="#EAF1F4" width="0.165" height="0.163"/>
		
			<rect x="184.007" y="301.757" transform="matrix(-0.7026 -0.7115 0.7115 -0.7026 98.6681 644.9114)" fill="#EAF1F4" width="0.165" height="0.164"/>
		
			<rect x="187.319" y="301.465" transform="matrix(-0.7056 -0.7086 0.7086 -0.7056 104.9725 649.4933)" fill="#EAF1F4" width="0.164" height="2.954"/>
		<polygon fill="#EAF1F4" points="182.968,307.262 182.995,307.467 184.094,306.367 183.978,306.25 		"/>
		
			<rect x="183.717" y="305.066" transform="matrix(-0.7072 0.707 -0.707 -0.7072 531.9064 390.0085)" fill="#EAF1F4" width="2.953" height="0.163"/>
		
			<rect x="194.741" y="294.062" transform="matrix(0.7067 -0.7075 0.7075 0.7067 -150.561 225.1029)" fill="#EAF1F4" width="2.954" height="0.165"/>
		
			<rect x="196.952" y="291.825" transform="matrix(0.7074 -0.7069 0.7069 0.7074 -148.268 225.6861)" fill="#EAF1F4" width="2.952" height="0.164"/>
		
			<rect x="189.526" y="299.262" transform="matrix(-0.7086 -0.7056 0.7056 -0.7086 111.7592 647.6304)" fill="#EAF1F4" width="0.163" height="2.952"/>
		
			<rect x="193.929" y="294.858" transform="matrix(-0.7086 -0.7056 0.7056 -0.7086 122.3897 643.2139)" fill="#EAF1F4" width="0.163" height="2.953"/>
		
			<rect x="191.729" y="297.039" transform="matrix(-0.6997 -0.7144 0.7144 -0.6997 112.7452 644.4237)" fill="#EAF1F4" width="0.165" height="2.955"/>
		<polygon fill="#EAF1F4" points="199.641,290.822 200.439,290.021 200.473,289.757 199.524,290.705 		"/>
		
			<rect x="199.421" y="290.736" transform="matrix(-0.7041 -0.7101 0.7101 -0.7041 133.4848 637.2554)" fill="#EAF1F4" width="0.165" height="0.166"/>
		
			<rect x="197.239" y="292.95" transform="matrix(0.7026 -0.7115 0.7115 0.7026 -149.8294 227.5364)" fill="#EAF1F4" width="0.165" height="0.164"/>
		
			<rect x="195.05" y="295.156" transform="matrix(-0.7116 -0.7026 0.7026 -0.7116 126.5376 642.4216)" fill="#EAF1F4" width="0.164" height="0.163"/>
		
			<rect x="192.838" y="297.354" transform="matrix(-0.7116 -0.7026 0.7026 -0.7116 121.2076 644.629)" fill="#EAF1F4" width="0.164" height="0.163"/>
		
			<rect x="190.633" y="299.559" transform="matrix(-0.7071 -0.7071 0.7071 -0.7071 113.6935 646.3737)" fill="#EAF1F4" width="0.164" height="0.163"/>
		
			<rect x="188.415" y="301.757" transform="matrix(-0.7026 -0.7115 0.7115 -0.7026 106.1746 648.0483)" fill="#EAF1F4" width="0.165" height="0.164"/>
		
			<rect x="186.214" y="303.973" transform="matrix(-0.7086 0.7056 -0.7056 -0.7086 532.8521 388.049)" fill="#EAF1F4" width="0.165" height="0.164"/>
		
			<rect x="184.011" y="306.186" transform="matrix(-0.7116 0.7026 -0.7026 -0.7116 530.2789 394.8477)" fill="#EAF1F4" width="0.164" height="0.165"/>
		<polygon fill="#EAF1F4" points="199.787,295.084 199.82,294.816 199.524,295.113 199.64,295.23 		"/>
		<polygon fill="#EAF1F4" points="183.978,310.66 183.471,311.166 183.498,311.371 184.094,310.775 		"/>
		
			<rect x="188.127" y="305.058" transform="matrix(-0.7072 0.707 -0.707 -0.7072 539.4286 386.8767)" fill="#EAF1F4" width="2.952" height="0.163"/>
		
			<rect x="194.742" y="298.468" transform="matrix(0.7074 -0.7069 0.7069 0.7074 -153.611 226.0676)" fill="#EAF1F4" width="2.951" height="0.165"/>
		
			<rect x="191.723" y="301.465" transform="matrix(-0.7086 -0.7056 0.7056 -0.7086 113.9581 652.9447)" fill="#EAF1F4" width="0.163" height="2.954"/>
		
			<rect x="193.934" y="299.242" transform="matrix(-0.7026 -0.7115 0.7115 -0.7026 116.3682 650.069)" fill="#EAF1F4" width="0.165" height="2.953"/>
		
			<rect x="185.109" y="308.077" transform="matrix(-0.7026 -0.7115 0.7115 -0.7026 95.0555 658.8303)" fill="#EAF1F4" width="0.165" height="2.953"/>
		
			<rect x="196.948" y="296.251" transform="matrix(0.7071 -0.7071 0.7071 0.7071 -151.4214 227.1013)" fill="#EAF1F4" width="2.954" height="0.163"/>
		
			<rect x="185.924" y="307.253" transform="matrix(-0.7069 0.7073 -0.7073 -0.7069 537.253 392.0589)" fill="#EAF1F4" width="2.955" height="0.163"/>
		
			<rect x="199.438" y="295.147" transform="matrix(0.7116 -0.7026 0.7026 0.7116 -149.883 225.3258)" fill="#EAF1F4" width="0.163" height="0.165"/>
		
			<rect x="197.258" y="297.358" transform="matrix(0.7012 -0.713 0.713 0.7012 -153.0996 229.5772)" fill="#EAF1F4" width="0.166" height="0.163"/>
		
			<rect x="195.05" y="299.562" transform="matrix(-0.7116 -0.7026 0.7026 -0.7116 123.4424 649.9635)" fill="#EAF1F4" width="0.164" height="0.163"/>
		
			<rect x="192.829" y="301.757" transform="matrix(-0.7041 -0.7101 0.7101 -0.7041 114.4254 651.355)" fill="#EAF1F4" width="0.165" height="0.164"/>
		
			<rect x="190.623" y="303.973" transform="matrix(-0.7071 0.7071 -0.7071 -0.7071 540.5526 384.2051)" fill="#EAF1F4" width="0.164" height="0.164"/>
		
			<rect x="188.419" y="306.176" transform="matrix(-0.7101 0.7041 -0.7041 -0.7101 537.9937 391.0018)" fill="#EAF1F4" width="0.164" height="0.165"/>
		
			<rect x="186.213" y="308.376" transform="matrix(-0.7086 0.7056 -0.7056 -0.7086 535.9542 395.5799)" fill="#EAF1F4" width="0.163" height="0.164"/>
		
			<rect x="184.007" y="310.586" transform="matrix(-0.7056 0.7086 -0.7086 -0.7056 534.1226 399.4417)" fill="#EAF1F4" width="0.165" height="0.165"/>
		
			<rect x="194.747" y="302.855" transform="matrix(0.7074 -0.7069 0.7069 0.7074 -156.7094 227.3553)" fill="#EAF1F4" width="2.952" height="0.164"/>
		
			<rect x="185.924" y="311.663" transform="matrix(-0.7068 0.7074 -0.7074 -0.7068 540.392 399.5037)" fill="#EAF1F4" width="2.955" height="0.163"/>
		
			<rect x="192.532" y="305.075" transform="matrix(-0.7072 0.707 -0.707 -0.7072 546.9624 383.7926)" fill="#EAF1F4" width="2.953" height="0.165"/>
		<polygon fill="#EAF1F4" points="199.134,300.145 199.168,299.879 197.32,301.727 197.436,301.843 		"/>
		
			<rect x="190.331" y="307.263" transform="matrix(-0.707 0.7072 -0.7072 -0.707 544.7712 388.9996)" fill="#EAF1F4" width="2.954" height="0.163"/>
		
			<rect x="188.127" y="309.466" transform="matrix(-0.7069 0.7074 -0.7074 -0.7069 542.5881 394.2388)" fill="#EAF1F4" width="2.954" height="0.165"/>
		<polygon fill="#EAF1F4" points="186.182,312.865 184.451,314.596 184.683,314.596 186.298,312.98 		"/>
		
			<rect x="197.24" y="301.766" transform="matrix(0.7041 -0.7101 0.7101 0.7041 -155.9537 229.4269)" fill="#EAF1F4" width="0.164" height="0.164"/>
		
			<rect x="195.031" y="303.967" transform="matrix(0.7116 0.7026 -0.7026 0.7116 269.8925 -49.3952)" fill="#EAF1F4" width="0.163" height="0.164"/>
		
			<rect x="192.808" y="306.163" transform="matrix(-0.7026 0.7115 -0.7115 -0.7026 546.3292 384.1779)" fill="#EAF1F4" width="0.165" height="0.164"/>
		
			<rect x="190.63" y="308.372" transform="matrix(-0.7131 0.7011 -0.7011 -0.7131 542.9565 394.6989)" fill="#EAF1F4" width="0.163" height="0.164"/>
		
			<rect x="188.419" y="310.572" transform="matrix(-0.7026 0.7115 -0.7115 -0.7026 541.9938 394.806)" fill="#EAF1F4" width="0.165" height="0.163"/>
		
			<rect x="186.208" y="312.782" transform="matrix(0.7116 0.7026 -0.7026 0.7116 273.5599 -40.6496)" fill="#EAF1F4" width="0.164" height="0.163"/>
		
			<rect x="196.146" y="305.89" transform="matrix(0.7101 0.7041 -0.7041 0.7101 273.3112 -49.0568)" fill="#EAF1F4" width="0.164" height="2.952"/>
		
			<rect x="190.327" y="311.688" transform="matrix(-0.7072 0.707 -0.707 -0.7072 547.8743 396.6396)" fill="#EAF1F4" width="2.953" height="0.163"/>
		
			<rect x="192.538" y="309.457" transform="matrix(-0.707 0.7072 -0.7072 -0.707 550.09 391.1856)" fill="#EAF1F4" width="2.952" height="0.164"/>
		<polygon fill="#EAF1F4" points="197.32,306.135 197.436,306.252 198.481,305.206 198.516,304.939 		"/>
		<polygon fill="#EAF1F4" points="190.591,312.863 188.859,314.596 189.091,314.596 190.707,312.98 		"/>
		
			<rect x="197.216" y="306.163" transform="matrix(-0.7041 0.7101 -0.7101 -0.7041 553.6761 381.7919)" fill="#EAF1F4" width="0.165" height="0.164"/>
		
			<rect x="195.039" y="308.375" transform="matrix(0.7086 0.7056 -0.7056 0.7086 274.5094 -47.7948)" fill="#EAF1F4" width="0.163" height="0.165"/>
		
			<rect x="192.826" y="310.578" transform="matrix(-0.7026 0.7115 -0.7115 -0.7026 549.501 391.6824)" fill="#EAF1F4" width="0.165" height="0.165"/>
		
			<rect x="190.628" y="312.779" transform="matrix(-0.7086 -0.7056 0.7056 -0.7086 105.0892 669.121)" fill="#EAF1F4" width="0.163" height="0.164"/>
		
			<rect x="196.119" y="310.277" transform="matrix(0.7116 0.7026 -0.7026 0.7116 275.6391 -47.9331)" fill="#EAF1F4" width="0.164" height="2.953"/>
		<polygon fill="#EAF1F4" points="195,312.863 193.268,314.596 193.5,314.596 195.115,312.98 		"/>
		<polygon fill="#EAF1F4" points="197.32,310.544 197.436,310.66 197.829,310.268 197.863,310.001 		"/>
		
			<rect x="197.242" y="310.575" transform="matrix(0.7071 -0.7071 0.7071 0.7071 -161.8733 230.5178)" fill="#EAF1F4" width="0.163" height="0.165"/>
		
			<rect x="195.05" y="312.79" transform="matrix(-0.7116 -0.7026 0.7026 -0.7116 114.1488 672.6024)" fill="#EAF1F4" width="0.164" height="0.163"/>
	</g>
	<g>
		<rect x="976.339" y="230.382" display="none" fill="#202E42" width="7.756" height="9.933"/>
		<rect x="948.588" y="230.382" display="none" fill="#202E42" width="7.755" height="9.933"/>
		<g>
			
				<rect x="983.208" y="234.059" transform="matrix(0.9767 0.2145 -0.2145 0.9767 76.4968 -205.3727)" fill="#9B9B9B" width="2.258" height="31.303"/>
			<path fill="#005493" d="M986.164,256.15c-0.398,1.713-2.111,2.779-3.824,2.379l0,0c-1.715-0.398-2.779-2.113-2.379-3.826
				l13.572-58.165c0.4-1.712,2.111-2.776,3.826-2.378l0,0c1.713,0.4,2.777,2.113,2.379,3.826L986.164,256.15z"/>
		</g>
		<g>
			<g>
				<rect x="954.13" y="290.334" fill="#9B9B9B" width="5.998" height="15.762"/>
				<rect x="956" y="262.158" fill="#9B9B9B" width="2.26" height="31.303"/>
				<g>
					
						<rect x="964.874" y="297.684" transform="matrix(0.2713 -0.9625 0.9625 0.2713 407.6865 1153.6082)" fill="#9B9B9B" width="1.656" height="19.757"/>
					
						<rect x="947.751" y="297.682" transform="matrix(-0.2713 -0.9625 0.9625 -0.2713 909.8931 1304.0063)" fill="#9B9B9B" width="1.656" height="19.76"/>
					<circle fill="#9B9B9B" cx="939.276" cy="311.93" r="2.5"/>
					<circle fill="#9B9B9B" cx="974.984" cy="311.93" r="2.5"/>
				</g>
				<rect x="956.214" y="304.617" fill="#9B9B9B" width="1.832" height="6.42"/>
				<rect x="955.187" y="309.443" fill="#9B9B9B" width="3.885" height="4.986"/>
			</g>
			<path fill="#0085BA" d="M983.648,265.244c0,1.979-1.605,3.582-3.586,3.582h-45.868c-1.977,0-3.582-1.604-3.582-3.582l0,0
				c0-1.982,1.605-3.584,3.582-3.584h45.868C982.042,261.66,983.648,263.262,983.648,265.244L983.648,265.244z"/>
		</g>
		<g display="none">
			<g display="inline">
				<path fill="#2C313A" d="M906.299,313.184c0.637-1.9,1.24-2.113,5.354-2.312l2.998-0.955c1.682-0.414,3.158-1.34,4.26-2.604
					c0.246-0.287,0.473-0.59,0.68-0.906c1.898,0.139,1.627,1.865,1.627,1.865h5.35v0.723V310v1.008v2.176v0.957v0.572h-5.891v-0.572
					v-0.953l-2.615,1.525h-12.012C906.049,314.178,906.137,313.664,906.299,313.184z"/>
				<rect x="917.633" y="256.926" fill="#202E42" width="8.934" height="51.643"/>
			</g>
			<path display="inline" fill="#1F2328" d="M917.723,313.184c0.639-1.9,1.24-2.113,5.355-2.312l2.998-0.955
				c1.68-0.414,3.158-1.34,4.26-2.604c0.246-0.287,0.473-0.59,0.68-0.906c1.898,0.139,1.627,1.865,1.627,1.865h5.35v0.723V310v1.008
				v2.176v0.957v0.572h-5.891v-0.572v-0.953l-2.615,1.525h-12.014C917.473,314.178,917.563,313.664,917.723,313.184z"/>
			<rect x="929.057" y="256.926" display="inline" fill="#202E42" width="8.936" height="51.643"/>
			<rect x="917.633" y="252.979" display="inline" fill="#202E42" width="50.851" height="8.932"/>
			<path display="inline" fill="#202E42" d="M954.092,253.645c0,4.566,3.702,8.266,8.269,8.266h6.256
				c4.568,0,8.268-3.699,8.268-8.266v-6.258c0-4.568-3.699-8.269-8.268-8.269h-6.256c-4.566,0-8.269,3.7-8.269,8.269V253.645z"/>
		</g>
		<g display="none">
			<path display="inline" fill="#F9B69B" d="M938.713,237.528L938.713,237.528l-2.389,0.001l0,0v6.902h-3.279h-4.326
				c-0.002,0-0.004,0-0.006,0c-0.004,0-0.006,0-0.008,0h-0.334v-0.033c-1.744-0.174-3.111-1.629-3.111-3.418
				c0-1.791,1.367-3.246,3.111-3.418v-0.034h0.334c0.002,0,0.004-0.001,0.008-0.001c0.002,0,0.004,0.001,0.006,0.001h3.543
				c-0.004-0.034-0.012-0.065-0.012-0.101c0-0.68,0.551-1.23,1.23-1.23c0.678,0,1.23,0.551,1.23,1.23
				c0,0.035-0.008,0.066-0.012,0.101h3.023H938.713z"/>
			<rect x="936.325" y="237.529" display="inline" fill="#FFFFFF" width="0" height="6.902"/>
			<polygon display="inline" fill="#FFFFFF" points="938.713,244.432 938.713,244.432 936.325,244.432 936.325,244.432 
				936.325,244.432 936.325,244.432 			"/>
			<polygon display="inline" fill="#FFFFFF" points="938.713,244.432 938.713,244.432 936.325,244.432 936.325,244.432 
				937.723,244.432 			"/>
			<polygon display="inline" opacity="0.3" fill="#84A8C1" points="938.713,244.432 938.713,244.432 936.325,244.432 
				936.325,244.432 937.723,244.432 			"/>
			<polygon display="inline" fill="#FFFFFF" points="938.713,243.403 938.713,244.432 937.723,244.432 936.325,244.432 
				936.325,237.529 938.713,237.529 			"/>
			<rect x="937.875" y="235.783" display="inline" fill="#202E42" width="32.478" height="9.062"/>
		</g>
		<g display="none">
			<path display="inline" fill="#F9B69B" d="M958.068,178.506l0.176-0.221h12.658v27.002l0,0v10.191h-9.658v-10.191l0,0v-0.01
				c0-2.117,0-2.117,0-2.646c0-1.235-1.41-1.41-1.41-1.41h-2.957v-11.645h-3.749L958.068,178.506z"/>
			<circle display="inline" fill="#2E3D49" cx="959.887" cy="182.686" r="0.519"/>
			<path display="inline" fill="#CE857C" d="M958.644,192.508c0.197,0,0.359-0.162,0.359-0.36h0.529
				c0,0.489-0.398,0.888-0.889,0.888h-1.768v-0.527H958.644z"/>
			<path display="inline" fill="none" d="M964.472,183.357c0,0.013-0.004,0.024-0.004,0.037v-0.037H964.472z"/>
			<g display="inline">
				<rect x="954.158" y="248.201" fill="#9B390D" width="22.758" height="2.008"/>
				<polygon fill="#202E42" points="956.394,250.209 956.394,248.201 957.414,248.201 957.414,250.209 971.033,250.209 
					971.033,248.201 972.054,248.201 972.054,250.209 976.916,250.209 976.916,252.979 954.158,252.979 954.158,250.209 				"/>
			</g>
			<polygon display="inline" fill="#FFFFFF" points="961.244,205.287 961.25,202.806 963.423,202.806 965.285,202.806 
				967.318,202.806 969.111,202.806 970.902,202.806 970.902,205.287 970.945,205.287 970.945,248.201 961.234,248.201 
				961.234,205.287 			"/>
			<path display="inline" opacity="0.3" fill="#84A8C1" d="M963.107,224.691c0,0.751-0.609,1.358-1.359,1.358h-5.318
				c-0.75,0-1.357-0.607-1.357-1.358v-7.094h8.035V224.691z"/>
			<polygon display="inline" fill="#BF2E2E" points="963.636,205.496 965.734,202.806 967.83,205.496 966.679,206.646 
				967.662,241.229 967.662,241.229 965.738,243.153 963.812,241.229 963.806,241.229 964.787,206.646 			"/>
			<path display="inline" fill="#303235" d="M957.052,172.433c1.508,0,2.732,1.223,2.732,2.733c0,0.177-0.021,0.35-0.053,0.517
				h11.805v15.129c0,0,0,0-1.367,0c-4.146,0-3.926-3.926-3.926-3.926v-1.718c0.041,0.003,0.078,0.012,0.117,0.012
				c0.963,0,1.742-0.779,1.742-1.741s-0.779-1.741-1.742-1.741c-0.494,0-0.936,0.206-1.256,0.537v1.123v1.286v0.536h-1.855v-4.469
				c-0.631,0-1.562,0-2.961,0c-3.838,0-5.297-3.14-5.74-4.453c-0.146-0.334-0.23-0.704-0.23-1.092
				C954.318,173.655,955.542,172.433,957.052,172.433z"/>
			<polygon display="inline" fill="#344E68" points="959.275,205.275 958.58,207.734 959.787,209.27 958.21,210.844 961.234,233.03 
				961.234,211.107 961.234,209.002 961.234,205.275 			"/>
			<g display="inline">
				<path fill="#202E42" d="M972.861,205.275h5.537c3.146,0,5.697,2.548,5.697,5.693v0.013v4.161v0.012v16.525h-7.18v0.013v16.509
					v4.777h-0.564h-5.406v-4.777v-42.914v-0.012H972.861z"/>
				<path fill="#202E42" d="M954.281,205.287h5.539h1.414v42.914v4.777h-5.404h-1.672v-4.777V231.68h-5.569v-6.707v-5.926v-8.065
					C948.588,207.836,951.137,205.287,954.281,205.287z"/>
				<polygon fill="#344E68" points="972.861,205.275 973.558,207.734 972.349,209.27 973.925,210.844 970.902,233.03 
					970.902,211.107 970.902,209.002 970.902,205.275 				"/>
				<polygon fill="#344E68" points="959.275,205.275 958.58,207.734 959.787,209.27 958.21,210.844 961.234,233.03 961.234,211.107 
					961.234,209.002 961.234,205.275 				"/>
			</g>
		</g>
		<g display="none">
			<path display="inline" fill="#F9B69B" d="M960.404,235.742v0.002h-2.387h-0.002v6.902h-3.277h-4.327c-0.004,0-0.004,0-0.008,0
				s-0.006,0-0.008,0h-0.334v-0.035c-1.744-0.174-3.111-1.627-3.111-3.418c0-1.79,1.367-3.244,3.111-3.417v-0.034h0.334
				c0.002,0,0.004,0,0.008,0s0.004,0,0.008,0h3.544c-0.006-0.033-0.012-0.064-0.012-0.1c0-0.679,0.549-1.23,1.227-1.23
				c0.682,0,1.232,0.552,1.232,1.23c0,0.035-0.008,0.066-0.01,0.1h3.021H960.404z"/>
			<rect x="958.015" y="235.744" display="inline" fill="#FFFFFF" width="0.002" height="6.902"/>
			<polygon display="inline" fill="#FFFFFF" points="960.404,242.646 960.404,242.646 958.015,242.646 958.015,242.646 
				958.017,242.646 958.017,242.646 			"/>
			<polygon display="inline" fill="#FFFFFF" points="960.404,242.646 960.404,242.646 958.017,242.646 958.017,242.646 
				959.414,242.646 			"/>
			<polygon display="inline" opacity="0.3" fill="#84A8C1" points="960.404,242.646 960.404,242.646 958.017,242.646 
				958.017,242.646 959.414,242.646 			"/>
			<polygon display="inline" fill="#FFFFFF" points="960.404,241.618 960.404,242.646 959.414,242.646 958.017,242.646 
				958.017,235.744 960.404,235.744 			"/>
			<rect x="959.566" y="235.624" display="inline" fill="#202E42" width="24.529" height="9.062"/>
		</g>
	</g>
</g>
</svg>
