<?xml version="1.0" encoding="utf-8"?>
<!-- Generator: Adobe Illustrator 16.0.0, SVG Export Plug-In . SVG Version: 6.00 Build 0)  -->
<!DOCTYPE svg PUBLIC "-//W3C//DTD SVG 1.1//EN" "http://www.w3.org/Graphics/SVG/1.1/DTD/svg11.dtd">
<svg version="1.1" id="Layer_1" xmlns="http://www.w3.org/2000/svg" xmlns:xlink="http://www.w3.org/1999/xlink" x="0px" y="0px"
	 width="631.211px" height="360.4px" viewBox="0 0 631.211 360.4" enable-background="new 0 0 631.211 360.4" xml:space="preserve">
<g>
	<rect x="257.896" y="39.955" fill="#D8B00B" width="0.626" height="34.711"/>
	<rect x="274.86" y="39.955" fill="#D8B00B" width="0.627" height="34.711"/>
	<rect x="257.896" y="39.955" fill="#D8B00B" width="220.345" height="2.348"/>
	
		<rect x="417.715" y="32.395" transform="matrix(-0.5604 -0.8283 0.8283 -0.5604 617.6242 414.7488)" fill="#D8B00B" width="2.348" height="22.115"/>
	
		<rect x="417.838" y="32.394" transform="matrix(0.5604 -0.8283 0.8283 0.5604 148.2285 366.1528)" fill="#D8B00B" width="2.348" height="22.117"/>
	
		<rect x="406.046" y="20.401" transform="matrix(0.8282 -0.5604 0.5604 0.8282 52.3309 233.6259)" fill="#4C7C84" width="2.352" height="22.115"/>
	
		<rect x="406.046" y="20.534" transform="matrix(0.8284 0.5602 -0.5602 0.8284 87.5952 -222.7027)" fill="#4C7C84" width="2.351" height="22.118"/>
	
		<rect x="456.263" y="20.398" transform="matrix(0.828 -0.5608 0.5608 0.828 61.0527 261.9292)" fill="#D8B00B" width="2.352" height="22.117"/>
	
		<rect x="441.937" y="20.406" transform="matrix(0.8278 -0.561 0.561 0.8278 58.6492 254.0099)" fill="#D8B00B" width="2.35" height="22.117"/>
	
		<rect x="456.282" y="20.517" transform="matrix(0.8282 0.5604 -0.5604 0.8282 96.2905 -250.9537)" fill="#D8B00B" width="2.349" height="22.115"/>
	
		<rect x="443.095" y="20.536" transform="matrix(0.8284 0.5602 -0.5602 0.8284 93.9551 -243.4572)" fill="#D8B00B" width="2.351" height="22.117"/>
	
		<rect x="470.626" y="20.406" transform="matrix(0.8278 -0.561 0.561 0.8278 63.5894 270.1048)" fill="#D8B00B" width="2.35" height="22.116"/>
	
		<rect x="470.625" y="20.516" transform="matrix(0.8282 0.5604 -0.5604 0.8282 98.7545 -258.9924)" fill="#D8B00B" width="2.349" height="22.117"/>
	<rect x="399.243" y="-0.299" fill="#D8B00B" width="37.854" height="42.66"/>
	<rect x="477.872" y="35.158" fill="#D8B00B" width="42.658" height="7.154"/>
	<rect x="477.872" y="28" fill="#2A2F3F" width="42.658" height="7.152"/>
	<rect x="477.872" y="20.839" fill="#D8B00B" width="42.658" height="7.15"/>
	<rect x="477.872" y="13.68" fill="#2A2F3F" width="42.658" height="7.15"/>
	<path fill="#D8B00B" d="M479.562,23.38v-2.35H271.27v0.1l-0.155-0.1L257.896,39.9l1.979,1.294l3.038-4.334
		c0.723,2.627,3.127,4.562,5.98,4.562c1.384,0,2.658-0.46,3.692-1.229l1.767,1.197l4.552-6.725l4.476,6.613l1.946-1.318
		l-5.002-7.389l5.753-8.5l5.041,7.445l-5.792,8.555l1.946,1.318l5.263-7.777l5.189,7.666l1.945-1.318l-5.715-8.443l5.51-8.139h0.485
		l5.513,8.139l-5.793,8.555l1.946,1.318l5.264-7.777l5.189,7.666l1.945-1.318l-5.716-8.443l5.51-8.139h0.486l5.512,8.139
		l-5.792,8.555l1.945,1.318l5.265-7.777l5.188,7.666l1.945-1.318l-5.717-8.443l5.512-8.139h0.483l5.513,8.139l-5.791,8.555
		l1.944,1.318l5.267-7.777l5.188,7.666l1.947-1.318l-5.717-8.443l5.512-8.139h0.484l5.51,8.139l-5.789,8.555l1.943,1.318
		l5.266-7.777l5.188,7.666l1.946-1.318l-5.717-8.443l5.51-8.139h0.486l5.512,8.139l-5.791,8.555l1.945,1.318l5.264-7.777
		l5.188,7.666l1.945-1.318l-5.716-8.443l5.511-8.139h0.485l5.511,8.139l-5.791,8.555l1.946,1.318l5.263-7.777l5.188,7.666
		l1.944-1.318l-5.715-8.443l5.51-8.139h0.484l5.512,8.139l-5.791,8.555l1.945,1.318l5.266-7.777l5.188,7.666l1.945-1.318
		l-5.715-8.443l5.51-8.139h79.693V23.38H479.562z M268.894,39.421c-2.32,0-4.207-1.887-4.207-4.207c0-0.383,0.056-0.752,0.152-1.104
		l1.63-2.326c0.686-0.484,1.522-0.773,2.424-0.773c2.319,0,4.206,1.887,4.206,4.205C273.1,37.535,271.213,39.421,268.894,39.421z
		 M275.014,36.225c0.054-0.33,0.089-0.666,0.089-1.01c0-3.423-2.786-6.209-6.209-6.209c-0.168,0-0.331,0.012-0.497,0.025
		l3.403-4.857l5.685,8.4L275.014,36.225z M274.101,23.38h9.608l-4.804,7.096L274.101,23.38z M292.535,29.424l-4.09-6.043h8.182
		L292.535,29.424z M306.879,29.424l-4.09-6.043h8.182L306.879,29.424z M321.223,29.424l-4.092-6.043h8.186L321.223,29.424z
		 M335.568,29.424l-4.092-6.043h8.183L335.568,29.424z M349.913,29.424l-4.093-6.043h8.185L349.913,29.424z M364.254,29.424
		l-4.09-6.043h8.184L364.254,29.424z M378.6,29.424l-4.092-6.043h8.184L378.6,29.424z M392.943,29.424l-4.09-6.043h8.183
		L392.943,29.424z"/>
	<rect x="415.549" y="15.958" fill="#2A2F3F" width="5.24" height="11.355"/>
	<circle fill="#D8B00B" cx="260.782" cy="74.25" r="3.305"/>
	<circle fill="#D8B00B" cx="272.632" cy="74.25" r="3.306"/>
	<path fill="#D8B00B" d="M270.751,105.296c-0.314-0.797-0.855-1.498-1.572-1.998c-0.216-0.152-0.45-0.285-0.698-0.398
		c-0.435-0.369-0.707-0.9-0.754-1.473h3.112V99.13v-0.678h-3.318h-0.434V78.611h-0.627v19.842h-3.124v2.975h2.727h0.151
		c-0.004,0.371,0.041,0.736,0.14,1.088c0.229,0.816,0.721,1.543,1.408,2.061c0.067,0.051,0.135,0.102,0.204,0.148
		c0.758,0.607,1.114,1.63,0.824,2.619c-0.385,1.305-1.755,2.051-3.062,1.666c-1.305-0.385-2.051-1.756-1.667-3.059
		c0.006-0.021,0.014-0.039,0.02-0.057c0.039-0.064,0.072-0.131,0.095-0.207c0.006-0.021,0.007-0.045,0.012-0.07
		c0.094-0.442-0.165-0.891-0.606-1.02c-0.269-0.08-0.542-0.021-0.754,0.129c-0.147,0.26-0.268,0.537-0.362,0.832
		c-0.011,0.033-0.024,0.064-0.035,0.101c-0.688,2.333,0.645,4.78,2.977,5.468c2.333,0.689,4.782-0.646,5.469-2.977
		C271.167,107.171,271.097,106.176,270.751,105.296z"/>
	<path fill="#F7F4CD" d="M318.032,60.375v71.349h-73.961v177.972h147.924V60.375H318.032z M272.004,281.244h-5.242v-11.57h5.242
		V281.244z M272.004,243.697h-5.242v-11.57h5.242V243.697z M272.004,206.15h-5.242v-11.572h5.242V206.15z M272.004,168.604h-5.242
		v-11.569h5.242V168.604z M304.703,281.244h-5.242v-11.57h5.242V281.244z M304.703,243.697h-5.242v-11.57h5.242V243.697z
		 M304.703,206.15h-5.242v-11.572h5.242V206.15z M304.703,168.604h-5.242v-11.569h5.242V168.604z M337.398,281.244h-5.241v-11.57
		h5.241V281.244z M337.398,243.697h-5.241v-11.57h5.241V243.697z M337.398,206.15h-5.241v-11.572h5.241V206.15z M337.398,168.604
		h-5.241v-11.569h5.241V168.604z M337.398,131.056h-5.241v-11.569h5.241V131.056z M337.398,93.508h-5.241v-11.57h5.241V93.508z
		 M370.096,281.244h-5.242v-11.57h5.242V281.244z M370.096,243.697h-5.242v-11.57h5.242V243.697z M370.096,206.15h-5.242v-11.572
		h5.242V206.15z M370.096,168.604h-5.242v-11.569h5.242V168.604z M370.096,131.056h-5.242v-11.569h5.242V131.056z M370.096,93.508
		h-5.242v-11.57h5.242V93.508z"/>
	<g>
		<polygon fill="#2A2F3F" points="275.938,74.25 269.785,74.25 275.938,82.07 		"/>
		<polygon fill="#FFC306" points="262.407,74.25 271.178,85.397 275.938,82.185 275.938,82.121 269.747,74.25 		"/>
		<polygon fill="#261D19" points="269.785,74.25 269.747,74.25 275.938,82.121 275.938,82.07 		"/>
		<polygon fill="#2A2F3F" points="257.478,74.25 257.478,77.359 265.575,87.652 266.707,88.419 271.152,85.414 262.368,74.25 		"/>
		<polygon fill="#261D19" points="262.368,74.25 271.152,85.414 271.178,85.397 262.407,74.25 		"/>
		<polygon fill="#FFC306" points="257.478,82.185 265.488,87.598 257.478,77.411 		"/>
		<polygon fill="#261D19" points="257.478,77.411 265.488,87.598 265.575,87.652 257.478,77.359 		"/>
	</g>
	<polygon fill="none" points="426.969,140.932 426.969,132.912 421.043,136.921 	"/>
	<polygon fill="none" points="426.969,154.417 426.969,146.397 421.043,150.41 	"/>
	<polygon fill="none" points="418.95,70.908 411.086,76.232 418.95,81.557 426.815,76.232 	"/>
	<polygon fill="none" points="418.95,108.53 426.815,103.207 418.95,97.88 411.086,103.207 	"/>
	<polygon fill="none" points="418.95,95.044 426.815,89.719 418.95,84.394 411.086,89.719 	"/>
	<polygon fill="none" points="418.95,135.501 426.815,130.179 418.95,124.853 411.086,130.179 	"/>
	<polygon fill="none" points="418.95,122.016 426.815,116.69 418.95,111.367 411.086,116.69 	"/>
	<polygon fill="none" points="418.95,162.477 426.815,157.15 418.95,151.826 411.086,157.15 	"/>
	<polygon fill="none" points="418.95,148.988 426.815,143.664 418.95,138.339 411.086,143.664 	"/>
	<polygon fill="none" points="410.395,146.035 410.395,154.781 416.854,150.41 	"/>
	<polygon fill="none" points="426.969,51.99 421.043,56.003 426.969,60.014 	"/>
	<polygon fill="none" points="426.969,73.5 426.969,65.478 421.043,69.488 	"/>
	<polygon fill="none" points="426.969,86.986 426.969,78.964 421.043,82.976 	"/>
	<polygon fill="none" points="426.969,127.445 426.969,119.424 421.043,123.435 	"/>
	<polygon fill="none" points="418.95,68.07 426.815,62.746 418.95,57.419 411.086,62.746 	"/>
	<polygon fill="none" points="410.395,132.549 410.395,141.294 416.854,136.921 	"/>
	<polygon fill="none" points="426.969,100.473 426.969,92.451 421.043,96.462 	"/>
	<polygon fill="none" points="426.969,113.958 426.969,105.937 421.043,109.949 	"/>
	<polygon fill="none" points="410.395,51.628 410.395,60.375 416.854,56.003 	"/>
	<polygon fill="none" points="410.395,119.063 410.395,127.807 416.854,123.435 	"/>
	<polygon fill="none" points="410.395,92.09 410.395,100.833 416.854,96.462 	"/>
	<polygon fill="none" points="410.395,105.576 410.395,114.32 416.854,109.949 	"/>
	<polygon fill="none" points="410.395,65.117 410.395,73.861 416.854,69.488 	"/>
	<polygon fill="none" points="410.395,78.603 410.395,87.348 416.854,82.976 	"/>
	<path fill="#D8B00B" d="M410.395,305.969v0.002l8.556-5.793l8.02,5.43v4.095h2.353V42.303h-2.353v6.854l-8.02,5.428l-8.443-5.715
		l-0.108,0.164v-8.531h-2.351v269.199h2.351v-3.731h-0.004V305.969z M411.086,292.016l7.863-5.324l7.865,5.324l-7.865,5.326
		L411.086,292.016z M426.815,89.719l-7.865,5.326l-7.863-5.326l7.863-5.324L426.815,89.719z M411.086,76.232l7.863-5.325
		l7.865,5.325l-7.865,5.323L411.086,76.232z M426.815,103.207l-7.865,5.323l-7.863-5.323l7.863-5.326L426.815,103.207z
		 M426.815,116.69l-7.865,5.324l-7.863-5.324l7.863-5.324L426.815,116.69z M426.815,130.179l-7.865,5.323l-7.863-5.323l7.863-5.325
		L426.815,130.179z M426.815,143.664l-7.865,5.324l-7.863-5.324l7.863-5.324L426.815,143.664z M426.815,157.15l-7.865,5.326
		l-7.863-5.326l7.863-5.325L426.815,157.15z M426.815,170.639l-7.865,5.324l-7.863-5.324l7.863-5.326L426.815,170.639z
		 M426.815,184.125l-7.865,5.324l-7.863-5.324l7.863-5.324L426.815,184.125z M426.815,197.611l-7.865,5.322l-7.863-5.322
		l7.863-5.324L426.815,197.611z M426.815,211.098l-7.865,5.324l-7.863-5.324l7.863-5.324L426.815,211.098z M426.815,224.584
		l-7.865,5.324l-7.863-5.324l7.863-5.324L426.815,224.584z M426.815,238.07l-7.865,5.326l-7.863-5.326l7.863-5.324L426.815,238.07z
		 M426.815,251.555l-7.865,5.326l-7.863-5.326l7.863-5.322L426.815,251.555z M426.815,265.043l-7.865,5.324l-7.863-5.324
		l7.863-5.322L426.815,265.043z M426.815,278.529l-7.865,5.326l-7.863-5.326l7.863-5.324L426.815,278.529z M426.969,302.77
		l-5.926-4.01l5.926-4.012V302.77z M426.969,289.283l-5.926-4.01l5.926-4.01V289.283z M426.969,275.797l-5.926-4.01l5.926-4.012
		V275.797z M426.969,262.311l-5.926-4.01l5.926-4.012V262.311z M426.969,248.824l-5.926-4.01l5.926-4.013V248.824z M426.969,235.338
		l-5.926-4.01l5.926-4.01V235.338z M426.969,221.852l-5.926-4.01l5.926-4.014V221.852z M426.969,208.365l-5.926-4.01l5.926-4.01
		V208.365z M426.969,194.877l-5.926-4.01l5.926-4.01V194.877z M426.969,181.393l-5.926-4.014l5.926-4.01V181.393z M426.969,167.906
		l-5.926-4.012l5.926-4.013V167.906z M426.969,154.417l-5.926-4.008l5.926-4.012V154.417z M426.969,140.932l-5.926-4.01l5.926-4.01
		V140.932z M426.969,127.445l-5.926-4.01l5.926-4.012V127.445z M426.969,113.958l-5.926-4.01l5.926-4.012V113.958z M426.969,100.473
		l-5.926-4.01l5.926-4.012V100.473z M426.969,86.986l-5.926-4.01l5.926-4.012V86.986z M426.969,73.5l-5.926-4.012l5.926-4.01V73.5z
		 M426.969,51.99v8.023l-5.926-4.01L426.969,51.99z M426.815,62.746l-7.865,5.324l-7.863-5.324l7.863-5.326L426.815,62.746z
		 M410.395,51.628l6.459,4.375l-6.459,4.371V51.628z M410.395,65.117l6.459,4.371l-6.459,4.373V65.117z M410.395,78.603l6.459,4.373
		l-6.459,4.371V78.603z M410.395,92.09l6.459,4.373l-6.459,4.371V92.09z M410.395,105.576l6.459,4.373l-6.459,4.371V105.576z
		 M410.395,119.063l6.459,4.371l-6.459,4.371V119.063z M410.395,132.549l6.459,4.373l-6.459,4.373V132.549z M410.395,146.035
		l6.459,4.375l-6.459,4.371V146.035z M410.395,159.521l6.459,4.373l-6.459,4.373V159.521z M410.395,173.01l6.459,4.371l-6.459,4.373
		V173.01z M410.395,186.496l6.459,4.371l-6.459,4.373V186.496z M410.395,199.982l6.459,4.373l-6.459,4.371V199.982z
		 M410.395,213.469l6.459,4.373l-6.459,4.369V213.469z M410.395,226.955l6.459,4.373l-6.459,4.371V226.955z M410.395,240.441
		l6.459,4.373l-6.459,4.371V240.441z M410.395,253.93l6.459,4.371l-6.459,4.371V253.93z M410.395,267.416l6.459,4.371l-6.459,4.371
		V267.416z M410.395,280.9l6.459,4.373l-6.459,4.373V280.9z M410.395,294.389l6.459,4.371l-6.459,4.373V294.389z"/>
</g>
<g>
	<g>
		<path fill="#FF6E3B" d="M5.763,176.062L0,207.463c7.073,11.768,22.95,22.752,43.568,29.854l13.525-73.692
			C35.295,162.943,16.554,167.572,5.763,176.062z"/>
		<path fill="#FF6E3B" d="M79.033,166c-3.705-0.68-7.373-1.213-10.983-1.605l-13.965,76.092c3.514,0.916,7.132,1.722,10.837,2.402
			c3.705,0.68,7.373,1.211,10.982,1.604L89.869,168.4C86.355,167.484,82.737,166.68,79.033,166z"/>
		<path fill="#FF6E3B" d="M100.386,171.568l-13.524,73.692c21.796,0.683,40.539-3.946,51.33-12.438l5.762-31.398
			C136.88,189.654,121.005,178.674,100.386,171.568z"/>
		<path fill="#39A6FF" d="M57.093,163.623l-13.525,73.693c3.383,1.166,6.896,2.227,10.517,3.17l13.965-76.092
			C64.33,163.99,60.67,163.736,57.093,163.623z"/>
		<path fill="#39A6FF" d="M89.869,168.398l-13.965,76.094c3.721,0.404,7.38,0.658,10.958,0.771l13.524-73.693
			C97.002,170.404,93.491,169.344,89.869,168.398z"/>
	</g>
	<rect y="244.492" fill="#414649" width="159.833" height="5.375"/>
	<rect x="15.813" y="217.826" fill="#414649" width="16.902" height="26.666"/>
	<path fill="#BC8600" d="M155.959,210.43v-17.604c0-1.556,1.262-2.816,2.818-2.816h46.287l-1.114-3.137
		c0-2.125-1.722-3.847-3.847-3.847H150.3c-2.125,0-3.847,1.722-3.847,3.847v59.147c0,2.125,1.722,3.851,3.847,3.851h61.553
		c2.125,0,3.847-1.726,3.847-3.851v-26.082l-2.377-6.688h-54.545C157.221,213.248,155.959,211.984,155.959,210.43z"/>
	<path fill="#8FBBD1" d="M158.777,190.006c-1.556,0-2.818,1.264-2.818,2.818v17.605c0,1.555,1.262,2.815,2.818,2.815h54.545
		l-8.258-23.242h-46.287V190.006z"/>
	<g>
		<circle fill="#414649" cx="192.405" cy="249.868" r="16.571"/>
		<circle fill="#D6D6D6" cx="192.405" cy="249.703" r="9.781"/>
	</g>
	<g>
		<circle fill="#414649" cx="24.264" cy="249.868" r="16.571"/>
		<circle fill="#D6D6D6" cx="24.263" cy="249.702" r="9.78"/>
	</g>
</g>
<g>
	<rect x="585.881" y="184.184" fill="#444C51" width="3.516" height="11.728"/>
	<g>
		<path fill="#A6B6BC" d="M595.442,148.617c0-1.334-1.082-2.416-2.416-2.416c-1.336,0-2.418,1.082-2.418,2.416"/>
		<path fill="#A6B6BC" d="M590.608,159.191c0,1.334,1.084,2.416,2.418,2.416s2.416-1.082,2.416-2.416"/>
		<path fill="#A6B6BC" d="M585.614,168.584c0,1.334,1.082,2.416,2.416,2.416s2.416-1.082,2.416-2.416"/>
		<path fill="#A6B6BC" d="M590.446,160.984c0-1.336-1.082-2.418-2.416-2.418c-1.336,0-2.416,1.082-2.416,2.418"/>
		<path fill="#A6B6BC" d="M590.635,156.895c0,0.965-0.783,1.748-1.75,1.748h3.119v-1.748H590.635z"/>
		<path fill="#A6B6BC" d="M590.44,163.359c0-0.965,0.782-1.748,1.75-1.748h-3.119v1.748H590.44z"/>
		<rect x="591.958" y="155.73" fill="#A6B6BC" width="3.484" height="2.039"/>
		<rect x="590.608" y="148.617" fill="#A6B6BC" width="4.834" height="10.574"/>
		<rect x="585.614" y="160.984" fill="#A6B6BC" width="4.832" height="7.6"/>
		<rect x="587.975" y="158.566" fill="#A6B6BC" width="5.052" height="3.041"/>
		<circle fill="#A6B6BC" cx="588.057" cy="174.625" r="2.443"/>
		<circle fill="#A6B6BC" cx="588.03" cy="179.474" r="1.368"/>
	</g>
	<rect x="539.1" y="195.91" fill="#436AA8" width="5.062" height="66.246"/>
	<rect x="459.075" y="195.91" fill="#436AA8" width="5.059" height="66.246"/>
	<rect x="574.668" y="195.91" fill="#436AA8" width="5.059" height="66.246"/>
	<rect x="583.561" y="195.91" fill="#436AA8" width="5.06" height="66.246"/>
	<rect x="452.422" y="195.91" fill="#436AA8" width="2.818" height="66.246"/>
	<rect x="547.993" y="195.91" fill="#436AA8" width="5.059" height="66.246"/>
	<rect x="467.965" y="195.91" fill="#436AA8" width="5.062" height="66.246"/>
	<rect x="592.452" y="195.91" fill="#436AA8" width="5.061" height="66.246"/>
	<rect x="476.858" y="195.91" fill="#436AA8" width="5.059" height="66.246"/>
	<rect x="565.776" y="195.91" fill="#436AA8" width="5.061" height="66.246"/>
	<rect x="556.885" y="195.91" fill="#436AA8" width="5.06" height="66.246"/>
	<rect x="610.237" y="195.91" fill="#436AA8" width="5.059" height="66.246"/>
	<rect x="512.424" y="195.91" fill="#436AA8" width="5.062" height="66.246"/>
	<rect x="521.317" y="195.91" fill="#436AA8" width="5.059" height="66.246"/>
	<rect x="619.127" y="195.91" fill="#436AA8" width="5.061" height="66.246"/>
	<rect x="628.02" y="195.91" fill="#436AA8" width="3.191" height="66.246"/>
	<rect x="503.534" y="195.91" fill="#436AA8" width="5.059" height="66.246"/>
	<rect x="530.209" y="195.91" fill="#436AA8" width="5.059" height="66.246"/>
	<rect x="485.75" y="195.91" fill="#436AA8" width="5.059" height="66.246"/>
	<rect x="494.641" y="195.91" fill="#436AA8" width="5.06" height="66.246"/>
	<rect x="601.344" y="195.91" fill="#436AA8" width="5.06" height="66.246"/>
	<rect x="455.241" y="195.91" fill="#314E7A" width="3.834" height="66.246"/>
	<rect x="464.133" y="195.91" fill="#314E7A" width="3.832" height="66.246"/>
	<rect x="473.026" y="195.91" fill="#314E7A" width="3.832" height="66.246"/>
	<rect x="481.917" y="195.91" fill="#314E7A" width="3.834" height="66.246"/>
	<rect x="490.809" y="195.91" fill="#314E7A" width="3.832" height="66.246"/>
	<rect x="499.7" y="195.91" fill="#314E7A" width="3.834" height="66.246"/>
	<rect x="508.592" y="195.91" fill="#314E7A" width="3.832" height="66.246"/>
	<rect x="517.485" y="195.91" fill="#314E7A" width="3.832" height="66.246"/>
	<rect x="526.375" y="195.91" fill="#314E7A" width="3.834" height="66.246"/>
	<rect x="535.268" y="195.91" fill="#314E7A" width="3.832" height="66.246"/>
	<rect x="544.161" y="195.91" fill="#314E7A" width="3.832" height="66.246"/>
	<rect x="553.051" y="195.91" fill="#314E7A" width="3.834" height="66.246"/>
	<rect x="561.944" y="195.91" fill="#314E7A" width="3.832" height="66.246"/>
	<rect x="570.834" y="195.91" fill="#314E7A" width="3.834" height="66.246"/>
	<rect x="579.727" y="195.91" fill="#314E7A" width="3.834" height="66.246"/>
	<rect x="588.62" y="195.91" fill="#314E7A" width="3.832" height="66.246"/>
	<rect x="597.51" y="195.91" fill="#314E7A" width="3.834" height="66.246"/>
	<rect x="606.403" y="195.91" fill="#314E7A" width="3.834" height="66.246"/>
	<rect x="615.295" y="195.91" fill="#314E7A" width="3.832" height="66.246"/>
	<rect x="624.188" y="195.91" fill="#314E7A" width="3.832" height="66.246"/>
	<g>
		<g>
			<rect x="481.854" y="219.461" fill="#EAEAEA" width="18.677" height="13.164"/>
			<rect x="483.129" y="220.656" fill="#AEE0ED" width="16.104" height="10.771"/>
		</g>
		<g>
			<rect x="529.762" y="219.461" fill="#EAEAEA" width="18.679" height="13.164"/>
			<rect x="531.04" y="220.656" fill="#AEE0ED" width="16.102" height="10.771"/>
		</g>
		<g>
			<rect x="577.672" y="219.461" fill="#EAEAEA" width="18.676" height="13.164"/>
			<rect x="578.948" y="220.656" fill="#AEE0ED" width="16.104" height="10.771"/>
		</g>
	</g>
</g>
</svg>
