<?xml version="1.0" encoding="utf-8"?>
<!-- Generator: Adobe Illustrator 16.0.0, SVG Export Plug-In . SVG Version: 6.00 Build 0)  -->
<!DOCTYPE svg PUBLIC "-//W3C//DTD SVG 1.1//EN" "http://www.w3.org/Graphics/SVG/1.1/DTD/svg11.dtd">
<svg version="1.1" id="Layer_1" xmlns="http://www.w3.org/2000/svg" xmlns:xlink="http://www.w3.org/1999/xlink" x="0px" y="0px"
	 width="631.212px" height="310.293px" viewBox="0 5.414 631.212 310.293" enable-background="new 0 5.414 631.212 310.293"
	 xml:space="preserve">
<g>
	<rect x="257.896" y="45.668" fill="#D8B00B" width="0.626" height="34.711"/>
	<rect x="274.86" y="45.668" fill="#D8B00B" width="0.627" height="34.711"/>
	<rect x="257.896" y="45.668" fill="#D8B00B" width="220.345" height="2.348"/>
	
		<rect x="417.719" y="38.119" transform="matrix(-0.5607 -0.828 0.828 -0.5607 613.0601 423.5968)" fill="#D8B00B" width="2.349" height="22.117"/>
	
		<rect x="417.831" y="38.119" transform="matrix(0.5607 -0.828 0.828 0.5607 143.3379 368.5386)" fill="#D8B00B" width="2.349" height="22.117"/>
	
		<rect x="406.075" y="26.119" transform="matrix(0.8279 -0.5608 0.5608 0.8279 49.2225 234.7911)" fill="#4C7C84" width="2.351" height="22.117"/>
	
		<rect x="406.075" y="26.23" transform="matrix(0.8283 0.5603 -0.5603 0.8283 90.8061 -221.7606)" fill="#4C7C84" width="2.35" height="22.117"/>
	
		<rect x="456.282" y="26.119" transform="matrix(0.8278 -0.561 0.561 0.8278 57.9138 263.0411)" fill="#D8B00B" width="2.35" height="22.117"/>
	
		<rect x="441.938" y="26.119" transform="matrix(0.8278 -0.561 0.561 0.8278 55.4439 254.994)" fill="#D8B00B" width="2.35" height="22.117"/>
	
		<rect x="456.282" y="26.23" transform="matrix(0.8282 0.5604 -0.5604 0.8282 99.4923 -249.9722)" fill="#D8B00B" width="2.349" height="22.117"/>
	
		<rect x="443.127" y="26.23" transform="matrix(0.8283 0.5603 -0.5603 0.8283 97.1671 -242.5191)" fill="#D8B00B" width="2.35" height="22.116"/>
	
		<rect x="470.626" y="26.119" transform="matrix(0.8278 -0.561 0.561 0.8278 60.3838 271.0884)" fill="#D8B00B" width="2.35" height="22.117"/>
	
		<rect x="470.626" y="26.23" transform="matrix(0.8282 0.5604 -0.5604 0.8282 101.9567 -258.0114)" fill="#D8B00B" width="2.349" height="22.117"/>
	<rect x="399.243" y="5.414" fill="#D8B00B" width="37.854" height="42.66"/>
	<rect x="477.871" y="40.871" fill="#D8B00B" width="42.659" height="7.154"/>
	<rect x="477.871" y="33.713" fill="#2A2F3F" width="42.659" height="7.152"/>
	<rect x="477.871" y="26.553" fill="#D8B00B" width="42.659" height="7.15"/>
	<rect x="477.871" y="19.393" fill="#2A2F3F" width="42.659" height="7.15"/>
	<path fill="#D8B00B" d="M479.563,29.094v-2.35H271.27v0.1l-0.155-0.1l-13.219,18.87l1.979,1.294l3.038-4.334
		c0.723,2.627,3.127,4.562,5.98,4.562c1.384,0,2.658-0.46,3.692-1.229l1.767,1.197l4.552-6.725l4.476,6.613l1.946-1.318
		l-5.002-7.389l5.753-8.5l5.041,7.445l-5.792,8.555l1.946,1.318l5.263-7.777l5.189,7.666l1.945-1.318l-5.715-8.443l5.51-8.139h0.485
		l5.513,8.139l-5.793,8.555l1.946,1.318l5.264-7.777l5.189,7.666l1.945-1.318l-5.716-8.443l5.51-8.139h0.486l5.511,8.139
		l-5.791,8.555l1.945,1.318l5.264-7.777l5.189,7.666l1.945-1.318l-5.716-8.443l5.511-8.139h0.485l5.511,8.139l-5.791,8.555
		l1.945,1.318l5.266-7.777l5.188,7.666l1.946-1.318l-5.716-8.443l5.511-8.139h0.485l5.51,8.139l-5.79,8.555l1.945,1.318l5.265-7.777
		l5.188,7.666l1.947-1.318l-5.717-8.443l5.509-8.139h0.487l5.511,8.139l-5.79,8.555l1.945,1.318l5.263-7.777l5.188,7.666
		l1.946-1.318l-5.716-8.443l5.51-8.139h0.487l5.51,8.139l-5.791,8.555l1.947,1.318l5.262-7.777l5.189,7.666l1.945-1.318
		l-5.716-8.443l5.51-8.139h0.486l5.511,8.139l-5.791,8.555l1.945,1.318l5.265-7.777l5.188,7.666l1.946-1.318l-5.715-8.443
		l5.51-8.139H479.563z M268.894,45.135c-2.32,0-4.207-1.887-4.207-4.207c0-0.383,0.056-0.752,0.152-1.105l1.63-2.326
		c0.686-0.484,1.522-0.773,2.424-0.773c2.319,0,4.206,1.887,4.206,4.205C273.1,43.248,271.213,45.135,268.894,45.135z
		 M275.014,41.938c0.054-0.33,0.089-0.666,0.089-1.01c0-3.423-2.786-6.209-6.209-6.209c-0.168,0-0.331,0.012-0.497,0.025
		l3.403-4.857l5.685,8.4L275.014,41.938z M274.101,29.094h9.608l-4.804,7.096L274.101,29.094z M292.535,35.137l-4.09-6.043h8.182
		L292.535,35.137z M306.879,35.137l-4.09-6.043h8.182L306.879,35.137z M321.223,35.137l-4.092-6.043h8.185L321.223,35.137z
		 M335.569,35.137l-4.093-6.043h8.183L335.569,35.137z M349.913,35.137l-4.093-6.043h8.184L349.913,35.137z M364.255,35.137
		l-4.091-6.043h8.183L364.255,35.137z M378.599,35.137l-4.091-6.043h8.183L378.599,35.137z M392.944,35.137l-4.091-6.043h8.183
		L392.944,35.137z"/>
	<rect x="415.549" y="21.672" fill="#2A2F3F" width="5.241" height="11.355"/>
	<circle fill="#D8B00B" cx="260.782" cy="79.963" r="3.305"/>
	<circle fill="#D8B00B" cx="272.632" cy="79.963" r="3.306"/>
	<path fill="#D8B00B" d="M270.751,111.01c-0.314-0.797-0.855-1.498-1.572-1.998c-0.216-0.152-0.45-0.285-0.698-0.398
		c-0.435-0.369-0.707-0.9-0.754-1.473h3.112v-2.297v-0.678h-3.318h-0.434V84.324h-0.627v19.842h-3.124v2.975h2.727h0.151
		c-0.004,0.371,0.041,0.736,0.14,1.088c0.229,0.816,0.721,1.543,1.408,2.061c0.067,0.051,0.135,0.102,0.204,0.148
		c0.758,0.607,1.114,1.63,0.824,2.619c-0.385,1.305-1.755,2.051-3.062,1.666c-1.305-0.385-2.051-1.756-1.667-3.059
		c0.006-0.021,0.014-0.039,0.02-0.057c0.039-0.064,0.072-0.131,0.095-0.207c0.006-0.021,0.007-0.045,0.012-0.07
		c0.094-0.442-0.165-0.891-0.606-1.02c-0.269-0.08-0.542-0.021-0.754,0.129c-0.147,0.26-0.268,0.537-0.362,0.832
		c-0.011,0.033-0.024,0.064-0.035,0.101c-0.688,2.333,0.645,4.78,2.977,5.468c2.333,0.689,4.782-0.646,5.469-2.977
		C271.167,112.885,271.097,111.889,270.751,111.01z"/>
	<path fill="#F7F4CD" d="M318.031,66.088v71.349h-73.96v177.972h147.924V66.088H318.031z M272.004,286.957h-5.242v-11.57h5.242
		V286.957z M272.004,249.41h-5.242v-11.57h5.242V249.41z M272.004,211.863h-5.242v-11.572h5.242V211.863z M272.004,174.316h-5.242
		v-11.57h5.242V174.316z M304.703,286.957h-5.242v-11.57h5.242V286.957z M304.703,249.41h-5.242v-11.57h5.242V249.41z
		 M304.703,211.863h-5.242v-11.572h5.242V211.863z M304.703,174.316h-5.242v-11.57h5.242V174.316z M337.399,286.957h-5.242v-11.57
		h5.242V286.957z M337.399,249.41h-5.242v-11.57h5.242V249.41z M337.399,211.863h-5.242v-11.572h5.242V211.863z M337.399,174.316
		h-5.242v-11.57h5.242V174.316z M337.399,136.769h-5.242v-11.569h5.242V136.769z M337.399,99.221h-5.242V87.652h5.242V99.221z
		 M370.096,286.957h-5.242v-11.57h5.242V286.957z M370.096,249.41h-5.242v-11.57h5.242V249.41z M370.096,211.863h-5.242v-11.572
		h5.242V211.863z M370.096,174.316h-5.242v-11.57h5.242V174.316z M370.096,136.769h-5.242v-11.569h5.242V136.769z M370.096,99.221
		h-5.242V87.652h5.242V99.221z"/>
	<g>
		<polygon fill="#2A2F3F" points="275.938,79.963 269.785,79.963 275.938,87.783 		"/>
		<polygon fill="#FFC306" points="262.407,79.963 271.178,91.111 275.938,87.898 275.938,87.834 269.747,79.963 		"/>
		<polygon fill="#261D19" points="269.785,79.963 269.747,79.963 275.938,87.834 275.938,87.783 		"/>
		<polygon fill="#2A2F3F" points="257.478,79.963 257.478,83.072 265.575,93.365 266.707,94.133 271.152,91.127 262.368,79.963 		
			"/>
		<polygon fill="#261D19" points="262.368,79.963 271.152,91.127 271.178,91.111 262.407,79.963 		"/>
		<polygon fill="#FFC306" points="257.478,87.898 265.488,93.311 257.478,83.124 		"/>
		<polygon fill="#261D19" points="257.478,83.124 265.488,93.311 265.575,93.365 257.478,83.072 		"/>
	</g>
	<polygon fill="none" points="426.969,146.645 426.969,138.625 421.044,142.635 	"/>
	<polygon fill="none" points="426.969,160.131 426.969,152.111 421.044,156.123 	"/>
	<polygon fill="none" points="418.95,76.621 411.086,81.946 418.95,87.27 426.815,81.946 	"/>
	<polygon fill="none" points="418.95,114.243 426.815,108.92 418.95,103.594 411.086,108.92 	"/>
	<polygon fill="none" points="418.95,100.758 426.815,95.432 418.95,90.107 411.086,95.432 	"/>
	<polygon fill="none" points="418.95,141.215 426.815,135.892 418.95,130.566 411.086,135.892 	"/>
	<polygon fill="none" points="418.95,127.729 426.815,122.404 418.95,117.08 411.086,122.404 	"/>
	<polygon fill="none" points="418.95,168.189 426.815,162.863 418.95,157.539 411.086,162.863 	"/>
	<polygon fill="none" points="418.95,154.701 426.815,149.377 418.95,144.053 411.086,149.377 	"/>
	<polygon fill="none" points="410.395,151.748 410.395,160.494 416.853,156.123 	"/>
	<polygon fill="none" points="426.969,57.703 421.044,61.717 426.969,65.727 	"/>
	<polygon fill="none" points="426.969,79.213 426.969,71.191 421.044,75.201 	"/>
	<polygon fill="none" points="426.969,92.699 426.969,84.678 421.044,88.689 	"/>
	<polygon fill="none" points="426.969,133.158 426.969,125.137 421.044,129.148 	"/>
	<polygon fill="none" points="418.95,73.783 426.815,68.459 418.95,63.133 411.086,68.459 	"/>
	<polygon fill="none" points="410.395,138.262 410.395,147.008 416.853,142.635 	"/>
	<polygon fill="none" points="426.969,106.186 426.969,98.164 421.044,102.176 	"/>
	<polygon fill="none" points="426.969,119.672 426.969,111.65 421.044,115.662 	"/>
	<polygon fill="none" points="410.395,57.342 410.395,66.088 416.853,61.717 	"/>
	<polygon fill="none" points="410.395,124.777 410.395,133.52 416.853,129.148 	"/>
	<polygon fill="none" points="410.395,97.803 410.395,106.547 416.853,102.176 	"/>
	<polygon fill="none" points="410.395,111.289 410.395,120.033 416.853,115.662 	"/>
	<polygon fill="none" points="410.395,70.83 410.395,79.574 416.853,75.201 	"/>
	<polygon fill="none" points="410.395,84.316 410.395,93.061 416.853,88.689 	"/>
	<path fill="#D8B00B" d="M410.395,311.682v0.002l8.555-5.793l8.02,5.43v4.094h2.351V48.016h-2.351v6.854l-8.02,5.428l-8.443-5.715
		l-0.111,0.164v-8.531h-2.348v269.199h2.348V311.682z M411.086,297.729l7.863-5.324l7.865,5.324l-7.865,5.326L411.086,297.729z
		 M426.815,95.432l-7.865,5.326l-7.863-5.326l7.863-5.324L426.815,95.432z M411.086,81.946l7.863-5.325l7.865,5.325l-7.865,5.323
		L411.086,81.946z M426.815,108.92l-7.865,5.323l-7.863-5.323l7.863-5.326L426.815,108.92z M426.815,122.404l-7.865,5.324
		l-7.863-5.324l7.863-5.324L426.815,122.404z M426.815,135.892l-7.865,5.323l-7.863-5.323l7.863-5.325L426.815,135.892z
		 M426.815,149.377l-7.865,5.324l-7.863-5.324l7.863-5.324L426.815,149.377z M426.815,162.863l-7.865,5.326l-7.863-5.326
		l7.863-5.324L426.815,162.863z M426.815,176.352l-7.865,5.324l-7.863-5.324l7.863-5.326L426.815,176.352z M426.815,189.838
		l-7.865,5.324l-7.863-5.324l7.863-5.324L426.815,189.838z M426.815,203.324l-7.865,5.322l-7.863-5.322L418.95,198L426.815,203.324z
		 M426.815,216.811l-7.865,5.324l-7.863-5.324l7.863-5.324L426.815,216.811z M426.815,230.297l-7.865,5.324l-7.863-5.324
		l7.863-5.324L426.815,230.297z M426.815,243.783l-7.865,5.326l-7.863-5.326l7.863-5.324L426.815,243.783z M426.815,257.268
		l-7.865,5.326l-7.863-5.326l7.863-5.322L426.815,257.268z M426.815,270.756l-7.865,5.324l-7.863-5.324l7.863-5.323L426.815,270.756
		z M426.815,284.242l-7.865,5.326l-7.863-5.326l7.863-5.324L426.815,284.242z M426.969,308.482l-5.925-4.01l5.925-4.01V308.482z
		 M426.969,294.996l-5.925-4.01l5.925-4.01V294.996z M426.969,281.51l-5.925-4.01l5.925-4.012V281.51z M426.969,268.023l-5.925-4.01
		l5.925-4.01V268.023z M426.969,254.537l-5.925-4.01l5.925-4.012V254.537z M426.969,241.051l-5.925-4.01l5.925-4.01V241.051z
		 M426.969,227.564l-5.925-4.01l5.925-4.012V227.564z M426.969,214.078l-5.925-4.01l5.925-4.01V214.078z M426.969,200.59
		l-5.925-4.01l5.925-4.01V200.59z M426.969,187.105l-5.925-4.012l5.925-4.01V187.105z M426.969,173.619l-5.925-4.012l5.925-4.012
		V173.619z M426.969,160.131l-5.925-4.008l5.925-4.012V160.131z M426.969,146.645l-5.925-4.01l5.925-4.01V146.645z M426.969,133.158
		l-5.925-4.01l5.925-4.012V133.158z M426.969,119.672l-5.925-4.01l5.925-4.012V119.672z M426.969,106.186l-5.925-4.01l5.925-4.012
		V106.186z M426.969,92.699l-5.925-4.01l5.925-4.012V92.699z M426.969,79.213l-5.925-4.012l5.925-4.01V79.213z M426.969,57.703
		v8.023l-5.925-4.01L426.969,57.703z M426.815,68.459l-7.865,5.324l-7.863-5.324l7.863-5.326L426.815,68.459z M410.395,57.342
		l6.458,4.375l-6.458,4.371V57.342z M410.395,70.83l6.458,4.371l-6.458,4.373V70.83z M410.395,84.316l6.458,4.373l-6.458,4.371
		V84.316z M410.395,97.803l6.458,4.373l-6.458,4.371V97.803z M410.395,111.289l6.458,4.373l-6.458,4.371V111.289z M410.395,124.777
		l6.458,4.371l-6.458,4.371V124.777z M410.395,138.262l6.458,4.373l-6.458,4.373V138.262z M410.395,151.748l6.458,4.375
		l-6.458,4.371V151.748z M410.395,165.234l6.458,4.373l-6.458,4.373V165.234z M410.395,178.723l6.458,4.371l-6.458,4.373V178.723z
		 M410.395,192.209l6.458,4.371l-6.458,4.373V192.209z M410.395,205.695l6.458,4.373l-6.458,4.371V205.695z M410.395,219.182
		l6.458,4.373l-6.458,4.37V219.182z M410.395,232.668l6.458,4.373l-6.458,4.371V232.668z M410.395,246.154l6.458,4.373l-6.458,4.371
		V246.154z M410.395,259.643l6.458,4.371l-6.458,4.371V259.643z M410.395,273.129l6.458,4.371l-6.458,4.371V273.129z
		 M410.395,286.613l6.458,4.373l-6.458,4.373V286.613z M410.395,300.102l6.458,4.371l-6.458,4.373V300.102z"/>
</g>
<g>
	<g>
		<path fill="#FF6E3B" d="M5.763,181.776L0,213.176c7.073,11.768,22.95,22.752,43.568,29.854l13.525-73.693
			C35.295,168.656,16.554,173.286,5.763,181.776z"/>
		<path fill="#FF6E3B" d="M79.033,171.713c-3.705-0.68-7.373-1.212-10.983-1.605l-13.965,76.092
			c3.514,0.915,7.132,1.721,10.837,2.402c3.705,0.68,7.373,1.211,10.982,1.604l13.965-76.093
			C86.355,173.197,82.737,172.393,79.033,171.713z"/>
		<path fill="#FF6E3B" d="M100.386,177.282l-13.524,73.693c21.796,0.682,40.539-3.948,51.33-12.438l5.762-31.399
			C136.88,195.368,121.005,184.387,100.386,177.282z"/>
		<path fill="#39A6FF" d="M57.093,169.336l-13.525,73.693c3.383,1.166,6.896,2.227,10.517,3.17l13.965-76.092
			C64.33,169.703,60.67,169.45,57.093,169.336z"/>
		<path fill="#39A6FF" d="M89.869,174.112l-13.965,76.093c3.721,0.404,7.38,0.658,10.958,0.771l13.524-73.693
			C97.002,176.117,93.491,175.056,89.869,174.112z"/>
	</g>
	<rect y="250.205" fill="#414649" width="159.833" height="5.376"/>
	<rect x="15.813" y="223.539" fill="#414649" width="16.902" height="26.666"/>
	<path fill="#BC8600" d="M155.959,216.143v-17.605c0-1.556,1.262-2.818,2.818-2.818h46.287l-1.114-3.135
		c0-2.125-1.722-3.846-3.847-3.846h-49.803c-2.125,0-3.847,1.721-3.847,3.846v59.148c0,2.125,1.722,3.849,3.847,3.849h61.553
		c2.125,0,3.847-1.724,3.847-3.849V225.65l-2.377-6.689h-54.545C157.221,218.961,155.959,217.698,155.959,216.143z"/>
	<path fill="#8FBBD1" d="M158.777,195.719c-1.556,0-2.818,1.263-2.818,2.818v17.605c0,1.556,1.262,2.818,2.818,2.818h54.545
		l-8.258-23.242H158.777z"/>
	<g>
		<circle fill="#414649" cx="192.405" cy="255.581" r="16.571"/>
		<circle fill="#D6D6D6" cx="192.405" cy="255.416" r="9.781"/>
	</g>
	<g>
		<circle fill="#414649" cx="24.264" cy="255.581" r="16.571"/>
		<circle fill="#D6D6D6" cx="24.263" cy="255.416" r="9.78"/>
	</g>
</g>
<g>
	<rect x="585.882" y="189.896" fill="#444C51" width="3.515" height="11.727"/>
	<g>
		<path fill="#A6B6BC" d="M595.442,154.33c0-1.334-1.082-2.416-2.417-2.416s-2.417,1.082-2.417,2.416"/>
		<path fill="#A6B6BC" d="M590.608,164.904c0,1.335,1.083,2.416,2.417,2.416c1.335,0,2.417-1.081,2.417-2.416"/>
		<path fill="#A6B6BC" d="M585.613,174.297c0,1.334,1.082,2.416,2.416,2.416c1.335,0,2.417-1.082,2.417-2.416"/>
		<path fill="#A6B6BC" d="M590.446,166.697c0-1.335-1.082-2.417-2.417-2.417s-2.416,1.082-2.416,2.417"/>
		<path fill="#A6B6BC" d="M590.635,162.607c0,0.965-0.783,1.748-1.75,1.748h3.119v-1.748H590.635z"/>
		<path fill="#A6B6BC" d="M590.44,169.073c0-0.966,0.783-1.749,1.75-1.749h-3.119v1.749H590.44z"/>
		<rect x="591.958" y="161.444" fill="#A6B6BC" width="3.484" height="2.038"/>
		<rect x="590.608" y="154.33" fill="#A6B6BC" width="4.834" height="10.574"/>
		<rect x="585.613" y="166.697" fill="#A6B6BC" width="4.833" height="7.6"/>
		<rect x="587.975" y="164.28" fill="#A6B6BC" width="5.05" height="3.04"/>
		<circle fill="#A6B6BC" cx="588.057" cy="180.338" r="2.444"/>
		<circle fill="#A6B6BC" cx="588.029" cy="185.186" r="1.368"/>
	</g>
	<rect x="539.101" y="201.623" fill="#436AA8" width="5.059" height="66.247"/>
	<rect x="459.075" y="201.623" fill="#436AA8" width="5.059" height="66.247"/>
	<rect x="574.668" y="201.623" fill="#436AA8" width="5.059" height="66.247"/>
	<rect x="583.561" y="201.623" fill="#436AA8" width="5.059" height="66.247"/>
	<rect x="452.422" y="201.623" fill="#436AA8" width="2.818" height="66.247"/>
	<rect x="547.993" y="201.623" fill="#436AA8" width="5.059" height="66.247"/>
	<rect x="467.966" y="201.623" fill="#436AA8" width="5.06" height="66.247"/>
	<rect x="592.452" y="201.623" fill="#436AA8" width="5.06" height="66.247"/>
	<rect x="476.858" y="201.623" fill="#436AA8" width="5.059" height="66.247"/>
	<rect x="565.776" y="201.623" fill="#436AA8" width="5.06" height="66.247"/>
	<rect x="556.885" y="201.623" fill="#436AA8" width="5.059" height="66.247"/>
	<rect x="610.236" y="201.623" fill="#436AA8" width="5.06" height="66.247"/>
	<rect x="512.425" y="201.623" fill="#436AA8" width="5.059" height="66.247"/>
	<rect x="521.317" y="201.623" fill="#436AA8" width="5.059" height="66.247"/>
	<rect x="619.127" y="201.623" fill="#436AA8" width="5.06" height="66.247"/>
	<rect x="628.02" y="201.623" fill="#436AA8" width="3.192" height="66.247"/>
	<rect x="503.534" y="201.623" fill="#436AA8" width="5.059" height="66.247"/>
	<rect x="530.209" y="201.623" fill="#436AA8" width="5.059" height="66.247"/>
	<rect x="485.75" y="201.623" fill="#436AA8" width="5.06" height="66.247"/>
	<rect x="494.642" y="201.623" fill="#436AA8" width="5.058" height="66.247"/>
	<rect x="601.344" y="201.623" fill="#436AA8" width="5.059" height="66.247"/>
	<rect x="455.241" y="201.623" fill="#314E7A" width="3.834" height="66.247"/>
	<rect x="464.133" y="201.623" fill="#314E7A" width="3.833" height="66.247"/>
	<rect x="473.026" y="201.623" fill="#314E7A" width="3.832" height="66.247"/>
	<rect x="481.917" y="201.623" fill="#314E7A" width="3.833" height="66.247"/>
	<rect x="490.809" y="201.623" fill="#314E7A" width="3.833" height="66.247"/>
	<rect x="499.7" y="201.623" fill="#314E7A" width="3.834" height="66.247"/>
	<rect x="508.592" y="201.623" fill="#314E7A" width="3.833" height="66.247"/>
	<rect x="517.484" y="201.623" fill="#314E7A" width="3.833" height="66.247"/>
	<rect x="526.375" y="201.623" fill="#314E7A" width="3.834" height="66.247"/>
	<rect x="535.268" y="201.623" fill="#314E7A" width="3.833" height="66.247"/>
	<rect x="544.16" y="201.623" fill="#314E7A" width="3.833" height="66.247"/>
	<rect x="553.051" y="201.623" fill="#314E7A" width="3.834" height="66.247"/>
	<rect x="561.944" y="201.623" fill="#314E7A" width="3.832" height="66.247"/>
	<rect x="570.835" y="201.623" fill="#314E7A" width="3.833" height="66.247"/>
	<rect x="579.727" y="201.623" fill="#314E7A" width="3.834" height="66.247"/>
	<rect x="588.62" y="201.623" fill="#314E7A" width="3.832" height="66.247"/>
	<rect x="597.511" y="201.623" fill="#314E7A" width="3.833" height="66.247"/>
	<rect x="606.403" y="201.623" fill="#314E7A" width="3.833" height="66.247"/>
	<rect x="615.295" y="201.623" fill="#314E7A" width="3.832" height="66.247"/>
	<rect x="624.187" y="201.623" fill="#314E7A" width="3.833" height="66.247"/>
	<g>
		<g>
			<rect x="481.854" y="225.174" fill="#EAEAEA" width="18.676" height="13.164"/>
			<rect x="483.129" y="226.37" fill="#AEE0ED" width="16.104" height="10.771"/>
		</g>
		<g>
			<rect x="529.763" y="225.174" fill="#EAEAEA" width="18.677" height="13.164"/>
			<rect x="531.039" y="226.37" fill="#AEE0ED" width="16.103" height="10.771"/>
		</g>
		<g>
			<rect x="577.672" y="225.174" fill="#EAEAEA" width="18.677" height="13.164"/>
			<rect x="578.948" y="226.37" fill="#AEE0ED" width="16.104" height="10.771"/>
		</g>
	</g>
</g>
</svg>
