<?xml version="1.0" encoding="utf-8"?>
<!-- Generator: Adobe Illustrator 16.0.0, SVG Export Plug-In . SVG Version: 6.00 Build 0)  -->
<!DOCTYPE svg PUBLIC "-//W3C//DTD SVG 1.1//EN" "http://www.w3.org/Graphics/SVG/1.1/DTD/svg11.dtd">
<svg version="1.1" id="Layer_1" xmlns="http://www.w3.org/2000/svg" xmlns:xlink="http://www.w3.org/1999/xlink" x="0px" y="0px"
	 width="906.396px" height="315.486px" viewBox="0 0 906.396 315.486" enable-background="new 0 0 906.396 315.486"
	 xml:space="preserve">
<rect x="41.21" y="50.094" fill="#9DCBBB" width="822.006" height="265.022"/>
<g>
	<circle fill="#30302F" cx="654.355" cy="142.393" r="17.988"/>
	<circle fill="#FFFFFF" cx="654.248" cy="142.394" r="15.639"/>
	<circle fill="#30302F" cx="654.355" cy="142.393" r="1.387"/>
	<rect x="653.709" y="133.55" fill="#30302F" width="1.158" height="8.843"/>
	
		<rect x="652.426" y="142.338" transform="matrix(-0.963 -0.2696 0.2696 -0.963 1241.3485 467.3463)" fill="#30302F" width="0.677" height="12.196"/>
</g>
<g opacity="0.4">
	<path fill="none" stroke="#B1C6CE" stroke-width="1.641" stroke-linecap="square" stroke-miterlimit="10" d="M708.672,297.612
		c2.502,0,4.529,2.027,4.529,4.527"/>
	<g opacity="0.5">
		
			<polyline fill="none" stroke="#B1C6CE" stroke-width="1.641" stroke-linecap="round" stroke-linejoin="round" stroke-miterlimit="10" points="
			127.721,297.612 160.499,297.612 160.499,311.065 634.982,311.065 639.631,297.612 643.734,297.612 		"/>
		<g>
			<g>
				<path fill="#B1C6CE" d="M126.913,301.326c0,0.946-0.77,1.715-1.716,1.715H73.249c-0.948,0-1.716-0.769-1.716-1.715V269.59
					c0-0.947,0.768-1.717,1.716-1.717h51.948c0.946,0,1.716,0.77,1.716,1.717V301.326z"/>
				<rect x="125.139" y="295.422" fill="#B1C6CE" width="5.164" height="4.377"/>
			</g>
			<g>
				<path fill="#AABAB8" d="M73.248,304.967c0,0.593,0.479,1.072,1.072,1.072l0,0c0.593,0,1.071-0.479,1.071-1.072v-39.021
					c0-0.594-0.479-1.071-1.071-1.071l0,0c-0.593,0-1.072,0.479-1.072,1.071V304.967z"/>
				<path fill="#AABAB8" d="M77.776,304.967c0,0.593,0.479,1.072,1.072,1.072l0,0c0.593,0,1.071-0.479,1.071-1.072v-39.021
					c0-0.594-0.479-1.071-1.071-1.071l0,0c-0.594,0-1.072,0.479-1.072,1.071V304.967z"/>
				<path fill="#AABAB8" d="M82.303,304.967c0,0.593,0.479,1.072,1.071,1.072l0,0c0.593,0,1.073-0.479,1.073-1.072v-39.021
					c0-0.594-0.48-1.071-1.073-1.071l0,0c-0.592,0-1.071,0.479-1.071,1.071V304.967z"/>
				<path fill="#AABAB8" d="M86.831,304.967c0,0.593,0.479,1.072,1.072,1.072l0,0c0.592,0,1.072-0.479,1.072-1.072v-39.021
					c0-0.594-0.48-1.071-1.072-1.071l0,0c-0.594,0-1.072,0.479-1.072,1.071V304.967z"/>
				<path fill="#AABAB8" d="M91.359,304.967c0,0.593,0.479,1.072,1.071,1.072l0,0c0.593,0,1.072-0.479,1.072-1.072v-39.021
					c0-0.594-0.479-1.071-1.072-1.071l0,0c-0.592,0-1.071,0.479-1.071,1.071V304.967z"/>
				<path fill="#AABAB8" d="M95.885,304.967c0,0.593,0.48,1.072,1.072,1.072l0,0c0.593,0,1.072-0.479,1.072-1.072v-39.021
					c0-0.594-0.479-1.071-1.072-1.071l0,0c-0.592,0-1.072,0.479-1.072,1.071V304.967z"/>
				<path fill="#AABAB8" d="M100.414,304.967c0,0.593,0.479,1.072,1.073,1.072l0,0c0.592,0,1.07-0.479,1.07-1.072v-39.021
					c0-0.594-0.479-1.071-1.07-1.071l0,0c-0.594,0-1.073,0.479-1.073,1.071V304.967z"/>
				<path fill="#AABAB8" d="M104.942,304.967c0,0.593,0.479,1.072,1.072,1.072l0,0c0.593,0,1.071-0.479,1.071-1.072v-39.021
					c0-0.594-0.479-1.071-1.071-1.071l0,0c-0.594,0-1.072,0.479-1.072,1.071V304.967z"/>
				<path fill="#AABAB8" d="M109.468,304.967c0,0.593,0.479,1.072,1.072,1.072l0,0c0.593,0,1.072-0.479,1.072-1.072v-39.021
					c0-0.594-0.479-1.071-1.072-1.071l0,0c-0.593,0-1.072,0.479-1.072,1.071V304.967z"/>
				<path fill="#AABAB8" d="M113.998,304.967c0,0.593,0.479,1.072,1.072,1.072l0,0c0.592,0,1.071-0.479,1.071-1.072v-39.021
					c0-0.594-0.479-1.071-1.071-1.071l0,0c-0.593,0-1.072,0.479-1.072,1.071V304.967z"/>
				<path fill="#AABAB8" d="M118.525,304.967c0,0.593,0.479,1.072,1.071,1.072l0,0c0.593,0,1.072-0.479,1.072-1.072v-39.021
					c0-0.594-0.479-1.071-1.072-1.071l0,0c-0.593,0-1.071,0.479-1.071,1.071V304.967z"/>
				<path fill="#AABAB8" d="M123.051,304.967c0,0.593,0.48,1.072,1.072,1.072l0,0c0.592,0,1.072-0.479,1.072-1.072v-39.021
					c0-0.594-0.48-1.071-1.072-1.071l0,0c-0.592,0-1.072,0.479-1.072,1.071V304.967z"/>
			</g>
		</g>
		<path fill="#B1C6CE" d="M645.65,301.326c0,0.946,0.768,1.715,1.715,1.715h51.949c0.947,0,1.715-0.769,1.715-1.715V269.59
			c0-0.947-0.768-1.717-1.715-1.717h-51.949c-0.947,0-1.715,0.77-1.715,1.717V301.326z"/>
		<rect x="642.258" y="295.422" fill="#B1C6CE" width="5.164" height="4.377"/>
		<rect x="699.312" y="295.422" fill="#B1C6CE" width="5.166" height="4.377"/>
		<g>
			<path fill="#AABAB8" d="M699.312,304.967c0,0.593-0.479,1.072-1.07,1.072l0,0c-0.594,0-1.072-0.479-1.072-1.072v-39.021
				c0-0.594,0.479-1.071,1.072-1.071l0,0c0.592,0,1.07,0.479,1.07,1.071V304.967z"/>
			<path fill="#AABAB8" d="M694.787,304.967c0,0.593-0.48,1.072-1.072,1.072l0,0c-0.594,0-1.072-0.479-1.072-1.072v-39.021
				c0-0.594,0.479-1.071,1.072-1.071l0,0c0.592,0,1.072,0.479,1.072,1.071V304.967z"/>
			<path fill="#AABAB8" d="M690.258,304.967c0,0.593-0.479,1.072-1.072,1.072l0,0c-0.592,0-1.07-0.479-1.07-1.072v-39.021
				c0-0.594,0.479-1.071,1.07-1.071l0,0c0.594,0,1.072,0.479,1.072,1.071V304.967z"/>
			<path fill="#AABAB8" d="M685.73,304.967c0,0.593-0.479,1.072-1.072,1.072l0,0c-0.594,0-1.072-0.479-1.072-1.072v-39.021
				c0-0.594,0.479-1.071,1.072-1.071l0,0c0.594,0,1.072,0.479,1.072,1.071V304.967z"/>
			<path fill="#AABAB8" d="M681.203,304.967c0,0.593-0.479,1.072-1.072,1.072l0,0c-0.592,0-1.072-0.479-1.072-1.072v-39.021
				c0-0.594,0.48-1.071,1.072-1.071l0,0c0.594,0,1.072,0.479,1.072,1.071V304.967z"/>
			<path fill="#AABAB8" d="M676.676,304.967c0,0.593-0.479,1.072-1.074,1.072l0,0c-0.592,0-1.07-0.479-1.07-1.072v-39.021
				c0-0.594,0.479-1.071,1.07-1.071l0,0c0.596,0,1.074,0.479,1.074,1.071V304.967z"/>
			<path fill="#AABAB8" d="M672.146,304.967c0,0.593-0.479,1.072-1.07,1.072l0,0c-0.594,0-1.072-0.479-1.072-1.072v-39.021
				c0-0.594,0.479-1.071,1.072-1.071l0,0c0.592,0,1.07,0.479,1.07,1.071V304.967z"/>
			<path fill="#AABAB8" d="M667.621,304.967c0,0.593-0.48,1.072-1.072,1.072l0,0c-0.592,0-1.072-0.479-1.072-1.072v-39.021
				c0-0.594,0.48-1.071,1.072-1.071l0,0c0.592,0,1.072,0.479,1.072,1.071V304.967z"/>
			<path fill="#AABAB8" d="M663.092,304.967c0,0.593-0.479,1.072-1.072,1.072l0,0c-0.592,0-1.07-0.479-1.07-1.072v-39.021
				c0-0.594,0.479-1.071,1.07-1.071l0,0c0.594,0,1.072,0.479,1.072,1.071V304.967z"/>
			<path fill="#AABAB8" d="M658.566,304.967c0,0.593-0.48,1.072-1.074,1.072l0,0c-0.592,0-1.07-0.479-1.07-1.072v-39.021
				c0-0.594,0.479-1.071,1.07-1.071l0,0c0.594,0,1.074,0.479,1.074,1.071V304.967z"/>
			<path fill="#AABAB8" d="M654.037,304.967c0,0.593-0.479,1.072-1.07,1.072l0,0c-0.594,0-1.072-0.479-1.072-1.072v-39.021
				c0-0.594,0.479-1.071,1.072-1.071l0,0c0.592,0,1.07,0.479,1.07,1.071V304.967z"/>
			<path fill="#AABAB8" d="M649.51,304.967c0,0.593-0.48,1.072-1.072,1.072l0,0c-0.594,0-1.072-0.479-1.072-1.072v-39.021
				c0-0.594,0.479-1.071,1.072-1.071l0,0c0.592,0,1.072,0.479,1.072,1.071V304.967z"/>
		</g>
		
			<line fill="none" stroke="#B1C6CE" stroke-width="1.641" stroke-linecap="square" stroke-linejoin="round" stroke-miterlimit="10" x1="700.922" y1="297.612" x2="708.035" y2="297.612"/>
	</g>
	
		<line fill="none" stroke="#B1C6CE" stroke-width="1.641" stroke-linejoin="round" stroke-miterlimit="10" x1="713.201" y1="302.894" x2="713.201" y2="315.116"/>
</g>
<g opacity="0.7">
	<polygon fill="none" points="207.658,299.644 207.471,299.459 207.417,299.883 	"/>
	
		<rect x="199.579" y="298.212" transform="matrix(-0.7074 -0.7068 0.7068 -0.7074 131.4759 653.804)" fill="#869291" width="2.954" height="2.958"/>
	
		<rect x="197.456" y="300.352" transform="matrix(-0.7071 -0.7071 0.7071 -0.7071 126.176 655.923)" fill="#869291" width="2.955" height="2.955"/>
	<polygon fill="#869291" points="192.33,301.965 190.725,303.569 190.87,304.685 192.33,306.146 194.419,304.056 	"/>
	<polygon fill="#869291" points="191.172,289.651 189.074,289.651 190.124,290.703 	"/>
	<polygon fill="#869291" points="198.833,312.88 196.743,310.791 194.653,312.882 196.384,314.614 197.1,314.614 	"/>
	<polygon fill="#869291" points="188.945,289.754 189.186,291.638 190.006,290.817 	"/>
	
		<rect x="193.043" y="300.352" transform="matrix(-0.7073 -0.7069 0.7069 -0.7073 118.7232 652.8207)" fill="#869291" width="2.955" height="2.957"/>
	
		<rect x="195.249" y="298.146" transform="matrix(-0.7071 -0.7071 0.7071 -0.7071 123.9679 650.5972)" fill="#869291" width="2.955" height="2.955"/>
	
		<rect x="197.516" y="309.294" transform="matrix(-0.7068 0.7074 -0.7074 -0.7068 559.4906 389.6413)" fill="#869291" width="2.957" height="2.954"/>
	<polygon fill="#869291" points="192.33,306.377 191.229,307.478 191.522,309.75 192.33,310.558 194.419,308.467 	"/>
	
		<rect x="197.457" y="295.94" transform="matrix(-0.7073 -0.7069 0.7069 -0.7073 129.3778 648.4073)" fill="#869291" width="2.955" height="2.955"/>
	<polygon fill="#869291" points="201.511,314.614 203.246,312.88 201.156,310.791 199.065,312.88 200.797,314.614 201.335,314.614 	
		"/>
	
		<rect x="195.32" y="307.099" transform="matrix(-0.7076 0.7066 -0.7066 -0.7076 554.0973 387.8671)" fill="#869291" width="2.956" height="2.956"/>
	
		<rect x="193.114" y="304.892" transform="matrix(-0.7073 0.7069 -0.7069 -0.7073 548.8087 385.4943)" fill="#869291" width="2.956" height="2.958"/>
	<polygon fill="#869291" points="203.477,312.88 205.209,314.614 205.518,314.614 205.959,311.183 205.568,310.791 	"/>
	
		<rect x="201.928" y="309.295" transform="matrix(-0.7068 0.7074 -0.7074 -0.7068 567.0214 386.5208)" fill="#869291" width="2.957" height="2.955"/>
	<polygon fill="#869291" points="205.568,306.377 203.477,308.467 205.568,310.558 206.112,310.015 206.463,307.274 	"/>
	<polygon fill="#869291" points="201.744,314.614 204.977,314.614 203.361,312.997 	"/>
	
		<rect x="199.659" y="307.005" transform="matrix(-0.7071 0.7071 -0.7071 -0.7071 561.4918 384.3873)" fill="#869291" width="2.955" height="2.955"/>
	
		<rect x="197.452" y="304.798" transform="matrix(-0.7073 0.7069 -0.7069 -0.7073 556.1466 382.2654)" fill="#869291" width="2.955" height="2.957"/>
	<polygon fill="#869291" points="205.988,310.978 206.078,310.28 205.684,310.674 	"/>
	
		<rect x="201.964" y="291.452" transform="matrix(-0.7073 -0.7069 0.7069 -0.7073 140.2465 643.9322)" fill="#869291" width="2.956" height="2.955"/>
	
		<rect x="204.043" y="293.655" transform="matrix(0.7068 -0.7074 0.7074 0.7068 -148.5241 231.9334)" fill="#869291" width="2.957" height="2.955"/>
	<polygon fill="#869291" points="207.499,299.252 207.975,295.547 207.774,295.347 205.684,297.437 	"/>
	
		<rect x="195.245" y="302.593" transform="matrix(-0.7071 0.7071 -0.7071 -0.7071 550.8376 379.9762)" fill="#869291" width="2.955" height="2.955"/>
	
		<rect x="199.663" y="293.733" transform="matrix(-0.7071 -0.7071 0.7071 -0.7071 134.6212 646.1838)" fill="#869291" width="2.954" height="2.956"/>
	<polygon fill="#869291" points="207.774,295.114 208.071,294.817 208.479,291.64 207.774,290.935 205.684,293.024 	"/>
	<polygon fill="#869291" points="204.411,289.651 202.311,289.651 203.361,290.703 	"/>
	<polygon fill="#869291" points="198.832,290.817 197.667,289.651 196.331,289.651 195.818,289.651 194.653,290.817 
		196.743,292.908 	"/>
	<polygon fill="#869291" points="199.998,289.651 197.9,289.651 198.949,290.703 	"/>
	<polygon fill="#869291" points="190.25,299.886 190.699,303.364 192.213,301.849 	"/>
	<polygon fill="#869291" points="208.506,291.435 208.688,290.019 207.889,290.817 	"/>
	<polygon fill="#869291" points="208.723,289.752 208.737,289.651 206.725,289.651 207.774,290.703 	"/>
	
		<rect x="192.977" y="309.29" transform="matrix(0.7073 0.7069 -0.7069 0.7073 276.6169 -46.4976)" fill="#869291" width="2.956" height="2.955"/>
	
		<rect x="199.593" y="302.509" transform="matrix(-0.7074 0.7068 -0.7068 -0.7074 558.1685 376.9264)" fill="#869291" width="2.957" height="2.957"/>
	
		<rect x="201.898" y="304.804" transform="matrix(0.7073 0.7069 -0.7069 0.7073 276.0573 -54.1172)" fill="#869291" width="2.955" height="2.956"/>
	
		<rect x="193.043" y="291.527" transform="matrix(-0.7073 -0.7069 0.7069 -0.7073 124.9614 637.7553)" fill="#869291" width="2.955" height="2.957"/>
	
		<rect x="201.965" y="300.277" transform="matrix(-0.7071 -0.7071 0.7071 -0.7071 133.9265 658.9819)" fill="#869291" width="2.955" height="2.954"/>
	<polygon fill="#869291" points="192.212,297.437 190.124,295.347 189.717,295.752 190.195,299.455 	"/>
	
		<rect x="190.931" y="293.659" transform="matrix(-0.7074 -0.7068 0.7068 -0.7074 119.9302 639.9193)" fill="#869291" width="2.957" height="2.958"/>
	<polygon fill="#869291" points="195.584,289.651 193.487,289.651 194.537,290.703 	"/>
	
		<rect x="193.043" y="295.94" transform="matrix(-0.7073 -0.7069 0.7069 -0.7073 121.8423 645.288)" fill="#869291" width="2.955" height="2.957"/>
	
		<rect x="195.345" y="293.658" transform="matrix(-0.7073 -0.7069 0.7069 -0.7073 127.3867 643.0204)" fill="#869291" width="2.956" height="2.956"/>
	
		<rect x="190.932" y="298.072" transform="matrix(-0.7076 -0.7066 0.7066 -0.7076 116.8951 647.4702)" fill="#869291" width="2.956" height="2.955"/>
	<polygon fill="#869291" points="189.598,294.821 189.691,295.545 190.006,295.231 	"/>
	<polygon fill="#869291" points="190.904,304.953 191.203,307.272 192.212,306.261 	"/>
	<polygon fill="#869291" points="205.568,301.965 203.477,304.056 205.568,306.146 206.764,304.948 206.967,303.367 	"/>
	
		<rect x="197.456" y="291.528" transform="matrix(-0.7071 -0.7071 0.7071 -0.7071 132.4156 640.8591)" fill="#869291" width="2.955" height="2.955"/>
	<polygon fill="#869291" points="203.477,290.817 205.568,292.908 207.658,290.817 206.493,289.651 204.643,289.651 	"/>
	<polygon fill="#869291" points="203.246,290.817 202.08,289.651 201.335,289.651 200.229,289.651 199.063,290.817 201.156,292.908 
			"/>
	<polygon fill="#869291" points="197.332,314.614 200.566,314.614 198.949,312.997 	"/>
	<polygon fill="#869291" points="192.918,314.614 196.154,314.614 194.537,312.997 	"/>
	<polygon fill="#869291" points="191.557,310.017 191.707,311.181 192.212,310.674 	"/>
	<polygon fill="#869291" points="192.33,310.791 191.734,311.388 192.15,314.614 192.686,314.614 194.419,312.882 	"/>
	<polygon fill="#869291" points="194.419,290.817 193.254,289.651 191.406,289.651 190.24,290.817 192.33,292.908 	"/>
	<polygon fill="#869291" points="206.492,307.069 206.729,305.215 205.684,306.263 	"/>
	<polygon fill="#869291" points="205.568,301.733 207.417,299.883 207.471,299.459 205.568,297.554 203.477,299.642 	"/>
	<polygon fill="#869291" points="208.002,295.342 208.037,295.084 207.889,295.229 	"/>
	<polygon fill="#869291" points="206.996,303.162 207.382,300.149 205.684,301.849 	"/>
	<polygon fill="#869291" points="190.124,295.114 192.212,293.024 190.124,290.935 189.213,291.842 189.563,294.554 	"/>
	
		<rect x="201.964" y="295.864" transform="matrix(-0.7073 -0.7069 0.7069 -0.7073 137.1274 651.4648)" fill="#869291" width="2.956" height="2.955"/>
	<polygon fill="#E9F0F3" points="207.658,290.817 207.774,290.703 206.725,289.651 206.493,289.651 	"/>
	<polygon fill="#E9F0F3" points="207.774,290.935 208.479,291.64 208.506,291.435 207.889,290.817 	"/>
	<polygon fill="#E9F0F3" points="207.774,295.347 207.975,295.547 208.002,295.342 207.889,295.229 	"/>
	
		<rect x="206.554" y="292.604" transform="matrix(0.7101 -0.7041 0.7041 0.7101 -147.1605 230.7545)" fill="#E9F0F3" width="0.164" height="2.954"/>
	
		<rect x="204.474" y="290.555" transform="matrix(0.7041 -0.7101 0.7101 0.7041 -146.8409 231.6472)" fill="#E9F0F3" width="0.165" height="2.956"/>
	<polygon fill="#E9F0F3" points="202.311,289.651 202.08,289.651 203.246,290.817 203.361,290.703 	"/>
	
		<rect x="200.765" y="294.026" transform="matrix(-0.7071 -0.7071 0.7071 -0.7071 137.2833 645.0804)" fill="#E9F0F3" width="2.954" height="0.163"/>
	<polygon fill="#E9F0F3" points="197.9,289.651 197.667,289.651 198.832,290.817 198.949,290.703 	"/>
	
		<rect x="198.477" y="291.886" transform="matrix(-0.7074 -0.7068 0.7068 -0.7074 135.0547 639.8401)" fill="#E9F0F3" width="2.957" height="0.164"/>
	
		<rect x="204.348" y="294.809" transform="matrix(0.713 -0.7011 0.7011 0.713 -149.0721 228.3615)" fill="#E9F0F3" width="0.164" height="2.957"/>
	<polygon fill="#E9F0F3" points="207.471,299.459 207.499,299.252 205.684,297.437 205.568,297.554 	"/>
	
		<rect x="194.147" y="291.82" transform="matrix(-0.7069 -0.7073 0.7073 -0.7069 127.4653 636.62)" fill="#E9F0F3" width="2.955" height="0.165"/>
	
		<rect x="200.765" y="298.439" transform="matrix(-0.7071 -0.7071 0.7071 -0.7071 134.1648 652.6139)" fill="#E9F0F3" width="2.955" height="0.164"/>
	
		<rect x="204.346" y="299.22" transform="matrix(0.7101 -0.7041 0.7041 0.7101 -152.4604 231.1189)" fill="#E9F0F3" width="0.164" height="2.958"/>
	<polygon fill="#E9F0F3" points="193.487,289.651 193.254,289.651 194.419,290.817 194.537,290.703 	"/>
	
		<rect x="198.461" y="296.308" transform="matrix(-0.7069 -0.7073 0.7073 -0.7069 131.6588 647.3341)" fill="#E9F0F3" width="2.959" height="0.165"/>
	<polygon fill="#E9F0F3" points="205.568,301.965 206.967,303.367 206.996,303.162 205.684,301.849 	"/>
	
		<rect x="196.352" y="294.027" transform="matrix(-0.7071 -0.7071 0.7071 -0.7071 129.751 641.9614)" fill="#E9F0F3" width="2.955" height="0.164"/>
	
		<rect x="196.353" y="298.439" transform="matrix(-0.7071 -0.7071 0.7071 -0.7071 126.6313 649.4954)" fill="#E9F0F3" width="2.955" height="0.166"/>
	
		<rect x="194.051" y="296.309" transform="matrix(-0.7068 -0.7074 0.7074 -0.7068 124.0492 644.1971)" fill="#E9F0F3" width="2.958" height="0.163"/>
	
		<rect x="192.035" y="293.953" transform="matrix(-0.7071 -0.7071 0.7071 -0.7071 122.4341 638.7822)" fill="#E9F0F3" width="2.955" height="0.163"/>
	
		<rect x="189.734" y="291.82" transform="matrix(-0.7071 -0.7071 0.7071 -0.7071 120.0134 633.5149)" fill="#E9F0F3" width="2.955" height="0.164"/>
	<polygon fill="#E9F0F3" points="205.568,306.377 206.463,307.274 206.492,307.069 205.684,306.263 	"/>
	
		<rect x="200.765" y="302.851" transform="matrix(-0.7071 -0.7071 0.7071 -0.7071 131.045 660.1458)" fill="#E9F0F3" width="2.955" height="0.164"/>
	
		<rect x="198.476" y="300.711" transform="matrix(-0.7074 -0.7068 0.7068 -0.7074 128.8165 654.9082)" fill="#E9F0F3" width="2.957" height="0.163"/>
	<polygon fill="#E9F0F3" points="190.124,290.703 189.074,289.651 188.93,289.651 188.945,289.754 190.006,290.817 	"/>
	
		<rect x="203.095" y="305.019" transform="matrix(0.7068 0.7074 -0.7074 0.7068 275.8259 -55.2601)" fill="#E9F0F3" width="2.958" height="0.164"/>
	
		<rect x="194.243" y="300.572" transform="matrix(-0.7073 -0.7069 0.7069 -0.7073 121.6041 651.6601)" fill="#E9F0F3" width="2.956" height="0.163"/>
	
		<rect x="192.035" y="298.364" transform="matrix(-0.7074 -0.7068 0.7068 -0.7074 119.4764 646.3496)" fill="#E9F0F3" width="2.957" height="0.165"/>
	
		<rect x="199.951" y="303.695" transform="matrix(-0.7071 0.7071 -0.7071 -0.7071 557.2665 379.5193)" fill="#E9F0F3" width="0.163" height="2.957"/>
	
		<rect x="196.353" y="302.851" transform="matrix(-0.7071 -0.7071 0.7071 -0.7071 123.5115 657.0273)" fill="#E9F0F3" width="2.955" height="0.166"/>
	<polygon fill="#E9F0F3" points="190.124,295.114 189.563,294.554 189.598,294.821 190.006,295.231 	"/>
	
		<rect x="202.158" y="305.902" transform="matrix(-0.7071 0.7071 -0.7071 -0.7071 562.5952 381.7252)" fill="#E9F0F3" width="0.163" height="2.955"/>
	<polygon fill="#E9F0F3" points="205.568,310.791 205.959,311.183 205.988,310.978 205.684,310.674 	"/>
	
		<rect x="203.095" y="309.431" transform="matrix(0.7068 0.7074 -0.7074 0.7068 278.9471 -53.9663)" fill="#E9F0F3" width="2.958" height="0.164"/>
	
		<rect x="189.735" y="296.234" transform="matrix(-0.7069 -0.7073 0.7073 -0.7069 116.812 641.032)" fill="#E9F0F3" width="2.955" height="0.163"/>
	
		<rect x="195.591" y="303.726" transform="matrix(-0.7071 0.7071 -0.7071 -0.7071 549.8472 382.6541)" fill="#E9F0F3" width="0.164" height="2.956"/>
	
		<rect x="202.158" y="310.314" transform="matrix(-0.7071 0.7071 -0.7071 -0.7071 565.7139 389.2567)" fill="#E9F0F3" width="0.163" height="2.954"/>
	
		<rect x="192.036" y="302.776" transform="matrix(-0.7073 -0.7069 0.7069 -0.7073 116.2769 653.8654)" fill="#E9F0F3" width="2.956" height="0.165"/>
	<polygon fill="#E9F0F3" points="203.361,312.997 204.977,314.614 205.209,314.614 203.477,312.88 	"/>
	
		<rect x="197.674" y="305.773" transform="matrix(-0.7011 0.713 -0.713 -0.7011 555.4888 381.6728)" fill="#E9F0F3" width="0.164" height="2.956"/>
	
		<rect x="199.9" y="308.183" transform="matrix(-0.716 0.6981 -0.6981 -0.716 559.343 391.7723)" fill="#E9F0F3" width="0.164" height="2.956"/>
	<polygon fill="#E9F0F3" points="192.213,301.849 192.33,301.733 190.24,299.642 190.221,299.662 190.25,299.886 	"/>
	
		<rect x="197.798" y="310.346" transform="matrix(-0.7101 0.7041 -0.7041 -0.7101 557.9516 393.9142)" fill="#E9F0F3" width="0.164" height="2.956"/>
	
		<rect x="195.539" y="308.107" transform="matrix(-0.7071 0.7071 -0.7071 -0.7071 552.8544 390.1711)" fill="#E9F0F3" width="0.163" height="2.957"/>
	
		<rect x="193.26" y="305.774" transform="matrix(-0.7071 0.7071 -0.7071 -0.7071 547.3167 387.7979)" fill="#E9F0F3" width="0.166" height="2.956"/>
	<polygon fill="#E9F0F3" points="192.33,306.146 190.87,304.685 190.904,304.953 192.212,306.261 	"/>
	<polygon fill="#E9F0F3" points="199.065,312.88 198.949,312.997 200.566,314.614 200.797,314.614 	"/>
	<polygon fill="#E9F0F3" points="196.384,314.614 194.653,312.882 194.537,312.997 196.154,314.614 196.331,314.614 	"/>
	
		<rect x="193.384" y="310.346" transform="matrix(-0.7101 0.7041 -0.7041 -0.7101 550.4047 397.0235)" fill="#E9F0F3" width="0.164" height="2.958"/>
	<polygon fill="#E9F0F3" points="192.33,310.558 191.522,309.75 191.557,310.017 192.212,310.674 	"/>
	<polygon fill="#E9F0F3" points="190.24,290.817 191.406,289.651 191.172,289.651 190.124,290.703 	"/>
	<polygon fill="#E9F0F3" points="190.124,290.935 190.006,290.817 189.186,291.638 189.213,291.842 	"/>
	
		<rect x="189.973" y="290.827" transform="matrix(-0.713 0.7011 -0.7011 -0.713 529.5366 365.0802)" fill="#E9F0F3" width="0.164" height="0.166"/>
	
		<rect x="193.237" y="290.531" transform="matrix(-0.7011 -0.713 0.713 -0.7011 120.6544 634.5883)" fill="#E9F0F3" width="0.164" height="2.956"/>
	<polygon fill="#E9F0F3" points="194.653,290.817 195.818,289.651 195.584,289.651 194.537,290.703 	"/>
	
		<rect x="191.188" y="292.613" transform="matrix(-0.713 -0.7011 0.7011 -0.713 121.4524 637.8911)" fill="#E9F0F3" width="0.164" height="2.956"/>
	<polygon fill="#E9F0F3" points="190.124,295.347 190.006,295.231 189.691,295.545 189.717,295.752 	"/>
	
		<rect x="194.498" y="290.699" transform="matrix(-0.7071 -0.7071 0.7071 -0.7071 126.5559 633.9827)" fill="#E9F0F3" width="0.164" height="0.163"/>
	
		<rect x="192.132" y="293.029" transform="matrix(-0.7071 -0.7071 0.7071 -0.7071 120.8707 636.2899)" fill="#E9F0F3" width="0.166" height="0.165"/>
	
		<rect x="190.061" y="295.133" transform="matrix(0.7071 -0.7071 0.7071 0.7071 -153.0576 220.9178)" fill="#E9F0F3" width="0.163" height="0.165"/>
	
		<rect x="195.602" y="292.614" transform="matrix(-0.7101 -0.7041 0.7041 -0.7101 127.561 640.7042)" fill="#E9F0F3" width="0.164" height="2.954"/>
	
		<rect x="197.648" y="290.531" transform="matrix(-0.7071 -0.7071 0.7071 -0.7071 131.0656 638.3068)" fill="#E9F0F3" width="0.166" height="2.955"/>
	
		<rect x="193.236" y="294.943" transform="matrix(-0.7041 -0.7101 0.7101 -0.7041 118.9649 642.4125)" fill="#E9F0F3" width="0.165" height="2.957"/>
	<polygon fill="#E9F0F3" points="199.063,290.817 200.229,289.651 199.998,289.651 198.949,290.703 	"/>
	<polygon fill="#E9F0F3" points="190.24,299.642 192.33,297.554 192.212,297.437 190.195,299.455 190.215,299.621 	"/>
	
		<rect x="198.852" y="290.717" transform="matrix(-0.7071 -0.7071 0.7071 -0.7071 133.9747 637.0928)" fill="#E9F0F3" width="0.163" height="0.164"/>
	
		<rect x="196.545" y="293.029" transform="matrix(-0.7041 -0.7101 0.7101 -0.7041 126.9552 639.1216)" fill="#E9F0F3" width="0.165" height="0.165"/>
	
		<rect x="194.44" y="295.129" transform="matrix(-0.7071 -0.7071 0.7071 -0.7071 123.3233 641.504)" fill="#E9F0F3" width="0.163" height="0.164"/>
	
		<rect x="192.292" y="297.318" transform="matrix(-0.7071 -0.7071 0.7071 -0.7071 118.1087 643.722)" fill="#E9F0F3" width="0.163" height="0.164"/>
	<polygon fill="#E9F0F3" points="190.215,299.621 190.221,299.662 190.24,299.642 	"/>
	
		<rect x="199.923" y="292.545" transform="matrix(-0.713 -0.7011 0.7011 -0.713 136.4633 643.8984)" fill="#E9F0F3" width="0.164" height="2.955"/>
	
		<rect x="202.084" y="290.374" transform="matrix(-0.7011 -0.713 0.713 -0.7011 135.8168 640.629)" fill="#E9F0F3" width="0.164" height="2.955"/>
	
		<rect x="197.671" y="294.785" transform="matrix(-0.7011 -0.713 0.713 -0.7011 125.1629 644.9897)" fill="#E9F0F3" width="0.164" height="2.958"/>
	<polygon fill="#E9F0F3" points="203.477,290.817 204.643,289.651 204.411,289.651 203.361,290.703 	"/>
	
		<rect x="195.443" y="297.15" transform="matrix(-0.7011 -0.713 0.713 -0.7011 119.6868 647.421)" fill="#E9F0F3" width="0.164" height="2.955"/>
	
		<rect x="193.395" y="299.232" transform="matrix(-0.7101 -0.7041 0.7041 -0.7101 119.127 650.4698)" fill="#E9F0F3" width="0.164" height="2.956"/>
	<polygon fill="#E9F0F3" points="192.33,301.965 192.213,301.849 190.699,303.364 190.725,303.569 	"/>
	
		<rect x="203.232" y="290.63" transform="matrix(-0.713 -0.7011 0.7011 -0.713 144.4527 640.5483)" fill="#E9F0F3" width="0.164" height="0.164"/>
	
		<rect x="200.98" y="292.872" transform="matrix(-0.7011 -0.713 0.713 -0.7011 133.1519 641.7191)" fill="#E9F0F3" width="0.164" height="0.166"/>
	
		<rect x="198.91" y="295.111" transform="matrix(-0.7071 -0.7071 0.7071 -0.7071 130.968 644.6345)" fill="#E9F0F3" width="0.164" height="0.163"/>
	
		<rect x="196.704" y="297.318" transform="matrix(-0.713 -0.7011 0.7011 -0.713 128.5811 647.428)" fill="#E9F0F3" width="0.164" height="0.164"/>
	
		<rect x="194.363" y="299.492" transform="matrix(-0.7011 -0.713 0.713 -0.7011 117.1744 648.2615)" fill="#E9F0F3" width="0.164" height="0.164"/>
	
		<rect x="192.291" y="301.731" transform="matrix(-0.7071 -0.7071 0.7071 -0.7071 114.988 651.2536)" fill="#E9F0F3" width="0.164" height="0.163"/>
	
		<rect x="195.443" y="301.562" transform="matrix(-0.7011 -0.713 0.713 -0.7011 116.5409 654.9266)" fill="#E9F0F3" width="0.164" height="2.955"/>
	<polygon fill="#E9F0F3" points="191.203,307.272 191.229,307.478 192.33,306.377 192.212,306.261 	"/>
	
		<rect x="192.01" y="305.187" transform="matrix(-0.7074 0.7068 -0.7068 -0.7074 546.1265 384.4735)" fill="#E9F0F3" width="2.957" height="0.163"/>
	
		<rect x="203.005" y="294.03" transform="matrix(0.7071 -0.7071 0.7071 0.7071 -148.077 230.7343)" fill="#E9F0F3" width="2.955" height="0.164"/>
	
		<rect x="205.212" y="291.824" transform="matrix(0.7071 -0.7071 0.7071 0.7071 -145.8711 231.6485)" fill="#E9F0F3" width="2.954" height="0.164"/>
	
		<rect x="197.807" y="299.232" transform="matrix(-0.7101 -0.7041 0.7041 -0.7101 126.6608 653.5734)" fill="#E9F0F3" width="0.165" height="2.955"/>
	
		<rect x="202.084" y="294.786" transform="matrix(-0.7011 -0.713 0.713 -0.7011 132.6702 648.1364)" fill="#E9F0F3" width="0.164" height="2.956"/>
	
		<rect x="199.954" y="297.044" transform="matrix(-0.71 -0.7042 0.7042 -0.71 131.8616 651.3416)" fill="#E9F0F3" width="0.166" height="2.955"/>
	<polygon fill="#E9F0F3" points="207.889,290.817 208.688,290.019 208.723,289.752 207.774,290.703 	"/>
	
		<rect x="207.735" y="290.699" transform="matrix(-0.713 -0.7011 0.7011 -0.713 152.118 643.8234)" fill="#E9F0F3" width="0.164" height="0.164"/>
	
		<rect x="205.451" y="292.895" transform="matrix(0.7101 -0.7041 0.7041 0.7101 -146.7032 229.6579)" fill="#E9F0F3" width="0.164" height="0.165"/>
	
		<rect x="203.232" y="295.043" transform="matrix(-0.713 -0.7011 0.7011 -0.713 141.358 648.1068)" fill="#E9F0F3" width="0.164" height="0.164"/>
	
		<rect x="201.057" y="297.336" transform="matrix(-0.7101 -0.7041 0.7041 -0.7101 134.5478 650.2352)" fill="#E9F0F3" width="0.164" height="0.164"/>
	
		<rect x="198.775" y="299.491" transform="matrix(-0.7041 -0.7101 0.7101 -0.7041 126.1518 651.7143)" fill="#E9F0F3" width="0.164" height="0.166"/>
	
		<rect x="196.704" y="301.73" transform="matrix(-0.713 -0.7011 0.7011 -0.713 125.4876 654.9861)" fill="#E9F0F3" width="0.164" height="0.164"/>
	
		<rect x="194.363" y="303.861" transform="matrix(-0.7041 0.7101 -0.7101 -0.7041 547.1804 379.893)" fill="#E9F0F3" width="0.165" height="0.164"/>
	
		<rect x="192.281" y="306.225" transform="matrix(-0.713 0.7011 -0.7011 -0.713 544.2874 389.8386)" fill="#E9F0F3" width="0.164" height="0.165"/>
	<polygon fill="#E9F0F3" points="208.037,295.084 208.071,294.817 207.774,295.114 207.889,295.229 	"/>
	<polygon fill="#E9F0F3" points="192.212,310.674 191.707,311.181 191.734,311.388 192.33,310.791 	"/>
	
		<rect x="196.349" y="305.091" transform="matrix(-0.7069 0.7073 -0.7073 -0.7069 553.5191 380.9958)" fill="#E9F0F3" width="2.955" height="0.164"/>
	
		<rect x="202.996" y="298.431" transform="matrix(0.7076 -0.7066 0.7066 0.7076 -151.1452 231.7675)" fill="#E9F0F3" width="2.955" height="0.164"/>
	
		<rect x="199.954" y="301.456" transform="matrix(-0.71 -0.7042 0.7042 -0.71 128.7547 658.8864)" fill="#E9F0F3" width="0.166" height="2.955"/>
	
		<rect x="202.085" y="299.198" transform="matrix(-0.6981 -0.716 0.716 -0.6981 128.0155 655.33)" fill="#E9F0F3" width="0.164" height="2.956"/>
	
		<rect x="193.395" y="308.056" transform="matrix(-0.7071 -0.7071 0.7071 -0.7071 111.4123 665.2168)" fill="#E9F0F3" width="0.164" height="2.956"/>
	
		<rect x="205.212" y="296.236" transform="matrix(0.7071 -0.7071 0.7071 0.7071 -148.9908 232.9411)" fill="#E9F0F3" width="2.954" height="0.165"/>
	
		<rect x="194.207" y="307.379" transform="matrix(-0.7068 0.7074 -0.7074 -0.7068 551.4999 386.3322)" fill="#E9F0F3" width="2.957" height="0.163"/>
	
		<rect x="207.782" y="295.261" transform="matrix(0.7041 -0.7101 0.7101 0.7041 -148.2124 234.9758)" fill="#E9F0F3" width="0.165" height="0.164"/>
	
		<rect x="205.576" y="297.468" transform="matrix(0.7071 -0.7071 0.7071 0.7071 -150.1633 232.5733)" fill="#E9F0F3" width="0.166" height="0.164"/>
	
		<rect x="203.322" y="299.523" transform="matrix(-0.7071 -0.7071 0.7071 -0.7071 135.3801 655.2863)" fill="#E9F0F3" width="0.164" height="0.163"/>
	
		<rect x="201.058" y="301.747" transform="matrix(-0.7071 -0.7071 0.7071 -0.7071 129.9411 657.4825)" fill="#E9F0F3" width="0.163" height="0.164"/>
	
		<rect x="198.774" y="303.861" transform="matrix(-0.7071 0.7071 -0.7071 -0.7071 554.3898 378.249)" fill="#E9F0F3" width="0.166" height="0.163"/>
	
		<rect x="196.695" y="306.225" transform="matrix(-0.7101 0.7041 -0.7041 -0.7101 552.1813 385.2578)" fill="#E9F0F3" width="0.164" height="0.165"/>
	
		<rect x="194.488" y="308.431" transform="matrix(-0.713 0.7011 -0.7011 -0.713 549.6136 392.0697)" fill="#E9F0F3" width="0.164" height="0.164"/>
	
		<rect x="192.157" y="310.48" transform="matrix(-0.7041 0.7101 -0.7101 -0.7041 548.1208 392.7394)" fill="#E9F0F3" width="0.165" height="0.164"/>
	
		<rect x="203.005" y="302.855" transform="matrix(0.7071 -0.7071 0.7071 0.7071 -154.3175 233.3196)" fill="#E9F0F3" width="2.955" height="0.166"/>
	
		<rect x="194.142" y="311.71" transform="matrix(-0.7071 0.7071 -0.7071 -0.7071 554.4153 393.9396)" fill="#E9F0F3" width="2.955" height="0.165"/>
	
		<rect x="200.762" y="305.092" transform="matrix(-0.7071 0.7071 -0.7071 -0.7071 561.0348 377.9604)" fill="#E9F0F3" width="2.954" height="0.164"/>
	<polygon fill="#E9F0F3" points="207.382,300.149 207.417,299.883 205.568,301.733 205.684,301.849 	"/>
	
		<rect x="198.555" y="307.299" transform="matrix(-0.7071 0.7071 -0.7071 -0.7071 558.8279 383.2866)" fill="#E9F0F3" width="2.955" height="0.164"/>
	
		<rect x="196.423" y="309.599" transform="matrix(-0.7074 0.7068 -0.7068 -0.7074 556.7798 388.8899)" fill="#E9F0F3" width="2.957" height="0.165"/>
	<polygon fill="#E9F0F3" points="194.419,312.882 192.686,314.614 192.918,314.614 194.537,312.997 	"/>
	
		<rect x="205.576" y="301.88" transform="matrix(0.7071 -0.7071 0.7071 0.7071 -153.2831 233.8656)" fill="#E9F0F3" width="0.166" height="0.164"/>
	
		<rect x="203.294" y="303.993" transform="matrix(0.7041 0.7101 -0.7101 0.7041 276.0941 -54.4435)" fill="#E9F0F3" width="0.164" height="0.164"/>
	
		<rect x="201.054" y="306.194" transform="matrix(-0.7042 0.71 -0.71 -0.7042 560.2374 379.1319)" fill="#E9F0F3" width="0.166" height="0.164"/>
	
		<rect x="198.848" y="308.401" transform="matrix(-0.7101 0.7041 -0.7041 -0.7101 557.3942 387.4611)" fill="#E9F0F3" width="0.164" height="0.163"/>
	
		<rect x="196.57" y="310.48" transform="matrix(-0.7041 0.7101 -0.7101 -0.7041 555.6414 389.6058)" fill="#E9F0F3" width="0.165" height="0.164"/>
	
		<rect x="194.41" y="312.836" transform="matrix(0.713 0.7011 -0.7011 0.713 275.2134 -46.566)" fill="#E9F0F3" width="0.164" height="0.164"/>
	
		<rect x="204.337" y="305.924" transform="matrix(0.7071 0.7071 -0.7071 0.7071 277.2386 -54.5106)" fill="#E9F0F3" width="0.164" height="2.956"/>
	
		<rect x="198.555" y="311.71" transform="matrix(-0.7069 0.7073 -0.7073 -0.7069 561.9662 390.734)" fill="#E9F0F3" width="2.955" height="0.164"/>
	
		<rect x="200.762" y="309.505" transform="matrix(-0.7071 0.7071 -0.7071 -0.7071 564.1538 385.4927)" fill="#E9F0F3" width="2.954" height="0.164"/>
	<polygon fill="#E9F0F3" points="205.568,306.146 205.684,306.263 206.729,305.215 206.764,304.948 	"/>
	<polygon fill="#E9F0F3" points="198.833,312.88 197.1,314.614 197.332,314.614 198.949,312.997 	"/>
	
		<rect x="205.394" y="306.067" transform="matrix(-0.7041 0.7101 -0.7101 -0.7041 567.5443 375.8211)" fill="#E9F0F3" width="0.165" height="0.164"/>
	
		<rect x="203.293" y="308.405" transform="matrix(0.7041 0.7101 -0.7101 0.7041 279.2268 -53.1373)" fill="#E9F0F3" width="0.164" height="0.164"/>
	
		<rect x="201.054" y="310.606" transform="matrix(-0.7071 0.7071 -0.7071 -0.7071 563.0514 388.1524)" fill="#E9F0F3" width="0.166" height="0.164"/>
	
		<rect x="198.911" y="312.762" transform="matrix(-0.7101 -0.7041 0.7041 -0.7101 120.0159 675.1024)" fill="#E9F0F3" width="0.164" height="0.163"/>
	
		<rect x="204.337" y="310.335" transform="matrix(0.7101 0.7041 -0.7041 0.7101 278.8173 -53.5348)" fill="#E9F0F3" width="0.164" height="2.956"/>
	<polygon fill="#E9F0F3" points="203.246,312.88 201.511,314.614 201.744,314.614 203.361,312.997 	"/>
	<polygon fill="#E9F0F3" points="205.568,310.558 205.684,310.674 206.078,310.28 206.112,310.015 	"/>
	
		<rect x="205.451" y="310.545" transform="matrix(0.7071 -0.7071 0.7071 0.7071 -159.4476 236.3143)" fill="#E9F0F3" width="0.164" height="0.165"/>
	
		<rect x="203.324" y="312.762" transform="matrix(-0.7071 -0.7071 0.7071 -0.7071 126.0209 677.8861)" fill="#E9F0F3" width="0.163" height="0.163"/>
</g>
<g>
	<g>
		<rect x="210.867" y="50.094" fill="#383F42" width="0.499" height="26.295"/>
		<g>
			<polygon fill="#FFFFFF" points="212.758,88.534 206.186,88.534 208.844,75.391 212.758,75.391 			"/>
			<polygon fill="#FFFFFF" points="209.473,88.534 216.043,88.534 213.385,75.391 209.473,75.391 			"/>
		</g>
		<path fill="#383F42" d="M208.871,75.391c0-1.24,1.006-2.246,2.246-2.246s2.246,1.006,2.246,2.246"/>
	</g>
	<g>
		<rect x="331.2" y="50.094" fill="#383F42" width="0.499" height="26.295"/>
		<g>
			<polygon fill="#FFFFFF" points="333.091,88.534 326.52,88.534 329.178,75.391 333.091,75.391 			"/>
			<polygon fill="#FFFFFF" points="329.805,88.534 336.377,88.534 333.719,75.391 329.805,75.391 			"/>
		</g>
		<path fill="#383F42" d="M329.203,75.391c0-1.24,1.006-2.246,2.246-2.246s2.246,1.006,2.246,2.246"/>
	</g>
	<g>
		<rect x="451.533" y="50.094" fill="#383F42" width="0.5" height="26.295"/>
		<g>
			<polygon fill="#FFFFFF" points="453.424,88.534 446.852,88.534 449.512,75.391 453.424,75.391 			"/>
			<polygon fill="#FFFFFF" points="450.139,88.534 456.709,88.534 454.053,75.391 450.139,75.391 			"/>
		</g>
		<path fill="#383F42" d="M449.537,75.391c0-1.24,1.006-2.246,2.246-2.246s2.246,1.006,2.246,2.246"/>
	</g>
	<g>
		<rect x="571.863" y="50.094" fill="#383F42" width="0.5" height="26.295"/>
		<g>
			<polygon fill="#FFFFFF" points="573.754,88.534 567.184,88.534 569.842,75.391 573.754,75.391 			"/>
			<polygon fill="#FFFFFF" points="570.469,88.534 577.039,88.534 574.383,75.391 570.469,75.391 			"/>
		</g>
		<path fill="#383F42" d="M569.867,75.391c0-1.24,1.006-2.246,2.246-2.246c1.238,0,2.246,1.006,2.246,2.246"/>
	</g>
	<g>
		<rect x="692.195" y="50.094" fill="#383F42" width="0.5" height="26.295"/>
		<g>
			<polygon fill="#FFFFFF" points="694.088,88.534 687.516,88.534 690.174,75.391 694.088,75.391 			"/>
			<polygon fill="#FFFFFF" points="690.801,88.534 697.373,88.534 694.715,75.391 690.801,75.391 			"/>
		</g>
		<path fill="#383F42" d="M690.199,75.391c0-1.24,1.006-2.246,2.246-2.246c1.238,0,2.246,1.006,2.246,2.246"/>
	</g>
</g>
<g>
	<rect x="721.68" y="128.662" fill="#BAA565" width="120.414" height="186.455"/>
	<g>
		<rect x="726.553" y="171.062" fill="#9A8857" width="110.67" height="30.672"/>
		<rect x="726.553" y="134.006" fill="#9A8857" width="110.67" height="30.669"/>
		<rect x="726.553" y="207.293" fill="#9A8857" width="110.67" height="30.672"/>
		<rect x="726.553" y="243.526" fill="#9A8857" width="110.67" height="30.67"/>
		<rect x="726.553" y="279.758" fill="#9A8857" width="110.67" height="30.671"/>
	</g>
</g>
<g>
	<circle fill="#72A1AE" cx="743.268" cy="99.458" r="16.715"/>
	<g>
		<polygon fill="#738280" points="753.039,128.662 733.498,128.662 743.268,126.079 743.268,126.079 		"/>
		<g>
			<path fill="#738280" d="M743.242,119.186c-3.947,0-7.93-1.177-11.387-3.627l0.785-1.106c8.268,5.859,19.76,3.9,25.619-4.366
				c2.84-4.006,3.949-8.875,3.125-13.715c-0.826-4.84-3.484-9.067-7.49-11.906l0.785-1.106c4.301,3.048,7.156,7.589,8.041,12.784
				c0.887,5.197-0.305,10.428-3.354,14.728C755.527,116.291,749.428,119.186,743.242,119.186z"/>
			<rect x="742.59" y="118.516" fill="#738280" width="1.355" height="9.867"/>
		</g>
	</g>
</g>
<g>
	<g>
		<rect x="254.383" y="108.325" fill="#BAA565" width="323.763" height="118.661"/>
		<rect x="257.664" y="111.432" fill="#1E262D" width="317.204" height="111.863"/>
	</g>
	<g>
		<rect x="501.389" y="221.142" fill="#FFFFFF" width="8.205" height="2.151"/>
		<rect x="545.799" y="221.142" fill="#FFFFFF" width="8.205" height="2.151"/>
		<rect x="523.338" y="221.142" fill="#FFFFFF" width="4.104" height="2.151"/>
		<rect x="515.646" y="221.142" fill="#FFFFFF" width="2.051" height="2.151"/>
	</g>
</g>
<g>
	<rect x="833.531" y="212.91" fill="#469CD2" width="3.691" height="25.057"/>
	<rect x="833.531" y="233.603" fill="#B3E1EF" width="3.691" height="1.231"/>
	<rect x="833.531" y="231.313" fill="#B3E1EF" width="3.691" height="1.233"/>
	<rect x="833.531" y="214.353" fill="#B3E1EF" width="3.691" height="5.797"/>
</g>
<g>
	<rect x="825.586" y="212.91" fill="#2D783B" width="2.811" height="25.057"/>
	<rect x="826.43" y="223.565" fill="#3A3B18" width="1.123" height="13.242"/>
</g>
<g>
	<rect x="828.395" y="219.25" fill="#E81461" width="5.137" height="18.717"/>
	<rect x="829.559" y="221.985" fill="#201B22" width="2.707" height="3.207"/>
</g>
<g>
	<rect x="820.451" y="216.039" fill="#8D5623" width="5.137" height="21.928"/>
	<rect x="820.451" y="231.552" fill="#C5CB79" width="5.137" height="2.467"/>
	<rect x="820.451" y="219.136" fill="#C5CB79" width="5.137" height="0.561"/>
</g>
<g>
	<rect x="740.105" y="139.622" fill="#469CD2" width="3.691" height="25.054"/>
	<rect x="740.105" y="160.313" fill="#B3E1EF" width="3.691" height="1.233"/>
	<rect x="740.105" y="158.025" fill="#B3E1EF" width="3.691" height="1.234"/>
	<rect x="740.105" y="141.064" fill="#B3E1EF" width="3.691" height="5.797"/>
</g>
<g>
	<rect x="732.162" y="139.622" fill="#2D783B" width="2.811" height="25.054"/>
	<rect x="733.004" y="150.277" fill="#3A3B18" width="1.123" height="13.241"/>
</g>
<g>
	<rect x="734.971" y="145.96" fill="#E81461" width="5.137" height="18.717"/>
	<rect x="736.133" y="148.697" fill="#201B22" width="2.709" height="3.207"/>
</g>
<g>
	<rect x="727.025" y="142.75" fill="#8D5623" width="5.137" height="21.925"/>
	<rect x="727.025" y="158.265" fill="#C5CB79" width="5.137" height="2.467"/>
	<rect x="727.025" y="145.849" fill="#C5CB79" width="5.137" height="0.561"/>
</g>
<rect x="785.852" y="215.063" fill="#456834" width="34.6" height="22.901"/>
<rect x="785.852" y="218.515" fill="#AD8B46" width="34.6" height="1.848"/>
<g>
	<rect x="790.521" y="215.063" fill="#383B38" width="0.139" height="22.901"/>
	<rect x="795.275" y="215.063" fill="#383B38" width="0.137" height="22.901"/>
	<rect x="800.027" y="215.063" fill="#383B38" width="0.137" height="22.901"/>
	<rect x="804.779" y="215.063" fill="#383B38" width="0.137" height="22.901"/>
	<rect x="809.531" y="215.063" fill="#383B38" width="0.137" height="22.901"/>
	<rect x="814.283" y="215.063" fill="#383B38" width="0.137" height="22.901"/>
</g>
<rect x="735.412" y="231.552" fill="#CD3927" width="28.58" height="6.413"/>
<rect x="741.566" y="228.606" fill="#1F6482" width="26.527" height="2.945"/>
<rect x="733.498" y="223.565" fill="#AE4A73" width="28.033" height="5.041"/>
<rect x="735.412" y="301.625" fill="#7B4025" width="40.752" height="8.721"/>
<rect x="732.951" y="298.446" fill="#FFF9F7" width="40.342" height="3.287"/>
<rect x="781.373" y="255.084" fill="#0C446D" width="43.555" height="12.633"/>
<rect x="762.898" y="256.772" fill="#474C52" width="66.66" height="17.424"/>
<g>
	<path fill="#F1F1F1" d="M392.442,174.293l-0.034,0.068c-0.014,0.037-0.047,0.055-0.098,0.055c-0.007,0-0.062,0.021-0.162,0.06
		c-0.102,0.039-0.185,0.06-0.248,0.06l-0.132,0.01c-0.077,0-0.153-0.021-0.229-0.066s-0.129-0.084-0.161-0.119
		c-0.032-0.037-0.077-0.145-0.134-0.322c-0.059-0.18-0.086-0.287-0.086-0.322c0-0.129,0.034-0.196,0.104-0.211
		c0-0.02-0.016-0.057-0.047-0.108c-0.03-0.056-0.047-0.084-0.047-0.092c0-0.201,0.044-0.357,0.133-0.47
		c-0.039-0.127-0.06-0.196-0.06-0.209c0-0.008,0.009-0.035,0.024-0.082c0.017-0.047,0.026-0.09,0.033-0.129s0.018-0.072,0.029-0.098
		l0.01-0.082c0.008-0.039,0.031-0.059,0.073-0.059c0.021,0,0.029-0.014,0.029-0.041v-0.037l-0.011-0.064
		c0-0.092,0.022-0.156,0.068-0.197c0.045-0.041,0.075-0.102,0.09-0.182c0.016-0.08,0.033-0.129,0.057-0.148
		c0.022-0.019,0.04-0.055,0.054-0.104l0.067-0.137l0.054-0.18c0.006-0.037,0.024-0.06,0.059-0.068c0.031-0.01,0.05-0.025,0.05-0.045
		l-0.011-0.059c0.025-0.068,0.043-0.117,0.054-0.146c0.01-0.029,0.039-0.055,0.088-0.072c0.045-0.111,0.086-0.189,0.119-0.236
		c0.034-0.045,0.062-0.098,0.082-0.155c0.019-0.058,0.067-0.115,0.146-0.171c0.006-0.014,0.021-0.047,0.041-0.1
		c0.021-0.055,0.048-0.084,0.081-0.092c0.032-0.006,0.048-0.02,0.048-0.039l-0.02-0.039c0-0.025,0.024-0.072,0.073-0.141l0.06-0.107
		c0.029-0.033,0.062-0.059,0.098-0.074c0.045-0.092,0.104-0.182,0.177-0.272c0.071-0.091,0.134-0.188,0.186-0.293
		c0.075-0.088,0.145-0.152,0.21-0.19l0.161-0.199c0.039-0.082,0.078-0.123,0.117-0.123c0.062-0.117,0.139-0.193,0.229-0.229
		c0.017-0.008,0.062-0.043,0.139-0.104c0.076-0.064,0.146-0.097,0.203-0.097c0.052,0,0.119,0.058,0.2,0.173
		c0.081,0.112,0.122,0.209,0.122,0.287c0,0.02-0.011,0.049-0.031,0.086c-0.021,0.036-0.034,0.075-0.037,0.116
		c-0.004,0.041-0.022,0.156-0.06,0.345c-0.035,0.188-0.065,0.297-0.093,0.323l-0.132,0.255c-0.014,0.038-0.028,0.061-0.044,0.067
		c-0.017,0.006-0.036,0.03-0.06,0.078l0.024,0.102h-0.01c-0.036,0.039-0.073,0.113-0.113,0.222
		c-0.052,0.078-0.097,0.151-0.134,0.223c-0.037,0.07-0.057,0.115-0.057,0.139l-0.028,0.068c-0.072,0.107-0.119,0.193-0.144,0.26
		c-0.031,0.025-0.058,0.061-0.074,0.107c-0.02,0.045-0.043,0.078-0.071,0.1c-0.029,0.021-0.048,0.057-0.058,0.109
		c-0.008,0.053-0.017,0.084-0.025,0.094l-0.098-0.01v0.01l0.01,0.141c0,0.014-0.016,0.027-0.046,0.045
		c-0.031,0.017-0.06,0.051-0.081,0.105c-0.021,0.053-0.062,0.082-0.122,0.09c-0.029,0.02-0.047,0.039-0.054,0.059l0.02,0.092
		c-0.007,0.009-0.031,0.041-0.074,0.104c-0.045,0.062-0.071,0.095-0.082,0.099l-0.103,0.01c-0.021,0.006-0.029,0.062-0.029,0.172
		c0,0.07-0.032,0.119-0.098,0.145c-0.17,0.262-0.269,0.406-0.296,0.437c-0.027,0.028-0.081,0.053-0.159,0.067
		c0,0.008-0.006,0.01-0.02,0.01c-0.032,0-0.104-0.047-0.21-0.141h-0.01c-0.043,0.188-0.075,0.297-0.101,0.322
		s-0.036,0.055-0.036,0.088l0.049,0.088v0.014c0,0.093-0.017,0.205-0.049,0.339v0.028l0.021,0.104v0.18l-0.011,0.107
		c0.025,0.045,0.039,0.086,0.039,0.123c0,0.104,0.025,0.155,0.078,0.155c0.025,0,0.066-0.033,0.121-0.098l0.06-0.029
		c0.059-0.026,0.114-0.086,0.169-0.176c0.054-0.092,0.081-0.17,0.081-0.234c0-0.067-0.067-0.104-0.201-0.104
		c-0.063-0.014-0.098-0.082-0.098-0.209c0-0.061,0.024-0.113,0.073-0.16c0.05-0.047,0.092-0.098,0.127-0.148
		c0.078-0.12,0.16-0.182,0.248-0.182l0.25-0.088c0.025,0,0.052,0.006,0.076,0.016c0.023,0.011,0.057,0.021,0.096,0.033
		c0.104-0.039,0.156-0.059,0.16-0.059c0.113,0,0.19,0.059,0.229,0.176c0,0.023,0.025,0.035,0.077,0.035
		c0.114,0,0.211-0.035,0.286-0.105c0.076-0.069,0.158-0.127,0.244-0.172c0.086-0.043,0.156-0.088,0.21-0.137
		c0.054-0.047,0.087-0.07,0.102-0.07h0.072c0.008,0,0.026-0.021,0.06-0.062c0.032-0.043,0.093-0.063,0.181-0.063
		c0.033,0,0.049,0.014,0.049,0.039c0,0.172-0.024,0.274-0.076,0.307c-0.05,0.029-0.11,0.102-0.183,0.211l-0.054,0.029
		c-0.033,0.028-0.062,0.062-0.088,0.098c-0.026,0.037-0.053,0.059-0.078,0.064c-0.075,0.112-0.133,0.17-0.172,0.17
		c-0.021,0-0.041-0.008-0.065-0.023c-0.023-0.016-0.04-0.025-0.046-0.025c-0.02,0-0.035,0.039-0.049,0.119
		c-0.02,0.029-0.074,0.076-0.162,0.141c-0.013,0-0.035-0.02-0.068-0.059c0-0.006-0.003-0.01-0.01-0.01
		c-0.052,0-0.084,0.029-0.095,0.088c-0.013,0.059-0.048,0.092-0.11,0.098l-0.195,0.033l-0.111-0.008
		c-0.026,0-0.084,0.078-0.17,0.238s-0.139,0.242-0.157,0.25c-0.103,0.031-0.171,0.092-0.211,0.18L392.442,174.293z M394.106,168.69
		v-0.06c-0.073,0.021-0.127,0.091-0.159,0.209l-0.039,0.039c-0.062,0.041-0.111,0.095-0.146,0.164
		c-0.037,0.07-0.096,0.156-0.177,0.258l-0.02,0.06l-0.112,0.142l-0.021,0.094c-0.007,0.012-0.031,0.033-0.072,0.062
		c-0.043,0.029-0.071,0.07-0.086,0.119c-0.016,0.052-0.051,0.111-0.106,0.183c-0.058,0.069-0.097,0.117-0.118,0.143
		c-0.021,0.023-0.06,0.111-0.113,0.26l-0.029,0.051c0,0.029-0.018,0.053-0.049,0.072l-0.183,0.221c0,0.012-0.006,0.062-0.02,0.142
		c-0.05,0.006-0.079,0.024-0.093,0.059l-0.077,0.183c-0.009,0.02-0.023,0.041-0.05,0.067c-0.043,0.156-0.104,0.271-0.182,0.343
		l-0.111,0.229c-0.014,0.027-0.022,0.062-0.029,0.107l-0.01,0.028c-0.039,0.076-0.06,0.134-0.06,0.173
		c0,0.014-0.003,0.053-0.01,0.123h0.01c0.007,0,0.021-0.011,0.039-0.025c0.019-0.016,0.046-0.035,0.078-0.057
		c0.032-0.022,0.059-0.062,0.079-0.119c0.019-0.06,0.051-0.101,0.095-0.125c0.044-0.023,0.072-0.049,0.085-0.076l0.294-0.392
		c0.019-0.024,0.046-0.057,0.08-0.09c0.034-0.035,0.052-0.062,0.052-0.08l0.039-0.067c0.021-0.021,0.053-0.058,0.101-0.107
		c0.047-0.053,0.084-0.088,0.11-0.107c0.025-0.019,0.039-0.051,0.043-0.094s0.021-0.086,0.055-0.133l0.02-0.037
		c0.036-0.043,0.065-0.074,0.088-0.094c0.023-0.02,0.036-0.041,0.039-0.064c0.003-0.021,0.04-0.063,0.112-0.127
		c0.007-0.047,0.045-0.127,0.115-0.236c0.069-0.108,0.123-0.207,0.157-0.295c0.036-0.088,0.071-0.149,0.105-0.184
		c0.034-0.035,0.056-0.096,0.066-0.184l0.049-0.078l0.149-0.42l-0.022-0.104L394.106,168.69z"/>
	<path fill="#F1F1F1" d="M397.481,173.244l0.078-0.068c0.049,0,0.078-0.021,0.088-0.064c0.01-0.045,0.045-0.08,0.105-0.105
		c0.06-0.026,0.115-0.079,0.168-0.157c0.051-0.08,0.104-0.121,0.16-0.121c0.02,0,0.043,0.019,0.067,0.049
		c0.025,0.033,0.039,0.06,0.039,0.078c0,0.106-0.032,0.219-0.098,0.332l-0.021,0.137l-0.033,0.064
		c-0.049,0.024-0.081,0.055-0.096,0.084c-0.016,0.028-0.054,0.063-0.114,0.106l-0.05,0.068c-0.071,0.021-0.119,0.059-0.145,0.111
		c-0.025,0.052-0.059,0.082-0.104,0.088c-0.043,0.006-0.092,0.039-0.144,0.098c-0.033,0.016-0.072,0.031-0.117,0.045l-0.01,0.049
		c-0.033,0.031-0.084,0.06-0.154,0.078c-0.069,0.02-0.122,0.037-0.155,0.057c-0.034,0.019-0.06,0.025-0.071,0.025
		c-0.062,0-0.118-0.012-0.171-0.037c-0.053-0.022-0.105-0.039-0.161-0.045c-0.021-0.02-0.03-0.041-0.034-0.064
		c-0.003-0.022-0.02-0.053-0.049-0.09s-0.043-0.09-0.043-0.153l0.02-0.093c0-0.014-0.009-0.03-0.024-0.051
		c-0.017-0.018-0.024-0.035-0.024-0.047c0-0.014,0.004-0.022,0.011-0.031c0.007-0.006,0.01-0.016,0.01-0.026
		c0-0.019-0.003-0.035-0.01-0.056c-0.007-0.02-0.011-0.034-0.011-0.049l0.03-0.24c0-0.02-0.008-0.028-0.021-0.028
		c-0.014,0-0.036,0.019-0.071,0.049c-0.033,0.033-0.073,0.05-0.119,0.05c-0.025,0.02-0.047,0.061-0.062,0.122
		c-0.026,0.033-0.06,0.062-0.099,0.089l-0.02,0.028c-0.007,0.022-0.031,0.041-0.073,0.058c-0.043,0.014-0.071,0.032-0.088,0.055
		l-0.049,0.049l-0.093-0.008c-0.008,0.006-0.024,0.033-0.055,0.084c-0.029,0.051-0.066,0.092-0.112,0.125l-0.371,0.303
		c-0.039,0.027-0.097,0.059-0.171,0.098l-0.029,0.029c-0.261,0.174-0.444,0.26-0.552,0.26c-0.088,0-0.191-0.024-0.31-0.074
		c-0.118-0.049-0.181-0.106-0.189-0.176l-0.049-0.199c-0.029-0.047-0.045-0.108-0.045-0.19c0-0.039,0.004-0.063,0.011-0.078v-0.028
		l-0.011-0.162c0-0.037,0.031-0.06,0.094-0.06l-0.01-0.131c0-0.015,0.027-0.063,0.086-0.154c0.057-0.09,0.095-0.141,0.113-0.153
		l0.049-0.062c-0.002-0.039,0.021-0.08,0.068-0.125c0.049-0.045,0.088-0.088,0.118-0.135c0.029-0.045,0.085-0.096,0.166-0.15
		l0.146-0.146c0.114-0.114,0.238-0.206,0.373-0.272c0.02-0.008,0.06-0.039,0.118-0.098c0.062-0.06,0.13-0.104,0.206-0.132
		c0.077-0.026,0.151-0.062,0.227-0.104c0.072-0.043,0.131-0.064,0.174-0.064h0.039c0.013,0,0.1-0.041,0.259-0.123h0.029
		c0.013,0,0.044,0.015,0.093,0.039h0.01l0.078-0.039c0.014-0.006,0.029-0.01,0.049-0.01c0.203,0,0.313,0.142,0.334,0.422
		c0.007,0.06,0.021,0.088,0.049,0.088c0.031,0,0.079-0.061,0.14-0.18s0.188-0.178,0.384-0.178c0.141,0,0.21,0.09,0.21,0.27
		c0,0.211-0.095,0.412-0.282,0.601c-0.015,0.024-0.023,0.058-0.029,0.088l-0.068,0.201v0.01c0,0.021-0.014,0.048-0.041,0.08
		c-0.028,0.035-0.042,0.063-0.042,0.09l0.01,0.123l-0.02,0.138c0,0.062,0.011,0.104,0.034,0.123c0.104-0.027,0.179-0.07,0.227-0.131
		c0.047-0.062,0.08-0.095,0.1-0.101l0.05-0.021C397.41,173.317,397.443,173.276,397.481,173.244z M395.86,173.244
		c0.013-0.07,0.054-0.125,0.12-0.162c0.065-0.039,0.105-0.076,0.118-0.115c0.062-0.045,0.15-0.127,0.268-0.244
		s0.174-0.189,0.174-0.215c0-0.01-0.007-0.016-0.021-0.016h-0.009l-0.041,0.024l-0.088-0.011l-0.092,0.011l-0.068-0.035l-0.063,0.01
		l-0.098-0.02c-0.052,0-0.097,0.012-0.136,0.03c-0.037,0.021-0.107,0.045-0.215,0.072c-0.104,0.025-0.201,0.07-0.285,0.133
		c-0.084,0.064-0.146,0.097-0.186,0.097c-0.023,0.049-0.1,0.118-0.23,0.211c-0.077,0.024-0.129,0.082-0.149,0.17
		c-0.086,0.067-0.128,0.106-0.128,0.116l-0.034,0.084c-0.024,0.023-0.059,0.041-0.098,0.058c-0.039,0.015-0.062,0.049-0.068,0.103
		c-0.006,0.055-0.028,0.104-0.064,0.146c-0.038,0.045-0.058,0.08-0.058,0.104c0,0.16,0.03,0.24,0.094,0.24
		c0.025,0,0.08-0.018,0.164-0.053c0.082-0.033,0.131-0.057,0.144-0.07c0.013-0.013,0.039-0.024,0.078-0.039l0.093-0.049
		c0.014-0.012,0.028-0.021,0.045-0.023c0.017-0.004,0.032-0.014,0.049-0.032s0.045-0.037,0.088-0.06
		c0.043-0.02,0.074-0.049,0.099-0.084c0.055-0.033,0.145-0.084,0.269-0.151l0.104-0.078c0.072-0.033,0.115-0.062,0.132-0.082
		C395.779,173.291,395.811,173.267,395.86,173.244z"/>
	<path fill="#F1F1F1" d="M398.471,173.092v-0.049c0-0.032,0.033-0.104,0.099-0.211c0.064-0.106,0.141-0.176,0.226-0.209
		c0.006,0,0.01-0.004,0.01-0.01l-0.01-0.078c0.014-0.014,0.045-0.057,0.098-0.127c0.053-0.072,0.104-0.104,0.151-0.094
		c0.035-0.051,0.081-0.096,0.138-0.129c0.055-0.035,0.104-0.078,0.149-0.135l0.182-0.111c0.127-0.086,0.22-0.127,0.277-0.127h0.074
		c0.039-0.066,0.091-0.1,0.155-0.1c0.062,0,0.103,0.01,0.121,0.029c0.008,0.008,0.015,0.01,0.021,0.01
		c0.004,0,0.022-0.012,0.06-0.039c0.035-0.025,0.08-0.039,0.133-0.039c0.013,0,0.086,0.027,0.219,0.078
		c0.039-0.039,0.077-0.06,0.113-0.06c0.012,0,0.035,0.011,0.068,0.029c0.03,0.021,0.064,0.037,0.1,0.053
		c0.034,0.015,0.066,0.074,0.1,0.181s0.05,0.166,0.05,0.178c0,0.053-0.043,0.115-0.129,0.184c-0.086,0.07-0.166,0.105-0.241,0.105
		c-0.025,0-0.059-0.023-0.098-0.068c-0.098-0.02-0.182-0.043-0.249-0.072c-0.091,0.021-0.16,0.043-0.209,0.072h-0.011l-0.043-0.039
		l-0.039-0.01h-0.011c-0.01,0.014-0.021,0.035-0.039,0.068c-0.052,0.037-0.097,0.059-0.134,0.069s-0.066,0.029-0.09,0.056
		c-0.023,0.022-0.062,0.049-0.115,0.076c-0.054,0.024-0.094,0.061-0.119,0.106c-0.064,0.034-0.113,0.057-0.142,0.062h-0.029
		c-0.026,0.053-0.087,0.139-0.181,0.26l-0.127,0.209c-0.029,0.027-0.064,0.058-0.107,0.093c-0.042,0.032-0.062,0.063-0.062,0.09
		c0,0.006,0.002,0.022,0.01,0.049v0.05c0,0.02-0.017,0.043-0.047,0.069c-0.031,0.028-0.048,0.049-0.048,0.062l0.011,0.107
		l-0.039,0.17c0,0.102,0.073,0.152,0.221,0.152h0.072l0.211-0.035c0.066-0.01,0.125-0.02,0.17-0.029
		c0.046-0.01,0.071-0.014,0.077-0.014c0.008,0,0.033-0.02,0.078-0.055h0.049l0.045-0.01c0.013-0.068,0.105-0.125,0.277-0.171
		c0.039-0.061,0.104-0.104,0.197-0.131s0.188-0.086,0.281-0.178h0.072c0.011,0,0.041-0.021,0.091-0.058
		c0.051-0.037,0.103-0.065,0.155-0.09c0.054-0.023,0.088-0.043,0.102-0.059c0.013-0.016,0.037-0.031,0.072-0.045
		c0.059-0.09,0.129-0.148,0.211-0.17l0.02-0.021c0.053-0.047,0.084-0.067,0.098-0.067l0.06,0.01c0.032,0,0.053-0.021,0.062-0.061
		c0.008-0.041,0.061-0.099,0.155-0.168c0.097-0.068,0.157-0.104,0.185-0.104c0.062,0,0.092,0.03,0.092,0.098
		c0,0.05-0.027,0.076-0.083,0.082c0.036,0.086,0.054,0.134,0.054,0.144c0,0.106-0.054,0.178-0.16,0.209
		c-0.014,0.008-0.021,0.018-0.021,0.029l-0.01,0.088c0.003,0,0.003,0.004,0,0.008c-0.003,0.006-0.011,0.012-0.021,0.021
		l-0.072,0.011l-0.021,0.028c-0.071,0.041-0.154,0.106-0.249,0.201l-0.098,0.104h-0.016c-0.032-0.033-0.059-0.05-0.077-0.05
		c-0.015,0-0.029,0.021-0.05,0.068c-0.11,0.108-0.19,0.174-0.238,0.188c-0.021,0.008-0.055,0.033-0.104,0.078l-0.098,0.064h-0.074
		c-0.01,0.01-0.018,0.023-0.025,0.041s-0.036,0.045-0.085,0.08c-0.05,0.035-0.084,0.068-0.105,0.096
		c-0.021,0.027-0.051,0.049-0.09,0.061l-0.089-0.02c-0.028,0.053-0.083,0.078-0.161,0.078c-0.021,0.014-0.048,0.039-0.085,0.076
		c-0.038,0.037-0.062,0.057-0.076,0.057c-0.013,0-0.047-0.02-0.103-0.059h-0.011c-0.031,0-0.049,0.022-0.049,0.072
		c0,0.049-0.029,0.075-0.09,0.077c-0.061,0.005-0.117,0.021-0.169,0.05h-0.01c-0.075,0-0.129-0.015-0.161-0.041
		c-0.033-0.027-0.062-0.047-0.088-0.062c-0.102,0.033-0.154,0.049-0.161,0.049c-0.039,0-0.077-0.017-0.112-0.049l-0.211-0.106
		c-0.012-0.011-0.034-0.056-0.066-0.134l-0.029-0.039c-0.104-0.02-0.175-0.127-0.21-0.321l-0.039-0.117
		c-0.007-0.006-0.01-0.021-0.01-0.043c0-0.033,0.012-0.084,0.039-0.15c0.024-0.066,0.052-0.156,0.078-0.268
		C398.336,173.192,398.391,173.123,398.471,173.092z"/>
	<path fill="#F1F1F1" d="M401.243,173.073v-0.02l0.029-0.029c0-0.021,0.019-0.051,0.056-0.096c0.037-0.046,0.062-0.078,0.071-0.105
		c0.01-0.024,0.025-0.045,0.048-0.059c0.022-0.013,0.044-0.037,0.062-0.07c0.019-0.034,0.057-0.067,0.114-0.1l0.498-0.632
		c0.056-0.067,0.097-0.114,0.122-0.143c0.107-0.133,0.193-0.293,0.26-0.479c0.013-0.021,0.031-0.039,0.059-0.06
		c0.081-0.157,0.156-0.34,0.225-0.543l0.05-0.075c0.004-0.011,0.03-0.064,0.084-0.16c0.052-0.097,0.09-0.156,0.114-0.185
		c0.023-0.024,0.049-0.086,0.07-0.18l0.107-0.216c0.029-0.063,0.074-0.17,0.133-0.312c0.081-0.028,0.121-0.047,0.121-0.055
		c0-0.013-0.004-0.027-0.014-0.043c-0.01-0.019-0.02-0.031-0.025-0.045c0.014-0.046,0.039-0.082,0.078-0.111l0.02-0.021
		c0-0.012,0.015-0.037,0.041-0.076l0.01-0.029c0.059-0.131,0.134-0.24,0.228-0.328c0.093-0.088,0.181-0.133,0.267-0.133
		c0.078,0,0.122,0.029,0.132,0.088c0.01,0.061,0.024,0.107,0.047,0.145c0.021,0.037,0.031,0.076,0.031,0.115v0.121l-0.029,0.422
		c0,0.006,0.003,0.021,0.011,0.039c-0.029,0.025-0.048,0.06-0.055,0.103l-0.199,0.536c-0.018,0.005-0.052,0.056-0.104,0.152
		l-0.073,0.141c-0.077,0.15-0.139,0.236-0.181,0.261l-0.029,0.039c-0.035,0.053-0.066,0.078-0.094,0.078
		c0,0.081-0.027,0.149-0.085,0.202c-0.057,0.056-0.101,0.113-0.13,0.181s-0.084,0.121-0.166,0.16
		c-0.025,0.051-0.059,0.108-0.098,0.17l-0.221,0.299c-0.059,0.082-0.104,0.181-0.134,0.295c-0.03,0.115-0.062,0.199-0.096,0.248
		l-0.021,0.049c-0.073,0.046-0.111,0.072-0.111,0.082c0,0.019-0.008,0.068-0.021,0.156c-0.025,0.067-0.042,0.104-0.049,0.112
		l0.01,0.107l-0.062,0.01c-0.007,0.006-0.018,0.033-0.029,0.082v0.101l0.01,0.008c0.013,0,0.027-0.021,0.044-0.067
		c0.046-0.031,0.104-0.066,0.176-0.103l0.034-0.021c0.025-0.078,0.052-0.127,0.078-0.146l0.098-0.133l0.144-0.121
		c0.133-0.132,0.199-0.201,0.199-0.211c0-0.007,0.004-0.013,0.01-0.021l0.068,0.01l0.034-0.02l-0.016-0.088
		c0.004-0.004,0.028-0.023,0.073-0.059l0.151-0.152l0.078-0.059c0.026-0.021,0.06-0.052,0.101-0.086
		c0.041-0.037,0.073-0.056,0.101-0.056l0.06,0.021c0.039-0.099,0.125-0.176,0.259-0.234s0.212-0.088,0.235-0.088l0.277,0.062
		c0.026,0.026,0.082,0.063,0.169,0.114c0.086,0.052,0.129,0.177,0.129,0.375c0,0.021-0.02,0.07-0.059,0.149l0.01,0.089
		c0,0.021-0.026,0.055-0.078,0.104l-0.028,0.098l-0.283,0.258c-0.033,0.023-0.066,0.039-0.102,0.049s-0.068,0.029-0.104,0.059
		c-0.036,0.03-0.115,0.074-0.239,0.135c-0.123,0.062-0.186,0.109-0.186,0.148c0,0.014,0.021,0.051,0.065,0.111
		c0.043,0.061,0.075,0.111,0.095,0.154c0.021,0.041,0.057,0.09,0.11,0.146s0.101,0.086,0.139,0.093
		c0.039,0.006,0.08,0.016,0.123,0.028c0.003-0.006,0.032-0.021,0.088-0.041s0.097-0.045,0.121-0.069l0.069-0.021
		c0.046-0.006,0.077-0.025,0.095-0.057c0.02-0.033,0.064-0.072,0.14-0.115c0.075-0.045,0.135-0.096,0.18-0.152
		c0.043-0.057,0.084-0.086,0.119-0.086h0.059c0.046,0,0.072-0.031,0.078-0.098c0.088-0.039,0.152-0.08,0.19-0.123
		c0.039-0.045,0.083-0.08,0.132-0.105l0.029-0.02c0.088-0.096,0.161-0.144,0.221-0.144c0.031,0,0.055,0.019,0.067,0.05
		c-0.025,0.106-0.039,0.184-0.039,0.225c0,0.029-0.019,0.088-0.057,0.176c-0.037,0.088-0.058,0.133-0.062,0.133l-0.054-0.02h-0.011
		c-0.02,0-0.038,0.012-0.059,0.033c-0.021,0.022-0.039,0.039-0.059,0.045s-0.04,0.024-0.062,0.059
		c-0.021,0.034-0.055,0.059-0.1,0.076c-0.046,0.018-0.082,0.043-0.11,0.074c-0.028,0.033-0.048,0.055-0.062,0.063
		c-0.014,0.011-0.025,0.021-0.039,0.037c-0.014,0.015-0.027,0.024-0.043,0.037c-0.019,0.01-0.037,0.028-0.062,0.06
		c-0.024,0.029-0.056,0.053-0.096,0.071c-0.038,0.021-0.069,0.052-0.09,0.09c-0.021,0.041-0.051,0.07-0.083,0.087
		c-0.034,0.018-0.082,0.045-0.146,0.084l-0.132,0.092c-0.032,0.02-0.052,0.028-0.06,0.028h-0.015l-0.049-0.01
		c-0.014,0-0.021,0.01-0.021,0.028c-0.039,0.058-0.074,0.085-0.106,0.085c-0.036,0-0.08,0.012-0.135,0.032
		c-0.054,0.023-0.095,0.035-0.119,0.035c-0.046,0-0.132-0.016-0.26-0.049c-0.025-0.029-0.056-0.051-0.088-0.064
		c-0.032-0.012-0.072-0.071-0.122-0.18l-0.068-0.059c-0.056-0.039-0.145-0.205-0.27-0.5l-0.043-0.057
		c-0.104-0.023-0.156-0.074-0.156-0.152c0-0.016,0.02-0.064,0.059-0.143l0.049-0.029c0.021-0.039,0.045-0.061,0.071-0.068
		c0.027-0.006,0.052-0.029,0.07-0.07s0.049-0.061,0.088-0.061h0.021c0.045-0.047,0.091-0.08,0.135-0.105
		c0.044-0.024,0.08-0.049,0.106-0.076c0.027-0.024,0.101-0.059,0.216-0.098c0.114-0.039,0.174-0.162,0.174-0.371
		c0-0.02-0.018-0.033-0.049-0.039c-0.096,0.033-0.166,0.076-0.211,0.127c-0.064,0.008-0.115,0.041-0.15,0.103
		c-0.036,0.06-0.068,0.09-0.098,0.09l-0.094-0.01c-0.021,0-0.039,0.026-0.06,0.08c-0.021,0.053-0.045,0.079-0.078,0.079h-0.039
		l-0.062,0.029l-0.021,0.078c-0.074,0.082-0.135,0.123-0.181,0.123l-0.039,0.111c-0.053,0.02-0.112,0.068-0.181,0.146l-0.029,0.021
		c-0.025,0.028-0.046,0.053-0.059,0.071c-0.014,0.02-0.032,0.029-0.06,0.029c-0.043,0.025-0.08,0.08-0.112,0.162
		c-0.039,0-0.064,0.029-0.078,0.09c-0.014,0.062-0.041,0.09-0.084,0.09h-0.039c-0.03,0.074-0.06,0.121-0.082,0.14
		c-0.022,0.021-0.049,0.045-0.077,0.082c-0.029,0.034-0.054,0.069-0.069,0.106c-0.018,0.035-0.048,0.072-0.097,0.111
		s-0.087,0.072-0.113,0.098l-0.078,0.049c-0.042,0.029-0.069,0.052-0.083,0.064c-0.013,0.014-0.029,0.02-0.049,0.02
		c-0.032,0-0.079-0.024-0.14-0.075c-0.061-0.052-0.091-0.089-0.091-0.115c0-0.188,0.017-0.321,0.05-0.399l0.132-0.343
		c0.039-0.104,0.085-0.194,0.14-0.272c0.054-0.078,0.08-0.135,0.08-0.166c0-0.045-0.016-0.068-0.049-0.068
		c-0.113,0.113-0.188,0.18-0.226,0.199C401.334,173.164,401.243,173.125,401.243,173.073z"/>
	<path fill="#F1F1F1" d="M409.664,170.092l0.068-0.02l0.049-0.049h0.01l0.044,0.02h0.012c0.077,0,0.146-0.016,0.207-0.047
		s0.111-0.053,0.152-0.065s0.066-0.021,0.077-0.029c0.01-0.006,0.019-0.01,0.022-0.01l0.08,0.01c0.025,0,0.062-0.047,0.104-0.139
		c0.043-0.093,0.094-0.16,0.149-0.203c0.055-0.041,0.109-0.121,0.166-0.238c0.013-0.018,0.026-0.043,0.043-0.075
		c0.017-0.035,0.028-0.054,0.039-0.054c0.049,0,0.089-0.028,0.116-0.092c0.099-0.113,0.179-0.172,0.24-0.172
		c0.081,0,0.138,0.077,0.17,0.235l0.049,0.187c0,0-0.008,0.024-0.022,0.069c-0.018,0.045-0.023,0.088-0.022,0.132
		c0.002,0.045,0,0.073-0.005,0.088c-0.005,0.016-0.007,0.032-0.007,0.053c0,0.024,0.027,0.039,0.083,0.039
		c0.02,0,0.055-0.015,0.107-0.039l0.028-0.01c0.032,0.021,0.062,0.028,0.082,0.028c0.009,0,0.054-0.018,0.142-0.049
		c0.086-0.033,0.141-0.051,0.163-0.055c0.021-0.004,0.062-0.016,0.116-0.039h0.06l0.039,0.016c0.013,0,0.04-0.014,0.081-0.043
		c0.041-0.026,0.117-0.043,0.232-0.051l0.067-0.029h0.021c0.106,0,0.16,0.047,0.16,0.144c0,0.021-0.016,0.054-0.047,0.103
		c-0.029,0.049-0.056,0.104-0.074,0.166l-0.227,0.282c-0.074,0.099-0.148,0.146-0.225,0.146c-0.014,0-0.055-0.043-0.122-0.132
		c0-0.006-0.007-0.01-0.021-0.01c-0.033,0-0.065,0.006-0.103,0.021c-0.036,0.012-0.065,0.021-0.088,0.021
		c-0.011,0-0.097,0.022-0.259,0.071l-0.117,0.021c-0.014,0-0.045,0.008-0.094,0.021l-0.248,0.047
		c-0.086,0.043-0.152,0.123-0.201,0.24c0,0.008-0.018,0.021-0.049,0.045l-0.222,0.399c-0.071,0.021-0.118,0.062-0.142,0.127
		l-0.021,0.029c-0.036,0.006-0.067,0.025-0.098,0.062c-0.029,0.032-0.058,0.062-0.083,0.08l-0.088,0.133
		c-0.037,0.045-0.072,0.096-0.107,0.147c-0.036,0.056-0.062,0.111-0.078,0.172c-0.018,0.06-0.029,0.095-0.039,0.104
		c-0.01,0.013-0.016,0.029-0.016,0.056l-0.016,0.039c-0.039,0.039-0.059,0.084-0.059,0.133l0.02,0.078
		c-0.045,0.155-0.068,0.237-0.068,0.248c0,0.008,0.004,0.024,0.01,0.055v0.029c0,0.069-0.024,0.159-0.077,0.268l0.01,0.078
		l-0.029,0.221c0,0.029,0.011,0.082,0.029,0.162c-0.013,0.012-0.021,0.021-0.021,0.027c0,0.092,0.05,0.19,0.146,0.301
		c0.096,0.109,0.146,0.279,0.146,0.512c0,0.02-0.006,0.047-0.016,0.086c-0.01,0.037-0.017,0.078-0.02,0.121
		s-0.028,0.088-0.076,0.129c-0.047,0.043-0.087,0.064-0.12,0.064c-0.173,0-0.302-0.125-0.387-0.377
		c-0.084-0.25-0.127-0.412-0.127-0.482l0.01-0.191l-0.029-0.098l0.029-0.43l-0.021-0.104l0.112-0.421v-0.149
		c0-0.008,0.023-0.033,0.069-0.078c0-0.008-0.007-0.01-0.02-0.01c-0.021,0-0.047,0.018-0.08,0.059
		c-0.031,0.037-0.072,0.076-0.121,0.111l-0.039,0.067c-0.008-0.006-0.021-0.012-0.039-0.02c-0.018,0.008-0.07,0.084-0.162,0.229
		c-0.068,0.01-0.123,0.049-0.161,0.117c-0.039,0.068-0.093,0.102-0.161,0.102l-0.02,0.011c-0.015,0.096-0.06,0.143-0.139,0.143
		l-0.02,0.011c-0.049,0.11-0.101,0.164-0.151,0.159c-0.032,0.099-0.112,0.166-0.239,0.201c-0.021,0.039-0.049,0.067-0.086,0.088
		s-0.064,0.037-0.08,0.056c-0.018,0.016-0.031,0.022-0.045,0.022c-0.041,0-0.062-0.045-0.062-0.137c0-0.025,0.01-0.056,0.031-0.087
		c0.021-0.03,0.031-0.053,0.031-0.065c0-0.006-0.017-0.024-0.05-0.06c0-0.1,0.026-0.163,0.078-0.188
		c0.053-0.026,0.092-0.063,0.118-0.112c0.017-0.039,0.049-0.066,0.098-0.082c0.049-0.019,0.073-0.037,0.073-0.064
		c0-0.021,0.043-0.068,0.127-0.137c0.085-0.068,0.146-0.127,0.187-0.178c0.038-0.052,0.071-0.076,0.098-0.076l0.021-0.021
		c0.007-0.08,0.038-0.121,0.093-0.121l0.049-0.028l0.011-0.039l0.028-0.021h0.039l0.025-0.02c0.006-0.08,0.044-0.146,0.114-0.189
		c0.069-0.044,0.198-0.174,0.384-0.383c0.186-0.211,0.291-0.346,0.312-0.404c0.022-0.058,0.064-0.137,0.125-0.236
		s0.094-0.192,0.102-0.28c-0.008-0.015-0.018-0.025-0.03-0.039l-0.21,0.104c0-0.011-0.033-0.025-0.098-0.046
		c-0.049,0.029-0.084,0.06-0.107,0.089c-0.021,0.028-0.041,0.043-0.054,0.043l-0.067-0.009l-0.216,0.023
		c-0.191,0.016-0.337,0.055-0.435,0.116l-0.201,0.06h-0.043c-0.025,0-0.066,0.017-0.118,0.049l-0.112-0.01
		c-0.104,0.055-0.181,0.084-0.229,0.084c-0.007,0-0.025-0.004-0.059-0.011l-0.5,0.138c-0.037,0.012-0.125,0.078-0.264,0.199
		l-0.039,0.01c-0.031,0-0.07-0.037-0.113-0.108c-0.045-0.074-0.065-0.14-0.065-0.197c0-0.322,0.276-0.51,0.83-0.562l0.2-0.078h0.01
		l0.054,0.021h0.021c0.02,0,0.051-0.013,0.093-0.037c0.042-0.022,0.138-0.056,0.284-0.091l0.199-0.055l0.063,0.01
		c0.032,0,0.068-0.012,0.108-0.039c0.041-0.024,0.104-0.043,0.187-0.055c0.084-0.012,0.142-0.022,0.174-0.037l0.078-0.02
		c0.013,0,0.04-0.012,0.08-0.035c0.041-0.021,0.094-0.033,0.159-0.033C409.6,170.073,409.624,170.08,409.664,170.092z"/>
	<path fill="#F1F1F1" d="M413.566,173.998l-0.23,0.198c-0.013-0.014-0.024-0.02-0.039-0.02c-0.032,0-0.071,0.028-0.118,0.088
		c-0.049,0.059-0.082,0.088-0.102,0.088l-0.049-0.011c-0.082,0.062-0.142,0.099-0.178,0.107c-0.034,0.01-0.077,0.027-0.129,0.055
		c-0.051,0.025-0.096,0.041-0.137,0.043c-0.041,0.004-0.074,0.019-0.101,0.043c-0.026,0.023-0.091,0.035-0.19,0.035l-0.078-0.01
		c-0.043,0.021-0.069,0.029-0.084,0.029c-0.024,0-0.053-0.014-0.082-0.041c-0.028-0.027-0.062-0.043-0.096-0.047
		c-0.035-0.002-0.068-0.025-0.104-0.068c-0.036-0.041-0.069-0.07-0.101-0.088c-0.031-0.016-0.057-0.039-0.076-0.068l-0.067-0.059
		c-0.056-0.039-0.109-0.109-0.162-0.215c-0.052-0.104-0.078-0.186-0.078-0.244v-0.02l0.01-0.092l-0.01-0.107
		c0.014-0.014,0.029-0.041,0.049-0.084v-0.156l0.117-0.391c0.007-0.019-0.006-0.037-0.039-0.064
		c-0.032,0.049-0.063,0.078-0.098,0.088s-0.056,0.033-0.066,0.068c-0.012,0.037-0.028,0.055-0.057,0.055l-0.06-0.02
		c-0.007,0.006-0.021,0.039-0.045,0.1c-0.021,0.061-0.062,0.09-0.116,0.09c-0.061,0-0.089-0.021-0.089-0.068l0.01-0.088l-0.03-0.121
		c0-0.026,0.026-0.077,0.078-0.153c0.053-0.076,0.102-0.121,0.145-0.131c0.045-0.013,0.082-0.043,0.113-0.095
		c0.031-0.051,0.099-0.11,0.203-0.184c0.059-0.014,0.108-0.055,0.15-0.127c0.046-0.035,0.105-0.064,0.179-0.088
		c0.074-0.021,0.129-0.057,0.166-0.1c0.039-0.045,0.149-0.113,0.334-0.205c0.185-0.094,0.318-0.142,0.403-0.142
		c0.026,0,0.062-0.006,0.107-0.021c0.045-0.016,0.089-0.027,0.128-0.039s0.079-0.029,0.122-0.053
		c0.042-0.025,0.075-0.037,0.103-0.037l0.144,0.049c0.104,0.029,0.167,0.051,0.189,0.062c0.007,0.008,0.04,0.021,0.102,0.043
		c0.061,0.021,0.122,0.049,0.186,0.084c0.063,0.036,0.097,0.104,0.097,0.2c-0.057,0.082-0.084,0.125-0.084,0.134
		c0,0.012,0.037,0.03,0.112,0.057c0.025,0.051,0.064,0.113,0.117,0.191l0.054,0.172l0.01,0.399l-0.01,0.039
		c-0.035,0.033-0.054,0.053-0.054,0.062l0.015,0.099l-0.039,0.139c-0.01,0.041-0.025,0.068-0.049,0.082
		c-0.023,0.015-0.038,0.029-0.044,0.05l-0.029,0.038c-0.007,0.011-0.021,0.039-0.041,0.087c-0.021,0.047-0.045,0.084-0.071,0.108
		c-0.025,0.024-0.041,0.057-0.049,0.094c-0.007,0.035-0.022,0.062-0.05,0.078c-0.024,0.017-0.044,0.033-0.056,0.051
		C413.61,173.967,413.59,173.983,413.566,173.998z M412.046,174.125l0.02,0.11l0.01,0.011h0.078l0.024,0.01
		c0.064,0.014,0.113,0.02,0.146,0.02c0.101,0,0.182-0.025,0.24-0.076c0.062-0.049,0.108-0.074,0.146-0.074
		c0.035,0,0.065-0.024,0.09-0.074c0.025-0.049,0.04-0.071,0.048-0.071h0.066l0.021-0.01c0-0.076,0.032-0.13,0.1-0.162
		c0.067-0.033,0.113-0.076,0.141-0.129c0.028-0.056,0.061-0.097,0.097-0.123c0.034-0.027,0.061-0.064,0.073-0.109l0.039-0.059
		c0.013-0.015,0.02-0.037,0.02-0.072l0.093-0.178c0.021-0.08,0.029-0.146,0.029-0.189c0-0.067-0.035-0.122-0.104-0.161
		c-0.07-0.039-0.104-0.115-0.104-0.229c0-0.076,0.038-0.146,0.114-0.209c0.076-0.062,0.115-0.103,0.115-0.113
		c0-0.021-0.011-0.028-0.029-0.028c-0.01,0-0.049,0.012-0.112,0.037c-0.022,0.047-0.139,0.106-0.347,0.182
		c-0.068-0.031-0.105-0.049-0.111-0.049c-0.02,0-0.04,0.02-0.059,0.059c-0.021,0.039-0.039,0.066-0.06,0.084h-0.063
		c-0.007,0-0.027,0.02-0.062,0.062c-0.036,0.043-0.082,0.063-0.137,0.063l-0.06,0.06c0.004,0.053-0.028,0.104-0.098,0.159
		l-0.053,0.064c-0.033,0.038-0.075,0.084-0.127,0.137l-0.088,0.22c-0.036,0.086-0.054,0.147-0.054,0.19
		c-0.012,0.021-0.032,0.041-0.065,0.062c-0.035,0.021-0.052,0.049-0.052,0.082c0,0.006,0.011,0.021,0.033,0.047
		s0.034,0.047,0.034,0.061l-0.02,0.062l-0.021,0.182L412.046,174.125z"/>
	<path fill="#F1F1F1" d="M417.915,172.174l0.068-0.122c0.02-0.029,0.045-0.06,0.074-0.091c0.031-0.03,0.064-0.11,0.102-0.239
		c0.035-0.13,0.076-0.218,0.119-0.267c0.045-0.049,0.108-0.074,0.193-0.074c0.049,0,0.112,0.023,0.192,0.072
		c0.08,0.047,0.158,0.189,0.234,0.426c0.077,0.238,0.114,0.406,0.114,0.504c0,0.039,0.013,0.091,0.035,0.148
		c0.022,0.061,0.037,0.107,0.043,0.141c-0.024,0.056-0.039,0.086-0.039,0.093l0.01,0.2l-0.059,0.16v0.117
		c-0.039,0.066-0.059,0.107-0.059,0.123c0,0.021,0.007,0.039,0.02,0.059c0.153-0.063,0.246-0.118,0.279-0.157
		c0.031-0.041,0.062-0.065,0.094-0.076c0.031-0.01,0.082-0.053,0.154-0.127l0.093-0.049c0.032-0.039,0.06-0.074,0.083-0.104
		c0.021-0.031,0.049-0.054,0.08-0.066c0.031-0.012,0.066-0.035,0.109-0.068c0.043-0.031,0.104-0.07,0.186-0.111l0.049-0.059
		c0.049-0.057,0.107-0.1,0.174-0.133c0.066-0.031,0.104-0.049,0.109-0.049c0.021,0,0.047,0.031,0.07,0.092
		c0.024,0.059,0.037,0.119,0.037,0.178c0,0.055-0.031,0.109-0.096,0.162c-0.062,0.055-0.106,0.094-0.129,0.121
		c-0.023,0.025-0.074,0.049-0.156,0.068c-0.006,0.004-0.062,0.069-0.161,0.199l-0.098,0.059l-0.05,0.064
		c-0.007,0.014-0.05,0.024-0.132,0.038c-0.003,0-0.01,0.017-0.021,0.05c-0.012,0.032-0.047,0.055-0.105,0.067
		c-0.117,0.106-0.178,0.168-0.18,0.183l-0.104,0.02c-0.021,0.061-0.035,0.098-0.05,0.111c-0.077,0.02-0.121,0.053-0.131,0.098
		c-0.01,0.006-0.026,0.014-0.049,0.02L419,173.97c-0.074,0.059-0.147,0.094-0.221,0.106l-0.111,0.029l-0.039,0.059
		c0,0.017-0.041,0.037-0.12,0.062c-0.079,0.027-0.14,0.059-0.179,0.098l-0.082,0.064c-0.102,0.039-0.164,0.074-0.191,0.107h-0.066
		c-0.046,0-0.117,0.032-0.215,0.1c-0.099,0.066-0.176,0.1-0.234,0.1c-0.188,0-0.318-0.023-0.388-0.07
		c-0.07-0.047-0.128-0.104-0.174-0.176c-0.045-0.07-0.087-0.127-0.125-0.168c-0.037-0.043-0.056-0.076-0.056-0.104
		c0-0.021,0.016-0.045,0.045-0.068c0.031-0.021,0.064-0.068,0.102-0.139c0.037-0.071,0.127-0.115,0.273-0.135
		c0.007,0,0.029-0.01,0.07-0.029c0.04-0.02,0.073-0.029,0.101-0.029c0.032,0,0.073,0.029,0.122,0.088c0,0.006,0.007,0.01,0.02,0.01
		l0.078-0.01c0.036,0.027,0.061,0.039,0.073,0.039c0.077,0,0.161-0.039,0.249-0.117l0.02-0.01h0.039c0.01,0,0.026-0.027,0.049-0.082
		l0.084-0.172l0.17-0.221v-0.049c0-0.01,0.011-0.039,0.028-0.088v-0.072c0-0.029,0.021-0.049,0.061-0.057
		c0.039-0.009,0.058-0.027,0.058-0.062l-0.009-0.039c-0.026-0.037-0.04-0.063-0.04-0.084l0.049-0.099l-0.009-0.102l0.019-0.039
		c-0.012-0.047-0.019-0.072-0.019-0.078l0.019-0.123c0,0-0.008-0.033-0.025-0.092c-0.018-0.061-0.032-0.088-0.041-0.088
		c-0.021,0-0.082,0.049-0.188,0.15c-0.104,0.101-0.166,0.172-0.186,0.215s-0.062,0.08-0.125,0.115s-0.107,0.072-0.13,0.115
		c-0.022,0.041-0.05,0.065-0.083,0.071l-0.328,0.265l-0.355,0.264c-0.026,0.031-0.042,0.045-0.049,0.045
		c-0.121,0-0.182-0.066-0.182-0.201c0-0.041,0.023-0.117,0.072-0.229c0.023-0.015,0.04-0.023,0.052-0.029
		c0.013-0.006,0.018-0.012,0.018-0.016c0,0-0.003-0.004-0.009-0.004l0.027,0.02h0.012c0.119-0.082,0.197-0.129,0.233-0.143
		c0.036-0.013,0.068-0.05,0.098-0.107l0.206-0.146c0.053-0.039,0.133-0.111,0.239-0.215S417.885,172.224,417.915,172.174z"/>
	<path fill="#F1F1F1" d="M420.236,173.092v-0.049c0-0.032,0.032-0.104,0.098-0.211c0.063-0.106,0.14-0.176,0.226-0.209
		c0.006,0,0.01-0.004,0.01-0.01l-0.01-0.078c0.012-0.014,0.045-0.057,0.097-0.127c0.052-0.072,0.103-0.104,0.15-0.094
		c0.036-0.051,0.082-0.096,0.138-0.129c0.056-0.035,0.104-0.078,0.15-0.135l0.181-0.111c0.127-0.086,0.222-0.127,0.278-0.127h0.073
		c0.039-0.066,0.092-0.1,0.155-0.1c0.062,0,0.104,0.01,0.123,0.029c0.007,0.008,0.013,0.01,0.021,0.01
		c0.002,0,0.021-0.012,0.058-0.039c0.036-0.025,0.08-0.039,0.133-0.039c0.014,0,0.086,0.027,0.22,0.078
		c0.039-0.039,0.077-0.06,0.112-0.06c0.014,0,0.035,0.011,0.068,0.029c0.032,0.021,0.065,0.037,0.1,0.053
		c0.035,0.015,0.068,0.074,0.102,0.181c0.031,0.106,0.049,0.166,0.049,0.178c0,0.053-0.043,0.115-0.129,0.184
		c-0.087,0.07-0.167,0.105-0.241,0.105c-0.026,0-0.06-0.023-0.098-0.068c-0.099-0.02-0.181-0.043-0.249-0.072
		c-0.092,0.021-0.161,0.043-0.21,0.072h-0.011l-0.043-0.039l-0.039-0.01h-0.01c-0.01,0.014-0.022,0.035-0.039,0.068
		c-0.053,0.037-0.097,0.059-0.135,0.069c-0.037,0.013-0.066,0.029-0.09,0.056c-0.022,0.022-0.062,0.049-0.114,0.076
		c-0.054,0.024-0.094,0.061-0.12,0.106c-0.064,0.034-0.111,0.057-0.141,0.062h-0.029c-0.026,0.053-0.086,0.139-0.182,0.26
		l-0.125,0.209c-0.03,0.027-0.066,0.058-0.108,0.093c-0.042,0.032-0.063,0.063-0.063,0.09c0,0.006,0.004,0.022,0.011,0.049v0.05
		c0,0.02-0.017,0.043-0.048,0.069c-0.029,0.028-0.045,0.049-0.045,0.062l0.01,0.107l-0.039,0.17c0,0.102,0.072,0.152,0.22,0.152
		h0.074l0.209-0.035c0.067-0.01,0.125-0.02,0.171-0.029c0.046-0.009,0.07-0.014,0.078-0.014c0.006,0,0.031-0.02,0.077-0.055h0.05
		l0.043-0.01c0.014-0.068,0.105-0.125,0.278-0.171c0.038-0.061,0.104-0.104,0.197-0.131s0.187-0.086,0.28-0.178h0.074
		c0.01,0,0.039-0.021,0.09-0.058s0.103-0.065,0.156-0.09c0.053-0.023,0.086-0.043,0.1-0.059s0.038-0.031,0.074-0.045
		c0.059-0.09,0.128-0.148,0.209-0.17l0.02-0.021c0.053-0.047,0.085-0.067,0.098-0.067l0.06,0.01c0.033,0,0.053-0.021,0.062-0.061
		c0.009-0.041,0.061-0.099,0.156-0.168c0.096-0.068,0.156-0.104,0.184-0.104c0.062,0,0.093,0.03,0.093,0.098
		c0,0.05-0.028,0.076-0.083,0.082c0.035,0.086,0.054,0.134,0.054,0.144c0,0.106-0.054,0.178-0.161,0.209
		c-0.014,0.008-0.02,0.018-0.02,0.029l-0.01,0.088c0.004,0,0.004,0.004,0,0.008c-0.004,0.006-0.01,0.012-0.021,0.021l-0.073,0.011
		l-0.02,0.028c-0.071,0.041-0.155,0.106-0.249,0.201l-0.098,0.104h-0.017c-0.031-0.033-0.058-0.05-0.078-0.05
		c-0.013,0-0.028,0.021-0.048,0.068c-0.11,0.108-0.189,0.174-0.239,0.188c-0.02,0.008-0.055,0.033-0.104,0.078l-0.098,0.064h-0.072
		c-0.01,0.01-0.02,0.023-0.027,0.041c-0.007,0.018-0.037,0.045-0.086,0.08s-0.084,0.068-0.104,0.096
		c-0.021,0.027-0.053,0.049-0.092,0.061l-0.088-0.02c-0.028,0.053-0.082,0.078-0.16,0.078c-0.021,0.014-0.049,0.039-0.085,0.076
		c-0.038,0.037-0.063,0.057-0.076,0.057c-0.014,0-0.047-0.02-0.103-0.059h-0.011c-0.032,0-0.049,0.022-0.049,0.072
		c0,0.049-0.03,0.075-0.091,0.077c-0.062,0.005-0.116,0.021-0.168,0.05h-0.01c-0.075,0-0.129-0.015-0.161-0.041
		c-0.033-0.027-0.062-0.047-0.088-0.062c-0.103,0.033-0.155,0.049-0.161,0.049c-0.039,0-0.077-0.017-0.113-0.049l-0.209-0.106
		c-0.014-0.011-0.035-0.056-0.068-0.134l-0.028-0.039c-0.105-0.02-0.175-0.127-0.211-0.321l-0.039-0.117
		c-0.007-0.006-0.011-0.021-0.011-0.043c0-0.033,0.015-0.084,0.039-0.15c0.026-0.066,0.054-0.156,0.078-0.268
		C420.1,173.192,420.154,173.123,420.236,173.092z"/>
	<path fill="#F1F1F1" d="M423.328,172.726l0.039-0.054c0.086-0.02,0.14-0.053,0.162-0.098c0.01-0.022,0.092-0.107,0.246-0.254
		c0.153-0.146,0.238-0.225,0.255-0.236c0.104-0.188,0.167-0.33,0.189-0.424c0.039-0.02,0.059-0.043,0.059-0.067l0.04-0.078
		l0.043-0.011l0.021-0.02v-0.045c0-0.059,0.062-0.195,0.188-0.41c0.127-0.264,0.196-0.41,0.206-0.438
		c0.01-0.028,0.029-0.068,0.059-0.121c0.029-0.055,0.074-0.158,0.135-0.311c0.061-0.154,0.154-0.312,0.281-0.479
		c0.014-0.009,0.031-0.043,0.059-0.111c0.025-0.065,0.066-0.131,0.123-0.196l0.059-0.103c0.02-0.033,0.055-0.09,0.104-0.172
		s0.094-0.146,0.135-0.193c0.039-0.047,0.07-0.096,0.092-0.147c0.021-0.053,0.047-0.09,0.076-0.113
		c0.029-0.021,0.061-0.064,0.09-0.123c0.031-0.061,0.08-0.092,0.145-0.092c0.127,0,0.219,0.053,0.275,0.156
		c0.059,0.104,0.086,0.194,0.086,0.272c0,0.011-0.02,0.08-0.059,0.211l-0.072,0.438c-0.064,0.033-0.098,0.07-0.098,0.113
		c0,0.172-0.068,0.353-0.201,0.537c-0.014,0.014-0.023,0.055-0.031,0.127s-0.037,0.131-0.086,0.176s-0.094,0.121-0.133,0.23
		l-0.453,0.648l-0.039,0.039c-0.02,0.014-0.043,0.041-0.068,0.084l-0.078-0.025c-0.088,0-0.133,0.029-0.133,0.084
		c0,0.02,0.008,0.045,0.02,0.078v0.01c0,0.004-0.119,0.174-0.361,0.514c-0.012,0.019-0.035,0.082-0.068,0.189l-0.067,0.146
		c-0.068,0.094-0.116,0.188-0.145,0.274c-0.028,0.09-0.063,0.162-0.11,0.22c-0.064,0.146-0.098,0.223-0.098,0.229
		c0,0.02,0.01,0.029,0.029,0.029s0.066-0.049,0.14-0.146c0.074-0.098,0.134-0.162,0.181-0.195c0.048-0.031,0.088-0.078,0.119-0.137
		l0.049-0.033c0.016-0.008,0.041-0.027,0.084-0.059l0.051,0.01c0.023-0.02,0.041-0.043,0.049-0.068
		c0.006-0.026,0.016-0.047,0.029-0.059c0.084-0.01,0.137-0.041,0.158-0.094s0.045-0.078,0.074-0.078c0.027,0,0.062-0.029,0.105-0.09
		s0.102-0.109,0.178-0.146s0.135-0.072,0.172-0.1c0.037-0.031,0.113-0.064,0.227-0.105c0.115-0.041,0.191-0.062,0.23-0.062h0.029
		l0.039,0.01l0.072-0.01c0.115,0,0.23,0.032,0.344,0.096s0.164,0.162,0.146,0.295l-0.041,0.306l-0.053,0.237
		c-0.006,0.039-0.033,0.128-0.078,0.261s-0.068,0.209-0.068,0.229l-0.02,0.094l0.02,0.127l-0.01,0.104
		c0,0.03,0.018,0.049,0.049,0.049c0.014,0,0.051-0.029,0.107-0.088c0.035,0.006,0.068-0.015,0.102-0.06
		c0.033-0.047,0.076-0.094,0.133-0.143c0-0.014,0.02-0.025,0.062-0.037s0.102-0.049,0.176-0.115
		c0.014-0.029,0.076-0.092,0.189-0.188s0.223-0.17,0.326-0.223l0.029-0.039c0.055-0.056,0.105-0.082,0.15-0.082
		s0.068,0.022,0.068,0.072c0,0.032-0.01,0.067-0.025,0.104c-0.016,0.035-0.027,0.082-0.033,0.139
		c-0.008,0.057-0.039,0.139-0.098,0.246l-0.02,0.049c-0.023,0.057-0.053,0.088-0.084,0.098c-0.031,0.011-0.066,0.037-0.104,0.082
		c-0.037,0.043-0.115,0.086-0.232,0.123c-0.053,0.099-0.092,0.148-0.121,0.148l-0.088-0.039c-0.068,0.055-0.104,0.111-0.104,0.17
		c-0.084,0.072-0.135,0.119-0.15,0.143l-0.098-0.01c-0.025,0-0.039,0.035-0.039,0.107c0,0.006-0.033,0.027-0.1,0.066
		c-0.068,0.037-0.119,0.069-0.154,0.1c-0.035,0.029-0.113,0.043-0.229,0.043c-0.014,0-0.033-0.012-0.061-0.033
		c-0.025-0.023-0.062-0.043-0.113-0.059c-0.051-0.018-0.086-0.055-0.105-0.115s-0.041-0.107-0.062-0.143
		c-0.021-0.033-0.033-0.062-0.033-0.08l0.01-0.099l-0.023-0.104l0.043-0.066c-0.02-0.047-0.029-0.077-0.029-0.094l0.049-0.299
		c0.037-0.216,0.064-0.354,0.088-0.421c0.008-0.006,0.01-0.024,0.01-0.059l-0.01-0.121l0.01-0.067c0-0.05-0.016-0.076-0.049-0.078
		c-0.031-0.004-0.051-0.013-0.059-0.025c-0.043-0.02-0.066-0.028-0.072-0.028c-0.027,0-0.051,0.021-0.068,0.061
		c-0.021,0.041-0.047,0.078-0.078,0.111l-0.123-0.021v0.011c0,0.024-0.045,0.075-0.133,0.149c-0.08,0.021-0.15,0.062-0.209,0.127
		c-0.027,0-0.072,0.024-0.135,0.076c-0.064,0.051-0.105,0.08-0.125,0.086l-0.039,0.078l-0.078,0.022
		c-0.023,0.066-0.076,0.107-0.162,0.127l-0.049,0.094c-0.068,0.007-0.115,0.041-0.143,0.105c-0.025,0.062-0.046,0.096-0.059,0.096
		c-0.008,0-0.019-0.006-0.032-0.014s-0.028-0.012-0.041-0.012c-0.072,0-0.111,0.055-0.117,0.16c0,0.014-0.066,0.09-0.2,0.229
		c-0.135,0.14-0.205,0.214-0.216,0.216c-0.01,0.004-0.028,0.037-0.057,0.1c-0.027,0.064-0.065,0.111-0.115,0.143
		c-0.049,0.032-0.086,0.057-0.108,0.076c-0.024,0.02-0.043,0.029-0.057,0.029c-0.068,0-0.123-0.049-0.166-0.146
		c-0.043-0.097-0.064-0.148-0.064-0.152l0.03-0.102l-0.011-0.088c0-0.004,0.021-0.07,0.062-0.199
		c0.041-0.127,0.088-0.229,0.14-0.303c0.053-0.072,0.094-0.193,0.122-0.359c-0.146,0.099-0.233,0.146-0.264,0.146
		c-0.065,0-0.099-0.041-0.099-0.127C423.174,172.989,423.225,172.851,423.328,172.726z"/>
	<path fill="#F1F1F1" d="M430.143,173.998l-0.229,0.198c-0.014-0.014-0.025-0.02-0.039-0.02c-0.033,0-0.072,0.028-0.119,0.088
		c-0.049,0.059-0.082,0.088-0.102,0.088l-0.049-0.011c-0.082,0.062-0.141,0.099-0.178,0.107c-0.035,0.01-0.078,0.027-0.129,0.055
		c-0.051,0.025-0.096,0.041-0.137,0.043c-0.041,0.004-0.074,0.019-0.102,0.043c-0.025,0.023-0.088,0.035-0.189,0.035l-0.078-0.01
		c-0.043,0.021-0.07,0.029-0.084,0.029c-0.023,0-0.053-0.014-0.082-0.041s-0.061-0.043-0.096-0.047
		c-0.033-0.002-0.068-0.025-0.105-0.068c-0.033-0.041-0.066-0.07-0.1-0.088c-0.031-0.016-0.057-0.039-0.076-0.068l-0.068-0.059
		c-0.055-0.039-0.107-0.109-0.16-0.215c-0.053-0.104-0.078-0.186-0.078-0.244v-0.02l0.01-0.092l-0.01-0.107
		c0.014-0.014,0.029-0.041,0.049-0.084v-0.156l0.117-0.391c0.008-0.019-0.006-0.037-0.039-0.064
		c-0.031,0.049-0.064,0.078-0.098,0.088s-0.057,0.033-0.066,0.068c-0.012,0.037-0.029,0.055-0.057,0.055l-0.061-0.02
		c-0.006,0.006-0.02,0.039-0.043,0.1s-0.062,0.09-0.117,0.09c-0.061,0-0.09-0.021-0.09-0.068l0.01-0.088l-0.029-0.121
		c0-0.026,0.025-0.077,0.078-0.153s0.102-0.121,0.145-0.131c0.045-0.013,0.082-0.043,0.113-0.095
		c0.031-0.051,0.098-0.11,0.203-0.184c0.059-0.014,0.107-0.055,0.15-0.127c0.045-0.035,0.105-0.064,0.18-0.088
		c0.072-0.021,0.129-0.057,0.166-0.1c0.037-0.045,0.148-0.113,0.334-0.205c0.184-0.094,0.316-0.142,0.402-0.142
		c0.025,0,0.062-0.006,0.107-0.021c0.045-0.016,0.088-0.027,0.127-0.039s0.08-0.029,0.123-0.053
		c0.041-0.025,0.076-0.037,0.102-0.037l0.145,0.049c0.104,0.029,0.168,0.051,0.189,0.062c0.008,0.008,0.039,0.021,0.102,0.043
		c0.061,0.021,0.121,0.049,0.186,0.084c0.064,0.036,0.096,0.104,0.096,0.2c-0.057,0.082-0.084,0.125-0.084,0.134
		c0,0.012,0.039,0.03,0.113,0.057c0.025,0.051,0.064,0.113,0.117,0.191l0.053,0.172l0.012,0.399l-0.012,0.039
		c-0.035,0.033-0.053,0.053-0.053,0.062l0.016,0.099l-0.039,0.139c-0.012,0.041-0.027,0.068-0.051,0.082
		c-0.021,0.015-0.037,0.029-0.043,0.05l-0.029,0.038c-0.006,0.011-0.021,0.039-0.041,0.087c-0.021,0.047-0.045,0.084-0.07,0.108
		c-0.027,0.024-0.043,0.057-0.049,0.094c-0.008,0.035-0.023,0.062-0.051,0.078c-0.025,0.017-0.045,0.033-0.055,0.051
		C430.188,173.967,430.168,173.983,430.143,173.998z M428.625,174.125l0.02,0.11l0.01,0.011h0.078l0.023,0.01
		c0.064,0.014,0.113,0.02,0.146,0.02c0.102,0,0.182-0.025,0.24-0.076c0.061-0.049,0.107-0.074,0.145-0.074s0.064-0.024,0.09-0.074
		c0.025-0.049,0.041-0.071,0.047-0.071h0.068l0.02-0.01c0-0.076,0.033-0.13,0.102-0.162c0.066-0.033,0.113-0.076,0.141-0.129
		c0.027-0.056,0.061-0.097,0.096-0.123c0.035-0.027,0.061-0.064,0.072-0.109l0.039-0.059c0.014-0.015,0.021-0.037,0.021-0.072
		l0.092-0.178c0.021-0.08,0.029-0.146,0.029-0.189c0-0.067-0.035-0.122-0.105-0.161c-0.068-0.039-0.104-0.115-0.104-0.229
		c0-0.076,0.039-0.146,0.115-0.209c0.074-0.062,0.113-0.103,0.113-0.113c0-0.021-0.01-0.028-0.027-0.028
		c-0.012,0-0.049,0.012-0.113,0.037c-0.021,0.047-0.137,0.106-0.346,0.182c-0.068-0.031-0.105-0.049-0.111-0.049
		c-0.021,0-0.039,0.02-0.061,0.059c-0.02,0.039-0.039,0.066-0.059,0.084h-0.062c-0.008,0-0.027,0.02-0.062,0.062
		c-0.035,0.041-0.082,0.063-0.137,0.063l-0.061,0.06c0.004,0.053-0.029,0.104-0.098,0.159l-0.053,0.064
		c-0.033,0.038-0.074,0.084-0.127,0.137l-0.088,0.22c-0.035,0.086-0.055,0.147-0.055,0.19c-0.01,0.021-0.031,0.041-0.064,0.062
		c-0.035,0.021-0.051,0.049-0.051,0.082c0,0.006,0.01,0.021,0.033,0.047c0.021,0.026,0.033,0.047,0.033,0.061l-0.02,0.062
		l-0.02,0.182L428.625,174.125z"/>
	<path fill="#F1F1F1" d="M433.764,173.998l-0.229,0.198c-0.014-0.014-0.027-0.02-0.039-0.02c-0.033,0-0.072,0.028-0.121,0.088
		c-0.047,0.059-0.08,0.088-0.102,0.088l-0.049-0.011c-0.08,0.062-0.139,0.099-0.176,0.107c-0.035,0.01-0.078,0.027-0.129,0.055
		c-0.051,0.025-0.096,0.041-0.137,0.043c-0.041,0.004-0.074,0.019-0.102,0.043c-0.025,0.023-0.09,0.035-0.189,0.035l-0.078-0.01
		c-0.043,0.021-0.07,0.029-0.084,0.029c-0.025,0-0.055-0.014-0.082-0.041c-0.029-0.027-0.062-0.043-0.098-0.047
		c-0.033-0.002-0.068-0.025-0.104-0.068c-0.035-0.041-0.068-0.07-0.102-0.088c-0.029-0.016-0.055-0.039-0.074-0.068l-0.068-0.059
		c-0.057-0.039-0.109-0.109-0.162-0.215c-0.051-0.104-0.078-0.186-0.078-0.244v-0.02l0.01-0.092l-0.01-0.107
		c0.014-0.014,0.029-0.041,0.049-0.084v-0.156l0.117-0.391c0.008-0.019-0.006-0.037-0.039-0.064
		c-0.031,0.049-0.064,0.078-0.098,0.088s-0.055,0.033-0.066,0.068c-0.012,0.037-0.029,0.055-0.057,0.055l-0.059-0.02
		c-0.008,0.006-0.021,0.039-0.045,0.1s-0.062,0.09-0.117,0.09c-0.061,0-0.09-0.021-0.09-0.068l0.01-0.088l-0.029-0.121
		c0-0.026,0.027-0.077,0.078-0.153c0.053-0.076,0.102-0.121,0.145-0.131c0.045-0.013,0.082-0.043,0.113-0.095
		c0.031-0.051,0.098-0.11,0.203-0.184c0.059-0.014,0.109-0.055,0.15-0.127c0.047-0.035,0.105-0.064,0.18-0.088
		c0.072-0.021,0.129-0.057,0.166-0.1c0.037-0.045,0.148-0.113,0.334-0.205c0.184-0.094,0.318-0.142,0.402-0.142
		c0.025,0,0.062-0.006,0.107-0.021c0.047-0.016,0.088-0.027,0.127-0.039s0.08-0.029,0.123-0.053
		c0.043-0.025,0.076-0.037,0.104-0.037l0.143,0.049c0.104,0.029,0.168,0.051,0.189,0.062c0.008,0.008,0.039,0.021,0.102,0.043
		c0.061,0.021,0.121,0.049,0.186,0.084c0.064,0.036,0.098,0.104,0.098,0.2c-0.059,0.082-0.084,0.125-0.084,0.134
		c0,0.012,0.037,0.03,0.111,0.057c0.025,0.051,0.064,0.113,0.117,0.191l0.055,0.172l0.01,0.399l-0.01,0.039
		c-0.035,0.033-0.055,0.053-0.055,0.062l0.016,0.099l-0.039,0.139c-0.01,0.041-0.025,0.068-0.051,0.082
		c-0.021,0.015-0.037,0.029-0.043,0.05l-0.029,0.038c-0.006,0.011-0.02,0.039-0.041,0.087c-0.021,0.047-0.045,0.084-0.07,0.108
		s-0.043,0.057-0.051,0.094c-0.006,0.035-0.021,0.062-0.049,0.078c-0.023,0.017-0.045,0.033-0.055,0.051
		C433.809,173.967,433.789,173.983,433.764,173.998z M432.246,174.125l0.02,0.11l0.01,0.011h0.078l0.023,0.01
		c0.064,0.014,0.115,0.02,0.146,0.02c0.102,0,0.182-0.025,0.24-0.076c0.062-0.049,0.109-0.074,0.145-0.074s0.066-0.024,0.092-0.074
		c0.025-0.049,0.039-0.071,0.045-0.071h0.068l0.02-0.01c0-0.076,0.033-0.13,0.102-0.162c0.066-0.033,0.113-0.076,0.141-0.129
		c0.027-0.056,0.061-0.097,0.096-0.123c0.035-0.027,0.061-0.064,0.072-0.109l0.039-0.059c0.014-0.015,0.021-0.037,0.021-0.072
		l0.092-0.178c0.02-0.08,0.029-0.146,0.029-0.189c0-0.067-0.033-0.122-0.104-0.161s-0.105-0.115-0.105-0.229
		c0-0.076,0.039-0.146,0.115-0.209c0.076-0.062,0.113-0.103,0.113-0.113c0-0.021-0.01-0.028-0.029-0.028
		c-0.01,0-0.047,0.012-0.111,0.037c-0.021,0.047-0.139,0.106-0.346,0.182c-0.068-0.031-0.105-0.049-0.111-0.049
		c-0.021,0-0.039,0.02-0.061,0.059c-0.02,0.039-0.039,0.066-0.059,0.084h-0.062c-0.006,0-0.027,0.02-0.062,0.062
		s-0.082,0.063-0.137,0.063l-0.059,0.06c0.002,0.053-0.029,0.104-0.098,0.159l-0.055,0.064c-0.031,0.038-0.074,0.084-0.127,0.137
		l-0.088,0.22c-0.035,0.086-0.055,0.147-0.055,0.19c-0.01,0.021-0.031,0.041-0.064,0.062s-0.053,0.049-0.053,0.082
		c0,0.006,0.014,0.021,0.035,0.047s0.033,0.047,0.033,0.061l-0.02,0.062l-0.02,0.182L432.246,174.125z"/>
	<path fill="#F1F1F1" d="M435.309,173.347v-0.033c0-0.047,0.004-0.082,0.012-0.108c-0.021-0.052-0.029-0.099-0.029-0.142
		c0-0.008,0.016-0.053,0.049-0.137l0.043-0.152c0.023-0.06,0.035-0.09,0.039-0.092c-0.02-0.054-0.029-0.082-0.029-0.088
		c0-0.076,0.021-0.138,0.064-0.187c0.041-0.049,0.078-0.117,0.105-0.205l0.1-0.299l0.158-0.391c0.004-0.01,0.021-0.037,0.049-0.078
		c0.025-0.043,0.051-0.078,0.066-0.109c0.018-0.031,0.043-0.076,0.076-0.135l0.049-0.01c0.014-0.014,0.021-0.027,0.021-0.039
		c0-0.008-0.008-0.033-0.021-0.078l0.172-0.283l0.104-0.211c0.031-0.055,0.068-0.092,0.105-0.107
		c0.066-0.12,0.123-0.192,0.172-0.221c0.02-0.061,0.057-0.127,0.107-0.199l0.092-0.01c0.018-0.045,0.033-0.08,0.049-0.104
		l0.012-0.098c0,0.02,0.008,0.014,0.023-0.017c0.018-0.03,0.041-0.09,0.072-0.174l0.133-0.152l0.039-0.067
		c0.018-0.023,0.043-0.066,0.078-0.133c0.049-0.019,0.09-0.056,0.121-0.107l0.104-0.082c-0.006-0.035,0.033-0.115,0.117-0.24
		c0.055-0.021,0.105-0.051,0.152-0.088l0.066-0.02c0-0.113,0.041-0.191,0.123-0.234l0.059-0.039
		c0.053-0.025,0.082-0.039,0.088-0.039l0.035-0.01c0.039-0.012,0.084-0.02,0.137-0.02c0.119,0,0.229,0.045,0.326,0.135
		s0.146,0.19,0.146,0.305c0,0.047-0.023,0.094-0.072,0.143l-0.02,0.039c-0.047,0.18-0.078,0.271-0.098,0.271
		c-0.016,0-0.031,0.01-0.057,0.028c-0.006,0.107-0.012,0.168-0.02,0.181c-0.059,0.01-0.088,0.084-0.088,0.221
		c-0.006,0.021-0.029,0.054-0.07,0.101s-0.072,0.11-0.096,0.194c-0.021,0.084-0.047,0.125-0.072,0.125h-0.055l0.016,0.072
		c0,0.047-0.021,0.092-0.064,0.135c-0.045,0.045-0.072,0.091-0.082,0.142c-0.01,0.049-0.049,0.104-0.117,0.176l-0.049,0.078
		c-0.02,0.031-0.045,0.065-0.078,0.102c-0.031,0.037-0.061,0.092-0.082,0.166l-0.127,0.234c-0.088,0.16-0.156,0.236-0.201,0.229
		c-0.029,0.127-0.049,0.199-0.059,0.22c-0.012,0.02-0.033,0.039-0.068,0.055s-0.062,0.045-0.082,0.086
		c-0.021,0.039-0.041,0.07-0.064,0.09l-0.088,0.182c-0.053,0.021-0.09,0.064-0.111,0.125c-0.053,0.014-0.086,0.06-0.1,0.133
		c-0.012,0.015-0.027,0.043-0.049,0.088l-0.17,0.173c-0.088,0.061-0.135,0.133-0.143,0.213c-0.008,0.078-0.049,0.119-0.127,0.119
		c-0.057,0-0.137-0.025-0.244-0.074h-0.01c-0.012,0.047-0.031,0.096-0.068,0.151l0.021,0.132c0,0.018-0.027,0.118-0.08,0.309
		c0.025,0.05,0.039,0.084,0.039,0.103l-0.01,0.108l0.025,0.132c0.016,0.106,0.055,0.161,0.117,0.161l0.115,0.021
		c0.008,0,0.049-0.025,0.123-0.074l0.182-0.098c0.006,0,0.01,0.004,0.01,0.01c0.031,0.014,0.059,0.02,0.078,0.02
		c0.031,0,0.049-0.025,0.049-0.078v-0.062c0.02-0.033,0.043-0.054,0.07-0.062c0.025-0.006,0.053-0.02,0.074-0.043
		c0.023-0.022,0.041-0.035,0.055-0.035h0.049c0.049,0,0.074-0.057,0.074-0.17c0.012-0.006,0.027-0.02,0.049-0.039h0.059
		c0.025,0,0.055-0.03,0.084-0.096c0.031-0.062,0.055-0.102,0.066-0.115c0.059-0.006,0.1-0.016,0.123-0.028
		c0.104-0.188,0.184-0.283,0.238-0.283h0.029c0.057-0.051,0.084-0.099,0.09-0.14s0.021-0.067,0.049-0.079
		c0.029-0.015,0.055-0.029,0.076-0.05c0.021-0.02,0.037-0.028,0.045-0.028c0.049,0,0.07,0.019,0.07,0.053l-0.014,0.138l0.035,0.146
		c0,0.015-0.016,0.039-0.043,0.076c-0.027,0.036-0.041,0.079-0.041,0.125c0,0.094-0.018,0.145-0.049,0.149
		c-0.033,0.008-0.061,0.029-0.08,0.066c-0.021,0.037-0.057,0.072-0.105,0.104c-0.047,0.032-0.086,0.074-0.111,0.135l-0.084,0.021
		l-0.049,0.029c-0.039,0.1-0.08,0.162-0.125,0.187c-0.043,0.021-0.098,0.09-0.162,0.204c-0.01,0-0.016,0.003-0.016,0.011
		l-0.078-0.011c-0.029,0.052-0.059,0.082-0.088,0.093c-0.027,0.01-0.055,0.028-0.072,0.057c-0.02,0.027-0.055,0.051-0.105,0.07
		c-0.049,0.02-0.082,0.043-0.094,0.067c-0.016,0.027-0.033,0.041-0.061,0.045c-0.025,0.002-0.051,0.017-0.074,0.035
		c-0.02,0.021-0.041,0.033-0.059,0.033c-0.006,0-0.027-0.004-0.066-0.011h-0.02c-0.057,0.039-0.102,0.06-0.137,0.06
		c-0.043,0-0.074,0.006-0.094,0.021c-0.02-0.015-0.051-0.023-0.092-0.029c-0.039-0.006-0.086-0.023-0.139-0.049
		c-0.055,0.012-0.09,0.02-0.104,0.02c-0.055,0-0.125-0.055-0.211-0.164c-0.084-0.109-0.127-0.215-0.127-0.32
		c0-0.002-0.018-0.028-0.055-0.076c-0.039-0.047-0.057-0.098-0.057-0.153v-0.049l0.01-0.058v-0.094l0.01-0.029
		c0.051-0.006,0.074-0.014,0.074-0.02L435.309,173.347z M436.301,172.052l0.104-0.06c0.012-0.053,0.055-0.115,0.127-0.188
		c0.07-0.074,0.121-0.111,0.15-0.111h0.039c0-0.021,0.004-0.045,0.014-0.068c0.012-0.021,0.016-0.053,0.016-0.092
		c0-0.02,0.045-0.074,0.133-0.162l0.039-0.088c0.029-0.084,0.104-0.154,0.221-0.209c0.045-0.096,0.078-0.143,0.102-0.143l0.039-0.01
		c0.014-0.049,0.039-0.092,0.078-0.131l0.021-0.029v-0.08c0-0.006,0.02-0.033,0.064-0.08s0.076-0.092,0.096-0.131
		c0.02-0.041,0.047-0.072,0.08-0.096c0.035-0.023,0.059-0.062,0.07-0.123l0.078-0.01c0-0.041,0.004-0.068,0.01-0.082l0.012-0.05
		c0.016-0.039,0.072-0.143,0.17-0.309l0.078-0.181c0-0.02,0.014-0.043,0.041-0.072c0.027-0.026,0.041-0.065,0.041-0.118l0.039-0.16
		c0-0.076-0.012-0.112-0.039-0.112c-0.031,0.022-0.061,0.038-0.09,0.049c-0.027,0.01-0.055,0.067-0.08,0.176
		c-0.098,0.022-0.154,0.07-0.168,0.139c-0.016,0.07-0.055,0.131-0.121,0.18l-0.033,0.06c-0.008,0.034-0.037,0.071-0.094,0.11
		c-0.055,0.039-0.107,0.105-0.156,0.201c-0.162,0.225-0.252,0.346-0.268,0.361l-0.049,0.059l-0.074-0.01
		c0.014,0.053,0.02,0.082,0.02,0.088c0,0.02-0.01,0.039-0.029,0.057c-0.02,0.019-0.033,0.039-0.043,0.066
		c-0.012,0.025-0.029,0.055-0.061,0.09c-0.029,0.033-0.055,0.09-0.08,0.166c-0.023,0.076-0.047,0.121-0.064,0.135l-0.068-0.01
		c-0.043,0.025-0.064,0.051-0.064,0.078l0.016,0.068c0,0.012-0.01,0.027-0.025,0.047c-0.018,0.018-0.035,0.053-0.053,0.104
		c-0.018,0.053-0.059,0.131-0.121,0.238c-0.066,0.105-0.117,0.217-0.154,0.336s-0.074,0.195-0.109,0.229
		c0.006,0.007,0.016,0.009,0.029,0.009C436.221,172.183,436.262,172.14,436.301,172.052z"/>
	<path fill="#F1F1F1" d="M439.352,173.396l0.039,0.039c0.066,0.063,0.104,0.117,0.111,0.153c0.008,0.037,0.025,0.076,0.051,0.117
		s0.039,0.076,0.039,0.109c0,0.014-0.02,0.043-0.059,0.09c-0.039,0.049-0.07,0.15-0.096,0.311c-0.023,0.16-0.105,0.24-0.246,0.24
		c-0.121,0-0.207-0.031-0.26-0.094c-0.055,0-0.092-0.008-0.109-0.021c-0.016-0.012-0.047-0.065-0.088-0.153
		s-0.074-0.146-0.104-0.176c-0.027-0.029-0.041-0.072-0.041-0.128c0-0.069,0.025-0.139,0.078-0.202
		c0.053-0.062,0.09-0.129,0.111-0.197c0.102-0.103,0.17-0.151,0.207-0.155c0.035-0.005,0.064-0.011,0.09-0.021
		c0.025-0.011,0.053-0.017,0.086-0.017C439.221,173.293,439.285,173.328,439.352,173.396z M440.779,170.092l-0.051,0.039
		l-0.133,0.24c-0.006,0.019-0.02,0.039-0.039,0.062l-0.062,0.088c-0.02,0.068-0.049,0.123-0.082,0.166
		c-0.037,0.043-0.061,0.084-0.07,0.125c-0.008,0.041-0.025,0.072-0.047,0.096c-0.021,0.021-0.045,0.086-0.07,0.195l-0.107,0.326
		l-0.064,0.084v0.059c0,0.021-0.025,0.045-0.078,0.078v0.17c-0.035,0.049-0.074,0.113-0.113,0.191l-0.043,0.326
		c-0.031,0.291-0.08,0.463-0.143,0.514l-0.062,0.059c-0.018,0.037-0.049,0.055-0.098,0.055c-0.025,0-0.084-0.045-0.172-0.133
		l-0.059-0.02c-0.057-0.025-0.109-0.088-0.164-0.186c-0.053-0.099-0.08-0.188-0.08-0.273c0-0.113,0.016-0.195,0.047-0.246
		s0.047-0.09,0.051-0.115l0.25-0.654c0.098-0.262,0.203-0.477,0.316-0.645l0.068-0.191l0.049-0.059l0.049-0.191
		c0.012-0.012,0.033-0.028,0.062-0.053c0.049-0.164,0.096-0.271,0.141-0.324c0.047-0.055,0.078-0.119,0.098-0.192
		c0.021-0.076,0.045-0.121,0.074-0.138c0.029-0.018,0.053-0.067,0.07-0.155s0.078-0.147,0.184-0.179l-0.031-0.062v-0.01
		c0-0.006,0.021-0.035,0.064-0.088c0.041-0.054,0.102-0.191,0.18-0.416c0.078-0.226,0.176-0.337,0.297-0.337
		c0.062,0,0.15,0.08,0.268,0.24c0.115,0.162,0.174,0.281,0.174,0.359c0,0.102-0.062,0.227-0.189,0.377s-0.227,0.291-0.297,0.426
		c-0.07,0.133-0.113,0.229-0.133,0.285C440.812,170.043,440.795,170.08,440.779,170.092z"/>
</g>
<g>
	<path fill="#356732" d="M746.178,192.261c-0.637,0.635-1.666,0.635-2.303,0l-0.32-0.32c-0.637-0.635-0.637-1.666,0-2.303
		l3.52-3.519c0.635-0.635,1.666-0.635,2.303,0l0.32,0.32c0.635,0.637,0.635,1.666,0,2.303L746.178,192.261z"/>
	<path fill="#356732" d="M745.1,187.772c0.637,0.635,0.637,1.666,0,2.301l-0.318,0.322c-0.637,0.635-1.666,0.635-2.305,0
		l-5.637-5.64c-0.635-0.637-0.635-1.666,0-2.303l0.32-0.32c0.637-0.635,1.666-0.635,2.303,0L745.1,187.772z"/>
	<path fill="#3D7D3C" d="M746.625,191.117c0,1.485-1.205,2.69-2.691,2.69h-0.748c-1.484,0-2.689-1.205-2.689-2.69v-8.226
		c0-1.486,1.205-2.69,2.689-2.69h0.748c1.486,0,2.691,1.204,2.691,2.69V191.117z"/>
	<path fill="#DB4A28" d="M737.561,200.386c0,0.743,0.604,1.348,1.346,1.348h9.477c0.744,0,1.346-0.604,1.346-1.348v-9.562h-12.168
		V200.386L737.561,200.386z"/>
</g>
<g>
	<g>
		
			<path fill="none" stroke="#BE6328" stroke-width="1.7377" stroke-linecap="round" stroke-linejoin="round" stroke-miterlimit="10" d="
			M179.604,149.876c0,10.156-8.233,18.391-18.392,18.391s-18.392-8.233-18.392-18.391"/>
		<path fill="none" stroke="#BE6328" stroke-width="1.7377" stroke-linecap="square" stroke-miterlimit="10" d="M151.221,313.886
			c0-5.521,4.474-9.992,9.991-9.992c5.519,0,9.992,4.474,9.992,9.992"/>
		
			<line fill="none" stroke="#BE6328" stroke-width="1.7377" stroke-linecap="round" stroke-linejoin="round" stroke-miterlimit="10" x1="161.212" y1="144.989" x2="161.212" y2="303.043"/>
	</g>
	
		<line fill="none" stroke="#BE6328" stroke-width="1.7377" stroke-miterlimit="10" x1="161.212" y1="314.403" x2="161.212" y2="302.242"/>
</g>
</svg>
