<?xml version="1.0" encoding="utf-8"?>
<!-- Generator: Adobe Illustrator 16.0.0, SVG Export Plug-In . SVG Version: 6.00 Build 0)  -->
<!DOCTYPE svg PUBLIC "-//W3C//DTD SVG 1.1//EN" "http://www.w3.org/Graphics/SVG/1.1/DTD/svg11.dtd">
<svg version="1.1" id="Layer_1" xmlns="http://www.w3.org/2000/svg" xmlns:xlink="http://www.w3.org/1999/xlink" x="0px" y="0px"
	 width="2572.889px" height="806px" viewBox="0 0 2572.889 806" enable-background="new 0 0 2572.889 806" xml:space="preserve">
<rect x="102.848" y="122.739" fill="#E9F1F4" width="2367.191" height="646"/>
<polyline fill="none" stroke="#B3C7CE" stroke-width="4" stroke-linecap="round" stroke-linejoin="round" stroke-miterlimit="10" points="
	313.718,726.072 393.613,726.072 393.613,758.864 1868.113,758.864 1879.445,726.072 1889.447,726.072 "/>
<g>
	<g opacity="0.5">
		<rect x="637.771" y="241.119" fill="#B4D6DB" width="151.523" height="97.87"/>
		<rect x="637.771" y="347.918" fill="#B4D6DB" width="151.523" height="253.524"/>
		<rect x="798.221" y="241.119" fill="#B4D6DB" width="151.523" height="97.87"/>
		<rect x="798.221" y="347.918" fill="#B4D6DB" width="151.523" height="253.524"/>
		<rect x="789.294" y="241.119" fill="#FFFFFF" width="8.927" height="97.87"/>
		<rect x="789.294" y="347.918" fill="#FFFFFF" width="8.927" height="253.524"/>
		<rect x="637.771" y="338.989" fill="#FFFFFF" width="151.523" height="8.929"/>
		<rect x="798.221" y="338.989" fill="#FFFFFF" width="151.523" height="8.929"/>
		<rect x="789.294" y="338.989" fill="#FFFFFF" width="8.927" height="8.929"/>
	</g>
	<rect x="622.758" y="600.672" fill="#FFFFFF" width="342" height="7.969"/>
</g>
<g>
	<g opacity="0.5">
		<rect x="240.096" y="241.119" fill="#B4D6DB" width="151.523" height="97.87"/>
		<rect x="240.096" y="347.918" fill="#B4D6DB" width="151.523" height="253.524"/>
		<rect x="400.546" y="241.119" fill="#B4D6DB" width="151.523" height="97.87"/>
		<rect x="400.546" y="347.918" fill="#B4D6DB" width="151.523" height="253.524"/>
		<rect x="391.619" y="241.119" fill="#FFFFFF" width="8.927" height="97.87"/>
		<rect x="391.619" y="347.918" fill="#FFFFFF" width="8.927" height="253.524"/>
		<rect x="240.096" y="338.989" fill="#FFFFFF" width="151.523" height="8.929"/>
		<rect x="400.546" y="338.989" fill="#FFFFFF" width="151.523" height="8.929"/>
		<rect x="391.619" y="338.989" fill="#FFFFFF" width="8.927" height="8.929"/>
	</g>
	<rect x="225.083" y="600.672" fill="#FFFFFF" width="342" height="7.969"/>
</g>
<g>
	<g>
		<rect x="1374.601" y="169.739" fill="#FFFFFF" width="270.901" height="15"/>
		<g>
			<rect x="1410.97" y="122.739" fill="#869392" width="1.406" height="47"/>
			<rect x="1607.728" y="122.739" fill="#869392" width="1.406" height="47"/>
		</g>
	</g>
	<g>
		<rect x="880.63" y="169.739" fill="#FFFFFF" width="270.903" height="15"/>
		<g>
			<rect x="916.999" y="122.739" fill="#869392" width="1.406" height="47"/>
			<rect x="1113.758" y="122.739" fill="#869392" width="1.406" height="47"/>
		</g>
	</g>
	<g>
		<rect x="1868.57" y="169.739" fill="#FFFFFF" width="270.902" height="15"/>
		<g>
			<rect x="1904.939" y="122.739" fill="#869392" width="1.406" height="47"/>
			<rect x="2101.697" y="122.739" fill="#869392" width="1.406" height="47"/>
		</g>
	</g>
	<g>
		<rect x="386.66" y="169.739" fill="#FFFFFF" width="270.903" height="15"/>
		<g>
			<rect x="423.029" y="122.739" fill="#869392" width="1.406" height="47"/>
			<rect x="619.788" y="122.739" fill="#869392" width="1.406" height="47"/>
		</g>
	</g>
</g>
<g>
	<g>
		<path fill="none" stroke="#9B9B9B" stroke-width="4" stroke-miterlimit="10" d="M704.728,647.164c0,0-6.147,18.445,7.853,36.228"
			/>
		<circle fill="#D1003C" cx="704.728" cy="647.164" r="6.147"/>
		<g>
			<path fill="none" stroke="#9B9B9B" stroke-width="4" stroke-miterlimit="10" d="M797.013,647.164c0,0,6.147,18.445-7.853,36.228"
				/>
			<circle fill="#D1003C" cx="797.013" cy="647.164" r="6.147"/>
		</g>
	</g>
	<rect x="745.695" y="728.684" fill="#9B9B9B" width="10.35" height="27.193"/>
	<rect x="748.92" y="613.812" fill="#9B9B9B" width="3.899" height="120.265"/>
	<path fill="#D1003C" d="M787.808,610.981c0,6.627-5.373,12-12,12h-49.875c-6.628,0-12-5.373-12-12v-2.5c0-6.627,5.372-12,12-12
		h49.875c6.627,0,12,5.373,12,12V610.981z"/>
	<g>
		
			<rect x="764.229" y="741.36" transform="matrix(0.2711 -0.9625 0.9625 0.2711 -171.9207 1289.7754)" fill="#9B9B9B" width="2.86" height="34.089"/>
		
			<rect x="734.687" y="741.36" transform="matrix(-0.2711 -0.9625 0.9625 -0.2711 205.6859 1672.564)" fill="#9B9B9B" width="2.86" height="34.089"/>
		<circle fill="#9B9B9B" cx="720.067" cy="765.939" r="4.314"/>
		<circle fill="#9B9B9B" cx="781.672" cy="765.939" r="4.314"/>
	</g>
	<path fill="#D1003C" d="M796.619,683.392c0,3.414-2.768,6.182-6.183,6.182h-79.134c-3.414,0-6.182-2.768-6.182-6.182l0,0
		c0-3.415,2.768-6.183,6.182-6.183h79.134C793.852,677.209,796.619,679.977,796.619,683.392L796.619,683.392z"/>
	<rect x="749.291" y="753.326" fill="#9B9B9B" width="3.158" height="11.076"/>
	<rect x="747.52" y="761.649" fill="#9B9B9B" width="6.7" height="8.604"/>
</g>
<g>
	<g>
		<path fill="none" stroke="#BF621D" stroke-width="4" stroke-linecap="round" stroke-linejoin="round" stroke-miterlimit="10" d="
			M628.113,435.735c0,23.381-18.953,42.334-42.333,42.334c-23.38,0-42.333-18.953-42.333-42.334"/>
		<path fill="none" stroke="#BF621D" stroke-width="4" stroke-linecap="square" stroke-miterlimit="10" d="M562.78,767.233
			c0-12.703,10.297-23,23-23c12.703,0,23,10.297,23,23"/>
		
			<line fill="none" stroke="#BF621D" stroke-width="4" stroke-linecap="round" stroke-linejoin="round" stroke-miterlimit="10" x1="585.78" y1="436" x2="585.78" y2="742.28"/>
	</g>
	<line fill="none" stroke="#BF621D" stroke-width="4" stroke-miterlimit="10" x1="585.78" y1="768.426" x2="585.78" y2="740.426"/>
</g>
<g>
	<rect x="1097.142" y="358.493" fill="#E5C28F" width="319.27" height="166.021"/>
	<rect x="1102.812" y="364.544" fill="#FFFFFF" width="307.93" height="153.922"/>
	<g>
		<line fill="none" stroke="#BFE5EF" stroke-miterlimit="10" x1="1126.071" y1="377.909" x2="1126.071" y2="505.381"/>
		<line fill="none" stroke="#BFE5EF" stroke-miterlimit="10" x1="1138.734" y1="377.909" x2="1138.734" y2="505.381"/>
		<line fill="none" stroke="#BFE5EF" stroke-miterlimit="10" x1="1151.396" y1="377.909" x2="1151.396" y2="505.381"/>
		<line fill="none" stroke="#BFE5EF" stroke-miterlimit="10" x1="1164.06" y1="377.909" x2="1164.06" y2="505.381"/>
		<line fill="none" stroke="#BFE5EF" stroke-miterlimit="10" x1="1176.722" y1="377.909" x2="1176.722" y2="505.381"/>
		<line fill="none" stroke="#BFE5EF" stroke-miterlimit="10" x1="1189.385" y1="377.909" x2="1189.385" y2="505.381"/>
		<line fill="none" stroke="#BFE5EF" stroke-miterlimit="10" x1="1202.048" y1="377.909" x2="1202.048" y2="505.381"/>
		<line fill="none" stroke="#BFE5EF" stroke-miterlimit="10" x1="1214.71" y1="377.909" x2="1214.71" y2="505.381"/>
		<line fill="none" stroke="#BFE5EF" stroke-miterlimit="10" x1="1227.373" y1="377.909" x2="1227.373" y2="505.381"/>
		<line fill="none" stroke="#BFE5EF" stroke-miterlimit="10" x1="1240.036" y1="377.909" x2="1240.036" y2="505.381"/>
		<line fill="none" stroke="#BFE5EF" stroke-miterlimit="10" x1="1252.698" y1="377.909" x2="1252.698" y2="505.381"/>
		<line fill="none" stroke="#BFE5EF" stroke-miterlimit="10" x1="1265.361" y1="377.909" x2="1265.361" y2="505.381"/>
		<line fill="none" stroke="#BFE5EF" stroke-miterlimit="10" x1="1278.024" y1="377.909" x2="1278.024" y2="505.381"/>
		<line fill="none" stroke="#BFE5EF" stroke-miterlimit="10" x1="1290.687" y1="377.909" x2="1290.687" y2="505.381"/>
		<line fill="none" stroke="#BFE5EF" stroke-miterlimit="10" x1="1303.35" y1="377.909" x2="1303.35" y2="505.381"/>
		<line fill="none" stroke="#BFE5EF" stroke-miterlimit="10" x1="1316.012" y1="377.909" x2="1316.012" y2="505.381"/>
		<line fill="none" stroke="#BFE5EF" stroke-miterlimit="10" x1="1328.675" y1="377.909" x2="1328.675" y2="505.381"/>
		<line fill="none" stroke="#BFE5EF" stroke-miterlimit="10" x1="1341.338" y1="377.909" x2="1341.338" y2="505.381"/>
		<line fill="none" stroke="#BFE5EF" stroke-miterlimit="10" x1="1354" y1="377.909" x2="1354" y2="505.381"/>
		<line fill="none" stroke="#BFE5EF" stroke-miterlimit="10" x1="1366.663" y1="377.909" x2="1366.663" y2="505.381"/>
		<line fill="none" stroke="#BFE5EF" stroke-miterlimit="10" x1="1379.325" y1="377.909" x2="1379.325" y2="505.381"/>
	</g>
	
		<polyline opacity="0.6" fill="none" stroke="#FF5C36" stroke-width="4" stroke-linecap="round" stroke-linejoin="round" stroke-miterlimit="10" points="
		1114.801,486.105 1172.614,405.626 1198.127,451.589 1218.88,420.84 1237.03,451.213 1244.346,436.58 1271.22,480.899 
		1284.022,454.871 1296.545,472.88 1327.921,418.853 1359.015,456.841 1386.453,418.853 	"/>
</g>
<path fill="#699900" d="M532.113,438.735l-16,189.839c0,0,1.12-4.502,12,7.342c10.333,11.248,17-12.935,32.667-10.412
	l-15.488-191.968C545.292,433.536,534.399,421.44,532.113,438.735z"/>
<g>
	<rect x="1031.717" y="726.013" fill="#9B9B9B" width="10.35" height="27.193"/>
	<rect x="1034.941" y="677.4" fill="#9B9B9B" width="3.898" height="54.005"/>
	<g>
		
			<rect x="1050.25" y="738.69" transform="matrix(0.2711 -0.9625 0.9625 0.2711 39.1277 1563.1375)" fill="#9B9B9B" width="2.86" height="34.088"/>
		
			<rect x="1020.708" y="738.689" transform="matrix(-0.2711 -0.9625 0.9625 -0.2711 571.8219 1944.4783)" fill="#9B9B9B" width="2.86" height="34.089"/>
		<circle fill="#9B9B9B" cx="1006.089" cy="763.269" r="4.314"/>
		<circle fill="#9B9B9B" cx="1067.693" cy="763.269" r="4.314"/>
	</g>
	<rect x="1035.312" y="750.655" fill="#9B9B9B" width="3.158" height="11.076"/>
	<rect x="1033.541" y="758.979" fill="#9B9B9B" width="6.699" height="8.604"/>
	<path fill="#005493" d="M1080.047,574.973c0-6.627-5.373-12-12-12h-62.312c-6.629,0-12,5.373-12,12v102.97h86.312V574.973z"/>
	<path fill="#0085BA" d="M1082.641,680.721c0,3.414-2.768,6.182-6.184,6.182h-79.134c-3.414,0-6.182-2.768-6.182-6.182l0,0
		c0-3.415,2.768-6.183,6.182-6.183h79.134C1079.873,674.538,1082.641,677.306,1082.641,680.721L1082.641,680.721z"/>
</g>
<g>
	<g>
		<rect x="1071.239" y="630.813" fill="#FFFFFF" width="69.333" height="12.02"/>
		
			<line fill="none" stroke="#ADADAD" stroke-width="0.25" stroke-miterlimit="10" x1="1071.239" y1="631.46" x2="1140.572" y2="631.46"/>
		
			<line fill="none" stroke="#ADADAD" stroke-width="0.25" stroke-miterlimit="10" x1="1071.239" y1="632.21" x2="1140.572" y2="632.21"/>
		
			<line fill="none" stroke="#ADADAD" stroke-width="0.25" stroke-miterlimit="10" x1="1071.239" y1="632.96" x2="1140.572" y2="632.96"/>
		
			<line fill="none" stroke="#ADADAD" stroke-width="0.25" stroke-miterlimit="10" x1="1071.239" y1="633.71" x2="1140.572" y2="633.71"/>
		
			<line fill="none" stroke="#ADADAD" stroke-width="0.25" stroke-miterlimit="10" x1="1071.239" y1="634.46" x2="1140.572" y2="634.46"/>
		
			<line fill="none" stroke="#ADADAD" stroke-width="0.25" stroke-miterlimit="10" x1="1071.239" y1="635.21" x2="1140.572" y2="635.21"/>
		
			<line fill="none" stroke="#ADADAD" stroke-width="0.25" stroke-miterlimit="10" x1="1071.239" y1="635.96" x2="1140.572" y2="635.96"/>
		
			<line fill="none" stroke="#ADADAD" stroke-width="0.25" stroke-miterlimit="10" x1="1071.239" y1="636.71" x2="1140.572" y2="636.71"/>
		
			<line fill="none" stroke="#ADADAD" stroke-width="0.25" stroke-miterlimit="10" x1="1071.239" y1="637.46" x2="1140.572" y2="637.46"/>
		
			<line fill="none" stroke="#ADADAD" stroke-width="0.25" stroke-miterlimit="10" x1="1071.239" y1="638.21" x2="1140.572" y2="638.21"/>
		
			<line fill="none" stroke="#ADADAD" stroke-width="0.25" stroke-miterlimit="10" x1="1071.239" y1="638.96" x2="1140.572" y2="638.96"/>
		
			<line fill="none" stroke="#ADADAD" stroke-width="0.25" stroke-miterlimit="10" x1="1071.239" y1="639.71" x2="1140.572" y2="639.71"/>
		
			<line fill="none" stroke="#ADADAD" stroke-width="0.25" stroke-miterlimit="10" x1="1071.239" y1="640.46" x2="1140.572" y2="640.46"/>
		
			<line fill="none" stroke="#ADADAD" stroke-width="0.25" stroke-miterlimit="10" x1="1071.239" y1="641.21" x2="1140.572" y2="641.21"/>
		
			<line fill="none" stroke="#ADADAD" stroke-width="0.25" stroke-miterlimit="10" x1="1071.239" y1="641.96" x2="1140.572" y2="641.96"/>
	</g>
	<rect x="1059.572" y="650.1" fill="#BAA665" width="354.081" height="118.64"/>
	<rect x="1051.645" y="642.445" fill="#BAA665" width="369.937" height="7.654"/>
	<rect x="1059.572" y="650.1" fill="#9B8957" width="354.081" height="7.653"/>
	<g>
		<path fill="#FFFFFF" d="M1319.192,622.216c0,3.623-2.938,6.561-6.561,6.561h-96.771c-3.624,0-6.561-2.938-6.561-6.561V564.81
			c0-3.623,2.937-6.561,6.561-6.561h96.771c3.623,0,6.561,2.938,6.561,6.561V622.216z"/>
		<rect x="1250.305" y="628.776" fill="#FFFFFF" width="27.884" height="13.669"/>
		<rect x="1250.305" y="628.776" opacity="0.7" fill="#AABAB9" width="27.884" height="5.741"/>
		<circle fill="#AABAB9" cx="1264.247" cy="584.219" r="4.101"/>
		<g>
			<path fill="#AABAB9" d="M1255.226,621.765c0,0.205,0.167,0.372,0.372,0.372l0,0c0.206,0,0.373-0.167,0.373-0.372v-13.553
				c0-0.205-0.167-0.373-0.373-0.373l0,0c-0.205,0-0.372,0.168-0.372,0.373V621.765z"/>
			<path fill="#AABAB9" d="M1256.798,621.765c0,0.205,0.167,0.372,0.372,0.372l0,0c0.206,0,0.373-0.167,0.373-0.372v-13.553
				c0-0.205-0.167-0.373-0.373-0.373l0,0c-0.205,0-0.372,0.168-0.372,0.373V621.765z"/>
			<path fill="#AABAB9" d="M1258.37,621.765c0,0.205,0.167,0.372,0.373,0.372l0,0c0.206,0,0.372-0.167,0.372-0.372v-13.553
				c0-0.205-0.166-0.373-0.372-0.373l0,0c-0.206,0-0.373,0.168-0.373,0.373V621.765z"/>
			<path fill="#AABAB9" d="M1259.943,621.765c0,0.205,0.166,0.372,0.372,0.372l0,0c0.206,0,0.372-0.167,0.372-0.372v-13.553
				c0-0.205-0.166-0.373-0.372-0.373l0,0c-0.206,0-0.372,0.168-0.372,0.373V621.765z"/>
			<path fill="#AABAB9" d="M1261.516,621.765c0,0.205,0.166,0.372,0.372,0.372l0,0c0.206,0,0.372-0.167,0.372-0.372v-13.553
				c0-0.205-0.166-0.373-0.372-0.373l0,0c-0.206,0-0.372,0.168-0.372,0.373V621.765z"/>
			<path fill="#AABAB9" d="M1263.088,621.765c0,0.205,0.166,0.372,0.372,0.372l0,0c0.206,0,0.373-0.167,0.373-0.372v-13.553
				c0-0.205-0.167-0.373-0.373-0.373l0,0c-0.206,0-0.372,0.168-0.372,0.373V621.765z"/>
			<path fill="#AABAB9" d="M1264.66,621.765c0,0.205,0.167,0.372,0.373,0.372l0,0c0.205,0,0.372-0.167,0.372-0.372v-13.553
				c0-0.205-0.167-0.373-0.372-0.373l0,0c-0.206,0-0.373,0.168-0.373,0.373V621.765z"/>
			<path fill="#AABAB9" d="M1266.232,621.765c0,0.205,0.167,0.372,0.373,0.372l0,0c0.205,0,0.372-0.167,0.372-0.372v-13.553
				c0-0.205-0.167-0.373-0.372-0.373l0,0c-0.206,0-0.373,0.168-0.373,0.373V621.765z"/>
			<path fill="#AABAB9" d="M1267.805,621.765c0,0.205,0.168,0.372,0.373,0.372l0,0c0.205,0,0.372-0.167,0.372-0.372v-13.553
				c0-0.205-0.167-0.373-0.372-0.373l0,0c-0.205,0-0.373,0.168-0.373,0.373V621.765z"/>
			<path fill="#AABAB9" d="M1269.378,621.765c0,0.205,0.167,0.372,0.372,0.372l0,0c0.205,0,0.373-0.167,0.373-0.372v-13.553
				c0-0.205-0.168-0.373-0.373-0.373l0,0c-0.205,0-0.372,0.168-0.372,0.373V621.765z"/>
			<path fill="#AABAB9" d="M1270.95,621.765c0,0.205,0.167,0.372,0.372,0.372l0,0c0.207,0,0.373-0.167,0.373-0.372v-13.553
				c0-0.205-0.166-0.373-0.373-0.373l0,0c-0.205,0-0.372,0.168-0.372,0.373V621.765z"/>
			<path fill="#AABAB9" d="M1272.523,621.765c0,0.205,0.166,0.372,0.371,0.372l0,0c0.207,0,0.373-0.167,0.373-0.372v-13.553
				c0-0.205-0.166-0.373-0.373-0.373l0,0c-0.205,0-0.371,0.168-0.371,0.373V621.765z"/>
		</g>
	</g>
	<g>
		<path fill="#326600" d="M1367.013,619.357c-1.549,1.55-4.062,1.55-5.611,0l-0.78-0.779c-1.55-1.55-1.55-4.062,0-5.612l8.574-8.574
			c1.55-1.55,4.062-1.551,5.612,0l0.78,0.779c1.55,1.55,1.549,4.062,0,5.613L1367.013,619.357z"/>
		<path fill="#326600" d="M1364.388,608.417c1.549,1.549,1.549,4.062,0,5.611l-0.78,0.78c-1.55,1.55-4.062,1.55-5.612,0
			l-13.74-13.741c-1.551-1.551-1.551-4.062,0-5.612l0.779-0.78c1.55-1.549,4.062-1.549,5.612,0L1364.388,608.417z"/>
		<path fill="#3A7C00" d="M1368.104,616.567c0,3.623-2.937,6.561-6.561,6.561h-1.822c-3.624,0-6.562-2.938-6.562-6.561v-20.047
			c0-3.623,2.938-6.561,6.562-6.561h1.822c3.624,0,6.561,2.938,6.561,6.561V616.567z"/>
		<path fill="#DB4928" d="M1346.008,639.165c0,1.812,1.469,3.28,3.28,3.28h23.1c1.812,0,3.28-1.468,3.28-3.28v-23.308h-29.66
			V639.165z"/>
	</g>
	<g>
		<rect x="1148.853" y="634.779" fill="#469DD3" width="52.039" height="7.666"/>
		<rect x="1191.829" y="634.779" fill="#ACF1FC" width="2.562" height="7.666"/>
		<rect x="1187.079" y="634.779" fill="#ACF1FC" width="2.562" height="7.666"/>
		<rect x="1151.853" y="634.779" fill="#ACF1FC" width="12.039" height="7.666"/>
	</g>
	<g>
		<rect x="1083.808" y="614.312" fill="#2A770E" width="52.039" height="5.834"/>
		<rect x="1105.941" y="616.062" fill="#393A0C" width="27.5" height="2.334"/>
	</g>
	<g>
		<rect x="1099.165" y="603.645" fill="#EA005F" width="38.873" height="10.667"/>
		<rect x="1104.852" y="606.271" fill="#211B23" width="6.658" height="5.625"/>
	</g>
	<g>
		<rect x="1087.693" y="620.146" fill="#8E5517" width="45.539" height="10.667"/>
		<rect x="1119.913" y="620.146" fill="#C6CC79" width="5.125" height="10.667"/>
		<rect x="1094.126" y="620.146" fill="#C6CC79" width="1.162" height="10.667"/>
	</g>
</g>
<g>
	<rect x="1508.469" y="406.879" fill="#5E5E5E" width="293.508" height="361.86"/>
	<rect x="1520.345" y="417.606" fill="#3F434C" width="269.757" height="74.76"/>
	<rect x="1520.345" y="505.922" fill="#3F434C" width="269.757" height="74.76"/>
	<rect x="1520.345" y="594.238" fill="#3F434C" width="269.757" height="74.76"/>
	<rect x="1520.345" y="682.553" fill="#3F434C" width="269.757" height="74.76"/>
</g>
<g>
	<rect x="1526.84" y="565.134" fill="#F7D21C" width="56.116" height="15.548"/>
	<rect x="1556.659" y="568.527" fill="#F4F4F4" width="22.069" height="8.761"/>
	<rect x="1574.644" y="568.527" fill="#8C9596" width="4.338" height="8.761"/>
	<g>
		
			<line fill="none" stroke="#287BBF" stroke-width="0.25" stroke-miterlimit="10" x1="1559.522" y1="576.302" x2="1559.522" y2="569.562"/>
		
			<line fill="none" stroke="#287BBF" stroke-width="0.25" stroke-miterlimit="10" x1="1561.882" y1="576.302" x2="1561.882" y2="569.562"/>
		
			<line fill="none" stroke="#287BBF" stroke-width="0.25" stroke-miterlimit="10" x1="1564.24" y1="576.302" x2="1564.24" y2="569.562"/>
		
			<line fill="none" stroke="#287BBF" stroke-width="0.25" stroke-miterlimit="10" x1="1566.599" y1="576.302" x2="1566.599" y2="569.562"/>
		
			<line fill="none" stroke="#287BBF" stroke-width="0.25" stroke-miterlimit="10" x1="1568.957" y1="576.302" x2="1568.957" y2="569.562"/>
		
			<line fill="none" stroke="#287BBF" stroke-width="0.25" stroke-miterlimit="10" x1="1571.315" y1="576.302" x2="1571.315" y2="569.562"/>
	</g>
	<g>
		<circle fill="#C1D6D6" cx="1536.461" cy="572.962" r="3.665"/>
		<circle fill="#515859" cx="1536.461" cy="572.907" r="2.948"/>
	</g>
</g>
<g>
	
		<rect x="1769.043" y="611.839" transform="matrix(0.9789 0.2043 -0.2043 0.9789 168.1567 -349.4254)" fill="#1F98EA" width="15.548" height="56.116"/>
	
		<rect x="1769.824" y="641.389" transform="matrix(0.9789 0.2042 -0.2042 0.9789 170.6217 -348.5657)" fill="#F4F4F4" width="8.761" height="22.07"/>
	
		<rect x="1767.96" y="659.182" transform="matrix(0.9789 0.2042 -0.2042 0.9789 172.4053 -347.9971)" fill="#8C9596" width="8.761" height="4.338"/>
	<g>
		
			<line fill="none" stroke="#287BBF" stroke-width="0.25" stroke-miterlimit="10" x1="1772.553" y1="643.731" x2="1779.148" y2="645.108"/>
		
			<line fill="none" stroke="#287BBF" stroke-width="0.25" stroke-miterlimit="10" x1="1772.068" y1="646.042" x2="1778.666" y2="647.418"/>
		
			<line fill="none" stroke="#287BBF" stroke-width="0.25" stroke-miterlimit="10" x1="1771.588" y1="648.351" x2="1778.184" y2="649.727"/>
		
			<line fill="none" stroke="#287BBF" stroke-width="0.25" stroke-miterlimit="10" x1="1771.107" y1="650.659" x2="1777.703" y2="652.035"/>
		
			<line fill="none" stroke="#287BBF" stroke-width="0.25" stroke-miterlimit="10" x1="1770.625" y1="652.968" x2="1777.221" y2="654.345"/>
		
			<line fill="none" stroke="#287BBF" stroke-width="0.25" stroke-miterlimit="10" x1="1770.143" y1="655.276" x2="1776.738" y2="656.653"/>
	</g>
	<g>
		<circle fill="#C1D6D6" cx="1780.53" cy="621.838" r="3.664"/>
		<circle fill="#515859" cx="1780.583" cy="621.85" r="2.948"/>
	</g>
</g>
<g>
	
		<rect x="1746.286" y="612.291" transform="matrix(0.8969 0.4423 -0.4423 0.8969 464.1766 -709.8264)" fill="#1F98EA" width="15.547" height="56.117"/>
	
		<rect x="1744.019" y="640.791" transform="matrix(0.8969 0.4422 -0.4422 0.8969 468.4896 -705.97)" fill="#F4F4F4" width="8.763" height="22.07"/>
	
		<rect x="1739.987" y="657.835" transform="matrix(0.8969 0.4422 -0.4422 0.8969 471.6885 -703.3416)" fill="#8C9596" width="8.761" height="4.338"/>
	<g>
		
			<line fill="none" stroke="#287BBF" stroke-width="0.25" stroke-miterlimit="10" x1="1748.973" y1="642.996" x2="1755.014" y2="645.977"/>
		
			<line fill="none" stroke="#287BBF" stroke-width="0.25" stroke-miterlimit="10" x1="1747.928" y1="645.112" x2="1753.971" y2="648.093"/>
		
			<line fill="none" stroke="#287BBF" stroke-width="0.25" stroke-miterlimit="10" x1="1746.885" y1="647.228" x2="1752.928" y2="650.208"/>
		
			<line fill="none" stroke="#287BBF" stroke-width="0.25" stroke-miterlimit="10" x1="1745.842" y1="649.343" x2="1751.885" y2="652.323"/>
		
			<line fill="none" stroke="#287BBF" stroke-width="0.25" stroke-miterlimit="10" x1="1744.799" y1="651.458" x2="1750.842" y2="654.438"/>
		
			<line fill="none" stroke="#287BBF" stroke-width="0.25" stroke-miterlimit="10" x1="1743.756" y1="653.573" x2="1749.799" y2="656.554"/>
	</g>
	<g>
		<circle fill="#C1D6D6" cx="1762.165" cy="623.79" r="3.664"/>
		<circle fill="#515859" cx="1762.214" cy="623.814" r="2.948"/>
	</g>
</g>
<g>
	
		<rect x="1721.745" y="614.284" transform="matrix(0.7724 0.6352 -0.6352 0.7724 801.701 -952.3337)" fill="#1F98EA" width="15.547" height="56.117"/>
	
		<rect x="1717.01" y="641.192" transform="matrix(0.7724 0.6351 -0.6351 0.7724 805.9773 -944.8344)" fill="#F4F4F4" width="8.761" height="22.07"/>
	
		<rect x="1711.218" y="657.1" transform="matrix(0.7723 0.6352 -0.6352 0.7723 809.3583 -939.6807)" fill="#8C9596" width="8.76" height="4.339"/>
	<g>
		
			<line fill="none" stroke="#287BBF" stroke-width="0.25" stroke-miterlimit="10" x1="1723.961" y1="643.76" x2="1729.164" y2="648.04"/>
		
			<line fill="none" stroke="#287BBF" stroke-width="0.25" stroke-miterlimit="10" x1="1722.461" y1="645.582" x2="1727.666" y2="649.862"/>
		
			<line fill="none" stroke="#287BBF" stroke-width="0.25" stroke-miterlimit="10" x1="1720.963" y1="647.403" x2="1726.166" y2="651.684"/>
		
			<line fill="none" stroke="#287BBF" stroke-width="0.25" stroke-miterlimit="10" x1="1719.467" y1="649.226" x2="1724.67" y2="653.506"/>
		
			<line fill="none" stroke="#287BBF" stroke-width="0.25" stroke-miterlimit="10" x1="1717.967" y1="651.047" x2="1723.172" y2="655.327"/>
		
			<line fill="none" stroke="#287BBF" stroke-width="0.25" stroke-miterlimit="10" x1="1716.469" y1="652.868" x2="1721.674" y2="657.149"/>
	</g>
	<g>
		<circle fill="#C1D6D6" cx="1741.186" cy="628.068" r="3.664"/>
		<circle fill="#515859" cx="1741.229" cy="628.104" r="2.948"/>
	</g>
</g>
<g>
	<rect x="1526.839" y="533.741" fill="#1B4F1B" width="56.117" height="15.549"/>
	<rect x="1531.067" y="537.136" fill="#F4F4F4" width="22.068" height="8.76"/>
	<rect x="1530.813" y="537.136" fill="#8C9596" width="4.338" height="8.76"/>
	<g>
		
			<line fill="none" stroke="#287BBF" stroke-width="0.25" stroke-miterlimit="10" x1="1550.272" y1="544.909" x2="1550.272" y2="538.171"/>
		
			<line fill="none" stroke="#287BBF" stroke-width="0.25" stroke-miterlimit="10" x1="1547.913" y1="544.909" x2="1547.913" y2="538.171"/>
		
			<line fill="none" stroke="#287BBF" stroke-width="0.25" stroke-miterlimit="10" x1="1545.556" y1="544.909" x2="1545.556" y2="538.171"/>
		
			<line fill="none" stroke="#287BBF" stroke-width="0.25" stroke-miterlimit="10" x1="1543.196" y1="544.909" x2="1543.196" y2="538.171"/>
		
			<line fill="none" stroke="#287BBF" stroke-width="0.25" stroke-miterlimit="10" x1="1540.839" y1="544.909" x2="1540.839" y2="538.171"/>
		
			<line fill="none" stroke="#287BBF" stroke-width="0.25" stroke-miterlimit="10" x1="1538.479" y1="544.909" x2="1538.479" y2="538.171"/>
	</g>
	<g>
		<circle fill="#C1D6D6" cx="1573.335" cy="541.57" r="3.664"/>
		<circle fill="#515859" cx="1573.335" cy="541.516" r="2.948"/>
	</g>
</g>
<g>
	<rect x="1533.824" y="549.391" fill="#DB4928" width="56.116" height="15.548"/>
	<rect x="1563.644" y="552.784" fill="#F4F4F4" width="22.069" height="8.761"/>
	<rect x="1581.628" y="552.784" fill="#8C9596" width="4.338" height="8.761"/>
	<g>
		
			<line fill="none" stroke="#287BBF" stroke-width="0.25" stroke-miterlimit="10" x1="1566.507" y1="560.559" x2="1566.507" y2="553.819"/>
		
			<line fill="none" stroke="#287BBF" stroke-width="0.25" stroke-miterlimit="10" x1="1568.866" y1="560.559" x2="1568.866" y2="553.819"/>
		
			<line fill="none" stroke="#287BBF" stroke-width="0.25" stroke-miterlimit="10" x1="1571.225" y1="560.559" x2="1571.225" y2="553.819"/>
		
			<line fill="none" stroke="#287BBF" stroke-width="0.25" stroke-miterlimit="10" x1="1573.583" y1="560.559" x2="1573.583" y2="553.819"/>
		
			<line fill="none" stroke="#287BBF" stroke-width="0.25" stroke-miterlimit="10" x1="1575.941" y1="560.559" x2="1575.941" y2="553.819"/>
		
			<line fill="none" stroke="#287BBF" stroke-width="0.25" stroke-miterlimit="10" x1="1578.3" y1="560.559" x2="1578.3" y2="553.819"/>
	</g>
	<g>
		<circle fill="#C1D6D6" cx="1543.445" cy="557.22" r="3.664"/>
		<circle fill="#515859" cx="1543.445" cy="557.165" r="2.948"/>
	</g>
</g>
<g>
	<rect x="1521.895" y="436.25" fill="#F7D21C" width="15.548" height="56.116"/>
	<rect x="1525.288" y="466.069" fill="#F4F4F4" width="8.761" height="22.069"/>
	<rect x="1525.288" y="484.054" fill="#8C9596" width="8.761" height="4.338"/>
	<g>
		
			<line fill="none" stroke="#287BBF" stroke-width="0.25" stroke-miterlimit="10" x1="1526.274" y1="468.933" x2="1533.014" y2="468.933"/>
		
			<line fill="none" stroke="#287BBF" stroke-width="0.25" stroke-miterlimit="10" x1="1526.274" y1="471.292" x2="1533.014" y2="471.292"/>
		
			<line fill="none" stroke="#287BBF" stroke-width="0.25" stroke-miterlimit="10" x1="1526.274" y1="473.65" x2="1533.014" y2="473.65"/>
		
			<line fill="none" stroke="#287BBF" stroke-width="0.25" stroke-miterlimit="10" x1="1526.274" y1="476.009" x2="1533.014" y2="476.009"/>
		
			<line fill="none" stroke="#287BBF" stroke-width="0.25" stroke-miterlimit="10" x1="1526.274" y1="478.367" x2="1533.014" y2="478.367"/>
		
			<line fill="none" stroke="#287BBF" stroke-width="0.25" stroke-miterlimit="10" x1="1526.274" y1="480.726" x2="1533.014" y2="480.726"/>
	</g>
	<g>
		<circle fill="#C1D6D6" cx="1529.614" cy="445.871" r="3.665"/>
		<circle fill="#515859" cx="1529.669" cy="445.871" r="2.948"/>
	</g>
</g>
<g>
	<rect x="1770.41" y="436.25" fill="#F7D21C" width="15.547" height="56.116"/>
	<rect x="1773.803" y="466.069" fill="#F4F4F4" width="8.762" height="22.069"/>
	<rect x="1773.803" y="484.054" fill="#8C9596" width="8.762" height="4.338"/>
	<g>
		
			<line fill="none" stroke="#287BBF" stroke-width="0.25" stroke-miterlimit="10" x1="1774.789" y1="468.933" x2="1781.529" y2="468.933"/>
		
			<line fill="none" stroke="#287BBF" stroke-width="0.25" stroke-miterlimit="10" x1="1774.789" y1="471.292" x2="1781.529" y2="471.292"/>
		
			<line fill="none" stroke="#287BBF" stroke-width="0.25" stroke-miterlimit="10" x1="1774.789" y1="473.65" x2="1781.529" y2="473.65"/>
		
			<line fill="none" stroke="#287BBF" stroke-width="0.25" stroke-miterlimit="10" x1="1774.789" y1="476.009" x2="1781.529" y2="476.009"/>
		
			<line fill="none" stroke="#287BBF" stroke-width="0.25" stroke-miterlimit="10" x1="1774.789" y1="478.367" x2="1781.529" y2="478.367"/>
		
			<line fill="none" stroke="#287BBF" stroke-width="0.25" stroke-miterlimit="10" x1="1774.789" y1="480.726" x2="1781.529" y2="480.726"/>
	</g>
	<g>
		<circle fill="#C1D6D6" cx="1778.129" cy="445.871" r="3.664"/>
		<circle fill="#515859" cx="1778.185" cy="445.871" r="2.948"/>
	</g>
</g>
<g>
	
		<rect x="1541.78" y="435.324" transform="matrix(0.9884 -0.1521 0.1521 0.9884 -52.443 241.0168)" fill="#1F98EA" width="15.548" height="56.116"/>
	
		<rect x="1547.12" y="464.995" transform="matrix(0.9884 -0.152 0.152 0.9884 -54.3385 241.4249)" fill="#F4F4F4" width="8.761" height="22.069"/>
	
		<rect x="1548.506" y="482.873" transform="matrix(0.9884 -0.1522 0.1522 0.9884 -55.7234 241.945)" fill="#8C9596" width="8.76" height="4.337"/>
	<g>
		
			<line fill="none" stroke="#287BBF" stroke-width="0.25" stroke-miterlimit="10" x1="1546.903" y1="468.47" x2="1553.562" y2="467.444"/>
		
			<line fill="none" stroke="#287BBF" stroke-width="0.25" stroke-miterlimit="10" x1="1547.262" y1="470.801" x2="1553.922" y2="469.776"/>
		
			<line fill="none" stroke="#287BBF" stroke-width="0.25" stroke-miterlimit="10" x1="1547.621" y1="473.132" x2="1554.28" y2="472.107"/>
		
			<line fill="none" stroke="#287BBF" stroke-width="0.25" stroke-miterlimit="10" x1="1547.979" y1="475.463" x2="1554.64" y2="474.438"/>
		
			<line fill="none" stroke="#287BBF" stroke-width="0.25" stroke-miterlimit="10" x1="1548.338" y1="477.794" x2="1554.998" y2="476.769"/>
		
			<line fill="none" stroke="#287BBF" stroke-width="0.25" stroke-miterlimit="10" x1="1548.697" y1="480.125" x2="1555.356" y2="479.101"/>
	</g>
	<g>
		<circle fill="#C1D6D6" cx="1546.695" cy="445.168" r="3.664"/>
		<circle fill="#515859" cx="1546.75" cy="445.16" r="2.948"/>
	</g>
</g>
<g>
	
		<rect x="1564.895" y="435.325" transform="matrix(0.9105 -0.4135 0.4135 0.9105 -50.8518 691.8373)" fill="#1B4F1B" width="15.548" height="56.116"/>
	
		<rect x="1573.582" y="463.999" transform="matrix(0.9105 -0.4135 0.4135 0.9105 -55.2151 694.9265)" fill="#F4F4F4" width="8.76" height="22.069"/>
	
		<rect x="1577.353" y="481.166" transform="matrix(0.9105 -0.4136 0.4136 0.9105 -58.2885 697.395)" fill="#8C9596" width="8.761" height="4.338"/>
	<g>
		
			<line fill="none" stroke="#287BBF" stroke-width="0.25" stroke-miterlimit="10" x1="1571.492" y1="468.996" x2="1577.628" y2="466.21"/>
		
			<line fill="none" stroke="#287BBF" stroke-width="0.25" stroke-miterlimit="10" x1="1572.469" y1="471.145" x2="1578.604" y2="468.357"/>
		
			<line fill="none" stroke="#287BBF" stroke-width="0.25" stroke-miterlimit="10" x1="1573.443" y1="473.292" x2="1579.579" y2="470.505"/>
		
			<line fill="none" stroke="#287BBF" stroke-width="0.25" stroke-miterlimit="10" x1="1574.419" y1="475.438" x2="1580.555" y2="472.652"/>
		
			<line fill="none" stroke="#287BBF" stroke-width="0.25" stroke-miterlimit="10" x1="1575.395" y1="477.586" x2="1581.529" y2="474.8"/>
		
			<line fill="none" stroke="#287BBF" stroke-width="0.25" stroke-miterlimit="10" x1="1576.369" y1="479.733" x2="1582.505" y2="476.946"/>
	</g>
	<g>
		<circle fill="#C1D6D6" cx="1564.995" cy="446.619" r="3.664"/>
		<circle fill="#515859" cx="1565.045" cy="446.596" r="2.948"/>
	</g>
</g>
<g>
	<rect x="1591.352" y="436.25" fill="#DB4928" width="15.548" height="56.116"/>
	<rect x="1594.745" y="466.069" fill="#F4F4F4" width="8.761" height="22.069"/>
	<rect x="1594.745" y="484.054" fill="#8C9596" width="8.761" height="4.338"/>
	<g>
		
			<line fill="none" stroke="#287BBF" stroke-width="0.25" stroke-miterlimit="10" x1="1595.731" y1="468.933" x2="1602.471" y2="468.933"/>
		
			<line fill="none" stroke="#287BBF" stroke-width="0.25" stroke-miterlimit="10" x1="1595.731" y1="471.292" x2="1602.471" y2="471.292"/>
		
			<line fill="none" stroke="#287BBF" stroke-width="0.25" stroke-miterlimit="10" x1="1595.731" y1="473.65" x2="1602.471" y2="473.65"/>
		
			<line fill="none" stroke="#287BBF" stroke-width="0.25" stroke-miterlimit="10" x1="1595.731" y1="476.009" x2="1602.471" y2="476.009"/>
		
			<line fill="none" stroke="#287BBF" stroke-width="0.25" stroke-miterlimit="10" x1="1595.731" y1="478.367" x2="1602.471" y2="478.367"/>
		
			<line fill="none" stroke="#287BBF" stroke-width="0.25" stroke-miterlimit="10" x1="1595.731" y1="480.726" x2="1602.471" y2="480.726"/>
	</g>
	<g>
		<circle fill="#C1D6D6" cx="1599.07" cy="445.871" r="3.664"/>
		<circle fill="#515859" cx="1599.125" cy="445.871" r="2.948"/>
	</g>
</g>
<g>
	<rect x="1749.438" y="436.25" fill="#DB4928" width="15.547" height="56.116"/>
	<rect x="1752.83" y="466.069" fill="#F4F4F4" width="8.762" height="22.069"/>
	<rect x="1752.83" y="484.054" fill="#8C9596" width="8.762" height="4.338"/>
	<g>
		
			<line fill="none" stroke="#287BBF" stroke-width="0.25" stroke-miterlimit="10" x1="1753.816" y1="468.933" x2="1760.557" y2="468.933"/>
		
			<line fill="none" stroke="#287BBF" stroke-width="0.25" stroke-miterlimit="10" x1="1753.816" y1="471.292" x2="1760.557" y2="471.292"/>
		
			<line fill="none" stroke="#287BBF" stroke-width="0.25" stroke-miterlimit="10" x1="1753.816" y1="473.65" x2="1760.557" y2="473.65"/>
		
			<line fill="none" stroke="#287BBF" stroke-width="0.25" stroke-miterlimit="10" x1="1753.816" y1="476.009" x2="1760.557" y2="476.009"/>
		
			<line fill="none" stroke="#287BBF" stroke-width="0.25" stroke-miterlimit="10" x1="1753.816" y1="478.367" x2="1760.557" y2="478.367"/>
		
			<line fill="none" stroke="#287BBF" stroke-width="0.25" stroke-miterlimit="10" x1="1753.816" y1="480.726" x2="1760.557" y2="480.726"/>
	</g>
	<g>
		<circle fill="#C1D6D6" cx="1757.156" cy="445.871" r="3.664"/>
		<circle fill="#515859" cx="1757.21" cy="445.871" r="2.948"/>
	</g>
</g>
<g>
	<rect x="2341.012" y="726.013" fill="#9B9B9B" width="10.35" height="27.193"/>
	<rect x="2344.236" y="677.4" fill="#9B9B9B" width="3.898" height="54.005"/>
	
		<rect x="2391.176" y="626.924" transform="matrix(0.9767 0.2147 -0.2147 0.9767 196.2383 -498.6173)" fill="#9B9B9B" width="3.898" height="54.004"/>
	<g>
		
			<rect x="2359.545" y="738.69" transform="matrix(0.2711 -0.9625 0.9625 0.2711 993.4578 2823.3967)" fill="#9B9B9B" width="2.86" height="34.088"/>
		
			<rect x="2330.003" y="738.689" transform="matrix(-0.2711 -0.9625 0.9625 -0.2711 2236.0811 3204.7371)" fill="#9B9B9B" width="2.86" height="34.09"/>
		<circle fill="#9B9B9B" cx="2315.383" cy="763.269" r="4.314"/>
		<circle fill="#9B9B9B" cx="2376.988" cy="763.269" r="4.314"/>
	</g>
	<rect x="2344.607" y="750.655" fill="#9B9B9B" width="3.158" height="11.076"/>
	<rect x="2342.836" y="758.979" fill="#9B9B9B" width="6.699" height="8.604"/>
	<path fill="#0085BA" d="M2391.936,680.721c0,3.414-2.768,6.182-6.184,6.182h-79.135c-3.414,0-6.182-2.768-6.182-6.182l0,0
		c0-3.415,2.768-6.183,6.182-6.183h79.135C2389.168,674.538,2391.936,677.306,2391.936,680.721L2391.936,680.721z"/>
	<path fill="#005493" d="M2396.277,665.036c-0.689,2.954-3.645,4.792-6.6,4.104l0,0c-2.957-0.69-4.793-3.646-4.104-6.602
		l23.416-100.35c0.689-2.956,3.645-4.791,6.602-4.102l0,0c2.955,0.689,4.791,3.644,4.102,6.6L2396.277,665.036z"/>
</g>
<g>
	<circle fill="#303030" cx="1987.623" cy="350.764" r="43.846"/>
	<circle fill="#FFFFFF" cx="1987.36" cy="350.764" r="38.12"/>
	<circle fill="#303030" cx="1987.623" cy="350.764" r="3.381"/>
	<rect x="1986.045" y="329.21" fill="#303030" width="2.824" height="21.554"/>
	
		<rect x="1982.775" y="350.457" transform="matrix(0.9629 0.2697 -0.2697 0.9629 172.0468 -521.4731)" fill="#303030" width="1.651" height="29.728"/>
</g>
<g>
	<g>
		<path fill="#B3C7CE" d="M311.745,735.122c0,2.31-1.872,4.182-4.182,4.182H180.938c-2.31,0-4.182-1.872-4.182-4.182v-77.357
			c0-2.309,1.872-4.182,4.182-4.182h126.625c2.31,0,4.182,1.873,4.182,4.182V735.122z"/>
		<rect x="307.423" y="720.739" fill="#B3C7CE" width="12.589" height="10.666"/>
	</g>
	<g>
		<path fill="#AABAB9" d="M180.938,744.001c0,1.443,1.17,2.613,2.614,2.613l0,0c1.443,0,2.613-1.17,2.613-2.613v-95.115
			c0-1.443-1.17-2.613-2.613-2.613l0,0c-1.444,0-2.614,1.17-2.614,2.613V744.001z"/>
		<path fill="#AABAB9" d="M191.975,744.001c0,1.443,1.17,2.613,2.614,2.613l0,0c1.443,0,2.613-1.17,2.613-2.613v-95.115
			c0-1.443-1.17-2.613-2.613-2.613l0,0c-1.444,0-2.614,1.17-2.614,2.613V744.001z"/>
		<path fill="#AABAB9" d="M203.011,744.001c0,1.443,1.17,2.613,2.613,2.613l0,0c1.444,0,2.614-1.17,2.614-2.613v-95.115
			c0-1.443-1.17-2.613-2.614-2.613l0,0c-1.443,0-2.613,1.17-2.613,2.613V744.001z"/>
		<path fill="#AABAB9" d="M214.047,744.001c0,1.443,1.17,2.613,2.614,2.613l0,0c1.443,0,2.613-1.17,2.613-2.613v-95.115
			c0-1.443-1.17-2.613-2.613-2.613l0,0c-1.444,0-2.614,1.17-2.614,2.613V744.001z"/>
		<path fill="#AABAB9" d="M225.083,744.001c0,1.443,1.17,2.613,2.614,2.613l0,0c1.443,0,2.613-1.17,2.613-2.613v-95.115
			c0-1.443-1.17-2.613-2.613-2.613l0,0c-1.444,0-2.614,1.17-2.614,2.613V744.001z"/>
		<path fill="#AABAB9" d="M236.119,744.001c0,1.443,1.17,2.613,2.614,2.613l0,0c1.443,0,2.613-1.17,2.613-2.613v-95.115
			c0-1.443-1.17-2.613-2.613-2.613l0,0c-1.444,0-2.614,1.17-2.614,2.613V744.001z"/>
		<path fill="#AABAB9" d="M247.155,744.001c0,1.443,1.17,2.613,2.614,2.613l0,0c1.443,0,2.613-1.17,2.613-2.613v-95.115
			c0-1.443-1.17-2.613-2.613-2.613l0,0c-1.444,0-2.614,1.17-2.614,2.613V744.001z"/>
		<path fill="#AABAB9" d="M258.191,744.001c0,1.443,1.17,2.613,2.614,2.613l0,0c1.443,0,2.613-1.17,2.613-2.613v-95.115
			c0-1.443-1.17-2.613-2.613-2.613l0,0c-1.444,0-2.614,1.17-2.614,2.613V744.001z"/>
		<path fill="#AABAB9" d="M269.228,744.001c0,1.443,1.17,2.613,2.614,2.613l0,0c1.443,0,2.613-1.17,2.613-2.613v-95.115
			c0-1.443-1.17-2.613-2.613-2.613l0,0c-1.444,0-2.614,1.17-2.614,2.613V744.001z"/>
		<path fill="#AABAB9" d="M280.264,744.001c0,1.443,1.171,2.613,2.614,2.613l0,0c1.443,0,2.613-1.17,2.613-2.613v-95.115
			c0-1.443-1.17-2.613-2.613-2.613l0,0c-1.443,0-2.614,1.17-2.614,2.613V744.001z"/>
		<path fill="#AABAB9" d="M291.3,744.001c0,1.443,1.17,2.613,2.614,2.613l0,0c1.443,0,2.613-1.17,2.613-2.613v-95.115
			c0-1.443-1.17-2.613-2.613-2.613l0,0c-1.444,0-2.614,1.17-2.614,2.613V744.001z"/>
		<path fill="#AABAB9" d="M302.336,744.001c0,1.443,1.171,2.613,2.614,2.613l0,0c1.443,0,2.613-1.17,2.613-2.613v-95.115
			c0-1.443-1.17-2.613-2.613-2.613l0,0c-1.443,0-2.614,1.17-2.614,2.613V744.001z"/>
	</g>
</g>
<path fill="#B3C7CE" d="M1894.115,735.122c0,2.31,1.873,4.182,4.182,4.182h126.625c2.311,0,4.182-1.872,4.182-4.182v-77.357
	c0-2.309-1.871-4.182-4.182-4.182h-126.625c-2.309,0-4.182,1.873-4.182,4.182V735.122z"/>
<rect x="1885.848" y="720.739" fill="#B3C7CE" width="12.59" height="10.666"/>
<rect x="2024.922" y="720.739" fill="#B3C7CE" width="12.59" height="10.666"/>
<g>
	<path fill="#AABAB9" d="M2024.922,744.001c0,1.443-1.17,2.613-2.613,2.613l0,0c-1.443,0-2.613-1.17-2.613-2.613v-95.115
		c0-1.443,1.17-2.613,2.613-2.613l0,0c1.443,0,2.613,1.17,2.613,2.613V744.001z"/>
	<path fill="#AABAB9" d="M2013.887,744.001c0,1.443-1.17,2.613-2.615,2.613l0,0c-1.443,0-2.613-1.17-2.613-2.613v-95.115
		c0-1.443,1.17-2.613,2.613-2.613l0,0c1.445,0,2.615,1.17,2.615,2.613V744.001z"/>
	<path fill="#AABAB9" d="M2002.85,744.001c0,1.443-1.17,2.613-2.613,2.613l0,0c-1.443,0-2.613-1.17-2.613-2.613v-95.115
		c0-1.443,1.17-2.613,2.613-2.613l0,0c1.443,0,2.613,1.17,2.613,2.613V744.001z"/>
	<path fill="#AABAB9" d="M1991.814,744.001c0,1.443-1.17,2.613-2.615,2.613l0,0c-1.443,0-2.613-1.17-2.613-2.613v-95.115
		c0-1.443,1.17-2.613,2.613-2.613l0,0c1.445,0,2.615,1.17,2.615,2.613V744.001z"/>
	<path fill="#AABAB9" d="M1980.777,744.001c0,1.443-1.17,2.613-2.613,2.613l0,0c-1.443,0-2.613-1.17-2.613-2.613v-95.115
		c0-1.443,1.17-2.613,2.613-2.613l0,0c1.443,0,2.613,1.17,2.613,2.613V744.001z"/>
	<path fill="#AABAB9" d="M1969.742,744.001c0,1.443-1.17,2.613-2.615,2.613l0,0c-1.443,0-2.613-1.17-2.613-2.613v-95.115
		c0-1.443,1.17-2.613,2.613-2.613l0,0c1.445,0,2.615,1.17,2.615,2.613V744.001z"/>
	<path fill="#AABAB9" d="M1958.705,744.001c0,1.443-1.17,2.613-2.613,2.613l0,0c-1.443,0-2.613-1.17-2.613-2.613v-95.115
		c0-1.443,1.17-2.613,2.613-2.613l0,0c1.443,0,2.613,1.17,2.613,2.613V744.001z"/>
	<path fill="#AABAB9" d="M1947.67,744.001c0,1.443-1.17,2.613-2.615,2.613l0,0c-1.443,0-2.613-1.17-2.613-2.613v-95.115
		c0-1.443,1.17-2.613,2.613-2.613l0,0c1.445,0,2.615,1.17,2.615,2.613V744.001z"/>
	<path fill="#AABAB9" d="M1936.633,744.001c0,1.443-1.17,2.613-2.613,2.613l0,0c-1.443,0-2.613-1.17-2.613-2.613v-95.115
		c0-1.443,1.17-2.613,2.613-2.613l0,0c1.443,0,2.613,1.17,2.613,2.613V744.001z"/>
	<path fill="#AABAB9" d="M1925.598,744.001c0,1.443-1.172,2.613-2.615,2.613l0,0c-1.443,0-2.613-1.17-2.613-2.613v-95.115
		c0-1.443,1.17-2.613,2.613-2.613l0,0c1.443,0,2.615,1.17,2.615,2.613V744.001z"/>
	<path fill="#AABAB9" d="M1914.561,744.001c0,1.443-1.17,2.613-2.613,2.613l0,0c-1.443,0-2.613-1.17-2.613-2.613v-95.115
		c0-1.443,1.17-2.613,2.613-2.613l0,0c1.443,0,2.613,1.17,2.613,2.613V744.001z"/>
	<path fill="#AABAB9" d="M1903.525,744.001c0,1.443-1.172,2.613-2.615,2.613l0,0c-1.443,0-2.613-1.17-2.613-2.613v-95.115
		c0-1.443,1.17-2.613,2.613-2.613l0,0c1.443,0,2.615,1.17,2.615,2.613V744.001z"/>
</g>
<g>
	<rect x="2083.021" y="650.1" fill="#BAA665" width="195.186" height="118.64"/>
	<rect x="2075.094" y="642.445" fill="#BAA665" width="211.041" height="7.654"/>
	<rect x="2083.021" y="650.1" fill="#9B8957" width="195.186" height="7.653"/>
	<g>
		<rect x="2177.559" y="622.364" fill="#FFFFFF" width="63.25" height="16.875"/>
		<path fill="#0D6BB2" d="M2179.164,626.251c0.006-0.09,0.033-0.173,0.043-0.262h-10.273v16.456h76.281v-6.976l-61.123-3.664
			C2181.197,631.632,2178.992,629.146,2179.164,626.251z"/>
	</g>
	<path fill="#FFFFFF" d="M2266.188,640.843c0,0.885-0.719,1.603-1.604,1.603h-47.543c-0.887,0-1.604-0.718-1.604-1.603l0,0
		c0-0.886,0.717-1.604,1.604-1.604h47.543C2265.469,639.239,2266.188,639.957,2266.188,640.843L2266.188,640.843z"/>
	<g>
		<g>
			
				<rect x="2121.314" y="545.671" transform="matrix(-0.9652 -0.2616 0.2616 -0.9652 4020.0647 1687.5325)" fill="#7AB200" width="2.09" height="61.017"/>
			<circle fill="#EF6326" cx="2131.96" cy="547.171" r="2.508"/>
			<circle fill="#EF6326" cx="2129.39" cy="556.649" r="2.507"/>
			<circle fill="#EF6326" cx="2126.818" cy="566.126" r="2.507"/>
			<circle fill="#EF6326" cx="2124.248" cy="575.603" r="2.507"/>
			<circle fill="#EF6326" cx="2121.678" cy="585.079" r="2.507"/>
			<circle fill="#EF6326" cx="2126.816" cy="550.973" r="2.507"/>
			<circle fill="#EF6326" cx="2124.246" cy="560.45" r="2.507"/>
			<circle fill="#EF6326" cx="2121.676" cy="569.927" r="2.507"/>
			<circle fill="#EF6326" cx="2119.105" cy="579.403" r="2.507"/>
		</g>
		<g>
			
				<rect x="2104.302" y="543.04" transform="matrix(0.9876 -0.157 0.157 0.9876 -63.9309 337.5865)" fill="#7AB200" width="2.09" height="61.017"/>
			<circle fill="#EF6326" cx="2098.912" cy="543.679" r="2.508"/>
			<circle fill="#EF6326" cx="2100.451" cy="553.377" r="2.508"/>
			<circle fill="#EF6326" cx="2101.991" cy="563.075" r="2.507"/>
			<circle fill="#EF6326" cx="2103.531" cy="572.773" r="2.508"/>
			<circle fill="#EF6326" cx="2105.07" cy="582.471" r="2.508"/>
			<circle fill="#EF6326" cx="2103.618" cy="548.009" r="2.506"/>
			<circle fill="#EF6326" cx="2105.157" cy="557.708" r="2.507"/>
			<circle fill="#EF6326" cx="2106.697" cy="567.405" r="2.507"/>
			<circle fill="#EF6326" cx="2108.237" cy="577.104" r="2.507"/>
		</g>
		<g>
			
				<rect x="2112.394" y="547.816" transform="matrix(0.9997 -0.0238 0.0238 0.9997 -13.1787 50.5168)" fill="#7AB200" width="2.09" height="61.018"/>
			<circle fill="#EF6326" cx="2111.048" cy="547.865" r="2.508"/>
			<circle fill="#EF6326" cx="2111.279" cy="557.681" r="2.507"/>
			<circle fill="#EF6326" cx="2111.511" cy="567.498" r="2.508"/>
			<circle fill="#EF6326" cx="2111.743" cy="577.314" r="2.508"/>
			<circle fill="#EF6326" cx="2111.974" cy="587.131" r="2.508"/>
			<path fill="#EF6326" d="M2117.641,552.726c0.033,1.383-1.062,2.531-2.445,2.563c-1.387,0.033-2.535-1.062-2.566-2.447
				c-0.035-1.383,1.062-2.531,2.447-2.564C2116.459,550.244,2117.609,551.34,2117.641,552.726z"/>
			<circle fill="#EF6326" cx="2115.365" cy="562.601" r="2.507"/>
			<circle fill="#EF6326" cx="2115.597" cy="572.417" r="2.508"/>
			<circle fill="#EF6326" cx="2115.829" cy="582.234" r="2.508"/>
		</g>
		<path fill="#282828" d="M2104.568,638.641c0,1.758,1.424,3.183,3.182,3.183h11.141c1.758,0,3.184-1.425,3.184-3.183v-45.537
			c0-1.758-1.426-3.183-3.184-3.183h-11.141c-1.758,0-3.182,1.425-3.182,3.183V638.641z"/>
		<g>
			<path fill="#FFFFFF" d="M2106.957,637.151c0,0.507,0.412,0.919,0.92,0.919l0,0c0.51,0,0.922-0.412,0.922-0.919v-41.438
				c0-0.508-0.412-0.919-0.922-0.919l0,0c-0.508,0-0.92,0.411-0.92,0.919V637.151z"/>
			<circle fill="#FFFFFF" cx="2107.871" cy="593.034" r="0.928"/>
		</g>
	</g>
	<g>
		<g>
			<path fill="#FFFFFF" d="M2137.805,544.455c-3.455,0.233-6.066,3.223-5.834,6.677l4.842,71.77
				c0.234,3.455,3.223,6.066,6.676,5.833l1.387-0.093l-5.686-84.279L2137.805,544.455z"/>
			
				<rect x="2142.031" y="544.232" transform="matrix(0.9977 -0.0681 0.0681 0.9977 -34.9504 147.1979)" fill="#262626" width="1.004" height="84.471"/>
		</g>
		<path fill="none" stroke="#FFFFFF" stroke-width="1.5" stroke-miterlimit="10" d="M2136.807,588.478l-19.6,38.09l-0.004-0.002
			c-0.193,0.35-0.369,0.712-0.521,1.085c-0.486,1.189-0.756,2.493-0.756,3.86c0,5.627,4.561,10.188,10.188,10.188h23.818"/>
	</g>
</g>
<path fill="none" stroke="#B3C7CE" stroke-width="4" stroke-linecap="square" stroke-miterlimit="10" d="M2047.736,726.072
	c6.096,0,11.037,4.941,11.037,11.036"/>
<line fill="none" stroke="#B3C7CE" stroke-width="4" stroke-linecap="square" stroke-linejoin="round" stroke-miterlimit="10" x1="2028.846" y1="726.072" x2="2046.18" y2="726.072"/>
<line fill="none" stroke="#B3C7CE" stroke-width="4" stroke-linejoin="round" stroke-miterlimit="10" x1="2058.773" y1="738.948" x2="2058.773" y2="768.739"/>
<g>
	<rect x="2214.941" y="350.576" fill="#FFFFFF" width="134.232" height="182.138"/>
	
		<rect x="2214.941" y="350.576" fill="none" stroke="#BAA665" stroke-width="4" stroke-miterlimit="10" width="134.232" height="182.138"/>
	<g opacity="0.2">
		<polygon fill="#006CC4" points="2234.262,393.196 2240.121,393.196 2240.121,370.374 2249.398,370.374 2249.398,364.548 
			2224.908,364.548 2224.908,370.411 2234.262,370.411 		"/>
		<polygon fill="#006CC4" points="2271.484,375.614 2258.367,375.614 2258.367,364.548 2252.508,364.548 2252.508,393.196 
			2258.367,393.196 2258.367,381.435 2271.564,381.435 2271.564,393.196 2277.346,393.196 2277.346,364.548 2271.484,364.548 		"/>
		<rect x="2280.451" y="364.548" fill="#006CC4" width="5.861" height="28.648"/>
		<polygon fill="#006CC4" points="2313.752,393.196 2313.752,364.548 2307.891,364.548 2307.891,382.87 2295.238,364.548 
			2289.416,364.548 2289.416,393.196 2295.275,393.196 2295.275,374.874 2307.93,393.196 		"/>
		<polygon fill="#006CC4" points="2322.719,383.299 2331.688,393.196 2339.564,393.196 2326.641,378.911 2339.604,364.548 
			2331.725,364.548 2322.719,374.523 2322.719,364.548 2316.859,364.548 2316.859,393.196 2322.719,393.196 		"/>
		<g>
			<path fill="#006CC4" d="M2288.566,409.663c0-0.081-0.023-0.415-0.062-1.016c-0.037-0.599-0.098-1.081-0.18-1.439
				c-0.078-0.758-0.287-1.566-0.629-2.425c-0.342-0.857-0.777-1.695-1.32-2.515c-0.535-0.817-1.189-1.578-1.947-2.274
				c-0.762-0.695-1.6-1.287-2.514-1.763c-0.32-0.159-0.646-0.322-0.959-0.483c-0.324-0.155-0.586-0.276-0.787-0.359
				c-0.037,0-0.199-0.049-0.475-0.147c-0.279-0.102-0.604-0.208-0.963-0.331c-0.357-0.115-0.709-0.217-1.045-0.297
				c-0.342-0.084-0.609-0.122-0.814-0.122h-51.504v44.239h51.207c0.078,0,0.389-0.049,0.93-0.15c0.537-0.096,0.971-0.19,1.287-0.268
				c1.68-0.401,3.137-1.067,4.379-2.006c1.236-0.937,2.256-1.995,3.059-3.174c0.801-1.173,1.389-2.426,1.77-3.742
				c0.379-1.313,0.568-2.572,0.568-3.771c0-1.354-0.232-2.815-0.691-4.369c-0.457-1.558-1.209-2.894-2.244-4.009
				c-0.08-0.081-0.166-0.18-0.268-0.302c-0.098-0.116-0.191-0.22-0.27-0.298c1.238-1.359,2.123-2.847,2.666-4.461
				C2288.295,412.568,2288.566,411.058,2288.566,409.663z M2278.84,429.882c-0.459,0.843-1.111,1.388-1.949,1.626
				c-0.156,0.045-0.367,0.102-0.629,0.188c-0.258,0.078-0.43,0.096-0.506,0.058h-41.352v-8.319h41.352
				c0.039,0,0.209,0.047,0.506,0.148c0.301,0.099,0.553,0.191,0.75,0.269c0.078,0.043,0.18,0.081,0.297,0.124
				c0.123,0.042,0.221,0.102,0.303,0.178c0.318,0.162,0.598,0.385,0.838,0.669c0.238,0.276,0.438,0.589,0.6,0.93
				c0.156,0.347,0.277,0.677,0.359,0.997c0.08,0.323,0.119,0.601,0.119,0.844C2279.527,428.275,2279.297,429.038,2278.84,429.882z
				 M2279.408,410.439c-0.082,0.319-0.203,0.651-0.359,0.988c-0.162,0.341-0.35,0.648-0.568,0.926
				c-0.221,0.283-0.471,0.503-0.752,0.664c-0.117,0.076-0.238,0.146-0.355,0.207c-0.121,0.059-0.24,0.107-0.361,0.147
				c-0.197,0.082-0.438,0.171-0.715,0.272c-0.283,0.097-0.465,0.146-0.541,0.146h-41.352v-8.319h41.531
				c0.078,0,0.221,0.044,0.42,0.12c0.197,0.08,0.379,0.144,0.535,0.182c0.482,0.116,0.893,0.34,1.227,0.659
				c0.344,0.318,0.609,0.665,0.809,1.045c0.199,0.381,0.352,0.762,0.449,1.136c0.104,0.381,0.152,0.711,0.152,0.987
				C2279.527,409.84,2279.488,410.121,2279.408,410.439z"/>
			<rect x="2293.297" y="396.55" fill="#006CC4" width="9.037" height="44.181"/>
			<path fill="#006CC4" d="M2325.68,423.191h5.084v8.562h-2.93c-0.201,0-0.471-0.04-0.811-0.123
				c-0.336-0.077-0.688-0.17-1.047-0.267c-0.355-0.099-0.688-0.203-0.99-0.303c-0.297-0.099-0.504-0.166-0.627-0.209
				c-1.514-0.596-2.789-1.365-3.828-2.304c-1.039-0.937-1.877-1.955-2.514-3.051c-0.639-1.101-1.107-2.246-1.408-3.445
				c-0.299-1.196-0.449-2.352-0.449-3.472c0-1.077,0.088-1.964,0.27-2.66c0.18-0.702,0.492-1.646,0.93-2.844
				c0.078-0.162,0.146-0.31,0.207-0.449c0.061-0.141,0.127-0.249,0.213-0.33c0.359-0.757,0.846-1.488,1.467-2.186
				c0.617-0.699,1.285-1.328,1.998-1.886c0.723-0.559,1.473-1.036,2.248-1.436c0.779-0.397,1.531-0.678,2.246-0.839
				c0.162,0,0.41-0.062,0.75-0.179c0.336-0.122,0.867-0.22,1.584-0.302h2.758v-8.979h-2.816c-0.078,0-0.361,0.029-0.84,0.093
				c-0.477,0.061-0.857,0.109-1.135,0.146c-0.359,0.084-0.75,0.172-1.168,0.273c-0.42,0.099-0.789,0.191-1.105,0.269
				c-1.52,0.4-3.227,1.115-5.121,2.152c-1.895,1.038-3.691,2.428-5.385,4.161c-1.697,1.739-3.135,3.852-4.314,6.349
				c-1.174,2.493-1.781,5.414-1.822,8.77c-0.045,1.835,0.215,3.78,0.775,5.834c0.561,2.056,1.445,4.034,2.664,5.929
				c1.219,1.894,2.764,3.641,4.639,5.236c1.875,1.593,4.131,2.875,6.766,3.83c0.797,0.321,1.535,0.543,2.217,0.659
				c0.676,0.121,1.377,0.241,2.096,0.359c0.199,0.038,0.438,0.076,0.715,0.119c0.279,0.044,0.459,0.061,0.541,0.061h12.271V414.21
				h-14.127V423.191z"/>
		</g>
	</g>
	<g>
		<rect x="2224.908" y="445.231" opacity="0.2" fill="#FF4F2C" width="13.143" height="77.533"/>
		<rect x="2250.297" y="445.231" opacity="0.2" fill="#FF4F2C" width="13.143" height="77.533"/>
		<rect x="2275.686" y="445.231" opacity="0.2" fill="#FF4F2C" width="13.141" height="77.533"/>
		<rect x="2301.072" y="445.231" opacity="0.2" fill="#FF4F2C" width="13.143" height="77.533"/>
		<rect x="2326.461" y="445.231" opacity="0.2" fill="#FF4F2C" width="13.143" height="77.533"/>
	</g>
</g>
<g opacity="0.7">
	<polygon fill="none" points="486.494,731.023 486.042,730.57 485.908,731.608 	"/>
	
		<rect x="467.04" y="727.42" transform="matrix(0.7071 0.7071 -0.7071 0.7071 654.7593 -118.683)" fill="#869392" width="7.205" height="7.206"/>
	
		<rect x="461.663" y="732.798" transform="matrix(0.7071 0.7071 -0.7071 0.7071 656.9871 -113.3053)" fill="#869392" width="7.205" height="7.206"/>
	<polygon fill="#869392" points="449.132,736.684 445.222,740.594 445.572,743.313 449.132,746.873 454.227,741.778 	"/>
	<polygon fill="#869392" points="446.312,706.671 441.196,706.671 443.754,709.229 	"/>
	<polygon fill="#869392" points="464.982,763.289 459.888,758.194 454.793,763.291 459.017,767.514 460.758,767.514 	"/>
	<polygon fill="#869392" points="440.88,706.921 441.472,711.51 443.471,709.512 	"/>
	
		<rect x="450.907" y="732.799" transform="matrix(0.7071 0.7071 -0.7071 0.7071 653.8772 -105.6906)" fill="#869392" width="7.206" height="7.205"/>
	
		<rect x="456.285" y="727.42" transform="matrix(0.707 0.7072 -0.7072 0.707 651.7305 -111.05)" fill="#869392" width="7.205" height="7.206"/>
	
		<rect x="461.663" y="754.31" transform="matrix(0.7071 -0.7071 0.7071 0.7071 -399.6516 550.9797)" fill="#869392" width="7.205" height="7.205"/>
	<polygon fill="#869392" points="449.132,747.438 446.45,750.122 447.164,755.661 449.131,757.629 454.227,752.533 	"/>
	
		<rect x="461.663" y="722.042" transform="matrix(0.7071 0.7071 -0.7071 0.7071 649.3812 -116.4559)" fill="#869392" width="7.205" height="7.205"/>
	<polygon fill="#869392" points="471.513,767.514 475.738,763.289 470.644,758.194 465.548,763.289 469.772,767.514 
		471.085,767.514 	"/>
	
		<rect x="456.285" y="748.931" transform="matrix(0.7071 -0.7071 0.7071 0.7071 -397.4138 545.5607)" fill="#869392" width="7.205" height="7.206"/>
	
		<rect x="450.907" y="743.553" transform="matrix(0.7072 -0.707 0.707 0.7072 -395.1664 540.1015)" fill="#869392" width="7.205" height="7.205"/>
	<polygon fill="#869392" points="476.304,763.289 480.528,767.514 481.279,767.514 482.357,759.153 481.398,758.194 	"/>
	
		<rect x="472.418" y="754.31" transform="matrix(0.707 -0.7072 0.7072 0.707 -396.5204 558.6682)" fill="#869392" width="7.204" height="7.204"/>
	<polygon fill="#869392" points="481.399,747.439 476.304,752.534 481.398,757.629 482.725,756.303 483.585,749.626 	"/>
	<polygon fill="#869392" points="472.079,767.514 479.962,767.514 476.021,763.572 	"/>
	
		<rect x="467.041" y="748.932" transform="matrix(0.7071 -0.7071 0.7071 0.7071 -394.2645 553.166)" fill="#869392" width="7.204" height="7.205"/>
	
		<rect x="461.663" y="743.553" transform="matrix(0.7071 -0.7071 0.7071 0.7071 -392.037 547.7882)" fill="#869392" width="7.204" height="7.207"/>
	<polygon fill="#869392" points="482.422,758.652 482.641,756.952 481.682,757.912 	"/>
	
		<rect x="472.419" y="711.286" transform="matrix(0.7072 0.707 -0.707 0.7072 644.8452 -127.2278)" fill="#869392" width="7.204" height="7.204"/>
	
		<rect x="477.795" y="716.665" transform="matrix(-0.707 0.7072 -0.7072 -0.707 1331.129 889.0504)" fill="#869392" width="7.207" height="7.204"/>
	<polygon fill="#869392" points="486.106,730.07 487.27,721.043 486.776,720.549 481.682,725.645 	"/>
	
		<rect x="456.285" y="738.176" transform="matrix(0.7071 -0.7071 0.7071 0.7071 -389.8185 542.4515)" fill="#869392" width="7.205" height="7.205"/>
	
		<rect x="467.041" y="716.664" transform="matrix(0.7071 0.7071 -0.7071 0.7071 647.1133 -121.8423)" fill="#869392" width="7.205" height="7.205"/>
	<polygon fill="#869392" points="486.776,719.983 487.5,719.26 488.499,711.516 486.777,709.795 481.682,714.889 	"/>
	<polygon fill="#869392" points="478.579,706.671 473.463,706.671 476.021,709.229 	"/>
	<polygon fill="#869392" points="464.982,709.512 462.142,706.671 458.886,706.671 457.633,706.671 454.793,709.512 
		459.888,714.605 	"/>
	<polygon fill="#869392" points="467.823,706.671 462.708,706.671 465.265,709.229 	"/>
	<polygon fill="#869392" points="444.064,731.615 445.157,740.093 448.849,736.4 	"/>
	<polygon fill="#869392" points="488.563,711.014 489.008,707.563 487.06,709.512 	"/>
	<polygon fill="#869392" points="489.092,706.914 489.123,706.671 484.219,706.671 486.777,709.229 	"/>
	
		<rect x="450.907" y="754.309" transform="matrix(-0.7071 -0.7071 0.7071 -0.7071 239.9308 1615.2136)" fill="#869392" width="7.206" height="7.206"/>
	
		<rect x="467.04" y="738.176" transform="matrix(0.7071 -0.7071 0.7071 0.7071 -386.6688 550.0567)" fill="#869392" width="7.205" height="7.206"/>
	
		<rect x="472.419" y="743.554" transform="matrix(-0.7071 -0.7071 0.7071 -0.7071 284.2576 1612.0648)" fill="#869392" width="7.205" height="7.206"/>
	
		<rect x="450.907" y="711.286" transform="matrix(0.7072 0.707 -0.707 0.7072 638.5461 -112.0183)" fill="#869392" width="7.204" height="7.205"/>
	
		<rect x="472.417" y="732.798" transform="matrix(0.707 0.7072 -0.7072 0.707 660.2195 -120.8932)" fill="#869392" width="7.207" height="7.206"/>
	<polygon fill="#869392" points="448.848,725.645 443.754,720.551 442.765,721.539 443.929,730.564 	"/>
	
		<rect x="445.529" y="716.664" transform="matrix(0.7071 0.7071 -0.7071 0.7071 640.8533 -106.6226)" fill="#869392" width="7.205" height="7.206"/>
	<polygon fill="#869392" points="457.067,706.671 451.952,706.671 454.51,709.229 	"/>
	
		<rect x="450.907" y="722.042" transform="matrix(0.7071 0.7071 -0.7071 0.7071 646.191 -108.8596)" fill="#869392" width="7.205" height="7.205"/>
	
		<rect x="456.285" y="716.664" transform="matrix(0.7071 0.7071 -0.7071 0.7071 644.0033 -114.2283)" fill="#869392" width="7.205" height="7.205"/>
	
		<rect x="445.529" y="727.421" transform="matrix(0.7071 0.7071 -0.7071 0.7071 648.4989 -103.463)" fill="#869392" width="7.206" height="7.205"/>
	<polygon fill="#869392" points="442.472,719.269 442.7,721.038 443.471,720.268 	"/>
	<polygon fill="#869392" points="445.656,743.963 446.385,749.62 448.849,747.155 	"/>
	<polygon fill="#869392" points="481.399,736.684 476.304,741.778 481.399,746.873 484.316,743.956 484.813,740.098 	"/>
	
		<rect x="461.663" y="711.286" transform="matrix(0.7072 0.707 -0.707 0.7072 641.6558 -119.6316)" fill="#869392" width="7.205" height="7.204"/>
	<polygon fill="#869392" points="476.304,709.512 481.399,714.605 486.494,709.512 483.653,706.671 479.145,706.671 	"/>
	<polygon fill="#869392" points="475.738,709.512 472.897,706.671 471.085,706.671 468.389,706.671 465.548,709.512 
		470.643,714.605 	"/>
	<polygon fill="#869392" points="461.324,767.514 469.207,767.514 465.266,763.572 	"/>
	<polygon fill="#869392" points="450.569,767.514 458.451,767.514 454.51,763.573 	"/>
	<polygon fill="#869392" points="447.248,756.311 447.613,759.146 448.848,757.912 	"/>
	<polygon fill="#869392" points="449.131,758.194 447.678,759.648 448.692,767.514 450.003,767.514 454.227,763.291 	"/>
	<polygon fill="#869392" points="454.227,709.512 451.386,706.671 446.877,706.671 444.037,709.512 449.132,714.605 	"/>
	<polygon fill="#869392" points="483.65,749.124 484.232,744.605 481.682,747.156 	"/>
	<polygon fill="#869392" points="481.399,736.118 485.908,731.608 486.042,730.57 481.398,725.928 476.304,731.022 	"/>
	<polygon fill="#869392" points="487.334,720.542 487.417,719.91 487.06,720.266 	"/>
	<polygon fill="#869392" points="484.878,739.598 485.824,732.259 481.682,736.401 	"/>
	<polygon fill="#869392" points="443.754,719.984 448.849,714.889 443.754,709.795 441.537,712.012 442.389,718.619 	"/>
	
		<rect x="472.418" y="722.042" transform="matrix(0.7071 0.7071 -0.7071 0.7071 652.5721 -124.0527)" fill="#869392" width="7.205" height="7.205"/>
	<polygon fill="#E9F1F4" points="486.494,709.512 486.777,709.229 484.219,706.671 483.653,706.671 	"/>
	<polygon fill="#E9F1F4" points="486.777,709.795 488.499,711.516 488.563,711.014 487.06,709.512 	"/>
	<polygon fill="#E9F1F4" points="486.776,720.549 487.27,721.043 487.334,720.542 487.06,720.266 	"/>
	
		<rect x="483.888" y="713.975" transform="matrix(-0.7077 0.7065 -0.7065 -0.7077 1333.65 883.4135)" fill="#E9F1F4" width="0.399" height="7.205"/>
	
		<rect x="478.51" y="708.598" transform="matrix(-0.7071 0.7071 -0.7071 -0.7071 1320.8105 877.3027)" fill="#E9F1F4" width="0.401" height="7.204"/>
	<polygon fill="#E9F1F4" points="473.463,706.671 472.897,706.671 475.738,709.512 476.021,709.229 	"/>
	
		<rect x="469.729" y="717.378" transform="matrix(0.707 0.7072 -0.7072 0.707 646.1207 -124.506)" fill="#E9F1F4" width="7.206" height="0.401"/>
	<polygon fill="#E9F1F4" points="462.708,706.671 462.142,706.671 464.982,709.512 465.265,709.229 	"/>
	
		<rect x="464.352" y="712" transform="matrix(0.7072 0.707 -0.707 0.7072 640.5422 -122.3197)" fill="#E9F1F4" width="7.205" height="0.4"/>
	
		<rect x="478.51" y="719.353" transform="matrix(-0.7083 0.7059 -0.7059 -0.7083 1328.1158 897.1307)" fill="#E9F1F4" width="0.4" height="7.205"/>
	<polygon fill="#E9F1F4" points="486.042,730.57 486.106,730.07 481.682,725.645 481.398,725.928 	"/>
	
		<rect x="453.597" y="712" transform="matrix(0.7072 0.707 -0.707 0.7072 637.4327 -114.707)" fill="#E9F1F4" width="7.204" height="0.401"/>
	
		<rect x="469.729" y="728.133" transform="matrix(0.7071 0.7071 -0.7071 0.7071 653.686 -121.3635)" fill="#E9F1F4" width="7.205" height="0.401"/>
	
		<rect x="478.51" y="730.109" transform="matrix(-0.7071 0.7071 -0.7071 -0.7071 1336.0217 914.0255)" fill="#E9F1F4" width="0.401" height="7.206"/>
	<polygon fill="#E9F1F4" points="451.952,706.671 451.386,706.671 454.227,709.512 454.51,709.229 	"/>
	
		<rect x="464.351" y="722.756" transform="matrix(0.707 0.7072 -0.7072 0.707 648.3484 -119.1275)" fill="#E9F1F4" width="7.206" height="0.4"/>
	<polygon fill="#E9F1F4" points="481.399,736.684 484.813,740.098 484.878,739.598 481.682,736.401 	"/>
	
		<rect x="458.974" y="717.378" transform="matrix(0.7071 0.7071 -0.7071 0.7071 642.9299 -116.9087)" fill="#E9F1F4" width="7.206" height="0.4"/>
	
		<rect x="458.974" y="728.134" transform="matrix(0.707 0.7072 -0.7072 0.707 650.576 -113.7488)" fill="#E9F1F4" width="7.206" height="0.4"/>
	
		<rect x="453.595" y="722.756" transform="matrix(0.7071 0.7071 -0.7071 0.7071 645.1574 -111.5302)" fill="#E9F1F4" width="7.206" height="0.401"/>
	
		<rect x="448.218" y="717.378" transform="matrix(0.707 0.7072 -0.7072 0.707 639.8187 -109.2936)" fill="#E9F1F4" width="7.206" height="0.4"/>
	
		<rect x="442.841" y="712" transform="matrix(0.7072 0.707 -0.707 0.7072 634.2439 -107.1112)" fill="#E9F1F4" width="7.205" height="0.4"/>
	<polygon fill="#E9F1F4" points="481.399,747.439 483.585,749.626 483.65,749.124 481.682,747.156 	"/>
	
		<rect x="469.729" y="738.889" transform="matrix(0.7071 0.7071 -0.7071 0.7071 661.2097 -118.2308)" fill="#E9F1F4" width="7.205" height="0.401"/>
	
		<rect x="464.352" y="733.512" transform="matrix(0.7072 0.707 -0.707 0.7072 655.7914 -116.0123)" fill="#E9F1F4" width="7.204" height="0.399"/>
	<polygon fill="#E9F1F4" points="443.754,709.229 441.196,706.671 440.848,706.671 440.88,706.921 443.471,709.512 	"/>
	
		<rect x="475.107" y="744.267" transform="matrix(-0.7071 -0.7071 0.7071 -0.7071 290.7912 1609.3842)" fill="#E9F1F4" width="7.205" height="0.401"/>
	
		<rect x="453.596" y="733.512" transform="matrix(0.7071 0.7071 -0.7071 0.7071 652.6827 -108.3983)" fill="#E9F1F4" width="7.205" height="0.4"/>
	
		<rect x="448.217" y="728.134" transform="matrix(0.707 0.7072 -0.7072 0.707 647.4249 -106.1424)" fill="#E9F1F4" width="7.206" height="0.401"/>
	
		<rect x="467.754" y="740.865" transform="matrix(0.7071 -0.7071 0.7071 0.7071 -389.3577 548.9431)" fill="#E9F1F4" width="0.401" height="7.206"/>
	
		<rect x="458.974" y="738.89" transform="matrix(0.7071 0.7071 -0.7071 0.7071 658.0598 -110.6259)" fill="#E9F1F4" width="7.204" height="0.399"/>
	<polygon fill="#E9F1F4" points="443.754,719.984 442.389,718.619 442.472,719.269 443.471,720.268 	"/>
	
		<rect x="473.132" y="746.244" transform="matrix(0.7071 -0.7071 0.7071 0.7071 -391.5852 554.321)" fill="#E9F1F4" width="0.401" height="7.204"/>
	<polygon fill="#E9F1F4" points="481.398,758.194 482.357,759.153 482.422,758.652 481.682,757.912 	"/>
	
		<rect x="475.107" y="755.023" transform="matrix(-0.7071 -0.7071 0.7071 -0.7071 283.1848 1627.7452)" fill="#E9F1F4" width="7.205" height="0.401"/>
	
		<rect x="442.84" y="722.756" transform="matrix(0.7071 0.7071 -0.7071 0.7071 641.9675 -103.9335)" fill="#E9F1F4" width="7.205" height="0.4"/>
	
		<rect x="456.998" y="740.865" transform="matrix(0.7071 -0.7071 0.7071 0.7071 -392.5071 541.3376)" fill="#E9F1F4" width="0.401" height="7.204"/>
	
		<rect x="473.132" y="756.998" transform="matrix(0.7083 -0.7059 0.7059 0.7083 -398.8379 555.9646)" fill="#E9F1F4" width="0.4" height="7.205"/>
	
		<rect x="448.219" y="738.889" transform="matrix(0.7071 0.7071 -0.7071 0.7071 654.9504 -103.0115)" fill="#E9F1F4" width="7.205" height="0.4"/>
	<polygon fill="#E9F1F4" points="476.021,763.572 479.962,767.514 480.528,767.514 476.304,763.289 	"/>
	
		<rect x="462.377" y="746.242" transform="matrix(0.7065 -0.7077 0.7077 0.7065 -394.9097 547.4553)" fill="#E9F1F4" width="0.4" height="7.206"/>
	
		<rect x="467.754" y="751.621" transform="matrix(0.7071 -0.7071 0.7071 0.7071 -396.9626 552.0936)" fill="#E9F1F4" width="0.401" height="7.205"/>
	<polygon fill="#E9F1F4" points="448.849,736.4 449.132,736.117 444.037,731.022 443.993,731.066 444.064,731.615 	"/>
	
		<rect x="462.377" y="756.998" transform="matrix(0.7083 -0.7059 0.7059 0.7083 -401.975 548.3723)" fill="#E9F1F4" width="0.4" height="7.205"/>
	
		<rect x="456.998" y="751.619" transform="matrix(0.7071 -0.7071 0.7071 0.7071 -400.1127 544.4879)" fill="#E9F1F4" width="0.401" height="7.206"/>
	
		<rect x="451.62" y="746.242" transform="matrix(0.7065 -0.7077 0.7077 0.7065 -398.0662 539.8429)" fill="#E9F1F4" width="0.4" height="7.205"/>
	<polygon fill="#E9F1F4" points="449.132,746.873 445.572,743.313 445.656,743.963 448.849,747.155 	"/>
	<polygon fill="#E9F1F4" points="465.548,763.289 465.266,763.572 469.207,767.514 469.772,767.514 	"/>
	<polygon fill="#E9F1F4" points="459.017,767.514 454.793,763.291 454.51,763.573 458.451,767.514 458.886,767.514 	"/>
	
		<rect x="451.621" y="756.998" transform="matrix(0.7083 -0.7059 0.7059 0.7083 -405.113 540.78)" fill="#E9F1F4" width="0.4" height="7.207"/>
	<polygon fill="#E9F1F4" points="449.131,757.629 447.164,755.661 447.248,756.311 448.848,757.912 	"/>
	<polygon fill="#E9F1F4" points="444.037,709.512 446.877,706.671 446.312,706.671 443.754,709.229 	"/>
	<polygon fill="#E9F1F4" points="443.754,709.795 443.471,709.512 441.472,711.51 441.537,712.012 	"/>
	
		<rect x="443.554" y="709.311" transform="matrix(0.7071 -0.7071 0.7071 0.7071 -371.728 521.5926)" fill="#E9F1F4" width="0.401" height="0.401"/>
	
		<rect x="451.621" y="708.598" transform="matrix(0.7071 0.7071 -0.7071 0.7071 635.9369 -110.887)" fill="#E9F1F4" width="0.401" height="7.204"/>
	<polygon fill="#E9F1F4" points="454.793,709.512 457.633,706.671 457.067,706.671 454.51,709.229 	"/>
	
		<rect x="446.243" y="713.975" transform="matrix(0.7071 0.7071 -0.7071 0.7071 638.1644 -105.509)" fill="#E9F1F4" width="0.401" height="7.206"/>
	<polygon fill="#E9F1F4" points="443.754,720.551 443.471,720.268 442.7,721.038 442.765,721.539 	"/>
	
		<rect x="454.31" y="709.311" transform="matrix(0.7071 0.7071 -0.7071 0.7071 634.8234 -113.5757)" fill="#E9F1F4" width="0.401" height="0.401"/>
	
		<rect x="448.932" y="714.688" transform="matrix(0.7065 0.7077 -0.7077 0.7065 637.7603 -108.0355)" fill="#E9F1F4" width="0.4" height="0.401"/>
	
		<rect x="443.554" y="720.068" transform="matrix(-0.7065 0.7077 -0.7077 -0.7065 1267.0098 915.082)" fill="#E9F1F4" width="0.4" height="0.4"/>
	
		<rect x="456.998" y="713.975" transform="matrix(0.7071 0.7071 -0.7071 0.7071 641.3147 -113.1144)" fill="#E9F1F4" width="0.401" height="7.206"/>
	
		<rect x="462.376" y="708.598" transform="matrix(0.7071 0.7071 -0.7071 0.7071 639.0871 -118.4923)" fill="#E9F1F4" width="0.401" height="7.204"/>
	
		<rect x="451.62" y="719.353" transform="matrix(0.7065 0.7077 -0.7077 0.7065 644.2589 -107.5706)" fill="#E9F1F4" width="0.4" height="7.206"/>
	<polygon fill="#E9F1F4" points="465.548,709.512 468.389,706.671 467.823,706.671 465.265,709.229 	"/>
	<polygon fill="#E9F1F4" points="444.037,731.022 449.131,725.928 448.848,725.645 443.929,730.564 443.98,730.966 	"/>
	
		<rect x="465.065" y="709.311" transform="matrix(0.7065 0.7077 -0.7077 0.7065 638.6901 -121.0314)" fill="#E9F1F4" width="0.4" height="0.401"/>
	
		<rect x="459.687" y="714.688" transform="matrix(0.7065 0.7077 -0.7077 0.7065 640.9172 -115.6476)" fill="#E9F1F4" width="0.4" height="0.401"/>
	
		<rect x="454.31" y="720.067" transform="matrix(0.7083 0.7059 -0.7059 0.7083 640.9932 -110.7489)" fill="#E9F1F4" width="0.4" height="0.399"/>
	
		<rect x="448.931" y="725.445" transform="matrix(0.7083 0.7059 -0.7059 0.7083 643.2207 -105.3839)" fill="#E9F1F4" width="0.4" height="0.4"/>
	<polygon fill="#E9F1F4" points="443.98,730.966 443.993,731.066 444.037,731.022 	"/>
	
		<rect x="467.754" y="713.975" transform="matrix(0.7065 0.7077 -0.7077 0.7065 645.1882 -120.5673)" fill="#E9F1F4" width="0.4" height="7.206"/>
	
		<rect x="473.132" y="708.598" transform="matrix(0.7065 0.7077 -0.7077 0.7065 642.9606 -125.9517)" fill="#E9F1F4" width="0.4" height="7.205"/>
	
		<rect x="462.376" y="719.353" transform="matrix(0.7071 0.7071 -0.7071 0.7071 646.6927 -115.3422)" fill="#E9F1F4" width="0.401" height="7.206"/>
	<polygon fill="#E9F1F4" points="476.304,709.512 479.145,706.671 478.579,706.671 476.021,709.229 	"/>
	
		<rect x="456.998" y="724.731" transform="matrix(0.7071 0.7071 -0.7071 0.7071 648.9202 -109.9641)" fill="#E9F1F4" width="0.401" height="7.206"/>
	
		<rect x="451.621" y="730.109" transform="matrix(0.7077 0.7065 -0.7065 0.7077 650.423 -104.7584)" fill="#E9F1F4" width="0.399" height="7.204"/>
	<polygon fill="#E9F1F4" points="449.132,736.684 448.849,736.4 445.157,740.093 445.222,740.594 	"/>
	
		<rect x="475.821" y="709.312" transform="matrix(0.7071 0.7071 -0.7071 0.7071 641.1239 -128.7866)" fill="#E9F1F4" width="0.401" height="0.4"/>
	
		<rect x="470.443" y="714.689" transform="matrix(0.7071 0.7071 -0.7071 0.7071 643.3508 -123.4091)" fill="#E9F1F4" width="0.401" height="0.4"/>
	
		<rect x="465.066" y="720.067" transform="matrix(0.7077 0.7065 -0.7065 0.7077 644.8539 -118.1866)" fill="#E9F1F4" width="0.399" height="0.4"/>
	
		<rect x="459.688" y="725.445" transform="matrix(0.7077 0.7065 -0.7065 0.7077 647.0815 -112.8153)" fill="#E9F1F4" width="0.399" height="0.4"/>
	
		<rect x="454.309" y="730.823" transform="matrix(0.7071 0.7071 -0.7071 0.7071 650.0344 -107.2749)" fill="#E9F1F4" width="0.401" height="0.4"/>
	
		<rect x="448.932" y="736.2" transform="matrix(0.7065 0.7077 -0.7077 0.7065 652.9846 -101.722)" fill="#E9F1F4" width="0.4" height="0.401"/>
	
		<rect x="456.999" y="735.487" transform="matrix(0.7083 0.7059 -0.7059 0.7083 655.0642 -107.1571)" fill="#E9F1F4" width="0.4" height="7.204"/>
	<polygon fill="#E9F1F4" points="446.385,749.62 446.45,750.122 449.132,747.438 448.849,747.155 	"/>
	
		<rect x="448.218" y="744.267" transform="matrix(0.7071 -0.7071 0.7071 0.7071 -394.0824 537.5347)" fill="#E9F1F4" width="7.205" height="0.399"/>
	
		<rect x="475.107" y="717.377" transform="matrix(-0.7071 0.7071 -0.7071 -0.7071 1324.613 886.4825)" fill="#E9F1F4" width="7.205" height="0.401"/>
	
		<rect x="480.485" y="712" transform="matrix(-0.7072 0.707 -0.707 -0.7072 1329.9677 873.6218)" fill="#E9F1F4" width="7.205" height="0.401"/>
	
		<rect x="462.376" y="730.11" transform="matrix(0.7083 0.7059 -0.7059 0.7083 652.8369 -112.5215)" fill="#E9F1F4" width="0.4" height="7.205"/>
	
		<rect x="473.132" y="719.353" transform="matrix(0.7065 0.7077 -0.7077 0.7065 650.5726 -122.7947)" fill="#E9F1F4" width="0.4" height="7.206"/>
	
		<rect x="467.754" y="724.731" transform="matrix(0.7065 0.7077 -0.7077 0.7065 652.8002 -117.4103)" fill="#E9F1F4" width="0.4" height="7.206"/>
	<polygon fill="#E9F1F4" points="487.06,709.512 489.008,707.563 489.092,706.914 486.777,709.229 	"/>
	
		<rect x="486.577" y="709.311" transform="matrix(0.7071 0.7071 -0.7071 0.7071 644.2742 -136.392)" fill="#E9F1F4" width="0.401" height="0.401"/>
	
		<rect x="481.199" y="714.689" transform="matrix(-0.7065 0.7077 -0.7077 -0.7065 1327.4441 879.2609)" fill="#E9F1F4" width="0.4" height="0.4"/>
	
		<rect x="475.821" y="720.067" transform="matrix(0.7083 0.7059 -0.7059 0.7083 647.2676 -125.9337)" fill="#E9F1F4" width="0.4" height="0.399"/>
	
		<rect x="470.443" y="725.445" transform="matrix(0.7083 0.7059 -0.7059 0.7083 649.4951 -120.5688)" fill="#E9F1F4" width="0.4" height="0.399"/>
	
		<rect x="465.065" y="730.823" transform="matrix(0.7065 0.7077 -0.7077 0.7065 653.9143 -114.7177)" fill="#E9F1F4" width="0.4" height="0.401"/>
	
		<rect x="459.687" y="736.201" transform="matrix(0.7065 0.7077 -0.7077 0.7065 656.1421 -109.3336)" fill="#E9F1F4" width="0.4" height="0.401"/>
	
		<rect x="454.31" y="741.578" transform="matrix(0.7071 -0.7071 0.7071 0.7071 -391.3937 538.6488)" fill="#E9F1F4" width="0.401" height="0.401"/>
	
		<rect x="448.932" y="746.956" transform="matrix(0.7083 -0.7059 0.7059 0.7083 -396.406 534.9603)" fill="#E9F1F4" width="0.4" height="0.401"/>
	<polygon fill="#E9F1F4" points="487.417,719.91 487.5,719.26 486.776,719.983 487.06,720.266 	"/>
	<polygon fill="#E9F1F4" points="448.848,757.912 447.613,759.146 447.678,759.648 449.131,758.194 	"/>
	
		<rect x="458.974" y="744.267" transform="matrix(0.707 -0.7072 0.7072 0.707 -390.9513 545.2217)" fill="#E9F1F4" width="7.204" height="0.399"/>
	
		<rect x="475.107" y="728.133" transform="matrix(-0.7071 0.7071 -0.7071 -0.7071 1332.2178 904.8443)" fill="#E9F1F4" width="7.205" height="0.401"/>
	
		<rect x="467.754" y="735.487" transform="matrix(0.7065 0.7077 -0.7077 0.7065 660.4119 -114.2532)" fill="#E9F1F4" width="0.4" height="7.205"/>
	
		<rect x="473.132" y="730.108" transform="matrix(0.7077 0.7065 -0.7065 0.7077 656.7098 -119.9558)" fill="#E9F1F4" width="0.399" height="7.205"/>
	
		<rect x="451.62" y="751.62" transform="matrix(0.7065 0.7077 -0.7077 0.7065 667.0945 -98.1002)" fill="#E9F1F4" width="0.4" height="7.206"/>
	
		<rect x="480.485" y="722.755" transform="matrix(-0.707 0.7072 -0.7072 -0.707 1337.6119 891.7781)" fill="#E9F1F4" width="7.206" height="0.4"/>
	
		<rect x="453.596" y="749.644" transform="matrix(0.7071 -0.7071 0.7071 0.7071 -396.2997 542.8716)" fill="#E9F1F4" width="7.205" height="0.401"/>
	
		<rect x="486.576" y="720.066" transform="matrix(-0.7071 0.7071 -0.7071 -0.7071 1340.2843 885.3683)" fill="#E9F1F4" width="0.401" height="0.4"/>
	
		<rect x="481.198" y="725.445" transform="matrix(-0.7071 0.7071 -0.7071 -0.7071 1334.907 898.3535)" fill="#E9F1F4" width="0.401" height="0.4"/>
	
		<rect x="475.82" y="730.822" transform="matrix(0.7071 0.7071 -0.7071 0.7071 656.3342 -122.486)" fill="#E9F1F4" width="0.401" height="0.4"/>
	
		<rect x="470.443" y="736.2" transform="matrix(0.7071 0.7071 -0.7071 0.7071 658.5618 -117.108)" fill="#E9F1F4" width="0.401" height="0.4"/>
	
		<rect x="465.064" y="741.578" transform="matrix(0.7071 -0.7071 0.7071 0.7071 -388.2437 546.2537)" fill="#E9F1F4" width="0.401" height="0.401"/>
	
		<rect x="459.688" y="746.956" transform="matrix(0.7083 -0.7059 0.7059 0.7083 -393.2688 542.5527)" fill="#E9F1F4" width="0.4" height="0.401"/>
	
		<rect x="454.309" y="752.333" transform="matrix(0.7065 -0.7077 0.7077 0.7065 -399.1801 542.535)" fill="#E9F1F4" width="0.4" height="0.4"/>
	
		<rect x="448.931" y="757.712" transform="matrix(0.7071 -0.7071 0.7071 0.7071 -404.3769 539.571)" fill="#E9F1F4" width="0.401" height="0.4"/>
	
		<rect x="475.108" y="738.89" transform="matrix(-0.7071 0.7071 -0.7071 -0.7071 1339.816 923.2473)" fill="#E9F1F4" width="7.205" height="0.4"/>
	
		<rect x="453.596" y="760.401" transform="matrix(0.7071 -0.7071 0.7071 0.7071 -403.9263 546.1047)" fill="#E9F1F4" width="7.206" height="0.401"/>
	
		<rect x="469.729" y="744.268" transform="matrix(0.7071 -0.7071 0.7071 0.7071 -387.7916 552.7872)" fill="#E9F1F4" width="7.206" height="0.401"/>
	<polygon fill="#E9F1F4" points="485.824,732.259 485.908,731.608 481.399,736.118 481.682,736.401 	"/>
	
		<rect x="464.352" y="749.646" transform="matrix(0.7071 -0.7071 0.7071 0.7071 -393.1602 550.5186)" fill="#E9F1F4" width="7.205" height="0.4"/>
	
		<rect x="458.974" y="755.023" transform="matrix(0.7071 -0.7071 0.7071 0.7071 -398.5278 548.2498)" fill="#E9F1F4" width="7.205" height="0.401"/>
	<polygon fill="#E9F1F4" points="454.227,763.291 450.003,767.514 450.569,767.514 454.51,763.573 	"/>
	
		<rect x="481.2" y="736.201" transform="matrix(-0.7077 0.7065 -0.7065 -0.7077 1342.3582 917.4583)" fill="#E9F1F4" width="0.399" height="0.4"/>
	
		<rect x="475.821" y="741.578" transform="matrix(-0.7065 -0.7077 0.7077 -0.7065 287.3597 1602.7302)" fill="#E9F1F4" width="0.4" height="0.401"/>
	
		<rect x="470.443" y="746.957" transform="matrix(0.7065 -0.7077 0.7077 0.7065 -390.6401 552.3752)" fill="#E9F1F4" width="0.4" height="0.4"/>
	
		<rect x="465.066" y="752.335" transform="matrix(0.7077 -0.7065 0.7065 0.7077 -395.6733 548.6606)" fill="#E9F1F4" width="0.399" height="0.4"/>
	
		<rect x="459.688" y="757.712" transform="matrix(0.7065 -0.7077 0.7077 0.7065 -401.4079 547.9199)" fill="#E9F1F4" width="0.4" height="0.399"/>
	
		<rect x="454.31" y="763.091" transform="matrix(-0.7083 -0.7059 0.7059 -0.7083 237.656 1624.782)" fill="#E9F1F4" width="0.4" height="0.4"/>
	
		<rect x="478.51" y="746.243" transform="matrix(-0.7083 -0.7059 0.7059 -0.7083 288.4883 1618.8954)" fill="#E9F1F4" width="0.4" height="7.205"/>
	
		<rect x="464.352" y="760.401" transform="matrix(0.7071 -0.7071 0.7071 0.7071 -400.7651 553.6685)" fill="#E9F1F4" width="7.205" height="0.399"/>
	
		<rect x="469.73" y="755.023" transform="matrix(0.7071 -0.7071 0.7071 0.7071 -395.3971 555.9379)" fill="#E9F1F4" width="7.205" height="0.401"/>
	<polygon fill="#E9F1F4" points="481.399,746.873 481.682,747.156 484.232,744.605 484.316,743.956 	"/>
	<polygon fill="#E9F1F4" points="464.982,763.289 460.758,767.514 461.324,767.514 465.266,763.572 	"/>
	
		<rect x="481.199" y="746.956" transform="matrix(0.7071 -0.7071 0.7071 0.7071 -387.3207 559.2375)" fill="#E9F1F4" width="0.401" height="0.401"/>
	
		<rect x="475.821" y="752.334" transform="matrix(-0.7065 -0.7077 0.7077 -0.7065 279.7467 1621.0847)" fill="#E9F1F4" width="0.4" height="0.401"/>
	
		<rect x="470.443" y="757.712" transform="matrix(0.7071 -0.7071 0.7071 0.7071 -398.0762 554.7825)" fill="#E9F1F4" width="0.401" height="0.4"/>
	
		<rect x="465.066" y="763.089" transform="matrix(0.7077 0.7065 -0.7065 0.7077 675.249 -105.6119)" fill="#E9F1F4" width="0.399" height="0.4"/>
	
		<rect x="478.509" y="756.998" transform="matrix(-0.7071 -0.7071 0.7071 -0.7071 279.3827 1636.9243)" fill="#E9F1F4" width="0.401" height="7.205"/>
	<polygon fill="#E9F1F4" points="475.738,763.289 471.513,767.514 472.079,767.514 476.021,763.572 	"/>
	<polygon fill="#E9F1F4" points="481.398,757.629 481.682,757.912 482.641,756.952 482.725,756.303 	"/>
	
		<rect x="481.199" y="757.711" transform="matrix(-0.7083 0.7059 -0.7059 -0.7083 1357.384 954.9492)" fill="#E9F1F4" width="0.4" height="0.401"/>
	
		<rect x="475.82" y="763.089" transform="matrix(0.7071 0.7071 -0.7071 0.7071 679.1501 -113.0353)" fill="#E9F1F4" width="0.401" height="0.4"/>
</g>
</svg>
