<?xml version="1.0" encoding="utf-8"?>
<!-- Generator: Adobe Illustrator 16.0.0, SVG Export Plug-In . SVG Version: 6.00 Build 0)  -->
<!DOCTYPE svg PUBLIC "-//W3C//DTD SVG 1.1//EN" "http://www.w3.org/Graphics/SVG/1.1/DTD/svg11.dtd">
<svg version="1.1" id="Layer_1" xmlns="http://www.w3.org/2000/svg" xmlns:xlink="http://www.w3.org/1999/xlink" x="0px" y="0px"
	 width="906.396px" height="315.486px" viewBox="0 0 906.396 315.486" enable-background="new 0 0 906.396 315.486"
	 xml:space="preserve">
<g>
	<path fill="#FFFFFF" d="M23.619,27.077v288.409h859.158V27.077H23.619z M863.435,315.01H41.428V49.987h822.006V315.01z"/>
</g>
<g>
	<polygon fill="#DB4A28" points="57.335,33.918 0,33.918 19.112,-0.543 57.335,-0.543 	"/>
	<polygon fill="#DB4A28" points="849.062,33.918 906.397,33.918 887.284,-0.543 849.062,-0.543 	"/>
	<rect x="49.862" y="-0.543" fill="#DB4A28" width="815.75" height="34.461"/>
</g>
<g>
	<g>
		<rect x="231.235" y="246.943" fill="#9D4587" width="21.351" height="2.394"/>
		<rect x="240.316" y="247.66" fill="#3A3B18" width="11.282" height="0.957"/>
	</g>
	<g>
		<rect x="233.519" y="249.337" fill="#F37A5E" width="21.35" height="3.145"/>
		<rect x="251.149" y="249.337" fill="#B3E1EF" width="1.052" height="3.145"/>
		<rect x="249.201" y="249.337" fill="#B3E1EF" width="1.051" height="3.145"/>
		<rect x="234.75" y="249.337" fill="#B3E1EF" width="4.938" height="3.145"/>
	</g>
</g>
<g>
	<g>
		<rect x="542.462" y="233.209" fill="#FFFFFF" width="28.445" height="4.933"/>
		
			<line fill="none" stroke="#AEADAD" stroke-width="0.1026" stroke-miterlimit="10" x1="542.462" y1="233.474" x2="570.907" y2="233.474"/>
		
			<line fill="none" stroke="#AEADAD" stroke-width="0.1026" stroke-miterlimit="10" x1="542.462" y1="233.781" x2="570.907" y2="233.781"/>
		
			<line fill="none" stroke="#AEADAD" stroke-width="0.1026" stroke-miterlimit="10" x1="542.462" y1="234.091" x2="570.907" y2="234.091"/>
		
			<line fill="none" stroke="#AEADAD" stroke-width="0.1026" stroke-miterlimit="10" x1="542.462" y1="234.396" x2="570.907" y2="234.396"/>
		
			<line fill="none" stroke="#AEADAD" stroke-width="0.1026" stroke-miterlimit="10" x1="542.462" y1="234.705" x2="570.907" y2="234.705"/>
		
			<line fill="none" stroke="#AEADAD" stroke-width="0.1026" stroke-miterlimit="10" x1="542.462" y1="235.013" x2="570.907" y2="235.013"/>
		
			<line fill="none" stroke="#AEADAD" stroke-width="0.1026" stroke-miterlimit="10" x1="542.462" y1="235.32" x2="570.907" y2="235.32"/>
		
			<line fill="none" stroke="#AEADAD" stroke-width="0.1026" stroke-miterlimit="10" x1="542.462" y1="235.627" x2="570.907" y2="235.627"/>
		
			<line fill="none" stroke="#AEADAD" stroke-width="0.1026" stroke-miterlimit="10" x1="542.462" y1="235.935" x2="570.907" y2="235.935"/>
		
			<line fill="none" stroke="#AEADAD" stroke-width="0.1026" stroke-miterlimit="10" x1="542.462" y1="236.242" x2="570.907" y2="236.242"/>
		
			<line fill="none" stroke="#AEADAD" stroke-width="0.1026" stroke-miterlimit="10" x1="542.462" y1="236.552" x2="570.907" y2="236.552"/>
		
			<line fill="none" stroke="#AEADAD" stroke-width="0.1026" stroke-miterlimit="10" x1="542.462" y1="236.859" x2="570.907" y2="236.859"/>
		
			<line fill="none" stroke="#AEADAD" stroke-width="0.1026" stroke-miterlimit="10" x1="542.462" y1="237.166" x2="570.907" y2="237.166"/>
		
			<line fill="none" stroke="#AEADAD" stroke-width="0.1026" stroke-miterlimit="10" x1="542.462" y1="237.474" x2="570.907" y2="237.474"/>
		
			<line fill="none" stroke="#AEADAD" stroke-width="0.1026" stroke-miterlimit="10" x1="542.462" y1="237.781" x2="570.907" y2="237.781"/>
	</g>
	<rect x="537.677" y="241.121" fill="#BAA565" width="145.264" height="73.672"/>
	<rect x="534.425" y="237.98" fill="#BAA565" width="151.768" height="3.141"/>
	<rect x="537.677" y="241.121" fill="#9A8857" width="145.264" height="3.14"/>
	<g>
		<rect x="574.306" y="234.837" fill="#469CD2" width="21.35" height="3.145"/>
		<rect x="591.937" y="234.837" fill="#B3E1EF" width="1.051" height="3.145"/>
		<rect x="589.987" y="234.837" fill="#B3E1EF" width="1.051" height="3.145"/>
		<rect x="575.534" y="234.837" fill="#B3E1EF" width="4.939" height="3.145"/>
	</g>
	<g>
		<rect x="547.618" y="226.439" fill="#2D783B" width="21.352" height="2.393"/>
		<rect x="556.7" y="227.156" fill="#3A3B18" width="11.281" height="0.957"/>
	</g>
	<g>
		<rect x="553.919" y="222.062" fill="#E81461" width="15.947" height="4.378"/>
		<rect x="556.253" y="223.14" fill="#201B22" width="2.73" height="2.308"/>
	</g>
	<g>
		<rect x="549.214" y="228.832" fill="#8D5623" width="18.684" height="4.377"/>
		<rect x="562.433" y="228.832" fill="#C5CB79" width="2.102" height="4.377"/>
		<rect x="551.853" y="228.832" fill="#C5CB79" width="0.477" height="4.377"/>
	</g>
</g>
<g>
	<rect x="236.628" y="252.798" fill="#7D461F" width="56.82" height="29.889"/>
	<rect x="230.68" y="252.48" fill="#BE6328" width="68.719" height="1.502"/>
	<g>
		<rect x="236.321" y="253.982" fill="#BE6328" width="1.23" height="60.811"/>
		<rect x="292.525" y="253.982" fill="#BE6328" width="1.23" height="60.811"/>
	</g>
</g>
<g>
	<path fill="#CBDFEA" d="M272.289,313.535c-0.535-1.596-1.039-1.777-4.496-1.941l-2.521-0.807c-1.412-0.344-2.652-1.123-3.577-2.187
		c-0.208-0.237-0.396-0.493-0.571-0.76c-1.594,0.113-1.365,1.566-1.365,1.566h-4.495v0.607v0.846v0.846v1.83v0.807v0.48h4.948
		l2.197-0.006h10.094C272.501,314.369,272.428,313.941,272.289,313.535"/>
	<path fill="#EEF8FD" d="M291.076,313.535c-0.537-1.596-1.043-1.777-4.499-1.941l-2.519-0.807c-1.412-0.344-2.655-1.123-3.578-2.187
		c-0.206-0.237-0.396-0.493-0.572-0.76c-1.596,0.113-1.367,1.566-1.367,1.566h-4.493v0.607v0.846v0.846v1.83v0.807v0.48h4.946
		l2.199-0.006h10.092C291.287,314.369,291.21,313.941,291.076,313.535"/>
	<rect x="255.262" y="265.033" fill="#8B8025" width="8.401" height="44.47"/>
	<path fill="#F6B49C" d="M265.887,208.054l-0.187-0.233h-10.115v21.185h-5v10.776h13.603v-10.776h-1.549v-0.011v-2.185
		c0-1.307,1.491-1.493,1.491-1.493h3.632v-5.552h2.295L265.887,208.054z"/>
	<path fill="#2F3F4A" d="M266.732,214.584c0,0.304-0.245,0.55-0.549,0.55c-0.305,0-0.549-0.246-0.549-0.55
		c0-0.303,0.244-0.551,0.549-0.551C266.487,214.033,266.732,214.281,266.732,214.584"/>
	<path fill="#784F3F" d="M267.998,203.394c-1.813,0-3.17,0.611-3.713,1.515c-0.406-0.578-1.075-0.957-1.836-0.957
		c-0.516,0-0.983,0.179-1.362,0.474c-0.328-1.244-1.449-2.164-2.793-2.164c-1.322,0-2.42,0.887-2.775,2.086
		c-0.311-0.244-0.694-0.396-1.121-0.396c-0.737,0-1.371,0.44-1.655,1.07c-0.414-0.212-0.879-0.345-1.377-0.345
		c-1.677,0-3.031,1.354-3.031,3.031c0,1.135,0.628,2.109,1.551,2.631c-0.55,0.342-0.916,0.945-0.916,1.64
		c0,0.467,0.172,0.887,0.448,1.225c-0.648,0.4-1.083,1.113-1.083,1.931c0,1.178,0.902,2.135,2.051,2.252
		c-0.354,0.358-0.574,0.856-0.574,1.405c0,0.945,0.656,1.738,1.538,1.949c-0.435,0.205-0.739,0.646-0.739,1.16
		c0,0.682,0.535,1.235,1.211,1.272v0.008h1.445c4.387,0,4.152-4.153,4.152-4.153v-1.853c-0.01,0-0.02,0.004-0.029,0.004
		c-1.018,0-1.842-0.828-1.842-1.847c0-1.016,0.824-1.842,1.842-1.842c1.006,0,1.818,0.806,1.84,1.803h0.004v0.039v0.076h1.968
		v-2.916h4.627c4.11,0,5.08-2.351,5.528-3.705c0.315-0.967,0.315-1.846,0.315-2.278
		C271.387,204.271,269.714,203.394,267.998,203.394 M260.378,207.177c0.015-0.017,0.025-0.037,0.043-0.054
		c0.009,0.021,0.021,0.037,0.029,0.054H260.378z"/>
	<path fill="#F6B49C" d="M267.258,220.513h-2.076c-0.479,0-1.445,0.045-1.445,1.261v0.938h3.521V220.513z"/>
	<path fill="#D0867E" d="M266.945,221.386c-0.211,0-0.38-0.17-0.38-0.379h-0.562c0,0.516,0.42,0.938,0.941,0.938h0.814v-0.562
		h-0.814V221.386z"/>
	<path fill="#A0922C" d="M246.12,268.445c0,4.812,3.898,8.713,8.712,8.713h6.592c4.812,0,8.713-3.899,8.713-8.713l-1.598-4.761
		H246.12V268.445z"/>
	<rect x="260.732" y="265.033" fill="#A0922C" width="8.402" height="12.233"/>
	<path fill="#3B596D" d="M267.897,229.005h-18.132c-3.329,0-6.026,2.698-6.026,6.024v4.412v12.813h2.322v15.926h0.598h20.996h2.515
		v-15.926h3.748v-2.428v-6.268v-8.531C273.916,231.701,271.219,229.005,267.897,229.005"/>
	<path fill="#3B596D" d="M278.473,246.451h-10.822v6.045h10.822h1.931h1.787h0.003c0,0,0.005,0,0.01,0h0.291v-0.028
		c1.528-0.152,2.726-1.427,2.726-2.992c0-1.568-1.196-2.842-2.726-2.994v-0.029h-0.291c-0.005,0-0.005,0-0.005,0
		c-0.005,0-0.007,0-0.007,0L278.473,246.451L278.473,246.451z"/>
	<path fill="#A0922C" d="M274.046,272.181c0-2.2,1.801-4,4-4h0.403c2.2,0,4,1.8,4,4v33.32c0,2.201-1.8,4-4,4h-0.403
		c-2.199,0-4-1.799-4-4V272.181z"/>
	<polygon fill="#A0922C" points="269.039,268.181 278.022,268.181 282.45,277.128 282.45,309.503 274.046,309.503 274.046,276.148 
		269.039,275.716 	"/>
</g>
<g>
	<path fill="#F6C811" d="M276.156,252.13c0,2.391-1.303,4.325-4.068,4.325h-26.097c-2.767,0-4.069-1.937-4.069-4.325v-3.425
		c0-2.391,1.304-4.325,4.069-4.325h26.097c2.767,0,4.068,1.936,4.068,4.325V252.13z"/>
	<path fill="#F6C811" d="M276.184,277.429c0,0.963-1.113,1.744-2.489,1.744h-29.311c-1.376,0-2.49-0.781-2.49-1.744l0,0
		c0-0.965,1.114-1.746,2.49-1.746h29.311C275.07,275.683,276.184,276.466,276.184,277.429L276.184,277.429z"/>
	<g>
		<rect x="244.83" y="244.38" fill="#41454D" width="1.227" height="70.487"/>
		<rect x="272.022" y="244.38" fill="#41454D" width="1.226" height="70.487"/>
	</g>
	<rect x="246.056" y="279.175" fill="#41454D" width="25.967" height="1.645"/>
</g>
<g>
	<g>
		<polyline fill="#9D4587" points="567.933,246.943 551.353,246.943 551.353,249.339 572.702,249.339 572.702,246.943 
			567.933,246.943 		"/>
		<rect x="552.339" y="247.662" fill="#3A3B18" width="11.281" height="0.957"/>
	</g>
	<g>
		<rect x="549.069" y="249.339" fill="#F37A5E" width="21.35" height="3.145"/>
		<rect x="551.735" y="249.339" fill="#B3E1EF" width="1.053" height="3.145"/>
		<rect x="553.687" y="249.339" fill="#B3E1EF" width="1.051" height="3.145"/>
		<rect x="564.249" y="249.339" fill="#B3E1EF" width="4.939" height="3.145"/>
	</g>
</g>
<g>
	<rect x="549.595" y="252.8" fill="#7D461F" width="56.82" height="29.887"/>
	<rect x="543.647" y="252.482" fill="#BE6328" width="68.717" height="1.502"/>
	<g>
		<rect x="605.491" y="253.984" fill="#BE6328" width="1.23" height="60.811"/>
		<rect x="549.286" y="253.984" fill="#BE6328" width="1.23" height="60.811"/>
	</g>
</g>
<g>
	<path fill="#6F3E18" d="M567.755,313.535c-0.139,0.406-0.213,0.836-0.213,1.285h10.094l2.197,0.006h4.949v-0.479v-0.81v-1.828
		v-0.848v-0.847v-0.606h-4.496c0,0,0.23-1.451-1.365-1.565c-0.174,0.268-0.363,0.521-0.57,0.76
		c-0.926,1.062-2.166,1.842-3.578,2.188l-2.521,0.806C568.794,311.76,568.29,311.939,567.755,313.535"/>
	<path fill="#7D461F" d="M551.968,313.535c-0.137,0.406-0.209,0.836-0.209,1.285h10.094l2.197,0.006h4.947v-0.479v-0.81v-1.828
		v-0.848v-0.847v-0.606h-4.492c0,0,0.227-1.451-1.369-1.565c-0.174,0.268-0.365,0.521-0.572,0.76
		c-0.922,1.062-2.164,1.842-3.576,2.188l-2.52,0.806C553.011,311.76,552.505,311.939,551.968,313.535"/>
	<rect x="576.38" y="265.033" fill="#736E56" width="8.402" height="44.472"/>
	<path fill="#F6B49C" d="M572.985,219.765h2.295v5.552h3.631c0,0,1.494,0.188,1.494,1.493v2.185v0.011h-1.549v10.778h13.602v-10.778
		h-5v-21.183h-10.115l-0.186,0.233L572.985,219.765z"/>
	<path fill="#2F3F4A" d="M576.312,214.584c0-0.303,0.246-0.549,0.549-0.549c0.305,0,0.549,0.246,0.549,0.549
		c0,0.304-0.244,0.55-0.549,0.55C576.558,215.134,576.312,214.886,576.312,214.584"/>
	<path fill="#F6B49C" d="M575.784,222.712h3.523v-0.937c0-1.218-0.969-1.263-1.445-1.263h-2.078V222.712z"/>
	<path fill="#D0867E" d="M575.282,221.386v0.56h0.814c0.521,0,0.943-0.422,0.943-0.938h-0.562c0,0.211-0.168,0.381-0.379,0.381
		h-0.816V221.386z"/>
	<path fill="#8B8569" d="M596.925,263.687h-22.42l-1.598,4.759c0,4.813,3.9,8.713,8.713,8.713h6.594
		c4.811,0,8.711-3.897,8.711-8.713V263.687z"/>
	<rect x="573.907" y="265.033" fill="#8B8569" width="8.404" height="12.233"/>
	<path fill="#396844" d="M575.147,229.005c-3.322,0-6.021,2.698-6.021,6.026v8.528v6.269v2.429h3.748v15.926h2.516h20.996h0.598
		v-15.926h2.32v-12.814v-4.41c0-3.328-2.697-6.027-6.025-6.027H575.147"/>
	<path fill="#396844" d="M560.786,247.992c0,0,0,0.002-0.002,0.004c0,0,0,0-0.002,0.006l-0.143,0.25l0.023,0.015
		c-0.613,1.377-0.107,3.02,1.23,3.783s3.008,0.36,3.881-0.867l0.025,0.014l0.143-0.248c0.002-0.006,0.004-0.01,0.004-0.01
		l0.002-0.002l0.871-1.525l0.941-1.648l7.387-12.948l-5.162-2.943l-7.385,12.945L560.786,247.992z"/>
	<path fill="#8B8569" d="M568.997,305.505c0,2.198-1.801,4-4,4h-0.402c-2.201,0-4-1.802-4-4v-33.322c0-2.199,1.799-4,4-4h0.402
		c2.199,0,4,1.801,4,4V305.505z"/>
	<polygon fill="#8B8569" points="574.005,275.716 568.997,276.148 568.997,309.505 560.595,309.505 560.595,277.128 
		565.022,268.181 574.005,268.181 	"/>
	<path fill="#9C6332" d="M574.497,205.687c0,0.009-0.01,0.019-0.012,0.025c-1.059,0.09-1.953,0.74-2.381,1.66
		c0,0.002-0.008,0.004-0.008,0.004l-0.01,0.025c-0.059,0.133-0.102,0.271-0.141,0.412l-0.264,4.781h8.164v2.813h1.965v-0.076v-0.039
		h0.006c0.02-1,0.834-1.805,1.838-1.805c1.018,0,1.844,0.826,1.844,1.844c0,1.019-0.826,1.847-1.844,1.847
		c-0.01,0-0.02-0.004-0.027-0.004v1.223c0,0-0.234,4.154,4.15,4.154h2.732v-16.865h-4H574.497L574.497,205.687z"/>
	<path fill="#396844" d="M562.849,252.482h4.039v-6.046h-4.039h-1.932h-1.787h-0.004c0,0-0.004,0-0.01,0h-0.291v0.029
		c-1.527,0.152-2.723,1.424-2.723,2.992c0,1.566,1.195,2.84,2.723,2.994v0.029h0.291c0.006,0,0.006,0,0.006,0
		c0.004,0,0.006,0,0.006,0L562.849,252.482L562.849,252.482z"/>
</g>
<g>
	<path fill="#F6C811" d="M566.888,252.13c0,2.391,1.303,4.325,4.068,4.325h26.098c2.766,0,4.068-1.937,4.068-4.325v-3.425
		c0-2.391-1.303-4.325-4.068-4.325h-26.098c-2.766,0-4.068,1.936-4.068,4.325V252.13z"/>
	<path fill="#F6C811" d="M566.858,277.429c0,0.963,1.115,1.744,2.49,1.744h29.311c1.375,0,2.49-0.781,2.49-1.744l0,0
		c0-0.965-1.115-1.746-2.49-1.746h-29.311C567.976,275.683,566.858,276.466,566.858,277.429L566.858,277.429z"/>
	<g>
		<rect x="596.987" y="244.38" fill="#41454D" width="1.227" height="70.487"/>
		<rect x="569.794" y="244.38" fill="#41454D" width="1.229" height="70.487"/>
	</g>
	<rect x="571.022" y="279.175" fill="#41454D" width="25.967" height="1.645"/>
</g>
<g>
	<rect x="42.194" y="113.861" fill="#BAA565" width="67.087" height="200.967"/>
	<path fill="#B4D6DA" d="M78.238,151.012c0,1.379-1.119,2.497-2.5,2.497c-1.382,0-2.502-1.118-2.502-2.497
		c0-1.382,1.12-2.503,2.502-2.503C77.119,148.509,78.238,149.63,78.238,151.012z"/>
	<g>
		<circle fill="#B4D6DA" cx="98.137" cy="213.664" r="3.67"/>
		
			<line fill="none" stroke="#8A9B9E" stroke-width="2.0807" stroke-linecap="round" stroke-linejoin="round" stroke-miterlimit="10" x1="83.962" y1="213.664" x2="98.357" y2="213.664"/>
	</g>
</g>
<g>
	<g>
		<rect x="378.452" y="248.101" fill="#444088" width="21.351" height="4.396"/>
	</g>
	<g>
		<rect x="375.735" y="245.679" fill="#F37A5E" width="21.351" height="2.422"/>
		<rect x="393.366" y="245.679" fill="#B3E1EF" width="1.052" height="2.422"/>
		<rect x="391.417" y="245.679" fill="#B3E1EF" width="1.052" height="2.422"/>
		<rect x="376.966" y="245.679" fill="#B3E1EF" width="4.938" height="2.422"/>
	</g>
</g>
<g>
	<rect x="339.32" y="252.798" fill="#7D461F" width="56.82" height="29.889"/>
	<rect x="333.371" y="252.48" fill="#BE6328" width="68.719" height="1.502"/>
	<g>
		<rect x="339.012" y="253.982" fill="#BE6328" width="1.229" height="60.811"/>
		<rect x="395.217" y="253.982" fill="#BE6328" width="1.229" height="60.811"/>
	</g>
</g>
<g>
	<rect x="361.953" y="265.033" fill="#D79F8A" width="5.401" height="45.084"/>
	<path fill="#F6B49C" d="M367.578,209.054l-0.186-0.233h-9.115v20.185h-6.002v10.776h13.604v-10.776h-1.55v-0.011v-2.185
		c0-1.307,1.493-1.493,1.493-1.493h3.631v-5.552h2.295L367.578,209.054z"/>
	<path fill="#2F3F4A" d="M368.509,215.105c0,0.303-0.245,0.549-0.549,0.549c-0.305,0-0.55-0.246-0.55-0.549
		c0-0.304,0.245-0.552,0.55-0.552C368.264,214.554,368.509,214.804,368.509,215.105"/>
	<path fill="#F6B49C" d="M368.949,220.513h-2.076c-0.479,0-1.445,0.045-1.445,1.261v0.938h3.521V220.513z"/>
	<path fill="#D0867E" d="M368.637,222.386c-0.211,0-0.382-0.17-0.382-0.379h-0.562c0,0.516,0.421,0.938,0.942,0.938h0.813v-0.562
		h-0.812V222.386z"/>
	<path fill="#FFF58A" d="M378.042,239.498l-5.725-9.184l-5.131,3.194l5.725,9.188l1.021,1.64l4.272,6.721l0.002,0.002
		c0,0,0.002,0.004,0.007,0.008l0.152,0.248l0.024-0.016c0.938,1.215,2.649,1.557,3.979,0.729s1.779-2.518,1.102-3.895l0.023-0.017
		l-0.152-0.248c-0.004-0.004-0.004-0.004-0.004-0.004c-0.002-0.004-0.004-0.006-0.004-0.006L378.042,239.498z"/>
	<polygon fill="#F6B49C" points="357.73,268.181 376.712,268.181 381.141,277.128 381.141,310.117 375.738,310.117 375.738,276.148 
		357.73,275.716 	"/>
	<path fill="#469CD2" d="M349.583,268.445c0,4.812,3.897,8.713,8.711,8.713h5.59c4.812,0,8.713-3.899,8.713-8.713v-4.761h-23.014
		V268.445z"/>
	<path fill="#FFF58A" d="M372.597,238.748v-1.549v-2.549v-3.269c0-1.309-1.061-2.369-2.366-2.369h-3.883h-12.695h-1.688
		c-1.31,0-2.367,1.062-2.367,2.369v3.562h-0.014v10.387v22.904h8.384h8.382h6.249L372.597,238.748L372.597,238.748z"/>
	<path fill="#AD8630" d="M371.138,208.834c-0.248-1.225-1.331-2.146-2.629-2.146c-0.022,0-0.043,0.006-0.065,0.008l-0.008-0.008
		h-2.896h-2.312h-9.271v15.352l-3.604-1.525v3.369h3.499c0.019,0,0.104,0,0.104,0c0.146,0,0.467,0,1.118,0
		c5.284,0,5.004-5.002,5.004-5.002v-0.703c-0.995-0.002-1.803-0.809-1.803-1.805s0.81-1.805,1.805-1.805
		c0.791,0,1.455,0.512,1.701,1.219l0.022,0.926c1.152-0.086,2.064-1.016,2.121-2.176h0.01v-1.607c0.516,0,1.158,0,1.967,0
		c1.126,0,6.294,0,6.294,0L371.138,208.834z"/>
	<path fill="#469CD2" d="M356.738,281.304h30.402l-2-9.123c-0.561-2.627-1.799-4-4-4h-12.402c-2.201,0-12,1.8-12,4V281.304z"/>
	<path fill="#C6492D" d="M375.886,313.707c-0.465-1.383-1.174-1.586-2.534-1.682l-2.185-0.699c-1.225-0.299-2.3-0.976-3.102-1.896
		c-0.18-0.207-0.344-0.428-0.494-0.657c-1.382,0.098-1.184,1.356-1.184,1.356h-4.437v0.525v0.731v0.734v1.586v0.699v0.416h4.287
		l1.906-0.004h7.924C376.07,314.43,376.005,314.059,375.886,313.707"/>
	<path fill="#DB4A28" d="M389.666,313.707c-0.464-1.383-1.172-1.586-2.533-1.682l-2.186-0.699c-1.223-0.299-2.299-0.976-3.1-1.896
		c-0.18-0.207-0.346-0.428-0.495-0.657c-1.382,0.098-1.186,1.356-1.186,1.356h-4.436v0.525v0.731v0.734v1.586v0.699v0.416h4.289
		l1.905-0.004h7.924C389.851,314.43,389.787,314.059,389.666,313.707"/>
	<rect x="375.772" y="281.304" opacity="0.4" fill="#B78C7E" enable-background="new    " width="5.369" height="2.308"/>
</g>
<g>
	<path fill="#F6C811" d="M378.848,252.13c0,2.391-1.304,4.325-4.07,4.325h-26.096c-2.767,0-4.069-1.937-4.069-4.325v-3.425
		c0-2.391,1.304-4.325,4.069-4.325h26.096c2.769,0,4.07,1.936,4.07,4.325V252.13z"/>
	<path fill="#F6C811" d="M378.875,277.429c0,0.963-1.113,1.744-2.489,1.744h-29.312c-1.375,0-2.49-0.781-2.49-1.744l0,0
		c0-0.965,1.115-1.746,2.49-1.746h29.312C377.761,275.683,378.875,276.466,378.875,277.429L378.875,277.429z"/>
	<g>
		<rect x="347.522" y="244.38" fill="#41454D" width="1.226" height="70.487"/>
		<rect x="374.712" y="244.38" fill="#41454D" width="1.228" height="70.487"/>
	</g>
	<rect x="348.746" y="279.175" fill="#41454D" width="25.967" height="1.645"/>
</g>
<g>
	<g>
		<rect x="483.36" y="249.101" fill="#A0922C" width="21.352" height="3.396"/>
	</g>
	<g>
		<rect x="485.646" y="246.679" fill="#3B596D" width="21.35" height="2.422"/>
		<rect x="488.312" y="246.679" fill="#B3E1EF" width="1.053" height="2.422"/>
		<rect x="490.261" y="246.679" fill="#B3E1EF" width="1.051" height="2.422"/>
		<rect x="500.825" y="246.679" fill="#B3E1EF" width="4.939" height="2.422"/>
	</g>
</g>
<g>
	<rect x="444.23" y="252.798" fill="#7D461F" width="56.82" height="29.889"/>
	<rect x="438.281" y="252.48" fill="#BE6328" width="68.716" height="1.502"/>
	<g>
		<rect x="443.921" y="253.982" fill="#BE6328" width="1.23" height="60.811"/>
		<rect x="500.126" y="253.982" fill="#BE6328" width="1.23" height="60.811"/>
	</g>
</g>
<g>
	<path fill="#2D363D" d="M479.794,313.707c-0.463-1.383-1.172-1.586-2.531-1.682l-2.186-0.699c-1.225-0.299-2.301-0.976-3.102-1.896
		c-0.18-0.207-0.344-0.428-0.494-0.657c-1.383,0.098-1.186,0.356-1.186,0.356h-4.436v1.525v0.731v0.734v1.586v0.699v0.416h4.289
		l1.906-0.004h7.924C479.981,314.43,479.915,314.059,479.794,313.707"/>
	<path fill="#3B474D" d="M491.708,313.707c-0.465-1.383-1.172-1.586-2.533-1.682l-2.186-0.699c-1.223-0.299-2.299-0.976-3.1-1.896
		c-0.182-0.207-0.346-0.428-0.496-0.657c-1.381,0.098-1.184,0.356-1.184,0.356h-4.436v1.525v0.731v0.734v1.586v0.699v0.416h4.287
		l1.904-0.004h7.926C491.894,314.43,491.829,314.059,491.708,313.707"/>
	<rect x="465.862" y="265.033" fill="#1F6482" width="6.4" height="45.084"/>
	<path fill="#F6B49C" d="M472.487,209.054l-0.186-0.233h-9.115v20.185h-6.002v10.776h13.602v-10.776h-1.549v-0.011v-2.185
		c0-1.307,1.494-1.493,1.494-1.493h3.631v-5.552h2.295L472.487,209.054z"/>
	<path fill="#2F3F4A" d="M473.417,215.105c0,0.303-0.242,0.549-0.549,0.549c-0.303,0-0.549-0.246-0.549-0.549
		c0-0.304,0.246-0.552,0.549-0.552C473.175,214.554,473.417,214.804,473.417,215.105"/>
	<path fill="#F6B49C" d="M473.858,220.513h-2.076c-0.479,0-1.447,0.045-1.447,1.261v0.938h3.523V220.513z"/>
	<path fill="#D0867E" d="M473.546,222.386c-0.211,0-0.381-0.17-0.381-0.379h-0.561c0,0.516,0.422,0.938,0.943,0.938h0.812v-0.562
		h-0.814V222.386z"/>
	<path fill="#CE766B" d="M443.813,247.859c0,0-0.001,0.002-0.004,0.006c0,0,0,0-0.002,0.004l-0.154,0.248l0.025,0.017
		c-0.679,1.377-0.229,3.065,1.101,3.895c1.329,0.828,3.042,0.486,3.979-0.729l0.024,0.016l0.153-0.248
		c0.003-0.004,0.005-0.008,0.005-0.008l0.002-0.002l4.273-6.721l1.021-1.64l5.725-9.188l-5.131-3.194l-5.723,9.184L443.813,247.859z
		"/>
	<path fill="#CE766B" d="M482.95,239.498l-5.723-9.184l-5.131,3.194l5.725,9.188l1.021,1.64l4.273,6.721l0.002,0.002
		c0,0,0.002,0.004,0.004,0.008l0.154,0.248l0.023-0.016c0.939,1.215,2.65,1.557,3.98,0.729s1.779-2.518,1.1-3.895l0.025-0.017
		l-0.154-0.248c-0.002-0.004-0.002-0.004-0.002-0.004c-0.002-0.004-0.004-0.006-0.004-0.006L482.95,239.498z"/>
	<polygon fill="#097698" points="468.78,268.181 479.755,268.181 484.185,277.128 484.185,310.117 477.78,310.117 477.78,276.148 
		468.78,275.716 	"/>
	<path fill="#097698" d="M466.038,279.175h18.146v-6.992c0-2.752-1.801-4-4-4H468.78c-2.199,0-2.74,1.799-2.74,4v6.992H466.038z"/>
	<path fill="#097698" d="M454.491,268.445c0,4.812,3.898,8.713,8.713,8.713h5.588c4.812,0,8.713-3.899,8.713-8.713v-4.761h-23.014
		V268.445z"/>
	<path fill="#CE766B" d="M477.505,238.748v-1.549v-2.549v-3.269c0-1.309-1.059-2.369-2.363-2.369h-3.885h-12.693h-1.689
		c-1.309,0-2.367,1.062-2.367,2.369v3.562h-0.014v10.387v22.904h8.383h8.383h6.248v-29.487H477.505z"/>
	<path fill="#8B6642" d="M476.046,208.834c-0.248-1.225-1.33-2.146-2.629-2.146c-0.02,0-0.043,0.006-0.062,0.008l-0.01-0.008h-2.896
		h-2.311h-9.271v15.352l2,10.666l-1,6.141h4.09l-1-6.141c0.01,0,0.031,0,0.031,0l2-10.666v-3.158v-0.703
		c-0.994-0.002-1.801-0.809-1.801-1.805s0.809-1.805,1.805-1.805c0.791,0,1.455,0.512,1.701,1.219l0.021,0.926
		c1.152-0.086,3.127-1.033,4.139-1.606C476.657,211.804,476.046,208.834,476.046,208.834z"/>
</g>
<g>
	<path fill="#F6C811" d="M483.759,252.13c0,2.391-1.305,4.325-4.07,4.325h-26.096c-2.768,0-4.07-1.937-4.07-4.325v-3.425
		c0-2.391,1.304-4.325,4.07-4.325h26.096c2.766,0,4.07,1.936,4.07,4.325V252.13z"/>
	<path fill="#F6C811" d="M483.784,277.429c0,0.963-1.115,1.744-2.49,1.744h-29.31c-1.375,0-2.49-0.781-2.49-1.744l0,0
		c0-0.965,1.115-1.746,2.49-1.746h29.31C482.669,275.683,483.784,276.466,483.784,277.429L483.784,277.429z"/>
	<g>
		<rect x="452.431" y="244.38" fill="#41454D" width="1.226" height="70.487"/>
		<rect x="479.622" y="244.38" fill="#41454D" width="1.229" height="70.413"/>
	</g>
	<rect x="453.656" y="279.175" fill="#41454D" width="25.966" height="1.645"/>
</g>
</svg>
