<?xml version="1.0" encoding="utf-8"?>
<!-- Generator: Adobe Illustrator 16.0.0, SVG Export Plug-In . SVG Version: 6.00 Build 0)  -->
<!DOCTYPE svg PUBLIC "-//W3C//DTD SVG 1.1//EN" "http://www.w3.org/Graphics/SVG/1.1/DTD/svg11.dtd">
<svg version="1.1" id="Layer_1" xmlns="http://www.w3.org/2000/svg" xmlns:xlink="http://www.w3.org/1999/xlink" x="0px" y="0px"
	 width="906.396px" height="315.486px" viewBox="2246.686 -5.117 906.396 315.486"
	 enable-background="new 2246.686 -5.117 906.396 315.486" xml:space="preserve">
<rect x="2288.88" y="45.239" fill="#9DCBBB" width="822.007" height="265.023"/>
<g>
	<circle fill="#30302F" cx="2902.026" cy="137.539" r="17.988"/>
	<circle fill="#FFFFFF" cx="2901.918" cy="137.539" r="15.639"/>
	<circle fill="#30302F" cx="2902.026" cy="137.539" r="1.387"/>
	<rect x="2901.379" y="128.696" fill="#30302F" width="1.158" height="8.843"/>
	
		<rect x="2900.038" y="137.412" transform="matrix(0.963 0.2696 -0.2696 0.963 146.062 -776.5603)" fill="#30302F" width="0.677" height="12.196"/>
</g>
<g opacity="0.4">
	<path fill="none" stroke="#B1C6CE" stroke-width="1.641" stroke-linecap="square" stroke-miterlimit="10" d="M2956.342,292.758
		c2.501,0,4.528,2.027,4.528,4.527"/>
	<g opacity="0.5">
		
			<polyline fill="none" stroke="#B1C6CE" stroke-width="1.641" stroke-linecap="round" stroke-linejoin="round" stroke-miterlimit="10" points="
			2375.391,292.758 2408.168,292.758 2408.168,306.211 2882.652,306.211 2887.301,292.758 2891.404,292.758 		"/>
		<g>
			<g>
				<path fill="#B1C6CE" d="M2374.582,296.471c0,0.947-0.769,1.715-1.716,1.715h-51.948c-0.948,0-1.716-0.768-1.716-1.715v-31.736
					c0-0.947,0.768-1.717,1.716-1.717h51.948c0.947,0,1.716,0.77,1.716,1.717V296.471z"/>
				<rect x="2372.808" y="290.568" fill="#B1C6CE" width="5.165" height="4.377"/>
			</g>
			<g>
				<path fill="#AABAB8" d="M2320.917,300.113c0,0.592,0.479,1.072,1.072,1.072l0,0c0.593,0,1.072-0.48,1.072-1.072v-39.021
					c0-0.594-0.479-1.072-1.072-1.072l0,0c-0.593,0-1.072,0.479-1.072,1.072V300.113z"/>
				<path fill="#AABAB8" d="M2325.445,300.113c0,0.592,0.479,1.072,1.073,1.072l0,0c0.592,0,1.071-0.48,1.071-1.072v-39.021
					c0-0.594-0.479-1.072-1.071-1.072l0,0c-0.594,0-1.073,0.479-1.073,1.072V300.113z"/>
				<path fill="#AABAB8" d="M2329.973,300.113c0,0.592,0.479,1.072,1.071,1.072l0,0c0.593,0,1.073-0.48,1.073-1.072v-39.021
					c0-0.594-0.48-1.072-1.073-1.072l0,0c-0.592,0-1.071,0.479-1.071,1.072V300.113z"/>
				<path fill="#AABAB8" d="M2334.5,300.113c0,0.592,0.479,1.072,1.072,1.072l0,0c0.592,0,1.072-0.48,1.072-1.072v-39.021
					c0-0.594-0.48-1.072-1.072-1.072l0,0c-0.593,0-1.072,0.479-1.072,1.072V300.113z"/>
				<path fill="#AABAB8" d="M2339.028,300.113c0,0.592,0.48,1.072,1.072,1.072l0,0c0.592,0,1.072-0.48,1.072-1.072v-39.021
					c0-0.594-0.48-1.072-1.072-1.072l0,0c-0.592,0-1.072,0.479-1.072,1.072V300.113z"/>
				<path fill="#AABAB8" d="M2343.555,300.113c0,0.592,0.48,1.072,1.072,1.072l0,0c0.593,0,1.072-0.48,1.072-1.072v-39.021
					c0-0.594-0.479-1.072-1.072-1.072l0,0c-0.592,0-1.072,0.479-1.072,1.072V300.113z"/>
				<path fill="#AABAB8" d="M2348.083,300.113c0,0.592,0.48,1.072,1.073,1.072l0,0c0.592,0,1.071-0.48,1.071-1.072v-39.021
					c0-0.594-0.479-1.072-1.071-1.072l0,0c-0.593,0-1.073,0.479-1.073,1.072V300.113z"/>
				<path fill="#AABAB8" d="M2352.611,300.113c0,0.592,0.479,1.072,1.072,1.072l0,0c0.593,0,1.072-0.48,1.072-1.072v-39.021
					c0-0.594-0.479-1.072-1.072-1.072l0,0c-0.593,0-1.072,0.479-1.072,1.072V300.113z"/>
				<path fill="#AABAB8" d="M2357.138,300.113c0,0.592,0.479,1.072,1.072,1.072l0,0c0.593,0,1.072-0.48,1.072-1.072v-39.021
					c0-0.594-0.479-1.072-1.072-1.072l0,0c-0.593,0-1.072,0.479-1.072,1.072V300.113z"/>
				<path fill="#AABAB8" d="M2361.667,300.113c0,0.592,0.479,1.072,1.072,1.072l0,0c0.592,0,1.072-0.48,1.072-1.072v-39.021
					c0-0.594-0.48-1.072-1.072-1.072l0,0c-0.593,0-1.072,0.479-1.072,1.072V300.113z"/>
				<path fill="#AABAB8" d="M2366.194,300.113c0,0.592,0.479,1.072,1.072,1.072l0,0c0.592,0,1.072-0.48,1.072-1.072v-39.021
					c0-0.594-0.48-1.072-1.072-1.072l0,0c-0.593,0-1.072,0.479-1.072,1.072V300.113z"/>
				<path fill="#AABAB8" d="M2370.721,300.113c0,0.592,0.48,1.072,1.072,1.072l0,0c0.592,0,1.072-0.48,1.072-1.072v-39.021
					c0-0.594-0.48-1.072-1.072-1.072l0,0c-0.592,0-1.072,0.479-1.072,1.072V300.113z"/>
			</g>
		</g>
		<path fill="#B1C6CE" d="M2893.319,296.471c0,0.947,0.769,1.715,1.716,1.715h51.948c0.948,0,1.716-0.768,1.716-1.715v-31.736
			c0-0.947-0.768-1.717-1.716-1.717h-51.948c-0.947,0-1.716,0.77-1.716,1.717V296.471z"/>
		<rect x="2889.927" y="290.568" fill="#B1C6CE" width="5.165" height="4.377"/>
		<rect x="2946.983" y="290.568" fill="#B1C6CE" width="5.165" height="4.377"/>
		<g>
			<path fill="#AABAB8" d="M2946.983,300.113c0,0.592-0.48,1.072-1.072,1.072l0,0c-0.592,0-1.072-0.48-1.072-1.072v-39.021
				c0-0.594,0.48-1.072,1.072-1.072l0,0c0.592,0,1.072,0.479,1.072,1.072V300.113z"/>
			<path fill="#AABAB8" d="M2942.456,300.113c0,0.592-0.479,1.072-1.072,1.072l0,0c-0.593,0-1.072-0.48-1.072-1.072v-39.021
				c0-0.594,0.479-1.072,1.072-1.072l0,0c0.593,0,1.072,0.479,1.072,1.072V300.113z"/>
			<path fill="#AABAB8" d="M2937.928,300.113c0,0.592-0.48,1.072-1.072,1.072l0,0c-0.592,0-1.072-0.48-1.072-1.072v-39.021
				c0-0.594,0.48-1.072,1.072-1.072l0,0c0.592,0,1.072,0.479,1.072,1.072V300.113z"/>
			<path fill="#AABAB8" d="M2933.401,300.113c0,0.592-0.48,1.072-1.073,1.072l0,0c-0.593,0-1.072-0.48-1.072-1.072v-39.021
				c0-0.594,0.479-1.072,1.072-1.072l0,0c0.593,0,1.073,0.479,1.073,1.072V300.113z"/>
			<path fill="#AABAB8" d="M2928.873,300.113c0,0.592-0.479,1.072-1.072,1.072l0,0c-0.592,0-1.072-0.48-1.072-1.072v-39.021
				c0-0.594,0.48-1.072,1.072-1.072l0,0c0.593,0,1.072,0.479,1.072,1.072V300.113z"/>
			<path fill="#AABAB8" d="M2924.345,300.113c0,0.592-0.479,1.072-1.073,1.072l0,0c-0.592,0-1.072-0.48-1.072-1.072v-39.021
				c0-0.594,0.48-1.072,1.072-1.072l0,0c0.594,0,1.073,0.479,1.073,1.072V300.113z"/>
			<path fill="#AABAB8" d="M2919.817,300.113c0,0.592-0.479,1.072-1.072,1.072l0,0c-0.592,0-1.071-0.48-1.071-1.072v-39.021
				c0-0.594,0.479-1.072,1.071-1.072l0,0c0.593,0,1.072,0.479,1.072,1.072V300.113z"/>
			<path fill="#AABAB8" d="M2915.29,300.113c0,0.592-0.479,1.072-1.072,1.072l0,0c-0.592,0-1.072-0.48-1.072-1.072v-39.021
				c0-0.594,0.48-1.072,1.072-1.072l0,0c0.593,0,1.072,0.479,1.072,1.072V300.113z"/>
			<path fill="#AABAB8" d="M2910.762,300.113c0,0.592-0.48,1.072-1.072,1.072l0,0c-0.592,0-1.072-0.48-1.072-1.072v-39.021
				c0-0.594,0.48-1.072,1.072-1.072l0,0c0.592,0,1.072,0.479,1.072,1.072V300.113z"/>
			<path fill="#AABAB8" d="M2906.235,300.113c0,0.592-0.48,1.072-1.073,1.072l0,0c-0.592,0-1.071-0.48-1.071-1.072v-39.021
				c0-0.594,0.479-1.072,1.071-1.072l0,0c0.593,0,1.073,0.479,1.073,1.072V300.113z"/>
			<path fill="#AABAB8" d="M2901.707,300.113c0,0.592-0.479,1.072-1.071,1.072l0,0c-0.593,0-1.072-0.48-1.072-1.072v-39.021
				c0-0.594,0.479-1.072,1.072-1.072l0,0c0.592,0,1.071,0.479,1.071,1.072V300.113z"/>
			<path fill="#AABAB8" d="M2897.18,300.113c0,0.592-0.481,1.072-1.073,1.072l0,0c-0.593,0-1.072-0.48-1.072-1.072v-39.021
				c0-0.594,0.479-1.072,1.072-1.072l0,0c0.592,0,1.073,0.479,1.073,1.072V300.113z"/>
		</g>
		
			<line fill="none" stroke="#B1C6CE" stroke-width="1.641" stroke-linecap="square" stroke-linejoin="round" stroke-miterlimit="10" x1="2948.592" y1="292.758" x2="2955.704" y2="292.758"/>
	</g>
	
		<line fill="none" stroke="#B1C6CE" stroke-width="1.641" stroke-linejoin="round" stroke-miterlimit="10" x1="2960.871" y1="298.039" x2="2960.871" y2="310.262"/>
</g>
<g opacity="0.7">
	<polygon fill="none" points="2455.327,294.789 2455.141,294.604 2455.086,295.029 	"/>
	
		<rect x="2447.347" y="293.31" transform="matrix(0.7074 0.7068 -0.7068 0.7074 924.7837 -1644.5261)" fill="#869291" width="2.954" height="2.957"/>
	
		<rect x="2445.14" y="295.516" transform="matrix(0.7071 0.7071 -0.7071 0.7071 926.6044 -1643.0323)" fill="#869291" width="2.955" height="2.955"/>
	<polygon fill="#869291" points="2439.999,297.111 2438.395,298.715 2438.539,299.83 2439.999,301.291 2442.089,299.201 	"/>
	<polygon fill="#869291" points="2438.842,284.797 2436.743,284.797 2437.793,285.848 	"/>
	<polygon fill="#869291" points="2446.502,308.025 2444.412,305.936 2442.322,308.027 2444.054,309.76 2444.769,309.76 	"/>
	<polygon fill="#869291" points="2436.614,284.9 2436.856,286.783 2437.676,285.963 	"/>
	
		<rect x="2440.727" y="295.516" transform="matrix(0.7071 0.7071 -0.7071 0.7071 925.3119 -1639.9122)" fill="#869291" width="2.955" height="2.956"/>
	
		<rect x="2442.933" y="293.311" transform="matrix(0.7071 0.7071 -0.7071 0.7071 924.3988 -1642.118)" fill="#869291" width="2.955" height="2.956"/>
	
		<rect x="2445.139" y="304.342" transform="matrix(0.7068 -0.7074 0.7074 0.7068 501.058 1820.5012)" fill="#869291" width="2.957" height="2.955"/>
	<polygon fill="#869291" points="2439.999,301.523 2438.899,302.623 2439.192,304.896 2439.999,305.703 2442.089,303.613 	"/>
	
		<rect x="2445.14" y="291.104" transform="matrix(0.7071 0.7071 -0.7071 0.7071 923.4845 -1644.3246)" fill="#869291" width="2.955" height="2.955"/>
	<polygon fill="#869291" points="2449.181,309.76 2450.915,308.025 2448.825,305.936 2446.734,308.025 2448.467,309.76 
		2449.005,309.76 	"/>
	
		<rect x="2442.934" y="302.135" transform="matrix(0.7073 -0.7069 0.7069 0.7073 500.911 1816.9324)" fill="#869291" width="2.956" height="2.956"/>
	
		<rect x="2440.728" y="299.928" transform="matrix(0.7073 -0.7069 0.7069 0.7073 501.8248 1814.7271)" fill="#869291" width="2.956" height="2.958"/>
	<polygon fill="#869291" points="2451.146,308.025 2452.879,309.76 2453.188,309.76 2453.629,306.328 2453.237,305.936 	"/>
	
		<rect x="2449.551" y="304.342" transform="matrix(0.7068 -0.7074 0.7074 0.7068 502.3518 1823.6226)" fill="#869291" width="2.957" height="2.955"/>
	<polygon fill="#869291" points="2453.237,301.523 2451.146,303.613 2453.237,305.703 2453.781,305.16 2454.133,302.42 	"/>
	<polygon fill="#869291" points="2449.413,309.76 2452.647,309.76 2451.03,308.143 	"/>
	
		<rect x="2447.347" y="302.136" transform="matrix(0.7071 -0.7071 0.7071 0.7071 502.5571 1820.5068)" fill="#869291" width="2.955" height="2.955"/>
	
		<rect x="2445.14" y="299.929" transform="matrix(0.7071 -0.7071 0.7071 0.7071 503.4707 1818.3)" fill="#869291" width="2.955" height="2.957"/>
	<polygon fill="#869291" points="2453.657,306.123 2453.747,305.426 2453.353,305.82 	"/>
	
		<rect x="2449.552" y="286.692" transform="matrix(0.7073 0.7069 -0.7069 0.7073 921.2047 -1648.3798)" fill="#869291" width="2.956" height="2.955"/>
	
		<rect x="2451.758" y="288.898" transform="matrix(-0.7068 0.7074 -0.7074 -0.7068 4392.5498 -1239.9036)" fill="#869291" width="2.957" height="2.955"/>
	<polygon fill="#869291" points="2455.168,294.398 2455.645,290.693 2455.443,290.492 2453.353,292.582 	"/>
	
		<rect x="2442.934" y="297.723" transform="matrix(0.7071 -0.7071 0.7071 0.7071 504.3845 1816.094)" fill="#869291" width="2.955" height="2.955"/>
	
		<rect x="2447.346" y="288.897" transform="matrix(0.7071 0.7071 -0.7071 0.7071 922.5702 -1646.5314)" fill="#869291" width="2.955" height="2.956"/>
	<polygon fill="#869291" points="2455.443,290.26 2455.74,289.963 2456.149,286.785 2455.443,286.08 2453.353,288.17 	"/>
	<polygon fill="#869291" points="2452.08,284.797 2449.981,284.797 2451.03,285.848 	"/>
	<polygon fill="#869291" points="2446.501,285.963 2445.336,284.797 2444,284.797 2443.487,284.797 2442.322,285.963 
		2444.412,288.053 	"/>
	<polygon fill="#869291" points="2447.667,284.797 2445.569,284.797 2446.618,285.848 	"/>
	<polygon fill="#869291" points="2437.92,295.031 2438.368,298.51 2439.883,296.994 	"/>
	<polygon fill="#869291" points="2456.176,286.58 2456.358,285.164 2455.559,285.963 	"/>
	<polygon fill="#869291" points="2456.393,284.898 2456.406,284.797 2454.394,284.797 2455.443,285.848 	"/>
	
		<rect x="2440.727" y="304.343" transform="matrix(-0.7073 -0.7069 0.7069 -0.7073 3953.3113 2248.6147)" fill="#869291" width="2.956" height="2.955"/>
	
		<rect x="2447.346" y="297.723" transform="matrix(0.7074 -0.7068 0.7068 0.7074 504.9672 1818.3068)" fill="#869291" width="2.957" height="2.957"/>
	
		<rect x="2449.552" y="299.93" transform="matrix(-0.7071 -0.7071 0.7071 -0.7071 3971.0425 2247.6763)" fill="#869291" width="2.955" height="2.956"/>
	
		<rect x="2440.727" y="286.692" transform="matrix(0.7071 0.7071 -0.7071 0.7071 919.0723 -1642.4968)" fill="#869291" width="2.955" height="2.956"/>
	
		<rect x="2449.552" y="295.516" transform="matrix(0.7073 0.7069 -0.7069 0.7073 927.4429 -1645.7968)" fill="#869291" width="2.956" height="2.955"/>
	<polygon fill="#869291" points="2439.882,292.582 2437.793,290.492 2437.387,290.898 2437.864,294.6 	"/>
	
		<rect x="2438.521" y="288.898" transform="matrix(0.7073 0.7069 -0.7069 0.7073 919.535 -1639.9355)" fill="#869291" width="2.956" height="2.957"/>
	<polygon fill="#869291" points="2443.254,284.797 2441.156,284.797 2442.206,285.848 	"/>
	
		<rect x="2440.727" y="291.104" transform="matrix(0.7071 0.7071 -0.7071 0.7071 922.192 -1641.2045)" fill="#869291" width="2.955" height="2.956"/>
	
		<rect x="2442.934" y="288.897" transform="matrix(0.7073 0.7069 -0.7069 0.7073 920.826 -1643.0554)" fill="#869291" width="2.956" height="2.956"/>
	
		<rect x="2438.521" y="293.311" transform="matrix(0.7073 0.7069 -0.7069 0.7073 922.6542 -1638.644)" fill="#869291" width="2.956" height="2.954"/>
	<polygon fill="#869291" points="2437.267,289.967 2437.36,290.691 2437.676,290.377 	"/>
	<polygon fill="#869291" points="2438.573,300.098 2438.872,302.418 2439.882,301.406 	"/>
	<polygon fill="#869291" points="2453.237,297.111 2451.147,299.201 2453.237,301.291 2454.434,300.094 2454.637,298.512 	"/>
	
		<rect x="2445.14" y="286.692" transform="matrix(0.7071 0.7071 -0.7071 0.7071 920.3647 -1645.6169)" fill="#869291" width="2.955" height="2.955"/>
	<polygon fill="#869291" points="2451.147,285.963 2453.237,288.053 2455.327,285.963 2454.162,284.797 2452.312,284.797 	"/>
	<polygon fill="#869291" points="2450.915,285.963 2449.749,284.797 2449.005,284.797 2447.899,284.797 2446.733,285.963 
		2448.825,288.053 	"/>
	<polygon fill="#869291" points="2445.001,309.76 2448.235,309.76 2446.618,308.143 	"/>
	<polygon fill="#869291" points="2440.588,309.76 2443.823,309.76 2442.206,308.143 	"/>
	<polygon fill="#869291" points="2439.226,305.162 2439.376,306.326 2439.882,305.82 	"/>
	<polygon fill="#869291" points="2439.999,305.936 2439.403,306.533 2439.819,309.76 2440.356,309.76 2442.089,308.027 	"/>
	<polygon fill="#869291" points="2442.089,285.963 2440.924,284.797 2439.075,284.797 2437.909,285.963 2439.999,288.053 	"/>
	<polygon fill="#869291" points="2454.161,302.215 2454.399,300.361 2453.353,301.408 	"/>
	<polygon fill="#869291" points="2453.237,296.879 2455.086,295.029 2455.141,294.604 2453.237,292.699 2451.146,294.787 	"/>
	<polygon fill="#869291" points="2455.672,290.488 2455.706,290.23 2455.559,290.375 	"/>
	<polygon fill="#869291" points="2454.665,298.307 2455.052,295.295 2453.353,296.994 	"/>
	<polygon fill="#869291" points="2437.793,290.26 2439.882,288.17 2437.793,286.08 2436.883,286.988 2437.233,289.699 	"/>
	
		<rect x="2449.552" y="291.104" transform="matrix(0.7073 0.7069 -0.7069 0.7073 924.3237 -1647.0883)" fill="#869291" width="2.956" height="2.955"/>
	<polygon fill="#E9F0F3" points="2455.327,285.963 2455.443,285.848 2454.394,284.797 2454.162,284.797 	"/>
	<polygon fill="#E9F0F3" points="2455.443,286.08 2456.149,286.785 2456.176,286.58 2455.559,285.963 	"/>
	<polygon fill="#E9F0F3" points="2455.443,290.492 2455.645,290.693 2455.672,290.488 2455.559,290.375 	"/>
	
		<rect x="2454.258" y="287.795" transform="matrix(-0.7101 0.7041 -0.7041 -0.7101 4400.8086 -1233.4623)" fill="#E9F0F3" width="0.164" height="2.955"/>
	
		<rect x="2452.051" y="285.589" transform="matrix(-0.7041 0.7101 -0.7101 -0.7041 4382.6187 -1251.958)" fill="#E9F0F3" width="0.165" height="2.955"/>
	<polygon fill="#E9F0F3" points="2449.981,284.797 2449.749,284.797 2450.915,285.963 2451.03,285.848 	"/>
	
		<rect x="2448.449" y="289.191" transform="matrix(0.7071 0.7071 -0.7071 0.7071 922.1136 -1647.6342)" fill="#E9F0F3" width="2.955" height="0.163"/>
	<polygon fill="#E9F0F3" points="2445.569,284.797 2445.336,284.797 2446.501,285.963 2446.618,285.848 	"/>
	
		<rect x="2446.243" y="286.984" transform="matrix(0.7074 0.7068 -0.7068 0.7074 919.0044 -1646.0067)" fill="#E9F0F3" width="2.957" height="0.164"/>
	
		<rect x="2452.052" y="290" transform="matrix(-0.7101 0.7041 -0.7041 -0.7101 4398.5898 -1228.1364)" fill="#E9F0F3" width="0.164" height="2.957"/>
	<polygon fill="#E9F0F3" points="2455.141,294.604 2455.168,294.398 2453.353,292.582 2453.237,292.699 	"/>
	
		<rect x="2441.831" y="286.984" transform="matrix(0.7071 0.7071 -0.7071 0.7071 918.6151 -1643.6002)" fill="#E9F0F3" width="2.955" height="0.165"/>
	
		<rect x="2448.449" y="293.603" transform="matrix(0.7071 0.7071 -0.7071 0.7071 925.2341 -1646.3416)" fill="#E9F0F3" width="2.955" height="0.164"/>
	
		<rect x="2452.052" y="294.412" transform="matrix(-0.7101 0.7041 -0.7041 -0.7101 4401.6953 -1220.5909)" fill="#E9F0F3" width="0.164" height="2.958"/>
	<polygon fill="#E9F0F3" points="2441.156,284.797 2440.924,284.797 2442.089,285.963 2442.206,285.848 	"/>
	
		<rect x="2446.242" y="291.397" transform="matrix(0.7069 0.7073 -0.7073 0.7069 923.4803 -1645.7838)" fill="#E9F0F3" width="2.958" height="0.165"/>
	<polygon fill="#E9F0F3" points="2453.237,297.111 2454.637,298.512 2454.665,298.307 2453.353,296.994 	"/>
	
		<rect x="2444.037" y="289.191" transform="matrix(0.7071 0.7071 -0.7071 0.7071 920.8212 -1644.514)" fill="#E9F0F3" width="2.955" height="0.164"/>
	
		<rect x="2444.037" y="293.603" transform="matrix(0.7071 0.7071 -0.7071 0.7071 923.9417 -1643.2214)" fill="#E9F0F3" width="2.955" height="0.165"/>
	
		<rect x="2441.83" y="291.397" transform="matrix(0.7069 0.7073 -0.7073 0.7069 922.1873 -1642.663)" fill="#E9F0F3" width="2.958" height="0.164"/>
	
		<rect x="2439.624" y="289.191" transform="matrix(0.7073 0.7069 -0.7069 0.7073 919.0779 -1641.0383)" fill="#E9F0F3" width="2.956" height="0.164"/>
	
		<rect x="2437.418" y="286.984" transform="matrix(0.7071 0.7071 -0.7071 0.7071 917.3228 -1640.48)" fill="#E9F0F3" width="2.955" height="0.164"/>
	<polygon fill="#E9F0F3" points="2453.237,301.523 2454.133,302.42 2454.161,302.215 2453.353,301.408 	"/>
	
		<rect x="2448.449" y="298.015" transform="matrix(0.7071 0.7071 -0.7071 0.7071 928.354 -1645.0493)" fill="#E9F0F3" width="2.955" height="0.164"/>
	
		<rect x="2446.243" y="295.81" transform="matrix(0.7074 0.7068 -0.7068 0.7074 925.2419 -1643.4248)" fill="#E9F0F3" width="2.957" height="0.163"/>
	<polygon fill="#E9F0F3" points="2437.793,285.848 2436.743,284.797 2436.6,284.797 2436.614,284.9 2437.676,285.963 	"/>
	
		<rect x="2450.655" y="300.221" transform="matrix(-0.7069 -0.7073 0.7073 -0.7069 3973.2524 2246.9258)" fill="#E9F0F3" width="2.958" height="0.165"/>
	
		<rect x="2441.831" y="295.81" transform="matrix(0.7073 0.7069 -0.7069 0.7073 924.4031 -1640.6606)" fill="#E9F0F3" width="2.956" height="0.163"/>
	
		<rect x="2439.624" y="293.603" transform="matrix(0.7073 0.7069 -0.7069 0.7073 922.1976 -1639.7466)" fill="#E9F0F3" width="2.956" height="0.165"/>
	
		<rect x="2447.639" y="298.826" transform="matrix(0.7071 -0.7071 0.7071 0.7071 504.5732 1818.7568)" fill="#E9F0F3" width="0.163" height="2.957"/>
	
		<rect x="2444.037" y="298.015" transform="matrix(0.7071 0.7071 -0.7071 0.7071 927.0615 -1641.9292)" fill="#E9F0F3" width="2.955" height="0.165"/>
	<polygon fill="#E9F0F3" points="2437.793,290.26 2437.233,289.699 2437.267,289.967 2437.676,290.377 	"/>
	
		<rect x="2449.846" y="301.033" transform="matrix(0.7071 -0.7071 0.7071 0.7071 503.6598 1820.9635)" fill="#E9F0F3" width="0.163" height="2.955"/>
	<polygon fill="#E9F0F3" points="2453.237,305.936 2453.629,306.328 2453.657,306.123 2453.353,305.82 	"/>
	
		<rect x="2450.655" y="304.633" transform="matrix(-0.7069 -0.7073 0.7073 -0.7069 3970.1318 2254.457)" fill="#E9F0F3" width="2.958" height="0.165"/>
	
		<rect x="2437.418" y="291.398" transform="matrix(0.7071 0.7071 -0.7071 0.7071 920.4434 -1639.1875)" fill="#E9F0F3" width="2.955" height="0.163"/>
	
		<rect x="2443.227" y="298.826" transform="matrix(0.7101 -0.7041 0.7041 0.7101 496.9053 1807.4379)" fill="#E9F0F3" width="0.164" height="2.955"/>
	
		<rect x="2449.846" y="305.445" transform="matrix(0.7071 -0.7071 0.7071 0.7071 500.5399 1822.2557)" fill="#E9F0F3" width="0.163" height="2.955"/>
	
		<rect x="2439.624" y="298.015" transform="matrix(0.7073 0.7069 -0.7069 0.7073 925.3168 -1638.455)" fill="#E9F0F3" width="2.956" height="0.165"/>
	<polygon fill="#E9F0F3" points="2451.03,308.143 2452.647,309.76 2452.879,309.76 2451.146,308.025 	"/>
	
		<rect x="2445.433" y="301.032" transform="matrix(0.7041 -0.7101 0.7101 0.7041 508.7255 1825.9604)" fill="#E9F0F3" width="0.165" height="2.956"/>
	
		<rect x="2447.639" y="303.238" transform="matrix(0.713 -0.7011 0.7011 0.713 488.7891 1803.6416)" fill="#E9F0F3" width="0.164" height="2.957"/>
	<polygon fill="#E9F0F3" points="2439.883,296.994 2439.999,296.879 2437.909,294.787 2437.891,294.807 2437.92,295.031 	"/>
	
		<rect x="2445.433" y="305.445" transform="matrix(0.7101 -0.7041 0.7041 0.7101 492.8843 1810.9104)" fill="#E9F0F3" width="0.164" height="2.956"/>
	
		<rect x="2443.227" y="303.238" transform="matrix(0.7071 -0.7071 0.7071 0.7071 500.1611 1816.9292)" fill="#E9F0F3" width="0.163" height="2.957"/>
	
		<rect x="2441.02" y="301.032" transform="matrix(0.7041 -0.7101 0.7101 0.7041 507.4198 1822.8269)" fill="#E9F0F3" width="0.165" height="2.956"/>
	<polygon fill="#E9F0F3" points="2439.999,301.291 2438.539,299.83 2438.573,300.098 2439.882,301.406 	"/>
	<polygon fill="#E9F0F3" points="2446.734,308.025 2446.618,308.143 2448.235,309.76 2448.467,309.76 	"/>
	<polygon fill="#E9F0F3" points="2444.054,309.76 2442.322,308.027 2442.206,308.143 2443.823,309.76 2444,309.76 	"/>
	
		<rect x="2441.02" y="305.445" transform="matrix(0.7101 -0.7041 0.7041 0.7101 491.6042 1807.8035)" fill="#E9F0F3" width="0.164" height="2.958"/>
	<polygon fill="#E9F0F3" points="2439.999,305.703 2439.192,304.896 2439.226,305.162 2439.882,305.82 	"/>
	<polygon fill="#E9F0F3" points="2437.909,285.963 2439.075,284.797 2438.842,284.797 2437.793,285.848 	"/>
	<polygon fill="#E9F0F3" points="2437.793,286.08 2437.676,285.963 2436.856,286.783 2436.883,286.988 	"/>
	
		<rect x="2437.711" y="285.881" transform="matrix(0.713 -0.7011 0.7011 0.713 499.0883 1791.2992)" fill="#E9F0F3" width="0.164" height="0.166"/>
	
		<rect x="2441.02" y="285.588" transform="matrix(0.7041 0.7101 -0.7101 0.7041 926.0537 -1648.396)" fill="#E9F0F3" width="0.165" height="2.956"/>
	<polygon fill="#E9F0F3" points="2442.322,285.963 2443.487,284.797 2443.254,284.797 2442.206,285.848 	"/>
	
		<rect x="2438.814" y="287.795" transform="matrix(0.7101 0.7041 -0.7041 0.7101 910.7566 -1633.4032)" fill="#E9F0F3" width="0.164" height="2.955"/>
	<polygon fill="#E9F0F3" points="2437.793,290.492 2437.676,290.377 2437.36,290.691 2437.387,290.898 	"/>
	
		<rect x="2442.124" y="285.881" transform="matrix(0.7101 0.7041 -0.7041 0.7101 909.3857 -1636.6931)" fill="#E9F0F3" width="0.164" height="0.164"/>
	
		<rect x="2439.916" y="288.087" transform="matrix(0.7041 0.7101 -0.7101 0.7041 926.5109 -1647.2859)" fill="#E9F0F3" width="0.165" height="0.165"/>
	
		<rect x="2437.712" y="290.294" transform="matrix(-0.7071 0.7071 -0.7071 -0.7071 4366.9004 -1228.0775)" fill="#E9F0F3" width="0.163" height="0.164"/>
	
		<rect x="2443.227" y="287.795" transform="matrix(0.7101 0.7041 -0.7041 0.7101 912.0359 -1636.5103)" fill="#E9F0F3" width="0.164" height="2.955"/>
	
		<rect x="2445.432" y="285.589" transform="matrix(0.7041 0.7101 -0.7101 0.7041 927.3593 -1651.5292)" fill="#E9F0F3" width="0.165" height="2.955"/>
	
		<rect x="2441.02" y="290.001" transform="matrix(0.7041 0.7101 -0.7101 0.7041 929.1873 -1647.0903)" fill="#E9F0F3" width="0.165" height="2.958"/>
	<polygon fill="#E9F0F3" points="2446.733,285.963 2447.899,284.797 2447.667,284.797 2446.618,285.848 	"/>
	<polygon fill="#E9F0F3" points="2437.909,294.787 2439.999,292.699 2439.882,292.582 2437.864,294.6 2437.885,294.766 	"/>
	
		<rect x="2446.536" y="285.881" transform="matrix(0.7071 0.7071 -0.7071 0.7071 918.804 -1646.2629)" fill="#E9F0F3" width="0.163" height="0.164"/>
	
		<rect x="2444.329" y="288.087" transform="matrix(0.7041 0.7101 -0.7101 0.7041 927.8165 -1650.4194)" fill="#E9F0F3" width="0.165" height="0.165"/>
	
		<rect x="2442.124" y="290.293" transform="matrix(0.7071 0.7071 -0.7071 0.7071 920.6315 -1641.851)" fill="#E9F0F3" width="0.163" height="0.164"/>
	
		<rect x="2439.917" y="292.5" transform="matrix(0.7101 0.7041 -0.7041 0.7101 913.4065 -1633.2201)" fill="#E9F0F3" width="0.164" height="0.164"/>
	<polygon fill="#E9F0F3" points="2437.885,294.766 2437.891,294.807 2437.909,294.787 	"/>
	
		<rect x="2447.639" y="287.795" transform="matrix(0.713 0.7011 -0.7011 0.713 905.2585 -1633.1807)" fill="#E9F0F3" width="0.164" height="2.955"/>
	
		<rect x="2449.845" y="285.589" transform="matrix(0.7011 0.713 -0.713 0.7011 936.8705 -1661.0635)" fill="#E9F0F3" width="0.164" height="2.955"/>
	
		<rect x="2445.432" y="290.001" transform="matrix(0.7011 0.713 -0.713 0.7011 938.6984 -1656.5983)" fill="#E9F0F3" width="0.164" height="2.958"/>
	<polygon fill="#E9F0F3" points="2451.147,285.963 2452.312,284.797 2452.08,284.797 2451.03,285.848 	"/>
	
		<rect x="2443.226" y="292.208" transform="matrix(0.7041 0.7101 -0.7101 0.7041 931.4065 -1648.0044)" fill="#E9F0F3" width="0.165" height="2.955"/>
	
		<rect x="2441.02" y="294.414" transform="matrix(0.7101 0.7041 -0.7041 0.7101 916.0568 -1633.0376)" fill="#E9F0F3" width="0.164" height="2.956"/>
	<polygon fill="#E9F0F3" points="2439.999,297.111 2439.883,296.994 2438.368,298.51 2438.395,298.715 	"/>
	
		<rect x="2450.948" y="285.881" transform="matrix(0.713 0.7011 -0.7011 0.713 903.8878 -1636.4509)" fill="#E9F0F3" width="0.164" height="0.163"/>
	
		<rect x="2448.741" y="288.087" transform="matrix(0.7011 0.713 -0.713 0.7011 937.3274 -1659.9468)" fill="#E9F0F3" width="0.164" height="0.166"/>
	
		<rect x="2446.536" y="290.294" transform="matrix(0.7101 0.7041 -0.7041 0.7101 913.7717 -1638.521)" fill="#E9F0F3" width="0.164" height="0.163"/>
	
		<rect x="2444.33" y="292.5" transform="matrix(0.7101 0.7041 -0.7041 0.7101 914.6859 -1636.3274)" fill="#E9F0F3" width="0.164" height="0.164"/>
	
		<rect x="2442.123" y="294.707" transform="matrix(0.7011 0.713 -0.713 0.7011 940.069 -1653.2493)" fill="#E9F0F3" width="0.164" height="0.165"/>
	
		<rect x="2439.917" y="296.913" transform="matrix(0.7101 0.7041 -0.7041 0.7101 916.5133 -1631.9413)" fill="#E9F0F3" width="0.164" height="0.163"/>
	
		<rect x="2443.226" y="296.62" transform="matrix(0.7041 0.7101 -0.7101 0.7041 934.5394 -1646.6991)" fill="#E9F0F3" width="0.165" height="2.955"/>
	<polygon fill="#E9F0F3" points="2438.872,302.418 2438.899,302.623 2439.999,301.523 2439.882,301.406 	"/>
	
		<rect x="2439.624" y="300.222" transform="matrix(0.7073 -0.7069 0.7069 0.7073 502.282 1813.6239)" fill="#E9F0F3" width="2.956" height="0.164"/>
	
		<rect x="2450.656" y="289.191" transform="matrix(-0.7071 0.7071 -0.7071 -0.7071 4390.6006 -1240.1014)" fill="#E9F0F3" width="2.955" height="0.164"/>
	
		<rect x="2452.862" y="286.984" transform="matrix(-0.7071 0.7071 -0.7071 -0.7071 4392.8066 -1245.4274)" fill="#E9F0F3" width="2.955" height="0.165"/>
	
		<rect x="2445.433" y="294.414" transform="matrix(0.7101 0.7041 -0.7041 0.7101 917.3361 -1636.1447)" fill="#E9F0F3" width="0.164" height="2.955"/>
	
		<rect x="2449.845" y="290.001" transform="matrix(0.7011 0.713 -0.713 0.7011 940.0171 -1659.7445)" fill="#E9F0F3" width="0.164" height="2.957"/>
	
		<rect x="2447.638" y="292.208" transform="matrix(0.7071 0.7071 -0.7071 0.7071 924.588 -1644.7816)" fill="#E9F0F3" width="0.166" height="2.955"/>
	<polygon fill="#E9F0F3" points="2455.559,285.963 2456.358,285.164 2456.393,284.898 2455.443,285.848 	"/>
	
		<rect x="2455.361" y="285.881" transform="matrix(0.7101 0.7041 -0.7041 0.7101 913.2234 -1646.0137)" fill="#E9F0F3" width="0.164" height="0.164"/>
	
		<rect x="2453.155" y="288.086" transform="matrix(-0.7101 0.7041 -0.7041 -0.7101 4398.1455 -1234.5726)" fill="#E9F0F3" width="0.164" height="0.165"/>
	
		<rect x="2450.948" y="290.294" transform="matrix(0.713 0.7011 -0.7011 0.713 906.9813 -1635.1848)" fill="#E9F0F3" width="0.164" height="0.163"/>
	
		<rect x="2448.742" y="292.5" transform="matrix(0.7071 0.7071 -0.7071 0.7071 924.1306 -1645.8845)" fill="#E9F0F3" width="0.163" height="0.164"/>
	
		<rect x="2446.535" y="294.707" transform="matrix(0.7011 0.713 -0.713 0.7011 941.3876 -1656.3953)" fill="#E9F0F3" width="0.164" height="0.165"/>
	
		<rect x="2444.33" y="296.912" transform="matrix(0.7101 0.7041 -0.7041 0.7101 917.7926 -1635.0482)" fill="#E9F0F3" width="0.164" height="0.164"/>
	
		<rect x="2442.123" y="299.118" transform="matrix(0.7041 -0.7101 0.7101 0.7041 510.0963 1822.6312)" fill="#E9F0F3" width="0.165" height="0.164"/>
	
		<rect x="2439.917" y="301.325" transform="matrix(0.7101 -0.7041 0.7041 0.7101 495.1686 1805.4271)" fill="#E9F0F3" width="0.164" height="0.165"/>
	<polygon fill="#E9F0F3" points="2455.706,290.23 2455.74,289.963 2455.443,290.26 2455.559,290.375 	"/>
	<polygon fill="#E9F0F3" points="2439.882,305.82 2439.376,306.326 2439.403,306.533 2439.999,305.936 	"/>
	
		<rect x="2444.037" y="300.222" transform="matrix(0.7071 -0.7071 0.7071 0.7071 503.9279 1817.1969)" fill="#E9F0F3" width="2.955" height="0.164"/>
	
		<rect x="2450.656" y="293.602" transform="matrix(-0.7076 0.7066 -0.7066 -0.7076 4394.7896 -1231.2074)" fill="#E9F0F3" width="2.955" height="0.165"/>
	
		<rect x="2447.638" y="296.62" transform="matrix(0.7071 0.7071 -0.7071 0.7071 927.7079 -1643.4894)" fill="#E9F0F3" width="0.166" height="2.955"/>
	
		<rect x="2449.845" y="294.413" transform="matrix(0.7011 0.713 -0.713 0.7011 943.163 -1658.4259)" fill="#E9F0F3" width="0.164" height="2.957"/>
	
		<rect x="2441.02" y="303.238" transform="matrix(0.7101 0.7041 -0.7041 0.7101 922.27 -1630.4792)" fill="#E9F0F3" width="0.164" height="2.956"/>
	
		<rect x="2452.862" y="291.396" transform="matrix(-0.7071 0.7071 -0.7071 -0.7071 4395.9268 -1237.8954)" fill="#E9F0F3" width="2.955" height="0.165"/>
	
		<rect x="2441.83" y="302.428" transform="matrix(0.7068 -0.7074 0.7074 0.7068 502.429 1817.1895)" fill="#E9F0F3" width="2.957" height="0.163"/>
	
		<rect x="2455.36" y="290.294" transform="matrix(-0.7041 0.7101 -0.7101 -0.7041 4390.6074 -1248.6676)" fill="#E9F0F3" width="0.165" height="0.164"/>
	
		<rect x="2453.154" y="292.501" transform="matrix(-0.7041 0.7101 -0.7101 -0.7041 4388.4155 -1243.3401)" fill="#E9F0F3" width="0.165" height="0.164"/>
	
		<rect x="2450.948" y="294.706" transform="matrix(0.7101 0.7041 -0.7041 0.7101 918.1575 -1640.3484)" fill="#E9F0F3" width="0.164" height="0.163"/>
	
		<rect x="2448.742" y="296.912" transform="matrix(0.7071 0.7071 -0.7071 0.7071 927.2505 -1644.5923)" fill="#E9F0F3" width="0.163" height="0.164"/>
	
		<rect x="2446.535" y="299.118" transform="matrix(0.7041 -0.7101 0.7101 0.7041 511.4016 1825.764)" fill="#E9F0F3" width="0.165" height="0.164"/>
	
		<rect x="2444.33" y="301.325" transform="matrix(0.7101 -0.7041 0.7041 0.7101 496.448 1808.5344)" fill="#E9F0F3" width="0.164" height="0.165"/>
	
		<rect x="2442.124" y="303.531" transform="matrix(0.7101 -0.7041 0.7041 0.7101 494.2551 1807.6206)" fill="#E9F0F3" width="0.164" height="0.164"/>
	
		<rect x="2439.916" y="305.738" transform="matrix(0.7041 -0.7101 0.7101 0.7041 504.7434 1823.0225)" fill="#E9F0F3" width="0.165" height="0.164"/>
	
		<rect x="2450.656" y="298.015" transform="matrix(-0.7071 0.7071 -0.7071 -0.7071 4396.8408 -1225.0359)" fill="#E9F0F3" width="2.955" height="0.165"/>
	
		<rect x="2441.831" y="306.841" transform="matrix(0.7071 -0.7071 0.7071 0.7071 498.6006 1817.5759)" fill="#E9F0F3" width="2.955" height="0.165"/>
	
		<rect x="2448.449" y="300.223" transform="matrix(0.7071 -0.7071 0.7071 0.7071 505.2197 1820.3174)" fill="#E9F0F3" width="2.955" height="0.164"/>
	<polygon fill="#E9F0F3" points="2455.052,295.295 2455.086,295.029 2453.237,296.879 2453.353,296.994 	"/>
	
		<rect x="2446.243" y="302.429" transform="matrix(0.7071 -0.7071 0.7071 0.7071 503.0137 1819.4036)" fill="#E9F0F3" width="2.955" height="0.164"/>
	
		<rect x="2444.037" y="304.634" transform="matrix(0.7073 -0.7069 0.7069 0.7073 500.454 1818.0356)" fill="#E9F0F3" width="2.956" height="0.165"/>
	<polygon fill="#E9F0F3" points="2442.089,308.027 2440.356,309.76 2440.588,309.76 2442.206,308.143 	"/>
	
		<rect x="2453.154" y="296.913" transform="matrix(-0.7041 0.7101 -0.7101 -0.7041 4391.5483 -1235.8213)" fill="#E9F0F3" width="0.165" height="0.164"/>
	
		<rect x="2450.949" y="299.119" transform="matrix(-0.7071 -0.7071 0.7071 -0.7071 3972.604 2243.9087)" fill="#E9F0F3" width="0.163" height="0.164"/>
	
		<rect x="2448.742" y="301.325" transform="matrix(0.7071 -0.7071 0.7071 0.7071 504.1171 1819.8607)" fill="#E9F0F3" width="0.166" height="0.164"/>
	
		<rect x="2446.536" y="303.532" transform="matrix(0.7071 -0.7071 0.7071 0.7071 501.9108 1818.9462)" fill="#E9F0F3" width="0.163" height="0.163"/>
	
		<rect x="2444.329" y="305.738" transform="matrix(0.7041 -0.7101 0.7101 0.7041 506.0491 1826.156)" fill="#E9F0F3" width="0.165" height="0.164"/>
	
		<rect x="2442.124" y="307.946" transform="matrix(-0.7101 -0.7041 0.7041 -0.7101 3959.4893 2246.3511)" fill="#E9F0F3" width="0.164" height="0.164"/>
	
		<rect x="2452.052" y="301.033" transform="matrix(-0.7101 -0.7041 0.7041 -0.7101 3980.3511 2243.9075)" fill="#E9F0F3" width="0.164" height="2.956"/>
	
		<rect x="2446.243" y="306.841" transform="matrix(0.7071 -0.7071 0.7071 0.7071 499.8936 1820.6956)" fill="#E9F0F3" width="2.955" height="0.164"/>
	
		<rect x="2448.449" y="304.635" transform="matrix(0.7071 -0.7071 0.7071 0.7071 502.0999 1821.6096)" fill="#E9F0F3" width="2.955" height="0.164"/>
	<polygon fill="#E9F0F3" points="2453.237,301.291 2453.353,301.408 2454.399,300.361 2454.434,300.094 	"/>
	<polygon fill="#E9F0F3" points="2446.502,308.025 2444.769,309.76 2445.001,309.76 2446.618,308.143 	"/>
	
		<rect x="2453.154" y="301.325" transform="matrix(0.7041 -0.7101 0.7101 0.7041 511.7928 1831.1169)" fill="#E9F0F3" width="0.165" height="0.164"/>
	
		<rect x="2450.949" y="303.531" transform="matrix(-0.7071 -0.7071 0.7071 -0.7071 3969.4834 2251.4404)" fill="#E9F0F3" width="0.163" height="0.164"/>
	
		<rect x="2448.742" y="305.737" transform="matrix(0.7071 -0.7071 0.7071 0.7071 500.9972 1821.153)" fill="#E9F0F3" width="0.166" height="0.164"/>
	
		<rect x="2446.536" y="307.944" transform="matrix(0.7101 0.7041 -0.7041 0.7101 926.1996 -1633.4038)" fill="#E9F0F3" width="0.164" height="0.163"/>
	
		<rect x="2452.052" y="305.445" transform="matrix(-0.7101 -0.7041 0.7041 -0.7101 3977.2441 2251.4526)" fill="#E9F0F3" width="0.164" height="2.956"/>
	<polygon fill="#E9F0F3" points="2450.915,308.025 2449.181,309.76 2449.413,309.76 2451.03,308.143 	"/>
	<polygon fill="#E9F0F3" points="2453.237,305.703 2453.353,305.82 2453.747,305.426 2453.781,305.16 	"/>
	
		<rect x="2453.155" y="305.737" transform="matrix(-0.7101 0.7041 -0.7041 -0.7101 4410.5737 -1204.3889)" fill="#E9F0F3" width="0.164" height="0.165"/>
	
		<rect x="2450.948" y="307.944" transform="matrix(0.7101 0.7041 -0.7041 0.7101 927.4788 -1636.5104)" fill="#E9F0F3" width="0.164" height="0.163"/>
</g>
<g>
	<g>
		<rect x="2458.536" y="45.239" fill="#383F42" width="0.499" height="26.295"/>
		<g>
			<polygon fill="#FFFFFF" points="2460.428,83.679 2453.856,83.679 2456.514,70.536 2460.428,70.536 			"/>
			<polygon fill="#FFFFFF" points="2457.143,83.679 2463.713,83.679 2461.055,70.536 2457.143,70.536 			"/>
		</g>
		<path fill="#383F42" d="M2456.54,70.536c0-1.24,1.006-2.246,2.246-2.246s2.246,1.006,2.246,2.246"/>
	</g>
	<g>
		<rect x="2578.869" y="45.239" fill="#383F42" width="0.499" height="26.295"/>
		<g>
			<polygon fill="#FFFFFF" points="2580.761,83.679 2574.19,83.679 2576.848,70.536 2580.761,70.536 			"/>
			<polygon fill="#FFFFFF" points="2577.475,83.679 2584.047,83.679 2581.389,70.536 2577.475,70.536 			"/>
		</g>
		<path fill="#383F42" d="M2576.872,70.536c0-1.24,1.006-2.246,2.246-2.246s2.246,1.006,2.246,2.246"/>
	</g>
	<g>
		<rect x="2699.202" y="45.239" fill="#383F42" width="0.5" height="26.295"/>
		<g>
			<polygon fill="#FFFFFF" points="2701.094,83.679 2694.522,83.679 2697.181,70.536 2701.094,70.536 			"/>
			<polygon fill="#FFFFFF" points="2697.809,83.679 2704.379,83.679 2701.722,70.536 2697.809,70.536 			"/>
		</g>
		<path fill="#383F42" d="M2697.206,70.536c0-1.24,1.006-2.246,2.246-2.246s2.246,1.006,2.246,2.246"/>
	</g>
	<g>
		<rect x="2819.532" y="45.239" fill="#383F42" width="0.5" height="26.295"/>
		<g>
			<polygon fill="#FFFFFF" points="2821.424,83.679 2814.854,83.679 2817.512,70.536 2821.424,70.536 			"/>
			<polygon fill="#FFFFFF" points="2818.139,83.679 2824.709,83.679 2822.052,70.536 2818.139,70.536 			"/>
		</g>
		<path fill="#383F42" d="M2817.536,70.536c0-1.24,1.006-2.246,2.246-2.246s2.246,1.006,2.246,2.246"/>
	</g>
	<g>
		<rect x="2939.865" y="45.239" fill="#383F42" width="0.499" height="26.295"/>
		<g>
			<polygon fill="#FFFFFF" points="2941.757,83.679 2935.186,83.679 2937.844,70.536 2941.757,70.536 			"/>
			<polygon fill="#FFFFFF" points="2938.471,83.679 2945.042,83.679 2942.385,70.536 2938.471,70.536 			"/>
		</g>
		<path fill="#383F42" d="M2937.868,70.536c0-1.24,1.006-2.246,2.246-2.246s2.246,1.006,2.246,2.246"/>
	</g>
</g>
<g>
	<rect x="2969.35" y="123.807" fill="#BAA565" width="120.414" height="186.455"/>
	<g>
		<rect x="2974.222" y="166.207" fill="#9A8857" width="110.67" height="30.672"/>
		<rect x="2974.222" y="129.152" fill="#9A8857" width="110.67" height="30.67"/>
		<rect x="2974.222" y="202.439" fill="#9A8857" width="110.67" height="30.672"/>
		<rect x="2974.222" y="238.672" fill="#9A8857" width="110.67" height="30.67"/>
		<rect x="2974.222" y="274.904" fill="#9A8857" width="110.67" height="30.67"/>
	</g>
</g>
<g>
	<circle fill="#72A1AE" cx="2990.937" cy="94.604" r="16.715"/>
	<g>
		<polygon fill="#738280" points="3000.708,123.807 2981.167,123.807 2990.938,121.224 2990.938,121.224 		"/>
		<g>
			<path fill="#738280" d="M2990.911,114.331c-3.946,0-7.928-1.177-11.385-3.627l0.785-1.106c8.267,5.859,19.76,3.9,25.619-4.366
				c2.84-4.006,3.948-8.875,3.124-13.715c-0.825-4.84-3.484-9.067-7.489-11.906l0.784-1.106c4.301,3.048,7.156,7.589,8.042,12.784
				c0.886,5.197-0.306,10.428-3.354,14.728C3003.196,111.436,2997.097,114.331,2990.911,114.331z"/>
			<rect x="2990.259" y="113.661" fill="#738280" width="1.356" height="9.867"/>
		</g>
	</g>
</g>
<g>
	<g>
		<rect x="2502.053" y="103.47" fill="#BAA565" width="323.764" height="118.661"/>
		<rect x="2505.333" y="106.577" fill="#1E262D" width="317.203" height="111.863"/>
	</g>
	<g>
		<rect x="2749.059" y="216.287" fill="#FFFFFF" width="8.205" height="2.152"/>
		<rect x="2793.469" y="216.287" fill="#FFFFFF" width="8.205" height="2.152"/>
		<rect x="2771.008" y="216.287" fill="#FFFFFF" width="4.102" height="2.152"/>
		<rect x="2763.316" y="216.287" fill="#FFFFFF" width="2.051" height="2.152"/>
	</g>
</g>
<g>
	<rect x="3081.201" y="208.055" fill="#469CD2" width="3.691" height="25.057"/>
	<rect x="3081.201" y="228.748" fill="#B3E1EF" width="3.691" height="1.232"/>
	<rect x="3081.201" y="226.459" fill="#B3E1EF" width="3.691" height="1.234"/>
	<rect x="3081.201" y="209.498" fill="#B3E1EF" width="3.691" height="5.797"/>
</g>
<g>
	<rect x="3073.256" y="208.055" fill="#2D783B" width="2.809" height="25.057"/>
	<rect x="3074.099" y="218.711" fill="#3A3B18" width="1.123" height="13.242"/>
</g>
<g>
	<rect x="3076.065" y="214.395" fill="#E81461" width="5.136" height="18.717"/>
	<rect x="3077.228" y="217.131" fill="#201B22" width="2.708" height="3.207"/>
</g>
<g>
	<rect x="3068.12" y="211.184" fill="#8D5623" width="5.137" height="21.928"/>
	<rect x="3068.12" y="226.697" fill="#C5CB79" width="5.137" height="2.467"/>
	<rect x="3068.12" y="214.281" fill="#C5CB79" width="5.137" height="0.561"/>
</g>
<g>
	<rect x="2987.776" y="134.767" fill="#469CD2" width="3.691" height="25.055"/>
	<rect x="2987.776" y="155.459" fill="#B3E1EF" width="3.691" height="1.233"/>
	<rect x="2987.776" y="153.171" fill="#B3E1EF" width="3.691" height="1.234"/>
	<rect x="2987.776" y="136.21" fill="#B3E1EF" width="3.691" height="5.797"/>
</g>
<g>
	<rect x="2979.831" y="134.767" fill="#2D783B" width="2.811" height="25.055"/>
	<rect x="2980.674" y="145.423" fill="#3A3B18" width="1.123" height="13.241"/>
</g>
<g>
	<rect x="2982.641" y="141.106" fill="#E81461" width="5.135" height="18.716"/>
	<rect x="2983.803" y="143.843" fill="#201B22" width="2.709" height="3.207"/>
</g>
<g>
	<rect x="2974.695" y="137.896" fill="#8D5623" width="5.136" height="21.926"/>
	<rect x="2974.695" y="153.41" fill="#C5CB79" width="5.136" height="2.467"/>
	<rect x="2974.695" y="140.994" fill="#C5CB79" width="5.136" height="0.56"/>
</g>
<rect x="3033.522" y="210.209" fill="#456834" width="34.598" height="22.902"/>
<rect x="3033.522" y="213.66" fill="#AD8B46" width="34.598" height="1.848"/>
<g>
	<rect x="3038.192" y="210.209" fill="#383B38" width="0.137" height="22.902"/>
	<rect x="3042.944" y="210.209" fill="#383B38" width="0.137" height="22.902"/>
	<rect x="3047.696" y="210.209" fill="#383B38" width="0.137" height="22.902"/>
	<rect x="3052.448" y="210.209" fill="#383B38" width="0.137" height="22.902"/>
	<rect x="3057.2" y="210.209" fill="#383B38" width="0.137" height="22.902"/>
	<rect x="3061.952" y="210.209" fill="#383B38" width="0.137" height="22.902"/>
</g>
<rect x="2983.081" y="226.697" fill="#CD3927" width="28.581" height="6.414"/>
<rect x="2989.235" y="223.752" fill="#1F6482" width="26.529" height="2.945"/>
<rect x="2981.167" y="218.711" fill="#AE4A73" width="28.033" height="5.041"/>
<rect x="2983.081" y="296.77" fill="#7B4025" width="40.752" height="8.721"/>
<rect x="2980.62" y="293.592" fill="#FFF9F7" width="40.342" height="3.287"/>
<rect x="3029.043" y="250.23" fill="#0C446D" width="43.555" height="12.633"/>
<rect x="3010.568" y="251.918" fill="#474C52" width="66.66" height="17.424"/>
<g>
	<path fill="#F1F1F1" d="M2640.111,169.439l-0.034,0.068c-0.014,0.037-0.047,0.055-0.098,0.055c-0.007,0-0.061,0.02-0.162,0.059
		c-0.101,0.039-0.184,0.059-0.248,0.059l-0.132,0.01c-0.077,0-0.153-0.021-0.228-0.066s-0.129-0.084-0.161-0.119
		c-0.032-0.037-0.077-0.145-0.134-0.322c-0.058-0.18-0.086-0.287-0.086-0.322c0-0.129,0.034-0.197,0.103-0.211
		c0-0.02-0.015-0.057-0.046-0.109c-0.031-0.055-0.047-0.084-0.047-0.092c0-0.201,0.044-0.357,0.132-0.469
		c-0.039-0.127-0.059-0.197-0.059-0.209c0-0.008,0.009-0.035,0.024-0.082c0.017-0.047,0.027-0.09,0.034-0.129
		s0.017-0.072,0.029-0.098l0.01-0.082c0.007-0.039,0.031-0.059,0.073-0.059c0.02,0,0.029-0.014,0.029-0.041v-0.037l-0.01-0.064
		c0-0.092,0.022-0.156,0.068-0.197c0.045-0.041,0.075-0.102,0.09-0.182s0.033-0.129,0.056-0.148s0.04-0.055,0.054-0.104l0.067-0.137
		l0.054-0.18c0.006-0.037,0.025-0.059,0.059-0.068c0.031-0.01,0.049-0.025,0.049-0.045l-0.01-0.059
		c0.025-0.068,0.043-0.117,0.053-0.146s0.039-0.055,0.088-0.072c0.046-0.111,0.086-0.189,0.12-0.236
		c0.034-0.045,0.062-0.098,0.081-0.156s0.068-0.115,0.146-0.17c0.006-0.014,0.02-0.047,0.041-0.1
		c0.021-0.055,0.048-0.084,0.081-0.092c0.032-0.006,0.048-0.02,0.048-0.039l-0.02-0.039c0-0.025,0.025-0.072,0.074-0.141
		l0.059-0.107c0.029-0.033,0.062-0.059,0.098-0.074c0.045-0.092,0.104-0.182,0.176-0.273s0.134-0.189,0.186-0.293
		c0.075-0.088,0.145-0.152,0.21-0.191l0.161-0.199c0.039-0.082,0.078-0.123,0.117-0.123c0.062-0.117,0.139-0.193,0.23-0.229
		c0.016-0.008,0.062-0.043,0.139-0.105c0.076-0.064,0.145-0.096,0.203-0.096c0.052,0,0.119,0.057,0.2,0.172
		c0.081,0.113,0.122,0.209,0.122,0.287c0,0.02-0.011,0.049-0.031,0.086c-0.021,0.037-0.034,0.076-0.037,0.117
		c-0.004,0.041-0.023,0.156-0.059,0.344c-0.036,0.189-0.066,0.297-0.093,0.324l-0.132,0.254c-0.014,0.039-0.028,0.061-0.044,0.068
		c-0.017,0.006-0.036,0.031-0.06,0.078l0.025,0.102h-0.01c-0.036,0.039-0.073,0.113-0.113,0.221
		c-0.052,0.078-0.097,0.152-0.134,0.223s-0.056,0.115-0.056,0.139l-0.029,0.068c-0.072,0.107-0.119,0.193-0.143,0.26
		c-0.032,0.025-0.058,0.061-0.075,0.107c-0.019,0.045-0.042,0.078-0.071,0.1s-0.048,0.057-0.057,0.109
		c-0.008,0.053-0.017,0.084-0.026,0.094l-0.098-0.01v0.01l0.01,0.141c0,0.014-0.016,0.027-0.046,0.045
		c-0.031,0.016-0.059,0.051-0.081,0.105c-0.022,0.053-0.063,0.082-0.122,0.09c-0.029,0.02-0.047,0.039-0.054,0.059l0.02,0.092
		c-0.007,0.008-0.032,0.041-0.075,0.104c-0.045,0.062-0.071,0.094-0.081,0.098l-0.103,0.01c-0.02,0.006-0.029,0.062-0.029,0.172
		c0,0.07-0.033,0.119-0.098,0.145c-0.17,0.262-0.268,0.406-0.296,0.436c-0.027,0.029-0.081,0.053-0.159,0.068
		c0,0.008-0.006,0.01-0.02,0.01c-0.032,0-0.103-0.047-0.21-0.141h-0.01c-0.042,0.188-0.075,0.297-0.1,0.322
		s-0.036,0.055-0.036,0.088l0.049,0.088v0.014c0,0.092-0.017,0.205-0.049,0.338v0.029l0.02,0.104v0.18l-0.01,0.107
		c0.025,0.045,0.039,0.086,0.039,0.123c0,0.104,0.025,0.156,0.078,0.156c0.025,0,0.066-0.033,0.121-0.098l0.059-0.029
		c0.059-0.027,0.115-0.086,0.169-0.176c0.054-0.092,0.081-0.17,0.081-0.234c0-0.068-0.067-0.104-0.201-0.104
		c-0.064-0.014-0.098-0.082-0.098-0.209c0-0.061,0.025-0.113,0.073-0.16c0.05-0.047,0.092-0.098,0.128-0.148
		c0.078-0.121,0.16-0.182,0.248-0.182l0.25-0.088c0.025,0,0.051,0.006,0.076,0.016c0.023,0.01,0.056,0.021,0.095,0.033
		c0.104-0.039,0.157-0.059,0.161-0.059c0.113,0,0.19,0.059,0.229,0.176c0,0.023,0.026,0.035,0.078,0.035
		c0.114,0,0.21-0.035,0.286-0.105s0.158-0.127,0.244-0.172c0.086-0.043,0.156-0.088,0.21-0.137c0.054-0.047,0.087-0.07,0.101-0.07
		h0.073c0.007,0,0.026-0.021,0.059-0.062c0.032-0.043,0.093-0.064,0.181-0.064c0.033,0,0.049,0.014,0.049,0.039
		c0,0.172-0.025,0.275-0.076,0.307c-0.05,0.029-0.111,0.102-0.183,0.211l-0.054,0.029c-0.033,0.029-0.062,0.062-0.088,0.098
		c-0.026,0.037-0.053,0.059-0.078,0.064c-0.075,0.113-0.133,0.17-0.172,0.17c-0.02,0-0.041-0.008-0.065-0.023
		s-0.04-0.025-0.046-0.025c-0.02,0-0.036,0.039-0.049,0.119c-0.02,0.029-0.074,0.076-0.162,0.141c-0.013,0-0.035-0.02-0.068-0.059
		c0-0.006-0.003-0.01-0.01-0.01c-0.052,0-0.084,0.029-0.095,0.088c-0.012,0.059-0.048,0.092-0.11,0.098l-0.195,0.033l-0.112-0.008
		c-0.026,0-0.083,0.078-0.169,0.238s-0.139,0.242-0.158,0.25c-0.102,0.031-0.171,0.092-0.211,0.18L2640.111,169.439z
		 M2641.776,163.836v-0.059c-0.074,0.02-0.128,0.09-0.16,0.209l-0.039,0.039c-0.062,0.041-0.111,0.094-0.146,0.164
		c-0.037,0.07-0.096,0.156-0.177,0.258l-0.02,0.059l-0.112,0.141l-0.02,0.094c-0.007,0.012-0.031,0.033-0.073,0.062
		s-0.071,0.07-0.085,0.119c-0.016,0.051-0.051,0.111-0.107,0.182c-0.058,0.07-0.097,0.117-0.118,0.143
		c-0.021,0.023-0.06,0.111-0.114,0.26l-0.029,0.051c0,0.029-0.017,0.053-0.049,0.072l-0.182,0.221c0,0.012-0.006,0.061-0.02,0.141
		c-0.049,0.006-0.079,0.025-0.092,0.059l-0.078,0.182c-0.008,0.02-0.023,0.041-0.049,0.068c-0.043,0.156-0.104,0.27-0.182,0.342
		l-0.112,0.229c-0.013,0.027-0.022,0.062-0.029,0.107l-0.01,0.029c-0.039,0.076-0.059,0.133-0.059,0.172
		c0,0.014-0.003,0.053-0.01,0.123h0.01c0.007,0,0.02-0.01,0.039-0.025s0.046-0.035,0.078-0.057s0.059-0.061,0.079-0.119
		c0.019-0.059,0.051-0.1,0.095-0.125c0.044-0.023,0.072-0.049,0.085-0.076l0.294-0.391c0.019-0.025,0.046-0.057,0.08-0.09
		c0.034-0.035,0.052-0.061,0.052-0.08l0.039-0.068c0.02-0.02,0.053-0.057,0.1-0.107c0.047-0.053,0.084-0.088,0.11-0.107
		s0.04-0.051,0.044-0.094c0.003-0.043,0.021-0.086,0.054-0.133l0.02-0.037c0.036-0.043,0.065-0.074,0.088-0.094
		s0.036-0.041,0.039-0.064c0.003-0.021,0.04-0.064,0.112-0.127c0.007-0.047,0.045-0.127,0.115-0.236
		c0.069-0.109,0.123-0.207,0.158-0.295c0.036-0.088,0.071-0.15,0.105-0.184c0.034-0.035,0.056-0.096,0.066-0.184l0.049-0.078
		l0.15-0.42l-0.023-0.104L2641.776,163.836z"/>
	<path fill="#F1F1F1" d="M2645.151,168.389l0.078-0.068c0.049,0,0.078-0.021,0.088-0.064c0.01-0.045,0.045-0.08,0.105-0.105
		c0.06-0.027,0.115-0.08,0.168-0.158c0.051-0.08,0.105-0.121,0.16-0.121c0.02,0,0.043,0.018,0.068,0.049
		c0.025,0.033,0.039,0.059,0.039,0.078c0,0.107-0.033,0.219-0.098,0.332l-0.02,0.137l-0.034,0.064
		c-0.049,0.025-0.081,0.055-0.096,0.084s-0.053,0.064-0.114,0.107l-0.049,0.068c-0.072,0.021-0.12,0.059-0.145,0.111
		s-0.059,0.082-0.103,0.088s-0.092,0.039-0.144,0.098c-0.033,0.016-0.072,0.031-0.117,0.045l-0.01,0.049
		c-0.033,0.031-0.084,0.059-0.154,0.078s-0.122,0.037-0.156,0.057c-0.034,0.018-0.059,0.025-0.071,0.025
		c-0.062,0-0.118-0.012-0.171-0.037c-0.052-0.023-0.105-0.039-0.161-0.045c-0.02-0.02-0.03-0.041-0.034-0.064
		c-0.003-0.023-0.02-0.053-0.049-0.09s-0.043-0.09-0.043-0.154l0.02-0.092c0-0.014-0.009-0.031-0.025-0.051
		c-0.016-0.018-0.024-0.035-0.024-0.047c0-0.014,0.003-0.023,0.01-0.031c0.007-0.006,0.01-0.016,0.01-0.027
		c0-0.018-0.003-0.035-0.01-0.055s-0.01-0.035-0.01-0.049l0.03-0.24c0-0.02-0.008-0.029-0.021-0.029s-0.036,0.018-0.071,0.049
		c-0.033,0.033-0.073,0.049-0.119,0.049c-0.026,0.02-0.047,0.061-0.063,0.123c-0.026,0.033-0.059,0.062-0.098,0.088l-0.02,0.029
		c-0.007,0.023-0.031,0.041-0.073,0.057c-0.043,0.014-0.072,0.033-0.088,0.055l-0.049,0.049l-0.093-0.008
		c-0.007,0.006-0.024,0.033-0.054,0.084s-0.067,0.092-0.113,0.125l-0.371,0.303c-0.039,0.027-0.096,0.059-0.171,0.098l-0.029,0.029
		c-0.261,0.174-0.444,0.26-0.552,0.26c-0.088,0-0.191-0.025-0.309-0.074s-0.181-0.107-0.19-0.176l-0.048-0.199
		c-0.03-0.047-0.045-0.109-0.045-0.191c0-0.039,0.004-0.064,0.01-0.078v-0.029l-0.01-0.162c0-0.037,0.031-0.059,0.093-0.059
		l-0.01-0.131c0-0.014,0.028-0.064,0.086-0.154c0.057-0.09,0.095-0.141,0.114-0.154l0.049-0.062c-0.003-0.039,0.02-0.08,0.068-0.125
		s0.088-0.088,0.118-0.135c0.029-0.045,0.085-0.096,0.166-0.15l0.146-0.146c0.114-0.115,0.238-0.207,0.372-0.273
		c0.02-0.008,0.06-0.039,0.119-0.098c0.061-0.059,0.13-0.104,0.206-0.131c0.077-0.027,0.151-0.062,0.226-0.104
		c0.072-0.043,0.131-0.064,0.174-0.064h0.039c0.013,0,0.099-0.041,0.259-0.123h0.029c0.013,0,0.044,0.014,0.093,0.039h0.01
		l0.078-0.039c0.014-0.006,0.029-0.01,0.049-0.01c0.203,0,0.313,0.141,0.333,0.422c0.007,0.059,0.022,0.088,0.049,0.088
		c0.032,0,0.079-0.061,0.14-0.18s0.188-0.178,0.384-0.178c0.14,0,0.21,0.09,0.21,0.27c0,0.211-0.095,0.412-0.283,0.6
		c-0.014,0.025-0.023,0.057-0.029,0.088l-0.068,0.201v0.01c0,0.02-0.014,0.047-0.041,0.08c-0.028,0.035-0.042,0.064-0.042,0.09
		l0.01,0.123l-0.02,0.137c0,0.062,0.011,0.104,0.034,0.123c0.104-0.027,0.179-0.07,0.227-0.131c0.047-0.061,0.08-0.094,0.1-0.1
		l0.049-0.02C2645.079,168.463,2645.112,168.422,2645.151,168.389z M2643.529,168.389c0.013-0.07,0.054-0.125,0.12-0.162
		c0.066-0.039,0.106-0.076,0.119-0.115c0.062-0.045,0.15-0.127,0.267-0.244s0.174-0.189,0.174-0.215c0-0.01-0.007-0.016-0.021-0.016
		h-0.009l-0.04,0.025l-0.088-0.01l-0.092,0.01l-0.068-0.035l-0.064,0.01l-0.098-0.02c-0.052,0-0.097,0.012-0.135,0.031
		c-0.037,0.021-0.108,0.045-0.215,0.072c-0.105,0.025-0.201,0.07-0.285,0.133c-0.085,0.064-0.146,0.096-0.186,0.096
		c-0.023,0.049-0.1,0.119-0.23,0.211c-0.078,0.025-0.129,0.082-0.15,0.17c-0.086,0.068-0.128,0.107-0.128,0.117l-0.034,0.084
		c-0.025,0.023-0.059,0.041-0.098,0.057c-0.039,0.014-0.062,0.049-0.068,0.102c-0.006,0.055-0.028,0.104-0.065,0.146
		c-0.038,0.045-0.057,0.08-0.057,0.105c0,0.16,0.03,0.24,0.093,0.24c0.026,0,0.08-0.018,0.164-0.053
		c0.082-0.033,0.131-0.057,0.144-0.07s0.039-0.025,0.078-0.039l0.093-0.049c0.014-0.012,0.028-0.021,0.045-0.023
		c0.016-0.004,0.032-0.014,0.049-0.033c0.016-0.018,0.045-0.037,0.088-0.059c0.042-0.02,0.074-0.049,0.098-0.084
		c0.055-0.033,0.145-0.084,0.269-0.152l0.103-0.078c0.072-0.033,0.115-0.061,0.132-0.082
		C2643.448,168.436,2643.48,168.412,2643.529,168.389z"/>
	<path fill="#F1F1F1" d="M2646.141,168.238v-0.049c0-0.033,0.033-0.104,0.098-0.211c0.065-0.107,0.141-0.176,0.226-0.209
		c0.006,0,0.01-0.004,0.01-0.01l-0.01-0.078c0.013-0.014,0.045-0.057,0.097-0.127c0.053-0.072,0.104-0.104,0.152-0.094
		c0.035-0.051,0.081-0.096,0.137-0.129c0.055-0.035,0.105-0.078,0.15-0.135l0.182-0.111c0.127-0.086,0.219-0.127,0.277-0.127h0.074
		c0.039-0.066,0.091-0.1,0.155-0.1c0.062,0,0.103,0.01,0.122,0.029c0.007,0.008,0.014,0.01,0.02,0.01
		c0.004,0,0.023-0.012,0.059-0.039c0.036-0.025,0.08-0.039,0.133-0.039c0.013,0,0.086,0.027,0.219,0.078
		c0.039-0.039,0.077-0.059,0.113-0.059c0.012,0,0.035,0.01,0.068,0.029c0.031,0.02,0.065,0.037,0.1,0.053
		c0.034,0.014,0.067,0.074,0.1,0.18c0.033,0.107,0.049,0.166,0.049,0.178c0,0.053-0.043,0.115-0.129,0.184
		c-0.086,0.07-0.166,0.105-0.241,0.105c-0.026,0-0.059-0.023-0.098-0.068c-0.098-0.02-0.181-0.043-0.249-0.072
		c-0.09,0.02-0.16,0.043-0.209,0.072h-0.01l-0.044-0.039l-0.039-0.01h-0.01c-0.01,0.014-0.022,0.035-0.039,0.068
		c-0.052,0.037-0.097,0.059-0.134,0.07s-0.067,0.029-0.09,0.055c-0.023,0.023-0.062,0.049-0.115,0.076
		c-0.054,0.025-0.094,0.061-0.119,0.107c-0.065,0.035-0.113,0.057-0.142,0.062h-0.029c-0.026,0.053-0.087,0.139-0.181,0.26
		l-0.127,0.209c-0.029,0.027-0.064,0.057-0.107,0.092c-0.042,0.033-0.062,0.064-0.062,0.09c0,0.006,0.002,0.023,0.01,0.049v0.049
		c0,0.02-0.016,0.043-0.047,0.07c-0.031,0.029-0.047,0.049-0.047,0.062l0.01,0.107l-0.039,0.17c0,0.102,0.074,0.152,0.221,0.152
		h0.072l0.211-0.035c0.067-0.01,0.125-0.02,0.17-0.029c0.046-0.01,0.072-0.014,0.078-0.014c0.007,0,0.033-0.02,0.078-0.055h0.049
		l0.044-0.01c0.013-0.068,0.106-0.125,0.278-0.17c0.039-0.061,0.104-0.104,0.197-0.131s0.187-0.086,0.281-0.178h0.073
		c0.01,0,0.04-0.02,0.09-0.057c0.051-0.037,0.103-0.066,0.156-0.09s0.087-0.043,0.101-0.059c0.013-0.016,0.037-0.031,0.072-0.045
		c0.059-0.09,0.129-0.148,0.211-0.17l0.02-0.02c0.052-0.047,0.084-0.068,0.098-0.068l0.059,0.01c0.032,0,0.053-0.021,0.061-0.061
		c0.008-0.041,0.061-0.098,0.156-0.168c0.096-0.068,0.157-0.104,0.184-0.104c0.062,0,0.092,0.031,0.092,0.098
		c0,0.049-0.027,0.076-0.083,0.082c0.036,0.086,0.054,0.133,0.054,0.143c0,0.107-0.054,0.178-0.161,0.209
		c-0.013,0.008-0.02,0.018-0.02,0.029l-0.01,0.088c0.003,0,0.003,0.004,0,0.008c-0.003,0.006-0.01,0.012-0.02,0.021l-0.073,0.01
		l-0.02,0.029c-0.071,0.041-0.154,0.107-0.249,0.201l-0.098,0.104h-0.015c-0.033-0.033-0.059-0.049-0.078-0.049
		c-0.014,0-0.029,0.021-0.049,0.068c-0.111,0.109-0.191,0.174-0.239,0.189c-0.02,0.008-0.054,0.033-0.103,0.078l-0.098,0.064h-0.074
		c-0.01,0.01-0.018,0.023-0.026,0.041c-0.008,0.018-0.036,0.045-0.085,0.08s-0.084,0.068-0.105,0.096s-0.051,0.049-0.09,0.061
		l-0.089-0.02c-0.028,0.053-0.083,0.078-0.161,0.078c-0.02,0.014-0.048,0.039-0.085,0.076c-0.038,0.037-0.063,0.057-0.076,0.057
		s-0.047-0.02-0.103-0.059h-0.01c-0.032,0-0.049,0.023-0.049,0.072s-0.029,0.076-0.09,0.078c-0.061,0.004-0.117,0.02-0.169,0.049
		h-0.01c-0.075,0-0.129-0.014-0.161-0.041c-0.033-0.027-0.062-0.047-0.088-0.061c-0.102,0.033-0.154,0.049-0.161,0.049
		c-0.039,0-0.077-0.016-0.112-0.049l-0.211-0.107c-0.012-0.01-0.035-0.055-0.067-0.133l-0.029-0.039
		c-0.104-0.02-0.175-0.127-0.21-0.322l-0.039-0.117c-0.007-0.006-0.01-0.021-0.01-0.043c0-0.033,0.012-0.084,0.039-0.15
		c0.025-0.066,0.052-0.156,0.078-0.268C2646.006,168.338,2646.061,168.268,2646.141,168.238z"/>
	<path fill="#F1F1F1" d="M2648.912,168.219v-0.02l0.029-0.029c0-0.02,0.019-0.051,0.056-0.096s0.062-0.078,0.071-0.105
		c0.01-0.025,0.026-0.045,0.048-0.059c0.023-0.012,0.044-0.037,0.062-0.07c0.018-0.035,0.056-0.068,0.114-0.1l0.498-0.631
		c0.055-0.068,0.096-0.115,0.122-0.143c0.107-0.133,0.193-0.293,0.259-0.479c0.013-0.02,0.032-0.039,0.059-0.059
		c0.081-0.158,0.156-0.34,0.225-0.543l0.049-0.076c0.004-0.01,0.031-0.064,0.084-0.16c0.052-0.096,0.09-0.156,0.115-0.184
		c0.023-0.025,0.048-0.086,0.07-0.18l0.107-0.215c0.029-0.064,0.074-0.17,0.133-0.312c0.081-0.029,0.121-0.047,0.121-0.055
		c0-0.012-0.004-0.027-0.014-0.043c-0.01-0.018-0.019-0.031-0.025-0.045c0.014-0.045,0.039-0.082,0.078-0.111l0.02-0.021
		c0-0.012,0.014-0.037,0.04-0.076l0.01-0.029c0.059-0.131,0.134-0.24,0.228-0.328c0.092-0.088,0.181-0.133,0.266-0.133
		c0.078,0,0.122,0.029,0.132,0.088c0.01,0.061,0.025,0.107,0.047,0.145c0.021,0.037,0.031,0.076,0.031,0.115v0.121l-0.029,0.422
		c0,0.006,0.003,0.02,0.01,0.039c-0.029,0.025-0.047,0.059-0.054,0.102l-0.2,0.537c-0.017,0.004-0.051,0.055-0.103,0.152
		l-0.073,0.141c-0.078,0.15-0.139,0.236-0.181,0.26l-0.029,0.039c-0.036,0.053-0.067,0.078-0.094,0.078
		c0,0.082-0.027,0.15-0.085,0.203c-0.057,0.055-0.101,0.113-0.13,0.18c-0.029,0.068-0.084,0.121-0.166,0.16
		c-0.025,0.051-0.059,0.109-0.098,0.17l-0.22,0.299c-0.059,0.082-0.104,0.18-0.134,0.295c-0.031,0.115-0.063,0.199-0.096,0.248
		l-0.02,0.049c-0.074,0.045-0.112,0.072-0.112,0.082c0,0.018-0.007,0.068-0.02,0.156c-0.026,0.068-0.042,0.105-0.049,0.113
		l0.01,0.107l-0.063,0.01c-0.007,0.006-0.017,0.033-0.029,0.082v0.1l0.01,0.008c0.013,0,0.027-0.021,0.044-0.068
		c0.046-0.031,0.104-0.066,0.176-0.102l0.034-0.02c0.025-0.078,0.052-0.127,0.078-0.146l0.098-0.133l0.143-0.121
		c0.133-0.131,0.199-0.201,0.199-0.211c0-0.006,0.004-0.012,0.01-0.02l0.068,0.01l0.035-0.02l-0.016-0.088
		c0.004-0.004,0.028-0.023,0.073-0.059l0.152-0.152l0.078-0.059c0.026-0.021,0.06-0.051,0.101-0.086
		c0.04-0.037,0.073-0.055,0.1-0.055l0.059,0.02c0.039-0.098,0.125-0.176,0.259-0.234s0.212-0.088,0.235-0.088l0.278,0.062
		c0.026,0.027,0.082,0.064,0.169,0.115c0.086,0.051,0.129,0.176,0.129,0.375c0,0.02-0.02,0.07-0.059,0.15l0.01,0.088
		c0,0.02-0.026,0.055-0.078,0.104l-0.029,0.098l-0.283,0.258c-0.033,0.023-0.066,0.039-0.101,0.049s-0.069,0.029-0.105,0.059
		s-0.115,0.074-0.239,0.135c-0.123,0.061-0.186,0.109-0.186,0.148c0,0.014,0.021,0.051,0.066,0.111
		c0.043,0.061,0.075,0.111,0.095,0.154c0.02,0.041,0.057,0.09,0.11,0.146c0.054,0.055,0.1,0.086,0.139,0.092s0.08,0.016,0.123,0.029
		c0.003-0.006,0.032-0.02,0.088-0.041c0.055-0.021,0.096-0.045,0.121-0.07l0.069-0.021c0.046-0.006,0.077-0.025,0.095-0.057
		c0.019-0.033,0.064-0.072,0.14-0.115c0.075-0.045,0.134-0.096,0.179-0.152c0.043-0.057,0.084-0.086,0.119-0.086h0.059
		c0.046,0,0.072-0.031,0.078-0.098c0.088-0.039,0.152-0.08,0.191-0.123c0.039-0.045,0.083-0.08,0.131-0.105l0.03-0.02
		c0.088-0.096,0.161-0.143,0.22-0.143c0.032,0,0.055,0.018,0.068,0.049c-0.026,0.107-0.039,0.184-0.039,0.225
		c0,0.029-0.019,0.088-0.057,0.176c-0.037,0.088-0.058,0.133-0.061,0.133l-0.054-0.02h-0.011c-0.019,0-0.038,0.012-0.058,0.033
		c-0.021,0.023-0.04,0.039-0.059,0.045c-0.02,0.006-0.04,0.025-0.062,0.059s-0.055,0.059-0.1,0.076
		c-0.046,0.018-0.082,0.043-0.11,0.074c-0.028,0.033-0.048,0.055-0.062,0.064c-0.013,0.01-0.025,0.021-0.039,0.037
		c-0.013,0.014-0.027,0.025-0.043,0.037c-0.018,0.01-0.037,0.029-0.062,0.059s-0.056,0.053-0.096,0.072
		c-0.038,0.02-0.069,0.051-0.09,0.09c-0.021,0.041-0.05,0.07-0.083,0.086c-0.034,0.018-0.082,0.045-0.145,0.084l-0.132,0.092
		c-0.032,0.02-0.052,0.029-0.059,0.029h-0.015l-0.049-0.01c-0.014,0-0.02,0.01-0.02,0.029c-0.039,0.057-0.075,0.084-0.107,0.084
		c-0.036,0-0.08,0.012-0.135,0.033c-0.053,0.023-0.094,0.035-0.119,0.035c-0.046,0-0.132-0.016-0.26-0.049
		c-0.025-0.029-0.055-0.051-0.088-0.064c-0.032-0.012-0.072-0.072-0.122-0.18l-0.068-0.059c-0.056-0.039-0.145-0.205-0.269-0.5
		l-0.044-0.057c-0.104-0.023-0.156-0.074-0.156-0.152c0-0.016,0.02-0.064,0.059-0.143l0.049-0.029
		c0.02-0.039,0.044-0.061,0.071-0.068c0.027-0.006,0.051-0.029,0.07-0.07s0.049-0.061,0.088-0.061h0.02
		c0.046-0.047,0.091-0.08,0.135-0.105s0.08-0.049,0.107-0.076c0.027-0.025,0.1-0.059,0.215-0.098s0.174-0.162,0.174-0.371
		c0-0.02-0.017-0.033-0.049-0.039c-0.095,0.033-0.165,0.076-0.211,0.127c-0.064,0.008-0.115,0.041-0.15,0.102
		c-0.036,0.059-0.068,0.09-0.098,0.09l-0.094-0.01c-0.02,0-0.039,0.027-0.059,0.08s-0.045,0.08-0.078,0.08h-0.039l-0.063,0.029
		l-0.02,0.078c-0.075,0.082-0.135,0.123-0.181,0.123l-0.039,0.111c-0.053,0.02-0.112,0.068-0.181,0.146l-0.029,0.021
		c-0.026,0.029-0.046,0.053-0.059,0.072s-0.032,0.029-0.059,0.029c-0.043,0.025-0.08,0.08-0.112,0.162
		c-0.039,0-0.065,0.029-0.078,0.09c-0.014,0.061-0.041,0.09-0.084,0.09h-0.039c-0.031,0.074-0.06,0.121-0.082,0.139
		c-0.023,0.02-0.049,0.045-0.078,0.082c-0.029,0.035-0.053,0.07-0.069,0.107c-0.017,0.035-0.048,0.072-0.097,0.111
		s-0.087,0.072-0.113,0.098l-0.078,0.049c-0.042,0.029-0.07,0.051-0.083,0.064s-0.029,0.02-0.049,0.02
		c-0.032,0-0.079-0.025-0.14-0.076c-0.06-0.051-0.09-0.088-0.09-0.115c0-0.188,0.016-0.322,0.049-0.4l0.132-0.342
		c0.039-0.104,0.085-0.195,0.14-0.273c0.053-0.078,0.08-0.135,0.08-0.166c0-0.045-0.016-0.068-0.049-0.068
		c-0.113,0.113-0.189,0.18-0.225,0.199C2649.004,168.309,2648.912,168.271,2648.912,168.219z"/>
	<path fill="#F1F1F1" d="M2657.333,165.238l0.068-0.02l0.049-0.049h0.01l0.044,0.02h0.011c0.078,0,0.146-0.016,0.207-0.047
		c0.062-0.031,0.112-0.053,0.153-0.066c0.041-0.012,0.066-0.021,0.077-0.029c0.01-0.006,0.018-0.01,0.023-0.01l0.08,0.01
		c0.025,0,0.061-0.047,0.104-0.139s0.094-0.16,0.149-0.203c0.055-0.041,0.11-0.121,0.166-0.238c0.013-0.018,0.027-0.043,0.043-0.076
		c0.017-0.035,0.029-0.053,0.039-0.053c0.049,0,0.089-0.029,0.117-0.092c0.098-0.113,0.178-0.172,0.24-0.172
		c0.081,0,0.138,0.078,0.17,0.236l0.049,0.186c0,0-0.008,0.025-0.023,0.07c-0.017,0.045-0.023,0.088-0.022,0.131
		c0.002,0.045,0,0.074-0.005,0.088c-0.005,0.016-0.007,0.033-0.007,0.053c0,0.025,0.027,0.039,0.083,0.039
		c0.02,0,0.055-0.014,0.107-0.039l0.029-0.01c0.032,0.02,0.061,0.029,0.082,0.029c0.008,0,0.054-0.018,0.141-0.049
		c0.086-0.033,0.141-0.051,0.163-0.055s0.062-0.016,0.117-0.039h0.059l0.039,0.016c0.013,0,0.04-0.014,0.081-0.043
		c0.041-0.027,0.117-0.043,0.232-0.051l0.068-0.029h0.02c0.107,0,0.16,0.047,0.16,0.143c0,0.02-0.015,0.053-0.046,0.102
		c-0.03,0.049-0.056,0.105-0.075,0.166l-0.226,0.283c-0.074,0.098-0.149,0.146-0.225,0.146c-0.013,0-0.054-0.043-0.122-0.131
		c0-0.006-0.006-0.01-0.02-0.01c-0.033,0-0.066,0.006-0.103,0.02c-0.036,0.012-0.065,0.02-0.088,0.02
		c-0.01,0-0.097,0.023-0.259,0.072l-0.117,0.02c-0.014,0-0.045,0.008-0.094,0.021l-0.248,0.047c-0.086,0.043-0.152,0.123-0.201,0.24
		c0,0.008-0.017,0.021-0.049,0.045l-0.221,0.4c-0.071,0.02-0.119,0.061-0.142,0.127l-0.02,0.029
		c-0.036,0.006-0.068,0.025-0.098,0.061c-0.029,0.033-0.058,0.061-0.083,0.08l-0.088,0.133c-0.037,0.045-0.072,0.096-0.108,0.148
		c-0.036,0.055-0.062,0.111-0.078,0.172c-0.017,0.059-0.029,0.094-0.039,0.104c-0.01,0.012-0.015,0.029-0.015,0.055l-0.016,0.039
		c-0.039,0.039-0.059,0.084-0.059,0.133l0.02,0.078c-0.045,0.156-0.068,0.238-0.068,0.248c0,0.008,0.004,0.025,0.01,0.055v0.029
		c0,0.07-0.025,0.16-0.078,0.268l0.01,0.078l-0.029,0.221c0,0.029,0.01,0.082,0.029,0.162c-0.013,0.012-0.02,0.021-0.02,0.027
		c0,0.092,0.049,0.191,0.145,0.301s0.145,0.279,0.145,0.512c0,0.02-0.005,0.047-0.015,0.086c-0.01,0.037-0.017,0.078-0.02,0.121
		s-0.028,0.088-0.076,0.129c-0.047,0.043-0.087,0.064-0.12,0.064c-0.173,0-0.302-0.125-0.387-0.377
		c-0.084-0.25-0.127-0.412-0.127-0.482l0.01-0.191l-0.029-0.098l0.029-0.43l-0.02-0.104l0.112-0.42v-0.15
		c0-0.008,0.023-0.033,0.069-0.078c0-0.008-0.007-0.01-0.02-0.01c-0.02,0-0.046,0.018-0.079,0.059
		c-0.032,0.037-0.073,0.076-0.122,0.111l-0.039,0.068c-0.007-0.006-0.02-0.012-0.039-0.02c-0.017,0.008-0.07,0.084-0.162,0.23
		c-0.068,0.01-0.122,0.049-0.161,0.117s-0.093,0.102-0.161,0.102l-0.02,0.01c-0.014,0.096-0.059,0.143-0.138,0.143l-0.02,0.01
		c-0.049,0.111-0.1,0.164-0.151,0.16c-0.033,0.098-0.113,0.166-0.24,0.201c-0.02,0.039-0.048,0.068-0.086,0.088
		c-0.037,0.02-0.064,0.037-0.08,0.055c-0.017,0.016-0.031,0.023-0.045,0.023c-0.041,0-0.062-0.045-0.062-0.137
		c0-0.025,0.01-0.055,0.031-0.086s0.031-0.053,0.031-0.066c0-0.006-0.016-0.025-0.049-0.059c0-0.1,0.026-0.164,0.078-0.189
		c0.053-0.027,0.092-0.064,0.118-0.113c0.017-0.039,0.049-0.066,0.098-0.082c0.049-0.018,0.073-0.037,0.073-0.064
		c0-0.021,0.043-0.068,0.127-0.137c0.085-0.068,0.146-0.127,0.187-0.178c0.038-0.051,0.071-0.076,0.098-0.076l0.02-0.02
		c0.007-0.08,0.038-0.121,0.093-0.121l0.049-0.029l0.01-0.039l0.029-0.021h0.039l0.025-0.02c0.006-0.08,0.044-0.145,0.114-0.189
		s0.198-0.174,0.384-0.383c0.186-0.211,0.291-0.346,0.313-0.404s0.064-0.137,0.124-0.236c0.061-0.1,0.094-0.193,0.102-0.281
		c-0.008-0.014-0.018-0.025-0.03-0.039l-0.21,0.104c0-0.01-0.033-0.025-0.098-0.045c-0.049,0.029-0.084,0.059-0.107,0.088
		c-0.022,0.029-0.041,0.043-0.054,0.043l-0.068-0.008l-0.215,0.023c-0.192,0.016-0.337,0.055-0.435,0.117l-0.201,0.059h-0.043
		c-0.026,0-0.066,0.016-0.118,0.049l-0.112-0.01c-0.104,0.055-0.181,0.084-0.229,0.084c-0.007,0-0.026-0.004-0.059-0.01
		l-0.499,0.137c-0.038,0.012-0.126,0.078-0.264,0.199l-0.039,0.01c-0.032,0-0.07-0.037-0.114-0.109
		c-0.044-0.074-0.065-0.139-0.065-0.197c0-0.322,0.276-0.51,0.83-0.562l0.2-0.078h0.01l0.054,0.02h0.02
		c0.02,0,0.051-0.012,0.093-0.037c0.042-0.023,0.138-0.055,0.284-0.09l0.199-0.055l0.064,0.01c0.032,0,0.068-0.012,0.109-0.039
		c0.041-0.025,0.103-0.043,0.186-0.055c0.084-0.012,0.141-0.023,0.174-0.037l0.078-0.02c0.013,0,0.04-0.012,0.08-0.035
		c0.041-0.021,0.094-0.033,0.159-0.033C2657.269,165.219,2657.293,165.225,2657.333,165.238z"/>
	<path fill="#F1F1F1" d="M2661.235,169.143l-0.23,0.199c-0.013-0.014-0.025-0.02-0.039-0.02c-0.032,0-0.072,0.029-0.119,0.088
		c-0.048,0.059-0.081,0.088-0.101,0.088l-0.049-0.01c-0.082,0.062-0.141,0.098-0.177,0.107c-0.035,0.01-0.078,0.027-0.129,0.055
		c-0.051,0.025-0.096,0.041-0.137,0.043c-0.041,0.004-0.074,0.018-0.101,0.043c-0.026,0.023-0.09,0.035-0.19,0.035l-0.078-0.01
		c-0.043,0.02-0.07,0.029-0.084,0.029c-0.025,0-0.053-0.014-0.082-0.041s-0.062-0.043-0.096-0.047
		c-0.035-0.002-0.069-0.025-0.105-0.068c-0.036-0.041-0.069-0.07-0.1-0.088c-0.031-0.016-0.057-0.039-0.076-0.068l-0.068-0.059
		c-0.056-0.039-0.109-0.109-0.162-0.215c-0.052-0.104-0.078-0.186-0.078-0.244v-0.02l0.01-0.092l-0.01-0.107
		c0.014-0.014,0.029-0.041,0.049-0.084v-0.156l0.117-0.391c0.007-0.018-0.006-0.037-0.039-0.064
		c-0.032,0.049-0.064,0.078-0.098,0.088s-0.055,0.033-0.066,0.068c-0.012,0.037-0.029,0.055-0.057,0.055l-0.059-0.02
		c-0.007,0.006-0.021,0.039-0.045,0.1c-0.022,0.061-0.062,0.09-0.117,0.09c-0.06,0-0.089-0.021-0.089-0.068l0.01-0.088l-0.03-0.121
		c0-0.027,0.026-0.078,0.078-0.154c0.053-0.076,0.102-0.121,0.145-0.131c0.045-0.012,0.082-0.043,0.113-0.094
		s0.099-0.111,0.203-0.184c0.059-0.014,0.109-0.055,0.151-0.127c0.046-0.035,0.105-0.064,0.179-0.088
		c0.074-0.021,0.129-0.057,0.166-0.1c0.038-0.045,0.149-0.113,0.333-0.205c0.185-0.094,0.319-0.141,0.404-0.141
		c0.026,0,0.062-0.006,0.107-0.021s0.089-0.027,0.128-0.039s0.079-0.029,0.122-0.053c0.042-0.025,0.076-0.037,0.103-0.037
		l0.143,0.049c0.104,0.029,0.167,0.051,0.19,0.062c0.007,0.008,0.04,0.021,0.101,0.043s0.122,0.049,0.186,0.084
		c0.063,0.037,0.096,0.104,0.096,0.201c-0.056,0.082-0.084,0.125-0.084,0.133c0,0.012,0.038,0.031,0.113,0.057
		c0.025,0.051,0.064,0.113,0.117,0.191l0.054,0.172l0.01,0.4l-0.01,0.039c-0.036,0.033-0.054,0.053-0.054,0.062l0.015,0.098
		l-0.039,0.139c-0.01,0.041-0.026,0.068-0.049,0.082s-0.038,0.029-0.044,0.049l-0.029,0.039c-0.007,0.01-0.021,0.039-0.041,0.086
		c-0.021,0.047-0.045,0.084-0.071,0.109s-0.042,0.057-0.049,0.094c-0.007,0.035-0.023,0.061-0.05,0.078
		c-0.025,0.016-0.044,0.033-0.056,0.051S2661.26,169.129,2661.235,169.143z M2659.716,169.27l0.019,0.111l0.01,0.01h0.078
		l0.025,0.01c0.064,0.014,0.113,0.02,0.146,0.02c0.101,0,0.182-0.025,0.241-0.076c0.061-0.049,0.108-0.074,0.145-0.074
		c0.035,0,0.065-0.025,0.09-0.074s0.04-0.072,0.047-0.072h0.067l0.021-0.01c0-0.076,0.033-0.129,0.1-0.162s0.113-0.076,0.141-0.129
		c0.028-0.055,0.06-0.096,0.096-0.123c0.035-0.027,0.061-0.064,0.073-0.109l0.039-0.059c0.013-0.014,0.02-0.037,0.02-0.072
		l0.093-0.178c0.02-0.08,0.029-0.145,0.029-0.189c0-0.068-0.035-0.123-0.105-0.162s-0.104-0.115-0.104-0.229
		c0-0.076,0.038-0.145,0.114-0.209c0.076-0.062,0.115-0.102,0.115-0.113c0-0.02-0.01-0.029-0.029-0.029
		c-0.01,0-0.048,0.012-0.112,0.037c-0.022,0.047-0.139,0.107-0.347,0.182c-0.068-0.031-0.105-0.049-0.111-0.049
		c-0.02,0-0.04,0.02-0.059,0.059c-0.02,0.039-0.039,0.066-0.059,0.084h-0.064c-0.006,0-0.027,0.02-0.062,0.062
		c-0.036,0.043-0.082,0.064-0.137,0.064l-0.059,0.059c0.004,0.053-0.029,0.105-0.098,0.16l-0.053,0.064
		c-0.033,0.039-0.075,0.084-0.127,0.137l-0.088,0.219c-0.036,0.086-0.054,0.148-0.054,0.191c-0.011,0.02-0.032,0.041-0.065,0.061
		c-0.035,0.021-0.052,0.049-0.052,0.082c0,0.006,0.011,0.021,0.034,0.047c0.022,0.027,0.034,0.047,0.034,0.061l-0.02,0.062
		l-0.021,0.182L2659.716,169.27z"/>
	<path fill="#F1F1F1" d="M2665.584,167.32l0.068-0.123c0.02-0.029,0.045-0.059,0.075-0.09c0.031-0.031,0.064-0.111,0.101-0.24
		c0.035-0.129,0.076-0.217,0.119-0.266c0.045-0.049,0.109-0.074,0.193-0.074c0.049,0,0.113,0.023,0.193,0.072
		c0.08,0.047,0.158,0.189,0.234,0.426c0.077,0.238,0.115,0.406,0.115,0.504c0,0.039,0.012,0.09,0.035,0.148
		c0.022,0.061,0.037,0.107,0.043,0.141c-0.025,0.055-0.039,0.086-0.039,0.092l0.01,0.201l-0.059,0.16v0.117
		c-0.039,0.066-0.059,0.107-0.059,0.123c0,0.02,0.007,0.039,0.02,0.059c0.153-0.064,0.246-0.119,0.279-0.158
		c0.031-0.041,0.063-0.066,0.094-0.076c0.031-0.01,0.082-0.053,0.154-0.127l0.093-0.049c0.032-0.039,0.06-0.074,0.083-0.105
		c0.022-0.031,0.049-0.053,0.08-0.066c0.031-0.012,0.067-0.035,0.109-0.068c0.043-0.031,0.104-0.07,0.186-0.111l0.049-0.059
		c0.049-0.057,0.107-0.1,0.174-0.133c0.066-0.031,0.104-0.049,0.109-0.049c0.022,0,0.047,0.031,0.07,0.092
		c0.025,0.059,0.037,0.119,0.037,0.178c0,0.055-0.031,0.109-0.096,0.162c-0.062,0.055-0.106,0.094-0.129,0.121
		c-0.023,0.025-0.074,0.049-0.156,0.068c-0.006,0.004-0.061,0.07-0.161,0.199l-0.098,0.059l-0.049,0.064
		c-0.007,0.014-0.05,0.025-0.132,0.039c-0.003,0-0.01,0.016-0.021,0.049s-0.047,0.055-0.105,0.068
		c-0.117,0.107-0.178,0.168-0.18,0.182l-0.104,0.02c-0.02,0.061-0.035,0.098-0.049,0.111c-0.078,0.02-0.121,0.053-0.131,0.098
		c-0.01,0.006-0.026,0.014-0.049,0.02l-0.02,0.016c-0.075,0.059-0.148,0.094-0.221,0.107l-0.111,0.029l-0.039,0.059
		c0,0.016-0.041,0.037-0.12,0.062c-0.079,0.027-0.14,0.059-0.179,0.098l-0.082,0.064c-0.102,0.039-0.164,0.074-0.191,0.107h-0.067
		c-0.046,0-0.117,0.033-0.215,0.1s-0.176,0.1-0.234,0.1c-0.188,0-0.318-0.023-0.388-0.07c-0.07-0.047-0.128-0.105-0.174-0.176
		c-0.045-0.07-0.087-0.127-0.125-0.168c-0.037-0.043-0.056-0.076-0.056-0.104c0-0.021,0.016-0.045,0.046-0.068
		c0.031-0.021,0.064-0.068,0.101-0.139s0.127-0.115,0.273-0.135c0.007,0,0.03-0.01,0.071-0.029c0.04-0.02,0.073-0.029,0.1-0.029
		c0.032,0,0.073,0.029,0.122,0.088c0,0.006,0.007,0.01,0.02,0.01l0.078-0.01c0.036,0.027,0.06,0.039,0.073,0.039
		c0.078,0,0.161-0.039,0.249-0.117l0.02-0.01h0.039c0.01,0,0.026-0.027,0.049-0.082l0.083-0.172l0.171-0.221v-0.049
		c0-0.01,0.01-0.039,0.028-0.088v-0.072c0-0.029,0.021-0.049,0.06-0.057s0.058-0.027,0.058-0.061l-0.009-0.039
		c-0.026-0.037-0.04-0.064-0.04-0.084l0.049-0.098l-0.009-0.102l0.019-0.039c-0.012-0.047-0.019-0.072-0.019-0.078l0.019-0.123
		c0,0-0.008-0.033-0.026-0.092c-0.018-0.061-0.032-0.088-0.041-0.088c-0.021,0-0.082,0.049-0.187,0.15s-0.166,0.172-0.186,0.215
		s-0.062,0.08-0.125,0.115s-0.107,0.072-0.13,0.115c-0.022,0.041-0.05,0.066-0.083,0.072l-0.328,0.264l-0.356,0.264
		c-0.026,0.031-0.042,0.045-0.049,0.045c-0.121,0-0.181-0.066-0.181-0.201c0-0.041,0.023-0.117,0.072-0.229
		c0.023-0.014,0.04-0.023,0.052-0.029s0.017-0.012,0.017-0.016c0,0-0.003-0.004-0.009-0.004l0.028,0.02h0.011
		c0.12-0.082,0.198-0.129,0.234-0.143c0.036-0.012,0.068-0.049,0.098-0.107l0.206-0.146c0.052-0.039,0.132-0.111,0.239-0.215
		S2665.555,167.369,2665.584,167.32z"/>
	<path fill="#F1F1F1" d="M2667.905,168.238v-0.049c0-0.033,0.032-0.104,0.098-0.211c0.064-0.107,0.14-0.176,0.225-0.209
		c0.006,0,0.01-0.004,0.01-0.01l-0.01-0.078c0.012-0.014,0.045-0.057,0.097-0.127c0.052-0.072,0.103-0.104,0.151-0.094
		c0.036-0.051,0.082-0.096,0.137-0.129c0.056-0.035,0.105-0.078,0.151-0.135l0.181-0.111c0.127-0.086,0.221-0.127,0.278-0.127h0.073
		c0.039-0.066,0.092-0.1,0.156-0.1c0.062,0,0.103,0.01,0.122,0.029c0.007,0.008,0.013,0.01,0.021,0.01
		c0.002,0,0.021-0.012,0.058-0.039c0.036-0.025,0.08-0.039,0.132-0.039c0.014,0,0.086,0.027,0.22,0.078
		c0.039-0.039,0.077-0.059,0.112-0.059c0.014,0,0.036,0.01,0.068,0.029c0.033,0.02,0.066,0.037,0.1,0.053
		c0.035,0.014,0.068,0.074,0.101,0.18c0.032,0.107,0.049,0.166,0.049,0.178c0,0.053-0.043,0.115-0.129,0.184
		c-0.087,0.07-0.167,0.105-0.241,0.105c-0.026,0-0.059-0.023-0.098-0.068c-0.098-0.02-0.181-0.043-0.249-0.072
		c-0.091,0.02-0.161,0.043-0.21,0.072h-0.01l-0.043-0.039l-0.039-0.01h-0.01c-0.01,0.014-0.023,0.035-0.039,0.068
		c-0.053,0.037-0.097,0.059-0.135,0.07c-0.037,0.012-0.066,0.029-0.09,0.055c-0.022,0.023-0.061,0.049-0.114,0.076
		c-0.054,0.025-0.094,0.061-0.12,0.107c-0.064,0.035-0.111,0.057-0.141,0.062h-0.029c-0.026,0.053-0.086,0.139-0.181,0.26
		l-0.126,0.209c-0.03,0.027-0.066,0.057-0.108,0.092c-0.042,0.033-0.063,0.064-0.063,0.09c0,0.006,0.004,0.023,0.01,0.049v0.049
		c0,0.02-0.016,0.043-0.047,0.07c-0.03,0.029-0.046,0.049-0.046,0.062l0.01,0.107l-0.039,0.17c0,0.102,0.073,0.152,0.22,0.152h0.074
		l0.209-0.035c0.068-0.01,0.125-0.02,0.171-0.029s0.071-0.014,0.078-0.014s0.032-0.02,0.078-0.055h0.049l0.044-0.01
		c0.013-0.068,0.105-0.125,0.278-0.17c0.038-0.061,0.104-0.104,0.197-0.131s0.187-0.086,0.28-0.178h0.074
		c0.01,0,0.039-0.02,0.09-0.057s0.103-0.066,0.156-0.09s0.087-0.043,0.1-0.059c0.014-0.016,0.038-0.031,0.074-0.045
		c0.059-0.09,0.128-0.148,0.209-0.17l0.02-0.02c0.053-0.047,0.085-0.068,0.098-0.068l0.059,0.01c0.033,0,0.053-0.021,0.062-0.061
		c0.008-0.041,0.06-0.098,0.156-0.168c0.096-0.068,0.156-0.104,0.183-0.104c0.062,0,0.093,0.031,0.093,0.098
		c0,0.049-0.028,0.076-0.083,0.082c0.035,0.086,0.054,0.133,0.054,0.143c0,0.107-0.054,0.178-0.161,0.209
		c-0.014,0.008-0.02,0.018-0.02,0.029l-0.01,0.088c0.004,0,0.004,0.004,0,0.008c-0.004,0.006-0.01,0.012-0.02,0.021l-0.073,0.01
		l-0.02,0.029c-0.071,0.041-0.155,0.107-0.249,0.201l-0.098,0.104h-0.016c-0.031-0.033-0.058-0.049-0.078-0.049
		c-0.013,0-0.029,0.021-0.048,0.068c-0.111,0.109-0.19,0.174-0.239,0.189c-0.02,0.008-0.055,0.033-0.104,0.078l-0.098,0.064h-0.072
		c-0.01,0.01-0.02,0.023-0.027,0.041s-0.037,0.045-0.086,0.08s-0.084,0.068-0.104,0.096c-0.021,0.027-0.052,0.049-0.091,0.061
		l-0.088-0.02c-0.029,0.053-0.083,0.078-0.161,0.078c-0.02,0.014-0.048,0.039-0.085,0.076c-0.038,0.037-0.063,0.057-0.076,0.057
		c-0.014,0-0.047-0.02-0.103-0.059h-0.01c-0.032,0-0.049,0.023-0.049,0.072s-0.03,0.076-0.091,0.078
		c-0.061,0.004-0.116,0.02-0.168,0.049h-0.01c-0.075,0-0.129-0.014-0.161-0.041c-0.033-0.027-0.062-0.047-0.088-0.061
		c-0.102,0.033-0.155,0.049-0.161,0.049c-0.039,0-0.077-0.016-0.113-0.049l-0.209-0.107c-0.014-0.01-0.036-0.055-0.068-0.133
		l-0.029-0.039c-0.105-0.02-0.175-0.127-0.211-0.322l-0.039-0.117c-0.006-0.006-0.01-0.021-0.01-0.043
		c0-0.033,0.014-0.084,0.039-0.15c0.026-0.066,0.053-0.156,0.078-0.268C2667.769,168.338,2667.823,168.268,2667.905,168.238z"/>
	<path fill="#F1F1F1" d="M2670.997,167.871l0.039-0.053c0.086-0.02,0.14-0.053,0.162-0.098c0.01-0.023,0.092-0.107,0.246-0.254
		c0.153-0.146,0.238-0.225,0.255-0.236c0.104-0.188,0.167-0.33,0.19-0.424c0.039-0.02,0.058-0.043,0.058-0.068l0.04-0.078
		l0.043-0.01l0.02-0.02v-0.045c0-0.059,0.063-0.195,0.189-0.41c0.127-0.264,0.195-0.41,0.205-0.438s0.029-0.068,0.059-0.121
		c0.029-0.055,0.074-0.158,0.135-0.311c0.061-0.154,0.154-0.312,0.281-0.479c0.013-0.008,0.032-0.043,0.059-0.111
		c0.025-0.066,0.066-0.131,0.122-0.197l0.059-0.102c0.02-0.033,0.054-0.09,0.103-0.172s0.094-0.146,0.135-0.193
		c0.04-0.047,0.071-0.096,0.092-0.148c0.021-0.053,0.047-0.09,0.076-0.113c0.029-0.021,0.06-0.064,0.09-0.123
		c0.031-0.061,0.08-0.092,0.145-0.092c0.127,0,0.219,0.053,0.276,0.156c0.057,0.105,0.085,0.195,0.085,0.273
		c0,0.01-0.02,0.08-0.059,0.211l-0.072,0.439c-0.065,0.033-0.098,0.07-0.098,0.113c0,0.172-0.067,0.352-0.201,0.537
		c-0.013,0.014-0.023,0.055-0.031,0.127s-0.037,0.131-0.086,0.176s-0.093,0.121-0.132,0.23l-0.454,0.648l-0.039,0.039
		c-0.02,0.014-0.043,0.041-0.068,0.084l-0.078-0.025c-0.088,0-0.133,0.029-0.133,0.084c0,0.02,0.008,0.045,0.02,0.078v0.01
		c0,0.004-0.12,0.174-0.361,0.514c-0.013,0.018-0.035,0.082-0.068,0.189l-0.068,0.146c-0.068,0.094-0.116,0.188-0.144,0.275
		c-0.028,0.09-0.064,0.162-0.11,0.219c-0.065,0.146-0.098,0.223-0.098,0.229c0,0.02,0.01,0.029,0.029,0.029s0.066-0.049,0.14-0.146
		s0.133-0.162,0.181-0.195c0.047-0.031,0.087-0.078,0.119-0.137l0.049-0.033c0.014-0.008,0.041-0.027,0.084-0.059l0.049,0.01
		c0.025-0.02,0.042-0.043,0.049-0.068c0.006-0.027,0.016-0.047,0.029-0.059c0.085-0.01,0.138-0.041,0.159-0.094
		s0.046-0.078,0.075-0.078c0.026,0,0.061-0.029,0.104-0.09s0.102-0.109,0.179-0.146c0.076-0.037,0.134-0.072,0.171-0.1
		c0.037-0.031,0.113-0.064,0.228-0.105s0.191-0.062,0.23-0.062h0.029l0.039,0.01l0.073-0.01c0.114,0,0.229,0.033,0.343,0.096
		c0.114,0.064,0.163,0.162,0.146,0.295l-0.04,0.305l-0.053,0.238c-0.007,0.039-0.033,0.127-0.078,0.26
		c-0.046,0.133-0.068,0.209-0.068,0.229l-0.02,0.094l0.02,0.127l-0.01,0.104c0,0.031,0.016,0.049,0.049,0.049
		c0.013,0,0.049-0.029,0.106-0.088c0.036,0.006,0.069-0.014,0.103-0.059c0.032-0.047,0.076-0.094,0.131-0.143
		c0-0.014,0.021-0.025,0.063-0.037c0.043-0.012,0.101-0.049,0.176-0.115c0.013-0.029,0.076-0.092,0.19-0.188
		c0.113-0.096,0.222-0.17,0.326-0.223l0.029-0.039c0.055-0.055,0.105-0.082,0.15-0.082s0.068,0.023,0.068,0.072
		c0,0.033-0.008,0.068-0.024,0.104s-0.028,0.082-0.034,0.139c-0.007,0.057-0.039,0.139-0.098,0.246l-0.02,0.049
		c-0.023,0.057-0.051,0.088-0.083,0.098s-0.067,0.037-0.104,0.082c-0.037,0.043-0.115,0.086-0.232,0.123
		c-0.052,0.098-0.092,0.148-0.121,0.148l-0.088-0.039c-0.068,0.055-0.103,0.111-0.103,0.17c-0.085,0.072-0.136,0.119-0.151,0.143
		l-0.098-0.01c-0.026,0-0.039,0.035-0.039,0.107c0,0.006-0.033,0.027-0.1,0.066c-0.067,0.037-0.119,0.07-0.154,0.1
		s-0.112,0.043-0.229,0.043c-0.013,0-0.032-0.012-0.059-0.033c-0.026-0.023-0.063-0.043-0.114-0.059
		c-0.051-0.018-0.086-0.055-0.105-0.115s-0.041-0.107-0.062-0.143c-0.023-0.033-0.035-0.061-0.035-0.08l0.01-0.098l-0.023-0.104
		l0.043-0.066c-0.02-0.047-0.029-0.078-0.029-0.094l0.049-0.299c0.036-0.215,0.065-0.354,0.088-0.42
		c0.007-0.006,0.01-0.025,0.01-0.059l-0.01-0.121l0.01-0.068c0-0.049-0.016-0.076-0.049-0.078c-0.032-0.004-0.052-0.012-0.059-0.025
		c-0.042-0.02-0.066-0.029-0.073-0.029c-0.026,0-0.049,0.021-0.068,0.061c-0.02,0.041-0.046,0.078-0.078,0.111l-0.122-0.02v0.01
		c0,0.025-0.045,0.076-0.133,0.15c-0.081,0.02-0.15,0.062-0.21,0.127c-0.026,0-0.071,0.025-0.134,0.076
		c-0.064,0.051-0.105,0.08-0.125,0.086l-0.039,0.078l-0.078,0.023c-0.023,0.066-0.077,0.107-0.162,0.127l-0.049,0.094
		c-0.068,0.006-0.115,0.041-0.142,0.105c-0.026,0.062-0.046,0.096-0.059,0.096c-0.007,0-0.018-0.006-0.032-0.014
		s-0.028-0.012-0.041-0.012c-0.072,0-0.111,0.055-0.117,0.16c0,0.014-0.067,0.09-0.201,0.23s-0.205,0.213-0.215,0.215
		c-0.01,0.004-0.029,0.037-0.057,0.1c-0.027,0.064-0.066,0.111-0.115,0.143s-0.086,0.057-0.109,0.076
		c-0.024,0.02-0.043,0.029-0.057,0.029c-0.068,0-0.123-0.049-0.166-0.146s-0.064-0.148-0.064-0.152l0.03-0.102l-0.01-0.088
		c0-0.004,0.021-0.07,0.061-0.199c0.041-0.127,0.088-0.229,0.14-0.303c0.053-0.072,0.093-0.193,0.122-0.359
		c-0.146,0.098-0.234,0.146-0.264,0.146c-0.065,0-0.099-0.041-0.099-0.127C2670.844,168.135,2670.895,167.996,2670.997,167.871z"/>
	<path fill="#F1F1F1" d="M2677.813,169.143l-0.23,0.199c-0.013-0.014-0.025-0.02-0.039-0.02c-0.032,0-0.072,0.029-0.119,0.088
		c-0.048,0.059-0.081,0.088-0.101,0.088l-0.049-0.01c-0.081,0.062-0.14,0.098-0.177,0.107c-0.035,0.01-0.078,0.027-0.129,0.055
		c-0.051,0.025-0.096,0.041-0.137,0.043c-0.041,0.004-0.074,0.018-0.101,0.043c-0.026,0.023-0.089,0.035-0.19,0.035l-0.078-0.01
		c-0.043,0.02-0.07,0.029-0.084,0.029c-0.025,0-0.053-0.014-0.082-0.041s-0.062-0.043-0.096-0.047
		c-0.034-0.002-0.069-0.025-0.105-0.068c-0.035-0.041-0.068-0.07-0.1-0.088c-0.031-0.016-0.057-0.039-0.076-0.068l-0.068-0.059
		c-0.056-0.039-0.109-0.109-0.161-0.215c-0.052-0.104-0.078-0.186-0.078-0.244v-0.02l0.01-0.092l-0.01-0.107
		c0.013-0.014,0.028-0.041,0.048-0.084v-0.156l0.118-0.391c0.007-0.018-0.007-0.037-0.04-0.064
		c-0.031,0.049-0.064,0.078-0.098,0.088c-0.032,0.01-0.055,0.033-0.066,0.068c-0.011,0.037-0.029,0.055-0.057,0.055l-0.059-0.02
		c-0.007,0.006-0.021,0.039-0.044,0.1c-0.023,0.061-0.062,0.09-0.118,0.09c-0.06,0-0.089-0.021-0.089-0.068l0.01-0.088l-0.029-0.121
		c0-0.027,0.026-0.078,0.078-0.154s0.101-0.121,0.145-0.131c0.044-0.012,0.081-0.043,0.112-0.094s0.099-0.111,0.203-0.184
		c0.059-0.014,0.109-0.055,0.152-0.127c0.045-0.035,0.104-0.064,0.178-0.088c0.074-0.021,0.129-0.057,0.166-0.1
		c0.038-0.045,0.149-0.113,0.334-0.205c0.184-0.094,0.318-0.141,0.403-0.141c0.026,0,0.062-0.006,0.107-0.021
		s0.089-0.027,0.128-0.039s0.08-0.029,0.122-0.053c0.042-0.025,0.077-0.037,0.103-0.037l0.143,0.049
		c0.104,0.029,0.168,0.051,0.19,0.062c0.007,0.008,0.04,0.021,0.101,0.043s0.122,0.049,0.186,0.084
		c0.064,0.037,0.096,0.104,0.096,0.201c-0.056,0.082-0.084,0.125-0.084,0.133c0,0.012,0.038,0.031,0.113,0.057
		c0.026,0.051,0.065,0.113,0.117,0.191l0.054,0.172l0.011,0.4l-0.011,0.039c-0.036,0.033-0.054,0.053-0.054,0.062l0.016,0.098
		l-0.04,0.139c-0.01,0.041-0.026,0.068-0.049,0.082s-0.037,0.029-0.044,0.049l-0.029,0.039c-0.006,0.01-0.021,0.039-0.041,0.086
		c-0.021,0.047-0.045,0.084-0.071,0.109s-0.042,0.057-0.049,0.094c-0.007,0.035-0.022,0.061-0.049,0.078
		c-0.026,0.016-0.045,0.033-0.056,0.051C2677.858,169.113,2677.838,169.129,2677.813,169.143z M2676.294,169.27l0.02,0.111
		l0.01,0.01h0.078l0.024,0.01c0.064,0.014,0.113,0.02,0.146,0.02c0.101,0,0.181-0.025,0.241-0.076
		c0.06-0.049,0.107-0.074,0.144-0.074s0.065-0.025,0.09-0.074c0.025-0.049,0.04-0.072,0.047-0.072h0.068l0.02-0.01
		c0-0.076,0.033-0.129,0.1-0.162s0.113-0.076,0.142-0.129c0.027-0.055,0.06-0.096,0.095-0.123s0.061-0.064,0.073-0.109l0.039-0.059
		c0.013-0.014,0.02-0.037,0.02-0.072l0.093-0.178c0.02-0.08,0.029-0.145,0.029-0.189c0-0.068-0.035-0.123-0.105-0.162
		s-0.104-0.115-0.104-0.229c0-0.076,0.038-0.145,0.114-0.209c0.076-0.062,0.115-0.102,0.115-0.113c0-0.02-0.01-0.029-0.029-0.029
		c-0.01,0-0.047,0.012-0.112,0.037c-0.022,0.047-0.138,0.107-0.347,0.182c-0.068-0.031-0.105-0.049-0.111-0.049
		c-0.02,0-0.039,0.02-0.059,0.059s-0.039,0.066-0.059,0.084h-0.063c-0.007,0-0.028,0.02-0.063,0.062s-0.082,0.064-0.137,0.064
		l-0.059,0.059c0.004,0.053-0.029,0.105-0.098,0.16l-0.053,0.064c-0.033,0.039-0.075,0.084-0.127,0.137l-0.088,0.219
		c-0.036,0.086-0.054,0.148-0.054,0.191c-0.01,0.02-0.032,0.041-0.065,0.061c-0.035,0.021-0.052,0.049-0.052,0.082
		c0,0.006,0.011,0.021,0.034,0.047c0.022,0.027,0.034,0.047,0.034,0.061l-0.02,0.062l-0.02,0.182L2676.294,169.27z"/>
	<path fill="#F1F1F1" d="M2681.433,169.143l-0.229,0.199c-0.014-0.014-0.026-0.02-0.039-0.02c-0.033,0-0.072,0.029-0.12,0.088
		s-0.081,0.088-0.101,0.088l-0.049-0.01c-0.081,0.062-0.14,0.098-0.176,0.107c-0.035,0.01-0.079,0.027-0.129,0.055
		c-0.051,0.025-0.097,0.041-0.138,0.043c-0.04,0.004-0.073,0.018-0.101,0.043c-0.025,0.023-0.089,0.035-0.189,0.035l-0.079-0.01
		c-0.042,0.02-0.069,0.029-0.083,0.029c-0.025,0-0.054-0.014-0.083-0.041s-0.062-0.043-0.096-0.047
		c-0.034-0.002-0.069-0.025-0.104-0.068c-0.036-0.041-0.069-0.07-0.101-0.088c-0.03-0.016-0.056-0.039-0.075-0.068l-0.068-0.059
		c-0.057-0.039-0.109-0.109-0.162-0.215c-0.052-0.104-0.078-0.186-0.078-0.244v-0.02l0.01-0.092l-0.01-0.107
		c0.014-0.014,0.029-0.041,0.049-0.084v-0.156l0.117-0.391c0.007-0.018-0.006-0.037-0.039-0.064
		c-0.032,0.049-0.065,0.078-0.098,0.088c-0.033,0.01-0.055,0.033-0.066,0.068c-0.012,0.037-0.03,0.055-0.057,0.055l-0.059-0.02
		c-0.007,0.006-0.021,0.039-0.045,0.1s-0.062,0.09-0.118,0.09c-0.06,0-0.089-0.021-0.089-0.068l0.01-0.088l-0.029-0.121
		c0-0.027,0.026-0.078,0.078-0.154c0.053-0.076,0.101-0.121,0.145-0.131c0.044-0.012,0.082-0.043,0.113-0.094
		c0.03-0.051,0.098-0.111,0.203-0.184c0.059-0.014,0.109-0.055,0.151-0.127c0.046-0.035,0.104-0.064,0.179-0.088
		c0.073-0.021,0.129-0.057,0.166-0.1c0.037-0.045,0.148-0.113,0.333-0.205c0.185-0.094,0.319-0.141,0.403-0.141
		c0.026,0,0.062-0.006,0.108-0.021s0.088-0.027,0.127-0.039s0.08-0.029,0.122-0.053c0.043-0.025,0.077-0.037,0.104-0.037
		l0.142,0.049c0.104,0.029,0.168,0.051,0.19,0.062c0.007,0.008,0.04,0.021,0.101,0.043s0.122,0.049,0.187,0.084
		c0.063,0.037,0.096,0.104,0.096,0.201c-0.057,0.082-0.084,0.125-0.084,0.133c0,0.012,0.037,0.031,0.113,0.057
		c0.025,0.051,0.064,0.113,0.117,0.191l0.054,0.172l0.01,0.4l-0.01,0.039c-0.036,0.033-0.054,0.053-0.054,0.062l0.015,0.098
		l-0.039,0.139c-0.01,0.041-0.026,0.068-0.05,0.082c-0.022,0.014-0.037,0.029-0.043,0.049l-0.029,0.039
		c-0.007,0.01-0.021,0.039-0.042,0.086s-0.045,0.084-0.071,0.109c-0.025,0.025-0.042,0.057-0.049,0.094
		c-0.006,0.035-0.022,0.061-0.049,0.078c-0.025,0.016-0.045,0.033-0.056,0.051C2681.478,169.113,2681.459,169.129,2681.433,169.143z
		 M2679.915,169.27l0.02,0.111l0.01,0.01h0.078l0.024,0.01c0.065,0.014,0.114,0.02,0.146,0.02c0.101,0,0.181-0.025,0.241-0.076
		c0.061-0.049,0.108-0.074,0.144-0.074c0.036,0,0.066-0.025,0.091-0.074s0.039-0.072,0.046-0.072h0.068l0.02-0.01
		c0-0.076,0.033-0.129,0.101-0.162c0.066-0.033,0.113-0.076,0.141-0.129c0.027-0.055,0.06-0.096,0.096-0.123
		c0.035-0.027,0.06-0.064,0.072-0.109l0.039-0.059c0.014-0.014,0.02-0.037,0.02-0.072l0.093-0.178
		c0.02-0.08,0.029-0.145,0.029-0.189c0-0.068-0.034-0.123-0.104-0.162s-0.105-0.115-0.105-0.229c0-0.076,0.039-0.145,0.115-0.209
		c0.076-0.062,0.114-0.102,0.114-0.113c0-0.02-0.01-0.029-0.029-0.029c-0.01,0-0.047,0.012-0.112,0.037
		c-0.022,0.047-0.138,0.107-0.346,0.182c-0.068-0.031-0.105-0.049-0.112-0.049c-0.02,0-0.039,0.02-0.059,0.059
		s-0.039,0.066-0.059,0.084h-0.063c-0.006,0-0.027,0.02-0.062,0.062c-0.036,0.043-0.082,0.064-0.137,0.064l-0.059,0.059
		c0.003,0.053-0.029,0.105-0.098,0.16l-0.054,0.064c-0.032,0.039-0.075,0.084-0.127,0.137l-0.088,0.219
		c-0.036,0.086-0.054,0.148-0.054,0.191c-0.01,0.02-0.031,0.041-0.065,0.061c-0.034,0.021-0.052,0.049-0.052,0.082
		c0,0.006,0.012,0.021,0.035,0.047c0.021,0.027,0.033,0.047,0.033,0.061l-0.02,0.062l-0.02,0.182L2679.915,169.27z"/>
	<path fill="#F1F1F1" d="M2682.979,168.492v-0.033c0-0.047,0.003-0.082,0.01-0.109c-0.02-0.051-0.029-0.098-0.029-0.141
		c0-0.008,0.016-0.053,0.049-0.137l0.044-0.152c0.022-0.059,0.035-0.09,0.039-0.092c-0.021-0.053-0.03-0.082-0.03-0.088
		c0-0.076,0.021-0.137,0.064-0.186c0.042-0.049,0.078-0.117,0.107-0.205l0.098-0.299l0.16-0.391c0.004-0.01,0.02-0.037,0.047-0.078
		c0.027-0.043,0.051-0.078,0.068-0.109s0.043-0.076,0.076-0.135l0.049-0.01c0.013-0.014,0.02-0.027,0.02-0.039
		c0-0.008-0.007-0.033-0.02-0.078l0.171-0.283l0.103-0.211c0.032-0.055,0.068-0.092,0.107-0.107
		c0.065-0.121,0.122-0.193,0.171-0.221c0.02-0.061,0.056-0.127,0.107-0.199l0.093-0.01c0.017-0.045,0.033-0.08,0.049-0.104
		l0.01-0.098c0,0.02,0.008,0.014,0.025-0.016c0.016-0.031,0.04-0.09,0.072-0.174l0.133-0.152l0.039-0.068
		c0.016-0.023,0.042-0.066,0.078-0.133c0.049-0.018,0.089-0.055,0.121-0.107l0.104-0.082c-0.007-0.035,0.032-0.115,0.117-0.24
		c0.055-0.021,0.105-0.051,0.151-0.088l0.068-0.02c0-0.113,0.04-0.191,0.122-0.234l0.059-0.039c0.053-0.025,0.082-0.039,0.088-0.039
		l0.034-0.01c0.039-0.012,0.085-0.02,0.137-0.02c0.12,0,0.229,0.045,0.327,0.135s0.146,0.191,0.146,0.305
		c0,0.047-0.023,0.094-0.072,0.143l-0.02,0.039c-0.046,0.18-0.078,0.27-0.098,0.27c-0.014,0-0.031,0.01-0.055,0.029
		c-0.006,0.107-0.013,0.168-0.02,0.18c-0.059,0.01-0.088,0.084-0.088,0.221c-0.006,0.02-0.029,0.053-0.07,0.1
		s-0.072,0.111-0.096,0.195c-0.022,0.084-0.047,0.125-0.073,0.125h-0.054l0.015,0.072c0,0.047-0.022,0.092-0.065,0.135
		c-0.045,0.045-0.071,0.09-0.081,0.141c-0.01,0.049-0.049,0.105-0.117,0.176l-0.049,0.078c-0.02,0.031-0.046,0.066-0.078,0.102
		c-0.032,0.037-0.061,0.092-0.083,0.166l-0.127,0.234c-0.088,0.16-0.155,0.236-0.201,0.23c-0.029,0.127-0.049,0.199-0.059,0.219
		s-0.032,0.039-0.068,0.055c-0.035,0.016-0.062,0.045-0.082,0.086c-0.02,0.039-0.041,0.07-0.064,0.09l-0.088,0.182
		c-0.052,0.021-0.09,0.064-0.112,0.125c-0.052,0.014-0.085,0.059-0.098,0.133c-0.013,0.014-0.029,0.043-0.049,0.088l-0.171,0.172
		c-0.088,0.061-0.135,0.133-0.142,0.213c-0.007,0.078-0.049,0.119-0.127,0.119c-0.056,0-0.137-0.025-0.244-0.074h-0.011
		c-0.01,0.047-0.031,0.096-0.067,0.152l0.02,0.131c0,0.018-0.026,0.119-0.079,0.309c0.026,0.049,0.039,0.084,0.039,0.102
		l-0.01,0.109l0.025,0.131c0.016,0.107,0.055,0.162,0.117,0.162l0.117,0.02c0.006,0,0.047-0.025,0.122-0.074l0.181-0.098
		c0.006,0,0.01,0.004,0.01,0.01c0.032,0.014,0.059,0.02,0.078,0.02c0.032,0,0.049-0.025,0.049-0.078v-0.062
		c0.02-0.033,0.043-0.053,0.07-0.061c0.027-0.006,0.053-0.02,0.076-0.043c0.022-0.023,0.04-0.035,0.054-0.035h0.048
		c0.049,0,0.074-0.057,0.074-0.17c0.013-0.006,0.029-0.02,0.049-0.039h0.059c0.025,0,0.055-0.031,0.085-0.096
		c0.031-0.062,0.054-0.102,0.065-0.115c0.059-0.006,0.1-0.016,0.123-0.029c0.104-0.188,0.184-0.283,0.238-0.283h0.03
		c0.056-0.051,0.085-0.098,0.09-0.139s0.021-0.068,0.049-0.08c0.028-0.014,0.054-0.029,0.075-0.049
		c0.023-0.02,0.038-0.029,0.045-0.029c0.049,0,0.072,0.018,0.072,0.053l-0.014,0.137l0.034,0.146c0,0.014-0.015,0.039-0.042,0.076
		s-0.041,0.08-0.041,0.125c0,0.094-0.017,0.145-0.049,0.15c-0.033,0.008-0.06,0.029-0.081,0.066
		c-0.021,0.037-0.056,0.072-0.104,0.104s-0.086,0.074-0.112,0.135l-0.083,0.02l-0.049,0.029c-0.039,0.1-0.081,0.162-0.125,0.186
		c-0.044,0.021-0.099,0.09-0.163,0.205c-0.01,0-0.015,0.002-0.015,0.01l-0.078-0.01c-0.029,0.051-0.059,0.082-0.088,0.092
		s-0.055,0.029-0.073,0.057c-0.02,0.027-0.055,0.051-0.105,0.07c-0.05,0.02-0.082,0.043-0.095,0.068
		c-0.014,0.027-0.033,0.041-0.059,0.045c-0.026,0.002-0.051,0.016-0.074,0.035c-0.021,0.021-0.042,0.033-0.059,0.033
		c-0.006,0-0.028-0.004-0.067-0.01h-0.02c-0.056,0.039-0.101,0.059-0.137,0.059c-0.043,0-0.073,0.006-0.093,0.02
		c-0.02-0.014-0.05-0.023-0.091-0.029c-0.04-0.006-0.087-0.023-0.14-0.049c-0.055,0.012-0.089,0.02-0.102,0.02
		c-0.056,0-0.126-0.055-0.211-0.164c-0.084-0.109-0.127-0.215-0.127-0.32c0-0.002-0.018-0.029-0.056-0.076s-0.056-0.098-0.056-0.154
		v-0.049l0.01-0.057v-0.094l0.01-0.029c0.049-0.006,0.073-0.014,0.073-0.02L2682.979,168.492z M2683.97,167.197l0.103-0.059
		c0.013-0.053,0.056-0.115,0.127-0.188c0.072-0.074,0.122-0.111,0.151-0.111h0.039c0-0.021,0.005-0.045,0.015-0.068
		c0.01-0.021,0.015-0.053,0.015-0.092c0-0.02,0.044-0.074,0.132-0.162l0.039-0.088c0.029-0.084,0.104-0.154,0.221-0.209
		c0.045-0.096,0.079-0.143,0.102-0.143l0.039-0.01c0.014-0.049,0.039-0.092,0.078-0.131l0.021-0.029v-0.08
		c0-0.006,0.021-0.033,0.065-0.08c0.045-0.047,0.076-0.092,0.096-0.131c0.02-0.041,0.046-0.072,0.08-0.096
		c0.035-0.023,0.059-0.062,0.071-0.123l0.078-0.01c0-0.041,0.003-0.068,0.01-0.082l0.01-0.049c0.017-0.039,0.073-0.143,0.171-0.309
		l0.078-0.18c0-0.02,0.014-0.043,0.041-0.072c0.028-0.027,0.042-0.066,0.042-0.119l0.039-0.16c0-0.076-0.013-0.113-0.039-0.113
		c-0.032,0.023-0.062,0.039-0.091,0.049c-0.027,0.01-0.055,0.068-0.08,0.176c-0.098,0.023-0.154,0.07-0.168,0.139
		c-0.016,0.07-0.055,0.131-0.12,0.18l-0.034,0.059c-0.007,0.035-0.037,0.072-0.093,0.111s-0.108,0.105-0.156,0.201
		c-0.163,0.225-0.253,0.346-0.269,0.361l-0.049,0.059l-0.074-0.01c0.014,0.053,0.02,0.082,0.02,0.088c0,0.02-0.01,0.039-0.029,0.057
		s-0.033,0.039-0.043,0.066c-0.011,0.025-0.029,0.055-0.06,0.09c-0.029,0.033-0.056,0.09-0.08,0.166s-0.047,0.121-0.066,0.135
		l-0.068-0.01c-0.042,0.025-0.063,0.051-0.063,0.078l0.015,0.068c0,0.012-0.009,0.027-0.026,0.047
		c-0.018,0.018-0.035,0.053-0.052,0.104c-0.017,0.053-0.058,0.131-0.122,0.238c-0.065,0.105-0.117,0.217-0.154,0.336
		s-0.074,0.195-0.109,0.229c0.006,0.006,0.016,0.008,0.029,0.008C2683.89,167.328,2683.931,167.285,2683.97,167.197z"/>
	<path fill="#F1F1F1" d="M2687.022,168.541l0.039,0.039c0.066,0.064,0.103,0.117,0.111,0.154c0.008,0.037,0.024,0.076,0.051,0.117
		c0.025,0.041,0.039,0.076,0.039,0.109c0,0.014-0.02,0.043-0.059,0.09c-0.039,0.049-0.071,0.15-0.096,0.311
		c-0.023,0.16-0.106,0.24-0.246,0.24c-0.121,0-0.207-0.031-0.26-0.094c-0.055,0-0.092-0.008-0.109-0.021s-0.047-0.066-0.088-0.154
		s-0.075-0.146-0.103-0.176c-0.028-0.029-0.042-0.072-0.042-0.127c0-0.07,0.026-0.139,0.078-0.203
		c0.053-0.062,0.09-0.129,0.112-0.197c0.101-0.102,0.17-0.152,0.206-0.156c0.035-0.004,0.065-0.01,0.09-0.02
		s0.053-0.016,0.086-0.016C2686.891,168.438,2686.954,168.473,2687.022,168.541z M2688.449,165.238l-0.05,0.039l-0.133,0.24
		c-0.006,0.018-0.02,0.039-0.039,0.062l-0.063,0.088c-0.02,0.068-0.048,0.123-0.083,0.166c-0.037,0.043-0.06,0.084-0.069,0.125
		s-0.025,0.072-0.047,0.096c-0.021,0.021-0.045,0.086-0.071,0.195l-0.107,0.326l-0.064,0.084v0.059c0,0.02-0.026,0.045-0.078,0.078
		v0.17c-0.036,0.049-0.074,0.113-0.113,0.191l-0.043,0.326c-0.033,0.291-0.08,0.463-0.143,0.514l-0.063,0.059
		c-0.017,0.037-0.049,0.055-0.098,0.055c-0.026,0-0.083-0.045-0.171-0.133l-0.059-0.02c-0.056-0.025-0.109-0.088-0.164-0.186
		c-0.053-0.098-0.08-0.188-0.08-0.273c0-0.113,0.016-0.195,0.047-0.246c0.03-0.051,0.047-0.09,0.051-0.115l0.249-0.654
		c0.098-0.262,0.203-0.477,0.317-0.645l0.068-0.191l0.048-0.059l0.049-0.191c0.013-0.012,0.034-0.029,0.063-0.053
		c0.049-0.164,0.096-0.271,0.141-0.324c0.046-0.055,0.078-0.119,0.098-0.193c0.02-0.076,0.044-0.121,0.073-0.137
		c0.029-0.018,0.053-0.068,0.071-0.156c0.018-0.088,0.078-0.148,0.183-0.178l-0.03-0.062v-0.01c0-0.006,0.021-0.035,0.063-0.088
		s0.102-0.191,0.18-0.416s0.177-0.336,0.298-0.336c0.062,0,0.15,0.08,0.266,0.24c0.116,0.162,0.174,0.281,0.174,0.359
		c0,0.102-0.063,0.227-0.19,0.377s-0.226,0.291-0.296,0.426c-0.07,0.133-0.113,0.229-0.132,0.285
		C2688.482,165.189,2688.465,165.225,2688.449,165.238z"/>
</g>
<g>
	<path fill="#356732" d="M2993.847,187.406c-0.636,0.635-1.666,0.635-2.302,0l-0.32-0.32c-0.637-0.635-0.637-1.666,0-2.303
		l3.518-3.518c0.636-0.635,1.667-0.635,2.303,0l0.32,0.32c0.635,0.637,0.635,1.666,0,2.303L2993.847,187.406z"/>
	<path fill="#356732" d="M2992.77,182.918c0.635,0.635,0.635,1.666,0,2.301l-0.32,0.322c-0.636,0.635-1.666,0.635-2.303,0
		l-5.637-5.639c-0.636-0.637-0.636-1.666,0-2.303l0.32-0.32c0.636-0.635,1.666-0.635,2.303,0L2992.77,182.918z"/>
	<path fill="#3D7D3C" d="M2994.295,186.262c0,1.486-1.205,2.691-2.691,2.691h-0.748c-1.486,0-2.691-1.205-2.691-2.691v-8.225
		c0-1.486,1.205-2.691,2.691-2.691h0.748c1.486,0,2.691,1.205,2.691,2.691V186.262z"/>
	<path fill="#DB4A28" d="M2985.23,195.531c0,0.744,0.603,1.348,1.345,1.348h9.478c0.743,0,1.346-0.604,1.346-1.348v-9.561h-12.168
		V195.531z"/>
</g>
<g>
	<g>
		
			<path fill="none" stroke="#BE6328" stroke-width="1.7377" stroke-linecap="round" stroke-linejoin="round" stroke-miterlimit="10" d="
			M2427.273,145.021c0,10.157-8.233,18.391-18.391,18.391s-18.391-8.234-18.391-18.391"/>
		<path fill="none" stroke="#BE6328" stroke-width="1.7377" stroke-linecap="square" stroke-miterlimit="10" d="M2398.891,309.031
			c0-5.52,4.473-9.992,9.991-9.992s9.992,4.473,9.992,9.992"/>
		
			<line fill="none" stroke="#BE6328" stroke-width="1.7377" stroke-linecap="round" stroke-linejoin="round" stroke-miterlimit="10" x1="2408.882" y1="140.135" x2="2408.882" y2="298.189"/>
	</g>
	
		<line fill="none" stroke="#BE6328" stroke-width="1.7377" stroke-miterlimit="10" x1="2408.882" y1="309.549" x2="2408.882" y2="297.387"/>
</g>
</svg>
