<?xml version="1.0" encoding="utf-8"?>
<!-- Generator: Adobe Illustrator 16.0.0, SVG Export Plug-In . SVG Version: 6.00 Build 0)  -->
<!DOCTYPE svg PUBLIC "-//W3C//DTD SVG 1.1//EN" "http://www.w3.org/Graphics/SVG/1.1/DTD/svg11.dtd">
<svg version="1.1" id="Layer_1" xmlns="http://www.w3.org/2000/svg" xmlns:xlink="http://www.w3.org/1999/xlink" x="0px" y="0px"
	 width="906.396px" height="315.486px" viewBox="2246.686 -5.117 906.396 315.486"
	 enable-background="new 2246.686 -5.117 906.396 315.486" xml:space="preserve">
<rect x="2270.305" y="21.96" fill="#FFFFFF" width="859.158" height="288.409"/>
<g>
	<polygon fill="#DB4A28" points="2304.022,29.344 2246.686,29.344 2265.798,-5.117 2304.022,-5.117 	"/>
	<polygon fill="#DB4A28" points="3095.748,29.344 3153.083,29.344 3133.97,-5.117 3095.748,-5.117 	"/>
	<rect x="2296.548" y="-5.117" fill="#DB4A28" width="815.75" height="34.461"/>
</g>
<g>
	<g>
		<rect x="2477.921" y="242.369" fill="#9D4587" width="21.35" height="2.393"/>
		<rect x="2487.002" y="243.086" fill="#3A3B18" width="11.282" height="0.957"/>
	</g>
	<g>
		<rect x="2480.205" y="244.762" fill="#F37A5E" width="21.35" height="3.145"/>
		<rect x="2497.835" y="244.762" fill="#B3E1EF" width="1.052" height="3.145"/>
		<rect x="2495.887" y="244.762" fill="#B3E1EF" width="1.051" height="3.145"/>
		<rect x="2481.435" y="244.762" fill="#B3E1EF" width="4.939" height="3.145"/>
	</g>
</g>
<g>
	<g>
		<rect x="2789.149" y="228.635" fill="#FFFFFF" width="28.444" height="4.932"/>
		
			<line fill="none" stroke="#AEADAD" stroke-width="0.1026" stroke-miterlimit="10" x1="2789.149" y1="228.9" x2="2817.593" y2="228.9"/>
		
			<line fill="none" stroke="#AEADAD" stroke-width="0.1026" stroke-miterlimit="10" x1="2789.149" y1="229.207" x2="2817.593" y2="229.207"/>
		
			<line fill="none" stroke="#AEADAD" stroke-width="0.1026" stroke-miterlimit="10" x1="2789.149" y1="229.516" x2="2817.593" y2="229.516"/>
		
			<line fill="none" stroke="#AEADAD" stroke-width="0.1026" stroke-miterlimit="10" x1="2789.149" y1="229.822" x2="2817.593" y2="229.822"/>
		
			<line fill="none" stroke="#AEADAD" stroke-width="0.1026" stroke-miterlimit="10" x1="2789.149" y1="230.131" x2="2817.593" y2="230.131"/>
		
			<line fill="none" stroke="#AEADAD" stroke-width="0.1026" stroke-miterlimit="10" x1="2789.149" y1="230.438" x2="2817.593" y2="230.438"/>
		
			<line fill="none" stroke="#AEADAD" stroke-width="0.1026" stroke-miterlimit="10" x1="2789.149" y1="230.746" x2="2817.593" y2="230.746"/>
		
			<line fill="none" stroke="#AEADAD" stroke-width="0.1026" stroke-miterlimit="10" x1="2789.149" y1="231.053" x2="2817.593" y2="231.053"/>
		
			<line fill="none" stroke="#AEADAD" stroke-width="0.1026" stroke-miterlimit="10" x1="2789.149" y1="231.361" x2="2817.593" y2="231.361"/>
		
			<line fill="none" stroke="#AEADAD" stroke-width="0.1026" stroke-miterlimit="10" x1="2789.149" y1="231.668" x2="2817.593" y2="231.668"/>
		
			<line fill="none" stroke="#AEADAD" stroke-width="0.1026" stroke-miterlimit="10" x1="2789.149" y1="231.977" x2="2817.593" y2="231.977"/>
		
			<line fill="none" stroke="#AEADAD" stroke-width="0.1026" stroke-miterlimit="10" x1="2789.149" y1="232.285" x2="2817.593" y2="232.285"/>
		
			<line fill="none" stroke="#AEADAD" stroke-width="0.1026" stroke-miterlimit="10" x1="2789.149" y1="232.592" x2="2817.593" y2="232.592"/>
		
			<line fill="none" stroke="#AEADAD" stroke-width="0.1026" stroke-miterlimit="10" x1="2789.149" y1="232.9" x2="2817.593" y2="232.9"/>
		
			<line fill="none" stroke="#AEADAD" stroke-width="0.1026" stroke-miterlimit="10" x1="2789.149" y1="233.207" x2="2817.593" y2="233.207"/>
	</g>
	<rect x="2784.363" y="236.547" fill="#BAA565" width="145.263" height="73.672"/>
	<rect x="2781.11" y="233.406" fill="#BAA565" width="151.769" height="3.141"/>
	<rect x="2784.363" y="236.547" fill="#9A8857" width="145.263" height="3.139"/>
	<g>
		<rect x="2820.991" y="230.262" fill="#469CD2" width="21.35" height="3.145"/>
		<rect x="2838.622" y="230.262" fill="#B3E1EF" width="1.052" height="3.145"/>
		<rect x="2836.673" y="230.262" fill="#B3E1EF" width="1.051" height="3.145"/>
		<rect x="2822.221" y="230.262" fill="#B3E1EF" width="4.939" height="3.145"/>
	</g>
	<g>
		<rect x="2794.305" y="221.865" fill="#2D783B" width="21.35" height="2.393"/>
		<rect x="2803.386" y="222.582" fill="#3A3B18" width="11.282" height="0.957"/>
	</g>
	<g>
		<rect x="2800.606" y="217.488" fill="#E81461" width="15.947" height="4.377"/>
		<rect x="2802.939" y="218.566" fill="#201B22" width="2.731" height="2.307"/>
	</g>
	<g>
		<rect x="2795.9" y="224.258" fill="#8D5623" width="18.683" height="4.377"/>
		<rect x="2809.118" y="224.258" fill="#C5CB79" width="2.103" height="4.377"/>
		<rect x="2798.539" y="224.258" fill="#C5CB79" width="0.477" height="4.377"/>
	</g>
</g>
<g>
	<rect x="2483.315" y="248.223" fill="#7D461F" width="56.82" height="29.889"/>
	<rect x="2477.366" y="247.906" fill="#BE6328" width="68.719" height="1.502"/>
	<g>
		<rect x="2483.007" y="249.408" fill="#BE6328" width="1.23" height="60.811"/>
		<rect x="2539.211" y="249.408" fill="#BE6328" width="1.231" height="60.811"/>
	</g>
</g>
<g>
	<path fill="#CBDFEA" d="M2518.975,308.961c-0.536-1.596-1.039-1.777-4.497-1.941l-2.521-0.807
		c-1.412-0.344-2.652-1.123-3.577-2.186c-0.208-0.238-0.397-0.494-0.571-0.76c-1.594,0.113-1.366,1.566-1.366,1.566h-4.495v0.607
		v0.846v0.846v1.83v0.807v0.48h4.948l2.198-0.006h10.094C2519.188,309.795,2519.114,309.367,2518.975,308.961"/>
	<path fill="#EEF8FD" d="M2537.762,308.961c-0.537-1.596-1.043-1.777-4.499-1.941l-2.519-0.807
		c-1.412-0.344-2.655-1.123-3.578-2.186c-0.206-0.238-0.397-0.494-0.572-0.76c-1.596,0.113-1.368,1.566-1.368,1.566h-4.493v0.607
		v0.846v0.846v1.83v0.807v0.48h4.947l2.199-0.006h10.092C2537.973,309.795,2537.897,309.367,2537.762,308.961"/>
	<rect x="2501.948" y="260.459" fill="#8B8025" width="8.402" height="44.469"/>
	<path fill="#F6B49C" d="M2512.573,203.48l-0.186-0.234h-10.115v21.184h-5.001v10.777h13.603V224.43h-1.549v-0.01v-2.184
		c0-1.307,1.492-1.494,1.492-1.494h3.631v-5.551h2.295L2512.573,203.48z"/>
	<path fill="#2F3F4A" d="M2513.418,210.01c0,0.303-0.245,0.549-0.549,0.549s-0.549-0.246-0.549-0.549s0.245-0.551,0.549-0.551
		S2513.418,209.707,2513.418,210.01"/>
	<path fill="#784F3F" d="M2514.684,198.82c-1.814,0-3.17,0.611-3.713,1.514c-0.407-0.578-1.076-0.957-1.836-0.957
		c-0.516,0-0.984,0.178-1.363,0.473c-0.328-1.244-1.449-2.164-2.793-2.164c-1.322,0-2.42,0.887-2.775,2.086
		c-0.311-0.244-0.694-0.395-1.121-0.395c-0.738,0-1.371,0.441-1.655,1.07c-0.414-0.211-0.88-0.344-1.378-0.344
		c-1.676,0-3.031,1.354-3.031,3.031c0,1.135,0.628,2.109,1.551,2.631c-0.55,0.342-0.916,0.945-0.916,1.639
		c0,0.467,0.172,0.887,0.448,1.225c-0.648,0.4-1.083,1.113-1.083,1.93c0,1.178,0.902,2.135,2.051,2.252
		c-0.354,0.359-0.574,0.857-0.574,1.406c0,0.945,0.656,1.738,1.538,1.949c-0.435,0.205-0.739,0.645-0.739,1.16
		c0,0.682,0.535,1.236,1.21,1.273v0.008h1.446c4.386,0,4.152-4.154,4.152-4.154V212.6c-0.01,0-0.02,0.004-0.029,0.004
		c-1.018,0-1.842-0.828-1.842-1.846c0-1.016,0.824-1.842,1.842-1.842c1.006,0,1.818,0.805,1.84,1.803h0.004v0.039v0.076h1.967
		v-2.916h4.627c4.111,0,5.08-2.35,5.529-3.705c0.315-0.967,0.315-1.846,0.315-2.279
		C2518.073,199.697,2516.401,198.82,2514.684,198.82 M2507.064,202.602c0.015-0.016,0.026-0.037,0.044-0.053
		c0.008,0.02,0.021,0.037,0.029,0.053H2507.064z"/>
	<path fill="#F6B49C" d="M2513.944,215.939h-2.076c-0.479,0-1.445,0.045-1.445,1.26v0.938h3.521V215.939z"/>
	<path fill="#D0867E" d="M2513.631,216.811c-0.211,0-0.38-0.17-0.38-0.379h-0.562c0,0.516,0.42,0.939,0.942,0.939h0.814v-0.561
		H2513.631z"/>
	<path fill="#A0922C" d="M2492.806,263.871c0,4.812,3.898,8.713,8.712,8.713h6.592c4.812,0,8.713-3.9,8.713-8.713l-1.598-4.76
		h-22.419V263.871z"/>
	<rect x="2507.418" y="260.459" fill="#A0922C" width="8.402" height="12.234"/>
	<path fill="#3B596D" d="M2514.583,224.43h-18.132c-3.329,0-6.026,2.699-6.026,6.025v4.412v12.814h2.322v15.926h0.598h20.996h2.514
		v-15.926h3.748v-2.428v-6.268v-8.531C2520.602,227.127,2517.905,224.43,2514.583,224.43"/>
	<path fill="#3B596D" d="M2525.159,241.877h-10.822v6.045h10.822h1.931h1.787h0.003c0,0,0.005,0,0.01,0h0.291v-0.029
		c1.528-0.152,2.725-1.426,2.725-2.992c0-1.568-1.196-2.842-2.725-2.994v-0.029h-0.291c-0.005,0-0.005,0-0.005,0
		c-0.005,0-0.007,0-0.007,0H2525.159z"/>
	<path fill="#A0922C" d="M2520.733,267.607c0-2.201,1.8-4,4-4h0.403c2.2,0,4,1.799,4,4v33.32c0,2.201-1.8,4-4,4h-0.403
		c-2.2,0-4-1.799-4-4V267.607z"/>
	<polygon fill="#A0922C" points="2515.725,263.607 2524.708,263.607 2529.136,272.553 2529.136,304.928 2520.733,304.928 
		2520.733,271.574 2515.725,271.141 	"/>
</g>
<g>
	<path fill="#F6C811" d="M2522.842,247.555c0,2.391-1.303,4.326-4.069,4.326h-26.096c-2.767,0-4.069-1.936-4.069-4.326v-3.424
		c0-2.391,1.303-4.326,4.069-4.326h26.096c2.767,0,4.069,1.936,4.069,4.326V247.555z"/>
	<path fill="#F6C811" d="M2522.87,272.855c0,0.963-1.113,1.744-2.489,1.744h-29.311c-1.376,0-2.49-0.781-2.49-1.744l0,0
		c0-0.965,1.114-1.746,2.49-1.746h29.311C2521.756,271.109,2522.87,271.891,2522.87,272.855L2522.87,272.855z"/>
	<g>
		<rect x="2491.516" y="239.805" fill="#41454D" width="1.226" height="70.488"/>
		<rect x="2518.708" y="239.805" fill="#41454D" width="1.226" height="70.488"/>
	</g>
	<rect x="2492.742" y="274.6" fill="#41454D" width="25.967" height="1.645"/>
</g>
<g>
	<g>
		<polyline fill="#9D4587" points="2814.619,242.369 2798.039,242.369 2798.039,244.764 2819.388,244.764 2819.388,242.369 
			2814.619,242.369 		"/>
		<rect x="2799.025" y="243.088" fill="#3A3B18" width="11.282" height="0.957"/>
	</g>
	<g>
		<rect x="2795.755" y="244.764" fill="#F37A5E" width="21.35" height="3.145"/>
		<rect x="2798.422" y="244.764" fill="#B3E1EF" width="1.052" height="3.145"/>
		<rect x="2800.372" y="244.764" fill="#B3E1EF" width="1.051" height="3.145"/>
		<rect x="2810.935" y="244.764" fill="#B3E1EF" width="4.939" height="3.145"/>
	</g>
</g>
<g>
	<rect x="2796.281" y="248.225" fill="#7D461F" width="56.82" height="29.887"/>
	<rect x="2790.333" y="247.908" fill="#BE6328" width="68.717" height="1.502"/>
	<g>
		<rect x="2852.178" y="249.41" fill="#BE6328" width="1.23" height="60.811"/>
		<rect x="2795.973" y="249.41" fill="#BE6328" width="1.23" height="60.811"/>
	</g>
</g>
<g>
	<path fill="#6F3E18" d="M2814.442,308.961c-0.14,0.406-0.213,0.836-0.213,1.285h10.092l2.199,0.006h4.948v-0.48v-0.809v-1.828
		v-0.848v-0.846v-0.607h-4.495c0,0,0.229-1.451-1.366-1.566c-0.174,0.268-0.364,0.521-0.571,0.76
		c-0.924,1.062-2.166,1.842-3.578,2.188l-2.52,0.805C2815.481,307.186,2814.977,307.365,2814.442,308.961"/>
	<path fill="#7D461F" d="M2798.654,308.961c-0.136,0.406-0.21,0.836-0.21,1.285h10.094l2.197,0.006h4.948v-0.48v-0.809v-1.828
		v-0.848v-0.846v-0.607h-4.493c0,0,0.227-1.451-1.368-1.566c-0.175,0.268-0.366,0.521-0.573,0.76
		c-0.922,1.062-2.164,1.842-3.576,2.188l-2.52,0.805C2799.696,307.186,2799.191,307.365,2798.654,308.961"/>
	<rect x="2823.067" y="260.459" fill="#736E56" width="8.401" height="44.471"/>
	<path fill="#F6B49C" d="M2819.672,215.191h2.295v5.551h3.631c0,0,1.494,0.188,1.494,1.494v2.184v0.01h-1.549v10.779h13.602V224.43
		h-5.001v-21.182h-10.116l-0.185,0.234L2819.672,215.191z"/>
	<path fill="#2F3F4A" d="M2822.998,210.01c0-0.303,0.245-0.549,0.549-0.549s0.549,0.246,0.549,0.549s-0.245,0.549-0.549,0.549
		S2822.998,210.312,2822.998,210.01"/>
	<path fill="#F6B49C" d="M2822.471,218.137h3.523v-0.936c0-1.217-0.969-1.262-1.446-1.262h-2.077V218.137z"/>
	<path fill="#D0867E" d="M2821.969,216.812v0.559h0.814c0.521,0,0.943-0.422,0.943-0.939h-0.562c0,0.211-0.169,0.381-0.38,0.381
		H2821.969z"/>
	<path fill="#8B8569" d="M2843.61,259.113h-22.419l-1.597,4.758c0,4.814,3.9,8.713,8.713,8.713h6.592
		c4.812,0,8.711-3.898,8.711-8.713V259.113z"/>
	<rect x="2820.594" y="260.459" fill="#8B8569" width="8.403" height="12.234"/>
	<path fill="#396844" d="M2821.834,224.43c-3.323,0-6.021,2.699-6.021,6.027v8.529v6.268v2.428h3.747v15.926h2.516h20.996h0.597
		v-15.926h2.321v-12.814v-4.41c0-3.328-2.697-6.027-6.025-6.027H2821.834"/>
	<path fill="#396844" d="M2807.473,243.418c0,0,0,0.002-0.003,0.004c0,0,0,0-0.001,0.006l-0.143,0.25l0.024,0.014
		c-0.613,1.377-0.108,3.02,1.23,3.783c1.337,0.764,3.007,0.361,3.88-0.867l0.027,0.014l0.142-0.248
		c0.002-0.006,0.004-0.01,0.004-0.01l0.001-0.002l0.871-1.525l0.942-1.648l7.386-12.949l-5.161-2.943l-7.386,12.945
		L2807.473,243.418z"/>
	<path fill="#8B8569" d="M2815.683,300.93c0,2.199-1.8,4-4,4h-0.403c-2.2,0-4-1.801-4-4v-33.322c0-2.199,1.8-4,4-4h0.403
		c2.2,0,4,1.801,4,4V300.93z"/>
	<polygon fill="#8B8569" points="2820.691,271.141 2815.683,271.574 2815.683,304.93 2807.28,304.93 2807.28,272.553 
		2811.708,263.607 2820.691,263.607 	"/>
	<path fill="#9C6332" d="M2821.184,201.113c0,0.008-0.011,0.018-0.012,0.025c-1.06,0.09-1.954,0.74-2.382,1.66
		c0,0.002-0.007,0.004-0.007,0.004l-0.009,0.025c-0.06,0.133-0.103,0.271-0.142,0.412l-0.263,4.781h8.163v2.814h1.965v-0.076v-0.039
		h0.006c0.02-1,0.834-1.805,1.839-1.805c1.017,0,1.842,0.826,1.842,1.844s-0.825,1.846-1.842,1.846c-0.01,0-0.021-0.004-0.029-0.004
		v1.223c0,0-0.233,4.154,4.151,4.154h2.733v-16.865h-4H2821.184z"/>
	<path fill="#396844" d="M2809.534,247.908h4.039v-6.045h-4.039h-1.931h-1.787h-0.004c0,0-0.004,0-0.01,0h-0.291v0.029
		c-1.527,0.152-2.723,1.424-2.723,2.992c0,1.566,1.195,2.84,2.723,2.994v0.029h0.291c0.006,0,0.006,0,0.006,0
		c0.004,0,0.006,0,0.006,0H2809.534z"/>
</g>
<g>
	<path fill="#F6C811" d="M2813.573,247.555c0,2.391,1.304,4.326,4.07,4.326h26.096c2.767,0,4.07-1.936,4.07-4.326v-3.424
		c0-2.391-1.304-4.326-4.07-4.326h-26.096c-2.767,0-4.07,1.936-4.07,4.326V247.555z"/>
	<path fill="#F6C811" d="M2813.545,272.855c0,0.963,1.115,1.744,2.49,1.744h29.311c1.375,0,2.49-0.781,2.49-1.744l0,0
		c0-0.965-1.115-1.746-2.49-1.746h-29.311C2814.661,271.109,2813.545,271.891,2813.545,272.855L2813.545,272.855z"/>
	<g>
		<rect x="2843.674" y="239.805" fill="#41454D" width="1.226" height="70.488"/>
		<rect x="2816.481" y="239.805" fill="#41454D" width="1.227" height="70.488"/>
	</g>
	<rect x="2817.708" y="274.6" fill="#41454D" width="25.967" height="1.645"/>
</g>
<g>
	<rect x="2288.88" y="109.287" fill="#BAA565" width="67.087" height="200.967"/>
	<path fill="#B4D6DA" d="M2324.924,146.438c0,1.379-1.119,2.497-2.5,2.497c-1.382,0-2.502-1.118-2.502-2.497
		c0-1.382,1.12-2.503,2.502-2.503C2323.805,143.935,2324.924,145.056,2324.924,146.438z"/>
	<g>
		<circle fill="#B4D6DA" cx="2344.823" cy="209.09" r="3.67"/>
		
			<line fill="none" stroke="#8A9B9E" stroke-width="2.0807" stroke-linecap="round" stroke-linejoin="round" stroke-miterlimit="10" x1="2330.649" y1="209.09" x2="2345.043" y2="209.09"/>
	</g>
</g>
<g>
	<g>
		<rect x="2625.138" y="243.527" fill="#444088" width="21.35" height="4.395"/>
	</g>
	<g>
		<rect x="2622.421" y="241.105" fill="#F37A5E" width="21.35" height="2.422"/>
		<rect x="2640.052" y="241.105" fill="#B3E1EF" width="1.052" height="2.422"/>
		<rect x="2638.104" y="241.105" fill="#B3E1EF" width="1.051" height="2.422"/>
		<rect x="2623.652" y="241.105" fill="#B3E1EF" width="4.939" height="2.422"/>
	</g>
</g>
<g>
	<rect x="2586.006" y="248.223" fill="#7D461F" width="56.82" height="29.889"/>
	<rect x="2580.057" y="247.906" fill="#BE6328" width="68.718" height="1.502"/>
	<g>
		<rect x="2585.698" y="249.408" fill="#BE6328" width="1.23" height="60.811"/>
		<rect x="2641.903" y="249.408" fill="#BE6328" width="1.23" height="60.811"/>
	</g>
</g>
<g>
	<rect x="2608.639" y="260.459" fill="#D79F8A" width="5.401" height="45.084"/>
	<path fill="#F6B49C" d="M2614.264,204.48l-0.186-0.234h-9.115v20.184h-6.002v10.777h13.603V224.43h-1.549v-0.01v-2.184
		c0-1.307,1.493-1.494,1.493-1.494h3.631v-5.551h2.295L2614.264,204.48z"/>
	<path fill="#2F3F4A" d="M2615.195,210.531c0,0.303-0.245,0.549-0.549,0.549s-0.549-0.246-0.549-0.549s0.245-0.551,0.549-0.551
		S2615.195,210.229,2615.195,210.531"/>
	<path fill="#F6B49C" d="M2615.635,215.939h-2.076c-0.479,0-1.446,0.045-1.446,1.26v0.938h3.522V215.939z"/>
	<path fill="#D0867E" d="M2615.323,217.811c-0.211,0-0.381-0.17-0.381-0.379h-0.562c0,0.516,0.421,0.939,0.942,0.939h0.814v-0.561
		H2615.323z"/>
	<path fill="#FFF58A" d="M2624.728,234.924l-5.724-9.184l-5.131,3.195l5.725,9.188l1.021,1.639l4.273,6.721l0.002,0.002
		c0,0,0.002,0.004,0.006,0.008l0.153,0.248l0.024-0.016c0.938,1.215,2.65,1.557,3.98,0.729s1.779-2.518,1.101-3.895l0.024-0.016
		l-0.153-0.248c-0.003-0.004-0.003-0.004-0.003-0.004c-0.002-0.004-0.004-0.006-0.004-0.006L2624.728,234.924z"/>
	<polygon fill="#F6B49C" points="2604.416,263.607 2623.399,263.607 2627.827,272.553 2627.827,305.543 2622.424,305.543 
		2622.424,271.574 2604.416,271.141 	"/>
	<path fill="#469CD2" d="M2596.269,263.871c0,4.812,3.898,8.713,8.712,8.713h5.589c4.812,0,8.713-3.9,8.713-8.713v-4.76h-23.014
		V263.871z"/>
	<path fill="#FFF58A" d="M2619.283,234.174v-1.549v-2.549v-3.268c0-1.309-1.06-2.369-2.366-2.369h-3.883h-12.695h-1.689
		c-1.309,0-2.367,1.061-2.367,2.369v3.562h-0.013v10.387v22.904h8.383h8.382h6.249V234.174z"/>
	<path fill="#AD8630" d="M2617.824,204.26c-0.248-1.225-1.331-2.146-2.629-2.146c-0.022,0-0.043,0.006-0.065,0.008l-0.008-0.008
		h-2.896h-2.312h-9.271v15.352l-3.604-1.525v3.369h3.499c0.018,0,0.105,0,0.105,0c0.146,0,0.466,0,1.118,0
		c5.284,0,5.004-5.002,5.004-5.002v-0.703c-0.995-0.002-1.803-0.809-1.803-1.805s0.81-1.805,1.805-1.805
		c0.791,0,1.455,0.512,1.701,1.219l0.023,0.926c1.152-0.086,2.064-1.016,2.12-2.176h0.01v-1.607c0.516,0,1.158,0,1.967,0
		c1.126,0,6.294,0,6.294,0L2617.824,204.26z"/>
	<path fill="#469CD2" d="M2603.424,276.73h30.402l-2-9.123c-0.561-2.627-1.799-4-4-4h-12.402c-2.201,0-12,1.799-12,4V276.73z"/>
	<path fill="#C6492D" d="M2622.572,309.133c-0.464-1.383-1.173-1.586-2.534-1.682l-2.184-0.699c-1.225-0.299-2.3-0.975-3.102-1.895
		c-0.18-0.207-0.344-0.428-0.494-0.658c-1.382,0.098-1.184,1.357-1.184,1.357h-4.436v0.525v0.732v0.734v1.586v0.699v0.416h4.287
		l1.906-0.004h7.924C2622.756,309.855,2622.692,309.484,2622.572,309.133"/>
	<path fill="#DB4A28" d="M2636.352,309.133c-0.464-1.383-1.172-1.586-2.534-1.682l-2.185-0.699c-1.223-0.299-2.299-0.975-3.1-1.895
		c-0.18-0.207-0.345-0.428-0.495-0.658c-1.382,0.098-1.185,1.357-1.185,1.357h-4.436v0.525v0.732v0.734v1.586v0.699v0.416h4.289
		l1.905-0.004h7.924C2636.537,309.855,2636.473,309.484,2636.352,309.133"/>
	<rect x="2622.458" y="276.73" opacity="0.4" fill="#B78C7E" width="5.369" height="2.307"/>
</g>
<g>
	<path fill="#F6C811" d="M2625.534,247.555c0,2.391-1.303,4.326-4.07,4.326h-26.096c-2.766,0-4.069-1.936-4.069-4.326v-3.424
		c0-2.391,1.304-4.326,4.069-4.326h26.096c2.768,0,4.07,1.936,4.07,4.326V247.555z"/>
	<path fill="#F6C811" d="M2625.561,272.855c0,0.963-1.114,1.744-2.49,1.744h-29.311c-1.375,0-2.49-0.781-2.49-1.744l0,0
		c0-0.965,1.115-1.746,2.49-1.746h29.311C2624.447,271.109,2625.561,271.891,2625.561,272.855L2625.561,272.855z"/>
	<g>
		<rect x="2594.208" y="239.805" fill="#41454D" width="1.225" height="70.488"/>
		<rect x="2621.399" y="239.805" fill="#41454D" width="1.227" height="70.488"/>
	</g>
	<rect x="2595.432" y="274.6" fill="#41454D" width="25.967" height="1.645"/>
</g>
<g>
	<g>
		<rect x="2730.047" y="244.527" fill="#A0922C" width="21.35" height="3.395"/>
	</g>
	<g>
		<rect x="2732.332" y="242.105" fill="#3B596D" width="21.35" height="2.422"/>
		<rect x="2734.998" y="242.105" fill="#B3E1EF" width="1.053" height="2.422"/>
		<rect x="2736.947" y="242.105" fill="#B3E1EF" width="1.051" height="2.422"/>
		<rect x="2747.511" y="242.105" fill="#B3E1EF" width="4.939" height="2.422"/>
	</g>
</g>
<g>
	<rect x="2690.916" y="248.223" fill="#7D461F" width="56.82" height="29.889"/>
	<rect x="2684.967" y="247.906" fill="#BE6328" width="68.717" height="1.502"/>
	<g>
		<rect x="2690.608" y="249.408" fill="#BE6328" width="1.23" height="60.811"/>
		<rect x="2746.813" y="249.408" fill="#BE6328" width="1.23" height="60.811"/>
	</g>
</g>
<g>
	<path fill="#2D363D" d="M2726.481,309.133c-0.463-1.383-1.172-1.586-2.533-1.682l-2.185-0.699c-1.224-0.299-2.3-0.975-3.101-1.895
		c-0.18-0.207-0.344-0.428-0.494-0.658c-1.383,0.098-1.185,0.357-1.185,0.357h-4.436v1.525v0.732v0.734v1.586v0.699v0.416h4.288
		l1.906-0.004h7.924C2726.667,309.855,2726.602,309.484,2726.481,309.133"/>
	<path fill="#3B474D" d="M2738.395,309.133c-0.465-1.383-1.173-1.586-2.535-1.682l-2.184-0.699
		c-1.224-0.299-2.299-0.975-3.101-1.895c-0.18-0.207-0.345-0.428-0.495-0.658c-1.381,0.098-1.184,0.357-1.184,0.357h-4.436v1.525
		v0.732v0.734v1.586v0.699v0.416h4.288l1.905-0.004h7.924C2738.579,309.855,2738.515,309.484,2738.395,309.133"/>
	<rect x="2712.548" y="260.459" fill="#1F6482" width="6.401" height="45.084"/>
	<path fill="#F6B49C" d="M2719.173,204.48l-0.185-0.234h-9.116v20.184h-6.001v10.777h13.602V224.43h-1.549v-0.01v-2.184
		c0-1.307,1.494-1.494,1.494-1.494h3.631v-5.551h2.295L2719.173,204.48z"/>
	<path fill="#2F3F4A" d="M2720.104,210.531c0,0.303-0.244,0.549-0.549,0.549c-0.303,0-0.549-0.246-0.549-0.549
		s0.246-0.551,0.549-0.551C2719.86,209.98,2720.104,210.229,2720.104,210.531"/>
	<path fill="#F6B49C" d="M2720.545,215.939h-2.077c-0.478,0-1.446,0.045-1.446,1.26v0.938h3.523V215.939z"/>
	<path fill="#D0867E" d="M2720.232,217.811c-0.211,0-0.38-0.17-0.38-0.379h-0.562c0,0.516,0.422,0.939,0.943,0.939h0.814v-0.561
		H2720.232z"/>
	<path fill="#CE766B" d="M2690.499,243.285c0,0-0.001,0.002-0.004,0.006c0,0,0,0-0.002,0.004l-0.154,0.248l0.025,0.016
		c-0.679,1.377-0.229,3.066,1.101,3.895c1.329,0.828,3.042,0.486,3.979-0.729l0.025,0.016l0.153-0.248
		c0.003-0.004,0.005-0.008,0.005-0.008l0.002-0.002l4.274-6.721l1.021-1.639l5.724-9.188l-5.131-3.195l-5.723,9.184
		L2690.499,243.285z"/>
	<path fill="#CE766B" d="M2729.637,234.924l-5.723-9.184l-5.131,3.195l5.724,9.188l1.021,1.639l4.274,6.721l0.002,0.002
		c0,0,0.002,0.004,0.005,0.008l0.153,0.248l0.025-0.016c0.938,1.215,2.65,1.557,3.979,0.729c1.33-0.828,1.779-2.518,1.101-3.895
		l0.025-0.016l-0.154-0.248c-0.002-0.004-0.002-0.004-0.002-0.004c-0.003-0.004-0.004-0.006-0.004-0.006L2729.637,234.924z"/>
	<polygon fill="#097698" points="2715.466,263.607 2726.442,263.607 2730.87,272.553 2730.87,305.543 2724.466,305.543 
		2724.466,271.574 2715.466,271.141 	"/>
	<path fill="#097698" d="M2712.725,274.6h18.145v-6.992c0-2.752-1.8-4-4-4h-11.403c-2.2,0-2.741,1.799-2.741,4V274.6z"/>
	<path fill="#097698" d="M2701.178,263.871c0,4.812,3.898,8.713,8.712,8.713h5.589c4.812,0,8.713-3.9,8.713-8.713v-4.76h-23.014
		V263.871z"/>
	<path fill="#CE766B" d="M2724.192,234.174v-1.549v-2.549v-3.268c0-1.309-1.059-2.369-2.365-2.369h-3.883h-12.695h-1.689
		c-1.309,0-2.367,1.061-2.367,2.369v3.562h-0.014v10.387v22.904h8.383h8.383h6.248V234.174z"/>
	<path fill="#8B6642" d="M2722.733,204.26c-0.248-1.225-1.33-2.146-2.629-2.146c-0.021,0-0.043,0.006-0.064,0.008l-0.009-0.008
		h-2.896h-2.312h-9.271v15.352l2,10.666l-1,6.141h4.091l-1-6.141c0.008,0,0.031,0,0.031,0l2-10.666v-3.158v-0.703
		c-0.995-0.002-1.802-0.809-1.802-1.805s0.809-1.805,1.805-1.805c0.791,0,1.455,0.512,1.701,1.219l0.023,0.926
		c1.152-0.086,3.127-1.033,4.137-1.607C2723.344,207.23,2722.733,204.26,2722.733,204.26z"/>
</g>
<g>
	<path fill="#F6C811" d="M2730.444,247.555c0,2.391-1.304,4.326-4.07,4.326h-26.096c-2.767,0-4.07-1.936-4.07-4.326v-3.424
		c0-2.391,1.304-4.326,4.07-4.326h26.096c2.767,0,4.07,1.936,4.07,4.326V247.555z"/>
	<path fill="#F6C811" d="M2730.471,272.855c0,0.963-1.115,1.744-2.49,1.744h-29.311c-1.375,0-2.49-0.781-2.49-1.744l0,0
		c0-0.965,1.115-1.746,2.49-1.746h29.311C2729.356,271.109,2730.471,271.891,2730.471,272.855L2730.471,272.855z"/>
	<g>
		<rect x="2699.117" y="239.805" fill="#41454D" width="1.226" height="70.488"/>
		<rect x="2726.309" y="239.805" fill="#41454D" width="1.227" height="70.414"/>
	</g>
	<rect x="2700.342" y="274.6" fill="#41454D" width="25.967" height="1.645"/>
</g>
</svg>
