<?xml version="1.0" encoding="utf-8"?>
<!-- Generator: Adobe Illustrator 16.0.0, SVG Export Plug-In . SVG Version: 6.00 Build 0)  -->
<!DOCTYPE svg PUBLIC "-//W3C//DTD SVG 1.1//EN" "http://www.w3.org/Graphics/SVG/1.1/DTD/svg11.dtd">
<svg version="1.1" id="Layer_1" xmlns="http://www.w3.org/2000/svg" xmlns:xlink="http://www.w3.org/1999/xlink" x="0px" y="0px"
	 width="1055.54px" height="316px" viewBox="0 0 1055.54 316" enable-background="new 0 0 1055.54 316" xml:space="preserve">
<g>
	<rect x="42.194" y="50.611" fill="#90A865" width="971.15" height="265.024"/>
	<g>
		<g>
			<rect x="893.004" y="130.181" fill="#5E5F5F" width="120.412" height="185.454"/>
			<rect x="897.877" y="171.582" fill="#40434C" width="110.668" height="30.67"/>
			<rect x="897.877" y="135.759" fill="#40434C" width="110.668" height="30.671"/>
			<rect x="897.877" y="207.812" fill="#40434C" width="110.668" height="30.672"/>
			<rect x="897.877" y="244.045" fill="#40434C" width="110.668" height="30.672"/>
			<rect x="897.877" y="280.277" fill="#40434C" width="110.668" height="30.67"/>
		</g>
		<g>
			<rect x="900.542" y="232.105" fill="#F7D21E" width="23.021" height="6.379"/>
			<rect x="912.776" y="233.498" fill="#F4F4F4" width="9.053" height="3.594"/>
			<rect x="920.153" y="233.498" fill="#8D9696" width="1.779" height="3.594"/>
			<g>
				
					<line fill="none" stroke="#2B7CBE" stroke-width="0.1026" stroke-miterlimit="10" x1="913.95" y1="236.688" x2="913.95" y2="233.922"/>
				
					<line fill="none" stroke="#2B7CBE" stroke-width="0.1026" stroke-miterlimit="10" x1="914.917" y1="236.688" x2="914.917" y2="233.922"/>
				
					<line fill="none" stroke="#2B7CBE" stroke-width="0.1026" stroke-miterlimit="10" x1="915.885" y1="236.688" x2="915.885" y2="233.922"/>
				
					<line fill="none" stroke="#2B7CBE" stroke-width="0.1026" stroke-miterlimit="10" x1="916.852" y1="236.688" x2="916.852" y2="233.922"/>
				
					<line fill="none" stroke="#2B7CBE" stroke-width="0.1026" stroke-miterlimit="10" x1="917.821" y1="236.688" x2="917.821" y2="233.922"/>
				
					<line fill="none" stroke="#2B7CBE" stroke-width="0.1026" stroke-miterlimit="10" x1="918.788" y1="236.688" x2="918.788" y2="233.922"/>
			</g>
			<g>
				<circle fill="#C2D7D7" cx="904.489" cy="235.317" r="1.503"/>
				<circle fill="#52595A" cx="904.489" cy="235.294" r="1.209"/>
			</g>
		</g>
		<g>
			
				<rect x="999.881" y="251.255" transform="matrix(-0.9789 -0.2042 0.2042 -0.9789 1931.3308 724.8531)" fill="#4094D1" width="6.379" height="23.02"/>
			
				<rect x="1000.179" y="263.37" transform="matrix(-0.9789 -0.2041 0.2041 -0.9789 1928.1799 734.6639)" fill="#F4F4F4" width="3.593" height="9.054"/>
			
				<rect x="999.414" y="270.669" transform="matrix(-0.9789 -0.2041 0.2041 -0.9789 1925.9172 741.7548)" fill="#8D9696" width="3.593" height="1.78"/>
			<g>
				
					<line fill="none" stroke="#2B7CBE" stroke-width="0.1026" stroke-miterlimit="10" x1="1001.346" y1="264.35" x2="1004.051" y2="264.916"/>
				
					<line fill="none" stroke="#2B7CBE" stroke-width="0.1026" stroke-miterlimit="10" x1="1001.147" y1="265.299" x2="1003.854" y2="265.863"/>
				
					<line fill="none" stroke="#2B7CBE" stroke-width="0.1026" stroke-miterlimit="10" x1="1000.95" y1="266.246" x2="1003.657" y2="266.811"/>
				
					<line fill="none" stroke="#2B7CBE" stroke-width="0.1026" stroke-miterlimit="10" x1="1000.752" y1="267.191" x2="1003.459" y2="267.758"/>
				
					<line fill="none" stroke="#2B7CBE" stroke-width="0.1026" stroke-miterlimit="10" x1="1000.555" y1="268.141" x2="1003.26" y2="268.705"/>
				
					<line fill="none" stroke="#2B7CBE" stroke-width="0.1026" stroke-miterlimit="10" x1="1000.358" y1="269.086" x2="1003.063" y2="269.652"/>
			</g>
			<g>
				<circle fill="#C2D7D7" cx="1004.62" cy="255.369" r="1.503"/>
				<circle fill="#52595A" cx="1004.641" cy="255.374" r="1.21"/>
			</g>
		</g>
		<g>
			
				<rect x="990.607" y="251.454" transform="matrix(-0.8969 -0.4422 0.4422 -0.8969 1768.8777 938.2686)" fill="#4094D1" width="6.38" height="23.023"/>
			
				<rect x="989.63" y="263.132" transform="matrix(-0.897 -0.442 0.442 -0.897 1762.4546 945.9558)" fill="#F4F4F4" width="3.595" height="9.054"/>
			
				<rect x="988.031" y="270.131" transform="matrix(-0.8969 -0.4422 0.4422 -0.8969 1757.7705 951.8109)" fill="#8D9696" width="3.593" height="1.779"/>
			<g>
				
					<line fill="none" stroke="#2B7CBE" stroke-width="0.1026" stroke-miterlimit="10" x1="991.672" y1="264.049" x2="994.151" y2="265.271"/>
				
					<line fill="none" stroke="#2B7CBE" stroke-width="0.1026" stroke-miterlimit="10" x1="991.245" y1="264.917" x2="993.723" y2="266.141"/>
				
					<line fill="none" stroke="#2B7CBE" stroke-width="0.1026" stroke-miterlimit="10" x1="990.815" y1="265.785" x2="993.295" y2="267.008"/>
				
					<line fill="none" stroke="#2B7CBE" stroke-width="0.1026" stroke-miterlimit="10" x1="990.387" y1="266.652" x2="992.868" y2="267.875"/>
				
					<line fill="none" stroke="#2B7CBE" stroke-width="0.1026" stroke-miterlimit="10" x1="989.959" y1="267.52" x2="992.44" y2="268.742"/>
				
					<line fill="none" stroke="#2B7CBE" stroke-width="0.1026" stroke-miterlimit="10" x1="989.532" y1="268.389" x2="992.01" y2="269.611"/>
			</g>
			<g>
				<circle fill="#C2D7D7" cx="997.084" cy="256.169" r="1.503"/>
				<circle fill="#52595A" cx="997.104" cy="256.18" r="1.209"/>
			</g>
		</g>
		<g>
			
				<rect x="980.522" y="252.306" transform="matrix(-0.7724 -0.6352 0.6352 -0.7724 1575.9324 1092.4054)" fill="#4094D1" width="6.377" height="23.023"/>
			
				<rect x="978.541" y="263.326" transform="matrix(-0.7728 -0.6346 0.6346 -0.7728 1567.9922 1096.9958)" fill="#F4F4F4" width="3.596" height="9.057"/>
			
				<rect x="976.225" y="269.839" transform="matrix(-0.7723 -0.6353 0.6353 -0.7723 1561.3125 1101.1472)" fill="#8D9696" width="3.594" height="1.78"/>
			<g>
				
					<line fill="none" stroke="#2B7CBE" stroke-width="0.1026" stroke-miterlimit="10" x1="981.411" y1="264.361" x2="983.545" y2="266.117"/>
				
					<line fill="none" stroke="#2B7CBE" stroke-width="0.1026" stroke-miterlimit="10" x1="980.795" y1="265.109" x2="982.93" y2="266.865"/>
				
					<line fill="none" stroke="#2B7CBE" stroke-width="0.1026" stroke-miterlimit="10" x1="980.18" y1="265.857" x2="982.315" y2="267.613"/>
				
					<line fill="none" stroke="#2B7CBE" stroke-width="0.1026" stroke-miterlimit="10" x1="979.567" y1="266.604" x2="981.702" y2="268.359"/>
				
					<line fill="none" stroke="#2B7CBE" stroke-width="0.1026" stroke-miterlimit="10" x1="978.952" y1="267.352" x2="981.086" y2="269.107"/>
				
					<line fill="none" stroke="#2B7CBE" stroke-width="0.1026" stroke-miterlimit="10" x1="978.336" y1="268.1" x2="980.473" y2="269.855"/>
			</g>
			<g>
				<circle fill="#C2D7D7" cx="988.479" cy="257.924" r="1.503"/>
				<circle fill="#52595A" cx="988.497" cy="257.938" r="1.21"/>
			</g>
		</g>
		<g>
			<rect x="900.542" y="219.227" fill="#224F26" width="23.021" height="6.379"/>
			<rect x="902.276" y="220.619" fill="#F4F4F4" width="9.053" height="3.594"/>
			<rect x="902.17" y="220.619" fill="#8D9696" width="1.781" height="3.594"/>
			<g>
				
					<line fill="none" stroke="#2B7CBE" stroke-width="0.1026" stroke-miterlimit="10" x1="910.155" y1="223.809" x2="910.155" y2="221.043"/>
				
					<line fill="none" stroke="#2B7CBE" stroke-width="0.1026" stroke-miterlimit="10" x1="909.186" y1="223.809" x2="909.186" y2="221.043"/>
				
					<line fill="none" stroke="#2B7CBE" stroke-width="0.1026" stroke-miterlimit="10" x1="908.219" y1="223.809" x2="908.219" y2="221.043"/>
				
					<line fill="none" stroke="#2B7CBE" stroke-width="0.1026" stroke-miterlimit="10" x1="907.25" y1="223.809" x2="907.25" y2="221.043"/>
				
					<line fill="none" stroke="#2B7CBE" stroke-width="0.1026" stroke-miterlimit="10" x1="906.284" y1="223.809" x2="906.284" y2="221.043"/>
				
					<line fill="none" stroke="#2B7CBE" stroke-width="0.1026" stroke-miterlimit="10" x1="905.317" y1="223.809" x2="905.317" y2="221.043"/>
			</g>
			<g>
				<circle fill="#C2D7D7" cx="919.616" cy="222.438" r="1.503"/>
				<circle fill="#52595A" cx="919.616" cy="222.416" r="1.209"/>
			</g>
		</g>
		<g>
			<rect x="903.407" y="225.646" fill="#DC4A29" width="23.021" height="6.379"/>
			<rect x="915.639" y="227.039" fill="#F4F4F4" width="9.055" height="3.594"/>
			<rect x="923.018" y="227.039" fill="#8D9696" width="1.779" height="3.594"/>
			<g>
				
					<line fill="none" stroke="#2B7CBE" stroke-width="0.1026" stroke-miterlimit="10" x1="916.815" y1="230.229" x2="916.815" y2="227.463"/>
				
					<line fill="none" stroke="#2B7CBE" stroke-width="0.1026" stroke-miterlimit="10" x1="917.784" y1="230.229" x2="917.784" y2="227.463"/>
				
					<line fill="none" stroke="#2B7CBE" stroke-width="0.1026" stroke-miterlimit="10" x1="918.75" y1="230.229" x2="918.75" y2="227.463"/>
				
					<line fill="none" stroke="#2B7CBE" stroke-width="0.1026" stroke-miterlimit="10" x1="919.717" y1="230.229" x2="919.717" y2="227.463"/>
				
					<line fill="none" stroke="#2B7CBE" stroke-width="0.1026" stroke-miterlimit="10" x1="920.684" y1="230.229" x2="920.684" y2="227.463"/>
				
					<line fill="none" stroke="#2B7CBE" stroke-width="0.1026" stroke-miterlimit="10" x1="921.653" y1="230.229" x2="921.653" y2="227.463"/>
			</g>
			<g>
				<circle fill="#C2D7D7" cx="907.354" cy="228.858" r="1.503"/>
				<circle fill="#52595A" cx="907.354" cy="228.836" r="1.209"/>
			</g>
		</g>
		<g>
			<rect x="898.512" y="179.23" fill="#F7D21E" width="6.379" height="23.021"/>
			<rect x="899.905" y="191.464" fill="#F4F4F4" width="3.594" height="9.054"/>
			<rect x="899.905" y="198.842" fill="#8D9696" width="3.594" height="1.779"/>
			<g>
				
					<line fill="none" stroke="#2B7CBE" stroke-width="0.1026" stroke-miterlimit="10" x1="900.309" y1="192.639" x2="903.075" y2="192.639"/>
				
					<line fill="none" stroke="#2B7CBE" stroke-width="0.1026" stroke-miterlimit="10" x1="900.309" y1="193.605" x2="903.075" y2="193.605"/>
				
					<line fill="none" stroke="#2B7CBE" stroke-width="0.1026" stroke-miterlimit="10" x1="900.309" y1="194.574" x2="903.075" y2="194.574"/>
				
					<line fill="none" stroke="#2B7CBE" stroke-width="0.1026" stroke-miterlimit="10" x1="900.309" y1="195.541" x2="903.075" y2="195.541"/>
				
					<line fill="none" stroke="#2B7CBE" stroke-width="0.1026" stroke-miterlimit="10" x1="900.309" y1="196.51" x2="903.075" y2="196.51"/>
				
					<line fill="none" stroke="#2B7CBE" stroke-width="0.1026" stroke-miterlimit="10" x1="900.309" y1="197.477" x2="903.075" y2="197.477"/>
			</g>
			<g>
				<circle fill="#C2D7D7" cx="901.678" cy="183.178" r="1.503"/>
				<circle fill="#52595A" cx="901.702" cy="183.178" r="1.209"/>
			</g>
		</g>
		<g>
			<rect x="1000.467" y="179.23" fill="#F7D21E" width="6.377" height="23.021"/>
			<rect x="1001.86" y="191.464" fill="#F4F4F4" width="3.594" height="9.054"/>
			<rect x="1001.86" y="198.842" fill="#8D9696" width="3.594" height="1.779"/>
			<g>
				
					<line fill="none" stroke="#2B7CBE" stroke-width="0.1026" stroke-miterlimit="10" x1="1002.264" y1="192.639" x2="1005.03" y2="192.639"/>
				
					<line fill="none" stroke="#2B7CBE" stroke-width="0.1026" stroke-miterlimit="10" x1="1002.264" y1="193.605" x2="1005.03" y2="193.605"/>
				
					<line fill="none" stroke="#2B7CBE" stroke-width="0.1026" stroke-miterlimit="10" x1="1002.264" y1="194.574" x2="1005.03" y2="194.574"/>
				
					<line fill="none" stroke="#2B7CBE" stroke-width="0.1026" stroke-miterlimit="10" x1="1002.264" y1="195.541" x2="1005.03" y2="195.541"/>
				
					<line fill="none" stroke="#2B7CBE" stroke-width="0.1026" stroke-miterlimit="10" x1="1002.264" y1="196.51" x2="1005.03" y2="196.51"/>
				
					<line fill="none" stroke="#2B7CBE" stroke-width="0.1026" stroke-miterlimit="10" x1="1002.264" y1="197.477" x2="1005.03" y2="197.477"/>
			</g>
			<g>
				<circle fill="#C2D7D7" cx="1003.633" cy="183.178" r="1.503"/>
				<circle fill="#52595A" cx="1003.657" cy="183.178" r="1.209"/>
			</g>
		</g>
		<g>
			
				<rect x="906.676" y="178.826" transform="matrix(-0.9884 0.1519 -0.1519 -0.9884 1838.0842 240.2827)" fill="#4094D1" width="6.379" height="23.022"/>
			
				<rect x="908.866" y="190.999" transform="matrix(-0.9884 0.1519 -0.1519 -0.9884 1840.4586 250.4781)" fill="#F4F4F4" width="3.594" height="9.054"/>
			
				<rect x="909.458" y="198.4" transform="matrix(-0.9884 0.1521 -0.1521 -0.9884 1842.2198 257.7006)" fill="#8D9696" width="3.597" height="1.781"/>
			<g>
				
					<line fill="none" stroke="#2B7CBE" stroke-width="0.1026" stroke-miterlimit="10" x1="908.772" y1="192.449" x2="911.504" y2="192.027"/>
				
					<line fill="none" stroke="#2B7CBE" stroke-width="0.1026" stroke-miterlimit="10" x1="908.918" y1="193.404" x2="911.653" y2="192.984"/>
				
					<line fill="none" stroke="#2B7CBE" stroke-width="0.1026" stroke-miterlimit="10" x1="909.067" y1="194.361" x2="911.799" y2="193.941"/>
				
					<line fill="none" stroke="#2B7CBE" stroke-width="0.1026" stroke-miterlimit="10" x1="909.213" y1="195.316" x2="911.946" y2="194.896"/>
				
					<line fill="none" stroke="#2B7CBE" stroke-width="0.1026" stroke-miterlimit="10" x1="909.362" y1="196.273" x2="912.092" y2="195.854"/>
				
					<line fill="none" stroke="#2B7CBE" stroke-width="0.1026" stroke-miterlimit="10" x1="909.508" y1="197.23" x2="912.241" y2="196.811"/>
			</g>
			<g>
				<circle fill="#C2D7D7" cx="908.688" cy="182.889" r="1.503"/>
				<circle fill="#52595A" cx="908.709" cy="182.886" r="1.209"/>
			</g>
		</g>
		<g>
			
				<rect x="916.169" y="178.893" transform="matrix(-0.9106 0.4132 -0.4132 -0.9106 1835.2339 -16.1001)" fill="#224F26" width="6.379" height="23.022"/>
			
				<rect x="919.673" y="190.643" transform="matrix(-0.9104 0.4136 -0.4136 -0.9104 1841.1421 -8.297)" fill="#F4F4F4" width="3.593" height="9.053"/>
			
				<rect x="921.267" y="197.695" transform="matrix(-0.9105 0.4134 -0.4134 -0.9105 1845.6482 -2.2256)" fill="#8D9696" width="3.595" height="1.778"/>
			<g>
				
					<line fill="none" stroke="#2B7CBE" stroke-width="0.1026" stroke-miterlimit="10" x1="918.86" y1="192.664" x2="921.377" y2="191.521"/>
				
					<line fill="none" stroke="#2B7CBE" stroke-width="0.1026" stroke-miterlimit="10" x1="919.26" y1="193.546" x2="921.778" y2="192.402"/>
				
					<line fill="none" stroke="#2B7CBE" stroke-width="0.1026" stroke-miterlimit="10" x1="919.661" y1="194.427" x2="922.178" y2="193.283"/>
				
					<line fill="none" stroke="#2B7CBE" stroke-width="0.1026" stroke-miterlimit="10" x1="920.059" y1="195.309" x2="922.579" y2="194.164"/>
				
					<line fill="none" stroke="#2B7CBE" stroke-width="0.1026" stroke-miterlimit="10" x1="920.461" y1="196.188" x2="922.977" y2="195.045"/>
				
					<line fill="none" stroke="#2B7CBE" stroke-width="0.1026" stroke-miterlimit="10" x1="920.862" y1="197.068" x2="923.377" y2="195.926"/>
			</g>
			<g>
				<circle fill="#C2D7D7" cx="916.196" cy="183.483" r="1.503"/>
				<circle fill="#52595A" cx="916.215" cy="183.476" r="1.21"/>
			</g>
		</g>
		<g>
			<rect x="927.008" y="179.23" fill="#DC4A29" width="6.377" height="23.021"/>
			<rect x="928.399" y="191.464" fill="#F4F4F4" width="3.596" height="9.054"/>
			<rect x="928.399" y="198.842" fill="#8D9696" width="3.596" height="1.779"/>
			<g>
				
					<line fill="none" stroke="#2B7CBE" stroke-width="0.1026" stroke-miterlimit="10" x1="928.805" y1="192.639" x2="931.569" y2="192.639"/>
				
					<line fill="none" stroke="#2B7CBE" stroke-width="0.1026" stroke-miterlimit="10" x1="928.805" y1="193.605" x2="931.569" y2="193.605"/>
				
					<line fill="none" stroke="#2B7CBE" stroke-width="0.1026" stroke-miterlimit="10" x1="928.805" y1="194.574" x2="931.569" y2="194.574"/>
				
					<line fill="none" stroke="#2B7CBE" stroke-width="0.1026" stroke-miterlimit="10" x1="928.805" y1="195.541" x2="931.569" y2="195.541"/>
				
					<line fill="none" stroke="#2B7CBE" stroke-width="0.1026" stroke-miterlimit="10" x1="928.805" y1="196.51" x2="931.569" y2="196.51"/>
				
					<line fill="none" stroke="#2B7CBE" stroke-width="0.1026" stroke-miterlimit="10" x1="928.805" y1="197.477" x2="931.569" y2="197.477"/>
			</g>
			<g>
				<circle fill="#C2D7D7" cx="930.174" cy="183.178" r="1.503"/>
				<circle fill="#52595A" cx="930.198" cy="183.178" r="1.21"/>
			</g>
		</g>
		<g>
			<rect x="991.864" y="179.23" fill="#DC4A29" width="6.377" height="23.021"/>
			<rect x="993.254" y="191.464" fill="#F4F4F4" width="3.594" height="9.054"/>
			<rect x="993.254" y="198.842" fill="#8D9696" width="3.594" height="1.779"/>
			<g>
				
					<line fill="none" stroke="#2B7CBE" stroke-width="0.1026" stroke-miterlimit="10" x1="993.659" y1="192.639" x2="996.424" y2="192.639"/>
				
					<line fill="none" stroke="#2B7CBE" stroke-width="0.1026" stroke-miterlimit="10" x1="993.659" y1="193.605" x2="996.424" y2="193.605"/>
				
					<line fill="none" stroke="#2B7CBE" stroke-width="0.1026" stroke-miterlimit="10" x1="993.659" y1="194.574" x2="996.424" y2="194.574"/>
				
					<line fill="none" stroke="#2B7CBE" stroke-width="0.1026" stroke-miterlimit="10" x1="993.659" y1="195.541" x2="996.424" y2="195.541"/>
				
					<line fill="none" stroke="#2B7CBE" stroke-width="0.1026" stroke-miterlimit="10" x1="993.659" y1="196.51" x2="996.424" y2="196.51"/>
				
					<line fill="none" stroke="#2B7CBE" stroke-width="0.1026" stroke-miterlimit="10" x1="993.659" y1="197.477" x2="996.424" y2="197.477"/>
			</g>
			<g>
				<circle fill="#C2D7D7" cx="995.03" cy="183.178" r="1.503"/>
				<circle fill="#52595A" cx="995.051" cy="183.178" r="1.209"/>
			</g>
		</g>
	</g>
	<g>
		<circle fill="#303030" cx="779.92" cy="146.094" r="17.988"/>
		<circle fill="#FFFFFF" cx="779.813" cy="146.094" r="15.639"/>
		<circle fill="#303030" cx="779.92" cy="146.094" r="1.387"/>
		<rect x="779.274" y="137.252" fill="#303030" width="1.158" height="8.842"/>
		
			<rect x="777.945" y="145.99" transform="matrix(-0.963 -0.2696 0.2696 -0.963 1486.755 508.3537)" fill="#303030" width="0.677" height="12.196"/>
	</g>
	<rect x="544.895" y="236.963" fill="#BAA665" width="80.074" height="78.672"/>
	<rect x="541.641" y="233.822" fill="#BAA665" width="86.582" height="3.141"/>
	<rect x="544.895" y="236.963" fill="#9B8A57" width="80.074" height="3.141"/>
	<g>
		<rect x="583.678" y="225.584" fill="#FFFFFF" width="25.949" height="6.924"/>
		<path fill="#0D6CB3" d="M584.336,227.18c0.004-0.037,0.014-0.072,0.02-0.106h-4.217v6.75h31.295v-2.861l-25.074-1.504
			C585.17,229.387,584.266,228.367,584.336,227.18z"/>
	</g>
	<path fill="#FFFFFF" d="M620.04,233.166c0,0.361-0.295,0.656-0.658,0.656h-19.504c-0.365,0-0.658-0.295-0.658-0.656l0,0
		c0-0.363,0.293-0.658,0.658-0.658h19.504C619.745,232.508,620.04,232.803,620.04,233.166L620.04,233.166z"/>
	<g>
		<g>
			<path fill="#FFFFFF" d="M567.37,193.621c-1.418,0.096-2.488,1.322-2.395,2.74l1.986,29.443c0.098,1.418,1.322,2.487,2.74,2.393
				l0.568-0.037l-2.332-34.576L567.37,193.621z"/>
			
				<rect x="569.125" y="193.523" transform="matrix(-0.9975 0.0712 -0.0712 -0.9975 1152.2368 380.6041)" fill="#272626" width="0.411" height="34.656"/>
		</g>
		<path fill="none" stroke="#FFFFFF" stroke-width="0.6154" stroke-miterlimit="10" d="M566.959,211.682l-8.041,15.627h-0.002
			c-0.078,0.144-0.15,0.291-0.213,0.444c-0.199,0.487-0.312,1.022-0.312,1.584c0,2.308,1.871,4.179,4.182,4.179h9.77"/>
	</g>
	<g>
		<rect x="709.198" y="236.963" fill="#BAA665" width="80.076" height="78.672"/>
		<rect x="705.946" y="233.822" fill="#BAA665" width="86.58" height="3.141"/>
		<rect x="709.198" y="236.963" fill="#9B8A57" width="80.076" height="3.141"/>
		<g>
			<rect x="747.983" y="225.584" fill="#FFFFFF" width="25.947" height="6.924"/>
			<path fill="#0D6CB3" d="M748.641,227.18c0.002-0.037,0.014-0.072,0.018-0.106h-4.215v6.75h31.295v-2.861l-25.076-1.504
				C749.475,229.387,748.571,228.367,748.641,227.18z"/>
		</g>
		<path fill="#FFFFFF" d="M784.342,233.166c0,0.361-0.295,0.656-0.658,0.656H764.18c-0.363,0-0.658-0.295-0.658-0.656l0,0
			c0-0.363,0.295-0.658,0.658-0.658h19.504C784.047,232.508,784.342,232.803,784.342,233.166L784.342,233.166z"/>
		<g>
			<g>
				<path fill="#FFFFFF" d="M731.672,193.621c-1.416,0.096-2.488,1.322-2.393,2.74l1.984,29.443
					c0.098,1.418,1.322,2.487,2.738,2.393l0.57-0.037l-2.334-34.576L731.672,193.621z"/>
				
					<rect x="733.433" y="193.52" transform="matrix(-0.9975 0.0709 -0.0709 -0.9975 1480.3829 369.1414)" fill="#272626" width="0.413" height="34.656"/>
			</g>
			<path fill="none" stroke="#FFFFFF" stroke-width="0.6154" stroke-miterlimit="10" d="M731.264,211.682l-8.041,15.627h-0.002
				c-0.08,0.144-0.15,0.291-0.215,0.444c-0.199,0.487-0.309,1.022-0.309,1.584c0,2.308,1.871,4.179,4.178,4.179h9.773"/>
		</g>
	</g>
	<g opacity="0.9">
		<polygon fill="none" points="691.032,300.162 690.846,299.977 690.792,300.402 		"/>
		
			<rect x="683.05" y="298.678" transform="matrix(-0.7068 -0.7074 0.7074 -0.7068 955.993 996.5577)" fill="#869392" width="2.954" height="2.955"/>
		
			<rect x="680.807" y="300.897" transform="matrix(-0.7069 -0.7073 0.7073 -0.7069 950.758 998.699)" fill="#869392" width="2.956" height="2.958"/>
		<polygon fill="#869392" points="675.704,302.484 674.1,304.088 674.245,305.205 675.704,306.664 677.793,304.574 		"/>
		<polygon fill="#869392" points="674.547,290.172 672.45,290.172 673.499,291.221 		"/>
		<polygon fill="#869392" points="682.208,313.398 680.118,311.309 678.026,313.4 679.76,315.133 680.473,315.133 		"/>
		<polygon fill="#869392" points="672.319,290.273 672.561,292.156 673.381,291.337 		"/>
		
			<rect x="676.46" y="300.873" transform="matrix(-0.7068 -0.7074 0.7074 -0.7068 943.1949 995.6424)" fill="#869392" width="2.957" height="2.955"/>
		
			<rect x="678.636" y="298.677" transform="matrix(-0.7071 -0.7071 0.7071 -0.7071 948.7857 993.3085)" fill="#869392" width="2.955" height="2.955"/>
		
			<rect x="680.839" y="309.719" transform="matrix(-0.7069 0.7073 -0.7073 -0.7069 1384.7737 48.6108)" fill="#869392" width="2.953" height="2.955"/>
		<polygon fill="#869392" points="675.704,306.896 674.604,307.998 674.897,310.27 675.704,311.078 677.793,308.986 		"/>
		
			<rect x="680.843" y="296.47" transform="matrix(-0.7073 -0.7069 0.7069 -0.7073 954.2755 991.0388)" fill="#869392" width="2.955" height="2.955"/>
		<polygon fill="#869392" points="684.885,315.133 686.62,313.398 684.53,311.309 682.44,313.398 684.172,315.133 684.709,315.133 
					"/>
		
			<rect x="678.647" y="307.546" transform="matrix(-0.7071 0.7071 -0.7071 -0.7071 1379.5594 46.6195)" fill="#869392" width="2.955" height="2.959"/>
		
			<rect x="676.425" y="305.305" transform="matrix(-0.7071 0.7071 -0.7071 -0.7071 1374.1809 44.362)" fill="#869392" width="2.955" height="2.955"/>
		<polygon fill="#869392" points="686.852,313.398 688.584,315.133 688.893,315.133 689.334,311.703 688.942,311.309 		"/>
		
			<rect x="685.251" y="309.719" transform="matrix(-0.7069 0.7073 -0.7073 -0.7069 1392.3049 45.4902)" fill="#869392" width="2.953" height="2.955"/>
		<polygon fill="#869392" points="688.942,306.896 686.852,308.986 688.942,311.078 689.487,310.533 689.838,307.794 		"/>
		<polygon fill="#869392" points="685.118,315.133 688.352,315.133 686.735,313.516 		"/>
		
			<rect x="683.044" y="307.513" transform="matrix(-0.7071 0.7071 -0.7071 -0.7071 1387.0415 43.45)" fill="#869392" width="2.955" height="2.956"/>
		
			<rect x="680.838" y="305.306" transform="matrix(-0.7073 0.7069 -0.7069 -0.7073 1381.7749 41.4056)" fill="#869392" width="2.955" height="2.955"/>
		<polygon fill="#869392" points="689.362,311.497 689.452,310.8 689.057,311.193 		"/>
		
			<rect x="685.224" y="292.07" transform="matrix(-0.7074 -0.7068 0.7068 -0.7074 965.0284 986.5605)" fill="#869392" width="2.957" height="2.956"/>
		
			<rect x="687.458" y="294.239" transform="matrix(0.7068 -0.7074 0.7074 0.7068 -7.1884 574.0898)" fill="#869392" width="2.957" height="2.955"/>
		<polygon fill="#869392" points="690.874,299.771 691.35,296.068 691.149,295.865 689.057,297.955 		"/>
		
			<rect x="678.646" y="303.134" transform="matrix(-0.7071 0.7071 -0.7071 -0.7071 1376.4365 39.085)" fill="#869392" width="2.955" height="2.956"/>
		
			<rect x="683.014" y="294.279" transform="matrix(-0.7069 -0.7073 0.7073 -0.7069 959.2064 988.9623)" fill="#869392" width="2.956" height="2.957"/>
		<polygon fill="#869392" points="691.149,295.633 691.446,295.336 691.854,292.159 691.149,291.453 689.057,293.543 		"/>
		<polygon fill="#869392" points="687.786,290.172 685.686,290.172 686.735,291.221 		"/>
		<polygon fill="#869392" points="682.208,291.337 681.042,290.172 679.706,290.172 679.192,290.172 678.026,291.337 
			680.118,293.427 		"/>
		<polygon fill="#869392" points="683.374,290.172 681.274,290.172 682.323,291.221 		"/>
		<polygon fill="#869392" points="673.625,300.404 674.073,303.883 675.588,302.368 		"/>
		<polygon fill="#869392" points="691.881,291.953 692.065,290.537 691.264,291.337 		"/>
		<polygon fill="#869392" points="692.098,290.271 692.112,290.172 690.098,290.172 691.149,291.221 		"/>
		
			<rect x="676.469" y="309.71" transform="matrix(0.7068 0.7074 -0.7074 0.7068 418.9355 -388.358)" fill="#869392" width="2.957" height="2.955"/>
		
			<rect x="683.058" y="303.134" transform="matrix(-0.7074 0.7068 -0.7068 -0.7074 1384.0959 36.2919)" fill="#869392" width="2.957" height="2.957"/>
		
			<rect x="685.261" y="305.31" transform="matrix(0.7071 0.7071 -0.7071 0.7071 418.0731 -395.7415)" fill="#869392" width="2.955" height="2.957"/>
		
			<rect x="676.431" y="292.058" transform="matrix(-0.7073 -0.7069 0.7069 -0.7073 949.8619 980.387)" fill="#869392" width="2.955" height="2.955"/>
		
			<rect x="685.254" y="300.884" transform="matrix(-0.7071 -0.7071 0.7071 -0.7071 958.5239 1001.7582)" fill="#869392" width="2.958" height="2.957"/>
		<polygon fill="#869392" points="675.588,297.955 673.499,295.865 673.092,296.271 673.569,299.975 		"/>
		
			<rect x="674.223" y="294.265" transform="matrix(-0.7068 -0.7074 0.7074 -0.7068 944.052 982.7838)" fill="#869392" width="2.957" height="2.955"/>
		<polygon fill="#869392" points="678.959,290.172 676.862,290.172 677.911,291.221 		"/>
		
			<rect x="676.431" y="296.47" transform="matrix(-0.7073 -0.7069 0.7069 -0.7073 946.7429 987.9197)" fill="#869392" width="2.955" height="2.955"/>
		
			<rect x="678.636" y="294.265" transform="matrix(-0.7069 -0.7073 0.7073 -0.7069 951.7436 985.8417)" fill="#869392" width="2.956" height="2.956"/>
		
			<rect x="674.257" y="298.663" transform="matrix(-0.7074 -0.7068 0.7068 -0.7074 941.644 990.0654)" fill="#869392" width="2.957" height="2.955"/>
		<polygon fill="#869392" points="672.971,295.34 673.065,296.066 673.381,295.75 		"/>
		<polygon fill="#869392" points="674.278,305.471 674.579,307.791 675.588,306.781 		"/>
		<polygon fill="#869392" points="688.942,302.484 686.852,304.574 688.942,306.664 690.139,305.469 690.342,303.885 		"/>
		
			<rect x="680.844" y="292.059" transform="matrix(-0.7069 -0.7073 0.7073 -0.7069 957.072 983.6346)" fill="#869392" width="2.953" height="2.954"/>
		<polygon fill="#869392" points="686.852,291.337 688.942,293.427 691.032,291.337 689.868,290.172 688.018,290.172 		"/>
		<polygon fill="#869392" points="686.62,291.337 685.454,290.172 684.709,290.172 683.604,290.172 682.44,291.337 684.53,293.427 
					"/>
		<polygon fill="#869392" points="680.706,315.133 683.94,315.133 682.323,313.516 		"/>
		<polygon fill="#869392" points="676.293,315.133 679.528,315.133 677.911,313.516 		"/>
		<polygon fill="#869392" points="674.93,310.537 675.081,311.699 675.588,311.193 		"/>
		<polygon fill="#869392" points="675.704,311.309 675.108,311.906 675.524,315.133 676.061,315.133 677.793,313.4 		"/>
		<polygon fill="#869392" points="677.793,291.337 676.629,290.172 674.78,290.172 673.614,291.337 675.704,293.427 		"/>
		<polygon fill="#869392" points="689.866,307.588 690.104,305.734 689.057,306.781 		"/>
		<polygon fill="#869392" points="688.942,302.252 690.792,300.402 690.846,299.977 688.942,298.072 686.852,300.162 		"/>
		<polygon fill="#869392" points="691.377,295.861 691.411,295.604 691.264,295.748 		"/>
		<polygon fill="#869392" points="690.37,303.68 690.756,300.67 689.059,302.369 		"/>
		<polygon fill="#869392" points="673.499,295.633 675.588,293.543 673.499,291.453 672.588,292.363 672.938,295.073 		"/>
		
			<rect x="685.256" y="296.47" transform="matrix(-0.7068 -0.7074 0.7074 -0.7068 961.3203 994.3497)" fill="#869392" width="2.954" height="2.954"/>
		<polygon fill="#EAF1F4" points="691.032,291.337 691.149,291.221 690.098,290.172 689.868,290.172 		"/>
		<polygon fill="#EAF1F4" points="691.149,291.453 691.854,292.159 691.881,291.953 691.264,291.337 		"/>
		<polygon fill="#EAF1F4" points="691.149,295.865 691.35,296.068 691.377,295.861 691.264,295.748 		"/>
		
			<rect x="689.956" y="293.152" transform="matrix(0.713 -0.7011 0.7011 0.713 -8.5517 568.3652)" fill="#EAF1F4" width="0.164" height="2.955"/>
		
			<rect x="687.764" y="290.979" transform="matrix(0.7041 -0.7101 0.7101 0.7041 -4.147 574.9617)" fill="#EAF1F4" width="0.164" height="2.956"/>
		<polygon fill="#EAF1F4" points="685.686,290.172 685.454,290.172 686.62,291.337 686.735,291.221 		"/>
		
			<rect x="684.152" y="294.557" transform="matrix(-0.7073 -0.7069 0.7069 -0.7073 962.2629 987.7299)" fill="#EAF1F4" width="2.955" height="0.165"/>
		<polygon fill="#EAF1F4" points="681.274,290.172 681.042,290.172 682.208,291.337 682.323,291.221 		"/>
		
			<rect x="681.981" y="292.337" transform="matrix(-0.7073 -0.7069 0.7069 -0.7073 960.1265 982.4039)" fill="#EAF1F4" width="2.955" height="0.164"/>
		
			<rect x="687.786" y="295.354" transform="matrix(0.716 -0.6981 0.6981 0.716 -11.8635 564.5005)" fill="#EAF1F4" width="0.164" height="2.954"/>
		<polygon fill="#EAF1F4" points="690.846,299.977 690.874,299.771 689.057,297.955 688.942,298.072 		"/>
		
			<rect x="677.569" y="292.337" transform="matrix(-0.7071 -0.7071 0.7071 -0.7071 952.4333 979.3486)" fill="#EAF1F4" width="2.955" height="0.163"/>
		
			<rect x="684.153" y="298.97" transform="matrix(-0.7073 -0.7069 0.7069 -0.7073 959.1454 995.2633)" fill="#EAF1F4" width="2.955" height="0.164"/>
		
			<rect x="687.793" y="299.783" transform="matrix(0.7011 -0.713 0.713 0.7011 -9.2275 580.5063)" fill="#EAF1F4" width="0.164" height="2.956"/>
		<polygon fill="#EAF1F4" points="676.862,290.172 676.629,290.172 677.793,291.337 677.911,291.221 		"/>
		
			<rect x="681.981" y="296.75" transform="matrix(-0.7071 -0.7071 0.7071 -0.7071 956.845 990.0013)" fill="#EAF1F4" width="2.955" height="0.164"/>
		<polygon fill="#EAF1F4" points="688.942,302.484 690.342,303.885 690.37,303.68 689.059,302.369 		"/>
		
			<rect x="679.74" y="294.557" transform="matrix(-0.7068 -0.7074 0.7074 -0.7068 954.2466 984.8016)" fill="#EAF1F4" width="2.954" height="0.164"/>
		
			<rect x="679.768" y="298.958" transform="matrix(-0.7068 -0.7074 0.7074 -0.7068 951.1833 992.3344)" fill="#EAF1F4" width="2.957" height="0.165"/>
		
			<rect x="677.569" y="296.751" transform="matrix(-0.7071 -0.7071 0.7071 -0.7071 949.3127 986.8823)" fill="#EAF1F4" width="2.955" height="0.163"/>
		
			<rect x="675.328" y="294.556" transform="matrix(-0.7068 -0.7074 0.7074 -0.7068 946.7165 981.6794)" fill="#EAF1F4" width="2.954" height="0.164"/>
		
			<rect x="673.121" y="292.351" transform="matrix(-0.7068 -0.7074 0.7074 -0.7068 944.5103 976.3528)" fill="#EAF1F4" width="2.954" height="0.163"/>
		<polygon fill="#EAF1F4" points="688.942,306.896 689.838,307.794 689.866,307.588 689.057,306.781 		"/>
		
			<rect x="684.116" y="303.396" transform="matrix(-0.7068 -0.7074 0.7074 -0.7068 955.4642 1002.9847)" fill="#EAF1F4" width="2.957" height="0.164"/>
		
			<rect x="681.981" y="301.162" transform="matrix(-0.7071 -0.7071 0.7071 -0.7071 953.7252 997.5332)" fill="#EAF1F4" width="2.955" height="0.164"/>
		<polygon fill="#EAF1F4" points="673.499,291.221 672.45,290.172 672.305,290.172 672.319,290.273 673.381,291.337 		"/>
		
			<rect x="686.393" y="305.591" transform="matrix(0.7074 0.7068 -0.7068 0.7074 417.2878 -396.743)" fill="#EAF1F4" width="2.957" height="0.164"/>
		
			<rect x="677.569" y="301.163" transform="matrix(-0.7071 -0.7071 0.7071 -0.7071 946.1929 994.4142)" fill="#EAF1F4" width="2.955" height="0.163"/>
		
			<rect x="675.356" y="298.958" transform="matrix(-0.7068 -0.7074 0.7074 -0.7068 943.6521 989.2147)" fill="#EAF1F4" width="2.957" height="0.166"/>
		
			<rect x="683.327" y="304.158" transform="matrix(-0.7011 0.713 -0.713 -0.7011 1380.4994 32.6427)" fill="#EAF1F4" width="0.164" height="2.956"/>
		
			<rect x="679.739" y="303.383" transform="matrix(-0.7073 -0.7069 0.7069 -0.7073 948.4893 999.678)" fill="#EAF1F4" width="2.955" height="0.164"/>
		<polygon fill="#EAF1F4" points="673.499,295.633 672.938,295.073 672.971,295.34 673.381,295.75 		"/>
		
			<rect x="685.543" y="306.39" transform="matrix(-0.7011 0.713 -0.713 -0.7011 1385.8623 34.8597)" fill="#EAF1F4" width="0.164" height="2.956"/>
		<polygon fill="#EAF1F4" points="688.942,311.309 689.334,311.703 689.362,311.497 689.057,311.193 		"/>
		
			<rect x="686.364" y="310.015" transform="matrix(0.7073 0.7069 -0.7069 0.7073 420.571 -395.4895)" fill="#EAF1F4" width="2.955" height="0.164"/>
		
			<rect x="673.121" y="296.764" transform="matrix(-0.7069 -0.7073 0.7073 -0.7069 941.5491 983.8218)" fill="#EAF1F4" width="2.953" height="0.163"/>
		
			<rect x="678.897" y="304.205" transform="matrix(-0.695 0.719 -0.719 -0.695 1370.665 29.9615)" fill="#EAF1F4" width="0.163" height="2.956"/>
		
			<rect x="685.543" y="310.82" transform="matrix(-0.7071 0.7071 -0.7071 -0.7071 1391.2625 48.3169)" fill="#EAF1F4" width="0.163" height="2.956"/>
		
			<rect x="675.292" y="303.396" transform="matrix(-0.7071 -0.7071 0.7071 -0.7071 940.727 996.6189)" fill="#EAF1F4" width="2.955" height="0.166"/>
		<polygon fill="#EAF1F4" points="686.735,313.516 688.352,315.133 688.584,315.133 686.852,313.398 		"/>
		
			<rect x="681.145" y="306.423" transform="matrix(-0.7071 0.7071 -0.7071 -0.7071 1380.6448 43.921)" fill="#EAF1F4" width="0.163" height="2.957"/>
		
			<rect x="683.36" y="308.655" transform="matrix(-0.7101 0.7041 -0.7041 -0.7101 1387.105 49.1038)" fill="#EAF1F4" width="0.165" height="2.954"/>
		<polygon fill="#EAF1F4" points="675.588,302.368 675.704,302.252 673.614,300.162 673.596,300.18 673.625,300.404 		"/>
		
			<rect x="681.145" y="310.835" transform="matrix(-0.7071 0.7071 -0.7071 -0.7071 1383.7646 51.4529)" fill="#EAF1F4" width="0.163" height="2.957"/>
		
			<rect x="678.895" y="308.616" transform="matrix(-0.7041 0.7101 -0.7101 -0.7041 1377.2489 46.3053)" fill="#EAF1F4" width="0.164" height="2.955"/>
		
			<rect x="676.697" y="306.427" transform="matrix(-0.713 0.7011 -0.7011 -0.713 1375.2224 52.9314)" fill="#EAF1F4" width="0.164" height="2.956"/>
		<polygon fill="#EAF1F4" points="675.704,306.664 674.245,305.205 674.278,305.471 675.588,306.781 		"/>
		<polygon fill="#EAF1F4" points="682.44,313.398 682.323,313.516 683.94,315.133 684.172,315.133 		"/>
		<polygon fill="#EAF1F4" points="679.76,315.133 678.026,313.4 677.911,313.516 679.528,315.133 679.706,315.133 		"/>
		
			<rect x="676.696" y="310.839" transform="matrix(-0.716 0.6981 -0.6981 -0.716 1379.3796 63.478)" fill="#EAF1F4" width="0.164" height="2.958"/>
		<polygon fill="#EAF1F4" points="675.704,311.078 674.897,310.27 674.93,310.537 675.588,311.193 		"/>
		<polygon fill="#EAF1F4" points="673.614,291.337 674.78,290.172 674.547,290.172 673.499,291.221 		"/>
		<polygon fill="#EAF1F4" points="673.499,291.453 673.381,291.337 672.561,292.156 672.588,292.363 		"/>
		
			<rect x="673.432" y="291.295" transform="matrix(-0.7101 0.7041 -0.7041 -0.7101 1356.9202 24.023)" fill="#EAF1F4" width="0.165" height="0.166"/>
		
			<rect x="676.722" y="290.955" transform="matrix(-0.7041 -0.7101 0.7101 -0.7041 945.7015 978.928)" fill="#EAF1F4" width="0.164" height="2.955"/>
		<polygon fill="#EAF1F4" points="678.026,291.337 679.192,290.172 678.959,290.172 677.911,291.221 		"/>
		
			<rect x="674.503" y="293.174" transform="matrix(-0.7011 -0.713 0.713 -0.7011 937.4709 982.2386)" fill="#EAF1F4" width="0.164" height="2.954"/>
		<polygon fill="#EAF1F4" points="673.499,295.865 673.381,295.75 673.065,296.066 673.092,296.271 		"/>
		
			<rect x="677.812" y="291.261" transform="matrix(-0.7011 -0.713 0.713 -0.7011 945.4584 978.9693)" fill="#EAF1F4" width="0.164" height="0.164"/>
		
			<rect x="675.663" y="293.444" transform="matrix(-0.7101 -0.7041 0.7041 -0.7101 948.881 977.7675)" fill="#EAF1F4" width="0.165" height="0.164"/>
		
			<rect x="673.424" y="295.664" transform="matrix(0.7071 -0.7071 0.7071 0.7071 -11.8589 562.8622)" fill="#EAF1F4" width="0.163" height="0.164"/>
		
			<rect x="678.929" y="293.161" transform="matrix(-0.7041 -0.7101 0.7101 -0.7041 947.8961 984.2546)" fill="#EAF1F4" width="0.164" height="2.955"/>
		
			<rect x="681.135" y="290.955" transform="matrix(-0.7101 -0.7041 0.7041 -0.7101 959.0074 979.7516)" fill="#EAF1F4" width="0.165" height="2.955"/>
		
			<rect x="676.741" y="295.367" transform="matrix(-0.713 -0.7011 0.7011 -0.713 951.2833 983.0504)" fill="#EAF1F4" width="0.164" height="2.956"/>
		<polygon fill="#EAF1F4" points="682.44,291.337 683.604,290.172 683.374,290.172 682.323,291.221 		"/>
		<polygon fill="#EAF1F4" points="673.614,300.162 675.704,298.072 675.588,297.955 673.569,299.975 673.59,300.139 		"/>
		
			<rect x="682.239" y="291.249" transform="matrix(-0.7071 -0.7071 0.7071 -0.7071 958.7927 979.806)" fill="#EAF1F4" width="0.163" height="0.164"/>
		
			<rect x="680.031" y="293.454" transform="matrix(-0.7071 -0.7071 0.7071 -0.7071 953.4655 982.0106)" fill="#EAF1F4" width="0.166" height="0.164"/>
		
			<rect x="677.808" y="295.639" transform="matrix(-0.7041 -0.7101 0.7101 -0.7041 945.2169 985.3032)" fill="#EAF1F4" width="0.164" height="0.165"/>
		
			<rect x="675.618" y="297.839" transform="matrix(-0.713 -0.7011 0.7011 -0.713 948.606 984.104)" fill="#EAF1F4" width="0.164" height="0.162"/>
		<polygon fill="#EAF1F4" points="673.59,300.139 673.596,300.18 673.614,300.162 		"/>
		
			<rect x="683.386" y="293.151" transform="matrix(-0.713 -0.7011 0.7011 -0.713 964.2215 983.9124)" fill="#EAF1F4" width="0.164" height="2.955"/>
		
			<rect x="685.534" y="290.968" transform="matrix(-0.7041 -0.7101 0.7101 -0.7041 960.708 985.2074)" fill="#EAF1F4" width="0.164" height="2.956"/>
		
			<rect x="681.136" y="295.366" transform="matrix(-0.7071 -0.7071 0.7071 -0.7071 953.0098 988.439)" fill="#EAF1F4" width="0.163" height="2.957"/>
		<polygon fill="#EAF1F4" points="686.852,291.337 688.018,290.172 687.786,290.172 686.735,291.221 		"/>
		
			<rect x="678.889" y="297.597" transform="matrix(-0.7071 -0.7071 0.7071 -0.7071 947.5999 990.6591)" fill="#EAF1F4" width="0.166" height="2.957"/>
		
			<rect x="676.741" y="299.779" transform="matrix(-0.713 -0.7011 0.7011 -0.713 948.1895 990.6093)" fill="#EAF1F4" width="0.164" height="2.957"/>
		<polygon fill="#EAF1F4" points="675.704,302.484 675.588,302.368 674.073,303.883 674.1,304.088 		"/>
		
			<rect x="686.695" y="291.237" transform="matrix(-0.713 -0.7011 0.7011 -0.713 972.2094 980.5637)" fill="#EAF1F4" width="0.164" height="0.164"/>
		
			<rect x="684.431" y="293.466" transform="matrix(-0.7041 -0.7101 0.7101 -0.7041 958.0459 986.3042)" fill="#EAF1F4" width="0.164" height="0.166"/>
		
			<rect x="682.199" y="295.684" transform="matrix(-0.7071 -0.7071 0.7071 -0.7071 955.5892 987.3512)" fill="#EAF1F4" width="0.166" height="0.164"/>
		
			<rect x="680.052" y="297.866" transform="matrix(-0.7071 -0.7071 0.7071 -0.7071 950.3789 989.5563)" fill="#EAF1F4" width="0.163" height="0.164"/>
		
			<rect x="677.826" y="300.073" transform="matrix(-0.7071 -0.7071 0.7071 -0.7071 945.0187 991.751)" fill="#EAF1F4" width="0.163" height="0.165"/>
		
			<rect x="675.663" y="302.269" transform="matrix(-0.7071 -0.7071 0.7071 -0.7071 939.7758 993.969)" fill="#EAF1F4" width="0.166" height="0.163"/>
		
			<rect x="678.948" y="301.987" transform="matrix(-0.7101 -0.7041 0.7041 -0.7101 947.5004 997.0769)" fill="#EAF1F4" width="0.165" height="2.955"/>
		<polygon fill="#EAF1F4" points="674.579,307.791 674.604,307.998 675.704,306.896 675.588,306.781 		"/>
		
			<rect x="675.337" y="305.632" transform="matrix(-0.7071 0.7071 -0.7071 -0.7071 1371.5684 43.3075)" fill="#EAF1F4" width="2.955" height="0.166"/>
		
			<rect x="686.383" y="294.597" transform="matrix(0.7069 -0.7073 0.7073 0.7069 -6.8342 572.8626)" fill="#EAF1F4" width="2.956" height="0.163"/>
		
			<rect x="688.559" y="292.32" transform="matrix(0.7074 -0.7068 0.7068 0.7074 -4.7833 573.2483)" fill="#EAF1F4" width="2.957" height="0.164"/>
		
			<rect x="681.155" y="299.78" transform="matrix(-0.7071 -0.7071 0.7071 -0.7071 949.9229 995.9856)" fill="#EAF1F4" width="0.163" height="2.955"/>
		
			<rect x="685.549" y="295.369" transform="matrix(-0.7071 -0.7071 0.7071 -0.7071 960.5423 991.562)" fill="#EAF1F4" width="0.163" height="2.955"/>
		
			<rect x="683.34" y="297.574" transform="matrix(-0.7042 -0.71 0.71 -0.7042 952.3297 994.8892)" fill="#EAF1F4" width="0.166" height="2.957"/>
		<polygon fill="#EAF1F4" points="691.264,291.337 692.065,290.537 692.098,290.271 691.149,291.221 		"/>
		
			<rect x="691.064" y="291.249" transform="matrix(-0.7071 -0.7071 0.7071 -0.7071 973.8565 986.0457)" fill="#EAF1F4" width="0.163" height="0.164"/>
		
			<rect x="688.867" y="293.477" transform="matrix(0.7011 -0.713 0.713 0.7011 -3.4157 578.97)" fill="#EAF1F4" width="0.164" height="0.164"/>
		
			<rect x="686.651" y="295.662" transform="matrix(-0.7071 -0.7071 0.7071 -0.7071 963.2061 990.4594)" fill="#EAF1F4" width="0.166" height="0.163"/>
		
			<rect x="684.444" y="297.866" transform="matrix(-0.7071 -0.7071 0.7071 -0.7071 957.8779 992.6615)" fill="#EAF1F4" width="0.163" height="0.164"/>
		
			<rect x="682.257" y="300.073" transform="matrix(-0.713 -0.7011 0.7011 -0.713 958.4125 992.5885)" fill="#EAF1F4" width="0.164" height="0.164"/>
		
			<rect x="679.992" y="302.303" transform="matrix(-0.7071 -0.7071 0.7071 -0.7071 947.1415 997.0894)" fill="#EAF1F4" width="0.166" height="0.165"/>
		
			<rect x="677.836" y="304.509" transform="matrix(-0.7071 0.7071 -0.7071 -0.7071 1372.6565 40.6107)" fill="#EAF1F4" width="0.163" height="0.166"/>
		
			<rect x="675.586" y="306.704" transform="matrix(-0.7011 0.713 -0.713 -0.7011 1368.1517 40.117)" fill="#EAF1F4" width="0.164" height="0.162"/>
		<polygon fill="#EAF1F4" points="691.411,295.604 691.446,295.336 691.149,295.633 691.264,295.748 		"/>
		<polygon fill="#EAF1F4" points="675.588,311.193 675.081,311.699 675.108,311.906 675.704,311.309 		"/>
		
			<rect x="679.735" y="305.598" transform="matrix(-0.7071 0.7071 -0.7071 -0.7071 1379.0511 40.1396)" fill="#EAF1F4" width="2.955" height="0.164"/>
		
			<rect x="686.367" y="298.972" transform="matrix(0.7071 -0.7071 0.7071 0.7071 -9.999 573.9705)" fill="#EAF1F4" width="2.955" height="0.166"/>
		
			<rect x="683.385" y="301.977" transform="matrix(-0.713 -0.7011 0.7011 -0.713 958.0311 999.032)" fill="#EAF1F4" width="0.164" height="2.957"/>
		
			<rect x="685.549" y="299.78" transform="matrix(-0.7071 -0.7071 0.7071 -0.7071 957.4228 999.0931)" fill="#EAF1F4" width="0.163" height="2.955"/>
		
			<rect x="676.684" y="308.628" transform="matrix(-0.7011 -0.713 0.713 -0.7011 930.1604 1010.0855)" fill="#EAF1F4" width="0.164" height="2.958"/>
		
			<rect x="688.56" y="296.732" transform="matrix(0.7076 -0.7066 0.7066 0.7076 -7.9661 574.3759)" fill="#EAF1F4" width="2.956" height="0.164"/>
		
			<rect x="677.528" y="307.805" transform="matrix(-0.7071 0.7071 -0.7071 -0.7071 1376.8435 45.4662)" fill="#EAF1F4" width="2.955" height="0.163"/>
		
			<rect x="691.083" y="295.708" transform="matrix(0.7011 -0.713 0.713 0.7011 -4.3436 581.2172)" fill="#EAF1F4" width="0.164" height="0.164"/>
		
			<rect x="688.895" y="297.87" transform="matrix(0.7011 -0.713 0.713 0.7011 -6.5382 580.3025)" fill="#EAF1F4" width="0.164" height="0.162"/>
		
			<rect x="686.651" y="300.074" transform="matrix(-0.7071 -0.7071 0.7071 -0.7071 960.0862 997.9913)" fill="#EAF1F4" width="0.166" height="0.163"/>
		
			<rect x="684.429" y="302.292" transform="matrix(-0.7011 -0.713 0.713 -0.7011 948.8493 1002.454)" fill="#EAF1F4" width="0.164" height="0.165"/>
		
			<rect x="682.248" y="304.509" transform="matrix(-0.7071 0.7071 -0.7071 -0.7071 1380.1884 37.4908)" fill="#EAF1F4" width="0.163" height="0.166"/>
		
			<rect x="680.016" y="306.658" transform="matrix(-0.7071 0.7071 -0.7071 -0.7071 1377.8992 42.734)" fill="#EAF1F4" width="0.166" height="0.163"/>
		
			<rect x="677.836" y="308.921" transform="matrix(-0.7071 0.7071 -0.7071 -0.7071 1375.7762 48.1426)" fill="#EAF1F4" width="0.163" height="0.166"/>
		
			<rect x="675.616" y="311.115" transform="matrix(-0.7071 0.7071 -0.7071 -0.7071 1373.5372 53.4548)" fill="#EAF1F4" width="0.163" height="0.163"/>
		
			<rect x="686.369" y="303.387" transform="matrix(0.7068 -0.7074 0.7074 0.7068 -12.9926 575.5925)" fill="#EAF1F4" width="2.954" height="0.164"/>
		
			<rect x="677.515" y="312.182" transform="matrix(-0.7069 0.7073 -0.7073 -0.7069 1379.8568 52.785)" fill="#EAF1F4" width="2.956" height="0.165"/>
		
			<rect x="684.133" y="305.564" transform="matrix(-0.7071 0.7071 -0.7071 -0.7071 1386.5349 36.9694)" fill="#EAF1F4" width="2.955" height="0.163"/>
		<polygon fill="#EAF1F4" points="690.756,300.67 690.792,300.402 688.942,302.252 689.059,302.369 		"/>
		
			<rect x="681.942" y="307.805" transform="matrix(-0.7071 0.7071 -0.7071 -0.7071 1384.3787 42.345)" fill="#EAF1F4" width="2.955" height="0.164"/>
		
			<rect x="679.735" y="310.011" transform="matrix(-0.7074 0.7068 -0.7068 -0.7074 1382.2952 47.9983)" fill="#EAF1F4" width="2.957" height="0.163"/>
		<polygon fill="#EAF1F4" points="677.793,313.4 676.061,315.133 676.293,315.133 677.911,313.516 		"/>
		
			<rect x="688.889" y="302.264" transform="matrix(0.713 -0.7011 0.7011 0.713 -14.2693 569.8317)" fill="#EAF1F4" width="0.164" height="0.166"/>
		
			<rect x="686.674" y="304.519" transform="matrix(0.7041 0.7101 -0.7101 0.7041 419.4933 -397.5278)" fill="#EAF1F4" width="0.164" height="0.167"/>
		
			<rect x="684.463" y="306.741" transform="matrix(-0.7101 0.7041 -0.7041 -0.7101 1386.6606 42.6695)" fill="#EAF1F4" width="0.165" height="0.166"/>
		
			<rect x="682.234" y="308.888" transform="matrix(-0.7041 0.7101 -0.7101 -0.7041 1382.1414 42.0206)" fill="#EAF1F4" width="0.164" height="0.165"/>
		
			<rect x="680.042" y="311.129" transform="matrix(-0.7071 0.7071 -0.7071 -0.7071 1381.1025 50.3495)" fill="#EAF1F4" width="0.163" height="0.164"/>
		
			<rect x="677.812" y="313.325" transform="matrix(0.7101 0.7041 -0.7041 0.7101 417.2324 -386.4641)" fill="#EAF1F4" width="0.165" height="0.164"/>
		
			<rect x="687.714" y="306.423" transform="matrix(0.713 0.7011 -0.7011 0.713 413.2625 -393.8814)" fill="#EAF1F4" width="0.164" height="2.956"/>
		
			<rect x="681.941" y="312.216" transform="matrix(-0.7073 0.7069 -0.7069 -0.7073 1387.5582 50.0421)" fill="#EAF1F4" width="2.955" height="0.165"/>
		
			<rect x="684.133" y="309.977" transform="matrix(-0.7069 0.7073 -0.7073 -0.7069 1389.593 44.3377)" fill="#EAF1F4" width="2.956" height="0.163"/>
		<polygon fill="#EAF1F4" points="688.942,306.664 689.057,306.781 690.104,305.734 690.139,305.469 		"/>
		<polygon fill="#EAF1F4" points="682.208,313.398 680.473,315.133 680.706,315.133 682.323,313.516 		"/>
		
			<rect x="688.825" y="306.704" transform="matrix(-0.7041 0.7101 -0.7101 -0.7041 1391.8206 33.6153)" fill="#EAF1F4" width="0.164" height="0.162"/>
		
			<rect x="686.671" y="308.899" transform="matrix(0.7011 0.713 -0.713 0.7011 425.5542 -397.3292)" fill="#EAF1F4" width="0.164" height="0.164"/>
		
			<rect x="684.418" y="311.132" transform="matrix(-0.713 0.7011 -0.7011 -0.713 1390.77 53.186)" fill="#EAF1F4" width="0.164" height="0.163"/>
		
			<rect x="682.239" y="313.311" transform="matrix(-0.7071 -0.7071 0.7071 -0.7071 943.1921 1017.4691)" fill="#EAF1F4" width="0.163" height="0.164"/>
		
			<rect x="687.714" y="310.835" transform="matrix(0.713 0.7011 -0.7011 0.713 416.356 -392.6152)" fill="#EAF1F4" width="0.164" height="2.956"/>
		<polygon fill="#EAF1F4" points="686.62,313.398 684.885,315.133 685.118,315.133 686.735,313.516 		"/>
		<polygon fill="#EAF1F4" points="688.942,311.078 689.057,311.193 689.452,310.8 689.487,310.533 		"/>
		
			<rect x="688.868" y="311.109" transform="matrix(0.7071 -0.7071 0.7071 0.7071 -18.2562 578.3066)" fill="#EAF1F4" width="0.163" height="0.163"/>
		
			<rect x="686.694" y="313.301" transform="matrix(-0.7101 -0.7041 0.7041 -0.7101 953.763 1019.4916)" fill="#EAF1F4" width="0.165" height="0.164"/>
	</g>
	<g>
		<rect x="393.28" y="150.708" fill="#5B6462" width="121.498" height="164.927"/>
		<rect x="397.132" y="181.037" fill="#8B9E99" width="5.082" height="21.943"/>
		<rect x="397.132" y="257.443" fill="#8B9E99" width="5.082" height="21.942"/>
		
			<line fill="none" stroke="#5B6462" stroke-width="0.4103" stroke-miterlimit="10" x1="397.132" y1="204.01" x2="402.214" y2="204.01"/>
		
			<line fill="none" stroke="#5B6462" stroke-width="0.4103" stroke-miterlimit="10" x1="397.132" y1="280.416" x2="402.214" y2="280.416"/>
		<rect x="402.214" y="160.646" fill="#8B9E99" width="103.63" height="145.051"/>
		<g>
			<circle fill="#BDD9D4" cx="460.417" cy="233.172" r="5.841"/>
			<g>
				<g>
					
						<rect x="446.777" y="232.658" transform="matrix(0.9999 -0.011 0.011 0.9999 -2.5378 5.0809)" fill="#BDD9D4" width="27.334" height="1.01"/>
					<circle fill="#BDD9D4" cx="474.083" cy="233.021" r="1.618"/>
					<circle fill="#BDD9D4" cx="446.751" cy="233.321" r="1.618"/>
				</g>
				<g>
					
						<rect x="446.733" y="232.679" transform="matrix(0.529 0.8486 -0.8486 0.529 414.7444 -280.8772)" fill="#BDD9D4" width="27.334" height="1.009"/>
					<circle fill="#BDD9D4" cx="467.647" cy="244.771" r="1.618"/>
					<circle fill="#BDD9D4" cx="453.188" cy="221.573" r="1.619"/>
				</g>
				<g>
					
						<rect x="446.757" y="232.647" transform="matrix(-0.4341 0.9009 -0.9009 -0.4341 870.3306 -80.421)" fill="#BDD9D4" width="27.336" height="1.011"/>
					<circle fill="#BDD9D4" cx="454.484" cy="245.484" r="1.618"/>
					<circle fill="#BDD9D4" cx="466.35" cy="220.859" r="1.619"/>
				</g>
			</g>
		</g>
		<g>
			<rect x="481.909" y="224.096" fill="#BDD9D4" width="14.727" height="18.152"/>
			<g>
				<g>
					<rect x="483.844" y="226.104" fill="#FEF293" width="2.648" height="2.648"/>
					<rect x="487.948" y="226.104" fill="#FEF293" width="2.647" height="2.648"/>
					<rect x="492.052" y="226.104" fill="#FEF293" width="2.648" height="2.648"/>
				</g>
				<g>
					<rect x="483.844" y="229.934" fill="#FEF293" width="2.648" height="2.646"/>
					<rect x="487.948" y="229.934" fill="#FEF293" width="2.647" height="2.646"/>
					<rect x="492.052" y="229.934" fill="#FEF293" width="2.648" height="2.646"/>
				</g>
				<g>
					<rect x="483.844" y="233.762" fill="#FEF293" width="2.648" height="2.648"/>
					<rect x="487.948" y="233.762" fill="#FEF293" width="2.647" height="2.648"/>
					<rect x="492.052" y="233.762" fill="#FEF293" width="2.648" height="2.648"/>
				</g>
				<g>
					<rect x="483.844" y="237.592" fill="#FEF293" width="2.648" height="2.648"/>
					<rect x="487.948" y="237.592" fill="#FEF293" width="2.647" height="2.648"/>
					<rect x="492.052" y="237.592" fill="#FEF293" width="2.648" height="2.648"/>
				</g>
			</g>
		</g>
	</g>
	<g>
		<g>
			<path fill="#356732" d="M110.019,236.283c2.529,15.521,4.628,37.214,2.934,37.658c-1.695,0.445-6.543-20.524-9.071-36.047
				c-2.528-15.521-1.779-19.72-0.084-20.166C105.493,217.285,107.492,220.76,110.019,236.283z"/>
			<path fill="#356732" d="M118.165,232.395c-1.592,18.188-5.177,42.946-6.898,42.656c-1.722-0.289-0.93-25.518,0.663-43.705
				c1.593-18.187,3.382-22.447,5.104-22.158C118.754,209.479,119.757,214.207,118.165,232.395z"/>
			<path fill="#3D7D3C" d="M115.33,225.636c0,20.188-1.795,47.927-4.009,47.927c-2.213,0-4.008-27.739-4.008-47.927
				c0-20.187,1.795-25.175,4.008-25.175C113.535,200.461,115.33,205.449,115.33,225.636z"/>
		</g>
		<path fill="#A4B7B8" d="M95.423,312.24c0,1.492,1.21,2.705,2.704,2.705h27.946c1.493,0,2.704-1.213,2.704-2.705v-46.709H95.423
			V312.24z"/>
		
			<path fill="none" stroke="#798C8C" stroke-width="2.0513" stroke-linecap="round" stroke-linejoin="round" stroke-miterlimit="10" d="
			M116.202,269.957v5.984c0,1.037-0.84,1.877-1.877,1.877h-11.424c-1.038,0-1.878-0.84-1.878-1.877v-5.984"/>
		<g>
			<path fill="#FFFFFF" d="M126.948,267.883c0-0.51-0.414-0.924-0.925-0.924l0,0c-0.512,0-0.927,0.414-0.927,0.924v41.653
				c0,0.509,0.416,0.923,0.927,0.923l0,0c0.511,0,0.925-0.414,0.925-0.923V267.883z"/>
			<circle fill="#FFFFFF" cx="126.028" cy="312.229" r="0.933"/>
		</g>
	</g>
	<g>
		<rect x="230.128" y="151.119" fill="#E4C28F" width="130.982" height="68.111"/>
		<rect x="232.455" y="153.601" fill="#FFFFFF" width="126.329" height="63.147"/>
		<g>
			
				<line fill="none" stroke="#C0E5EF" stroke-width="0.4103" stroke-miterlimit="10" x1="241.997" y1="159.084" x2="241.997" y2="211.38"/>
			
				<line fill="none" stroke="#C0E5EF" stroke-width="0.4103" stroke-miterlimit="10" x1="247.192" y1="159.084" x2="247.192" y2="211.38"/>
			
				<line fill="none" stroke="#C0E5EF" stroke-width="0.4103" stroke-miterlimit="10" x1="252.387" y1="159.084" x2="252.387" y2="211.38"/>
			
				<line fill="none" stroke="#C0E5EF" stroke-width="0.4103" stroke-miterlimit="10" x1="257.582" y1="159.084" x2="257.582" y2="211.38"/>
			
				<line fill="none" stroke="#C0E5EF" stroke-width="0.4103" stroke-miterlimit="10" x1="262.777" y1="159.084" x2="262.777" y2="211.38"/>
			
				<line fill="none" stroke="#C0E5EF" stroke-width="0.4103" stroke-miterlimit="10" x1="267.972" y1="159.084" x2="267.972" y2="211.38"/>
			
				<line fill="none" stroke="#C0E5EF" stroke-width="0.4103" stroke-miterlimit="10" x1="273.167" y1="159.084" x2="273.167" y2="211.38"/>
			
				<line fill="none" stroke="#C0E5EF" stroke-width="0.4103" stroke-miterlimit="10" x1="278.361" y1="159.084" x2="278.361" y2="211.38"/>
			
				<line fill="none" stroke="#C0E5EF" stroke-width="0.4103" stroke-miterlimit="10" x1="283.556" y1="159.084" x2="283.556" y2="211.38"/>
			
				<line fill="none" stroke="#C0E5EF" stroke-width="0.4103" stroke-miterlimit="10" x1="288.751" y1="159.084" x2="288.751" y2="211.38"/>
			
				<line fill="none" stroke="#C0E5EF" stroke-width="0.4103" stroke-miterlimit="10" x1="293.946" y1="159.084" x2="293.946" y2="211.38"/>
			
				<line fill="none" stroke="#C0E5EF" stroke-width="0.4103" stroke-miterlimit="10" x1="299.141" y1="159.084" x2="299.141" y2="211.38"/>
			
				<line fill="none" stroke="#C0E5EF" stroke-width="0.4103" stroke-miterlimit="10" x1="304.336" y1="159.084" x2="304.336" y2="211.38"/>
			
				<line fill="none" stroke="#C0E5EF" stroke-width="0.4103" stroke-miterlimit="10" x1="309.531" y1="159.084" x2="309.531" y2="211.38"/>
			
				<line fill="none" stroke="#C0E5EF" stroke-width="0.4103" stroke-miterlimit="10" x1="314.726" y1="159.084" x2="314.726" y2="211.38"/>
			
				<line fill="none" stroke="#C0E5EF" stroke-width="0.4103" stroke-miterlimit="10" x1="319.921" y1="159.084" x2="319.921" y2="211.38"/>
			
				<line fill="none" stroke="#C0E5EF" stroke-width="0.4103" stroke-miterlimit="10" x1="325.116" y1="159.084" x2="325.116" y2="211.38"/>
			
				<line fill="none" stroke="#C0E5EF" stroke-width="0.4103" stroke-miterlimit="10" x1="330.311" y1="159.084" x2="330.311" y2="211.38"/>
			
				<line fill="none" stroke="#C0E5EF" stroke-width="0.4103" stroke-miterlimit="10" x1="335.506" y1="159.084" x2="335.506" y2="211.38"/>
			
				<line fill="none" stroke="#C0E5EF" stroke-width="0.4103" stroke-miterlimit="10" x1="340.701" y1="159.084" x2="340.701" y2="211.38"/>
			
				<line fill="none" stroke="#C0E5EF" stroke-width="0.4103" stroke-miterlimit="10" x1="345.896" y1="159.084" x2="345.896" y2="211.38"/>
		</g>
		
			<polyline opacity="0.6" fill="none" stroke="#F15E3C" stroke-width="1.641" stroke-linecap="round" stroke-linejoin="round" stroke-miterlimit="10" enable-background="new    " points="
			237.373,203.473 261.091,170.455 271.558,189.312 280.072,176.697 287.518,189.157 290.52,183.154 301.545,201.336 
			306.797,190.658 311.935,198.047 324.807,175.881 337.562,191.467 348.82,175.881 		"/>
	</g>
	<g>
		<rect x="632.948" y="122.721" fill="#569BD4" width="55.07" height="74.722"/>
		
			<rect x="632.948" y="122.721" fill="none" stroke="#FFFFFF" stroke-width="1.641" stroke-miterlimit="10" width="55.07" height="74.722"/>
		<g>
			<path fill="#E52A5A" d="M669.784,123.538h2.916l-1.621,6.434h1.012c2.393,0,4.363,0.547,5.91,1.642
				c1.549,1.096,2.324,2.267,2.324,3.514c0,0.761-0.289,1.43-0.869,2.008c-0.578,0.578-1.246,0.867-2.008,0.867
				c-0.578,0-1.08-0.106-1.508-0.321c-0.273-0.122-0.986-0.701-2.145-1.738c-1.004-0.916-2.207-1.542-3.607-1.878l-5.02,19.381
				c2.971,2.617,5.037,4.975,6.201,7.075c1.162,2.1,1.744,4.197,1.744,6.297c0,4.139-1.473,7.941-4.412,11.408
				c-2.943,3.471-6.764,5.705-11.459,6.711l-2.934,11.654h-2.916l2.896-11.134c-0.76,0.062-1.486,0.092-2.186,0.092
				c-3.613,0-6.08-0.419-7.4-1.255s-1.98-1.908-1.98-3.217c0-0.822,0.289-1.537,0.867-2.145c0.578-0.609,1.234-0.912,1.965-0.912
				c0.641,0,1.857,0.487,3.654,1.461c1.34,0.729,2.225,1.158,2.648,1.278c0.854,0.244,1.979,0.427,3.381,0.55l5.539-22.002
				c-2.795-2.528-4.66-4.681-5.602-6.46c-0.941-1.781-1.412-3.782-1.412-6.006c0-3.834,1.346-7.32,4.037-10.456
				c2.689-3.135,6.107-5.128,10.25-5.979L669.784,123.538z M658.206,181.117c3.16-0.609,5.645-1.91,7.453-3.902
				c1.807-1.992,2.711-4.238,2.711-6.732c0-1.432-0.273-2.686-0.82-3.766s-1.977-2.852-4.287-5.316L658.206,181.117z
				 M667.249,133.788c-2.744,0.579-4.842,1.757-6.289,3.539c-1.449,1.781-2.174,3.797-2.174,6.049c0,2.313,1.346,4.916,4.039,7.809
				L667.249,133.788z"/>
		</g>
	</g>
	<g>
		<rect x="148.507" y="151.3" fill="#242935" width="56.478" height="79.289"/>
		<g>
			<g>
				<path fill="#F26528" d="M184.542,159.586c0,1.68-0.623,2.605-1.717,2.605c-0.965,0-1.619-0.903-1.634-2.537
					c0-1.656,0.714-2.568,1.717-2.568C183.95,157.086,184.542,158.014,184.542,159.586z M181.86,159.662
					c0,1.283,0.395,2.014,1.003,2.014c0.684,0,1.011-0.798,1.011-2.06c0-1.216-0.312-2.014-1.003-2.014
					C182.286,157.603,181.86,158.316,181.86,159.662z"/>
				<path fill="#F26528" d="M185.211,161.714c0-0.28,0.19-0.479,0.456-0.479s0.448,0.199,0.448,0.479
					c0,0.272-0.175,0.479-0.456,0.479C185.394,162.191,185.211,161.986,185.211,161.714z"/>
				<path fill="#F26528" d="M187.119,161.639c0.145,0.014,0.312,0,0.54-0.022c0.387-0.054,0.752-0.214,1.034-0.479
					c0.326-0.297,0.562-0.729,0.653-1.313h-0.023c-0.273,0.334-0.668,0.53-1.163,0.53c-0.889,0-1.459-0.668-1.459-1.512
					c0-0.936,0.676-1.756,1.687-1.756c1.011,0,1.634,0.82,1.634,2.082c0,1.087-0.365,1.848-0.851,2.318
					c-0.38,0.371-0.904,0.6-1.437,0.66c-0.243,0.039-0.456,0.045-0.615,0.039V161.639z M187.362,158.796
					c0,0.615,0.372,1.048,0.95,1.048c0.448,0,0.798-0.22,0.973-0.516c0.038-0.061,0.061-0.137,0.061-0.244
					c0-0.843-0.312-1.488-1.011-1.488C187.765,157.596,187.362,158.097,187.362,158.796z"/>
				<path fill="#F26528" d="M193.578,157.732h-1.885l-0.189,1.269c0.114-0.015,0.22-0.03,0.402-0.03c0.38,0,0.76,0.084,1.064,0.266
					c0.388,0.222,0.707,0.646,0.707,1.271c0,0.966-0.768,1.687-1.839,1.687c-0.539,0-0.995-0.15-1.231-0.303l0.167-0.511
					c0.205,0.122,0.607,0.272,1.056,0.272c0.631,0,1.171-0.409,1.171-1.069c-0.008-0.64-0.434-1.095-1.421-1.095
					c-0.281,0-0.501,0.029-0.684,0.054l0.319-2.372h2.363V157.732z"/>
				<path fill="#F26528" d="M197.347,157.641c-0.137-0.008-0.312,0-0.501,0.03c-1.049,0.175-1.604,0.942-1.717,1.755h0.023
					c0.235-0.311,0.646-0.568,1.193-0.568c0.874,0,1.489,0.631,1.489,1.596c0,0.904-0.616,1.74-1.641,1.74
					c-1.057,0-1.748-0.821-1.748-2.104c0-0.973,0.35-1.74,0.836-2.227c0.41-0.403,0.958-0.654,1.581-0.729
					c0.198-0.031,0.365-0.038,0.486-0.038L197.347,157.641L197.347,157.641z M197.157,160.49c0-0.707-0.403-1.133-1.019-1.133
					c-0.402,0-0.775,0.252-0.957,0.607c-0.046,0.076-0.076,0.176-0.076,0.297c0.015,0.812,0.388,1.413,1.087,1.413
					C196.769,161.676,197.157,161.197,197.157,160.49z"/>
			</g>
		</g>
		<g>
			<g>
				<path fill="#F26528" d="M158.435,161.105c0,0.381,0.007,0.715,0.03,1.004h-0.593l-0.038-0.602h-0.015
					c-0.175,0.297-0.562,0.684-1.216,0.684c-0.578,0-1.269-0.318-1.269-1.609v-2.15h0.669v2.036c0,0.698,0.212,1.171,0.82,1.171
					c0.448,0,0.76-0.312,0.882-0.609c0.038-0.098,0.061-0.219,0.061-0.342v-2.255h0.669V161.105L158.435,161.105z"/>
				<path fill="#F26528" d="M159.453,161.425c0.198,0.13,0.547,0.267,0.881,0.267c0.486,0,0.714-0.243,0.714-0.547
					c0-0.319-0.19-0.494-0.684-0.677c-0.661-0.235-0.973-0.601-0.973-1.042c0-0.592,0.479-1.078,1.269-1.078
					c0.373,0,0.699,0.105,0.904,0.228l-0.167,0.486c-0.145-0.092-0.411-0.213-0.752-0.213c-0.395,0-0.615,0.229-0.615,0.502
					c0,0.303,0.22,0.439,0.699,0.623c0.638,0.242,0.965,0.562,0.965,1.108c0,0.646-0.502,1.103-1.375,1.103
					c-0.403,0-0.775-0.1-1.034-0.252L159.453,161.425z"/>
				<path fill="#F26528" d="M165.73,156.714v4.445c0,0.327,0.007,0.698,0.03,0.95h-0.601l-0.03-0.639h-0.015
					c-0.205,0.409-0.653,0.721-1.253,0.721c-0.89,0-1.573-0.752-1.573-1.868c-0.008-1.224,0.752-1.976,1.649-1.976
					c0.562,0,0.942,0.266,1.109,0.562h0.015v-2.196L165.73,156.714L165.73,156.714z M165.061,159.928
					c0-0.084-0.008-0.197-0.03-0.281c-0.099-0.426-0.464-0.774-0.965-0.774c-0.691,0-1.102,0.608-1.102,1.422
					c0,0.744,0.365,1.358,1.086,1.358c0.448,0,0.859-0.295,0.98-0.797c0.022-0.092,0.03-0.183,0.03-0.289L165.061,159.928
					L165.061,159.928z"/>
			</g>
		</g>
		<g>
			<g>
				<path fill="#F26528" d="M183.327,170.997v-1.345h-2.295v-0.441l2.204-3.152h0.722v3.069h0.691v0.524h-0.691v1.345H183.327z
					 M183.327,169.128v-1.649c0-0.258,0.008-0.517,0.023-0.774h-0.023c-0.152,0.289-0.273,0.502-0.41,0.729l-1.208,1.68v0.016
					L183.327,169.128L183.327,169.128z"/>
				<path fill="#F26528" d="M185.211,170.602c0-0.281,0.19-0.479,0.456-0.479s0.448,0.197,0.448,0.479
					c0,0.273-0.175,0.479-0.456,0.479C185.394,171.08,185.211,170.875,185.211,170.602z"/>
				<path fill="#F26528" d="M186.731,170.997v-0.41l0.524-0.509c1.262-1.201,1.831-1.84,1.839-2.584c0-0.502-0.243-0.965-0.98-0.965
					c-0.448,0-0.82,0.228-1.048,0.418l-0.212-0.473c0.342-0.287,0.828-0.5,1.398-0.5c1.064,0,1.512,0.729,1.512,1.436
					c0,0.912-0.661,1.648-1.702,2.652l-0.396,0.364v0.015h2.219v0.556H186.731L186.731,170.997z"/>
				<path fill="#F26528" d="M190.629,170.997v-0.41l0.524-0.509c1.261-1.201,1.831-1.84,1.839-2.584c0-0.502-0.243-0.965-0.98-0.965
					c-0.448,0-0.82,0.228-1.049,0.418l-0.212-0.473c0.342-0.287,0.828-0.5,1.398-0.5c1.064,0,1.512,0.729,1.512,1.436
					c0,0.912-0.661,1.648-1.702,2.652l-0.395,0.364v0.015h2.219v0.556H190.629L190.629,170.997z"/>
				<path fill="#F26528" d="M196.594,170.997v-1.345h-2.295v-0.441l2.204-3.152h0.722v3.069h0.691v0.524h-0.691v1.345H196.594z
					 M196.594,169.128v-1.649c0-0.258,0.008-0.517,0.023-0.774h-0.023c-0.152,0.289-0.273,0.502-0.41,0.729l-1.208,1.68v0.016
					L196.594,169.128L196.594,169.128z"/>
			</g>
		</g>
		<g>
			<g>
				<path fill="#F26528" d="M155.729,169.279c0.015,0.904,0.593,1.277,1.261,1.277c0.479,0,0.768-0.084,1.019-0.19l0.114,0.479
					c-0.236,0.104-0.639,0.228-1.224,0.228c-1.132,0-1.809-0.745-1.809-1.854s0.653-1.982,1.725-1.982
					c1.201,0,1.52,1.057,1.52,1.732c0,0.137-0.015,0.242-0.023,0.311H155.729L155.729,169.279z M157.69,168.801
					c0.008-0.426-0.175-1.086-0.927-1.086c-0.677,0-0.973,0.623-1.026,1.086H157.69z"/>
				<path fill="#F26528" d="M162.242,169.994c0,0.38,0.008,0.715,0.03,1.003h-0.592l-0.038-0.601h-0.015
					c-0.175,0.297-0.562,0.684-1.216,0.684c-0.578,0-1.269-0.318-1.269-1.609v-2.15h0.668v2.035c0,0.699,0.213,1.17,0.821,1.17
					c0.449,0,0.76-0.311,0.881-0.606c0.038-0.099,0.061-0.221,0.061-0.342v-2.257h0.668L162.242,169.994L162.242,169.994z"/>
				<path fill="#F26528" d="M163.351,168.467c0-0.434-0.007-0.806-0.03-1.146h0.585l0.023,0.722h0.03
					c0.167-0.494,0.57-0.806,1.018-0.806c0.076,0,0.129,0.008,0.19,0.021v0.631c-0.068-0.015-0.137-0.021-0.228-0.021
					c-0.471,0-0.805,0.357-0.896,0.857c-0.015,0.092-0.031,0.197-0.031,0.312v1.96h-0.661V168.467L163.351,168.467z"/>
			</g>
		</g>
		<g>
			<g>
				<path fill="#F26528" d="M181.199,178.633c0-0.623,0.373-1.064,0.98-1.322l-0.007-0.021c-0.547-0.26-0.783-0.686-0.783-1.109
					c0-0.781,0.661-1.314,1.527-1.314c0.958,0,1.436,0.602,1.436,1.217c0,0.418-0.205,0.865-0.813,1.154v0.022
					c0.615,0.242,0.996,0.677,0.996,1.276c0,0.857-0.737,1.438-1.679,1.438C181.822,179.971,181.199,179.355,181.199,178.633z
					 M183.859,178.604c0-0.602-0.418-0.891-1.087-1.08c-0.577,0.168-0.889,0.547-0.889,1.019c-0.023,0.502,0.357,0.942,0.987,0.942
					C183.471,179.484,183.859,179.111,183.859,178.604z M182.02,176.133c0,0.494,0.372,0.76,0.942,0.912
					c0.425-0.145,0.752-0.449,0.752-0.896c0-0.396-0.235-0.806-0.836-0.806C182.324,175.343,182.02,175.707,182.02,176.133z"/>
				<path fill="#F26528" d="M185.211,179.492c0-0.281,0.19-0.479,0.456-0.479s0.448,0.197,0.448,0.479
					c0,0.273-0.175,0.479-0.456,0.479C185.394,179.971,185.211,179.766,185.211,179.492z"/>
				<path fill="#F26528" d="M186.67,178.633c0-0.623,0.372-1.064,0.98-1.322l-0.008-0.021c-0.547-0.26-0.783-0.686-0.783-1.109
					c0-0.781,0.661-1.314,1.527-1.314c0.958,0,1.436,0.602,1.436,1.217c0,0.418-0.205,0.865-0.813,1.154v0.022
					c0.616,0.242,0.996,0.677,0.996,1.276c0,0.857-0.737,1.438-1.68,1.438C187.293,179.971,186.67,179.355,186.67,178.633z
					 M189.33,178.604c0-0.602-0.417-0.891-1.086-1.08c-0.578,0.168-0.889,0.547-0.889,1.019c-0.022,0.502,0.357,0.942,0.988,0.942
					C188.942,179.484,189.33,179.111,189.33,178.604z M187.491,176.133c0,0.494,0.373,0.76,0.942,0.912
					c0.426-0.145,0.752-0.449,0.752-0.896c0-0.396-0.236-0.806-0.836-0.806C187.795,175.343,187.491,175.707,187.491,176.133z"/>
				<path fill="#F26528" d="M190.629,179.887v-0.41l0.524-0.51c1.261-1.199,1.831-1.838,1.839-2.583c0-0.501-0.243-0.966-0.98-0.966
					c-0.448,0-0.82,0.229-1.049,0.418l-0.212-0.471c0.342-0.289,0.828-0.502,1.398-0.502c1.064,0,1.512,0.729,1.512,1.437
					c0,0.912-0.661,1.649-1.702,2.652l-0.395,0.364v0.016h2.219v0.555H190.629z"/>
				<path fill="#F26528" d="M194.687,179.119c0.19,0.121,0.631,0.312,1.094,0.312c0.859,0,1.125-0.548,1.117-0.959
					c-0.008-0.69-0.631-0.986-1.277-0.986h-0.372v-0.502h0.372c0.486,0,1.102-0.25,1.102-0.836c0-0.396-0.25-0.744-0.866-0.744
					c-0.395,0-0.775,0.175-0.988,0.326l-0.175-0.485c0.258-0.19,0.76-0.381,1.292-0.381c0.973,0,1.413,0.577,1.413,1.178
					c0,0.51-0.304,0.942-0.912,1.163v0.016c0.608,0.122,1.102,0.577,1.102,1.27c0,0.791-0.616,1.482-1.801,1.482
					c-0.555,0-1.041-0.177-1.284-0.336L194.687,179.119z"/>
			</g>
		</g>
		<g>
			<g>
				<path fill="#F26528" d="M155.6,176.209l0.806,2.174c0.084,0.242,0.175,0.531,0.235,0.752h0.016
					c0.068-0.221,0.145-0.502,0.235-0.768l0.729-2.158h0.707l-1.003,2.621c-0.479,1.262-0.805,1.908-1.261,2.303
					c-0.327,0.289-0.653,0.402-0.821,0.434l-0.167-0.562c0.167-0.053,0.387-0.16,0.585-0.327c0.182-0.144,0.411-0.402,0.562-0.744
					c0.031-0.068,0.054-0.121,0.054-0.158c0-0.039-0.016-0.092-0.046-0.176l-1.36-3.39L155.6,176.209L155.6,176.209z"/>
				<path fill="#F26528" d="M159.233,178.17c0.015,0.904,0.593,1.275,1.261,1.275c0.479,0,0.768-0.084,1.018-0.189l0.114,0.479
					c-0.235,0.107-0.639,0.229-1.224,0.229c-1.132,0-1.809-0.745-1.809-1.854c0-1.108,0.654-1.982,1.725-1.982
					c1.201,0,1.52,1.057,1.52,1.732c0,0.137-0.016,0.244-0.023,0.312L159.233,178.17L159.233,178.17z M161.193,177.689
					c0.007-0.424-0.175-1.086-0.927-1.086c-0.676,0-0.973,0.623-1.026,1.086H161.193z"/>
				<path fill="#F26528" d="M162.667,177.204c0-0.38-0.008-0.69-0.03-0.995h0.593l0.038,0.607h0.015
					c0.183-0.351,0.608-0.691,1.216-0.691c0.51,0,1.3,0.305,1.3,1.564v2.196h-0.669v-2.12c0-0.593-0.22-1.086-0.851-1.086
					c-0.441,0-0.783,0.312-0.897,0.684c-0.031,0.084-0.045,0.197-0.045,0.312v2.211h-0.669L162.667,177.204L162.667,177.204z"/>
			</g>
		</g>
		<g>
			<g>
				<path fill="#F26528" d="M184.208,184.396h-1.885l-0.19,1.27c0.114-0.016,0.22-0.029,0.403-0.029c0.38,0,0.76,0.083,1.063,0.266
					c0.388,0.222,0.707,0.646,0.707,1.27c0,0.967-0.768,1.688-1.839,1.688c-0.54,0-0.996-0.151-1.231-0.303l0.167-0.511
					c0.205,0.121,0.608,0.272,1.056,0.272c0.631,0,1.17-0.409,1.17-1.07c-0.008-0.639-0.433-1.096-1.421-1.096
					c-0.281,0-0.501,0.031-0.684,0.055l0.319-2.371h2.363v0.561H184.208z"/>
				<path fill="#F26528" d="M185.211,188.379c0-0.281,0.19-0.479,0.456-0.479s0.448,0.197,0.448,0.479
					c0,0.273-0.175,0.479-0.456,0.479C185.394,188.857,185.211,188.652,185.211,188.379z"/>
				<path fill="#F26528" d="M186.731,188.773v-0.409l0.524-0.509c1.262-1.201,1.831-1.84,1.839-2.584
					c0-0.502-0.243-0.965-0.98-0.965c-0.448,0-0.82,0.228-1.048,0.418l-0.212-0.473c0.342-0.288,0.828-0.501,1.398-0.501
					c1.064,0,1.512,0.729,1.512,1.437c0,0.912-0.661,1.648-1.702,2.651l-0.396,0.365v0.015h2.219v0.555H186.731z"/>
				<path fill="#F26528" d="M193.836,183.835v0.44l-2.15,4.498h-0.691l2.143-4.369v-0.016h-2.417v-0.555L193.836,183.835
					L193.836,183.835z"/>
				<path fill="#F26528" d="M194.528,188.773v-0.409l0.524-0.509c1.261-1.201,1.832-1.84,1.839-2.584
					c0-0.502-0.243-0.965-0.98-0.965c-0.448,0-0.821,0.228-1.049,0.418l-0.213-0.473c0.342-0.288,0.828-0.501,1.398-0.501
					c1.063,0,1.512,0.729,1.512,1.437c0,0.912-0.661,1.648-1.702,2.651l-0.395,0.365v0.015h2.219v0.555H194.528z"/>
			</g>
		</g>
		<g>
			<g>
				<path fill="#F26528" d="M155.357,186.244c0-0.434-0.007-0.807-0.03-1.146h0.585l0.023,0.721h0.03
					c0.167-0.493,0.57-0.805,1.018-0.805c0.076,0,0.129,0.008,0.19,0.021v0.631c-0.068-0.016-0.137-0.021-0.228-0.021
					c-0.471,0-0.805,0.356-0.896,0.857c-0.015,0.092-0.031,0.197-0.031,0.312v1.959h-0.661V186.244L155.357,186.244z"/>
				<path fill="#F26528" d="M160.919,187.771c0,0.379,0.008,0.715,0.03,1.002h-0.592l-0.038-0.601h-0.015
					c-0.175,0.298-0.562,0.685-1.216,0.685c-0.578,0-1.269-0.318-1.269-1.61v-2.149h0.668v2.035c0,0.699,0.213,1.17,0.821,1.17
					c0.449,0,0.76-0.311,0.881-0.607c0.038-0.098,0.061-0.221,0.061-0.342v-2.256h0.668L160.919,187.771L160.919,187.771z"/>
				<path fill="#F26528" d="M161.999,188.773c0.016-0.25,0.03-0.623,0.03-0.949v-4.445h0.661v2.311h0.016
					c0.235-0.41,0.661-0.676,1.254-0.676c0.912,0,1.558,0.76,1.55,1.877c0,1.314-0.828,1.967-1.649,1.967
					c-0.532,0-0.958-0.205-1.231-0.69h-0.022l-0.031,0.608h-0.578V188.773z M162.69,187.301c0,0.083,0.016,0.166,0.031,0.242
					c0.129,0.464,0.517,0.783,1.003,0.783c0.699,0,1.117-0.57,1.117-1.414c0-0.736-0.38-1.367-1.094-1.367
					c-0.456,0-0.882,0.312-1.019,0.82c-0.015,0.076-0.038,0.168-0.038,0.273V187.301L162.69,187.301z"/>
			</g>
		</g>
		<g>
			<g>
				<path fill="#F26528" d="M182.711,193.348h-0.016l-0.858,0.463l-0.129-0.51l1.079-0.576h0.569v4.938h-0.646L182.711,193.348
					L182.711,193.348z"/>
				<path fill="#F26528" d="M185.211,197.268c0-0.281,0.19-0.479,0.456-0.479s0.448,0.197,0.448,0.479
					c0,0.273-0.175,0.479-0.456,0.479C185.394,197.746,185.211,197.541,185.211,197.268z"/>
				<path fill="#F26528" d="M189.55,193.195c-0.137-0.008-0.312,0-0.501,0.029c-1.049,0.176-1.604,0.942-1.717,1.756h0.022
					c0.236-0.312,0.646-0.57,1.193-0.57c0.874,0,1.489,0.631,1.489,1.596c0,0.904-0.615,1.74-1.642,1.74
					c-1.056,0-1.748-0.82-1.748-2.104c0-0.974,0.35-1.74,0.836-2.227c0.411-0.402,0.958-0.654,1.581-0.73
					c0.197-0.029,0.365-0.037,0.486-0.037L189.55,193.195L189.55,193.195z M189.36,196.045c0-0.707-0.403-1.133-1.018-1.133
					c-0.403,0-0.775,0.251-0.958,0.607c-0.045,0.076-0.076,0.176-0.076,0.297c0.015,0.812,0.388,1.414,1.086,1.414
					C188.973,197.23,189.36,196.751,189.36,196.045z"/>
				<path fill="#F26528" d="M193.449,193.195c-0.137-0.008-0.312,0-0.502,0.029c-1.048,0.176-1.604,0.942-1.717,1.756h0.023
					c0.235-0.312,0.646-0.57,1.193-0.57c0.874,0,1.49,0.631,1.49,1.596c0,0.904-0.616,1.74-1.642,1.74
					c-1.056,0-1.748-0.82-1.748-2.104c0-0.974,0.35-1.74,0.836-2.227c0.411-0.402,0.958-0.654,1.581-0.73
					c0.197-0.029,0.364-0.037,0.486-0.037V193.195L193.449,193.195z M193.258,196.045c0-0.707-0.402-1.133-1.018-1.133
					c-0.403,0-0.775,0.251-0.958,0.607c-0.045,0.076-0.076,0.176-0.076,0.297c0.016,0.812,0.388,1.414,1.087,1.414
					C192.871,197.23,193.258,196.751,193.258,196.045z"/>
				<path fill="#F26528" d="M194.528,197.663v-0.41l0.524-0.509c1.261-1.201,1.832-1.84,1.839-2.584c0-0.502-0.243-0.965-0.98-0.965
					c-0.448,0-0.821,0.228-1.049,0.418l-0.213-0.473c0.342-0.287,0.828-0.5,1.398-0.5c1.063,0,1.512,0.729,1.512,1.436
					c0,0.912-0.661,1.648-1.702,2.652l-0.395,0.364v0.015h2.219v0.556H194.528L194.528,197.663z"/>
			</g>
		</g>
		<g>
			<g>
				<path fill="#F26528" d="M157.394,197.663l-0.054-0.464h-0.022c-0.205,0.289-0.601,0.547-1.125,0.547
					c-0.744,0-1.125-0.523-1.125-1.057c0-0.89,0.791-1.375,2.211-1.367v-0.076c0-0.303-0.084-0.852-0.836-0.852
					c-0.342,0-0.699,0.106-0.958,0.273l-0.152-0.439c0.304-0.197,0.745-0.326,1.208-0.326c1.125,0,1.398,0.767,1.398,1.504v1.375
					c0,0.318,0.015,0.631,0.061,0.882H157.394L157.394,197.663z M157.295,195.786c-0.729-0.015-1.558,0.114-1.558,0.828
					c0,0.433,0.289,0.639,0.631,0.639c0.479,0,0.783-0.304,0.889-0.616c0.023-0.068,0.038-0.145,0.038-0.213V195.786z"/>
				<path fill="#F26528" d="M158.602,197.275l1.664-2.166c0.16-0.197,0.312-0.373,0.479-0.569v-0.015h-1.991v-0.541h2.804
					l-0.008,0.418l-1.641,2.137c-0.152,0.205-0.304,0.387-0.471,0.577v0.015h2.15v0.532h-2.986V197.275L158.602,197.275z"/>
				<path fill="#F26528" d="M165.396,192.268v4.445c0,0.327,0.008,0.699,0.031,0.95h-0.601l-0.03-0.638h-0.016
					c-0.205,0.41-0.653,0.721-1.253,0.721c-0.889,0-1.573-0.752-1.573-1.869c-0.008-1.223,0.752-1.975,1.648-1.975
					c0.562,0,0.942,0.266,1.109,0.562h0.016v-2.196H165.396z M164.727,195.482c0-0.084-0.008-0.197-0.03-0.281
					c-0.099-0.426-0.464-0.775-0.965-0.775c-0.691,0-1.102,0.607-1.102,1.422c0,0.744,0.365,1.359,1.087,1.359
					c0.448,0,0.858-0.297,0.98-0.798c0.022-0.091,0.03-0.183,0.03-0.288V195.482z"/>
			</g>
		</g>
		<g>
			<g>
				<path fill="#F26528" d="M181.419,205.785c0.19,0.121,0.631,0.311,1.094,0.311c0.859,0,1.125-0.547,1.117-0.957
					c-0.008-0.69-0.631-0.988-1.277-0.988h-0.372v-0.5h0.372c0.486,0,1.102-0.252,1.102-0.836c0-0.396-0.25-0.746-0.866-0.746
					c-0.395,0-0.775,0.177-0.988,0.328l-0.175-0.486c0.258-0.189,0.76-0.381,1.292-0.381c0.973,0,1.413,0.578,1.413,1.179
					c0,0.51-0.304,0.942-0.912,1.162v0.016c0.608,0.122,1.102,0.578,1.102,1.271c0,0.789-0.616,1.48-1.801,1.48
					c-0.555,0-1.041-0.175-1.284-0.335L181.419,205.785z"/>
				<path fill="#F26528" d="M185.211,206.157c0-0.281,0.19-0.479,0.456-0.479s0.448,0.198,0.448,0.479
					c0,0.272-0.175,0.479-0.456,0.479C185.394,206.636,185.211,206.432,185.211,206.157z"/>
				<path fill="#F26528" d="M186.891,205.785c0.19,0.121,0.631,0.311,1.094,0.311c0.858,0,1.125-0.547,1.117-0.957
					c-0.008-0.69-0.631-0.988-1.276-0.988h-0.373v-0.5h0.373c0.486,0,1.102-0.252,1.102-0.836c0-0.396-0.251-0.746-0.866-0.746
					c-0.396,0-0.775,0.177-0.988,0.328l-0.175-0.486c0.259-0.189,0.76-0.381,1.292-0.381c0.973,0,1.414,0.578,1.414,1.179
					c0,0.51-0.304,0.942-0.912,1.162v0.016c0.607,0.122,1.102,0.578,1.102,1.271c0,0.789-0.615,1.48-1.801,1.48
					c-0.555,0-1.041-0.175-1.284-0.335L186.891,205.785z"/>
				<path fill="#F26528" d="M193.578,202.176h-1.885l-0.189,1.27c0.114-0.016,0.22-0.03,0.402-0.03c0.38,0,0.76,0.084,1.064,0.267
					c0.388,0.221,0.707,0.646,0.707,1.27c0,0.965-0.768,1.688-1.839,1.688c-0.539,0-0.995-0.152-1.231-0.305l0.167-0.51
					c0.205,0.121,0.607,0.273,1.056,0.273c0.631,0,1.171-0.41,1.171-1.07c-0.008-0.639-0.434-1.096-1.421-1.096
					c-0.281,0-0.501,0.03-0.684,0.055l0.319-2.371h2.363V202.176z"/>
				<path fill="#F26528" d="M194.467,205.299c0-0.623,0.373-1.064,0.98-1.322l-0.007-0.022c-0.547-0.259-0.783-0.685-0.783-1.108
					c0-0.783,0.661-1.314,1.527-1.314c0.958,0,1.436,0.601,1.436,1.216c0,0.418-0.205,0.866-0.813,1.155v0.021
					c0.615,0.243,0.996,0.678,0.996,1.276c0,0.858-0.737,1.437-1.679,1.437C195.09,206.636,194.467,206.021,194.467,205.299z
					 M197.126,205.268c0-0.6-0.418-0.889-1.087-1.078c-0.577,0.166-0.889,0.547-0.889,1.019c-0.023,0.502,0.357,0.942,0.987,0.942
					C196.739,206.148,197.126,205.777,197.126,205.268z M195.288,202.799c0,0.494,0.372,0.76,0.942,0.912
					c0.425-0.145,0.752-0.449,0.752-0.896c0-0.396-0.235-0.807-0.836-0.807C195.591,202.008,195.288,202.373,195.288,202.799z"/>
			</g>
		</g>
		<g>
			<g>
				<path fill="#F26528" d="M157.394,206.553l-0.054-0.464h-0.022c-0.205,0.288-0.601,0.547-1.125,0.547
					c-0.744,0-1.125-0.524-1.125-1.056c0-0.891,0.791-1.376,2.211-1.368v-0.076c0-0.304-0.084-0.851-0.836-0.851
					c-0.342,0-0.699,0.105-0.958,0.273l-0.152-0.441c0.304-0.197,0.745-0.326,1.208-0.326c1.125,0,1.398,0.768,1.398,1.504v1.376
					c0,0.319,0.015,0.63,0.061,0.882H157.394z M157.295,204.676c-0.729-0.016-1.558,0.113-1.558,0.828
					c0,0.434,0.289,0.639,0.631,0.639c0.479,0,0.783-0.305,0.889-0.615c0.023-0.068,0.038-0.146,0.038-0.213V204.676z"/>
				<path fill="#F26528" d="M159.02,204.021c0-0.434-0.008-0.806-0.03-1.146h0.585l0.023,0.721h0.03
					c0.167-0.492,0.57-0.805,1.018-0.805c0.076,0,0.129,0.008,0.19,0.021v0.631c-0.068-0.014-0.137-0.021-0.229-0.021
					c-0.471,0-0.805,0.357-0.896,0.857c-0.015,0.092-0.03,0.197-0.03,0.312v1.961h-0.661V204.021L159.02,204.021z"/>
				<path fill="#F26528" d="M161.535,203.869c0-0.379-0.007-0.691-0.03-0.994h0.585l0.031,0.592h0.022
					c0.205-0.35,0.547-0.676,1.155-0.676c0.501,0,0.881,0.305,1.041,0.736h0.015c0.114-0.205,0.258-0.364,0.41-0.479
					c0.22-0.167,0.463-0.258,0.813-0.258c0.486,0,1.208,0.317,1.208,1.596v2.166h-0.654v-2.082c0-0.706-0.258-1.133-0.798-1.133
					c-0.38,0-0.676,0.281-0.79,0.606c-0.03,0.093-0.053,0.214-0.053,0.336v2.271h-0.654v-2.203c0-0.586-0.258-1.012-0.768-1.012
					c-0.417,0-0.722,0.334-0.828,0.669c-0.038,0.099-0.053,0.212-0.053,0.327v2.219h-0.654v-2.682H161.535z"/>
			</g>
		</g>
		<g>
			<g>
				<path fill="#F26528" d="M184.542,212.918c0,1.68-0.623,2.605-1.717,2.605c-0.965,0-1.619-0.903-1.634-2.537
					c0-1.656,0.714-2.568,1.717-2.568C183.95,210.418,184.542,211.346,184.542,212.918z M181.86,212.994
					c0,1.283,0.395,2.014,1.003,2.014c0.684,0,1.011-0.798,1.011-2.06c0-1.216-0.312-2.015-1.003-2.015
					C182.286,210.936,181.86,211.648,181.86,212.994z"/>
				<path fill="#F26528" d="M185.211,215.046c0-0.28,0.19-0.479,0.456-0.479s0.448,0.199,0.448,0.479
					c0,0.272-0.175,0.479-0.456,0.479C185.394,215.523,185.211,215.318,185.211,215.046z"/>
				<path fill="#F26528" d="M186.891,214.674c0.19,0.121,0.631,0.311,1.094,0.311c0.858,0,1.125-0.547,1.117-0.957
					c-0.008-0.69-0.631-0.987-1.276-0.987h-0.373v-0.501h0.373c0.486,0,1.102-0.251,1.102-0.836c0-0.396-0.251-0.745-0.866-0.745
					c-0.396,0-0.775,0.176-0.988,0.327l-0.175-0.486c0.259-0.189,0.76-0.38,1.292-0.38c0.973,0,1.414,0.578,1.414,1.179
					c0,0.51-0.304,0.941-0.912,1.161v0.017c0.607,0.121,1.102,0.578,1.102,1.27c0,0.79-0.615,1.48-1.801,1.48
					c-0.555,0-1.041-0.174-1.284-0.334L186.891,214.674z"/>
				<path fill="#F26528" d="M190.629,215.441v-0.41l0.524-0.51c1.261-1.201,1.831-1.84,1.839-2.584c0-0.502-0.243-0.965-0.98-0.965
					c-0.448,0-0.82,0.229-1.049,0.418l-0.212-0.472c0.342-0.289,0.828-0.502,1.398-0.502c1.064,0,1.512,0.729,1.512,1.437
					c0,0.912-0.661,1.649-1.702,2.651l-0.395,0.365v0.017h2.219v0.555H190.629L190.629,215.441z"/>
				<path fill="#F26528" d="M196.594,215.441v-1.346h-2.295v-0.441l2.204-3.152h0.722v3.07h0.691v0.523h-0.691v1.346H196.594z
					 M196.594,213.572v-1.649c0-0.259,0.008-0.517,0.023-0.774h-0.023c-0.152,0.289-0.273,0.5-0.41,0.729l-1.208,1.68v0.017
					L196.594,213.572L196.594,213.572z"/>
			</g>
		</g>
		<g>
			<g>
				<path fill="#F26528" d="M158.435,214.438c0,0.381,0.007,0.715,0.03,1.004h-0.593l-0.038-0.601h-0.015
					c-0.175,0.296-0.562,0.685-1.216,0.685c-0.578,0-1.269-0.319-1.269-1.61v-2.149h0.669v2.035c0,0.698,0.212,1.17,0.82,1.17
					c0.448,0,0.76-0.312,0.882-0.607c0.038-0.098,0.061-0.221,0.061-0.342v-2.256h0.669V214.438L158.435,214.438z"/>
				<path fill="#F26528" d="M160.206,213.45h0.015c0.092-0.13,0.221-0.289,0.327-0.418l1.079-1.269h0.806l-1.421,1.512l1.619,2.166
					h-0.813l-1.269-1.765l-0.342,0.382v1.383h-0.661v-5.396h0.661L160.206,213.45L160.206,213.45z"/>
				<path fill="#F26528" d="M163.237,212.91c0-0.434-0.007-0.805-0.03-1.146h0.585l0.023,0.721h0.03
					c0.167-0.492,0.57-0.805,1.019-0.805c0.076,0,0.129,0.008,0.189,0.022v0.631c-0.068-0.015-0.137-0.022-0.228-0.022
					c-0.471,0-0.806,0.357-0.897,0.858c-0.015,0.091-0.03,0.197-0.03,0.312v1.961h-0.661V212.91z"/>
			</g>
		</g>
		<g>
			<g>
				<path fill="#F26528" d="M182.711,220.014h-0.016l-0.858,0.463l-0.129-0.51l1.079-0.576h0.569v4.938h-0.646L182.711,220.014
					L182.711,220.014z"/>
				<path fill="#F26528" d="M185.211,223.934c0-0.281,0.19-0.479,0.456-0.479s0.448,0.197,0.448,0.479
					c0,0.273-0.175,0.479-0.456,0.479C185.394,224.412,185.211,224.207,185.211,223.934z"/>
				<path fill="#F26528" d="M189.55,219.861c-0.137-0.008-0.312,0-0.501,0.029c-1.049,0.176-1.604,0.942-1.717,1.756h0.022
					c0.236-0.312,0.646-0.57,1.193-0.57c0.874,0,1.489,0.631,1.489,1.596c0,0.904-0.615,1.74-1.642,1.74
					c-1.056,0-1.748-0.82-1.748-2.104c0-0.974,0.35-1.74,0.836-2.227c0.411-0.402,0.958-0.654,1.581-0.73
					c0.197-0.029,0.365-0.037,0.486-0.037L189.55,219.861L189.55,219.861z M189.36,222.711c0-0.707-0.403-1.133-1.018-1.133
					c-0.403,0-0.775,0.251-0.958,0.607c-0.045,0.075-0.076,0.176-0.076,0.297c0.015,0.812,0.388,1.414,1.086,1.414
					C188.973,223.896,189.36,223.417,189.36,222.711z"/>
				<path fill="#F26528" d="M193.449,219.861c-0.137-0.008-0.312,0-0.502,0.029c-1.048,0.176-1.604,0.942-1.717,1.756h0.023
					c0.235-0.312,0.646-0.57,1.193-0.57c0.874,0,1.49,0.631,1.49,1.596c0,0.904-0.616,1.74-1.642,1.74
					c-1.056,0-1.748-0.82-1.748-2.104c0-0.974,0.35-1.74,0.836-2.227c0.411-0.402,0.958-0.654,1.581-0.73
					c0.197-0.029,0.364-0.037,0.486-0.037V219.861L193.449,219.861z M193.258,222.711c0-0.707-0.402-1.133-1.018-1.133
					c-0.403,0-0.775,0.251-0.958,0.607c-0.045,0.075-0.076,0.176-0.076,0.297c0.016,0.812,0.388,1.414,1.087,1.414
					C192.871,223.896,193.258,223.417,193.258,222.711z"/>
				<path fill="#F26528" d="M196.594,224.329v-1.345h-2.295v-0.441l2.204-3.152h0.722v3.069h0.691v0.524h-0.691v1.345H196.594
					L196.594,224.329z M196.594,222.46v-1.649c0-0.258,0.008-0.517,0.023-0.774h-0.023c-0.152,0.289-0.273,0.502-0.41,0.729
					l-1.208,1.68v0.016L196.594,222.46L196.594,222.46z"/>
			</g>
		</g>
		<g>
			<g>
				<path fill="#F26528" d="M155.357,218.934h0.669v5.396h-0.669V218.934z"/>
				<path fill="#F26528" d="M159.187,224.329l-0.053-0.464h-0.023c-0.205,0.289-0.6,0.547-1.125,0.547
					c-0.745,0-1.125-0.523-1.125-1.057c0-0.89,0.79-1.375,2.211-1.367v-0.076c0-0.303-0.083-0.852-0.836-0.852
					c-0.342,0-0.699,0.106-0.957,0.273l-0.152-0.439c0.304-0.197,0.745-0.326,1.208-0.326c1.125,0,1.398,0.767,1.398,1.504v1.375
					c0,0.318,0.016,0.631,0.061,0.882H159.187z M159.088,222.452c-0.729-0.015-1.558,0.114-1.558,0.827
					c0,0.434,0.289,0.64,0.631,0.64c0.479,0,0.783-0.304,0.889-0.616c0.022-0.068,0.038-0.145,0.038-0.213V222.452z"/>
				<path fill="#F26528" d="M161.588,219.596v1.057h0.958v0.509h-0.958v1.983c0,0.455,0.129,0.713,0.502,0.713
					c0.174,0,0.304-0.021,0.387-0.045l0.03,0.502c-0.129,0.054-0.334,0.092-0.592,0.092c-0.312,0-0.562-0.1-0.722-0.281
					c-0.19-0.198-0.258-0.523-0.258-0.958v-2.006h-0.57v-0.509h0.57v-0.883L161.588,219.596z"/>
			</g>
		</g>
	</g>
	<g>
		<g>
			<rect x="293.431" y="50.611" fill="#394043" width="0.499" height="36.296"/>
			<g>
				<polygon fill="#FFFFFF" points="295.323,99.052 288.751,99.052 291.41,85.909 295.323,85.909 				"/>
				<polygon fill="#FFFFFF" points="292.038,99.052 298.609,99.052 295.951,85.909 292.038,85.909 				"/>
			</g>
			<path fill="#394043" d="M291.434,85.909c0-1.24,1.006-2.246,2.246-2.246c1.24,0,2.246,1.006,2.246,2.246"/>
		</g>
		<g>
			<rect x="413.764" y="50.611" fill="#394043" width="0.499" height="36.296"/>
			<g>
				<polygon fill="#FFFFFF" points="415.657,99.052 409.084,99.052 411.743,85.909 415.657,85.909 				"/>
				<polygon fill="#FFFFFF" points="412.37,99.052 418.942,99.052 416.284,85.909 412.37,85.909 				"/>
			</g>
			<path fill="#394043" d="M411.768,85.909c0-1.24,1.006-2.246,2.246-2.246c1.241,0,2.246,1.006,2.246,2.246"/>
		</g>
		<g>
			<rect x="534.096" y="50.611" fill="#394043" width="0.5" height="36.296"/>
			<g>
				<polygon fill="#FFFFFF" points="535.989,99.052 529.417,99.052 532.077,85.909 535.989,85.909 				"/>
				<polygon fill="#FFFFFF" points="532.704,99.052 539.274,99.052 536.618,85.909 532.704,85.909 				"/>
			</g>
			<path fill="#394043" d="M532.1,85.909c0-1.24,1.006-2.246,2.246-2.246s2.246,1.006,2.246,2.246"/>
		</g>
		<g>
			<rect x="654.43" y="50.611" fill="#394043" width="0.5" height="36.296"/>
			<g>
				<polygon fill="#FFFFFF" points="656.323,99.052 649.75,99.052 652.411,85.909 656.323,85.909 				"/>
				<polygon fill="#FFFFFF" points="653.038,99.052 659.608,99.052 656.95,85.909 653.038,85.909 				"/>
			</g>
			<path fill="#394043" d="M652.434,85.909c0-1.24,1.006-2.246,2.246-2.246s2.246,1.006,2.246,2.246"/>
		</g>
		<g>
			<rect x="774.762" y="50.611" fill="#394043" width="0.5" height="36.296"/>
			<g>
				<polygon fill="#FFFFFF" points="776.657,99.052 770.083,99.052 772.743,85.909 776.657,85.909 				"/>
				<polygon fill="#FFFFFF" points="773.37,99.052 779.942,99.052 777.284,85.909 773.37,85.909 				"/>
			</g>
			<path fill="#394043" d="M772.766,85.909c0-1.24,1.006-2.246,2.246-2.246s2.246,1.006,2.246,2.246"/>
		</g>
	</g>
	<g>
		<g>
			
				<rect x="684.043" y="234.839" transform="matrix(0.9767 0.2147 -0.2147 0.9767 69.765 -141.2839)" fill="#5E5E5E" width="2.256" height="31.253"/>
			<path fill="#B75F0F" d="M686.995,256.895c-0.398,1.711-2.109,2.775-3.818,2.375l0,0c-1.713-0.398-2.773-2.109-2.375-3.82
				l13.551-58.074c0.398-1.71,2.109-2.773,3.82-2.373l0,0c1.711,0.398,2.773,2.109,2.375,3.818L686.995,256.895z"/>
		</g>
		<g>
			<g>
				<rect x="655.01" y="291.025" fill="#5E5E5E" width="5.99" height="15.738"/>
				<rect x="656.877" y="262.893" fill="#5E5E5E" width="2.256" height="31.254"/>
				<g>
					
						<rect x="665.737" y="298.362" transform="matrix(0.2713 -0.9625 0.9625 0.2713 189.0649 866.1732)" fill="#5E5E5E" width="1.656" height="19.727"/>
					
						<rect x="648.639" y="298.362" transform="matrix(-0.2713 -0.9625 0.9625 -0.2713 528.9963 1016.9551)" fill="#5E5E5E" width="1.656" height="19.727"/>
					<circle fill="#5E5E5E" cx="640.179" cy="312.586" r="2.497"/>
					<circle fill="#5E5E5E" cx="675.832" cy="312.586" r="2.497"/>
				</g>
				<rect x="657.092" y="305.287" fill="#5E5E5E" width="1.828" height="6.41"/>
				<rect x="656.067" y="310.104" fill="#5E5E5E" width="3.877" height="4.98"/>
			</g>
			<path fill="#D39822" d="M684.483,265.973c0,1.977-1.602,3.578-3.58,3.578h-45.797c-1.975,0-3.578-1.602-3.578-3.578l0,0
				c0-1.977,1.604-3.578,3.578-3.578h45.797C682.881,262.395,684.483,263.996,684.483,265.973L684.483,265.973z"/>
		</g>
		<g>
			<g>
				<rect x="672.01" y="246.641" fill="#5E5E5E" width="2.256" height="16.941"/>
				<circle fill="#5E5E5E" cx="673.143" cy="263.582" r="1.133"/>
			</g>
			<path fill="#D39822" d="M689.776,247.564c0,1.342-1.088,2.432-2.434,2.432h-44.664c-1.344,0-2.434-1.09-2.434-2.432l0,0
				c0-1.346,1.09-2.434,2.434-2.434h44.664C688.688,245.131,689.776,246.219,689.776,247.564L689.776,247.564z"/>
		</g>
	</g>
	<g>
		<g>
			
				<rect x="868.739" y="234.839" transform="matrix(0.9767 0.2147 -0.2147 0.9767 74.0733 -180.9437)" fill="#5E5E5E" width="2.256" height="31.253"/>
			<path fill="#B75F0F" d="M871.691,256.895c-0.398,1.711-2.109,2.775-3.818,2.375l0,0c-1.713-0.398-2.773-2.109-2.375-3.82
				l13.551-58.074c0.398-1.71,2.109-2.773,3.82-2.373l0,0c1.711,0.398,2.773,2.109,2.375,3.818L871.691,256.895z"/>
		</g>
		<g>
			<g>
				<rect x="839.707" y="291.025" fill="#5E5E5E" width="5.99" height="15.738"/>
				<rect x="841.574" y="262.893" fill="#5E5E5E" width="2.256" height="31.254"/>
				<g>
					
						<rect x="850.433" y="298.362" transform="matrix(0.2713 -0.9625 0.9625 0.2713 323.6546 1043.9429)" fill="#5E5E5E" width="1.656" height="19.727"/>
					
						<rect x="833.336" y="298.362" transform="matrix(-0.2713 -0.9625 0.9625 -0.2713 763.7993 1194.7247)" fill="#5E5E5E" width="1.656" height="19.727"/>
					<circle fill="#5E5E5E" cx="824.875" cy="312.586" r="2.497"/>
					<circle fill="#5E5E5E" cx="860.528" cy="312.586" r="2.497"/>
				</g>
				<rect x="841.789" y="305.287" fill="#5E5E5E" width="1.828" height="6.41"/>
				<rect x="840.763" y="310.104" fill="#5E5E5E" width="3.877" height="4.98"/>
			</g>
			<path fill="#D39822" d="M869.179,265.973c0,1.977-1.602,3.578-3.58,3.578h-45.797c-1.975,0-3.578-1.602-3.578-3.578l0,0
				c0-1.977,1.604-3.578,3.578-3.578h45.797C867.578,262.395,869.179,263.996,869.179,265.973L869.179,265.973z"/>
		</g>
	</g>
</g>
</svg>
