<?xml version="1.0" encoding="utf-8"?>
<!-- Generator: Adobe Illustrator 16.0.0, SVG Export Plug-In . SVG Version: 6.00 Build 0)  -->
<!DOCTYPE svg PUBLIC "-//W3C//DTD SVG 1.1//EN" "http://www.w3.org/Graphics/SVG/1.1/DTD/svg11.dtd">
<svg version="1.1" id="Layer_1" xmlns="http://www.w3.org/2000/svg" xmlns:xlink="http://www.w3.org/1999/xlink" x="0px" y="0px"
	 width="1054.598px" height="315.707px" viewBox="0 0 1054.598 315.707" enable-background="new 0 0 1054.598 315.707"
	 xml:space="preserve">
<g>
	<path fill="#FFFFFF" d="M23.598,27.085v288.317H1031V27.085H23.598z M1012.442,315.13H42.157V50.343h970.285V315.13
		L1012.442,315.13z"/>
</g>
<g>
	<polygon fill="#DC4A29" points="57.284,34.426 0,34.426 19.094,-0.006 57.284,-0.006 	"/>
	<polygon fill="#DC4A29" points="997.315,34.426 1054.598,34.426 1035.502,-0.006 997.315,-0.006 	"/>
	<rect x="49.817" y="-0.006" fill="#DC4A29" width="964.033" height="34.432"/>
</g>
<g>
	<rect x="42.157" y="114.746" fill="#BAA665" width="67.086" height="200.967"/>
	<circle fill="#B5D6DB" cx="75.7" cy="151.897" r="2.501"/>
	<g>
		<circle fill="#B5D6DB" cx="98.099" cy="214.55" r="3.67"/>
		
			<line fill="none" stroke="#8A9C9F" stroke-width="2.0807" stroke-linecap="round" stroke-linejoin="round" stroke-miterlimit="10" x1="83.924" y1="214.55" x2="98.319" y2="214.55"/>
	</g>
</g>
<g>
	<g>
		<g>
			<g>
				<rect x="856.67" y="246.33" fill="#5E5E5E" width="2.256" height="16.941"/>
				<circle fill="#5E5E5E" cx="857.803" cy="263.271" r="1.133"/>
			</g>
			<path fill="#D39822" d="M874.436,247.254c0,1.342-1.088,2.432-2.434,2.432h-44.664c-1.344,0-2.434-1.09-2.434-2.432l0,0
				c0-1.346,1.09-2.434,2.434-2.434h44.664C873.348,244.82,874.436,245.908,874.436,247.254L874.436,247.254z"/>
		</g>
	</g>
</g>
</svg>
