<?xml version="1.0" encoding="utf-8"?>
<!-- Generator: Adobe Illustrator 16.0.0, SVG Export Plug-In . SVG Version: 6.00 Build 0)  -->
<!DOCTYPE svg PUBLIC "-//W3C//DTD SVG 1.1//EN" "http://www.w3.org/Graphics/SVG/1.1/DTD/svg11.dtd">
<svg version="1.1" id="Layer_1" xmlns="http://www.w3.org/2000/svg" xmlns:xlink="http://www.w3.org/1999/xlink" x="0px" y="0px"
	 width="1055.54px" height="316px" viewBox="0 0 1055.54 316" enable-background="new 0 0 1055.54 316" xml:space="preserve">
<g>
	<rect x="42.194" y="50.611" fill="#90A865" width="971.15" height="265.024"/>
	<g>
		<g>
			<rect x="893.004" y="130.181" fill="#5E5F5F" width="120.412" height="185.454"/>
			<rect x="897.877" y="171.582" fill="#40434C" width="110.668" height="30.67"/>
			<rect x="897.877" y="135.759" fill="#40434C" width="110.668" height="30.671"/>
			<rect x="897.877" y="207.813" fill="#40434C" width="110.668" height="30.671"/>
			<rect x="897.877" y="244.045" fill="#40434C" width="110.668" height="30.672"/>
			<rect x="897.877" y="280.277" fill="#40434C" width="110.668" height="30.67"/>
		</g>
		<g>
			<rect x="900.542" y="232.105" fill="#F7D21E" width="23.021" height="6.379"/>
			<rect x="912.775" y="233.498" fill="#F4F4F4" width="9.054" height="3.594"/>
			<rect x="920.153" y="233.498" fill="#8D9696" width="1.779" height="3.594"/>
			<g>
				
					<line fill="none" stroke="#2B7CBE" stroke-width="0.1026" stroke-miterlimit="10" x1="913.95" y1="236.688" x2="913.95" y2="233.922"/>
				
					<line fill="none" stroke="#2B7CBE" stroke-width="0.1026" stroke-miterlimit="10" x1="914.917" y1="236.688" x2="914.917" y2="233.922"/>
				
					<line fill="none" stroke="#2B7CBE" stroke-width="0.1026" stroke-miterlimit="10" x1="915.885" y1="236.688" x2="915.885" y2="233.922"/>
				
					<line fill="none" stroke="#2B7CBE" stroke-width="0.1026" stroke-miterlimit="10" x1="916.852" y1="236.688" x2="916.852" y2="233.922"/>
				
					<line fill="none" stroke="#2B7CBE" stroke-width="0.1026" stroke-miterlimit="10" x1="917.821" y1="236.688" x2="917.821" y2="233.922"/>
				
					<line fill="none" stroke="#2B7CBE" stroke-width="0.1026" stroke-miterlimit="10" x1="918.788" y1="236.688" x2="918.788" y2="233.922"/>
			</g>
			<g>
				<circle fill="#C2D7D7" cx="904.489" cy="235.317" r="1.503"/>
				<circle fill="#52595A" cx="904.489" cy="235.294" r="1.209"/>
			</g>
		</g>
		<g>
			
				<rect x="999.906" y="251.266" transform="matrix(0.9789 0.2042 -0.2042 0.9789 74.7975 -199.2999)" fill="#4094D1" width="6.38" height="23.022"/>
			
				<rect x="1000.227" y="263.389" transform="matrix(0.9789 0.2041 -0.2041 0.9789 75.7772 -198.8792)" fill="#F4F4F4" width="3.593" height="9.054"/>
			
				<rect x="999.462" y="270.689" transform="matrix(0.9789 0.2041 -0.2041 0.9789 76.5085 -198.6461)" fill="#8D9696" width="3.593" height="1.779"/>
			<g>
				
					<line fill="none" stroke="#2B7CBE" stroke-width="0.1026" stroke-miterlimit="10" x1="1001.346" y1="264.35" x2="1004.051" y2="264.916"/>
				
					<line fill="none" stroke="#2B7CBE" stroke-width="0.1026" stroke-miterlimit="10" x1="1001.147" y1="265.299" x2="1003.854" y2="265.863"/>
				
					<line fill="none" stroke="#2B7CBE" stroke-width="0.1026" stroke-miterlimit="10" x1="1000.95" y1="266.246" x2="1003.657" y2="266.811"/>
				
					<line fill="none" stroke="#2B7CBE" stroke-width="0.1026" stroke-miterlimit="10" x1="1000.752" y1="267.192" x2="1003.459" y2="267.758"/>
				
					<line fill="none" stroke="#2B7CBE" stroke-width="0.1026" stroke-miterlimit="10" x1="1000.555" y1="268.14" x2="1003.261" y2="268.705"/>
				
					<line fill="none" stroke="#2B7CBE" stroke-width="0.1026" stroke-miterlimit="10" x1="1000.358" y1="269.086" x2="1003.063" y2="269.652"/>
			</g>
			<g>
				<circle fill="#C2D7D7" cx="1004.619" cy="255.369" r="1.503"/>
				<circle fill="#52595A" cx="1004.641" cy="255.374" r="1.21"/>
			</g>
		</g>
		<g>
			
				<rect x="990.57" y="251.452" transform="matrix(0.8969 0.4423 -0.4423 0.8969 218.8035 -412.4263)" fill="#4094D1" width="6.379" height="23.022"/>
			
				<rect x="989.64" y="263.144" transform="matrix(0.8969 0.4422 -0.4422 0.8969 220.5717 -410.8286)" fill="#F4F4F4" width="3.595" height="9.054"/>
			
				<rect x="987.986" y="270.137" transform="matrix(0.8969 0.4423 -0.4423 0.8969 221.9666 -409.8435)" fill="#8D9696" width="3.594" height="1.779"/>
			<g>
				
					<line fill="none" stroke="#2B7CBE" stroke-width="0.1026" stroke-miterlimit="10" x1="991.672" y1="264.049" x2="994.151" y2="265.271"/>
				
					<line fill="none" stroke="#2B7CBE" stroke-width="0.1026" stroke-miterlimit="10" x1="991.244" y1="264.917" x2="993.723" y2="266.14"/>
				
					<line fill="none" stroke="#2B7CBE" stroke-width="0.1026" stroke-miterlimit="10" x1="990.815" y1="265.785" x2="993.295" y2="267.008"/>
				
					<line fill="none" stroke="#2B7CBE" stroke-width="0.1026" stroke-miterlimit="10" x1="990.387" y1="266.652" x2="992.868" y2="267.875"/>
				
					<line fill="none" stroke="#2B7CBE" stroke-width="0.1026" stroke-miterlimit="10" x1="989.959" y1="267.52" x2="992.439" y2="268.742"/>
				
					<line fill="none" stroke="#2B7CBE" stroke-width="0.1026" stroke-miterlimit="10" x1="989.532" y1="268.389" x2="992.011" y2="269.611"/>
			</g>
			<g>
				<circle fill="#C2D7D7" cx="997.084" cy="256.169" r="1.503"/>
				<circle fill="#52595A" cx="997.104" cy="256.18" r="1.209"/>
			</g>
		</g>
		<g>
			
				<rect x="980.502" y="252.269" transform="matrix(0.7724 0.6352 -0.6352 0.7724 391.4609 -564.7676)" fill="#4094D1" width="6.377" height="23.023"/>
			
				<rect x="978.56" y="263.308" transform="matrix(0.7726 0.6349 -0.6349 0.7726 392.9644 -561.5049)" fill="#F4F4F4" width="3.595" height="9.056"/>
			
				<rect x="976.183" y="269.835" transform="matrix(0.7723 0.6353 -0.6353 0.7723 394.7191 -559.6623)" fill="#8D9696" width="3.594" height="1.78"/>
			<g>
				
					<line fill="none" stroke="#2B7CBE" stroke-width="0.1026" stroke-miterlimit="10" x1="981.411" y1="264.361" x2="983.545" y2="266.117"/>
				
					<line fill="none" stroke="#2B7CBE" stroke-width="0.1026" stroke-miterlimit="10" x1="980.795" y1="265.109" x2="982.931" y2="266.865"/>
				
					<line fill="none" stroke="#2B7CBE" stroke-width="0.1026" stroke-miterlimit="10" x1="980.181" y1="265.857" x2="982.315" y2="267.613"/>
				
					<line fill="none" stroke="#2B7CBE" stroke-width="0.1026" stroke-miterlimit="10" x1="979.567" y1="266.604" x2="981.702" y2="268.36"/>
				
					<line fill="none" stroke="#2B7CBE" stroke-width="0.1026" stroke-miterlimit="10" x1="978.952" y1="267.352" x2="981.087" y2="269.107"/>
				
					<line fill="none" stroke="#2B7CBE" stroke-width="0.1026" stroke-miterlimit="10" x1="978.337" y1="268.099" x2="980.473" y2="269.855"/>
			</g>
			<g>
				<circle fill="#C2D7D7" cx="988.478" cy="257.924" r="1.503"/>
				<circle fill="#52595A" cx="988.496" cy="257.939" r="1.21"/>
			</g>
		</g>
		<g>
			<rect x="900.542" y="219.227" fill="#224F26" width="23.021" height="6.379"/>
			<rect x="902.276" y="220.619" fill="#F4F4F4" width="9.053" height="3.594"/>
			<rect x="902.171" y="220.619" fill="#8D9696" width="1.78" height="3.594"/>
			<g>
				
					<line fill="none" stroke="#2B7CBE" stroke-width="0.1026" stroke-miterlimit="10" x1="910.155" y1="223.809" x2="910.155" y2="221.043"/>
				
					<line fill="none" stroke="#2B7CBE" stroke-width="0.1026" stroke-miterlimit="10" x1="909.186" y1="223.809" x2="909.186" y2="221.043"/>
				
					<line fill="none" stroke="#2B7CBE" stroke-width="0.1026" stroke-miterlimit="10" x1="908.219" y1="223.809" x2="908.219" y2="221.043"/>
				
					<line fill="none" stroke="#2B7CBE" stroke-width="0.1026" stroke-miterlimit="10" x1="907.251" y1="223.809" x2="907.251" y2="221.043"/>
				
					<line fill="none" stroke="#2B7CBE" stroke-width="0.1026" stroke-miterlimit="10" x1="906.284" y1="223.809" x2="906.284" y2="221.043"/>
				
					<line fill="none" stroke="#2B7CBE" stroke-width="0.1026" stroke-miterlimit="10" x1="905.317" y1="223.809" x2="905.317" y2="221.043"/>
			</g>
			<g>
				<circle fill="#C2D7D7" cx="919.616" cy="222.438" r="1.503"/>
				<circle fill="#52595A" cx="919.616" cy="222.416" r="1.209"/>
			</g>
		</g>
		<g>
			<rect x="903.407" y="225.646" fill="#DC4A29" width="23.021" height="6.379"/>
			<rect x="915.64" y="227.039" fill="#F4F4F4" width="9.054" height="3.594"/>
			<rect x="923.018" y="227.039" fill="#8D9696" width="1.779" height="3.594"/>
			<g>
				
					<line fill="none" stroke="#2B7CBE" stroke-width="0.1026" stroke-miterlimit="10" x1="916.815" y1="230.229" x2="916.815" y2="227.463"/>
				
					<line fill="none" stroke="#2B7CBE" stroke-width="0.1026" stroke-miterlimit="10" x1="917.783" y1="230.229" x2="917.783" y2="227.463"/>
				
					<line fill="none" stroke="#2B7CBE" stroke-width="0.1026" stroke-miterlimit="10" x1="918.75" y1="230.229" x2="918.75" y2="227.463"/>
				
					<line fill="none" stroke="#2B7CBE" stroke-width="0.1026" stroke-miterlimit="10" x1="919.717" y1="230.229" x2="919.717" y2="227.463"/>
				
					<line fill="none" stroke="#2B7CBE" stroke-width="0.1026" stroke-miterlimit="10" x1="920.685" y1="230.229" x2="920.685" y2="227.463"/>
				
					<line fill="none" stroke="#2B7CBE" stroke-width="0.1026" stroke-miterlimit="10" x1="921.653" y1="230.229" x2="921.653" y2="227.463"/>
			</g>
			<g>
				<circle fill="#C2D7D7" cx="907.353" cy="228.858" r="1.503"/>
				<circle fill="#52595A" cx="907.353" cy="228.836" r="1.209"/>
			</g>
		</g>
		<g>
			<rect x="898.512" y="179.23" fill="#F7D21E" width="6.379" height="23.021"/>
			<rect x="899.905" y="191.464" fill="#F4F4F4" width="3.594" height="9.054"/>
			<rect x="899.905" y="198.842" fill="#8D9696" width="3.594" height="1.779"/>
			<g>
				
					<line fill="none" stroke="#2B7CBE" stroke-width="0.1026" stroke-miterlimit="10" x1="900.309" y1="192.639" x2="903.075" y2="192.639"/>
				
					<line fill="none" stroke="#2B7CBE" stroke-width="0.1026" stroke-miterlimit="10" x1="900.309" y1="193.606" x2="903.075" y2="193.606"/>
				
					<line fill="none" stroke="#2B7CBE" stroke-width="0.1026" stroke-miterlimit="10" x1="900.309" y1="194.574" x2="903.075" y2="194.574"/>
				
					<line fill="none" stroke="#2B7CBE" stroke-width="0.1026" stroke-miterlimit="10" x1="900.309" y1="195.541" x2="903.075" y2="195.541"/>
				
					<line fill="none" stroke="#2B7CBE" stroke-width="0.1026" stroke-miterlimit="10" x1="900.309" y1="196.51" x2="903.075" y2="196.51"/>
				
					<line fill="none" stroke="#2B7CBE" stroke-width="0.1026" stroke-miterlimit="10" x1="900.309" y1="197.477" x2="903.075" y2="197.477"/>
			</g>
			<g>
				<circle fill="#C2D7D7" cx="901.679" cy="183.178" r="1.503"/>
				<circle fill="#52595A" cx="901.702" cy="183.178" r="1.209"/>
			</g>
		</g>
		<g>
			<rect x="1000.467" y="179.23" fill="#F7D21E" width="6.378" height="23.021"/>
			<rect x="1001.859" y="191.464" fill="#F4F4F4" width="3.595" height="9.054"/>
			<rect x="1001.859" y="198.842" fill="#8D9696" width="3.595" height="1.779"/>
			<g>
				
					<line fill="none" stroke="#2B7CBE" stroke-width="0.1026" stroke-miterlimit="10" x1="1002.264" y1="192.639" x2="1005.029" y2="192.639"/>
				
					<line fill="none" stroke="#2B7CBE" stroke-width="0.1026" stroke-miterlimit="10" x1="1002.264" y1="193.606" x2="1005.029" y2="193.606"/>
				
					<line fill="none" stroke="#2B7CBE" stroke-width="0.1026" stroke-miterlimit="10" x1="1002.264" y1="194.574" x2="1005.029" y2="194.574"/>
				
					<line fill="none" stroke="#2B7CBE" stroke-width="0.1026" stroke-miterlimit="10" x1="1002.264" y1="195.541" x2="1005.029" y2="195.541"/>
				
					<line fill="none" stroke="#2B7CBE" stroke-width="0.1026" stroke-miterlimit="10" x1="1002.264" y1="196.51" x2="1005.029" y2="196.51"/>
				
					<line fill="none" stroke="#2B7CBE" stroke-width="0.1026" stroke-miterlimit="10" x1="1002.264" y1="197.477" x2="1005.029" y2="197.477"/>
			</g>
			<g>
				<circle fill="#C2D7D7" cx="1003.634" cy="183.178" r="1.503"/>
				<circle fill="#52595A" cx="1003.657" cy="183.178" r="1.209"/>
			</g>
		</g>
		<g>
			
				<rect x="906.671" y="178.851" transform="matrix(0.9884 -0.1519 0.1519 0.9884 -18.3564 140.3914)" fill="#4094D1" width="6.379" height="23.022"/>
			
				<rect x="908.861" y="191.023" transform="matrix(0.9884 -0.1519 0.1519 0.9884 -19.1351 140.5733)" fill="#F4F4F4" width="3.594" height="9.054"/>
			
				<rect x="909.43" y="198.357" transform="matrix(0.9884 -0.1521 0.1521 0.9884 -19.7057 140.9524)" fill="#8D9696" width="3.595" height="1.781"/>
			<g>
				
					<line fill="none" stroke="#2B7CBE" stroke-width="0.1026" stroke-miterlimit="10" x1="908.772" y1="192.449" x2="911.504" y2="192.027"/>
				
					<line fill="none" stroke="#2B7CBE" stroke-width="0.1026" stroke-miterlimit="10" x1="908.919" y1="193.404" x2="911.652" y2="192.984"/>
				
					<line fill="none" stroke="#2B7CBE" stroke-width="0.1026" stroke-miterlimit="10" x1="909.067" y1="194.361" x2="911.799" y2="193.941"/>
				
					<line fill="none" stroke="#2B7CBE" stroke-width="0.1026" stroke-miterlimit="10" x1="909.213" y1="195.317" x2="911.946" y2="194.896"/>
				
					<line fill="none" stroke="#2B7CBE" stroke-width="0.1026" stroke-miterlimit="10" x1="909.361" y1="196.273" x2="912.093" y2="195.854"/>
				
					<line fill="none" stroke="#2B7CBE" stroke-width="0.1026" stroke-miterlimit="10" x1="909.508" y1="197.23" x2="912.241" y2="196.811"/>
			</g>
			<g>
				<circle fill="#C2D7D7" cx="908.687" cy="182.889" r="1.503"/>
				<circle fill="#52595A" cx="908.709" cy="182.886" r="1.209"/>
			</g>
		</g>
		<g>
			
				<rect x="916.154" y="178.851" transform="matrix(0.9106 -0.4133 0.4133 0.9106 3.5269 397.0256)" fill="#224F26" width="6.379" height="23.021"/>
			
				<rect x="919.718" y="190.614" transform="matrix(0.9104 -0.4136 0.4136 0.9104 1.812 398.651)" fill="#F4F4F4" width="3.593" height="9.054"/>
			
				<rect x="921.264" y="197.658" transform="matrix(0.9105 -0.4135 0.4135 0.9105 0.5192 399.4924)" fill="#8D9696" width="3.594" height="1.779"/>
			<g>
				
					<line fill="none" stroke="#2B7CBE" stroke-width="0.1026" stroke-miterlimit="10" x1="918.86" y1="192.664" x2="921.377" y2="191.521"/>
				
					<line fill="none" stroke="#2B7CBE" stroke-width="0.1026" stroke-miterlimit="10" x1="919.26" y1="193.546" x2="921.778" y2="192.402"/>
				
					<line fill="none" stroke="#2B7CBE" stroke-width="0.1026" stroke-miterlimit="10" x1="919.661" y1="194.427" x2="922.178" y2="193.283"/>
				
					<line fill="none" stroke="#2B7CBE" stroke-width="0.1026" stroke-miterlimit="10" x1="920.06" y1="195.308" x2="922.579" y2="194.164"/>
				
					<line fill="none" stroke="#2B7CBE" stroke-width="0.1026" stroke-miterlimit="10" x1="920.461" y1="196.188" x2="922.977" y2="195.045"/>
				
					<line fill="none" stroke="#2B7CBE" stroke-width="0.1026" stroke-miterlimit="10" x1="920.861" y1="197.069" x2="923.377" y2="195.926"/>
			</g>
			<g>
				<circle fill="#C2D7D7" cx="916.195" cy="183.484" r="1.503"/>
				<circle fill="#52595A" cx="916.215" cy="183.475" r="1.21"/>
			</g>
		</g>
		<g>
			<rect x="927.008" y="179.23" fill="#DC4A29" width="6.377" height="23.021"/>
			<rect x="928.399" y="191.464" fill="#F4F4F4" width="3.596" height="9.054"/>
			<rect x="928.399" y="198.842" fill="#8D9696" width="3.596" height="1.779"/>
			<g>
				
					<line fill="none" stroke="#2B7CBE" stroke-width="0.1026" stroke-miterlimit="10" x1="928.805" y1="192.639" x2="931.569" y2="192.639"/>
				
					<line fill="none" stroke="#2B7CBE" stroke-width="0.1026" stroke-miterlimit="10" x1="928.805" y1="193.606" x2="931.569" y2="193.606"/>
				
					<line fill="none" stroke="#2B7CBE" stroke-width="0.1026" stroke-miterlimit="10" x1="928.805" y1="194.574" x2="931.569" y2="194.574"/>
				
					<line fill="none" stroke="#2B7CBE" stroke-width="0.1026" stroke-miterlimit="10" x1="928.805" y1="195.541" x2="931.569" y2="195.541"/>
				
					<line fill="none" stroke="#2B7CBE" stroke-width="0.1026" stroke-miterlimit="10" x1="928.805" y1="196.51" x2="931.569" y2="196.51"/>
				
					<line fill="none" stroke="#2B7CBE" stroke-width="0.1026" stroke-miterlimit="10" x1="928.805" y1="197.477" x2="931.569" y2="197.477"/>
			</g>
			<g>
				<circle fill="#C2D7D7" cx="930.174" cy="183.178" r="1.503"/>
				<circle fill="#52595A" cx="930.197" cy="183.178" r="1.21"/>
			</g>
		</g>
		<g>
			<rect x="991.863" y="179.23" fill="#DC4A29" width="6.378" height="23.021"/>
			<rect x="993.254" y="191.464" fill="#F4F4F4" width="3.595" height="9.054"/>
			<rect x="993.254" y="198.842" fill="#8D9696" width="3.595" height="1.779"/>
			<g>
				
					<line fill="none" stroke="#2B7CBE" stroke-width="0.1026" stroke-miterlimit="10" x1="993.659" y1="192.639" x2="996.424" y2="192.639"/>
				
					<line fill="none" stroke="#2B7CBE" stroke-width="0.1026" stroke-miterlimit="10" x1="993.659" y1="193.606" x2="996.424" y2="193.606"/>
				
					<line fill="none" stroke="#2B7CBE" stroke-width="0.1026" stroke-miterlimit="10" x1="993.659" y1="194.574" x2="996.424" y2="194.574"/>
				
					<line fill="none" stroke="#2B7CBE" stroke-width="0.1026" stroke-miterlimit="10" x1="993.659" y1="195.541" x2="996.424" y2="195.541"/>
				
					<line fill="none" stroke="#2B7CBE" stroke-width="0.1026" stroke-miterlimit="10" x1="993.659" y1="196.51" x2="996.424" y2="196.51"/>
				
					<line fill="none" stroke="#2B7CBE" stroke-width="0.1026" stroke-miterlimit="10" x1="993.659" y1="197.477" x2="996.424" y2="197.477"/>
			</g>
			<g>
				<circle fill="#C2D7D7" cx="995.029" cy="183.178" r="1.503"/>
				<circle fill="#52595A" cx="995.052" cy="183.178" r="1.209"/>
			</g>
		</g>
	</g>
	<g>
		<circle fill="#303030" cx="799.92" cy="146.094" r="17.988"/>
		<circle fill="#FFFFFF" cx="799.813" cy="146.094" r="15.639"/>
		<circle fill="#303030" cx="799.92" cy="146.094" r="1.387"/>
		<rect x="799.274" y="137.252" fill="#303030" width="1.158" height="8.842"/>
		
			<rect x="797.932" y="145.969" transform="matrix(0.963 0.2696 -0.2696 0.963 70.5464 -209.5654)" fill="#303030" width="0.677" height="12.196"/>
	</g>
	<rect x="554.895" y="236.963" fill="#BAA665" width="80.075" height="78.672"/>
	<rect x="551.642" y="233.822" fill="#BAA665" width="86.581" height="3.141"/>
	<rect x="554.895" y="236.963" fill="#9B8A57" width="80.075" height="3.141"/>
	<g>
		<rect x="593.678" y="225.584" fill="#FFFFFF" width="25.949" height="6.924"/>
		<path fill="#0D6CB3" d="M594.337,227.18c0.003-0.037,0.014-0.072,0.018-0.107h-4.215v6.75h31.295v-2.861l-25.076-1.504
			C595.171,229.387,594.266,228.367,594.337,227.18z"/>
	</g>
	<path fill="#FFFFFF" d="M630.04,233.166c0,0.362-0.295,0.656-0.658,0.656h-19.505c-0.364,0-0.657-0.294-0.657-0.656l0,0
		c0-0.363,0.293-0.658,0.657-0.658h19.505C629.745,232.508,630.04,232.803,630.04,233.166L630.04,233.166z"/>
	<g>
		<g>
			<path fill="#FFFFFF" d="M577.37,193.621c-1.418,0.096-2.488,1.322-2.394,2.74l1.986,29.443c0.097,1.418,1.321,2.488,2.739,2.393
				l0.568-0.037l-2.332-34.576L577.37,193.621z"/>
			
				<rect x="579.103" y="193.53" transform="matrix(0.9975 -0.0711 0.0711 0.9975 -13.5223 41.7099)" fill="#272626" width="0.412" height="34.655"/>
		</g>
		<path fill="none" stroke="#FFFFFF" stroke-width="0.6154" stroke-miterlimit="10" d="M576.959,211.682l-8.041,15.627h-0.001
			c-0.079,0.143-0.151,0.291-0.214,0.444c-0.199,0.487-0.311,1.022-0.311,1.584c0,2.308,1.871,4.179,4.18,4.179h9.771"/>
	</g>
	<g>
		<rect x="729.198" y="236.963" fill="#BAA665" width="80.076" height="78.672"/>
		<rect x="725.946" y="233.822" fill="#BAA665" width="86.58" height="3.141"/>
		<rect x="729.198" y="236.963" fill="#9B8A57" width="80.076" height="3.141"/>
		<g>
			<rect x="767.983" y="225.584" fill="#FFFFFF" width="25.947" height="6.924"/>
			<path fill="#0D6CB3" d="M768.641,227.18c0.002-0.037,0.014-0.072,0.018-0.107h-4.215v6.75h31.295v-2.861l-25.076-1.504
				C769.475,229.387,768.571,228.367,768.641,227.18z"/>
		</g>
		<path fill="#FFFFFF" d="M804.342,233.166c0,0.362-0.295,0.656-0.658,0.656H784.18c-0.363,0-0.658-0.294-0.658-0.656l0,0
			c0-0.363,0.295-0.658,0.658-0.658h19.504C804.047,232.508,804.342,232.803,804.342,233.166L804.342,233.166z"/>
		<g>
			<g>
				<path fill="#FFFFFF" d="M751.672,193.621c-1.416,0.096-2.488,1.322-2.393,2.74l1.986,29.443
					c0.096,1.418,1.322,2.488,2.738,2.393l0.569-0.037l-2.333-34.576L751.672,193.621z"/>
				
					<rect x="753.407" y="193.53" transform="matrix(0.9975 -0.0711 0.0711 0.9975 -13.0814 54.0991)" fill="#272626" width="0.412" height="34.655"/>
			</g>
			<path fill="none" stroke="#FFFFFF" stroke-width="0.6154" stroke-miterlimit="10" d="M751.264,211.682l-8.041,15.627h-0.002
				c-0.08,0.143-0.151,0.291-0.214,0.444c-0.2,0.487-0.31,1.022-0.31,1.584c0,2.308,1.871,4.179,4.179,4.179h9.772"/>
		</g>
	</g>
	<g opacity="0.9">
		<polygon fill="none" points="711.032,300.162 710.846,299.977 710.792,300.402 		"/>
		
			<rect x="703.052" y="298.684" transform="matrix(0.7071 0.7071 -0.7071 0.7071 418.5985 -410.262)" fill="#869392" width="2.955" height="2.956"/>
		
			<rect x="700.845" y="300.89" transform="matrix(0.7069 0.7073 -0.7073 0.7069 419.6785 -408.1215)" fill="#869392" width="2.956" height="2.957"/>
		<polygon fill="#869392" points="695.704,302.484 694.1,304.088 694.245,305.205 695.704,306.664 697.794,304.574 		"/>
		<polygon fill="#869392" points="694.547,290.172 692.449,290.172 693.499,291.221 		"/>
		<polygon fill="#869392" points="702.208,313.399 700.117,311.309 698.026,313.4 699.76,315.133 700.474,315.133 		"/>
		<polygon fill="#869392" points="692.319,290.273 692.561,292.156 693.381,291.337 		"/>
		
			<rect x="696.432" y="300.891" transform="matrix(0.7068 0.7074 -0.7074 0.7068 418.5506 -405.0662)" fill="#869392" width="2.957" height="2.956"/>
		
			<rect x="698.638" y="298.684" transform="matrix(0.7071 0.7071 -0.7071 0.7071 417.306 -407.1415)" fill="#869392" width="2.955" height="2.956"/>
		
			<rect x="700.845" y="309.716" transform="matrix(0.7071 -0.7071 0.7071 0.7071 -14.3414 587.7636)" fill="#869392" width="2.955" height="2.955"/>
		<polygon fill="#869392" points="695.704,306.896 694.604,307.998 694.897,310.27 695.704,311.078 697.794,308.986 		"/>
		
			<rect x="700.845" y="296.477" transform="matrix(0.7071 0.7071 -0.7071 0.7071 416.3916 -409.3481)" fill="#869392" width="2.955" height="2.955"/>
		<polygon fill="#869392" points="704.885,315.133 706.62,313.399 704.53,311.309 702.439,313.399 704.172,315.133 704.71,315.133 
					"/>
		
			<rect x="698.639" y="307.509" transform="matrix(0.7073 -0.7069 0.7069 0.7073 -13.4922 585.3909)" fill="#869392" width="2.956" height="2.958"/>
		
			<rect x="696.433" y="305.303" transform="matrix(0.7071 -0.7071 0.7071 0.7071 -12.5138 583.3515)" fill="#869392" width="2.955" height="2.955"/>
		<polygon fill="#869392" points="706.852,313.399 708.584,315.133 708.893,315.133 709.334,311.703 708.942,311.309 		"/>
		
			<rect x="705.257" y="309.716" transform="matrix(0.7071 -0.7071 0.7071 0.7071 -13.0491 590.8834)" fill="#869392" width="2.955" height="2.955"/>
		<polygon fill="#869392" points="708.942,306.896 706.852,308.987 708.942,311.078 709.486,310.533 709.838,307.794 		"/>
		<polygon fill="#869392" points="705.118,315.133 708.352,315.133 706.735,313.516 		"/>
		
			<rect x="703.052" y="307.51" transform="matrix(0.7071 -0.7071 0.7071 0.7071 -12.1354 588.6782)" fill="#869392" width="2.955" height="2.956"/>
		
			<rect x="700.845" y="305.303" transform="matrix(0.7071 -0.7071 0.7071 0.7071 -11.2216 586.4713)" fill="#869392" width="2.955" height="2.955"/>
		<polygon fill="#869392" points="709.362,311.497 709.452,310.8 709.057,311.193 		"/>
		
			<rect x="705.257" y="292.065" transform="matrix(0.7074 0.7068 -0.7068 0.7074 414.234 -413.6244)" fill="#869392" width="2.957" height="2.955"/>
		
			<rect x="707.463" y="294.272" transform="matrix(-0.7068 0.7074 -0.7074 -0.7068 1419.2295 3.2466)" fill="#869392" width="2.957" height="2.955"/>
		<polygon fill="#869392" points="710.874,299.771 711.35,296.068 711.148,295.865 709.057,297.955 		"/>
		
			<rect x="698.639" y="303.096" transform="matrix(0.7073 -0.7069 0.7069 0.7073 -10.3724 584.0991)" fill="#869392" width="2.956" height="2.956"/>
		
			<rect x="703.051" y="294.272" transform="matrix(0.7069 0.7073 -0.7073 0.7069 415.6439 -411.6218)" fill="#869392" width="2.956" height="2.957"/>
		<polygon fill="#869392" points="711.148,295.633 711.445,295.336 711.854,292.159 711.148,291.453 709.057,293.543 		"/>
		<polygon fill="#869392" points="707.786,290.172 705.686,290.172 706.735,291.221 		"/>
		<polygon fill="#869392" points="702.207,291.337 701.042,290.172 699.706,290.172 699.192,290.172 698.026,291.337 
			700.117,293.427 		"/>
		<polygon fill="#869392" points="703.373,290.172 701.274,290.172 702.323,291.221 		"/>
		<polygon fill="#869392" points="693.625,300.404 694.073,303.883 695.588,302.368 		"/>
		<polygon fill="#869392" points="711.881,291.953 712.064,290.537 711.264,291.337 		"/>
		<polygon fill="#869392" points="712.098,290.271 712.111,290.172 710.098,290.172 711.148,291.221 		"/>
		
			<rect x="696.433" y="309.715" transform="matrix(-0.7069 -0.7073 0.7073 -0.7069 971.1943 1024.8015)" fill="#869392" width="2.956" height="2.956"/>
		
			<rect x="703.052" y="303.096" transform="matrix(0.7073 -0.7069 0.7069 0.7073 -9.0809 587.219)" fill="#869392" width="2.956" height="2.957"/>
		
			<rect x="705.258" y="305.303" transform="matrix(-0.7071 -0.7071 0.7071 -0.7071 989.5464 1023.446)" fill="#869392" width="2.955" height="2.957"/>
		
			<rect x="696.433" y="292.065" transform="matrix(0.7071 0.7071 -0.7071 0.7071 411.9795 -407.5206)" fill="#869392" width="2.955" height="2.955"/>
		
			<rect x="705.257" y="300.891" transform="matrix(0.7071 0.7071 -0.7071 0.7071 420.8051 -411.176)" fill="#869392" width="2.958" height="2.956"/>
		<polygon fill="#869392" points="695.588,297.955 693.499,295.865 693.092,296.271 693.569,299.975 		"/>
		
			<rect x="694.226" y="294.272" transform="matrix(0.7071 0.7071 -0.7071 0.7071 412.8939 -405.3139)" fill="#869392" width="2.957" height="2.956"/>
		<polygon fill="#869392" points="698.959,290.172 696.862,290.172 697.911,291.221 		"/>
		
			<rect x="696.433" y="296.477" transform="matrix(0.7071 0.7071 -0.7071 0.7071 415.0994 -406.2283)" fill="#869392" width="2.955" height="2.955"/>
		
			<rect x="698.638" y="294.272" transform="matrix(0.7071 0.7071 -0.7071 0.7071 414.1863 -408.4341)" fill="#869392" width="2.957" height="2.957"/>
		
			<rect x="694.226" y="298.684" transform="matrix(0.7073 0.7069 -0.7069 0.7073 415.8492 -403.9563)" fill="#869392" width="2.956" height="2.955"/>
		<polygon fill="#869392" points="692.971,295.34 693.065,296.066 693.381,295.75 		"/>
		<polygon fill="#869392" points="694.278,305.471 694.578,307.791 695.588,306.781 		"/>
		<polygon fill="#869392" points="708.942,302.484 706.852,304.574 708.942,306.664 710.139,305.469 710.342,303.885 		"/>
		
			<rect x="700.845" y="292.065" transform="matrix(0.7071 0.7071 -0.7071 0.7071 413.2718 -410.6404)" fill="#869392" width="2.955" height="2.955"/>
		<polygon fill="#869392" points="706.852,291.337 708.942,293.427 711.032,291.337 709.867,290.172 708.018,290.172 		"/>
		<polygon fill="#869392" points="706.62,291.337 705.454,290.172 704.71,290.172 703.604,290.172 702.439,291.337 704.53,293.427 
					"/>
		<polygon fill="#869392" points="700.706,315.133 703.94,315.133 702.323,313.516 		"/>
		<polygon fill="#869392" points="696.293,315.133 699.528,315.133 697.911,313.516 		"/>
		<polygon fill="#869392" points="694.93,310.537 695.081,311.699 695.588,311.193 		"/>
		<polygon fill="#869392" points="695.704,311.309 695.108,311.906 695.524,315.133 696.061,315.133 697.794,313.4 		"/>
		<polygon fill="#869392" points="697.794,291.337 696.629,290.172 694.78,290.172 693.614,291.337 695.704,293.427 		"/>
		<polygon fill="#869392" points="709.866,307.588 710.104,305.734 709.057,306.781 		"/>
		<polygon fill="#869392" points="708.942,302.252 710.792,300.402 710.846,299.977 708.942,298.072 706.852,300.162 		"/>
		<polygon fill="#869392" points="711.377,295.862 711.411,295.604 711.264,295.748 		"/>
		<polygon fill="#869392" points="710.37,303.68 710.757,300.67 709.059,302.369 		"/>
		<polygon fill="#869392" points="693.499,295.633 695.588,293.543 693.499,291.453 692.588,292.363 692.938,295.073 		"/>
		
			<rect x="705.257" y="296.477" transform="matrix(0.7071 0.7071 -0.7071 0.7071 417.6839 -412.468)" fill="#869392" width="2.955" height="2.955"/>
		<polygon fill="#EAF1F4" points="711.032,291.337 711.148,291.221 710.098,290.172 709.867,290.172 		"/>
		<polygon fill="#EAF1F4" points="711.148,291.453 711.854,292.159 711.881,291.953 711.264,291.337 		"/>
		<polygon fill="#EAF1F4" points="711.148,295.865 711.35,296.068 711.377,295.862 711.264,295.748 		"/>
		
			<rect x="709.963" y="293.167" transform="matrix(-0.7101 0.7041 -0.7041 -0.7101 1421.7004 3.9142)" fill="#EAF1F4" width="0.164" height="2.956"/>
		
			<rect x="707.758" y="290.962" transform="matrix(-0.7041 0.7101 -0.7101 -0.7041 1413.8979 -4.2735)" fill="#EAF1F4" width="0.164" height="2.955"/>
		<polygon fill="#EAF1F4" points="705.686,290.172 705.454,290.172 706.62,291.337 706.735,291.221 		"/>
		
			<rect x="704.155" y="294.564" transform="matrix(0.7071 0.7071 -0.7071 0.7071 415.0211 -412.6576)" fill="#EAF1F4" width="2.955" height="0.164"/>
		<polygon fill="#EAF1F4" points="701.274,290.172 701.042,290.172 702.207,291.337 702.323,291.221 		"/>
		
			<rect x="701.948" y="292.358" transform="matrix(0.7073 0.7069 -0.7069 0.7073 412.6506 -411.6759)" fill="#EAF1F4" width="2.956" height="0.164"/>
		
			<rect x="707.756" y="295.375" transform="matrix(-0.713 0.7011 -0.7011 -0.713 1420.6791 12.2216)" fill="#EAF1F4" width="0.164" height="2.955"/>
		<polygon fill="#EAF1F4" points="710.846,299.977 710.874,299.771 709.057,297.955 708.942,298.072 		"/>
		
			<rect x="697.536" y="292.358" transform="matrix(0.7073 0.7069 -0.7069 0.7073 411.3589 -408.5565)" fill="#EAF1F4" width="2.956" height="0.164"/>
		
			<rect x="704.155" y="298.976" transform="matrix(0.7071 0.7071 -0.7071 0.7071 418.1413 -411.3652)" fill="#EAF1F4" width="2.955" height="0.164"/>
		
			<rect x="707.757" y="299.788" transform="matrix(-0.7011 0.713 -0.713 -0.7011 1418.9434 7.7888)" fill="#EAF1F4" width="0.164" height="2.955"/>
		<polygon fill="#EAF1F4" points="696.862,290.172 696.629,290.172 697.794,291.337 697.911,291.221 		"/>
		
			<rect x="701.948" y="296.771" transform="matrix(0.7073 0.7069 -0.7069 0.7073 415.77 -410.3842)" fill="#EAF1F4" width="2.956" height="0.164"/>
		<polygon fill="#EAF1F4" points="708.942,302.484 710.342,303.885 710.37,303.68 709.059,302.369 		"/>
		
			<rect x="699.742" y="294.564" transform="matrix(0.7071 0.7071 -0.7071 0.7071 413.7287 -409.5374)" fill="#EAF1F4" width="2.955" height="0.164"/>
		
			<rect x="699.741" y="298.977" transform="matrix(0.7068 0.7074 -0.7074 0.7068 417.1799 -408.3774)" fill="#EAF1F4" width="2.957" height="0.165"/>
		
			<rect x="697.536" y="296.771" transform="matrix(0.7073 0.7069 -0.7069 0.7073 414.4783 -407.2648)" fill="#EAF1F4" width="2.956" height="0.163"/>
		
			<rect x="695.329" y="294.563" transform="matrix(0.7071 0.7071 -0.7071 0.7071 412.4363 -406.4172)" fill="#EAF1F4" width="2.955" height="0.165"/>
		
			<rect x="693.123" y="292.358" transform="matrix(0.7071 0.7071 -0.7071 0.7071 410.2302 -405.5034)" fill="#EAF1F4" width="2.955" height="0.164"/>
		<polygon fill="#EAF1F4" points="708.942,306.896 709.838,307.794 709.866,307.588 709.057,306.781 		"/>
		
			<rect x="704.154" y="303.39" transform="matrix(0.7069 0.7073 -0.7073 0.7069 421.4285 -410.139)" fill="#EAF1F4" width="2.956" height="0.164"/>
		
			<rect x="701.948" y="301.183" transform="matrix(0.7073 0.7069 -0.7069 0.7073 418.8891 -409.0927)" fill="#EAF1F4" width="2.956" height="0.164"/>
		<polygon fill="#EAF1F4" points="693.499,291.221 692.449,290.172 692.305,290.172 692.319,290.273 693.381,291.337 		"/>
		
			<rect x="706.36" y="305.596" transform="matrix(-0.7074 -0.7068 0.7068 -0.7074 992.5436 1022.2089)" fill="#EAF1F4" width="2.957" height="0.164"/>
		
			<rect x="697.536" y="301.183" transform="matrix(0.7073 0.7069 -0.7069 0.7073 417.5974 -405.9732)" fill="#EAF1F4" width="2.956" height="0.163"/>
		
			<rect x="695.329" y="298.977" transform="matrix(0.7068 0.7074 -0.7074 0.7068 415.8861 -405.2559)" fill="#EAF1F4" width="2.957" height="0.166"/>
		
			<rect x="703.343" y="304.2" transform="matrix(0.7041 -0.7101 0.7101 0.7041 -8.9351 589.9111)" fill="#EAF1F4" width="0.165" height="2.955"/>
		
			<rect x="699.742" y="303.39" transform="matrix(0.7071 0.7071 -0.7071 0.7071 419.9694 -406.9524)" fill="#EAF1F4" width="2.955" height="0.164"/>
		<polygon fill="#EAF1F4" points="693.499,295.633 692.938,295.073 692.971,295.34 693.381,295.75 		"/>
		
			<rect x="705.55" y="306.407" transform="matrix(0.7041 -0.7101 0.7101 0.7041 -9.8391 592.156)" fill="#EAF1F4" width="0.164" height="2.955"/>
		<polygon fill="#EAF1F4" points="708.942,311.309 709.334,311.703 709.362,311.497 709.057,311.193 		"/>
		
			<rect x="706.361" y="310.009" transform="matrix(-0.7071 -0.7071 0.7071 -0.7071 989.0884 1029.8755)" fill="#EAF1F4" width="2.955" height="0.164"/>
		
			<rect x="693.123" y="296.771" transform="matrix(0.7071 0.7071 -0.7071 0.7071 413.3504 -404.2111)" fill="#EAF1F4" width="2.955" height="0.163"/>
		
			<rect x="698.931" y="304.2" transform="matrix(0.7011 -0.713 0.713 0.7011 -9.0483 589.7678)" fill="#EAF1F4" width="0.164" height="2.955"/>
		
			<rect x="705.551" y="310.818" transform="matrix(0.7071 -0.7071 0.7071 0.7071 -14.152 590.4269)" fill="#EAF1F4" width="0.163" height="2.956"/>
		
			<rect x="695.329" y="303.389" transform="matrix(0.7069 0.7073 -0.7073 0.7069 418.8422 -403.8972)" fill="#EAF1F4" width="2.956" height="0.165"/>
		<polygon fill="#EAF1F4" points="706.735,313.516 708.352,315.133 708.584,315.133 706.852,313.399 		"/>
		
			<rect x="701.138" y="306.406" transform="matrix(0.7101 -0.7041 0.7041 0.7101 -13.4916 583.0016)" fill="#EAF1F4" width="0.164" height="2.957"/>
		
			<rect x="703.344" y="308.613" transform="matrix(0.7101 -0.7041 0.7041 0.7101 -14.3956 585.2198)" fill="#EAF1F4" width="0.165" height="2.955"/>
		<polygon fill="#EAF1F4" points="695.588,302.368 695.704,302.252 693.614,300.162 693.596,300.18 693.625,300.404 		"/>
		
			<rect x="701.138" y="310.818" transform="matrix(0.7101 -0.7041 0.7041 0.7101 -16.5982 584.2808)" fill="#EAF1F4" width="0.164" height="2.957"/>
		
			<rect x="698.931" y="308.612" transform="matrix(0.7011 -0.713 0.713 0.7011 -12.1943 591.0864)" fill="#EAF1F4" width="0.164" height="2.955"/>
		
			<rect x="696.725" y="306.406" transform="matrix(0.713 -0.7011 0.7011 0.713 -15.9023 576.915)" fill="#EAF1F4" width="0.164" height="2.956"/>
		<polygon fill="#EAF1F4" points="695.704,306.664 694.245,305.205 694.278,305.471 695.588,306.781 		"/>
		<polygon fill="#EAF1F4" points="702.439,313.399 702.323,313.516 703.94,315.133 704.172,315.133 		"/>
		<polygon fill="#EAF1F4" points="699.76,315.133 698.026,313.4 697.911,313.516 699.528,315.133 699.706,315.133 		"/>
		
			<rect x="696.725" y="310.818" transform="matrix(0.713 -0.7011 0.7011 0.713 -18.9965 578.1815)" fill="#EAF1F4" width="0.164" height="2.958"/>
		<polygon fill="#EAF1F4" points="695.704,311.078 694.897,310.27 694.93,310.537 695.588,311.193 		"/>
		<polygon fill="#EAF1F4" points="693.614,291.337 694.78,290.172 694.547,290.172 693.499,291.221 		"/>
		<polygon fill="#EAF1F4" points="693.499,291.453 693.381,291.337 692.561,292.156 692.588,292.363 		"/>
		
			<rect x="693.416" y="291.254" transform="matrix(0.7101 -0.7041 0.7041 0.7101 -4.069 572.7919)" fill="#EAF1F4" width="0.165" height="0.165"/>
		
			<rect x="696.725" y="290.962" transform="matrix(0.7071 0.7071 -0.7071 0.7071 410.8763 -407.0634)" fill="#EAF1F4" width="0.164" height="2.956"/>
		<polygon fill="#EAF1F4" points="698.026,291.337 699.192,290.172 698.959,290.172 697.911,291.221 		"/>
		
			<rect x="694.519" y="293.168" transform="matrix(0.7041 0.7101 -0.7101 0.7041 414.7441 -406.0444)" fill="#EAF1F4" width="0.164" height="2.955"/>
		<polygon fill="#EAF1F4" points="693.499,295.865 693.381,295.75 693.065,296.066 693.092,296.271 		"/>
		
			<rect x="697.828" y="291.255" transform="matrix(0.7041 0.7101 -0.7101 0.7041 413.3735 -409.3732)" fill="#EAF1F4" width="0.164" height="0.164"/>
		
			<rect x="695.622" y="293.461" transform="matrix(0.7101 0.7041 -0.7041 0.7101 408.4091 -404.7647)" fill="#EAF1F4" width="0.165" height="0.164"/>
		
			<rect x="693.417" y="295.667" transform="matrix(-0.7071 0.7071 -0.7071 -0.7071 1393.0022 14.4977)" fill="#EAF1F4" width="0.163" height="0.164"/>
		
			<rect x="698.932" y="293.168" transform="matrix(0.7071 0.7071 -0.7071 0.7071 413.0825 -407.9775)" fill="#EAF1F4" width="0.164" height="2.955"/>
		
			<rect x="701.138" y="290.962" transform="matrix(0.7071 0.7071 -0.7071 0.7071 412.1688 -410.1835)" fill="#EAF1F4" width="0.164" height="2.955"/>
		
			<rect x="696.725" y="295.374" transform="matrix(0.7101 0.7041 -0.7041 0.7101 411.0344 -404.5714)" fill="#EAF1F4" width="0.164" height="2.956"/>
		<polygon fill="#EAF1F4" points="702.439,291.337 703.604,290.172 703.373,290.172 702.323,291.221 		"/>
		<polygon fill="#EAF1F4" points="693.614,300.162 695.704,298.072 695.588,297.955 693.569,299.975 693.59,300.139 		"/>
		
			<rect x="702.241" y="291.255" transform="matrix(0.7071 0.7071 -0.7071 0.7071 411.7119 -411.2866)" fill="#EAF1F4" width="0.164" height="0.164"/>
		
			<rect x="700.035" y="293.461" transform="matrix(0.7071 0.7071 -0.7071 0.7071 412.6257 -409.0805)" fill="#EAF1F4" width="0.164" height="0.164"/>
		
			<rect x="697.828" y="295.667" transform="matrix(0.7011 0.713 -0.713 0.7011 419.4542 -409.2386)" fill="#EAF1F4" width="0.164" height="0.165"/>
		
			<rect x="695.622" y="297.874" transform="matrix(0.713 0.7011 -0.7011 0.713 408.559 -402.2802)" fill="#EAF1F4" width="0.164" height="0.163"/>
		<polygon fill="#EAF1F4" points="693.59,300.139 693.596,300.18 693.614,300.162 		"/>
		
			<rect x="703.344" y="293.168" transform="matrix(0.7101 0.7041 -0.7041 0.7101 411.4246 -409.8821)" fill="#EAF1F4" width="0.165" height="2.955"/>
		
			<rect x="705.55" y="290.962" transform="matrix(0.7041 0.7101 -0.7101 0.7041 416.4416 -414.5302)" fill="#EAF1F4" width="0.164" height="2.955"/>
		
			<rect x="701.138" y="295.374" transform="matrix(0.7071 0.7071 -0.7071 0.7071 415.2889 -408.8911)" fill="#EAF1F4" width="0.163" height="2.956"/>
		<polygon fill="#EAF1F4" points="706.852,291.337 708.018,290.172 707.786,290.172 706.735,291.221 		"/>
		
			<rect x="698.931" y="297.581" transform="matrix(0.7041 0.7101 -0.7101 0.7041 419.1588 -407.8619)" fill="#EAF1F4" width="0.165" height="2.957"/>
		
			<rect x="696.725" y="299.787" transform="matrix(0.7101 0.7041 -0.7041 0.7101 414.1411 -403.2922)" fill="#EAF1F4" width="0.164" height="2.956"/>
		<polygon fill="#EAF1F4" points="695.704,302.484 695.588,302.368 694.073,303.883 694.1,304.088 		"/>
		
			<rect x="706.653" y="291.255" transform="matrix(0.7101 0.7041 -0.7041 0.7101 410.0541 -413.1719)" fill="#EAF1F4" width="0.165" height="0.164"/>
		
			<rect x="704.447" y="293.46" transform="matrix(0.7041 0.7101 -0.7101 0.7041 416.8983 -413.4203)" fill="#EAF1F4" width="0.164" height="0.165"/>
		
			<rect x="702.241" y="295.668" transform="matrix(0.7041 0.7101 -0.7101 0.7041 417.788 -411.191)" fill="#EAF1F4" width="0.165" height="0.164"/>
		
			<rect x="700.035" y="297.873" transform="matrix(0.7101 0.7041 -0.7041 0.7101 412.7702 -406.5821)" fill="#EAF1F4" width="0.164" height="0.164"/>
		
			<rect x="697.829" y="300.08" transform="matrix(0.7071 0.7071 -0.7071 0.7071 416.6598 -405.5815)" fill="#EAF1F4" width="0.163" height="0.164"/>
		
			<rect x="695.622" y="302.286" transform="matrix(0.7101 0.7041 -0.7041 0.7101 414.6233 -402.2059)" fill="#EAF1F4" width="0.165" height="0.164"/>
		
			<rect x="698.932" y="301.994" transform="matrix(0.7101 0.7041 -0.7041 0.7101 416.3348 -404.2061)" fill="#EAF1F4" width="0.164" height="2.955"/>
		<polygon fill="#EAF1F4" points="694.578,307.791 694.604,307.998 695.704,306.896 695.588,306.781 		"/>
		
			<rect x="695.33" y="305.595" transform="matrix(0.7073 -0.7069 0.7069 0.7073 -12.1212 582.0828)" fill="#EAF1F4" width="2.956" height="0.166"/>
		
			<rect x="706.361" y="294.565" transform="matrix(-0.7069 0.7073 -0.7073 -0.7069 1416.6356 2.3094)" fill="#EAF1F4" width="2.956" height="0.164"/>
		
			<rect x="708.566" y="292.358" transform="matrix(-0.7073 0.7069 -0.7069 -0.7073 1418.9769 -2.6854)" fill="#EAF1F4" width="2.956" height="0.164"/>
		
			<rect x="701.138" y="299.787" transform="matrix(0.7101 0.7041 -0.7041 0.7101 415.4203 -406.3993)" fill="#EAF1F4" width="0.164" height="2.955"/>
		
			<rect x="705.551" y="295.375" transform="matrix(0.7071 0.7071 -0.7071 0.7071 416.5814 -412.0113)" fill="#EAF1F4" width="0.163" height="2.955"/>
		
			<rect x="703.343" y="297.581" transform="matrix(0.7071 0.7071 -0.7071 0.7071 417.4958 -409.8049)" fill="#EAF1F4" width="0.166" height="2.957"/>
		<polygon fill="#EAF1F4" points="711.264,291.337 712.064,290.537 712.098,290.271 711.148,291.221 		"/>
		
			<rect x="711.066" y="291.255" transform="matrix(0.7071 0.7071 -0.7071 0.7071 414.2967 -417.5269)" fill="#EAF1F4" width="0.164" height="0.164"/>
		
			<rect x="708.86" y="293.461" transform="matrix(-0.7041 0.7101 -0.7101 -0.7041 1416.5601 -3.1767)" fill="#EAF1F4" width="0.164" height="0.164"/>
		
			<rect x="706.653" y="295.668" transform="matrix(0.7071 0.7071 -0.7071 0.7071 416.125 -413.1145)" fill="#EAF1F4" width="0.166" height="0.164"/>
		
			<rect x="704.447" y="297.873" transform="matrix(0.7071 0.7071 -0.7071 0.7071 417.0378 -410.9081)" fill="#EAF1F4" width="0.163" height="0.164"/>
		
			<rect x="702.241" y="300.08" transform="matrix(0.7101 0.7041 -0.7041 0.7101 414.9638 -407.4955)" fill="#EAF1F4" width="0.164" height="0.164"/>
		
			<rect x="700.034" y="302.287" transform="matrix(0.7041 0.7101 -0.7101 0.7041 421.8351 -407.6659)" fill="#EAF1F4" width="0.165" height="0.165"/>
		
			<rect x="697.829" y="304.493" transform="matrix(0.7101 -0.7041 0.7041 0.7101 -12.1211 579.7119)" fill="#EAF1F4" width="0.164" height="0.165"/>
		
			<rect x="695.621" y="306.699" transform="matrix(0.7011 -0.713 0.713 0.7011 -10.8236 587.7375)" fill="#EAF1F4" width="0.164" height="0.163"/>
		<polygon fill="#EAF1F4" points="711.411,295.604 711.445,295.336 711.148,295.633 711.264,295.748 		"/>
		<polygon fill="#EAF1F4" points="695.588,311.193 695.081,311.699 695.108,311.906 695.704,311.309 		"/>
		
			<rect x="699.742" y="305.595" transform="matrix(0.7071 -0.7071 0.7071 0.7071 -10.7643 585.3682)" fill="#EAF1F4" width="2.955" height="0.165"/>
		
			<rect x="706.361" y="298.976" transform="matrix(-0.7071 0.7071 -0.7071 -0.7071 1419.822 10.0076)" fill="#EAF1F4" width="2.955" height="0.166"/>
		
			<rect x="703.344" y="301.994" transform="matrix(0.7101 0.7041 -0.7041 0.7101 417.6392 -407.3231)" fill="#EAF1F4" width="0.165" height="2.956"/>
		
			<rect x="705.551" y="299.787" transform="matrix(0.7071 0.7071 -0.7071 0.7071 419.7012 -410.719)" fill="#EAF1F4" width="0.163" height="2.955"/>
		
			<rect x="696.725" y="308.612" transform="matrix(0.7041 0.7101 -0.7101 0.7041 426.3388 -403.0314)" fill="#EAF1F4" width="0.165" height="2.958"/>
		
			<rect x="708.566" y="296.769" transform="matrix(-0.7073 0.7069 -0.7069 -0.7073 1422.0957 4.8465)" fill="#EAF1F4" width="2.956" height="0.165"/>
		
			<rect x="697.535" y="307.802" transform="matrix(0.7071 -0.7071 0.7071 0.7071 -12.9705 584.454)" fill="#EAF1F4" width="2.955" height="0.163"/>
		
			<rect x="711.065" y="295.667" transform="matrix(-0.7041 0.7101 -0.7101 -0.7041 1421.8965 -0.9587)" fill="#EAF1F4" width="0.165" height="0.164"/>
		
			<rect x="708.86" y="297.875" transform="matrix(-0.7011 0.713 -0.713 -0.7011 1418.4592 1.3727)" fill="#EAF1F4" width="0.164" height="0.163"/>
		
			<rect x="706.653" y="300.08" transform="matrix(0.7071 0.7071 -0.7071 0.7071 419.2448 -411.8223)" fill="#EAF1F4" width="0.166" height="0.164"/>
		
			<rect x="704.447" y="302.286" transform="matrix(0.7041 0.7101 -0.7101 0.7041 423.1649 -410.809)" fill="#EAF1F4" width="0.164" height="0.165"/>
		
			<rect x="702.241" y="304.493" transform="matrix(0.7101 -0.7041 0.7041 0.7101 -10.842 582.8185)" fill="#EAF1F4" width="0.164" height="0.165"/>
		
			<rect x="700.034" y="306.698" transform="matrix(0.7041 -0.7101 0.7101 0.7041 -10.697 587.8877)" fill="#EAF1F4" width="0.165" height="0.164"/>
		
			<rect x="697.829" y="308.905" transform="matrix(0.7101 -0.7041 0.7041 0.7101 -15.2278 580.9911)" fill="#EAF1F4" width="0.164" height="0.165"/>
		
			<rect x="695.622" y="311.112" transform="matrix(0.7071 -0.7071 0.7071 0.7071 -16.28 583.0831)" fill="#EAF1F4" width="0.163" height="0.163"/>
		
			<rect x="706.362" y="303.39" transform="matrix(-0.7071 0.7071 -0.7071 -0.7071 1422.9442 17.5406)" fill="#EAF1F4" width="2.955" height="0.163"/>
		
			<rect x="697.535" y="312.215" transform="matrix(0.7069 -0.7073 0.7073 0.7069 -16.0271 585.9136)" fill="#EAF1F4" width="2.956" height="0.164"/>
		
			<rect x="704.154" y="305.596" transform="matrix(0.7069 -0.7073 0.7073 0.7069 -9.4058 588.6554)" fill="#EAF1F4" width="2.956" height="0.164"/>
		<polygon fill="#EAF1F4" points="710.757,300.67 710.792,300.402 708.942,302.252 709.059,302.369 		"/>
		
			<rect x="701.949" y="307.802" transform="matrix(0.7071 -0.7071 0.7071 0.7071 -11.6783 587.5747)" fill="#EAF1F4" width="2.955" height="0.165"/>
		
			<rect x="699.742" y="310.009" transform="matrix(0.7071 -0.7071 0.7071 0.7071 -13.8843 586.6609)" fill="#EAF1F4" width="2.957" height="0.164"/>
		<polygon fill="#EAF1F4" points="697.794,313.4 696.061,315.133 696.293,315.133 697.911,313.516 		"/>
		
			<rect x="708.86" y="302.285" transform="matrix(-0.713 0.7011 -0.7011 -0.713 1426.4366 20.8962)" fill="#EAF1F4" width="0.164" height="0.166"/>
		
			<rect x="706.654" y="304.491" transform="matrix(-0.7011 -0.713 0.713 -0.7011 985.088 1022.0427)" fill="#EAF1F4" width="0.164" height="0.166"/>
		
			<rect x="704.447" y="306.699" transform="matrix(0.7101 -0.7041 0.7041 0.7101 -11.7456 585.0374)" fill="#EAF1F4" width="0.165" height="0.165"/>
		
			<rect x="702.241" y="308.905" transform="matrix(0.7041 -0.7101 0.7101 0.7041 -11.6016 590.1323)" fill="#EAF1F4" width="0.164" height="0.164"/>
		
			<rect x="700.035" y="311.112" transform="matrix(0.7101 -0.7041 0.7041 0.7101 -16.1415 583.184)" fill="#EAF1F4" width="0.164" height="0.164"/>
		
			<rect x="697.828" y="313.319" transform="matrix(-0.7101 -0.7041 0.7041 -0.7101 972.8144 1027.3513)" fill="#EAF1F4" width="0.164" height="0.163"/>
		
			<rect x="707.756" y="306.406" transform="matrix(-0.7101 -0.7041 0.7041 -0.7101 993.6516 1024.9182)" fill="#EAF1F4" width="0.165" height="2.956"/>
		
			<rect x="701.948" y="312.214" transform="matrix(0.7071 -0.7071 0.7071 0.7071 -14.7982 588.8666)" fill="#EAF1F4" width="2.955" height="0.164"/>
		
			<rect x="704.154" y="310.009" transform="matrix(0.7069 -0.7073 0.7073 0.7069 -12.5267 589.9485)" fill="#EAF1F4" width="2.956" height="0.163"/>
		<polygon fill="#EAF1F4" points="708.942,306.664 709.057,306.781 710.104,305.734 710.139,305.469 		"/>
		<polygon fill="#EAF1F4" points="702.208,313.399 700.474,315.133 700.706,315.133 702.323,313.516 		"/>
		
			<rect x="708.86" y="306.699" transform="matrix(0.7011 -0.713 0.713 0.7011 -6.8672 597.1767)" fill="#EAF1F4" width="0.164" height="0.163"/>
		
			<rect x="706.654" y="308.905" transform="matrix(-0.7041 -0.7101 0.7101 -0.7041 984.9536 1028.3923)" fill="#EAF1F4" width="0.164" height="0.165"/>
		
			<rect x="704.448" y="311.111" transform="matrix(0.713 -0.7011 0.7011 0.713 -16.0067 583.2791)" fill="#EAF1F4" width="0.164" height="0.164"/>
		
			<rect x="702.241" y="313.318" transform="matrix(0.7071 0.7071 -0.7071 0.7071 427.3126 -404.825)" fill="#EAF1F4" width="0.164" height="0.164"/>
		
			<rect x="707.756" y="310.818" transform="matrix(-0.7101 -0.7041 0.7041 -0.7101 990.5448 1032.4631)" fill="#EAF1F4" width="0.165" height="2.956"/>
		<polygon fill="#EAF1F4" points="706.62,313.399 704.885,315.133 705.118,315.133 706.735,313.516 		"/>
		<polygon fill="#EAF1F4" points="708.942,311.078 709.057,311.193 709.452,310.8 709.486,310.533 		"/>
		
			<rect x="708.86" y="311.112" transform="matrix(-0.7071 0.7071 -0.7071 -0.7071 1430.2864 29.9427)" fill="#EAF1F4" width="0.163" height="0.163"/>
		
			<rect x="706.653" y="313.318" transform="matrix(0.7101 0.7041 -0.7041 0.7101 425.5893 -406.7751)" fill="#EAF1F4" width="0.165" height="0.164"/>
	</g>
	<g>
		<rect x="393.28" y="150.708" fill="#5B6462" width="121.498" height="164.927"/>
		<rect x="397.132" y="181.037" fill="#8B9E99" width="5.082" height="21.943"/>
		<rect x="397.132" y="257.443" fill="#8B9E99" width="5.082" height="21.943"/>
		
			<line fill="none" stroke="#5B6462" stroke-width="0.4103" stroke-miterlimit="10" x1="397.132" y1="204.01" x2="402.214" y2="204.01"/>
		
			<line fill="none" stroke="#5B6462" stroke-width="0.4103" stroke-miterlimit="10" x1="397.132" y1="280.416" x2="402.214" y2="280.416"/>
		<rect x="402.214" y="160.646" fill="#8B9E99" width="103.63" height="145.051"/>
		<g>
			<circle fill="#BDD9D4" cx="460.417" cy="233.172" r="5.841"/>
			<g>
				<g>
					
						<rect x="446.75" y="232.666" transform="matrix(-0.9999 0.011 -0.011 -0.9999 923.38 461.2458)" fill="#BDD9D4" width="27.335" height="1.01"/>
					<circle fill="#BDD9D4" cx="474.083" cy="233.021" r="1.618"/>
					<circle fill="#BDD9D4" cx="446.751" cy="233.321" r="1.618"/>
				</g>
				<g>
					
						<rect x="446.75" y="232.666" transform="matrix(-0.529 -0.8486 0.8486 -0.529 506.0918 747.2402)" fill="#BDD9D4" width="27.334" height="1.01"/>
					<circle fill="#BDD9D4" cx="467.647" cy="244.77" r="1.618"/>
					<circle fill="#BDD9D4" cx="453.188" cy="221.573" r="1.619"/>
				</g>
				<g>
					
						<rect x="446.75" y="232.666" transform="matrix(0.4341 -0.9009 0.9009 0.4341 50.4932 546.7232)" fill="#BDD9D4" width="27.335" height="1.011"/>
					<circle fill="#BDD9D4" cx="454.484" cy="245.484" r="1.618"/>
					<circle fill="#BDD9D4" cx="466.35" cy="220.859" r="1.619"/>
				</g>
			</g>
		</g>
		<g>
			<rect x="481.909" y="224.096" fill="#BDD9D4" width="14.727" height="18.152"/>
			<g>
				<g>
					<rect x="483.844" y="226.104" fill="#FEF293" width="2.648" height="2.648"/>
					<rect x="487.948" y="226.104" fill="#FEF293" width="2.648" height="2.648"/>
					<rect x="492.052" y="226.104" fill="#FEF293" width="2.648" height="2.648"/>
				</g>
				<g>
					<rect x="483.844" y="229.933" fill="#FEF293" width="2.648" height="2.647"/>
					<rect x="487.948" y="229.933" fill="#FEF293" width="2.648" height="2.647"/>
					<rect x="492.052" y="229.933" fill="#FEF293" width="2.648" height="2.647"/>
				</g>
				<g>
					<rect x="483.844" y="233.762" fill="#FEF293" width="2.648" height="2.648"/>
					<rect x="487.948" y="233.762" fill="#FEF293" width="2.648" height="2.648"/>
					<rect x="492.052" y="233.762" fill="#FEF293" width="2.648" height="2.648"/>
				</g>
				<g>
					<rect x="483.844" y="237.592" fill="#FEF293" width="2.648" height="2.648"/>
					<rect x="487.948" y="237.592" fill="#FEF293" width="2.648" height="2.648"/>
					<rect x="492.052" y="237.592" fill="#FEF293" width="2.648" height="2.648"/>
				</g>
			</g>
		</g>
	</g>
	<g>
		<g>
			<path fill="#356732" d="M110.019,236.283c2.529,15.521,4.628,37.214,2.934,37.659c-1.695,0.444-6.543-20.525-9.071-36.048
				c-2.528-15.521-1.779-19.719-0.084-20.165C105.493,217.285,107.492,220.76,110.019,236.283z"/>
			<path fill="#356732" d="M118.165,232.395c-1.592,18.188-5.177,42.946-6.898,42.656c-1.722-0.289-0.93-25.518,0.663-43.705
				s3.382-22.447,5.104-22.158C118.754,209.479,119.757,214.207,118.165,232.395z"/>
			<path fill="#3D7D3C" d="M115.33,225.636c0,20.187-1.795,47.927-4.009,47.927c-2.213,0-4.008-27.74-4.008-47.927
				s1.795-25.175,4.008-25.175C113.535,200.461,115.33,205.449,115.33,225.636z"/>
		</g>
		<path fill="#A4B7B8" d="M95.423,312.24c0,1.492,1.21,2.705,2.704,2.705h27.946c1.493,0,2.704-1.213,2.704-2.705v-46.709H95.423
			V312.24z"/>
		
			<path fill="none" stroke="#798C8C" stroke-width="2.0513" stroke-linecap="round" stroke-linejoin="round" stroke-miterlimit="10" d="
			M116.202,269.957v5.984c0,1.037-0.84,1.877-1.877,1.877h-11.424c-1.038,0-1.878-0.84-1.878-1.877v-5.984"/>
		<g>
			<path fill="#FFFFFF" d="M126.948,267.883c0-0.51-0.414-0.924-0.925-0.924l0,0c-0.512,0-0.927,0.414-0.927,0.924v41.653
				c0,0.509,0.416,0.923,0.927,0.923l0,0c0.511,0,0.925-0.414,0.925-0.923V267.883z"/>
			<circle fill="#FFFFFF" cx="126.028" cy="312.229" r="0.933"/>
		</g>
	</g>
	<g>
		<rect x="230.128" y="151.119" fill="#E4C28F" width="130.982" height="68.111"/>
		<rect x="232.455" y="153.601" fill="#FFFFFF" width="126.329" height="63.147"/>
		<g>
			
				<line fill="none" stroke="#C0E5EF" stroke-width="0.4103" stroke-miterlimit="10" x1="241.997" y1="159.084" x2="241.997" y2="211.38"/>
			
				<line fill="none" stroke="#C0E5EF" stroke-width="0.4103" stroke-miterlimit="10" x1="247.192" y1="159.084" x2="247.192" y2="211.38"/>
			
				<line fill="none" stroke="#C0E5EF" stroke-width="0.4103" stroke-miterlimit="10" x1="252.387" y1="159.084" x2="252.387" y2="211.38"/>
			
				<line fill="none" stroke="#C0E5EF" stroke-width="0.4103" stroke-miterlimit="10" x1="257.582" y1="159.084" x2="257.582" y2="211.38"/>
			
				<line fill="none" stroke="#C0E5EF" stroke-width="0.4103" stroke-miterlimit="10" x1="262.777" y1="159.084" x2="262.777" y2="211.38"/>
			
				<line fill="none" stroke="#C0E5EF" stroke-width="0.4103" stroke-miterlimit="10" x1="267.972" y1="159.084" x2="267.972" y2="211.38"/>
			
				<line fill="none" stroke="#C0E5EF" stroke-width="0.4103" stroke-miterlimit="10" x1="273.167" y1="159.084" x2="273.167" y2="211.38"/>
			
				<line fill="none" stroke="#C0E5EF" stroke-width="0.4103" stroke-miterlimit="10" x1="278.361" y1="159.084" x2="278.361" y2="211.38"/>
			
				<line fill="none" stroke="#C0E5EF" stroke-width="0.4103" stroke-miterlimit="10" x1="283.556" y1="159.084" x2="283.556" y2="211.38"/>
			
				<line fill="none" stroke="#C0E5EF" stroke-width="0.4103" stroke-miterlimit="10" x1="288.751" y1="159.084" x2="288.751" y2="211.38"/>
			
				<line fill="none" stroke="#C0E5EF" stroke-width="0.4103" stroke-miterlimit="10" x1="293.946" y1="159.084" x2="293.946" y2="211.38"/>
			
				<line fill="none" stroke="#C0E5EF" stroke-width="0.4103" stroke-miterlimit="10" x1="299.141" y1="159.084" x2="299.141" y2="211.38"/>
			
				<line fill="none" stroke="#C0E5EF" stroke-width="0.4103" stroke-miterlimit="10" x1="304.336" y1="159.084" x2="304.336" y2="211.38"/>
			
				<line fill="none" stroke="#C0E5EF" stroke-width="0.4103" stroke-miterlimit="10" x1="309.531" y1="159.084" x2="309.531" y2="211.38"/>
			
				<line fill="none" stroke="#C0E5EF" stroke-width="0.4103" stroke-miterlimit="10" x1="314.726" y1="159.084" x2="314.726" y2="211.38"/>
			
				<line fill="none" stroke="#C0E5EF" stroke-width="0.4103" stroke-miterlimit="10" x1="319.921" y1="159.084" x2="319.921" y2="211.38"/>
			
				<line fill="none" stroke="#C0E5EF" stroke-width="0.4103" stroke-miterlimit="10" x1="325.116" y1="159.084" x2="325.116" y2="211.38"/>
			
				<line fill="none" stroke="#C0E5EF" stroke-width="0.4103" stroke-miterlimit="10" x1="330.311" y1="159.084" x2="330.311" y2="211.38"/>
			
				<line fill="none" stroke="#C0E5EF" stroke-width="0.4103" stroke-miterlimit="10" x1="335.506" y1="159.084" x2="335.506" y2="211.38"/>
			
				<line fill="none" stroke="#C0E5EF" stroke-width="0.4103" stroke-miterlimit="10" x1="340.701" y1="159.084" x2="340.701" y2="211.38"/>
			
				<line fill="none" stroke="#C0E5EF" stroke-width="0.4103" stroke-miterlimit="10" x1="345.896" y1="159.084" x2="345.896" y2="211.38"/>
		</g>
		
			<polyline opacity="0.6" fill="none" stroke="#F15E3C" stroke-width="1.641" stroke-linecap="round" stroke-linejoin="round" stroke-miterlimit="10" points="
			237.373,203.473 261.091,170.455 271.558,189.312 280.072,176.697 287.518,189.157 290.52,183.154 301.545,201.336 
			306.797,190.658 311.935,198.047 324.807,175.881 337.563,191.467 348.82,175.881 		"/>
	</g>
	<g>
		<rect x="652.948" y="122.721" fill="#569BD4" width="55.07" height="74.722"/>
		
			<rect x="652.948" y="122.721" fill="none" stroke="#FFFFFF" stroke-width="1.641" stroke-miterlimit="10" width="55.07" height="74.722"/>
		<g>
			<path fill="#E52A5A" d="M689.784,123.538h2.915l-1.62,6.434h1.012c2.392,0,4.363,0.547,5.91,1.642
				c1.549,1.096,2.324,2.267,2.324,3.514c0,0.761-0.289,1.43-0.869,2.008c-0.578,0.578-1.247,0.867-2.008,0.867
				c-0.578,0-1.081-0.106-1.508-0.321c-0.273-0.122-0.987-0.701-2.145-1.738c-1.004-0.916-2.207-1.542-3.606-1.878l-5.02,19.381
				c2.971,2.617,5.036,4.975,6.2,7.075c1.162,2.099,1.744,4.197,1.744,6.297c0,4.138-1.471,7.941-4.412,11.408
				c-2.943,3.471-6.762,5.705-11.458,6.71l-2.933,11.655h-2.916l2.896-11.134c-0.76,0.062-1.487,0.092-2.186,0.092
				c-3.613,0-6.08-0.419-7.4-1.255s-1.98-1.908-1.98-3.217c0-0.822,0.289-1.537,0.867-2.145c0.578-0.609,1.234-0.912,1.964-0.912
				c0.64,0,1.858,0.488,3.655,1.461c1.34,0.73,2.224,1.158,2.648,1.279c0.854,0.244,1.979,0.427,3.381,0.549l5.538-22.002
				c-2.794-2.527-4.659-4.68-5.601-6.46c-0.941-1.781-1.411-3.782-1.411-6.006c0-3.834,1.345-7.32,4.036-10.456
				c2.69-3.135,6.107-5.128,10.25-5.979L689.784,123.538z M678.206,181.117c3.16-0.609,5.644-1.91,7.452-3.902
				c1.808-1.992,2.712-4.238,2.712-6.732c0-1.432-0.274-2.686-0.82-3.766c-0.548-1.08-1.977-2.852-4.287-5.316L678.206,181.117z
				 M687.249,133.788c-2.744,0.579-4.842,1.757-6.289,3.539c-1.449,1.781-2.174,3.797-2.174,6.049c0,2.313,1.346,4.916,4.038,7.809
				L687.249,133.788z"/>
		</g>
	</g>
	<g>
		<rect x="148.507" y="151.3" fill="#242935" width="56.478" height="79.289"/>
		<g>
			<g>
				<path fill="#F26528" d="M184.542,159.586c0,1.68-0.623,2.606-1.717,2.606c-0.965,0-1.619-0.904-1.634-2.538
					c0-1.656,0.714-2.568,1.717-2.568C183.95,157.086,184.542,158.014,184.542,159.586z M181.86,159.662
					c0,1.284,0.395,2.014,1.003,2.014c0.684,0,1.011-0.798,1.011-2.06c0-1.216-0.312-2.014-1.003-2.014
					C182.286,157.603,181.86,158.316,181.86,159.662z"/>
				<path fill="#F26528" d="M185.211,161.714c0-0.281,0.19-0.479,0.456-0.479c0.266,0,0.448,0.198,0.448,0.479
					c0,0.273-0.175,0.479-0.456,0.479C185.394,162.192,185.211,161.987,185.211,161.714z"/>
				<path fill="#F26528" d="M187.119,161.638c0.145,0.015,0.312,0,0.54-0.022c0.387-0.054,0.752-0.213,1.034-0.479
					c0.326-0.297,0.562-0.73,0.653-1.314h-0.023c-0.273,0.334-0.668,0.531-1.163,0.531c-0.889,0-1.459-0.668-1.459-1.512
					c0-0.936,0.676-1.756,1.687-1.756s1.634,0.82,1.634,2.082c0,1.087-0.365,1.847-0.851,2.318c-0.38,0.371-0.904,0.6-1.437,0.66
					c-0.243,0.039-0.456,0.046-0.615,0.039V161.638z M187.362,158.796c0,0.615,0.372,1.048,0.95,1.048
					c0.448,0,0.798-0.22,0.973-0.516c0.038-0.061,0.061-0.137,0.061-0.244c0-0.843-0.312-1.488-1.011-1.488
					C187.765,157.596,187.362,158.097,187.362,158.796z"/>
				<path fill="#F26528" d="M193.578,157.732h-1.885l-0.189,1.269c0.114-0.015,0.22-0.03,0.402-0.03c0.38,0,0.76,0.084,1.064,0.266
					c0.388,0.221,0.707,0.646,0.707,1.27c0,0.965-0.768,1.687-1.839,1.687c-0.539,0-0.995-0.151-1.231-0.304l0.167-0.51
					c0.205,0.122,0.607,0.273,1.056,0.273c0.631,0,1.171-0.41,1.171-1.07c-0.008-0.639-0.434-1.095-1.421-1.095
					c-0.281,0-0.501,0.03-0.684,0.054l0.319-2.372h2.363V157.732z"/>
				<path fill="#F26528" d="M197.347,157.641c-0.137-0.008-0.312,0-0.501,0.03c-1.049,0.175-1.604,0.942-1.717,1.755h0.023
					c0.235-0.311,0.646-0.569,1.193-0.569c0.874,0,1.489,0.631,1.489,1.596c0,0.904-0.616,1.74-1.641,1.74
					c-1.057,0-1.748-0.821-1.748-2.104c0-0.973,0.35-1.74,0.836-2.227c0.41-0.403,0.958-0.654,1.581-0.729
					c0.198-0.031,0.365-0.038,0.486-0.038V157.641z M197.157,160.49c0-0.707-0.403-1.133-1.019-1.133
					c-0.402,0-0.775,0.252-0.957,0.608c-0.046,0.076-0.076,0.175-0.076,0.296c0.015,0.813,0.388,1.414,1.087,1.414
					C196.769,161.676,197.157,161.197,197.157,160.49z"/>
			</g>
		</g>
		<g>
			<g>
				<path fill="#F26528" d="M158.435,161.105c0,0.381,0.007,0.715,0.03,1.004h-0.593l-0.038-0.601h-0.015
					c-0.175,0.296-0.562,0.684-1.216,0.684c-0.578,0-1.269-0.319-1.269-1.61v-2.15h0.669v2.036c0,0.698,0.212,1.17,0.82,1.17
					c0.448,0,0.76-0.312,0.882-0.608c0.038-0.098,0.061-0.22,0.061-0.342v-2.256h0.669V161.105z"/>
				<path fill="#F26528" d="M159.453,161.425c0.198,0.13,0.547,0.267,0.881,0.267c0.486,0,0.714-0.244,0.714-0.547
					c0-0.32-0.19-0.494-0.684-0.677c-0.661-0.235-0.973-0.601-0.973-1.042c0-0.592,0.479-1.078,1.269-1.078
					c0.373,0,0.699,0.105,0.904,0.228l-0.167,0.486c-0.145-0.091-0.411-0.212-0.752-0.212c-0.395,0-0.615,0.228-0.615,0.501
					c0,0.304,0.22,0.44,0.699,0.623c0.638,0.243,0.965,0.562,0.965,1.109c0,0.646-0.502,1.103-1.375,1.103
					c-0.403,0-0.775-0.1-1.034-0.252L159.453,161.425z"/>
				<path fill="#F26528" d="M165.73,156.714v4.445c0,0.327,0.007,0.698,0.03,0.95h-0.601l-0.03-0.639h-0.015
					c-0.205,0.41-0.653,0.722-1.253,0.722c-0.89,0-1.573-0.752-1.573-1.869c-0.008-1.224,0.752-1.976,1.649-1.976
					c0.562,0,0.942,0.266,1.109,0.562h0.015v-2.196H165.73z M165.061,159.928c0-0.084-0.008-0.197-0.03-0.281
					c-0.099-0.426-0.464-0.775-0.965-0.775c-0.691,0-1.102,0.608-1.102,1.422c0,0.744,0.365,1.359,1.086,1.359
					c0.448,0,0.859-0.296,0.98-0.797c0.022-0.092,0.03-0.183,0.03-0.289V159.928z"/>
			</g>
		</g>
		<g>
			<g>
				<path fill="#F26528" d="M183.327,170.997v-1.345h-2.295v-0.441l2.204-3.153h0.722v3.07h0.691v0.524h-0.691v1.345H183.327z
					 M183.327,169.128v-1.649c0-0.258,0.008-0.517,0.023-0.775h-0.023c-0.152,0.289-0.273,0.502-0.41,0.73l-1.208,1.679v0.016
					H183.327z"/>
				<path fill="#F26528" d="M185.211,170.602c0-0.281,0.19-0.479,0.456-0.479c0.266,0,0.448,0.197,0.448,0.479
					c0,0.273-0.175,0.479-0.456,0.479C185.394,171.08,185.211,170.875,185.211,170.602z"/>
				<path fill="#F26528" d="M186.731,170.997v-0.41l0.524-0.509c1.262-1.201,1.831-1.84,1.839-2.584c0-0.502-0.243-0.965-0.98-0.965
					c-0.448,0-0.82,0.228-1.048,0.418l-0.212-0.472c0.342-0.288,0.828-0.501,1.398-0.501c1.064,0,1.512,0.729,1.512,1.436
					c0,0.912-0.661,1.649-1.702,2.652l-0.396,0.365v0.015h2.219v0.555H186.731z"/>
				<path fill="#F26528" d="M190.629,170.997v-0.41l0.524-0.509c1.261-1.201,1.831-1.84,1.839-2.584c0-0.502-0.243-0.965-0.98-0.965
					c-0.448,0-0.82,0.228-1.049,0.418l-0.212-0.472c0.342-0.288,0.828-0.501,1.398-0.501c1.064,0,1.512,0.729,1.512,1.436
					c0,0.912-0.661,1.649-1.702,2.652l-0.395,0.365v0.015h2.219v0.555H190.629z"/>
				<path fill="#F26528" d="M196.594,170.997v-1.345h-2.295v-0.441l2.204-3.153h0.722v3.07h0.691v0.524h-0.691v1.345H196.594z
					 M196.594,169.128v-1.649c0-0.258,0.008-0.517,0.023-0.775h-0.023c-0.152,0.289-0.273,0.502-0.41,0.73l-1.208,1.679v0.016
					H196.594z"/>
			</g>
		</g>
		<g>
			<g>
				<path fill="#F26528" d="M155.729,169.279c0.015,0.904,0.593,1.277,1.261,1.277c0.479,0,0.768-0.084,1.019-0.19l0.114,0.479
					c-0.236,0.105-0.639,0.228-1.224,0.228c-1.132,0-1.809-0.745-1.809-1.854s0.653-1.982,1.725-1.982
					c1.201,0,1.52,1.056,1.52,1.732c0,0.137-0.015,0.242-0.023,0.311H155.729z M157.69,168.801c0.008-0.426-0.175-1.086-0.927-1.086
					c-0.677,0-0.973,0.623-1.026,1.086H157.69z"/>
				<path fill="#F26528" d="M162.242,169.994c0,0.38,0.008,0.715,0.03,1.003h-0.592l-0.038-0.601h-0.015
					c-0.175,0.297-0.562,0.684-1.216,0.684c-0.578,0-1.269-0.318-1.269-1.61v-2.15h0.668v2.036c0,0.699,0.213,1.17,0.821,1.17
					c0.449,0,0.76-0.311,0.881-0.607c0.038-0.099,0.061-0.221,0.061-0.342v-2.257h0.668V169.994z"/>
				<path fill="#F26528" d="M163.351,168.467c0-0.434-0.007-0.806-0.03-1.147h0.585l0.023,0.722h0.03
					c0.167-0.494,0.57-0.805,1.018-0.805c0.076,0,0.129,0.007,0.19,0.021v0.631c-0.068-0.015-0.137-0.022-0.228-0.022
					c-0.471,0-0.805,0.357-0.896,0.858c-0.015,0.092-0.031,0.197-0.031,0.312v1.96h-0.661V168.467z"/>
			</g>
		</g>
		<g>
			<g>
				<path fill="#F26528" d="M181.199,178.633c0-0.623,0.373-1.064,0.98-1.322l-0.007-0.022c-0.547-0.259-0.783-0.685-0.783-1.109
					c0-0.782,0.661-1.315,1.527-1.315c0.958,0,1.436,0.602,1.436,1.217c0,0.418-0.205,0.865-0.813,1.154v0.023
					c0.615,0.242,0.996,0.676,0.996,1.276c0,0.858-0.737,1.437-1.679,1.437C181.822,179.971,181.199,179.355,181.199,178.633z
					 M183.859,178.603c0-0.601-0.418-0.89-1.087-1.079c-0.577,0.167-0.889,0.547-0.889,1.018c-0.023,0.502,0.357,0.943,0.987,0.943
					C183.471,179.484,183.859,179.111,183.859,178.603z M182.02,176.133c0,0.494,0.372,0.76,0.942,0.912
					c0.425-0.145,0.752-0.449,0.752-0.896c0-0.396-0.235-0.806-0.836-0.806C182.324,175.343,182.02,175.707,182.02,176.133z"/>
				<path fill="#F26528" d="M185.211,179.492c0-0.281,0.19-0.479,0.456-0.479c0.266,0,0.448,0.198,0.448,0.479
					c0,0.273-0.175,0.479-0.456,0.479C185.394,179.971,185.211,179.766,185.211,179.492z"/>
				<path fill="#F26528" d="M186.67,178.633c0-0.623,0.372-1.064,0.98-1.322l-0.008-0.022c-0.547-0.259-0.783-0.685-0.783-1.109
					c0-0.782,0.661-1.315,1.527-1.315c0.958,0,1.436,0.602,1.436,1.217c0,0.418-0.205,0.865-0.813,1.154v0.023
					c0.616,0.242,0.996,0.676,0.996,1.276c0,0.858-0.737,1.437-1.68,1.437C187.293,179.971,186.67,179.355,186.67,178.633z
					 M189.33,178.603c0-0.601-0.417-0.89-1.086-1.079c-0.578,0.167-0.889,0.547-0.889,1.018c-0.022,0.502,0.357,0.943,0.988,0.943
					C188.942,179.484,189.33,179.111,189.33,178.603z M187.491,176.133c0,0.494,0.373,0.76,0.942,0.912
					c0.426-0.145,0.752-0.449,0.752-0.896c0-0.396-0.236-0.806-0.836-0.806C187.795,175.343,187.491,175.707,187.491,176.133z"/>
				<path fill="#F26528" d="M190.629,179.887v-0.41l0.524-0.51c1.261-1.2,1.831-1.838,1.839-2.583c0-0.501-0.243-0.966-0.98-0.966
					c-0.448,0-0.82,0.229-1.049,0.418l-0.212-0.471c0.342-0.289,0.828-0.502,1.398-0.502c1.064,0,1.512,0.73,1.512,1.437
					c0,0.912-0.661,1.649-1.702,2.652l-0.395,0.364v0.016h2.219v0.555H190.629z"/>
				<path fill="#F26528" d="M194.687,179.119c0.19,0.121,0.631,0.312,1.094,0.312c0.859,0,1.125-0.547,1.117-0.958
					c-0.008-0.691-0.631-0.987-1.277-0.987h-0.372v-0.501h0.372c0.486,0,1.102-0.251,1.102-0.836c0-0.396-0.25-0.745-0.866-0.745
					c-0.395,0-0.775,0.175-0.988,0.327l-0.175-0.486c0.258-0.19,0.76-0.381,1.292-0.381c0.973,0,1.413,0.578,1.413,1.178
					c0,0.51-0.304,0.943-0.912,1.163v0.016c0.608,0.122,1.102,0.577,1.102,1.269c0,0.791-0.616,1.482-1.801,1.482
					c-0.555,0-1.041-0.176-1.284-0.335L194.687,179.119z"/>
			</g>
		</g>
		<g>
			<g>
				<path fill="#F26528" d="M155.6,176.209l0.806,2.174c0.084,0.242,0.175,0.531,0.235,0.752h0.016
					c0.068-0.221,0.145-0.502,0.235-0.768l0.729-2.158h0.707l-1.003,2.621c-0.479,1.262-0.805,1.908-1.261,2.303
					c-0.327,0.289-0.653,0.402-0.821,0.434l-0.167-0.562c0.167-0.053,0.387-0.16,0.585-0.327c0.182-0.144,0.411-0.402,0.562-0.745
					c0.031-0.068,0.054-0.121,0.054-0.158c0-0.039-0.016-0.092-0.046-0.176l-1.36-3.389H155.6z"/>
				<path fill="#F26528" d="M159.233,178.17c0.015,0.904,0.593,1.275,1.261,1.275c0.479,0,0.768-0.083,1.018-0.189l0.114,0.479
					c-0.235,0.107-0.639,0.229-1.224,0.229c-1.132,0-1.809-0.745-1.809-1.854s0.654-1.983,1.725-1.983
					c1.201,0,1.52,1.057,1.52,1.732c0,0.137-0.016,0.244-0.023,0.312H159.233z M161.193,177.69c0.007-0.425-0.175-1.087-0.927-1.087
					c-0.676,0-0.973,0.623-1.026,1.087H161.193z"/>
				<path fill="#F26528" d="M162.667,177.204c0-0.38-0.008-0.691-0.03-0.995h0.593l0.038,0.607h0.015
					c0.183-0.35,0.608-0.691,1.216-0.691c0.51,0,1.3,0.305,1.3,1.565v2.196h-0.669v-2.12c0-0.593-0.22-1.087-0.851-1.087
					c-0.441,0-0.783,0.312-0.897,0.684c-0.031,0.084-0.045,0.198-0.045,0.312v2.211h-0.669V177.204z"/>
			</g>
		</g>
		<g>
			<g>
				<path fill="#F26528" d="M184.208,184.397h-1.885l-0.19,1.269c0.114-0.015,0.22-0.029,0.403-0.029c0.38,0,0.76,0.083,1.063,0.266
					c0.388,0.221,0.707,0.646,0.707,1.269c0,0.966-0.768,1.687-1.839,1.687c-0.54,0-0.996-0.151-1.231-0.303l0.167-0.51
					c0.205,0.121,0.608,0.273,1.056,0.273c0.631,0,1.17-0.41,1.17-1.071c-0.008-0.638-0.433-1.095-1.421-1.095
					c-0.281,0-0.501,0.031-0.684,0.054l0.319-2.371h2.363V184.397z"/>
				<path fill="#F26528" d="M185.211,188.379c0-0.281,0.19-0.479,0.456-0.479c0.266,0,0.448,0.197,0.448,0.479
					c0,0.273-0.175,0.479-0.456,0.479C185.394,188.857,185.211,188.652,185.211,188.379z"/>
				<path fill="#F26528" d="M186.731,188.774v-0.41l0.524-0.509c1.262-1.201,1.831-1.84,1.839-2.584c0-0.502-0.243-0.965-0.98-0.965
					c-0.448,0-0.82,0.228-1.048,0.418l-0.212-0.472c0.342-0.288,0.828-0.501,1.398-0.501c1.064,0,1.512,0.729,1.512,1.436
					c0,0.912-0.661,1.649-1.702,2.652l-0.396,0.365v0.015h2.219v0.555H186.731z"/>
				<path fill="#F26528" d="M193.836,183.835v0.44l-2.15,4.499h-0.691l2.143-4.369v-0.016h-2.417v-0.555H193.836z"/>
				<path fill="#F26528" d="M194.528,188.774v-0.41l0.524-0.509c1.261-1.201,1.832-1.84,1.839-2.584c0-0.502-0.243-0.965-0.98-0.965
					c-0.448,0-0.821,0.228-1.049,0.418l-0.213-0.472c0.342-0.288,0.828-0.501,1.398-0.501c1.063,0,1.512,0.729,1.512,1.436
					c0,0.912-0.661,1.649-1.702,2.652l-0.395,0.365v0.015h2.219v0.555H194.528z"/>
			</g>
		</g>
		<g>
			<g>
				<path fill="#F26528" d="M155.357,186.244c0-0.434-0.007-0.806-0.03-1.147h0.585l0.023,0.722h0.03
					c0.167-0.494,0.57-0.805,1.018-0.805c0.076,0,0.129,0.007,0.19,0.021v0.631c-0.068-0.015-0.137-0.022-0.228-0.022
					c-0.471,0-0.805,0.357-0.896,0.858c-0.015,0.092-0.031,0.197-0.031,0.312v1.96h-0.661V186.244z"/>
				<path fill="#F26528" d="M160.919,187.771c0,0.38,0.008,0.715,0.03,1.003h-0.592l-0.038-0.601h-0.015
					c-0.175,0.297-0.562,0.684-1.216,0.684c-0.578,0-1.269-0.318-1.269-1.61v-2.15h0.668v2.036c0,0.699,0.213,1.17,0.821,1.17
					c0.449,0,0.76-0.311,0.881-0.607c0.038-0.099,0.061-0.221,0.061-0.342v-2.257h0.668V187.771z"/>
				<path fill="#F26528" d="M161.999,188.774c0.016-0.251,0.03-0.623,0.03-0.95v-4.445h0.661v2.311h0.016
					c0.235-0.41,0.661-0.676,1.254-0.676c0.912,0,1.558,0.76,1.55,1.876c0,1.315-0.828,1.968-1.649,1.968
					c-0.532,0-0.958-0.205-1.231-0.691h-0.022l-0.031,0.608H161.999z M162.69,187.301c0,0.083,0.016,0.166,0.031,0.242
					c0.129,0.464,0.517,0.783,1.003,0.783c0.699,0,1.117-0.57,1.117-1.414c0-0.736-0.38-1.367-1.094-1.367
					c-0.456,0-0.882,0.312-1.019,0.82c-0.015,0.076-0.038,0.168-0.038,0.273V187.301z"/>
			</g>
		</g>
		<g>
			<g>
				<path fill="#F26528" d="M182.711,193.347h-0.016l-0.858,0.464l-0.129-0.51l1.079-0.577h0.569v4.939h-0.646V193.347z"/>
				<path fill="#F26528" d="M185.211,197.268c0-0.281,0.19-0.479,0.456-0.479c0.266,0,0.448,0.197,0.448,0.479
					c0,0.273-0.175,0.479-0.456,0.479C185.394,197.746,185.211,197.541,185.211,197.268z"/>
				<path fill="#F26528" d="M189.55,193.195c-0.137-0.008-0.312,0-0.501,0.03c-1.049,0.175-1.604,0.942-1.717,1.755h0.022
					c0.236-0.312,0.646-0.57,1.193-0.57c0.874,0,1.489,0.631,1.489,1.596c0,0.904-0.615,1.74-1.642,1.74
					c-1.056,0-1.748-0.82-1.748-2.104c0-0.973,0.35-1.739,0.836-2.226c0.411-0.403,0.958-0.654,1.581-0.73
					c0.197-0.03,0.365-0.037,0.486-0.037V193.195z M189.36,196.045c0-0.707-0.403-1.133-1.018-1.133
					c-0.403,0-0.775,0.251-0.958,0.607c-0.045,0.076-0.076,0.176-0.076,0.297c0.015,0.813,0.388,1.414,1.086,1.414
					C188.973,197.23,189.36,196.751,189.36,196.045z"/>
				<path fill="#F26528" d="M193.449,193.195c-0.137-0.008-0.312,0-0.502,0.03c-1.048,0.175-1.604,0.942-1.717,1.755h0.023
					c0.235-0.312,0.646-0.57,1.193-0.57c0.874,0,1.49,0.631,1.49,1.596c0,0.904-0.616,1.74-1.642,1.74
					c-1.056,0-1.748-0.82-1.748-2.104c0-0.973,0.35-1.739,0.836-2.226c0.411-0.403,0.958-0.654,1.581-0.73
					c0.197-0.03,0.364-0.037,0.486-0.037V193.195z M193.258,196.045c0-0.707-0.402-1.133-1.018-1.133
					c-0.403,0-0.775,0.251-0.958,0.607c-0.045,0.076-0.076,0.176-0.076,0.297c0.016,0.813,0.388,1.414,1.087,1.414
					C192.871,197.23,193.258,196.751,193.258,196.045z"/>
				<path fill="#F26528" d="M194.528,197.663v-0.41l0.524-0.509c1.261-1.201,1.832-1.84,1.839-2.584c0-0.502-0.243-0.965-0.98-0.965
					c-0.448,0-0.821,0.228-1.049,0.418l-0.213-0.472c0.342-0.288,0.828-0.501,1.398-0.501c1.063,0,1.512,0.729,1.512,1.436
					c0,0.912-0.661,1.649-1.702,2.652l-0.395,0.365v0.015h2.219v0.555H194.528z"/>
			</g>
		</g>
		<g>
			<g>
				<path fill="#F26528" d="M157.394,197.663l-0.054-0.464h-0.022c-0.205,0.289-0.601,0.547-1.125,0.547
					c-0.744,0-1.125-0.523-1.125-1.056c0-0.89,0.791-1.376,2.211-1.368v-0.076c0-0.303-0.084-0.851-0.836-0.851
					c-0.342,0-0.699,0.106-0.958,0.273l-0.152-0.44c0.304-0.197,0.745-0.326,1.208-0.326c1.125,0,1.398,0.767,1.398,1.504v1.375
					c0,0.319,0.015,0.631,0.061,0.882H157.394z M157.295,195.786c-0.729-0.015-1.558,0.114-1.558,0.828
					c0,0.433,0.289,0.639,0.631,0.639c0.479,0,0.783-0.304,0.889-0.616c0.023-0.068,0.038-0.145,0.038-0.213V195.786z"/>
				<path fill="#F26528" d="M158.602,197.275l1.664-2.166c0.16-0.197,0.312-0.372,0.479-0.569v-0.015h-1.991v-0.54h2.804
					l-0.008,0.418l-1.641,2.136c-0.152,0.205-0.304,0.387-0.471,0.577v0.015h2.15v0.532h-2.986V197.275z"/>
				<path fill="#F26528" d="M165.396,192.268v4.445c0,0.327,0.008,0.699,0.031,0.95h-0.601l-0.03-0.638h-0.016
					c-0.205,0.41-0.653,0.721-1.253,0.721c-0.889,0-1.573-0.752-1.573-1.869c-0.008-1.223,0.752-1.975,1.648-1.975
					c0.562,0,0.942,0.266,1.109,0.562h0.016v-2.196H165.396z M164.727,195.482c0-0.084-0.008-0.197-0.03-0.281
					c-0.099-0.426-0.464-0.775-0.965-0.775c-0.691,0-1.102,0.607-1.102,1.422c0,0.744,0.365,1.359,1.087,1.359
					c0.448,0,0.858-0.297,0.98-0.798c0.022-0.091,0.03-0.183,0.03-0.288V195.482z"/>
			</g>
		</g>
		<g>
			<g>
				<path fill="#F26528" d="M181.419,205.785c0.19,0.121,0.631,0.311,1.094,0.311c0.859,0,1.125-0.547,1.117-0.957
					c-0.008-0.691-0.631-0.988-1.277-0.988h-0.372v-0.501h0.372c0.486,0,1.102-0.251,1.102-0.836c0-0.396-0.25-0.745-0.866-0.745
					c-0.395,0-0.775,0.176-0.988,0.327l-0.175-0.486c0.258-0.19,0.76-0.38,1.292-0.38c0.973,0,1.413,0.578,1.413,1.178
					c0,0.51-0.304,0.942-0.912,1.162v0.016c0.608,0.122,1.102,0.578,1.102,1.27c0,0.79-0.616,1.481-1.801,1.481
					c-0.555,0-1.041-0.175-1.284-0.335L181.419,205.785z"/>
				<path fill="#F26528" d="M185.211,206.157c0-0.281,0.19-0.479,0.456-0.479c0.266,0,0.448,0.198,0.448,0.479
					c0,0.273-0.175,0.479-0.456,0.479C185.394,206.636,185.211,206.431,185.211,206.157z"/>
				<path fill="#F26528" d="M186.891,205.785c0.19,0.121,0.631,0.311,1.094,0.311c0.858,0,1.125-0.547,1.117-0.957
					c-0.008-0.691-0.631-0.988-1.276-0.988h-0.373v-0.501h0.373c0.486,0,1.102-0.251,1.102-0.836c0-0.396-0.251-0.745-0.866-0.745
					c-0.396,0-0.775,0.176-0.988,0.327l-0.175-0.486c0.259-0.19,0.76-0.38,1.292-0.38c0.973,0,1.414,0.578,1.414,1.178
					c0,0.51-0.304,0.942-0.912,1.162v0.016c0.607,0.122,1.102,0.578,1.102,1.27c0,0.79-0.615,1.481-1.801,1.481
					c-0.555,0-1.041-0.175-1.284-0.335L186.891,205.785z"/>
				<path fill="#F26528" d="M193.578,202.176h-1.885l-0.189,1.269c0.114-0.015,0.22-0.03,0.402-0.03c0.38,0,0.76,0.084,1.064,0.266
					c0.388,0.221,0.707,0.646,0.707,1.27c0,0.965-0.768,1.687-1.839,1.687c-0.539,0-0.995-0.151-1.231-0.304l0.167-0.51
					c0.205,0.122,0.607,0.273,1.056,0.273c0.631,0,1.171-0.41,1.171-1.07c-0.008-0.639-0.434-1.095-1.421-1.095
					c-0.281,0-0.501,0.03-0.684,0.054l0.319-2.371h2.363V202.176z"/>
				<path fill="#F26528" d="M194.467,205.299c0-0.623,0.373-1.064,0.98-1.322l-0.007-0.023c-0.547-0.258-0.783-0.684-0.783-1.109
					c0-0.782,0.661-1.314,1.527-1.314c0.958,0,1.436,0.601,1.436,1.216c0,0.418-0.205,0.866-0.813,1.155v0.022
					c0.615,0.243,0.996,0.677,0.996,1.276c0,0.859-0.737,1.437-1.679,1.437C195.09,206.636,194.467,206.021,194.467,205.299z
					 M197.126,205.268c0-0.6-0.418-0.889-1.087-1.078c-0.577,0.166-0.889,0.547-0.889,1.018c-0.023,0.502,0.357,0.942,0.987,0.942
					C196.739,206.149,197.126,205.777,197.126,205.268z M195.288,202.799c0,0.494,0.372,0.76,0.942,0.912
					c0.425-0.145,0.752-0.449,0.752-0.897c0-0.396-0.235-0.806-0.836-0.806C195.591,202.008,195.288,202.373,195.288,202.799z"/>
			</g>
		</g>
		<g>
			<g>
				<path fill="#F26528" d="M157.394,206.553l-0.054-0.464h-0.022c-0.205,0.288-0.601,0.547-1.125,0.547
					c-0.744,0-1.125-0.524-1.125-1.056c0-0.89,0.791-1.376,2.211-1.368v-0.076c0-0.304-0.084-0.851-0.836-0.851
					c-0.342,0-0.699,0.105-0.958,0.273l-0.152-0.441c0.304-0.197,0.745-0.326,1.208-0.326c1.125,0,1.398,0.768,1.398,1.504v1.376
					c0,0.319,0.015,0.63,0.061,0.882H157.394z M157.295,204.676c-0.729-0.016-1.558,0.113-1.558,0.828
					c0,0.433,0.289,0.639,0.631,0.639c0.479,0,0.783-0.305,0.889-0.616c0.023-0.068,0.038-0.145,0.038-0.213V204.676z"/>
				<path fill="#F26528" d="M159.02,204.021c0-0.433-0.008-0.805-0.03-1.146h0.585l0.023,0.721h0.03
					c0.167-0.493,0.57-0.805,1.018-0.805c0.076,0,0.129,0.008,0.19,0.022v0.631c-0.068-0.015-0.137-0.022-0.229-0.022
					c-0.471,0-0.805,0.357-0.896,0.858c-0.015,0.091-0.03,0.197-0.03,0.312v1.961h-0.661V204.021z"/>
				<path fill="#F26528" d="M161.535,203.869c0-0.379-0.007-0.691-0.03-0.994h0.585l0.031,0.592h0.022
					c0.205-0.35,0.547-0.676,1.155-0.676c0.501,0,0.881,0.304,1.041,0.736h0.015c0.114-0.205,0.258-0.364,0.41-0.479
					c0.22-0.167,0.463-0.258,0.813-0.258c0.486,0,1.208,0.318,1.208,1.596v2.166h-0.654v-2.082c0-0.707-0.258-1.133-0.798-1.133
					c-0.38,0-0.676,0.281-0.79,0.607c-0.03,0.092-0.053,0.213-0.053,0.335v2.272h-0.654v-2.204c0-0.585-0.258-1.011-0.768-1.011
					c-0.417,0-0.722,0.334-0.828,0.669c-0.038,0.099-0.053,0.212-0.053,0.327v2.219h-0.654V203.869z"/>
			</g>
		</g>
		<g>
			<g>
				<path fill="#F26528" d="M184.542,212.918c0,1.68-0.623,2.606-1.717,2.606c-0.965,0-1.619-0.904-1.634-2.538
					c0-1.656,0.714-2.568,1.717-2.568C183.95,210.418,184.542,211.346,184.542,212.918z M181.86,212.994
					c0,1.284,0.395,2.014,1.003,2.014c0.684,0,1.011-0.798,1.011-2.06c0-1.216-0.312-2.014-1.003-2.014
					C182.286,210.935,181.86,211.648,181.86,212.994z"/>
				<path fill="#F26528" d="M185.211,215.046c0-0.281,0.19-0.479,0.456-0.479c0.266,0,0.448,0.198,0.448,0.479
					c0,0.273-0.175,0.479-0.456,0.479C185.394,215.524,185.211,215.319,185.211,215.046z"/>
				<path fill="#F26528" d="M186.891,214.674c0.19,0.121,0.631,0.311,1.094,0.311c0.858,0,1.125-0.547,1.117-0.957
					c-0.008-0.691-0.631-0.988-1.276-0.988h-0.373v-0.501h0.373c0.486,0,1.102-0.251,1.102-0.836c0-0.396-0.251-0.745-0.866-0.745
					c-0.396,0-0.775,0.176-0.988,0.327l-0.175-0.486c0.259-0.19,0.76-0.38,1.292-0.38c0.973,0,1.414,0.578,1.414,1.178
					c0,0.51-0.304,0.942-0.912,1.162v0.016c0.607,0.122,1.102,0.578,1.102,1.27c0,0.79-0.615,1.481-1.801,1.481
					c-0.555,0-1.041-0.175-1.284-0.335L186.891,214.674z"/>
				<path fill="#F26528" d="M190.629,215.441v-0.41l0.524-0.51c1.261-1.201,1.831-1.839,1.839-2.584c0-0.501-0.243-0.965-0.98-0.965
					c-0.448,0-0.82,0.229-1.049,0.418l-0.212-0.471c0.342-0.289,0.828-0.502,1.398-0.502c1.064,0,1.512,0.729,1.512,1.437
					c0,0.911-0.661,1.649-1.702,2.651l-0.395,0.365v0.016h2.219v0.555H190.629z"/>
				<path fill="#F26528" d="M196.594,215.441v-1.346h-2.295v-0.44l2.204-3.153h0.722v3.07h0.691v0.523h-0.691v1.346H196.594z
					 M196.594,213.572v-1.649c0-0.259,0.008-0.517,0.023-0.775h-0.023c-0.152,0.289-0.273,0.501-0.41,0.729l-1.208,1.68v0.016
					H196.594z"/>
			</g>
		</g>
		<g>
			<g>
				<path fill="#F26528" d="M158.435,214.438c0,0.381,0.007,0.715,0.03,1.004h-0.593l-0.038-0.601h-0.015
					c-0.175,0.296-0.562,0.684-1.216,0.684c-0.578,0-1.269-0.319-1.269-1.61v-2.15h0.669v2.036c0,0.698,0.212,1.17,0.82,1.17
					c0.448,0,0.76-0.312,0.882-0.608c0.038-0.098,0.061-0.22,0.061-0.342v-2.256h0.669V214.438z"/>
				<path fill="#F26528" d="M160.206,213.45h0.015c0.092-0.13,0.221-0.289,0.327-0.418l1.079-1.269h0.806l-1.421,1.512l1.619,2.166
					h-0.813l-1.269-1.764l-0.342,0.381v1.383h-0.661v-5.396h0.661V213.45z"/>
				<path fill="#F26528" d="M163.237,212.91c0-0.433-0.007-0.805-0.03-1.146h0.585l0.023,0.721h0.03
					c0.167-0.493,0.57-0.805,1.019-0.805c0.076,0,0.129,0.008,0.189,0.022v0.631c-0.068-0.015-0.137-0.022-0.228-0.022
					c-0.471,0-0.806,0.357-0.897,0.858c-0.015,0.091-0.03,0.197-0.03,0.312v1.961h-0.661V212.91z"/>
			</g>
		</g>
		<g>
			<g>
				<path fill="#F26528" d="M182.711,220.013h-0.016l-0.858,0.464l-0.129-0.51l1.079-0.577h0.569v4.939h-0.646V220.013z"/>
				<path fill="#F26528" d="M185.211,223.934c0-0.281,0.19-0.479,0.456-0.479c0.266,0,0.448,0.197,0.448,0.479
					c0,0.273-0.175,0.479-0.456,0.479C185.394,224.412,185.211,224.207,185.211,223.934z"/>
				<path fill="#F26528" d="M189.55,219.861c-0.137-0.008-0.312,0-0.501,0.03c-1.049,0.175-1.604,0.942-1.717,1.755h0.022
					c0.236-0.312,0.646-0.57,1.193-0.57c0.874,0,1.489,0.631,1.489,1.596c0,0.904-0.615,1.74-1.642,1.74
					c-1.056,0-1.748-0.82-1.748-2.104c0-0.973,0.35-1.739,0.836-2.226c0.411-0.403,0.958-0.654,1.581-0.73
					c0.197-0.03,0.365-0.037,0.486-0.037V219.861z M189.36,222.711c0-0.707-0.403-1.133-1.018-1.133
					c-0.403,0-0.775,0.251-0.958,0.607c-0.045,0.076-0.076,0.176-0.076,0.297c0.015,0.813,0.388,1.414,1.086,1.414
					C188.973,223.896,189.36,223.417,189.36,222.711z"/>
				<path fill="#F26528" d="M193.449,219.861c-0.137-0.008-0.312,0-0.502,0.03c-1.048,0.175-1.604,0.942-1.717,1.755h0.023
					c0.235-0.312,0.646-0.57,1.193-0.57c0.874,0,1.49,0.631,1.49,1.596c0,0.904-0.616,1.74-1.642,1.74
					c-1.056,0-1.748-0.82-1.748-2.104c0-0.973,0.35-1.739,0.836-2.226c0.411-0.403,0.958-0.654,1.581-0.73
					c0.197-0.03,0.364-0.037,0.486-0.037V219.861z M193.258,222.711c0-0.707-0.402-1.133-1.018-1.133
					c-0.403,0-0.775,0.251-0.958,0.607c-0.045,0.076-0.076,0.176-0.076,0.297c0.016,0.813,0.388,1.414,1.087,1.414
					C192.871,223.896,193.258,223.417,193.258,222.711z"/>
				<path fill="#F26528" d="M196.594,224.329v-1.345h-2.295v-0.441l2.204-3.153h0.722v3.07h0.691v0.524h-0.691v1.345H196.594z
					 M196.594,222.46v-1.649c0-0.258,0.008-0.517,0.023-0.775h-0.023c-0.152,0.289-0.273,0.502-0.41,0.73l-1.208,1.679v0.016
					H196.594z"/>
			</g>
		</g>
		<g>
			<g>
				<path fill="#F26528" d="M155.357,218.934h0.669v5.396h-0.669V218.934z"/>
				<path fill="#F26528" d="M159.187,224.329l-0.053-0.464h-0.023c-0.205,0.289-0.6,0.547-1.125,0.547
					c-0.745,0-1.125-0.523-1.125-1.056c0-0.89,0.79-1.376,2.211-1.368v-0.076c0-0.303-0.083-0.851-0.836-0.851
					c-0.342,0-0.699,0.106-0.957,0.273l-0.152-0.44c0.304-0.197,0.745-0.326,1.208-0.326c1.125,0,1.398,0.767,1.398,1.504v1.375
					c0,0.319,0.016,0.631,0.061,0.882H159.187z M159.088,222.452c-0.729-0.015-1.558,0.114-1.558,0.828
					c0,0.433,0.289,0.639,0.631,0.639c0.479,0,0.783-0.304,0.889-0.616c0.022-0.068,0.038-0.145,0.038-0.213V222.452z"/>
				<path fill="#F26528" d="M161.588,219.596v1.056h0.958v0.509h-0.958v1.983c0,0.456,0.129,0.714,0.502,0.714
					c0.174,0,0.304-0.022,0.387-0.045l0.03,0.502c-0.129,0.053-0.334,0.091-0.592,0.091c-0.312,0-0.562-0.099-0.722-0.281
					c-0.19-0.198-0.258-0.524-0.258-0.958v-2.006h-0.57v-0.509h0.57v-0.882L161.588,219.596z"/>
			</g>
		</g>
	</g>
	<g>
		<g>
			<rect x="293.431" y="50.611" fill="#394043" width="0.499" height="36.296"/>
			<g>
				<polygon fill="#FFFFFF" points="295.323,99.052 288.751,99.052 291.41,85.909 295.323,85.909 				"/>
				<polygon fill="#FFFFFF" points="292.038,99.052 298.609,99.052 295.951,85.909 292.038,85.909 				"/>
			</g>
			<path fill="#394043" d="M291.434,85.909c0-1.24,1.006-2.246,2.246-2.246s2.246,1.006,2.246,2.246"/>
		</g>
		<g>
			<rect x="413.764" y="50.611" fill="#394043" width="0.499" height="36.296"/>
			<g>
				<polygon fill="#FFFFFF" points="415.657,99.052 409.084,99.052 411.743,85.909 415.657,85.909 				"/>
				<polygon fill="#FFFFFF" points="412.37,99.052 418.942,99.052 416.284,85.909 412.37,85.909 				"/>
			</g>
			<path fill="#394043" d="M411.768,85.909c0-1.24,1.005-2.246,2.246-2.246c1.241,0,2.246,1.006,2.246,2.246"/>
		</g>
		<g>
			<rect x="534.096" y="50.611" fill="#394043" width="0.5" height="36.296"/>
			<g>
				<polygon fill="#FFFFFF" points="535.989,99.052 529.417,99.052 532.077,85.909 535.989,85.909 				"/>
				<polygon fill="#FFFFFF" points="532.704,99.052 539.274,99.052 536.617,85.909 532.704,85.909 				"/>
			</g>
			<path fill="#394043" d="M532.1,85.909c0-1.24,1.006-2.246,2.246-2.246s2.246,1.006,2.246,2.246"/>
		</g>
		<g>
			<rect x="654.43" y="50.611" fill="#394043" width="0.5" height="36.296"/>
			<g>
				<polygon fill="#FFFFFF" points="656.323,99.052 649.75,99.052 652.41,85.909 656.323,85.909 				"/>
				<polygon fill="#FFFFFF" points="653.038,99.052 659.608,99.052 656.95,85.909 653.038,85.909 				"/>
			</g>
			<path fill="#394043" d="M652.434,85.909c0-1.24,1.006-2.246,2.246-2.246s2.246,1.006,2.246,2.246"/>
		</g>
		<g>
			<rect x="774.763" y="50.611" fill="#394043" width="0.499" height="36.296"/>
			<g>
				<polygon fill="#FFFFFF" points="776.656,99.052 770.083,99.052 772.743,85.909 776.656,85.909 				"/>
				<polygon fill="#FFFFFF" points="773.37,99.052 779.941,99.052 777.284,85.909 773.37,85.909 				"/>
			</g>
			<path fill="#394043" d="M772.766,85.909c0-1.24,1.006-2.246,2.246-2.246s2.246,1.006,2.246,2.246"/>
		</g>
	</g>
	<g>
		<rect x="663.288" y="296.14" fill="#5E5F5F" width="4.641" height="12.194"/>
		<rect x="664.735" y="267.343" fill="#5E5F5F" width="1.748" height="31.216"/>
		
			<rect x="686.339" y="241.168" transform="matrix(0.9767 0.2148 -0.2148 0.9767 70.4434 -141.6999)" fill="#5E5F5F" width="1.746" height="24.214"/>
		<g>
			
				<rect x="671.599" y="301.825" transform="matrix(0.2713 -0.9625 0.9625 0.2713 192.0016 872.5378)" fill="#5E5F5F" width="1.281" height="15.285"/>
			
				<rect x="658.351" y="301.825" transform="matrix(-0.2713 -0.9625 0.9625 -0.2713 539.913 1027.7021)" fill="#5E5F5F" width="1.281" height="15.285"/>
			<circle fill="#5E5F5F" cx="651.796" cy="312.846" r="1.935"/>
			<circle fill="#5E5F5F" cx="679.42" cy="312.846" r="1.934"/>
		</g>
		<rect x="664.901" y="307.189" fill="#5E5F5F" width="1.416" height="4.967"/>
		<rect x="664.106" y="310.923" fill="#5E5F5F" width="3.004" height="3.856"/>
		<path fill="#D1982A" d="M686.122,266.83c0,1.533-1.24,2.773-2.773,2.773h-35.482c-1.531,0-2.771-1.24-2.771-2.773l0,0
			c0-1.53,1.24-2.771,2.771-2.771h35.482C684.881,264.059,686.122,265.3,686.122,266.83L686.122,266.83z"/>
		<path fill="#B76128" d="M688.625,258.257c-0.307,1.325-1.633,2.147-2.957,1.84l0,0c-1.326-0.31-2.15-1.635-1.842-2.96l10.5-44.997
			c0.311-1.326,1.635-2.148,2.961-1.84l0,0c1.324,0.309,2.148,1.635,1.84,2.96L688.625,258.257z"/>
	</g>
	<g>
		<rect x="838.455" y="296.14" fill="#5E5F5F" width="4.641" height="12.194"/>
		<rect x="839.901" y="267.343" fill="#5E5F5F" width="1.748" height="31.216"/>
		
			<rect x="861.506" y="241.168" transform="matrix(0.9767 0.2147 -0.2147 0.9767 74.4801 -179.2307)" fill="#5E5F5F" width="1.747" height="24.215"/>
		<g>
			
				<rect x="846.765" y="301.825" transform="matrix(0.272 -0.9623 0.9623 0.272 319.1095 1040.7476)" fill="#5E5F5F" width="1.282" height="15.285"/>
			
				<rect x="833.518" y="301.825" transform="matrix(-0.2713 -0.9625 0.9625 -0.2713 762.6023 1196.2996)" fill="#5E5F5F" width="1.281" height="15.285"/>
			<circle fill="#5E5F5F" cx="826.963" cy="312.846" r="1.935"/>
			<circle fill="#5E5F5F" cx="854.587" cy="312.846" r="1.934"/>
		</g>
		<rect x="840.067" y="307.189" fill="#5E5F5F" width="1.416" height="4.967"/>
		<rect x="839.273" y="310.923" fill="#5E5F5F" width="3.003" height="3.856"/>
		<path fill="#D1982A" d="M861.289,266.83c0,1.533-1.241,2.773-2.773,2.773h-35.482c-1.531,0-2.771-1.24-2.771-2.773l0,0
			c0-1.53,1.24-2.771,2.771-2.771h35.482C860.047,264.059,861.289,265.3,861.289,266.83L861.289,266.83z"/>
		<path fill="#B76128" d="M863.792,258.257c-0.308,1.325-1.633,2.147-2.958,1.84l0,0c-1.326-0.31-2.15-1.635-1.841-2.96l10.5-44.997
			c0.31-1.326,1.634-2.148,2.96-1.84l0,0c1.325,0.309,2.148,1.635,1.84,2.96L863.792,258.257z"/>
	</g>
</g>
</svg>
