<?xml version="1.0" encoding="UTF-8" standalone="no"?>
<!-- Generator: Adobe Illustrator 16.0.0, SVG Export Plug-In . SVG Version: 6.00 Build 0)  -->

<svg
   xmlns:dc="http://purl.org/dc/elements/1.1/"
   xmlns:cc="http://creativecommons.org/ns#"
   xmlns:rdf="http://www.w3.org/1999/02/22-rdf-syntax-ns#"
   xmlns:svg="http://www.w3.org/2000/svg"
   xmlns="http://www.w3.org/2000/svg"
   xmlns:sodipodi="http://sodipodi.sourceforge.net/DTD/sodipodi-0.dtd"
   xmlns:inkscape="http://www.inkscape.org/namespaces/inkscape"
   version="1.1"
   id="Layer_1"
   x="0px"
   y="0px"
   width="1076.738px"
   height="183.937px"
   viewBox="0 0 1076.738 183.937"
   enable-background="new 0 0 1076.738 183.937"
   xml:space="preserve"
   inkscape:version="0.48.4 r9939"
   sodipodi:docname="fishing_i.svg"><metadata
     id="metadata101"><rdf:RDF><cc:Work
         rdf:about=""><dc:format>image/svg+xml</dc:format><dc:type
           rdf:resource="http://purl.org/dc/dcmitype/StillImage" /></cc:Work></rdf:RDF></metadata><defs
     id="defs99" /><sodipodi:namedview
     pagecolor="#ffffff"
     bordercolor="#666666"
     borderopacity="1"
     objecttolerance="10"
     gridtolerance="10"
     guidetolerance="10"
     inkscape:pageopacity="0"
     inkscape:pageshadow="2"
     inkscape:window-width="640"
     inkscape:window-height="480"
     id="namedview97"
     showgrid="false"
     inkscape:snap-bbox="false"
     inkscape:zoom="0.45707155"
     inkscape:cx="547.08416"
     inkscape:cy="221.16512"
     inkscape:window-x="496"
     inkscape:window-y="189"
     inkscape:window-maximized="0"
     inkscape:current-layer="Layer_1" /><path
     fill="#7DBCB5"
     d="M1044.422,97.04v-0.002c-3.616,0-6.547-3.424-6.547-7.646v0.455v0.437h-0.01  c0.005-0.144,0.01-0.29,0.01-0.437c0-7.279-5.05-13.181-11.282-13.181H821.88c-3.615,0-6.547-3.424-6.547-7.646h0.012  c0-7.28-5.053-13.178-11.281-13.178c-0.003,0-0.006,0-0.008,0l0,0H29.111c-6.23,0-11.282,5.896-11.282,13.178V68.15  c0,4.223-2.931,7.646-6.546,7.646V75.8C5.052,75.802,0,81.699,0,88.977c0,7.278,5.052,13.178,11.283,13.178h329.048  c3.616,0,6.546,3.424,6.546,7.647h-0.017c0,7.279,5.053,13.177,11.283,13.177l0,0l0,0h581.546v-0.117  c0.34,0.074,0.688,0.117,1.049,0.117c3.081,0,5.576-2.916,5.576-6.515h0.002c0-3.379,2.234-6.14,5.071-6.396h93.031  c3.081,0,5.577-2.916,5.577-6.514C1049.997,99.955,1047.503,97.04,1044.422,97.04z"
     id="path3" /><g
     id="g5"><rect
       x="363.919"
       y="39.921"
       fill="#556321"
       width="1.906"
       height="76.976"
       id="rect7" /><rect
       x="363.919"
       y="0.224"
       fill="#FFC200"
       width="1.906"
       height="26.625"
       id="rect9" /><path
       fill="#CE5800"
       d="M368.382,40.888c0,0.803-0.65,1.453-1.453,1.453h-4.114c-0.802,0-1.452-0.65-1.452-1.453V6.275   c0-0.803,0.65-1.451,1.452-1.451h4.114c0.803,0,1.453,0.648,1.453,1.451V40.888z"
       id="path11" /></g><path
     fill="#556321"
     d="M357.519,116.896c0.364-2.088,0-71.252,0-71.252l8.307,71.252H357.519z"
     id="path13" /><path
     fill="#556321"
     d="M410.289,116.896c0.336-1.933,0-65.929,0-65.929l3.843,65.929H410.289z"
     id="path15" /><path
     fill="#556321"
     d="M382.452,105.021c0.336-1.931,0-65.929,0-65.929l3.843,65.929H382.452z"
     id="path17" /><path
     fill="#556321"
     d="M390.515,111.372c0.63-1.933,0-65.929,0-65.929l7.206,65.929H390.515z"
     id="path19" /><path
     fill="#556321"
     d="M443.368,114.234c0.629-1.933,0-65.928,0-65.928l7.205,65.928H443.368z"
     id="path21" /><path
     fill="#556321"
     d="M424.055,108.271c-0.545-1.935,0-65.931,0-65.931l-6.245,65.931H424.055z"
     id="path23" /><path
     fill="#556321"
     d="M456.817,114.234c-0.546-1.933,0-65.928,0-65.928l-6.245,65.928H456.817z"
     id="path25" /><path
     fill="#556321"
     d="M401.409,101.889c0.335-1.936,0-65.931,0-65.931l3.843,65.931H401.409z"
     id="path27" /><path
     fill="#556321"
     d="M369.025,116.896c-0.181-1.045,0-35.627,0-35.627l-4.152,35.627H369.025z"
     id="path29" /><g
     id="g31"><g
       id="g33"><rect
         x="431.964"
         y="54.492"
         fill="#556321"
         width="1.65"
         height="66.646"
         id="rect35" /><rect
         x="431.964"
         y="20.12"
         fill="#FFC200"
         width="1.65"
         height="23.056"
         id="rect37" /><path
         fill="#CE5800"
         d="M429.75,55.332c0,0.692,0.562,1.258,1.257,1.258h3.563c0.692,0,1.258-0.564,1.258-1.258V25.361    c0-0.693-0.564-1.258-1.258-1.258h-3.563c-0.694,0-1.257,0.562-1.257,1.258V55.332z"
         id="path39" /></g><path
       fill="#556321"
       d="M439.155,121.141c-0.314-1.81,0-61.695,0-61.695l-7.191,61.695H439.155z"
       id="path41" /><path
       fill="#556321"
       d="M429.192,121.141c0.156-0.906,0-30.849,0-30.849l3.596,30.849H429.192L429.192,121.141z"
       id="path43" /></g><g
     id="g45"><g
       id="g47"><rect
         x="469.077"
         y="47.908"
         fill="#556321"
         width="1.647"
         height="66.646"
         id="rect49" /><rect
         x="469.077"
         y="13.536"
         fill="#FFC200"
         width="1.647"
         height="23.054"
         id="rect51" /><path
         fill="#CE5800"
         d="M466.863,48.745c0,0.692,0.562,1.259,1.257,1.259h3.562c0.695,0,1.258-0.564,1.258-1.259V18.776    c0-0.694-0.562-1.257-1.258-1.257h-3.562c-0.695,0-1.257,0.562-1.257,1.257V48.745z"
         id="path53" /></g><path
       fill="#556321"
       d="M476.268,114.555c-0.312-1.81,0-61.695,0-61.695l-7.189,61.695H476.268z"
       id="path55" /><path
       fill="#556321"
       d="M466.305,114.555c0.158-0.904,0-30.849,0-30.849l3.599,30.849H466.305z"
       id="path57" /></g><path
     fill="#54968D"
     d="M683.992,69.068c0,4.088-3.315,7.401-7.404,7.401s-7.404-3.313-7.404-7.401"
     id="path59" /><path
     fill="#54968D"
     d="M709.906,69.068c0,4.088-3.314,7.401-7.402,7.401c-4.091,0-7.405-3.313-7.405-7.401"
     id="path61" /><path
     fill="#54968D"
     d="M735.82,69.068c0,4.088-3.314,7.401-7.403,7.401s-7.403-3.313-7.403-7.401"
     id="path63" /><path
     fill="#54968D"
     d="M761.735,69.068c0,4.088-3.314,7.401-7.404,7.401c-4.089,0-7.404-3.313-7.404-7.401"
     id="path65" /><path
     fill="#54968D"
     d="M787.65,69.068c0,4.088-3.316,7.401-7.404,7.401c-4.09,0-7.404-3.313-7.404-7.401"
     id="path67" /><path
     fill="#54968D"
     d="M911.05,92.13c0,4.091-3.313,7.403-7.403,7.403s-7.403-3.312-7.403-7.403"
     id="path69" /><path
     fill="#54968D"
     d="M936.964,92.13c0,4.091-3.312,7.403-7.403,7.403c-4.089,0-7.401-3.312-7.401-7.403"
     id="path71" /><path
     fill="#54968D"
     d="M721.013,83.727c0,4.09-3.313,7.403-7.402,7.403c-4.092,0-7.404-3.313-7.404-7.403"
     id="path73" /><path
     fill="#54968D"
     d="M746.926,83.727c0,4.09-3.312,7.403-7.401,7.403c-4.091,0-7.404-3.313-7.404-7.403"
     id="path75" /><path
     fill="#54968D"
     d="M772.841,83.727c0,4.09-3.312,7.403-7.403,7.403s-7.403-3.313-7.403-7.403"
     id="path77" /><path
     fill="#54968D"
     d="M54.833,72.77c0,4.09-3.314,7.405-7.403,7.405c-4.09,0-7.404-3.315-7.404-7.405"
     id="path79" /><path
     fill="#54968D"
     d="M80.747,72.77c0,4.09-3.314,7.405-7.403,7.405c-4.089,0-7.403-3.315-7.403-7.405"
     id="path81" /><path
     fill="#54968D"
     d="M106.662,72.77c0,4.09-3.315,7.405-7.404,7.405c-4.089,0-7.404-3.315-7.404-7.405"
     id="path83" /><g
     id="g85"><rect
       x="1065.048"
       y="61.64"
       fill="#933611"
       width="3.467"
       height="39.529"
       id="rect87" /><g
       id="g89"><circle
         fill="#6E8736"
         cx="1066.781"
         cy="53.591"
         r="9.955"
         id="circle91" /><circle
         fill="#6E8736"
         cx="1066.781"
         cy="27.677"
         r="9.955"
         id="circle93" /><rect
         x="1056.826"
         y="26.419"
         fill="#6E8736"
         width="19.912"
         height="27.172"
         id="rect95" /></g></g></svg>