<?xml version="1.0" encoding="utf-8"?>
<!-- Generator: Adobe Illustrator 16.0.0, SVG Export Plug-In . SVG Version: 6.00 Build 0)  -->
<!DOCTYPE svg PUBLIC "-//W3C//DTD SVG 1.1//EN" "http://www.w3.org/Graphics/SVG/1.1/DTD/svg11.dtd">
<svg version="1.1" id="Layer_1" xmlns="http://www.w3.org/2000/svg" xmlns:xlink="http://www.w3.org/1999/xlink" x="0px" y="0px"
	 width="1076.738px" height="183.937px" viewBox="0 0 1076.738 183.937" enable-background="new 0 0 1076.738 183.937"
	 xml:space="preserve">
<path fill="#7DBCB5" d="M1044.422,97.04v-0.002c-3.616,0-6.547-3.424-6.547-7.646v0.455v0.437h-0.01
	c0.005-0.144,0.01-0.29,0.01-0.437c0-7.279-5.05-13.181-11.282-13.181H821.88c-3.615,0-6.547-3.424-6.547-7.646h0.012
	c0-7.28-5.053-13.178-11.281-13.178c-0.003,0-0.006,0-0.008,0l0,0H29.111c-6.23,0-11.282,5.896-11.282,13.178V68.15
	c0,4.223-2.931,7.646-6.546,7.646V75.8C5.052,75.802,0,81.699,0,88.977c0,7.278,5.052,13.178,11.283,13.178h329.048
	c3.616,0,6.546,3.424,6.546,7.647h-0.017c0,7.279,5.053,13.177,11.283,13.177l0,0l0,0h581.546v-0.117
	c0.34,0.074,0.688,0.117,1.049,0.117c3.081,0,5.576-2.916,5.576-6.515h0.002c0-3.379,2.234-6.14,5.071-6.396h93.031
	c3.081,0,5.577-2.916,5.577-6.514C1049.997,99.955,1047.503,97.04,1044.422,97.04z"/>
<g>
	<rect x="363.919" y="39.921" fill="#556321" width="1.906" height="76.976"/>
	<rect x="363.919" y="0.224" fill="#FFC200" width="1.906" height="26.625"/>
	<path fill="#CE5800" d="M368.382,40.888c0,0.803-0.65,1.453-1.453,1.453h-4.114c-0.802,0-1.452-0.65-1.452-1.453V6.275
		c0-0.803,0.65-1.451,1.452-1.451h4.114c0.803,0,1.453,0.648,1.453,1.451V40.888z"/>
</g>
<path fill="#556321" d="M357.519,116.896c0.364-2.088,0-71.252,0-71.252l8.307,71.252H357.519z"/>
<path fill="#556321" d="M410.289,116.896c0.336-1.933,0-65.929,0-65.929l3.843,65.929H410.289z"/>
<path fill="#556321" d="M382.452,105.021c0.336-1.931,0-65.929,0-65.929l3.843,65.929H382.452z"/>
<path fill="#556321" d="M390.515,111.372c0.63-1.933,0-65.929,0-65.929l7.206,65.929H390.515z"/>
<path fill="#556321" d="M443.368,114.234c0.629-1.933,0-65.928,0-65.928l7.205,65.928H443.368z"/>
<path fill="#556321" d="M424.055,108.271c-0.545-1.935,0-65.931,0-65.931l-6.245,65.931H424.055z"/>
<path fill="#556321" d="M456.817,114.234c-0.546-1.933,0-65.928,0-65.928l-6.245,65.928H456.817z"/>
<path fill="#556321" d="M401.409,101.889c0.335-1.936,0-65.931,0-65.931l3.843,65.931H401.409z"/>
<path fill="#556321" d="M369.025,116.896c-0.181-1.045,0-35.627,0-35.627l-4.152,35.627H369.025z"/>
<g>
	<g>
		<rect x="431.964" y="54.492" fill="#556321" width="1.65" height="66.646"/>
		<rect x="431.964" y="20.12" fill="#FFC200" width="1.65" height="23.056"/>
		<path fill="#CE5800" d="M429.75,55.332c0,0.692,0.562,1.258,1.257,1.258h3.563c0.692,0,1.258-0.564,1.258-1.258V25.361
			c0-0.693-0.564-1.258-1.258-1.258h-3.563c-0.694,0-1.257,0.562-1.257,1.258V55.332z"/>
	</g>
	<path fill="#556321" d="M439.155,121.141c-0.314-1.81,0-61.695,0-61.695l-7.191,61.695H439.155z"/>
	<path fill="#556321" d="M429.192,121.141c0.156-0.906,0-30.849,0-30.849l3.596,30.849H429.192L429.192,121.141z"/>
</g>
<g>
	<g>
		<rect x="469.077" y="47.908" fill="#556321" width="1.647" height="66.646"/>
		<rect x="469.077" y="13.536" fill="#FFC200" width="1.647" height="23.054"/>
		<path fill="#CE5800" d="M466.863,48.745c0,0.692,0.562,1.259,1.257,1.259h3.562c0.695,0,1.258-0.564,1.258-1.259V18.776
			c0-0.694-0.562-1.257-1.258-1.257h-3.562c-0.695,0-1.257,0.562-1.257,1.257V48.745z"/>
	</g>
	<path fill="#556321" d="M476.268,114.555c-0.312-1.81,0-61.695,0-61.695l-7.189,61.695H476.268z"/>
	<path fill="#556321" d="M466.305,114.555c0.158-0.904,0-30.849,0-30.849l3.599,30.849H466.305z"/>
</g>
<path fill="#54968D" d="M683.992,69.068c0,4.088-3.315,7.401-7.404,7.401s-7.404-3.313-7.404-7.401"/>
<path fill="#54968D" d="M709.906,69.068c0,4.088-3.314,7.401-7.402,7.401c-4.091,0-7.405-3.313-7.405-7.401"/>
<path fill="#54968D" d="M735.82,69.068c0,4.088-3.314,7.401-7.403,7.401s-7.403-3.313-7.403-7.401"/>
<path fill="#54968D" d="M761.735,69.068c0,4.088-3.314,7.401-7.404,7.401c-4.089,0-7.404-3.313-7.404-7.401"/>
<path fill="#54968D" d="M787.65,69.068c0,4.088-3.316,7.401-7.404,7.401c-4.09,0-7.404-3.313-7.404-7.401"/>
<path fill="#54968D" d="M911.05,92.13c0,4.091-3.313,7.403-7.403,7.403s-7.403-3.312-7.403-7.403"/>
<path fill="#54968D" d="M936.964,92.13c0,4.091-3.312,7.403-7.403,7.403c-4.089,0-7.401-3.312-7.401-7.403"/>
<path fill="#54968D" d="M721.013,83.727c0,4.09-3.313,7.403-7.402,7.403c-4.092,0-7.404-3.313-7.404-7.403"/>
<path fill="#54968D" d="M746.926,83.727c0,4.09-3.312,7.403-7.401,7.403c-4.091,0-7.404-3.313-7.404-7.403"/>
<path fill="#54968D" d="M772.841,83.727c0,4.09-3.312,7.403-7.403,7.403s-7.403-3.313-7.403-7.403"/>
<path fill="#54968D" d="M54.833,72.77c0,4.09-3.314,7.405-7.403,7.405c-4.09,0-7.404-3.315-7.404-7.405"/>
<path fill="#54968D" d="M80.747,72.77c0,4.09-3.314,7.405-7.403,7.405c-4.089,0-7.403-3.315-7.403-7.405"/>
<path fill="#54968D" d="M106.662,72.77c0,4.09-3.315,7.405-7.404,7.405c-4.089,0-7.404-3.315-7.404-7.405"/>
<g>
	<rect x="1065.048" y="61.64" fill="#933611" width="3.467" height="39.529"/>
	<g>
		<circle fill="#6E8736" cx="1066.781" cy="53.591" r="9.955"/>
		<circle fill="#6E8736" cx="1066.781" cy="27.677" r="9.955"/>
		<rect x="1056.826" y="26.419" fill="#6E8736" width="19.912" height="27.172"/>
	</g>
</g>
</svg>
