<?xml version="1.0" encoding="utf-8"?>
<!-- Generator: Adobe Illustrator 16.0.0, SVG Export Plug-In . SVG Version: 6.00 Build 0)  -->
<!DOCTYPE svg PUBLIC "-//W3C//DTD SVG 1.1//EN" "http://www.w3.org/Graphics/SVG/1.1/DTD/svg11.dtd">
<svg version="1.1" id="Layer_1" xmlns="http://www.w3.org/2000/svg" xmlns:xlink="http://www.w3.org/1999/xlink" x="0px" y="0px"
	 width="1076.738px" height="123.202px" viewBox="0 192.505 1076.738 123.202" enable-background="new 0 192.505 1076.738 123.202"
	 xml:space="preserve">
<path fill="#7DBCB5" d="M1044.422,289.321v-0.002c-3.616,0-6.547-3.424-6.547-7.646v0.455v0.437h-0.01
	c0.005-0.143,0.01-0.29,0.01-0.437c0-7.279-5.05-13.18-11.282-13.18H821.88c-3.615,0-6.547-3.423-6.547-7.645h0.012
	c0-7.28-5.053-13.177-11.283-13.177c-0.002,0-0.004,0-0.006,0l0,0H29.111c-6.23,0-11.282,5.896-11.282,13.177v-0.871
	c0,4.223-2.931,7.647-6.546,7.647v0.003C5.052,268.083,0,273.98,0,281.257c0,7.28,5.052,13.178,11.283,13.178h329.048
	c3.616,0,6.546,3.424,6.546,7.649h-0.017c0,7.278,5.053,13.175,11.283,13.175l0,0l0,0h581.546v-0.117
	c0.34,0.074,0.69,0.117,1.049,0.117c3.081,0,5.577-2.915,5.577-6.513h0.001c0-3.38,2.236-6.14,5.073-6.397h93.031
	c3.081,0,5.577-2.915,5.577-6.514S1047.503,289.321,1044.422,289.321z"/>
<g>
	<rect x="363.919" y="232.202" fill="#556321" width="1.906" height="76.975"/>
	<rect x="363.919" y="192.505" fill="#FFC200" width="1.906" height="26.626"/>
	<path fill="#CE5800" d="M368.382,233.17c0,0.802-0.65,1.453-1.453,1.453h-4.114c-0.802,0-1.452-0.651-1.452-1.453v-34.614
		c0-0.802,0.65-1.451,1.452-1.451h4.114c0.803,0,1.453,0.649,1.453,1.451V233.17z"/>
</g>
<path fill="#556321" d="M357.519,309.177c0.364-2.087,0-71.252,0-71.252l8.307,71.252H357.519z"/>
<path fill="#556321" d="M410.289,309.177c0.336-1.931,0-65.928,0-65.928l3.843,65.928H410.289z"/>
<path fill="#556321" d="M382.452,297.302c0.336-1.93,0-65.928,0-65.928l3.843,65.928H382.452z"/>
<path fill="#556321" d="M390.515,303.653c0.63-1.932,0-65.929,0-65.929l7.206,65.929H390.515z"/>
<path fill="#556321" d="M443.368,306.515c0.629-1.932,0-65.928,0-65.928l7.205,65.928H443.368z"/>
<path fill="#556321" d="M424.055,300.552c-0.545-1.933,0-65.929,0-65.929l-6.245,65.929H424.055z"/>
<path fill="#556321" d="M456.817,306.515c-0.546-1.932,0-65.928,0-65.928l-6.245,65.928H456.817z"/>
<path fill="#556321" d="M401.409,294.17c0.335-1.935,0-65.931,0-65.931l3.843,65.931H401.409z"/>
<path fill="#556321" d="M369.025,309.177c-0.181-1.044,0-35.626,0-35.626l-4.152,35.626H369.025z"/>
<g>
	<g>
		<rect x="431.964" y="246.773" fill="#556321" width="1.65" height="66.647"/>
		<rect x="431.964" y="212.401" fill="#FFC200" width="1.65" height="23.056"/>
		<path fill="#CE5800" d="M429.75,247.613c0,0.692,0.562,1.257,1.257,1.257h3.563c0.694,0,1.258-0.564,1.258-1.257v-29.971
			c0-0.694-0.564-1.257-1.258-1.257h-3.563c-0.694,0-1.257,0.562-1.257,1.257V247.613z"/>
	</g>
	<path fill="#556321" d="M439.155,313.421c-0.314-1.808,0-61.694,0-61.694l-7.191,61.694H439.155z"/>
	<path fill="#556321" d="M429.192,313.421c0.158-0.905,0-30.847,0-30.847l3.596,30.847H429.192z"/>
</g>
<g>
	<g>
		<rect x="469.077" y="240.189" fill="#556321" width="1.649" height="66.646"/>
		<rect x="469.077" y="205.817" fill="#FFC200" width="1.649" height="23.054"/>
		<path fill="#CE5800" d="M466.863,241.026c0,0.693,0.562,1.259,1.257,1.259h3.563c0.695,0,1.256-0.565,1.256-1.259v-29.969
			c0-0.694-0.562-1.256-1.256-1.256h-3.563c-0.695,0-1.257,0.562-1.257,1.256V241.026z"/>
	</g>
	<path fill="#556321" d="M476.268,306.836c-0.314-1.809,0-61.695,0-61.695l-7.191,61.695H476.268z"/>
	<path fill="#556321" d="M466.305,306.836c0.158-0.905,0-30.848,0-30.848l3.597,30.848H466.305z"/>
</g>
<path fill="#54968D" d="M683.992,261.349c0,4.088-3.315,7.403-7.404,7.403s-7.404-3.315-7.404-7.403"/>
<path fill="#54968D" d="M709.906,261.349c0,4.088-3.314,7.403-7.402,7.403c-4.091,0-7.405-3.315-7.405-7.403"/>
<path fill="#54968D" d="M735.82,261.349c0,4.088-3.314,7.403-7.403,7.403s-7.403-3.315-7.403-7.403"/>
<path fill="#54968D" d="M761.735,261.349c0,4.088-3.314,7.403-7.404,7.403c-4.089,0-7.404-3.315-7.404-7.403"/>
<path fill="#54968D" d="M787.65,261.349c0,4.088-3.316,7.403-7.404,7.403c-4.09,0-7.404-3.315-7.404-7.403"/>
<path fill="#54968D" d="M911.05,284.412c0,4.089-3.315,7.403-7.404,7.403s-7.404-3.314-7.404-7.403"/>
<path fill="#54968D" d="M936.964,284.412c0,4.089-3.314,7.403-7.403,7.403s-7.403-3.314-7.403-7.403"/>
<path fill="#54968D" d="M721.013,276.008c0,4.089-3.315,7.404-7.404,7.404c-4.09,0-7.404-3.315-7.404-7.404"/>
<path fill="#54968D" d="M746.926,276.008c0,4.089-3.314,7.404-7.403,7.404s-7.404-3.315-7.404-7.404"/>
<path fill="#54968D" d="M772.841,276.008c0,4.089-3.314,7.404-7.404,7.404s-7.404-3.315-7.404-7.404"/>
<path fill="#54968D" d="M54.833,265.051c0,4.089-3.314,7.405-7.403,7.405c-4.09,0-7.404-3.316-7.404-7.405"/>
<path fill="#54968D" d="M80.747,265.051c0,4.089-3.314,7.405-7.403,7.405s-7.403-3.316-7.403-7.405"/>
<path fill="#54968D" d="M106.662,265.051c0,4.089-3.315,7.405-7.404,7.405s-7.404-3.316-7.404-7.405"/>
<g>
	<rect x="1065.048" y="253.922" fill="#933611" width="3.467" height="39.528"/>
	<g>
		<circle fill="#6E8736" cx="1066.781" cy="245.872" r="9.955"/>
		<circle fill="#6E8736" cx="1066.781" cy="219.958" r="9.955"/>
		<rect x="1056.826" y="218.7" fill="#6E8736" width="19.912" height="27.172"/>
	</g>
</g>
</svg>
