<?xml version="1.0" encoding="utf-8"?>
<!-- Generator: Adobe Illustrator 16.0.0, SVG Export Plug-In . SVG Version: 6.00 Build 0)  -->
<!DOCTYPE svg PUBLIC "-//W3C//DTD SVG 1.1//EN" "http://www.w3.org/Graphics/SVG/1.1/DTD/svg11.dtd">
<svg version="1.1" id="Layer_1" xmlns="http://www.w3.org/2000/svg" xmlns:xlink="http://www.w3.org/1999/xlink" x="0px" y="0px"
	 width="930.314px" height="287.984px" viewBox="0 0 930.314 287.984" enable-background="new 0 0 930.314 287.984"
	 xml:space="preserve">
<g>
	<path fill="#FFFFFF" d="M0-0.008v288h930.314v-288H0z M913.557,287.881H17.518V17.027h896.039V287.881z"/>
</g>
<rect x="359.649" y="214.252" fill="#DDC992" width="211.02" height="73.267"/>
<g>
	<rect x="395.889" y="198.034" fill="#4A5D68" width="33.688" height="18.548"/>
	<rect x="500.741" y="198.034" fill="#4A5D68" width="33.688" height="18.548"/>
</g>
<g>
	<rect x="360.307" y="222.824" fill="#A3814B" width="212.73" height="8.518"/>
	<rect x="357.28" y="227.083" fill="#A3814B" width="12.302" height="60.315"/>
	<rect x="559.665" y="227.083" fill="#A3814B" width="12.301" height="60.315"/>
</g>
<polygon fill="#7C6340" points="584.958,206.448 345.363,206.448 345.363,219.534 345.36,219.534 345.36,287.399 366.368,287.399 
	366.368,227.455 563.948,227.455 563.948,287.399 584.954,287.399 584.954,233.455 584.958,233.455 "/>
<g>
	<rect x="17.518" y="86.828" fill="#A3814B" width="75.478" height="201.068"/>
	<circle fill="#B4D6DB" cx="54.756" cy="129.492" r="2.052"/>
	<g>
		<circle fill="#B4D6DB" cx="80.77" cy="191.425" r="3.688"/>
		
			<line fill="none" stroke="#8A9CA0" stroke-width="1.5141" stroke-linecap="round" stroke-linejoin="round" stroke-miterlimit="10" x1="66.521" y1="191.424" x2="80.991" y2="191.424"/>
	</g>
</g>
</svg>
