<?xml version="1.0" encoding="utf-8"?>
<!-- Generator: Adobe Illustrator 16.0.0, SVG Export Plug-In . SVG Version: 6.00 Build 0)  -->
<!DOCTYPE svg PUBLIC "-//W3C//DTD SVG 1.1//EN" "http://www.w3.org/Graphics/SVG/1.1/DTD/svg11.dtd">
<svg version="1.1" id="Layer_1" xmlns="http://www.w3.org/2000/svg" xmlns:xlink="http://www.w3.org/1999/xlink" x="0px" y="0px"
	 width="930.314px" height="287.985px" viewBox="1148 27.722 930.314 287.985" enable-background="new 1148 27.722 930.314 287.985"
	 xml:space="preserve">
<g>
	<path fill="#FFFFFF" d="M1148,27.707v288h930.314v-288H1148z M2061.557,315.596h-896.039V44.741h896.039V315.596z"/>
</g>
<rect x="1507.649" y="241.967" fill="#DDC992" width="211.02" height="73.266"/>
<g>
	<rect x="1543.889" y="225.749" fill="#4A5D68" width="33.688" height="18.548"/>
	<rect x="1648.741" y="225.749" fill="#4A5D68" width="33.688" height="18.548"/>
</g>
<g>
	<rect x="1508.307" y="250.539" fill="#A3814B" width="212.73" height="8.518"/>
	<rect x="1505.28" y="254.798" fill="#A3814B" width="12.302" height="60.315"/>
	<rect x="1707.665" y="254.798" fill="#A3814B" width="12.301" height="60.315"/>
</g>
<polygon fill="#7C6340" points="1732.958,234.163 1493.363,234.163 1493.363,247.249 1493.36,247.249 1493.36,315.113 
	1514.368,315.113 1514.368,255.17 1711.948,255.17 1711.948,315.113 1732.954,315.113 1732.954,261.17 1732.958,261.17 "/>
<g>
	<rect x="1165.518" y="114.543" fill="#A3814B" width="75.477" height="201.068"/>
	<circle fill="#B4D6DB" cx="1202.756" cy="157.207" r="2.052"/>
	<g>
		<circle fill="#B4D6DB" cx="1228.769" cy="219.139" r="3.688"/>
		
			<line fill="none" stroke="#8A9CA0" stroke-width="1.5141" stroke-linecap="round" stroke-linejoin="round" stroke-miterlimit="10" x1="1214.522" y1="219.139" x2="1228.991" y2="219.139"/>
	</g>
</g>
</svg>
