<?xml version="1.0" encoding="utf-8"?>
<!-- Generator: Adobe Illustrator 16.0.0, SVG Export Plug-In . SVG Version: 6.00 Build 0)  -->
<!DOCTYPE svg PUBLIC "-//W3C//DTD SVG 1.1//EN" "http://www.w3.org/Graphics/SVG/1.1/DTD/svg11.dtd">
<svg version="1.1" id="Layer_1" xmlns="http://www.w3.org/2000/svg" xmlns:xlink="http://www.w3.org/1999/xlink" x="0px" y="0px"
	 width="930.314px" height="287.985px" viewBox="1148 27.722 930.314 287.985" enable-background="new 1148 27.722 930.314 287.985"
	 xml:space="preserve">
<rect x="1165.518" y="44.756" fill="#E5C688" width="896.039" height="270.854"/>
<g opacity="0.5">
	<rect x="1166.023" y="250.297" fill="#938506" width="708.019" height="51.568"/>
	<rect x="2000.522" y="250.297" fill="#938506" width="60.656" height="51.568"/>
</g>
<g>
	<rect x="1743.358" y="137.467" fill="#A3814B" width="102.258" height="69.015"/>
	<rect x="1745.504" y="139.758" fill="#475626" width="97.965" height="64.435"/>
</g>
<g>
	<rect x="1815.264" y="190.826" fill="#FFFCEB" width="15.771" height="8.609"/>
	<rect x="1775.393" y="169.25" fill="#FFFCEB" width="15.771" height="18.702"/>
	<rect x="1752.997" y="190.826" fill="#FFFCEB" width="15.773" height="8.609"/>
	<rect x="1775.393" y="190.826" fill="#FFFCEB" width="15.771" height="8.609"/>
	<rect x="1752.997" y="169.25" fill="#FFFCEB" width="15.773" height="11.3"/>
	<rect x="1795.583" y="169.25" fill="#FFFCEB" width="15.771" height="18.702"/>
	<g opacity="0.3">
		<rect x="1797.79" y="171.832" opacity="0.4" fill="#495256" width="10.852" height="0.347"/>
		<rect x="1797.79" y="173.314" opacity="0.4" fill="#495256" width="10.852" height="0.347"/>
		<rect x="1797.79" y="174.797" opacity="0.4" fill="#495256" width="10.852" height="0.346"/>
		<rect x="1797.79" y="176.279" opacity="0.4" fill="#495256" width="10.852" height="0.346"/>
		<rect x="1797.79" y="177.762" opacity="0.4" fill="#495256" width="10.852" height="0.346"/>
		<rect x="1797.79" y="179.243" opacity="0.4" fill="#495256" width="10.852" height="0.347"/>
		<rect x="1797.79" y="180.726" opacity="0.4" fill="#495256" width="10.852" height="0.347"/>
		<rect x="1797.79" y="182.208" opacity="0.4" fill="#495256" width="10.852" height="0.347"/>
		<rect x="1797.79" y="183.689" opacity="0.4" fill="#495256" width="10.852" height="0.348"/>
		<rect x="1797.79" y="185.173" opacity="0.4" fill="#495256" width="10.852" height="0.347"/>
	</g>
	<g>
		<rect x="1753.186" y="146.441" fill="#A7D2DB" width="15.395" height="18.702"/>
		<g opacity="0.3">
			<rect x="1755.143" y="148.775" opacity="0.4" fill="#495256" width="10.85" height="0.347"/>
			<rect x="1755.143" y="150.258" opacity="0.4" fill="#495256" width="10.85" height="0.347"/>
			<rect x="1755.143" y="151.739" opacity="0.4" fill="#495256" width="10.85" height="0.348"/>
			<rect x="1755.143" y="153.222" opacity="0.4" fill="#495256" width="10.85" height="0.347"/>
			<rect x="1755.143" y="154.704" opacity="0.4" fill="#495256" width="10.85" height="0.347"/>
			<rect x="1755.143" y="156.186" opacity="0.4" fill="#495256" width="10.85" height="0.348"/>
			<rect x="1755.143" y="157.668" opacity="0.4" fill="#495256" width="10.85" height="0.348"/>
			<rect x="1755.143" y="159.15" opacity="0.4" fill="#495256" width="10.85" height="0.348"/>
			<rect x="1755.143" y="160.633" opacity="0.4" fill="#495256" width="10.85" height="0.348"/>
			<rect x="1755.143" y="162.115" opacity="0.4" fill="#495256" width="10.85" height="0.348"/>
		</g>
		<g>
			<rect x="1776.047" y="145.763" fill="#FFFCEB" width="24.604" height="17.747"/>
			<g opacity="0.3">
				<rect x="1778" y="148.543" opacity="0.4" fill="#495256" width="20.379" height="0.316"/>
				<rect x="1778" y="149.896" opacity="0.4" fill="#495256" width="20.379" height="0.318"/>
				<rect x="1778" y="151.25" opacity="0.4" fill="#495256" width="20.379" height="0.318"/>
				<rect x="1778" y="152.604" opacity="0.4" fill="#495256" width="20.379" height="0.317"/>
				<rect x="1778" y="153.958" opacity="0.4" fill="#495256" width="20.379" height="0.316"/>
				<rect x="1778" y="155.312" opacity="0.4" fill="#495256" width="20.379" height="0.316"/>
				<rect x="1778" y="156.666" opacity="0.4" fill="#495256" width="20.379" height="0.315"/>
				<rect x="1778" y="158.02" opacity="0.4" fill="#495256" width="20.379" height="0.316"/>
				<rect x="1778" y="159.373" opacity="0.4" fill="#495256" width="20.379" height="0.316"/>
				<rect x="1778" y="160.727" opacity="0.4" fill="#495256" width="20.379" height="0.316"/>
			</g>
		</g>
	</g>
	<g opacity="0.3">
		<rect x="1777.381" y="172.426" opacity="0.4" fill="#495256" width="11.924" height="0.336"/>
		<rect x="1777.381" y="173.861" opacity="0.4" fill="#495256" width="11.924" height="0.336"/>
		<rect x="1777.381" y="175.297" opacity="0.4" fill="#495256" width="11.924" height="0.336"/>
		<rect x="1777.381" y="176.73" opacity="0.4" fill="#495256" width="11.924" height="0.338"/>
		<rect x="1777.381" y="178.167" opacity="0.4" fill="#495256" width="11.924" height="0.336"/>
		<rect x="1777.381" y="179.603" opacity="0.4" fill="#495256" width="11.924" height="0.334"/>
		<rect x="1777.381" y="181.037" opacity="0.4" fill="#495256" width="11.924" height="0.336"/>
		<rect x="1777.381" y="182.473" opacity="0.4" fill="#495256" width="11.924" height="0.335"/>
		<rect x="1777.381" y="183.907" opacity="0.4" fill="#495256" width="11.924" height="0.335"/>
		<rect x="1777.381" y="185.342" opacity="0.4" fill="#495256" width="11.924" height="0.336"/>
	</g>
	<g>
		<rect x="1819.049" y="146.835" fill="#FFFCEB" width="15.773" height="18.702"/>
		<g opacity="0.3">
			<rect x="1821.038" y="150.012" opacity="0.4" fill="#495256" width="11.924" height="0.336"/>
			<rect x="1821.038" y="151.445" opacity="0.4" fill="#495256" width="11.924" height="0.338"/>
			<rect x="1821.038" y="152.881" opacity="0.4" fill="#495256" width="11.924" height="0.336"/>
			<rect x="1821.038" y="154.315" opacity="0.4" fill="#495256" width="11.924" height="0.337"/>
			<rect x="1821.038" y="155.752" opacity="0.4" fill="#495256" width="11.924" height="0.336"/>
			<rect x="1821.038" y="157.188" opacity="0.4" fill="#495256" width="11.924" height="0.334"/>
			<rect x="1821.038" y="158.622" opacity="0.4" fill="#495256" width="11.924" height="0.335"/>
			<rect x="1821.038" y="160.057" opacity="0.4" fill="#495256" width="11.924" height="0.336"/>
			<rect x="1821.038" y="161.492" opacity="0.4" fill="#495256" width="11.924" height="0.335"/>
			<rect x="1821.038" y="162.927" opacity="0.4" fill="#495256" width="11.924" height="0.337"/>
		</g>
	</g>
	<g opacity="0.3">
		<rect x="1754.606" y="171.141" opacity="0.4" fill="#495256" width="12.65" height="0.194"/>
		<rect x="1754.606" y="171.967" opacity="0.4" fill="#495256" width="12.65" height="0.195"/>
		<rect x="1754.606" y="172.794" opacity="0.4" fill="#495256" width="12.65" height="0.193"/>
		<rect x="1754.606" y="173.619" opacity="0.4" fill="#495256" width="12.65" height="0.193"/>
		<rect x="1754.606" y="174.446" opacity="0.4" fill="#495256" width="12.65" height="0.192"/>
		<rect x="1754.606" y="175.271" opacity="0.4" fill="#495256" width="12.65" height="0.193"/>
		<rect x="1754.606" y="176.098" opacity="0.4" fill="#495256" width="12.65" height="0.194"/>
		<rect x="1754.606" y="176.924" opacity="0.4" fill="#495256" width="12.65" height="0.193"/>
		<rect x="1754.606" y="177.75" opacity="0.4" fill="#495256" width="12.65" height="0.193"/>
		<rect x="1754.606" y="178.576" opacity="0.4" fill="#495256" width="12.65" height="0.193"/>
	</g>
</g>
<g>
	<g>
		<path fill="#326600" d="M1445.75,242.535c2.332,14.322,4.27,34.337,2.706,34.747c-1.563,0.411-6.037-18.938-8.369-33.259
			c-2.333-14.322-1.642-18.195-0.077-18.605C1441.574,225.008,1443.417,228.213,1445.75,242.535z"/>
		<path fill="#326600" d="M1453.266,238.948c-1.47,16.781-4.776,39.624-6.365,39.356c-1.589-0.267-0.857-23.543,0.611-40.325
			c1.469-16.78,3.12-20.71,4.709-20.444C1453.81,217.805,1454.735,222.168,1453.266,238.948z"/>
		<path fill="#3A7C00" d="M1450.651,232.712c0,18.626-1.656,44.22-3.699,44.22s-3.698-25.594-3.698-44.22s1.655-23.228,3.698-23.228
			S1450.651,214.086,1450.651,232.712z"/>
	</g>
	<path fill="#A3B6B7" d="M1432.282,312.618c0,1.378,1.118,2.495,2.496,2.495h25.784c1.378,0,2.495-1.117,2.495-2.495v-43.097
		h-30.775V312.618z"/>
	
		<path fill="none" stroke="#798C8C" stroke-width="1.8926" stroke-linecap="round" stroke-linejoin="round" stroke-miterlimit="10" d="
		M1451.455,273.605v5.521c0,0.957-0.775,1.732-1.731,1.732h-10.541c-0.957,0-1.732-0.775-1.732-1.732v-5.521"/>
	<g>
		<path fill="#FFFFFF" d="M1461.37,271.691c0-0.47-0.381-0.852-0.854-0.852l0,0c-0.472,0-0.855,0.382-0.855,0.852v38.432
			c0,0.471,0.384,0.852,0.855,0.852l0,0c0.473,0,0.854-0.381,0.854-0.852V271.691z"/>
		<circle fill="#FFFFFF" cx="1460.521" cy="312.607" r="0.86"/>
	</g>
</g>
<g>
	<g>
		<path fill="#326600" d="M2028.899,242.535c2.334,14.322,4.271,34.337,2.707,34.747c-1.562,0.411-6.037-18.938-8.367-33.259
			c-2.334-14.322-1.643-18.195-0.078-18.605C2024.723,225.008,2026.569,228.213,2028.899,242.535z"/>
		<path fill="#326600" d="M2036.417,238.948c-1.471,16.781-4.777,39.624-6.365,39.356c-1.59-0.267-0.859-23.543,0.611-40.325
			c1.469-16.78,3.119-20.71,4.709-20.444C2036.959,217.805,2037.885,222.168,2036.417,238.948z"/>
		<path fill="#3A7C00" d="M2033.799,232.712c0,18.626-1.656,44.22-3.697,44.22c-2.043,0-3.699-25.594-3.699-44.22
			s1.656-23.228,3.699-23.228C2032.143,209.484,2033.799,214.086,2033.799,232.712z"/>
	</g>
	<path fill="#A3B6B7" d="M2015.432,312.618c0,1.378,1.117,2.495,2.496,2.495h25.783c1.379,0,2.496-1.117,2.496-2.495v-43.097
		h-30.775V312.618z"/>
	
		<path fill="none" stroke="#798C8C" stroke-width="1.8926" stroke-linecap="round" stroke-linejoin="round" stroke-miterlimit="10" d="
		M2034.606,273.605v5.521c0,0.957-0.775,1.732-1.734,1.732h-10.539c-0.957,0-1.732-0.775-1.732-1.732v-5.521"/>
	<g>
		<path fill="#FFFFFF" d="M2044.52,271.691c0-0.47-0.383-0.852-0.854-0.852l0,0c-0.473,0-0.855,0.382-0.855,0.852v38.432
			c0,0.471,0.383,0.852,0.855,0.852l0,0c0.471,0,0.854-0.381,0.854-0.852V271.691z"/>
		<circle fill="#FFFFFF" cx="2043.671" cy="312.607" r="0.86"/>
	</g>
</g>
<g>
	
		<line fill="none" stroke="#869392" stroke-width="0.757" stroke-miterlimit="10" x1="1568.368" y1="44.377" x2="1568.368" y2="99.431"/>
	<g>
		<polygon fill="#FFFFFF" points="1570.86,117.853 1560.891,117.853 1564.924,97.916 1570.86,97.916 		"/>
		<polygon fill="#FFFFFF" points="1565.875,117.853 1575.843,117.853 1571.811,97.916 1565.875,97.916 		"/>
	</g>
	<path fill="#869392" d="M1564.96,97.916c0-1.881,1.525-3.406,3.407-3.406c1.881,0,3.406,1.525,3.406,3.406"/>
</g>
<g>
	
		<line fill="none" stroke="#869392" stroke-width="0.757" stroke-miterlimit="10" x1="1665.584" y1="44.377" x2="1665.584" y2="99.431"/>
	<g>
		<polygon fill="#FFFFFF" points="1668.077,117.853 1658.11,117.853 1662.141,97.916 1668.077,97.916 		"/>
		<polygon fill="#FFFFFF" points="1663.092,117.853 1673.061,117.853 1669.028,97.916 1663.092,97.916 		"/>
	</g>
	<path fill="#869392" d="M1662.178,97.916c0-1.881,1.525-3.406,3.406-3.406s3.406,1.525,3.406,3.406"/>
</g>
<g>
	<rect x="1249.517" y="44.377" fill="#FFFFFF" width="48.206" height="4.824"/>
	<rect x="1382.941" y="44.377" fill="#FFFFFF" width="48.206" height="4.824"/>
</g>
<g>
	<rect x="1824.655" y="44.377" fill="#FFFFFF" width="48.207" height="4.824"/>
	<rect x="1958.079" y="44.377" fill="#FFFFFF" width="48.207" height="4.824"/>
</g>
<g>
	<g>
		<polygon fill="#5C706E" points="1777.848,315.232 1776.586,315.232 1782.381,286.637 1786.418,286.637 		"/>
		<polygon fill="#5C706E" points="1828.581,315.232 1829.844,315.232 1824.049,286.637 1820.01,286.637 		"/>
	</g>
	<path fill="#0F4E6D" d="M1832.217,276.577c0,2.509-2.033,4.542-4.541,4.542h-48.418c-2.508,0-4.541-2.033-4.541-4.542v-49.21
		c0-2.509,2.033-4.543,4.541-4.543h48.418c2.508,0,4.541,2.034,4.541,4.543V276.577z"/>
	<path fill="#186B9E" d="M1836.665,281.434c0,2.697-2.186,4.883-4.883,4.883h-57.133c-2.697,0-4.885-2.186-4.885-4.883v-3.312
		c0-2.697,2.188-4.884,4.885-4.884h57.133c2.697,0,4.883,2.187,4.883,4.884V281.434z"/>
</g>
<rect x="1871.542" y="113.646" fill="#A3814B" width="131.727" height="201.586"/>
<g>
	<g>
		<rect x="1873.856" y="116.401" fill="#BAA665" width="126.607" height="198.712"/>
		<g>
			<rect x="1890.344" y="139.758" fill="#C9EFF4" width="35.338" height="103.451"/>
			<rect x="1948.637" y="139.758" fill="#C9EFF4" width="35.338" height="103.451"/>
		</g>
		<rect x="1936.774" y="116.401" fill="#6A767C" width="0.771" height="198.712"/>
	</g>
	<g>
		<g>
			<circle fill="#A3B6B7" cx="1888.951" cy="256.256" r="3.88"/>
			<circle fill="#A3B6B7" cx="1924.994" cy="256.256" r="3.88"/>
			
				<line fill="none" stroke="#E5C28F" stroke-width="3.0282" stroke-linecap="round" stroke-miterlimit="10" x1="1889.655" y1="255.971" x2="1924.993" y2="255.971"/>
		</g>
		<g>
			<circle fill="#A3B6B7" cx="1949.326" cy="256.256" r="3.88"/>
			<circle fill="#A3B6B7" cx="1985.368" cy="256.256" r="3.881"/>
			
				<line fill="none" stroke="#E5C28F" stroke-width="3.0282" stroke-linecap="round" stroke-miterlimit="10" x1="1950.03" y1="255.971" x2="1985.368" y2="255.971"/>
		</g>
	</g>
</g>
<g>
	<circle fill="#303030" cx="1619.764" cy="156.981" r="16.596"/>
	<circle fill="#FFFFFF" cx="1619.665" cy="156.981" r="14.43"/>
	<circle fill="#303030" cx="1619.764" cy="156.981" r="1.279"/>
	<rect x="1619.167" y="148.823" fill="#303030" width="1.07" height="8.158"/>
	
		<rect x="1617.929" y="156.864" transform="matrix(0.9632 0.2689 -0.2689 0.9632 103.3176 -429.2137)" fill="#303030" width="0.625" height="11.254"/>
</g>
<g>
	<g>
		<rect x="1291.786" y="122.19" fill="#74BDD1" width="52.613" height="33.983"/>
		<rect x="1291.786" y="159.273" fill="#74BDD1" width="52.613" height="88.031"/>
		<rect x="1347.499" y="122.19" fill="#74BDD1" width="52.613" height="33.983"/>
		<rect x="1347.499" y="159.273" fill="#74BDD1" width="52.613" height="88.031"/>
	</g>
	<rect x="1344.399" y="122.19" fill="#FFFFFF" width="3.1" height="33.983"/>
	<rect x="1344.399" y="159.273" fill="#FFFFFF" width="3.1" height="88.031"/>
	<rect x="1291.786" y="156.174" fill="#FFFFFF" width="52.613" height="3.1"/>
	<rect x="1347.499" y="156.174" fill="#FFFFFF" width="52.613" height="3.1"/>
	<rect x="1344.399" y="156.174" fill="#FFFFFF" width="3.1" height="3.1"/>
	<rect x="1286.573" y="247.039" fill="#FFFFFF" width="118.752" height="2.766"/>
</g>
</svg>
