<?xml version="1.0" encoding="utf-8"?>
<!-- Generator: Adobe Illustrator 16.0.0, SVG Export Plug-In . SVG Version: 6.00 Build 0)  -->
<!DOCTYPE svg PUBLIC "-//W3C//DTD SVG 1.1//EN" "http://www.w3.org/Graphics/SVG/1.1/DTD/svg11.dtd">
<svg version="1.1" id="Layer_1" xmlns="http://www.w3.org/2000/svg" xmlns:xlink="http://www.w3.org/1999/xlink" x="0px" y="0px"
	 width="930.314px" height="287.984px" viewBox="0 0 930.314 287.984" enable-background="new 0 0 930.314 287.984"
	 xml:space="preserve">
<rect x="17.557" y="17.129" fill="#E5C688" width="896.038" height="270.855"/>
<g opacity="0.5">
	<rect x="18.062" y="222.67" fill="#938506" width="708.018" height="51.569"/>
	<rect x="852.561" y="222.67" fill="#938506" width="60.656" height="51.569"/>
</g>
<g>
	<rect x="595.396" y="109.841" fill="#A3814B" width="102.258" height="69.014"/>
	<rect x="597.543" y="112.132" fill="#475626" width="97.965" height="64.435"/>
</g>
<g>
	<rect x="667.303" y="163.2" fill="#FFFCEB" width="15.771" height="8.609"/>
	<rect x="627.432" y="141.624" fill="#FFFCEB" width="15.771" height="18.702"/>
	<rect x="605.035" y="163.2" fill="#FFFCEB" width="15.772" height="8.609"/>
	<rect x="627.432" y="163.2" fill="#FFFCEB" width="15.771" height="8.609"/>
	<rect x="605.035" y="141.624" fill="#FFFCEB" width="15.772" height="11.299"/>
	<rect x="647.62" y="141.624" fill="#FFFCEB" width="15.771" height="18.702"/>
	<g opacity="0.3">
		<rect x="649.827" y="144.206" opacity="0.4" fill="#495256" width="10.852" height="0.347"/>
		<rect x="649.827" y="145.688" opacity="0.4" fill="#495256" width="10.852" height="0.347"/>
		<rect x="649.827" y="147.17" opacity="0.4" fill="#495256" width="10.852" height="0.348"/>
		<rect x="649.827" y="148.652" opacity="0.4" fill="#495256" width="10.852" height="0.348"/>
		<rect x="649.827" y="150.135" opacity="0.4" fill="#495256" width="10.852" height="0.348"/>
		<rect x="649.827" y="151.617" opacity="0.4" fill="#495256" width="10.852" height="0.347"/>
		<rect x="649.827" y="153.099" opacity="0.4" fill="#495256" width="10.852" height="0.347"/>
		<rect x="649.827" y="154.582" opacity="0.4" fill="#495256" width="10.852" height="0.347"/>
		<rect x="649.827" y="156.064" opacity="0.4" fill="#495256" width="10.852" height="0.348"/>
		<rect x="649.827" y="157.547" opacity="0.4" fill="#495256" width="10.852" height="0.347"/>
	</g>
	<g>
		<rect x="605.225" y="118.815" fill="#A7D2DB" width="15.394" height="18.702"/>
		<g opacity="0.3">
			<rect x="607.181" y="121.149" opacity="0.4" fill="#495256" width="10.851" height="0.347"/>
			<rect x="607.181" y="122.631" opacity="0.4" fill="#495256" width="10.851" height="0.347"/>
			<rect x="607.181" y="124.113" opacity="0.4" fill="#495256" width="10.851" height="0.348"/>
			<rect x="607.181" y="125.595" opacity="0.4" fill="#495256" width="10.851" height="0.347"/>
			<rect x="607.181" y="127.078" opacity="0.4" fill="#495256" width="10.851" height="0.347"/>
			<rect x="607.181" y="128.56" opacity="0.4" fill="#495256" width="10.851" height="0.348"/>
			<rect x="607.181" y="130.042" opacity="0.4" fill="#495256" width="10.851" height="0.347"/>
			<rect x="607.181" y="131.525" opacity="0.4" fill="#495256" width="10.851" height="0.347"/>
			<rect x="607.181" y="133.007" opacity="0.4" fill="#495256" width="10.851" height="0.348"/>
			<rect x="607.181" y="134.489" opacity="0.4" fill="#495256" width="10.851" height="0.348"/>
		</g>
		<g>
			<rect x="628.085" y="118.136" fill="#FFFCEB" width="24.604" height="17.747"/>
			<g opacity="0.3">
				<rect x="630.039" y="120.917" opacity="0.4" fill="#495256" width="20.379" height="0.317"/>
				<rect x="630.039" y="122.27" opacity="0.4" fill="#495256" width="20.379" height="0.318"/>
				<rect x="630.039" y="123.624" opacity="0.4" fill="#495256" width="20.379" height="0.317"/>
				<rect x="630.039" y="124.977" opacity="0.4" fill="#495256" width="20.379" height="0.317"/>
				<rect x="630.039" y="126.332" opacity="0.4" fill="#495256" width="20.379" height="0.316"/>
				<rect x="630.039" y="127.685" opacity="0.4" fill="#495256" width="20.379" height="0.316"/>
				<rect x="630.039" y="129.039" opacity="0.4" fill="#495256" width="20.379" height="0.316"/>
				<rect x="630.039" y="130.393" opacity="0.4" fill="#495256" width="20.379" height="0.317"/>
				<rect x="630.039" y="131.746" opacity="0.4" fill="#495256" width="20.379" height="0.317"/>
				<rect x="630.039" y="133.1" opacity="0.4" fill="#495256" width="20.379" height="0.316"/>
			</g>
		</g>
	</g>
	<g opacity="0.3">
		<rect x="629.419" y="144.801" opacity="0.4" fill="#495256" width="11.924" height="0.336"/>
		<rect x="629.419" y="146.234" opacity="0.4" fill="#495256" width="11.924" height="0.338"/>
		<rect x="629.419" y="147.671" opacity="0.4" fill="#495256" width="11.924" height="0.336"/>
		<rect x="629.419" y="149.104" opacity="0.4" fill="#495256" width="11.924" height="0.337"/>
		<rect x="629.419" y="150.541" opacity="0.4" fill="#495256" width="11.924" height="0.336"/>
		<rect x="629.419" y="151.976" opacity="0.4" fill="#495256" width="11.924" height="0.334"/>
		<rect x="629.419" y="153.411" opacity="0.4" fill="#495256" width="11.924" height="0.335"/>
		<rect x="629.419" y="154.845" opacity="0.4" fill="#495256" width="11.924" height="0.336"/>
		<rect x="629.419" y="156.281" opacity="0.4" fill="#495256" width="11.924" height="0.335"/>
		<rect x="629.419" y="157.716" opacity="0.4" fill="#495256" width="11.924" height="0.337"/>
	</g>
	<g>
		<rect x="671.088" y="119.209" fill="#FFFCEB" width="15.772" height="18.702"/>
		<g opacity="0.3">
			<rect x="673.076" y="122.385" opacity="0.4" fill="#495256" width="11.923" height="0.336"/>
			<rect x="673.076" y="123.82" opacity="0.4" fill="#495256" width="11.923" height="0.337"/>
			<rect x="673.076" y="125.255" opacity="0.4" fill="#495256" width="11.923" height="0.336"/>
			<rect x="673.076" y="126.689" opacity="0.4" fill="#495256" width="11.923" height="0.337"/>
			<rect x="673.076" y="128.126" opacity="0.4" fill="#495256" width="11.923" height="0.336"/>
			<rect x="673.076" y="129.561" opacity="0.4" fill="#495256" width="11.923" height="0.334"/>
			<rect x="673.076" y="130.996" opacity="0.4" fill="#495256" width="11.923" height="0.335"/>
			<rect x="673.076" y="132.431" opacity="0.4" fill="#495256" width="11.923" height="0.335"/>
			<rect x="673.076" y="133.865" opacity="0.4" fill="#495256" width="11.923" height="0.335"/>
			<rect x="673.076" y="135.301" opacity="0.4" fill="#495256" width="11.923" height="0.336"/>
		</g>
	</g>
	<g opacity="0.3">
		<rect x="606.645" y="143.515" opacity="0.4" fill="#495256" width="12.649" height="0.194"/>
		<rect x="606.645" y="144.341" opacity="0.4" fill="#495256" width="12.649" height="0.195"/>
		<rect x="606.645" y="145.168" opacity="0.4" fill="#495256" width="12.649" height="0.193"/>
		<rect x="606.645" y="145.993" opacity="0.4" fill="#495256" width="12.649" height="0.194"/>
		<rect x="606.645" y="146.82" opacity="0.4" fill="#495256" width="12.649" height="0.193"/>
		<rect x="606.645" y="147.646" opacity="0.4" fill="#495256" width="12.649" height="0.192"/>
		<rect x="606.645" y="148.472" opacity="0.4" fill="#495256" width="12.649" height="0.193"/>
		<rect x="606.645" y="149.299" opacity="0.4" fill="#495256" width="12.649" height="0.192"/>
		<rect x="606.645" y="150.124" opacity="0.4" fill="#495256" width="12.649" height="0.194"/>
		<rect x="606.645" y="150.951" opacity="0.4" fill="#495256" width="12.649" height="0.193"/>
	</g>
</g>
<g>
	<g>
		<path fill="#326600" d="M297.789,214.909c2.333,14.321,4.27,34.337,2.706,34.747c-1.563,0.411-6.037-18.938-8.369-33.26
			c-2.333-14.321-1.641-18.193-0.077-18.605C293.612,197.382,295.456,200.588,297.789,214.909z"/>
		<path fill="#326600" d="M305.304,211.322c-1.469,16.781-4.776,39.625-6.365,39.357s-0.858-23.545,0.611-40.326
			c1.469-16.78,3.12-20.711,4.709-20.443S306.773,194.541,305.304,211.322z"/>
		<path fill="#3A7C00" d="M302.689,205.086c0,18.625-1.656,44.221-3.699,44.221s-3.698-25.596-3.698-44.221
			s1.655-23.229,3.698-23.229S302.689,186.461,302.689,205.086z"/>
	</g>
	<path fill="#A3B6B7" d="M284.321,284.992c0,1.378,1.118,2.495,2.496,2.495h25.784c1.378,0,2.495-1.117,2.495-2.495v-43.097h-30.774
		V284.992z"/>
	
		<path fill="none" stroke="#798C8C" stroke-width="1.8926" stroke-linecap="round" stroke-linejoin="round" stroke-miterlimit="10" d="
		M303.493,245.979v5.521c0,0.957-0.775,1.732-1.731,1.732h-10.541c-0.958,0-1.733-0.775-1.733-1.732v-5.521"/>
	<g>
		<path fill="#FFFFFF" d="M313.408,244.066c0-0.471-0.381-0.853-0.854-0.853l0,0c-0.472,0-0.855,0.382-0.855,0.853v38.431
			c0,0.471,0.384,0.852,0.855,0.852l0,0c0.472,0,0.854-0.381,0.854-0.852V244.066z"/>
		<circle fill="#FFFFFF" cx="312.56" cy="284.981" r="0.86"/>
	</g>
</g>
<g>
	<g>
		<path fill="#326600" d="M880.938,214.909c2.334,14.321,4.271,34.337,2.707,34.747c-1.562,0.411-6.037-18.938-8.368-33.26
			c-2.333-14.321-1.643-18.193-0.078-18.605C876.762,197.382,878.606,200.588,880.938,214.909z"/>
		<path fill="#326600" d="M888.454,211.322c-1.47,16.781-4.776,39.625-6.365,39.357s-0.858-23.545,0.611-40.326
			c1.469-16.78,3.12-20.711,4.709-20.443S889.924,194.541,888.454,211.322z"/>
		<path fill="#3A7C00" d="M885.838,205.086c0,18.625-1.656,44.221-3.698,44.221s-3.698-25.596-3.698-44.221
			s1.656-23.229,3.698-23.229S885.838,186.461,885.838,205.086z"/>
	</g>
	<path fill="#A3B6B7" d="M867.471,284.992c0,1.378,1.117,2.495,2.496,2.495h25.783c1.379,0,2.496-1.117,2.496-2.495v-43.097h-30.775
		V284.992z"/>
	
		<path fill="none" stroke="#798C8C" stroke-width="1.8926" stroke-linecap="round" stroke-linejoin="round" stroke-miterlimit="10" d="
		M886.644,245.979v5.521c0,0.957-0.775,1.732-1.733,1.732h-10.54c-0.956,0-1.731-0.775-1.731-1.732v-5.521"/>
	<g>
		<path fill="#FFFFFF" d="M896.559,244.066c0-0.471-0.383-0.853-0.854-0.853l0,0c-0.473,0-0.854,0.382-0.854,0.853v38.431
			c0,0.471,0.382,0.852,0.854,0.852l0,0c0.472,0,0.854-0.381,0.854-0.852V244.066z"/>
		<circle fill="#FFFFFF" cx="895.71" cy="284.981" r="0.86"/>
	</g>
</g>
<g>
	
		<line fill="none" stroke="#869392" stroke-width="0.757" stroke-miterlimit="10" x1="420.406" y1="16.751" x2="420.406" y2="71.804"/>
	<g>
		<polygon fill="#FFFFFF" points="422.898,90.226 412.93,90.226 416.963,70.29 422.898,70.29 		"/>
		<polygon fill="#FFFFFF" points="417.914,90.226 427.882,90.226 423.85,70.29 417.914,70.29 		"/>
	</g>
	<path fill="#869392" d="M416.999,70.29c0-1.882,1.525-3.407,3.407-3.407c1.881,0,3.406,1.525,3.406,3.407"/>
</g>
<g>
	
		<line fill="none" stroke="#869392" stroke-width="0.757" stroke-miterlimit="10" x1="517.623" y1="16.751" x2="517.623" y2="71.804"/>
	<g>
		<polygon fill="#FFFFFF" points="520.115,90.226 510.147,90.226 514.18,70.29 520.115,70.29 		"/>
		<polygon fill="#FFFFFF" points="515.131,90.226 525.099,90.226 521.066,70.29 515.131,70.29 		"/>
	</g>
	<path fill="#869392" d="M514.217,70.29c0-1.882,1.525-3.407,3.406-3.407s3.406,1.525,3.406,3.407"/>
</g>
<g>
	<rect x="101.556" y="16.751" fill="#FFFFFF" width="48.206" height="4.824"/>
	<rect x="234.979" y="16.751" fill="#FFFFFF" width="48.206" height="4.824"/>
</g>
<g>
	<rect x="676.693" y="16.751" fill="#FFFFFF" width="48.206" height="4.824"/>
	<rect x="810.117" y="16.751" fill="#FFFFFF" width="48.206" height="4.824"/>
</g>
<g>
	<g>
		<polygon fill="#5C706E" points="629.887,287.606 628.625,287.606 634.42,259.01 638.456,259.01 		"/>
		<polygon fill="#5C706E" points="680.619,287.606 681.882,287.606 676.087,259.01 672.049,259.01 		"/>
	</g>
	<path fill="#0F4E6D" d="M684.256,248.951c0,2.508-2.033,4.542-4.542,4.542h-48.417c-2.509,0-4.541-2.034-4.541-4.542V199.74
		c0-2.508,2.032-4.542,4.541-4.542h48.417c2.509,0,4.542,2.034,4.542,4.542V248.951z"/>
	<path fill="#186B9E" d="M688.703,253.807c0,2.697-2.187,4.883-4.884,4.883h-57.133c-2.696,0-4.884-2.186-4.884-4.883v-3.312
		c0-2.697,2.188-4.885,4.884-4.885h57.133c2.697,0,4.884,2.188,4.884,4.885V253.807z"/>
</g>
<rect x="723.58" y="86.02" fill="#A3814B" width="131.727" height="201.586"/>
<g>
	<g>
		<rect x="725.895" y="88.775" fill="#BAA665" width="126.606" height="198.712"/>
		<g>
			<rect x="742.383" y="112.131" fill="#C9EFF4" width="35.338" height="103.451"/>
			<rect x="800.675" y="112.131" fill="#C9EFF4" width="35.339" height="103.451"/>
		</g>
		<rect x="788.812" y="88.775" fill="#6A767C" width="0.771" height="198.712"/>
	</g>
	<g>
		<g>
			<circle fill="#A3B6B7" cx="740.989" cy="228.629" r="3.88"/>
			<circle fill="#A3B6B7" cx="777.031" cy="228.629" r="3.88"/>
			
				<line fill="none" stroke="#E5C28F" stroke-width="3.0282" stroke-linecap="round" stroke-miterlimit="10" x1="741.693" y1="228.345" x2="777.031" y2="228.345"/>
		</g>
		<g>
			<circle fill="#A3B6B7" cx="801.364" cy="228.629" r="3.88"/>
			<circle fill="#A3B6B7" cx="837.406" cy="228.629" r="3.88"/>
			
				<line fill="none" stroke="#E5C28F" stroke-width="3.0282" stroke-linecap="round" stroke-miterlimit="10" x1="802.067" y1="228.345" x2="837.406" y2="228.345"/>
		</g>
	</g>
</g>
<g>
	<circle fill="#303030" cx="471.802" cy="129.355" r="16.596"/>
	<circle fill="#FFFFFF" cx="471.703" cy="129.355" r="14.43"/>
	<circle fill="#303030" cx="471.802" cy="129.355" r="1.28"/>
	<rect x="471.205" y="121.197" fill="#303030" width="1.069" height="8.158"/>
	
		<rect x="469.967" y="129.239" transform="matrix(0.963 0.2697 -0.2697 0.963 53.7887 -121.8191)" fill="#303030" width="0.625" height="11.253"/>
</g>
<g>
	<g>
		<rect x="143.824" y="94.564" fill="#74BDD1" width="52.613" height="33.983"/>
		<rect x="143.824" y="131.648" fill="#74BDD1" width="52.613" height="88.032"/>
		<rect x="199.537" y="94.564" fill="#74BDD1" width="52.613" height="33.983"/>
		<rect x="199.537" y="131.648" fill="#74BDD1" width="52.613" height="88.032"/>
	</g>
	<rect x="196.437" y="94.564" fill="#FFFFFF" width="3.101" height="33.983"/>
	<rect x="196.437" y="131.648" fill="#FFFFFF" width="3.101" height="88.032"/>
	<rect x="143.824" y="128.547" fill="#FFFFFF" width="52.613" height="3.101"/>
	<rect x="199.537" y="128.547" fill="#FFFFFF" width="52.613" height="3.101"/>
	<rect x="196.437" y="128.547" fill="#FFFFFF" width="3.101" height="3.101"/>
	<rect x="138.611" y="219.412" fill="#FFFFFF" width="118.753" height="2.768"/>
</g>
<g>
	<g>
		<rect x="290.536" y="111.113" fill="#FFFFFF" width="99.839" height="66.582"/>
		<path fill="#A4814B" d="M389.146,112.342v64.125h-97.381v-64.125H389.146 M391.604,109.884H289.307v69.041h102.297V109.884
			L391.604,109.884z"/>
	</g>
	<g>
		<g>
			<path fill="#F05B46" d="M312.16,144.496c-6.395,0-11.598-5.203-11.598-11.598c0-6.395,5.203-11.598,11.598-11.598
				s11.598,5.203,11.598,11.598C323.758,139.293,318.555,144.496,312.16,144.496z M312.16,122.12
				c-5.943,0-10.778,4.835-10.778,10.778c0,5.943,4.835,10.778,10.778,10.778s10.778-4.835,10.778-10.778
				C322.938,126.955,318.104,122.12,312.16,122.12z"/>
		</g>
		<g>
			<g>
				<rect x="308.844" y="124.721" fill="#F05B46" width="6.633" height="16.354"/>
			</g>
			<g>
				<rect x="303.983" y="129.582" fill="#F05B46" width="16.354" height="6.632"/>
			</g>
		</g>
	</g>
	<g opacity="0.3">
		<rect x="299.77" y="149.05" opacity="0.4" fill="#4A5357" width="24.78" height="0.53"/>
		<rect x="299.77" y="151.321" opacity="0.4" fill="#4A5357" width="24.78" height="0.534"/>
		<rect x="299.77" y="153.594" opacity="0.4" fill="#4A5357" width="24.78" height="0.533"/>
		<rect x="299.77" y="155.867" opacity="0.4" fill="#4A5357" width="24.78" height="0.532"/>
		<rect x="299.77" y="158.142" opacity="0.4" fill="#4A5357" width="24.78" height="0.53"/>
		<rect x="299.77" y="160.415" opacity="0.4" fill="#4A5357" width="24.78" height="0.53"/>
		<rect x="299.77" y="162.688" opacity="0.4" fill="#4A5357" width="24.78" height="0.53"/>
		<rect x="299.77" y="164.961" opacity="0.4" fill="#4A5357" width="24.78" height="0.531"/>
		<rect x="299.77" y="167.234" opacity="0.4" fill="#4A5357" width="24.78" height="0.531"/>
		<rect x="299.77" y="169.506" opacity="0.4" fill="#4A5357" width="24.78" height="0.533"/>
	</g>
	<g opacity="0.3">
		<rect x="339.127" y="163.55" opacity="0.4" fill="#4A5357" width="21.475" height="0.256"/>
		<rect x="339.127" y="164.805" opacity="0.4" fill="#4A5357" width="21.475" height="0.257"/>
		<rect x="339.127" y="166.062" opacity="0.4" fill="#4A5357" width="21.475" height="0.256"/>
		<rect x="339.127" y="167.318" opacity="0.4" fill="#4A5357" width="21.475" height="0.256"/>
		<rect x="339.127" y="168.574" opacity="0.4" fill="#4A5357" width="21.475" height="0.255"/>
		<rect x="339.127" y="169.831" opacity="0.4" fill="#4A5357" width="21.475" height="0.255"/>
	</g>
	<g>
		<g opacity="0.3">
			<g opacity="0.4">
				<rect x="333.436" y="128.686" fill="#4A5357" width="11.907" height="0.255"/>
			</g>
			<g opacity="0.4">
				<rect x="333.436" y="129.778" fill="#4A5357" width="11.907" height="0.256"/>
			</g>
			<g opacity="0.4">
				<rect x="333.436" y="130.87" fill="#4A5357" width="11.907" height="0.256"/>
			</g>
			<g opacity="0.4">
				<rect x="333.436" y="131.962" fill="#4A5357" width="11.907" height="0.256"/>
			</g>
			<g opacity="0.4">
				<rect x="333.436" y="133.055" fill="#4A5357" width="11.907" height="0.255"/>
			</g>
			<g opacity="0.4">
				<rect x="333.436" y="134.148" fill="#4A5357" width="11.907" height="0.254"/>
			</g>
		</g>
		<g opacity="0.3">
			<g opacity="0.4">
				<rect x="367.167" y="128.686" fill="#4A5357" width="11.907" height="0.255"/>
			</g>
			<g opacity="0.4">
				<rect x="367.167" y="129.778" fill="#4A5357" width="11.907" height="0.256"/>
			</g>
			<g opacity="0.4">
				<rect x="367.167" y="130.87" fill="#4A5357" width="11.907" height="0.256"/>
			</g>
			<g opacity="0.4">
				<rect x="367.167" y="131.962" fill="#4A5357" width="11.907" height="0.256"/>
			</g>
			<g opacity="0.4">
				<rect x="367.167" y="133.055" fill="#4A5357" width="11.907" height="0.255"/>
			</g>
			<g opacity="0.4">
				<rect x="367.167" y="134.148" fill="#4A5357" width="11.907" height="0.254"/>
			</g>
		</g>
		<g>
			<g>
				<g>
					<g>
						<path fill="#C4C5C7" d="M349.691,154.367c-1.776,0-4.756-0.222-4.756-1.706c0-2.347,0.374-14.184,7.753-16.718
							c1.391-0.478,2.52-0.438,3.188,0.131c0.488,0.416,0.81,0.808,0.893,2.467l0.042,0.815c0.349,6.662,0.517,13.243-1.54,14.16
							C354.131,154.025,351.889,154.367,349.691,154.367z M354.427,136.202c-0.441,0-0.976,0.104-1.546,0.299
							c-7,2.403-7.354,13.883-7.354,16.159c0,0.657,1.713,1.115,4.165,1.115c2.089,0,4.284-0.329,5.339-0.8
							c1.859-0.828,1.407-9.447,1.19-13.589l-0.042-0.816c-0.077-1.529-0.355-1.766-0.677-2.04
							C355.242,136.311,354.884,136.202,354.427,136.202z"/>
					</g>
					<g>
						<path fill="#C4C5C7" d="M349.078,148.24c-0.013,0-0.024,0-0.037-0.002c-0.135-0.021-0.227-0.146-0.207-0.28
							c0.009-0.063,1.026-6.283,7.756-6.365c0.001,0,0.002,0,0.003,0c0.134,0,0.245,0.108,0.246,0.243
							c0.002,0.136-0.107,0.248-0.243,0.25c-6.307,0.077-7.24,5.707-7.276,5.946C349.303,148.153,349.198,148.24,349.078,148.24z"/>
					</g>
					<g>
						<path fill="#C4C5C7" d="M352.836,142.973c-0.031,0-0.062-0.006-0.094-0.019c-2.381-0.979-2.065-3.504-2.062-3.529
							c0.018-0.135,0.137-0.233,0.276-0.21c0.135,0.018,0.229,0.142,0.212,0.276c-0.012,0.088-0.263,2.176,1.761,3.007
							c0.125,0.052,0.186,0.195,0.134,0.321C353.024,142.916,352.933,142.973,352.836,142.973z"/>
					</g>
					<g>
						<path fill="#C4C5C7" d="M351.872,151.851c-0.021,0-0.043-0.003-0.064-0.008c-0.132-0.037-0.209-0.172-0.173-0.303
							c1.167-4.263-1.561-5.863-1.677-5.93c-0.118-0.066-0.16-0.217-0.093-0.334c0.066-0.119,0.216-0.16,0.334-0.095
							c0.032,0.018,3.183,1.842,1.912,6.487C352.08,151.78,351.98,151.851,351.872,151.851z"/>
					</g>
					<g>
						<path fill="#C4C5C7" d="M348.84,151.979c-0.173,0-0.294-0.021-0.307-0.022c-0.134-0.023-0.224-0.15-0.201-0.283
							c0.023-0.135,0.149-0.221,0.284-0.202c0.007,0.001,0.642,0.104,0.991-0.233c0.209-0.201,0.285-0.537,0.227-0.996
							c-0.206-1.609,1.267-2.332,2.074-2.489c0.132-0.028,0.263,0.062,0.289,0.194s-0.061,0.263-0.194,0.289
							c-0.077,0.016-1.878,0.392-1.681,1.943c0.08,0.624-0.047,1.101-0.376,1.416C349.608,151.918,349.144,151.979,348.84,151.979z"
							/>
					</g>
					<g>
						<path fill="#C4C5C7" d="M354.904,147.474c-0.003,0-0.006,0-0.009,0c-0.136-0.006-0.242-0.12-0.237-0.256
							c0.024-0.613-0.035-0.99-0.173-1.122c-0.104-0.099-0.313-0.086-0.646-0.057c-0.292,0.025-0.656,0.058-1.051-0.02
							c-1.457-0.287-1.173-2.608-1.16-2.707c0.018-0.135,0.14-0.232,0.276-0.212c0.135,0.017,0.23,0.141,0.212,0.275
							c-0.002,0.02-0.24,1.962,0.768,2.16c0.327,0.064,0.638,0.036,0.912,0.013c0.39-0.035,0.757-0.068,1.029,0.19
							c0.26,0.246,0.356,0.693,0.326,1.497C355.146,147.37,355.036,147.474,354.904,147.474z"/>
					</g>
					<g>
						<path fill="#C4C5C7" d="M346.451,150.109c-0.003,0-0.007,0-0.01,0c-0.136-0.005-0.241-0.119-0.236-0.255
							c0.001-0.035,0.172-3.458,3.264-3.458c0.137,0,0.246,0.11,0.246,0.246c0,0.137-0.109,0.246-0.246,0.246
							c-2.616,0-2.767,2.863-2.771,2.985C346.691,150.006,346.582,150.109,346.451,150.109z"/>
					</g>
					<g>
						<path fill="#C4C5C7" d="M350.65,144.804c-0.125,0-0.233-0.096-0.245-0.224c-0.032-0.338-0.151-0.593-0.359-0.758
							c-0.374-0.298-0.93-0.234-0.936-0.233c-0.137,0.019-0.259-0.077-0.276-0.211c-0.019-0.135,0.077-0.259,0.211-0.277
							c0.031-0.003,0.766-0.097,1.309,0.336c0.316,0.252,0.498,0.622,0.542,1.098c0.013,0.136-0.088,0.255-0.223,0.268
							C350.665,144.804,350.657,144.804,350.65,144.804z"/>
					</g>
					<g>
						<path fill="#C4C5C7" d="M351.124,141.339c-0.136,0-0.246-0.11-0.246-0.246c0-0.136,0.11-0.246,0.246-0.247
							c0.121,0,2.961-0.039,2.961-2.701c0-0.136,0.11-0.246,0.246-0.246c0.136,0,0.246,0.11,0.246,0.246
							C354.576,141.302,351.158,141.339,351.124,141.339z"/>
					</g>
				</g>
				<g>
					<g>
						<path fill="#C4C5C7" d="M367.615,154.381L367.615,154.381c-2.055-0.001-4.344-0.336-5.832-0.855
							c-2.107-0.734-1.935-7.268-1.579-13.896l0.058-1.088c0.083-1.659,0.405-2.051,0.884-2.459
							c0.684-0.582,1.806-0.617,3.196-0.139c7.379,2.534,7.753,14.371,7.753,16.718c0,0.427-0.251,1.011-1.451,1.372
							C369.893,154.26,368.845,154.381,367.615,154.381z M362.604,136.202c-0.457,0-0.815,0.108-1.066,0.321
							c-0.331,0.282-0.609,0.519-0.686,2.047l-0.058,1.09c-0.222,4.108-0.681,12.657,1.183,13.306
							c1.431,0.499,3.643,0.821,5.637,0.821h0c1.173,0,2.162-0.111,2.859-0.321c0.471-0.142,1.032-0.397,1.032-0.807
							c0-2.276-0.355-13.756-7.355-16.159C363.58,136.306,363.046,136.202,362.604,136.202z"/>
					</g>
					<g>
						<path fill="#C4C5C7" d="M367.953,148.24c-0.12,0-0.224-0.087-0.243-0.209c-0.037-0.239-0.969-5.869-7.276-5.946
							c-0.136-0.002-0.245-0.113-0.243-0.25c0.001-0.135,0.111-0.243,0.246-0.243c0,0,0.002,0,0.003,0
							c6.731,0.083,7.747,6.302,7.756,6.365c0.021,0.134-0.073,0.26-0.206,0.28C367.978,148.24,367.965,148.24,367.953,148.24z"/>
					</g>
					<g>
						<path fill="#C4C5C7" d="M364.195,142.973c-0.097,0-0.188-0.058-0.228-0.153c-0.052-0.125,0.008-0.27,0.134-0.321
							c2.024-0.832,1.772-2.919,1.761-3.007c-0.018-0.135,0.077-0.259,0.211-0.276c0.138-0.023,0.258,0.075,0.277,0.21
							c0.003,0.025,0.319,2.55-2.062,3.529C364.258,142.968,364.227,142.973,364.195,142.973z"/>
					</g>
					<g>
						<path fill="#C4C5C7" d="M365.159,151.851c-0.108,0-0.208-0.071-0.238-0.182c-1.271-4.646,1.88-6.47,1.912-6.487
							c0.117-0.065,0.268-0.024,0.334,0.095c0.066,0.117,0.024,0.268-0.094,0.334c-0.117,0.066-2.843,1.667-1.677,5.93
							c0.036,0.131-0.042,0.266-0.173,0.303C365.202,151.848,365.18,151.851,365.159,151.851z"/>
					</g>
					<g>
						<path fill="#C4C5C7" d="M368.191,151.979c-0.304,0-0.769-0.062-1.106-0.384c-0.329-0.315-0.456-0.792-0.376-1.416
							c0.199-1.559-1.604-1.929-1.68-1.943c-0.134-0.025-0.221-0.155-0.195-0.289c0.026-0.133,0.152-0.223,0.289-0.194
							c0.808,0.157,2.28,0.88,2.074,2.489c-0.058,0.459,0.019,0.795,0.228,0.996c0.35,0.338,0.985,0.234,0.991,0.233
							c0.137-0.019,0.261,0.067,0.284,0.202c0.022,0.133-0.067,0.26-0.201,0.283C368.485,151.959,368.365,151.979,368.191,151.979z"
							/>
					</g>
					<g>
						<path fill="#C4C5C7" d="M362.126,147.474c-0.131,0-0.241-0.104-0.246-0.237c-0.031-0.804,0.067-1.251,0.326-1.497
							c0.272-0.259,0.64-0.226,1.029-0.19c0.274,0.023,0.585,0.052,0.912-0.013c1.007-0.198,0.77-2.141,0.768-2.16
							c-0.018-0.135,0.077-0.258,0.212-0.275c0.134-0.015,0.258,0.078,0.276,0.212c0.013,0.098,0.297,2.418-1.16,2.707
							c-0.396,0.077-0.76,0.045-1.051,0.02c-0.332-0.029-0.542-0.042-0.646,0.057c-0.138,0.132-0.196,0.509-0.173,1.122
							c0.005,0.136-0.101,0.25-0.237,0.256C362.132,147.474,362.129,147.474,362.126,147.474z"/>
					</g>
					<g>
						<path fill="#C4C5C7" d="M370.58,150.109c-0.132,0-0.241-0.104-0.246-0.235c-0.005-0.122-0.155-2.985-2.772-2.985
							c-0.136,0-0.246-0.109-0.246-0.246c0-0.136,0.11-0.246,0.246-0.246c3.092,0,3.263,3.423,3.265,3.458
							c0.005,0.136-0.101,0.25-0.236,0.255C370.586,150.109,370.583,150.109,370.58,150.109z"/>
					</g>
					<g>
						<path fill="#C4C5C7" d="M366.381,144.804c-0.007,0-0.015,0-0.022-0.001c-0.135-0.013-0.235-0.132-0.223-0.268
							c0.043-0.477,0.226-0.846,0.542-1.098c0.543-0.433,1.277-0.34,1.309-0.336c0.134,0.018,0.229,0.141,0.211,0.275
							c-0.017,0.135-0.138,0.232-0.276,0.212c-0.005,0.001-0.562-0.067-0.938,0.235c-0.206,0.166-0.326,0.42-0.356,0.756
							C366.614,144.709,366.507,144.804,366.381,144.804z"/>
					</g>
					<g>
						<path fill="#C4C5C7" d="M365.908,141.339c-0.035,0-3.453-0.037-3.453-3.193c0-0.136,0.11-0.246,0.246-0.246
							c0.136,0,0.246,0.11,0.246,0.246c0,2.662,2.84,2.7,2.961,2.701c0.136,0,0.246,0.11,0.246,0.247
							C366.153,141.229,366.044,141.339,365.908,141.339z"/>
					</g>
				</g>
			</g>
			<g>
				<path fill="#C4C5C7" d="M360.239,142.613c-0.022,0-0.046-0.002-0.068-0.008c-0.065-0.016-0.642-0.155-0.852-0.241
					c-0.391-0.164-0.643-0.371-0.806-0.569c-0.158,0.186-0.4,0.371-0.772,0.505c-0.239,0.086-0.891,0.189-0.965,0.201
					c-0.077,0.014-0.162-0.009-0.227-0.06c-0.064-0.05-0.105-0.124-0.112-0.206l-0.156-1.684c-0.007-0.078,0.018-0.156,0.067-0.217
					c0.051-0.061,0.124-0.098,0.203-0.104c0.322-0.027,0.75-0.134,0.846-0.244c0.273-0.312,0.249-0.749,0.249-0.753l0-10.033
					c0-0.164,0.132-0.295,0.295-0.295h1.148c0.163,0,0.295,0.132,0.295,0.295v10.012c0,0.026-0.026,0.405,0.179,0.654
					c0.089,0.107,0.562,0.238,0.926,0.282c0.161,0.02,0.276,0.166,0.257,0.327l-0.214,1.875c-0.01,0.084-0.055,0.16-0.124,0.208
					C360.358,142.594,360.3,142.613,360.239,142.613z M358.515,140.802c0.002,0,0.004,0,0.007,0c0.16,0.004,0.289,0.131,0.289,0.291
					c0.001,0.011,0.032,0.43,0.737,0.726c0.076,0.031,0.256,0.083,0.438,0.13l0.144-1.259c-0.334-0.064-0.812-0.196-1.02-0.447
					c-0.354-0.429-0.318-0.991-0.312-1.054l-0.001-9.692h-0.559v9.716c0.002,0.006,0.045,0.662-0.394,1.163
					c-0.211,0.241-0.646,0.354-0.947,0.406l0.101,1.083c0.22-0.04,0.451-0.086,0.543-0.12c0.651-0.236,0.679-0.642,0.68-0.659
					C358.228,140.928,358.357,140.802,358.515,140.802z"/>
			</g>
			<g>
				<path fill="#C4C5C7" d="M359.09,131.211h-1.156c-0.164,0-0.296-0.132-0.296-0.295c0-0.164,0.132-0.295,0.296-0.295h1.156
					c0.163,0,0.295,0.132,0.295,0.295C359.385,131.078,359.253,131.211,359.09,131.211z"/>
			</g>
			<g>
				<path fill="#C4C5C7" d="M359.09,134.99h-1.156c-0.164,0-0.296-0.132-0.296-0.295s0.132-0.295,0.296-0.295h1.156
					c0.163,0,0.295,0.132,0.295,0.295S359.253,134.99,359.09,134.99z"/>
			</g>
			<g>
				<path fill="#C4C5C7" d="M359.09,133.1h-1.156c-0.164,0-0.296-0.132-0.296-0.295s0.132-0.295,0.296-0.295h1.156
					c0.163,0,0.295,0.132,0.295,0.295S359.253,133.1,359.09,133.1z"/>
			</g>
			<g>
				<path fill="#C4C5C7" d="M359.09,136.88h-1.156c-0.164,0-0.296-0.132-0.296-0.295s0.132-0.295,0.296-0.295h1.156
					c0.163,0,0.295,0.132,0.295,0.295S359.253,136.88,359.09,136.88z"/>
			</g>
			<g>
				<path fill="#C4C5C7" d="M359.09,138.769h-1.156c-0.164,0-0.296-0.132-0.296-0.295c0-0.163,0.132-0.295,0.296-0.295h1.156
					c0.163,0,0.295,0.132,0.295,0.295C359.385,138.637,359.253,138.769,359.09,138.769z"/>
			</g>
		</g>
		<g>
			
				<rect x="362.598" y="127.56" transform="matrix(0.3026 0.9531 -0.9531 0.3026 376.948 -254.9609)" fill="#C8CACB" width="0.205" height="5.092"/>
		</g>
		<g>
			
				<rect x="342.457" y="137.225" transform="matrix(0.7329 0.6803 -0.6803 0.7329 185.5843 -198.0409)" fill="#C8CACB" width="5.093" height="0.205"/>
		</g>
	</g>
	<g>
		<g>
			<rect x="322.999" y="116.953" fill="#C4C5C7" width="34.75" height="0.819"/>
		</g>
		<g>
			<rect x="322.999" y="119.026" fill="#C4C5C7" width="34.75" height="0.819"/>
		</g>
	</g>
	<g id="Layer_2_1_">
		<circle fill="#D9DBDC" cx="368.867" cy="159.749" r="1.628"/>
		<path fill="#D9DBDC" d="M381.379,169.749c0,0-0.001,0-0.002,0l-4.085,0.007l0.938-3.594c0.064-0.432,0.021-0.732-0.065-1.014
			c-0.364-1.249-3.722-3.938-3.722-3.938s-2.027-1.826-3.306-1.121c-0.689,0.331-0.747,1.049-0.733,1.466
			c-0.001,0.011,0.547,4.062,0.547,4.062s-0.558,2.042-0.559,2.641c-1.871,0.23-3.427,1.67-3.44,2.408
			c-0.014,0.852,0.879,0.984,0.879,0.984c0.065,0,0.962,0,2.056-0.003c-0.425-0.335-0.704-0.849-0.704-1.433
			c0-1.011,0.823-1.834,1.834-1.834c1.012,0,1.834,0.823,1.834,1.834c0,0.582-0.276,1.094-0.699,1.43
			c1.058-0.002,1.893-0.004,1.893-0.004c0.586,0,0.994-0.333,0.858-1.061c-0.133-0.707-1.507-1.939-3.103-2.324l0.637-2.611
			l-0.314-2.658l3.554,2.804l-0.556,4.919c0.001,0.521,0.425,0.943,0.947,0.943c0.001,0,0.001,0,0.002,0h0.052h0.001h0l5.256-0.009
			c0.523-0.001,0.947-0.426,0.945-0.948C382.325,170.172,381.901,169.749,381.379,169.749z"/>
		<path fill="#D9DBDC" d="M372.438,170.215c0-0.783-0.635-1.42-1.42-1.42s-1.42,0.637-1.42,1.42s0.635,1.421,1.42,1.421
			S372.438,171,372.438,170.215z"/>
	</g>
</g>
</svg>
