<?xml version="1.0" encoding="utf-8"?>
<!-- Generator: Adobe Illustrator 16.0.0, SVG Export Plug-In . SVG Version: 6.00 Build 0)  -->
<!DOCTYPE svg PUBLIC "-//W3C//DTD SVG 1.1//EN" "http://www.w3.org/Graphics/SVG/1.1/DTD/svg11.dtd">
<svg version="1.1" id="Layer_1" xmlns="http://www.w3.org/2000/svg" xmlns:xlink="http://www.w3.org/1999/xlink" x="0px" y="0px"
	 width="930.314px" height="287.985px" viewBox="1148 27.722 930.314 287.985" enable-background="new 1148 27.722 930.314 287.985"
	 xml:space="preserve">
<g>
	<path fill="#FFFFFF" d="M1148,27.707v288h930.314v-288H1148z M2061.555,315.596h-896.037V44.741h896.037V315.596z"/>
</g>
<rect x="1507.648" y="241.488" fill="#DBC89A" width="211.02" height="73.266"/>
<g>
	<rect x="1543.888" y="224.271" fill="#4A5D68" width="33.688" height="18.548"/>
	<rect x="1648.739" y="224.271" fill="#4A5D68" width="33.689" height="18.548"/>
</g>
<g>
	<rect x="1508.307" y="250.062" fill="#7C4B29" width="212.729" height="8.517"/>
	<rect x="1505.279" y="254.32" fill="#7C4B29" width="12.302" height="60.315"/>
	<rect x="1707.663" y="254.32" fill="#7C4B29" width="12.302" height="60.315"/>
</g>
<polygon fill="#B75F0F" points="1732.956,233.686 1493.362,233.686 1493.362,246.771 1493.36,246.771 1493.36,314.636 
	1514.367,314.636 1514.367,254.691 1711.946,254.691 1711.946,314.636 1732.953,314.636 1732.953,260.691 1732.956,260.691 "/>
<g>
	<path fill="#B75F0F" d="M1165.518,113.421v201.712h63.688V113.421H1165.518z M1214.234,243.228h-35.339v-103.45h35.339V243.228z"/>
	<rect x="1178.895" y="139.777" opacity="0.8" fill="#C9EFF4" width="35.339" height="103.45"/>
	<g>
		<circle fill="#A3B6B7" cx="1179.584" cy="256.275" r="3.88"/>
		<circle fill="#A3B6B7" cx="1215.626" cy="256.275" r="3.88"/>
		
			<line fill="none" stroke="#E5C28F" stroke-width="3.0282" stroke-linecap="round" stroke-miterlimit="10" x1="1180.288" y1="255.99" x2="1215.625" y2="255.99"/>
	</g>
</g>
<g>
	<path fill="#92ADA8" d="M1601.905,232.686c0-3.213,2.604-5.816,5.816-5.816c3.212,0,5.814,2.604,5.814,5.816"/>
	<rect x="1607.324" y="225.095" fill="#92ADA8" width="0.841" height="2.896"/>
	<rect x="1606.436" y="224.347" fill="#92ADA8" width="2.477" height="1.028"/>
	<path fill="#FFFFFF" d="M1612.245,231.521c-0.12,0-0.229-0.083-0.258-0.206c-0.461-2.022-2.234-3.436-4.312-3.436
		c-0.146,0-0.266-0.119-0.266-0.266s0.119-0.265,0.266-0.265c2.327,0,4.312,1.582,4.83,3.849c0.032,0.143-0.057,0.284-0.199,0.316
		C1612.286,231.518,1612.264,231.521,1612.245,231.521z"/>
	<circle fill="#FFFFFF" cx="1612.434" cy="232.105" r="0.283"/>
</g>
</svg>
