<?xml version="1.0" encoding="utf-8"?>
<!-- Generator: Adobe Illustrator 16.0.0, SVG Export Plug-In . SVG Version: 6.00 Build 0)  -->
<!DOCTYPE svg PUBLIC "-//W3C//DTD SVG 1.1//EN" "http://www.w3.org/Graphics/SVG/1.1/DTD/svg11.dtd">
<svg version="1.1" id="Layer_1" xmlns="http://www.w3.org/2000/svg" xmlns:xlink="http://www.w3.org/1999/xlink" x="0px" y="0px"
	 width="930.314px" height="287.985px" viewBox="1148 27.722 930.314 287.985" enable-background="new 1148 27.722 930.314 287.985"
	 xml:space="preserve">
<rect x="1165.518" y="44.278" fill="#E2E0D3" width="896.037" height="270.854"/>
<g>
	<rect x="1166.292" y="249.819" fill="#DBC89A" width="707.805" height="51.569"/>
	<rect x="2000.54" y="249.819" fill="#DBC89A" width="60.637" height="51.569"/>
</g>
<g>
	<g>
		<path fill="#326600" d="M1445.749,242.058c2.334,14.321,4.271,34.337,2.707,34.747c-1.563,0.412-6.036-18.938-8.369-33.259
			c-2.333-14.322-1.642-18.194-0.077-18.605C1441.573,224.53,1443.417,227.736,1445.749,242.058z"/>
		<path fill="#326600" d="M1453.265,238.471c-1.47,16.781-4.776,39.625-6.365,39.357s-0.858-23.545,0.611-40.326
			c1.469-16.78,3.12-20.711,4.709-20.443C1453.809,217.327,1454.734,221.69,1453.265,238.471z"/>
		<path fill="#3A7C00" d="M1450.649,232.234c0,18.626-1.656,44.221-3.697,44.221c-2.043,0-3.699-25.595-3.699-44.221
			c0-18.625,1.656-23.229,3.699-23.229C1448.993,209.006,1450.649,213.609,1450.649,232.234z"/>
	</g>
	<path fill="#A3B6B7" d="M1432.282,312.141c0,1.379,1.117,2.495,2.496,2.495h25.783c1.378,0,2.495-1.116,2.495-2.495v-43.096
		h-30.774V312.141z"/>
	
		<path fill="none" stroke="#798C8C" stroke-width="1.8926" stroke-linecap="round" stroke-linejoin="round" stroke-miterlimit="10" d="
		M1451.454,273.127v5.523c0,0.956-0.775,1.732-1.732,1.732h-10.54c-0.956,0-1.732-0.776-1.732-1.732v-5.523"/>
	<g>
		<path fill="#FFFFFF" d="M1461.37,271.215c0-0.471-0.383-0.854-0.854-0.854l0,0c-0.473,0-0.856,0.383-0.856,0.854v38.432
			c0,0.47,0.384,0.852,0.856,0.852l0,0c0.471,0,0.854-0.382,0.854-0.852V271.215z"/>
		<circle fill="#FFFFFF" cx="1460.52" cy="312.13" r="0.86"/>
	</g>
</g>
<g>
	<g>
		<path fill="#326600" d="M2028.899,242.058c2.333,14.321,4.27,34.337,2.707,34.747c-1.564,0.412-6.038-18.938-8.369-33.259
			c-2.334-14.322-1.643-18.194-0.078-18.605C2024.722,224.53,2026.567,227.736,2028.899,242.058z"/>
		<path fill="#326600" d="M2036.415,238.471c-1.469,16.781-4.776,39.625-6.365,39.357s-0.857-23.545,0.611-40.326
			c1.469-16.78,3.121-20.711,4.709-20.443C2036.958,217.327,2037.883,221.69,2036.415,238.471z"/>
		<path fill="#3A7C00" d="M2033.799,232.234c0,18.626-1.656,44.221-3.699,44.221c-2.041,0-3.697-25.595-3.697-44.221
			c0-18.625,1.656-23.229,3.697-23.229C2032.143,209.006,2033.799,213.609,2033.799,232.234z"/>
	</g>
	<path fill="#A3B6B7" d="M2015.432,312.141c0,1.379,1.117,2.495,2.494,2.495h25.785c1.377,0,2.494-1.116,2.494-2.495v-43.096
		h-30.773V312.141z"/>
	
		<path fill="none" stroke="#798C8C" stroke-width="1.8926" stroke-linecap="round" stroke-linejoin="round" stroke-miterlimit="10" d="
		M2034.604,273.127v5.523c0,0.956-0.775,1.732-1.732,1.732h-10.541c-0.957,0-1.732-0.776-1.732-1.732v-5.523"/>
	<g>
		<path fill="#FFFFFF" d="M2044.518,271.215c0-0.471-0.381-0.854-0.854-0.854l0,0c-0.472,0-0.855,0.383-0.855,0.854v38.432
			c0,0.47,0.384,0.852,0.855,0.852l0,0c0.473,0,0.854-0.382,0.854-0.852V271.215z"/>
		<circle fill="#FFFFFF" cx="2043.669" cy="312.13" r="0.86"/>
	</g>
</g>
<g>
	
		<line fill="none" stroke="#869392" stroke-width="0.757" stroke-miterlimit="10" x1="1568.366" y1="43.899" x2="1568.366" y2="98.952"/>
	<g>
		<polygon fill="#FFFFFF" points="1570.858,117.375 1560.891,117.375 1564.922,97.438 1570.858,97.438 		"/>
		<polygon fill="#FFFFFF" points="1565.875,117.375 1575.842,117.375 1571.811,97.438 1565.875,97.438 		"/>
	</g>
	<path fill="#869392" d="M1564.959,97.438c0-1.881,1.525-3.406,3.406-3.406c1.883,0,3.407,1.525,3.407,3.406"/>
</g>
<g>
	
		<line fill="none" stroke="#869392" stroke-width="0.757" stroke-miterlimit="10" x1="1665.583" y1="43.899" x2="1665.583" y2="98.952"/>
	<g>
		<polygon fill="#FFFFFF" points="1668.076,117.375 1658.108,117.375 1662.14,97.438 1668.076,97.438 		"/>
		<polygon fill="#FFFFFF" points="1663.09,117.375 1673.059,117.375 1669.027,97.438 1663.09,97.438 		"/>
	</g>
	<path fill="#869392" d="M1662.176,97.438c0-1.881,1.525-3.406,3.407-3.406s3.407,1.525,3.407,3.406"/>
</g>
<g>
	<rect x="1249.516" y="43.899" fill="#FFFFFF" width="48.207" height="4.824"/>
	<rect x="1382.94" y="43.899" fill="#FFFFFF" width="48.207" height="4.824"/>
</g>
<g>
	<rect x="1824.653" y="43.899" fill="#FFFFFF" width="48.207" height="4.824"/>
	<rect x="1958.078" y="43.899" fill="#FFFFFF" width="48.206" height="4.824"/>
</g>
<g>
	<polygon fill="#5C706E" points="1294.907,314.754 1293.645,314.754 1302.44,285.16 1306.477,285.16 	"/>
	<polygon fill="#5C706E" points="1408.045,314.754 1409.308,314.754 1400.514,285.16 1396.475,285.16 	"/>
</g>
<path fill="#AD0C00" d="M1414.682,275.1c0,2.508-2.034,4.543-4.542,4.543h-115.821c-2.51,0-4.543-2.035-4.543-4.543v-49.211
	c0-2.508,2.033-4.542,4.543-4.542h115.821c2.508,0,4.542,2.034,4.542,4.542V275.1z"/>
<path fill="#CE2B05" d="M1419.129,280.957c0,2.695-2.187,4.882-4.884,4.882h-124.538c-2.697,0-4.885-2.187-4.885-4.882v-3.312
	c0-2.697,2.188-4.885,4.885-4.885h124.538c2.697,0,4.884,2.188,4.884,4.885V280.957z"/>
<rect x="1871.541" y="113.169" fill="#7C4B29" width="131.727" height="201.585"/>
<rect x="1873.854" y="115.924" fill="#B75F0F" width="126.607" height="198.712"/>
<g>
	<rect x="1890.343" y="139.279" fill="#C9EFF4" width="35.338" height="103.451"/>
	<rect x="1948.635" y="139.279" fill="#C9EFF4" width="35.339" height="103.451"/>
</g>
<rect x="1936.774" y="115.924" fill="#7C4B29" width="0.771" height="198.712"/>
<g>
	<g>
		<circle fill="#A3B6B7" cx="1888.95" cy="255.777" r="3.88"/>
		<circle fill="#A3B6B7" cx="1924.992" cy="255.777" r="3.88"/>
		
			<line fill="none" stroke="#E5C28F" stroke-width="3.0282" stroke-linecap="round" stroke-miterlimit="10" x1="1889.653" y1="255.493" x2="1924.993" y2="255.493"/>
	</g>
	<g>
		<circle fill="#A3B6B7" cx="1949.324" cy="255.777" r="3.88"/>
		<circle fill="#A3B6B7" cx="1985.367" cy="255.777" r="3.88"/>
		
			<line fill="none" stroke="#E5C28F" stroke-width="3.0282" stroke-linecap="round" stroke-miterlimit="10" x1="1950.028" y1="255.493" x2="1985.366" y2="255.493"/>
	</g>
</g>
<g>
	<rect x="1321.15" y="96.228" fill="#DBC89A" width="68.098" height="90.657"/>
	<rect x="1323.01" y="97.983" fill="#E3FAFF" width="64.377" height="86.388"/>
</g>
<g>
	<rect x="1768.566" y="96.228" fill="#DBC89A" width="68.099" height="90.657"/>
	<rect x="1770.426" y="97.983" fill="#E3FAFF" width="64.377" height="86.388"/>
</g>
<g>
	<g>
		<circle fill="#303030" cx="1520.194" cy="152.721" r="12.572"/>
		<circle fill="#FFFFFF" cx="1520.118" cy="152.721" r="10.931"/>
		<circle fill="#303030" cx="1520.193" cy="152.721" r="0.969"/>
		<rect x="1519.741" y="146.541" fill="#303030" width="0.81" height="6.18"/>
		
			<rect x="1518.804" y="152.633" transform="matrix(0.9628 0.2701 -0.2701 0.9628 98.8301 -404.4448)" fill="#303030" width="0.474" height="8.525"/>
	</g>
	<circle fill="#303030" cx="1584.136" cy="152.721" r="12.573"/>
	<circle fill="#FFFFFF" cx="1584.06" cy="152.721" r="10.931"/>
	<circle fill="#303030" cx="1584.136" cy="152.721" r="0.969"/>
	
		<rect x="1586.767" y="148.661" transform="matrix(0.2714 0.9625 -0.9625 0.2714 1302.5112 -1417.0415)" fill="#303030" width="0.81" height="6.181"/>
	
		<rect x="1582.746" y="152.633" transform="matrix(0.9627 0.2706 -0.2706 0.9627 101.5295 -422.5414)" fill="#303030" width="0.473" height="8.524"/>
	<circle fill="#303030" cx="1648.079" cy="152.721" r="12.572"/>
	<circle fill="#FFFFFF" cx="1648.003" cy="152.721" r="10.931"/>
	<circle fill="#303030" cx="1648.078" cy="152.721" r="0.969"/>
	
		<rect x="1650.596" y="151.023" transform="matrix(-0.4239 0.9057 -0.9057 -0.4239 2490.5054 -1275.8474)" fill="#303030" width="0.811" height="6.18"/>
	
		<rect x="1646.688" y="152.633" transform="matrix(0.9628 0.2701 -0.2701 0.9628 103.5829 -438.985)" fill="#303030" width="0.474" height="8.525"/>
	<circle fill="#303030" cx="1712.022" cy="152.721" r="12.572"/>
	<circle fill="#FFFFFF" cx="1711.945" cy="152.721" r="10.93"/>
	<circle fill="#303030" cx="1712.021" cy="152.721" r="0.97"/>
	<rect x="1711.84" y="152.701" fill="#303030" width="0.811" height="6.181"/>
	
		<rect x="1710.631" y="152.633" transform="matrix(0.9628 0.2701 -0.2701 0.9628 105.9592 -456.2551)" fill="#303030" width="0.474" height="8.525"/>
	<g>
		<path fill="#303030" d="M1701.459,131.658h-0.834v-3.236h-1.066v-0.693h2.967v0.693h-1.066V131.658z"/>
		<path fill="#303030" d="M1708.9,129.688c0,0.65-0.161,1.152-0.482,1.501c-0.323,0.35-0.786,0.524-1.388,0.524
			s-1.064-0.175-1.388-0.524c-0.322-0.349-0.483-0.853-0.483-1.506s0.162-1.153,0.484-1.498c0.324-0.346,0.788-0.518,1.393-0.518
			c0.604,0,1.064,0.174,1.385,0.521S1708.9,129.037,1708.9,129.688z M1706.032,129.688c0,0.44,0.084,0.771,0.251,0.992
			c0.166,0.223,0.415,0.334,0.747,0.334c0.664,0,0.998-0.442,0.998-1.326c0-0.885-0.332-1.327-0.992-1.327
			c-0.332,0-0.582,0.111-0.75,0.335C1706.116,128.918,1706.032,129.249,1706.032,129.688z"/>
		<path fill="#303030" d="M1715.078,131.658h-0.946l-1.029-1.655l-0.352,0.253v1.402h-0.834v-3.93h0.834v1.799l0.327-0.463
			l1.065-1.336h0.924l-1.371,1.739L1715.078,131.658z"/>
		<path fill="#303030" d="M1718.999,129.346l0.819-1.617h0.897l-1.303,2.401v1.528h-0.828v-1.502l-1.304-2.428h0.902
			L1718.999,129.346z"/>
		<path fill="#303030" d="M1726.979,129.688c0,0.65-0.161,1.152-0.484,1.501c-0.322,0.35-0.784,0.524-1.387,0.524
			c-0.602,0-1.063-0.175-1.387-0.524c-0.322-0.349-0.483-0.853-0.483-1.506s0.161-1.153,0.485-1.498
			c0.323-0.346,0.787-0.518,1.391-0.518s1.065,0.174,1.385,0.521C1726.821,128.536,1726.979,129.037,1726.979,129.688z
			 M1724.111,129.688c0,0.44,0.084,0.771,0.251,0.992c0.166,0.223,0.415,0.334,0.746,0.334c0.666,0,0.998-0.442,0.998-1.326
			c0-0.885-0.331-1.327-0.992-1.327c-0.332,0-0.582,0.111-0.75,0.335C1724.196,128.918,1724.111,129.249,1724.111,129.688z"/>
	</g>
	<g>
		<path fill="#303030" d="M1640.828,129.656c0,0.647-0.185,1.143-0.552,1.486c-0.369,0.344-0.9,0.516-1.596,0.516h-1.113v-3.93
			h1.234c0.641,0,1.139,0.17,1.494,0.508C1640.651,128.575,1640.828,129.049,1640.828,129.656z M1639.961,129.678
			c0-0.844-0.371-1.266-1.117-1.266h-0.443v2.559h0.357C1639.561,130.971,1639.961,130.54,1639.961,129.678z"/>
		<path fill="#303030" d="M1646.108,131.658h-2.264v-3.93h2.264v0.684h-1.43v0.863h1.33v0.683h-1.33v1.013h1.43V131.658z"/>
		<path fill="#303030" d="M1652.35,131.658h-0.831v-1.696h-1.557v1.696h-0.833v-3.93h0.833v1.54h1.557v-1.54h0.831V131.658z"/>
		<path fill="#303030" d="M1655.543,131.658v-3.93h0.834v3.242h1.594v0.688H1655.543z"/>
		<path fill="#303030" d="M1660.856,131.658v-3.93h0.833v3.93H1660.856z"/>
	</g>
	<g>
		<path fill="#303030" d="M1569.19,131.658v-3.93h0.834v3.242h1.594v0.688H1569.19z"/>
		<path fill="#303030" d="M1578.071,129.688c0,0.65-0.162,1.152-0.484,1.501c-0.322,0.35-0.785,0.524-1.387,0.524
			c-0.604,0-1.066-0.175-1.387-0.524c-0.324-0.349-0.485-0.853-0.485-1.506s0.162-1.153,0.485-1.498
			c0.324-0.346,0.788-0.518,1.391-0.518c0.604,0,1.066,0.174,1.387,0.521S1578.071,129.037,1578.071,129.688z M1575.202,129.688
			c0,0.44,0.083,0.771,0.25,0.992c0.166,0.223,0.416,0.334,0.748,0.334c0.664,0,0.996-0.442,0.996-1.326
			c0-0.885-0.33-1.327-0.992-1.327c-0.33,0-0.582,0.111-0.749,0.335C1575.286,128.918,1575.202,129.249,1575.202,129.688z"/>
		<path fill="#303030" d="M1584.573,131.658h-1.06l-1.71-2.973h-0.023c0.034,0.525,0.051,0.9,0.051,1.123v1.85h-0.744v-3.93h1.051
			l1.707,2.943h0.019c-0.026-0.51-0.04-0.871-0.04-1.083v-1.86h0.75V131.658z"/>
		<path fill="#303030" d="M1591.024,129.656c0,0.647-0.184,1.143-0.552,1.486s-0.899,0.516-1.595,0.516h-1.113v-3.93h1.233
			c0.642,0,1.14,0.17,1.495,0.508C1590.847,128.575,1591.024,129.049,1591.024,129.656z M1590.159,129.678
			c0-0.844-0.373-1.266-1.118-1.266h-0.443v2.559h0.357C1589.757,130.971,1590.159,130.54,1590.159,129.678z"/>
		<path fill="#303030" d="M1597.608,129.688c0,0.65-0.162,1.152-0.484,1.501c-0.322,0.35-0.783,0.524-1.387,0.524
			c-0.602,0-1.063-0.175-1.387-0.524c-0.322-0.349-0.483-0.853-0.483-1.506s0.161-1.153,0.485-1.498
			c0.323-0.346,0.787-0.518,1.391-0.518s1.065,0.174,1.386,0.521C1597.448,128.536,1597.608,129.037,1597.608,129.688z
			 M1594.741,129.688c0,0.44,0.083,0.771,0.25,0.992c0.166,0.223,0.415,0.334,0.746,0.334c0.665,0,0.998-0.442,0.998-1.326
			c0-0.885-0.33-1.327-0.992-1.327c-0.332,0-0.581,0.111-0.75,0.335C1594.825,128.918,1594.741,129.249,1594.741,129.688z"/>
		<path fill="#303030" d="M1604.111,131.658h-1.059l-1.71-2.973h-0.023c0.033,0.525,0.051,0.9,0.051,1.123v1.85h-0.744v-3.93h1.051
			l1.707,2.943h0.019c-0.026-0.51-0.04-0.871-0.04-1.083v-1.86h0.749V131.658z"/>
	</g>
	<g>
		<path fill="#303030" d="M1505.852,131.658h-1.06l-1.71-2.973h-0.025c0.035,0.525,0.052,0.9,0.052,1.123v1.85h-0.743v-3.93h1.051
			l1.706,2.943h0.019c-0.026-0.51-0.039-0.871-0.039-1.083v-1.86h0.75V131.658z"/>
		<path fill="#303030" d="M1511.306,131.658h-2.265v-3.93h2.265v0.684h-1.431v0.863h1.331v0.683h-1.331v1.013h1.431V131.658z"/>
		<path fill="#303030" d="M1518.156,131.658h-0.949l-0.532-2.064c-0.02-0.073-0.053-0.225-0.101-0.455s-0.075-0.386-0.081-0.463
			c-0.012,0.096-0.038,0.251-0.081,0.466c-0.043,0.214-0.076,0.366-0.101,0.458l-0.528,2.059h-0.946l-1.004-3.93h0.82l0.503,2.146
			c0.088,0.396,0.151,0.738,0.19,1.028c0.012-0.102,0.035-0.26,0.074-0.474s0.074-0.381,0.108-0.499l0.573-2.201h0.788l0.571,2.201
			c0.025,0.099,0.057,0.249,0.095,0.451c0.038,0.203,0.066,0.377,0.087,0.521c0.018-0.139,0.046-0.312,0.084-0.521
			c0.041-0.209,0.076-0.378,0.109-0.507l0.499-2.146h0.819L1518.156,131.658z"/>
		<path fill="#303030" d="M1526.708,129.346l0.82-1.617h0.896l-1.303,2.401v1.528h-0.828v-1.502l-1.303-2.428h0.902
			L1526.708,129.346z"/>
		<path fill="#303030" d="M1534.688,129.688c0,0.65-0.161,1.152-0.482,1.501c-0.323,0.35-0.785,0.524-1.388,0.524
			s-1.064-0.175-1.388-0.524c-0.322-0.349-0.484-0.853-0.484-1.506s0.164-1.153,0.486-1.498c0.323-0.346,0.787-0.518,1.391-0.518
			s1.064,0.174,1.387,0.521C1534.53,128.536,1534.688,129.037,1534.688,129.688z M1531.821,129.688c0,0.44,0.083,0.771,0.25,0.992
			c0.166,0.223,0.416,0.334,0.747,0.334c0.665,0,0.997-0.442,0.997-1.326c0-0.885-0.33-1.327-0.992-1.327
			c-0.332,0-0.581,0.111-0.749,0.335C1531.905,128.918,1531.821,129.249,1531.821,129.688z"/>
		<path fill="#303030" d="M1538.538,130.15v1.508h-0.832v-3.93h1.146c0.534,0,0.929,0.098,1.185,0.293
			c0.256,0.193,0.385,0.488,0.385,0.885c0,0.231-0.064,0.438-0.191,0.616c-0.127,0.181-0.307,0.322-0.54,0.423
			c0.592,0.884,0.977,1.455,1.156,1.713h-0.925l-0.938-1.508H1538.538z M1538.538,129.473h0.27c0.264,0,0.459-0.043,0.583-0.131
			c0.126-0.088,0.189-0.226,0.189-0.415c0-0.186-0.064-0.317-0.193-0.396c-0.128-0.08-0.325-0.118-0.595-0.118h-0.254V129.473z"/>
		<path fill="#303030" d="M1546.703,131.658h-0.946l-1.029-1.655l-0.352,0.253v1.402h-0.834v-3.93h0.834v1.799l0.327-0.463
			l1.065-1.336h0.924l-1.371,1.739L1546.703,131.658z"/>
	</g>
</g>
<circle fill="#E53613" cx="1337.384" cy="119.552" r="2.177"/>
<ellipse transform="matrix(-0.5795 0.815 -0.815 -0.5795 2200.5757 -919.0042)" fill="#2480D3" cx="1337.384" cy="108.229" rx="5.335" ry="6.448"/>
<ellipse transform="matrix(0.508 0.8614 -0.8614 0.508 765.2714 -1105.0251)" fill="#2480D3" cx="1349.931" cy="117.375" rx="2.946" ry="1.703"/>
<ellipse fill="#2480D3" cx="1378.112" cy="148.668" rx="2.934" ry="2.003"/>
<ellipse transform="matrix(0.492 0.8706 -0.8706 0.492 850.748 -1111.8174)" fill="#2480D3" cx="1378.111" cy="173.113" rx="2.934" ry="2.002"/>
<ellipse transform="matrix(0.729 -0.6846 0.6846 0.729 274.729 955.6163)" fill="#E53613" cx="1344.128" cy="130.877" rx="8.492" ry="4.241"/>
<ellipse transform="matrix(0.7989 -0.6015 0.6015 0.7989 162.9777 836.2245)" fill="#E53613" cx="1331.99" cy="174.393" rx="2.176" ry="3.659"/>
<path fill="#E53613" d="M1780.382,135.596c6.021-23.803,17.665-26.6,26.749-28.188c9.086-1.589,18.17,4.468,19.432,16.58
	s-19.936,40.855-14.636,45.536c5.299,4.682,9.589-4.176,11.355,0s-19.684,14.361-22.46,2.456
	c-2.775-11.906,10.348-32.851,7.823-36.636c-2.523-3.787-6.031,3.936-9.842,3.936c-5.892,0,4.662-20.591-2.019-18.067
	c-4.34,1.64-9.59,22.711-13.375,22.458C1779.625,143.419,1779.303,139.865,1780.382,135.596z"/>
<ellipse transform="matrix(0.9399 0.3415 -0.3415 0.9399 161.1039 -602.0871)" fill="#E53613" cx="1790.477" cy="156.491" rx="4.542" ry="12.59"/>
<ellipse transform="matrix(0.9052 0.4251 -0.4251 0.9052 234.5942 -741.9904)" fill="#2480D3" cx="1780.13" cy="154.741" rx="2.271" ry="6.05"/>
<ellipse transform="matrix(0.889 0.4579 -0.4579 0.889 249.6191 -802.86)" fill="#2480D3" cx="1780.767" cy="113.428" rx="2.655" ry="6.27"/>
<ellipse transform="matrix(0.889 0.458 -0.458 0.889 275.4574 -815.6174)" fill="#2480D3" cx="1819.88" cy="160.302" rx="1.814" ry="4.282"/>
<path fill="#2480D3" d="M1359.338,121.528c0,13.936-10.361,16.652-19.27,23.198c-11.959,8.787-7.965,27.006,4.58,33.325
	s-13.133-17.261,4.658-25.296c23.096-10.43,33.652-18.117,26.687-38.356c-6.687-19.432-5.931,2.271-9.968-0.758
	c-4.037-3.027-10.852-14.534-11.861-8.403C1353.157,111.37,1359.338,115.408,1359.338,121.528z"/>
<ellipse transform="matrix(0.594 0.8045 -0.8045 0.594 686.3776 -1032.3932)" fill="#2480D3" cx="1365.958" cy="163.782" rx="9.306" ry="13.961"/>
<g>
	<g>
		<polygon fill="#5C706E" points="1778.099,314.754 1776.838,314.754 1782.633,285.159 1786.668,285.159 		"/>
		<polygon fill="#5C706E" points="1828.833,314.754 1830.094,314.754 1824.299,285.159 1820.262,285.159 		"/>
	</g>
	<path fill="#AD0C00" d="M1832.469,276.1c0,2.508-2.034,4.542-4.543,4.542h-48.416c-2.51,0-4.541-2.034-4.541-4.542v-49.211
		c0-2.508,2.031-4.542,4.541-4.542h48.416c2.509,0,4.543,2.034,4.543,4.542V276.1z"/>
	<path fill="#CE2B05" d="M1836.917,280.956c0,2.696-2.188,4.884-4.885,4.884h-57.133c-2.696,0-4.883-2.188-4.883-4.884v-3.312
		c0-2.697,2.187-4.885,4.883-4.885h57.133c2.697,0,4.885,2.188,4.885,4.885V280.956z"/>
</g>
</svg>
