<?xml version="1.0" encoding="utf-8"?>
<!-- Generator: Adobe Illustrator 16.0.0, SVG Export Plug-In . SVG Version: 6.00 Build 0)  -->
<!DOCTYPE svg PUBLIC "-//W3C//DTD SVG 1.1//EN" "http://www.w3.org/Graphics/SVG/1.1/DTD/svg11.dtd">
<svg version="1.1" id="Layer_1" xmlns="http://www.w3.org/2000/svg" xmlns:xlink="http://www.w3.org/1999/xlink" x="0px" y="0px"
	 width="930.314px" height="287.984px" viewBox="0 0 930.314 287.984" enable-background="new 0 0 930.314 287.984"
	 xml:space="preserve">
<rect x="17.139" y="16.514" fill="#E2E0D3" width="896.037" height="270.855"/>
<g>
	<rect x="17.913" y="222.055" fill="#DBC89A" width="707.805" height="51.57"/>
	<rect x="852.161" y="222.055" fill="#DBC89A" width="60.637" height="51.57"/>
</g>
<g>
	<g>
		<path fill="#326600" d="M297.37,214.295c2.334,14.32,4.271,34.336,2.707,34.746c-1.563,0.412-6.036-18.938-8.369-33.258
			c-2.333-14.322-1.642-18.195-0.077-18.605C293.194,196.766,295.038,199.973,297.37,214.295z"/>
		<path fill="#326600" d="M304.886,210.707c-1.47,16.781-4.775,39.625-6.364,39.357c-1.59-0.268-0.858-23.545,0.61-40.326
			c1.47-16.779,3.12-20.711,4.709-20.443C305.43,189.565,306.355,193.926,304.886,210.707z"/>
		<path fill="#3A7C00" d="M302.271,204.471c0,18.625-1.656,44.221-3.697,44.221c-2.043,0-3.699-25.596-3.699-44.221
			s1.656-23.229,3.699-23.229C300.614,181.242,302.271,185.846,302.271,204.471z"/>
	</g>
	<path fill="#A3B6B7" d="M283.903,284.377c0,1.379,1.116,2.496,2.496,2.496h25.782c1.379,0,2.495-1.117,2.495-2.496v-43.096h-30.773
		V284.377L283.903,284.377z"/>
	
		<path fill="none" stroke="#798C8C" stroke-width="1.8926" stroke-linecap="round" stroke-linejoin="round" stroke-miterlimit="10" d="
		M303.075,245.364v5.523c0,0.955-0.775,1.732-1.732,1.732h-10.54c-0.956,0-1.731-0.777-1.731-1.732v-5.523"/>
	<g>
		<path fill="#FFFFFF" d="M312.991,243.451c0-0.471-0.383-0.854-0.854-0.854l0,0c-0.473,0-0.855,0.383-0.855,0.854v38.434
			c0,0.469,0.384,0.852,0.855,0.852l0,0c0.472,0,0.854-0.383,0.854-0.852V243.451z"/>
		<circle fill="#FFFFFF" cx="312.141" cy="284.366" r="0.86"/>
	</g>
</g>
<g>
	<g>
		<path fill="#326600" d="M880.52,214.295c2.334,14.32,4.271,34.336,2.707,34.746c-1.563,0.412-6.037-18.938-8.368-33.258
			c-2.334-14.322-1.644-18.195-0.078-18.605C876.344,196.766,878.188,199.973,880.52,214.295z"/>
		<path fill="#326600" d="M888.036,210.707c-1.469,16.781-4.776,39.625-6.365,39.357s-0.856-23.545,0.611-40.326
			c1.469-16.779,3.121-20.711,4.709-20.443C888.579,189.565,889.504,193.926,888.036,210.707z"/>
		<path fill="#3A7C00" d="M885.42,204.471c0,18.625-1.656,44.221-3.699,44.221c-2.041,0-3.697-25.596-3.697-44.221
			s1.656-23.229,3.697-23.229C883.764,181.242,885.42,185.846,885.42,204.471z"/>
	</g>
	<path fill="#A3B6B7" d="M867.053,284.377c0,1.379,1.117,2.496,2.494,2.496h25.785c1.377,0,2.494-1.117,2.494-2.496v-43.096h-30.773
		V284.377z"/>
	
		<path fill="none" stroke="#798C8C" stroke-width="1.8926" stroke-linecap="round" stroke-linejoin="round" stroke-miterlimit="10" d="
		M886.225,245.364v5.523c0,0.955-0.774,1.732-1.731,1.732h-10.541c-0.957,0-1.732-0.777-1.732-1.732v-5.523"/>
	<g>
		<path fill="#FFFFFF" d="M896.139,243.451c0-0.471-0.381-0.854-0.854-0.854l0,0c-0.473,0-0.855,0.383-0.855,0.854v38.434
			c0,0.469,0.385,0.852,0.855,0.852l0,0c0.473,0,0.854-0.383,0.854-0.852V243.451z"/>
		<circle fill="#FFFFFF" cx="895.29" cy="284.366" r="0.86"/>
	</g>
</g>
<g>
	
		<line fill="none" stroke="#869392" stroke-width="0.757" stroke-miterlimit="10" x1="419.987" y1="16.135" x2="419.987" y2="71.189"/>
	<g>
		<polygon fill="#FFFFFF" points="422.479,89.612 412.512,89.612 416.543,69.675 422.479,69.675 		"/>
		<polygon fill="#FFFFFF" points="417.496,89.612 427.463,89.612 423.432,69.675 417.496,69.675 		"/>
	</g>
	<path fill="#869392" d="M416.58,69.675c0-1.881,1.525-3.405,3.406-3.405c1.883,0,3.406,1.524,3.406,3.405"/>
</g>
<g>
	
		<line fill="none" stroke="#869392" stroke-width="0.757" stroke-miterlimit="10" x1="517.204" y1="16.135" x2="517.204" y2="71.189"/>
	<g>
		<polygon fill="#FFFFFF" points="519.697,89.612 509.729,89.612 513.761,69.675 519.697,69.675 		"/>
		<polygon fill="#FFFFFF" points="514.711,89.612 524.68,89.612 520.648,69.675 514.711,69.675 		"/>
	</g>
	<path fill="#869392" d="M513.797,69.675c0-1.881,1.525-3.405,3.407-3.405s3.407,1.524,3.407,3.405"/>
</g>
<g>
	<rect x="101.137" y="16.135" fill="#FFFFFF" width="48.207" height="4.824"/>
	<rect x="234.561" y="16.135" fill="#FFFFFF" width="48.207" height="4.824"/>
</g>
<g>
	<rect x="676.274" y="16.135" fill="#FFFFFF" width="48.207" height="4.824"/>
	<rect x="809.699" y="16.135" fill="#FFFFFF" width="48.206" height="4.824"/>
</g>
<g>
	<polygon fill="#5C706E" points="146.528,286.99 145.266,286.99 154.061,257.397 158.098,257.397 	"/>
	<polygon fill="#5C706E" points="259.666,286.99 260.929,286.99 252.135,257.397 248.096,257.397 	"/>
</g>
<path fill="#AD0C00" d="M266.303,247.336c0,2.508-2.033,4.543-4.542,4.543H145.94c-2.511,0-4.543-2.035-4.543-4.543v-49.211
	c0-2.508,2.032-4.541,4.543-4.541h115.82c2.509,0,4.542,2.033,4.542,4.541V247.336z"/>
<path fill="#CE2B05" d="M270.75,253.194c0,2.695-2.187,4.883-4.884,4.883H141.328c-2.697,0-4.885-2.188-4.885-4.883v-3.312
	c0-2.695,2.188-4.885,4.885-4.885h124.538c2.697,0,4.884,2.188,4.884,4.885V253.194z"/>
<rect x="723.162" y="85.406" fill="#7C4B29" width="131.727" height="201.584"/>
<rect x="725.475" y="88.161" fill="#B75F0F" width="126.607" height="198.712"/>
<g>
	<rect x="741.964" y="111.515" fill="#C9EFF4" width="35.339" height="103.452"/>
	<rect x="800.256" y="111.515" fill="#C9EFF4" width="35.34" height="103.452"/>
</g>
<rect x="788.395" y="88.161" fill="#7C4B29" width="0.771" height="198.712"/>
<g>
	<g>
		<circle fill="#A3B6B7" cx="740.571" cy="228.014" r="3.881"/>
		<circle fill="#A3B6B7" cx="776.613" cy="228.014" r="3.881"/>
		
			<line fill="none" stroke="#E5C28F" stroke-width="3.0282" stroke-linecap="round" stroke-miterlimit="10" x1="741.274" y1="227.731" x2="776.614" y2="227.731"/>
	</g>
	<g>
		<circle fill="#A3B6B7" cx="800.945" cy="228.014" r="3.881"/>
		<circle fill="#A3B6B7" cx="836.988" cy="228.014" r="3.881"/>
		
			<line fill="none" stroke="#E5C28F" stroke-width="3.0282" stroke-linecap="round" stroke-miterlimit="10" x1="801.648" y1="227.731" x2="836.987" y2="227.731"/>
	</g>
</g>
<g>
	<rect x="172.771" y="68.465" fill="#DBC89A" width="68.098" height="90.657"/>
	<rect x="174.631" y="70.219" fill="#E3FAFF" width="64.377" height="86.388"/>
</g>
<g>
	<rect x="620.188" y="68.465" fill="#DBC89A" width="68.099" height="90.657"/>
	<rect x="622.047" y="70.219" fill="#E3FAFF" width="64.377" height="86.388"/>
</g>
<g>
	<g>
		<circle fill="#303030" cx="371.815" cy="124.958" r="12.572"/>
		<circle fill="#FFFFFF" cx="371.739" cy="124.958" r="10.931"/>
		<circle fill="#303030" cx="371.814" cy="124.958" r="0.969"/>
		<rect x="371.362" y="118.778" fill="#303030" width="0.81" height="6.18"/>
		
			<rect x="370.369" y="124.882" transform="matrix(-0.963 -0.2696 0.2696 -0.963 692.6837 353.4066)" fill="#303030" width="0.475" height="8.525"/>
	</g>
	<circle fill="#303030" cx="435.757" cy="124.958" r="12.573"/>
	<circle fill="#FFFFFF" cx="435.682" cy="124.958" r="10.931"/>
	<circle fill="#303030" cx="435.757" cy="124.958" r="0.969"/>
	
		<rect x="438.425" y="120.943" transform="matrix(-0.2714 -0.9625 0.9625 -0.2714 438.5372 580.0555)" fill="#303030" width="0.81" height="6.181"/>
	
		<rect x="434.395" y="124.831" transform="matrix(-0.9627 -0.2706 0.2706 -0.9627 818.1091 370.9925)" fill="#303030" width="0.473" height="8.524"/>
	<circle fill="#303030" cx="499.7" cy="124.958" r="12.572"/>
	<circle fill="#FFFFFF" cx="499.624" cy="124.958" r="10.931"/>
	<circle fill="#303030" cx="499.699" cy="124.958" r="0.969"/>
	
		<rect x="502.281" y="123.283" transform="matrix(0.4235 -0.9059 0.9059 0.4235 175.3281 528.244)" fill="#303030" width="0.812" height="6.18"/>
	
		<rect x="498.249" y="124.883" transform="matrix(-0.9628 -0.2701 0.2701 -0.9628 943.565 388.1263)" fill="#303030" width="0.474" height="8.525"/>
	<circle fill="#303030" cx="563.643" cy="124.958" r="12.572"/>
	<circle fill="#FFFFFF" cx="563.566" cy="124.958" r="10.93"/>
	<circle fill="#303030" cx="563.643" cy="124.958" r="0.97"/>
	<rect x="563.461" y="124.938" fill="#303030" width="0.812" height="6.181"/>
	
		<rect x="562.19" y="124.884" transform="matrix(-0.9628 -0.2701 0.2701 -0.9628 1069.0703 405.3979)" fill="#303030" width="0.474" height="8.525"/>
	<g>
		<path fill="#303030" d="M553.08,103.895h-0.834v-3.236h-1.066v-0.693h2.968v0.693h-1.066L553.08,103.895L553.08,103.895z"/>
		<path fill="#303030" d="M560.521,101.925c0,0.65-0.161,1.152-0.482,1.501c-0.323,0.351-0.786,0.524-1.388,0.524
			c-0.603,0-1.064-0.175-1.388-0.524c-0.322-0.349-0.483-0.853-0.483-1.506c0-0.652,0.162-1.152,0.483-1.498
			c0.324-0.346,0.788-0.518,1.394-0.518c0.604,0,1.063,0.174,1.385,0.521C560.363,100.772,560.521,101.274,560.521,101.925z
			 M557.653,101.925c0,0.44,0.084,0.771,0.251,0.992c0.166,0.223,0.415,0.334,0.747,0.334c0.663,0,0.998-0.441,0.998-1.326
			s-0.332-1.327-0.992-1.327c-0.332,0-0.582,0.111-0.75,0.335C557.737,101.155,557.653,101.486,557.653,101.925z"/>
		<path fill="#303030" d="M566.699,103.895h-0.946l-1.029-1.655l-0.352,0.253v1.402h-0.834v-3.931h0.834v1.799l0.327-0.463
			l1.064-1.336h0.924l-1.371,1.739L566.699,103.895z"/>
		<path fill="#303030" d="M570.62,101.583l0.819-1.617h0.896l-1.303,2.401v1.528h-0.828v-1.502l-1.304-2.429h0.901L570.62,101.583z"
			/>
		<path fill="#303030" d="M578.6,101.925c0,0.65-0.16,1.152-0.483,1.501c-0.322,0.351-0.784,0.524-1.387,0.524
			s-1.063-0.175-1.388-0.524c-0.321-0.349-0.482-0.853-0.482-1.506c0-0.652,0.161-1.152,0.484-1.498s0.787-0.518,1.392-0.518
			c0.604,0,1.064,0.174,1.385,0.521C578.442,100.773,578.6,101.274,578.6,101.925z M575.732,101.925c0,0.44,0.084,0.771,0.251,0.992
			c0.166,0.223,0.415,0.334,0.745,0.334c0.666,0,0.998-0.441,0.998-1.326s-0.33-1.327-0.991-1.327c-0.332,0-0.582,0.111-0.75,0.335
			C575.817,101.155,575.732,101.486,575.732,101.925z"/>
	</g>
	<g>
		<path fill="#303030" d="M492.449,101.893c0,0.646-0.186,1.143-0.552,1.485c-0.369,0.344-0.9,0.517-1.597,0.517h-1.112v-3.931
			h1.233c0.642,0,1.14,0.17,1.494,0.508C492.272,100.812,492.449,101.286,492.449,101.893z M491.582,101.915
			c0-0.844-0.371-1.266-1.117-1.266h-0.442v2.559h0.356C491.182,103.208,491.582,102.777,491.582,101.915z"/>
		<path fill="#303030" d="M497.729,103.895h-2.265v-3.931h2.265v0.685h-1.431v0.862h1.33v0.684h-1.33v1.013h1.431V103.895z"/>
		<path fill="#303030" d="M503.971,103.895h-0.831v-1.696h-1.557v1.696h-0.833v-3.931h0.833v1.54h1.557v-1.54h0.831V103.895z"/>
		<path fill="#303030" d="M507.164,103.895v-3.931h0.834v3.242h1.594v0.688H507.164z"/>
		<path fill="#303030" d="M512.477,103.895v-3.931h0.834v3.931H512.477z"/>
	</g>
	<g>
		<path fill="#303030" d="M420.811,103.895v-3.931h0.834v3.242h1.595v0.688H420.811z"/>
		<path fill="#303030" d="M429.692,101.925c0,0.65-0.162,1.152-0.484,1.501c-0.322,0.351-0.785,0.524-1.387,0.524
			c-0.604,0-1.066-0.175-1.387-0.524c-0.324-0.349-0.485-0.853-0.485-1.506c0-0.652,0.162-1.152,0.485-1.498
			s0.788-0.518,1.391-0.518c0.604,0,1.066,0.174,1.387,0.521C429.533,100.772,429.692,101.274,429.692,101.925z M426.823,101.925
			c0,0.44,0.083,0.771,0.25,0.992c0.166,0.223,0.416,0.334,0.748,0.334c0.664,0,0.996-0.441,0.996-1.326s-0.33-1.327-0.992-1.327
			c-0.33,0-0.582,0.111-0.749,0.335C426.907,101.155,426.823,101.486,426.823,101.925z"/>
		<path fill="#303030" d="M436.194,103.895h-1.061l-1.71-2.974h-0.022c0.034,0.525,0.051,0.9,0.051,1.123v1.851h-0.744v-3.931h1.051
			l1.707,2.943h0.02c-0.026-0.51-0.04-0.871-0.04-1.083v-1.86h0.75L436.194,103.895L436.194,103.895z"/>
		<path fill="#303030" d="M442.646,101.893c0,0.646-0.185,1.143-0.553,1.485s-0.898,0.517-1.595,0.517h-1.113v-3.931h1.233
			c0.642,0,1.14,0.17,1.495,0.508C442.468,100.812,442.646,101.286,442.646,101.893z M441.78,101.915
			c0-0.844-0.373-1.266-1.118-1.266h-0.443v2.559h0.357C441.378,103.208,441.78,102.777,441.78,101.915z"/>
		<path fill="#303030" d="M449.229,101.925c0,0.65-0.162,1.152-0.484,1.501c-0.322,0.351-0.783,0.524-1.387,0.524
			c-0.603,0-1.063-0.175-1.388-0.524c-0.321-0.349-0.482-0.853-0.482-1.506c0-0.652,0.161-1.152,0.484-1.498
			s0.787-0.518,1.392-0.518c0.604,0,1.064,0.174,1.386,0.521C449.069,100.773,449.229,101.274,449.229,101.925z M446.362,101.925
			c0,0.44,0.083,0.771,0.25,0.992c0.166,0.223,0.415,0.334,0.746,0.334c0.665,0,0.998-0.441,0.998-1.326s-0.33-1.327-0.992-1.327
			c-0.332,0-0.581,0.111-0.75,0.335C446.446,101.155,446.362,101.486,446.362,101.925z"/>
		<path fill="#303030" d="M455.732,103.895h-1.06l-1.71-2.974h-0.022c0.032,0.525,0.051,0.9,0.051,1.123v1.851h-0.744v-3.931h1.051
			l1.707,2.943h0.02c-0.026-0.51-0.04-0.871-0.04-1.083v-1.86h0.749L455.732,103.895L455.732,103.895z"/>
	</g>
	<g>
		<path fill="#303030" d="M357.473,103.895h-1.06l-1.71-2.974h-0.025c0.035,0.525,0.053,0.9,0.053,1.123v1.851h-0.743v-3.931h1.051
			l1.706,2.943h0.02c-0.026-0.51-0.039-0.871-0.039-1.083v-1.86h0.75v3.931H357.473z"/>
		<path fill="#303030" d="M362.927,103.895h-2.265v-3.931h2.265v0.685h-1.431v0.862h1.331v0.684h-1.331v1.013h1.431V103.895z"/>
		<path fill="#303030" d="M369.777,103.895h-0.949l-0.532-2.064c-0.02-0.073-0.053-0.225-0.101-0.455
			c-0.048-0.229-0.075-0.386-0.081-0.463c-0.012,0.096-0.038,0.251-0.081,0.466c-0.043,0.214-0.076,0.366-0.102,0.458l-0.527,2.06
			h-0.946l-1.004-3.931h0.82l0.503,2.146c0.088,0.396,0.15,0.738,0.189,1.027c0.012-0.102,0.035-0.26,0.074-0.474
			s0.074-0.381,0.108-0.499l0.572-2.201h0.788l0.571,2.201c0.025,0.099,0.057,0.249,0.095,0.451
			c0.038,0.203,0.066,0.377,0.087,0.521c0.019-0.139,0.046-0.312,0.084-0.521c0.041-0.209,0.076-0.378,0.109-0.507l0.499-2.146
			h0.819L369.777,103.895z"/>
		<path fill="#303030" d="M378.329,101.583l0.82-1.617h0.896l-1.303,2.401v1.528h-0.828v-1.502l-1.303-2.429h0.901L378.329,101.583z
			"/>
		<path fill="#303030" d="M386.309,101.925c0,0.65-0.16,1.152-0.481,1.501c-0.323,0.351-0.785,0.524-1.388,0.524
			c-0.604,0-1.064-0.175-1.389-0.524c-0.321-0.349-0.483-0.853-0.483-1.506c0-0.652,0.164-1.152,0.485-1.498
			c0.323-0.346,0.787-0.518,1.392-0.518c0.604,0,1.063,0.174,1.387,0.521C386.151,100.773,386.309,101.274,386.309,101.925z
			 M383.442,101.925c0,0.44,0.083,0.771,0.25,0.992c0.166,0.223,0.416,0.334,0.747,0.334c0.665,0,0.996-0.441,0.996-1.326
			s-0.329-1.327-0.991-1.327c-0.332,0-0.581,0.111-0.749,0.335C383.526,101.155,383.442,101.486,383.442,101.925z"/>
		<path fill="#303030" d="M390.159,102.386v1.509h-0.832v-3.931h1.146c0.534,0,0.93,0.099,1.186,0.293
			c0.256,0.193,0.385,0.488,0.385,0.886c0,0.23-0.063,0.438-0.191,0.615c-0.127,0.182-0.307,0.322-0.539,0.423
			c0.592,0.885,0.977,1.455,1.155,1.714h-0.925l-0.938-1.509H390.159z M390.159,101.71h0.27c0.265,0,0.459-0.043,0.583-0.131
			c0.126-0.088,0.189-0.226,0.189-0.415c0-0.186-0.064-0.317-0.193-0.396c-0.128-0.08-0.324-0.118-0.595-0.118h-0.254V101.71z"/>
		<path fill="#303030" d="M398.324,103.895h-0.946l-1.029-1.655l-0.352,0.253v1.402h-0.834v-3.931h0.834v1.799l0.327-0.463
			l1.064-1.336h0.924l-1.371,1.739L398.324,103.895z"/>
	</g>
</g>
<circle fill="#E53613" cx="189.005" cy="91.789" r="2.177"/>
<ellipse transform="matrix(0.815 0.5794 -0.5794 0.815 81.5921 -94.6122)" fill="#2480D3" cx="188.976" cy="80.482" rx="6.448" ry="5.335"/>
<ellipse transform="matrix(0.8613 -0.5081 0.5081 0.8613 -17.606 114.8381)" fill="#2480D3" cx="201.551" cy="89.669" rx="1.703" ry="2.946"/>
<ellipse fill="#2480D3" cx="229.733" cy="120.905" rx="2.934" ry="2.003"/>
<ellipse transform="matrix(0.8706 -0.492 0.492 0.8706 -41.8015 131.8175)" fill="#2480D3" cx="229.688" cy="145.375" rx="2.002" ry="2.933"/>
<ellipse transform="matrix(-0.6845 -0.729 0.729 -0.6845 254.7247 316.3751)" fill="#E53613" cx="195.817" cy="103.072" rx="4.241" ry="8.493"/>
<ellipse transform="matrix(-0.6015 -0.7989 0.7989 -0.6015 176.9586 381.4589)" fill="#E53613" cx="183.623" cy="146.592" rx="3.66" ry="2.176"/>
<path fill="#E53613" d="M632.003,107.833c6.021-23.803,17.665-26.6,26.749-28.188c9.086-1.59,18.17,4.468,19.432,16.579
	c1.263,12.112-19.936,40.855-14.636,45.536c5.299,4.683,9.589-4.176,11.355,0c1.766,4.177-19.685,14.361-22.46,2.456
	c-2.775-11.905,10.348-32.851,7.822-36.636c-2.522-3.787-6.03,3.936-9.842,3.936c-5.892,0,4.662-20.591-2.019-18.066
	c-4.34,1.64-9.59,22.711-13.375,22.458C631.246,115.656,630.924,112.102,632.003,107.833z"/>
<ellipse transform="matrix(0.3415 -0.9399 0.9399 0.3415 301.9229 688.2939)" fill="#E53613" cx="642.153" cy="128.684" rx="12.59" ry="4.542"/>
<ellipse transform="matrix(0.4251 -0.9051 0.9051 0.4251 248.2103 644.9091)" fill="#2480D3" cx="631.809" cy="127.052" rx="6.051" ry="2.271"/>
<ellipse transform="matrix(0.4579 -0.889 0.889 0.4579 266.7043 608.6289)" fill="#2480D3" cx="632.403" cy="85.628" rx="6.27" ry="2.655"/>
<ellipse transform="matrix(0.4579 -0.889 0.889 0.4579 246.0997 668.8738)" fill="#2480D3" cx="671.533" cy="132.633" rx="4.282" ry="1.815"/>
<path fill="#2480D3" d="M210.959,93.764c0,13.937-10.361,16.652-19.27,23.198c-11.959,8.787-7.965,27.006,4.58,33.325
	c12.545,6.32-13.134-17.26,4.657-25.295c23.097-10.43,33.652-18.117,26.688-38.356c-6.688-19.432-5.932,2.271-9.968-0.758
	c-4.037-3.027-10.853-14.534-11.861-8.403C204.778,83.607,210.959,87.645,210.959,93.764z"/>
<ellipse transform="matrix(0.8045 -0.594 0.594 0.8045 -38.2587 155.8634)" fill="#2480D3" cx="217.615" cy="136.044" rx="13.961" ry="9.306"/>
<g>
	<g>
		<polygon fill="#5C706E" points="629.72,286.99 628.459,286.99 634.254,257.397 638.289,257.397 		"/>
		<polygon fill="#5C706E" points="680.454,286.99 681.715,286.99 675.92,257.397 671.883,257.397 		"/>
	</g>
	<path fill="#AD0C00" d="M684.09,248.336c0,2.508-2.034,4.543-4.543,4.543h-48.416c-2.51,0-4.541-2.035-4.541-4.543v-49.211
		c0-2.508,2.031-4.541,4.541-4.541h48.416c2.51,0,4.543,2.033,4.543,4.541V248.336z"/>
	<path fill="#CE2B05" d="M688.538,253.194c0,2.695-2.188,4.883-4.885,4.883H626.52c-2.695,0-4.883-2.188-4.883-4.883v-3.312
		c0-2.697,2.188-4.885,4.883-4.885h57.134c2.696,0,4.885,2.188,4.885,4.885V253.194z"/>
</g>
</svg>
