<?xml version="1.0" encoding="utf-8"?>
<!-- Generator: Adobe Illustrator 16.0.0, SVG Export Plug-In . SVG Version: 6.00 Build 0)  -->
<!DOCTYPE svg PUBLIC "-//W3C//DTD SVG 1.1//EN" "http://www.w3.org/Graphics/SVG/1.1/DTD/svg11.dtd">
<svg version="1.1" id="Layer_1" xmlns="http://www.w3.org/2000/svg" xmlns:xlink="http://www.w3.org/1999/xlink" x="0px" y="0px"
	 width="930.314px" height="287.984px" viewBox="0 0 930.314 287.984" enable-background="new 0 0 930.314 287.984"
	 xml:space="preserve">
<g>
	<path fill="#FFFFFF" d="M0-0.008v288h930.314v-288H0z M913.555,287.881H17.518V17.027h896.037V287.881z"/>
</g>
<rect x="359.648" y="213.773" fill="#DBC89A" width="211.02" height="73.267"/>
<g>
	<rect x="395.888" y="196.556" fill="#4A5D68" width="33.688" height="18.548"/>
	<rect x="500.739" y="196.556" fill="#4A5D68" width="33.688" height="18.548"/>
</g>
<g>
	<rect x="360.307" y="222.347" fill="#7C4B29" width="212.729" height="8.518"/>
	<rect x="357.279" y="226.605" fill="#7C4B29" width="12.302" height="60.315"/>
	<rect x="559.663" y="226.605" fill="#7C4B29" width="12.302" height="60.315"/>
</g>
<polygon fill="#B75F0F" points="584.956,205.971 345.362,205.971 345.362,219.056 345.36,219.056 345.36,286.921 366.367,286.921 
	366.367,226.976 563.946,226.976 563.946,286.921 584.953,286.921 584.953,232.976 584.956,232.976 "/>
<g>
	<path fill="#B75F0F" d="M17.518,85.706v201.712h63.688V85.706H17.518z M66.234,215.513h-35.34v-103.45h35.34V215.513z"/>
	<rect x="30.895" y="112.062" opacity="0.8" fill="#C9EFF4" enable-background="new    " width="35.34" height="103.45"/>
	<g>
		<circle fill="#A3B6B7" cx="31.584" cy="228.56" r="3.88"/>
		<circle fill="#A3B6B7" cx="67.626" cy="228.56" r="3.88"/>
		
			<line fill="none" stroke="#E5C28F" stroke-width="3.0282" stroke-linecap="round" stroke-miterlimit="10" x1="32.288" y1="228.276" x2="67.625" y2="228.276"/>
	</g>
</g>
<g>
	<path fill="#92ADA8" d="M453.905,204.971c0-3.213,2.604-5.815,5.815-5.815c3.213,0,5.814,2.604,5.814,5.815"/>
	<rect x="459.324" y="197.38" fill="#92ADA8" width="0.841" height="2.896"/>
	<rect x="458.436" y="196.632" fill="#92ADA8" width="2.478" height="1.028"/>
	<path fill="#FFFFFF" d="M464.245,203.806c-0.12,0-0.229-0.083-0.258-0.206c-0.462-2.021-2.234-3.436-4.312-3.436
		c-0.146,0-0.266-0.119-0.266-0.267c0-0.146,0.119-0.265,0.266-0.265c2.327,0,4.312,1.582,4.83,3.849
		c0.032,0.144-0.057,0.284-0.199,0.316C464.286,203.803,464.264,203.806,464.245,203.806z"/>
	<circle fill="#FFFFFF" cx="464.434" cy="204.39" r="0.283"/>
</g>
</svg>
