<?xml version="1.0" encoding="utf-8"?>
<!-- Generator: Adobe Illustrator 16.0.0, SVG Export Plug-In . SVG Version: 6.00 Build 0)  -->
<!DOCTYPE svg PUBLIC "-//W3C//DTD SVG 1.1//EN" "http://www.w3.org/Graphics/SVG/1.1/DTD/svg11.dtd">
<svg version="1.1" id="Layer_1" xmlns="http://www.w3.org/2000/svg" xmlns:xlink="http://www.w3.org/1999/xlink" x="0px" y="0px"
	 width="743.323px" height="285.075px" viewBox="0 30.632 743.323 285.075" enable-background="new 0 30.632 743.323 285.075"
	 xml:space="preserve">
<g>
	<polygon fill="#76C0DD" points="627.569,250.714 354.308,250.714 490.939,124.155 490.939,124.155 	"/>
	<polygon fill="#92A09D" points="546.82,115.574 512.547,143.969 397.174,30.632 294.697,133.223 269.586,106.981 180.342,198.568 
		155.156,177.525 2.043,315.707 743.322,315.707 	"/>
	<polygon fill="#5E726D" points="268.907,207.763 269.586,106.981 319.807,157.563 	"/>
	<polygon fill="#5E726D" points="397.174,131.413 397.854,30.632 448.074,81.215 	"/>
	<polygon fill="#5E726D" points="364.599,163.663 365.033,99.161 397.174,131.535 	"/>
	<polygon fill="#5E726D" points="454.085,187.968 397.934,131.413 397.436,205.529 405.441,213.592 397.327,221.593 
		397.174,244.095 	"/>
	<polygon fill="#5E726D" points="236.333,240.014 236.765,175.514 268.907,207.886 	"/>
	<polygon fill="#5E726D" points="545.39,190.152 545.89,115.574 583.054,153.007 	"/>
	<polygon fill="#5E726D" points="154.911,222.75 155.211,177.981 179.81,198.161 	"/>
	<polygon fill="#5E726D" points="236.84,240.014 236.333,315.707 311.996,315.707 	"/>
	<g opacity="0.26">
		<path fill="#D3E5EF" d="M405.28,195.112c5.089,0,9.212,4.125,9.212,9.211c0,5.089-4.123,9.213-9.212,9.213"/>
		<path fill="#D3E5EF" d="M405.28,111.987c8.573,0,15.522,6.949,15.522,15.521s-6.949,15.523-15.522,15.523"/>
		<path fill="#D3E5EF" d="M405.28,157.621c10.353,0,18.746,8.392,18.746,18.746c0,10.351-8.394,18.745-18.746,18.745"/>
		<path fill="#D3E5EF" d="M405.28,140.384c-13.632,0-24.683,11.053-24.683,24.685c0,13.631,11.051,24.681,24.683,24.681"/>
		<path fill="#D3E5EF" d="M405.28,104.132c-5.48,0-9.924,4.444-9.924,9.924c0,5.481,4.443,9.926,9.924,9.926"/>
	</g>
</g>
</svg>
