<?xml version="1.0" encoding="utf-8"?>
<!-- Generator: Adobe Illustrator 16.0.0, SVG Export Plug-In . SVG Version: 6.00 Build 0)  -->
<!DOCTYPE svg PUBLIC "-//W3C//DTD SVG 1.1//EN" "http://www.w3.org/Graphics/SVG/1.1/DTD/svg11.dtd">
<svg version="1.1" id="Layer_1" xmlns="http://www.w3.org/2000/svg" xmlns:xlink="http://www.w3.org/1999/xlink" x="0px" y="0px"
	 width="743.324px" height="293.35px" viewBox="0 0 743.324 293.35" enable-background="new 0 0 743.324 293.35"
	 xml:space="preserve">
<g>
	<polygon fill="#76C0DD" points="627.572,220.081 354.31,220.081 490.941,93.522 490.941,93.522 	"/>
	<polygon fill="#92A09D" points="546.822,84.941 512.548,113.336 397.175,-0.001 294.699,102.59 269.588,76.348 180.344,167.935 
		155.158,146.892 2.045,285.075 743.324,285.075 	"/>
	<polygon fill="#5E726D" points="268.909,177.129 269.588,76.348 319.809,126.93 	"/>
	<polygon fill="#5E726D" points="397.175,100.78 397.855,-0.001 448.076,50.582 	"/>
	<polygon fill="#5E726D" points="364.601,133.03 365.035,68.528 397.175,100.902 	"/>
	<polygon fill="#5E726D" points="454.087,157.334 397.935,100.78 397.438,174.896 405.443,182.959 397.33,190.959 397.175,213.461 	
		"/>
	<polygon fill="#5E726D" points="236.335,209.381 236.767,144.881 268.909,177.252 	"/>
	<polygon fill="#5E726D" points="545.392,159.519 545.892,84.941 583.056,122.374 	"/>
	<polygon fill="#5E726D" points="154.913,192.118 155.213,147.348 179.812,167.528 	"/>
	<polygon fill="#5E726D" points="236.842,209.381 236.335,285.075 311.998,285.075 	"/>
</g>
</svg>
