<?xml version="1.0" encoding="utf-8"?>
<!-- Generator: Adobe Illustrator 16.0.0, SVG Export Plug-In . SVG Version: 6.00 Build 0)  -->
<!DOCTYPE svg PUBLIC "-//W3C//DTD SVG 1.1//EN" "http://www.w3.org/Graphics/SVG/1.1/DTD/svg11.dtd">
<svg version="1.1" id="Layer_1" xmlns="http://www.w3.org/2000/svg" xmlns:xlink="http://www.w3.org/1999/xlink" x="0px" y="0px"
	 width="1054.599px" height="315.707px" viewBox="0 0 1054.599 315.707" enable-background="new 0 0 1054.599 315.707"
	 xml:space="preserve">
<rect x="42.156" y="50.311" fill="#EAF1F4" width="970.286" height="264.787"/>
<polyline fill="none" stroke="#B3C7CE" stroke-width="1.6396" stroke-linecap="round" stroke-linejoin="round" stroke-miterlimit="10" points="
	128.589,297.609 161.337,297.609 161.337,311.05 765.719,311.05 770.364,297.609 774.463,297.609 "/>
<g>
	<g opacity="0.5">
		<rect x="261.415" y="98.832" fill="#B5D6DB" width="62.108" height="40.115"/>
		<rect x="261.415" y="142.607" fill="#B5D6DB" width="62.108" height="103.918"/>
		<rect x="327.182" y="98.832" fill="#B5D6DB" width="62.107" height="40.115"/>
		<rect x="327.182" y="142.607" fill="#B5D6DB" width="62.107" height="103.918"/>
		<rect x="323.523" y="98.832" fill="#FFFFFF" width="3.659" height="40.115"/>
		<rect x="323.523" y="142.607" fill="#FFFFFF" width="3.659" height="103.918"/>
		<rect x="261.415" y="138.947" fill="#FFFFFF" width="62.108" height="3.66"/>
		<rect x="327.182" y="138.947" fill="#FFFFFF" width="62.107" height="3.66"/>
		<rect x="323.523" y="138.947" fill="#FFFFFF" width="3.659" height="3.66"/>
	</g>
	<rect x="255.261" y="246.21" fill="#FFFFFF" width="140.183" height="3.265"/>
</g>
<g>
	<g opacity="0.5">
		<rect x="98.412" y="98.832" fill="#B5D6DB" width="62.108" height="40.115"/>
		<rect x="98.412" y="142.607" fill="#B5D6DB" width="62.108" height="103.918"/>
		<rect x="164.179" y="98.832" fill="#B5D6DB" width="62.107" height="40.115"/>
		<rect x="164.179" y="142.607" fill="#B5D6DB" width="62.107" height="103.918"/>
		<rect x="160.52" y="98.832" fill="#FFFFFF" width="3.659" height="40.115"/>
		<rect x="160.52" y="142.607" fill="#FFFFFF" width="3.659" height="103.918"/>
		<rect x="98.412" y="138.947" fill="#FFFFFF" width="62.108" height="3.66"/>
		<rect x="164.179" y="138.947" fill="#FFFFFF" width="62.107" height="3.66"/>
		<rect x="160.52" y="138.947" fill="#FFFFFF" width="3.659" height="3.66"/>
	</g>
	<rect x="92.259" y="246.21" fill="#FFFFFF" width="140.182" height="3.265"/>
</g>
<g>
	<g>
		<rect x="563.434" y="69.575" fill="#FFFFFF" width="111.04" height="6.147"/>
		<g>
			<rect x="578.341" y="50.311" fill="#869392" width="0.576" height="19.265"/>
			<rect x="658.99" y="50.311" fill="#869392" width="0.577" height="19.265"/>
		</g>
	</g>
	<g>
		<rect x="360.96" y="69.575" fill="#FFFFFF" width="111.04" height="6.147"/>
		<g>
			<rect x="375.868" y="50.311" fill="#869392" width="0.576" height="19.265"/>
			<rect x="456.516" y="50.311" fill="#869392" width="0.578" height="19.265"/>
		</g>
	</g>
	<g>
		<rect x="765.907" y="69.575" fill="#FFFFFF" width="111.039" height="6.147"/>
		<g>
			<rect x="780.815" y="50.311" fill="#869392" width="0.575" height="19.265"/>
			<rect x="861.462" y="50.311" fill="#869392" width="0.576" height="19.265"/>
		</g>
	</g>
	<g>
		<rect x="158.487" y="69.575" fill="#FFFFFF" width="111.041" height="6.147"/>
		<g>
			<rect x="173.395" y="50.311" fill="#869392" width="0.577" height="19.265"/>
			<rect x="254.044" y="50.311" fill="#869392" width="0.576" height="19.265"/>
		</g>
	</g>
</g>
<g>
	<g>
		
			<path fill="none" stroke="#BF6328" stroke-width="1.7377" stroke-linecap="round" stroke-linejoin="round" stroke-miterlimit="10" d="
			M259.583,150.421c0,10.157-8.233,18.392-18.391,18.392c-10.157,0-18.391-8.234-18.391-18.392"/>
		<path fill="none" stroke="#BF6328" stroke-width="1.7377" stroke-linecap="square" stroke-miterlimit="10" d="M231.2,314.432
			c0-5.52,4.474-9.992,9.992-9.992c5.519,0,9.992,4.473,9.992,9.992"/>
		
			<line fill="none" stroke="#BF6328" stroke-width="1.7377" stroke-linecap="round" stroke-linejoin="round" stroke-miterlimit="10" x1="241.192" y1="145.535" x2="241.192" y2="303.59"/>
	</g>
	
		<line fill="none" stroke="#BF6328" stroke-width="1.7377" stroke-miterlimit="10" x1="241.192" y1="314.949" x2="241.192" y2="302.786"/>
</g>
<g>
	<rect x="449.706" y="118.941" fill="#E4C28F" width="130.865" height="68.052"/>
	<rect x="452.03" y="121.422" fill="#FFFFFF" width="126.219" height="63.092"/>
	<g>
		
			<line fill="none" stroke="#C0E5EF" stroke-width="0.4099" stroke-miterlimit="10" x1="461.564" y1="126.9" x2="461.564" y2="179.15"/>
		
			<line fill="none" stroke="#C0E5EF" stroke-width="0.4099" stroke-miterlimit="10" x1="466.754" y1="126.9" x2="466.754" y2="179.15"/>
		
			<line fill="none" stroke="#C0E5EF" stroke-width="0.4099" stroke-miterlimit="10" x1="471.945" y1="126.9" x2="471.945" y2="179.15"/>
		
			<line fill="none" stroke="#C0E5EF" stroke-width="0.4099" stroke-miterlimit="10" x1="477.135" y1="126.9" x2="477.135" y2="179.15"/>
		
			<line fill="none" stroke="#C0E5EF" stroke-width="0.4099" stroke-miterlimit="10" x1="482.325" y1="126.9" x2="482.325" y2="179.15"/>
		
			<line fill="none" stroke="#C0E5EF" stroke-width="0.4099" stroke-miterlimit="10" x1="487.515" y1="126.9" x2="487.515" y2="179.15"/>
		
			<line fill="none" stroke="#C0E5EF" stroke-width="0.4099" stroke-miterlimit="10" x1="492.706" y1="126.9" x2="492.706" y2="179.15"/>
		
			<line fill="none" stroke="#C0E5EF" stroke-width="0.4099" stroke-miterlimit="10" x1="497.896" y1="126.9" x2="497.896" y2="179.15"/>
		
			<line fill="none" stroke="#C0E5EF" stroke-width="0.4099" stroke-miterlimit="10" x1="503.086" y1="126.9" x2="503.086" y2="179.15"/>
		
			<line fill="none" stroke="#C0E5EF" stroke-width="0.4099" stroke-miterlimit="10" x1="508.277" y1="126.9" x2="508.277" y2="179.15"/>
		
			<line fill="none" stroke="#C0E5EF" stroke-width="0.4099" stroke-miterlimit="10" x1="513.467" y1="126.9" x2="513.467" y2="179.15"/>
		
			<line fill="none" stroke="#C0E5EF" stroke-width="0.4099" stroke-miterlimit="10" x1="518.658" y1="126.9" x2="518.658" y2="179.15"/>
		
			<line fill="none" stroke="#C0E5EF" stroke-width="0.4099" stroke-miterlimit="10" x1="523.848" y1="126.9" x2="523.848" y2="179.15"/>
		
			<line fill="none" stroke="#C0E5EF" stroke-width="0.4099" stroke-miterlimit="10" x1="529.039" y1="126.9" x2="529.039" y2="179.15"/>
		
			<line fill="none" stroke="#C0E5EF" stroke-width="0.4099" stroke-miterlimit="10" x1="534.228" y1="126.9" x2="534.228" y2="179.15"/>
		
			<line fill="none" stroke="#C0E5EF" stroke-width="0.4099" stroke-miterlimit="10" x1="539.418" y1="126.9" x2="539.418" y2="179.15"/>
		
			<line fill="none" stroke="#C0E5EF" stroke-width="0.4099" stroke-miterlimit="10" x1="544.61" y1="126.9" x2="544.61" y2="179.15"/>
		
			<line fill="none" stroke="#C0E5EF" stroke-width="0.4099" stroke-miterlimit="10" x1="549.799" y1="126.9" x2="549.799" y2="179.15"/>
		
			<line fill="none" stroke="#C0E5EF" stroke-width="0.4099" stroke-miterlimit="10" x1="554.99" y1="126.9" x2="554.99" y2="179.15"/>
		
			<line fill="none" stroke="#C0E5EF" stroke-width="0.4099" stroke-miterlimit="10" x1="560.179" y1="126.9" x2="560.179" y2="179.15"/>
		
			<line fill="none" stroke="#C0E5EF" stroke-width="0.4099" stroke-miterlimit="10" x1="565.37" y1="126.9" x2="565.37" y2="179.15"/>
	</g>
	
		<polyline opacity="0.6" fill="none" stroke="#F15E3C" stroke-width="1.6396" stroke-linecap="round" stroke-linejoin="round" stroke-miterlimit="10" points="
		456.944,171.25 480.642,138.262 491.098,157.102 499.606,144.498 507.045,156.947 510.042,150.949 521.059,169.114 
		526.306,158.447 531.439,165.828 544.3,143.682 557.044,159.254 568.292,143.682 	"/>
</g>
<path fill="#699A40" d="M219.107,152.832l-6.559,77.813c0,0,0.459-1.845,4.918,3.01c4.235,4.61,6.968-5.302,13.39-4.267
	l-6.348-78.688C224.509,150.701,220.044,145.743,219.107,152.832z"/>
<g>
	<rect x="420.895" y="292.955" fill="#9B9B9B" width="5.646" height="14.213"/>
	<rect x="422.343" y="268.127" fill="#9B9B9B" width="2.75" height="27.251"/>
	<g>
		
			<rect x="430.218" y="300.65" transform="matrix(0.2725 -0.9622 0.9622 0.2725 16.8115 638.8407)" fill="#9B9B9B" width="1.283" height="15.307"/>
		
			<rect x="416.953" y="300.649" transform="matrix(-0.2704 -0.9628 0.9628 -0.2704 233.6891 793.7046)" fill="#9B9B9B" width="1.282" height="15.307"/>
		<circle fill="#9B9B9B" cx="410.387" cy="311.687" r="1.937"/>
		<circle fill="#9B9B9B" cx="438.05" cy="311.687" r="1.937"/>
	</g>
	<rect x="422.509" y="307.021" fill="#9B9B9B" width="2.418" height="4.974"/>
	<rect x="421.714" y="310.761" fill="#9B9B9B" width="4.008" height="3.862"/>
	<path fill="#005593" d="M444.229,213.412c0-3.227-2.615-5.844-5.842-5.844h-30.338c-3.228,0-5.842,2.617-5.842,5.844v52.132h42.021
		V213.412z"/>
	<path fill="#0586BB" d="M447.262,267.617c0,1.795-1.455,3.25-3.25,3.25h-41.59c-1.793,0-3.248-1.455-3.248-3.25l0,0
		c0-1.795,1.455-3.248,3.248-3.248h41.59C445.807,264.369,447.262,265.822,447.262,267.617L447.262,267.617z"/>
</g>
<g>
	<g>
		<rect x="439.088" y="228.564" fill="#FFFFFF" width="28.42" height="4.926"/>
		
			<line fill="none" stroke="#AEAEAE" stroke-width="0.1025" stroke-miterlimit="10" x1="439.088" y1="228.828" x2="467.508" y2="228.828"/>
		
			<line fill="none" stroke="#AEAEAE" stroke-width="0.1025" stroke-miterlimit="10" x1="439.088" y1="229.136" x2="467.508" y2="229.136"/>
		
			<line fill="none" stroke="#AEAEAE" stroke-width="0.1025" stroke-miterlimit="10" x1="439.088" y1="229.443" x2="467.508" y2="229.443"/>
		
			<line fill="none" stroke="#AEAEAE" stroke-width="0.1025" stroke-miterlimit="10" x1="439.088" y1="229.751" x2="467.508" y2="229.751"/>
		
			<line fill="none" stroke="#AEAEAE" stroke-width="0.1025" stroke-miterlimit="10" x1="439.088" y1="230.059" x2="467.508" y2="230.059"/>
		
			<line fill="none" stroke="#AEAEAE" stroke-width="0.1025" stroke-miterlimit="10" x1="439.088" y1="230.365" x2="467.508" y2="230.365"/>
		
			<line fill="none" stroke="#AEAEAE" stroke-width="0.1025" stroke-miterlimit="10" x1="439.088" y1="230.673" x2="467.508" y2="230.673"/>
		
			<line fill="none" stroke="#AEAEAE" stroke-width="0.1025" stroke-miterlimit="10" x1="439.088" y1="230.98" x2="467.508" y2="230.98"/>
		
			<line fill="none" stroke="#AEAEAE" stroke-width="0.1025" stroke-miterlimit="10" x1="439.088" y1="231.289" x2="467.508" y2="231.289"/>
		
			<line fill="none" stroke="#AEAEAE" stroke-width="0.1025" stroke-miterlimit="10" x1="439.088" y1="231.596" x2="467.508" y2="231.596"/>
		
			<line fill="none" stroke="#AEAEAE" stroke-width="0.1025" stroke-miterlimit="10" x1="439.088" y1="231.902" x2="467.508" y2="231.902"/>
		
			<line fill="none" stroke="#AEAEAE" stroke-width="0.1025" stroke-miterlimit="10" x1="439.088" y1="232.21" x2="467.508" y2="232.21"/>
		
			<line fill="none" stroke="#AEAEAE" stroke-width="0.1025" stroke-miterlimit="10" x1="439.088" y1="232.518" x2="467.508" y2="232.518"/>
		
			<line fill="none" stroke="#AEAEAE" stroke-width="0.1025" stroke-miterlimit="10" x1="439.088" y1="232.824" x2="467.508" y2="232.824"/>
		
			<line fill="none" stroke="#AEAEAE" stroke-width="0.1025" stroke-miterlimit="10" x1="439.088" y1="233.132" x2="467.508" y2="233.132"/>
	</g>
	<rect x="434.307" y="236.47" fill="#BAA665" width="145.134" height="78.628"/>
	<rect x="431.057" y="233.332" fill="#BAA665" width="151.634" height="3.138"/>
	<rect x="434.307" y="236.47" fill="#9B8A57" width="145.134" height="3.136"/>
	<g>
		<path fill="#FFFFFF" d="M540.722,225.039c0,1.484-1.204,2.689-2.688,2.689h-39.666c-1.485,0-2.689-1.205-2.689-2.689v-23.53
			c0-1.484,1.204-2.688,2.689-2.688h39.666c1.484,0,2.688,1.204,2.688,2.688V225.039z"/>
		<rect x="512.485" y="227.729" fill="#FFFFFF" width="11.431" height="5.604"/>
		<rect x="512.485" y="227.729" opacity="0.7" fill="#ABBBB9" width="11.431" height="2.354"/>
		<circle fill="#ABBBB9" cx="518.201" cy="209.465" r="1.681"/>
		<g>
			<path fill="#ABBBB9" d="M514.503,224.854c0,0.086,0.067,0.154,0.152,0.154l0,0c0.084,0,0.152-0.068,0.152-0.154V219.3
				c0-0.085-0.068-0.153-0.152-0.153l0,0c-0.085,0-0.152,0.068-0.152,0.153V224.854z"/>
			<path fill="#ABBBB9" d="M515.147,224.854c0,0.086,0.068,0.154,0.152,0.154l0,0c0.085,0,0.153-0.068,0.153-0.154V219.3
				c0-0.085-0.068-0.153-0.153-0.153l0,0c-0.084,0-0.152,0.068-0.152,0.153V224.854z"/>
			<path fill="#ABBBB9" d="M515.792,224.854c0,0.086,0.068,0.154,0.152,0.154l0,0c0.085,0,0.152-0.068,0.152-0.154V219.3
				c0-0.085-0.067-0.153-0.152-0.153l0,0c-0.084,0-0.152,0.068-0.152,0.153V224.854z"/>
			<path fill="#ABBBB9" d="M516.436,224.854c0,0.086,0.068,0.154,0.153,0.154l0,0c0.084,0,0.152-0.068,0.152-0.154V219.3
				c0-0.085-0.068-0.153-0.152-0.153l0,0c-0.085,0-0.153,0.068-0.153,0.153V224.854z"/>
			<path fill="#ABBBB9" d="M517.081,224.854c0,0.086,0.068,0.154,0.153,0.154l0,0c0.084,0,0.151-0.068,0.151-0.154V219.3
				c0-0.085-0.067-0.153-0.151-0.153l0,0c-0.085,0-0.153,0.068-0.153,0.153V224.854z"/>
			<path fill="#ABBBB9" d="M517.726,224.854c0,0.086,0.067,0.154,0.152,0.154l0,0c0.084,0,0.152-0.068,0.152-0.154V219.3
				c0-0.085-0.068-0.153-0.152-0.153l0,0c-0.085,0-0.152,0.068-0.152,0.153V224.854z"/>
			<path fill="#ABBBB9" d="M518.37,224.854c0,0.086,0.069,0.154,0.152,0.154l0,0c0.085,0,0.154-0.068,0.154-0.154V219.3
				c0-0.085-0.069-0.153-0.154-0.153l0,0c-0.083,0-0.152,0.068-0.152,0.153V224.854z"/>
			<path fill="#ABBBB9" d="M519.014,224.854c0,0.086,0.069,0.154,0.153,0.154l0,0c0.083,0,0.152-0.068,0.152-0.154V219.3
				c0-0.085-0.069-0.153-0.152-0.153l0,0c-0.084,0-0.153,0.068-0.153,0.153V224.854z"/>
			<path fill="#ABBBB9" d="M519.659,224.854c0,0.086,0.068,0.154,0.153,0.154l0,0c0.084,0,0.152-0.068,0.152-0.154V219.3
				c0-0.085-0.068-0.153-0.152-0.153l0,0c-0.085,0-0.153,0.068-0.153,0.153V224.854z"/>
			<path fill="#ABBBB9" d="M520.304,224.854c0,0.086,0.068,0.154,0.151,0.154l0,0c0.085,0,0.153-0.068,0.153-0.154V219.3
				c0-0.085-0.068-0.153-0.153-0.153l0,0c-0.083,0-0.151,0.068-0.151,0.153V224.854z"/>
			<path fill="#ABBBB9" d="M520.949,224.854c0,0.086,0.067,0.154,0.152,0.154l0,0c0.084,0,0.152-0.068,0.152-0.154V219.3
				c0-0.085-0.068-0.153-0.152-0.153l0,0c-0.085,0-0.152,0.068-0.152,0.153V224.854z"/>
			<path fill="#ABBBB9" d="M521.592,224.854c0,0.086,0.068,0.154,0.152,0.154l0,0c0.085,0,0.153-0.068,0.153-0.154V219.3
				c0-0.085-0.068-0.153-0.153-0.153l0,0c-0.084,0-0.152,0.068-0.152,0.153V224.854z"/>
		</g>
	</g>
	<g>
		<path fill="#356732" d="M560.324,223.869c-0.636,0.634-1.665,0.634-2.3,0l-0.319-0.32c-0.637-0.636-0.637-1.665,0-2.301
			l3.515-3.516c0.634-0.634,1.664-0.635,2.299,0l0.321,0.32c0.634,0.637,0.634,1.665,0,2.301L560.324,223.869z"/>
		<path fill="#356732" d="M559.247,219.383c0.636,0.636,0.636,1.666,0,2.301l-0.319,0.32c-0.635,0.635-1.664,0.635-2.301,0
			l-5.631-5.633c-0.637-0.635-0.637-1.666,0-2.301l0.319-0.319c0.635-0.636,1.664-0.636,2.301,0L559.247,219.383z"/>
		<path fill="#3D7D3C" d="M560.771,222.725c0,1.484-1.204,2.689-2.689,2.689h-0.747c-1.484,0-2.688-1.205-2.688-2.689v-8.218
			c0-1.484,1.204-2.688,2.688-2.688h0.747c1.485,0,2.689,1.204,2.689,2.688V222.725z"/>
		<path fill="#DC4A29" d="M551.714,231.986c0,0.744,0.603,1.346,1.344,1.346h9.469c0.742,0,1.345-0.602,1.345-1.346v-9.553h-12.157
			V231.986z"/>
	</g>
	<g>
		<rect x="470.901" y="230.189" fill="#479DD3" width="21.331" height="3.143"/>
		<rect x="488.518" y="230.189" fill="#B4E2F0" width="1.05" height="3.143"/>
		<rect x="486.571" y="230.189" fill="#B4E2F0" width="1.05" height="3.143"/>
		<rect x="472.131" y="230.189" fill="#B4E2F0" width="4.935" height="3.143"/>
	</g>
	<g>
		<rect x="444.241" y="221.799" fill="#2F783B" width="21.33" height="2.393"/>
		<rect x="453.313" y="222.518" fill="#3A3C18" width="11.271" height="0.956"/>
	</g>
	<g>
		<rect x="450.536" y="217.428" fill="#E91461" width="15.934" height="4.371"/>
		<rect x="452.866" y="218.503" fill="#211B23" width="2.73" height="2.307"/>
	</g>
	<g>
		<rect x="445.833" y="224.191" fill="#8E5723" width="18.665" height="4.373"/>
		<rect x="459.04" y="224.191" fill="#C6CB79" width="2.101" height="4.373"/>
		<rect x="448.47" y="224.191" fill="#C6CB79" width="0.477" height="4.373"/>
	</g>
</g>
<g>
	<rect x="618.305" y="130.775" fill="#5E5F5F" width="120.306" height="184.322"/>
	<rect x="623.173" y="171.172" fill="#40434C" width="110.57" height="30.643"/>
	<rect x="623.173" y="135.909" fill="#40434C" width="110.57" height="30.643"/>
	<rect x="623.173" y="207.371" fill="#40434C" width="110.57" height="30.645"/>
	<rect x="623.173" y="243.572" fill="#40434C" width="110.57" height="30.643"/>
	<rect x="623.173" y="279.771" fill="#40434C" width="110.57" height="30.643"/>
</g>
<g>
	<rect x="625.834" y="231.643" fill="#F7D21E" width="23.002" height="6.373"/>
	<rect x="638.057" y="233.034" fill="#F4F4F4" width="9.047" height="3.591"/>
	<rect x="645.428" y="233.034" fill="#8D9696" width="1.779" height="3.591"/>
	<g>
		
			<line fill="none" stroke="#2B7CBE" stroke-width="0.1025" stroke-miterlimit="10" x1="639.231" y1="236.221" x2="639.231" y2="233.457"/>
		
			<line fill="none" stroke="#2B7CBE" stroke-width="0.1025" stroke-miterlimit="10" x1="640.198" y1="236.221" x2="640.198" y2="233.457"/>
		
			<line fill="none" stroke="#2B7CBE" stroke-width="0.1025" stroke-miterlimit="10" x1="641.166" y1="236.221" x2="641.166" y2="233.457"/>
		
			<line fill="none" stroke="#2B7CBE" stroke-width="0.1025" stroke-miterlimit="10" x1="642.131" y1="236.221" x2="642.131" y2="233.457"/>
		
			<line fill="none" stroke="#2B7CBE" stroke-width="0.1025" stroke-miterlimit="10" x1="643.099" y1="236.221" x2="643.099" y2="233.457"/>
		
			<line fill="none" stroke="#2B7CBE" stroke-width="0.1025" stroke-miterlimit="10" x1="644.065" y1="236.221" x2="644.065" y2="233.457"/>
	</g>
	<g>
		<circle fill="#C2D7D7" cx="629.779" cy="234.852" r="1.502"/>
		<circle fill="#52595A" cx="629.779" cy="234.829" r="1.208"/>
	</g>
</g>
<g>
	
		<rect x="725.112" y="250.785" transform="matrix(0.9789 0.2042 -0.2042 0.9789 68.9221 -143.2201)" fill="#4094D1" width="6.374" height="23.002"/>
	
		<rect x="725.432" y="262.899" transform="matrix(0.9789 0.2045 -0.2045 0.9789 70.0691 -143.0864)" fill="#F4F4F4" width="3.591" height="9.046"/>
	
		<rect x="724.668" y="270.191" transform="matrix(0.979 0.204 -0.204 0.979 70.5579 -142.4673)" fill="#8D9696" width="3.591" height="1.778"/>
	<g>
		
			<line fill="none" stroke="#2B7CBE" stroke-width="0.1025" stroke-miterlimit="10" x1="726.549" y1="263.857" x2="729.253" y2="264.424"/>
		
			<line fill="none" stroke="#2B7CBE" stroke-width="0.1025" stroke-miterlimit="10" x1="726.352" y1="264.807" x2="729.056" y2="265.37"/>
		
			<line fill="none" stroke="#2B7CBE" stroke-width="0.1025" stroke-miterlimit="10" x1="726.155" y1="265.752" x2="728.858" y2="266.316"/>
		
			<line fill="none" stroke="#2B7CBE" stroke-width="0.1025" stroke-miterlimit="10" x1="725.958" y1="266.697" x2="728.661" y2="267.262"/>
		
			<line fill="none" stroke="#2B7CBE" stroke-width="0.1025" stroke-miterlimit="10" x1="725.759" y1="267.644" x2="728.463" y2="268.209"/>
		
			<line fill="none" stroke="#2B7CBE" stroke-width="0.1025" stroke-miterlimit="10" x1="725.562" y1="268.591" x2="728.266" y2="269.154"/>
	</g>
	<g>
		<circle fill="#C2D7D7" cx="729.82" cy="254.885" r="1.501"/>
		<circle fill="#52595A" cx="729.841" cy="254.89" r="1.208"/>
	</g>
</g>
<g>
	
		<rect x="715.784" y="250.972" transform="matrix(0.8968 0.4424 -0.4424 0.8968 190.3186 -291.0052)" fill="#4094D1" width="6.372" height="23.001"/>
	
		<rect x="714.854" y="262.653" transform="matrix(0.8969 0.4422 -0.4422 0.8969 192.0218 -289.3627)" fill="#F4F4F4" width="3.591" height="9.047"/>
	
		<rect x="713.201" y="269.64" transform="matrix(0.897 0.4421 -0.4421 0.897 193.2665 -288.2234)" fill="#8D9696" width="3.592" height="1.778"/>
	<g>
		
			<line fill="none" stroke="#2B7CBE" stroke-width="0.1025" stroke-miterlimit="10" x1="716.885" y1="263.558" x2="719.361" y2="264.779"/>
		
			<line fill="none" stroke="#2B7CBE" stroke-width="0.1025" stroke-miterlimit="10" x1="716.458" y1="264.424" x2="718.934" y2="265.646"/>
		
			<line fill="none" stroke="#2B7CBE" stroke-width="0.1025" stroke-miterlimit="10" x1="716.029" y1="265.291" x2="718.505" y2="266.514"/>
		
			<line fill="none" stroke="#2B7CBE" stroke-width="0.1025" stroke-miterlimit="10" x1="715.601" y1="266.158" x2="718.079" y2="267.381"/>
		
			<line fill="none" stroke="#2B7CBE" stroke-width="0.1025" stroke-miterlimit="10" x1="715.174" y1="267.025" x2="717.651" y2="268.247"/>
		
			<line fill="none" stroke="#2B7CBE" stroke-width="0.1025" stroke-miterlimit="10" x1="714.747" y1="267.893" x2="717.223" y2="269.113"/>
	</g>
	<g>
		<circle fill="#C2D7D7" cx="722.292" cy="255.685" r="1.502"/>
		<circle fill="#52595A" cx="722.312" cy="255.694" r="1.208"/>
	</g>
</g>
<g>
	
		<rect x="705.724" y="251.789" transform="matrix(0.7724 0.6352 -0.6352 0.7724 328.624 -390.36)" fill="#4094D1" width="6.373" height="23.001"/>
	
		<rect x="703.784" y="262.817" transform="matrix(0.7723 0.6352 -0.6352 0.7723 330.4833 -387.3473)" fill="#F4F4F4" width="3.591" height="9.046"/>
	
		<rect x="701.41" y="269.338" transform="matrix(0.7723 0.6352 -0.6352 0.7723 331.7769 -385.1818)" fill="#8D9696" width="3.591" height="1.778"/>
	<g>
		
			<line fill="none" stroke="#2B7CBE" stroke-width="0.1025" stroke-miterlimit="10" x1="706.632" y1="263.87" x2="708.765" y2="265.625"/>
		
			<line fill="none" stroke="#2B7CBE" stroke-width="0.1025" stroke-miterlimit="10" x1="706.018" y1="264.617" x2="708.152" y2="266.371"/>
		
			<line fill="none" stroke="#2B7CBE" stroke-width="0.1025" stroke-miterlimit="10" x1="705.405" y1="265.363" x2="707.537" y2="267.118"/>
		
			<line fill="none" stroke="#2B7CBE" stroke-width="0.1025" stroke-miterlimit="10" x1="704.792" y1="266.111" x2="706.923" y2="267.865"/>
		
			<line fill="none" stroke="#2B7CBE" stroke-width="0.1025" stroke-miterlimit="10" x1="704.175" y1="266.857" x2="706.31" y2="268.611"/>
		
			<line fill="none" stroke="#2B7CBE" stroke-width="0.1025" stroke-miterlimit="10" x1="703.562" y1="267.604" x2="705.696" y2="269.359"/>
	</g>
	<g>
		<circle fill="#C2D7D7" cx="713.693" cy="257.438" r="1.501"/>
		<circle fill="#52595A" cx="713.711" cy="257.453" r="1.209"/>
	</g>
</g>
<g>
	<rect x="625.834" y="218.773" fill="#224F26" width="23.002" height="6.375"/>
	<rect x="627.568" y="220.166" fill="#F4F4F4" width="9.046" height="3.591"/>
	<rect x="627.463" y="220.166" fill="#8D9696" width="1.778" height="3.591"/>
	<g>
		
			<line fill="none" stroke="#2B7CBE" stroke-width="0.1025" stroke-miterlimit="10" x1="635.439" y1="223.352" x2="635.439" y2="220.59"/>
		
			<line fill="none" stroke="#2B7CBE" stroke-width="0.1025" stroke-miterlimit="10" x1="634.472" y1="223.352" x2="634.472" y2="220.59"/>
		
			<line fill="none" stroke="#2B7CBE" stroke-width="0.1025" stroke-miterlimit="10" x1="633.506" y1="223.352" x2="633.506" y2="220.59"/>
		
			<line fill="none" stroke="#2B7CBE" stroke-width="0.1025" stroke-miterlimit="10" x1="632.54" y1="223.352" x2="632.54" y2="220.59"/>
		
			<line fill="none" stroke="#2B7CBE" stroke-width="0.1025" stroke-miterlimit="10" x1="631.573" y1="223.352" x2="631.573" y2="220.59"/>
		
			<line fill="none" stroke="#2B7CBE" stroke-width="0.1025" stroke-miterlimit="10" x1="630.606" y1="223.352" x2="630.606" y2="220.59"/>
	</g>
	<g>
		<circle fill="#C2D7D7" cx="644.892" cy="221.984" r="1.502"/>
		<circle fill="#52595A" cx="644.892" cy="221.962" r="1.208"/>
	</g>
</g>
<g>
	<rect x="628.698" y="225.189" fill="#DC4A29" width="23.002" height="6.372"/>
	<rect x="640.92" y="226.58" fill="#F4F4F4" width="9.047" height="3.592"/>
	<rect x="648.292" y="226.58" fill="#8D9696" width="1.778" height="3.592"/>
	<g>
		
			<line fill="none" stroke="#2B7CBE" stroke-width="0.1025" stroke-miterlimit="10" x1="642.094" y1="229.768" x2="642.094" y2="227.005"/>
		
			<line fill="none" stroke="#2B7CBE" stroke-width="0.1025" stroke-miterlimit="10" x1="643.061" y1="229.768" x2="643.061" y2="227.005"/>
		
			<line fill="none" stroke="#2B7CBE" stroke-width="0.1025" stroke-miterlimit="10" x1="644.028" y1="229.768" x2="644.028" y2="227.005"/>
		
			<line fill="none" stroke="#2B7CBE" stroke-width="0.1025" stroke-miterlimit="10" x1="644.994" y1="229.768" x2="644.994" y2="227.005"/>
		
			<line fill="none" stroke="#2B7CBE" stroke-width="0.1025" stroke-miterlimit="10" x1="645.96" y1="229.768" x2="645.96" y2="227.005"/>
		
			<line fill="none" stroke="#2B7CBE" stroke-width="0.1025" stroke-miterlimit="10" x1="646.927" y1="229.768" x2="646.927" y2="227.005"/>
	</g>
	<g>
		<circle fill="#C2D7D7" cx="632.641" cy="228.398" r="1.502"/>
		<circle fill="#52595A" cx="632.641" cy="228.376" r="1.208"/>
	</g>
</g>
<g>
	<rect x="623.808" y="178.814" fill="#F7D21E" width="6.372" height="23"/>
	<rect x="625.199" y="191.037" fill="#F4F4F4" width="3.591" height="9.045"/>
	<rect x="625.199" y="198.408" fill="#8D9696" width="3.591" height="1.778"/>
	<g>
		
			<line fill="none" stroke="#2B7CBE" stroke-width="0.1025" stroke-miterlimit="10" x1="625.603" y1="192.209" x2="628.365" y2="192.209"/>
		
			<line fill="none" stroke="#2B7CBE" stroke-width="0.1025" stroke-miterlimit="10" x1="625.603" y1="193.178" x2="628.365" y2="193.178"/>
		
			<line fill="none" stroke="#2B7CBE" stroke-width="0.1025" stroke-miterlimit="10" x1="625.603" y1="194.145" x2="628.365" y2="194.145"/>
		
			<line fill="none" stroke="#2B7CBE" stroke-width="0.1025" stroke-miterlimit="10" x1="625.603" y1="195.111" x2="628.365" y2="195.111"/>
		
			<line fill="none" stroke="#2B7CBE" stroke-width="0.1025" stroke-miterlimit="10" x1="625.603" y1="196.078" x2="628.365" y2="196.078"/>
		
			<line fill="none" stroke="#2B7CBE" stroke-width="0.1025" stroke-miterlimit="10" x1="625.603" y1="197.044" x2="628.365" y2="197.044"/>
	</g>
	<g>
		<circle fill="#C2D7D7" cx="626.972" cy="182.758" r="1.502"/>
		<circle fill="#52595A" cx="626.995" cy="182.758" r="1.208"/>
	</g>
</g>
<g>
	<rect x="725.672" y="178.814" fill="#F7D21E" width="6.372" height="23"/>
	<rect x="727.062" y="191.037" fill="#F4F4F4" width="3.592" height="9.045"/>
	<rect x="727.062" y="198.408" fill="#8D9696" width="3.592" height="1.778"/>
	<g>
		
			<line fill="none" stroke="#2B7CBE" stroke-width="0.1025" stroke-miterlimit="10" x1="727.467" y1="192.209" x2="730.23" y2="192.209"/>
		
			<line fill="none" stroke="#2B7CBE" stroke-width="0.1025" stroke-miterlimit="10" x1="727.467" y1="193.178" x2="730.23" y2="193.178"/>
		
			<line fill="none" stroke="#2B7CBE" stroke-width="0.1025" stroke-miterlimit="10" x1="727.467" y1="194.145" x2="730.23" y2="194.145"/>
		
			<line fill="none" stroke="#2B7CBE" stroke-width="0.1025" stroke-miterlimit="10" x1="727.467" y1="195.111" x2="730.23" y2="195.111"/>
		
			<line fill="none" stroke="#2B7CBE" stroke-width="0.1025" stroke-miterlimit="10" x1="727.467" y1="196.078" x2="730.23" y2="196.078"/>
		
			<line fill="none" stroke="#2B7CBE" stroke-width="0.1025" stroke-miterlimit="10" x1="727.467" y1="197.044" x2="730.23" y2="197.044"/>
	</g>
	<g>
		<circle fill="#C2D7D7" cx="728.836" cy="182.758" r="1.501"/>
		<circle fill="#52595A" cx="728.859" cy="182.758" r="1.209"/>
	</g>
</g>
<g>
	
		<rect x="631.958" y="178.434" transform="matrix(0.9884 -0.1522 0.1522 0.9884 -21.5049 98.8558)" fill="#4094D1" width="6.373" height="23.002"/>
	
		<rect x="634.148" y="190.597" transform="matrix(0.9884 -0.1518 0.1518 0.9884 -22.2465 98.778)" fill="#F4F4F4" width="3.59" height="9.045"/>
	
		<rect x="634.715" y="197.923" transform="matrix(0.9883 -0.1523 0.1523 0.9883 -22.8499 99.2343)" fill="#8D9696" width="3.592" height="1.779"/>
	<g>
		
			<line fill="none" stroke="#2B7CBE" stroke-width="0.1025" stroke-miterlimit="10" x1="634.059" y1="192.021" x2="636.789" y2="191.6"/>
		
			<line fill="none" stroke="#2B7CBE" stroke-width="0.1025" stroke-miterlimit="10" x1="634.206" y1="192.976" x2="636.936" y2="192.557"/>
		
			<line fill="none" stroke="#2B7CBE" stroke-width="0.1025" stroke-miterlimit="10" x1="634.353" y1="193.932" x2="637.082" y2="193.511"/>
		
			<line fill="none" stroke="#2B7CBE" stroke-width="0.1025" stroke-miterlimit="10" x1="634.5" y1="194.887" x2="637.23" y2="194.467"/>
		
			<line fill="none" stroke="#2B7CBE" stroke-width="0.1025" stroke-miterlimit="10" x1="634.647" y1="195.842" x2="637.377" y2="195.422"/>
		
			<line fill="none" stroke="#2B7CBE" stroke-width="0.1025" stroke-miterlimit="10" x1="634.794" y1="196.799" x2="637.523" y2="196.377"/>
	</g>
	<g>
		<circle fill="#C2D7D7" cx="633.974" cy="182.469" r="1.501"/>
		<circle fill="#52595A" cx="633.996" cy="182.466" r="1.209"/>
	</g>
</g>
<g>
	
		<rect x="641.433" y="178.433" transform="matrix(0.9104 -0.4137 0.4137 0.9104 -20.8278 283.6859)" fill="#224F26" width="6.374" height="23.003"/>
	
		<rect x="644.994" y="190.188" transform="matrix(0.9105 -0.4135 0.4135 0.9105 -22.6262 284.8853)" fill="#F4F4F4" width="3.592" height="9.046"/>
	
		<rect x="646.54" y="197.224" transform="matrix(0.9105 -0.4136 0.4136 0.9105 -23.8853 285.9046)" fill="#8D9696" width="3.591" height="1.779"/>
	<g>
		
			<line fill="none" stroke="#2B7CBE" stroke-width="0.1025" stroke-miterlimit="10" x1="644.137" y1="192.236" x2="646.652" y2="191.094"/>
		
			<line fill="none" stroke="#2B7CBE" stroke-width="0.1025" stroke-miterlimit="10" x1="644.538" y1="193.117" x2="647.052" y2="191.975"/>
		
			<line fill="none" stroke="#2B7CBE" stroke-width="0.1025" stroke-miterlimit="10" x1="644.937" y1="193.997" x2="647.452" y2="192.855"/>
		
			<line fill="none" stroke="#2B7CBE" stroke-width="0.1025" stroke-miterlimit="10" x1="645.336" y1="194.876" x2="647.852" y2="193.734"/>
		
			<line fill="none" stroke="#2B7CBE" stroke-width="0.1025" stroke-miterlimit="10" x1="645.737" y1="195.757" x2="648.251" y2="194.615"/>
		
			<line fill="none" stroke="#2B7CBE" stroke-width="0.1025" stroke-miterlimit="10" x1="646.136" y1="196.637" x2="648.651" y2="195.494"/>
	</g>
	<g>
		<circle fill="#C2D7D7" cx="641.474" cy="183.064" r="1.502"/>
		<circle fill="#52595A" cx="641.494" cy="183.055" r="1.208"/>
	</g>
</g>
<g>
	<rect x="652.278" y="178.814" fill="#DC4A29" width="6.373" height="23"/>
	<rect x="653.667" y="191.037" fill="#F4F4F4" width="3.593" height="9.045"/>
	<rect x="653.667" y="198.408" fill="#8D9696" width="3.593" height="1.778"/>
	<g>
		
			<line fill="none" stroke="#2B7CBE" stroke-width="0.1025" stroke-miterlimit="10" x1="654.073" y1="192.209" x2="656.835" y2="192.209"/>
		
			<line fill="none" stroke="#2B7CBE" stroke-width="0.1025" stroke-miterlimit="10" x1="654.073" y1="193.178" x2="656.835" y2="193.178"/>
		
			<line fill="none" stroke="#2B7CBE" stroke-width="0.1025" stroke-miterlimit="10" x1="654.073" y1="194.145" x2="656.835" y2="194.145"/>
		
			<line fill="none" stroke="#2B7CBE" stroke-width="0.1025" stroke-miterlimit="10" x1="654.073" y1="195.111" x2="656.835" y2="195.111"/>
		
			<line fill="none" stroke="#2B7CBE" stroke-width="0.1025" stroke-miterlimit="10" x1="654.073" y1="196.078" x2="656.835" y2="196.078"/>
		
			<line fill="none" stroke="#2B7CBE" stroke-width="0.1025" stroke-miterlimit="10" x1="654.073" y1="197.044" x2="656.835" y2="197.044"/>
	</g>
	<g>
		<circle fill="#C2D7D7" cx="655.441" cy="182.758" r="1.501"/>
		<circle fill="#52595A" cx="655.464" cy="182.758" r="1.208"/>
	</g>
</g>
<g>
	<rect x="717.076" y="178.814" fill="#DC4A29" width="6.372" height="23"/>
	<rect x="718.466" y="191.037" fill="#F4F4F4" width="3.591" height="9.045"/>
	<rect x="718.466" y="198.408" fill="#8D9696" width="3.591" height="1.778"/>
	<g>
		
			<line fill="none" stroke="#2B7CBE" stroke-width="0.1025" stroke-miterlimit="10" x1="718.87" y1="192.209" x2="721.633" y2="192.209"/>
		
			<line fill="none" stroke="#2B7CBE" stroke-width="0.1025" stroke-miterlimit="10" x1="718.87" y1="193.178" x2="721.633" y2="193.178"/>
		
			<line fill="none" stroke="#2B7CBE" stroke-width="0.1025" stroke-miterlimit="10" x1="718.87" y1="194.145" x2="721.633" y2="194.145"/>
		
			<line fill="none" stroke="#2B7CBE" stroke-width="0.1025" stroke-miterlimit="10" x1="718.87" y1="195.111" x2="721.633" y2="195.111"/>
		
			<line fill="none" stroke="#2B7CBE" stroke-width="0.1025" stroke-miterlimit="10" x1="718.87" y1="196.078" x2="721.633" y2="196.078"/>
		
			<line fill="none" stroke="#2B7CBE" stroke-width="0.1025" stroke-miterlimit="10" x1="718.87" y1="197.044" x2="721.633" y2="197.044"/>
	</g>
	<g>
		<circle fill="#C2D7D7" cx="720.239" cy="182.758" r="1.502"/>
		<circle fill="#52595A" cx="720.261" cy="182.758" r="1.208"/>
	</g>
</g>
<g>
	<rect x="961.118" y="295.983" fill="#9B9B9B" width="4.641" height="12.194"/>
	<rect x="962.564" y="267.187" fill="#9B9B9B" width="1.748" height="31.216"/>
	
		<rect x="984.169" y="241.011" transform="matrix(0.9767 0.2147 -0.2147 0.9767 77.3066 -205.5677)" fill="#9B9B9B" width="1.747" height="24.215"/>
	<g>
		
			<rect x="969.428" y="301.669" transform="matrix(0.272 -0.9623 0.9623 0.272 408.5582 1158.6721)" fill="#9B9B9B" width="1.282" height="15.285"/>
		
			<rect x="956.181" y="301.669" transform="matrix(-0.2713 -0.9625 0.9625 -0.2713 918.694 1314.1637)" fill="#9B9B9B" width="1.281" height="15.285"/>
		<circle fill="#9B9B9B" cx="949.626" cy="312.689" r="1.935"/>
		<circle fill="#9B9B9B" cx="977.25" cy="312.689" r="1.934"/>
	</g>
	<rect x="962.73" y="307.033" fill="#9B9B9B" width="1.416" height="4.967"/>
	<rect x="961.936" y="310.767" fill="#9B9B9B" width="3.003" height="3.856"/>
	<path fill="#0586BB" d="M983.952,266.674c0,1.533-1.241,2.773-2.773,2.773h-35.482c-1.531,0-2.771-1.24-2.771-2.773l0,0
		c0-1.53,1.24-2.771,2.771-2.771h35.482C982.71,263.902,983.952,265.144,983.952,266.674L983.952,266.674z"/>
	<path fill="#005593" d="M986.456,258.101c-0.308,1.325-1.633,2.147-2.958,1.84l0,0c-1.326-0.31-2.15-1.635-1.841-2.96l10.5-44.997
		c0.31-1.326,1.634-2.148,2.96-1.84l0,0c1.325,0.309,2.148,1.635,1.84,2.96L986.456,258.101z"/>
</g>
<g>
	<circle fill="#303030" cx="814.705" cy="143.774" r="17.972"/>
	<circle fill="#FFFFFF" cx="814.598" cy="143.774" r="15.625"/>
	<circle fill="#303030" cx="814.706" cy="143.774" r="1.386"/>
	<rect x="814.058" y="134.939" fill="#303030" width="1.157" height="8.835"/>
	
		<rect x="812.718" y="143.647" transform="matrix(0.9634 0.2682 -0.2682 0.9634 69.9628 -212.6056)" fill="#303030" width="0.677" height="12.186"/>
</g>
<g>
	<g>
		<path fill="#B3C7CE" d="M127.781,301.318c0,0.947-0.768,1.714-1.714,1.714H74.165c-0.947,0-1.714-0.767-1.714-1.714v-31.709
			c0-0.945,0.767-1.713,1.714-1.713h51.902c0.946,0,1.714,0.768,1.714,1.713V301.318z"/>
		<rect x="126.009" y="295.423" fill="#B3C7CE" width="5.16" height="4.372"/>
	</g>
	<g>
		<path fill="#ABBBB9" d="M74.165,304.958c0,0.591,0.479,1.071,1.071,1.071l0,0c0.592,0,1.072-0.48,1.072-1.071v-38.986
			c0-0.593-0.48-1.071-1.072-1.071l0,0c-0.592,0-1.071,0.479-1.071,1.071V304.958z"/>
		<path fill="#ABBBB9" d="M78.688,304.958c0,0.591,0.479,1.071,1.071,1.071l0,0c0.592,0,1.072-0.48,1.072-1.071v-38.986
			c0-0.593-0.479-1.071-1.072-1.071l0,0c-0.592,0-1.071,0.479-1.071,1.071V304.958z"/>
		<path fill="#ABBBB9" d="M83.212,304.958c0,0.591,0.479,1.071,1.071,1.071l0,0c0.592,0,1.072-0.48,1.072-1.071v-38.986
			c0-0.593-0.479-1.071-1.072-1.071l0,0c-0.591,0-1.071,0.479-1.071,1.071V304.958z"/>
		<path fill="#ABBBB9" d="M87.735,304.958c0,0.591,0.479,1.071,1.071,1.071l0,0c0.592,0,1.071-0.48,1.071-1.071v-38.986
			c0-0.593-0.479-1.071-1.071-1.071l0,0c-0.592,0-1.071,0.479-1.071,1.071V304.958z"/>
		<path fill="#ABBBB9" d="M92.259,304.958c0,0.591,0.479,1.071,1.071,1.071l0,0c0.592,0,1.072-0.48,1.072-1.071v-38.986
			c0-0.593-0.479-1.071-1.072-1.071l0,0c-0.592,0-1.071,0.479-1.071,1.071V304.958z"/>
		<path fill="#ABBBB9" d="M96.782,304.958c0,0.591,0.48,1.071,1.072,1.071l0,0c0.592,0,1.071-0.48,1.071-1.071v-38.986
			c0-0.593-0.479-1.071-1.071-1.071l0,0c-0.592,0-1.072,0.479-1.072,1.071V304.958z"/>
		<path fill="#ABBBB9" d="M101.306,304.958c0,0.591,0.479,1.071,1.071,1.071l0,0c0.592,0,1.071-0.48,1.071-1.071v-38.986
			c0-0.593-0.479-1.071-1.071-1.071l0,0c-0.592,0-1.071,0.479-1.071,1.071V304.958z"/>
		<path fill="#ABBBB9" d="M105.83,304.958c0,0.591,0.479,1.071,1.071,1.071l0,0c0.592,0,1.072-0.48,1.072-1.071v-38.986
			c0-0.593-0.479-1.071-1.072-1.071l0,0c-0.592,0-1.071,0.479-1.071,1.071V304.958z"/>
		<path fill="#ABBBB9" d="M110.353,304.958c0,0.591,0.479,1.071,1.071,1.071l0,0c0.592,0,1.072-0.48,1.072-1.071v-38.986
			c0-0.593-0.479-1.071-1.072-1.071l0,0c-0.592,0-1.071,0.479-1.071,1.071V304.958z"/>
		<path fill="#ABBBB9" d="M114.877,304.958c0,0.591,0.479,1.071,1.072,1.071l0,0c0.591,0,1.071-0.48,1.071-1.071v-38.986
			c0-0.593-0.479-1.071-1.071-1.071l0,0c-0.592,0-1.072,0.479-1.072,1.071V304.958z"/>
		<path fill="#ABBBB9" d="M119.4,304.958c0,0.591,0.479,1.071,1.072,1.071l0,0c0.591,0,1.071-0.48,1.071-1.071v-38.986
			c0-0.593-0.479-1.071-1.071-1.071l0,0c-0.592,0-1.072,0.479-1.072,1.071V304.958z"/>
		<path fill="#ABBBB9" d="M123.924,304.958c0,0.591,0.48,1.071,1.072,1.071l0,0c0.592,0,1.071-0.48,1.071-1.071v-38.986
			c0-0.593-0.479-1.071-1.071-1.071l0,0c-0.592,0-1.072,0.479-1.072,1.071V304.958z"/>
	</g>
</g>
<path fill="#B3C7CE" d="M776.377,301.318c0,0.947,0.768,1.714,1.714,1.714h51.902c0.946,0,1.714-0.767,1.714-1.714v-31.709
	c0-0.945-0.768-1.713-1.714-1.713h-51.902c-0.946,0-1.714,0.768-1.714,1.713V301.318z"/>
<rect x="772.989" y="295.423" fill="#B3C7CE" width="5.16" height="4.372"/>
<rect x="829.994" y="295.423" fill="#B3C7CE" width="5.16" height="4.372"/>
<g>
	<path fill="#ABBBB9" d="M829.994,304.958c0,0.591-0.479,1.071-1.071,1.071l0,0c-0.592,0-1.071-0.48-1.071-1.071v-38.986
		c0-0.593,0.479-1.071,1.071-1.071l0,0c0.592,0,1.071,0.479,1.071,1.071V304.958z"/>
	<path fill="#ABBBB9" d="M825.47,304.958c0,0.591-0.479,1.071-1.071,1.071l0,0c-0.592,0-1.071-0.48-1.071-1.071v-38.986
		c0-0.593,0.479-1.071,1.071-1.071l0,0c0.592,0,1.071,0.479,1.071,1.071V304.958z"/>
	<path fill="#ABBBB9" d="M820.947,304.958c0,0.591-0.479,1.071-1.071,1.071l0,0c-0.593,0-1.072-0.48-1.072-1.071v-38.986
		c0-0.593,0.479-1.071,1.072-1.071l0,0c0.592,0,1.071,0.479,1.071,1.071V304.958z"/>
	<path fill="#ABBBB9" d="M816.423,304.958c0,0.591-0.48,1.071-1.071,1.071l0,0c-0.593,0-1.072-0.48-1.072-1.071v-38.986
		c0-0.593,0.479-1.071,1.072-1.071l0,0c0.591,0,1.071,0.479,1.071,1.071V304.958z"/>
	<path fill="#ABBBB9" d="M811.899,304.958c0,0.591-0.479,1.071-1.071,1.071l0,0c-0.592,0-1.071-0.48-1.071-1.071v-38.986
		c0-0.593,0.479-1.071,1.071-1.071l0,0c0.593,0,1.071,0.479,1.071,1.071V304.958z"/>
	<path fill="#ABBBB9" d="M807.375,304.958c0,0.591-0.479,1.071-1.072,1.071l0,0c-0.591,0-1.07-0.48-1.07-1.071v-38.986
		c0-0.593,0.479-1.071,1.07-1.071l0,0c0.593,0,1.072,0.479,1.072,1.071V304.958z"/>
	<path fill="#ABBBB9" d="M802.852,304.958c0,0.591-0.479,1.071-1.071,1.071l0,0c-0.592,0-1.071-0.48-1.071-1.071v-38.986
		c0-0.593,0.479-1.071,1.071-1.071l0,0c0.592,0,1.071,0.479,1.071,1.071V304.958z"/>
	<path fill="#ABBBB9" d="M798.329,304.958c0,0.591-0.479,1.071-1.072,1.071l0,0c-0.591,0-1.07-0.48-1.07-1.071v-38.986
		c0-0.593,0.479-1.071,1.07-1.071l0,0c0.593,0,1.072,0.479,1.072,1.071V304.958z"/>
	<path fill="#ABBBB9" d="M793.805,304.958c0,0.591-0.479,1.071-1.071,1.071l0,0c-0.592,0-1.071-0.48-1.071-1.071v-38.986
		c0-0.593,0.479-1.071,1.071-1.071l0,0c0.592,0,1.071,0.479,1.071,1.071V304.958z"/>
	<path fill="#ABBBB9" d="M789.282,304.958c0,0.591-0.48,1.071-1.072,1.071l0,0c-0.591,0-1.071-0.48-1.071-1.071v-38.986
		c0-0.593,0.48-1.071,1.071-1.071l0,0c0.592,0,1.072,0.479,1.072,1.071V304.958z"/>
	<path fill="#ABBBB9" d="M784.758,304.958c0,0.591-0.479,1.071-1.072,1.071l0,0c-0.592,0-1.071-0.48-1.071-1.071v-38.986
		c0-0.593,0.479-1.071,1.071-1.071l0,0c0.593,0,1.072,0.479,1.072,1.071V304.958z"/>
	<path fill="#ABBBB9" d="M780.234,304.958c0,0.591-0.479,1.071-1.072,1.071l0,0c-0.591,0-1.07-0.48-1.07-1.071v-38.986
		c0-0.593,0.479-1.071,1.07-1.071l0,0c0.593,0,1.072,0.479,1.072,1.071V304.958z"/>
</g>
<g>
	<rect x="853.808" y="236.47" fill="#BAA665" width="80.004" height="78.628"/>
	<rect x="850.558" y="233.332" fill="#BAA665" width="86.504" height="3.138"/>
	<rect x="853.808" y="236.47" fill="#9B8A57" width="80.004" height="3.136"/>
	<g>
		<rect x="892.558" y="225.1" fill="#FFFFFF" width="25.926" height="6.918"/>
		<path fill="#0D6CB3" d="M893.216,226.693c0.002-0.037,0.013-0.07,0.018-0.107h-4.212v6.746h31.268v-2.859l-25.055-1.503
			C894.049,228.898,893.146,227.881,893.216,226.693z"/>
	</g>
	<path fill="#FFFFFF" d="M928.885,232.674c0,0.363-0.294,0.658-0.657,0.658h-19.487c-0.363,0-0.657-0.295-0.657-0.658l0,0
		c0-0.361,0.294-0.656,0.657-0.656h19.487C928.591,232.018,928.885,232.312,928.885,232.674L928.885,232.674z"/>
	<g>
		<g>
			
				<rect x="869.504" y="193.665" transform="matrix(-0.9653 -0.261 0.261 -0.9653 1655.9041 632.2423)" fill="#7AB242" width="0.857" height="25.01"/>
			<circle fill="#EE6427" cx="873.867" cy="194.279" r="1.028"/>
			<circle fill="#EE6427" cx="872.813" cy="198.165" r="1.028"/>
			<circle fill="#EE6427" cx="871.76" cy="202.048" r="1.028"/>
			<circle fill="#EE6427" cx="870.706" cy="205.933" r="1.027"/>
			<circle fill="#EE6427" cx="869.652" cy="209.818" r="1.028"/>
			<circle fill="#EE6427" cx="871.759" cy="195.838" r="1.028"/>
			<circle fill="#EE6427" cx="870.705" cy="199.722" r="1.028"/>
			<circle fill="#EE6427" cx="869.651" cy="203.606" r="1.027"/>
			<circle fill="#EE6427" cx="868.598" cy="207.491" r="1.028"/>
		</g>
		<g>
			
				<rect x="862.53" y="192.586" transform="matrix(0.9875 -0.1574 0.1574 0.9875 -21.5224 138.3573)" fill="#7AB242" width="0.856" height="25.012"/>
			<circle fill="#EE6427" cx="860.321" cy="192.849" r="1.028"/>
			<circle fill="#EE6427" cx="860.952" cy="196.823" r="1.028"/>
			<circle fill="#EE6427" cx="861.583" cy="200.798" r="1.027"/>
			<circle fill="#EE6427" cx="862.215" cy="204.773" r="1.028"/>
			<circle fill="#EE6427" cx="862.845" cy="208.749" r="1.027"/>
			<circle fill="#EE6427" cx="862.25" cy="194.623" r="1.027"/>
			<circle fill="#EE6427" cx="862.881" cy="198.599" r="1.027"/>
			<circle fill="#EE6427" cx="863.512" cy="202.573" r="1.027"/>
			<circle fill="#EE6427" cx="864.144" cy="206.548" r="1.027"/>
		</g>
		<g>
			
				<rect x="865.848" y="194.544" transform="matrix(0.9997 -0.0228 0.0228 0.9997 -4.4954 19.8041)" fill="#7AB242" width="0.857" height="25.01"/>
			<circle fill="#EE6427" cx="865.296" cy="194.563" r="1.028"/>
			<circle fill="#EE6427" cx="865.39" cy="198.588" r="1.028"/>
			<circle fill="#EE6427" cx="865.486" cy="202.611" r="1.028"/>
			<circle fill="#EE6427" cx="865.581" cy="206.635" r="1.028"/>
			<circle fill="#EE6427" cx="865.675" cy="210.659" r="1.027"/>
			<circle fill="#EE6427" cx="866.971" cy="196.58" r="1.027"/>
			<circle fill="#EE6427" cx="867.065" cy="200.604" r="1.027"/>
			<circle fill="#EE6427" cx="867.16" cy="204.628" r="1.028"/>
			<circle fill="#EE6427" cx="867.256" cy="208.652" r="1.028"/>
		</g>
		<path fill="#282828" d="M862.64,231.772c0,0.721,0.584,1.304,1.304,1.304h4.566c0.72,0,1.305-0.583,1.305-1.304v-18.665
			c0-0.721-0.585-1.305-1.305-1.305h-4.566c-0.72,0-1.304,0.584-1.304,1.305V231.772z"/>
		<g>
			<path fill="#FFFFFF" d="M863.619,231.161c0,0.208,0.169,0.378,0.378,0.378l0,0c0.208,0,0.377-0.17,0.377-0.378v-16.984
				c0-0.208-0.169-0.376-0.377-0.376l0,0c-0.209,0-0.378,0.168-0.378,0.376V231.161z"/>
			<circle fill="#FFFFFF" cx="863.994" cy="213.078" r="0.38"/>
		</g>
	</g>
	<g>
		<g>
			<path fill="#FFFFFF" d="M876.263,193.166c-1.416,0.096-2.487,1.322-2.392,2.736l1.984,29.418
				c0.096,1.416,1.321,2.486,2.737,2.391l0.568-0.038l-2.331-34.545L876.263,193.166z"/>
			
				<rect x="877.996" y="193.075" transform="matrix(0.9978 -0.0665 0.0665 0.9978 -12.0496 58.8831)" fill="#272626" width="0.411" height="34.623"/>
		</g>
		<path fill="none" stroke="#FFFFFF" stroke-width="0.6148" stroke-miterlimit="10" d="M875.854,211.211l-8.034,15.611h-0.001
			c-0.08,0.143-0.151,0.292-0.214,0.445c-0.199,0.488-0.311,1.021-0.311,1.582c0,2.307,1.87,4.176,4.177,4.176h9.763"/>
	</g>
</g>
<path fill="none" stroke="#B3C7CE" stroke-width="1.6396" stroke-linecap="square" stroke-miterlimit="10" d="M839.345,297.609
	c2.499,0,4.524,2.025,4.524,4.523"/>
<line fill="none" stroke="#B3C7CE" stroke-width="1.6396" stroke-linecap="square" stroke-linejoin="round" stroke-miterlimit="10" x1="831.602" y1="297.609" x2="838.707" y2="297.609"/>
<line fill="none" stroke="#B3C7CE" stroke-width="1.6396" stroke-linejoin="round" stroke-miterlimit="10" x1="843.87" y1="302.887" x2="843.87" y2="315.098"/>
<g>
	<rect x="907.879" y="123.697" fill="#FFFFFF" width="55.021" height="74.656"/>
	
		<rect x="907.879" y="123.697" fill="none" stroke="#BAA665" stroke-width="1.6396" stroke-miterlimit="10" width="55.021" height="74.656"/>
	<g opacity="0.2">
		<polygon fill="#246CB6" points="915.799,141.166 918.202,141.166 918.202,131.812 922.003,131.812 922.003,129.424 
			911.966,129.424 911.966,131.827 915.799,131.827 		"/>
		<polygon fill="#246CB6" points="931.057,133.959 925.68,133.959 925.68,129.424 923.279,129.424 923.279,141.166 925.68,141.166 
			925.68,136.345 931.088,136.345 931.088,141.166 933.459,141.166 933.459,129.424 931.057,129.424 		"/>
		<rect x="934.732" y="129.424" fill="#246CB6" width="2.403" height="11.742"/>
		<polygon fill="#246CB6" points="948.381,141.166 948.381,129.424 945.979,129.424 945.979,136.934 940.793,129.424 
			938.407,129.424 938.407,141.166 940.808,141.166 940.808,133.656 945.995,141.166 		"/>
		<polygon fill="#246CB6" points="952.057,137.111 955.733,141.166 958.961,141.166 953.665,135.311 958.978,129.424 
			955.749,129.424 952.057,133.513 952.057,129.424 949.656,129.424 949.656,141.166 952.057,141.166 		"/>
		<g>
			<path fill="#246CB6" d="M938.059,147.916c0-0.033-0.01-0.17-0.026-0.416c-0.015-0.245-0.04-0.443-0.074-0.591
				c-0.031-0.31-0.117-0.641-0.258-0.993c-0.139-0.352-0.318-0.694-0.541-1.03c-0.219-0.336-0.487-0.647-0.798-0.933
				c-0.312-0.285-0.655-0.527-1.029-0.723c-0.132-0.064-0.266-0.133-0.395-0.197c-0.132-0.065-0.239-0.113-0.322-0.147
				c-0.015,0-0.081-0.021-0.194-0.061c-0.114-0.042-0.247-0.085-0.394-0.136c-0.147-0.047-0.291-0.09-0.43-0.122
				c-0.139-0.034-0.249-0.051-0.333-0.051h-21.111v18.135h20.989c0.031,0,0.159-0.021,0.381-0.062
				c0.221-0.039,0.398-0.079,0.527-0.109c0.689-0.166,1.286-0.439,1.795-0.823c0.508-0.384,0.926-0.819,1.254-1.302
				c0.329-0.48,0.569-0.994,0.726-1.533c0.155-0.538,0.233-1.054,0.233-1.545c0-0.556-0.096-1.154-0.283-1.791
				c-0.188-0.639-0.496-1.187-0.921-1.645c-0.033-0.032-0.068-0.072-0.109-0.123c-0.04-0.047-0.078-0.09-0.111-0.122
				c0.508-0.558,0.871-1.167,1.093-1.828C937.947,149.107,938.059,148.486,938.059,147.916z M934.071,156.203
				c-0.188,0.347-0.455,0.569-0.799,0.667c-0.063,0.019-0.15,0.042-0.258,0.077c-0.105,0.033-0.175,0.039-0.207,0.023h-16.949v-3.41
				h16.949c0.017,0,0.086,0.02,0.207,0.062c0.124,0.04,0.228,0.078,0.309,0.11c0.032,0.018,0.072,0.032,0.121,0.05
				c0.05,0.018,0.091,0.042,0.125,0.073c0.129,0.066,0.244,0.157,0.342,0.273c0.1,0.114,0.181,0.242,0.246,0.382
				c0.064,0.142,0.114,0.276,0.148,0.408c0.033,0.132,0.048,0.246,0.048,0.347C934.353,155.545,934.259,155.858,934.071,156.203z
				 M934.305,148.234c-0.034,0.131-0.084,0.268-0.148,0.405c-0.065,0.14-0.143,0.267-0.232,0.38
				c-0.09,0.115-0.193,0.205-0.309,0.271c-0.047,0.032-0.098,0.061-0.146,0.085c-0.05,0.024-0.098,0.044-0.147,0.06
				c-0.081,0.035-0.18,0.072-0.294,0.113c-0.115,0.039-0.189,0.059-0.222,0.059h-16.949v-3.409h17.023
				c0.032,0,0.091,0.018,0.172,0.048c0.081,0.033,0.155,0.06,0.219,0.074c0.198,0.049,0.367,0.141,0.503,0.271
				c0.142,0.131,0.25,0.272,0.331,0.428c0.083,0.157,0.146,0.312,0.185,0.466c0.043,0.157,0.062,0.292,0.062,0.405
				C934.353,147.988,934.338,148.104,934.305,148.234z"/>
			<rect x="939.998" y="142.541" fill="#246CB6" width="3.704" height="18.11"/>
			<path fill="#246CB6" d="M953.271,153.462h2.084v3.509h-1.202c-0.081,0-0.191-0.016-0.331-0.051
				c-0.138-0.031-0.282-0.07-0.429-0.109c-0.146-0.041-0.282-0.083-0.406-0.124c-0.122-0.04-0.207-0.067-0.258-0.085
				c-0.62-0.245-1.143-0.561-1.569-0.945c-0.426-0.383-0.768-0.801-1.029-1.25c-0.262-0.451-0.454-0.92-0.577-1.412
				c-0.123-0.49-0.184-0.965-0.184-1.423c0-0.442,0.035-0.806,0.109-1.089c0.074-0.291,0.202-0.677,0.382-1.167
				c0.032-0.067,0.06-0.128,0.084-0.185c0.025-0.059,0.052-0.102,0.087-0.135c0.148-0.311,0.347-0.609,0.602-0.896
				c0.253-0.286,0.526-0.544,0.819-0.774c0.297-0.229,0.604-0.424,0.922-0.588c0.319-0.162,0.628-0.277,0.921-0.343
				c0.065,0,0.168-0.026,0.307-0.075c0.138-0.049,0.355-0.09,0.65-0.122h1.13v-3.682h-1.154c-0.033,0-0.148,0.013-0.345,0.038
				c-0.195,0.025-0.352,0.045-0.465,0.06c-0.147,0.035-0.308,0.07-0.479,0.112c-0.173,0.041-0.324,0.078-0.453,0.111
				c-0.624,0.162-1.322,0.457-2.1,0.881c-0.776,0.426-1.513,0.996-2.207,1.705c-0.696,0.714-1.285,1.58-1.77,2.604
				c-0.48,1.021-0.729,2.22-0.746,3.595c-0.019,0.751,0.088,1.55,0.318,2.391c0.229,0.843,0.592,1.653,1.092,2.431
				c0.499,0.775,1.133,1.491,1.901,2.146c0.769,0.652,1.692,1.178,2.773,1.57c0.325,0.131,0.628,0.221,0.908,0.27
				c0.276,0.051,0.563,0.099,0.859,0.146c0.081,0.016,0.179,0.032,0.293,0.05s0.188,0.025,0.222,0.025h5.029v-10.872h-5.79V153.462z
				"/>
		</g>
	</g>
	<g>
		<rect x="911.966" y="162.494" opacity="0.2" fill="#F05335" width="5.386" height="31.781"/>
		<rect x="922.373" y="162.494" opacity="0.2" fill="#F05335" width="5.388" height="31.781"/>
		<rect x="932.779" y="162.494" opacity="0.2" fill="#F05335" width="5.386" height="31.781"/>
		<rect x="943.185" y="162.494" opacity="0.2" fill="#F05335" width="5.387" height="31.781"/>
		<rect x="953.591" y="162.494" opacity="0.2" fill="#F05335" width="5.387" height="31.781"/>
	</g>
</g>
<g opacity="0.7">
	<polygon fill="none" points="199.408,299.639 199.223,299.453 199.168,299.879 	"/>
	
		<rect x="191.435" y="298.161" transform="matrix(0.7075 0.7067 -0.7067 0.7075 268.1745 -48.691)" fill="#869392" width="2.952" height="2.953"/>
	
		<rect x="189.23" y="300.366" transform="matrix(0.7071 0.7071 -0.7071 0.7071 269.2919 -46.4425)" fill="#869392" width="2.954" height="2.953"/>
	<polygon fill="#869392" points="184.094,301.959 182.492,303.561 182.635,304.676 184.094,306.135 186.182,304.047 	"/>
	<polygon fill="#869392" points="182.938,289.656 180.841,289.656 181.89,290.705 	"/>
	<polygon fill="#869392" points="190.591,312.863 188.503,310.775 186.414,312.865 188.146,314.596 188.859,314.596 	"/>
	<polygon fill="#869392" points="180.712,289.759 180.954,291.641 181.773,290.822 	"/>
	
		<rect x="184.821" y="300.366" transform="matrix(0.7071 0.7071 -0.7071 0.7071 268.0006 -43.3251)" fill="#869392" width="2.954" height="2.953"/>
	
		<rect x="187.026" y="298.162" transform="matrix(0.7071 0.7071 -0.7071 0.7071 267.0876 -45.5292)" fill="#869392" width="2.953" height="2.953"/>
	
		<rect x="189.23" y="309.183" transform="matrix(0.707 -0.7072 0.7072 0.707 -163.8227 225.8818)" fill="#869392" width="2.954" height="2.953"/>
	<polygon fill="#869392" points="184.094,306.367 182.995,307.467 183.288,309.736 184.094,310.544 186.182,308.455 	"/>
	
		<rect x="189.23" y="295.957" transform="matrix(0.707 0.7072 -0.7072 0.707 266.2145 -47.7251)" fill="#869392" width="2.954" height="2.954"/>
	<polygon fill="#869392" points="193.268,314.596 195,312.863 192.912,310.775 190.823,312.863 192.554,314.596 193.093,314.596 	
		"/>
	
		<rect x="187.026" y="306.979" transform="matrix(0.7073 -0.7069 0.7069 0.7073 -162.8799 223.5541)" fill="#869392" width="2.953" height="2.954"/>
	
		<rect x="184.822" y="304.774" transform="matrix(0.7072 -0.707 0.707 0.7072 -161.9768 221.3908)" fill="#869392" width="2.953" height="2.954"/>
	<polygon fill="#869392" points="195.232,312.863 196.963,314.596 197.271,314.596 197.712,311.168 197.32,310.775 	"/>
	
		<rect x="193.639" y="309.183" transform="matrix(0.7069 -0.7073 0.7073 0.7069 -162.5407 229.041)" fill="#869392" width="2.953" height="2.953"/>
	<polygon fill="#869392" points="197.32,306.368 195.232,308.455 197.32,310.544 197.863,310.001 198.216,307.264 	"/>
	<polygon fill="#869392" points="193.5,314.596 196.731,314.596 195.115,312.98 	"/>
	
		<rect x="191.435" y="306.979" transform="matrix(0.7074 -0.7069 0.7069 0.7074 -161.5803 226.6293)" fill="#869392" width="2.952" height="2.954"/>
	
		<rect x="189.23" y="304.774" transform="matrix(0.7071 -0.7071 0.7071 0.7071 -160.6958 224.549)" fill="#869392" width="2.953" height="2.955"/>
	<polygon fill="#869392" points="197.739,310.963 197.829,310.267 197.436,310.66 	"/>
	
		<rect x="193.639" y="291.549" transform="matrix(0.7073 0.7069 -0.7069 0.7073 264.2676 -52.1587)" fill="#869392" width="2.953" height="2.953"/>
	
		<rect x="195.843" y="293.753" transform="matrix(-0.7072 0.707 -0.707 -0.7072 545.597 364.5036)" fill="#869392" width="2.953" height="2.954"/>
	<polygon fill="#869392" points="199.25,299.248 199.727,295.548 199.524,295.345 197.436,297.434 	"/>
	
		<rect x="187.026" y="302.57" transform="matrix(0.7073 -0.7069 0.7069 0.7073 -159.7632 222.2635)" fill="#869392" width="2.953" height="2.953"/>
	
		<rect x="191.434" y="293.754" transform="matrix(0.707 0.7072 -0.7072 0.707 265.3022 -49.9293)" fill="#869392" width="2.954" height="2.954"/>
	<polygon fill="#869392" points="199.524,295.113 199.82,294.817 200.23,291.643 199.524,290.938 197.436,293.025 	"/>
	<polygon fill="#869392" points="196.165,289.656 194.067,289.656 195.115,290.705 	"/>
	<polygon fill="#869392" points="190.591,290.822 189.427,289.656 188.092,289.656 187.579,289.656 186.414,290.822 
		188.503,292.909 	"/>
	<polygon fill="#869392" points="191.755,289.656 189.659,289.656 190.707,290.705 	"/>
	<polygon fill="#869392" points="182.017,299.881 182.465,303.355 183.979,301.843 	"/>
	<polygon fill="#869392" points="200.256,291.437 200.439,290.021 199.641,290.822 	"/>
	<polygon fill="#869392" points="200.473,289.757 200.486,289.656 198.476,289.656 199.524,290.705 	"/>
	
		<rect x="184.821" y="309.183" transform="matrix(-0.7069 -0.7074 0.7074 -0.7069 98.2384 662.0322)" fill="#869392" width="2.954" height="2.955"/>
	
		<rect x="191.435" y="302.57" transform="matrix(0.7072 -0.707 0.707 0.7072 -158.4821 225.421)" fill="#869392" width="2.953" height="2.953"/>
	
		<rect x="193.639" y="304.775" transform="matrix(-0.7069 -0.7073 0.7073 -0.7069 116.4476 660.754)" fill="#869392" width="2.953" height="2.954"/>
	
		<rect x="184.822" y="291.549" transform="matrix(0.7072 0.707 -0.707 0.7072 261.7261 -45.9165)" fill="#869392" width="2.953" height="2.953"/>
	
		<rect x="193.639" y="300.366" transform="matrix(0.7071 0.7071 -0.7071 0.7071 270.5831 -49.5599)" fill="#869392" width="2.954" height="2.953"/>
	<polygon fill="#869392" points="183.978,297.434 181.89,295.346 181.484,295.751 181.961,299.451 	"/>
	
		<rect x="182.617" y="293.753" transform="matrix(0.7069 0.7073 -0.7073 0.7069 262.7585 -43.6845)" fill="#869392" width="2.953" height="2.954"/>
	<polygon fill="#869392" points="187.347,289.656 185.25,289.656 186.298,290.705 	"/>
	
		<rect x="184.821" y="295.957" transform="matrix(0.7071 0.7071 -0.7071 0.7071 264.8828 -44.6165)" fill="#869392" width="2.954" height="2.953"/>
	
		<rect x="187.026" y="293.753" transform="matrix(0.7069 0.7073 -0.7073 0.7069 264.0505 -46.8027)" fill="#869392" width="2.953" height="2.954"/>
	
		<rect x="182.618" y="298.162" transform="matrix(0.7071 0.7071 -0.7071 0.7071 265.7957 -42.4122)" fill="#869392" width="2.953" height="2.952"/>
	<polygon fill="#869392" points="181.364,294.82 181.458,295.546 181.773,295.23 	"/>
	<polygon fill="#869392" points="182.669,304.943 182.968,307.262 183.978,306.25 	"/>
	<polygon fill="#869392" points="197.32,301.959 195.232,304.047 197.32,306.135 198.516,304.939 198.719,303.358 	"/>
	
		<rect x="189.23" y="291.549" transform="matrix(0.7073 0.7069 -0.7069 0.7073 262.9771 -49.042)" fill="#869392" width="2.953" height="2.953"/>
	<polygon fill="#869392" points="195.232,290.822 197.32,292.909 199.408,290.822 198.244,289.656 196.396,289.656 	"/>
	<polygon fill="#869392" points="195,290.822 193.835,289.656 193.093,289.656 191.987,289.656 190.823,290.822 192.911,292.909 	
		"/>
	<polygon fill="#869392" points="189.091,314.596 192.322,314.596 190.707,312.98 	"/>
	<polygon fill="#869392" points="184.683,314.596 187.914,314.596 186.298,312.98 	"/>
	<polygon fill="#869392" points="183.322,310.004 183.471,311.166 183.978,310.66 	"/>
	<polygon fill="#869392" points="184.094,310.775 183.498,311.371 183.914,314.596 184.451,314.596 186.182,312.865 	"/>
	<polygon fill="#869392" points="186.182,290.822 185.018,289.656 183.17,289.656 182.005,290.822 184.094,292.909 	"/>
	<polygon fill="#869392" points="198.243,307.057 198.481,305.206 197.436,306.252 	"/>
	<polygon fill="#869392" points="197.32,301.727 199.168,299.879 199.223,299.453 197.32,297.551 195.232,299.637 	"/>
	<polygon fill="#869392" points="199.753,295.343 199.787,295.084 199.64,295.23 	"/>
	<polygon fill="#869392" points="198.746,303.152 199.134,300.145 197.436,301.843 	"/>
	<polygon fill="#869392" points="181.89,295.115 183.978,293.025 181.89,290.938 180.98,291.846 181.33,294.555 	"/>
	
		<rect x="193.639" y="295.957" transform="matrix(0.707 0.7072 -0.7072 0.707 267.506 -50.8427)" fill="#869392" width="2.954" height="2.953"/>
	<polygon fill="#EAF1F4" points="199.408,290.822 199.524,290.705 198.476,289.656 198.244,289.656 	"/>
	<polygon fill="#EAF1F4" points="199.524,290.938 200.23,291.643 200.256,291.437 199.641,290.822 	"/>
	<polygon fill="#EAF1F4" points="199.524,295.345 199.727,295.548 199.753,295.343 199.64,295.23 	"/>
	
		<rect x="198.339" y="292.651" transform="matrix(-0.7041 0.7101 -0.7101 -0.7041 546.9873 360.3445)" fill="#EAF1F4" width="0.165" height="2.953"/>
	
		<rect x="196.136" y="290.448" transform="matrix(-0.7056 0.7086 -0.7086 -0.7056 541.5281 358.8712)" fill="#EAF1F4" width="0.164" height="2.952"/>
	<polygon fill="#EAF1F4" points="194.067,289.656 193.835,289.656 195,290.822 195.115,290.705 	"/>
	
		<rect x="192.536" y="294.046" transform="matrix(0.7068 0.7074 -0.7074 0.7068 264.9667 -51.0067)" fill="#EAF1F4" width="2.954" height="0.164"/>
	<polygon fill="#EAF1F4" points="189.659,289.656 189.427,289.656 190.591,290.822 190.707,290.705 	"/>
	
		<rect x="190.333" y="291.842" transform="matrix(0.7074 0.7069 -0.7069 0.7074 262.4805 -50.1518)" fill="#EAF1F4" width="2.952" height="0.164"/>
	
		<rect x="196.136" y="294.856" transform="matrix(-0.7101 0.7041 -0.7041 -0.7101 544.2013 368.5924)" fill="#EAF1F4" width="0.164" height="2.953"/>
	<polygon fill="#EAF1F4" points="199.223,299.453 199.25,299.248 197.436,297.434 197.32,297.551 	"/>
	
		<rect x="185.924" y="291.842" transform="matrix(0.7074 0.7068 -0.7068 0.7074 261.1508 -47.0444)" fill="#EAF1F4" width="2.953" height="0.163"/>
	
		<rect x="192.537" y="298.454" transform="matrix(0.7071 0.7071 -0.7071 0.7071 267.9221 -49.7488)" fill="#EAF1F4" width="2.953" height="0.165"/>
	
		<rect x="196.136" y="299.263" transform="matrix(-0.7071 0.7071 -0.7071 -0.7071 547.6202 374.6478)" fill="#EAF1F4" width="0.164" height="2.954"/>
	<polygon fill="#EAF1F4" points="185.25,289.656 185.018,289.656 186.182,290.822 186.298,290.705 	"/>
	
		<rect x="190.333" y="296.25" transform="matrix(0.7072 0.707 -0.707 0.7072 265.6772 -48.8446)" fill="#EAF1F4" width="2.953" height="0.163"/>
	<polygon fill="#EAF1F4" points="197.32,301.959 198.719,303.358 198.746,303.152 197.436,301.843 	"/>
	
		<rect x="188.128" y="294.046" transform="matrix(0.7069 0.7074 -0.7074 0.7069 263.6342 -47.8968)" fill="#EAF1F4" width="2.954" height="0.164"/>
	
		<rect x="188.128" y="298.455" transform="matrix(0.7068 0.7074 -0.7074 0.7068 266.7929 -46.5952)" fill="#EAF1F4" width="2.954" height="0.165"/>
	
		<rect x="185.924" y="296.25" transform="matrix(0.7073 0.7069 -0.7069 0.7073 264.3464 -45.7366)" fill="#EAF1F4" width="2.953" height="0.163"/>
	
		<rect x="183.719" y="294.046" transform="matrix(0.7068 0.7074 -0.7074 0.7068 262.3813 -44.7691)" fill="#EAF1F4" width="2.954" height="0.164"/>
	
		<rect x="181.516" y="291.842" transform="matrix(0.7074 0.7068 -0.7068 0.7074 259.861 -43.9285)" fill="#EAF1F4" width="2.953" height="0.163"/>
	<polygon fill="#EAF1F4" points="197.32,306.368 198.216,307.264 198.243,307.057 197.436,306.252 	"/>
	
		<rect x="192.536" y="302.863" transform="matrix(0.7069 0.7073 -0.7073 0.7069 271.122 -48.4394)" fill="#EAF1F4" width="2.953" height="0.164"/>
	
		<rect x="190.332" y="300.658" transform="matrix(0.7072 0.707 -0.707 0.7072 268.7943 -47.5535)" fill="#EAF1F4" width="2.953" height="0.164"/>
	<polygon fill="#EAF1F4" points="181.89,290.705 180.841,289.656 180.699,289.656 180.712,289.759 181.773,290.822 	"/>
	
		<rect x="194.74" y="305.066" transform="matrix(-0.7069 -0.7073 0.7073 -0.7069 119.1089 659.6497)" fill="#EAF1F4" width="2.955" height="0.165"/>
	
		<rect x="185.924" y="300.658" transform="matrix(0.7073 0.7069 -0.7069 0.7073 267.463 -44.446)" fill="#EAF1F4" width="2.953" height="0.164"/>
	
		<rect x="183.719" y="298.455" transform="matrix(0.7068 0.7074 -0.7074 0.7068 265.5002 -43.4764)" fill="#EAF1F4" width="2.954" height="0.165"/>
	
		<rect x="191.727" y="303.672" transform="matrix(0.7101 -0.7041 0.7041 0.7101 -159.2523 223.5237)" fill="#EAF1F4" width="0.164" height="2.955"/>
	
		<rect x="188.128" y="302.863" transform="matrix(0.7069 0.7073 -0.7073 0.7069 269.83 -45.3214)" fill="#EAF1F4" width="2.953" height="0.164"/>
	<polygon fill="#EAF1F4" points="181.89,295.115 181.33,294.555 181.364,294.82 181.773,295.23 	"/>
	
		<rect x="193.931" y="305.877" transform="matrix(0.7071 -0.7071 0.7071 0.7071 -160.5065 227.21)" fill="#EAF1F4" width="0.164" height="2.952"/>
	<polygon fill="#EAF1F4" points="197.32,310.775 197.712,311.168 197.739,310.963 197.436,310.66 	"/>
	
		<rect x="194.741" y="309.475" transform="matrix(-0.707 -0.7072 0.7072 -0.707 116.0322 667.1853)" fill="#EAF1F4" width="2.954" height="0.164"/>
	
		<rect x="181.515" y="296.25" transform="matrix(0.7073 0.7069 -0.7069 0.7073 263.0562 -42.6199)" fill="#EAF1F4" width="2.953" height="0.163"/>
	
		<rect x="187.319" y="303.672" transform="matrix(0.7086 -0.7056 0.7056 0.7086 -160.7074 221.1519)" fill="#EAF1F4" width="0.163" height="2.953"/>
	
		<rect x="193.932" y="310.285" transform="matrix(0.7086 -0.7056 0.7056 0.7086 -163.4468 227.7452)" fill="#EAF1F4" width="0.163" height="2.953"/>
	
		<rect x="183.719" y="302.863" transform="matrix(0.707 0.7072 -0.7072 0.707 268.4978 -42.2132)" fill="#EAF1F4" width="2.954" height="0.164"/>
	<polygon fill="#EAF1F4" points="195.115,312.98 196.731,314.596 196.963,314.596 195.232,312.863 	"/>
	
		<rect x="189.523" y="305.876" transform="matrix(0.7026 -0.7115 0.7115 0.7026 -162.3137 226.3041)" fill="#EAF1F4" width="0.165" height="2.953"/>
	
		<rect x="191.727" y="308.081" transform="matrix(0.7056 -0.7086 0.7086 0.7056 -162.8852 227.0434)" fill="#EAF1F4" width="0.164" height="2.954"/>
	<polygon fill="#EAF1F4" points="183.979,301.843 184.094,301.727 182.006,299.637 181.988,299.657 182.017,299.881 	"/>
	
		<rect x="189.523" y="310.285" transform="matrix(0.7086 -0.7056 0.7056 0.7086 -164.7315 224.6344)" fill="#EAF1F4" width="0.163" height="2.953"/>
	
		<rect x="187.318" y="308.08" transform="matrix(0.7071 -0.7071 0.7071 0.7071 -164.0019 223.1796)" fill="#EAF1F4" width="0.164" height="2.954"/>
	
		<rect x="185.114" y="305.876" transform="matrix(0.7026 -0.7115 0.7115 0.7026 -163.6248 223.167)" fill="#EAF1F4" width="0.165" height="2.953"/>
	<polygon fill="#EAF1F4" points="184.094,306.135 182.635,304.676 182.669,304.943 183.978,306.25 	"/>
	<polygon fill="#EAF1F4" points="190.823,312.863 190.707,312.98 192.322,314.596 192.554,314.596 	"/>
	<polygon fill="#EAF1F4" points="188.146,314.596 186.414,312.865 186.298,312.98 187.914,314.596 188.092,314.596 	"/>
	
		<rect x="185.114" y="310.286" transform="matrix(0.7086 -0.7056 0.7056 0.7086 -166.0168 221.5238)" fill="#EAF1F4" width="0.163" height="2.954"/>
	<polygon fill="#EAF1F4" points="184.094,310.544 183.288,309.736 183.322,310.004 183.978,310.66 	"/>
	<polygon fill="#EAF1F4" points="182.005,290.822 183.17,289.656 182.938,289.656 181.89,290.705 	"/>
	<polygon fill="#EAF1F4" points="181.89,290.938 181.773,290.822 180.954,291.641 180.98,291.846 	"/>
	
		<rect x="181.807" y="290.739" transform="matrix(0.7041 -0.7101 0.7101 0.7041 -152.6868 215.1942)" fill="#EAF1F4" width="0.165" height="0.164"/>
	
		<rect x="185.114" y="290.447" transform="matrix(0.7101 0.7041 -0.7041 0.7101 259.2395 -45.7666)" fill="#EAF1F4" width="0.164" height="2.952"/>
	<polygon fill="#EAF1F4" points="186.414,290.822 187.579,289.656 187.347,289.656 186.298,290.705 	"/>
	
		<rect x="182.91" y="292.651" transform="matrix(0.7086 0.7056 -0.7056 0.7086 260.8698 -43.4106)" fill="#EAF1F4" width="0.165" height="2.954"/>
	<polygon fill="#EAF1F4" points="181.89,295.346 181.773,295.23 181.458,295.546 181.484,295.751 	"/>
	
		<rect x="186.216" y="290.74" transform="matrix(0.7026 0.7115 -0.7115 0.7026 262.3282 -46.0813)" fill="#EAF1F4" width="0.165" height="0.165"/>
	
		<rect x="184.012" y="292.943" transform="matrix(0.7056 0.7086 -0.7086 0.7056 261.8301 -44.1859)" fill="#EAF1F4" width="0.164" height="0.165"/>
	
		<rect x="181.808" y="295.149" transform="matrix(-0.7086 0.7056 -0.7056 -0.7086 519.0944 376.0876)" fill="#EAF1F4" width="0.163" height="0.163"/>
	
		<rect x="187.318" y="292.651" transform="matrix(0.7071 0.7071 -0.7071 0.7071 262.8685 -46.3639)" fill="#EAF1F4" width="0.164" height="2.955"/>
	
		<rect x="189.523" y="290.447" transform="matrix(0.7086 0.7056 -0.7056 0.7086 261.2349 -48.7206)" fill="#EAF1F4" width="0.163" height="2.952"/>
	
		<rect x="185.115" y="294.855" transform="matrix(0.7116 0.7026 -0.7026 0.7116 261.6104 -44.6535)" fill="#EAF1F4" width="0.163" height="2.953"/>
	<polygon fill="#EAF1F4" points="190.823,290.822 191.987,289.656 191.755,289.656 190.707,290.705 	"/>
	<polygon fill="#EAF1F4" points="182.006,299.637 184.094,297.551 183.978,297.434 181.961,299.451 181.982,299.615 	"/>
	
		<rect x="190.624" y="290.74" transform="matrix(0.7041 0.7101 -0.7101 0.7041 262.9232 -49.371)" fill="#EAF1F4" width="0.165" height="0.165"/>
	
		<rect x="188.421" y="292.943" transform="matrix(0.7056 0.7086 -0.7086 0.7056 263.1281 -47.31)" fill="#EAF1F4" width="0.164" height="0.164"/>
	
		<rect x="186.216" y="295.149" transform="matrix(0.7101 0.7041 -0.7041 0.7101 261.8876 -45.5836)" fill="#EAF1F4" width="0.164" height="0.163"/>
	
		<rect x="184.012" y="297.352" transform="matrix(0.7086 0.7056 -0.7056 0.7086 263.5171 -43.2263)" fill="#EAF1F4" width="0.163" height="0.164"/>
	<polygon fill="#EAF1F4" points="181.982,299.615 181.988,299.657 182.006,299.637 	"/>
	
		<rect x="191.727" y="292.651" transform="matrix(0.7056 0.7086 -0.7086 0.7056 264.883 -49.3282)" fill="#EAF1F4" width="0.164" height="2.954"/>
	
		<rect x="193.932" y="290.447" transform="matrix(0.7086 0.7056 -0.7056 0.7086 262.5195 -51.8312)" fill="#EAF1F4" width="0.163" height="2.952"/>
	
		<rect x="189.523" y="294.855" transform="matrix(0.7131 0.7011 -0.7011 0.7131 262.1575 -47.9047)" fill="#EAF1F4" width="0.163" height="2.953"/>
	<polygon fill="#EAF1F4" points="195.232,290.822 196.396,289.656 196.165,289.656 195.115,290.705 	"/>
	
		<rect x="187.318" y="297.06" transform="matrix(0.7041 0.7101 -0.7101 0.7041 267.4229 -44.7408)" fill="#EAF1F4" width="0.165" height="2.955"/>
	
		<rect x="185.114" y="299.264" transform="matrix(0.7086 0.7056 -0.7056 0.7086 266.1715 -43.0406)" fill="#EAF1F4" width="0.163" height="2.953"/>
	<polygon fill="#EAF1F4" points="184.094,301.959 183.979,301.843 182.465,303.355 182.492,303.561 	"/>
	
		<rect x="195.033" y="290.74" transform="matrix(0.7056 0.7086 -0.7086 0.7056 263.5077 -52.6458)" fill="#EAF1F4" width="0.165" height="0.165"/>
	
		<rect x="192.829" y="292.943" transform="matrix(0.7071 0.7071 -0.7071 0.7071 263.7027 -50.5838)" fill="#EAF1F4" width="0.164" height="0.164"/>
	
		<rect x="190.625" y="295.149" transform="matrix(0.7086 0.7056 -0.7056 0.7086 263.8896 -48.5345)" fill="#EAF1F4" width="0.163" height="0.164"/>
	
		<rect x="188.421" y="297.352" transform="matrix(0.7086 0.7056 -0.7056 0.7086 264.8018 -46.3373)" fill="#EAF1F4" width="0.163" height="0.164"/>
	
		<rect x="186.216" y="299.557" transform="matrix(0.7101 0.7041 -0.7041 0.7101 264.9915 -44.3056)" fill="#EAF1F4" width="0.164" height="0.163"/>
	
		<rect x="184.012" y="301.761" transform="matrix(0.7056 0.7086 -0.7086 0.7056 268.0782 -41.5905)" fill="#EAF1F4" width="0.164" height="0.164"/>
	
		<rect x="187.318" y="301.468" transform="matrix(0.7071 0.7071 -0.7071 0.7071 269.1031 -43.7816)" fill="#EAF1F4" width="0.164" height="2.954"/>
	<polygon fill="#EAF1F4" points="182.968,307.262 182.995,307.467 184.094,306.367 183.978,306.25 	"/>
	
		<rect x="183.72" y="305.067" transform="matrix(0.7071 -0.7071 0.7071 0.7071 -161.5298 220.3293)" fill="#EAF1F4" width="2.953" height="0.163"/>
	
		<rect x="194.741" y="294.046" transform="matrix(-0.7069 0.7073 -0.7073 -0.7069 542.9611 363.2796)" fill="#EAF1F4" width="2.953" height="0.164"/>
	
		<rect x="196.945" y="291.842" transform="matrix(-0.7073 0.7069 -0.7069 -0.7073 545.1332 358.1208)" fill="#EAF1F4" width="2.953" height="0.164"/>
	
		<rect x="189.523" y="299.264" transform="matrix(0.7086 0.7056 -0.7056 0.7086 267.4562 -46.1514)" fill="#EAF1F4" width="0.163" height="2.953"/>
	
		<rect x="193.932" y="294.855" transform="matrix(0.7116 0.7026 -0.7026 0.7116 264.1533 -50.8483)" fill="#EAF1F4" width="0.163" height="2.953"/>
	
		<rect x="191.726" y="297.06" transform="matrix(0.7026 0.7115 -0.7115 0.7026 269.4562 -47.7083)" fill="#EAF1F4" width="0.165" height="2.955"/>
	<polygon fill="#EAF1F4" points="199.641,290.822 200.439,290.021 200.473,289.757 199.524,290.705 	"/>
	
		<rect x="199.442" y="290.74" transform="matrix(0.7041 0.7101 -0.7101 0.7041 265.5319 -55.632)" fill="#EAF1F4" width="0.165" height="0.165"/>
	
		<rect x="197.238" y="292.943" transform="matrix(-0.7056 0.7086 -0.7086 -0.7056 544.188 359.9694)" fill="#EAF1F4" width="0.164" height="0.164"/>
	
		<rect x="195.034" y="295.149" transform="matrix(0.7116 0.7026 -0.7026 0.7116 263.7163 -51.9368)" fill="#EAF1F4" width="0.164" height="0.163"/>
	
		<rect x="192.83" y="297.352" transform="matrix(0.7101 0.7041 -0.7041 0.7101 265.3561 -49.6014)" fill="#EAF1F4" width="0.164" height="0.163"/>
	
		<rect x="190.625" y="299.557" transform="matrix(0.7101 0.7041 -0.7041 0.7101 266.2696 -47.4099)" fill="#EAF1F4" width="0.164" height="0.163"/>
	
		<rect x="188.421" y="301.761" transform="matrix(0.7056 0.7086 -0.7086 0.7056 269.376 -44.7144)" fill="#EAF1F4" width="0.164" height="0.164"/>
	
		<rect x="186.217" y="303.965" transform="matrix(0.7101 -0.7041 0.7041 0.7101 -160.0737 219.3239)" fill="#EAF1F4" width="0.164" height="0.164"/>
	
		<rect x="184.012" y="306.168" transform="matrix(0.7116 -0.7026 0.7026 0.7116 -162.0797 217.685)" fill="#EAF1F4" width="0.164" height="0.165"/>
	<polygon fill="#EAF1F4" points="199.787,295.084 199.82,294.817 199.524,295.113 199.64,295.23 	"/>
	<polygon fill="#EAF1F4" points="183.978,310.66 183.471,311.166 183.498,311.371 184.094,310.775 	"/>
	
		<rect x="188.128" y="305.067" transform="matrix(0.707 -0.7072 0.7072 0.707 -160.2482 223.4874)" fill="#EAF1F4" width="2.952" height="0.163"/>
	
		<rect x="194.742" y="298.453" transform="matrix(-0.7074 0.7068 -0.7068 -0.7074 546.027 371.0482)" fill="#EAF1F4" width="2.951" height="0.165"/>
	
		<rect x="191.727" y="301.468" transform="matrix(0.7056 0.7086 -0.7086 0.7056 271.1305 -46.7325)" fill="#EAF1F4" width="0.164" height="2.954"/>
	
		<rect x="193.931" y="299.263" transform="matrix(0.7026 0.7115 -0.7115 0.7026 271.6793 -48.6217)" fill="#EAF1F4" width="0.165" height="2.954"/>
	
		<rect x="185.114" y="308.081" transform="matrix(0.7056 0.7086 -0.7086 0.7056 273.8693 -40.1002)" fill="#EAF1F4" width="0.164" height="2.953"/>
	
		<rect x="196.945" y="296.251" transform="matrix(-0.7071 0.7071 -0.7071 -0.7071 548.2657 365.565)" fill="#EAF1F4" width="2.954" height="0.163"/>
	
		<rect x="185.923" y="307.271" transform="matrix(0.7069 -0.7073 0.7073 0.7069 -162.4626 222.6153)" fill="#EAF1F4" width="2.955" height="0.164"/>
	
		<rect x="199.443" y="295.147" transform="matrix(-0.7116 0.7026 -0.7026 -0.7116 548.9298 365.1293)" fill="#EAF1F4" width="0.163" height="0.165"/>
	
		<rect x="197.237" y="297.353" transform="matrix(-0.7026 0.7115 -0.7115 -0.7026 547.6023 366.0247)" fill="#EAF1F4" width="0.165" height="0.163"/>
	
		<rect x="195.034" y="299.555" transform="matrix(0.7116 0.7026 -0.7026 0.7116 266.8123 -50.6659)" fill="#EAF1F4" width="0.164" height="0.163"/>
	
		<rect x="192.829" y="301.761" transform="matrix(0.7071 0.7071 -0.7071 0.7071 269.9375 -48.0012)" fill="#EAF1F4" width="0.164" height="0.164"/>
	
		<rect x="190.625" y="303.965" transform="matrix(0.7101 -0.7041 0.7041 0.7101 -158.7957 222.4277)" fill="#EAF1F4" width="0.164" height="0.164"/>
	
		<rect x="188.421" y="306.168" transform="matrix(0.7101 -0.7041 0.7041 0.7101 -160.9865 221.5152)" fill="#EAF1F4" width="0.164" height="0.165"/>
	
		<rect x="186.216" y="308.374" transform="matrix(0.7086 -0.7056 0.7056 0.7086 -163.3622 221.3376)" fill="#EAF1F4" width="0.163" height="0.164"/>
	
		<rect x="184.012" y="310.578" transform="matrix(0.7086 -0.7056 0.7056 0.7086 -165.5612 220.4312)" fill="#EAF1F4" width="0.165" height="0.164"/>
	
		<rect x="194.741" y="302.863" transform="matrix(-0.7072 0.707 -0.707 -0.7072 549.1707 378.4533)" fill="#EAF1F4" width="2.953" height="0.164"/>
	
		<rect x="185.923" y="311.681" transform="matrix(0.7069 -0.7073 0.7073 0.7069 -165.5817 223.9079)" fill="#EAF1F4" width="2.955" height="0.163"/>
	
		<rect x="192.537" y="305.067" transform="matrix(0.7072 -0.707 0.707 0.7072 -158.9388 226.5231)" fill="#EAF1F4" width="2.953" height="0.165"/>
	<polygon fill="#EAF1F4" points="199.134,300.145 199.168,299.879 197.32,301.727 197.436,301.843 	"/>
	
		<rect x="190.332" y="307.272" transform="matrix(0.707 -0.7072 0.7072 0.707 -161.1617 225.6925)" fill="#EAF1F4" width="2.954" height="0.163"/>
	
		<rect x="188.128" y="309.476" transform="matrix(0.707 -0.7072 0.7072 0.707 -163.3662 224.7796)" fill="#EAF1F4" width="2.954" height="0.164"/>
	<polygon fill="#EAF1F4" points="186.182,312.865 184.451,314.596 184.683,314.596 186.298,312.98 	"/>
	
		<rect x="197.238" y="301.761" transform="matrix(-0.7056 0.7086 -0.7086 -0.7056 550.4367 375.0081)" fill="#EAF1F4" width="0.164" height="0.164"/>
	
		<rect x="195.034" y="303.965" transform="matrix(-0.7086 -0.7056 0.7056 -0.7086 118.8361 657.1702)" fill="#EAF1F4" width="0.163" height="0.164"/>
	
		<rect x="192.829" y="306.169" transform="matrix(0.7026 -0.7115 0.7115 0.7026 -160.5472 228.3292)" fill="#EAF1F4" width="0.165" height="0.164"/>
	
		<rect x="190.626" y="308.374" transform="matrix(0.7116 -0.7026 0.7026 0.7116 -161.7171 222.9485)" fill="#EAF1F4" width="0.163" height="0.164"/>
	
		<rect x="188.421" y="310.578" transform="matrix(0.7056 -0.7086 0.7086 0.7056 -164.6394 225.0251)" fill="#EAF1F4" width="0.164" height="0.163"/>
	
		<rect x="186.216" y="312.784" transform="matrix(-0.7101 -0.7041 0.7041 -0.7101 98.2917 666.2015)" fill="#EAF1F4" width="0.164" height="0.163"/>
	
		<rect x="196.136" y="305.878" transform="matrix(-0.7145 -0.6996 0.6996 -0.7145 121.4001 664.2444)" fill="#EAF1F4" width="0.163" height="2.952"/>
	
		<rect x="190.333" y="311.68" transform="matrix(0.7072 -0.707 0.707 0.7072 -164.2593 226.9008)" fill="#EAF1F4" width="2.953" height="0.163"/>
	
		<rect x="192.537" y="309.476" transform="matrix(0.7069 -0.7073 0.7073 0.7069 -162.0842 227.9388)" fill="#EAF1F4" width="2.953" height="0.164"/>
	<polygon fill="#EAF1F4" points="197.32,306.135 197.436,306.252 198.481,305.206 198.516,304.939 	"/>
	<polygon fill="#EAF1F4" points="190.591,312.863 188.859,314.596 189.091,314.596 190.707,312.98 	"/>
	
		<rect x="197.237" y="306.169" transform="matrix(0.7026 -0.7115 0.7115 0.7026 -159.2362 231.4661)" fill="#EAF1F4" width="0.165" height="0.164"/>
	
		<rect x="195.034" y="308.373" transform="matrix(-0.7056 -0.7086 0.7086 -0.7056 114.2233 664.3639)" fill="#EAF1F4" width="0.164" height="0.165"/>
	
		<rect x="192.829" y="310.578" transform="matrix(0.7071 -0.7071 0.7071 0.7071 -163.1671 227.3992)" fill="#EAF1F4" width="0.164" height="0.164"/>
	
		<rect x="190.625" y="312.781" transform="matrix(0.7086 0.7056 -0.7056 0.7086 276.3315 -43.3963)" fill="#EAF1F4" width="0.163" height="0.164"/>
	
		<rect x="196.136" y="310.285" transform="matrix(-0.7116 -0.7026 0.7026 -0.7116 116.7856 671.4661)" fill="#EAF1F4" width="0.164" height="2.953"/>
	<polygon fill="#EAF1F4" points="195,312.863 193.268,314.596 193.5,314.596 195.115,312.98 	"/>
	<polygon fill="#EAF1F4" points="197.32,310.544 197.436,310.66 197.829,310.267 197.863,310.001 	"/>
	
		<rect x="197.238" y="310.578" transform="matrix(-0.7086 0.7056 -0.7056 -0.7086 556.3453 391.5622)" fill="#EAF1F4" width="0.163" height="0.164"/>
	
		<rect x="195.034" y="312.782" transform="matrix(0.7116 0.7026 -0.7026 0.7116 276.1056 -46.8508)" fill="#EAF1F4" width="0.164" height="0.163"/>
</g>
</svg>
