<?xml version="1.0" encoding="utf-8"?>
<!-- Generator: Adobe Illustrator 16.0.0, SVG Export Plug-In . SVG Version: 6.00 Build 0)  -->
<!DOCTYPE svg PUBLIC "-//W3C//DTD SVG 1.1//EN" "http://www.w3.org/Graphics/SVG/1.1/DTD/svg11.dtd">
<svg version="1.1" id="Layer_1" xmlns="http://www.w3.org/2000/svg" xmlns:xlink="http://www.w3.org/1999/xlink" x="0px" y="0px"
	 width="1054.598px" height="315.707px" viewBox="0 0 1054.598 315.707" enable-background="new 0 0 1054.598 315.707"
	 xml:space="preserve">
<g>
	<path fill="#FFFFFF" d="M23.598,27.085v288.317H1031V27.085H23.598z M1012.442,315.13H42.157V50.343h970.285V315.13
		L1012.442,315.13z"/>
</g>
<g>
	<polygon fill="#DC4A29" points="57.284,34.426 0,34.426 19.094,-0.006 57.284,-0.006 	"/>
	<polygon fill="#DC4A29" points="997.315,34.426 1054.598,34.426 1035.502,-0.006 997.315,-0.006 	"/>
	<rect x="49.817" y="-0.006" fill="#DC4A29" width="964.033" height="34.432"/>
</g>
<g>
	<rect x="42.157" y="114.746" fill="#B75F0F" width="67.086" height="200.967"/>
	<circle fill="#B5D6DB" cx="75.7" cy="151.897" r="2.501"/>
	<g>
		<circle fill="#B5D6DB" cx="98.099" cy="214.55" r="3.67"/>
		
			<line fill="none" stroke="#8A9C9F" stroke-width="2.0807" stroke-linecap="round" stroke-linejoin="round" stroke-miterlimit="10" x1="83.924" y1="214.55" x2="98.319" y2="214.55"/>
	</g>
</g>
<g>
	<g>
		<rect x="703.583" y="231.704" display="none" fill="#202E42" width="7.755" height="9.933"/>
		<rect x="675.832" y="231.704" display="none" fill="#202E42" width="7.754" height="9.933"/>
		<g display="none">
			<g display="inline">
				<path fill="#2C313A" d="M633.542,314.506c0.638-1.9,1.24-2.113,5.354-2.312l2.998-0.955c1.681-0.414,3.158-1.34,4.259-2.604
					c0.247-0.287,0.474-0.59,0.681-0.906c1.898,0.139,1.626,1.865,1.626,1.865h5.351v0.723v1.006v1.008v2.176v0.957v0.572h-5.891
					v-0.572v-0.953l-2.615,1.525h-12.013C633.292,315.5,633.381,314.986,633.542,314.506z"/>
				<rect x="644.876" y="258.248" fill="#202E42" width="8.935" height="51.643"/>
			</g>
			<path display="inline" fill="#1F2328" d="M644.967,314.506c0.639-1.9,1.24-2.113,5.355-2.312l2.997-0.955
				c1.681-0.414,3.159-1.34,4.26-2.604c0.246-0.287,0.474-0.59,0.68-0.906c1.898,0.139,1.627,1.865,1.627,1.865h5.35v0.723v1.006
				v1.008v2.176v0.957v0.572h-5.89v-0.572v-0.953l-2.616,1.525h-12.013C644.717,315.5,644.806,314.986,644.967,314.506z"/>
			<rect x="656.301" y="258.248" display="inline" fill="#202E42" width="8.935" height="51.643"/>
			<rect x="644.876" y="254.301" display="inline" fill="#202E42" width="50.851" height="8.932"/>
			<path display="inline" fill="#202E42" d="M681.336,254.967c0,4.566,3.702,8.266,8.268,8.266h6.257
				c4.567,0,8.268-3.699,8.268-8.266v-6.258c0-4.567-3.7-8.269-8.268-8.269h-6.257c-4.565,0-8.268,3.701-8.268,8.269V254.967z"/>
		</g>
		<g display="none">
			<path display="inline" fill="#F9B69B" d="M665.957,238.851L665.957,238.851l-2.389,0.001l0,0v6.902h-3.279h-4.326
				c-0.002,0-0.004,0-0.007,0s-0.005,0-0.008,0h-0.334v-0.033c-1.743-0.174-3.111-1.628-3.111-3.418
				c0-1.791,1.368-3.245,3.111-3.417v-0.035h0.334c0.003,0,0.005,0,0.008,0s0.005,0,0.007,0h3.542
				c-0.003-0.033-0.011-0.065-0.011-0.101c0-0.679,0.551-1.229,1.229-1.229s1.23,0.551,1.23,1.229c0,0.035-0.007,0.067-0.011,0.101
				h3.022H665.957z"/>
			<rect x="663.568" y="238.852" display="inline" fill="#FFFFFF" width="0" height="6.902"/>
			<polygon display="inline" fill="#FFFFFF" points="665.957,245.754 665.957,245.754 663.568,245.754 663.568,245.754 
				663.568,245.754 663.568,245.754 			"/>
			<polygon display="inline" fill="#FFFFFF" points="665.957,245.754 665.957,245.754 663.568,245.754 663.568,245.754 
				664.966,245.754 			"/>
			<polygon display="inline" opacity="0.3" fill="#84A8C1" points="665.957,245.754 665.957,245.754 663.568,245.754 
				663.568,245.754 664.966,245.754 			"/>
			<polygon display="inline" fill="#FFFFFF" points="665.957,244.726 665.957,245.754 664.966,245.754 663.568,245.754 
				663.568,238.852 665.957,238.852 			"/>
			<rect x="665.119" y="237.106" display="inline" fill="#202E42" width="32.478" height="9.062"/>
		</g>
		<g display="none">
			<path display="inline" fill="#F9B69B" d="M685.311,179.828l0.177-0.221h12.657v27.002l0,0v10.191h-9.658v-10.191l0,0v-0.01
				c0-2.116,0-2.116,0-2.646c0-1.236-1.41-1.411-1.41-1.411h-2.956v-11.644h-3.75L685.311,179.828z"/>
			<circle display="inline" fill="#2E3D49" cx="687.13" cy="184.008" r="0.519"/>
			<path display="inline" fill="#CE857C" d="M685.887,193.83c0.198,0,0.36-0.161,0.36-0.36h0.529c0,0.49-0.398,0.889-0.89,0.889
				h-1.767v-0.528H685.887z"/>
			<path display="inline" fill="none" d="M691.715,184.68c0,0.013-0.004,0.024-0.004,0.038v-0.038H691.715z"/>
			<g display="inline">
				<rect x="681.4" y="249.523" fill="#9B390D" width="22.759" height="2.008"/>
				<polygon fill="#202E42" points="683.638,251.531 683.638,249.523 684.657,249.523 684.657,251.531 698.275,251.531 
					698.275,249.523 699.297,249.523 699.297,251.531 704.159,251.531 704.159,254.301 681.4,254.301 681.4,251.531 				"/>
			</g>
			<polygon display="inline" fill="#FFFFFF" points="688.486,206.609 688.493,204.128 690.666,204.128 692.527,204.128 
				694.562,204.128 696.354,204.128 698.145,204.128 698.145,206.609 698.188,206.609 698.188,249.523 688.478,249.523 
				688.478,206.609 			"/>
			<path display="inline" opacity="0.3" fill="#84A8C1" d="M690.35,226.015c0,0.75-0.608,1.357-1.358,1.357h-5.318
				c-0.75,0-1.358-0.607-1.358-1.357v-7.095h8.035V226.015z"/>
			<polygon display="inline" fill="#BF2E2E" points="690.88,206.819 692.977,204.128 695.072,206.819 693.923,207.969 
				694.905,242.552 694.905,242.552 692.98,244.476 691.056,242.552 691.049,242.552 692.03,207.969 			"/>
			<path display="inline" fill="#303235" d="M684.295,173.755c1.509,0,2.733,1.223,2.733,2.734c0,0.176-0.021,0.35-0.054,0.516
				h11.805v15.129c0,0,0,0-1.367,0c-4.146,0-3.925-3.926-3.925-3.926v-1.717c0.04,0.002,0.077,0.012,0.117,0.012
				c0.962,0,1.741-0.78,1.741-1.742s-0.779-1.741-1.741-1.741c-0.494,0-0.937,0.206-1.256,0.538v1.123v1.285v0.537h-1.856v-4.47
				c-0.631,0-1.562,0-2.96,0c-3.838,0-5.297-3.14-5.741-4.453c-0.146-0.334-0.229-0.704-0.229-1.091
				C681.562,174.978,682.785,173.755,684.295,173.755z"/>
			<polygon display="inline" fill="#344E68" points="686.518,206.598 685.822,209.058 687.03,210.592 685.454,212.167 
				688.478,234.353 688.478,212.431 688.478,210.324 688.478,206.598 			"/>
			<g display="inline">
				<path fill="#202E42" d="M700.104,206.598h5.538c3.146,0,5.696,2.548,5.696,5.694v0.012v4.162v0.012v16.525h-7.179v0.012v16.509
					v4.777h-0.564h-5.406v-4.777v-42.914v-0.012H700.104z"/>
				<path fill="#202E42" d="M681.523,206.609h5.539h1.415v42.914v4.777h-5.404H681.4v-4.777v-16.521h-5.568v-6.707v-5.926v-8.066
					C675.832,209.159,678.38,206.609,681.523,206.609z"/>
				<polygon fill="#344E68" points="700.104,206.598 700.801,209.058 699.592,210.592 701.168,212.167 698.145,234.353 
					698.145,212.431 698.145,210.324 698.145,206.598 				"/>
				<polygon fill="#344E68" points="686.518,206.598 685.822,209.058 687.03,210.592 685.454,212.167 688.478,234.353 
					688.478,212.431 688.478,210.324 688.478,206.598 				"/>
			</g>
		</g>
		<g display="none">
			<path display="inline" fill="#F9B69B" d="M687.647,237.065L687.647,237.065l-2.388,0.001h-0.001v6.902h-3.278h-4.326
				c-0.004,0-0.005,0.001-0.009,0.001c-0.003,0-0.005-0.001-0.007-0.001h-0.335v-0.034c-1.743-0.174-3.11-1.628-3.11-3.418
				c0-1.791,1.367-3.244,3.11-3.418v-0.033h0.335c0.002,0,0.004-0.001,0.007-0.001c0.004,0,0.005,0.001,0.009,0.001h3.543
				c-0.005-0.034-0.012-0.064-0.012-0.1c0-0.68,0.55-1.23,1.228-1.23c0.681,0,1.231,0.551,1.231,1.23c0,0.035-0.007,0.065-0.01,0.1
				h3.021H687.647z"/>
			<rect x="685.259" y="237.066" display="inline" fill="#FFFFFF" width="0.001" height="6.902"/>
			<polygon display="inline" fill="#FFFFFF" points="687.647,243.97 687.647,243.97 685.259,243.97 685.259,243.969 685.26,243.969 
				685.26,243.97 			"/>
			<polygon display="inline" fill="#FFFFFF" points="687.647,243.969 687.647,243.97 685.26,243.97 685.26,243.969 686.656,243.969 
							"/>
			<polygon display="inline" opacity="0.3" fill="#84A8C1" points="687.647,243.969 687.647,243.97 685.26,243.97 685.26,243.969 
				686.656,243.969 			"/>
			<polygon display="inline" fill="#FFFFFF" points="687.647,242.94 687.647,243.969 686.656,243.969 685.26,243.969 
				685.26,237.066 687.647,237.066 			"/>
			<rect x="686.81" y="236.946" display="inline" fill="#202E42" width="24.528" height="9.062"/>
		</g>
		<g>
			<g>
				<rect x="698.399" y="247.203" fill="#5E5E5E" width="2.26" height="16.969"/>
				<circle fill="#5E5E5E" cx="699.534" cy="264.17" r="1.135"/>
			</g>
			<path fill="#D39822" d="M716.192,248.127c0,1.346-1.091,2.438-2.437,2.438h-44.205c-1.345,0-2.436-1.092-2.436-2.438l0,0
				c0-1.346,1.091-2.436,2.436-2.436h44.205C715.102,245.691,716.192,246.781,716.192,248.127L716.192,248.127z"/>
		</g>
	</g>
</g>
</svg>
