<?xml version="1.0" encoding="utf-8"?>
<!-- Generator: Adobe Illustrator 16.0.0, SVG Export Plug-In . SVG Version: 6.00 Build 0)  -->
<!DOCTYPE svg PUBLIC "-//W3C//DTD SVG 1.1//EN" "http://www.w3.org/Graphics/SVG/1.1/DTD/svg11.dtd">
<svg version="1.1" id="Layer_1" xmlns="http://www.w3.org/2000/svg" xmlns:xlink="http://www.w3.org/1999/xlink" x="0px" y="0px"
	 width="1054.598px" height="315.707px" viewBox="0 0 1054.598 315.707" enable-background="new 0 0 1054.598 315.707"
	 xml:space="preserve">
<g>
	<path fill="#FFFFFF" d="M23.598,27.085v288.317H1031V27.085H23.598z M1012.442,315.13H42.157V50.343h970.285V315.13
		L1012.442,315.13z"/>
</g>
<g>
	<polygon fill="#DC4A29" points="57.284,34.426 0,34.426 19.094,-0.006 57.284,-0.006 	"/>
	<polygon fill="#DC4A29" points="997.315,34.426 1054.598,34.426 1035.502,-0.006 997.315,-0.006 	"/>
	<rect x="49.817" y="-0.006" fill="#DC4A29" width="964.033" height="34.432"/>
</g>
<g>
	<rect x="42.157" y="114.746" fill="#BAA665" width="67.086" height="200.967"/>
	<circle fill="#B5D6DB" cx="75.7" cy="151.897" r="2.501"/>
	<g>
		<circle fill="#B5D6DB" cx="98.099" cy="214.55" r="3.67"/>
		
			<line fill="none" stroke="#8A9C9F" stroke-width="2.0807" stroke-linecap="round" stroke-linejoin="round" stroke-miterlimit="10" x1="83.924" y1="214.55" x2="98.319" y2="214.55"/>
	</g>
</g>
<g>
	<g>
		<rect x="698.642" y="230.458" display="none" fill="#202E42" width="7.755" height="9.932"/>
		<rect x="670.891" y="230.458" display="none" fill="#202E42" width="7.754" height="9.932"/>
		<g display="none">
			<g display="inline">
				<path fill="#2C313A" d="M628.601,313.259c0.638-1.9,1.24-2.113,5.354-2.312l2.998-0.955c1.681-0.414,3.158-1.34,4.259-2.604
					c0.247-0.287,0.474-0.59,0.681-0.906c1.898,0.139,1.626,1.865,1.626,1.865h5.351v0.723v1.006v1.008v2.176v0.957v0.572h-5.891
					v-0.572v-0.953l-2.615,1.525h-12.013C628.351,314.253,628.439,313.739,628.601,313.259z"/>
				<rect x="639.935" y="257.001" fill="#202E42" width="8.935" height="51.643"/>
			</g>
			<path display="inline" fill="#1F2328" d="M640.025,313.259c0.639-1.9,1.24-2.113,5.355-2.312l2.997-0.955
				c1.681-0.414,3.159-1.34,4.26-2.604c0.246-0.287,0.474-0.59,0.68-0.906c1.898,0.139,1.627,1.865,1.627,1.865h5.35v0.723v1.006
				v1.008v2.176v0.957v0.572h-5.89v-0.572v-0.953l-2.616,1.525h-12.013C639.775,314.253,639.864,313.739,640.025,313.259z"/>
			<rect x="651.359" y="257.001" display="inline" fill="#202E42" width="8.935" height="51.643"/>
			<rect x="639.935" y="253.054" display="inline" fill="#202E42" width="50.851" height="8.932"/>
			<path display="inline" fill="#202E42" d="M676.395,253.72c0,4.566,3.702,8.266,8.268,8.266h6.257
				c4.567,0,8.268-3.699,8.268-8.266v-6.258c0-4.567-3.7-8.268-8.268-8.268h-6.257c-4.565,0-8.268,3.7-8.268,8.268V253.72z"/>
		</g>
		<g display="none">
			<path display="inline" fill="#F9B69B" d="M661.016,237.604L661.016,237.604h-2.389l0,0v6.902h-3.279h-4.326
				c-0.002,0-0.004,0-0.007,0s-0.005,0-0.008,0h-0.334v-0.033c-1.743-0.174-3.111-1.629-3.111-3.418
				c0-1.791,1.368-3.246,3.111-3.418v-0.033h0.334c0.003,0,0.005-0.002,0.008-0.002s0.005,0.002,0.007,0.002h3.542
				c-0.003-0.035-0.011-0.066-0.011-0.102c0-0.679,0.551-1.229,1.229-1.229s1.23,0.551,1.23,1.229c0,0.035-0.007,0.066-0.011,0.102
				h3.022H661.016z"/>
			<rect x="658.627" y="237.604" display="inline" fill="#FFFFFF" width="0" height="6.902"/>
			<polygon display="inline" fill="#FFFFFF" points="661.016,244.507 661.016,244.507 658.627,244.507 658.627,244.507 
				658.627,244.507 658.627,244.507 			"/>
			<polygon display="inline" fill="#FFFFFF" points="661.016,244.507 661.016,244.507 658.627,244.507 658.627,244.507 
				660.024,244.507 			"/>
			<polygon display="inline" opacity="0.3" fill="#84A8C1" points="661.016,244.507 661.016,244.507 658.627,244.507 
				658.627,244.507 660.024,244.507 			"/>
			<polygon display="inline" fill="#FFFFFF" points="661.016,243.479 661.016,244.507 660.024,244.507 658.627,244.507 
				658.627,237.604 661.016,237.604 			"/>
			<rect x="660.178" y="235.859" display="inline" fill="#202E42" width="32.478" height="9.062"/>
		</g>
		<g display="none">
			<path display="inline" fill="#F9B69B" d="M680.369,178.581l0.177-0.221h12.657v27.002l0,0v10.191h-9.658v-10.191l0,0v-0.01
				c0-2.116,0-2.116,0-2.646c0-1.234-1.41-1.41-1.41-1.41h-2.956v-11.645h-3.75L680.369,178.581z"/>
			<circle display="inline" fill="#2E3D49" cx="682.188" cy="182.761" r="0.519"/>
			<path display="inline" fill="#CE857C" d="M680.945,192.583c0.198,0,0.36-0.161,0.36-0.359h0.529c0,0.488-0.398,0.888-0.89,0.888
				h-1.767v-0.528H680.945z"/>
			<path display="inline" fill="none" d="M686.773,183.433c0,0.014-0.004,0.025-0.004,0.038v-0.038H686.773z"/>
			<g display="inline">
				<rect x="676.459" y="248.276" fill="#9B390D" width="22.759" height="2.008"/>
				<polygon fill="#202E42" points="678.696,250.284 678.696,248.276 679.716,248.276 679.716,250.284 693.334,250.284 
					693.334,248.276 694.355,248.276 694.355,250.284 699.218,250.284 699.218,253.054 676.459,253.054 676.459,250.284 				"/>
			</g>
			<polygon display="inline" fill="#FFFFFF" points="683.545,205.362 683.552,202.882 685.725,202.882 687.586,202.882 
				689.62,202.882 691.413,202.882 693.203,202.882 693.203,205.362 693.247,205.362 693.247,248.276 683.536,248.276 
				683.536,205.362 			"/>
			<path display="inline" opacity="0.3" fill="#84A8C1" d="M685.408,224.768c0,0.751-0.608,1.358-1.358,1.358h-5.318
				c-0.75,0-1.358-0.607-1.358-1.358v-7.095h8.035V224.768z"/>
			<polygon display="inline" fill="#BF2E2E" points="685.938,205.571 688.035,202.882 690.131,205.571 688.981,206.722 
				689.964,241.304 689.964,241.304 688.039,243.229 686.114,241.304 686.107,241.304 687.089,206.722 			"/>
			<path display="inline" fill="#303235" d="M679.354,172.509c1.509,0,2.733,1.223,2.733,2.733c0,0.177-0.021,0.349-0.054,0.517
				h11.805v15.129c0,0,0,0-1.367,0c-4.146,0-3.925-3.926-3.925-3.926v-1.719c0.04,0.004,0.077,0.013,0.117,0.013
				c0.962,0,1.741-0.78,1.741-1.741c0-0.963-0.779-1.742-1.741-1.742c-0.494,0-0.937,0.207-1.256,0.537v1.124v1.286v0.536h-1.856
				v-4.47c-0.631,0-1.562,0-2.96,0c-3.838,0-5.297-3.139-5.741-4.453c-0.146-0.334-0.229-0.703-0.229-1.091
				C676.62,173.731,677.844,172.509,679.354,172.509z"/>
			<polygon display="inline" fill="#344E68" points="681.576,205.351 680.881,207.81 682.089,209.345 680.513,210.92 
				683.536,233.106 683.536,211.184 683.536,209.077 683.536,205.351 			"/>
			<g display="inline">
				<path fill="#202E42" d="M695.162,205.351h5.538c3.146,0,5.696,2.549,5.696,5.694v0.013v4.161v0.012v16.524h-7.179v0.014v16.508
					v4.777h-0.564h-5.406v-4.777v-42.914v-0.012H695.162z"/>
				<path fill="#202E42" d="M676.582,205.362h5.539h1.415v42.914v4.777h-5.404h-1.673v-4.777v-16.521h-5.568v-6.706v-5.927v-8.064
					C670.891,207.912,673.438,205.362,676.582,205.362z"/>
				<polygon fill="#344E68" points="695.162,205.351 695.859,207.81 694.65,209.345 696.227,210.92 693.203,233.106 
					693.203,211.184 693.203,209.077 693.203,205.351 				"/>
				<polygon fill="#344E68" points="681.576,205.351 680.881,207.81 682.089,209.345 680.513,210.92 683.536,233.106 
					683.536,211.184 683.536,209.077 683.536,205.351 				"/>
			</g>
		</g>
		<g display="none">
			<path display="inline" fill="#F9B69B" d="M682.706,235.818L682.706,235.818l-2.388,0.001h-0.001v6.902h-3.278h-4.326
				c-0.004,0-0.005,0-0.009,0c-0.003,0-0.005,0-0.007,0h-0.335v-0.034c-1.743-0.174-3.11-1.628-3.11-3.418s1.367-3.244,3.11-3.417
				v-0.034h0.335c0.002,0,0.004-0.001,0.007-0.001c0.004,0,0.005,0.001,0.009,0.001h3.543c-0.005-0.034-0.012-0.064-0.012-0.101
				c0-0.678,0.55-1.229,1.228-1.229c0.681,0,1.231,0.552,1.231,1.229c0,0.036-0.007,0.066-0.01,0.101h3.021H682.706z"/>
			<rect x="680.317" y="235.819" display="inline" fill="#FFFFFF" width="0.001" height="6.902"/>
			<polygon display="inline" fill="#FFFFFF" points="682.706,242.722 682.706,242.723 680.317,242.723 680.317,242.722 
				680.318,242.722 680.318,242.722 			"/>
			<polygon display="inline" fill="#FFFFFF" points="682.706,242.722 682.706,242.722 680.318,242.722 680.318,242.722 
				681.715,242.722 			"/>
			<polygon display="inline" opacity="0.3" fill="#84A8C1" points="682.706,242.722 682.706,242.722 680.318,242.722 
				680.318,242.722 681.715,242.722 			"/>
			<polygon display="inline" fill="#FFFFFF" points="682.706,241.694 682.706,242.722 681.715,242.722 680.318,242.722 
				680.318,235.819 682.706,235.819 			"/>
			<rect x="681.868" y="235.7" display="inline" fill="#202E42" width="24.528" height="9.061"/>
		</g>
		<g>
			<g>
				<rect x="693.458" y="245.956" fill="#9B9B9B" width="2.26" height="16.969"/>
				<circle fill="#9B9B9B" cx="694.593" cy="262.923" r="1.135"/>
			</g>
			<path fill="#0085BA" d="M711.251,246.88c0,1.346-1.091,2.438-2.437,2.438h-44.205c-1.345,0-2.436-1.092-2.436-2.438l0,0
				c0-1.346,1.091-2.436,2.436-2.436h44.205C710.16,244.444,711.251,245.534,711.251,246.88L711.251,246.88z"/>
		</g>
	</g>
</g>
</svg>
