<?xml version="1.0" encoding="utf-8"?>
<!-- Generator: Adobe Illustrator 16.0.0, SVG Export Plug-In . SVG Version: 6.00 Build 0)  -->
<!DOCTYPE svg PUBLIC "-//W3C//DTD SVG 1.1//EN" "http://www.w3.org/Graphics/SVG/1.1/DTD/svg11.dtd">
<svg version="1.1" id="Layer_1" xmlns="http://www.w3.org/2000/svg" xmlns:xlink="http://www.w3.org/1999/xlink" x="0px" y="0px"
	 width="1054.598px" height="315.707px" viewBox="0 0 1054.598 315.707" enable-background="new 0 0 1054.598 315.707"
	 xml:space="preserve">
<g>
	<rect x="42.157" y="51.521" fill="#B7D6E2" width="970.285" height="264.186"/>
	
		<polyline fill="none" stroke="#B3C7CE" stroke-width="1.6358" stroke-linecap="round" stroke-linejoin="round" stroke-miterlimit="10" points="
		128.393,297.371 161.067,297.371 161.067,310.781 764.073,310.781 768.708,297.371 772.797,297.371 	"/>
	<g>
		<g>
			<rect x="231.514" y="99.047" fill="#55A1BF" width="61.967" height="40.024"/>
			<rect x="231.514" y="142.723" fill="#55A1BF" width="61.967" height="103.679"/>
			<rect x="297.131" y="99.047" fill="#55A1BF" width="61.967" height="40.024"/>
			<rect x="297.131" y="142.723" fill="#55A1BF" width="61.967" height="103.679"/>
			<rect x="293.48" y="99.047" fill="#FFFFFF" width="3.65" height="40.024"/>
			<rect x="293.48" y="142.723" fill="#FFFFFF" width="3.65" height="103.679"/>
			<rect x="231.514" y="139.071" fill="#FFFFFF" width="61.967" height="3.651"/>
			<rect x="297.131" y="139.071" fill="#FFFFFF" width="61.967" height="3.651"/>
			<rect x="293.48" y="139.071" fill="#FFFFFF" width="3.65" height="3.651"/>
			<rect x="225.375" y="246.088" fill="#FFFFFF" width="139.863" height="3.26"/>
		</g>
		<g>
			<rect x="462.403" y="99.047" fill="#55A1BF" width="61.966" height="40.024"/>
			<rect x="462.403" y="142.723" fill="#55A1BF" width="61.966" height="103.679"/>
			<rect x="528.02" y="99.047" fill="#55A1BF" width="61.968" height="40.024"/>
			<rect x="528.02" y="142.723" fill="#55A1BF" width="61.968" height="103.679"/>
			<rect x="524.37" y="99.047" fill="#FFFFFF" width="3.649" height="40.024"/>
			<rect x="524.37" y="142.723" fill="#FFFFFF" width="3.649" height="103.679"/>
			<rect x="462.403" y="139.071" fill="#FFFFFF" width="61.966" height="3.651"/>
			<rect x="528.02" y="139.071" fill="#FFFFFF" width="61.968" height="3.651"/>
			<rect x="524.37" y="139.071" fill="#FFFFFF" width="3.649" height="3.651"/>
			<rect x="456.264" y="246.088" fill="#FFFFFF" width="139.864" height="3.26"/>
		</g>
		<g>
			<rect x="693.292" y="99.047" fill="#55A1BF" width="61.967" height="40.024"/>
			<rect x="693.292" y="142.723" fill="#55A1BF" width="61.967" height="103.679"/>
			<rect x="758.909" y="99.047" fill="#55A1BF" width="61.967" height="40.024"/>
			<rect x="758.909" y="142.723" fill="#55A1BF" width="61.967" height="103.679"/>
			<rect x="755.258" y="99.047" fill="#FFFFFF" width="3.65" height="40.024"/>
			<rect x="755.258" y="142.723" fill="#FFFFFF" width="3.65" height="103.679"/>
			<rect x="693.292" y="139.071" fill="#FFFFFF" width="61.967" height="3.651"/>
			<rect x="758.909" y="139.071" fill="#FFFFFF" width="61.967" height="3.651"/>
			<rect x="755.258" y="139.071" fill="#FFFFFF" width="3.65" height="3.651"/>
			<rect x="687.153" y="246.088" fill="#FFFFFF" width="139.862" height="3.26"/>
		</g>
	</g>
	<g>
		<g>
			<rect x="562.249" y="69.855" fill="#FFFFFF" width="110.787" height="6.135"/>
			<g>
				<rect x="577.122" y="50.635" fill="#869392" width="0.574" height="19.221"/>
				<rect x="657.586" y="50.635" fill="#869392" width="0.576" height="19.221"/>
			</g>
		</g>
		<g>
			<rect x="360.235" y="69.855" fill="#FFFFFF" width="110.788" height="6.135"/>
			<g>
				<rect x="375.109" y="50.635" fill="#869392" width="0.573" height="19.221"/>
				<rect x="455.574" y="50.635" fill="#869392" width="0.575" height="19.221"/>
			</g>
		</g>
		<g>
			<rect x="764.26" y="69.855" fill="#FFFFFF" width="110.787" height="6.135"/>
			<g>
				<rect x="779.133" y="50.635" fill="#869392" width="0.576" height="19.221"/>
				<rect x="859.598" y="50.635" fill="#869392" width="0.576" height="19.221"/>
			</g>
		</g>
		<g>
			<rect x="158.223" y="69.855" fill="#FFFFFF" width="110.788" height="6.135"/>
			<g>
				<rect x="173.097" y="50.635" fill="#869392" width="0.575" height="19.221"/>
				<rect x="253.562" y="50.635" fill="#869392" width="0.574" height="19.221"/>
			</g>
		</g>
	</g>
	<g>
		<g>
			<path fill="none" stroke="#9B9B9B" stroke-width="1.9705" stroke-miterlimit="10" d="M288.813,249.803
				c0,0-3.028,9.088,3.868,17.846"/>
			<circle fill="#D1003C" cx="288.813" cy="249.803" r="3.028"/>
			<g>
				<path fill="none" stroke="#9B9B9B" stroke-width="1.9705" stroke-miterlimit="10" d="M334.275,249.803
					c0,0,3.027,9.086-3.869,17.846"/>
				<circle fill="#D1003C" cx="334.275" cy="249.803" r="3.028"/>
			</g>
		</g>
		<rect x="308.995" y="292.961" fill="#9B9B9B" width="5.099" height="13.396"/>
		<rect x="310.584" y="237.371" fill="#9B9B9B" width="1.92" height="59.247"/>
		<path fill="#D1003C" d="M329.74,231.979c0,3.265-2.646,5.91-5.911,5.91H299.26c-3.266,0-5.912-2.646-5.912-5.91v-1.231
			c0-3.265,2.646-5.912,5.912-5.912h24.569c3.265,0,5.911,2.647,5.911,5.912V231.979L329.74,231.979z"/>
		<g>
			
				<rect x="318.127" y="300.187" transform="matrix(-0.2705 0.9627 -0.9627 -0.2705 702.1559 85.1128)" fill="#9B9B9B" width="1.408" height="16.793"/>
			
				<rect x="303.565" y="300.192" transform="matrix(0.2711 0.9625 -0.9625 0.2711 518.7949 -67.9554)" fill="#9B9B9B" width="1.408" height="16.792"/>
			<circle fill="#9B9B9B" cx="296.37" cy="312.313" r="2.126"/>
			<circle fill="#9B9B9B" cx="326.719" cy="312.314" r="2.125"/>
		</g>
		<path fill="#D1003C" d="M334.081,267.648c0,1.682-1.363,3.045-3.046,3.045h-38.982c-1.682,0-3.046-1.363-3.046-3.045l0,0
			c0-1.683,1.364-3.045,3.046-3.045h38.982C332.718,264.604,334.081,265.967,334.081,267.648L334.081,267.648z"/>
		<rect x="310.766" y="306.102" fill="#9B9B9B" width="1.558" height="5.455"/>
		<rect x="309.895" y="310.2" fill="#9B9B9B" width="3.301" height="4.239"/>
	</g>
	<g>
		<rect x="384.965" y="236.303" fill="#BAA665" width="241.019" height="78.518"/>
		<rect x="381.723" y="233.172" fill="#BAA665" width="247.502" height="3.131"/>
		<rect x="384.965" y="236.303" fill="#9B8957" width="241.019" height="3.129"/>
		<g>
			<path fill="#FFFFFF" d="M587.352,224.898c0,1.481-1.2,2.684-2.684,2.684h-39.574c-1.481,0-2.684-1.201-2.684-2.684v-23.478
				c0-1.481,1.201-2.685,2.684-2.685h39.574c1.482,0,2.684,1.201,2.684,2.685V224.898z"/>
			<rect x="559.18" y="227.582" fill="#FFFFFF" width="11.402" height="5.59"/>
			<rect x="559.18" y="227.582" opacity="0.7" fill="#AABAB9" enable-background="new    " width="11.402" height="2.348"/>
			<circle fill="#AABAB9" cx="564.882" cy="209.359" r="1.677"/>
			<g>
				<path fill="#AABAB9" d="M561.192,224.714c0,0.084,0.067,0.153,0.151,0.153l0,0c0.084,0,0.152-0.069,0.152-0.153v-5.542
					c0-0.084-0.068-0.152-0.152-0.152l0,0c-0.084,0-0.151,0.068-0.151,0.152V224.714z"/>
				<path fill="#AABAB9" d="M561.836,224.714c0,0.084,0.068,0.153,0.15,0.153l0,0c0.086,0,0.153-0.069,0.153-0.153v-5.542
					c0-0.084-0.067-0.152-0.153-0.152l0,0c-0.082,0-0.15,0.068-0.15,0.152V224.714z"/>
				<path fill="#AABAB9" d="M562.479,224.714c0,0.084,0.068,0.153,0.152,0.153l0,0c0.084,0,0.152-0.069,0.152-0.153v-5.542
					c0-0.084-0.068-0.152-0.152-0.152l0,0c-0.084,0-0.152,0.068-0.152,0.152V224.714z"/>
				<path fill="#AABAB9" d="M563.122,224.714c0,0.084,0.068,0.153,0.152,0.153l0,0c0.084,0,0.151-0.069,0.151-0.153v-5.542
					c0-0.084-0.067-0.152-0.151-0.152l0,0c-0.084,0-0.152,0.068-0.152,0.152V224.714z"/>
				<path fill="#AABAB9" d="M563.764,224.714c0,0.084,0.068,0.153,0.152,0.153l0,0c0.084,0,0.152-0.069,0.152-0.153v-5.542
					c0-0.084-0.068-0.152-0.152-0.152l0,0c-0.084,0-0.152,0.068-0.152,0.152V224.714z"/>
				<path fill="#AABAB9" d="M564.409,224.714c0,0.084,0.065,0.153,0.151,0.153l0,0c0.084,0,0.152-0.069,0.152-0.153v-5.542
					c0-0.084-0.068-0.152-0.152-0.152l0,0c-0.086,0-0.151,0.068-0.151,0.152V224.714z"/>
				<path fill="#AABAB9" d="M565.051,224.714c0,0.084,0.068,0.153,0.152,0.153l0,0c0.084,0,0.152-0.069,0.152-0.153v-5.542
					c0-0.084-0.068-0.152-0.152-0.152l0,0c-0.084,0-0.152,0.068-0.152,0.152V224.714z"/>
				<path fill="#AABAB9" d="M565.694,224.714c0,0.084,0.067,0.153,0.151,0.153l0,0c0.084,0,0.152-0.069,0.152-0.153v-5.542
					c0-0.084-0.068-0.152-0.152-0.152l0,0c-0.084,0-0.151,0.068-0.151,0.152V224.714z"/>
				<path fill="#AABAB9" d="M566.336,224.714c0,0.084,0.068,0.153,0.152,0.153l0,0c0.084,0,0.151-0.069,0.151-0.153v-5.542
					c0-0.084-0.067-0.152-0.151-0.152l0,0c-0.084,0-0.152,0.068-0.152,0.152V224.714z"/>
				<path fill="#AABAB9" d="M566.981,224.714c0,0.084,0.067,0.153,0.151,0.153l0,0c0.084,0,0.152-0.069,0.152-0.153v-5.542
					c0-0.084-0.068-0.152-0.152-0.152l0,0c-0.084,0-0.151,0.068-0.151,0.152V224.714z"/>
				<path fill="#AABAB9" d="M567.624,224.714c0,0.084,0.068,0.153,0.152,0.153l0,0c0.084,0,0.151-0.069,0.151-0.153v-5.542
					c0-0.084-0.067-0.152-0.151-0.152l0,0c-0.084,0-0.152,0.068-0.152,0.152V224.714z"/>
				<path fill="#AABAB9" d="M568.266,224.714c0,0.084,0.068,0.153,0.152,0.153l0,0c0.084,0,0.152-0.069,0.152-0.153v-5.542
					c0-0.084-0.068-0.152-0.152-0.152l0,0c-0.084,0-0.152,0.068-0.152,0.152V224.714z"/>
			</g>
		</g>
		<g>
			<path fill="#326600" d="M606.909,223.73c-0.633,0.633-1.66,0.633-2.295,0l-0.318-0.319c-0.635-0.634-0.635-1.661,0-2.296
				l3.506-3.506c0.633-0.635,1.662-0.635,2.295,0l0.32,0.317c0.633,0.636,0.633,1.662,0,2.296L606.909,223.73z"/>
			<path fill="#326600" d="M605.834,219.256c0.635,0.633,0.635,1.66,0,2.295l-0.318,0.318c-0.635,0.634-1.662,0.634-2.295,0
				l-5.619-5.619c-0.635-0.635-0.635-1.662,0-2.295l0.318-0.32c0.635-0.633,1.662-0.633,2.295,0L605.834,219.256z"/>
			<path fill="#3A7C00" d="M607.354,222.588c0,1.482-1.198,2.684-2.682,2.684h-0.746c-1.479,0-2.682-1.201-2.682-2.684v-8.197
				c0-1.481,1.201-2.684,2.682-2.684h0.746c1.482,0,2.682,1.201,2.682,2.684V222.588z"/>
			<path fill="#DB4928" d="M598.319,231.83c0,0.74,0.6,1.342,1.342,1.342h9.444c0.742,0,1.343-0.602,1.343-1.342v-9.531h-12.129
				V231.83L598.319,231.83z"/>
		</g>
	</g>
	<g>
		<rect x="885.764" y="128.836" fill="#FFFFFF" width="82.98" height="185.984"/>
		<rect x="890.622" y="171.223" fill="#A0ACAF" width="73.268" height="30.572"/>
		<rect x="890.622" y="134.782" fill="#A0ACAF" width="73.268" height="30.573"/>
		<rect x="890.622" y="207.34" fill="#A0ACAF" width="73.268" height="30.573"/>
		<rect x="890.622" y="243.457" fill="#A0ACAF" width="73.268" height="30.574"/>
		<rect x="890.622" y="279.574" fill="#A0ACAF" width="73.268" height="30.572"/>
		<g>
			
				<rect x="955.25" y="250.689" transform="matrix(-0.9789 -0.2044 0.2044 -0.9789 1843.0337 714.7014)" fill="#1F98EA" width="6.359" height="22.948"/>
			
				<rect x="955.562" y="262.7" transform="matrix(-0.9789 -0.2042 0.2042 -0.9789 1839.9769 724.2715)" fill="#F4F4F4" width="3.582" height="9.025"/>
			
				<rect x="954.824" y="269.974" transform="matrix(-0.9789 -0.2046 0.2046 -0.9789 1837.5957 731.6741)" fill="#8C9596" width="3.581" height="1.774"/>
			<g>
				
					<line fill="none" stroke="#287BBF" stroke-width="0.1022" stroke-miterlimit="10" x1="956.711" y1="263.697" x2="959.409" y2="264.26"/>
				
					<line fill="none" stroke="#287BBF" stroke-width="0.1022" stroke-miterlimit="10" x1="956.514" y1="264.643" x2="959.211" y2="265.205"/>
				
					<line fill="none" stroke="#287BBF" stroke-width="0.1022" stroke-miterlimit="10" x1="956.317" y1="265.586" x2="959.014" y2="266.148"/>
				
					<line fill="none" stroke="#287BBF" stroke-width="0.1022" stroke-miterlimit="10" x1="956.12" y1="266.531" x2="958.819" y2="267.094"/>
				
					<line fill="none" stroke="#287BBF" stroke-width="0.1022" stroke-miterlimit="10" x1="955.922" y1="267.475" x2="958.622" y2="268.037"/>
				
					<line fill="none" stroke="#287BBF" stroke-width="0.1022" stroke-miterlimit="10" x1="955.725" y1="268.418" x2="958.424" y2="268.982"/>
			</g>
			<g>
				<circle fill="#C1D6D6" cx="959.974" cy="254.745" r="1.499"/>
				<circle fill="#515859" cx="959.996" cy="254.749" r="1.206"/>
			</g>
		</g>
		<g>
			
				<rect x="947.636" y="214.589" transform="matrix(-0.9789 -0.2043 0.2043 -0.9789 1835.4072 641.577)" fill="#1F98EA" width="6.359" height="22.951"/>
			
				<rect x="947.969" y="226.602" transform="matrix(-0.9789 -0.2043 0.2043 -0.9789 1832.2725 651.3815)" fill="#F4F4F4" width="3.58" height="9.024"/>
			
				<rect x="947.225" y="233.93" transform="matrix(-0.9789 -0.2044 0.2044 -0.9789 1830.0049 658.6467)" fill="#8C9596" width="3.583" height="1.774"/>
			<g>
				
					<line fill="none" stroke="#287BBF" stroke-width="0.1022" stroke-miterlimit="10" x1="949.096" y1="227.6" x2="951.793" y2="228.162"/>
				
					<line fill="none" stroke="#287BBF" stroke-width="0.1022" stroke-miterlimit="10" x1="948.896" y1="228.544" x2="951.596" y2="229.107"/>
				
					<line fill="none" stroke="#287BBF" stroke-width="0.1022" stroke-miterlimit="10" x1="948.702" y1="229.488" x2="951.399" y2="230.051"/>
				
					<line fill="none" stroke="#287BBF" stroke-width="0.1022" stroke-miterlimit="10" x1="948.504" y1="230.432" x2="951.202" y2="230.995"/>
				
					<line fill="none" stroke="#287BBF" stroke-width="0.1022" stroke-miterlimit="10" x1="948.307" y1="231.377" x2="951.004" y2="231.939"/>
				
					<line fill="none" stroke="#287BBF" stroke-width="0.1022" stroke-miterlimit="10" x1="948.11" y1="232.32" x2="950.807" y2="232.883"/>
			</g>
			<g>
				<circle fill="#C1D6D6" cx="952.358" cy="218.646" r="1.498"/>
				<circle fill="#515859" cx="952.379" cy="218.65" r="1.205"/>
			</g>
		</g>
		<g>
			
				<rect x="955.184" y="214.59" transform="matrix(-0.9789 -0.2044 0.2044 -0.9789 1850.2831 643.2529)" fill="#1F98EA" width="6.359" height="22.95"/>
			
				<rect x="955.517" y="226.602" transform="matrix(-0.9789 -0.2043 0.2043 -0.9789 1847.2109 652.9236)" fill="#F4F4F4" width="3.58" height="9.024"/>
			
				<rect x="954.773" y="233.931" transform="matrix(-0.9789 -0.2044 0.2044 -0.9789 1844.9423 660.1896)" fill="#8C9596" width="3.583" height="1.774"/>
			<g>
				
					<line fill="none" stroke="#287BBF" stroke-width="0.1022" stroke-miterlimit="10" x1="956.645" y1="227.6" x2="959.342" y2="228.162"/>
				
					<line fill="none" stroke="#287BBF" stroke-width="0.1022" stroke-miterlimit="10" x1="956.446" y1="228.544" x2="959.145" y2="229.107"/>
				
					<line fill="none" stroke="#287BBF" stroke-width="0.1022" stroke-miterlimit="10" x1="956.25" y1="229.488" x2="958.948" y2="230.051"/>
				
					<line fill="none" stroke="#287BBF" stroke-width="0.1022" stroke-miterlimit="10" x1="956.053" y1="230.432" x2="958.75" y2="230.995"/>
				
					<line fill="none" stroke="#287BBF" stroke-width="0.1022" stroke-miterlimit="10" x1="955.856" y1="231.377" x2="958.553" y2="231.939"/>
				
					<line fill="none" stroke="#287BBF" stroke-width="0.1022" stroke-miterlimit="10" x1="955.659" y1="232.32" x2="958.356" y2="232.883"/>
			</g>
			<g>
				<circle fill="#C1D6D6" cx="959.907" cy="218.646" r="1.498"/>
				<circle fill="#515859" cx="959.928" cy="218.65" r="1.205"/>
			</g>
		</g>
		<g>
			
				<rect x="952.572" y="286.992" transform="matrix(-0.8968 -0.4424 0.4424 -0.8968 1680.8335 988.9739)" fill="#1F98EA" width="6.359" height="22.949"/>
			
				<rect x="951.623" y="298.603" transform="matrix(-0.8967 -0.4426 0.4426 -0.8967 1674.1783 996.9298)" fill="#F4F4F4" width="3.583" height="9.025"/>
			
				<rect x="949.96" y="305.588" transform="matrix(-0.8967 -0.4426 0.4426 -0.8967 1669.5377 1002.5666)" fill="#8C9596" width="3.583" height="1.775"/>
			<g>
				
					<line fill="none" stroke="#287BBF" stroke-width="0.1022" stroke-miterlimit="10" x1="953.645" y1="299.533" x2="956.116" y2="300.752"/>
				
					<line fill="none" stroke="#287BBF" stroke-width="0.1022" stroke-miterlimit="10" x1="953.217" y1="300.398" x2="955.69" y2="301.617"/>
				
					<line fill="none" stroke="#287BBF" stroke-width="0.1022" stroke-miterlimit="10" x1="952.792" y1="301.264" x2="955.262" y2="302.482"/>
				
					<line fill="none" stroke="#287BBF" stroke-width="0.1022" stroke-miterlimit="10" x1="952.366" y1="302.128" x2="954.836" y2="303.348"/>
				
					<line fill="none" stroke="#287BBF" stroke-width="0.1022" stroke-miterlimit="10" x1="951.938" y1="302.993" x2="954.409" y2="304.212"/>
				
					<line fill="none" stroke="#287BBF" stroke-width="0.1022" stroke-miterlimit="10" x1="951.512" y1="303.857" x2="953.983" y2="305.077"/>
			</g>
			<g>
				<circle fill="#C1D6D6" cx="959.04" cy="291.679" r="1.498"/>
				<circle fill="#515859" cx="959.06" cy="291.688" r="1.205"/>
			</g>
		</g>
		<g>
			
				<rect x="943.369" y="251.682" transform="matrix(-0.7723 -0.6352 0.6352 -0.7723 1510.4557 1067.6528)" fill="#1F98EA" width="6.359" height="22.949"/>
			
				<rect x="941.374" y="262.667" transform="matrix(-0.7724 -0.6351 0.6351 -0.7724 1502.0322 1072.5454)" fill="#F4F4F4" width="3.583" height="9.026"/>
			
				<rect x="939.004" y="269.174" transform="matrix(-0.7724 -0.6351 0.6351 -0.7724 1496.0032 1076.1477)" fill="#8C9596" width="3.583" height="1.775"/>
			<g>
				
					<line fill="none" stroke="#287BBF" stroke-width="0.1022" stroke-miterlimit="10" x1="944.268" y1="263.709" x2="946.395" y2="265.459"/>
				
					<line fill="none" stroke="#287BBF" stroke-width="0.1022" stroke-miterlimit="10" x1="943.655" y1="264.455" x2="945.784" y2="266.205"/>
				
					<line fill="none" stroke="#287BBF" stroke-width="0.1022" stroke-miterlimit="10" x1="943.042" y1="265.199" x2="945.17" y2="266.949"/>
				
					<line fill="none" stroke="#287BBF" stroke-width="0.1022" stroke-miterlimit="10" x1="942.43" y1="265.943" x2="944.557" y2="267.695"/>
				
					<line fill="none" stroke="#287BBF" stroke-width="0.1022" stroke-miterlimit="10" x1="941.817" y1="266.689" x2="943.946" y2="268.439"/>
				
					<line fill="none" stroke="#287BBF" stroke-width="0.1022" stroke-miterlimit="10" x1="941.204" y1="267.434" x2="943.333" y2="269.186"/>
			</g>
			<g>
				<circle fill="#C1D6D6" cx="951.312" cy="257.292" r="1.499"/>
				<circle fill="#515859" cx="951.33" cy="257.307" r="1.205"/>
			</g>
		</g>
		<g>
			
				<rect x="892.348" y="178.535" transform="matrix(-0.9884 0.1521 -0.1521 -0.9884 1809.5338 241.6174)" fill="#1F98EA" width="6.357" height="22.949"/>
			
				<rect x="894.516" y="190.7" transform="matrix(-0.9884 0.152 -0.152 -0.9884 1811.8748 251.9027)" fill="#F4F4F4" width="3.585" height="9.026"/>
			
				<rect x="895.05" y="197.955" transform="matrix(-0.9883 0.1524 -0.1524 -0.9883 1813.5088 258.7152)" fill="#8C9596" width="3.583" height="1.774"/>
			<g>
				
					<line fill="none" stroke="#287BBF" stroke-width="0.1022" stroke-miterlimit="10" x1="894.411" y1="192.102" x2="897.133" y2="191.682"/>
				
					<line fill="none" stroke="#287BBF" stroke-width="0.1022" stroke-miterlimit="10" x1="894.557" y1="193.055" x2="897.282" y2="192.637"/>
				
					<line fill="none" stroke="#287BBF" stroke-width="0.1022" stroke-miterlimit="10" x1="894.704" y1="194.008" x2="897.428" y2="193.59"/>
				
					<line fill="none" stroke="#287BBF" stroke-width="0.1022" stroke-miterlimit="10" x1="894.85" y1="194.962" x2="897.575" y2="194.543"/>
				
					<line fill="none" stroke="#287BBF" stroke-width="0.1022" stroke-miterlimit="10" x1="894.999" y1="195.915" x2="897.721" y2="195.496"/>
				
					<line fill="none" stroke="#287BBF" stroke-width="0.1022" stroke-miterlimit="10" x1="895.145" y1="196.869" x2="897.868" y2="196.449"/>
			</g>
			<g>
				<circle fill="#C1D6D6" cx="894.326" cy="182.572" r="1.499"/>
				<circle fill="#515859" cx="894.348" cy="182.569" r="1.205"/>
			</g>
		</g>
	</g>
	<g>
		<circle fill="#303030" cx="641.889" cy="142.477" r="17.932"/>
		<circle fill="#FFFFFF" cx="641.782" cy="142.477" r="15.59"/>
		<circle fill="#303030" cx="641.889" cy="142.477" r="1.383"/>
		<rect x="641.245" y="133.662" fill="#303030" width="1.154" height="8.814"/>
		
			<rect x="639.93" y="142.338" transform="matrix(-0.9626 -0.271 0.271 -0.9626 1216.3568 464.7917)" fill="#303030" width="0.676" height="12.158"/>
	</g>
	<g>
		<g>
			<path fill="#B3C7CE" d="M127.586,301.072c0,0.945-0.766,1.71-1.71,1.71H74.092c-0.944,0-1.71-0.765-1.71-1.71v-31.637
				c0-0.943,0.766-1.709,1.71-1.709h51.784c0.944,0,1.71,0.766,1.71,1.709V301.072z"/>
			<rect x="125.819" y="295.189" fill="#B3C7CE" width="5.149" height="4.362"/>
		</g>
		<g>
			<path fill="#AABAB9" d="M74.092,304.703c0,0.59,0.479,1.068,1.069,1.068l0,0c0.59,0,1.068-0.479,1.068-1.068v-38.898
				c0-0.59-0.479-1.068-1.068-1.068l0,0c-0.591,0-1.069,0.479-1.069,1.068V304.703z"/>
			<path fill="#AABAB9" d="M78.605,304.703c0,0.59,0.479,1.068,1.069,1.068l0,0c0.59,0,1.069-0.479,1.069-1.068v-38.898
				c0-0.59-0.479-1.068-1.069-1.068l0,0c-0.591,0-1.069,0.479-1.069,1.068V304.703z"/>
			<path fill="#AABAB9" d="M83.119,304.703c0,0.59,0.479,1.068,1.069,1.068l0,0c0.591,0,1.069-0.479,1.069-1.068v-38.898
				c0-0.59-0.479-1.068-1.069-1.068l0,0c-0.59,0-1.069,0.479-1.069,1.068V304.703z"/>
			<path fill="#AABAB9" d="M87.632,304.703c0,0.59,0.479,1.068,1.069,1.068l0,0c0.59,0,1.069-0.479,1.069-1.068v-38.898
				c0-0.59-0.479-1.068-1.069-1.068l0,0c-0.59,0-1.069,0.479-1.069,1.068V304.703z"/>
			<path fill="#AABAB9" d="M92.146,304.703c0,0.59,0.479,1.068,1.069,1.068l0,0c0.591,0,1.069-0.479,1.069-1.068v-38.898
				c0-0.59-0.478-1.068-1.069-1.068l0,0c-0.59,0-1.069,0.479-1.069,1.068V304.703z"/>
			<path fill="#AABAB9" d="M96.659,304.703c0,0.59,0.479,1.068,1.069,1.068l0,0c0.59,0,1.068-0.479,1.068-1.068v-38.898
				c0-0.59-0.478-1.068-1.068-1.068l0,0c-0.591,0-1.069,0.479-1.069,1.068V304.703z"/>
			<path fill="#AABAB9" d="M101.172,304.703c0,0.59,0.478,1.068,1.069,1.068l0,0c0.59,0,1.069-0.479,1.069-1.068v-38.898
				c0-0.59-0.479-1.068-1.069-1.068l0,0c-0.591,0-1.069,0.479-1.069,1.068V304.703z"/>
			<path fill="#AABAB9" d="M105.686,304.703c0,0.59,0.478,1.068,1.069,1.068l0,0c0.59,0,1.069-0.479,1.069-1.068v-38.898
				c0-0.59-0.479-1.068-1.069-1.068l0,0c-0.591,0-1.069,0.479-1.069,1.068V304.703z"/>
			<path fill="#AABAB9" d="M110.199,304.703c0,0.59,0.479,1.068,1.069,1.068l0,0c0.59,0,1.068-0.479,1.068-1.068v-38.898
				c0-0.59-0.479-1.068-1.068-1.068l0,0c-0.591,0-1.069,0.479-1.069,1.068V304.703z"/>
			<path fill="#AABAB9" d="M114.712,304.703c0,0.59,0.479,1.068,1.069,1.068l0,0c0.59,0,1.069-0.479,1.069-1.068v-38.898
				c0-0.59-0.479-1.068-1.069-1.068l0,0c-0.59,0-1.069,0.479-1.069,1.068V304.703z"/>
			<path fill="#AABAB9" d="M119.225,304.703c0,0.59,0.479,1.068,1.069,1.068l0,0c0.59,0,1.069-0.479,1.069-1.068v-38.898
				c0-0.59-0.479-1.068-1.069-1.068l0,0c-0.591,0-1.069,0.479-1.069,1.068V304.703z"/>
			<path fill="#AABAB9" d="M123.739,304.703c0,0.59,0.479,1.068,1.069,1.068l0,0c0.59,0,1.069-0.479,1.069-1.068v-38.898
				c0-0.59-0.479-1.068-1.069-1.068l0,0c-0.59,0-1.069,0.479-1.069,1.068V304.703z"/>
		</g>
	</g>
	<path fill="#B3C7CE" d="M774.708,301.072c0,0.945,0.766,1.71,1.709,1.71h51.785c0.944,0,1.709-0.765,1.709-1.71v-31.637
		c0-0.943-0.765-1.709-1.709-1.709h-51.785c-0.943,0-1.709,0.766-1.709,1.709V301.072z"/>
	<rect x="771.327" y="295.189" fill="#B3C7CE" width="5.147" height="4.362"/>
	<rect x="828.202" y="295.189" fill="#B3C7CE" width="5.147" height="4.362"/>
	<g>
		<path fill="#AABAB9" d="M828.202,304.703c0,0.59-0.479,1.068-1.068,1.068l0,0c-0.592,0-1.069-0.479-1.069-1.068v-38.898
			c0-0.59,0.479-1.068,1.069-1.068l0,0c0.59,0,1.068,0.479,1.068,1.068V304.703z"/>
		<path fill="#AABAB9" d="M823.688,304.703c0,0.59-0.479,1.068-1.067,1.068l0,0c-0.592,0-1.07-0.479-1.07-1.068v-38.898
			c0-0.59,0.479-1.068,1.07-1.068l0,0c0.59,0,1.067,0.479,1.067,1.068V304.703z"/>
		<path fill="#AABAB9" d="M819.174,304.703c0,0.59-0.479,1.068-1.067,1.068l0,0c-0.591,0-1.068-0.479-1.068-1.068v-38.898
			c0-0.59,0.479-1.068,1.068-1.068l0,0c0.59,0,1.067,0.479,1.067,1.068V304.703z"/>
		<path fill="#AABAB9" d="M814.663,304.703c0,0.59-0.479,1.068-1.07,1.068l0,0c-0.59,0-1.067-0.479-1.067-1.068v-38.898
			c0-0.59,0.479-1.068,1.067-1.068l0,0c0.592,0,1.07,0.479,1.07,1.068V304.703z"/>
		<path fill="#AABAB9" d="M810.149,304.703c0,0.59-0.479,1.068-1.07,1.068l0,0c-0.59,0-1.068-0.479-1.068-1.068v-38.898
			c0-0.59,0.479-1.068,1.068-1.068l0,0c0.592,0,1.07,0.479,1.07,1.068V304.703z"/>
		<path fill="#AABAB9" d="M805.635,304.703c0,0.59-0.479,1.068-1.069,1.068l0,0c-0.591,0-1.068-0.479-1.068-1.068v-38.898
			c0-0.59,0.479-1.068,1.068-1.068l0,0c0.592,0,1.069,0.479,1.069,1.068V304.703z"/>
		<path fill="#AABAB9" d="M801.122,304.703c0,0.59-0.479,1.068-1.068,1.068l0,0c-0.59,0-1.067-0.479-1.067-1.068v-38.898
			c0-0.59,0.479-1.068,1.067-1.068l0,0c0.591,0,1.068,0.479,1.068,1.068V304.703z"/>
		<path fill="#AABAB9" d="M796.608,304.703c0,0.59-0.479,1.068-1.068,1.068l0,0c-0.59,0-1.068-0.479-1.068-1.068v-38.898
			c0-0.59,0.479-1.068,1.068-1.068l0,0c0.59,0,1.068,0.479,1.068,1.068V304.703z"/>
		<path fill="#AABAB9" d="M792.094,304.703c0,0.59-0.479,1.068-1.067,1.068l0,0c-0.591,0-1.068-0.479-1.068-1.068v-38.898
			c0-0.59,0.479-1.068,1.068-1.068l0,0c0.59,0,1.067,0.479,1.067,1.068V304.703z"/>
		<path fill="#AABAB9" d="M787.583,304.703c0,0.59-0.479,1.068-1.07,1.068l0,0c-0.59,0-1.067-0.479-1.067-1.068v-38.898
			c0-0.59,0.479-1.068,1.067-1.068l0,0c0.591,0,1.07,0.479,1.07,1.068V304.703z"/>
		<path fill="#AABAB9" d="M783.069,304.703c0,0.59-0.479,1.068-1.068,1.068l0,0c-0.592,0-1.07-0.479-1.07-1.068v-38.898
			c0-0.59,0.479-1.068,1.07-1.068l0,0c0.59,0,1.068,0.479,1.068,1.068V304.703z"/>
		<path fill="#AABAB9" d="M778.555,304.703c0,0.59-0.479,1.068-1.067,1.068l0,0c-0.593,0-1.07-0.479-1.07-1.068v-38.898
			c0-0.59,0.479-1.068,1.07-1.068l0,0c0.59,0,1.067,0.479,1.067,1.068V304.703z"/>
	</g>
	<path fill="none" stroke="#B3C7CE" stroke-width="1.6358" stroke-linecap="square" stroke-miterlimit="10" d="M837.532,297.371
		c2.492,0,4.514,2.021,4.514,4.514"/>
	
		<line fill="none" stroke="#B3C7CE" stroke-width="1.6358" stroke-linecap="square" stroke-linejoin="round" stroke-miterlimit="10" x1="829.805" y1="297.371" x2="836.895" y2="297.371"/>
	
		<line fill="none" stroke="#B3C7CE" stroke-width="1.6358" stroke-linejoin="round" stroke-miterlimit="10" x1="842.045" y1="302.637" x2="842.045" y2="314.82"/>
	<g opacity="0.7">
		<polygon fill="none" points="199.051,299.396 198.866,299.211 198.812,299.635 		"/>
		
			<rect x="191.113" y="297.923" transform="matrix(-0.7074 -0.7069 0.7069 -0.7074 117.1826 647.3075)" fill="#869392" width="2.947" height="2.948"/>
		
			<rect x="188.897" y="300.119" transform="matrix(-0.7073 -0.7069 0.7069 -0.7073 111.8057 649.4807)" fill="#869392" width="2.947" height="2.947"/>
		<polygon fill="#869392" points="183.772,301.711 182.172,303.311 182.316,304.422 183.771,305.879 185.855,303.795 		"/>
		<polygon fill="#869392" points="182.618,289.438 180.526,289.438 181.572,290.482 		"/>
		<polygon fill="#869392" points="190.254,312.592 188.17,310.508 186.087,312.592 187.814,314.318 188.526,314.318 		"/>
		<polygon fill="#869392" points="180.397,289.539 180.639,291.416 181.457,290.6 		"/>
		
			<rect x="184.498" y="300.118" transform="matrix(-0.707 -0.7072 0.7072 -0.707 104.1755 646.3417)" fill="#869392" width="2.947" height="2.947"/>
		
			<rect x="186.697" y="297.919" transform="matrix(-0.7071 -0.7071 0.7071 -0.7071 109.5245 644.1517)" fill="#869392" width="2.947" height="2.947"/>
		
			<rect x="188.897" y="308.901" transform="matrix(-0.7069 0.7073 -0.7073 -0.7069 544.4696 395.1466)" fill="#869392" width="2.947" height="2.946"/>
		<polygon fill="#869392" points="183.771,306.109 182.675,307.207 182.967,309.473 183.771,310.277 185.855,308.193 		"/>
		
			<rect x="188.897" y="295.721" transform="matrix(-0.707 -0.7072 0.7072 -0.707 114.7936 641.9456)" fill="#869392" width="2.947" height="2.947"/>
		<polygon fill="#869392" points="192.925,314.318 194.652,312.592 192.568,310.508 190.485,312.592 192.213,314.318 
			192.75,314.318 		"/>
		
			<rect x="186.693" y="306.72" transform="matrix(-0.7071 0.7071 -0.7071 -0.7071 539.1455 393.0653)" fill="#869392" width="2.947" height="2.947"/>
		
			<rect x="184.493" y="304.528" transform="matrix(-0.7074 0.7069 -0.7069 -0.7074 533.8082 391.0013)" fill="#869392" width="2.945" height="2.947"/>
		<polygon fill="#869392" points="194.884,312.592 196.611,314.318 196.918,314.318 197.359,310.9 196.967,310.508 		"/>
		
			<rect x="193.288" y="308.935" transform="matrix(-0.7069 0.7074 -0.7074 -0.7069 551.9976 392.0558)" fill="#869392" width="2.946" height="2.945"/>
		<polygon fill="#869392" points="196.967,306.109 194.884,308.193 196.967,310.277 197.51,309.734 197.861,307.004 		"/>
		<polygon fill="#869392" points="193.156,314.318 196.38,314.318 194.768,312.707 		"/>
		
			<rect x="191.096" y="306.702" transform="matrix(-0.7069 0.7073 -0.7073 -0.7069 546.668 389.8383)" fill="#869392" width="2.947" height="2.947"/>
		
			<rect x="188.888" y="304.536" transform="matrix(-0.7072 0.707 -0.707 -0.7072 541.3407 387.827)" fill="#869392" width="2.948" height="2.948"/>
		<polygon fill="#869392" points="197.386,310.695 197.475,310 197.083,310.393 		"/>
		
			<rect x="193.312" y="291.325" transform="matrix(-0.7074 -0.7069 0.7069 -0.7074 125.6014 637.5966)" fill="#869392" width="2.947" height="2.946"/>
		
			<rect x="195.497" y="293.524" transform="matrix(0.707 -0.7072 0.7072 0.707 -150.9117 225.7225)" fill="#869392" width="2.947" height="2.946"/>
		<polygon fill="#869392" points="198.893,299.006 199.369,295.314 199.166,295.113 197.083,297.197 		"/>
		
			<rect x="186.698" y="302.303" transform="matrix(-0.707 0.7072 -0.7072 -0.707 536.0409 385.4815)" fill="#869392" width="2.947" height="2.947"/>
		
			<rect x="191.081" y="293.517" transform="matrix(-0.7074 -0.7068 0.7068 -0.7074 120.2825 639.7692)" fill="#869392" width="2.946" height="2.945"/>
		<polygon fill="#869392" points="199.166,294.881 199.463,294.586 199.871,291.418 199.166,290.715 197.083,292.798 		"/>
		<polygon fill="#869392" points="195.814,289.438 193.723,289.438 194.768,290.482 		"/>
		<polygon fill="#869392" points="190.254,290.6 189.092,289.438 187.761,289.438 187.248,289.438 186.087,290.6 188.17,292.682 		
			"/>
		<polygon fill="#869392" points="191.416,289.438 189.324,289.438 190.369,290.482 		"/>
		<polygon fill="#869392" points="181.699,299.639 182.146,303.105 183.656,301.596 		"/>
		<polygon fill="#869392" points="199.896,291.213 200.08,289.802 199.283,290.6 		"/>
		<polygon fill="#869392" points="200.113,289.537 200.127,289.438 198.121,289.438 199.166,290.482 		"/>
		
			<rect x="184.505" y="308.925" transform="matrix(0.707 0.7072 -0.7072 0.707 273.9974 -40.5827)" fill="#869392" width="2.947" height="2.947"/>
		
			<rect x="191.091" y="302.321" transform="matrix(-0.7071 0.7071 -0.7071 -0.7071 543.5433 382.4449)" fill="#869392" width="2.947" height="2.947"/>
		
			<rect x="193.311" y="304.527" transform="matrix(0.7069 0.7073 -0.7073 0.7069 273.509 -48.0895)" fill="#869392" width="2.947" height="2.947"/>
		
			<rect x="184.515" y="291.326" transform="matrix(-0.7072 -0.707 0.707 -0.7072 110.5015 631.3613)" fill="#869392" width="2.948" height="2.946"/>
		
			<rect x="193.295" y="300.118" transform="matrix(-0.7071 -0.7071 0.7071 -0.7071 119.2331 652.5715)" fill="#869392" width="2.947" height="2.947"/>
		<polygon fill="#869392" points="183.656,297.197 181.572,295.113 181.168,295.518 181.644,299.209 		"/>
		
			<rect x="182.284" y="293.517" transform="matrix(-0.7073 -0.7069 0.7069 -0.7073 105.1828 633.5352)" fill="#869392" width="2.947" height="2.947"/>
		<polygon fill="#869392" points="187.018,289.438 184.925,289.438 185.971,290.482 		"/>
		
			<rect x="184.498" y="295.72" transform="matrix(-0.7071 -0.7071 0.7071 -0.7071 107.3253 638.8423)" fill="#869392" width="2.947" height="2.947"/>
		
			<rect x="186.683" y="293.516" transform="matrix(-0.7074 -0.7068 0.7068 -0.7074 112.7728 636.6595)" fill="#869392" width="2.946" height="2.946"/>
		
			<rect x="182.299" y="297.919" transform="matrix(-0.7071 -0.7071 0.7071 -0.7071 102.0167 641.0419)" fill="#869392" width="2.947" height="2.947"/>
		<polygon fill="#869392" points="181.048,294.589 181.141,295.312 181.457,294.998 		"/>
		<polygon fill="#869392" points="182.35,304.688 182.648,307.002 183.656,305.993 		"/>
		<polygon fill="#869392" points="196.968,301.711 194.884,303.795 196.967,305.879 198.16,304.686 198.363,303.107 		"/>
		
			<rect x="188.912" y="291.325" transform="matrix(-0.7072 -0.707 0.707 -0.7072 118.0096 634.4707)" fill="#869392" width="2.948" height="2.947"/>
		<polygon fill="#869392" points="194.884,290.6 196.967,292.682 199.051,290.6 197.889,289.438 196.046,289.438 		"/>
		<polygon fill="#869392" points="194.652,290.6 193.49,289.438 192.75,289.438 191.646,289.438 190.484,290.6 192.568,292.682 		
			"/>
		<polygon fill="#869392" points="188.758,314.318 191.981,314.318 190.369,312.707 		"/>
		<polygon fill="#869392" points="184.359,314.318 187.582,314.318 185.971,312.707 		"/>
		<polygon fill="#869392" points="183.001,309.738 183.151,310.896 183.656,310.393 		"/>
		<polygon fill="#869392" points="183.771,310.508 183.177,311.104 183.592,314.318 184.128,314.318 185.855,312.592 		"/>
		<polygon fill="#869392" points="185.855,290.6 184.694,289.438 182.85,289.438 181.688,290.6 183.771,292.682 		"/>
		<polygon fill="#869392" points="197.889,306.799 198.127,304.951 197.083,305.994 		"/>
		<polygon fill="#869392" points="196.968,301.479 198.812,299.635 198.866,299.211 196.967,297.312 194.884,299.396 		"/>
		<polygon fill="#869392" points="199.395,295.109 199.428,294.852 199.283,294.996 		"/>
		<polygon fill="#869392" points="198.391,302.902 198.777,299.9 197.084,301.596 		"/>
		<polygon fill="#869392" points="181.572,294.882 183.656,292.798 181.572,290.715 180.666,291.621 181.014,294.324 		"/>
		
			<rect x="193.294" y="295.72" transform="matrix(-0.7071 -0.7071 0.7071 -0.7071 122.3425 645.0626)" fill="#869392" width="2.947" height="2.947"/>
		<polygon fill="#E9F1F4" points="199.051,290.6 199.166,290.482 198.121,289.438 197.889,289.438 		"/>
		<polygon fill="#E9F1F4" points="199.166,290.715 199.871,291.418 199.896,291.213 199.283,290.6 		"/>
		<polygon fill="#E9F1F4" points="199.166,295.113 199.369,295.314 199.395,295.109 199.283,294.996 		"/>
		
			<rect x="197.989" y="292.425" transform="matrix(0.7071 -0.7071 0.7071 0.7071 -149.8033 226.1376)" fill="#E9F1F4" width="0.163" height="2.945"/>
		
			<rect x="195.784" y="290.234" transform="matrix(0.7026 -0.7115 0.7115 0.7026 -149.3195 226.107)" fill="#E9F1F4" width="0.165" height="2.945"/>
		<polygon fill="#E9F1F4" points="193.723,289.438 193.49,289.438 194.652,290.6 194.768,290.482 		"/>
		
			<rect x="192.178" y="293.809" transform="matrix(-0.7069 -0.7074 0.7074 -0.7069 122.6509 638.6121)" fill="#E9F1F4" width="2.948" height="0.164"/>
		<polygon fill="#E9F1F4" points="189.324,289.438 189.092,289.438 190.254,290.6 190.369,290.482 		"/>
		
			<rect x="189.981" y="291.611" transform="matrix(-0.7074 -0.7068 0.7068 -0.7074 120.7351 633.3617)" fill="#E9F1F4" width="2.946" height="0.163"/>
		
			<rect x="195.801" y="294.63" transform="matrix(0.6996 -0.7145 0.7145 0.6996 -152.7306 228.9026)" fill="#E9F1F4" width="0.164" height="2.947"/>
		<polygon fill="#E9F1F4" points="198.866,299.211 198.893,299.006 197.083,297.197 196.967,297.312 		"/>
		
			<rect x="185.615" y="291.617" transform="matrix(-0.7073 -0.7069 0.7069 -0.7073 113.1961 630.2683)" fill="#E9F1F4" width="2.945" height="0.163"/>
		
			<rect x="192.212" y="298.214" transform="matrix(-0.7073 -0.7069 0.7069 -0.7073 119.7956 646.1963)" fill="#E9F1F4" width="2.945" height="0.164"/>
		
			<rect x="195.789" y="299.023" transform="matrix(0.7056 -0.7086 0.7086 0.7056 -155.2689 227.2541)" fill="#E9F1F4" width="0.164" height="2.947"/>
		<polygon fill="#E9F1F4" points="184.925,289.438 184.694,289.438 185.855,290.6 185.971,290.482 		"/>
		
			<rect x="189.979" y="296.007" transform="matrix(-0.7069 -0.7074 0.7074 -0.7069 117.3425 640.8068)" fill="#E9F1F4" width="2.948" height="0.165"/>
		<polygon fill="#E9F1F4" points="196.968,301.711 198.363,303.107 198.391,302.902 197.084,301.596 		"/>
		
			<rect x="187.796" y="293.813" transform="matrix(-0.7071 -0.7071 0.7071 -0.7071 115.2893 635.5435)" fill="#E9F1F4" width="2.947" height="0.164"/>
		
			<rect x="187.797" y="298.211" transform="matrix(-0.7071 -0.7071 0.7071 -0.7071 112.18 643.0524)" fill="#E9F1F4" width="2.947" height="0.163"/>
		
			<rect x="185.598" y="296.011" transform="matrix(-0.707 -0.7072 0.7072 -0.707 109.942 637.7335)" fill="#E9F1F4" width="2.947" height="0.164"/>
		
			<rect x="183.39" y="293.811" transform="matrix(-0.7071 -0.7071 0.7071 -0.7071 107.7684 632.4253)" fill="#E9F1F4" width="2.947" height="0.164"/>
		
			<rect x="181.195" y="291.637" transform="matrix(-0.7074 -0.7069 0.7069 -0.7074 105.6741 627.1874)" fill="#E9F1F4" width="2.945" height="0.163"/>
		<polygon fill="#E9F1F4" points="196.967,306.109 197.861,307.004 197.889,306.799 197.083,305.994 		"/>
		
			<rect x="192.212" y="302.613" transform="matrix(-0.7073 -0.7069 0.7069 -0.7073 116.6854 653.7063)" fill="#E9F1F4" width="2.945" height="0.164"/>
		
			<rect x="190.013" y="300.414" transform="matrix(-0.7074 -0.7069 0.7069 -0.7074 114.5266 648.4071)" fill="#E9F1F4" width="2.947" height="0.164"/>
		<polygon fill="#E9F1F4" points="181.572,290.482 180.526,289.438 180.384,289.438 180.397,289.539 181.457,290.6 		"/>
		
			<rect x="194.393" y="304.816" transform="matrix(0.7073 0.7069 -0.7069 0.7073 272.8803 -49.2138)" fill="#E9F1F4" width="2.947" height="0.163"/>
		
			<rect x="185.614" y="300.415" transform="matrix(-0.7072 -0.707 0.707 -0.7072 106.937 645.2796)" fill="#E9F1F4" width="2.948" height="0.163"/>
		
			<rect x="183.39" y="298.21" transform="matrix(-0.7069 -0.7074 0.7074 -0.7069 104.5386 639.9058)" fill="#E9F1F4" width="2.948" height="0.163"/>
		
			<rect x="191.384" y="303.421" transform="matrix(-0.7071 0.7071 -0.7071 -0.7071 542.4443 385.1013)" fill="#E9F1F4" width="0.163" height="2.947"/>
		
			<rect x="187.782" y="302.607" transform="matrix(-0.7074 -0.7068 0.7068 -0.7074 109.2083 650.5825)" fill="#E9F1F4" width="2.946" height="0.163"/>
		<polygon fill="#E9F1F4" points="181.572,294.882 181.014,294.324 181.048,294.589 181.457,294.998 		"/>
		
			<rect x="193.584" y="305.628" transform="matrix(-0.7086 0.7056 -0.7056 -0.7086 547.5941 388.0544)" fill="#E9F1F4" width="0.165" height="2.947"/>
		<polygon fill="#E9F1F4" points="196.967,310.508 197.359,310.9 197.386,310.695 197.083,310.393 		"/>
		
			<rect x="194.392" y="309.215" transform="matrix(0.7071 0.7071 -0.7071 0.7071 276.0737 -47.907)" fill="#E9F1F4" width="2.947" height="0.163"/>
		
			<rect x="181.195" y="296.036" transform="matrix(-0.7073 -0.7069 0.7069 -0.7073 102.5258 634.6879)" fill="#E9F1F4" width="2.945" height="0.163"/>
		
			<rect x="186.988" y="303.429" transform="matrix(-0.7101 0.7041 -0.7041 -0.7101 534.5912 389.6899)" fill="#E9F1F4" width="0.164" height="2.947"/>
		
			<rect x="193.57" y="310.02" transform="matrix(-0.713 0.7011 -0.7011 -0.713 550.131 397.8179)" fill="#E9F1F4" width="0.164" height="2.947"/>
		
			<rect x="183.394" y="302.634" transform="matrix(-0.7074 -0.7069 0.7069 -0.7074 101.6565 647.5182)" fill="#E9F1F4" width="2.945" height="0.163"/>
		<polygon fill="#E9F1F4" points="194.768,312.707 196.38,314.318 196.611,314.318 194.884,312.592 		"/>
		
			<rect x="189.19" y="305.611" transform="matrix(-0.7056 0.7086 -0.7086 -0.7056 540.4235 389.6524)" fill="#E9F1F4" width="0.164" height="2.947"/>
		
			<rect x="191.385" y="307.828" transform="matrix(-0.7101 0.7041 -0.7041 -0.7101 545.2083 394.1153)" fill="#E9F1F4" width="0.164" height="2.947"/>
		<polygon fill="#E9F1F4" points="183.656,301.596 183.772,301.479 181.688,299.396 181.67,299.414 181.699,299.639 		"/>
		
			<rect x="189.186" y="310.027" transform="matrix(-0.7101 0.7041 -0.7041 -0.7101 542.9971 399.4251)" fill="#E9F1F4" width="0.164" height="2.947"/>
		
			<rect x="186.985" y="307.818" transform="matrix(-0.7071 0.7071 -0.7071 -0.7071 538.0453 395.7173)" fill="#E9F1F4" width="0.163" height="2.947"/>
		
			<rect x="184.788" y="305.614" transform="matrix(-0.7086 0.7056 -0.7056 -0.7086 532.5532 394.2433)" fill="#E9F1F4" width="0.163" height="2.947"/>
		<polygon fill="#E9F1F4" points="183.771,305.879 182.316,304.422 182.35,304.688 183.656,305.993 		"/>
		<polygon fill="#E9F1F4" points="190.485,312.592 190.369,312.707 191.981,314.318 192.213,314.318 		"/>
		<polygon fill="#E9F1F4" points="187.814,314.318 186.087,312.592 185.971,312.707 187.582,314.318 187.761,314.318 		"/>
		
			<rect x="184.787" y="310.021" transform="matrix(-0.7086 0.7056 -0.7056 -0.7086 535.6597 401.7739)" fill="#E9F1F4" width="0.163" height="2.947"/>
		<polygon fill="#E9F1F4" points="183.771,310.277 182.967,309.473 183.001,309.738 183.656,310.393 		"/>
		<polygon fill="#E9F1F4" points="181.688,290.6 182.85,289.438 182.618,289.438 181.572,290.482 		"/>
		<polygon fill="#E9F1F4" points="181.572,290.715 181.457,290.6 180.639,291.416 180.666,291.621 		"/>
		
			<rect x="181.47" y="290.511" transform="matrix(-0.7026 0.7115 -0.7115 -0.7026 515.8876 365.5939)" fill="#E9F1F4" width="0.165" height="0.163"/>
		
			<rect x="184.791" y="290.222" transform="matrix(-0.7071 -0.7071 0.7071 -0.7071 109.3371 628.6795)" fill="#E9F1F4" width="0.163" height="2.947"/>
		<polygon fill="#E9F1F4" points="186.087,290.6 187.248,289.438 187.018,289.438 185.971,290.482 		"/>
		
			<rect x="182.585" y="292.421" transform="matrix(-0.7056 -0.7086 0.7086 -0.7056 103.3076 630.7079)" fill="#E9F1F4" width="0.164" height="2.947"/>
		<polygon fill="#E9F1F4" points="181.572,295.113 181.457,294.998 181.141,295.312 181.168,295.518 		"/>
		
			<rect x="185.87" y="290.513" transform="matrix(-0.7041 -0.7101 0.7101 -0.7041 110.5495 627.2517)" fill="#E9F1F4" width="0.165" height="0.164"/>
		
			<rect x="183.684" y="292.712" transform="matrix(-0.7056 -0.7086 0.7086 -0.7056 105.963 629.6099)" fill="#E9F1F4" width="0.164" height="0.164"/>
		
			<rect x="181.493" y="294.913" transform="matrix(0.7071 -0.7071 0.7071 0.7071 -155.4114 214.7949)" fill="#E9F1F4" width="0.163" height="0.164"/>
		
			<rect x="186.981" y="292.422" transform="matrix(-0.7041 -0.7101 0.7101 -0.7041 110.0863 633.6626)" fill="#E9F1F4" width="0.164" height="2.947"/>
		
			<rect x="189.189" y="290.222" transform="matrix(-0.7071 -0.7071 0.7071 -0.7071 116.8456 631.7887)" fill="#E9F1F4" width="0.163" height="2.946"/>
		
			<rect x="184.788" y="294.606" transform="matrix(-0.7011 -0.713 0.713 -0.7011 103.3787 635.4908)" fill="#E9F1F4" width="0.164" height="2.947"/>
		<polygon fill="#E9F1F4" points="190.484,290.6 191.646,289.438 191.416,289.438 190.369,290.482 		"/>
		<polygon fill="#E9F1F4" points="181.688,299.396 183.771,297.312 183.656,297.197 181.644,299.209 181.665,299.373 		"/>
		
			<rect x="190.286" y="290.501" transform="matrix(-0.7011 -0.713 0.713 -0.7011 116.6512 630.0597)" fill="#E9F1F4" width="0.164" height="0.164"/>
		
			<rect x="188.08" y="292.714" transform="matrix(-0.7011 -0.713 0.713 -0.7011 111.3197 632.2509)" fill="#E9F1F4" width="0.164" height="0.164"/>
		
			<rect x="185.886" y="294.914" transform="matrix(-0.7116 -0.7025 0.7025 -0.7116 111.0584 635.5748)" fill="#E9F1F4" width="0.161" height="0.162"/>
		
			<rect x="183.692" y="297.094" transform="matrix(-0.7041 -0.7101 0.7101 -0.7041 102.1651 636.9223)" fill="#E9F1F4" width="0.165" height="0.165"/>
		<polygon fill="#E9F1F4" points="181.665,299.373 181.67,299.414 181.688,299.396 		"/>
		
			<rect x="191.38" y="292.423" transform="matrix(-0.7086 -0.7056 0.7056 -0.7086 119.7542 637.2485)" fill="#E9F1F4" width="0.163" height="2.948"/>
		
			<rect x="193.587" y="290.222" transform="matrix(-0.7071 -0.7071 0.7071 -0.7071 124.3537 634.8976)" fill="#E9F1F4" width="0.163" height="2.945"/>
		
			<rect x="189.186" y="294.606" transform="matrix(-0.7011 -0.713 0.713 -0.7011 110.8602 638.6266)" fill="#E9F1F4" width="0.164" height="2.947"/>
		<polygon fill="#E9F1F4" points="194.884,290.6 196.046,289.438 195.814,289.438 194.768,290.482 		"/>
		
			<rect x="186.99" y="296.82" transform="matrix(-0.7071 -0.7071 0.7071 -0.7071 108.4261 641.4975)" fill="#E9F1F4" width="0.163" height="2.947"/>
		
			<rect x="184.791" y="299.02" transform="matrix(-0.7071 -0.7071 0.7071 -0.7071 103.116 643.6974)" fill="#E9F1F4" width="0.163" height="2.946"/>
		<polygon fill="#E9F1F4" points="183.772,301.711 183.656,301.596 182.146,303.105 182.172,303.311 		"/>
		
			<rect x="194.666" y="290.513" transform="matrix(-0.7041 -0.7101 0.7101 -0.7041 125.5402 633.4979)" fill="#E9F1F4" width="0.165" height="0.164"/>
		
			<rect x="192.487" y="292.713" transform="matrix(-0.7071 -0.7071 0.7071 -0.7071 121.6995 635.9984)" fill="#E9F1F4" width="0.164" height="0.164"/>
		
			<rect x="190.29" y="294.925" transform="matrix(-0.7101 -0.7041 0.7041 -0.7101 117.8323 638.5285)" fill="#E9F1F4" width="0.164" height="0.162"/>
		
			<rect x="188.087" y="297.098" transform="matrix(-0.7011 -0.713 0.713 -0.7011 108.2057 639.7152)" fill="#E9F1F4" width="0.164" height="0.164"/>
		
			<rect x="185.89" y="299.311" transform="matrix(-0.7071 -0.7071 0.7071 -0.7071 105.7702 642.5966)" fill="#E9F1F4" width="0.163" height="0.163"/>
		
			<rect x="183.682" y="301.512" transform="matrix(-0.7041 -0.7101 0.7101 -0.7041 98.9976 644.4395)" fill="#E9F1F4" width="0.164" height="0.164"/>
		
			<rect x="186.99" y="301.218" transform="matrix(-0.7071 -0.7071 0.7071 -0.7071 105.3163 649.0052)" fill="#E9F1F4" width="0.163" height="2.946"/>
		<polygon fill="#E9F1F4" points="182.648,307.002 182.675,307.207 183.771,306.109 183.656,305.993 		"/>
		
			<rect x="183.395" y="304.812" transform="matrix(-0.707 0.7072 -0.7072 -0.707 531.1923 389.7236)" fill="#E9F1F4" width="2.947" height="0.163"/>
		
			<rect x="194.402" y="293.799" transform="matrix(0.7074 -0.7068 0.7068 0.7074 -150.4023 224.4173)" fill="#E9F1F4" width="2.944" height="0.164"/>
		
			<rect x="196.597" y="291.618" transform="matrix(0.7071 -0.7071 0.7071 0.7071 -148.2494 225.4937)" fill="#E9F1F4" width="2.946" height="0.163"/>
		
			<rect x="189.189" y="299.019" transform="matrix(-0.7071 -0.7071 0.7071 -0.7071 110.6245 646.8065)" fill="#E9F1F4" width="0.163" height="2.947"/>
		
			<rect x="193.585" y="294.607" transform="matrix(-0.6996 -0.7145 0.7145 -0.6996 117.6097 641.6025)" fill="#E9F1F4" width="0.164" height="2.947"/>
		
			<rect x="191.388" y="296.82" transform="matrix(-0.7071 -0.7071 0.7071 -0.7071 115.9339 644.6073)" fill="#E9F1F4" width="0.163" height="2.947"/>
		<polygon fill="#E9F1F4" points="199.283,290.6 200.08,289.802 200.113,289.537 199.166,290.482 		"/>
		
			<rect x="199.085" y="290.514" transform="matrix(-0.7042 -0.71 0.71 -0.7042 133.0828 636.6399)" fill="#E9F1F4" width="0.166" height="0.164"/>
		
			<rect x="196.888" y="292.717" transform="matrix(0.7101 -0.7041 0.7041 0.7101 -149.0599 223.577)" fill="#E9F1F4" width="0.164" height="0.163"/>
		
			<rect x="194.689" y="294.925" transform="matrix(-0.7131 -0.7011 0.7011 -0.7131 126.83 641.9189)" fill="#E9F1F4" width="0.163" height="0.162"/>
		
			<rect x="192.466" y="297.11" transform="matrix(-0.7041 -0.7101 0.7101 -0.7041 117.106 643.179)" fill="#E9F1F4" width="0.165" height="0.164"/>
		
			<rect x="190.289" y="299.312" transform="matrix(-0.7071 -0.7071 0.7071 -0.7071 113.2789 645.7087)" fill="#E9F1F4" width="0.163" height="0.163"/>
		
			<rect x="188.08" y="301.512" transform="matrix(-0.7086 -0.7056 0.7056 -0.7086 108.6849 648.0727)" fill="#E9F1F4" width="0.163" height="0.165"/>
		
			<rect x="185.874" y="303.704" transform="matrix(-0.6996 0.7145 -0.7145 -0.6996 533.1131 383.4542)" fill="#E9F1F4" width="0.164" height="0.163"/>
		
			<rect x="183.694" y="305.911" transform="matrix(-0.7086 0.7056 -0.7056 -0.7086 529.911 393.1459)" fill="#E9F1F4" width="0.163" height="0.164"/>
		<polygon fill="#E9F1F4" points="199.428,294.852 199.463,294.586 199.166,294.881 199.283,294.996 		"/>
		<polygon fill="#E9F1F4" points="183.656,310.393 183.151,310.896 183.177,311.104 183.771,310.508 		"/>
		
			<rect x="187.793" y="304.812" transform="matrix(-0.707 0.7072 -0.7072 -0.707 538.699 386.6128)" fill="#E9F1F4" width="2.947" height="0.162"/>
		
			<rect x="194.398" y="298.216" transform="matrix(0.7071 -0.7071 0.7071 0.7071 -153.5589 225.8707)" fill="#E9F1F4" width="2.946" height="0.163"/>
		
			<rect x="191.388" y="301.218" transform="matrix(-0.7071 -0.7071 0.7071 -0.7071 112.8244 652.1143)" fill="#E9F1F4" width="0.163" height="2.945"/>
		
			<rect x="193.578" y="299.021" transform="matrix(-0.7056 -0.7086 0.7086 -0.7056 117.3813 649.754)" fill="#E9F1F4" width="0.164" height="2.947"/>
		
			<rect x="184.791" y="307.815" transform="matrix(-0.7071 -0.7071 0.7071 -0.7071 96.8968 658.7141)" fill="#E9F1F4" width="0.163" height="2.947"/>
		
			<rect x="196.594" y="296.033" transform="matrix(0.7069 -0.7073 0.7073 0.7069 -151.3889 226.8665)" fill="#E9F1F4" width="2.947" height="0.164"/>
		
			<rect x="185.593" y="307.01" transform="matrix(-0.7071 0.7071 -0.7071 -0.7071 536.4902 391.9631)" fill="#E9F1F4" width="2.947" height="0.164"/>
		
			<rect x="199.086" y="294.916" transform="matrix(0.7086 -0.7056 0.7056 0.7086 -150.1178 226.5105)" fill="#E9F1F4" width="0.166" height="0.164"/>
		
			<rect x="196.886" y="297.106" transform="matrix(0.7101 -0.7041 0.7041 0.7101 -152.1512 224.8484)" fill="#E9F1F4" width="0.164" height="0.165"/>
		
			<rect x="194.687" y="299.31" transform="matrix(-0.7056 -0.7086 0.7086 -0.7056 120.0531 648.6599)" fill="#E9F1F4" width="0.164" height="0.163"/>
		
			<rect x="192.487" y="301.511" transform="matrix(-0.7071 -0.7071 0.7071 -0.7071 115.4781 651.0181)" fill="#E9F1F4" width="0.164" height="0.164"/>
		
			<rect x="190.272" y="303.704" transform="matrix(-0.6996 0.7145 -0.7145 -0.6996 540.5883 380.3127)" fill="#E9F1F4" width="0.164" height="0.164"/>
		
			<rect x="188.09" y="305.907" transform="matrix(-0.7086 0.7056 -0.7056 -0.7086 537.4165 390.0443)" fill="#E9F1F4" width="0.162" height="0.164"/>
		
			<rect x="185.89" y="308.103" transform="matrix(-0.7011 0.713 -0.713 -0.7011 536.108 391.6624)" fill="#E9F1F4" width="0.164" height="0.163"/>
		
			<rect x="183.686" y="310.313" transform="matrix(-0.7086 0.7056 -0.7056 -0.7086 533.0037 400.6714)" fill="#E9F1F4" width="0.163" height="0.163"/>
		
			<rect x="194.398" y="302.614" transform="matrix(0.7072 -0.707 0.707 0.7072 -156.6604 227.1183)" fill="#E9F1F4" width="2.946" height="0.164"/>
		
			<rect x="185.594" y="311.41" transform="matrix(-0.707 0.7072 -0.7072 -0.707 539.6118 399.4319)" fill="#E9F1F4" width="2.947" height="0.164"/>
		
			<rect x="192.192" y="304.812" transform="matrix(-0.7071 0.7071 -0.7071 -0.7071 546.2 383.5446)" fill="#E9F1F4" width="2.947" height="0.164"/>
		<polygon fill="#E9F1F4" points="198.777,299.9 198.812,299.635 196.968,301.479 197.084,301.596 		"/>
		
			<rect x="189.992" y="307.011" transform="matrix(-0.7071 0.7071 -0.7071 -0.7071 544.0007 388.854)" fill="#E9F1F4" width="2.947" height="0.164"/>
		
			<rect x="187.793" y="309.21" transform="matrix(-0.707 0.7072 -0.7072 -0.707 541.8106 394.1225)" fill="#E9F1F4" width="2.947" height="0.164"/>
		<polygon fill="#E9F1F4" points="185.855,312.592 184.128,314.318 184.359,314.318 185.971,312.707 		"/>
		
			<rect x="196.888" y="301.506" transform="matrix(0.7116 -0.7026 0.7026 0.7116 -155.0891 225.3867)" fill="#E9F1F4" width="0.164" height="0.164"/>
		
			<rect x="194.686" y="303.716" transform="matrix(0.7071 0.7071 -0.7071 0.7071 271.8638 -48.7407)" fill="#E9F1F4" width="0.163" height="0.164"/>
		
			<rect x="192.484" y="305.913" transform="matrix(-0.7071 0.7071 -0.7071 -0.7071 545.1003 386.2003)" fill="#E9F1F4" width="0.163" height="0.163"/>
		
			<rect x="190.285" y="308.111" transform="matrix(-0.7071 0.7071 -0.7071 -0.7071 542.9004 391.5081)" fill="#E9F1F4" width="0.163" height="0.163"/>
		
			<rect x="188.085" y="310.311" transform="matrix(-0.7071 0.7071 -0.7071 -0.7071 540.7002 396.8198)" fill="#E9F1F4" width="0.163" height="0.163"/>
		
			<rect x="185.889" y="312.513" transform="matrix(0.7071 0.7071 -0.7071 0.7071 275.5076 -39.9438)" fill="#E9F1F4" width="0.163" height="0.164"/>
		
			<rect x="195.777" y="305.619" transform="matrix(0.7101 0.7041 -0.7041 0.7101 273.0114 -48.8764)" fill="#E9F1F4" width="0.164" height="2.947"/>
		
			<rect x="189.988" y="311.426" transform="matrix(-0.7071 0.7071 -0.7071 -0.7071 547.1155 396.3939)" fill="#E9F1F4" width="2.947" height="0.164"/>
		
			<rect x="192.192" y="309.21" transform="matrix(-0.7071 0.7071 -0.7071 -0.7071 549.3101 391.0533)" fill="#E9F1F4" width="2.947" height="0.164"/>
		<polygon fill="#E9F1F4" points="196.967,305.879 197.083,305.994 198.127,304.951 198.16,304.686 		"/>
		<polygon fill="#E9F1F4" points="190.254,312.592 188.526,314.318 188.758,314.318 190.369,312.707 		"/>
		
			<rect x="196.882" y="305.913" transform="matrix(-0.7071 0.7071 -0.7071 -0.7071 552.608 383.0905)" fill="#E9F1F4" width="0.163" height="0.163"/>
		
			<rect x="194.686" y="308.114" transform="matrix(0.7071 0.7071 -0.7071 0.7071 274.9734 -47.4528)" fill="#E9F1F4" width="0.163" height="0.164"/>
		
			<rect x="192.483" y="310.31" transform="matrix(-0.7071 0.7071 -0.7071 -0.7071 548.2089 393.7076)" fill="#E9F1F4" width="0.163" height="0.163"/>
		
			<rect x="190.288" y="312.506" transform="matrix(-0.7086 -0.7056 0.7056 -0.7086 104.7008 668.4156)" fill="#E9F1F4" width="0.163" height="0.164"/>
		
			<rect x="195.784" y="310.022" transform="matrix(0.7056 0.7086 -0.7086 0.7056 278.3836 -47.0905)" fill="#E9F1F4" width="0.164" height="2.947"/>
		<polygon fill="#E9F1F4" points="194.652,312.592 192.925,314.318 193.156,314.318 194.768,312.707 		"/>
		<polygon fill="#E9F1F4" points="196.967,310.277 197.083,310.393 197.475,310 197.51,309.734 		"/>
		
			<rect x="196.887" y="310.302" transform="matrix(0.7116 -0.7026 0.7026 0.7116 -161.2704 227.923)" fill="#E9F1F4" width="0.164" height="0.164"/>
		
			<rect x="194.687" y="312.506" transform="matrix(-0.7101 -0.7041 0.7041 -0.7101 112.9715 671.6931)" fill="#E9F1F4" width="0.164" height="0.165"/>
	</g>
	<g>
		<path fill="#FFFFFF" d="M510.808,202.701v-18.619h-28.923v18.619h-8.08h-15.621h-12.098v-27.934h-17.325v16.713h-17.325v41.69
			h34.65v-20.479h9.99v20.479h54.804V202.7L510.808,202.701L510.808,202.701z M417.979,226.507h-1.229v-2.71h1.229V226.507z
			 M417.979,217.711h-1.229v-2.71h1.229V217.711z M417.979,208.916h-1.229v-2.711h1.229V208.916z M417.979,200.12h-1.229v-2.71
			h1.229V200.12z M425.639,226.507h-1.229v-2.71h1.229V226.507z M425.639,217.711h-1.229v-2.71h1.229V217.711z M425.639,208.916
			h-1.229v-2.711h1.229V208.916z M425.639,200.12h-1.229v-2.71h1.229V200.12z M433.297,226.507h-1.228v-2.71h1.228V226.507z
			 M433.297,217.711h-1.228v-2.71h1.228V217.711z M433.297,208.916h-1.228v-2.711h1.228V208.916z M433.297,200.12h-1.228v-2.71
			h1.228V200.12z M433.297,191.324h-1.228v-2.71h1.228V191.324z M433.297,182.529h-1.228v-2.711h1.228V182.529z M440.957,226.507
			h-1.229v-2.71h1.229V226.507z M440.957,217.711h-1.229v-2.71h1.229V217.711z M440.957,208.916h-1.229v-2.711h1.229V208.916z
			 M440.957,200.12h-1.229v-2.71h1.229V200.12z M440.957,191.324h-1.229v-2.71h1.229V191.324z M440.957,182.529h-1.229v-2.711h1.229
			V182.529z M448.506,208.992h-1.248v-3.246h1.248V208.992z M460.529,227.229h-1.248v-3.246h1.248V227.229z M460.529,218.109h-1.248
			v-3.246h1.248V218.109z M460.529,208.992h-1.248v-3.246h1.248V208.992z M469.273,227.229h-1.249v-3.246h1.249V227.229z
			 M469.273,218.109h-1.249v-3.246h1.249V218.109z M469.273,208.992h-1.249v-3.246h1.249V208.992z M478.016,227.229h-1.248v-3.246
			h1.248V227.229z M478.016,218.109h-1.248v-3.246h1.248V218.109z M478.016,208.992h-1.248v-3.246h1.248V208.992z M488.774,227.229
			h-1.249v-3.246h1.249V227.229z M488.774,218.109h-1.249v-3.246h1.249V218.109z M488.774,208.992h-1.249v-3.246h1.249V208.992z
			 M488.774,199.875h-1.249v-3.246h1.249V199.875z M488.774,190.758h-1.249v-3.247h1.249V190.758z M497.518,227.229h-1.248v-3.246
			h1.248V227.229z M497.518,218.109h-1.248v-3.246h1.248V218.109z M497.518,208.992h-1.248v-3.246h1.248V208.992z M497.518,199.875
			h-1.248v-3.246h1.248V199.875z M497.518,190.758h-1.248v-3.247h1.248V190.758z M506.261,227.229h-1.249v-3.246h1.249V227.229z
			 M506.261,218.109h-1.249v-3.246h1.249V218.109z M506.261,208.992h-1.249v-3.246h1.249V208.992z M506.261,199.875h-1.249v-3.246
			h1.249V199.875z M506.261,190.758h-1.249v-3.247h1.249V190.758z"/>
		<g>
			<polygon fill="#DB4928" points="481.591,184.311 479.766,184.311 480.374,181.629 481.591,181.629 			"/>
			<polygon fill="#DB4928" points="511.547,184.311 513.371,184.311 512.764,181.629 511.547,181.629 			"/>
			<rect x="481.354" y="181.629" fill="#DB4928" width="30.721" height="2.682"/>
		</g>
		<polygon fill="#DB4928" points="447.258,174.768 427.584,174.768 437.421,168.273 437.421,168.273 		"/>
		<circle fill="#D4F1F4" cx="437.222" cy="172.145" r="1.562"/>
	</g>
	<g>
		<polygon fill="#A08435" points="763.622,254.139 761.401,253.246 747.469,315.021 749.891,315.021 		"/>
		<polygon fill="#A08435" points="808.85,253.246 806.631,254.139 820.36,315.021 822.782,315.021 		"/>
	</g>
	<rect x="730.543" y="128.111" fill="#BAA665" width="109.799" height="132.525"/>
	<rect x="738.155" y="137.078" fill="#FFFFFF" width="94.061" height="108.449"/>
	<g>
		<circle fill="none" stroke="#58666D" stroke-width="0.2045" stroke-miterlimit="10" cx="789.41" cy="178.485" r="19.669"/>
		<circle fill="none" stroke="#58666D" stroke-width="0.2045" stroke-miterlimit="10" cx="808.055" cy="156.978" r="8.645"/>
		
			<rect x="769.741" y="178.486" fill="none" stroke="#58666D" stroke-width="0.2045" stroke-miterlimit="10" width="39.338" height="59.342"/>
		<polygon fill="none" stroke="#58666D" stroke-width="0.2045" stroke-miterlimit="10" points="763.622,162.33 743.377,162.33 
			753.5,156.978 753.5,156.978 		"/>
		
			<rect x="787.771" y="178.363" fill="none" stroke="#58666D" stroke-width="0.2045" stroke-miterlimit="10" width="2.687" height="59.465"/>
		
			<rect x="769.741" y="223.258" fill="none" stroke="#58666D" stroke-width="0.2045" stroke-miterlimit="10" width="39.338" height="1.025"/>
		
			<rect x="769.741" y="205.199" fill="none" stroke="#58666D" stroke-width="0.2045" stroke-miterlimit="10" width="39.338" height="1.027"/>
		
			<rect x="769.741" y="191.049" fill="none" stroke="#58666D" stroke-width="0.2045" stroke-miterlimit="10" width="39.338" height="1.027"/>
		
			<rect x="746.225" y="162.329" fill="none" stroke="#58666D" stroke-width="0.2045" stroke-miterlimit="10" width="14.312" height="32.401"/>
	</g>
	<g>
		<g>
			
				<path fill="none" stroke="#BF621D" stroke-width="1.7377" stroke-linecap="round" stroke-linejoin="round" stroke-miterlimit="10" d="
				M257.936,149.861c0,10.157-8.234,18.391-18.391,18.391c-10.157,0-18.391-8.234-18.391-18.391"/>
			<path fill="none" stroke="#BF621D" stroke-width="1.7377" stroke-linecap="square" stroke-miterlimit="10" d="M229.553,313.871
				c0-5.52,4.474-9.992,9.992-9.992s9.992,4.473,9.992,9.992"/>
			
				<line fill="none" stroke="#BF621D" stroke-width="1.7377" stroke-linecap="round" stroke-linejoin="round" stroke-miterlimit="10" x1="239.545" y1="144.975" x2="239.545" y2="303.029"/>
		</g>
		
			<line fill="none" stroke="#BF621D" stroke-width="1.7377" stroke-miterlimit="10" x1="239.545" y1="314.389" x2="239.545" y2="302.227"/>
	</g>
	<g>
		<rect x="698.642" y="230.763" display="none" fill="#202E42" width="7.755" height="9.932"/>
		<rect x="670.891" y="230.763" display="none" fill="#202E42" width="7.754" height="9.932"/>
		<g>
			
				<rect x="705.509" y="234.439" transform="matrix(0.9767 0.2145 -0.2145 0.9767 70.1118 -145.7842)" fill="#9B9B9B" width="2.258" height="31.303"/>
			<path fill="#005493" d="M708.466,256.53c-0.399,1.713-2.112,2.779-3.824,2.379l0,0c-1.715-0.398-2.779-2.113-2.38-3.826
				l13.573-58.164c0.399-1.713,2.111-2.777,3.826-2.378l0,0c1.713,0.399,2.776,2.113,2.378,3.825L708.466,256.53z"/>
		</g>
		<g>
			<g>
				<rect x="676.432" y="290.714" fill="#9B9B9B" width="5.999" height="15.762"/>
				<rect x="678.302" y="262.538" fill="#9B9B9B" width="2.26" height="31.303"/>
				<g>
					
						<rect x="687.176" y="298.064" transform="matrix(0.2707 -0.9627 0.9627 0.2707 205.2885 886.8755)" fill="#9B9B9B" width="1.656" height="19.757"/>
					
						<rect x="670.052" y="298.063" transform="matrix(-0.2718 -0.9623 0.9623 -0.2718 556.9052 1037.2699)" fill="#9B9B9B" width="1.656" height="19.759"/>
					<circle fill="#9B9B9B" cx="661.578" cy="312.31" r="2.5"/>
					<circle fill="#9B9B9B" cx="697.286" cy="312.31" r="2.5"/>
				</g>
				<rect x="678.517" y="304.997" fill="#9B9B9B" width="1.831" height="6.42"/>
				<rect x="677.489" y="309.823" fill="#9B9B9B" width="3.884" height="4.986"/>
			</g>
			<path fill="#0085BA" d="M705.95,265.624c0,1.979-1.605,3.582-3.586,3.582h-45.868c-1.978,0-3.582-1.604-3.582-3.582l0,0
				c0-1.982,1.604-3.584,3.582-3.584h45.868C704.345,262.04,705.95,263.642,705.95,265.624L705.95,265.624z"/>
		</g>
		<g display="none">
			<g display="inline">
				<path fill="#2C313A" d="M628.601,313.563c0.638-1.9,1.24-2.113,5.354-2.312l2.998-0.955c1.681-0.414,3.158-1.34,4.259-2.604
					c0.247-0.287,0.474-0.59,0.681-0.906c1.898,0.139,1.626,1.865,1.626,1.865h5.351v0.723v1.006v1.008v2.176v0.957v0.572h-5.891
					v-0.572v-0.953l-2.615,1.525h-12.013C628.351,314.558,628.439,314.044,628.601,313.563z"/>
				<rect x="639.935" y="257.306" fill="#202E42" width="8.935" height="51.643"/>
			</g>
			<path display="inline" fill="#1F2328" d="M640.025,313.563c0.639-1.9,1.24-2.113,5.355-2.312l2.997-0.955
				c1.681-0.414,3.159-1.34,4.26-2.604c0.246-0.287,0.474-0.59,0.68-0.906c1.898,0.139,1.627,1.865,1.627,1.865h5.35v0.723v1.006
				v1.008v2.176v0.957v0.572h-5.89v-0.572v-0.953l-2.616,1.525h-12.013C639.775,314.558,639.864,314.044,640.025,313.563z"/>
			<rect x="651.359" y="257.306" display="inline" fill="#202E42" width="8.935" height="51.643"/>
			<rect x="639.935" y="253.358" display="inline" fill="#202E42" width="50.851" height="8.932"/>
			<path display="inline" fill="#202E42" d="M676.395,254.024c0,4.566,3.702,8.266,8.268,8.266h6.257
				c4.567,0,8.268-3.699,8.268-8.266v-6.258c0-4.567-3.7-8.268-8.268-8.268h-6.257c-4.565,0-8.268,3.7-8.268,8.268V254.024z"/>
		</g>
		<g display="none">
			<path display="inline" fill="#F9B69B" d="M661.016,237.909L661.016,237.909h-2.389l0,0v6.902h-3.279h-4.326
				c-0.002,0-0.004,0-0.007,0s-0.005,0-0.008,0h-0.334v-0.033c-1.743-0.174-3.111-1.629-3.111-3.418
				c0-1.791,1.368-3.246,3.111-3.418v-0.033h0.334c0.003,0,0.005-0.002,0.008-0.002s0.005,0.002,0.007,0.002h3.542
				c-0.003-0.035-0.011-0.066-0.011-0.102c0-0.679,0.551-1.229,1.229-1.229s1.23,0.551,1.23,1.229c0,0.035-0.007,0.066-0.011,0.102
				h3.022H661.016z"/>
			<rect x="658.627" y="237.909" display="inline" fill="#FFFFFF" width="0" height="6.902"/>
			<polygon display="inline" fill="#FFFFFF" points="661.016,244.812 661.016,244.812 658.627,244.812 658.627,244.812 
				658.627,244.812 658.627,244.812 			"/>
			<polygon display="inline" fill="#FFFFFF" points="661.016,244.812 661.016,244.812 658.627,244.812 658.627,244.812 
				660.024,244.812 			"/>
			<polygon display="inline" opacity="0.3" fill="#84A8C1" points="661.016,244.812 661.016,244.812 658.627,244.812 
				658.627,244.812 660.024,244.812 			"/>
			<polygon display="inline" fill="#FFFFFF" points="661.016,243.784 661.016,244.812 660.024,244.812 658.627,244.812 
				658.627,237.909 661.016,237.909 			"/>
			<rect x="660.178" y="236.164" display="inline" fill="#202E42" width="32.478" height="9.062"/>
		</g>
		<g display="none">
			<path display="inline" fill="#F9B69B" d="M680.369,178.886l0.177-0.221h12.657v27.002l0,0v10.191h-9.658v-10.191l0,0v-0.01
				c0-2.116,0-2.116,0-2.646c0-1.234-1.41-1.41-1.41-1.41h-2.956v-11.645h-3.75L680.369,178.886z"/>
			<circle display="inline" fill="#2E3D49" cx="682.188" cy="183.065" r="0.519"/>
			<path display="inline" fill="#CE857C" d="M680.945,192.888c0.198,0,0.36-0.161,0.36-0.359h0.529c0,0.488-0.398,0.888-0.89,0.888
				h-1.767v-0.528H680.945z"/>
			<path display="inline" fill="none" d="M686.773,183.737c0,0.014-0.004,0.025-0.004,0.038v-0.038H686.773z"/>
			<g display="inline">
				<rect x="676.459" y="248.581" fill="#9B390D" width="22.759" height="2.008"/>
				<polygon fill="#202E42" points="678.696,250.589 678.696,248.581 679.716,248.581 679.716,250.589 693.334,250.589 
					693.334,248.581 694.355,248.581 694.355,250.589 699.218,250.589 699.218,253.358 676.459,253.358 676.459,250.589 				"/>
			</g>
			<polygon display="inline" fill="#FFFFFF" points="683.545,205.667 683.552,203.187 685.725,203.187 687.586,203.187 
				689.62,203.187 691.413,203.187 693.203,203.187 693.203,205.667 693.247,205.667 693.247,248.581 683.536,248.581 
				683.536,205.667 			"/>
			<path display="inline" opacity="0.3" fill="#84A8C1" d="M685.408,225.072c0,0.751-0.608,1.358-1.358,1.358h-5.318
				c-0.75,0-1.358-0.607-1.358-1.358v-7.095h8.035V225.072z"/>
			<polygon display="inline" fill="#BF2E2E" points="685.938,205.876 688.035,203.187 690.131,205.876 688.981,207.026 
				689.964,241.608 689.964,241.608 688.039,243.534 686.114,241.608 686.107,241.608 687.089,207.026 			"/>
			<path display="inline" fill="#303235" d="M679.354,172.813c1.509,0,2.733,1.223,2.733,2.733c0,0.177-0.021,0.349-0.054,0.517
				h11.805v15.129c0,0,0,0-1.367,0c-4.146,0-3.925-3.926-3.925-3.926v-1.719c0.04,0.004,0.077,0.013,0.117,0.013
				c0.962,0,1.741-0.78,1.741-1.741c0-0.963-0.779-1.742-1.741-1.742c-0.494,0-0.937,0.207-1.256,0.537v1.124v1.286v0.536h-1.856
				v-4.47c-0.631,0-1.562,0-2.96,0c-3.838,0-5.297-3.139-5.741-4.453c-0.146-0.334-0.229-0.703-0.229-1.091
				C676.62,174.036,677.844,172.813,679.354,172.813z"/>
			<polygon display="inline" fill="#344E68" points="681.576,205.655 680.881,208.114 682.089,209.649 680.513,211.225 
				683.536,233.411 683.536,211.488 683.536,209.382 683.536,205.655 			"/>
			<g display="inline">
				<path fill="#202E42" d="M695.162,205.655h5.538c3.146,0,5.696,2.549,5.696,5.694v0.013v4.161v0.012v16.524h-7.179v0.014v16.508
					v4.777h-0.564h-5.406v-4.777v-42.914v-0.012H695.162z"/>
				<path fill="#202E42" d="M676.582,205.667h5.539h1.415v42.914v4.777h-5.404h-1.673v-4.777V232.06h-5.568v-6.706v-5.927v-8.064
					C670.891,208.217,673.438,205.667,676.582,205.667z"/>
				<polygon fill="#344E68" points="695.162,205.655 695.859,208.114 694.65,209.649 696.227,211.225 693.203,233.411 
					693.203,211.488 693.203,209.382 693.203,205.655 				"/>
				<polygon fill="#344E68" points="681.576,205.655 680.881,208.114 682.089,209.649 680.513,211.225 683.536,233.411 
					683.536,211.488 683.536,209.382 683.536,205.655 				"/>
			</g>
		</g>
		<g display="none">
			<path display="inline" fill="#F9B69B" d="M682.706,236.123L682.706,236.123l-2.388,0.001h-0.001v6.902h-3.278h-4.326
				c-0.004,0-0.005,0-0.009,0c-0.003,0-0.005,0-0.007,0h-0.335v-0.034c-1.743-0.174-3.11-1.628-3.11-3.418s1.367-3.244,3.11-3.417
				v-0.034h0.335c0.002,0,0.004-0.001,0.007-0.001c0.004,0,0.005,0.001,0.009,0.001h3.543c-0.005-0.034-0.012-0.064-0.012-0.101
				c0-0.678,0.55-1.229,1.228-1.229c0.681,0,1.231,0.552,1.231,1.229c0,0.036-0.007,0.066-0.01,0.101h3.021H682.706z"/>
			<rect x="680.317" y="236.124" display="inline" fill="#FFFFFF" width="0.001" height="6.902"/>
			<polygon display="inline" fill="#FFFFFF" points="682.706,243.026 682.706,243.027 680.317,243.027 680.317,243.026 
				680.318,243.026 680.318,243.026 			"/>
			<polygon display="inline" fill="#FFFFFF" points="682.706,243.026 682.706,243.026 680.318,243.026 680.318,243.026 
				681.715,243.026 			"/>
			<polygon display="inline" opacity="0.3" fill="#84A8C1" points="682.706,243.026 682.706,243.026 680.318,243.026 
				680.318,243.026 681.715,243.026 			"/>
			<polygon display="inline" fill="#FFFFFF" points="682.706,241.999 682.706,243.026 681.715,243.026 680.318,243.026 
				680.318,236.124 682.706,236.124 			"/>
			<rect x="681.868" y="236.005" display="inline" fill="#202E42" width="24.528" height="9.061"/>
		</g>
	</g>
</g>
</svg>
