<?xml version="1.0" encoding="utf-8"?>
<!-- Generator: Adobe Illustrator 16.0.0, SVG Export Plug-In . SVG Version: 6.00 Build 0)  -->
<!DOCTYPE svg PUBLIC "-//W3C//DTD SVG 1.1//EN" "http://www.w3.org/Graphics/SVG/1.1/DTD/svg11.dtd">
<svg version="1.1" id="Layer_1" xmlns="http://www.w3.org/2000/svg" xmlns:xlink="http://www.w3.org/1999/xlink" x="0px" y="0px"
	 width="1054.598px" height="315.707px" viewBox="0 0 1054.598 315.707" enable-background="new 0 0 1054.598 315.707"
	 xml:space="preserve">
<rect x="42.157" y="51.521" fill="#B7D6E2" width="970.285" height="264.186"/>
<polyline fill="none" stroke="#B3C7CE" stroke-width="1.6358" stroke-linecap="round" stroke-linejoin="round" stroke-miterlimit="10" points="
	128.393,297.371 161.067,297.371 161.067,310.781 764.073,310.781 768.708,297.371 772.797,297.371 "/>
<g>
	<g>
		<rect x="231.514" y="99.047" fill="#55A1BF" width="61.967" height="40.024"/>
		<rect x="231.514" y="142.723" fill="#55A1BF" width="61.967" height="103.68"/>
		<rect x="297.131" y="99.047" fill="#55A1BF" width="61.967" height="40.024"/>
		<rect x="297.131" y="142.723" fill="#55A1BF" width="61.967" height="103.68"/>
		<rect x="293.48" y="99.047" fill="#FFFFFF" width="3.65" height="40.024"/>
		<rect x="293.48" y="142.723" fill="#FFFFFF" width="3.65" height="103.68"/>
		<rect x="231.514" y="139.071" fill="#FFFFFF" width="61.967" height="3.651"/>
		<rect x="297.131" y="139.071" fill="#FFFFFF" width="61.967" height="3.651"/>
		<rect x="293.48" y="139.071" fill="#FFFFFF" width="3.65" height="3.651"/>
		<rect x="225.375" y="246.088" fill="#FFFFFF" width="139.863" height="3.26"/>
	</g>
	<g>
		<rect x="462.403" y="99.047" fill="#55A1BF" width="61.966" height="40.024"/>
		<rect x="462.403" y="142.723" fill="#55A1BF" width="61.966" height="103.68"/>
		<rect x="528.02" y="99.047" fill="#55A1BF" width="61.967" height="40.024"/>
		<rect x="528.02" y="142.723" fill="#55A1BF" width="61.967" height="103.68"/>
		<rect x="524.37" y="99.047" fill="#FFFFFF" width="3.65" height="40.024"/>
		<rect x="524.37" y="142.723" fill="#FFFFFF" width="3.65" height="103.68"/>
		<rect x="462.403" y="139.071" fill="#FFFFFF" width="61.966" height="3.651"/>
		<rect x="528.02" y="139.071" fill="#FFFFFF" width="61.967" height="3.651"/>
		<rect x="524.37" y="139.071" fill="#FFFFFF" width="3.65" height="3.651"/>
		<rect x="456.264" y="246.088" fill="#FFFFFF" width="139.864" height="3.26"/>
	</g>
	<g>
		<rect x="693.292" y="99.047" fill="#55A1BF" width="61.967" height="40.024"/>
		<rect x="693.292" y="142.723" fill="#55A1BF" width="61.967" height="103.68"/>
		<rect x="758.909" y="99.047" fill="#55A1BF" width="61.967" height="40.024"/>
		<rect x="758.909" y="142.723" fill="#55A1BF" width="61.967" height="103.68"/>
		<rect x="755.258" y="99.047" fill="#FFFFFF" width="3.65" height="40.024"/>
		<rect x="755.258" y="142.723" fill="#FFFFFF" width="3.65" height="103.68"/>
		<rect x="693.292" y="139.071" fill="#FFFFFF" width="61.967" height="3.651"/>
		<rect x="758.909" y="139.071" fill="#FFFFFF" width="61.967" height="3.651"/>
		<rect x="755.258" y="139.071" fill="#FFFFFF" width="3.65" height="3.651"/>
		<rect x="687.153" y="246.088" fill="#FFFFFF" width="139.863" height="3.26"/>
	</g>
</g>
<g>
	<g>
		<rect x="562.249" y="69.855" fill="#FFFFFF" width="110.787" height="6.135"/>
		<g>
			<rect x="577.122" y="50.635" fill="#869392" width="0.574" height="19.221"/>
			<rect x="657.586" y="50.635" fill="#869392" width="0.576" height="19.221"/>
		</g>
	</g>
	<g>
		<rect x="360.235" y="69.855" fill="#FFFFFF" width="110.788" height="6.135"/>
		<g>
			<rect x="375.109" y="50.635" fill="#869392" width="0.574" height="19.221"/>
			<rect x="455.574" y="50.635" fill="#869392" width="0.575" height="19.221"/>
		</g>
	</g>
	<g>
		<rect x="764.26" y="69.855" fill="#FFFFFF" width="110.787" height="6.135"/>
		<g>
			<rect x="779.133" y="50.635" fill="#869392" width="0.576" height="19.221"/>
			<rect x="859.598" y="50.635" fill="#869392" width="0.576" height="19.221"/>
		</g>
	</g>
	<g>
		<rect x="158.223" y="69.855" fill="#FFFFFF" width="110.788" height="6.135"/>
		<g>
			<rect x="173.097" y="50.635" fill="#869392" width="0.575" height="19.221"/>
			<rect x="253.562" y="50.635" fill="#869392" width="0.574" height="19.221"/>
		</g>
	</g>
</g>
<g>
	<g>
		<path fill="none" stroke="#9B9B9B" stroke-width="1.9705" stroke-miterlimit="10" d="M288.813,249.803
			c0,0-3.028,9.087,3.868,17.846"/>
		<circle fill="#D1003C" cx="288.813" cy="249.803" r="3.028"/>
		<g>
			<path fill="none" stroke="#9B9B9B" stroke-width="1.9705" stroke-miterlimit="10" d="M334.275,249.803
				c0,0,3.028,9.086-3.869,17.846"/>
			<circle fill="#D1003C" cx="334.275" cy="249.803" r="3.028"/>
		</g>
	</g>
	<rect x="308.995" y="292.961" fill="#9B9B9B" width="5.099" height="13.396"/>
	<rect x="310.584" y="237.371" fill="#9B9B9B" width="1.92" height="59.247"/>
	<path fill="#D1003C" d="M329.74,231.979c0,3.264-2.646,5.91-5.911,5.91H299.26c-3.266,0-5.912-2.646-5.912-5.91v-1.232
		c0-3.264,2.646-5.912,5.912-5.912h24.569c3.265,0,5.911,2.648,5.911,5.912V231.979z"/>
	<g>
		
			<rect x="318.125" y="300.205" transform="matrix(0.2703 -0.9628 0.9628 0.2703 -64.4702 532.1381)" fill="#9B9B9B" width="1.409" height="16.793"/>
		
			<rect x="303.572" y="300.205" transform="matrix(-0.271 -0.9626 0.9626 -0.271 89.6686 685.1152)" fill="#9B9B9B" width="1.409" height="16.792"/>
		<circle fill="#9B9B9B" cx="296.37" cy="312.314" r="2.126"/>
		<circle fill="#9B9B9B" cx="326.719" cy="312.314" r="2.125"/>
	</g>
	<path fill="#D1003C" d="M334.081,267.648c0,1.682-1.363,3.046-3.046,3.046h-38.982c-1.682,0-3.046-1.364-3.046-3.046l0,0
		c0-1.682,1.364-3.045,3.046-3.045h38.982C332.718,264.604,334.081,265.967,334.081,267.648L334.081,267.648z"/>
	<rect x="310.766" y="306.101" fill="#9B9B9B" width="1.557" height="5.456"/>
	<rect x="309.895" y="310.2" fill="#9B9B9B" width="3.3" height="4.239"/>
</g>
<g>
	<rect x="384.965" y="236.303" fill="#BAA665" width="241.018" height="78.518"/>
	<rect x="381.723" y="233.172" fill="#BAA665" width="247.502" height="3.131"/>
	<rect x="384.965" y="236.303" fill="#9B8957" width="241.018" height="3.129"/>
	<g>
		<path fill="#FFFFFF" d="M587.352,224.898c0,1.482-1.201,2.684-2.684,2.684h-39.574c-1.482,0-2.684-1.201-2.684-2.684v-23.477
			c0-1.482,1.201-2.684,2.684-2.684h39.574c1.482,0,2.684,1.201,2.684,2.684V224.898z"/>
		<rect x="559.18" y="227.582" fill="#FFFFFF" width="11.402" height="5.59"/>
		<rect x="559.18" y="227.582" opacity="0.7" fill="#AABAB9" width="11.402" height="2.348"/>
		<circle fill="#AABAB9" cx="564.882" cy="209.359" r="1.677"/>
		<g>
			<path fill="#AABAB9" d="M561.192,224.714c0,0.084,0.068,0.153,0.152,0.153l0,0c0.084,0,0.152-0.069,0.152-0.153v-5.542
				c0-0.084-0.068-0.152-0.152-0.152l0,0c-0.084,0-0.152,0.068-0.152,0.152V224.714z"/>
			<path fill="#AABAB9" d="M561.836,224.714c0,0.084,0.068,0.153,0.15,0.153l0,0c0.086,0,0.154-0.069,0.154-0.153v-5.542
				c0-0.084-0.068-0.152-0.154-0.152l0,0c-0.082,0-0.15,0.068-0.15,0.152V224.714z"/>
			<path fill="#AABAB9" d="M562.479,224.714c0,0.084,0.068,0.153,0.152,0.153l0,0c0.084,0,0.152-0.069,0.152-0.153v-5.542
				c0-0.084-0.068-0.152-0.152-0.152l0,0c-0.084,0-0.152,0.068-0.152,0.152V224.714z"/>
			<path fill="#AABAB9" d="M563.122,224.714c0,0.084,0.068,0.153,0.152,0.153l0,0c0.084,0,0.152-0.069,0.152-0.153v-5.542
				c0-0.084-0.068-0.152-0.152-0.152l0,0c-0.084,0-0.152,0.068-0.152,0.152V224.714z"/>
			<path fill="#AABAB9" d="M563.764,224.714c0,0.084,0.068,0.153,0.152,0.153l0,0c0.084,0,0.152-0.069,0.152-0.153v-5.542
				c0-0.084-0.068-0.152-0.152-0.152l0,0c-0.084,0-0.152,0.068-0.152,0.152V224.714z"/>
			<path fill="#AABAB9" d="M564.409,224.714c0,0.084,0.066,0.153,0.152,0.153l0,0c0.084,0,0.152-0.069,0.152-0.153v-5.542
				c0-0.084-0.068-0.152-0.152-0.152l0,0c-0.086,0-0.152,0.068-0.152,0.152V224.714z"/>
			<path fill="#AABAB9" d="M565.051,224.714c0,0.084,0.068,0.153,0.152,0.153l0,0c0.084,0,0.152-0.069,0.152-0.153v-5.542
				c0-0.084-0.068-0.152-0.152-0.152l0,0c-0.084,0-0.152,0.068-0.152,0.152V224.714z"/>
			<path fill="#AABAB9" d="M565.694,224.714c0,0.084,0.068,0.153,0.152,0.153l0,0c0.084,0,0.152-0.069,0.152-0.153v-5.542
				c0-0.084-0.068-0.152-0.152-0.152l0,0c-0.084,0-0.152,0.068-0.152,0.152V224.714z"/>
			<path fill="#AABAB9" d="M566.336,224.714c0,0.084,0.068,0.153,0.152,0.153l0,0c0.084,0,0.152-0.069,0.152-0.153v-5.542
				c0-0.084-0.068-0.152-0.152-0.152l0,0c-0.084,0-0.152,0.068-0.152,0.152V224.714z"/>
			<path fill="#AABAB9" d="M566.981,224.714c0,0.084,0.068,0.153,0.152,0.153l0,0c0.084,0,0.152-0.069,0.152-0.153v-5.542
				c0-0.084-0.068-0.152-0.152-0.152l0,0c-0.084,0-0.152,0.068-0.152,0.152V224.714z"/>
			<path fill="#AABAB9" d="M567.624,224.714c0,0.084,0.068,0.153,0.152,0.153l0,0c0.084,0,0.152-0.069,0.152-0.153v-5.542
				c0-0.084-0.068-0.152-0.152-0.152l0,0c-0.084,0-0.152,0.068-0.152,0.152V224.714z"/>
			<path fill="#AABAB9" d="M568.266,224.714c0,0.084,0.068,0.153,0.152,0.153l0,0c0.084,0,0.152-0.069,0.152-0.153v-5.542
				c0-0.084-0.068-0.152-0.152-0.152l0,0c-0.084,0-0.152,0.068-0.152,0.152V224.714z"/>
		</g>
	</g>
	<g>
		<path fill="#326600" d="M606.909,223.73c-0.633,0.633-1.66,0.633-2.295,0l-0.318-0.319c-0.635-0.634-0.635-1.661,0-2.296
			l3.506-3.506c0.633-0.634,1.662-0.635,2.295,0l0.32,0.318c0.633,0.635,0.633,1.662,0,2.295L606.909,223.73z"/>
		<path fill="#326600" d="M605.834,219.256c0.635,0.633,0.635,1.66,0,2.295l-0.318,0.318c-0.635,0.634-1.662,0.634-2.295,0
			l-5.619-5.619c-0.635-0.635-0.635-1.662,0-2.295l0.318-0.32c0.635-0.633,1.662-0.633,2.295,0L605.834,219.256z"/>
		<path fill="#3A7C00" d="M607.354,222.588c0,1.482-1.199,2.684-2.682,2.684h-0.746c-1.48,0-2.682-1.201-2.682-2.684v-8.197
			c0-1.482,1.201-2.684,2.682-2.684h0.746c1.482,0,2.682,1.201,2.682,2.684V222.588z"/>
		<path fill="#DB4928" d="M598.319,231.83c0,0.741,0.6,1.342,1.342,1.342h9.445c0.742,0,1.342-0.601,1.342-1.342v-9.531h-12.129
			V231.83z"/>
	</g>
</g>
<g>
	<rect x="885.764" y="128.836" fill="#FFFFFF" width="82.98" height="185.984"/>
	<rect x="890.622" y="171.223" fill="#A0ACAF" width="73.268" height="30.572"/>
	<rect x="890.622" y="134.782" fill="#A0ACAF" width="73.268" height="30.573"/>
	<rect x="890.622" y="207.34" fill="#A0ACAF" width="73.268" height="30.573"/>
	<rect x="890.622" y="243.457" fill="#A0ACAF" width="73.268" height="30.574"/>
	<rect x="890.622" y="279.574" fill="#A0ACAF" width="73.268" height="30.573"/>
	<g>
		
			<rect x="955.276" y="250.656" transform="matrix(0.9789 0.2043 -0.2043 0.9789 73.7505 -190.2484)" fill="#1F98EA" width="6.359" height="22.948"/>
		
			<rect x="955.596" y="262.739" transform="matrix(0.9789 0.2041 -0.2041 0.9789 74.7125 -189.8027)" fill="#F4F4F4" width="3.583" height="9.026"/>
		
			<rect x="954.834" y="270.016" transform="matrix(0.9789 0.2042 -0.2042 0.9789 75.4928 -189.6682)" fill="#8C9596" width="3.581" height="1.774"/>
		<g>
			
				<line fill="none" stroke="#287BBF" stroke-width="0.1022" stroke-miterlimit="10" x1="956.711" y1="263.697" x2="959.409" y2="264.26"/>
			
				<line fill="none" stroke="#287BBF" stroke-width="0.1022" stroke-miterlimit="10" x1="956.514" y1="264.643" x2="959.211" y2="265.205"/>
			
				<line fill="none" stroke="#287BBF" stroke-width="0.1022" stroke-miterlimit="10" x1="956.317" y1="265.586" x2="959.014" y2="266.149"/>
			
				<line fill="none" stroke="#287BBF" stroke-width="0.1022" stroke-miterlimit="10" x1="956.12" y1="266.531" x2="958.819" y2="267.094"/>
			
				<line fill="none" stroke="#287BBF" stroke-width="0.1022" stroke-miterlimit="10" x1="955.922" y1="267.475" x2="958.622" y2="268.037"/>
			
				<line fill="none" stroke="#287BBF" stroke-width="0.1022" stroke-miterlimit="10" x1="955.725" y1="268.418" x2="958.424" y2="268.982"/>
		</g>
		<g>
			<circle fill="#C1D6D6" cx="959.974" cy="254.745" r="1.499"/>
			<circle fill="#515859" cx="959.996" cy="254.749" r="1.206"/>
		</g>
	</g>
	<g>
		
			<rect x="947.66" y="214.556" transform="matrix(0.9789 0.2043 -0.2043 0.9789 66.2163 -189.4538)" fill="#1F98EA" width="6.359" height="22.95"/>
		
			<rect x="947.98" y="226.642" transform="matrix(0.9789 0.2042 -0.2042 0.9789 67.2302 -189.1063)" fill="#F4F4F4" width="3.581" height="9.025"/>
		
			<rect x="947.218" y="233.918" transform="matrix(0.9789 0.2044 -0.2044 0.9789 68.0256 -189.0107)" fill="#8C9596" width="3.583" height="1.774"/>
		<g>
			
				<line fill="none" stroke="#287BBF" stroke-width="0.1022" stroke-miterlimit="10" x1="949.096" y1="227.6" x2="951.793" y2="228.162"/>
			
				<line fill="none" stroke="#287BBF" stroke-width="0.1022" stroke-miterlimit="10" x1="948.897" y1="228.544" x2="951.596" y2="229.107"/>
			
				<line fill="none" stroke="#287BBF" stroke-width="0.1022" stroke-miterlimit="10" x1="948.702" y1="229.488" x2="951.399" y2="230.051"/>
			
				<line fill="none" stroke="#287BBF" stroke-width="0.1022" stroke-miterlimit="10" x1="948.504" y1="230.432" x2="951.202" y2="230.995"/>
			
				<line fill="none" stroke="#287BBF" stroke-width="0.1022" stroke-miterlimit="10" x1="948.307" y1="231.377" x2="951.004" y2="231.939"/>
			
				<line fill="none" stroke="#287BBF" stroke-width="0.1022" stroke-miterlimit="10" x1="948.11" y1="232.32" x2="950.807" y2="232.883"/>
		</g>
		<g>
			<circle fill="#C1D6D6" cx="952.358" cy="218.646" r="1.498"/>
			<circle fill="#515859" cx="952.379" cy="218.65" r="1.205"/>
		</g>
	</g>
	<g>
		
			<rect x="955.209" y="214.556" transform="matrix(0.9789 0.2043 -0.2043 0.9789 66.3755 -190.9957)" fill="#1F98EA" width="6.359" height="22.95"/>
		
			<rect x="955.529" y="226.642" transform="matrix(0.9789 0.2042 -0.2042 0.9789 67.3893 -190.6481)" fill="#F4F4F4" width="3.581" height="9.025"/>
		
			<rect x="954.766" y="233.918" transform="matrix(0.9789 0.2044 -0.2044 0.9789 68.1849 -190.5536)" fill="#8C9596" width="3.583" height="1.774"/>
		<g>
			
				<line fill="none" stroke="#287BBF" stroke-width="0.1022" stroke-miterlimit="10" x1="956.645" y1="227.6" x2="959.342" y2="228.162"/>
			
				<line fill="none" stroke="#287BBF" stroke-width="0.1022" stroke-miterlimit="10" x1="956.446" y1="228.544" x2="959.145" y2="229.107"/>
			
				<line fill="none" stroke="#287BBF" stroke-width="0.1022" stroke-miterlimit="10" x1="956.25" y1="229.488" x2="958.948" y2="230.051"/>
			
				<line fill="none" stroke="#287BBF" stroke-width="0.1022" stroke-miterlimit="10" x1="956.053" y1="230.432" x2="958.75" y2="230.995"/>
			
				<line fill="none" stroke="#287BBF" stroke-width="0.1022" stroke-miterlimit="10" x1="955.856" y1="231.377" x2="958.553" y2="231.939"/>
			
				<line fill="none" stroke="#287BBF" stroke-width="0.1022" stroke-miterlimit="10" x1="955.659" y1="232.32" x2="958.356" y2="232.883"/>
		</g>
		<g>
			<circle fill="#C1D6D6" cx="959.907" cy="218.646" r="1.498"/>
			<circle fill="#515859" cx="959.928" cy="218.65" r="1.205"/>
		</g>
	</g>
	<g>
		
			<rect x="952.547" y="286.976" transform="matrix(0.8969 0.4423 -0.4423 0.8969 230.5655 -391.9315)" fill="#1F98EA" width="6.359" height="22.949"/>
		
			<rect x="951.619" y="298.632" transform="matrix(0.8967 0.4426 -0.4426 0.8967 232.663 -390.6937)" fill="#F4F4F4" width="3.583" height="9.025"/>
		
			<rect x="949.97" y="305.601" transform="matrix(0.8968 0.4424 -0.4424 0.8968 233.8029 -389.4427)" fill="#8C9596" width="3.583" height="1.775"/>
		<g>
			
				<line fill="none" stroke="#287BBF" stroke-width="0.1022" stroke-miterlimit="10" x1="953.645" y1="299.533" x2="956.116" y2="300.752"/>
			
				<line fill="none" stroke="#287BBF" stroke-width="0.1022" stroke-miterlimit="10" x1="953.217" y1="300.398" x2="955.69" y2="301.617"/>
			
				<line fill="none" stroke="#287BBF" stroke-width="0.1022" stroke-miterlimit="10" x1="952.792" y1="301.264" x2="955.262" y2="302.482"/>
			
				<line fill="none" stroke="#287BBF" stroke-width="0.1022" stroke-miterlimit="10" x1="952.366" y1="302.128" x2="954.836" y2="303.348"/>
			
				<line fill="none" stroke="#287BBF" stroke-width="0.1022" stroke-miterlimit="10" x1="951.938" y1="302.993" x2="954.409" y2="304.212"/>
			
				<line fill="none" stroke="#287BBF" stroke-width="0.1022" stroke-miterlimit="10" x1="951.512" y1="303.857" x2="953.983" y2="305.077"/>
		</g>
		<g>
			<circle fill="#C1D6D6" cx="959.04" cy="291.679" r="1.498"/>
			<circle fill="#515859" cx="959.06" cy="291.688" r="1.205"/>
		</g>
	</g>
	<g>
		
			<rect x="943.362" y="251.656" transform="matrix(0.7723 0.6353 -0.6353 0.7723 382.7019 -541.3962)" fill="#1F98EA" width="6.358" height="22.948"/>
		
			<rect x="941.426" y="262.658" transform="matrix(0.7724 0.6351 -0.6351 0.7724 384.3041 -538.2201)" fill="#F4F4F4" width="3.583" height="9.026"/>
		
			<rect x="939.057" y="269.165" transform="matrix(0.7724 0.6351 -0.6351 0.7724 385.5945 -536.0599)" fill="#8C9596" width="3.583" height="1.774"/>
		<g>
			
				<line fill="none" stroke="#287BBF" stroke-width="0.1022" stroke-miterlimit="10" x1="944.268" y1="263.709" x2="946.395" y2="265.459"/>
			
				<line fill="none" stroke="#287BBF" stroke-width="0.1022" stroke-miterlimit="10" x1="943.655" y1="264.455" x2="945.784" y2="266.205"/>
			
				<line fill="none" stroke="#287BBF" stroke-width="0.1022" stroke-miterlimit="10" x1="943.042" y1="265.199" x2="945.17" y2="266.949"/>
			
				<line fill="none" stroke="#287BBF" stroke-width="0.1022" stroke-miterlimit="10" x1="942.43" y1="265.944" x2="944.557" y2="267.695"/>
			
				<line fill="none" stroke="#287BBF" stroke-width="0.1022" stroke-miterlimit="10" x1="941.817" y1="266.689" x2="943.946" y2="268.439"/>
			
				<line fill="none" stroke="#287BBF" stroke-width="0.1022" stroke-miterlimit="10" x1="941.204" y1="267.434" x2="943.333" y2="269.185"/>
		</g>
		<g>
			<circle fill="#C1D6D6" cx="951.312" cy="257.292" r="1.499"/>
			<circle fill="#515859" cx="951.33" cy="257.307" r="1.205"/>
		</g>
	</g>
	<g>
		
			<rect x="892.316" y="178.547" transform="matrix(0.9884 -0.1521 0.1521 0.9884 -18.4822 138.3974)" fill="#1F98EA" width="6.357" height="22.949"/>
		
			<rect x="894.499" y="190.681" transform="matrix(0.9884 -0.152 0.152 0.9884 -19.2559 138.5194)" fill="#F4F4F4" width="3.585" height="9.025"/>
		
			<rect x="895.065" y="197.992" transform="matrix(0.9883 -0.1524 0.1524 0.9883 -19.8307 138.9711)" fill="#8C9596" width="3.583" height="1.774"/>
		<g>
			
				<line fill="none" stroke="#287BBF" stroke-width="0.1022" stroke-miterlimit="10" x1="894.411" y1="192.102" x2="897.133" y2="191.682"/>
			
				<line fill="none" stroke="#287BBF" stroke-width="0.1022" stroke-miterlimit="10" x1="894.557" y1="193.055" x2="897.282" y2="192.637"/>
			
				<line fill="none" stroke="#287BBF" stroke-width="0.1022" stroke-miterlimit="10" x1="894.704" y1="194.008" x2="897.428" y2="193.59"/>
			
				<line fill="none" stroke="#287BBF" stroke-width="0.1022" stroke-miterlimit="10" x1="894.85" y1="194.962" x2="897.575" y2="194.543"/>
			
				<line fill="none" stroke="#287BBF" stroke-width="0.1022" stroke-miterlimit="10" x1="894.999" y1="195.915" x2="897.721" y2="195.496"/>
			
				<line fill="none" stroke="#287BBF" stroke-width="0.1022" stroke-miterlimit="10" x1="895.145" y1="196.869" x2="897.868" y2="196.449"/>
		</g>
		<g>
			<circle fill="#C1D6D6" cx="894.326" cy="182.572" r="1.499"/>
			<circle fill="#515859" cx="894.348" cy="182.569" r="1.205"/>
		</g>
	</g>
</g>
<g>
	<circle fill="#303030" cx="641.889" cy="142.477" r="17.932"/>
	<circle fill="#FFFFFF" cx="641.782" cy="142.477" r="15.59"/>
	<circle fill="#303030" cx="641.889" cy="142.477" r="1.383"/>
	<rect x="641.245" y="133.662" fill="#303030" width="1.154" height="8.814"/>
	
		<rect x="639.906" y="142.351" transform="matrix(0.9628 0.2703 -0.2703 0.9628 63.9617 -167.5488)" fill="#303030" width="0.676" height="12.158"/>
</g>
<g>
	<g>
		<path fill="#B3C7CE" d="M127.586,301.072c0,0.945-0.766,1.71-1.71,1.71H74.092c-0.944,0-1.71-0.765-1.71-1.71v-31.637
			c0-0.943,0.766-1.709,1.71-1.709h51.784c0.944,0,1.71,0.766,1.71,1.709V301.072z"/>
		<rect x="125.819" y="295.189" fill="#B3C7CE" width="5.149" height="4.363"/>
	</g>
	<g>
		<path fill="#AABAB9" d="M74.092,304.703c0,0.59,0.479,1.068,1.069,1.068l0,0c0.59,0,1.068-0.479,1.068-1.068v-38.898
			c0-0.59-0.479-1.068-1.068-1.068l0,0c-0.591,0-1.069,0.479-1.069,1.068V304.703z"/>
		<path fill="#AABAB9" d="M78.605,304.703c0,0.59,0.479,1.068,1.069,1.068l0,0c0.59,0,1.069-0.479,1.069-1.068v-38.898
			c0-0.59-0.479-1.068-1.069-1.068l0,0c-0.591,0-1.069,0.479-1.069,1.068V304.703z"/>
		<path fill="#AABAB9" d="M83.119,304.703c0,0.59,0.479,1.068,1.069,1.068l0,0c0.591,0,1.069-0.479,1.069-1.068v-38.898
			c0-0.59-0.479-1.068-1.069-1.068l0,0c-0.59,0-1.069,0.479-1.069,1.068V304.703z"/>
		<path fill="#AABAB9" d="M87.632,304.703c0,0.59,0.479,1.068,1.069,1.068l0,0c0.59,0,1.069-0.479,1.069-1.068v-38.898
			c0-0.59-0.479-1.068-1.069-1.068l0,0c-0.59,0-1.069,0.479-1.069,1.068V304.703z"/>
		<path fill="#AABAB9" d="M92.146,304.703c0,0.59,0.479,1.068,1.069,1.068l0,0c0.591,0,1.069-0.479,1.069-1.068v-38.898
			c0-0.59-0.478-1.068-1.069-1.068l0,0c-0.59,0-1.069,0.479-1.069,1.068V304.703z"/>
		<path fill="#AABAB9" d="M96.659,304.703c0,0.59,0.479,1.068,1.069,1.068l0,0c0.59,0,1.068-0.479,1.068-1.068v-38.898
			c0-0.59-0.478-1.068-1.068-1.068l0,0c-0.591,0-1.069,0.479-1.069,1.068V304.703z"/>
		<path fill="#AABAB9" d="M101.172,304.703c0,0.59,0.478,1.068,1.069,1.068l0,0c0.59,0,1.069-0.479,1.069-1.068v-38.898
			c0-0.59-0.479-1.068-1.069-1.068l0,0c-0.591,0-1.069,0.479-1.069,1.068V304.703z"/>
		<path fill="#AABAB9" d="M105.686,304.703c0,0.59,0.478,1.068,1.069,1.068l0,0c0.59,0,1.069-0.479,1.069-1.068v-38.898
			c0-0.59-0.479-1.068-1.069-1.068l0,0c-0.591,0-1.069,0.479-1.069,1.068V304.703z"/>
		<path fill="#AABAB9" d="M110.199,304.703c0,0.59,0.479,1.068,1.069,1.068l0,0c0.59,0,1.068-0.479,1.068-1.068v-38.898
			c0-0.59-0.479-1.068-1.068-1.068l0,0c-0.591,0-1.069,0.479-1.069,1.068V304.703z"/>
		<path fill="#AABAB9" d="M114.712,304.703c0,0.59,0.479,1.068,1.069,1.068l0,0c0.59,0,1.069-0.479,1.069-1.068v-38.898
			c0-0.59-0.479-1.068-1.069-1.068l0,0c-0.59,0-1.069,0.479-1.069,1.068V304.703z"/>
		<path fill="#AABAB9" d="M119.225,304.703c0,0.59,0.479,1.068,1.069,1.068l0,0c0.59,0,1.069-0.479,1.069-1.068v-38.898
			c0-0.59-0.479-1.068-1.069-1.068l0,0c-0.591,0-1.069,0.479-1.069,1.068V304.703z"/>
		<path fill="#AABAB9" d="M123.739,304.703c0,0.59,0.479,1.068,1.069,1.068l0,0c0.59,0,1.069-0.479,1.069-1.068v-38.898
			c0-0.59-0.479-1.068-1.069-1.068l0,0c-0.59,0-1.069,0.479-1.069,1.068V304.703z"/>
	</g>
</g>
<path fill="#B3C7CE" d="M774.708,301.072c0,0.945,0.766,1.71,1.709,1.71h51.785c0.945,0,1.709-0.765,1.709-1.71v-31.637
	c0-0.943-0.764-1.709-1.709-1.709h-51.785c-0.943,0-1.709,0.766-1.709,1.709V301.072z"/>
<rect x="771.327" y="295.189" fill="#B3C7CE" width="5.148" height="4.363"/>
<rect x="828.202" y="295.189" fill="#B3C7CE" width="5.148" height="4.363"/>
<g>
	<path fill="#AABAB9" d="M828.202,304.703c0,0.59-0.479,1.068-1.068,1.068l0,0c-0.592,0-1.07-0.479-1.07-1.068v-38.898
		c0-0.59,0.479-1.068,1.07-1.068l0,0c0.59,0,1.068,0.479,1.068,1.068V304.703z"/>
	<path fill="#AABAB9" d="M823.688,304.703c0,0.59-0.479,1.068-1.068,1.068l0,0c-0.592,0-1.07-0.479-1.07-1.068v-38.898
		c0-0.59,0.479-1.068,1.07-1.068l0,0c0.59,0,1.068,0.479,1.068,1.068V304.703z"/>
	<path fill="#AABAB9" d="M819.174,304.703c0,0.59-0.479,1.068-1.068,1.068l0,0c-0.59,0-1.068-0.479-1.068-1.068v-38.898
		c0-0.59,0.479-1.068,1.068-1.068l0,0c0.59,0,1.068,0.479,1.068,1.068V304.703z"/>
	<path fill="#AABAB9" d="M814.663,304.703c0,0.59-0.479,1.068-1.07,1.068l0,0c-0.59,0-1.068-0.479-1.068-1.068v-38.898
		c0-0.59,0.479-1.068,1.068-1.068l0,0c0.592,0,1.07,0.479,1.07,1.068V304.703z"/>
	<path fill="#AABAB9" d="M810.149,304.703c0,0.59-0.479,1.068-1.07,1.068l0,0c-0.59,0-1.068-0.479-1.068-1.068v-38.898
		c0-0.59,0.479-1.068,1.068-1.068l0,0c0.592,0,1.07,0.479,1.07,1.068V304.703z"/>
	<path fill="#AABAB9" d="M805.635,304.703c0,0.59-0.479,1.068-1.07,1.068l0,0c-0.59,0-1.068-0.479-1.068-1.068v-38.898
		c0-0.59,0.479-1.068,1.068-1.068l0,0c0.592,0,1.07,0.479,1.07,1.068V304.703z"/>
	<path fill="#AABAB9" d="M801.122,304.703c0,0.59-0.479,1.068-1.068,1.068l0,0c-0.59,0-1.068-0.479-1.068-1.068v-38.898
		c0-0.59,0.479-1.068,1.068-1.068l0,0c0.59,0,1.068,0.479,1.068,1.068V304.703z"/>
	<path fill="#AABAB9" d="M796.608,304.703c0,0.59-0.479,1.068-1.068,1.068l0,0c-0.59,0-1.068-0.479-1.068-1.068v-38.898
		c0-0.59,0.479-1.068,1.068-1.068l0,0c0.59,0,1.068,0.479,1.068,1.068V304.703z"/>
	<path fill="#AABAB9" d="M792.094,304.703c0,0.59-0.479,1.068-1.068,1.068l0,0c-0.59,0-1.068-0.479-1.068-1.068v-38.898
		c0-0.59,0.479-1.068,1.068-1.068l0,0c0.59,0,1.068,0.479,1.068,1.068V304.703z"/>
	<path fill="#AABAB9" d="M787.583,304.703c0,0.59-0.48,1.068-1.07,1.068l0,0c-0.59,0-1.068-0.479-1.068-1.068v-38.898
		c0-0.59,0.479-1.068,1.068-1.068l0,0c0.59,0,1.07,0.479,1.07,1.068V304.703z"/>
	<path fill="#AABAB9" d="M783.069,304.703c0,0.59-0.479,1.068-1.068,1.068l0,0c-0.592,0-1.07-0.479-1.07-1.068v-38.898
		c0-0.59,0.479-1.068,1.07-1.068l0,0c0.59,0,1.068,0.479,1.068,1.068V304.703z"/>
	<path fill="#AABAB9" d="M778.555,304.703c0,0.59-0.479,1.068-1.068,1.068l0,0c-0.592,0-1.07-0.479-1.07-1.068v-38.898
		c0-0.59,0.479-1.068,1.07-1.068l0,0c0.59,0,1.068,0.479,1.068,1.068V304.703z"/>
</g>
<path fill="none" stroke="#B3C7CE" stroke-width="1.6358" stroke-linecap="square" stroke-miterlimit="10" d="M837.532,297.371
	c2.492,0,4.514,2.021,4.514,4.514"/>
<line fill="none" stroke="#B3C7CE" stroke-width="1.6358" stroke-linecap="square" stroke-linejoin="round" stroke-miterlimit="10" x1="829.805" y1="297.371" x2="836.895" y2="297.371"/>
<line fill="none" stroke="#B3C7CE" stroke-width="1.6358" stroke-linejoin="round" stroke-miterlimit="10" x1="842.045" y1="302.637" x2="842.045" y2="314.82"/>
<g opacity="0.7">
	<polygon fill="none" points="199.051,299.396 198.866,299.211 198.812,299.635 	"/>
	
		<rect x="191.095" y="297.922" transform="matrix(0.7073 0.7069 -0.7069 0.7073 268.0254 -48.493)" fill="#869392" width="2.947" height="2.947"/>
	
		<rect x="188.896" y="300.122" transform="matrix(0.7071 0.7071 -0.7071 0.7071 269.0182 -46.276)" fill="#869392" width="2.947" height="2.947"/>
	<polygon fill="#869392" points="183.772,301.711 182.172,303.311 182.316,304.422 183.771,305.879 185.855,303.795 	"/>
	<polygon fill="#869392" points="182.618,289.438 180.526,289.438 181.572,290.482 	"/>
	<polygon fill="#869392" points="190.254,312.592 188.17,310.508 186.087,312.592 187.814,314.319 188.526,314.319 	"/>
	<polygon fill="#869392" points="180.397,289.539 180.639,291.416 181.457,290.6 	"/>
	
		<rect x="184.497" y="300.122" transform="matrix(0.7071 0.7071 -0.7071 0.7071 267.73 -43.166)" fill="#869392" width="2.947" height="2.947"/>
	
		<rect x="186.696" y="297.923" transform="matrix(0.7071 0.7071 -0.7071 0.7071 266.819 -45.365)" fill="#869392" width="2.947" height="2.947"/>
	
		<rect x="188.896" y="308.919" transform="matrix(0.7069 -0.7073 0.7073 0.7069 -163.7424 225.606)" fill="#869392" width="2.947" height="2.946"/>
	<polygon fill="#869392" points="183.771,306.109 182.675,307.207 182.967,309.472 183.771,310.277 185.855,308.193 	"/>
	
		<rect x="188.896" y="295.724" transform="matrix(0.7071 0.7071 -0.7071 0.7071 265.908 -47.5642)" fill="#869392" width="2.947" height="2.947"/>
	<polygon fill="#869392" points="192.925,314.319 194.652,312.592 192.568,310.508 190.485,312.592 192.213,314.319 192.75,314.319 
			"/>
	
		<rect x="186.696" y="306.72" transform="matrix(0.7071 -0.7071 0.7071 0.7071 -162.8119 223.324)" fill="#869392" width="2.947" height="2.947"/>
	
		<rect x="184.498" y="304.52" transform="matrix(0.7072 -0.707 0.707 0.7072 -161.8907 221.0838)" fill="#869392" width="2.946" height="2.947"/>
	<polygon fill="#869392" points="194.884,312.592 196.611,314.319 196.918,314.319 197.359,310.9 196.967,310.508 	"/>
	
		<rect x="193.295" y="308.92" transform="matrix(0.7068 -0.7074 0.7074 0.7068 -162.4725 228.8007)" fill="#869392" width="2.946" height="2.945"/>
	<polygon fill="#869392" points="196.967,306.109 194.884,308.193 196.967,310.277 197.51,309.734 197.861,307.004 	"/>
	<polygon fill="#869392" points="193.156,314.319 196.38,314.319 194.768,312.707 	"/>
	
		<rect x="191.095" y="306.72" transform="matrix(0.7069 -0.7073 0.7073 0.7069 -161.5428 226.5171)" fill="#869392" width="2.947" height="2.947"/>
	
		<rect x="188.896" y="304.52" transform="matrix(0.7073 -0.7069 0.7069 0.7073 -160.5935 224.1527)" fill="#869392" width="2.947" height="2.948"/>
	<polygon fill="#869392" points="197.386,310.695 197.475,310 197.083,310.393 	"/>
	
		<rect x="193.295" y="291.325" transform="matrix(0.7073 0.7069 -0.7069 0.7073 264.0048 -51.9796)" fill="#869392" width="2.947" height="2.946"/>
	
		<rect x="195.493" y="293.524" transform="matrix(-0.7071 0.7071 -0.7071 -0.7071 544.8378 364.3149)" fill="#869392" width="2.947" height="2.946"/>
	<polygon fill="#869392" points="198.893,299.006 199.369,295.314 199.166,295.113 197.083,297.197 	"/>
	
		<rect x="186.697" y="302.322" transform="matrix(0.7069 -0.7073 0.7073 0.7069 -159.7209 222.1172)" fill="#869392" width="2.947" height="2.947"/>
	
		<rect x="191.096" y="293.524" transform="matrix(0.7074 0.7068 -0.7068 0.7074 264.8342 -49.7983)" fill="#869392" width="2.946" height="2.945"/>
	<polygon fill="#869392" points="199.166,294.881 199.463,294.586 199.871,291.418 199.166,290.715 197.083,292.798 	"/>
	<polygon fill="#869392" points="195.814,289.438 193.723,289.438 194.768,290.482 	"/>
	<polygon fill="#869392" points="190.254,290.6 189.092,289.438 187.761,289.438 187.248,289.438 186.087,290.6 188.17,292.682 	"/>
	<polygon fill="#869392" points="191.416,289.438 189.324,289.438 190.369,290.482 	"/>
	<polygon fill="#869392" points="181.699,299.639 182.146,303.105 183.656,301.596 	"/>
	<polygon fill="#869392" points="199.896,291.213 200.08,289.802 199.283,290.6 	"/>
	<polygon fill="#869392" points="200.113,289.537 200.127,289.438 198.121,289.438 199.166,290.482 	"/>
	
		<rect x="184.498" y="308.919" transform="matrix(-0.707 -0.7072 0.7072 -0.707 97.9505 661.3643)" fill="#869392" width="2.947" height="2.947"/>
	
		<rect x="191.095" y="302.321" transform="matrix(0.7071 -0.7071 0.7071 0.7071 -158.4135 225.1459)" fill="#869392" width="2.947" height="2.947"/>
	
		<rect x="193.295" y="304.521" transform="matrix(-0.7069 -0.7073 0.7073 -0.7069 116.0364 660.0681)" fill="#869392" width="2.947" height="2.947"/>
	
		<rect x="184.498" y="291.325" transform="matrix(0.7073 0.7069 -0.7069 0.7073 261.4296 -45.7605)" fill="#869392" width="2.947" height="2.946"/>
	
		<rect x="193.294" y="300.122" transform="matrix(0.7071 0.7071 -0.7071 0.7071 270.3066 -49.3865)" fill="#869392" width="2.947" height="2.947"/>
	<polygon fill="#869392" points="183.656,297.197 181.572,295.113 181.168,295.518 181.644,299.209 	"/>
	
		<rect x="182.299" y="293.524" transform="matrix(0.7074 0.7068 -0.7068 0.7074 262.2612 -43.5804)" fill="#869392" width="2.946" height="2.947"/>
	<polygon fill="#869392" points="187.018,289.438 184.925,289.438 185.971,290.482 	"/>
	
		<rect x="184.497" y="295.724" transform="matrix(0.7071 0.7071 -0.7071 0.7071 264.6198 -44.4542)" fill="#869392" width="2.947" height="2.947"/>
	
		<rect x="186.697" y="293.523" transform="matrix(0.7074 0.7068 -0.7068 0.7074 263.5472 -46.6893)" fill="#869392" width="2.946" height="2.946"/>
	
		<rect x="182.298" y="297.923" transform="matrix(0.7071 0.7071 -0.7071 0.7071 265.5305 -42.2552)" fill="#869392" width="2.947" height="2.946"/>
	<polygon fill="#869392" points="181.048,294.589 181.141,295.312 181.457,294.998 	"/>
	<polygon fill="#869392" points="182.35,304.688 182.648,307.002 183.656,305.993 	"/>
	<polygon fill="#869392" points="196.968,301.711 194.884,303.795 196.967,305.879 198.16,304.686 198.363,303.107 	"/>
	
		<rect x="188.896" y="291.325" transform="matrix(0.7073 0.7069 -0.7069 0.7073 262.7171 -48.8698)" fill="#869392" width="2.947" height="2.947"/>
	<polygon fill="#869392" points="194.884,290.6 196.967,292.682 199.051,290.6 197.889,289.438 196.046,289.438 	"/>
	<polygon fill="#869392" points="194.652,290.6 193.49,289.438 192.75,289.438 191.646,289.438 190.484,290.6 192.568,292.682 	"/>
	<polygon fill="#869392" points="188.758,314.319 191.981,314.319 190.369,312.707 	"/>
	<polygon fill="#869392" points="184.359,314.319 187.582,314.319 185.971,312.707 	"/>
	<polygon fill="#869392" points="183.001,309.738 183.151,310.897 183.656,310.393 	"/>
	<polygon fill="#869392" points="183.771,310.508 183.177,311.104 183.592,314.319 184.128,314.319 185.855,312.592 	"/>
	<polygon fill="#869392" points="185.855,290.6 184.694,289.438 182.85,289.438 181.688,290.6 183.771,292.682 	"/>
	<polygon fill="#869392" points="197.889,306.799 198.127,304.951 197.083,305.994 	"/>
	<polygon fill="#869392" points="196.968,301.479 198.812,299.635 198.866,299.211 196.967,297.312 194.884,299.396 	"/>
	<polygon fill="#869392" points="199.395,295.109 199.428,294.852 199.283,294.996 	"/>
	<polygon fill="#869392" points="198.391,302.902 198.777,299.9 197.084,301.596 	"/>
	<polygon fill="#869392" points="181.572,294.882 183.656,292.798 181.572,290.715 180.666,291.621 181.014,294.324 	"/>
	
		<rect x="193.294" y="295.724" transform="matrix(0.7071 0.7071 -0.7071 0.7071 267.1964 -50.6747)" fill="#869392" width="2.947" height="2.947"/>
	<polygon fill="#E9F1F4" points="199.051,290.6 199.166,290.482 198.121,289.438 197.889,289.438 	"/>
	<polygon fill="#E9F1F4" points="199.166,290.715 199.871,291.418 199.896,291.213 199.283,290.6 	"/>
	<polygon fill="#E9F1F4" points="199.166,295.113 199.369,295.314 199.395,295.109 199.283,294.996 	"/>
	
		<rect x="197.985" y="292.424" transform="matrix(-0.7071 0.7071 -0.7071 -0.7071 545.9379 361.6591)" fill="#E9F1F4" width="0.163" height="2.946"/>
	
		<rect x="195.786" y="290.226" transform="matrix(-0.7041 0.7101 -0.7101 -0.7041 540.912 358.0063)" fill="#E9F1F4" width="0.164" height="2.945"/>
	<polygon fill="#E9F1F4" points="193.723,289.438 193.49,289.438 194.652,290.6 194.768,290.482 	"/>
	
		<rect x="192.195" y="293.816" transform="matrix(0.7069 0.7073 -0.7073 0.7069 264.6221 -50.8466)" fill="#E9F1F4" width="2.947" height="0.164"/>
	<polygon fill="#E9F1F4" points="189.324,289.438 189.092,289.438 190.254,290.6 190.369,290.482 	"/>
	
		<rect x="189.996" y="291.617" transform="matrix(0.7074 0.7068 -0.7068 0.7074 262.1815 -49.9856)" fill="#E9F1F4" width="2.946" height="0.163"/>
	
		<rect x="195.785" y="294.623" transform="matrix(-0.7011 0.713 -0.713 -0.7011 544.3223 364.0436)" fill="#E9F1F4" width="0.164" height="2.947"/>
	<polygon fill="#E9F1F4" points="198.866,299.211 198.893,299.006 197.083,297.197 196.967,297.312 	"/>
	
		<rect x="185.598" y="291.616" transform="matrix(0.7073 0.7069 -0.7069 0.7073 260.9741 -46.8596)" fill="#E9F1F4" width="2.945" height="0.164"/>
	
		<rect x="192.195" y="298.214" transform="matrix(0.7073 0.7069 -0.7069 0.7073 267.5695 -49.5924)" fill="#E9F1F4" width="2.945" height="0.164"/>
	
		<rect x="195.786" y="299.022" transform="matrix(-0.7071 0.7071 -0.7071 -0.7071 546.8495 374.4787)" fill="#E9F1F4" width="0.164" height="2.947"/>
	<polygon fill="#E9F1F4" points="184.925,289.438 184.694,289.438 185.855,290.6 185.971,290.482 	"/>
	
		<rect x="189.995" y="296.014" transform="matrix(0.7069 0.7073 -0.7073 0.7069 265.5327 -48.6468)" fill="#E9F1F4" width="2.947" height="0.165"/>
	<polygon fill="#E9F1F4" points="196.968,301.711 198.363,303.107 198.391,302.902 197.084,301.596 	"/>
	
		<rect x="187.796" y="293.816" transform="matrix(0.7071 0.7071 -0.7071 0.7071 263.253 -47.7531)" fill="#E9F1F4" width="2.947" height="0.164"/>
	
		<rect x="187.796" y="298.215" transform="matrix(0.7071 0.7071 -0.7071 0.7071 266.3635 -46.4646)" fill="#E9F1F4" width="2.947" height="0.163"/>
	
		<rect x="185.597" y="296.014" transform="matrix(0.7071 0.7071 -0.7071 0.7071 264.1636 -45.554)" fill="#E9F1F4" width="2.947" height="0.164"/>
	
		<rect x="183.398" y="293.816" transform="matrix(0.707 0.7072 -0.7072 0.707 262.0044 -44.6339)" fill="#E9F1F4" width="2.947" height="0.164"/>
	
		<rect x="181.199" y="291.617" transform="matrix(0.7074 0.7069 -0.7069 0.7074 259.6472 -43.7592)" fill="#E9F1F4" width="2.945" height="0.163"/>
	<polygon fill="#E9F1F4" points="196.967,306.109 197.861,307.004 197.889,306.799 197.083,305.994 	"/>
	
		<rect x="192.195" y="302.613" transform="matrix(0.7073 0.7069 -0.7069 0.7073 270.679 -48.3049)" fill="#E9F1F4" width="2.945" height="0.164"/>
	
		<rect x="189.995" y="300.414" transform="matrix(0.7073 0.7069 -0.7069 0.7073 268.4808 -47.3938)" fill="#E9F1F4" width="2.947" height="0.163"/>
	<polygon fill="#E9F1F4" points="181.572,290.482 180.526,289.438 180.384,289.438 180.397,289.539 181.457,290.6 	"/>
	
		<rect x="194.394" y="304.813" transform="matrix(-0.7071 -0.7071 0.7071 -0.7071 118.7732 658.9865)" fill="#E9F1F4" width="2.947" height="0.163"/>
	
		<rect x="185.597" y="300.414" transform="matrix(0.7073 0.7069 -0.7069 0.7073 267.1933 -44.2844)" fill="#E9F1F4" width="2.947" height="0.163"/>
	
		<rect x="183.398" y="298.215" transform="matrix(0.707 0.7072 -0.7072 0.707 265.1153 -43.3451)" fill="#E9F1F4" width="2.947" height="0.163"/>
	
		<rect x="191.387" y="303.421" transform="matrix(0.7071 -0.7071 0.7071 0.7071 -159.5131 224.6904)" fill="#E9F1F4" width="0.163" height="2.947"/>
	
		<rect x="187.797" y="302.613" transform="matrix(0.7074 0.7068 -0.7068 0.7074 269.3099 -45.2142)" fill="#E9F1F4" width="2.946" height="0.163"/>
	<polygon fill="#E9F1F4" points="181.572,294.882 181.014,294.324 181.048,294.589 181.457,294.998 	"/>
	
		<rect x="193.587" y="305.62" transform="matrix(0.7101 -0.7041 0.7041 0.7101 -160.0823 225.3966)" fill="#E9F1F4" width="0.164" height="2.947"/>
	<polygon fill="#E9F1F4" points="196.967,310.508 197.359,310.9 197.386,310.695 197.083,310.393 	"/>
	
		<rect x="194.394" y="309.211" transform="matrix(-0.7071 -0.7071 0.7071 -0.7071 115.663 666.4951)" fill="#E9F1F4" width="2.947" height="0.163"/>
	
		<rect x="181.199" y="296.015" transform="matrix(0.7074 0.7069 -0.7069 0.7074 262.7563 -42.472)" fill="#E9F1F4" width="2.945" height="0.163"/>
	
		<rect x="186.989" y="303.421" transform="matrix(0.7101 -0.7041 0.7041 0.7101 -160.4462 220.1134)" fill="#E9F1F4" width="0.164" height="2.947"/>
	
		<rect x="193.587" y="310.019" transform="matrix(0.713 -0.7011 0.7011 0.713 -162.8212 225.1799)" fill="#E9F1F4" width="0.164" height="2.947"/>
	
		<rect x="183.399" y="302.613" transform="matrix(0.7074 0.7069 -0.7069 0.7074 268.0635 -42.0959)" fill="#E9F1F4" width="2.945" height="0.163"/>
	<polygon fill="#E9F1F4" points="194.768,312.707 196.38,314.319 196.611,314.319 194.884,312.592 	"/>
	
		<rect x="189.188" y="305.62" transform="matrix(0.7041 -0.7101 0.7101 0.7041 -162.0604 225.261)" fill="#E9F1F4" width="0.164" height="2.947"/>
	
		<rect x="191.387" y="307.819" transform="matrix(0.7101 -0.7041 0.7041 0.7101 -162.2684 224.4857)" fill="#E9F1F4" width="0.164" height="2.947"/>
	<polygon fill="#E9F1F4" points="183.656,301.596 183.772,301.479 181.688,299.396 181.67,299.414 181.699,299.639 	"/>
	
		<rect x="189.188" y="310.019" transform="matrix(0.7101 -0.7041 0.7041 0.7101 -164.4545 223.5748)" fill="#E9F1F4" width="0.164" height="2.947"/>
	
		<rect x="186.989" y="307.819" transform="matrix(0.7071 -0.7071 0.7071 0.7071 -163.9115 222.8685)" fill="#E9F1F4" width="0.163" height="2.947"/>
	
		<rect x="184.789" y="305.62" transform="matrix(0.7056 -0.7086 0.7086 0.7056 -163.1813 221.4019)" fill="#E9F1F4" width="0.164" height="2.947"/>
	<polygon fill="#E9F1F4" points="183.771,305.879 182.316,304.422 182.35,304.688 183.656,305.993 	"/>
	<polygon fill="#E9F1F4" points="190.485,312.592 190.369,312.707 191.981,314.319 192.213,314.319 	"/>
	<polygon fill="#E9F1F4" points="187.814,314.319 186.087,312.592 185.971,312.707 187.582,314.319 187.761,314.319 	"/>
	
		<rect x="184.79" y="310.019" transform="matrix(0.7086 -0.7056 0.7056 0.7086 -165.9206 221.2159)" fill="#E9F1F4" width="0.163" height="2.947"/>
	<polygon fill="#E9F1F4" points="183.771,310.277 182.967,309.472 183.001,309.738 183.656,310.393 	"/>
	<polygon fill="#E9F1F4" points="181.688,290.6 182.85,289.438 182.618,289.438 181.572,290.482 	"/>
	<polygon fill="#E9F1F4" points="181.572,290.715 181.457,290.6 180.639,291.416 180.666,291.621 	"/>
	
		<rect x="181.49" y="290.517" transform="matrix(0.7026 -0.7115 0.7115 0.7026 -152.7812 215.6067)" fill="#E9F1F4" width="0.165" height="0.163"/>
	
		<rect x="184.79" y="290.225" transform="matrix(0.7071 0.7071 -0.7071 0.7071 260.4093 -45.2872)" fill="#E9F1F4" width="0.163" height="2.946"/>
	<polygon fill="#E9F1F4" points="186.087,290.6 187.248,289.438 187.018,289.438 185.971,290.482 	"/>
	
		<rect x="182.59" y="292.425" transform="matrix(0.7056 0.7086 -0.7086 0.7056 262.0298 -42.9215)" fill="#E9F1F4" width="0.164" height="2.947"/>
	<polygon fill="#E9F1F4" points="181.572,295.113 181.457,294.998 181.141,295.312 181.168,295.518 	"/>
	
		<rect x="185.889" y="290.517" transform="matrix(0.7041 0.7101 -0.7101 0.7041 261.364 -46.0743)" fill="#E9F1F4" width="0.165" height="0.164"/>
	
		<rect x="183.689" y="292.716" transform="matrix(0.7056 0.7086 -0.7086 0.7056 261.574 -44.0245)" fill="#E9F1F4" width="0.164" height="0.164"/>
	
		<rect x="181.491" y="294.916" transform="matrix(-0.7086 0.7056 -0.7056 -0.7086 518.3877 375.9136)" fill="#E9F1F4" width="0.163" height="0.164"/>
	
		<rect x="186.988" y="292.424" transform="matrix(0.7041 0.7101 -0.7101 0.7041 264.0432 -45.8762)" fill="#E9F1F4" width="0.164" height="2.947"/>
	
		<rect x="189.188" y="290.225" transform="matrix(0.7071 0.7071 -0.7071 0.7071 261.6976 -48.3973)" fill="#E9F1F4" width="0.163" height="2.946"/>
	
		<rect x="184.789" y="294.623" transform="matrix(0.7011 0.713 -0.713 0.7011 266.3745 -43.326)" fill="#E9F1F4" width="0.164" height="2.947"/>
	<polygon fill="#E9F1F4" points="190.484,290.6 191.646,289.438 191.416,289.438 190.369,290.482 	"/>
	<polygon fill="#E9F1F4" points="181.688,299.396 183.771,297.312 183.656,297.197 181.644,299.209 181.665,299.373 	"/>
	
		<rect x="190.287" y="290.517" transform="matrix(0.7011 0.713 -0.713 0.7011 264.0981 -48.8891)" fill="#E9F1F4" width="0.164" height="0.164"/>
	
		<rect x="188.088" y="292.716" transform="matrix(0.7041 0.7101 -0.7101 0.7041 263.5873 -46.9825)" fill="#E9F1F4" width="0.164" height="0.164"/>
	
		<rect x="185.89" y="294.915" transform="matrix(0.7101 0.7041 -0.7041 0.7101 261.6154 -45.4238)" fill="#E9F1F4" width="0.162" height="0.162"/>
	
		<rect x="183.689" y="297.115" transform="matrix(0.7026 0.7115 -0.7115 0.7026 266.113 -42.3878)" fill="#E9F1F4" width="0.165" height="0.165"/>
	<polygon fill="#E9F1F4" points="181.665,299.373 181.67,299.414 181.688,299.396 	"/>
	
		<rect x="191.387" y="292.424" transform="matrix(0.7041 0.7101 -0.7101 0.7041 265.3446 -48.9995)" fill="#E9F1F4" width="0.164" height="2.947"/>
	
		<rect x="193.586" y="290.225" transform="matrix(0.7071 0.7071 -0.7071 0.7071 262.9858 -51.5075)" fill="#E9F1F4" width="0.163" height="2.946"/>
	
		<rect x="189.187" y="294.623" transform="matrix(0.7011 0.713 -0.713 0.7011 267.689 -46.4622)" fill="#E9F1F4" width="0.164" height="2.947"/>
	<polygon fill="#E9F1F4" points="194.884,290.6 196.046,289.438 195.814,289.438 194.768,290.482 	"/>
	
		<rect x="186.989" y="296.823" transform="matrix(0.7071 0.7071 -0.7071 0.7071 265.7194 -44.9095)" fill="#E9F1F4" width="0.163" height="2.947"/>
	
		<rect x="184.79" y="299.023" transform="matrix(0.7071 0.7071 -0.7071 0.7071 266.6301 -42.7106)" fill="#E9F1F4" width="0.163" height="2.946"/>
	<polygon fill="#E9F1F4" points="183.772,301.711 183.656,301.596 182.146,303.105 182.172,303.311 	"/>
	
		<rect x="194.686" y="290.517" transform="matrix(0.7041 0.7101 -0.7101 0.7041 263.9666 -52.3206)" fill="#E9F1F4" width="0.165" height="0.164"/>
	
		<rect x="192.487" y="292.716" transform="matrix(0.7071 0.7071 -0.7071 0.7071 263.4415 -50.4082)" fill="#E9F1F4" width="0.164" height="0.164"/>
	
		<rect x="190.288" y="294.915" transform="matrix(0.7131 0.7011 -0.7011 0.7131 261.4406 -48.8239)" fill="#E9F1F4" width="0.163" height="0.162"/>
	
		<rect x="188.088" y="297.115" transform="matrix(0.7011 0.713 -0.713 0.7011 268.1451 -45.3492)" fill="#E9F1F4" width="0.164" height="0.164"/>
	
		<rect x="185.889" y="299.315" transform="matrix(0.7071 0.7071 -0.7071 0.7071 266.1748 -43.8099)" fill="#E9F1F4" width="0.163" height="0.163"/>
	
		<rect x="183.69" y="301.514" transform="matrix(0.7041 0.7101 -0.7101 0.7041 268.5331 -41.2561)" fill="#E9F1F4" width="0.164" height="0.164"/>
	
		<rect x="186.989" y="301.221" transform="matrix(0.7071 0.7071 -0.7071 0.7071 268.8289 -43.6216)" fill="#E9F1F4" width="0.163" height="2.946"/>
	<polygon fill="#E9F1F4" points="182.648,307.002 182.675,307.207 183.771,306.109 183.656,305.993 	"/>
	
		<rect x="183.398" y="304.813" transform="matrix(0.7071 -0.7071 0.7071 0.7071 -161.4451 220.0252)" fill="#E9F1F4" width="2.947" height="0.163"/>
	
		<rect x="194.395" y="293.815" transform="matrix(-0.7073 0.7069 -0.7069 -0.7073 542.1673 363.2953)" fill="#E9F1F4" width="2.945" height="0.164"/>
	
		<rect x="196.594" y="291.617" transform="matrix(-0.7071 0.7071 -0.7071 -0.7071 544.3835 357.9064)" fill="#E9F1F4" width="2.946" height="0.163"/>
	
		<rect x="189.188" y="299.022" transform="matrix(0.7071 0.7071 -0.7071 0.7071 267.9182 -45.8206)" fill="#E9F1F4" width="0.163" height="2.947"/>
	
		<rect x="193.586" y="294.623" transform="matrix(0.7011 0.713 -0.713 0.7011 269.0035 -49.5984)" fill="#E9F1F4" width="0.164" height="2.947"/>
	
		<rect x="191.387" y="296.823" transform="matrix(0.7071 0.7071 -0.7071 0.7071 267.0076 -48.0197)" fill="#E9F1F4" width="0.163" height="2.947"/>
	<polygon fill="#E9F1F4" points="199.283,290.6 200.08,289.802 200.113,289.537 199.166,290.482 	"/>
	
		<rect x="199.084" y="290.517" transform="matrix(0.7071 0.7071 -0.7071 0.7071 263.8196 -55.7177)" fill="#E9F1F4" width="0.166" height="0.164"/>
	
		<rect x="196.885" y="292.716" transform="matrix(-0.7071 0.7071 -0.7071 -0.7071 543.2827 360.5606)" fill="#E9F1F4" width="0.164" height="0.164"/>
	
		<rect x="194.687" y="294.915" transform="matrix(0.7131 0.7011 -0.7011 0.7131 262.7026 -51.9076)" fill="#E9F1F4" width="0.163" height="0.162"/>
	
		<rect x="192.486" y="297.115" transform="matrix(0.7041 0.7101 -0.7101 0.7041 268.0007 -48.8071)" fill="#E9F1F4" width="0.165" height="0.164"/>
	
		<rect x="190.288" y="299.315" transform="matrix(0.7071 0.7071 -0.7071 0.7071 267.4631 -46.9201)" fill="#E9F1F4" width="0.163" height="0.163"/>
	
		<rect x="188.088" y="301.514" transform="matrix(0.7041 0.7101 -0.7101 0.7041 269.8346 -44.3794)" fill="#E9F1F4" width="0.164" height="0.164"/>
	
		<rect x="185.889" y="303.712" transform="matrix(0.7011 -0.713 0.713 0.7011 -161.0331 223.3934)" fill="#E9F1F4" width="0.164" height="0.163"/>
	
		<rect x="183.69" y="305.912" transform="matrix(0.7116 -0.7026 0.7026 0.7116 -161.9876 217.3656)" fill="#E9F1F4" width="0.163" height="0.164"/>
	<polygon fill="#E9F1F4" points="199.428,294.852 199.463,294.586 199.166,294.881 199.283,294.996 	"/>
	<polygon fill="#E9F1F4" points="183.656,310.393 183.151,310.897 183.177,311.104 183.771,310.508 	"/>
	
		<rect x="187.796" y="304.813" transform="matrix(0.7071 -0.7071 0.7071 0.7071 -160.1569 223.1352)" fill="#E9F1F4" width="2.947" height="0.162"/>
	
		<rect x="194.395" y="298.215" transform="matrix(-0.7071 0.7071 -0.7071 -0.7071 545.2944 370.7244)" fill="#E9F1F4" width="2.946" height="0.163"/>
	
		<rect x="191.387" y="301.221" transform="matrix(0.7071 0.7071 -0.7071 0.7071 270.1171 -46.7318)" fill="#E9F1F4" width="0.163" height="2.946"/>
	
		<rect x="193.586" y="299.022" transform="matrix(0.7041 0.7101 -0.7101 0.7041 270.6802 -48.6089)" fill="#E9F1F4" width="0.164" height="2.947"/>
	
		<rect x="184.79" y="307.819" transform="matrix(0.7071 0.7071 -0.7071 0.7071 272.8506 -40.1338)" fill="#E9F1F4" width="0.163" height="2.947"/>
	
		<rect x="196.594" y="296.014" transform="matrix(-0.7069 0.7073 -0.7073 -0.7069 547.5095 365.3323)" fill="#E9F1F4" width="2.947" height="0.164"/>
	
		<rect x="185.597" y="307.011" transform="matrix(0.7071 -0.7071 0.7071 0.7071 -162.3561 222.2242)" fill="#E9F1F4" width="2.947" height="0.164"/>
	
		<rect x="199.083" y="294.915" transform="matrix(-0.7071 0.7071 -0.7071 -0.7071 548.592 362.7599)" fill="#E9F1F4" width="0.166" height="0.164"/>
	
		<rect x="196.885" y="297.114" transform="matrix(-0.7101 0.7041 -0.7041 -0.7101 546.0907 369.5429)" fill="#E9F1F4" width="0.164" height="0.165"/>
	
		<rect x="194.686" y="299.314" transform="matrix(0.7071 0.7071 -0.7071 0.7071 268.7509 -50.0309)" fill="#E9F1F4" width="0.164" height="0.164"/>
	
		<rect x="192.487" y="301.514" transform="matrix(0.7071 0.7071 -0.7071 0.7071 269.6625 -47.8314)" fill="#E9F1F4" width="0.164" height="0.164"/>
	
		<rect x="190.287" y="303.712" transform="matrix(0.7011 -0.713 0.713 0.7011 -159.7186 226.5296)" fill="#E9F1F4" width="0.164" height="0.163"/>
	
		<rect x="188.089" y="305.912" transform="matrix(0.7101 -0.7041 0.7041 0.7101 -160.8991 221.1937)" fill="#E9F1F4" width="0.162" height="0.164"/>
	
		<rect x="185.889" y="308.111" transform="matrix(0.7041 -0.7101 0.7101 0.7041 -163.8173 223.2439)" fill="#E9F1F4" width="0.164" height="0.163"/>
	
		<rect x="183.69" y="310.311" transform="matrix(0.7086 -0.7056 0.7056 0.7086 -165.4652 220.1194)" fill="#E9F1F4" width="0.163" height="0.163"/>
	
		<rect x="194.394" y="302.613" transform="matrix(-0.7071 0.7071 -0.7071 -0.7071 548.4049 378.2339)" fill="#E9F1F4" width="2.947" height="0.164"/>
	
		<rect x="185.597" y="311.41" transform="matrix(0.7071 -0.7071 0.7071 0.7071 -165.4665 223.513)" fill="#E9F1F4" width="2.947" height="0.164"/>
	
		<rect x="192.195" y="304.813" transform="matrix(0.7071 -0.7071 0.7071 0.7071 -158.8688 226.2458)" fill="#E9F1F4" width="2.947" height="0.164"/>
	<polygon fill="#E9F1F4" points="198.777,299.9 198.812,299.635 196.968,301.479 197.084,301.596 	"/>
	
		<rect x="189.996" y="307.012" transform="matrix(0.7071 -0.7071 0.7071 0.7071 -161.068 225.3349)" fill="#E9F1F4" width="2.947" height="0.164"/>
	
		<rect x="187.796" y="309.211" transform="matrix(0.7071 -0.7071 0.7071 0.7071 -163.2672 224.4239)" fill="#E9F1F4" width="2.947" height="0.164"/>
	<polygon fill="#E9F1F4" points="185.855,312.592 184.128,314.319 184.359,314.319 185.971,312.707 	"/>
	
		<rect x="196.886" y="301.513" transform="matrix(-0.7101 0.7041 -0.7041 -0.7101 549.1898 377.0648)" fill="#E9F1F4" width="0.164" height="0.164"/>
	
		<rect x="194.687" y="303.713" transform="matrix(-0.7071 -0.7071 0.7071 -0.7071 117.6744 656.3322)" fill="#E9F1F4" width="0.163" height="0.164"/>
	
		<rect x="192.487" y="305.913" transform="matrix(0.7071 -0.7071 0.7071 0.7071 -159.9686 225.79)" fill="#E9F1F4" width="0.163" height="0.163"/>
	
		<rect x="190.288" y="308.112" transform="matrix(0.7071 -0.7071 0.7071 0.7071 -162.1678 224.8791)" fill="#E9F1F4" width="0.163" height="0.163"/>
	
		<rect x="188.088" y="310.311" transform="matrix(0.7071 -0.7071 0.7071 0.7071 -164.367 223.9681)" fill="#E9F1F4" width="0.163" height="0.163"/>
	
		<rect x="185.89" y="312.51" transform="matrix(-0.7071 -0.7071 0.7071 -0.7071 96.4369 665.1291)" fill="#E9F1F4" width="0.163" height="0.164"/>
	
		<rect x="195.785" y="305.62" transform="matrix(-0.7101 -0.7041 0.7041 -0.7101 118.7194 663.0695)" fill="#E9F1F4" width="0.164" height="2.947"/>
	
		<rect x="189.996" y="311.41" transform="matrix(0.7073 -0.7069 0.7069 0.7073 -164.1583 226.5398)" fill="#E9F1F4" width="2.947" height="0.164"/>
	
		<rect x="192.195" y="309.211" transform="matrix(0.7071 -0.7071 0.7071 0.7071 -161.9788 227.5344)" fill="#E9F1F4" width="2.947" height="0.164"/>
	<polygon fill="#E9F1F4" points="196.967,305.879 197.083,305.994 198.127,304.951 198.16,304.686 	"/>
	<polygon fill="#E9F1F4" points="190.254,312.592 188.526,314.319 188.758,314.319 190.369,312.707 	"/>
	
		<rect x="196.885" y="305.913" transform="matrix(0.7071 -0.7071 0.7071 0.7071 -158.6803 228.9002)" fill="#E9F1F4" width="0.163" height="0.163"/>
	
		<rect x="194.687" y="308.112" transform="matrix(-0.7071 -0.7071 0.7071 -0.7071 114.5643 663.8408)" fill="#E9F1F4" width="0.163" height="0.164"/>
	
		<rect x="192.487" y="310.311" transform="matrix(0.7071 -0.7071 0.7071 0.7071 -163.0787 227.0783)" fill="#E9F1F4" width="0.163" height="0.163"/>
	
		<rect x="190.287" y="312.51" transform="matrix(0.7071 0.7071 -0.7071 0.7071 276.7938 -43.0556)" fill="#E9F1F4" width="0.164" height="0.164"/>
	
		<rect x="195.785" y="310.018" transform="matrix(-0.7071 -0.7071 0.7071 -0.7071 114.1083 670.2486)" fill="#E9F1F4" width="0.164" height="2.947"/>
	<polygon fill="#E9F1F4" points="194.652,312.592 192.925,314.319 193.156,314.319 194.768,312.707 	"/>
	<polygon fill="#E9F1F4" points="196.967,310.277 197.083,310.393 197.475,310 197.51,309.734 	"/>
	
		<rect x="196.885" y="310.311" transform="matrix(-0.7101 0.7041 -0.7041 -0.7101 555.3824 392.1097)" fill="#E9F1F4" width="0.164" height="0.164"/>
	
		<rect x="194.686" y="312.51" transform="matrix(0.7071 0.7071 -0.7071 0.7071 278.082 -46.1658)" fill="#E9F1F4" width="0.164" height="0.164"/>
</g>
<g>
	<path fill="#FFFFFF" d="M510.808,202.701v-18.619h-28.923v18.619h-8.08h-15.621h-12.098v-27.934h-17.325v16.714h-17.325v41.69
		h34.65v-20.48h9.99v20.48h54.804v-30.471H510.808z M417.979,226.507h-1.229v-2.71h1.229V226.507z M417.979,217.711h-1.229v-2.71
		h1.229V217.711z M417.979,208.916h-1.229v-2.711h1.229V208.916z M417.979,200.12h-1.229v-2.71h1.229V200.12z M425.639,226.507
		h-1.229v-2.71h1.229V226.507z M425.639,217.711h-1.229v-2.71h1.229V217.711z M425.639,208.916h-1.229v-2.711h1.229V208.916z
		 M425.639,200.12h-1.229v-2.71h1.229V200.12z M433.297,226.507h-1.228v-2.71h1.228V226.507z M433.297,217.711h-1.228v-2.71h1.228
		V217.711z M433.297,208.916h-1.228v-2.711h1.228V208.916z M433.297,200.12h-1.228v-2.71h1.228V200.12z M433.297,191.324h-1.228
		v-2.71h1.228V191.324z M433.297,182.529h-1.228v-2.711h1.228V182.529z M440.957,226.507h-1.229v-2.71h1.229V226.507z
		 M440.957,217.711h-1.229v-2.71h1.229V217.711z M440.957,208.916h-1.229v-2.711h1.229V208.916z M440.957,200.12h-1.229v-2.71h1.229
		V200.12z M440.957,191.324h-1.229v-2.71h1.229V191.324z M440.957,182.529h-1.229v-2.711h1.229V182.529z M448.506,208.992h-1.248
		v-3.246h1.248V208.992z M460.529,227.229h-1.248v-3.247h1.248V227.229z M460.529,218.11h-1.248v-3.247h1.248V218.11z
		 M460.529,208.992h-1.248v-3.246h1.248V208.992z M469.273,227.229h-1.249v-3.247h1.249V227.229z M469.273,218.11h-1.249v-3.247
		h1.249V218.11z M469.273,208.992h-1.249v-3.246h1.249V208.992z M478.016,227.229h-1.248v-3.247h1.248V227.229z M478.016,218.11
		h-1.248v-3.247h1.248V218.11z M478.016,208.992h-1.248v-3.246h1.248V208.992z M488.774,227.229h-1.249v-3.247h1.249V227.229z
		 M488.774,218.11h-1.249v-3.247h1.249V218.11z M488.774,208.992h-1.249v-3.246h1.249V208.992z M488.774,199.875h-1.249v-3.246
		h1.249V199.875z M488.774,190.758h-1.249v-3.247h1.249V190.758z M497.518,227.229h-1.248v-3.247h1.248V227.229z M497.518,218.11
		h-1.248v-3.247h1.248V218.11z M497.518,208.992h-1.248v-3.246h1.248V208.992z M497.518,199.875h-1.248v-3.246h1.248V199.875z
		 M497.518,190.758h-1.248v-3.247h1.248V190.758z M506.261,227.229h-1.249v-3.247h1.249V227.229z M506.261,218.11h-1.249v-3.247
		h1.249V218.11z M506.261,208.992h-1.249v-3.246h1.249V208.992z M506.261,199.875h-1.249v-3.246h1.249V199.875z M506.261,190.758
		h-1.249v-3.247h1.249V190.758z"/>
	<g>
		<polygon fill="#DB4928" points="481.591,184.311 479.766,184.311 480.374,181.629 481.591,181.629 		"/>
		<polygon fill="#DB4928" points="511.547,184.311 513.371,184.311 512.764,181.629 511.547,181.629 		"/>
		<rect x="481.354" y="181.629" fill="#DB4928" width="30.72" height="2.682"/>
	</g>
	<polygon fill="#DB4928" points="447.258,174.768 427.584,174.768 437.421,168.274 437.421,168.274 	"/>
	<circle fill="#D4F1F4" cx="437.222" cy="172.145" r="1.562"/>
</g>
<g>
	<polygon fill="#A08435" points="763.622,254.139 761.401,253.246 747.469,315.021 749.891,315.021 	"/>
	<polygon fill="#A08435" points="808.85,253.246 806.631,254.139 820.36,315.021 822.782,315.021 	"/>
</g>
<rect x="730.543" y="128.111" fill="#BAA665" width="109.799" height="132.525"/>
<rect x="738.155" y="137.078" fill="#FFFFFF" width="94.061" height="108.45"/>
<g>
	<circle fill="none" stroke="#58666D" stroke-width="0.2045" stroke-miterlimit="10" cx="789.41" cy="178.486" r="19.669"/>
	<circle fill="none" stroke="#58666D" stroke-width="0.2045" stroke-miterlimit="10" cx="808.055" cy="156.978" r="8.645"/>
	
		<rect x="769.741" y="178.486" fill="none" stroke="#58666D" stroke-width="0.2045" stroke-miterlimit="10" width="39.338" height="59.342"/>
	<polygon fill="none" stroke="#58666D" stroke-width="0.2045" stroke-miterlimit="10" points="763.622,162.33 743.377,162.33 
		753.5,156.978 753.5,156.978 	"/>
	
		<rect x="787.772" y="178.363" fill="none" stroke="#58666D" stroke-width="0.2045" stroke-miterlimit="10" width="2.686" height="59.465"/>
	
		<rect x="769.741" y="223.258" fill="none" stroke="#58666D" stroke-width="0.2045" stroke-miterlimit="10" width="39.338" height="1.025"/>
	
		<rect x="769.741" y="205.199" fill="none" stroke="#58666D" stroke-width="0.2045" stroke-miterlimit="10" width="39.338" height="1.027"/>
	
		<rect x="769.741" y="191.049" fill="none" stroke="#58666D" stroke-width="0.2045" stroke-miterlimit="10" width="39.338" height="1.027"/>
	
		<rect x="746.225" y="162.329" fill="none" stroke="#58666D" stroke-width="0.2045" stroke-miterlimit="10" width="14.312" height="32.401"/>
</g>
<g>
	<g>
		
			<path fill="none" stroke="#BF621D" stroke-width="1.7377" stroke-linecap="round" stroke-linejoin="round" stroke-miterlimit="10" d="
			M257.936,149.861c0,10.156-8.234,18.391-18.391,18.391c-10.157,0-18.391-8.234-18.391-18.391"/>
		<path fill="none" stroke="#BF621D" stroke-width="1.7377" stroke-linecap="square" stroke-miterlimit="10" d="M229.553,313.871
			c0-5.52,4.474-9.992,9.992-9.992c5.518,0,9.992,4.473,9.992,9.992"/>
		
			<line fill="none" stroke="#BF621D" stroke-width="1.7377" stroke-linecap="round" stroke-linejoin="round" stroke-miterlimit="10" x1="239.545" y1="144.975" x2="239.545" y2="303.029"/>
	</g>
	
		<line fill="none" stroke="#BF621D" stroke-width="1.7377" stroke-miterlimit="10" x1="239.545" y1="314.389" x2="239.545" y2="302.227"/>
</g>
<g>
	<rect x="680.471" y="296.205" fill="#9B9B9B" width="4.641" height="12.193"/>
	<rect x="681.917" y="267.408" fill="#9B9B9B" width="1.748" height="31.215"/>
	
		<rect x="703.522" y="241.232" transform="matrix(0.9767 0.2146 -0.2146 0.9767 70.7628 -145.2373)" fill="#9B9B9B" width="1.748" height="24.216"/>
	<g>
		
			<rect x="688.782" y="301.891" transform="matrix(0.2729 -0.962 0.962 0.2729 203.4899 888.311)" fill="#9B9B9B" width="1.281" height="15.285"/>
		
			<rect x="675.535" y="301.891" transform="matrix(-0.2715 -0.9624 0.9624 -0.2715 561.8474 1044.3481)" fill="#9B9B9B" width="1.281" height="15.285"/>
		<circle fill="#9B9B9B" cx="668.979" cy="312.91" r="1.936"/>
		<circle fill="#9B9B9B" cx="696.603" cy="312.91" r="1.935"/>
	</g>
	<rect x="682.083" y="307.254" fill="#9B9B9B" width="1.416" height="4.967"/>
	<rect x="681.29" y="310.988" fill="#9B9B9B" width="3.002" height="3.855"/>
	<path fill="#0085BA" d="M703.305,266.895c0,1.533-1.242,2.773-2.773,2.773h-35.482c-1.531,0-2.771-1.24-2.771-2.773l0,0
		c0-1.529,1.24-2.771,2.771-2.771h35.482C702.063,264.123,703.305,265.365,703.305,266.895L703.305,266.895z"/>
	<path fill="#005493" d="M705.809,258.322c-0.309,1.324-1.633,2.146-2.959,1.84l0,0c-1.326-0.311-2.15-1.635-1.84-2.961l10.5-44.996
		c0.309-1.326,1.633-2.148,2.959-1.84l0,0c1.326,0.309,2.148,1.635,1.84,2.959L705.809,258.322z"/>
</g>
</svg>
