<?xml version="1.0" encoding="utf-8"?>
<!-- Generator: Adobe Illustrator 16.0.0, SVG Export Plug-In . SVG Version: 6.00 Build 0)  -->
<!DOCTYPE svg PUBLIC "-//W3C//DTD SVG 1.1//EN" "http://www.w3.org/Graphics/SVG/1.1/DTD/svg11.dtd">
<svg version="1.1" id="Layer_1" xmlns="http://www.w3.org/2000/svg" xmlns:xlink="http://www.w3.org/1999/xlink" x="0px" y="0px"
	 width="1054.598px" height="315.707px" viewBox="0 0 1054.598 315.707" enable-background="new 0 0 1054.598 315.707"
	 xml:space="preserve">
<g>
	<rect x="42.156" y="49.609" fill="#E2E2AC" width="970.287" height="266.098"/>
	<g>
		<g>
			<rect x="864.945" y="128.765" fill="#5E5E5E" width="119.985" height="184.926"/>
			<rect x="869.8" y="170.15" fill="#3F434C" width="110.275" height="30.561"/>
			<rect x="869.8" y="134.296" fill="#3F434C" width="110.275" height="30.562"/>
			<rect x="869.8" y="206.253" fill="#3F434C" width="110.275" height="30.562"/>
			<rect x="869.8" y="242.355" fill="#3F434C" width="110.275" height="30.562"/>
			<rect x="869.8" y="278.459" fill="#3F434C" width="110.275" height="30.562"/>
		</g>
		<g>
			<rect x="954.48" y="230.459" fill="#F7D21C" width="22.939" height="6.355"/>
			<rect x="956.208" y="231.846" fill="#F4F4F4" width="9.021" height="3.582"/>
			<rect x="956.105" y="231.846" fill="#8C9596" width="1.772" height="3.582"/>
			<g>
				
					<line fill="none" stroke="#287BBF" stroke-width="0.1022" stroke-miterlimit="10" x1="964.06" y1="235.023" x2="964.06" y2="232.27"/>
				
					<line fill="none" stroke="#287BBF" stroke-width="0.1022" stroke-miterlimit="10" x1="963.095" y1="235.023" x2="963.095" y2="232.27"/>
				
					<line fill="none" stroke="#287BBF" stroke-width="0.1022" stroke-miterlimit="10" x1="962.131" y1="235.023" x2="962.131" y2="232.27"/>
				
					<line fill="none" stroke="#287BBF" stroke-width="0.1022" stroke-miterlimit="10" x1="961.167" y1="235.023" x2="961.167" y2="232.27"/>
				
					<line fill="none" stroke="#287BBF" stroke-width="0.1022" stroke-miterlimit="10" x1="960.203" y1="235.023" x2="960.203" y2="232.27"/>
				
					<line fill="none" stroke="#287BBF" stroke-width="0.1022" stroke-miterlimit="10" x1="959.24" y1="235.023" x2="959.24" y2="232.27"/>
			</g>
			<g>
				<circle fill="#C1D6D6" cx="973.488" cy="233.658" r="1.498"/>
				<circle fill="#515859" cx="973.488" cy="233.637" r="1.205"/>
			</g>
		</g>
		<g>
			
				<rect x="872.038" y="249.593" transform="matrix(0.9789 -0.2044 0.2044 0.9789 -34.8795 184.3622)" fill="#1F98EA" width="6.356" height="22.94"/>
			
				<rect x="874.481" y="261.647" transform="matrix(0.979 -0.204 0.204 0.979 -35.8671 184.3342)" fill="#F4F4F4" width="3.581" height="9.022"/>
			
				<rect x="875.243" y="268.919" transform="matrix(0.979 -0.204 0.204 0.979 -36.595 184.5662)" fill="#8C9596" width="3.581" height="1.774"/>
			<g>
				
					<line fill="none" stroke="#287BBF" stroke-width="0.1022" stroke-miterlimit="10" x1="876.974" y1="262.589" x2="874.277" y2="263.152"/>
				
					<line fill="none" stroke="#287BBF" stroke-width="0.1022" stroke-miterlimit="10" x1="877.171" y1="263.533" x2="874.474" y2="264.096"/>
				
					<line fill="none" stroke="#287BBF" stroke-width="0.1022" stroke-miterlimit="10" x1="877.369" y1="264.479" x2="874.671" y2="265.04"/>
				
					<line fill="none" stroke="#287BBF" stroke-width="0.1022" stroke-miterlimit="10" x1="877.564" y1="265.421" x2="874.869" y2="265.982"/>
				
					<line fill="none" stroke="#287BBF" stroke-width="0.1022" stroke-miterlimit="10" x1="877.761" y1="266.365" x2="875.066" y2="266.928"/>
				
					<line fill="none" stroke="#287BBF" stroke-width="0.1022" stroke-miterlimit="10" x1="877.958" y1="267.309" x2="875.263" y2="267.871"/>
			</g>
			<g>
				<circle fill="#C1D6D6" cx="873.712" cy="253.639" r="1.498"/>
				<circle fill="#515859" cx="873.691" cy="253.645" r="1.205"/>
			</g>
		</g>
		<g>
			
				<rect x="881.371" y="249.73" transform="matrix(0.8969 -0.4423 0.4423 0.8969 -24.3044 418.1627)" fill="#1F98EA" width="6.355" height="22.939"/>
			
				<rect x="885.073" y="261.402" transform="matrix(0.8969 -0.4422 0.4422 0.8969 -26.1674 419.5726)" fill="#F4F4F4" width="3.582" height="9.022"/>
			
				<rect x="886.721" y="268.371" transform="matrix(0.8969 -0.4422 0.4422 0.8969 -27.4758 420.6459)" fill="#8C9596" width="3.582" height="1.771"/>
			<g>
				
					<line fill="none" stroke="#287BBF" stroke-width="0.1022" stroke-miterlimit="10" x1="886.613" y1="262.288" x2="884.144" y2="263.507"/>
				
					<line fill="none" stroke="#287BBF" stroke-width="0.1022" stroke-miterlimit="10" x1="887.041" y1="263.152" x2="884.57" y2="264.372"/>
				
					<line fill="none" stroke="#287BBF" stroke-width="0.1022" stroke-miterlimit="10" x1="887.466" y1="264.018" x2="884.996" y2="265.236"/>
				
					<line fill="none" stroke="#287BBF" stroke-width="0.1022" stroke-miterlimit="10" x1="887.893" y1="264.883" x2="885.423" y2="266.102"/>
				
					<line fill="none" stroke="#287BBF" stroke-width="0.1022" stroke-miterlimit="10" x1="888.32" y1="265.748" x2="885.849" y2="266.966"/>
				
					<line fill="none" stroke="#287BBF" stroke-width="0.1022" stroke-miterlimit="10" x1="888.746" y1="266.611" x2="886.275" y2="267.83"/>
			</g>
			<g>
				<circle fill="#C1D6D6" cx="881.22" cy="254.438" r="1.498"/>
				<circle fill="#515859" cx="881.2" cy="254.447" r="1.205"/>
			</g>
		</g>
		<g>
			
				<rect x="891.357" y="250.573" transform="matrix(0.7724 -0.6352 0.6352 0.7724 37.1784 627.8285)" fill="#1F98EA" width="6.356" height="22.941"/>
			
				<rect x="896.136" y="261.552" transform="matrix(0.7723 -0.6352 0.6352 0.7723 35.4164 630.9445)" fill="#F4F4F4" width="3.582" height="9.023"/>
			
				<rect x="898.428" y="268.062" transform="matrix(0.7724 -0.6352 0.6352 0.7724 34.092 633.0244)" fill="#8C9596" width="3.581" height="1.773"/>
			<g>
				
					<line fill="none" stroke="#287BBF" stroke-width="0.1022" stroke-miterlimit="10" x1="896.837" y1="262.602" x2="894.71" y2="264.352"/>
				
					<line fill="none" stroke="#287BBF" stroke-width="0.1022" stroke-miterlimit="10" x1="897.451" y1="263.346" x2="895.324" y2="265.096"/>
				
					<line fill="none" stroke="#287BBF" stroke-width="0.1022" stroke-miterlimit="10" x1="898.064" y1="264.09" x2="895.938" y2="265.84"/>
				
					<line fill="none" stroke="#287BBF" stroke-width="0.1022" stroke-miterlimit="10" x1="898.675" y1="264.835" x2="896.548" y2="266.585"/>
				
					<line fill="none" stroke="#287BBF" stroke-width="0.1022" stroke-miterlimit="10" x1="899.289" y1="265.58" x2="897.161" y2="267.329"/>
				
					<line fill="none" stroke="#287BBF" stroke-width="0.1022" stroke-miterlimit="10" x1="899.901" y1="266.324" x2="897.773" y2="268.074"/>
			</g>
			<g>
				<circle fill="#C1D6D6" cx="889.797" cy="256.186" r="1.498"/>
				<circle fill="#515859" cx="889.779" cy="256.201" r="1.205"/>
			</g>
		</g>
		<g>
			<rect x="954.48" y="217.625" fill="#1B4F1B" width="22.94" height="6.355"/>
			<rect x="966.671" y="219.014" fill="#F4F4F4" width="9.021" height="3.58"/>
			<rect x="974.023" y="219.014" fill="#8C9596" width="1.772" height="3.58"/>
			<g>
				
					<line fill="none" stroke="#287BBF" stroke-width="0.1022" stroke-miterlimit="10" x1="967.841" y1="222.191" x2="967.841" y2="219.436"/>
				
					<line fill="none" stroke="#287BBF" stroke-width="0.1022" stroke-miterlimit="10" x1="968.806" y1="222.191" x2="968.806" y2="219.436"/>
				
					<line fill="none" stroke="#287BBF" stroke-width="0.1022" stroke-miterlimit="10" x1="969.769" y1="222.191" x2="969.769" y2="219.436"/>
				
					<line fill="none" stroke="#287BBF" stroke-width="0.1022" stroke-miterlimit="10" x1="970.734" y1="222.191" x2="970.734" y2="219.436"/>
				
					<line fill="none" stroke="#287BBF" stroke-width="0.1022" stroke-miterlimit="10" x1="971.698" y1="222.191" x2="971.698" y2="219.436"/>
				
					<line fill="none" stroke="#287BBF" stroke-width="0.1022" stroke-miterlimit="10" x1="972.663" y1="222.191" x2="972.663" y2="219.436"/>
			</g>
			<g>
				<circle fill="#C1D6D6" cx="958.414" cy="220.826" r="1.498"/>
				<circle fill="#515859" cx="958.414" cy="220.803" r="1.206"/>
			</g>
		</g>
		<g>
			<rect x="951.625" y="224.021" fill="#DB4928" width="22.941" height="6.356"/>
			<rect x="953.354" y="225.41" fill="#F4F4F4" width="9.021" height="3.581"/>
			<rect x="953.25" y="225.41" fill="#8C9596" width="1.773" height="3.581"/>
			<g>
				
					<line fill="none" stroke="#287BBF" stroke-width="0.1022" stroke-miterlimit="10" x1="961.205" y1="228.588" x2="961.205" y2="225.833"/>
				
					<line fill="none" stroke="#287BBF" stroke-width="0.1022" stroke-miterlimit="10" x1="960.24" y1="228.588" x2="960.24" y2="225.833"/>
				
					<line fill="none" stroke="#287BBF" stroke-width="0.1022" stroke-miterlimit="10" x1="959.277" y1="228.588" x2="959.277" y2="225.833"/>
				
					<line fill="none" stroke="#287BBF" stroke-width="0.1022" stroke-miterlimit="10" x1="958.312" y1="228.588" x2="958.312" y2="225.833"/>
				
					<line fill="none" stroke="#287BBF" stroke-width="0.1022" stroke-miterlimit="10" x1="957.347" y1="228.588" x2="957.347" y2="225.833"/>
				
					<line fill="none" stroke="#287BBF" stroke-width="0.1022" stroke-miterlimit="10" x1="956.384" y1="228.588" x2="956.384" y2="225.833"/>
			</g>
			<g>
				<circle fill="#C1D6D6" cx="970.632" cy="227.223" r="1.498"/>
				<circle fill="#515859" cx="970.632" cy="227.201" r="1.205"/>
			</g>
		</g>
		<g>
			<rect x="973.085" y="177.771" fill="#F7D21C" width="6.357" height="22.938"/>
			<rect x="974.474" y="189.961" fill="#F4F4F4" width="3.58" height="9.021"/>
			<rect x="974.474" y="197.312" fill="#8C9596" width="3.58" height="1.772"/>
			<g>
				
					<line fill="none" stroke="#287BBF" stroke-width="0.1022" stroke-miterlimit="10" x1="977.652" y1="191.132" x2="974.896" y2="191.132"/>
				
					<line fill="none" stroke="#287BBF" stroke-width="0.1022" stroke-miterlimit="10" x1="977.652" y1="192.096" x2="974.896" y2="192.096"/>
				
					<line fill="none" stroke="#287BBF" stroke-width="0.1022" stroke-miterlimit="10" x1="977.652" y1="193.061" x2="974.896" y2="193.061"/>
				
					<line fill="none" stroke="#287BBF" stroke-width="0.1022" stroke-miterlimit="10" x1="977.652" y1="194.023" x2="974.896" y2="194.023"/>
				
					<line fill="none" stroke="#287BBF" stroke-width="0.1022" stroke-miterlimit="10" x1="977.652" y1="194.988" x2="974.896" y2="194.988"/>
				
					<line fill="none" stroke="#287BBF" stroke-width="0.1022" stroke-miterlimit="10" x1="977.652" y1="195.953" x2="974.896" y2="195.953"/>
			</g>
			<g>
				<circle fill="#C1D6D6" cx="976.287" cy="181.704" r="1.498"/>
				<circle fill="#515859" cx="976.264" cy="181.704" r="1.206"/>
			</g>
		</g>
		<g>
			<rect x="871.494" y="177.771" fill="#F7D21C" width="6.354" height="22.938"/>
			<rect x="872.88" y="189.961" fill="#F4F4F4" width="3.582" height="9.021"/>
			<rect x="872.88" y="197.312" fill="#8C9596" width="3.582" height="1.772"/>
			<g>
				
					<line fill="none" stroke="#287BBF" stroke-width="0.1022" stroke-miterlimit="10" x1="876.06" y1="191.132" x2="873.304" y2="191.132"/>
				
					<line fill="none" stroke="#287BBF" stroke-width="0.1022" stroke-miterlimit="10" x1="876.06" y1="192.096" x2="873.304" y2="192.096"/>
				
					<line fill="none" stroke="#287BBF" stroke-width="0.1022" stroke-miterlimit="10" x1="876.06" y1="193.061" x2="873.304" y2="193.061"/>
				
					<line fill="none" stroke="#287BBF" stroke-width="0.1022" stroke-miterlimit="10" x1="876.06" y1="194.023" x2="873.304" y2="194.023"/>
				
					<line fill="none" stroke="#287BBF" stroke-width="0.1022" stroke-miterlimit="10" x1="876.06" y1="194.988" x2="873.304" y2="194.988"/>
				
					<line fill="none" stroke="#287BBF" stroke-width="0.1022" stroke-miterlimit="10" x1="876.06" y1="195.953" x2="873.304" y2="195.953"/>
			</g>
			<g>
				<circle fill="#C1D6D6" cx="874.695" cy="181.704" r="1.498"/>
				<circle fill="#515859" cx="874.671" cy="181.704" r="1.205"/>
			</g>
		</g>
		<g>
			
				<rect x="964.915" y="177.41" transform="matrix(0.9884 0.1521 -0.1521 0.9884 40.0013 -145.0741)" fill="#1F98EA" width="6.355" height="22.941"/>
			
				<rect x="965.507" y="189.493" transform="matrix(0.9884 0.1521 -0.1521 0.9884 40.7759 -144.9055)" fill="#F4F4F4" width="3.582" height="9.022"/>
			
				<rect x="964.94" y="196.801" transform="matrix(0.9884 0.1522 -0.1522 0.9884 41.3438 -144.8147)" fill="#8C9596" width="3.581" height="1.773"/>
			<g>
				
					<line fill="none" stroke="#287BBF" stroke-width="0.1022" stroke-miterlimit="10" x1="969.218" y1="190.941" x2="966.496" y2="190.523"/>
				
					<line fill="none" stroke="#287BBF" stroke-width="0.1022" stroke-miterlimit="10" x1="969.072" y1="191.896" x2="966.349" y2="191.477"/>
				
					<line fill="none" stroke="#287BBF" stroke-width="0.1022" stroke-miterlimit="10" x1="968.925" y1="192.85" x2="966.203" y2="192.43"/>
				
					<line fill="none" stroke="#287BBF" stroke-width="0.1022" stroke-miterlimit="10" x1="968.779" y1="193.801" x2="966.056" y2="193.383"/>
				
					<line fill="none" stroke="#287BBF" stroke-width="0.1022" stroke-miterlimit="10" x1="968.632" y1="194.754" x2="965.91" y2="194.335"/>
				
					<line fill="none" stroke="#287BBF" stroke-width="0.1022" stroke-miterlimit="10" x1="968.486" y1="195.707" x2="965.763" y2="195.288"/>
			</g>
			<g>
				<circle fill="#C1D6D6" cx="969.304" cy="181.417" r="1.498"/>
				<circle fill="#515859" cx="969.281" cy="181.414" r="1.205"/>
			</g>
		</g>
		<g>
			
				<rect x="955.532" y="177.364" transform="matrix(0.9105 0.4135 -0.4135 0.9105 163.8632 -379.498)" fill="#1B4F1B" width="6.356" height="22.94"/>
			
				<rect x="954.727" y="189.129" transform="matrix(0.9105 0.4135 -0.4135 0.9105 165.6838 -378.2029)" fill="#F4F4F4" width="3.58" height="9.02"/>
			
				<rect x="953.17" y="196.165" transform="matrix(0.9105 0.4135 -0.4135 0.9105 166.9686 -377.2723)" fill="#8C9596" width="3.582" height="1.773"/>
			<g>
				
					<line fill="none" stroke="#287BBF" stroke-width="0.1022" stroke-miterlimit="10" x1="959.167" y1="191.158" x2="956.658" y2="190.02"/>
				
					<line fill="none" stroke="#287BBF" stroke-width="0.1022" stroke-miterlimit="10" x1="958.767" y1="192.036" x2="956.259" y2="190.896"/>
				
					<line fill="none" stroke="#287BBF" stroke-width="0.1022" stroke-miterlimit="10" x1="958.369" y1="192.914" x2="955.861" y2="191.773"/>
				
					<line fill="none" stroke="#287BBF" stroke-width="0.1022" stroke-miterlimit="10" x1="957.97" y1="193.791" x2="955.462" y2="192.652"/>
				
					<line fill="none" stroke="#287BBF" stroke-width="0.1022" stroke-miterlimit="10" x1="957.572" y1="194.669" x2="955.064" y2="193.529"/>
				
					<line fill="none" stroke="#287BBF" stroke-width="0.1022" stroke-miterlimit="10" x1="957.173" y1="195.547" x2="954.666" y2="194.408"/>
			</g>
			<g>
				<circle fill="#C1D6D6" cx="961.822" cy="182.01" r="1.498"/>
				<circle fill="#515859" cx="961.802" cy="182" r="1.206"/>
			</g>
		</g>
		<g>
			<rect x="944.693" y="177.771" fill="#DB4928" width="6.354" height="22.938"/>
			<rect x="946.08" y="189.961" fill="#F4F4F4" width="3.582" height="9.021"/>
			<rect x="946.08" y="197.312" fill="#8C9596" width="3.582" height="1.772"/>
			<g>
				
					<line fill="none" stroke="#287BBF" stroke-width="0.1022" stroke-miterlimit="10" x1="949.257" y1="191.132" x2="946.503" y2="191.132"/>
				
					<line fill="none" stroke="#287BBF" stroke-width="0.1022" stroke-miterlimit="10" x1="949.257" y1="192.096" x2="946.503" y2="192.096"/>
				
					<line fill="none" stroke="#287BBF" stroke-width="0.1022" stroke-miterlimit="10" x1="949.257" y1="193.061" x2="946.503" y2="193.061"/>
				
					<line fill="none" stroke="#287BBF" stroke-width="0.1022" stroke-miterlimit="10" x1="949.257" y1="194.023" x2="946.503" y2="194.023"/>
				
					<line fill="none" stroke="#287BBF" stroke-width="0.1022" stroke-miterlimit="10" x1="949.257" y1="194.988" x2="946.503" y2="194.988"/>
				
					<line fill="none" stroke="#287BBF" stroke-width="0.1022" stroke-miterlimit="10" x1="949.257" y1="195.953" x2="946.503" y2="195.953"/>
			</g>
			<g>
				<circle fill="#C1D6D6" cx="947.893" cy="181.704" r="1.498"/>
				<circle fill="#515859" cx="947.871" cy="181.704" r="1.205"/>
			</g>
		</g>
		<g>
			<rect x="880.068" y="177.771" fill="#DB4928" width="6.354" height="22.938"/>
			<rect x="881.455" y="189.961" fill="#F4F4F4" width="3.582" height="9.021"/>
			<rect x="881.455" y="197.312" fill="#8C9596" width="3.582" height="1.772"/>
			<g>
				
					<line fill="none" stroke="#287BBF" stroke-width="0.1022" stroke-miterlimit="10" x1="884.632" y1="191.132" x2="881.878" y2="191.132"/>
				
					<line fill="none" stroke="#287BBF" stroke-width="0.1022" stroke-miterlimit="10" x1="884.632" y1="192.096" x2="881.878" y2="192.096"/>
				
					<line fill="none" stroke="#287BBF" stroke-width="0.1022" stroke-miterlimit="10" x1="884.632" y1="193.061" x2="881.878" y2="193.061"/>
				
					<line fill="none" stroke="#287BBF" stroke-width="0.1022" stroke-miterlimit="10" x1="884.632" y1="194.023" x2="881.878" y2="194.023"/>
				
					<line fill="none" stroke="#287BBF" stroke-width="0.1022" stroke-miterlimit="10" x1="884.632" y1="194.988" x2="881.878" y2="194.988"/>
				
					<line fill="none" stroke="#287BBF" stroke-width="0.1022" stroke-miterlimit="10" x1="884.632" y1="195.953" x2="881.878" y2="195.953"/>
			</g>
			<g>
				<circle fill="#C1D6D6" cx="883.268" cy="181.704" r="1.498"/>
				<circle fill="#515859" cx="883.246" cy="181.704" r="1.205"/>
			</g>
		</g>
	</g>
	<g opacity="0.6">
		<polygon fill="none" points="571.025,297.768 570.839,297.582 570.785,298.007 		"/>
		
			<rect x="563.101" y="296.277" transform="matrix(-0.7074 -0.7068 0.7068 -0.7074 753.5339 907.4172)" fill="#869392" width="2.947" height="2.945"/>
		
			<rect x="560.84" y="298.497" transform="matrix(-0.7069 -0.7073 0.7073 -0.7069 747.6733 909.7405)" fill="#869392" width="2.945" height="2.947"/>
		<polygon fill="#869392" points="555.751,300.081 554.153,301.68 554.296,302.791 555.751,304.247 557.833,302.164 		"/>
		<polygon fill="#869392" points="554.598,287.812 552.507,287.812 553.552,288.857 		"/>
		<polygon fill="#869392" points="562.231,310.957 560.148,308.875 558.066,310.959 559.792,312.686 560.503,312.686 		"/>
		<polygon fill="#869392" points="552.378,287.914 552.621,289.79 553.438,288.975 		"/>
		
			<rect x="556.505" y="298.476" transform="matrix(-0.7074 -0.7068 0.7068 -0.7074 740.7185 906.5089)" fill="#869392" width="2.947" height="2.945"/>
		
			<rect x="558.641" y="296.299" transform="matrix(-0.7069 -0.7073 0.7073 -0.7069 745.4753 904.4323)" fill="#869392" width="2.945" height="2.945"/>
		
			<rect x="560.868" y="307.289" transform="matrix(-0.7071 0.7071 -0.7071 -0.7071 1178.3033 129.4542)" fill="#869392" width="2.946" height="2.946"/>
		<polygon fill="#869392" points="555.751,304.479 554.656,305.575 554.947,307.84 555.751,308.645 557.833,306.561 		"/>
		
			<rect x="560.872" y="294.089" transform="matrix(-0.7071 -0.7071 0.7071 -0.7071 750.9873 902.1921)" fill="#869392" width="2.944" height="2.944"/>
		<polygon fill="#869392" points="564.9,312.686 566.628,310.957 564.544,308.875 562.462,310.957 564.189,312.686 564.726,312.686 
					"/>
		
			<rect x="558.67" y="305.09" transform="matrix(-0.7069 0.7073 -0.7073 -0.7069 1172.9519 127.1113)" fill="#869392" width="2.944" height="2.945"/>
		
			<rect x="556.481" y="302.924" transform="matrix(-0.7073 0.7069 -0.7069 -0.7073 1167.77 125.2471)" fill="#869392" width="2.947" height="2.945"/>
		<polygon fill="#869392" points="566.859,310.957 568.585,312.686 568.893,312.686 569.333,309.268 568.942,308.875 		"/>
		
			<rect x="565.265" y="307.289" transform="matrix(-0.7071 0.7071 -0.7071 -0.7071 1185.8094 126.3451)" fill="#869392" width="2.946" height="2.945"/>
		<polygon fill="#869392" points="568.943,304.479 566.859,306.561 568.942,308.645 569.484,308.102 569.835,305.372 		"/>
		<polygon fill="#869392" points="565.132,312.686 568.355,312.686 566.744,311.073 		"/>
		
			<rect x="563.065" y="305.09" transform="matrix(-0.7071 0.7071 -0.7071 -0.7071 1180.4979 124.1477)" fill="#869392" width="2.944" height="2.945"/>
		
			<rect x="560.868" y="302.891" transform="matrix(-0.7071 0.7071 -0.7071 -0.7071 1175.1938 121.9473)" fill="#869392" width="2.946" height="2.946"/>
		<polygon fill="#869392" points="569.361,309.062 569.45,308.367 569.058,308.76 		"/>
		
			<rect x="565.268" y="289.692" transform="matrix(-0.7071 -0.7071 0.7071 -0.7071 761.6022 897.796)" fill="#869392" width="2.944" height="2.945"/>
		
			<rect x="567.487" y="291.928" transform="matrix(0.7069 -0.7073 0.7073 0.7069 -40.7749 488.3932)" fill="#869392" width="2.947" height="2.944"/>
		<polygon fill="#869392" points="570.867,297.378 571.342,293.688 571.14,293.484 569.058,295.568 		"/>
		
			<rect x="558.658" y="300.662" transform="matrix(-0.7071 0.7071 -0.7071 -0.7071 1169.8435 119.7035)" fill="#869392" width="2.944" height="2.944"/>
		
			<rect x="563.101" y="291.881" transform="matrix(-0.7071 -0.7071 0.7071 -0.7071 756.3577 899.9987)" fill="#869392" width="2.947" height="2.944"/>
		<polygon fill="#869392" points="571.14,293.254 571.438,292.959 571.845,289.793 571.14,289.09 569.058,291.172 		"/>
		<polygon fill="#869392" points="567.789,287.812 565.698,287.812 566.744,288.857 		"/>
		<polygon fill="#869392" points="562.23,288.975 561.07,287.812 559.739,287.812 559.227,287.812 558.066,288.975 560.148,291.057 
					"/>
		<polygon fill="#869392" points="563.392,287.812 561.301,287.812 562.347,288.857 		"/>
		<polygon fill="#869392" points="553.679,298.01 554.126,301.475 555.636,299.966 		"/>
		<polygon fill="#869392" points="571.871,289.588 572.052,288.178 571.255,288.975 		"/>
		<polygon fill="#869392" points="572.087,287.912 572.099,287.812 570.095,287.812 571.14,288.857 		"/>
		
			<rect x="556.447" y="307.304" transform="matrix(0.7073 0.7069 -0.7069 0.7073 381.6055 -304.0291)" fill="#869392" width="2.947" height="2.946"/>
		
			<rect x="563.054" y="300.662" transform="matrix(-0.7069 0.7073 -0.7073 -0.7069 1177.3049 116.4503)" fill="#869392" width="2.945" height="2.944"/>
		
			<rect x="565.241" y="302.908" transform="matrix(0.7073 0.7069 -0.7069 0.7073 381.0715 -311.5324)" fill="#869392" width="2.945" height="2.945"/>
		
			<rect x="556.475" y="289.692" transform="matrix(-0.7073 -0.7069 0.7069 -0.7073 746.7305 891.5343)" fill="#869392" width="2.944" height="2.947"/>
		
			<rect x="565.236" y="298.498" transform="matrix(-0.7069 -0.7073 0.7073 -0.7069 755.1775 912.8508)" fill="#869392" width="2.945" height="2.946"/>
		<polygon fill="#869392" points="555.636,295.568 553.552,293.486 553.148,293.891 553.625,297.58 		"/>
		
			<rect x="554.245" y="291.902" transform="matrix(-0.7071 -0.7071 0.7071 -0.7071 741.2206 893.7756)" fill="#869392" width="2.944" height="2.948"/>
		<polygon fill="#869392" points="558.996,287.812 556.904,287.812 557.951,288.857 		"/>
		
			<rect x="556.447" y="294.1" transform="matrix(-0.7074 -0.7068 0.7068 -0.7074 743.7098 898.995)" fill="#869392" width="2.946" height="2.944"/>
		
			<rect x="558.673" y="291.892" transform="matrix(-0.7069 -0.7073 0.7073 -0.7069 748.6486 896.9316)" fill="#869392" width="2.947" height="2.945"/>
		
			<rect x="554.245" y="296.3" transform="matrix(-0.7068 -0.7074 0.7074 -0.7068 737.8309 901.3661)" fill="#869392" width="2.946" height="2.944"/>
		<polygon fill="#869392" points="553.029,292.962 553.123,293.686 553.438,293.371 		"/>
		<polygon fill="#869392" points="554.33,303.057 554.628,305.369 555.636,304.361 		"/>
		<polygon fill="#869392" points="568.943,300.081 566.859,302.164 568.943,304.247 570.134,303.055 570.337,301.477 		"/>
		
			<rect x="560.873" y="289.692" transform="matrix(-0.7071 -0.7071 0.7071 -0.7071 754.0969 894.6873)" fill="#869392" width="2.943" height="2.945"/>
		<polygon fill="#869392" points="566.859,288.975 568.943,291.057 571.025,288.975 569.864,287.812 568.021,287.812 		"/>
		<polygon fill="#869392" points="566.628,288.975 565.466,287.812 564.726,287.812 563.624,287.812 562.462,288.975 
			564.544,291.057 		"/>
		<polygon fill="#869392" points="560.736,312.686 563.958,312.686 562.347,311.073 		"/>
		<polygon fill="#869392" points="556.339,312.686 559.56,312.686 557.951,311.074 		"/>
		<polygon fill="#869392" points="554.981,308.104 555.13,309.264 555.636,308.76 		"/>
		<polygon fill="#869392" points="555.751,308.875 555.158,309.469 555.572,312.686 556.107,312.686 557.833,310.959 		"/>
		<polygon fill="#869392" points="557.833,288.975 556.673,287.812 554.83,287.812 553.667,288.975 555.751,291.057 		"/>
		<polygon fill="#869392" points="569.863,305.167 570.101,303.32 569.058,304.361 		"/>
		<polygon fill="#869392" points="568.943,299.85 570.785,298.007 570.839,297.582 568.942,295.686 566.859,297.768 		"/>
		<polygon fill="#869392" points="571.369,293.482 571.402,293.225 571.255,293.369 		"/>
		<polygon fill="#869392" points="570.364,301.271 570.751,298.271 569.058,299.966 		"/>
		<polygon fill="#869392" points="553.552,293.255 555.636,291.172 553.552,289.09 552.646,289.996 552.996,292.697 		"/>
		
			<rect x="565.269" y="294.09" transform="matrix(-0.7071 -0.7071 0.7071 -0.7071 758.4927 905.303)" fill="#869392" width="2.943" height="2.945"/>
		<polygon fill="#E9F1F4" points="571.025,288.975 571.14,288.857 570.095,287.812 569.864,287.812 		"/>
		<polygon fill="#E9F1F4" points="571.14,289.09 571.845,289.793 571.871,289.588 571.255,288.975 		"/>
		<polygon fill="#E9F1F4" points="571.14,293.484 571.342,293.688 571.369,293.482 571.255,293.369 		"/>
		
			<rect x="569.966" y="290.796" transform="matrix(0.7071 -0.7071 0.7071 0.7071 -39.7019 488.6882)" fill="#E9F1F4" width="0.163" height="2.944"/>
		
			<rect x="567.746" y="288.562" transform="matrix(0.7101 -0.7041 0.7041 0.7101 -39.589 483.9245)" fill="#E9F1F4" width="0.165" height="2.946"/>
		<polygon fill="#E9F1F4" points="565.698,287.812 565.466,287.812 566.628,288.975 566.744,288.857 		"/>
		
			<rect x="564.169" y="292.182" transform="matrix(-0.7071 -0.7071 0.7071 -0.7071 758.9483 898.8959)" fill="#E9F1F4" width="2.946" height="0.164"/>
		<polygon fill="#E9F1F4" points="561.301,287.812 561.07,287.812 562.23,288.975 562.347,288.857 		"/>
		
			<rect x="561.972" y="289.985" transform="matrix(-0.7069 -0.7073 0.7073 -0.7069 756.6089 893.6355)" fill="#E9F1F4" width="2.944" height="0.164"/>
		
			<rect x="567.755" y="292.981" transform="matrix(0.7071 -0.7071 0.7071 0.7071 -41.8944 487.7651)" fill="#E9F1F4" width="0.164" height="2.946"/>
		<polygon fill="#E9F1F4" points="570.839,297.582 570.867,297.378 569.058,295.568 568.942,295.686 		"/>
		
			<rect x="557.575" y="289.984" transform="matrix(-0.7073 -0.7069 0.7069 -0.7073 749.3845 890.436)" fill="#E9F1F4" width="2.944" height="0.165"/>
		
			<rect x="564.169" y="296.58" transform="matrix(-0.7071 -0.7071 0.7071 -0.7071 755.8388 906.4029)" fill="#E9F1F4" width="2.946" height="0.164"/>
		
			<rect x="567.747" y="297.355" transform="matrix(0.713 -0.7011 0.7011 0.713 -46.5668 483.8843)" fill="#E9F1F4" width="0.164" height="2.946"/>
		<polygon fill="#E9F1F4" points="556.904,287.812 556.673,287.812 557.833,288.975 557.951,288.857 		"/>
		
			<rect x="561.939" y="294.393" transform="matrix(-0.7068 -0.7074 0.7074 -0.7068 753.2944 901.1808)" fill="#E9F1F4" width="2.946" height="0.164"/>
		<polygon fill="#E9F1F4" points="568.943,300.081 570.337,301.477 570.364,301.271 569.058,299.966 		"/>
		
			<rect x="559.772" y="292.183" transform="matrix(-0.7073 -0.7069 0.7069 -0.7073 751.5846 895.7446)" fill="#E9F1F4" width="2.947" height="0.164"/>
		
			<rect x="559.773" y="296.58" transform="matrix(-0.7071 -0.7071 0.7071 -0.7071 748.3344 903.2944)" fill="#E9F1F4" width="2.946" height="0.164"/>
		
			<rect x="557.543" y="294.392" transform="matrix(-0.7069 -0.7073 0.7073 -0.7069 745.9321 898.0268)" fill="#E9F1F4" width="2.945" height="0.164"/>
		
			<rect x="555.344" y="292.195" transform="matrix(-0.7071 -0.7071 0.7071 -0.7071 743.8745 892.6756)" fill="#E9F1F4" width="2.944" height="0.163"/>
		
			<rect x="553.148" y="289.996" transform="matrix(-0.7074 -0.7068 0.7068 -0.7074 741.9619 887.2812)" fill="#E9F1F4" width="2.946" height="0.163"/>
		<polygon fill="#E9F1F4" points="568.943,304.479 569.835,305.372 569.863,305.167 569.058,304.361 		"/>
		
			<rect x="564.168" y="300.977" transform="matrix(-0.7069 -0.7073 0.7073 -0.7069 752.5864 913.952)" fill="#E9F1F4" width="2.947" height="0.164"/>
		
			<rect x="561.971" y="298.779" transform="matrix(-0.7071 -0.7071 0.7071 -0.7071 750.5318 908.6011)" fill="#E9F1F4" width="2.944" height="0.163"/>
		<polygon fill="#E9F1F4" points="553.552,288.857 552.507,287.812 552.365,287.812 552.378,287.914 553.438,288.975 		"/>
		
			<rect x="566.405" y="303.175" transform="matrix(0.7071 0.7071 -0.7071 0.7071 380.7631 -312.7278)" fill="#E9F1F4" width="2.944" height="0.165"/>
		
			<rect x="557.575" y="298.778" transform="matrix(-0.7071 -0.7071 0.7071 -0.7071 743.026 905.4912)" fill="#E9F1F4" width="2.943" height="0.164"/>
		
			<rect x="555.345" y="296.591" transform="matrix(-0.7071 -0.7071 0.7071 -0.7071 740.7662 900.1821)" fill="#E9F1F4" width="2.944" height="0.164"/>
		
			<rect x="563.358" y="301.793" transform="matrix(-0.7101 0.7041 -0.7041 -0.7101 1177.0636 121.8832)" fill="#E9F1F4" width="0.164" height="2.946"/>
		
			<rect x="559.772" y="300.977" transform="matrix(-0.7069 -0.7073 0.7073 -0.7069 745.0828 910.8428)" fill="#E9F1F4" width="2.947" height="0.163"/>
		<polygon fill="#E9F1F4" points="553.552,293.255 552.996,292.697 553.029,292.962 553.438,293.371 		"/>
		
			<rect x="565.568" y="304.004" transform="matrix(-0.7101 0.7041 -0.7041 -0.7101 1182.4001 124.1068)" fill="#E9F1F4" width="0.164" height="2.946"/>
		<polygon fill="#E9F1F4" points="568.942,308.875 569.333,309.268 569.361,309.062 569.058,308.76 		"/>
		
			<rect x="566.405" y="307.574" transform="matrix(0.7068 0.7074 -0.7074 0.7068 384.1635 -311.5258)" fill="#E9F1F4" width="2.946" height="0.164"/>
		
			<rect x="553.148" y="294.392" transform="matrix(-0.7074 -0.7068 0.7068 -0.7074 738.8546 894.788)" fill="#E9F1F4" width="2.946" height="0.163"/>
		
			<rect x="558.962" y="301.792" transform="matrix(-0.7071 0.7071 -0.7071 -0.7071 1168.7877 122.4026)" fill="#E9F1F4" width="0.163" height="2.946"/>
		
			<rect x="565.568" y="308.4" transform="matrix(-0.7101 0.7041 -0.7041 -0.7101 1185.4949 131.6256)" fill="#E9F1F4" width="0.164" height="2.947"/>
		
			<rect x="555.408" y="300.966" transform="matrix(-0.7074 -0.7068 0.7068 -0.7074 738.0665 907.6102)" fill="#E9F1F4" width="2.946" height="0.163"/>
		<polygon fill="#E9F1F4" points="566.744,311.073 568.355,312.686 568.585,312.686 566.859,310.957 		"/>
		
			<rect x="561.16" y="303.991" transform="matrix(-0.7071 0.7071 -0.7071 -0.7071 1174.0959 124.6013)" fill="#E9F1F4" width="0.164" height="2.946"/>
		
			<rect x="563.358" y="306.172" transform="matrix(-0.7071 0.7071 -0.7071 -0.7071 1179.3905 126.7695)" fill="#E9F1F4" width="0.164" height="2.944"/>
		<polygon fill="#E9F1F4" points="555.636,299.966 555.751,299.85 553.669,297.768 553.65,297.785 553.679,298.01 		"/>
		
			<rect x="561.17" y="308.401" transform="matrix(-0.713 0.7011 -0.7011 -0.713 1178.7034 137.3041)" fill="#E9F1F4" width="0.164" height="2.944"/>
		
			<rect x="558.94" y="306.205" transform="matrix(-0.713 0.7011 -0.7011 -0.713 1173.3445 135.1079)" fill="#E9F1F4" width="0.164" height="2.947"/>
		
			<rect x="556.762" y="303.974" transform="matrix(-0.7041 0.7101 -0.7101 -0.7041 1165.8198 125.1092)" fill="#E9F1F4" width="0.164" height="2.944"/>
		<polygon fill="#E9F1F4" points="555.751,304.247 554.296,302.791 554.33,303.057 555.636,304.361 		"/>
		<polygon fill="#E9F1F4" points="562.462,310.957 562.347,311.073 563.958,312.686 564.189,312.686 		"/>
		<polygon fill="#E9F1F4" points="559.792,312.686 558.066,310.959 557.951,311.074 559.56,312.686 559.739,312.686 		"/>
		
			<rect x="556.762" y="308.388" transform="matrix(-0.7071 0.7071 -0.7071 -0.7071 1169.6964 135.2175)" fill="#E9F1F4" width="0.163" height="2.947"/>
		<polygon fill="#E9F1F4" points="555.751,308.645 554.947,307.84 554.981,308.104 555.636,308.76 		"/>
		<polygon fill="#E9F1F4" points="553.667,288.975 554.83,287.812 554.598,287.812 553.552,288.857 		"/>
		<polygon fill="#E9F1F4" points="553.552,289.09 553.438,288.975 552.621,289.79 552.646,289.996 		"/>
		
			<rect x="553.465" y="288.878" transform="matrix(-0.7041 0.7101 -0.7101 -0.7041 1148.4933 99.3563)" fill="#E9F1F4" width="0.164" height="0.164"/>
		
			<rect x="556.806" y="288.587" transform="matrix(-0.7101 -0.7041 0.7041 -0.7101 748.0689 888.1465)" fill="#E9F1F4" width="0.165" height="2.944"/>
		<polygon fill="#E9F1F4" points="558.066,288.975 559.227,287.812 558.996,287.812 557.951,288.857 		"/>
		
			<rect x="554.568" y="290.792" transform="matrix(-0.7071 -0.7071 0.7071 -0.7071 740.1831 891.1241)" fill="#E9F1F4" width="0.163" height="2.947"/>
		<polygon fill="#E9F1F4" points="553.552,293.486 553.438,293.371 553.123,293.686 553.148,293.891 		"/>
		
			<rect x="557.853" y="288.896" transform="matrix(-0.7041 -0.7101 0.7101 -0.7041 745.5864 888.6344)" fill="#E9F1F4" width="0.164" height="0.166"/>
		
			<rect x="555.655" y="291.095" transform="matrix(-0.7011 -0.713 0.713 -0.7011 737.7703 891.5859)" fill="#E9F1F4" width="0.164" height="0.164"/>
		
			<rect x="553.477" y="293.286" transform="matrix(0.7071 -0.7071 0.7071 0.7071 -45.3096 477.3504)" fill="#E9F1F4" width="0.163" height="0.164"/>
		
			<rect x="558.964" y="290.792" transform="matrix(-0.7071 -0.7071 0.7071 -0.7071 747.688 894.2338)" fill="#E9F1F4" width="0.163" height="2.947"/>
		
			<rect x="561.202" y="288.586" transform="matrix(-0.7101 -0.7041 0.7041 -0.7101 755.5875 891.2415)" fill="#E9F1F4" width="0.165" height="2.944"/>
		
			<rect x="556.753" y="293.002" transform="matrix(-0.7011 -0.713 0.713 -0.7011 737.2881 897.9785)" fill="#E9F1F4" width="0.164" height="2.944"/>
		<polygon fill="#E9F1F4" points="562.462,288.975 563.624,287.812 563.392,287.812 562.347,288.857 		"/>
		<polygon fill="#E9F1F4" points="553.669,297.768 555.751,295.686 555.636,295.568 553.625,297.58 553.645,297.744 		"/>
		
			<rect x="562.249" y="288.896" transform="matrix(-0.7041 -0.7101 0.7101 -0.7041 753.0789 891.7555)" fill="#E9F1F4" width="0.164" height="0.165"/>
		
			<rect x="560.063" y="291.083" transform="matrix(-0.7041 -0.7101 0.7101 -0.7041 747.8231 893.923)" fill="#E9F1F4" width="0.165" height="0.164"/>
		
			<rect x="557.865" y="293.257" transform="matrix(-0.713 -0.7011 0.7011 -0.713 750.1044 893.6952)" fill="#E9F1F4" width="0.164" height="0.164"/>
		
			<rect x="555.668" y="295.481" transform="matrix(-0.7071 -0.7071 0.7071 -0.7071 739.7287 897.5306)" fill="#E9F1F4" width="0.163" height="0.163"/>
		<polygon fill="#E9F1F4" points="553.645,297.744 553.65,297.785 553.669,297.768 		"/>
		
			<rect x="563.362" y="290.792" transform="matrix(-0.7071 -0.7071 0.7071 -0.7071 755.1965 897.3419)" fill="#E9F1F4" width="0.163" height="2.945"/>
		
			<rect x="565.547" y="288.605" transform="matrix(-0.7011 -0.713 0.713 -0.7011 755.3815 896.7703)" fill="#E9F1F4" width="0.164" height="2.946"/>
		
			<rect x="561.163" y="292.99" transform="matrix(-0.7041 -0.7101 0.7101 -0.7041 747.3331 900.3301)" fill="#E9F1F4" width="0.164" height="2.946"/>
		<polygon fill="#E9F1F4" points="566.859,288.975 568.021,287.812 567.789,287.812 566.744,288.857 		"/>
		
			<rect x="558.951" y="295.199" transform="matrix(-0.7041 -0.7101 0.7101 -0.7041 741.9945 902.5254)" fill="#E9F1F4" width="0.164" height="2.947"/>
		
			<rect x="556.767" y="297.388" transform="matrix(-0.7071 -0.7071 0.7071 -0.7071 739.2739 903.938)" fill="#E9F1F4" width="0.163" height="2.944"/>
		<polygon fill="#E9F1F4" points="555.751,300.081 555.636,299.966 554.126,301.475 554.153,301.68 		"/>
		
			<rect x="566.646" y="288.897" transform="matrix(-0.7071 -0.7071 0.7071 -0.7071 763.1259 894.056)" fill="#E9F1F4" width="0.164" height="0.165"/>
		
			<rect x="564.461" y="291.084" transform="matrix(-0.7041 -0.7101 0.7101 -0.7041 755.2953 897.053)" fill="#E9F1F4" width="0.164" height="0.163"/>
		
			<rect x="562.263" y="293.282" transform="matrix(-0.7071 -0.7071 0.7071 -0.7071 752.5421 898.4407)" fill="#E9F1F4" width="0.163" height="0.164"/>
		
			<rect x="560.082" y="295.481" transform="matrix(-0.7101 -0.7041 0.7041 -0.7101 749.8158 899.8582)" fill="#E9F1F4" width="0.164" height="0.164"/>
		
			<rect x="557.905" y="297.672" transform="matrix(-0.7101 -0.7041 0.7041 -0.7101 744.5303 902.0791)" fill="#E9F1F4" width="0.165" height="0.164"/>
		
			<rect x="555.655" y="299.889" transform="matrix(-0.7041 -0.7101 0.7101 -0.7041 734.0358 905.8058)" fill="#E9F1F4" width="0.164" height="0.164"/>
		
			<rect x="558.966" y="299.586" transform="matrix(-0.7071 -0.7071 0.7071 -0.7071 741.4738 909.2457)" fill="#E9F1F4" width="0.163" height="2.944"/>
		<polygon fill="#E9F1F4" points="554.628,305.369 554.656,305.575 555.751,304.479 555.636,304.361 		"/>
		
			<rect x="555.361" y="303.152" transform="matrix(-0.7069 0.7073 -0.7073 -0.7069 1164.9518 123.769)" fill="#E9F1F4" width="2.945" height="0.163"/>
		
			<rect x="566.363" y="292.155" transform="matrix(0.7074 -0.7068 0.7068 0.7074 -40.4186 486.8306)" fill="#E9F1F4" width="2.947" height="0.164"/>
		
			<rect x="568.576" y="289.988" transform="matrix(0.7069 -0.7073 0.7073 0.7069 -38.1007 488.1869)" fill="#E9F1F4" width="2.944" height="0.164"/>
		
			<rect x="561.162" y="297.362" transform="matrix(-0.713 -0.7011 0.7011 -0.713 751.9008 905.4208)" fill="#E9F1F4" width="0.164" height="2.944"/>
		
			<rect x="565.547" y="293.001" transform="matrix(-0.7041 -0.7101 0.7101 -0.7041 754.7961 903.4632)" fill="#E9F1F4" width="0.164" height="2.947"/>
		
			<rect x="563.349" y="295.201" transform="matrix(-0.7041 -0.7101 0.7101 -0.7041 749.49 905.6487)" fill="#E9F1F4" width="0.164" height="2.944"/>
		<polygon fill="#E9F1F4" points="571.255,288.975 572.052,288.178 572.087,287.912 571.14,288.857 		"/>
		
			<rect x="571.043" y="288.897" transform="matrix(-0.7041 -0.7101 0.7101 -0.7041 768.0637 898.0004)" fill="#E9F1F4" width="0.164" height="0.164"/>
		
			<rect x="568.867" y="291.086" transform="matrix(0.7071 -0.7071 0.7071 0.7071 -39.246 487.5887)" fill="#E9F1F4" width="0.163" height="0.164"/>
		
			<rect x="566.66" y="293.283" transform="matrix(-0.7071 -0.7071 0.7071 -0.7071 760.0479 901.5507)" fill="#E9F1F4" width="0.163" height="0.163"/>
		
			<rect x="564.477" y="295.481" transform="matrix(-0.713 -0.7011 0.7011 -0.713 759.8732 902.1409)" fill="#E9F1F4" width="0.164" height="0.163"/>
		
			<rect x="562.249" y="297.69" transform="matrix(-0.7041 -0.7101 0.7101 -0.7041 746.8345 906.7414)" fill="#E9F1F4" width="0.164" height="0.165"/>
		
			<rect x="560.064" y="299.877" transform="matrix(-0.7101 -0.7041 0.7041 -0.7101 746.6893 907.3639)" fill="#E9F1F4" width="0.164" height="0.164"/>
		
			<rect x="557.843" y="302.099" transform="matrix(-0.7131 0.7011 -0.7011 -0.7131 1167.6211 126.503)" fill="#E9F1F4" width="0.163" height="0.164"/>
		
			<rect x="555.664" y="304.283" transform="matrix(-0.7071 0.7071 -0.7071 -0.7071 1163.9358 126.6125)" fill="#E9F1F4" width="0.163" height="0.164"/>
		<polygon fill="#E9F1F4" points="571.402,293.225 571.438,292.959 571.14,293.254 571.255,293.369 		"/>
		<polygon fill="#E9F1F4" points="555.636,308.76 555.13,309.264 555.158,309.469 555.751,308.875 		"/>
		
			<rect x="559.757" y="303.151" transform="matrix(-0.7069 0.7073 -0.7073 -0.7069 1172.4551 120.659)" fill="#E9F1F4" width="2.945" height="0.164"/>
		
			<rect x="566.375" y="296.583" transform="matrix(0.7069 -0.7073 0.7073 0.7069 -43.4099 488.5641)" fill="#E9F1F4" width="2.947" height="0.165"/>
		
			<rect x="563.362" y="299.585" transform="matrix(-0.7071 -0.7071 0.7071 -0.7071 748.9786 912.3533)" fill="#E9F1F4" width="0.163" height="2.946"/>
		
			<rect x="565.561" y="297.387" transform="matrix(-0.7071 -0.7071 0.7071 -0.7071 754.2856 910.155)" fill="#E9F1F4" width="0.163" height="2.946"/>
		
			<rect x="556.767" y="306.181" transform="matrix(-0.7071 -0.7071 0.7071 -0.7071 733.0563 918.9485)" fill="#E9F1F4" width="0.163" height="2.944"/>
		
			<rect x="568.587" y="294.416" transform="matrix(0.7069 -0.7073 0.7073 0.7069 -41.2294 489.4924)" fill="#E9F1F4" width="2.945" height="0.164"/>
		
			<rect x="557.58" y="305.413" transform="matrix(-0.7073 0.7069 -0.7069 -0.7073 1170.4241 126.3452)" fill="#E9F1F4" width="2.948" height="0.165"/>
		
			<rect x="571.065" y="293.304" transform="matrix(0.7041 -0.7101 0.7101 0.7041 -39.3353 492.3696)" fill="#E9F1F4" width="0.164" height="0.162"/>
		
			<rect x="568.866" y="295.484" transform="matrix(0.7071 -0.7071 0.7071 0.7071 -42.356 488.8766)" fill="#E9F1F4" width="0.164" height="0.164"/>
		
			<rect x="566.646" y="297.691" transform="matrix(-0.7041 -0.7101 0.7101 -0.7041 754.3271 909.8644)" fill="#E9F1F4" width="0.164" height="0.164"/>
		
			<rect x="564.461" y="299.878" transform="matrix(-0.7041 -0.7101 0.7101 -0.7041 749.0505 912.0398)" fill="#E9F1F4" width="0.164" height="0.164"/>
		
			<rect x="562.238" y="302.1" transform="matrix(-0.716 0.6981 -0.6981 -0.716 1175.8948 125.9879)" fill="#E9F1F4" width="0.164" height="0.164"/>
		
			<rect x="560.059" y="304.284" transform="matrix(-0.7101 0.7041 -0.7041 -0.7101 1172.197 126.0852)" fill="#E9F1F4" width="0.164" height="0.163"/>
		
			<rect x="557.861" y="306.481" transform="matrix(-0.7071 0.7071 -0.7071 -0.7071 1169.2396 128.8101)" fill="#E9F1F4" width="0.163" height="0.163"/>
		
			<rect x="555.665" y="308.663" transform="matrix(-0.7041 0.7101 -0.7101 -0.7041 1166.2915 131.5094)" fill="#E9F1F4" width="0.164" height="0.163"/>
		
			<rect x="566.363" y="300.949" transform="matrix(0.7073 -0.7069 0.7069 0.7073 -46.5894 489.5476)" fill="#E9F1F4" width="2.948" height="0.164"/>
		
			<rect x="557.56" y="309.748" transform="matrix(-0.7069 0.7073 -0.7073 -0.7069 1173.3701 133.4732)" fill="#E9F1F4" width="2.945" height="0.164"/>
		
			<rect x="564.175" y="303.215" transform="matrix(-0.7071 0.7071 -0.7071 -0.7071 1180.0867 117.7868)" fill="#E9F1F4" width="2.947" height="0.164"/>
		<polygon fill="#E9F1F4" points="570.751,298.271 570.785,298.007 568.943,299.85 569.058,299.966 		"/>
		
			<rect x="561.967" y="305.382" transform="matrix(-0.7071 0.7071 -0.7071 -0.7071 1177.8469 123.0476)" fill="#E9F1F4" width="2.944" height="0.163"/>
		
			<rect x="559.779" y="307.612" transform="matrix(-0.7073 0.7069 -0.7069 -0.7073 1175.7322 128.5447)" fill="#E9F1F4" width="2.948" height="0.164"/>
		<polygon fill="#E9F1F4" points="557.833,310.959 556.107,312.686 556.339,312.686 557.951,311.074 		"/>
		
			<rect x="568.867" y="299.88" transform="matrix(0.7071 -0.7071 0.7071 0.7071 -45.4642 490.1645)" fill="#E9F1F4" width="0.163" height="0.164"/>
		
			<rect x="566.665" y="302.088" transform="matrix(0.7071 0.7071 -0.7071 0.7071 379.6625 -312.2465)" fill="#E9F1F4" width="0.163" height="0.163"/>
		
			<rect x="564.456" y="304.266" transform="matrix(-0.7071 0.7071 -0.7071 -0.7071 1178.9332 120.3632)" fill="#E9F1F4" width="0.164" height="0.162"/>
		
			<rect x="562.26" y="306.481" transform="matrix(-0.7071 0.7071 -0.7071 -0.7071 1176.7494 125.7004)" fill="#E9F1F4" width="0.163" height="0.164"/>
		
			<rect x="560.061" y="308.663" transform="matrix(-0.7041 0.7101 -0.7101 -0.7041 1173.7831 128.3887)" fill="#E9F1F4" width="0.164" height="0.163"/>
		
			<rect x="557.87" y="310.909" transform="matrix(0.716 0.6981 -0.6981 0.716 375.5605 -301.1849)" fill="#E9F1F4" width="0.164" height="0.163"/>
		
			<rect x="567.764" y="303.995" transform="matrix(0.7071 0.7071 -0.7071 0.7071 382.3167 -312.0576)" fill="#E9F1F4" width="0.163" height="2.946"/>
		
			<rect x="561.967" y="309.779" transform="matrix(-0.7071 0.7071 -0.7071 -0.7071 1180.9557 130.5528)" fill="#E9F1F4" width="2.944" height="0.163"/>
		
			<rect x="564.176" y="307.612" transform="matrix(-0.7073 0.7069 -0.7069 -0.7073 1183.2385 125.4376)" fill="#E9F1F4" width="2.947" height="0.164"/>
		<polygon fill="#E9F1F4" points="568.943,304.247 569.058,304.361 570.101,303.32 570.134,303.055 		"/>
		<polygon fill="#E9F1F4" points="562.231,310.957 560.503,312.686 560.736,312.686 562.347,311.073 		"/>
		
			<rect x="568.834" y="304.298" transform="matrix(-0.7101 0.7041 -0.7041 -0.7101 1187.2136 119.9326)" fill="#E9F1F4" width="0.164" height="0.166"/>
		
			<rect x="566.677" y="306.473" transform="matrix(0.7041 0.7101 -0.7101 0.7041 385.3744 -311.7422)" fill="#E9F1F4" width="0.164" height="0.164"/>
		
			<rect x="564.458" y="308.662" transform="matrix(-0.7071 0.7071 -0.7071 -0.7071 1182.0439 127.8687)" fill="#E9F1F4" width="0.163" height="0.163"/>
		
			<rect x="562.263" y="310.868" transform="matrix(-0.7071 -0.7071 0.7071 -0.7071 740.1063 928.4634)" fill="#E9F1F4" width="0.163" height="0.164"/>
		
			<rect x="567.764" y="308.392" transform="matrix(0.7071 0.7071 -0.7071 0.7071 385.4255 -310.7699)" fill="#E9F1F4" width="0.163" height="2.946"/>
		<polygon fill="#E9F1F4" points="566.628,310.957 564.9,312.686 565.132,312.686 566.744,311.073 		"/>
		<polygon fill="#E9F1F4" points="568.942,308.645 569.058,308.76 569.45,308.367 569.484,308.102 		"/>
		
			<rect x="568.855" y="308.662" transform="matrix(0.7101 -0.7041 0.7041 0.7101 -52.4477 490.1079)" fill="#E9F1F4" width="0.164" height="0.164"/>
		
			<rect x="566.66" y="310.87" transform="matrix(-0.7071 -0.7071 0.7071 -0.7071 747.6121 931.5734)" fill="#E9F1F4" width="0.163" height="0.163"/>
	</g>
	<g>
		<g>
			<path fill="#326600" d="M815.693,235.309c2.52,15.469,4.61,37.084,2.924,37.526c-1.689,0.442-6.521-20.452-9.039-35.919
				c-2.521-15.468-1.773-19.65-0.084-20.094C811.183,216.38,813.175,219.842,815.693,235.309z"/>
			<path fill="#326600" d="M823.81,231.436c-1.586,18.123-5.157,42.793-6.875,42.504c-1.715-0.287-0.926-25.426,0.66-43.551
				c1.588-18.123,3.37-22.367,5.086-22.078C824.398,208.6,825.396,213.312,823.81,231.436z"/>
			<path fill="#3A7C00" d="M820.986,224.7c0,20.114-1.789,47.757-3.994,47.757c-2.207,0-3.995-27.643-3.995-47.757
				s1.788-25.086,3.995-25.086C819.197,199.614,820.986,204.586,820.986,224.7z"/>
		</g>
		<path fill="#CFE5E5" d="M801.148,310.997c0,1.487,1.207,2.694,2.694,2.694h27.847c1.488,0,2.694-1.207,2.694-2.694v-46.544
			h-33.235V310.997z"/>
		
			<path fill="none" stroke="#798C8C" stroke-width="2.044" stroke-linecap="round" stroke-linejoin="round" stroke-miterlimit="10" d="
			M821.855,268.863v5.964c0,1.032-0.839,1.871-1.871,1.871H808.6c-1.033,0-1.871-0.839-1.871-1.871v-5.964"/>
		<g>
			<path fill="#FFFFFF" d="M832.562,266.797c0-0.508-0.412-0.92-0.923-0.92l0,0c-0.51,0-0.924,0.412-0.924,0.92v41.506
				c0,0.508,0.414,0.92,0.924,0.92l0,0c0.511,0,0.923-0.412,0.923-0.92V266.797z"/>
			<circle fill="#FFFFFF" cx="831.646" cy="310.986" r="0.93"/>
		</g>
	</g>
	<g>
		<g>
			<path fill="#326600" d="M162.735,235.309c2.52,15.469,4.611,37.084,2.923,37.526c-1.689,0.442-6.52-20.452-9.039-35.919
				c-2.519-15.468-1.771-19.65-0.083-20.094C158.224,216.38,160.216,219.842,162.735,235.309z"/>
			<path fill="#326600" d="M170.851,231.436c-1.586,18.123-5.158,42.793-6.873,42.504c-1.717-0.287-0.928-25.426,0.66-43.551
				c1.586-18.123,3.369-22.367,5.085-22.078C171.439,208.6,172.438,213.312,170.851,231.436z"/>
			<path fill="#3A7C00" d="M168.027,224.7c0,20.114-1.789,47.757-3.994,47.757c-2.206,0-3.994-27.643-3.994-47.757
				s1.788-25.086,3.994-25.086C166.238,199.614,168.027,204.586,168.027,224.7z"/>
		</g>
		<path fill="#CFE5E5" d="M148.19,310.997c0,1.487,1.206,2.694,2.694,2.694h27.847c1.488,0,2.693-1.207,2.693-2.694v-46.544H148.19
			V310.997z"/>
		
			<path fill="none" stroke="#798C8C" stroke-width="2.044" stroke-linecap="round" stroke-linejoin="round" stroke-miterlimit="10" d="
			M168.896,268.863v5.964c0,1.032-0.838,1.871-1.871,1.871h-11.383c-1.033,0-1.872-0.839-1.872-1.871v-5.964"/>
		<g>
			<path fill="#FFFFFF" d="M179.603,266.797c0-0.508-0.412-0.92-0.922-0.92l0,0c-0.51,0-0.924,0.412-0.924,0.92v41.506
				c0,0.508,0.414,0.92,0.924,0.92l0,0c0.51,0,0.922-0.412,0.922-0.92V266.797z"/>
			<circle fill="#FFFFFF" cx="178.687" cy="310.986" r="0.93"/>
		</g>
	</g>
	<g>
		<path fill="#326600" d="M970.66,117.362c-0.767,0.765-2.006,0.765-2.771,0l-0.385-0.386c-0.766-0.766-0.766-2.005,0-2.771
			l4.234-4.234c0.766-0.765,2.007-0.766,2.771,0l0.388,0.385c0.765,0.767,0.765,2.007,0,2.772L970.66,117.362z"/>
		<path fill="#326600" d="M969.363,111.959c0.766,0.765,0.766,2.006,0,2.771l-0.386,0.386c-0.766,0.765-2.006,0.765-2.771,0
			l-6.785-6.787c-0.766-0.766-0.766-2.007,0-2.771l0.385-0.387c0.767-0.765,2.006-0.765,2.771,0L969.363,111.959z"/>
		<path fill="#3A7C00" d="M971.199,115.984c0,1.789-1.449,3.239-3.24,3.239h-0.898c-1.789,0-3.239-1.45-3.239-3.239v-9.9
			c0-1.789,1.45-3.24,3.239-3.24h0.898c1.791,0,3.24,1.451,3.24,3.24V115.984z"/>
		<path fill="#DB4928" d="M960.287,127.145c0,0.895,0.727,1.62,1.621,1.62h11.406c0.895,0,1.62-0.726,1.62-1.62v-11.51h-14.647
			V127.145L960.287,127.145z"/>
	</g>
	<g>
		<g>
			<rect x="292.5" y="49.609" fill="#383F42" width="0.497" height="36.166"/>
			<g>
				<polygon fill="#FFFFFF" points="294.386,97.878 287.837,97.878 290.487,84.781 294.386,84.781 				"/>
				<polygon fill="#FFFFFF" points="291.113,97.878 297.66,97.878 295.011,84.781 291.113,84.781 				"/>
			</g>
			<path fill="#383F42" d="M290.511,84.781c0-1.236,1.002-2.238,2.238-2.238s2.238,1.002,2.238,2.238"/>
		</g>
		<g>
			<rect x="412.406" y="49.609" fill="#383F42" width="0.498" height="36.166"/>
			<g>
				<polygon fill="#FFFFFF" points="414.292,97.878 407.744,97.878 410.392,84.781 414.292,84.781 				"/>
				<polygon fill="#FFFFFF" points="411.018,97.878 417.566,97.878 414.917,84.781 411.018,84.781 				"/>
			</g>
			<path fill="#383F42" d="M410.417,84.781c0-1.236,1.002-2.238,2.237-2.238c1.234,0,2.236,1.002,2.236,2.238"/>
		</g>
		<g>
			<rect x="532.312" y="49.609" fill="#383F42" width="0.496" height="36.166"/>
			<g>
				<polygon fill="#FFFFFF" points="534.197,97.878 527.649,97.878 530.298,84.781 534.197,84.781 				"/>
				<polygon fill="#FFFFFF" points="530.923,97.878 537.471,97.878 534.823,84.781 530.923,84.781 				"/>
			</g>
			<path fill="#383F42" d="M530.322,84.781c0-1.236,1.002-2.238,2.237-2.238c1.236,0,2.238,1.002,2.238,2.238"/>
		</g>
		<g>
			<rect x="652.218" y="49.609" fill="#383F42" width="0.496" height="36.166"/>
			<g>
				<polygon fill="#FFFFFF" points="654.104,97.878 647.554,97.878 650.205,84.781 654.104,84.781 				"/>
				<polygon fill="#FFFFFF" points="650.83,97.878 657.376,97.878 654.729,84.781 650.83,84.781 				"/>
			</g>
			<path fill="#383F42" d="M650.229,84.781c0-1.236,1.002-2.238,2.237-2.238c1.236,0,2.238,1.002,2.238,2.238"/>
		</g>
		<g>
			<rect x="772.123" y="49.609" fill="#383F42" width="0.498" height="36.166"/>
			<g>
				<polygon fill="#FFFFFF" points="774.009,97.878 767.46,97.878 770.109,84.781 774.009,84.781 				"/>
				<polygon fill="#FFFFFF" points="770.734,97.878 777.283,97.878 774.634,84.781 770.734,84.781 				"/>
			</g>
			<path fill="#383F42" d="M770.133,84.781c0-1.236,1.002-2.238,2.237-2.238c1.236,0,2.238,1.002,2.238,2.238"/>
		</g>
	</g>
	<g>
		<rect x="202.796" y="114.795" fill="#B75F0F" width="243.217" height="115.006"/>
		<rect x="204.966" y="116.748" fill="#FFFFFF" width="239.004" height="111.158"/>
		<g>
			<path d="M312.613,125.452c-0.482,0-0.864,0.161-1.146,0.483c-0.278,0.321-0.42,0.762-0.42,1.321c0,0.575,0.136,1.021,0.405,1.334
				c0.269,0.313,0.654,0.47,1.153,0.47c0.307,0,0.656-0.055,1.051-0.165v0.448c-0.308,0.114-0.683,0.172-1.129,0.172
				c-0.648,0-1.147-0.197-1.498-0.59c-0.354-0.393-0.529-0.951-0.529-1.675c0-0.454,0.085-0.851,0.254-1.191
				c0.17-0.341,0.414-0.604,0.734-0.788c0.319-0.184,0.696-0.276,1.129-0.276c0.461,0,0.865,0.085,1.209,0.253l-0.216,0.438
				C313.279,125.53,312.946,125.452,312.613,125.452z"/>
			<path d="M314.615,129.455v-4.396h0.512v4.396H314.615z"/>
			<path d="M317.686,129.455h-0.511v-3.943h-1.393v-0.453h3.296v0.453h-1.394L317.686,129.455L317.686,129.455z"/>
			<path d="M320.859,127.257l1.174-2.198h0.553l-1.467,2.691v1.705h-0.519v-1.682l-1.465-2.715h0.56L320.859,127.257z"/>
			<path d="M326.736,129.455l-1.492-3.897h-0.023c0.027,0.309,0.041,0.675,0.041,1.101v2.797h-0.471v-4.396h0.77l1.394,3.627h0.022
				l1.404-3.627h0.764v4.396h-0.512v-2.833c0-0.325,0.017-0.678,0.043-1.059h-0.022l-1.504,3.892L326.736,129.455L326.736,129.455z"
				/>
			<path d="M333.115,129.455l-0.548-1.398h-1.764l-0.541,1.398h-0.518l1.738-4.415h0.43l1.729,4.415H333.115z M332.408,127.596
				l-0.512-1.361c-0.066-0.172-0.135-0.384-0.204-0.635c-0.044,0.192-0.107,0.404-0.19,0.635l-0.516,1.361H332.408z"/>
			<path d="M337.036,126.34c0,0.445-0.151,0.787-0.456,1.026c-0.303,0.239-0.738,0.359-1.303,0.359h-0.519v1.729h-0.512v-4.396
				h1.141C336.486,125.059,337.036,125.485,337.036,126.34z M334.759,127.287h0.46c0.453,0,0.78-0.074,0.983-0.22
				s0.304-0.382,0.304-0.704c0-0.291-0.095-0.507-0.286-0.65c-0.188-0.142-0.485-0.213-0.889-0.213h-0.572V127.287L334.759,127.287z
				"/>
		</g>
		<rect x="426.792" y="192.659" fill="#90A865" width="4.133" height="4.132"/>
		<g>
			<polygon fill="#90A865" points="428.859,195.008 375.882,195.008 375.882,165.691 285.437,165.691 264.777,145.031 
				229.15,145.031 229.15,144.146 265.144,144.146 285.802,164.807 376.767,164.807 376.767,194.123 428.859,194.123 			"/>
			<polygon fill="#006ADD" points="332.727,185.957 231.488,185.957 231.488,185.072 331.841,185.072 331.841,165.284 
				332.727,165.284 			"/>
			<polygon fill="#EA2100" points="355.912,165.284 355.025,165.284 355.025,151.463 422.367,151.463 422.367,152.348 
				355.912,152.348 			"/>
			
				<rect x="244.203" y="181.553" transform="matrix(-0.7071 -0.7071 0.7071 -0.7071 280.0594 505.1274)" fill="#006ADD" width="0.884" height="26.017"/>
			
				<rect x="264.491" y="181.554" transform="matrix(-0.7079 -0.7063 0.7063 -0.7079 315.0737 519.4169)" fill="#006ADD" width="0.885" height="26.018"/>
			
				<rect x="306.176" y="181.554" transform="matrix(-0.7082 -0.706 0.706 -0.7082 386.4074 548.8262)" fill="#006ADD" width="0.885" height="26.017"/>
			<polygon fill="#EA2100" points="422.053,176.383 406.103,160.432 406.103,151.904 406.988,151.904 406.988,160.064 
				422.679,175.757 			"/>
			<polygon fill="#8E07A5" points="352.634,204.076 352.007,203.451 370.214,185.244 376.326,185.244 376.326,186.129 
				370.582,186.129 			"/>
			<polygon fill="#E8821C" points="239.105,176.383 238.478,175.757 255.824,158.41 278.966,158.41 278.966,159.296 
				256.191,159.296 			"/>
			<rect x="236.822" y="174.07" fill="#E8821C" width="4.133" height="4.132"/>
			<rect x="227.083" y="142.522" fill="#90A865" width="4.133" height="4.132"/>
			<rect x="374.258" y="192.659" fill="#90A865" width="4.132" height="4.132"/>
			<rect x="420.3" y="174.004" fill="#EA2100" width="4.132" height="4.132"/>
			<rect x="420.3" y="149.839" fill="#EA2100" width="4.132" height="4.132"/>
			<rect x="353.402" y="149.839" fill="#EA2100" width="4.133" height="4.132"/>
			<rect x="295.356" y="201.697" fill="#006ADD" width="4.132" height="4.133"/>
			<rect x="350.255" y="201.697" fill="#8E07A5" width="4.131" height="4.133"/>
			<rect x="253.671" y="201.697" fill="#006ADD" width="4.131" height="4.133"/>
			<rect x="233.38" y="201.697" fill="#006ADD" width="4.131" height="4.133"/>
		</g>
		<g>
			<path fill="#414042" d="M410.73,212.48H236.65v-72.49H410.73V212.48L410.73,212.48z M236.796,212.333h173.786v-72.196H236.796
				V212.333z"/>
			<path fill="#414042" d="M374.257,212.48c-19.985,0-36.246-16.26-36.246-36.246c0-19.985,16.261-36.244,36.246-36.244
				c19.984,0,36.244,16.259,36.244,36.244C410.501,196.221,394.242,212.48,374.257,212.48z M374.257,140.137
				c-19.904,0-36.098,16.193-36.098,36.097c0,19.906,16.192,36.1,36.098,36.1c19.903,0,36.099-16.193,36.099-36.1
				C410.355,156.33,394.161,140.137,374.257,140.137z"/>
			<path fill="#414042" d="M287.953,175.473h-68.816v-38.828h68.816V175.473z M219.285,175.326h68.521v-38.534h-68.521V175.326z"/>
			<path fill="#414042" d="M322.402,206.086H215.302v-23.203h107.101V206.086z M215.45,205.938h106.804v-22.908H215.45V205.938z"/>
			<path fill="#414042" d="M231.386,213.725h-10.479v-48.514h10.479V213.725z M221.055,213.576h10.184v-48.219h-10.184V213.576z"/>
		</g>
		
			<line fill="none" stroke="#90A865" stroke-width="0.8176" stroke-miterlimit="10" x1="395.154" y1="168.583" x2="395.154" y2="194.123"/>
		
			<line fill="none" stroke="#90A865" stroke-width="0.8176" stroke-miterlimit="10" x1="264.935" y1="144.758" x2="264.935" y2="170.297"/>
		
			<line fill="none" stroke="#90A865" stroke-width="0.8176" stroke-miterlimit="10" x1="313.828" y1="152.441" x2="313.828" y2="177.98"/>
		
			<line fill="none" stroke="#006ADD" stroke-width="0.8176" stroke-miterlimit="10" x1="332.727" y1="203.764" x2="297.736" y2="203.764"/>
		
			<line fill="none" stroke="#006ADD" stroke-width="0.8176" stroke-miterlimit="10" x1="299.488" y1="186.488" x2="299.488" y2="151.497"/>
		<circle fill="#90A865" cx="313.821" cy="151.496" r="2.066"/>
		<circle fill="#006ADD" cx="299.488" cy="151.497" r="2.066"/>
		<circle fill="#E8821C" cx="238.888" cy="151.739" r="2.066"/>
		<circle fill="#E8821C" cx="290.911" cy="177.98" r="2.066"/>
		<circle fill="#006ADD" cx="345.281" cy="215.186" r="2.066"/>
		<circle fill="#006ADD" cx="331.695" cy="203.764" r="2.066"/>
		<circle fill="#006ADD" cx="367.969" cy="176.383" r="2.065"/>
		<circle fill="#EA2100" cx="329.004" cy="159.229" r="2.065"/>
		<circle fill="#EA2100" cx="317.431" cy="144.146" r="2.066"/>
		<circle fill="#EA2100" cx="387.796" cy="186.488" r="2.066"/>
		<circle fill="#90A865" cx="313.821" cy="178.202" r="2.066"/>
		<circle fill="#90A865" cx="264.935" cy="171.059" r="2.066"/>
		<circle fill="#90A865" cx="395.154" cy="168.992" r="2.066"/>
		<circle fill="#90A865" cx="403.126" cy="219.479" r="2.066"/>
		<polyline fill="none" stroke="#E8821C" stroke-width="0.8176" stroke-miterlimit="10" points="238.888,151.739 238.888,166.719 
			248.192,166.719 		"/>
		<path fill="none" stroke="#E8821C" stroke-width="0.8176" stroke-miterlimit="10" d="M248.192,166.719
			c0.409,0.816,0,11.483,0,11.483h42.72"/>
		<polyline fill="none" stroke="#006ADD" stroke-width="0.8176" stroke-miterlimit="10" points="278.966,185.957 278.966,215.186 
			346.302,215.186 		"/>
		<polyline fill="none" stroke="#EA2100" stroke-width="0.8176" stroke-miterlimit="10" points="387.796,186.488 387.796,144.146 
			317.431,144.146 		"/>
		
			<line fill="none" stroke="#EA2100" stroke-width="0.8176" stroke-miterlimit="10" x1="329.005" y1="159.229" x2="329.005" y2="144.146"/>
		<path fill="none" stroke="#90A865" stroke-width="0.8176" stroke-miterlimit="10" d="M403.125,219.479c0-0.612,0-24.914,0-24.914"
			/>
		<polyline fill="none" stroke="#006ADD" stroke-width="0.8176" stroke-miterlimit="10" points="344.259,165.691 344.259,191.271 
			355.468,191.271 355.468,176.383 367.968,176.383 		"/>
	</g>
	<g>
		<rect x="474.753" y="236.191" fill="#BAA665" width="79.791" height="77.5"/>
		<rect x="471.513" y="233.062" fill="#BAA665" width="86.271" height="3.129"/>
		<rect x="474.753" y="236.191" fill="#9B8957" width="79.791" height="3.129"/>
		<g>
			<rect x="513.4" y="224.854" fill="#FFFFFF" width="25.854" height="6.898"/>
			<path fill="#0D6BB2" d="M514.056,226.443c0.002-0.037,0.015-0.071,0.019-0.107h-4.199v6.729h31.184v-2.853l-24.987-1.498
				C514.887,228.643,513.986,227.627,514.056,226.443z"/>
		</g>
		<path fill="#FFFFFF" d="M549.63,232.408c0,0.361-0.293,0.654-0.654,0.654H529.54c-0.363,0-0.656-0.293-0.656-0.654l0,0
			c0-0.362,0.293-0.656,0.656-0.656h19.436C549.337,231.752,549.63,232.046,549.63,232.408L549.63,232.408z"/>
		<g>
			<g>
				<path fill="#FFFFFF" d="M497.148,193.005c-1.412,0.097-2.479,1.317-2.386,2.729l1.98,29.34c0.096,1.412,1.315,2.479,2.729,2.384
					l0.566-0.038l-2.324-34.453L497.148,193.005z"/>
				
					<rect x="498.879" y="192.927" transform="matrix(-0.9978 0.0665 -0.0665 -0.9978 1011.0463 386.7206)" fill="#262626" width="0.411" height="34.532"/>
			</g>
			<path fill="none" stroke="#FFFFFF" stroke-width="0.6132" stroke-miterlimit="10" d="M496.74,211.002l-8.013,15.57l-0.002-0.002
				c-0.077,0.145-0.149,0.291-0.213,0.445c-0.198,0.485-0.309,1.019-0.309,1.577c0,2.3,1.864,4.164,4.164,4.164h9.737"/>
		</g>
	</g>
	<g>
		<g>
			<rect x="646.976" y="113.551" fill="#74BDD1" width="56.82" height="36.701"/>
			<rect x="646.976" y="153.6" fill="#74BDD1" width="56.82" height="95.072"/>
			<rect x="707.146" y="113.551" fill="#74BDD1" width="56.819" height="36.701"/>
			<rect x="707.146" y="153.6" fill="#74BDD1" width="56.819" height="95.072"/>
		</g>
		<rect x="703.796" y="113.551" fill="#FFFFFF" width="3.351" height="36.701"/>
		<rect x="703.796" y="153.6" fill="#FFFFFF" width="3.351" height="95.072"/>
		<rect x="646.976" y="150.252" fill="#FFFFFF" width="56.82" height="3.348"/>
		<rect x="707.146" y="150.252" fill="#FFFFFF" width="56.819" height="3.348"/>
		<rect x="703.796" y="150.252" fill="#FFFFFF" width="3.351" height="3.348"/>
		<rect x="641.347" y="248.383" fill="#FFFFFF" width="128.25" height="2.988"/>
	</g>
	<g>
		<rect x="626.807" y="230.248" display="none" fill="#202E42" width="7.755" height="9.932"/>
		<rect x="599.056" y="230.248" display="none" fill="#202E42" width="7.754" height="9.932"/>
		<g>
			
				<rect x="633.674" y="233.925" transform="matrix(0.9767 0.2145 -0.2145 0.9767 68.3286 -130.3841)" fill="#5E5E5E" width="2.258" height="31.303"/>
			<path fill="#B75F0F" d="M636.631,256.016c-0.399,1.713-2.112,2.779-3.824,2.379l0,0c-1.715-0.398-2.779-2.113-2.38-3.826
				L644,196.404c0.399-1.713,2.111-2.777,3.826-2.378l0,0c1.713,0.399,2.776,2.113,2.378,3.825L636.631,256.016z"/>
		</g>
		<g>
			<g>
				<rect x="604.597" y="290.199" fill="#5E5E5E" width="5.999" height="15.762"/>
				<rect x="606.467" y="262.023" fill="#5E5E5E" width="2.26" height="31.303"/>
				<g>
					
						<rect x="615.341" y="297.549" transform="matrix(0.2707 -0.9627 0.9627 0.2707 153.3979 817.3481)" fill="#5E5E5E" width="1.656" height="19.757"/>
					
						<rect x="598.217" y="297.548" transform="matrix(-0.2718 -0.9623 0.9623 -0.2718 466.038 967.4855)" fill="#5E5E5E" width="1.656" height="19.759"/>
					<circle fill="#5E5E5E" cx="589.743" cy="311.795" r="2.5"/>
					<circle fill="#5E5E5E" cx="625.451" cy="311.795" r="2.5"/>
				</g>
				<rect x="606.682" y="304.482" fill="#5E5E5E" width="1.831" height="6.42"/>
				<rect x="605.654" y="309.309" fill="#5E5E5E" width="3.884" height="4.986"/>
			</g>
			<path fill="#D39822" d="M634.115,265.109c0,1.979-1.605,3.582-3.586,3.582h-45.868c-1.978,0-3.582-1.604-3.582-3.582l0,0
				c0-1.982,1.604-3.584,3.582-3.584h45.868C632.51,261.525,634.115,263.127,634.115,265.109L634.115,265.109z"/>
		</g>
		<g display="none">
			<g display="inline">
				<path fill="#2C313A" d="M556.766,313.049c0.638-1.9,1.24-2.113,5.354-2.312l2.998-0.955c1.681-0.414,3.158-1.34,4.259-2.604
					c0.247-0.287,0.474-0.59,0.681-0.906c1.898,0.139,1.626,1.865,1.626,1.865h5.351v0.723v1.006v1.008v2.176v0.957v0.572h-5.891
					v-0.572v-0.953l-2.615,1.525h-12.013C556.516,314.043,556.604,313.529,556.766,313.049z"/>
				<rect x="568.1" y="256.791" fill="#202E42" width="8.935" height="51.643"/>
			</g>
			<path display="inline" fill="#1F2328" d="M568.19,313.049c0.639-1.9,1.24-2.113,5.355-2.312l2.997-0.955
				c1.681-0.414,3.159-1.34,4.26-2.604c0.246-0.287,0.474-0.59,0.68-0.906c1.898,0.139,1.627,1.865,1.627,1.865h5.35v0.723v1.006
				v1.008v2.176v0.957v0.572h-5.89v-0.572v-0.953l-2.616,1.525H567.94C567.94,314.043,568.029,313.529,568.19,313.049z"/>
			<rect x="579.524" y="256.791" display="inline" fill="#202E42" width="8.935" height="51.643"/>
			<rect x="568.1" y="252.844" display="inline" fill="#202E42" width="50.851" height="8.932"/>
			<path display="inline" fill="#202E42" d="M604.56,253.51c0,4.566,3.702,8.266,8.268,8.266h6.257c4.567,0,8.268-3.699,8.268-8.266
				v-6.258c0-4.567-3.7-8.268-8.268-8.268h-6.257c-4.565,0-8.268,3.7-8.268,8.268V253.51z"/>
		</g>
		<g display="none">
			<path display="inline" fill="#F9B69B" d="M589.181,237.395L589.181,237.395h-2.389l0,0v6.902h-3.279h-4.326
				c-0.002,0-0.004,0-0.007,0s-0.005,0-0.008,0h-0.334v-0.033c-1.743-0.174-3.111-1.629-3.111-3.418
				c0-1.791,1.368-3.246,3.111-3.418v-0.033h0.334c0.003,0,0.005-0.002,0.008-0.002s0.005,0.002,0.007,0.002h3.542
				c-0.003-0.035-0.011-0.066-0.011-0.102c0-0.679,0.551-1.229,1.229-1.229s1.23,0.551,1.23,1.229c0,0.035-0.007,0.066-0.011,0.102
				h3.022H589.181z"/>
			<rect x="586.792" y="237.395" display="inline" fill="#FFFFFF" width="0" height="6.902"/>
			<polygon display="inline" fill="#FFFFFF" points="589.181,244.297 589.181,244.297 586.792,244.297 586.792,244.297 
				586.792,244.297 586.792,244.297 			"/>
			<polygon display="inline" fill="#FFFFFF" points="589.181,244.297 589.181,244.297 586.792,244.297 586.792,244.297 
				588.189,244.297 			"/>
			<polygon display="inline" opacity="0.3" fill="#84A8C1" points="589.181,244.297 589.181,244.297 586.792,244.297 
				586.792,244.297 588.189,244.297 			"/>
			<polygon display="inline" fill="#FFFFFF" points="589.181,243.27 589.181,244.297 588.189,244.297 586.792,244.297 
				586.792,237.395 589.181,237.395 			"/>
			<rect x="588.343" y="235.649" display="inline" fill="#202E42" width="32.478" height="9.062"/>
		</g>
		<g display="none">
			<path display="inline" fill="#F9B69B" d="M608.534,178.371l0.177-0.221h12.657v27.002l0,0v10.191h-9.658v-10.191l0,0v-0.01
				c0-2.116,0-2.116,0-2.646c0-1.234-1.41-1.41-1.41-1.41h-2.956v-11.645h-3.75L608.534,178.371z"/>
			<circle display="inline" fill="#2E3D49" cx="610.354" cy="182.551" r="0.519"/>
			<path display="inline" fill="#CE857C" d="M609.11,192.373c0.198,0,0.36-0.161,0.36-0.359H610c0,0.488-0.398,0.888-0.89,0.888
				h-1.767v-0.528H609.11z"/>
			<path display="inline" fill="none" d="M614.938,183.223c0,0.014-0.004,0.025-0.004,0.038v-0.038H614.938z"/>
			<g display="inline">
				<rect x="604.624" y="248.066" fill="#9B390D" width="22.759" height="2.008"/>
				<polygon fill="#202E42" points="606.861,250.074 606.861,248.066 607.881,248.066 607.881,250.074 621.499,250.074 
					621.499,248.066 622.521,248.066 622.521,250.074 627.383,250.074 627.383,252.844 604.624,252.844 604.624,250.074 				"/>
			</g>
			<polygon display="inline" fill="#FFFFFF" points="611.71,205.152 611.717,202.672 613.89,202.672 615.751,202.672 
				617.785,202.672 619.578,202.672 621.368,202.672 621.368,205.152 621.412,205.152 621.412,248.066 611.701,248.066 
				611.701,205.152 			"/>
			<path display="inline" opacity="0.3" fill="#84A8C1" d="M613.573,224.558c0,0.751-0.608,1.358-1.358,1.358h-5.318
				c-0.75,0-1.358-0.607-1.358-1.358v-7.095h8.035V224.558z"/>
			<polygon display="inline" fill="#BF2E2E" points="614.104,205.361 616.2,202.672 618.296,205.361 617.146,206.512 
				618.129,241.094 618.129,241.094 616.204,243.02 614.279,241.094 614.272,241.094 615.254,206.512 			"/>
			<path display="inline" fill="#303235" d="M607.519,172.299c1.509,0,2.733,1.223,2.733,2.733c0,0.177-0.021,0.349-0.054,0.517
				h11.805v15.129c0,0,0,0-1.367,0c-4.146,0-3.925-3.926-3.925-3.926v-1.719c0.04,0.004,0.077,0.013,0.117,0.013
				c0.962,0,1.741-0.78,1.741-1.741c0-0.963-0.779-1.742-1.741-1.742c-0.494,0-0.937,0.207-1.256,0.537v1.124v1.286v0.536h-1.856
				v-4.47c-0.631,0-1.562,0-2.96,0c-3.838,0-5.297-3.139-5.741-4.453c-0.146-0.334-0.229-0.703-0.229-1.091
				C604.785,173.521,606.009,172.299,607.519,172.299z"/>
			<polygon display="inline" fill="#344E68" points="609.741,205.141 609.046,207.6 610.254,209.135 608.678,210.71 
				611.701,232.896 611.701,210.974 611.701,208.867 611.701,205.141 			"/>
			<g display="inline">
				<path fill="#202E42" d="M623.327,205.141h5.538c3.146,0,5.696,2.549,5.696,5.694v0.013v4.161v0.012v16.524h-7.179v0.014v16.508
					v4.777h-0.564h-5.406v-4.777v-42.914v-0.012H623.327z"/>
				<path fill="#202E42" d="M604.747,205.152h5.539h1.415v42.914v4.777h-5.404h-1.673v-4.777v-16.521h-5.568v-6.706v-5.927v-8.064
					C599.056,207.702,601.604,205.152,604.747,205.152z"/>
				<polygon fill="#344E68" points="623.327,205.141 624.024,207.6 622.815,209.135 624.392,210.71 621.368,232.896 
					621.368,210.974 621.368,208.867 621.368,205.141 				"/>
				<polygon fill="#344E68" points="609.741,205.141 609.046,207.6 610.254,209.135 608.678,210.71 611.701,232.896 
					611.701,210.974 611.701,208.867 611.701,205.141 				"/>
			</g>
		</g>
		<g display="none">
			<path display="inline" fill="#F9B69B" d="M610.871,235.608L610.871,235.608l-2.388,0.001h-0.001v6.902h-3.278h-4.326
				c-0.004,0-0.005,0-0.009,0c-0.003,0-0.005,0-0.007,0h-0.335v-0.034c-1.743-0.174-3.11-1.628-3.11-3.418s1.367-3.244,3.11-3.417
				v-0.034h0.335c0.002,0,0.004-0.001,0.007-0.001c0.004,0,0.005,0.001,0.009,0.001h3.543c-0.005-0.034-0.012-0.064-0.012-0.101
				c0-0.678,0.55-1.229,1.228-1.229c0.681,0,1.231,0.552,1.231,1.229c0,0.036-0.007,0.066-0.01,0.101h3.021H610.871z"/>
			<rect x="608.482" y="235.609" display="inline" fill="#FFFFFF" width="0.001" height="6.902"/>
			<polygon display="inline" fill="#FFFFFF" points="610.871,242.512 610.871,242.513 608.482,242.513 608.482,242.512 
				608.483,242.512 608.483,242.512 			"/>
			<polygon display="inline" fill="#FFFFFF" points="610.871,242.512 610.871,242.512 608.483,242.512 608.483,242.512 
				609.88,242.512 			"/>
			<polygon display="inline" opacity="0.3" fill="#84A8C1" points="610.871,242.512 610.871,242.512 608.483,242.512 
				608.483,242.512 609.88,242.512 			"/>
			<polygon display="inline" fill="#FFFFFF" points="610.871,241.484 610.871,242.512 609.88,242.512 608.483,242.512 
				608.483,235.609 610.871,235.609 			"/>
			<rect x="610.033" y="235.49" display="inline" fill="#202E42" width="24.528" height="9.061"/>
		</g>
	</g>
</g>
</svg>
