<?xml version="1.0" encoding="utf-8"?>
<!-- Generator: Adobe Illustrator 16.0.0, SVG Export Plug-In . SVG Version: 6.00 Build 0)  -->
<!DOCTYPE svg PUBLIC "-//W3C//DTD SVG 1.1//EN" "http://www.w3.org/Graphics/SVG/1.1/DTD/svg11.dtd">
<svg version="1.1" id="Layer_1" xmlns="http://www.w3.org/2000/svg" xmlns:xlink="http://www.w3.org/1999/xlink" x="0px" y="0px"
	 width="1054.598px" height="315.707px" viewBox="0 0 1054.598 315.707" enable-background="new 0 0 1054.598 315.707"
	 xml:space="preserve">
<rect x="42.156" y="49.609" fill="#E2E2AC" width="970.286" height="266.098"/>
<g>
	<g>
		<rect x="864.945" y="128.765" fill="#5E5E5E" width="119.986" height="184.927"/>
		<rect x="869.8" y="170.15" fill="#3F434C" width="110.275" height="30.561"/>
		<rect x="869.8" y="134.296" fill="#3F434C" width="110.275" height="30.562"/>
		<rect x="869.8" y="206.253" fill="#3F434C" width="110.275" height="30.562"/>
		<rect x="869.8" y="242.356" fill="#3F434C" width="110.275" height="30.562"/>
		<rect x="869.8" y="278.459" fill="#3F434C" width="110.275" height="30.562"/>
	</g>
	<g>
		<rect x="954.48" y="230.459" fill="#F7D21C" width="22.94" height="6.355"/>
		<rect x="956.208" y="231.846" fill="#F4F4F4" width="9.021" height="3.582"/>
		<rect x="956.105" y="231.846" fill="#8C9596" width="1.773" height="3.582"/>
		<g>
			
				<line fill="none" stroke="#287BBF" stroke-width="0.1022" stroke-miterlimit="10" x1="964.06" y1="235.023" x2="964.06" y2="232.27"/>
			
				<line fill="none" stroke="#287BBF" stroke-width="0.1022" stroke-miterlimit="10" x1="963.095" y1="235.023" x2="963.095" y2="232.27"/>
			
				<line fill="none" stroke="#287BBF" stroke-width="0.1022" stroke-miterlimit="10" x1="962.131" y1="235.023" x2="962.131" y2="232.27"/>
			
				<line fill="none" stroke="#287BBF" stroke-width="0.1022" stroke-miterlimit="10" x1="961.167" y1="235.023" x2="961.167" y2="232.27"/>
			
				<line fill="none" stroke="#287BBF" stroke-width="0.1022" stroke-miterlimit="10" x1="960.203" y1="235.023" x2="960.203" y2="232.27"/>
			
				<line fill="none" stroke="#287BBF" stroke-width="0.1022" stroke-miterlimit="10" x1="959.24" y1="235.023" x2="959.24" y2="232.27"/>
		</g>
		<g>
			<circle fill="#C1D6D6" cx="973.488" cy="233.658" r="1.498"/>
			<circle fill="#515859" cx="973.488" cy="233.637" r="1.205"/>
		</g>
	</g>
	<g>
		
			<rect x="872.053" y="249.552" transform="matrix(-0.9789 0.2044 -0.2044 -0.9789 1785.3328 337.6795)" fill="#1F98EA" width="6.356" height="22.939"/>
		
			<rect x="874.508" y="261.631" transform="matrix(-0.979 0.204 -0.204 -0.979 1788.4609 347.9459)" fill="#F4F4F4" width="3.581" height="9.022"/>
		
			<rect x="875.27" y="268.905" transform="matrix(-0.979 0.204 -0.204 -0.979 1790.7126 355.0116)" fill="#8C9596" width="3.581" height="1.773"/>
		<g>
			
				<line fill="none" stroke="#287BBF" stroke-width="0.1022" stroke-miterlimit="10" x1="876.974" y1="262.589" x2="874.277" y2="263.152"/>
			
				<line fill="none" stroke="#287BBF" stroke-width="0.1022" stroke-miterlimit="10" x1="877.171" y1="263.533" x2="874.474" y2="264.096"/>
			
				<line fill="none" stroke="#287BBF" stroke-width="0.1022" stroke-miterlimit="10" x1="877.369" y1="264.478" x2="874.671" y2="265.04"/>
			
				<line fill="none" stroke="#287BBF" stroke-width="0.1022" stroke-miterlimit="10" x1="877.564" y1="265.421" x2="874.869" y2="265.983"/>
			
				<line fill="none" stroke="#287BBF" stroke-width="0.1022" stroke-miterlimit="10" x1="877.761" y1="266.365" x2="875.066" y2="266.928"/>
			
				<line fill="none" stroke="#287BBF" stroke-width="0.1022" stroke-miterlimit="10" x1="877.958" y1="267.309" x2="875.263" y2="267.871"/>
		</g>
		<g>
			<circle fill="#C1D6D6" cx="873.712" cy="253.639" r="1.498"/>
			<circle fill="#515859" cx="873.691" cy="253.645" r="1.205"/>
		</g>
	</g>
	<g>
		
			<rect x="881.356" y="249.736" transform="matrix(-0.8968 0.4424 -0.4424 -0.8968 1793.3549 104.1307)" fill="#1F98EA" width="6.355" height="22.94"/>
		
			<rect x="885.056" y="261.387" transform="matrix(-0.8969 0.4422 -0.4422 -0.8969 1799.8569 112.2332)" fill="#F4F4F4" width="3.582" height="9.022"/>
		
			<rect x="886.705" y="268.355" transform="matrix(-0.8969 0.4422 -0.4422 -0.8969 1804.462 117.8453)" fill="#8C9596" width="3.582" height="1.772"/>
		<g>
			
				<line fill="none" stroke="#287BBF" stroke-width="0.1022" stroke-miterlimit="10" x1="886.613" y1="262.288" x2="884.144" y2="263.507"/>
			
				<line fill="none" stroke="#287BBF" stroke-width="0.1022" stroke-miterlimit="10" x1="887.041" y1="263.153" x2="884.57" y2="264.372"/>
			
				<line fill="none" stroke="#287BBF" stroke-width="0.1022" stroke-miterlimit="10" x1="887.466" y1="264.018" x2="884.996" y2="265.236"/>
			
				<line fill="none" stroke="#287BBF" stroke-width="0.1022" stroke-miterlimit="10" x1="887.893" y1="264.883" x2="885.423" y2="266.102"/>
			
				<line fill="none" stroke="#287BBF" stroke-width="0.1022" stroke-miterlimit="10" x1="888.32" y1="265.748" x2="885.849" y2="266.966"/>
			
				<line fill="none" stroke="#287BBF" stroke-width="0.1022" stroke-miterlimit="10" x1="888.746" y1="266.612" x2="886.275" y2="267.83"/>
		</g>
		<g>
			<circle fill="#C1D6D6" cx="881.22" cy="254.437" r="1.498"/>
			<circle fill="#515859" cx="881.2" cy="254.447" r="1.205"/>
		</g>
	</g>
	<g>
		
			<rect x="891.388" y="250.551" transform="matrix(-0.7724 0.6352 -0.6352 -0.7724 1751.9337 -103.8004)" fill="#1F98EA" width="6.356" height="22.94"/>
		
			<rect x="896.098" y="261.55" transform="matrix(-0.7723 0.6352 -0.6352 -0.7723 1760.3684 -98.7968)" fill="#F4F4F4" width="3.582" height="9.022"/>
		
			<rect x="898.466" y="268.054" transform="matrix(-0.7724 0.6352 -0.6352 -0.7724 1766.4073 -95.1651)" fill="#8C9596" width="3.581" height="1.773"/>
		<g>
			
				<line fill="none" stroke="#287BBF" stroke-width="0.1022" stroke-miterlimit="10" x1="896.837" y1="262.601" x2="894.71" y2="264.351"/>
			
				<line fill="none" stroke="#287BBF" stroke-width="0.1022" stroke-miterlimit="10" x1="897.451" y1="263.346" x2="895.324" y2="265.096"/>
			
				<line fill="none" stroke="#287BBF" stroke-width="0.1022" stroke-miterlimit="10" x1="898.064" y1="264.09" x2="895.937" y2="265.84"/>
			
				<line fill="none" stroke="#287BBF" stroke-width="0.1022" stroke-miterlimit="10" x1="898.675" y1="264.835" x2="896.548" y2="266.585"/>
			
				<line fill="none" stroke="#287BBF" stroke-width="0.1022" stroke-miterlimit="10" x1="899.289" y1="265.58" x2="897.161" y2="267.329"/>
			
				<line fill="none" stroke="#287BBF" stroke-width="0.1022" stroke-miterlimit="10" x1="899.901" y1="266.324" x2="897.773" y2="268.074"/>
		</g>
		<g>
			<circle fill="#C1D6D6" cx="889.797" cy="256.186" r="1.498"/>
			<circle fill="#515859" cx="889.779" cy="256.201" r="1.205"/>
		</g>
	</g>
	<g>
		<rect x="954.48" y="217.625" fill="#1B4F1B" width="22.941" height="6.356"/>
		<rect x="966.671" y="219.013" fill="#F4F4F4" width="9.021" height="3.581"/>
		<rect x="974.023" y="219.013" fill="#8C9596" width="1.773" height="3.581"/>
		<g>
			
				<line fill="none" stroke="#287BBF" stroke-width="0.1022" stroke-miterlimit="10" x1="967.841" y1="222.191" x2="967.841" y2="219.436"/>
			
				<line fill="none" stroke="#287BBF" stroke-width="0.1022" stroke-miterlimit="10" x1="968.806" y1="222.191" x2="968.806" y2="219.436"/>
			
				<line fill="none" stroke="#287BBF" stroke-width="0.1022" stroke-miterlimit="10" x1="969.769" y1="222.191" x2="969.769" y2="219.436"/>
			
				<line fill="none" stroke="#287BBF" stroke-width="0.1022" stroke-miterlimit="10" x1="970.734" y1="222.191" x2="970.734" y2="219.436"/>
			
				<line fill="none" stroke="#287BBF" stroke-width="0.1022" stroke-miterlimit="10" x1="971.698" y1="222.191" x2="971.698" y2="219.436"/>
			
				<line fill="none" stroke="#287BBF" stroke-width="0.1022" stroke-miterlimit="10" x1="972.663" y1="222.191" x2="972.663" y2="219.436"/>
		</g>
		<g>
			<circle fill="#C1D6D6" cx="958.414" cy="220.826" r="1.498"/>
			<circle fill="#515859" cx="958.414" cy="220.803" r="1.206"/>
		</g>
	</g>
	<g>
		<rect x="951.625" y="224.022" fill="#DB4928" width="22.941" height="6.356"/>
		<rect x="953.353" y="225.41" fill="#F4F4F4" width="9.021" height="3.581"/>
		<rect x="953.25" y="225.41" fill="#8C9596" width="1.773" height="3.581"/>
		<g>
			
				<line fill="none" stroke="#287BBF" stroke-width="0.1022" stroke-miterlimit="10" x1="961.205" y1="228.588" x2="961.205" y2="225.833"/>
			
				<line fill="none" stroke="#287BBF" stroke-width="0.1022" stroke-miterlimit="10" x1="960.24" y1="228.588" x2="960.24" y2="225.833"/>
			
				<line fill="none" stroke="#287BBF" stroke-width="0.1022" stroke-miterlimit="10" x1="959.277" y1="228.588" x2="959.277" y2="225.833"/>
			
				<line fill="none" stroke="#287BBF" stroke-width="0.1022" stroke-miterlimit="10" x1="958.312" y1="228.588" x2="958.312" y2="225.833"/>
			
				<line fill="none" stroke="#287BBF" stroke-width="0.1022" stroke-miterlimit="10" x1="957.347" y1="228.588" x2="957.347" y2="225.833"/>
			
				<line fill="none" stroke="#287BBF" stroke-width="0.1022" stroke-miterlimit="10" x1="956.384" y1="228.588" x2="956.384" y2="225.833"/>
		</g>
		<g>
			<circle fill="#C1D6D6" cx="970.632" cy="227.223" r="1.498"/>
			<circle fill="#515859" cx="970.632" cy="227.201" r="1.205"/>
		</g>
	</g>
	<g>
		<rect x="973.085" y="177.771" fill="#F7D21C" width="6.357" height="22.939"/>
		<rect x="974.474" y="189.961" fill="#F4F4F4" width="3.58" height="9.022"/>
		<rect x="974.474" y="197.313" fill="#8C9596" width="3.58" height="1.772"/>
		<g>
			
				<line fill="none" stroke="#287BBF" stroke-width="0.1022" stroke-miterlimit="10" x1="977.652" y1="191.132" x2="974.896" y2="191.132"/>
			
				<line fill="none" stroke="#287BBF" stroke-width="0.1022" stroke-miterlimit="10" x1="977.652" y1="192.096" x2="974.896" y2="192.096"/>
			
				<line fill="none" stroke="#287BBF" stroke-width="0.1022" stroke-miterlimit="10" x1="977.652" y1="193.061" x2="974.896" y2="193.061"/>
			
				<line fill="none" stroke="#287BBF" stroke-width="0.1022" stroke-miterlimit="10" x1="977.652" y1="194.024" x2="974.896" y2="194.024"/>
			
				<line fill="none" stroke="#287BBF" stroke-width="0.1022" stroke-miterlimit="10" x1="977.652" y1="194.988" x2="974.896" y2="194.988"/>
			
				<line fill="none" stroke="#287BBF" stroke-width="0.1022" stroke-miterlimit="10" x1="977.652" y1="195.953" x2="974.896" y2="195.953"/>
		</g>
		<g>
			<circle fill="#C1D6D6" cx="976.287" cy="181.704" r="1.498"/>
			<circle fill="#515859" cx="976.264" cy="181.704" r="1.206"/>
		</g>
	</g>
	<g>
		<rect x="871.494" y="177.771" fill="#F7D21C" width="6.355" height="22.939"/>
		<rect x="872.88" y="189.961" fill="#F4F4F4" width="3.582" height="9.022"/>
		<rect x="872.88" y="197.313" fill="#8C9596" width="3.582" height="1.772"/>
		<g>
			
				<line fill="none" stroke="#287BBF" stroke-width="0.1022" stroke-miterlimit="10" x1="876.06" y1="191.132" x2="873.304" y2="191.132"/>
			
				<line fill="none" stroke="#287BBF" stroke-width="0.1022" stroke-miterlimit="10" x1="876.06" y1="192.096" x2="873.304" y2="192.096"/>
			
				<line fill="none" stroke="#287BBF" stroke-width="0.1022" stroke-miterlimit="10" x1="876.06" y1="193.061" x2="873.304" y2="193.061"/>
			
				<line fill="none" stroke="#287BBF" stroke-width="0.1022" stroke-miterlimit="10" x1="876.06" y1="194.024" x2="873.304" y2="194.024"/>
			
				<line fill="none" stroke="#287BBF" stroke-width="0.1022" stroke-miterlimit="10" x1="876.06" y1="194.988" x2="873.304" y2="194.988"/>
			
				<line fill="none" stroke="#287BBF" stroke-width="0.1022" stroke-miterlimit="10" x1="876.06" y1="195.953" x2="873.304" y2="195.953"/>
		</g>
		<g>
			<circle fill="#C1D6D6" cx="874.695" cy="181.704" r="1.498"/>
			<circle fill="#515859" cx="874.671" cy="181.704" r="1.205"/>
		</g>
	</g>
	<g>
		
			<rect x="964.958" y="177.393" transform="matrix(-0.9884 -0.1521 0.1521 -0.9884 1896.2715 522.8064)" fill="#1F98EA" width="6.355" height="22.94"/>
		
			<rect x="965.549" y="189.522" transform="matrix(-0.9884 -0.1522 0.1522 -0.9884 1893.8849 533.0154)" fill="#F4F4F4" width="3.581" height="9.022"/>
		
			<rect x="964.983" y="196.831" transform="matrix(-0.9884 -0.1522 0.1522 -0.9884 1892.1971 540.2544)" fill="#8C9596" width="3.581" height="1.773"/>
		<g>
			
				<line fill="none" stroke="#287BBF" stroke-width="0.1022" stroke-miterlimit="10" x1="969.218" y1="190.942" x2="966.496" y2="190.523"/>
			
				<line fill="none" stroke="#287BBF" stroke-width="0.1022" stroke-miterlimit="10" x1="969.072" y1="191.896" x2="966.349" y2="191.477"/>
			
				<line fill="none" stroke="#287BBF" stroke-width="0.1022" stroke-miterlimit="10" x1="968.925" y1="192.849" x2="966.203" y2="192.43"/>
			
				<line fill="none" stroke="#287BBF" stroke-width="0.1022" stroke-miterlimit="10" x1="968.779" y1="193.801" x2="966.056" y2="193.383"/>
			
				<line fill="none" stroke="#287BBF" stroke-width="0.1022" stroke-miterlimit="10" x1="968.632" y1="194.754" x2="965.91" y2="194.335"/>
			
				<line fill="none" stroke="#287BBF" stroke-width="0.1022" stroke-miterlimit="10" x1="968.486" y1="195.707" x2="965.763" y2="195.288"/>
		</g>
		<g>
			<circle fill="#C1D6D6" cx="969.304" cy="181.417" r="1.498"/>
			<circle fill="#515859" cx="969.281" cy="181.414" r="1.205"/>
		</g>
	</g>
	<g>
		
			<rect x="955.508" y="177.394" transform="matrix(-0.9105 -0.4135 0.4135 -0.9105 1753.4983 757.2119)" fill="#1B4F1B" width="6.356" height="22.94"/>
		
			<rect x="954.732" y="189.115" transform="matrix(-0.9105 -0.4135 0.4135 -0.9105 1747.3655 765.4573)" fill="#F4F4F4" width="3.58" height="9.021"/>
		
			<rect x="953.189" y="196.133" transform="matrix(-0.9105 -0.4135 0.4135 -0.9105 1743.0029 771.322)" fill="#8C9596" width="3.582" height="1.773"/>
		<g>
			
				<line fill="none" stroke="#287BBF" stroke-width="0.1022" stroke-miterlimit="10" x1="959.167" y1="191.158" x2="956.658" y2="190.019"/>
			
				<line fill="none" stroke="#287BBF" stroke-width="0.1022" stroke-miterlimit="10" x1="958.767" y1="192.036" x2="956.259" y2="190.896"/>
			
				<line fill="none" stroke="#287BBF" stroke-width="0.1022" stroke-miterlimit="10" x1="958.369" y1="192.914" x2="955.861" y2="191.774"/>
			
				<line fill="none" stroke="#287BBF" stroke-width="0.1022" stroke-miterlimit="10" x1="957.97" y1="193.791" x2="955.462" y2="192.652"/>
			
				<line fill="none" stroke="#287BBF" stroke-width="0.1022" stroke-miterlimit="10" x1="957.572" y1="194.669" x2="955.064" y2="193.53"/>
			
				<line fill="none" stroke="#287BBF" stroke-width="0.1022" stroke-miterlimit="10" x1="957.173" y1="195.547" x2="954.666" y2="194.408"/>
		</g>
		<g>
			<circle fill="#C1D6D6" cx="961.822" cy="182.01" r="1.498"/>
			<circle fill="#515859" cx="961.802" cy="182" r="1.206"/>
		</g>
	</g>
	<g>
		<rect x="944.693" y="177.771" fill="#DB4928" width="6.355" height="22.939"/>
		<rect x="946.08" y="189.961" fill="#F4F4F4" width="3.582" height="9.022"/>
		<rect x="946.08" y="197.313" fill="#8C9596" width="3.582" height="1.772"/>
		<g>
			
				<line fill="none" stroke="#287BBF" stroke-width="0.1022" stroke-miterlimit="10" x1="949.257" y1="191.132" x2="946.503" y2="191.132"/>
			
				<line fill="none" stroke="#287BBF" stroke-width="0.1022" stroke-miterlimit="10" x1="949.257" y1="192.096" x2="946.503" y2="192.096"/>
			
				<line fill="none" stroke="#287BBF" stroke-width="0.1022" stroke-miterlimit="10" x1="949.257" y1="193.061" x2="946.503" y2="193.061"/>
			
				<line fill="none" stroke="#287BBF" stroke-width="0.1022" stroke-miterlimit="10" x1="949.257" y1="194.024" x2="946.503" y2="194.024"/>
			
				<line fill="none" stroke="#287BBF" stroke-width="0.1022" stroke-miterlimit="10" x1="949.257" y1="194.988" x2="946.503" y2="194.988"/>
			
				<line fill="none" stroke="#287BBF" stroke-width="0.1022" stroke-miterlimit="10" x1="949.257" y1="195.953" x2="946.503" y2="195.953"/>
		</g>
		<g>
			<circle fill="#C1D6D6" cx="947.893" cy="181.704" r="1.498"/>
			<circle fill="#515859" cx="947.871" cy="181.704" r="1.205"/>
		</g>
	</g>
	<g>
		<rect x="880.068" y="177.771" fill="#DB4928" width="6.355" height="22.939"/>
		<rect x="881.455" y="189.961" fill="#F4F4F4" width="3.582" height="9.022"/>
		<rect x="881.455" y="197.313" fill="#8C9596" width="3.582" height="1.772"/>
		<g>
			
				<line fill="none" stroke="#287BBF" stroke-width="0.1022" stroke-miterlimit="10" x1="884.632" y1="191.132" x2="881.878" y2="191.132"/>
			
				<line fill="none" stroke="#287BBF" stroke-width="0.1022" stroke-miterlimit="10" x1="884.632" y1="192.096" x2="881.878" y2="192.096"/>
			
				<line fill="none" stroke="#287BBF" stroke-width="0.1022" stroke-miterlimit="10" x1="884.632" y1="193.061" x2="881.878" y2="193.061"/>
			
				<line fill="none" stroke="#287BBF" stroke-width="0.1022" stroke-miterlimit="10" x1="884.632" y1="194.024" x2="881.878" y2="194.024"/>
			
				<line fill="none" stroke="#287BBF" stroke-width="0.1022" stroke-miterlimit="10" x1="884.632" y1="194.988" x2="881.878" y2="194.988"/>
			
				<line fill="none" stroke="#287BBF" stroke-width="0.1022" stroke-miterlimit="10" x1="884.632" y1="195.953" x2="881.878" y2="195.953"/>
		</g>
		<g>
			<circle fill="#C1D6D6" cx="883.268" cy="181.704" r="1.498"/>
			<circle fill="#515859" cx="883.246" cy="181.704" r="1.205"/>
		</g>
	</g>
</g>
<g opacity="0.6">
	<polygon fill="none" points="631.025,297.768 630.839,297.582 630.785,298.007 	"/>
	
		<rect x="623.072" y="296.295" transform="matrix(0.7073 0.7069 -0.7069 0.7073 393.3257 -354.3521)" fill="#869392" width="2.947" height="2.945"/>
	
		<rect x="620.874" y="298.493" transform="matrix(0.7069 0.7073 -0.7073 0.7069 394.5419 -352.261)" fill="#869392" width="2.945" height="2.946"/>
	<polygon fill="#869392" points="615.751,300.081 614.153,301.68 614.296,302.791 615.751,304.247 617.833,302.164 	"/>
	<polygon fill="#869392" points="614.598,287.812 612.507,287.812 613.552,288.857 	"/>
	<polygon fill="#869392" points="622.231,310.957 620.148,308.875 618.066,310.959 619.792,312.685 620.503,312.685 	"/>
	<polygon fill="#869392" points="612.378,287.914 612.621,289.79 613.437,288.974 	"/>
	
		<rect x="616.476" y="298.493" transform="matrix(0.7073 0.7069 -0.7069 0.7073 392.949 -349.0458)" fill="#869392" width="2.947" height="2.945"/>
	
		<rect x="618.675" y="296.295" transform="matrix(0.7069 0.7073 -0.7073 0.7069 392.3428 -351.3502)" fill="#869392" width="2.945" height="2.945"/>
	
		<rect x="620.874" y="307.287" transform="matrix(0.7071 -0.7071 0.7071 0.7071 -36.0445 530.4994)" fill="#869392" width="2.946" height="2.945"/>
	<polygon fill="#869392" points="615.751,304.479 614.656,305.575 614.947,307.84 615.751,308.644 617.833,306.561 	"/>
	
		<rect x="620.874" y="294.096" transform="matrix(0.7071 0.7071 -0.7071 0.7071 391.2795 -353.4956)" fill="#869392" width="2.944" height="2.945"/>
	<polygon fill="#869392" points="624.9,312.685 626.628,310.957 624.544,308.875 622.462,310.957 624.189,312.685 624.726,312.685 	
		"/>
	
		<rect x="618.676" y="305.088" transform="matrix(0.7071 -0.7071 0.7071 0.7071 -35.1342 528.3005)" fill="#869392" width="2.944" height="2.945"/>
	
		<rect x="616.476" y="302.89" transform="matrix(0.7073 -0.7069 0.7069 0.7073 -34.2753 525.9493)" fill="#869392" width="2.947" height="2.945"/>
	<polygon fill="#869392" points="626.859,310.957 628.585,312.685 628.893,312.685 629.333,309.267 628.942,308.875 	"/>
	
		<rect x="625.271" y="307.287" transform="matrix(0.7071 -0.7071 0.7071 0.7071 -34.7568 533.6082)" fill="#869392" width="2.946" height="2.945"/>
	<polygon fill="#869392" points="628.943,304.479 626.859,306.561 628.942,308.644 629.484,308.102 629.835,305.372 	"/>
	<polygon fill="#869392" points="625.132,312.685 628.355,312.685 626.744,311.073 	"/>
	
		<rect x="623.072" y="305.088" transform="matrix(0.7071 -0.7071 0.7071 0.7071 -33.8466 531.4092)" fill="#869392" width="2.944" height="2.945"/>
	
		<rect x="620.874" y="302.889" transform="matrix(0.7071 -0.7071 0.7071 0.7071 -32.9354 529.2115)" fill="#869392" width="2.946" height="2.946"/>
	<polygon fill="#869392" points="629.361,309.062 629.45,308.367 629.058,308.76 	"/>
	
		<rect x="625.271" y="289.699" transform="matrix(0.7071 0.7071 -0.7071 0.7071 389.4584 -357.8921)" fill="#869392" width="2.944" height="2.945"/>
	
		<rect x="627.469" y="291.898" transform="matrix(-0.7069 0.7073 -0.7073 -0.7069 1281.0602 55.9319)" fill="#869392" width="2.947" height="2.944"/>
	<polygon fill="#869392" points="630.867,297.378 631.342,293.688 631.14,293.485 629.058,295.568 	"/>
	
		<rect x="618.675" y="300.691" transform="matrix(0.7069 -0.7073 0.7073 0.7069 -31.9724 527.1655)" fill="#869392" width="2.945" height="2.945"/>
	
		<rect x="623.072" y="291.898" transform="matrix(0.7073 0.7069 -0.7069 0.7073 390.217 -355.6393)" fill="#869392" width="2.947" height="2.945"/>
	<polygon fill="#869392" points="631.14,293.254 631.437,292.959 631.845,289.793 631.14,289.09 629.058,291.172 	"/>
	<polygon fill="#869392" points="627.789,287.812 625.698,287.812 626.744,288.857 	"/>
	<polygon fill="#869392" points="622.23,288.974 621.07,287.812 619.739,287.812 619.227,287.812 618.066,288.974 620.148,291.056 	
		"/>
	<polygon fill="#869392" points="623.392,287.812 621.301,287.812 622.347,288.857 	"/>
	<polygon fill="#869392" points="613.679,298.01 614.126,301.475 615.636,299.966 	"/>
	<polygon fill="#869392" points="631.871,289.588 632.052,288.178 631.255,288.974 	"/>
	<polygon fill="#869392" points="632.087,287.912 632.099,287.812 630.095,287.812 631.14,288.857 	"/>
	
		<rect x="616.476" y="307.287" transform="matrix(-0.7073 -0.7069 0.7069 -0.7073 836.7336 963.9911)" fill="#869392" width="2.947" height="2.945"/>
	
		<rect x="623.072" y="300.691" transform="matrix(0.7069 -0.7073 0.7073 0.7069 -30.684 530.275)" fill="#869392" width="2.945" height="2.945"/>
	
		<rect x="625.271" y="302.89" transform="matrix(-0.7073 -0.7069 0.7069 -0.7073 854.8549 962.7007)" fill="#869392" width="2.945" height="2.945"/>
	
		<rect x="616.477" y="289.699" transform="matrix(0.7071 0.7071 -0.7071 0.7071 386.8829 -351.6741)" fill="#869392" width="2.944" height="2.946"/>
	
		<rect x="625.271" y="298.493" transform="matrix(0.7069 0.7073 -0.7073 0.7069 395.8303 -355.3705)" fill="#869392" width="2.945" height="2.946"/>
	<polygon fill="#869392" points="615.636,295.568 613.552,293.486 613.148,293.891 613.625,297.58 	"/>
	
		<rect x="614.278" y="291.897" transform="matrix(0.7069 0.7073 -0.7073 0.7069 387.9442 -349.5285)" fill="#869392" width="2.945" height="2.947"/>
	<polygon fill="#869392" points="618.996,287.812 616.904,287.812 617.951,288.857 	"/>
	
		<rect x="616.477" y="294.096" transform="matrix(0.7074 0.7068 -0.7068 0.7074 389.6888 -350.2795)" fill="#869392" width="2.946" height="2.944"/>
	
		<rect x="618.676" y="291.898" transform="matrix(0.7071 0.7071 -0.7071 0.7071 389.0813 -352.5851)" fill="#869392" width="2.946" height="2.945"/>
	
		<rect x="614.279" y="296.295" transform="matrix(0.7069 0.7073 -0.7073 0.7069 391.0543 -348.2406)" fill="#869392" width="2.945" height="2.945"/>
	<polygon fill="#869392" points="613.029,292.962 613.123,293.686 613.437,293.371 	"/>
	<polygon fill="#869392" points="614.33,303.057 614.628,305.369 615.636,304.362 	"/>
	<polygon fill="#869392" points="628.943,300.081 626.859,302.164 628.943,304.247 630.134,303.055 630.337,301.477 	"/>
	
		<rect x="620.874" y="289.699" transform="matrix(0.7071 0.7071 -0.7071 0.7071 388.1707 -354.7833)" fill="#869392" width="2.944" height="2.945"/>
	<polygon fill="#869392" points="626.859,288.974 628.943,291.056 631.025,288.974 629.864,287.812 628.021,287.812 	"/>
	<polygon fill="#869392" points="626.628,288.974 625.466,287.812 624.726,287.812 623.624,287.812 622.462,288.974 
		624.544,291.056 	"/>
	<polygon fill="#869392" points="620.736,312.685 623.958,312.685 622.347,311.073 	"/>
	<polygon fill="#869392" points="616.339,312.685 619.56,312.685 617.951,311.074 	"/>
	<polygon fill="#869392" points="614.981,308.104 615.13,309.264 615.636,308.76 	"/>
	<polygon fill="#869392" points="615.751,308.875 615.158,309.469 615.572,312.685 616.107,312.685 617.833,310.959 	"/>
	<polygon fill="#869392" points="617.833,288.974 616.673,287.812 614.83,287.812 613.667,288.974 615.751,291.056 	"/>
	<polygon fill="#869392" points="629.863,305.167 630.101,303.32 629.058,304.362 	"/>
	<polygon fill="#869392" points="628.943,299.85 630.785,298.007 630.839,297.582 628.942,295.685 626.859,297.768 	"/>
	<polygon fill="#869392" points="631.369,293.482 631.402,293.225 631.255,293.369 	"/>
	<polygon fill="#869392" points="630.364,301.272 630.751,298.272 629.058,299.966 	"/>
	<polygon fill="#869392" points="613.552,293.255 615.636,291.172 613.552,289.09 612.646,289.996 612.996,292.697 	"/>
	
		<rect x="625.271" y="294.096" transform="matrix(0.7071 0.7071 -0.7071 0.7071 392.5672 -356.6044)" fill="#869392" width="2.944" height="2.945"/>
	<polygon fill="#E9F1F4" points="631.025,288.974 631.14,288.857 630.095,287.812 629.864,287.812 	"/>
	<polygon fill="#E9F1F4" points="631.14,289.09 631.845,289.793 631.871,289.588 631.255,288.974 	"/>
	<polygon fill="#E9F1F4" points="631.14,293.485 631.342,293.688 631.369,293.482 631.255,293.369 	"/>
	
		<rect x="629.96" y="290.798" transform="matrix(-0.7071 0.7071 -0.7071 -0.7071 1282.2146 53.4303)" fill="#E9F1F4" width="0.163" height="2.944"/>
	
		<rect x="627.76" y="288.6" transform="matrix(-0.7101 0.7041 -0.7041 -0.7101 1277.8999 53.9514)" fill="#E9F1F4" width="0.165" height="2.946"/>
	<polygon fill="#E9F1F4" points="625.698,287.812 625.466,287.812 626.628,288.974 626.744,288.857 	"/>
	
		<rect x="624.171" y="292.189" transform="matrix(0.7071 0.7071 -0.7071 0.7071 389.9137 -356.7929)" fill="#E9F1F4" width="2.946" height="0.164"/>
	<polygon fill="#E9F1F4" points="621.301,287.812 621.07,287.812 622.23,288.974 622.347,288.857 	"/>
	
		<rect x="621.974" y="289.991" transform="matrix(0.7071 0.7071 -0.7071 0.7071 387.7155 -355.8824)" fill="#E9F1F4" width="2.944" height="0.164"/>
	
		<rect x="627.76" y="292.996" transform="matrix(-0.7101 0.7041 -0.7041 -0.7101 1281.0038 61.4927)" fill="#E9F1F4" width="0.164" height="2.946"/>
	<polygon fill="#E9F1F4" points="630.839,297.582 630.867,297.378 629.058,295.568 628.942,295.685 	"/>
	
		<rect x="617.577" y="289.991" transform="matrix(0.7071 0.7071 -0.7071 0.7071 386.4278 -352.7736)" fill="#E9F1F4" width="2.944" height="0.164"/>
	
		<rect x="624.171" y="296.586" transform="matrix(0.7071 0.7071 -0.7071 0.7071 393.0228 -355.5051)" fill="#E9F1F4" width="2.946" height="0.164"/>
	
		<rect x="627.76" y="297.394" transform="matrix(-0.7101 0.7041 -0.7041 -0.7101 1284.092 68.9896)" fill="#E9F1F4" width="0.165" height="2.946"/>
	<polygon fill="#E9F1F4" points="616.904,287.812 616.673,287.812 617.833,288.974 617.951,288.857 	"/>
	
		<rect x="621.973" y="294.388" transform="matrix(0.7069 0.7073 -0.7073 0.7069 390.9767 -354.649)" fill="#E9F1F4" width="2.945" height="0.164"/>
	<polygon fill="#E9F1F4" points="628.943,300.081 630.337,301.477 630.364,301.272 629.058,299.966 	"/>
	
		<rect x="619.775" y="292.189" transform="matrix(0.7071 0.7071 -0.7071 0.7071 388.626 -353.6841)" fill="#E9F1F4" width="2.946" height="0.164"/>
	
		<rect x="619.775" y="296.586" transform="matrix(0.7071 0.7071 -0.7071 0.7071 391.7351 -352.3963)" fill="#E9F1F4" width="2.946" height="0.164"/>
	
		<rect x="617.576" y="294.387" transform="matrix(0.7069 0.7073 -0.7073 0.7069 389.688 -351.5389)" fill="#E9F1F4" width="2.945" height="0.165"/>
	
		<rect x="615.378" y="292.19" transform="matrix(0.7069 0.7073 -0.7073 0.7069 387.4887 -350.6285)" fill="#E9F1F4" width="2.945" height="0.163"/>
	
		<rect x="613.179" y="289.991" transform="matrix(0.7074 0.7068 -0.7068 0.7074 384.8398 -349.5565)" fill="#E9F1F4" width="2.946" height="0.164"/>
	<polygon fill="#E9F1F4" points="628.943,304.479 629.835,305.372 629.863,305.167 629.058,304.362 	"/>
	
		<rect x="624.171" y="300.983" transform="matrix(0.7071 0.7071 -0.7071 0.7071 396.132 -354.2172)" fill="#E9F1F4" width="2.946" height="0.164"/>
	
		<rect x="621.974" y="298.785" transform="matrix(0.7071 0.7071 -0.7071 0.7071 393.9334 -353.3069)" fill="#E9F1F4" width="2.944" height="0.163"/>
	<polygon fill="#E9F1F4" points="613.552,288.857 612.507,287.812 612.365,287.812 612.378,287.914 613.437,288.974 	"/>
	
		<rect x="626.371" y="303.181" transform="matrix(-0.7069 -0.7073 0.7073 -0.7069 857.2017 961.7086)" fill="#E9F1F4" width="2.945" height="0.164"/>
	
		<rect x="617.576" y="298.784" transform="matrix(0.7071 0.7071 -0.7071 0.7071 392.6454 -350.1974)" fill="#E9F1F4" width="2.944" height="0.164"/>
	
		<rect x="615.378" y="296.586" transform="matrix(0.7069 0.7073 -0.7073 0.7069 390.5986 -349.3399)" fill="#E9F1F4" width="2.945" height="0.164"/>
	
		<rect x="623.364" y="301.791" transform="matrix(0.7071 -0.7071 0.7071 0.7071 -31.8367 529.6666)" fill="#E9F1F4" width="0.163" height="2.946"/>
	
		<rect x="619.775" y="300.983" transform="matrix(0.7071 0.7071 -0.7071 0.7071 394.8442 -351.1085)" fill="#E9F1F4" width="2.946" height="0.164"/>
	<polygon fill="#E9F1F4" points="613.552,293.255 612.996,292.697 613.029,292.962 613.437,293.371 	"/>
	
		<rect x="625.563" y="303.989" transform="matrix(0.7101 -0.7041 0.7041 0.7101 -33.6965 529.0852)" fill="#E9F1F4" width="0.164" height="2.946"/>
	<polygon fill="#E9F1F4" points="628.942,308.875 629.333,309.267 629.361,309.062 629.058,308.76 	"/>
	
		<rect x="626.37" y="307.578" transform="matrix(-0.7069 -0.7073 0.7073 -0.7069 854.0911 969.2137)" fill="#E9F1F4" width="2.945" height="0.164"/>
	
		<rect x="613.179" y="294.388" transform="matrix(0.7074 0.7068 -0.7068 0.7074 387.9475 -348.2701)" fill="#E9F1F4" width="2.946" height="0.163"/>
	
		<rect x="618.968" y="301.791" transform="matrix(0.7071 -0.7071 0.7071 0.7071 -33.1241 526.5577)" fill="#E9F1F4" width="0.163" height="2.945"/>
	
		<rect x="625.563" y="308.385" transform="matrix(0.7101 -0.7041 0.7041 0.7101 -36.7922 530.3598)" fill="#E9F1F4" width="0.164" height="2.946"/>
	
		<rect x="615.378" y="300.983" transform="matrix(0.7073 0.7069 -0.7069 0.7073 393.4045 -347.9474)" fill="#E9F1F4" width="2.947" height="0.163"/>
	<polygon fill="#E9F1F4" points="626.744,311.073 628.355,312.685 628.585,312.685 626.859,310.957 	"/>
	
		<rect x="621.166" y="303.989" transform="matrix(0.7071 -0.7071 0.7071 0.7071 -34.0345 528.7563)" fill="#E9F1F4" width="0.164" height="2.946"/>
	
		<rect x="623.364" y="306.188" transform="matrix(0.7041 -0.7101 0.7101 0.7041 -33.9975 533.7303)" fill="#E9F1F4" width="0.164" height="2.945"/>
	<polygon fill="#E9F1F4" points="615.636,299.966 615.751,299.85 613.669,297.768 613.65,297.785 613.679,298.01 	"/>
	
		<rect x="621.166" y="308.386" transform="matrix(0.7101 -0.7041 0.7041 0.7101 -38.067 527.2639)" fill="#E9F1F4" width="0.164" height="2.945"/>
	
		<rect x="618.967" y="306.187" transform="matrix(0.713 -0.7011 0.7011 0.713 -38.0603 522.3314)" fill="#E9F1F4" width="0.164" height="2.947"/>
	
		<rect x="616.768" y="303.989" transform="matrix(0.7041 -0.7101 0.7101 0.7041 -34.3878 528.3962)" fill="#E9F1F4" width="0.164" height="2.944"/>
	<polygon fill="#E9F1F4" points="615.751,304.247 614.296,302.791 614.33,303.057 615.636,304.362 	"/>
	<polygon fill="#E9F1F4" points="622.462,310.957 622.347,311.073 623.958,312.685 624.189,312.685 	"/>
	<polygon fill="#E9F1F4" points="619.792,312.685 618.066,310.959 617.951,311.074 619.56,312.685 619.739,312.685 	"/>
	
		<rect x="616.769" y="308.386" transform="matrix(0.7071 -0.7071 0.7071 0.7071 -38.4325 526.9346)" fill="#E9F1F4" width="0.163" height="2.946"/>
	<polygon fill="#E9F1F4" points="615.751,308.644 614.947,307.84 614.981,308.104 615.636,308.76 	"/>
	<polygon fill="#E9F1F4" points="613.667,288.974 614.83,287.812 614.598,287.812 613.552,288.857 	"/>
	<polygon fill="#E9F1F4" points="613.552,289.09 613.437,288.974 612.621,289.79 612.646,289.996 	"/>
	
		<rect x="613.47" y="288.892" transform="matrix(0.7041 -0.7101 0.7101 0.7041 -23.6559 521.176)" fill="#E9F1F4" width="0.164" height="0.164"/>
	
		<rect x="616.769" y="288.601" transform="matrix(0.7101 0.7041 -0.7041 0.7101 383.1027 -350.2468)" fill="#E9F1F4" width="0.165" height="2.944"/>
	<polygon fill="#E9F1F4" points="618.066,288.974 619.227,287.812 618.996,287.812 617.951,288.857 	"/>
	
		<rect x="614.57" y="290.798" transform="matrix(0.7071 0.7071 -0.7071 0.7071 386.6942 -349.0203)" fill="#E9F1F4" width="0.163" height="2.947"/>
	<polygon fill="#E9F1F4" points="613.552,293.486 613.437,293.371 613.123,293.686 613.148,293.891 	"/>
	
		<rect x="617.868" y="288.891" transform="matrix(0.7041 0.7101 -0.7101 0.7041 388.0364 -353.2938)" fill="#E9F1F4" width="0.164" height="0.165"/>
	
		<rect x="615.67" y="291.09" transform="matrix(0.7041 0.7101 -0.7101 0.7041 388.9469 -351.0825)" fill="#E9F1F4" width="0.164" height="0.164"/>
	
		<rect x="613.471" y="293.289" transform="matrix(-0.7071 0.7071 -0.7071 -0.7071 1254.8435 66.968)" fill="#E9F1F4" width="0.163" height="0.164"/>
	
		<rect x="618.967" y="290.798" transform="matrix(0.7071 0.7071 -0.7071 0.7071 387.9819 -352.1291)" fill="#E9F1F4" width="0.163" height="2.947"/>
	
		<rect x="621.165" y="288.601" transform="matrix(0.7101 0.7041 -0.7041 0.7101 384.3774 -353.3425)" fill="#E9F1F4" width="0.165" height="2.944"/>
	
		<rect x="616.768" y="292.997" transform="matrix(0.7041 0.7101 -0.7101 0.7041 391.6138 -350.8868)" fill="#E9F1F4" width="0.164" height="2.945"/>
	<polygon fill="#E9F1F4" points="622.462,288.974 623.624,287.812 623.392,287.812 622.347,288.857 	"/>
	<polygon fill="#E9F1F4" points="613.669,297.768 615.751,295.685 615.636,295.568 613.625,297.58 613.645,297.744 	"/>
	
		<rect x="622.264" y="288.891" transform="matrix(0.7041 0.7101 -0.7101 0.7041 389.3372 -356.4157)" fill="#E9F1F4" width="0.164" height="0.165"/>
	
		<rect x="620.066" y="291.09" transform="matrix(0.7071 0.7071 -0.7071 0.7071 387.5269 -353.2289)" fill="#E9F1F4" width="0.164" height="0.164"/>
	
		<rect x="617.868" y="293.289" transform="matrix(0.713 0.7011 -0.7011 0.713 383.0305 -349.079)" fill="#E9F1F4" width="0.164" height="0.163"/>
	
		<rect x="615.67" y="295.487" transform="matrix(0.7071 0.7071 -0.7071 0.7071 389.3478 -348.832)" fill="#E9F1F4" width="0.163" height="0.163"/>
	<polygon fill="#E9F1F4" points="613.645,297.744 613.65,297.785 613.669,297.768 	"/>
	
		<rect x="623.364" y="290.798" transform="matrix(0.7071 0.7071 -0.7071 0.7071 389.2698 -355.2385)" fill="#E9F1F4" width="0.163" height="2.945"/>
	
		<rect x="625.562" y="288.6" transform="matrix(0.7041 0.7101 -0.7101 0.7041 391.0935 -358.4322)" fill="#E9F1F4" width="0.164" height="2.946"/>
	
		<rect x="621.165" y="292.997" transform="matrix(0.7071 0.7071 -0.7071 0.7071 390.1807 -353.0402)" fill="#E9F1F4" width="0.164" height="2.946"/>
	<polygon fill="#E9F1F4" points="626.859,288.974 628.021,287.812 627.789,287.812 626.744,288.857 	"/>
	
		<rect x="618.966" y="295.195" transform="matrix(0.7041 0.7101 -0.7101 0.7041 393.8251 -351.7973)" fill="#E9F1F4" width="0.164" height="2.947"/>
	
		<rect x="616.769" y="297.394" transform="matrix(0.7071 0.7071 -0.7071 0.7071 392.0015 -348.643)" fill="#E9F1F4" width="0.163" height="2.944"/>
	<polygon fill="#E9F1F4" points="615.751,300.081 615.636,299.966 614.126,301.475 614.153,301.68 	"/>
	
		<rect x="626.662" y="288.892" transform="matrix(0.7041 0.7101 -0.7101 0.7041 390.6384 -359.5383)" fill="#E9F1F4" width="0.164" height="0.164"/>
	
		<rect x="624.463" y="291.09" transform="matrix(0.7071 0.7071 -0.7071 0.7071 388.8146 -356.3376)" fill="#E9F1F4" width="0.164" height="0.164"/>
	
		<rect x="622.265" y="293.288" transform="matrix(0.7071 0.7071 -0.7071 0.7071 389.7251 -354.1394)" fill="#E9F1F4" width="0.163" height="0.164"/>
	
		<rect x="620.067" y="295.487" transform="matrix(0.7101 0.7041 -0.7041 0.7101 387.9056 -350.967)" fill="#E9F1F4" width="0.164" height="0.163"/>
	
		<rect x="617.867" y="297.686" transform="matrix(0.7101 0.7041 -0.7041 0.7101 388.8395 -348.7894)" fill="#E9F1F4" width="0.165" height="0.164"/>
	
		<rect x="615.67" y="299.884" transform="matrix(0.7041 0.7101 -0.7101 0.7041 395.1913 -348.4805)" fill="#E9F1F4" width="0.164" height="0.164"/>
	
		<rect x="618.968" y="299.592" transform="matrix(0.7071 0.7071 -0.7071 0.7071 394.2004 -349.5541)" fill="#E9F1F4" width="0.163" height="2.945"/>
	<polygon fill="#E9F1F4" points="614.628,305.369 614.656,305.575 615.751,304.479 615.636,304.362 	"/>
	
		<rect x="615.378" y="303.182" transform="matrix(0.7069 -0.7073 0.7073 0.7069 -33.7162 525.1552)" fill="#E9F1F4" width="2.945" height="0.163"/>
	
		<rect x="626.369" y="292.189" transform="matrix(-0.7073 0.7069 -0.7069 -0.7073 1278.5162 55.1387)" fill="#E9F1F4" width="2.947" height="0.164"/>
	
		<rect x="628.569" y="289.991" transform="matrix(-0.7071 0.7071 -0.7071 -0.7071 1280.6605 49.6785)" fill="#E9F1F4" width="2.944" height="0.164"/>
	
		<rect x="621.165" y="297.394" transform="matrix(0.713 0.7011 -0.7011 0.713 387.8304 -349.814)" fill="#E9F1F4" width="0.164" height="2.944"/>
	
		<rect x="625.562" y="292.996" transform="matrix(0.7041 0.7101 -0.7101 0.7041 394.2157 -357.1312)" fill="#E9F1F4" width="0.164" height="2.947"/>
	
		<rect x="623.364" y="295.195" transform="matrix(0.7041 0.7101 -0.7101 0.7041 395.1262 -354.9199)" fill="#E9F1F4" width="0.164" height="2.945"/>
	<polygon fill="#E9F1F4" points="631.255,288.974 632.052,288.178 632.087,287.912 631.14,288.857 	"/>
	
		<rect x="631.058" y="288.892" transform="matrix(0.7041 0.7101 -0.7101 0.7041 391.9392 -362.6602)" fill="#E9F1F4" width="0.164" height="0.164"/>
	
		<rect x="628.861" y="291.09" transform="matrix(-0.7071 0.7071 -0.7071 -0.7071 1279.5619 52.3309)" fill="#E9F1F4" width="0.163" height="0.164"/>
	
		<rect x="626.662" y="293.289" transform="matrix(0.7071 0.7071 -0.7071 0.7071 391.013 -357.2485)" fill="#E9F1F4" width="0.163" height="0.163"/>
	
		<rect x="624.463" y="295.487" transform="matrix(0.7101 0.7041 -0.7041 0.7101 389.1802 -354.0627)" fill="#E9F1F4" width="0.164" height="0.163"/>
	
		<rect x="622.264" y="297.685" transform="matrix(0.7041 0.7101 -0.7101 0.7041 395.5817 -353.8137)" fill="#E9F1F4" width="0.164" height="0.165"/>
	
		<rect x="620.066" y="299.884" transform="matrix(0.7071 0.7071 -0.7071 0.7071 393.7451 -350.6532)" fill="#E9F1F4" width="0.164" height="0.164"/>
	
		<rect x="617.869" y="302.082" transform="matrix(0.713 -0.7011 0.7011 0.713 -34.5221 519.9838)" fill="#E9F1F4" width="0.164" height="0.164"/>
	
		<rect x="615.67" y="304.281" transform="matrix(0.7071 -0.7071 0.7071 0.7071 -34.8676 524.5479)" fill="#E9F1F4" width="0.163" height="0.164"/>
	<polygon fill="#E9F1F4" points="631.402,293.225 631.437,292.959 631.14,293.254 631.255,293.369 	"/>
	<polygon fill="#E9F1F4" points="615.636,308.76 615.13,309.264 615.158,309.469 615.751,308.875 	"/>
	
		<rect x="619.775" y="303.181" transform="matrix(0.7069 -0.7073 0.7073 0.7069 -32.4277 528.265)" fill="#E9F1F4" width="2.945" height="0.164"/>
	
		<rect x="626.369" y="296.586" transform="matrix(-0.7071 0.7071 -0.7071 -0.7071 1281.5698 62.4924)" fill="#E9F1F4" width="2.946" height="0.164"/>
	
		<rect x="623.364" y="299.592" transform="matrix(0.7071 0.7071 -0.7071 0.7071 395.4881 -352.6628)" fill="#E9F1F4" width="0.163" height="2.945"/>
	
		<rect x="625.563" y="297.393" transform="matrix(0.7071 0.7071 -0.7071 0.7071 394.5772 -354.8612)" fill="#E9F1F4" width="0.163" height="2.946"/>
	
		<rect x="616.769" y="306.187" transform="matrix(0.7071 0.7071 -0.7071 0.7071 398.2194 -346.0674)" fill="#E9F1F4" width="0.163" height="2.945"/>
	
		<rect x="628.569" y="294.387" transform="matrix(-0.7069 0.7073 -0.7073 -0.7069 1283.7134 57.0298)" fill="#E9F1F4" width="2.945" height="0.164"/>
	
		<rect x="617.576" y="305.379" transform="matrix(0.7073 -0.7069 0.7069 0.7073 -34.7305 527.0483)" fill="#E9F1F4" width="2.947" height="0.164"/>
	
		<rect x="631.058" y="293.288" transform="matrix(-0.7041 0.7101 -0.7101 -0.7041 1283.8538 51.7737)" fill="#E9F1F4" width="0.164" height="0.163"/>
	
		<rect x="628.86" y="295.487" transform="matrix(-0.7071 0.7071 -0.7071 -0.7071 1282.6697 59.8385)" fill="#E9F1F4" width="0.164" height="0.164"/>
	
		<rect x="626.662" y="297.686" transform="matrix(0.7041 0.7101 -0.7101 0.7041 396.8828 -356.9363)" fill="#E9F1F4" width="0.164" height="0.164"/>
	
		<rect x="624.463" y="299.884" transform="matrix(0.7071 0.7071 -0.7071 0.7071 395.0328 -353.762)" fill="#E9F1F4" width="0.164" height="0.164"/>
	
		<rect x="622.265" y="302.082" transform="matrix(0.713 -0.7011 0.7011 0.713 -33.2604 523.0664)" fill="#E9F1F4" width="0.164" height="0.164"/>
	
		<rect x="620.066" y="304.281" transform="matrix(0.7071 -0.7071 0.7071 0.7071 -33.5798 527.6566)" fill="#E9F1F4" width="0.163" height="0.164"/>
	
		<rect x="617.867" y="306.479" transform="matrix(0.7071 -0.7071 0.7071 0.7071 -35.778 526.7452)" fill="#E9F1F4" width="0.163" height="0.163"/>
	
		<rect x="615.67" y="308.678" transform="matrix(0.7041 -0.7101 0.7101 0.7041 -37.0546 528.5919)" fill="#E9F1F4" width="0.164" height="0.163"/>
	
		<rect x="626.369" y="300.983" transform="matrix(-0.7073 0.7069 -0.7069 -0.7073 1284.733 70.1524)" fill="#E9F1F4" width="2.947" height="0.164"/>
	
		<rect x="617.577" y="309.778" transform="matrix(0.7069 -0.7073 0.7073 0.7069 -37.7371 528.6437)" fill="#E9F1F4" width="2.945" height="0.164"/>
	
		<rect x="624.171" y="303.181" transform="matrix(0.7073 -0.7069 0.7069 0.7073 -31.2462 531.0674)" fill="#E9F1F4" width="2.947" height="0.164"/>
	<polygon fill="#E9F1F4" points="630.751,298.272 630.785,298.007 628.943,299.85 629.058,299.966 	"/>
	
		<rect x="621.974" y="305.38" transform="matrix(0.7071 -0.7071 0.7071 0.7071 -33.3911 530.3105)" fill="#E9F1F4" width="2.944" height="0.163"/>
	
		<rect x="619.775" y="307.578" transform="matrix(0.7073 -0.7069 0.7069 0.7073 -35.6412 529.2463)" fill="#E9F1F4" width="2.947" height="0.164"/>
	<polygon fill="#E9F1F4" points="617.833,310.959 616.107,312.685 616.339,312.685 617.951,311.074 	"/>
	
		<rect x="628.861" y="299.884" transform="matrix(-0.7071 0.7071 -0.7071 -0.7071 1285.7802 67.3431)" fill="#E9F1F4" width="0.163" height="0.164"/>
	
		<rect x="626.662" y="302.083" transform="matrix(-0.7071 -0.7071 0.7071 -0.7071 856.2561 959.001)" fill="#E9F1F4" width="0.163" height="0.163"/>
	
		<rect x="624.463" y="304.281" transform="matrix(0.7041 -0.7101 0.7101 0.7041 -31.3311 533.5349)" fill="#E9F1F4" width="0.164" height="0.163"/>
	
		<rect x="622.266" y="306.479" transform="matrix(0.7071 -0.7071 0.7071 0.7071 -34.4901 529.8555)" fill="#E9F1F4" width="0.163" height="0.164"/>
	
		<rect x="620.066" y="308.678" transform="matrix(0.7041 -0.7101 0.7101 0.7041 -35.7538 531.7138)" fill="#E9F1F4" width="0.164" height="0.163"/>
	
		<rect x="617.868" y="310.878" transform="matrix(-0.713 -0.7011 0.7011 -0.713 840.5366 965.9493)" fill="#E9F1F4" width="0.164" height="0.163"/>
	
		<rect x="627.762" y="303.989" transform="matrix(-0.7071 -0.7071 0.7071 -0.7071 855.8013 965.4083)" fill="#E9F1F4" width="0.163" height="2.946"/>
	
		<rect x="621.974" y="309.777" transform="matrix(0.7071 -0.7071 0.7071 0.7071 -36.4999 531.5981)" fill="#E9F1F4" width="2.944" height="0.163"/>
	
		<rect x="624.171" y="307.578" transform="matrix(0.7073 -0.7069 0.7069 0.7073 -34.3542 532.3544)" fill="#E9F1F4" width="2.947" height="0.164"/>
	<polygon fill="#E9F1F4" points="628.943,304.247 629.058,304.362 630.101,303.32 630.134,303.055 	"/>
	<polygon fill="#E9F1F4" points="622.231,310.957 620.503,312.685 620.736,312.685 622.347,311.073 	"/>
	
		<rect x="628.861" y="304.28" transform="matrix(0.713 -0.7011 0.7011 0.713 -32.9092 528.3219)" fill="#E9F1F4" width="0.164" height="0.165"/>
	
		<rect x="626.662" y="306.479" transform="matrix(-0.7041 -0.7101 0.7101 -0.7041 850.3608 967.4557)" fill="#E9F1F4" width="0.164" height="0.164"/>
	
		<rect x="624.463" y="308.678" transform="matrix(0.7041 -0.7101 0.7101 0.7041 -34.4529 534.8357)" fill="#E9F1F4" width="0.164" height="0.163"/>
	
		<rect x="622.265" y="310.875" transform="matrix(0.7071 0.7071 -0.7071 0.7071 402.1609 -348.9883)" fill="#E9F1F4" width="0.163" height="0.164"/>
	
		<rect x="627.761" y="308.386" transform="matrix(-0.7071 -0.7071 0.7071 -0.7071 852.6917 972.9132)" fill="#E9F1F4" width="0.163" height="2.945"/>
	<polygon fill="#E9F1F4" points="626.628,310.957 624.9,312.685 625.132,312.685 626.744,311.073 	"/>
	<polygon fill="#E9F1F4" points="628.942,308.644 629.058,308.76 629.45,308.367 629.484,308.102 	"/>
	
		<rect x="628.86" y="308.677" transform="matrix(-0.7101 0.7041 -0.7041 -0.7101 1292.946 85.1556)" fill="#E9F1F4" width="0.164" height="0.164"/>
	
		<rect x="626.662" y="310.876" transform="matrix(0.7071 0.7071 -0.7071 0.7071 403.4488 -352.0975)" fill="#E9F1F4" width="0.163" height="0.163"/>
</g>
<g>
	<g>
		<path fill="#326600" d="M815.693,235.309c2.52,15.468,4.611,37.083,2.924,37.526c-1.689,0.443-6.52-20.452-9.039-35.919
			c-2.52-15.468-1.773-19.65-0.084-20.094C811.183,216.38,813.175,219.842,815.693,235.309z"/>
		<path fill="#326600" d="M823.81,231.436c-1.586,18.123-5.158,42.793-6.875,42.504c-1.715-0.288-0.926-25.427,0.66-43.551
			c1.588-18.123,3.37-22.367,5.086-22.078C824.398,208.6,825.396,213.312,823.81,231.436z"/>
		<path fill="#3A7C00" d="M820.986,224.7c0,20.114-1.789,47.757-3.994,47.757c-2.207,0-3.995-27.643-3.995-47.757
			s1.788-25.086,3.995-25.086C819.197,199.614,820.986,204.586,820.986,224.7z"/>
	</g>
	<path fill="#CFE5E5" d="M801.148,310.997c0,1.487,1.207,2.694,2.695,2.694h27.846c1.489,0,2.695-1.207,2.695-2.694v-46.544h-33.236
		V310.997z"/>
	
		<path fill="none" stroke="#798C8C" stroke-width="2.044" stroke-linecap="round" stroke-linejoin="round" stroke-miterlimit="10" d="
		M821.855,268.863v5.964c0,1.033-0.838,1.871-1.871,1.871H808.6c-1.034,0-1.871-0.838-1.871-1.871v-5.964"/>
	<g>
		<path fill="#FFFFFF" d="M832.562,266.797c0-0.508-0.412-0.92-0.922-0.92l0,0c-0.51,0-0.924,0.412-0.924,0.92v41.506
			c0,0.508,0.414,0.92,0.924,0.92l0,0c0.51,0,0.922-0.412,0.922-0.92V266.797z"/>
		<circle fill="#FFFFFF" cx="831.646" cy="310.986" r="0.93"/>
	</g>
</g>
<g>
	<g>
		<path fill="#326600" d="M162.735,235.309c2.52,15.468,4.611,37.083,2.923,37.526c-1.689,0.443-6.52-20.452-9.039-35.919
			c-2.519-15.468-1.771-19.65-0.083-20.094C158.224,216.38,160.216,219.842,162.735,235.309z"/>
		<path fill="#326600" d="M170.851,231.436c-1.586,18.123-5.158,42.793-6.873,42.504c-1.717-0.288-0.928-25.427,0.66-43.551
			c1.586-18.123,3.369-22.367,5.085-22.078S172.438,213.312,170.851,231.436z"/>
		<path fill="#3A7C00" d="M168.027,224.7c0,20.114-1.789,47.757-3.994,47.757c-2.206,0-3.994-27.643-3.994-47.757
			s1.788-25.086,3.994-25.086C166.238,199.614,168.027,204.586,168.027,224.7z"/>
	</g>
	<path fill="#CFE5E5" d="M148.19,310.997c0,1.487,1.206,2.694,2.694,2.694h27.847c1.488,0,2.693-1.207,2.693-2.694v-46.544H148.19
		V310.997z"/>
	
		<path fill="none" stroke="#798C8C" stroke-width="2.044" stroke-linecap="round" stroke-linejoin="round" stroke-miterlimit="10" d="
		M168.896,268.863v5.964c0,1.033-0.838,1.871-1.871,1.871h-11.383c-1.033,0-1.872-0.838-1.872-1.871v-5.964"/>
	<g>
		<path fill="#FFFFFF" d="M179.603,266.797c0-0.508-0.412-0.92-0.922-0.92l0,0c-0.51,0-0.924,0.412-0.924,0.92v41.506
			c0,0.508,0.414,0.92,0.924,0.92l0,0c0.51,0,0.922-0.412,0.922-0.92V266.797z"/>
		<circle fill="#FFFFFF" cx="178.687" cy="310.986" r="0.93"/>
	</g>
</g>
<g>
	<path fill="#326600" d="M970.66,117.362c-0.766,0.765-2.006,0.765-2.771,0l-0.385-0.386c-0.766-0.766-0.766-2.005,0-2.771
		l4.234-4.234c0.766-0.765,2.007-0.766,2.771,0l0.387,0.385c0.765,0.767,0.765,2.007,0,2.772L970.66,117.362z"/>
	<path fill="#326600" d="M969.363,111.959c0.766,0.765,0.766,2.006,0,2.771l-0.385,0.386c-0.766,0.765-2.006,0.765-2.771,0
		l-6.785-6.787c-0.766-0.766-0.766-2.007,0-2.771l0.385-0.387c0.766-0.765,2.006-0.765,2.771,0L969.363,111.959z"/>
	<path fill="#3A7C00" d="M971.199,115.984c0,1.789-1.449,3.239-3.24,3.239h-0.898c-1.79,0-3.24-1.45-3.24-3.239v-9.9
		c0-1.789,1.45-3.24,3.24-3.24h0.898c1.791,0,3.24,1.451,3.24,3.24V115.984z"/>
	<path fill="#DB4928" d="M960.287,127.145c0,0.895,0.727,1.62,1.621,1.62h11.406c0.895,0,1.621-0.726,1.621-1.62v-11.51h-14.648
		V127.145z"/>
</g>
<g>
	<g>
		<rect x="292.5" y="49.609" fill="#383F42" width="0.497" height="36.166"/>
		<g>
			<polygon fill="#FFFFFF" points="294.386,97.878 287.837,97.878 290.487,84.781 294.386,84.781 			"/>
			<polygon fill="#FFFFFF" points="291.113,97.878 297.66,97.878 295.011,84.781 291.113,84.781 			"/>
		</g>
		<path fill="#383F42" d="M290.511,84.781c0-1.236,1.002-2.238,2.238-2.238s2.238,1.002,2.238,2.238"/>
	</g>
	<g>
		<rect x="412.406" y="49.609" fill="#383F42" width="0.498" height="36.166"/>
		<g>
			<polygon fill="#FFFFFF" points="414.292,97.878 407.744,97.878 410.392,84.781 414.292,84.781 			"/>
			<polygon fill="#FFFFFF" points="411.018,97.878 417.566,97.878 414.917,84.781 411.018,84.781 			"/>
		</g>
		<path fill="#383F42" d="M410.417,84.781c0-1.236,1.002-2.238,2.237-2.238s2.237,1.002,2.237,2.238"/>
	</g>
	<g>
		<rect x="532.312" y="49.609" fill="#383F42" width="0.497" height="36.166"/>
		<g>
			<polygon fill="#FFFFFF" points="534.197,97.878 527.649,97.878 530.298,84.781 534.197,84.781 			"/>
			<polygon fill="#FFFFFF" points="530.923,97.878 537.471,97.878 534.823,84.781 530.923,84.781 			"/>
		</g>
		<path fill="#383F42" d="M530.322,84.781c0-1.236,1.002-2.238,2.238-2.238s2.238,1.002,2.238,2.238"/>
	</g>
	<g>
		<rect x="652.218" y="49.609" fill="#383F42" width="0.496" height="36.166"/>
		<g>
			<polygon fill="#FFFFFF" points="654.103,97.878 647.554,97.878 650.205,84.781 654.103,84.781 			"/>
			<polygon fill="#FFFFFF" points="650.83,97.878 657.376,97.878 654.728,84.781 650.83,84.781 			"/>
		</g>
		<path fill="#383F42" d="M650.228,84.781c0-1.236,1.002-2.238,2.238-2.238s2.238,1.002,2.238,2.238"/>
	</g>
	<g>
		<rect x="772.123" y="49.609" fill="#383F42" width="0.498" height="36.166"/>
		<g>
			<polygon fill="#FFFFFF" points="774.009,97.878 767.46,97.878 770.109,84.781 774.009,84.781 			"/>
			<polygon fill="#FFFFFF" points="770.734,97.878 777.283,97.878 774.634,84.781 770.734,84.781 			"/>
		</g>
		<path fill="#383F42" d="M770.133,84.781c0-1.236,1.002-2.238,2.237-2.238c1.236,0,2.238,1.002,2.238,2.238"/>
	</g>
</g>
<g>
	<rect x="202.796" y="114.795" fill="#B75F0F" width="243.217" height="115.006"/>
	<rect x="204.966" y="116.748" fill="#FFFFFF" width="239.004" height="111.158"/>
	<g>
		<path d="M312.613,125.452c-0.482,0-0.864,0.161-1.145,0.483c-0.279,0.321-0.42,0.762-0.42,1.321c0,0.575,0.136,1.021,0.405,1.334
			s0.654,0.47,1.153,0.47c0.307,0,0.657-0.055,1.051-0.165v0.448c-0.307,0.114-0.682,0.172-1.129,0.172
			c-0.648,0-1.147-0.197-1.498-0.59c-0.354-0.393-0.529-0.951-0.529-1.675c0-0.454,0.085-0.851,0.254-1.191
			c0.17-0.341,0.414-0.604,0.734-0.788s0.697-0.276,1.129-0.276c0.461,0,0.865,0.085,1.209,0.253l-0.216,0.438
			C313.279,125.53,312.946,125.452,312.613,125.452z"/>
		<path d="M314.615,129.455v-4.396h0.512v4.396H314.615z"/>
		<path d="M317.686,129.455h-0.511v-3.943h-1.393v-0.453h3.296v0.453h-1.393V129.455z"/>
		<path d="M320.859,127.257l1.174-2.198h0.553l-1.467,2.691v1.705h-0.518v-1.682l-1.465-2.715h0.559L320.859,127.257z"/>
		<path d="M326.736,129.455l-1.492-3.897h-0.023c0.027,0.309,0.041,0.675,0.041,1.101v2.797h-0.471v-4.396h0.77l1.393,3.627h0.023
			l1.404-3.627h0.764v4.396h-0.512v-2.833c0-0.325,0.016-0.678,0.043-1.059h-0.023l-1.504,3.892H326.736z"/>
		<path d="M333.115,129.455l-0.548-1.398h-1.763l-0.541,1.398h-0.518l1.738-4.415h0.43l1.73,4.415H333.115z M332.408,127.596
			l-0.512-1.361c-0.066-0.172-0.134-0.384-0.204-0.635c-0.044,0.192-0.107,0.404-0.19,0.635l-0.516,1.361H332.408z"/>
		<path d="M337.036,126.34c0,0.445-0.151,0.787-0.456,1.026c-0.303,0.239-0.738,0.359-1.303,0.359h-0.518v1.729h-0.512v-4.396h1.141
			C336.486,125.059,337.036,125.485,337.036,126.34z M334.759,127.287h0.46c0.453,0,0.78-0.074,0.983-0.22
			c0.203-0.146,0.304-0.382,0.304-0.704c0-0.291-0.095-0.507-0.286-0.65c-0.189-0.142-0.486-0.213-0.889-0.213h-0.572V127.287z"/>
	</g>
	<rect x="426.792" y="192.659" fill="#90A865" width="4.133" height="4.132"/>
	<g>
		<polygon fill="#90A865" points="428.859,195.008 375.882,195.008 375.882,165.691 285.437,165.691 264.777,145.031 
			229.15,145.031 229.15,144.146 265.144,144.146 285.802,164.806 376.767,164.806 376.767,194.123 428.859,194.123 		"/>
		<polygon fill="#006ADD" points="332.727,185.957 231.488,185.957 231.488,185.072 331.841,185.072 331.841,165.284 
			332.727,165.284 		"/>
		<polygon fill="#EA2100" points="355.912,165.284 355.025,165.284 355.025,151.463 422.367,151.463 422.367,152.348 
			355.912,152.348 		"/>
		
			<rect x="244.203" y="181.556" transform="matrix(0.7071 0.7071 -0.7071 0.7071 209.2331 -116.0034)" fill="#006ADD" width="0.884" height="26.017"/>
		
			<rect x="264.493" y="181.556" transform="matrix(0.7082 0.706 -0.706 0.7082 214.6692 -130.2729)" fill="#006ADD" width="0.885" height="26.018"/>
		
			<rect x="306.178" y="181.556" transform="matrix(0.7082 0.706 -0.706 0.7082 226.8325 -159.7027)" fill="#006ADD" width="0.885" height="26.017"/>
		<polygon fill="#EA2100" points="422.053,176.383 406.103,160.432 406.103,151.904 406.988,151.904 406.988,160.065 
			422.679,175.757 		"/>
		<polygon fill="#8E07A5" points="352.634,204.076 352.007,203.451 370.214,185.244 376.326,185.244 376.326,186.129 
			370.582,186.129 		"/>
		<polygon fill="#E8821C" points="239.105,176.383 238.478,175.757 255.824,158.41 278.966,158.41 278.966,159.296 256.191,159.296 
					"/>
		<rect x="236.822" y="174.07" fill="#E8821C" width="4.133" height="4.132"/>
		<rect x="227.083" y="142.522" fill="#90A865" width="4.133" height="4.132"/>
		<rect x="374.258" y="192.659" fill="#90A865" width="4.132" height="4.132"/>
		<rect x="420.3" y="174.004" fill="#EA2100" width="4.132" height="4.132"/>
		<rect x="420.3" y="149.839" fill="#EA2100" width="4.132" height="4.132"/>
		<rect x="353.402" y="149.839" fill="#EA2100" width="4.133" height="4.132"/>
		<rect x="295.356" y="201.697" fill="#006ADD" width="4.132" height="4.133"/>
		<rect x="350.255" y="201.697" fill="#8E07A5" width="4.131" height="4.133"/>
		<rect x="253.671" y="201.697" fill="#006ADD" width="4.131" height="4.133"/>
		<rect x="233.38" y="201.697" fill="#006ADD" width="4.131" height="4.133"/>
	</g>
	<g>
		<path fill="#414042" d="M410.73,212.48H236.65v-72.49h174.08V212.48z M236.796,212.333h173.786v-72.196H236.796V212.333z"/>
		<path fill="#414042" d="M374.257,212.48c-19.986,0-36.246-16.26-36.246-36.246c0-19.985,16.26-36.244,36.246-36.244
			c19.984,0,36.244,16.259,36.244,36.244C410.501,196.221,394.242,212.48,374.257,212.48z M374.257,140.137
			c-19.904,0-36.098,16.193-36.098,36.098c0,19.905,16.193,36.099,36.098,36.099c19.903,0,36.098-16.193,36.098-36.099
			C410.355,156.33,394.161,140.137,374.257,140.137z"/>
		<path fill="#414042" d="M287.953,175.473h-68.816v-38.828h68.816V175.473z M219.285,175.326h68.521v-38.534h-68.521V175.326z"/>
		<path fill="#414042" d="M322.402,206.086h-107.1v-23.203h107.1V206.086z M215.45,205.938h106.804V183.03H215.45V205.938z"/>
		<path fill="#414042" d="M231.386,213.725h-10.479v-48.514h10.479V213.725z M221.055,213.576h10.184v-48.218h-10.184V213.576z"/>
	</g>
	
		<line fill="none" stroke="#90A865" stroke-width="0.8176" stroke-miterlimit="10" x1="395.154" y1="168.583" x2="395.154" y2="194.123"/>
	
		<line fill="none" stroke="#90A865" stroke-width="0.8176" stroke-miterlimit="10" x1="264.935" y1="144.758" x2="264.935" y2="170.297"/>
	
		<line fill="none" stroke="#90A865" stroke-width="0.8176" stroke-miterlimit="10" x1="313.828" y1="152.441" x2="313.828" y2="177.98"/>
	
		<line fill="none" stroke="#006ADD" stroke-width="0.8176" stroke-miterlimit="10" x1="332.727" y1="203.764" x2="297.736" y2="203.764"/>
	
		<line fill="none" stroke="#006ADD" stroke-width="0.8176" stroke-miterlimit="10" x1="299.488" y1="186.488" x2="299.488" y2="151.497"/>
	<circle fill="#90A865" cx="313.821" cy="151.496" r="2.066"/>
	<circle fill="#006ADD" cx="299.488" cy="151.497" r="2.066"/>
	<circle fill="#E8821C" cx="238.888" cy="151.739" r="2.066"/>
	<circle fill="#E8821C" cx="290.911" cy="177.98" r="2.066"/>
	<circle fill="#006ADD" cx="345.281" cy="215.186" r="2.066"/>
	<circle fill="#006ADD" cx="331.695" cy="203.764" r="2.066"/>
	<circle fill="#006ADD" cx="367.969" cy="176.383" r="2.065"/>
	<circle fill="#EA2100" cx="329.004" cy="159.229" r="2.065"/>
	<circle fill="#EA2100" cx="317.431" cy="144.146" r="2.066"/>
	<circle fill="#EA2100" cx="387.796" cy="186.488" r="2.066"/>
	<circle fill="#90A865" cx="313.821" cy="178.202" r="2.066"/>
	<circle fill="#90A865" cx="264.935" cy="171.059" r="2.066"/>
	<circle fill="#90A865" cx="395.154" cy="168.992" r="2.066"/>
	<circle fill="#90A865" cx="403.126" cy="219.479" r="2.066"/>
	<polyline fill="none" stroke="#E8821C" stroke-width="0.8176" stroke-miterlimit="10" points="238.888,151.739 238.888,166.719 
		248.192,166.719 	"/>
	<path fill="none" stroke="#E8821C" stroke-width="0.8176" stroke-miterlimit="10" d="M248.192,166.719
		c0.409,0.816,0,11.483,0,11.483h42.72"/>
	<polyline fill="none" stroke="#006ADD" stroke-width="0.8176" stroke-miterlimit="10" points="278.966,185.957 278.966,215.186 
		346.302,215.186 	"/>
	<polyline fill="none" stroke="#EA2100" stroke-width="0.8176" stroke-miterlimit="10" points="387.796,186.488 387.796,144.146 
		317.431,144.146 	"/>
	
		<line fill="none" stroke="#EA2100" stroke-width="0.8176" stroke-miterlimit="10" x1="329.005" y1="159.229" x2="329.005" y2="144.146"/>
	<path fill="none" stroke="#90A865" stroke-width="0.8176" stroke-miterlimit="10" d="M403.125,219.479c0-0.613,0-24.914,0-24.914"
		/>
	<polyline fill="none" stroke="#006ADD" stroke-width="0.8176" stroke-miterlimit="10" points="344.259,165.691 344.259,191.271 
		355.468,191.271 355.468,176.383 367.968,176.383 	"/>
</g>
<g>
	<rect x="474.753" y="236.192" fill="#BAA665" width="79.791" height="77.499"/>
	<rect x="471.513" y="233.063" fill="#BAA665" width="86.271" height="3.129"/>
	<rect x="474.753" y="236.192" fill="#9B8957" width="79.791" height="3.128"/>
	<g>
		<rect x="513.4" y="224.854" fill="#FFFFFF" width="25.855" height="6.898"/>
		<path fill="#0D6BB2" d="M514.056,226.443c0.002-0.037,0.014-0.071,0.018-0.107h-4.199v6.728h31.184v-2.852l-24.988-1.498
			C514.887,228.643,513.986,227.627,514.056,226.443z"/>
	</g>
	<path fill="#FFFFFF" d="M549.63,232.408c0,0.361-0.293,0.655-0.654,0.655h-19.436c-0.363,0-0.656-0.294-0.656-0.655l0,0
		c0-0.362,0.293-0.656,0.656-0.656h19.436C549.337,231.752,549.63,232.046,549.63,232.408L549.63,232.408z"/>
	<g>
		<g>
			<path fill="#FFFFFF" d="M497.148,193.005c-1.412,0.096-2.479,1.317-2.385,2.729l1.98,29.34c0.096,1.412,1.316,2.479,2.729,2.384
				l0.566-0.038l-2.324-34.453L497.148,193.005z"/>
			
				<rect x="498.876" y="192.914" transform="matrix(0.9978 -0.0665 0.0665 0.9978 -12.8756 33.6639)" fill="#262626" width="0.411" height="34.531"/>
		</g>
		<path fill="none" stroke="#FFFFFF" stroke-width="0.6132" stroke-miterlimit="10" d="M496.74,211.002l-8.012,15.57l-0.002-0.001
			c-0.078,0.144-0.15,0.291-0.213,0.444c-0.199,0.486-0.309,1.019-0.309,1.578c0,2.3,1.864,4.164,4.164,4.164h9.737"/>
	</g>
</g>
<g>
	<g>
		<rect x="646.976" y="113.551" fill="#74BDD1" width="56.82" height="36.701"/>
		<rect x="646.976" y="153.6" fill="#74BDD1" width="56.82" height="95.072"/>
		<rect x="707.146" y="113.551" fill="#74BDD1" width="56.82" height="36.701"/>
		<rect x="707.146" y="153.6" fill="#74BDD1" width="56.82" height="95.072"/>
	</g>
	<rect x="703.796" y="113.551" fill="#FFFFFF" width="3.35" height="36.701"/>
	<rect x="703.796" y="153.6" fill="#FFFFFF" width="3.35" height="95.072"/>
	<rect x="646.976" y="150.252" fill="#FFFFFF" width="56.82" height="3.348"/>
	<rect x="707.146" y="150.252" fill="#FFFFFF" width="56.82" height="3.348"/>
	<rect x="703.796" y="150.252" fill="#FFFFFF" width="3.35" height="3.348"/>
	<rect x="641.347" y="248.383" fill="#FFFFFF" width="128.25" height="2.988"/>
</g>
<g>
	<rect x="582.828" y="294.654" fill="#5E5E5E" width="4.641" height="12.194"/>
	<rect x="584.275" y="265.857" fill="#5E5E5E" width="1.748" height="31.216"/>
	
		<rect x="605.88" y="239.682" transform="matrix(0.9767 0.2148 -0.2148 0.9767 68.2463 -124.4519)" fill="#5E5E5E" width="1.746" height="24.214"/>
	<g>
		
			<rect x="591.139" y="300.34" transform="matrix(0.2713 -0.9625 0.9625 0.2713 134.7999 794.0131)" fill="#5E5E5E" width="1.281" height="15.285"/>
		
			<rect x="577.891" y="300.34" transform="matrix(-0.2713 -0.9625 0.9625 -0.2713 439.0541 948.3715)" fill="#5E5E5E" width="1.281" height="15.285"/>
		<circle fill="#5E5E5E" cx="571.336" cy="311.36" r="1.935"/>
		<circle fill="#5E5E5E" cx="598.96" cy="311.36" r="1.934"/>
	</g>
	<rect x="584.441" y="305.704" fill="#5E5E5E" width="1.416" height="4.967"/>
	<rect x="583.646" y="309.438" fill="#5E5E5E" width="3.004" height="3.856"/>
	<path fill="#D39822" d="M605.662,265.345c0,1.533-1.24,2.773-2.773,2.773h-35.482c-1.531,0-2.771-1.24-2.771-2.773l0,0
		c0-1.53,1.24-2.771,2.771-2.771h35.482C604.421,262.573,605.662,263.814,605.662,265.345L605.662,265.345z"/>
	<path fill="#B75F0F" d="M608.166,256.771c-0.307,1.325-1.633,2.147-2.957,1.84l0,0c-1.326-0.31-2.15-1.635-1.842-2.96l10.5-44.997
		c0.311-1.326,1.635-2.148,2.961-1.84l0,0c1.324,0.309,2.148,1.635,1.84,2.96L608.166,256.771z"/>
</g>
</svg>
