<?xml version="1.0" encoding="utf-8"?>
<!-- Generator: Adobe Illustrator 16.0.0, SVG Export Plug-In . SVG Version: 6.00 Build 0)  -->
<!DOCTYPE svg PUBLIC "-//W3C//DTD SVG 1.1//EN" "http://www.w3.org/Graphics/SVG/1.1/DTD/svg11.dtd">
<svg version="1.1" id="Layer_1" xmlns="http://www.w3.org/2000/svg" xmlns:xlink="http://www.w3.org/1999/xlink" x="0px" y="0px"
	 width="1054.598px" height="315.707px" viewBox="0 0 1054.598 315.707" enable-background="new 0 0 1054.598 315.707"
	 xml:space="preserve">
<g>
	<path fill="#FFFFFF" d="M23.598,27.085v288.317H1031V27.085H23.598z M1012.442,315.13H42.157V50.343h970.285V315.13
		L1012.442,315.13z"/>
</g>
<g>
	<polygon fill="#DC4A29" points="57.284,34.426 0,34.426 19.094,-0.006 57.284,-0.006 	"/>
	<polygon fill="#DC4A29" points="997.315,34.426 1054.598,34.426 1035.502,-0.006 997.315,-0.006 	"/>
	<rect x="49.817" y="-0.006" fill="#DC4A29" width="964.033" height="34.432"/>
</g>
<g>
	<rect x="42.157" y="114.746" fill="#BAA665" width="67.086" height="200.967"/>
	<circle fill="#B5D6DB" cx="75.7" cy="151.897" r="2.501"/>
	<g>
		<circle fill="#B5D6DB" cx="98.099" cy="214.55" r="3.67"/>
		
			<line fill="none" stroke="#8A9C9F" stroke-width="2.0807" stroke-linecap="round" stroke-linejoin="round" stroke-miterlimit="10" x1="83.924" y1="214.55" x2="98.319" y2="214.55"/>
	</g>
</g>
<g>
	<g>
		<rect x="626.809" y="230.333" display="none" fill="#202E42" width="7.754" height="9.932"/>
		<rect x="599.057" y="230.333" display="none" fill="#202E42" width="7.754" height="9.932"/>
		<g display="none">
			<g display="inline">
				<path fill="#2C313A" d="M556.768,313.134c0.637-1.9,1.24-2.113,5.354-2.312l2.998-0.955c1.682-0.414,3.158-1.34,4.26-2.604
					c0.246-0.287,0.473-0.59,0.68-0.906c1.898,0.139,1.627,1.865,1.627,1.865h5.35v0.723v1.006v1.008v2.176v0.957v0.572h-5.891
					v-0.572v-0.953l-2.615,1.525h-12.012C556.518,314.128,556.605,313.614,556.768,313.134z"/>
				<rect x="568.102" y="256.876" fill="#202E42" width="8.934" height="51.643"/>
			</g>
			<path display="inline" fill="#1F2328" d="M568.191,313.134c0.639-1.9,1.24-2.113,5.355-2.312l2.998-0.955
				c1.68-0.414,3.158-1.34,4.26-2.604c0.246-0.287,0.473-0.59,0.68-0.906c1.898,0.139,1.627,1.865,1.627,1.865h5.35v0.723v1.006
				v1.008v2.176v0.957v0.572h-5.891v-0.572v-0.953l-2.615,1.525h-12.014C567.941,314.128,568.031,313.614,568.191,313.134z"/>
			<rect x="579.525" y="256.876" display="inline" fill="#202E42" width="8.936" height="51.643"/>
			<rect x="568.102" y="252.929" display="inline" fill="#202E42" width="50.85" height="8.932"/>
			<path display="inline" fill="#202E42" d="M604.561,253.595c0,4.566,3.703,8.266,8.268,8.266h6.258
				c4.566,0,8.268-3.699,8.268-8.266v-6.258c0-4.567-3.701-8.268-8.268-8.268h-6.258c-4.564,0-8.268,3.7-8.268,8.268V253.595z"/>
		</g>
		<g display="none">
			<path display="inline" fill="#F9B69B" d="M589.182,237.479L589.182,237.479h-2.389l0,0v6.902h-3.279h-4.326
				c-0.002,0-0.004,0-0.006,0c-0.004,0-0.006,0-0.008,0h-0.334v-0.033c-1.744-0.174-3.111-1.629-3.111-3.418
				c0-1.791,1.367-3.246,3.111-3.418v-0.033h0.334c0.002,0,0.004-0.002,0.008-0.002c0.002,0,0.004,0.002,0.006,0.002h3.543
				c-0.004-0.035-0.012-0.066-0.012-0.102c0-0.679,0.551-1.229,1.23-1.229c0.678,0,1.23,0.551,1.23,1.229
				c0,0.035-0.008,0.066-0.012,0.102h3.023H589.182z"/>
			<rect x="586.793" y="237.479" display="inline" fill="#FFFFFF" width="0" height="6.902"/>
			<polygon display="inline" fill="#FFFFFF" points="589.182,244.382 589.182,244.382 586.793,244.382 586.793,244.382 
				586.793,244.382 586.793,244.382 			"/>
			<polygon display="inline" fill="#FFFFFF" points="589.182,244.382 589.182,244.382 586.793,244.382 586.793,244.382 
				588.191,244.382 			"/>
			<polygon display="inline" opacity="0.3" fill="#84A8C1" points="589.182,244.382 589.182,244.382 586.793,244.382 
				586.793,244.382 588.191,244.382 			"/>
			<polygon display="inline" fill="#FFFFFF" points="589.182,243.354 589.182,244.382 588.191,244.382 586.793,244.382 
				586.793,237.479 589.182,237.479 			"/>
			<rect x="588.344" y="235.734" display="inline" fill="#202E42" width="32.479" height="9.062"/>
		</g>
		<g display="none">
			<path display="inline" fill="#F9B69B" d="M608.535,178.456l0.178-0.221h12.656v27.002l0,0v10.191h-9.658v-10.191l0,0v-0.01
				c0-2.116,0-2.116,0-2.646c0-1.234-1.41-1.41-1.41-1.41h-2.955v-11.645h-3.75L608.535,178.456z"/>
			<circle display="inline" fill="#2E3D49" cx="610.354" cy="182.636" r="0.519"/>
			<path display="inline" fill="#CE857C" d="M609.111,192.458c0.199,0,0.361-0.161,0.361-0.359h0.529
				c0,0.488-0.398,0.888-0.891,0.888h-1.766v-0.528H609.111z"/>
			<path display="inline" fill="none" d="M614.939,183.308c0,0.014-0.004,0.025-0.004,0.038v-0.038H614.939z"/>
			<g display="inline">
				<rect x="604.625" y="248.151" fill="#9B390D" width="22.76" height="2.008"/>
				<polygon fill="#202E42" points="606.863,250.159 606.863,248.151 607.883,248.151 607.883,250.159 621.5,250.159 621.5,248.151 
					622.521,248.151 622.521,250.159 627.385,250.159 627.385,252.929 604.625,252.929 604.625,250.159 				"/>
			</g>
			<polygon display="inline" fill="#FFFFFF" points="611.711,205.237 611.719,202.757 613.891,202.757 615.752,202.757 
				617.787,202.757 619.58,202.757 621.369,202.757 621.369,205.237 621.414,205.237 621.414,248.151 611.703,248.151 
				611.703,205.237 			"/>
			<path display="inline" opacity="0.3" fill="#84A8C1" d="M613.574,224.643c0,0.751-0.607,1.358-1.357,1.358h-5.318
				c-0.75,0-1.359-0.607-1.359-1.358v-7.095h8.035V224.643z"/>
			<polygon display="inline" fill="#BF2E2E" points="614.105,205.446 616.201,202.757 618.297,205.446 617.148,206.597 
				618.131,241.179 618.131,241.179 616.205,243.104 614.281,241.179 614.273,241.179 615.256,206.597 			"/>
			<path display="inline" fill="#303235" d="M607.52,172.384c1.51,0,2.734,1.223,2.734,2.733c0,0.177-0.021,0.349-0.055,0.517
				h11.805v15.129c0,0,0,0-1.367,0c-4.146,0-3.924-3.926-3.924-3.926v-1.719c0.039,0.004,0.076,0.013,0.117,0.013
				c0.961,0,1.74-0.78,1.74-1.741c0-0.963-0.779-1.742-1.74-1.742c-0.494,0-0.938,0.207-1.256,0.537v1.124v1.286v0.536h-1.857v-4.47
				c-0.631,0-1.561,0-2.959,0c-3.838,0-5.297-3.139-5.742-4.453c-0.146-0.334-0.229-0.703-0.229-1.091
				C604.787,173.606,606.01,172.384,607.52,172.384z"/>
			<polygon display="inline" fill="#344E68" points="609.742,205.226 609.047,207.685 610.256,209.22 608.68,210.795 
				611.703,232.981 611.703,211.059 611.703,208.952 611.703,205.226 			"/>
			<g display="inline">
				<path fill="#202E42" d="M623.328,205.226h5.539c3.145,0,5.695,2.549,5.695,5.694v0.013v4.161v0.012v16.524h-7.178v0.014v16.508
					v4.777h-0.564h-5.406v-4.777v-42.914v-0.012H623.328z"/>
				<path fill="#202E42" d="M604.748,205.237h5.539h1.416v42.914v4.777h-5.404h-1.674v-4.777V231.63h-5.568v-6.706v-5.927v-8.064
					C599.057,207.787,601.605,205.237,604.748,205.237z"/>
				<polygon fill="#344E68" points="623.328,205.226 624.025,207.685 622.816,209.22 624.393,210.795 621.369,232.981 
					621.369,211.059 621.369,208.952 621.369,205.226 				"/>
				<polygon fill="#344E68" points="609.742,205.226 609.047,207.685 610.256,209.22 608.68,210.795 611.703,232.981 
					611.703,211.059 611.703,208.952 611.703,205.226 				"/>
			</g>
		</g>
		<g display="none">
			<path display="inline" fill="#F9B69B" d="M610.873,235.693L610.873,235.693l-2.389,0.001l0,0v6.902h-3.279h-4.326
				c-0.004,0-0.004,0-0.008,0s-0.006,0-0.008,0h-0.334v-0.034c-1.744-0.174-3.111-1.628-3.111-3.418s1.367-3.244,3.111-3.417v-0.034
				h0.334c0.002,0,0.004-0.001,0.008-0.001s0.004,0.001,0.008,0.001h3.543c-0.004-0.034-0.012-0.064-0.012-0.101
				c0-0.678,0.551-1.229,1.229-1.229c0.68,0,1.23,0.552,1.23,1.229c0,0.036-0.006,0.066-0.01,0.101h3.021H610.873z"/>
			<rect x="608.484" y="235.694" display="inline" fill="#FFFFFF" width="0" height="6.902"/>
			<polygon display="inline" fill="#FFFFFF" points="610.873,242.597 610.873,242.598 608.484,242.598 608.484,242.597 
				608.484,242.597 608.484,242.597 			"/>
			<polygon display="inline" fill="#FFFFFF" points="610.873,242.597 610.873,242.597 608.484,242.597 608.484,242.597 
				609.881,242.597 			"/>
			<polygon display="inline" opacity="0.3" fill="#84A8C1" points="610.873,242.597 610.873,242.597 608.484,242.597 
				608.484,242.597 609.881,242.597 			"/>
			<polygon display="inline" fill="#FFFFFF" points="610.873,241.569 610.873,242.597 609.881,242.597 608.484,242.597 
				608.484,235.694 610.873,235.694 			"/>
			<rect x="610.035" y="235.575" display="inline" fill="#202E42" width="24.527" height="9.061"/>
		</g>
		<g>
			<g>
				<rect x="621.625" y="245.831" fill="#5E5E5E" width="2.26" height="16.969"/>
				<circle fill="#5E5E5E" cx="622.76" cy="262.798" r="1.135"/>
			</g>
			<path fill="#D39822" d="M639.418,246.755c0,1.346-1.092,2.438-2.438,2.438h-44.205c-1.344,0-2.436-1.092-2.436-2.438l0,0
				c0-1.346,1.092-2.436,2.436-2.436h44.205C638.326,244.319,639.418,245.409,639.418,246.755L639.418,246.755z"/>
		</g>
	</g>
</g>
</svg>
