<?xml version="1.0" encoding="utf-8"?>
<!-- Generator: Adobe Illustrator 16.0.0, SVG Export Plug-In . SVG Version: 6.00 Build 0)  -->
<!DOCTYPE svg PUBLIC "-//W3C//DTD SVG 1.1//EN" "http://www.w3.org/Graphics/SVG/1.1/DTD/svg11.dtd">
<svg version="1.1" id="Layer_1" xmlns="http://www.w3.org/2000/svg" xmlns:xlink="http://www.w3.org/1999/xlink" x="0px" y="0px"
	 width="1054.598px" height="315.707px" viewBox="0 0 1054.598 315.707" enable-background="new 0 0 1054.598 315.707"
	 xml:space="preserve">
<g>
	<rect x="41.878" y="50.939" fill="#BFCED6" width="970.211" height="264.768"/>
	<g>
		<rect x="721.304" y="236.338" fill="#BAA665" width="79.998" height="78.625"/>
		<rect x="718.055" y="233.201" fill="#BAA665" width="86.497" height="3.137"/>
		<rect x="721.304" y="236.338" fill="#9B8957" width="79.998" height="3.137"/>
		<g>
			<rect x="760.05" y="224.971" fill="#FFFFFF" width="25.924" height="6.916"/>
			<path fill="#0D6BB2" d="M760.708,226.563c0.003-0.037,0.014-0.071,0.018-0.107h-4.21v6.745h31.266v-2.859l-25.053-1.502
				C761.542,228.769,760.638,227.75,760.708,226.563z"/>
		</g>
		<path fill="#FFFFFF" d="M796.376,232.544c0,0.362-0.295,0.657-0.658,0.657h-19.483c-0.364,0-0.658-0.295-0.658-0.657l0,0
			c0-0.363,0.294-0.657,0.658-0.657h19.483C796.082,231.887,796.376,232.181,796.376,232.544L796.376,232.544z"/>
		<g>
			<g>
				<path fill="#FFFFFF" d="M743.757,193.039c-1.416,0.096-2.485,1.32-2.391,2.736l1.983,29.415c0.097,1.416,1.32,2.485,2.736,2.391
					l0.568-0.038L744.326,193L743.757,193.039z"/>
				
					<rect x="745.497" y="192.964" transform="matrix(-0.9978 0.0665 -0.0665 -0.9978 1503.741 370.4798)" fill="#262626" width="0.411" height="34.622"/>
			</g>
			<path fill="none" stroke="#FFFFFF" stroke-width="0.6148" stroke-miterlimit="10" d="M743.349,211.082l-8.032,15.611
				l-0.002-0.001c-0.08,0.144-0.151,0.292-0.215,0.443c-0.198,0.487-0.31,1.021-0.31,1.582c0,2.308,1.869,4.176,4.176,4.176h9.763"
				/>
		</g>
	</g>
	<g>
		<rect x="345.354" y="236.338" fill="#BAA665" width="327.593" height="78.625"/>
		<rect x="342.104" y="233.201" fill="#BAA665" width="334.092" height="3.137"/>
		<rect x="345.354" y="236.338" fill="#9B8957" width="327.593" height="3.137"/>
		<path fill="#FFFFFF" d="M668.021,232.544c0,0.362-0.296,0.657-0.658,0.657h-19.485c-0.364,0-0.657-0.295-0.657-0.657l0,0
			c0-0.363,0.293-0.657,0.657-0.657h19.485C667.726,231.887,668.021,232.181,668.021,232.544L668.021,232.544z"/>
	</g>
	<g opacity="0.6">
		<polygon fill="none" points="877.38,298.998 877.196,298.812 877.14,299.237 		"/>
		
			<rect x="869.404" y="297.513" transform="matrix(-0.7071 -0.7071 0.7071 -0.7071 1275.2689 1126.2131)" fill="#869392" width="2.953" height="2.953"/>
		
			<rect x="867.164" y="299.735" transform="matrix(-0.7074 -0.7068 0.7068 -0.7074 1270.2616 1128.2335)" fill="#869392" width="2.954" height="2.952"/>
		<polygon fill="#869392" points="862.068,301.317 860.464,302.92 860.609,304.035 862.068,305.494 864.156,303.405 		"/>
		<polygon fill="#869392" points="860.912,289.017 858.816,289.017 859.863,290.064 		"/>
		<polygon fill="#869392" points="868.564,312.222 866.476,310.134 864.388,312.223 866.119,313.953 866.833,313.953 		"/>
		<polygon fill="#869392" points="858.685,289.119 858.928,291 859.748,290.181 		"/>
		
			<rect x="862.831" y="299.698" transform="matrix(-0.7073 -0.7069 0.7069 -0.7073 1262.696 1125.2006)" fill="#869392" width="2.953" height="2.952"/>
		
			<rect x="864.956" y="297.533" transform="matrix(-0.7068 -0.7074 0.7074 -0.7068 1267.2751 1123.2883)" fill="#869392" width="2.953" height="2.953"/>
		
			<rect x="867.196" y="308.544" transform="matrix(-0.7069 0.7073 -0.7073 -0.7069 1702.0422 -85.1993)" fill="#869392" width="2.953" height="2.954"/>
		<polygon fill="#869392" points="862.068,305.726 860.968,306.825 861.261,309.096 862.068,309.902 864.156,307.812 		"/>
		
			<rect x="867.24" y="295.289" transform="matrix(-0.7074 -0.7068 0.7068 -0.7074 1273.532 1120.6965)" fill="#869392" width="2.953" height="2.953"/>
		<polygon fill="#869392" points="871.241,313.953 872.972,312.222 870.884,310.134 868.796,312.222 870.527,313.953 
			871.066,313.953 		"/>
		
			<rect x="864.992" y="306.341" transform="matrix(-0.7071 0.7071 -0.7071 -0.7071 1696.8136 -87.2084)" fill="#869392" width="2.953" height="2.953"/>
		
			<rect x="862.807" y="304.177" transform="matrix(-0.7071 0.7071 -0.7071 -0.7071 1691.5536 -89.3568)" fill="#869392" width="2.953" height="2.953"/>
		<polygon fill="#869392" points="873.205,312.222 874.935,313.953 875.244,313.953 875.685,310.526 875.292,310.134 		"/>
		
			<rect x="871.604" y="308.545" transform="matrix(-0.7071 0.7071 -0.7071 -0.7071 1709.6592 -88.1211)" fill="#869392" width="2.953" height="2.953"/>
		<polygon fill="#869392" points="875.292,305.726 873.205,307.812 875.292,309.902 875.835,309.358 876.189,306.622 		"/>
		<polygon fill="#869392" points="871.472,313.953 874.704,313.953 873.088,312.338 		"/>
		
			<rect x="869.419" y="306.383" transform="matrix(-0.7073 0.7069 -0.7069 -0.7073 1704.4941 -90.0723)" fill="#869392" width="2.952" height="2.953"/>
		
			<rect x="867.176" y="304.096" transform="matrix(-0.7068 0.7074 -0.7074 -0.7068 1698.7686 -92.973)" fill="#869392" width="2.953" height="2.953"/>
		<polygon fill="#869392" points="875.712,310.321 875.802,309.625 875.408,310.018 		"/>
		
			<rect x="871.649" y="290.88" transform="matrix(-0.7073 -0.7069 0.7069 -0.7073 1283.984 1116.3806)" fill="#869392" width="2.952" height="2.953"/>
		
			<rect x="873.806" y="293.072" transform="matrix(0.7068 -0.7074 0.7074 0.7068 48.2793 705.5762)" fill="#869392" width="2.954" height="2.953"/>
		<polygon fill="#869392" points="877.222,298.607 877.699,294.906 877.497,294.704 875.408,296.793 		"/>
		
			<rect x="864.992" y="301.932" transform="matrix(-0.7071 0.7071 -0.7071 -0.7071 1693.6965 -94.7337)" fill="#869392" width="2.953" height="2.953"/>
		
			<rect x="869.364" y="293.124" transform="matrix(-0.7069 -0.7073 0.7073 -0.7069 1278.1102 1118.7878)" fill="#869392" width="2.953" height="2.953"/>
		<polygon fill="#869392" points="877.497,294.473 877.792,294.176 878.203,291.002 877.497,290.297 875.408,292.385 		"/>
		<polygon fill="#869392" points="874.136,289.017 872.041,289.017 873.088,290.064 		"/>
		<polygon fill="#869392" points="868.564,290.181 867.4,289.017 866.066,289.017 865.552,289.017 864.388,290.181 866.476,292.269 
					"/>
		<polygon fill="#869392" points="869.729,289.017 867.632,289.017 868.679,290.064 		"/>
		<polygon fill="#869392" points="859.99,299.24 860.439,302.715 861.952,301.201 		"/>
		<polygon fill="#869392" points="878.229,290.797 878.412,289.383 877.613,290.181 		"/>
		<polygon fill="#869392" points="878.445,289.116 878.458,289.017 876.449,289.017 877.497,290.064 		"/>
		
			<rect x="862.799" y="308.55" transform="matrix(0.7071 0.7071 -0.7071 0.7071 472.362 -520.3308)" fill="#869392" width="2.954" height="2.953"/>
		
			<rect x="869.4" y="301.933" transform="matrix(-0.7071 0.7071 -0.7071 -0.7071 1701.2209 -97.8505)" fill="#869392" width="2.953" height="2.953"/>
		
			<rect x="871.657" y="304.121" transform="matrix(0.7069 0.7073 -0.7073 0.7069 472.0204 -527.985)" fill="#869392" width="2.953" height="2.954"/>
		
			<rect x="862.791" y="290.901" transform="matrix(-0.7071 -0.7071 0.7071 -0.7071 1268.6553 1110.2482)" fill="#869392" width="2.953" height="2.953"/>
		
			<rect x="871.649" y="299.696" transform="matrix(-0.7074 -0.7068 0.7068 -0.7074 1277.9456 1131.3379)" fill="#869392" width="2.953" height="2.953"/>
		<polygon fill="#869392" points="861.952,296.793 859.863,294.705 859.458,295.11 859.935,298.81 		"/>
		
			<rect x="860.547" y="293.123" transform="matrix(-0.7069 -0.7073 0.7073 -0.7069 1263.0619 1112.5505)" fill="#869392" width="2.953" height="2.953"/>
		<polygon fill="#869392" points="865.32,289.017 863.224,289.017 864.271,290.064 		"/>
		
			<rect x="862.831" y="295.29" transform="matrix(-0.7073 -0.7069 0.7069 -0.7073 1265.8125 1117.6746)" fill="#869392" width="2.953" height="2.952"/>
		
			<rect x="864.956" y="293.124" transform="matrix(-0.7068 -0.7074 0.7074 -0.7068 1270.3944 1115.7629)" fill="#869392" width="2.953" height="2.953"/>
		
			<rect x="860.547" y="297.532" transform="matrix(-0.7068 -0.7074 0.7074 -0.7068 1259.7509 1120.1687)" fill="#869392" width="2.953" height="2.953"/>
		<polygon fill="#869392" points="859.337,294.18 859.431,294.904 859.748,294.589 		"/>
		<polygon fill="#869392" points="860.642,304.301 860.943,306.619 861.952,305.609 		"/>
		<polygon fill="#869392" points="875.292,301.317 873.205,303.405 875.292,305.494 876.488,304.298 876.693,302.717 		"/>
		
			<rect x="867.164" y="290.919" transform="matrix(-0.7074 -0.7068 0.7068 -0.7074 1276.4924 1113.1809)" fill="#869392" width="2.954" height="2.953"/>
		<polygon fill="#869392" points="873.205,290.181 875.292,292.269 877.38,290.181 876.216,289.017 874.369,289.017 		"/>
		<polygon fill="#869392" points="872.972,290.181 871.808,289.017 871.066,289.017 869.96,289.017 868.796,290.181 
			870.884,292.269 		"/>
		<polygon fill="#869392" points="867.065,313.953 870.295,313.953 868.68,312.338 		"/>
		<polygon fill="#869392" points="862.657,313.953 865.886,313.953 864.271,312.338 		"/>
		<polygon fill="#869392" points="861.295,309.361 861.445,310.523 861.952,310.018 		"/>
		<polygon fill="#869392" points="862.068,310.134 861.472,310.729 861.888,313.953 862.425,313.953 864.156,312.223 		"/>
		<polygon fill="#869392" points="864.156,290.181 862.992,289.017 861.144,289.017 859.98,290.181 862.068,292.269 		"/>
		<polygon fill="#869392" points="876.214,306.416 876.455,304.564 875.408,305.609 		"/>
		<polygon fill="#869392" points="875.292,301.086 877.14,299.237 877.196,298.812 875.292,296.909 873.205,298.997 		"/>
		<polygon fill="#869392" points="877.726,294.701 877.759,294.442 877.613,294.588 		"/>
		<polygon fill="#869392" points="876.718,302.512 877.107,299.504 875.41,301.201 		"/>
		<polygon fill="#869392" points="859.863,294.473 861.952,292.385 859.863,290.297 858.955,291.205 859.304,293.914 		"/>
		
			<rect x="871.608" y="295.309" transform="matrix(-0.7071 -0.7071 0.7071 -0.7071 1280.5884 1124.0083)" fill="#869392" width="2.953" height="2.953"/>
		<polygon fill="#E9F1F4" points="877.38,290.181 877.497,290.064 876.449,289.017 876.216,289.017 		"/>
		<polygon fill="#E9F1F4" points="877.497,290.297 878.203,291.002 878.229,290.797 877.613,290.181 		"/>
		<polygon fill="#E9F1F4" points="877.497,294.704 877.699,294.906 877.726,294.701 877.613,294.588 		"/>
		
			<rect x="876.303" y="291.99" transform="matrix(0.7101 -0.7041 0.7041 0.7101 47.4434 702.1579)" fill="#E9F1F4" width="0.164" height="2.953"/>
		
			<rect x="874.119" y="289.825" transform="matrix(0.7041 -0.7101 0.7101 0.7041 51.8126 706.9475)" fill="#E9F1F4" width="0.164" height="2.953"/>
		<polygon fill="#E9F1F4" points="872.041,289.017 871.808,289.017 872.972,290.181 873.088,290.064 		"/>
		
			<rect x="870.506" y="293.397" transform="matrix(-0.7071 -0.7071 0.7071 -0.7071 1281.0453 1117.5844)" fill="#E9F1F4" width="2.953" height="0.164"/>
		<polygon fill="#E9F1F4" points="867.632,289.017 867.4,289.017 868.564,290.181 868.679,290.064 		"/>
		
			<rect x="868.301" y="291.192" transform="matrix(-0.7071 -0.7071 0.7071 -0.7071 1278.8416 1112.2623)" fill="#E9F1F4" width="2.953" height="0.165"/>
		
			<rect x="874.099" y="294.196" transform="matrix(0.7101 -0.7041 0.7041 0.7101 45.2512 701.2459)" fill="#E9F1F4" width="0.164" height="2.953"/>
		<polygon fill="#E9F1F4" points="877.196,298.812 877.222,298.607 875.408,296.793 875.292,296.909 		"/>
		
			<rect x="863.894" y="291.194" transform="matrix(-0.7071 -0.7071 0.7071 -0.7071 1271.3169 1109.1484)" fill="#E9F1F4" width="2.953" height="0.164"/>
		
			<rect x="870.506" y="297.805" transform="matrix(-0.7071 -0.7071 0.7071 -0.7071 1277.929 1125.1099)" fill="#E9F1F4" width="2.953" height="0.164"/>
		
			<rect x="874.118" y="298.619" transform="matrix(0.7071 -0.7071 0.7071 0.7071 43.8474 706.0482)" fill="#E9F1F4" width="0.163" height="2.953"/>
		<polygon fill="#E9F1F4" points="863.224,289.017 862.992,289.017 864.156,290.181 864.271,290.064 		"/>
		
			<rect x="868.262" y="295.621" transform="matrix(-0.7068 -0.7074 0.7074 -0.7068 1275.2578 1119.9847)" fill="#E9F1F4" width="2.953" height="0.164"/>
		<polygon fill="#E9F1F4" points="875.292,301.317 876.693,302.717 876.718,302.512 875.41,301.201 		"/>
		
			<rect x="866.098" y="293.397" transform="matrix(-0.7071 -0.7071 0.7071 -0.7071 1273.5208 1114.4675)" fill="#E9F1F4" width="2.953" height="0.164"/>
		
			<rect x="866.059" y="297.825" transform="matrix(-0.7068 -0.7074 0.7074 -0.7068 1269.9359 1122.1863)" fill="#E9F1F4" width="2.951" height="0.164"/>
		
			<rect x="863.852" y="295.621" transform="matrix(-0.7069 -0.7073 0.7073 -0.7069 1267.9235 1116.771)" fill="#E9F1F4" width="2.953" height="0.165"/>
		
			<rect x="861.689" y="293.397" transform="matrix(-0.7073 -0.7069 0.7069 -0.7073 1266.1864 1111.2551)" fill="#E9F1F4" width="2.953" height="0.163"/>
		
			<rect x="859.485" y="291.192" transform="matrix(-0.7073 -0.7069 0.7069 -0.7073 1263.9812 1105.9348)" fill="#E9F1F4" width="2.953" height="0.165"/>
		<polygon fill="#E9F1F4" points="875.292,305.726 876.189,306.622 876.214,306.416 875.408,305.609 		"/>
		
			<rect x="870.547" y="302.194" transform="matrix(-0.7073 -0.7069 0.7069 -0.7073 1275.0903 1132.5358)" fill="#E9F1F4" width="2.953" height="0.164"/>
		
			<rect x="868.343" y="299.989" transform="matrix(-0.7073 -0.7069 0.7069 -0.7073 1272.8848 1127.2144)" fill="#E9F1F4" width="2.952" height="0.164"/>
		<polygon fill="#E9F1F4" points="859.863,290.064 858.816,289.017 858.673,289.017 858.685,289.119 859.748,290.181 		"/>
		
			<rect x="872.677" y="304.454" transform="matrix(0.7073 0.7069 -0.7069 0.7073 471.1778 -528.8291)" fill="#E9F1F4" width="2.952" height="0.163"/>
		
			<rect x="863.894" y="300.009" transform="matrix(-0.7071 -0.7071 0.7071 -0.7071 1265.0825 1124.197)" fill="#E9F1F4" width="2.953" height="0.164"/>
		
			<rect x="861.689" y="297.805" transform="matrix(-0.7071 -0.7071 0.7071 -0.7071 1262.8777 1118.8755)" fill="#E9F1F4" width="2.953" height="0.164"/>
		
			<rect x="869.723" y="303.079" transform="matrix(-0.7101 0.7041 -0.7041 -0.7101 1701.8691 -91.6573)" fill="#E9F1F4" width="0.165" height="2.953"/>
		
			<rect x="866.059" y="302.233" transform="matrix(-0.7068 -0.7074 0.7074 -0.7068 1266.8174 1129.7102)" fill="#E9F1F4" width="2.951" height="0.164"/>
		<polygon fill="#E9F1F4" points="859.863,294.473 859.304,293.914 859.337,294.18 859.748,294.589 		"/>
		
			<rect x="871.879" y="305.186" transform="matrix(-0.7041 0.7101 -0.7101 -0.7041 1703.6956 -96.5479)" fill="#E9F1F4" width="0.165" height="2.953"/>
		<polygon fill="#E9F1F4" points="875.292,310.134 875.685,310.526 875.712,310.321 875.408,310.018 		"/>
		
			<rect x="872.718" y="308.843" transform="matrix(0.7069 0.7073 -0.7073 0.7069 474.6837 -527.7603)" fill="#E9F1F4" width="2.953" height="0.163"/>
		
			<rect x="859.445" y="295.621" transform="matrix(-0.7068 -0.7074 0.7074 -0.7068 1260.2092 1113.7473)" fill="#E9F1F4" width="2.953" height="0.164"/>
		
			<rect x="865.285" y="303.035" transform="matrix(-0.7041 0.7101 -0.7101 -0.7041 1690.9147 -95.5603)" fill="#E9F1F4" width="0.164" height="2.953"/>
		
			<rect x="871.896" y="309.647" transform="matrix(-0.7071 0.7071 -0.7071 -0.7071 1708.5571 -85.4604)" fill="#E9F1F4" width="0.164" height="2.953"/>
		
			<rect x="861.73" y="302.193" transform="matrix(-0.7074 -0.7068 0.7068 -0.7074 1260.2294 1126.2096)" fill="#E9F1F4" width="2.953" height="0.164"/>
		<polygon fill="#E9F1F4" points="873.088,312.338 874.704,313.953 874.935,313.953 873.205,312.222 		"/>
		
			<rect x="867.488" y="305.239" transform="matrix(-0.7071 0.7071 -0.7071 -0.7071 1697.9148 -89.8687)" fill="#E9F1F4" width="0.164" height="2.953"/>
		
			<rect x="869.693" y="307.443" transform="matrix(-0.7101 0.7041 -0.7041 -0.7101 1704.9032 -84.1459)" fill="#E9F1F4" width="0.164" height="2.953"/>
		<polygon fill="#E9F1F4" points="861.952,301.201 862.068,301.085 859.98,298.997 859.962,299.016 859.99,299.24 		"/>
		
			<rect x="867.488" y="309.647" transform="matrix(-0.7071 0.7071 -0.7071 -0.7071 1701.0319 -82.3434)" fill="#E9F1F4" width="0.164" height="2.953"/>
		
			<rect x="865.314" y="307.488" transform="matrix(-0.7101 0.7041 -0.7041 -0.7101 1697.4348 -81.0151)" fill="#E9F1F4" width="0.165" height="2.953"/>
		
			<rect x="863.078" y="305.216" transform="matrix(-0.7071 0.7071 -0.7071 -0.7071 1690.3708 -86.7897)" fill="#E9F1F4" width="0.164" height="2.953"/>
		<polygon fill="#E9F1F4" points="862.068,305.494 860.609,304.035 860.642,304.301 861.952,305.609 		"/>
		<polygon fill="#E9F1F4" points="868.796,312.222 868.68,312.338 870.295,313.953 870.527,313.953 		"/>
		<polygon fill="#E9F1F4" points="866.119,313.953 864.388,312.223 864.271,312.338 865.886,313.953 866.066,313.953 		"/>
		
			<rect x="863.078" y="309.624" transform="matrix(-0.7011 0.713 -0.713 -0.7011 1690.1775 -86.2275)" fill="#E9F1F4" width="0.164" height="2.953"/>
		<polygon fill="#E9F1F4" points="862.068,309.902 861.261,309.096 861.295,309.361 861.952,310.018 		"/>
		<polygon fill="#E9F1F4" points="859.98,290.181 861.144,289.017 860.912,289.017 859.863,290.064 		"/>
		<polygon fill="#E9F1F4" points="859.863,290.297 859.748,290.181 858.928,291 858.955,291.205 		"/>
		
			<rect x="859.771" y="290.08" transform="matrix(-0.7041 0.7101 -0.7101 -0.7041 1671.3293 -116.0985)" fill="#E9F1F4" width="0.164" height="0.164"/>
		
			<rect x="863.084" y="289.798" transform="matrix(-0.7071 -0.7071 0.7071 -0.7071 1267.5541 1107.5879)" fill="#E9F1F4" width="0.164" height="2.953"/>
		<polygon fill="#E9F1F4" points="864.388,290.181 865.552,289.017 865.32,289.017 864.271,290.064 		"/>
		
			<rect x="860.902" y="292" transform="matrix(-0.7101 -0.7041 0.7041 -0.7101 1265.7124 1108.1018)" fill="#E9F1F4" width="0.164" height="2.953"/>
		<polygon fill="#E9F1F4" points="859.863,294.705 859.748,294.589 859.431,294.904 859.458,295.11 		"/>
		
			<rect x="864.187" y="290.09" transform="matrix(-0.7101 -0.7041 0.7041 -0.7101 1273.6565 1104.7654)" fill="#E9F1F4" width="0.164" height="0.164"/>
		
			<rect x="861.966" y="292.312" transform="matrix(-0.7041 -0.7101 0.7101 -0.7041 1261.407 1110.4004)" fill="#E9F1F4" width="0.164" height="0.164"/>
		
			<rect x="859.758" y="294.458" transform="matrix(0.7101 -0.7041 0.7041 0.7101 41.9044 690.849)" fill="#E9F1F4" width="0.165" height="0.165"/>
		
			<rect x="865.311" y="292.001" transform="matrix(-0.7101 -0.7041 0.7041 -0.7101 1273.2518 1111.208)" fill="#E9F1F4" width="0.164" height="2.953"/>
		
			<rect x="867.477" y="289.816" transform="matrix(-0.7041 -0.7101 0.7101 -0.7041 1271.5804 1112.4354)" fill="#E9F1F4" width="0.164" height="2.953"/>
		
			<rect x="863.069" y="294.224" transform="matrix(-0.7011 -0.713 0.713 -0.7011 1257.499 1118.4752)" fill="#E9F1F4" width="0.164" height="2.953"/>
		<polygon fill="#E9F1F4" points="868.796,290.181 869.96,289.017 869.729,289.017 868.679,290.064 		"/>
		<polygon fill="#E9F1F4" points="859.98,298.997 862.068,296.909 861.952,296.793 859.935,298.81 859.957,298.974 		"/>
		
			<rect x="868.645" y="290.074" transform="matrix(-0.7101 -0.7041 0.7041 -0.7101 1281.2642 1107.8918)" fill="#E9F1F4" width="0.165" height="0.164"/>
		
			<rect x="866.39" y="292.295" transform="matrix(-0.7071 -0.7071 0.7071 -0.7071 1272.418 1111.8066)" fill="#E9F1F4" width="0.164" height="0.164"/>
		
			<rect x="864.237" y="294.483" transform="matrix(-0.7101 -0.7041 0.7041 -0.7101 1270.6219 1112.3262)" fill="#E9F1F4" width="0.165" height="0.164"/>
		
			<rect x="861.982" y="296.703" transform="matrix(-0.7071 -0.7071 0.7071 -0.7071 1261.7765 1116.2152)" fill="#E9F1F4" width="0.163" height="0.164"/>
		<polygon fill="#E9F1F4" points="859.957,298.974 859.962,299.016 859.98,298.997 		"/>
		
			<rect x="869.697" y="292.002" transform="matrix(-0.7071 -0.7071 0.7071 -0.7071 1277.2838 1116.0253)" fill="#E9F1F4" width="0.163" height="2.953"/>
		
			<rect x="871.901" y="289.798" transform="matrix(-0.7071 -0.7071 0.7071 -0.7071 1282.6046 1113.822)" fill="#E9F1F4" width="0.163" height="2.953"/>
		
			<rect x="867.492" y="294.207" transform="matrix(-0.7041 -0.7101 0.7101 -0.7041 1268.4882 1119.9292)" fill="#E9F1F4" width="0.164" height="2.953"/>
		<polygon fill="#E9F1F4" points="873.205,290.181 874.369,289.017 874.136,289.017 873.088,290.064 		"/>
		
			<rect x="865.287" y="296.41" transform="matrix(-0.7071 -0.7071 0.7071 -0.7071 1266.641 1120.4324)" fill="#E9F1F4" width="0.164" height="2.953"/>
		
			<rect x="863.084" y="298.615" transform="matrix(-0.7101 -0.7041 0.7041 -0.7101 1264.7861 1120.9509)" fill="#E9F1F4" width="0.164" height="2.952"/>
		<polygon fill="#E9F1F4" points="862.068,301.317 861.952,301.201 860.439,302.715 860.464,302.92 		"/>
		
			<rect x="873.003" y="290.09" transform="matrix(-0.7041 -0.7101 0.7101 -0.7041 1281.7925 1114.4504)" fill="#E9F1F4" width="0.164" height="0.164"/>
		
			<rect x="870.799" y="292.295" transform="matrix(-0.7071 -0.7071 0.7071 -0.7071 1279.9448 1114.9244)" fill="#E9F1F4" width="0.164" height="0.164"/>
		
			<rect x="868.594" y="294.499" transform="matrix(-0.7071 -0.7071 0.7071 -0.7071 1274.6221 1117.1278)" fill="#E9F1F4" width="0.164" height="0.164"/>
		
			<rect x="866.412" y="296.701" transform="matrix(-0.713 -0.7011 0.7011 -0.713 1276.2391 1115.9307)" fill="#E9F1F4" width="0.164" height="0.165"/>
		
			<rect x="864.185" y="298.908" transform="matrix(-0.7042 -0.71 0.71 -0.7042 1260.5636 1123.1887)" fill="#E9F1F4" width="0.166" height="0.164"/>
		
			<rect x="861.966" y="301.128" transform="matrix(-0.7011 -0.713 0.713 -0.7011 1251.6952 1127.0612)" fill="#E9F1F4" width="0.164" height="0.164"/>
		
			<rect x="865.288" y="300.819" transform="matrix(-0.7041 -0.7101 0.7101 -0.7041 1260.0369 1129.6321)" fill="#E9F1F4" width="0.164" height="2.953"/>
		<polygon fill="#E9F1F4" points="860.943,306.619 860.968,306.825 862.068,305.726 861.952,305.609 		"/>
		
			<rect x="861.666" y="304.389" transform="matrix(-0.7071 0.7071 -0.7071 -0.7071 1688.7698 -90.57)" fill="#E9F1F4" width="2.953" height="0.163"/>
		
			<rect x="872.743" y="293.442" transform="matrix(0.7069 -0.7073 0.7073 0.7069 48.5966 704.3305)" fill="#E9F1F4" width="2.952" height="0.163"/>
		
			<rect x="874.905" y="291.156" transform="matrix(0.7073 -0.7069 0.7069 0.7073 50.6533 704.804)" fill="#E9F1F4" width="2.953" height="0.164"/>
		
			<rect x="867.493" y="298.615" transform="matrix(-0.7071 -0.7071 0.7071 -0.7071 1268.8448 1125.7563)" fill="#E9F1F4" width="0.163" height="2.953"/>
		
			<rect x="871.9" y="294.207" transform="matrix(-0.7071 -0.7071 0.7071 -0.7071 1279.4868 1121.3469)" fill="#E9F1F4" width="0.164" height="2.953"/>
		
			<rect x="869.681" y="296.427" transform="matrix(-0.7041 -0.7101 0.7101 -0.7041 1270.6406 1125.2676)" fill="#E9F1F4" width="0.164" height="2.954"/>
		<polygon fill="#E9F1F4" points="877.613,290.181 878.412,289.383 878.445,289.116 877.497,290.064 		"/>
		
			<rect x="877.41" y="290.09" transform="matrix(-0.7071 -0.7071 0.7071 -0.7071 1292.7903 1115.835)" fill="#E9F1F4" width="0.164" height="0.164"/>
		
			<rect x="875.219" y="292.298" transform="matrix(0.7071 -0.7071 0.7071 0.7071 49.6254 704.567)" fill="#E9F1F4" width="0.163" height="0.164"/>
		
			<rect x="873.002" y="294.499" transform="matrix(-0.7071 -0.7071 0.7071 -0.7071 1282.1477 1120.2441)" fill="#E9F1F4" width="0.164" height="0.164"/>
		
			<rect x="870.822" y="296.701" transform="matrix(-0.7101 -0.7041 0.7041 -0.7101 1280.3497 1120.7419)" fill="#E9F1F4" width="0.164" height="0.163"/>
		
			<rect x="868.593" y="298.908" transform="matrix(-0.7071 -0.7071 0.7071 -0.7071 1271.5055 1124.6543)" fill="#E9F1F4" width="0.166" height="0.164"/>
		
			<rect x="866.413" y="301.109" transform="matrix(-0.713 -0.7011 0.7011 -0.713 1273.1497 1123.4816)" fill="#E9F1F4" width="0.164" height="0.164"/>
		
			<rect x="864.182" y="303.327" transform="matrix(-0.7071 0.7071 -0.7071 -0.7071 1689.9331 -93.1749)" fill="#E9F1F4" width="0.164" height="0.164"/>
		
			<rect x="861.995" y="305.548" transform="matrix(-0.7101 0.7041 -0.7041 -0.7101 1689.4224 -84.3509)" fill="#E9F1F4" width="0.164" height="0.164"/>
		<polygon fill="#E9F1F4" points="877.759,294.442 877.792,294.176 877.497,294.473 877.613,294.588 		"/>
		<polygon fill="#E9F1F4" points="861.952,310.018 861.445,310.523 861.472,310.729 862.068,310.134 		"/>
		
			<rect x="866.074" y="304.389" transform="matrix(-0.7068 0.7074 -0.7074 -0.7068 1696.1095 -94.073)" fill="#E9F1F4" width="2.953" height="0.164"/>
		
			<rect x="872.722" y="297.809" transform="matrix(0.7073 -0.7069 0.7069 0.7073 45.3108 705.2084)" fill="#E9F1F4" width="2.953" height="0.164"/>
		
			<rect x="869.681" y="300.835" transform="matrix(-0.7041 -0.7101 0.7101 -0.7041 1267.5105 1132.7795)" fill="#E9F1F4" width="0.164" height="2.954"/>
		
			<rect x="871.9" y="298.615" transform="matrix(-0.7071 -0.7071 0.7071 -0.7071 1276.3696 1128.8723)" fill="#E9F1F4" width="0.164" height="2.953"/>
		
			<rect x="863.069" y="307.448" transform="matrix(-0.7041 -0.7101 0.7101 -0.7041 1251.5476 1139.3536)" fill="#E9F1F4" width="0.164" height="2.953"/>
		
			<rect x="874.925" y="295.604" transform="matrix(0.7071 -0.7071 0.7071 0.7071 47.6104 706.3146)" fill="#E9F1F4" width="2.954" height="0.164"/>
		
			<rect x="863.909" y="306.674" transform="matrix(-0.7073 0.7069 -0.7069 -0.7073 1694.3073 -88.0592)" fill="#E9F1F4" width="2.953" height="0.166"/>
		
			<rect x="877.423" y="294.502" transform="matrix(0.7071 -0.7071 0.7071 0.7071 48.7128 706.771)" fill="#E9F1F4" width="0.163" height="0.164"/>
		
			<rect x="875.22" y="296.731" transform="matrix(0.7041 -0.7101 0.7101 0.7041 48.225 709.3601)" fill="#E9F1F4" width="0.164" height="0.164"/>
		
			<rect x="873.002" y="298.907" transform="matrix(-0.7101 -0.7041 0.7041 -0.7101 1282.5239 1126.0492)" fill="#E9F1F4" width="0.164" height="0.164"/>
		
			<rect x="870.783" y="301.128" transform="matrix(-0.7041 -0.7101 0.7101 -0.7041 1270.171 1131.6841)" fill="#E9F1F4" width="0.164" height="0.164"/>
		
			<rect x="868.587" y="303.304" transform="matrix(-0.7041 0.7101 -0.7101 -0.7041 1695.7432 -99.8223)" fill="#E9F1F4" width="0.164" height="0.164"/>
		
			<rect x="866.403" y="305.548" transform="matrix(-0.7101 0.7041 -0.7041 -0.7101 1696.9607 -87.4548)" fill="#E9F1F4" width="0.164" height="0.164"/>
		
			<rect x="864.18" y="307.713" transform="matrix(-0.7071 0.7071 -0.7071 -0.7071 1693.0305 -85.6873)" fill="#E9F1F4" width="0.164" height="0.164"/>
		
			<rect x="861.995" y="309.956" transform="matrix(-0.7101 0.7041 -0.7041 -0.7101 1692.5261 -76.8125)" fill="#E9F1F4" width="0.164" height="0.164"/>
		
			<rect x="872.722" y="302.218" transform="matrix(0.7069 -0.7073 0.7073 0.7069 42.3832 706.8879)" fill="#E9F1F4" width="2.953" height="0.164"/>
		
			<rect x="863.871" y="311.001" transform="matrix(-0.7069 0.7073 -0.7073 -0.7069 1697.1165 -81.0351)" fill="#E9F1F4" width="2.952" height="0.164"/>
		
			<rect x="870.483" y="304.389" transform="matrix(-0.7069 0.7073 -0.7073 -0.7069 1703.7273 -96.999)" fill="#E9F1F4" width="2.953" height="0.164"/>
		<polygon fill="#E9F1F4" points="877.107,299.504 877.14,299.237 875.292,301.086 875.41,301.201 		"/>
		
			<rect x="868.298" y="306.634" transform="matrix(-0.7071 0.7071 -0.7071 -0.7071 1701.6799 -91.4282)" fill="#E9F1F4" width="2.954" height="0.164"/>
		
			<rect x="866.075" y="308.797" transform="matrix(-0.7069 0.7073 -0.7073 -0.7069 1699.3198 -86.3563)" fill="#E9F1F4" width="2.952" height="0.164"/>
		<polygon fill="#E9F1F4" points="864.156,312.223 862.425,313.953 862.657,313.953 864.271,312.338 		"/>
		
			<rect x="875.187" y="301.072" transform="matrix(0.7101 -0.7041 0.7041 0.7101 41.7217 703.6307)" fill="#E9F1F4" width="0.165" height="0.164"/>
		
			<rect x="873.011" y="303.331" transform="matrix(0.7101 0.7041 -0.7041 0.7101 466.7622 -526.7949)" fill="#E9F1F4" width="0.164" height="0.164"/>
		
			<rect x="870.795" y="305.532" transform="matrix(-0.7071 0.7071 -0.7071 -0.7071 1702.7808 -94.0873)" fill="#E9F1F4" width="0.163" height="0.164"/>
		
			<rect x="868.606" y="307.752" transform="matrix(-0.713 0.7011 -0.7011 -0.713 1703.9182 -81.7462)" fill="#E9F1F4" width="0.164" height="0.164"/>
		
			<rect x="866.403" y="309.956" transform="matrix(-0.7101 0.7041 -0.7041 -0.7101 1700.0646 -79.9164)" fill="#E9F1F4" width="0.164" height="0.164"/>
		
			<rect x="864.171" y="312.15" transform="matrix(0.713 0.7011 -0.7011 0.713 466.9385 -516.3594)" fill="#E9F1F4" width="0.164" height="0.164"/>
		
			<rect x="874.089" y="305.245" transform="matrix(0.7101 0.7041 -0.7041 0.7101 469.4037 -526.5952)" fill="#E9F1F4" width="0.164" height="2.953"/>
		
			<rect x="868.317" y="311.082" transform="matrix(-0.7074 0.7068 -0.7068 -0.7074 1705.0413 -83.4559)" fill="#E9F1F4" width="2.953" height="0.164"/>
		
			<rect x="870.483" y="308.797" transform="matrix(-0.7069 0.7073 -0.7073 -0.7069 1706.8451 -89.4745)" fill="#E9F1F4" width="2.953" height="0.164"/>
		<polygon fill="#E9F1F4" points="875.292,305.494 875.408,305.609 876.455,304.564 876.488,304.298 		"/>
		<polygon fill="#E9F1F4" points="868.564,312.222 866.833,313.953 867.065,313.953 868.68,312.338 		"/>
		
			<rect x="875.203" y="305.532" transform="matrix(-0.7071 0.7071 -0.7071 -0.7071 1710.3059 -97.2044)" fill="#E9F1F4" width="0.163" height="0.164"/>
		
			<rect x="873.01" y="307.74" transform="matrix(0.7041 0.7101 -0.7101 0.7041 476.9127 -528.8891)" fill="#E9F1F4" width="0.164" height="0.164"/>
		
			<rect x="870.795" y="309.94" transform="matrix(-0.7071 0.7071 -0.7071 -0.7071 1705.8977 -86.5621)" fill="#E9F1F4" width="0.163" height="0.164"/>
		
			<rect x="868.595" y="312.131" transform="matrix(-0.7101 -0.7041 0.7041 -0.7101 1265.6754 1145.5612)" fill="#E9F1F4" width="0.164" height="0.164"/>
		
			<rect x="874.112" y="309.652" transform="matrix(0.7041 0.7101 -0.7101 0.7041 479.5866 -528.6938)" fill="#E9F1F4" width="0.164" height="2.953"/>
		<polygon fill="#E9F1F4" points="872.972,312.222 871.241,313.953 871.472,313.953 873.088,312.338 		"/>
		<polygon fill="#E9F1F4" points="875.292,309.902 875.408,310.018 875.802,309.625 875.835,309.358 		"/>
		
			<rect x="875.219" y="309.955" transform="matrix(0.7011 -0.713 0.713 0.7011 40.5287 716.7682)" fill="#E9F1F4" width="0.164" height="0.164"/>
		
			<rect x="873.003" y="312.131" transform="matrix(-0.7071 -0.7071 0.7071 -0.7071 1269.6814 1150.345)" fill="#E9F1F4" width="0.164" height="0.164"/>
	</g>
	<g>
		<g>
			<path fill="#326600" d="M942.838,236.377c2.526,15.508,4.623,37.179,2.932,37.623c-1.693,0.445-6.537-20.505-9.062-36.013
				c-2.525-15.507-1.777-19.7-0.084-20.146C938.316,217.398,940.312,220.869,942.838,236.377z"/>
			<path fill="#326600" d="M950.976,232.493c-1.591,18.171-5.172,42.904-6.893,42.614c-1.721-0.289-0.929-25.492,0.662-43.663
				c1.591-18.17,3.379-22.426,5.1-22.138C951.565,209.599,952.566,214.323,950.976,232.493z"/>
			<path fill="#3A7C00" d="M948.144,225.74c0,20.168-1.793,47.881-4.005,47.881s-4.005-27.713-4.005-47.881
				c0-20.166,1.793-25.15,4.005-25.15S948.144,205.574,948.144,225.74z"/>
		</g>
		<path fill="#CFE5E5" d="M928.255,312.262c0,1.491,1.21,2.701,2.702,2.701h27.919c1.492,0,2.701-1.21,2.701-2.701v-46.665h-33.322
			V312.262z"/>
		
			<path fill="none" stroke="#798C8C" stroke-width="2.0493" stroke-linecap="round" stroke-linejoin="round" stroke-miterlimit="10" d="
			M949.015,270.019v5.979c0,1.035-0.84,1.875-1.876,1.875h-11.413c-1.034,0-1.875-0.84-1.875-1.875v-5.979"/>
		<g>
			<path fill="#FFFFFF" d="M959.751,267.947c0-0.511-0.414-0.923-0.926-0.923l0,0c-0.511,0-0.927,0.412-0.927,0.923v41.611
				c0,0.51,0.416,0.924,0.927,0.924l0,0c0.512,0,0.926-0.414,0.926-0.924V267.947z"/>
			<circle fill="#FFFFFF" cx="958.832" cy="312.25" r="0.932"/>
		</g>
	</g>
	<g>
		<g>
			<rect x="292.872" y="50.195" fill="#383F42" width="0.499" height="36.261"/>
			<g>
				<polygon fill="#FFFFFF" points="294.763,98.59 288.197,98.59 290.853,85.459 294.763,85.459 				"/>
				<polygon fill="#FFFFFF" points="291.48,98.59 298.045,98.59 295.389,85.459 291.48,85.459 				"/>
			</g>
			<path fill="#383F42" d="M290.877,85.459c0-1.24,1.005-2.244,2.244-2.244c1.239,0,2.244,1.004,2.244,2.244"/>
		</g>
		<g>
			<rect x="413.089" y="50.195" fill="#383F42" width="0.499" height="36.261"/>
			<g>
				<polygon fill="#FFFFFF" points="414.979,98.59 408.414,98.59 411.07,85.459 414.979,85.459 				"/>
				<polygon fill="#FFFFFF" points="411.697,98.59 418.262,98.59 415.606,85.459 411.697,85.459 				"/>
			</g>
			<path fill="#383F42" d="M411.094,85.459c0-1.24,1.005-2.244,2.244-2.244c1.239,0,2.244,1.004,2.244,2.244"/>
		</g>
		<g>
			<rect x="533.305" y="50.195" fill="#383F42" width="0.499" height="36.261"/>
			<g>
				<polygon fill="#FFFFFF" points="535.196,98.59 528.63,98.59 531.287,85.459 535.196,85.459 				"/>
				<polygon fill="#FFFFFF" points="531.914,98.59 538.479,98.59 535.823,85.459 531.914,85.459 				"/>
			</g>
			<path fill="#383F42" d="M531.31,85.459c0-1.24,1.006-2.244,2.244-2.244s2.244,1.004,2.244,2.244"/>
		</g>
		<g>
			<rect x="653.523" y="50.195" fill="#383F42" width="0.498" height="36.261"/>
			<g>
				<polygon fill="#FFFFFF" points="655.414,98.59 648.847,98.59 651.503,85.459 655.414,85.459 				"/>
				<polygon fill="#FFFFFF" points="652.13,98.59 658.695,98.59 656.041,85.459 652.13,85.459 				"/>
			</g>
			<path fill="#383F42" d="M651.527,85.459c0-1.24,1.006-2.244,2.244-2.244s2.243,1.004,2.243,2.244"/>
		</g>
		<g>
			<rect x="773.738" y="50.195" fill="#383F42" width="0.5" height="36.261"/>
			<g>
				<polygon fill="#FFFFFF" points="775.628,98.59 769.064,98.59 771.72,85.459 775.628,85.459 				"/>
				<polygon fill="#FFFFFF" points="772.346,98.59 778.912,98.59 776.255,85.459 772.346,85.459 				"/>
			</g>
			<path fill="#383F42" d="M771.744,85.459c0-1.24,1.004-2.244,2.244-2.244c1.237,0,2.244,1.004,2.244,2.244"/>
		</g>
	</g>
	<g>
		<rect x="153.234" y="113.291" fill="#55A1BF" width="57.554" height="37.174"/>
		<rect x="153.234" y="153.857" fill="#55A1BF" width="57.554" height="96.297"/>
		<rect x="214.179" y="113.291" fill="#55A1BF" width="57.554" height="37.174"/>
		<rect x="214.179" y="153.857" fill="#55A1BF" width="57.554" height="96.297"/>
		<rect x="210.788" y="113.291" fill="#FFFFFF" width="3.391" height="37.174"/>
		<rect x="210.788" y="153.857" fill="#FFFFFF" width="3.391" height="96.297"/>
		<rect x="153.234" y="150.465" fill="#FFFFFF" width="57.554" height="3.394"/>
		<rect x="214.179" y="150.465" fill="#FFFFFF" width="57.554" height="3.394"/>
		<rect x="210.788" y="150.465" fill="#FFFFFF" width="3.391" height="3.394"/>
		<rect x="147.531" y="249.862" fill="#FFFFFF" width="129.904" height="3.025"/>
	</g>
	<g>
		<rect x="362.523" y="165.65" fill="#515151" width="100.967" height="60.172"/>
		<rect x="364.818" y="167.828" fill="#353535" width="95.697" height="55.815"/>
		<g>
			<rect x="407.737" y="224.973" fill="#515151" width="14.108" height="8.499"/>
			<rect x="400.938" y="233.472" fill="#515151" width="26.856" height="1.7"/>
		</g>
	</g>
	<g>
		<polygon fill="#EFEFEF" points="638.942,230.244 626.142,230.244 629.662,203.205 638.942,203.205 		"/>
		<polygon fill="#EFEFEF" points="633.438,230.244 646.236,230.244 642.716,203.205 633.438,203.205 		"/>
		<path fill="#EFEFEF" d="M648.479,231.844c0,0.884-0.718,1.601-1.602,1.601h-21.278c-0.884,0-1.6-0.717-1.6-1.601l0,0
			c0-0.883,0.716-1.6,1.6-1.6h21.278C647.761,230.244,648.479,230.961,648.479,231.844L648.479,231.844z"/>
		<polygon fill="#EFEFEF" points="632.542,203.205 626.41,203.205 631.421,208.219 		"/>
		<path fill="#EFEFEF" d="M647.105,217.281l-0.97-1.273c4.455-3.392,3.882-9.305,3.562-11.202h-9.21v-1.601h10.487l0.153,0.604
			C651.22,204.166,653.269,212.588,647.105,217.281z"/>
	</g>
	<g>
		<path fill="#EFEFEF" d="M614.863,233.184l2.483-15.86l-1.852-0.291l-2.166,10.984l-4.9-0.769c0.121-0.771,0.257-1.637,0.406-2.595
			l1.362,0.214l0.853-5.445l-1.36-0.213c0.072-0.466,0.146-0.942,0.225-1.43c1.016-6.492-2.922-9.332-4.68-10.258l-4.021,25.684
			L614.863,233.184z"/>
		<path fill="#999999" d="M600.355,233.16l0.014-0.004l-0.021,0.05l0.865-0.001l4.021-25.684c-0.486-0.258-0.808-0.367-0.808-0.367
			L600.355,233.16z"/>
	</g>
	<g>
		<polygon fill="#9E8856" points="256.275,266.168 252.849,267.447 245.075,246.621 248.501,247.213 		"/>
		<polygon fill="#9E8856" points="305.232,266.168 308.659,267.447 316.433,246.621 313.006,247.213 		"/>
		<rect x="250.895" y="262.238" fill="#C1AF81" width="59.572" height="52.273"/>
		<g opacity="0.7">
			<rect x="300.135" y="266.667" fill="#282828" width="0.854" height="5.302"/>
			<polygon fill="#282828" points="301.57,266.797 299.553,266.797 300.562,265.451 300.562,265.451 			"/>
			<rect x="302.798" y="266.667" fill="#282828" width="0.854" height="5.302"/>
			<polygon fill="#282828" points="304.234,266.797 302.217,266.797 303.226,265.451 303.226,265.451 			"/>
			<rect x="299.553" y="272.486" fill="#282828" width="4.681" height="0.725"/>
		</g>
	</g>
	<g>
		<g>
			<rect x="500.101" y="199.804" fill="#474747" width="19.826" height="33.397"/>
			<g>
				<circle fill="#8C8C8C" cx="509.451" cy="221.059" r="7.789"/>
				<circle fill="#FFFFFF" cx="509.451" cy="221.059" r="2.184"/>
			</g>
			<circle fill="#FFFFFF" cx="504.669" cy="205.602" r="2.184"/>
		</g>
		<g>
			<rect x="551.791" y="199.804" fill="#474747" width="19.824" height="33.397"/>
			<g>
				<circle fill="#8C8C8C" cx="562.266" cy="221.059" r="7.789"/>
				<circle fill="#FFFFFF" cx="562.266" cy="221.059" r="2.183"/>
			</g>
			<circle fill="#FFFFFF" cx="567.047" cy="205.602" r="2.183"/>
		</g>
		<rect x="521.816" y="199.804" fill="#474747" width="27.968" height="33.397"/>
		<rect x="525.828" y="221.059" fill="#8C8C8C" width="19.531" height="8.188"/>
		<rect x="528.837" y="222.815" fill="#A0BAB9" width="13.807" height="3.48"/>
		
			<line fill="none" stroke="#474747" stroke-width="0.4099" stroke-miterlimit="10" x1="535.593" y1="216.502" x2="535.593" y2="231.076"/>
		<rect x="525.828" y="210.896" fill="#A0BAB9" width="19.531" height="6.668"/>
		<circle fill="#8C8C8C" cx="541.287" cy="205.837" r="2.419"/>
		<rect x="526.536" y="205.114" fill="#8C8C8C" width="10.798" height="1.712"/>
	</g>
	<g>
		<rect x="872.553" y="230.377" display="none" fill="#202E42" width="7.755" height="9.932"/>
		<rect x="844.802" y="230.377" display="none" fill="#202E42" width="7.754" height="9.932"/>
		<g>
			
				<rect x="879.42" y="234.054" transform="matrix(0.9767 0.2145 -0.2145 0.9767 74.0788 -183.1055)" fill="#5E5E5E" width="2.258" height="31.303"/>
			<path fill="#B75F0F" d="M882.377,256.145c-0.399,1.713-2.112,2.779-3.824,2.379l0,0c-1.715-0.398-2.779-2.113-2.38-3.826
				l13.573-58.164c0.399-1.713,2.111-2.777,3.826-2.378l0,0c1.713,0.399,2.776,2.113,2.378,3.825L882.377,256.145z"/>
		</g>
		<g>
			<g>
				<rect x="850.343" y="290.328" fill="#5E5E5E" width="5.999" height="15.762"/>
				<rect x="852.213" y="262.152" fill="#5E5E5E" width="2.26" height="31.303"/>
				<g>
					
						<rect x="861.087" y="297.678" transform="matrix(0.2707 -0.9627 0.9627 0.2707 332.4853 1054.0099)" fill="#5E5E5E" width="1.656" height="19.757"/>
					
						<rect x="843.963" y="297.677" transform="matrix(-0.2718 -0.9623 0.9623 -0.2718 778.4631 1204.1415)" fill="#5E5E5E" width="1.656" height="19.759"/>
					<circle fill="#5E5E5E" cx="835.489" cy="311.924" r="2.5"/>
					<circle fill="#5E5E5E" cx="871.197" cy="311.924" r="2.5"/>
				</g>
				<rect x="852.428" y="304.611" fill="#5E5E5E" width="1.831" height="6.42"/>
				<rect x="851.4" y="309.438" fill="#5E5E5E" width="3.884" height="4.986"/>
			</g>
			<path fill="#D39822" d="M879.861,265.238c0,1.979-1.605,3.582-3.586,3.582h-45.868c-1.978,0-3.582-1.604-3.582-3.582l0,0
				c0-1.982,1.604-3.584,3.582-3.584h45.868C878.256,261.654,879.861,263.256,879.861,265.238L879.861,265.238z"/>
		</g>
		<g display="none">
			<g display="inline">
				<path fill="#2C313A" d="M802.512,313.178c0.638-1.9,1.24-2.113,5.354-2.312l2.998-0.955c1.681-0.414,3.158-1.34,4.259-2.604
					c0.247-0.287,0.474-0.59,0.681-0.906c1.898,0.139,1.626,1.865,1.626,1.865h5.351v0.723v1.006v1.008v2.176v0.957v0.572h-5.891
					v-0.572v-0.953l-2.615,1.525h-12.013C802.262,314.172,802.351,313.658,802.512,313.178z"/>
				<rect x="813.846" y="256.92" fill="#202E42" width="8.935" height="51.643"/>
			</g>
			<path display="inline" fill="#1F2328" d="M813.937,313.178c0.639-1.9,1.24-2.113,5.355-2.312l2.997-0.955
				c1.681-0.414,3.159-1.34,4.26-2.604c0.246-0.287,0.474-0.59,0.68-0.906c1.898,0.139,1.627,1.865,1.627,1.865h5.35v0.723v1.006
				v1.008v2.176v0.957v0.572h-5.89v-0.572v-0.953l-2.616,1.525h-12.013C813.687,314.172,813.775,313.658,813.937,313.178z"/>
			<rect x="825.271" y="256.92" display="inline" fill="#202E42" width="8.935" height="51.643"/>
			<rect x="813.846" y="252.973" display="inline" fill="#202E42" width="50.851" height="8.932"/>
			<path display="inline" fill="#202E42" d="M850.306,253.639c0,4.566,3.702,8.266,8.268,8.266h6.257
				c4.567,0,8.268-3.699,8.268-8.266v-6.258c0-4.567-3.7-8.268-8.268-8.268h-6.257c-4.565,0-8.268,3.7-8.268,8.268V253.639z"/>
		</g>
		<g display="none">
			<path display="inline" fill="#F9B69B" d="M834.927,237.523L834.927,237.523h-2.389l0,0v6.902h-3.279h-4.326
				c-0.002,0-0.004,0-0.007,0s-0.005,0-0.008,0h-0.334v-0.033c-1.743-0.174-3.111-1.629-3.111-3.418
				c0-1.791,1.368-3.246,3.111-3.418v-0.033h0.334c0.003,0,0.005-0.002,0.008-0.002s0.005,0.002,0.007,0.002h3.542
				c-0.003-0.035-0.011-0.066-0.011-0.102c0-0.679,0.551-1.229,1.229-1.229s1.23,0.551,1.23,1.229c0,0.035-0.007,0.066-0.011,0.102
				h3.022H834.927z"/>
			<rect x="832.538" y="237.523" display="inline" fill="#FFFFFF" width="0" height="6.902"/>
			<polygon display="inline" fill="#FFFFFF" points="834.927,244.426 834.927,244.426 832.538,244.426 832.538,244.426 
				832.538,244.426 832.538,244.426 			"/>
			<polygon display="inline" fill="#FFFFFF" points="834.927,244.426 834.927,244.426 832.538,244.426 832.538,244.426 
				833.936,244.426 			"/>
			<polygon display="inline" opacity="0.3" fill="#84A8C1" points="834.927,244.426 834.927,244.426 832.538,244.426 
				832.538,244.426 833.936,244.426 			"/>
			<polygon display="inline" fill="#FFFFFF" points="834.927,243.398 834.927,244.426 833.936,244.426 832.538,244.426 
				832.538,237.523 834.927,237.523 			"/>
			<rect x="834.089" y="235.778" display="inline" fill="#202E42" width="32.478" height="9.062"/>
		</g>
		<g display="none">
			<path display="inline" fill="#F9B69B" d="M854.28,178.5l0.177-0.221h12.657v27.002l0,0v10.191h-9.658v-10.191l0,0v-0.01
				c0-2.116,0-2.116,0-2.646c0-1.234-1.41-1.41-1.41-1.41h-2.956V189.57h-3.75L854.28,178.5z"/>
			<circle display="inline" fill="#2E3D49" cx="856.1" cy="182.68" r="0.519"/>
			<path display="inline" fill="#CE857C" d="M854.856,192.502c0.198,0,0.36-0.161,0.36-0.359h0.529c0,0.488-0.398,0.888-0.89,0.888
				h-1.767v-0.528H854.856z"/>
			<path display="inline" fill="none" d="M860.685,183.352c0,0.014-0.004,0.025-0.004,0.038v-0.038H860.685z"/>
			<g display="inline">
				<rect x="850.37" y="248.195" fill="#9B390D" width="22.759" height="2.008"/>
				<polygon fill="#202E42" points="852.607,250.203 852.607,248.195 853.627,248.195 853.627,250.203 867.245,250.203 
					867.245,248.195 868.267,248.195 868.267,250.203 873.129,250.203 873.129,252.973 850.37,252.973 850.37,250.203 				"/>
			</g>
			<polygon display="inline" fill="#FFFFFF" points="857.456,205.281 857.463,202.801 859.636,202.801 861.497,202.801 
				863.531,202.801 865.324,202.801 867.114,202.801 867.114,205.281 867.158,205.281 867.158,248.195 857.447,248.195 
				857.447,205.281 			"/>
			<path display="inline" opacity="0.3" fill="#84A8C1" d="M859.319,224.687c0,0.751-0.608,1.358-1.358,1.358h-5.318
				c-0.75,0-1.358-0.607-1.358-1.358v-7.095h8.035V224.687z"/>
			<polygon display="inline" fill="#BF2E2E" points="859.85,205.49 861.946,202.801 864.042,205.49 862.893,206.641 
				863.875,241.223 863.875,241.223 861.95,243.148 860.025,241.223 860.019,241.223 861,206.641 			"/>
			<path display="inline" fill="#303235" d="M853.265,172.428c1.509,0,2.733,1.223,2.733,2.733c0,0.177-0.021,0.349-0.054,0.517
				h11.805v15.129c0,0,0,0-1.367,0c-4.146,0-3.925-3.926-3.925-3.926v-1.719c0.04,0.004,0.077,0.013,0.117,0.013
				c0.962,0,1.741-0.78,1.741-1.741c0-0.963-0.779-1.742-1.741-1.742c-0.494,0-0.937,0.207-1.256,0.537v1.124v1.286v0.536h-1.856
				v-4.47c-0.631,0-1.562,0-2.96,0c-3.838,0-5.297-3.139-5.741-4.453c-0.146-0.334-0.229-0.703-0.229-1.091
				C850.531,173.65,851.755,172.428,853.265,172.428z"/>
			<polygon display="inline" fill="#344E68" points="855.487,205.27 854.792,207.729 856,209.264 854.424,210.839 857.447,233.025 
				857.447,211.103 857.447,208.996 857.447,205.27 			"/>
			<g display="inline">
				<path fill="#202E42" d="M869.073,205.27h5.538c3.146,0,5.696,2.549,5.696,5.694v0.013v4.161v0.012v16.524h-7.179v0.014v16.508
					v4.777h-0.564h-5.406v-4.777v-42.914v-0.012H869.073z"/>
				<path fill="#202E42" d="M850.493,205.281h5.539h1.415v42.914v4.777h-5.404h-1.673v-4.777v-16.521h-5.568v-6.706v-5.927v-8.064
					C844.802,207.831,847.35,205.281,850.493,205.281z"/>
				<polygon fill="#344E68" points="869.073,205.27 869.771,207.729 868.562,209.264 870.138,210.839 867.114,233.025 
					867.114,211.103 867.114,208.996 867.114,205.27 				"/>
				<polygon fill="#344E68" points="855.487,205.27 854.792,207.729 856,209.264 854.424,210.839 857.447,233.025 857.447,211.103 
					857.447,208.996 857.447,205.27 				"/>
			</g>
		</g>
		<g display="none">
			<path display="inline" fill="#F9B69B" d="M856.617,235.737L856.617,235.737l-2.388,0.001h-0.001v6.902h-3.278h-4.326
				c-0.004,0-0.005,0-0.009,0c-0.003,0-0.005,0-0.007,0h-0.335v-0.034c-1.743-0.174-3.11-1.628-3.11-3.418s1.367-3.244,3.11-3.417
				v-0.034h0.335c0.002,0,0.004-0.001,0.007-0.001c0.004,0,0.005,0.001,0.009,0.001h3.543c-0.005-0.034-0.012-0.064-0.012-0.101
				c0-0.678,0.55-1.229,1.228-1.229c0.681,0,1.231,0.552,1.231,1.229c0,0.036-0.007,0.066-0.01,0.101h3.021H856.617z"/>
			<rect x="854.229" y="235.738" display="inline" fill="#FFFFFF" width="0.001" height="6.902"/>
			<polygon display="inline" fill="#FFFFFF" points="856.617,242.641 856.617,242.642 854.229,242.642 854.229,242.641 
				854.229,242.641 854.229,242.641 			"/>
			<polygon display="inline" fill="#FFFFFF" points="856.617,242.641 856.617,242.641 854.229,242.641 854.229,242.641 
				855.626,242.641 			"/>
			<polygon display="inline" opacity="0.3" fill="#84A8C1" points="856.617,242.641 856.617,242.641 854.229,242.641 
				854.229,242.641 855.626,242.641 			"/>
			<polygon display="inline" fill="#FFFFFF" points="856.617,241.613 856.617,242.641 855.626,242.641 854.229,242.641 
				854.229,235.738 856.617,235.738 			"/>
			<rect x="855.779" y="235.619" display="inline" fill="#202E42" width="24.528" height="9.061"/>
		</g>
	</g>
</g>
</svg>
