<?xml version="1.0" encoding="utf-8"?>
<!-- Generator: Adobe Illustrator 16.0.0, SVG Export Plug-In . SVG Version: 6.00 Build 0)  -->
<!DOCTYPE svg PUBLIC "-//W3C//DTD SVG 1.1//EN" "http://www.w3.org/Graphics/SVG/1.1/DTD/svg11.dtd">
<svg version="1.1" id="Layer_1" xmlns="http://www.w3.org/2000/svg" xmlns:xlink="http://www.w3.org/1999/xlink" x="0px" y="0px"
	 width="1054.598px" height="315.707px" viewBox="0 0 1054.598 315.707" enable-background="new 0 0 1054.598 315.707"
	 xml:space="preserve">
<rect x="41.878" y="50.939" fill="#BFCED6" width="970.211" height="264.768"/>
<g>
	<rect x="721.304" y="236.338" fill="#BAA665" width="79.998" height="78.625"/>
	<rect x="718.055" y="233.201" fill="#BAA665" width="86.497" height="3.137"/>
	<rect x="721.304" y="236.338" fill="#9B8957" width="79.998" height="3.137"/>
	<g>
		<rect x="760.05" y="224.971" fill="#FFFFFF" width="25.924" height="6.916"/>
		<path fill="#0D6BB2" d="M760.708,226.563c0.003-0.037,0.014-0.071,0.018-0.107h-4.21v6.745h31.265v-2.859l-25.053-1.502
			C761.542,228.769,760.638,227.75,760.708,226.563z"/>
	</g>
	<path fill="#FFFFFF" d="M796.376,232.544c0,0.362-0.295,0.657-0.658,0.657h-19.484c-0.364,0-0.658-0.295-0.658-0.657l0,0
		c0-0.363,0.294-0.657,0.658-0.657h19.484C796.082,231.887,796.376,232.181,796.376,232.544L796.376,232.544z"/>
	<g>
		<g>
			<path fill="#FFFFFF" d="M743.757,193.039c-1.416,0.096-2.486,1.32-2.391,2.736l1.984,29.415c0.096,1.416,1.32,2.486,2.736,2.391
				l0.568-0.038L744.326,193L743.757,193.039z"/>
			
				<rect x="745.49" y="192.947" transform="matrix(0.9978 -0.0665 0.0665 0.9978 -12.3345 50.0686)" fill="#262626" width="0.411" height="34.621"/>
		</g>
		<path fill="none" stroke="#FFFFFF" stroke-width="0.6148" stroke-miterlimit="10" d="M743.349,211.082l-8.033,15.611l-0.002-0.001
			c-0.08,0.144-0.151,0.292-0.214,0.444c-0.199,0.487-0.31,1.021-0.31,1.582c0,2.307,1.869,4.176,4.176,4.176h9.762"/>
	</g>
</g>
<g>
	<rect x="345.354" y="236.338" fill="#BAA665" width="327.593" height="78.625"/>
	<rect x="342.104" y="233.201" fill="#BAA665" width="334.092" height="3.137"/>
	<rect x="345.354" y="236.338" fill="#9B8957" width="327.593" height="3.137"/>
	<path fill="#FFFFFF" d="M668.021,232.544c0,0.362-0.295,0.657-0.658,0.657h-19.485c-0.364,0-0.657-0.295-0.657-0.657l0,0
		c0-0.363,0.293-0.657,0.657-0.657h19.485C667.726,231.887,668.021,232.181,668.021,232.544L668.021,232.544z"/>
</g>
<g opacity="0.6">
	<polygon fill="none" points="877.38,298.998 877.196,298.812 877.14,299.237 	"/>
	
		<rect x="869.408" y="297.521" transform="matrix(0.7071 0.7071 -0.7071 0.7071 466.4993 -528.2338)" fill="#869392" width="2.953" height="2.953"/>
	
		<rect x="867.204" y="299.725" transform="matrix(0.7074 0.7068 -0.7068 0.7074 467.0254 -525.8425)" fill="#869392" width="2.954" height="2.952"/>
	<polygon fill="#869392" points="862.068,301.317 860.464,302.92 860.609,304.035 862.068,305.494 864.156,303.405 	"/>
	<polygon fill="#869392" points="860.912,289.017 858.816,289.017 859.863,290.064 	"/>
	<polygon fill="#869392" points="868.564,312.222 866.476,310.134 864.388,312.223 866.119,313.953 866.833,313.953 	"/>
	<polygon fill="#869392" points="858.685,289.119 858.928,291 859.748,290.181 	"/>
	
		<rect x="862.795" y="299.725" transform="matrix(0.7073 0.7069 -0.7069 0.7073 465.9279 -522.8193)" fill="#869392" width="2.953" height="2.953"/>
	
		<rect x="864.999" y="297.521" transform="matrix(0.7069 0.7073 -0.7073 0.7069 465.4012 -525.2103)" fill="#869392" width="2.953" height="2.953"/>
	
		<rect x="867.204" y="308.541" transform="matrix(0.7071 -0.7071 0.7071 0.7071 35.215 705.0517)" fill="#869392" width="2.953" height="2.953"/>
	<polygon fill="#869392" points="862.068,305.726 860.968,306.825 861.261,309.096 862.068,309.902 864.156,307.813 	"/>
	
		<rect x="867.204" y="295.317" transform="matrix(0.7073 0.7069 -0.7069 0.7073 464.1023 -527.2267)" fill="#869392" width="2.953" height="2.953"/>
	<polygon fill="#869392" points="871.241,313.953 872.972,312.222 870.884,310.134 868.796,312.222 870.527,313.953 
		871.066,313.953 	"/>
	
		<rect x="865" y="306.337" transform="matrix(0.7071 -0.7071 0.7071 0.7071 36.1276 702.8477)" fill="#869392" width="2.953" height="2.953"/>
	
		<rect x="862.795" y="304.133" transform="matrix(0.7073 -0.7069 0.7069 0.7073 36.9484 700.4497)" fill="#869392" width="2.953" height="2.953"/>
	<polygon fill="#869392" points="873.205,312.222 874.935,313.953 875.244,313.953 875.685,310.526 875.292,310.134 	"/>
	
		<rect x="871.612" y="308.541" transform="matrix(0.7071 -0.7071 0.7071 0.7071 36.5062 708.1688)" fill="#869392" width="2.953" height="2.953"/>
	<polygon fill="#869392" points="875.292,305.726 873.205,307.813 875.292,309.902 875.835,309.358 876.189,306.622 	"/>
	<polygon fill="#869392" points="871.472,313.953 874.704,313.953 873.088,312.338 	"/>
	
		<rect x="869.408" y="306.338" transform="matrix(0.7073 -0.7069 0.7069 0.7073 37.3253 705.77)" fill="#869392" width="2.952" height="2.953"/>
	
		<rect x="867.204" y="304.133" transform="matrix(0.7069 -0.7073 0.7073 0.7069 38.4247 703.9546)" fill="#869392" width="2.952" height="2.953"/>
	<polygon fill="#869392" points="875.712,310.321 875.802,309.625 875.408,310.018 	"/>
	
		<rect x="871.612" y="290.908" transform="matrix(0.7073 0.7069 -0.7069 0.7073 462.2764 -531.6335)" fill="#869392" width="2.953" height="2.953"/>
	
		<rect x="873.815" y="293.113" transform="matrix(-0.7068 0.7074 -0.7074 -0.7068 1702.3314 -116.4173)" fill="#869392" width="2.954" height="2.953"/>
	<polygon fill="#869392" points="877.222,298.607 877.699,294.906 877.497,294.704 875.408,296.793 	"/>
	
		<rect x="865" y="301.929" transform="matrix(0.7071 -0.7071 0.7071 0.7071 39.2447 701.5566)" fill="#869392" width="2.953" height="2.953"/>
	
		<rect x="869.408" y="293.112" transform="matrix(0.7069 0.7073 -0.7073 0.7069 463.5746 -529.6203)" fill="#869392" width="2.953" height="2.953"/>
	<polygon fill="#869392" points="877.497,294.473 877.792,294.176 878.203,291.002 877.497,290.297 875.408,292.385 	"/>
	<polygon fill="#869392" points="874.136,289.017 872.041,289.017 873.088,290.064 	"/>
	<polygon fill="#869392" points="868.564,290.181 867.4,289.017 866.066,289.017 865.552,289.017 864.388,290.181 866.476,292.269 	
		"/>
	<polygon fill="#869392" points="869.728,289.017 867.632,289.017 868.679,290.064 	"/>
	<polygon fill="#869392" points="859.99,299.24 860.439,302.715 861.952,301.201 	"/>
	<polygon fill="#869392" points="878.229,290.797 878.412,289.383 877.613,290.181 	"/>
	<polygon fill="#869392" points="878.445,289.116 878.458,289.017 876.449,289.017 877.497,290.064 	"/>
	
		<rect x="862.794" y="308.541" transform="matrix(-0.7071 -0.7071 0.7071 -0.7071 1256.1882 1140.3652)" fill="#869392" width="2.954" height="2.953"/>
	
		<rect x="869.408" y="301.929" transform="matrix(0.7071 -0.7071 0.7071 0.7071 40.5358 704.6736)" fill="#869392" width="2.953" height="2.953"/>
	
		<rect x="871.612" y="304.132" transform="matrix(-0.7069 -0.7073 0.7073 -0.7069 1274.1626 1139.1687)" fill="#869392" width="2.953" height="2.954"/>
	
		<rect x="862.795" y="290.908" transform="matrix(0.7071 0.7071 -0.7071 0.7071 459.8865 -525.4947)" fill="#869392" width="2.953" height="2.953"/>
	
		<rect x="871.612" y="299.724" transform="matrix(0.7073 0.7069 -0.7069 0.7073 468.5089 -529.0524)" fill="#869392" width="2.953" height="2.953"/>
	<polygon fill="#869392" points="861.952,296.793 859.863,294.705 859.458,295.11 859.935,298.81 	"/>
	
		<rect x="860.591" y="293.112" transform="matrix(0.7069 0.7073 -0.7073 0.7069 460.9908 -523.3847)" fill="#869392" width="2.953" height="2.953"/>
	<polygon fill="#869392" points="865.32,289.017 863.224,289.017 864.272,290.064 	"/>
	
		<rect x="862.795" y="295.317" transform="matrix(0.7073 0.7069 -0.7069 0.7073 462.8116 -524.1097)" fill="#869392" width="2.953" height="2.953"/>
	
		<rect x="864.999" y="293.112" transform="matrix(0.7069 0.7073 -0.7073 0.7069 462.2827 -526.5025)" fill="#869392" width="2.953" height="2.953"/>
	
		<rect x="860.591" y="297.521" transform="matrix(0.7069 0.7073 -0.7073 0.7069 464.1089 -522.0927)" fill="#869392" width="2.953" height="2.953"/>
	<polygon fill="#869392" points="859.337,294.18 859.431,294.904 859.748,294.589 	"/>
	<polygon fill="#869392" points="860.642,304.301 860.943,306.619 861.952,305.609 	"/>
	<polygon fill="#869392" points="875.292,301.317 873.205,303.405 875.292,305.494 876.488,304.298 876.693,302.717 	"/>
	
		<rect x="867.204" y="290.909" transform="matrix(0.7074 0.7068 -0.7068 0.7074 460.7941 -528.4219)" fill="#869392" width="2.954" height="2.952"/>
	<polygon fill="#869392" points="873.205,290.181 875.292,292.269 877.38,290.181 876.216,289.017 874.369,289.017 	"/>
	<polygon fill="#869392" points="872.972,290.181 871.808,289.017 871.066,289.017 869.96,289.017 868.796,290.181 870.884,292.269 
			"/>
	<polygon fill="#869392" points="867.065,313.953 870.295,313.953 868.68,312.338 	"/>
	<polygon fill="#869392" points="862.657,313.953 865.886,313.953 864.272,312.338 	"/>
	<polygon fill="#869392" points="861.295,309.361 861.445,310.523 861.952,310.018 	"/>
	<polygon fill="#869392" points="862.068,310.134 861.472,310.729 861.888,313.953 862.425,313.953 864.156,312.223 	"/>
	<polygon fill="#869392" points="864.156,290.181 862.992,289.017 861.144,289.017 859.98,290.181 862.068,292.269 	"/>
	<polygon fill="#869392" points="876.214,306.416 876.455,304.564 875.408,305.609 	"/>
	<polygon fill="#869392" points="875.292,301.086 877.14,299.237 877.196,298.812 875.292,296.909 873.205,298.997 	"/>
	<polygon fill="#869392" points="877.726,294.701 877.759,294.442 877.613,294.588 	"/>
	<polygon fill="#869392" points="876.718,302.512 877.107,299.504 875.41,301.201 	"/>
	<polygon fill="#869392" points="859.863,294.473 861.952,292.385 859.863,290.297 858.955,291.205 859.304,293.914 	"/>
	
		<rect x="871.612" y="295.317" transform="matrix(0.7071 0.7071 -0.7071 0.7071 465.586 -530.438)" fill="#869392" width="2.953" height="2.953"/>
	<polygon fill="#E9F1F4" points="877.38,290.181 877.497,290.064 876.449,289.017 876.216,289.017 	"/>
	<polygon fill="#E9F1F4" points="877.497,290.297 878.203,291.002 878.229,290.797 877.613,290.181 	"/>
	<polygon fill="#E9F1F4" points="877.497,294.704 877.699,294.906 877.726,294.701 877.613,294.588 	"/>
	
		<rect x="876.312" y="292.01" transform="matrix(-0.7101 0.7041 -0.7041 -0.7101 1705.3561 -115.1977)" fill="#E9F1F4" width="0.164" height="2.953"/>
	
		<rect x="874.109" y="289.806" transform="matrix(-0.7041 0.7101 -0.7101 -0.7041 1696.5588 -124.3691)" fill="#E9F1F4" width="0.164" height="2.953"/>
	<polygon fill="#E9F1F4" points="872.041,289.017 871.808,289.017 872.972,290.181 873.088,290.064 	"/>
	
		<rect x="870.51" y="293.405" transform="matrix(0.7071 0.7071 -0.7071 0.7071 462.925 -530.6273)" fill="#E9F1F4" width="2.953" height="0.164"/>
	<polygon fill="#E9F1F4" points="867.632,289.017 867.4,289.017 868.564,290.181 868.679,290.064 	"/>
	
		<rect x="868.305" y="291.2" transform="matrix(0.7071 0.7071 -0.7071 0.7071 460.7211 -529.7138)" fill="#E9F1F4" width="2.953" height="0.165"/>
	
		<rect x="874.109" y="294.214" transform="matrix(-0.7101 0.7041 -0.7041 -0.7101 1703.14 -109.876)" fill="#E9F1F4" width="0.164" height="2.953"/>
	<polygon fill="#E9F1F4" points="877.196,298.812 877.222,298.607 875.408,296.793 875.292,296.909 	"/>
	
		<rect x="863.898" y="291.201" transform="matrix(0.7071 0.7071 -0.7071 0.7071 459.4302 -526.597)" fill="#E9F1F4" width="2.953" height="0.164"/>
	
		<rect x="870.51" y="297.813" transform="matrix(0.7071 0.7071 -0.7071 0.7071 466.0424 -529.3361)" fill="#E9F1F4" width="2.953" height="0.164"/>
	
		<rect x="874.109" y="298.622" transform="matrix(-0.7071 0.7071 -0.7071 -0.7071 1704.5393 -105.8451)" fill="#E9F1F4" width="0.163" height="2.953"/>
	<polygon fill="#E9F1F4" points="863.224,289.017 862.992,289.017 864.156,290.181 864.272,290.064 	"/>
	
		<rect x="868.306" y="295.609" transform="matrix(0.7069 0.7073 -0.7073 0.7069 464.0314 -528.5178)" fill="#E9F1F4" width="2.953" height="0.164"/>
	<polygon fill="#E9F1F4" points="875.292,301.317 876.693,302.717 876.718,302.512 875.41,301.201 	"/>
	
		<rect x="866.102" y="293.405" transform="matrix(0.7071 0.7071 -0.7071 0.7071 461.634 -527.5102)" fill="#E9F1F4" width="2.953" height="0.164"/>
	
		<rect x="866.102" y="297.813" transform="matrix(0.7069 0.7073 -0.7073 0.7069 464.944 -526.3128)" fill="#E9F1F4" width="2.952" height="0.164"/>
	
		<rect x="863.897" y="295.609" transform="matrix(0.7069 0.7073 -0.7073 0.7069 462.7394 -525.3996)" fill="#E9F1F4" width="2.953" height="0.165"/>
	
		<rect x="861.693" y="293.405" transform="matrix(0.7071 0.7071 -0.7071 0.7071 460.3427 -524.3928)" fill="#E9F1F4" width="2.953" height="0.163"/>
	
		<rect x="859.489" y="291.2" transform="matrix(0.7071 0.7071 -0.7071 0.7071 458.1389 -523.4797)" fill="#E9F1F4" width="2.953" height="0.165"/>
	<polygon fill="#E9F1F4" points="875.292,305.726 876.189,306.622 876.214,306.416 875.408,305.609 	"/>
	
		<rect x="870.51" y="302.221" transform="matrix(0.7073 0.7069 -0.7069 0.7073 468.9654 -527.9507)" fill="#E9F1F4" width="2.953" height="0.164"/>
	
		<rect x="868.306" y="300.017" transform="matrix(0.7073 0.7069 -0.7069 0.7073 466.7618 -527.0374)" fill="#E9F1F4" width="2.952" height="0.164"/>
	<polygon fill="#E9F1F4" points="859.863,290.064 858.816,289.017 858.673,289.017 858.685,289.119 859.748,290.181 	"/>
	
		<rect x="872.714" y="304.426" transform="matrix(-0.7073 -0.7069 0.7069 -0.7073 1277.2119 1137.8792)" fill="#E9F1F4" width="2.953" height="0.163"/>
	
		<rect x="863.897" y="300.017" transform="matrix(0.7071 0.7071 -0.7071 0.7071 465.6645 -524.0143)" fill="#E9F1F4" width="2.953" height="0.164"/>
	
		<rect x="861.693" y="297.813" transform="matrix(0.7071 0.7071 -0.7071 0.7071 463.4601 -523.1016)" fill="#E9F1F4" width="2.953" height="0.164"/>
	
		<rect x="869.7" y="303.03" transform="matrix(0.7101 -0.7041 0.7041 0.7101 37.7692 700.7396)" fill="#E9F1F4" width="0.165" height="2.954"/>
	
		<rect x="866.102" y="302.221" transform="matrix(0.7069 0.7073 -0.7073 0.7069 468.0618 -525.0209)" fill="#E9F1F4" width="2.952" height="0.164"/>
	<polygon fill="#E9F1F4" points="859.863,294.473 859.304,293.914 859.337,294.18 859.748,294.589 	"/>
	
		<rect x="871.904" y="305.235" transform="matrix(0.7041 -0.7101 0.7101 0.7041 40.2009 709.9049)" fill="#E9F1F4" width="0.165" height="2.952"/>
	<polygon fill="#E9F1F4" points="875.292,310.134 875.685,310.526 875.712,310.321 875.408,310.018 	"/>
	
		<rect x="872.714" y="308.834" transform="matrix(-0.7071 -0.7071 0.7071 -0.7071 1273.8999 1145.4985)" fill="#E9F1F4" width="2.953" height="0.164"/>
	
		<rect x="859.489" y="295.609" transform="matrix(0.7069 0.7073 -0.7073 0.7069 461.4476 -522.2818)" fill="#E9F1F4" width="2.953" height="0.165"/>
	
		<rect x="865.292" y="303.031" transform="matrix(0.7071 -0.7071 0.7071 0.7071 38.1431 701.1)" fill="#E9F1F4" width="0.164" height="2.953"/>
	
		<rect x="871.904" y="309.643" transform="matrix(0.7071 -0.7071 0.7071 0.7071 35.4041 707.7123)" fill="#E9F1F4" width="0.164" height="2.953"/>
	
		<rect x="861.693" y="302.221" transform="matrix(0.7073 0.7069 -0.7069 0.7073 466.3846 -521.718)" fill="#E9F1F4" width="2.953" height="0.164"/>
	<polygon fill="#E9F1F4" points="873.088,312.338 874.704,313.953 874.935,313.953 873.205,312.222 	"/>
	
		<rect x="867.496" y="305.235" transform="matrix(0.7071 -0.7071 0.7071 0.7071 37.23 703.304)" fill="#E9F1F4" width="0.164" height="2.953"/>
	
		<rect x="869.701" y="307.439" transform="matrix(0.7071 -0.7071 0.7071 0.7071 36.3172 705.5085)" fill="#E9F1F4" width="0.164" height="2.953"/>
	<polygon fill="#E9F1F4" points="861.952,301.201 862.068,301.085 859.98,298.997 859.962,299.016 859.99,299.24 	"/>
	
		<rect x="867.496" y="309.643" transform="matrix(0.7071 -0.7071 0.7071 0.7071 34.113 704.5952)" fill="#E9F1F4" width="0.164" height="2.953"/>
	
		<rect x="865.292" y="307.439" transform="matrix(0.7101 -0.7041 0.7041 0.7101 33.3869 698.9135)" fill="#E9F1F4" width="0.165" height="2.953"/>
	
		<rect x="863.088" y="305.235" transform="matrix(0.7041 -0.7101 0.7101 0.7041 37.6063 703.6736)" fill="#E9F1F4" width="0.164" height="2.953"/>
	<polygon fill="#E9F1F4" points="862.068,305.494 860.609,304.035 860.642,304.301 861.952,305.609 	"/>
	<polygon fill="#E9F1F4" points="868.796,312.222 868.68,312.338 870.295,313.953 870.527,313.953 	"/>
	<polygon fill="#E9F1F4" points="866.119,313.953 864.388,312.223 864.272,312.338 865.886,313.953 866.066,313.953 	"/>
	
		<rect x="863.088" y="309.643" transform="matrix(0.7041 -0.7101 0.7101 0.7041 34.4758 704.978)" fill="#E9F1F4" width="0.164" height="2.953"/>
	<polygon fill="#E9F1F4" points="862.068,309.902 861.261,309.096 861.295,309.361 861.952,310.018 	"/>
	<polygon fill="#E9F1F4" points="859.98,290.181 861.144,289.017 860.912,289.017 859.863,290.064 	"/>
	<polygon fill="#E9F1F4" points="859.863,290.297 859.748,290.181 858.928,291 858.955,291.205 	"/>
	
		<rect x="859.781" y="290.099" transform="matrix(0.7041 -0.7101 0.7101 0.7041 48.3661 696.4344)" fill="#E9F1F4" width="0.164" height="0.164"/>
	
		<rect x="863.088" y="289.806" transform="matrix(0.7071 0.7071 -0.7071 0.7071 458.7846 -525.0385)" fill="#E9F1F4" width="0.164" height="2.953"/>
	<polygon fill="#E9F1F4" points="864.388,290.181 865.552,289.017 865.32,289.017 864.272,290.064 	"/>
	
		<rect x="860.883" y="292.01" transform="matrix(0.7101 0.7041 -0.7041 0.7101 456.2563 -521.1339)" fill="#E9F1F4" width="0.164" height="2.953"/>
	<polygon fill="#E9F1F4" points="859.863,294.705 859.748,294.589 859.431,294.904 859.458,295.11 	"/>
	
		<rect x="864.19" y="290.098" transform="matrix(0.7071 0.7071 -0.7071 0.7071 458.3281 -526.1406)" fill="#E9F1F4" width="0.164" height="0.164"/>
	
		<rect x="861.986" y="292.303" transform="matrix(0.7041 0.7101 -0.7101 0.7041 462.6888 -525.6285)" fill="#E9F1F4" width="0.164" height="0.164"/>
	
		<rect x="859.78" y="294.506" transform="matrix(-0.7101 0.7041 -0.7041 -0.7101 1677.8486 -101.7011)" fill="#E9F1F4" width="0.165" height="0.165"/>
	
		<rect x="865.292" y="292.01" transform="matrix(0.7101 0.7041 -0.7041 0.7101 457.5343 -524.2378)" fill="#E9F1F4" width="0.164" height="2.953"/>
	
		<rect x="867.496" y="289.806" transform="matrix(0.7041 0.7101 -0.7101 0.7041 463.5367 -529.8674)" fill="#E9F1F4" width="0.164" height="2.953"/>
	
		<rect x="863.088" y="294.215" transform="matrix(0.7041 0.7101 -0.7101 0.7041 465.363 -525.4327)" fill="#E9F1F4" width="0.164" height="2.953"/>
	<polygon fill="#E9F1F4" points="868.796,290.181 869.96,289.017 869.728,289.017 868.679,290.064 	"/>
	<polygon fill="#E9F1F4" points="859.98,298.997 862.068,296.909 861.952,296.793 859.935,298.81 859.957,298.974 	"/>
	
		<rect x="868.598" y="290.099" transform="matrix(0.7101 0.7041 -0.7041 0.7101 456.1942 -527.5389)" fill="#E9F1F4" width="0.165" height="0.164"/>
	
		<rect x="866.394" y="292.303" transform="matrix(0.7071 0.7071 -0.7071 0.7071 460.5322 -527.0536)" fill="#E9F1F4" width="0.164" height="0.164"/>
	
		<rect x="864.189" y="294.507" transform="matrix(0.7101 0.7041 -0.7041 0.7101 458.0201 -523.1569)" fill="#E9F1F4" width="0.165" height="0.164"/>
	
		<rect x="861.986" y="296.711" transform="matrix(0.7071 0.7071 -0.7071 0.7071 462.358 -522.645)" fill="#E9F1F4" width="0.163" height="0.164"/>
	<polygon fill="#E9F1F4" points="859.957,298.974 859.962,299.016 859.98,298.997 	"/>
	
		<rect x="869.701" y="292.01" transform="matrix(0.7071 0.7071 -0.7071 0.7071 462.2795 -529.0687)" fill="#E9F1F4" width="0.163" height="2.953"/>
	
		<rect x="871.904" y="289.806" transform="matrix(0.7071 0.7071 -0.7071 0.7071 461.3668 -531.2727)" fill="#E9F1F4" width="0.164" height="2.953"/>
	
		<rect x="867.496" y="294.215" transform="matrix(0.7071 0.7071 -0.7071 0.7071 463.1932 -526.8643)" fill="#E9F1F4" width="0.164" height="2.953"/>
	<polygon fill="#E9F1F4" points="873.205,290.181 874.369,289.017 874.136,289.017 873.088,290.064 	"/>
	
		<rect x="865.291" y="296.418" transform="matrix(0.7071 0.7071 -0.7071 0.7071 464.1056 -524.66)" fill="#E9F1F4" width="0.164" height="2.953"/>
	
		<rect x="863.088" y="298.623" transform="matrix(0.7071 0.7071 -0.7071 0.7071 465.0186 -522.4559)" fill="#E9F1F4" width="0.163" height="2.952"/>
	<polygon fill="#E9F1F4" points="862.068,301.317 861.952,301.201 860.439,302.715 860.464,302.92 	"/>
	
		<rect x="873.006" y="290.098" transform="matrix(0.7071 0.7071 -0.7071 0.7071 460.9104 -532.3748)" fill="#E9F1F4" width="0.164" height="0.164"/>
	
		<rect x="870.803" y="292.303" transform="matrix(0.7071 0.7071 -0.7071 0.7071 461.8235 -530.171)" fill="#E9F1F4" width="0.164" height="0.164"/>
	
		<rect x="868.598" y="294.507" transform="matrix(0.7071 0.7071 -0.7071 0.7071 462.7363 -527.9666)" fill="#E9F1F4" width="0.164" height="0.164"/>
	
		<rect x="866.394" y="296.711" transform="matrix(0.7101 0.7041 -0.7041 0.7101 460.1822 -524.0554)" fill="#E9F1F4" width="0.164" height="0.164"/>
	
		<rect x="864.189" y="298.916" transform="matrix(0.7071 0.7071 -0.7071 0.7071 464.5629 -523.558)" fill="#E9F1F4" width="0.166" height="0.164"/>
	
		<rect x="861.986" y="301.119" transform="matrix(0.7041 0.7101 -0.7101 0.7041 468.9492 -523.0199)" fill="#E9F1F4" width="0.164" height="0.164"/>
	
		<rect x="865.292" y="300.827" transform="matrix(0.7071 0.7071 -0.7071 0.7071 467.2229 -523.3693)" fill="#E9F1F4" width="0.164" height="2.953"/>
	<polygon fill="#E9F1F4" points="860.943,306.619 860.968,306.825 862.068,305.726 861.952,305.609 	"/>
	
		<rect x="861.693" y="304.426" transform="matrix(0.7069 -0.7073 0.7073 0.7069 37.5897 699.7341)" fill="#E9F1F4" width="2.953" height="0.163"/>
	
		<rect x="872.714" y="293.405" transform="matrix(-0.7069 0.7073 -0.7073 -0.7069 1699.7677 -117.326)" fill="#E9F1F4" width="2.953" height="0.163"/>
	
		<rect x="874.917" y="291.201" transform="matrix(-0.7073 0.7069 -0.7069 -0.7073 1702.163 -122.2603)" fill="#E9F1F4" width="2.953" height="0.164"/>
	
		<rect x="867.496" y="298.623" transform="matrix(0.7071 0.7071 -0.7071 0.7071 466.3101 -525.5729)" fill="#E9F1F4" width="0.163" height="2.953"/>
	
		<rect x="871.904" y="294.215" transform="matrix(0.7071 0.7071 -0.7071 0.7071 464.4843 -529.9814)" fill="#E9F1F4" width="0.164" height="2.953"/>
	
		<rect x="869.7" y="296.418" transform="matrix(0.7041 0.7101 -0.7101 0.7041 468.8842 -529.476)" fill="#E9F1F4" width="0.164" height="2.954"/>
	<polygon fill="#E9F1F4" points="877.613,290.181 878.412,289.383 878.445,289.116 877.497,290.064 	"/>
	
		<rect x="877.414" y="290.098" transform="matrix(0.7071 0.7071 -0.7071 0.7071 462.2015 -535.4918)" fill="#E9F1F4" width="0.164" height="0.164"/>
	
		<rect x="875.211" y="292.302" transform="matrix(-0.7071 0.7071 -0.7071 -0.7071 1700.9646 -119.7941)" fill="#E9F1F4" width="0.163" height="0.164"/>
	
		<rect x="873.006" y="294.507" transform="matrix(0.7071 0.7071 -0.7071 0.7071 464.0275 -531.0836)" fill="#E9F1F4" width="0.164" height="0.164"/>
	
		<rect x="870.803" y="296.711" transform="matrix(0.7101 0.7041 -0.7041 0.7101 461.4604 -527.1597)" fill="#E9F1F4" width="0.164" height="0.163"/>
	
		<rect x="868.597" y="298.916" transform="matrix(0.7071 0.7071 -0.7071 0.7071 465.8541 -526.6751)" fill="#E9F1F4" width="0.166" height="0.164"/>
	
		<rect x="866.394" y="301.119" transform="matrix(0.7101 0.7041 -0.7041 0.7101 463.2861 -522.7775)" fill="#E9F1F4" width="0.164" height="0.164"/>
	
		<rect x="864.19" y="303.323" transform="matrix(0.7071 -0.7071 0.7071 0.7071 38.5995 699.9979)" fill="#E9F1F4" width="0.164" height="0.164"/>
	
		<rect x="861.986" y="305.528" transform="matrix(0.7101 -0.7041 0.7041 0.7101 34.7422 695.5978)" fill="#E9F1F4" width="0.164" height="0.164"/>
	<polygon fill="#E9F1F4" points="877.759,294.442 877.792,294.176 877.497,294.473 877.613,294.588 	"/>
	<polygon fill="#E9F1F4" points="861.952,310.018 861.445,310.523 861.472,310.729 862.068,310.134 	"/>
	
		<rect x="866.101" y="304.426" transform="matrix(0.7069 -0.7073 0.7073 0.7069 38.8817 702.8522)" fill="#E9F1F4" width="2.953" height="0.164"/>
	
		<rect x="872.714" y="297.813" transform="matrix(-0.7071 0.7071 -0.7071 -0.7071 1702.98 -109.6074)" fill="#E9F1F4" width="2.953" height="0.164"/>
	
		<rect x="869.7" y="300.826" transform="matrix(0.7041 0.7101 -0.7101 0.7041 472.0144 -528.1717)" fill="#E9F1F4" width="0.164" height="2.954"/>
	
		<rect x="871.904" y="298.623" transform="matrix(0.7071 0.7071 -0.7071 0.7071 467.601 -528.6904)" fill="#E9F1F4" width="0.164" height="2.953"/>
	
		<rect x="863.088" y="307.439" transform="matrix(0.7041 0.7101 -0.7101 0.7041 474.7535 -521.5198)" fill="#E9F1F4" width="0.164" height="2.953"/>
	
		<rect x="874.917" y="295.608" transform="matrix(-0.7071 0.7071 -0.7071 -0.7071 1705.1829 -114.929)" fill="#E9F1F4" width="2.954" height="0.164"/>
	
		<rect x="863.897" y="306.629" transform="matrix(0.7073 -0.7069 0.7069 0.7073 36.4921 701.5518)" fill="#E9F1F4" width="2.953" height="0.165"/>
	
		<rect x="877.414" y="294.507" transform="matrix(-0.7071 0.7071 -0.7071 -0.7071 1706.2858 -117.59)" fill="#E9F1F4" width="0.164" height="0.164"/>
	
		<rect x="875.211" y="296.712" transform="matrix(-0.7041 0.7101 -0.7101 -0.7041 1702.3491 -115.7603)" fill="#E9F1F4" width="0.164" height="0.163"/>
	
		<rect x="873.006" y="298.915" transform="matrix(0.7071 0.7071 -0.7071 0.7071 467.1445 -529.7925)" fill="#E9F1F4" width="0.164" height="0.164"/>
	
		<rect x="870.802" y="301.119" transform="matrix(0.7041 0.7101 -0.7101 0.7041 471.5581 -529.2806)" fill="#E9F1F4" width="0.164" height="0.164"/>
	
		<rect x="868.597" y="303.323" transform="matrix(0.7041 -0.7101 0.7101 0.7041 41.5842 706.6077)" fill="#E9F1F4" width="0.164" height="0.164"/>
	
		<rect x="866.394" y="305.528" transform="matrix(0.7101 -0.7041 0.7041 0.7101 36.0201 698.7017)" fill="#E9F1F4" width="0.164" height="0.164"/>
	
		<rect x="864.189" y="307.732" transform="matrix(0.7041 -0.7101 0.7101 0.7041 37.1497 704.7818)" fill="#E9F1F4" width="0.164" height="0.164"/>
	
		<rect x="861.986" y="309.936" transform="matrix(0.7101 -0.7041 0.7041 0.7101 31.6383 696.8758)" fill="#E9F1F4" width="0.164" height="0.164"/>
	
		<rect x="872.715" y="302.221" transform="matrix(-0.7071 0.7071 -0.7071 -0.7071 1706.0979 -102.0824)" fill="#E9F1F4" width="2.953" height="0.164"/>
	
		<rect x="863.897" y="311.038" transform="matrix(0.7069 -0.7073 0.7073 0.7069 33.5587 703.2313)" fill="#E9F1F4" width="2.953" height="0.164"/>
	
		<rect x="870.51" y="304.426" transform="matrix(0.7069 -0.7073 0.7073 0.7069 40.1736 705.97)" fill="#E9F1F4" width="2.953" height="0.164"/>
	<polygon fill="#E9F1F4" points="877.107,299.504 877.14,299.237 875.292,301.086 875.41,301.201 	"/>
	
		<rect x="868.306" y="306.63" transform="matrix(0.7071 -0.7071 0.7071 0.7071 37.8757 704.8629)" fill="#E9F1F4" width="2.954" height="0.164"/>
	
		<rect x="866.101" y="308.834" transform="matrix(0.7069 -0.7073 0.7073 0.7069 35.7639 704.1441)" fill="#E9F1F4" width="2.953" height="0.164"/>
	<polygon fill="#E9F1F4" points="864.156,312.223 862.425,313.953 862.657,313.953 864.272,312.338 	"/>
	
		<rect x="875.21" y="301.119" transform="matrix(-0.7101 0.7041 -0.7041 -0.7101 1708.8906 -101.2576)" fill="#E9F1F4" width="0.165" height="0.164"/>
	
		<rect x="873.006" y="303.323" transform="matrix(-0.7071 -0.7071 0.7071 -0.7071 1275.9152 1135.3119)" fill="#E9F1F4" width="0.164" height="0.164"/>
	
		<rect x="870.803" y="305.528" transform="matrix(0.7071 -0.7071 0.7071 0.7071 38.9769 705.3193)" fill="#E9F1F4" width="0.163" height="0.164"/>
	
		<rect x="868.598" y="307.732" transform="matrix(0.7101 -0.7041 0.7041 0.7101 35.1072 700.8926)" fill="#E9F1F4" width="0.164" height="0.164"/>
	
		<rect x="866.394" y="309.936" transform="matrix(0.7101 -0.7041 0.7041 0.7101 32.9163 699.9797)" fill="#E9F1F4" width="0.164" height="0.164"/>
	
		<rect x="864.19" y="312.141" transform="matrix(-0.7101 -0.7041 0.7041 -0.7101 1258.1364 1142.4756)" fill="#E9F1F4" width="0.164" height="0.164"/>
	
		<rect x="874.109" y="305.236" transform="matrix(-0.7101 -0.7041 0.7041 -0.7101 1278.978 1140.0354)" fill="#E9F1F4" width="0.164" height="2.953"/>
	
		<rect x="868.306" y="311.037" transform="matrix(0.7073 -0.7069 0.7069 0.7073 34.6663 705.9589)" fill="#E9F1F4" width="2.953" height="0.164"/>
	
		<rect x="870.51" y="308.834" transform="matrix(0.7069 -0.7073 0.7073 0.7069 37.0558 707.2619)" fill="#E9F1F4" width="2.953" height="0.164"/>
	<polygon fill="#E9F1F4" points="875.292,305.494 875.408,305.609 876.455,304.564 876.488,304.298 	"/>
	<polygon fill="#E9F1F4" points="868.564,312.222 866.833,313.953 867.065,313.953 868.68,312.338 	"/>
	
		<rect x="875.211" y="305.528" transform="matrix(0.7071 -0.7071 0.7071 0.7071 40.2684 708.4363)" fill="#E9F1F4" width="0.163" height="0.164"/>
	
		<rect x="873.006" y="307.731" transform="matrix(-0.7071 -0.7071 0.7071 -0.7071 1272.7981 1142.8372)" fill="#E9F1F4" width="0.164" height="0.164"/>
	
		<rect x="870.803" y="309.936" transform="matrix(0.7071 -0.7071 0.7071 0.7071 35.8602 706.6104)" fill="#E9F1F4" width="0.163" height="0.164"/>
	
		<rect x="868.598" y="312.139" transform="matrix(0.7071 0.7071 -0.7071 0.7071 475.2046 -522.802)" fill="#E9F1F4" width="0.164" height="0.164"/>
	
		<rect x="874.108" y="309.643" transform="matrix(-0.7071 -0.7071 0.7071 -0.7071 1272.3416 1149.2605)" fill="#E9F1F4" width="0.164" height="2.953"/>
	<polygon fill="#E9F1F4" points="872.972,312.222 871.241,313.953 871.472,313.953 873.088,312.338 	"/>
	<polygon fill="#E9F1F4" points="875.292,309.902 875.408,310.018 875.802,309.625 875.835,309.358 	"/>
	
		<rect x="875.211" y="309.937" transform="matrix(-0.7041 0.7101 -0.7101 -0.7041 1711.7396 -93.2241)" fill="#E9F1F4" width="0.164" height="0.163"/>
	
		<rect x="873.006" y="312.139" transform="matrix(0.7071 0.7071 -0.7071 0.7071 476.4957 -525.9191)" fill="#E9F1F4" width="0.164" height="0.164"/>
</g>
<g>
	<g>
		<path fill="#326600" d="M942.838,236.377c2.526,15.508,4.623,37.179,2.931,37.623c-1.693,0.445-6.537-20.505-9.062-36.013
			c-2.525-15.507-1.777-19.7-0.084-20.146C938.316,217.398,940.313,220.869,942.838,236.377z"/>
		<path fill="#326600" d="M950.976,232.493c-1.591,18.171-5.172,42.904-6.893,42.614c-1.721-0.289-0.929-25.492,0.662-43.663
			c1.591-18.17,3.379-22.425,5.1-22.137C951.565,209.599,952.566,214.323,950.976,232.493z"/>
		<path fill="#3A7C00" d="M948.144,225.74c0,20.168-1.793,47.881-4.005,47.881s-4.005-27.713-4.005-47.881
			c0-20.166,1.793-25.15,4.005-25.15S948.144,205.574,948.144,225.74z"/>
	</g>
	<path fill="#CFE5E5" d="M928.255,312.262c0,1.491,1.21,2.701,2.702,2.701h27.919c1.492,0,2.701-1.21,2.701-2.701v-46.665h-33.322
		V312.262z"/>
	
		<path fill="none" stroke="#798C8C" stroke-width="2.0493" stroke-linecap="round" stroke-linejoin="round" stroke-miterlimit="10" d="
		M949.015,270.019v5.979c0,1.035-0.84,1.875-1.876,1.875h-11.413c-1.035,0-1.875-0.84-1.875-1.875v-5.979"/>
	<g>
		<path fill="#FFFFFF" d="M959.751,267.947c0-0.51-0.414-0.923-0.926-0.923l0,0c-0.51,0-0.926,0.413-0.926,0.923v41.612
			c0,0.509,0.416,0.923,0.926,0.923l0,0c0.512,0,0.926-0.414,0.926-0.923V267.947z"/>
		<circle fill="#FFFFFF" cx="958.832" cy="312.25" r="0.932"/>
	</g>
</g>
<g>
	<g>
		<rect x="292.872" y="50.195" fill="#383F42" width="0.499" height="36.261"/>
		<g>
			<polygon fill="#FFFFFF" points="294.763,98.59 288.197,98.59 290.853,85.459 294.763,85.459 			"/>
			<polygon fill="#FFFFFF" points="291.48,98.59 298.045,98.59 295.389,85.459 291.48,85.459 			"/>
		</g>
		<path fill="#383F42" d="M290.877,85.459c0-1.24,1.005-2.244,2.244-2.244s2.244,1.004,2.244,2.244"/>
	</g>
	<g>
		<rect x="413.089" y="50.195" fill="#383F42" width="0.499" height="36.261"/>
		<g>
			<polygon fill="#FFFFFF" points="414.979,98.59 408.414,98.59 411.07,85.459 414.979,85.459 			"/>
			<polygon fill="#FFFFFF" points="411.697,98.59 418.262,98.59 415.606,85.459 411.697,85.459 			"/>
		</g>
		<path fill="#383F42" d="M411.094,85.459c0-1.24,1.005-2.244,2.244-2.244s2.244,1.004,2.244,2.244"/>
	</g>
	<g>
		<rect x="533.305" y="50.195" fill="#383F42" width="0.499" height="36.261"/>
		<g>
			<polygon fill="#FFFFFF" points="535.196,98.59 528.63,98.59 531.287,85.459 535.196,85.459 			"/>
			<polygon fill="#FFFFFF" points="531.914,98.59 538.478,98.59 535.823,85.459 531.914,85.459 			"/>
		</g>
		<path fill="#383F42" d="M531.31,85.459c0-1.24,1.005-2.244,2.244-2.244c1.238,0,2.244,1.004,2.244,2.244"/>
	</g>
	<g>
		<rect x="653.523" y="50.195" fill="#383F42" width="0.498" height="36.261"/>
		<g>
			<polygon fill="#FFFFFF" points="655.414,98.59 648.847,98.59 651.503,85.459 655.414,85.459 			"/>
			<polygon fill="#FFFFFF" points="652.13,98.59 658.695,98.59 656.041,85.459 652.13,85.459 			"/>
		</g>
		<path fill="#383F42" d="M651.527,85.459c0-1.24,1.006-2.244,2.244-2.244c1.239,0,2.244,1.004,2.244,2.244"/>
	</g>
	<g>
		<rect x="773.738" y="50.195" fill="#383F42" width="0.5" height="36.261"/>
		<g>
			<polygon fill="#FFFFFF" points="775.628,98.59 769.064,98.59 771.72,85.459 775.628,85.459 			"/>
			<polygon fill="#FFFFFF" points="772.346,98.59 778.912,98.59 776.255,85.459 772.346,85.459 			"/>
		</g>
		<path fill="#383F42" d="M771.744,85.459c0-1.24,1.004-2.244,2.244-2.244c1.238,0,2.244,1.004,2.244,2.244"/>
	</g>
</g>
<g>
	<rect x="153.234" y="113.291" fill="#55A1BF" width="57.554" height="37.174"/>
	<rect x="153.234" y="153.857" fill="#55A1BF" width="57.554" height="96.297"/>
	<rect x="214.179" y="113.291" fill="#55A1BF" width="57.554" height="37.174"/>
	<rect x="214.179" y="153.857" fill="#55A1BF" width="57.554" height="96.297"/>
	<rect x="210.788" y="113.291" fill="#FFFFFF" width="3.391" height="37.174"/>
	<rect x="210.788" y="153.857" fill="#FFFFFF" width="3.391" height="96.297"/>
	<rect x="153.234" y="150.465" fill="#FFFFFF" width="57.554" height="3.393"/>
	<rect x="214.179" y="150.465" fill="#FFFFFF" width="57.554" height="3.393"/>
	<rect x="210.788" y="150.465" fill="#FFFFFF" width="3.391" height="3.393"/>
	<rect x="147.531" y="249.862" fill="#FFFFFF" width="129.904" height="3.026"/>
</g>
<g>
	<rect x="362.523" y="165.65" fill="#515151" width="100.967" height="60.172"/>
	<rect x="364.818" y="167.828" fill="#353535" width="95.697" height="55.816"/>
	<g>
		<rect x="407.737" y="224.973" fill="#515151" width="14.108" height="8.499"/>
		<rect x="400.938" y="233.472" fill="#515151" width="26.856" height="1.7"/>
	</g>
</g>
<g>
	<polygon fill="#EFEFEF" points="638.942,230.244 626.142,230.244 629.662,203.205 638.942,203.205 	"/>
	<polygon fill="#EFEFEF" points="633.437,230.244 646.236,230.244 642.716,203.205 633.437,203.205 	"/>
	<path fill="#EFEFEF" d="M648.478,231.844c0,0.884-0.717,1.6-1.601,1.6h-21.278c-0.884,0-1.6-0.716-1.6-1.6l0,0
		c0-0.883,0.716-1.6,1.6-1.6h21.278C647.761,230.244,648.478,230.961,648.478,231.844L648.478,231.844z"/>
	<polygon fill="#EFEFEF" points="632.542,203.205 626.41,203.205 631.421,208.219 	"/>
	<path fill="#EFEFEF" d="M647.105,217.281l-0.969-1.273c4.455-3.392,3.882-9.305,3.562-11.202h-9.21v-1.601h10.488l0.153,0.604
		C651.22,204.166,653.269,212.588,647.105,217.281z"/>
</g>
<g>
	<path fill="#EFEFEF" d="M614.863,233.184l2.484-15.861l-1.852-0.291l-2.166,10.985l-4.9-0.769c0.121-0.77,0.257-1.637,0.406-2.595
		l1.362,0.214l0.853-5.445l-1.361-0.213c0.073-0.466,0.147-0.942,0.225-1.43c1.016-6.492-2.922-9.332-4.68-10.258l-4.021,25.684
		L614.863,233.184z"/>
	<path fill="#999999" d="M600.355,233.16l0.014-0.004l-0.021,0.05l0.865-0.001l4.021-25.684c-0.486-0.257-0.807-0.367-0.807-0.367
		L600.355,233.16z"/>
</g>
<g>
	<polygon fill="#9E8856" points="256.275,266.168 252.849,267.447 245.075,246.621 248.501,247.213 	"/>
	<polygon fill="#9E8856" points="305.232,266.168 308.659,267.447 316.433,246.621 313.006,247.213 	"/>
	<rect x="250.895" y="262.238" fill="#C1AF81" width="59.572" height="52.274"/>
	<g opacity="0.7">
		<rect x="300.135" y="266.667" fill="#282828" width="0.854" height="5.302"/>
		<polygon fill="#282828" points="301.57,266.797 299.553,266.797 300.562,265.451 300.562,265.451 		"/>
		<rect x="302.798" y="266.667" fill="#282828" width="0.854" height="5.302"/>
		<polygon fill="#282828" points="304.234,266.797 302.217,266.797 303.226,265.451 303.226,265.451 		"/>
		<rect x="299.553" y="272.486" fill="#282828" width="4.681" height="0.725"/>
	</g>
</g>
<g>
	<g>
		<rect x="500.101" y="199.804" fill="#474747" width="19.826" height="33.397"/>
		<g>
			<circle fill="#8C8C8C" cx="509.451" cy="221.059" r="7.789"/>
			<circle fill="#FFFFFF" cx="509.451" cy="221.059" r="2.184"/>
		</g>
		<circle fill="#FFFFFF" cx="504.669" cy="205.602" r="2.184"/>
	</g>
	<g>
		<rect x="551.791" y="199.804" fill="#474747" width="19.824" height="33.397"/>
		<g>
			<circle fill="#8C8C8C" cx="562.266" cy="221.059" r="7.789"/>
			<circle fill="#FFFFFF" cx="562.266" cy="221.059" r="2.183"/>
		</g>
		<circle fill="#FFFFFF" cx="567.047" cy="205.602" r="2.183"/>
	</g>
	<rect x="521.816" y="199.804" fill="#474747" width="27.968" height="33.397"/>
	<rect x="525.828" y="221.059" fill="#8C8C8C" width="19.531" height="8.188"/>
	<rect x="528.837" y="222.815" fill="#A0BAB9" width="13.807" height="3.481"/>
	
		<line fill="none" stroke="#474747" stroke-width="0.4099" stroke-miterlimit="10" x1="535.593" y1="216.502" x2="535.593" y2="231.076"/>
	<rect x="525.828" y="210.896" fill="#A0BAB9" width="19.531" height="6.668"/>
	<circle fill="#8C8C8C" cx="541.287" cy="205.837" r="2.419"/>
	<rect x="526.536" y="205.114" fill="#8C8C8C" width="10.798" height="1.712"/>
</g>
<g>
	<rect x="833.148" y="295.938" fill="#5E5E5E" width="4.641" height="12.194"/>
	<rect x="834.593" y="267.141" fill="#5E5E5E" width="1.748" height="31.216"/>
	
		<rect x="856.199" y="240.965" transform="matrix(0.9767 0.2146 -0.2146 0.9767 74.2613 -178.0023)" fill="#5E5E5E" width="1.748" height="24.215"/>
	<g>
		
			<rect x="841.458" y="301.623" transform="matrix(0.2727 -0.9621 0.9621 0.2727 314.9082 1035.1072)" fill="#5E5E5E" width="1.282" height="15.285"/>
		
			<rect x="828.211" y="301.623" transform="matrix(-0.2713 -0.9625 0.9625 -0.2713 756.0505 1190.9351)" fill="#5E5E5E" width="1.281" height="15.285"/>
		<circle fill="#5E5E5E" cx="821.656" cy="312.644" r="1.936"/>
		<circle fill="#5E5E5E" cx="849.28" cy="312.644" r="1.935"/>
	</g>
	<rect x="834.759" y="306.987" fill="#5E5E5E" width="1.416" height="4.967"/>
	<rect x="833.966" y="310.721" fill="#5E5E5E" width="3.002" height="3.856"/>
	<path fill="#D39822" d="M855.982,266.628c0,1.533-1.242,2.773-2.773,2.773h-35.482c-1.531,0-2.771-1.24-2.771-2.773l0,0
		c0-1.53,1.24-2.771,2.771-2.771h35.482C854.74,263.856,855.982,265.098,855.982,266.628L855.982,266.628z"/>
	<path fill="#B75F0F" d="M858.486,258.055c-0.309,1.325-1.633,2.147-2.959,1.84l0,0c-1.326-0.31-2.15-1.635-1.84-2.96l10.5-44.997
		c0.309-1.326,1.633-2.148,2.959-1.84l0,0c1.326,0.309,2.148,1.635,1.84,2.96L858.486,258.055z"/>
</g>
</svg>
