<?xml version="1.0" encoding="UTF-8" standalone="no"?>
<!-- Created with Inkscape (http://www.inkscape.org/) -->

<svg
   xmlns:dc="http://purl.org/dc/elements/1.1/"
   xmlns:cc="http://creativecommons.org/ns#"
   xmlns:rdf="http://www.w3.org/1999/02/22-rdf-syntax-ns#"
   xmlns:svg="http://www.w3.org/2000/svg"
   xmlns="http://www.w3.org/2000/svg"
   xmlns:sodipodi="http://sodipodi.sourceforge.net/DTD/sodipodi-0.dtd"
   xmlns:inkscape="http://www.inkscape.org/namespaces/inkscape"
   width="124.13557"
   height="75.839951"
   id="svg3684"
   version="1.1"
   inkscape:version="0.48.4 r9939"
   sodipodi:docname="New document 21">
  <defs
     id="defs3" />
  <sodipodi:namedview
     inkscape:document-units="mm"
     id="base"
     pagecolor="#ffffff"
     bordercolor="#666666"
     borderopacity="1.0"
     inkscape:pageopacity="0.0"
     inkscape:pageshadow="2"
     inkscape:zoom="0.35"
     inkscape:cx="62.067778"
     inkscape:cy="37.919973"
     inkscape:current-layer="layer1"
     showgrid="false"
     inkscape:window-width="472"
     inkscape:window-height="367"
     inkscape:window-x="49"
     inkscape:window-y="24"
     inkscape:window-maximized="0"
     units="mm"
     fit-margin-top="0"
     fit-margin-left="0"
     fit-margin-right="0"
     fit-margin-bottom="0" />
  <metadata
     id="metadata4">
    <rdf:RDF>
      <cc:Work
         rdf:about="">
        <dc:format>image/svg+xml</dc:format>
        <dc:type
           rdf:resource="http://purl.org/dc/dcmitype/StillImage" />
        <dc:title></dc:title>
      </cc:Work>
    </rdf:RDF>
  </metadata>
  <g
     inkscape:label="Layer 1"
     inkscape:groupmode="layer"
     id="layer1"
     transform="translate(-287.93222,-494.44221)">
    <g
       transform="matrix(0.30426246,0,0,0.30426246,103.29001,502.84609)"
       id="layer1-4"
       inkscape:label="Layer 1">
      <path
         inkscape:connector-curvature="0"
         d="M 842.18714,60.949346 C 832.71691,62.153807 807.57298,77.444427 841.16961,58.394387 835.10499,62.103735 829.86061,67.039301 825.89616,72.957424 823.50216,76.531183 822.45175,79.089584 820.57908,82.986134 816.9818,91.764458 814.17018,101.099 815.59059,110.68301 815.85669,112.47854 816.4083,114.22 816.81716,115.9885 821.30372,128.491 828.93398,134.8986 840.36282,140.94805 850.30236,144.7557 861.21527,146.21972 871.84885,145.80337 874.48244,145.70026 877.09713,145.31207 879.72127,145.06642 894.07218,143.65998 907.99476,139.74454 921.52265,134.89217 924.54309,133.66031 928.11013,132.26419 931.06003,130.83698 932.49075,130.14478 936.64792,127.80761 935.27778,128.61311 904.02257,146.9878 919.16245,138.35147 925.65121,133.01039 932.21536,126.99263 934.06395,118.86229 935.15629,110.39168 935.65374,103.86598 936.53808,96.713791 933.49637,90.603036 932.88626,89.377329 932.0233,88.29469 931.28677,87.140517 922.16831,76.672357 908.53754,72.187996 895.70329,68.088696 883.63584,64.559824 871.18424,62.865375 858.66228,62.201447 854.42101,61.632858 850.47471,62.455545 846.41634,63.531056 846.41634,63.531056 865.30065,49.166648 865.30065,49.166648 L 865.30065,49.166648 C 869.48988,48.397772 873.6207,47.844545 877.89342,48.424459 890.36846,49.433671 902.72595,51.480821 914.71688,55.162799 928.11847,59.544843 942.20311,64.237178 951.7412,75.19812 952.57969,76.489144 953.54995,77.703584 954.25667,79.071192 957.57803,85.498481 956.8836,92.965085 956.3709,99.899841 955.38956,108.69707 953.94802,117.37979 947.61951,124.08214 935.04085,135.74685 918.84229,143.06159 903.00113,149.3137 889.40429,153.82751 875.5012,157.55684 861.17408,158.77728 858.4836,158.9717 855.79933,159.29456 853.10264,159.36055 842.09331,159.62994 830.85918,158.17321 820.72224,153.75953 809.17163,147.15881 800.83161,139.9783 796.16178,127.13232 795.69658,125.25275 795.08041,123.40423 794.76617,121.49362 793.13179,111.55629 795.66339,101.9097 799.27392,92.705047 804.09119,81.841544 808.97442,73.568461 819.17345,66.88573 832.42123,59.208274 845.95573,49.177836 861.55661,46.505211 861.55661,46.505211 842.18714,60.949346 842.18714,60.949346 z"
         id="path3299"
         style="fill:#ffff00" />
      <path
         inkscape:connector-curvature="0"
         d="M 832.90245,156.37409 C 866.27428,135.86566 850.20545,145.58305 843.91328,152.69247 839.37309,157.82236 835.42707,163.51381 831.41177,169.04917 823.88094,179.97795 815.98018,190.63179 807.54134,200.87501 805.23355,203.69388 802.79593,206.39202 800.27068,209.01488 800.27068,209.01488 778.17646,218.14381 778.17646,218.14381 L 778.17646,218.14381 C 780.89776,215.61269 783.43579,212.92514 785.83809,210.08433 794.54266,199.9451 802.68773,189.3512 810.15855,178.26504 814.06858,172.71963 817.93968,167.04218 822.21945,161.7695 822.47848,161.45037 827.83781,155.34536 828.69052,154.79879 836.19127,149.99098 844.02133,145.71741 851.68673,141.17672 851.68673,141.17672 832.90245,156.37409 832.90245,156.37409 z"
         id="path3301"
         style="fill:#ffff00" />
      <path
         inkscape:connector-curvature="0"
         d="M 876.90878,174.00497 C 873.89941,184.63422 868.71232,194.49202 864.35987,204.61197 863.69186,206.32474 863.02386,208.03752 862.35585,209.75029 862.35585,209.75029 841.05435,219.62311 841.05435,219.62311 L 841.05435,219.62311 C 841.73896,217.87235 842.42357,216.12159 843.10817,214.37083 847.37145,204.53398 852.41077,194.88092 855.23174,184.51629 855.23174,184.51629 876.90878,174.00497 876.90878,174.00497 z"
         id="path3303"
         style="fill:#ffff00" />
      <path
         inkscape:connector-curvature="0"
         d="M 911.80037,168.12156 C 913.96261,177.32398 915.40929,186.67068 917.24997,195.9422 918.21385,200.78971 919.39229,205.56581 920.7996,210.30001 920.7996,210.30001 900.03377,221.63781 900.03377,221.63781 L 900.03377,221.63781 C 898.637,216.80773 897.55067,211.93321 896.56431,207.00068 894.74336,197.92658 893.22957,188.75115 890.69306,179.84832 890.69306,179.84832 911.80037,168.12156 911.80037,168.12156 z"
         id="path3305"
         style="fill:#ffff00" />
      <path
         inkscape:connector-curvature="0"
         d="M 957.38983,153.21241 C 959.13288,159.99492 961.778,166.42467 964.57113,172.82933 965.11209,173.97518 965.65305,175.12103 966.19401,176.26688 966.19401,176.26688 945.49983,187.97333 945.49983,187.97333 L 945.49983,187.97333 C 944.9621,186.80206 944.42438,185.6308 943.88666,184.45953 941.12409,178.07247 938.32815,171.72028 936.30991,165.05152 936.30991,165.05152 957.38983,153.21241 957.38983,153.21241 z"
         id="path3307"
         style="fill:#ffff00" />
      <path
         inkscape:connector-curvature="0"
         d="M 972.38729,92.367171 C 977.57779,97.70997 982.21077,103.52028 986.73745,109.4221 986.73745,109.4221 966.31847,121.56367 966.31847,121.56367 L 966.31847,121.56367 C 961.86819,115.70995 957.29725,109.90611 951.79767,104.98451 951.79767,104.98451 972.38729,92.367171 972.38729,92.367171 z"
         id="path3309"
         style="fill:#ffff00" />
      <path
         inkscape:connector-curvature="0"
         d="M 968.5141,21.022257 C 975.41054,18.661812 982.26287,16.451791 989.4745,15.255671 996.99846,14.433043 1004.4222,13.140593 1011.7634,11.318157 1012.789,10.925269 1013.8146,10.53238 1014.8402,10.139491 1014.8402,10.139491 996.0102,24.798202 996.0102,24.798202 L 996.0102,24.798202 C 994.9413,25.12648 993.8724,25.454758 992.8035,25.783036 985.44839,27.46324 977.99766,28.520851 970.52755,29.554971 963.32576,31.011327 956.36214,33.267729 949.54576,36.013229 949.54576,36.013229 968.5141,21.022257 968.5141,21.022257 z"
         id="path3311"
         style="fill:#ffff00" />
      <path
         inkscape:connector-curvature="0"
         d="M 866.22219,56.836428 C 859.09565,48.368886 853.80821,38.64939 848.32505,29.097006 842.86913,18.889409 836.71397,8.8847871 827.94544,1.1547236 826.30349,-0.29277381 824.5033,-1.5502114 822.78222,-2.902679 816.30384,-8.4081324 808.72411,-11.788925 800.77895,-14.516253 800.77895,-14.516253 820.19419,-27.620507 820.19419,-27.620507 L 820.19419,-27.620507 C 828.22619,-24.587509 835.89302,-20.90306 842.50286,-15.292113 844.26314,-13.864432 846.10222,-12.528776 847.78368,-11.009071 856.59682,-3.0437724 862.84468,7.1248662 868.45037,17.47587 873.89575,26.824389 879.16561,36.426688 886.77172,44.243662 886.77172,44.243662 866.22219,56.836428 866.22219,56.836428 z"
         id="path3313"
         style="fill:#ffff00" />
      <path
         inkscape:connector-curvature="0"
         d="M 783.13352,55.131477 C 769.6341,51.673306 756.10704,48.477488 742.36241,46.157633 724.1743,42.99004 705.75114,41.766882 687.32764,41.10301 678.98332,40.421499 670.71579,41.17585 662.44441,42.159721 662.44441,42.159721 680.95383,28.407691 680.95383,28.407691 L 680.95383,28.407691 C 689.27605,27.614109 697.59743,27.028342 705.9637,27.677104 724.41016,28.494641 742.83312,29.893773 761.04864,33.052974 775.10572,35.425486 788.95888,38.704584 802.95535,41.382063 802.95535,41.382063 783.13352,55.131477 783.13352,55.131477 z"
         id="path3315"
         style="fill:#ffff00" />
      <path
         inkscape:connector-curvature="0"
         d="M 783.44356,108.45537 C 768.02263,110.65069 752.64371,113.18524 737.24213,115.53592 719.24141,118.39856 701.15738,120.70568 683.25259,124.16258 671.47063,126.43734 669.79727,127.01495 658.38718,129.86778 648.40328,132.54569 638.38864,135.07409 628.43605,137.86585 628.43605,137.86585 646.56816,123.93649 646.56816,123.93649 L 646.56816,123.93649 C 656.40387,121.30745 666.28222,118.85895 676.13882,116.30924 687.444,113.615 689.24274,113.04612 700.91505,110.85838 718.92238,107.48328 737.1019,105.18665 755.15353,102.08541 770.99982,99.460137 786.88902,96.950168 802.64531,93.852496 802.64531,93.852496 783.44356,108.45537 783.44356,108.45537 z"
         id="path3317"
         style="fill:#ffff00" />
      <path
         inkscape:connector-curvature="0"
         d="M 737.23222,167.7659 C 720.89581,174.05903 703.8878,178.2937 687.17166,183.39607 681.86186,185.01682 676.60004,186.79081 671.31422,188.48818 649.11541,195.51966 627.83848,204.95248 606.85177,214.94726 606.85177,214.94726 623.70172,201.53019 623.70172,201.53019 L 623.70172,201.53019 C 644.77845,191.64944 666.13675,182.32928 688.35792,175.27474 710.97404,167.96892 734.01232,161.85123 756.09178,152.97612 756.09178,152.97612 737.23222,167.7659 737.23222,167.7659 z"
         id="path3319"
         style="fill:#ffff00" />
    </g>
  </g>
</svg>
