<?xml version="1.0" encoding="utf-8"?>
<!-- Generator: Adobe Illustrator 16.0.0, SVG Export Plug-In . SVG Version: 6.00 Build 0)  -->
<!DOCTYPE svg PUBLIC "-//W3C//DTD SVG 1.1//EN" "http://www.w3.org/Graphics/SVG/1.1/DTD/svg11.dtd">
<svg version="1.1" id="Layer_1" xmlns="http://www.w3.org/2000/svg" xmlns:xlink="http://www.w3.org/1999/xlink" x="0px" y="0px"
	 width="50px" height="50px" viewBox="0 0 50 50" enable-background="new 0 0 50 50" xml:space="preserve">
<g>
	<circle fill="#FFFFF9" cx="25.035" cy="25" r="25"/>
	<g>
		<path fill="#F15757" d="M16.965,43.879c0.87,0,1.351,0,1.611,0c0.055,0,0.102,0,0.138,0c0.114,0,0.148,0,0.139,0
			c0.261,0,0.74,0,1.611,0c0-2.366,1.408-6.853-0.875-8.357v-17.16c-0.609-0.217-1.196-0.431-1.749-0.637v17.797
			C15.557,37.026,16.965,41.513,16.965,43.879z"/>
		<path fill="#3E3E3F" d="M37.527,8.893c-1.749,0-23.616,6.122-23.616,6.997c0,0.276,1.66,0.989,3.929,1.835l0,0
			c0.553,0.206,1.14,0.419,1.749,0.637l0,0c1.845,0.657,3.881,1.348,5.693,1.948c0,1.508,0,3.295,0,5.201
			c3.498-3.498,12.245-3.498,12.245-3.498s8.747,0,12.245,3.498c0-1.469,0-2.864,0-4.118c-0.561-3.877-2.011-7.465-4.137-10.553
			C41.594,9.735,38.176,8.893,37.527,8.893z"/>
		<path fill="#3E3E3F" d="M19.589,18.361c-0.609-0.218-1.196-0.431-1.749-0.637l0,0C18.393,17.931,18.979,18.145,19.589,18.361
			L19.589,18.361z"/>
	</g>
</g>
</svg>
