<?xml version="1.0" encoding="utf-8"?>
<!-- Generator: Adobe Illustrator 16.0.0, SVG Export Plug-In . SVG Version: 6.00 Build 0)  -->
<!DOCTYPE svg PUBLIC "-//W3C//DTD SVG 1.1//EN" "http://www.w3.org/Graphics/SVG/1.1/DTD/svg11.dtd">
<svg version="1.1" id="Layer_1" xmlns="http://www.w3.org/2000/svg" xmlns:xlink="http://www.w3.org/1999/xlink" x="0px" y="0px"
	 width="50px" height="50px" viewBox="0 0 50 50" enable-background="new 0 0 50 50" xml:space="preserve">
<g>
	<circle fill="#FFFFF9" cx="25.035" cy="25" r="25"/>
	<g>
		<path fill-rule="evenodd" clip-rule="evenodd" fill="#5394A9" d="M12.004,23.641H9.759v6.046h2.073l1.171-0.14l0.151-0.063
			l0.149-0.063l0.129-0.076l0.14-0.063l0.107-0.097l0.118-0.084l0.043-0.054l0.054-0.043l0.044-0.054l0.053-0.043l0.064-0.117
			l0.032-0.063l0.043-0.054l0.055-0.127l0.021-0.064v-0.021l0.011-0.011l0.021-0.021v-0.043v-0.021l0.011-0.01l0.021-0.065v-0.042
			v-0.021l0.012-0.011l0.021-0.063l0.012-0.149l0.021-0.148l-0.032-0.268l-0.054-0.246l-0.054-0.115l-0.043-0.097l-0.118-0.181
			l-0.161-0.16l-0.096-0.076l-0.088-0.053l-0.117-0.064l-0.107-0.041l-0.247-0.076l0.161-0.127l0.15-0.128l0.021-0.043l0.012-0.021
			l0.021-0.011l0.065-0.063l0.117-0.149l0.075-0.171l0.022-0.096l0.031-0.086l0.032-0.191l0.012-0.106v-0.054l0.01-0.043
			l-0.021-0.191l-0.032-0.192L13.82,24.61l-0.086-0.17l-0.141-0.191l-0.149-0.16l-0.194-0.14l-0.204-0.117L12.004,23.641
			L12.004,23.641L12.004,23.641L12.004,23.641z M11.929,24.59l0.56,0.095l0.086,0.043l0.086,0.063l0.075,0.064l0.063,0.086
			l0.044,0.084l0.031,0.097l0.022,0.106l0.011,0.128l-0.011,0.043v0.054l-0.022,0.096l-0.031,0.085l-0.021,0.043l-0.012,0.021v0.033
			l-0.021,0.01l-0.01,0.021l-0.022,0.043l-0.063,0.074l-0.075,0.064l-0.076,0.064l-0.687,0.148h-1.042V24.59H11.929L11.929,24.59
			L11.929,24.59L11.929,24.59z M10.812,27.073h1.31l0.709,0.096l0.098,0.055l0.086,0.063l0.074,0.074l0.065,0.085l0.043,0.086
			l0.043,0.106l0.021,0.106l0.011,0.128l-0.011,0.021v0.033v0.063l-0.021,0.117l-0.043,0.096l-0.043,0.107l-0.065,0.085
			l-0.074,0.085l-0.086,0.064h-0.021h-0.011v0.01l-0.022,0.022l-0.043,0.042l-0.784,0.129h-1.234V27.073L10.812,27.073
			L10.812,27.073z"/>
		<polygon fill-rule="evenodd" clip-rule="evenodd" fill="#5394A9" points="20.425,29.687 21.477,29.687 21.477,23.641 
			20.425,23.641 20.425,29.687 20.425,29.687 		"/>
		<polygon fill-rule="evenodd" clip-rule="evenodd" fill="#5394A9" points="27.976,29.687 29.027,29.687 29.027,23.641 
			27.976,23.641 27.976,29.687 27.976,29.687 		"/>
		<polygon fill-rule="evenodd" clip-rule="evenodd" fill="#5394A9" points="34.087,23.938 33.335,23.694 32.379,23.598 
			32.132,23.598 31.907,23.618 31.691,23.651 31.498,23.704 31.305,23.758 31.133,23.832 30.962,23.918 30.821,24.035 
			30.682,24.142 30.563,24.27 30.457,24.397 30.382,24.558 30.306,24.707 30.263,24.888 30.23,25.068 30.22,25.282 30.22,25.463 
			30.253,25.634 30.285,25.794 30.349,25.954 30.402,26.082 30.489,26.209 30.586,26.316 30.703,26.423 30.929,26.583 
			31.197,26.743 31.466,26.86 31.777,26.978 32.852,27.394 32.947,27.446 33.045,27.521 33.195,27.681 33.248,27.767 33.292,27.862 
			33.335,28.086 33.313,28.171 33.292,28.268 33.271,28.299 33.26,28.342 33.228,28.428 33.162,28.491 33.099,28.555 33.056,28.577 
			33.033,28.588 33.023,28.608 32.947,28.672 32.12,28.865 31.164,28.715 30.939,28.629 30.758,28.555 30.596,28.471 30.457,28.385 
			30.026,29.227 30.188,29.323 30.392,29.43 30.606,29.515 30.854,29.611 32.067,29.76 32.325,29.749 32.572,29.729 32.798,29.687 
			32.905,29.653 33.023,29.632 33.119,29.59 33.228,29.558 33.421,29.483 33.506,29.43 33.604,29.387 33.775,29.28 33.84,29.206 
			33.914,29.143 34.044,29.003 34.15,28.854 34.193,28.769 34.216,28.726 34.227,28.705 34.247,28.694 34.247,28.662 34.259,28.641 
			34.279,28.598 34.322,28.514 34.345,28.417 34.376,28.331 34.408,28.14 34.431,27.947 34.408,27.756 34.388,27.585 34.345,27.425 
			34.291,27.287 34.216,27.138 34.141,27.021 34.044,26.903 33.946,26.807 33.699,26.626 33.442,26.476 33.162,26.338 
			32.872,26.231 31.799,25.814 31.681,25.751 31.585,25.688 31.498,25.613 31.444,25.539 31.381,25.442 31.348,25.346 
			31.315,25.239 31.315,25.143 31.326,24.984 31.391,24.845 31.477,24.728 31.628,24.632 32.357,24.493 32.572,24.493 
			32.798,24.525 33.013,24.558 33.238,24.61 33.442,24.664 33.656,24.738 34.065,24.919 34.087,23.938 34.087,23.938 		"/>
		<polygon fill-rule="evenodd" clip-rule="evenodd" fill="#5394A9" points="36.429,26.114 36.429,23.641 35.375,23.641 
			35.375,29.687 36.429,29.687 36.429,27.073 39.37,27.073 39.37,29.687 40.423,29.687 40.423,23.641 39.37,23.641 39.37,26.114 
			36.429,26.114 36.429,26.114 		"/>
		<polygon fill-rule="evenodd" clip-rule="evenodd" fill="#5394A9" points="13.433,35.709 12.907,35.901 12.176,35.998 
			11.951,35.976 11.746,35.944 11.542,35.891 11.371,35.826 11.199,35.73 11.048,35.624 10.898,35.507 10.78,35.369 10.651,35.198 
			10.554,35.038 10.468,34.856 10.415,34.675 10.351,34.474 10.318,34.271 10.297,34.057 10.297,33.843 10.297,33.608 
			10.329,33.396 10.425,33.001 10.49,32.81 10.586,32.639 10.683,32.469 10.812,32.318 10.931,32.17 11.07,32.053 11.221,31.935 
			11.393,31.86 11.564,31.786 11.757,31.732 11.951,31.7 12.176,31.69 12.907,31.786 13.433,31.988 13.755,31.114 13.562,31.019 
			13.368,30.944 13.164,30.88 12.96,30.837 12.735,30.794 12.509,30.773 12.273,30.751 12.047,30.751 11.704,30.763 11.393,30.805 
			11.103,30.88 10.834,30.987 10.576,31.114 10.351,31.273 10.135,31.456 9.953,31.669 9.771,31.882 9.62,32.127 9.48,32.372 
			9.383,32.649 9.298,32.916 9.244,33.215 9.212,33.513 9.201,33.843 9.212,34.174 9.244,34.505 9.298,34.814 9.33,34.952 
			9.383,35.102 9.48,35.369 9.62,35.613 9.771,35.848 9.953,36.072 10.135,36.253 10.351,36.436 10.576,36.573 10.834,36.701 
			11.103,36.786 11.393,36.861 11.704,36.903 12.047,36.936 13.755,36.573 13.433,35.709 13.433,35.709 		"/>
		<polygon fill-rule="evenodd" clip-rule="evenodd" fill="#5394A9" points="36.567,31.114 35.772,30.848 34.87,30.751 
			34.526,30.763 34.216,30.805 33.925,30.88 33.656,30.987 33.399,31.114 33.174,31.273 32.958,31.456 32.776,31.669 32.594,31.882 
			32.433,32.127 32.292,32.372 32.196,32.649 32.11,32.916 32.057,33.215 32.024,33.513 32.014,33.843 32.024,34.174 32.057,34.505 
			32.11,34.814 32.143,34.952 32.196,35.102 32.292,35.369 32.433,35.613 32.594,35.848 32.776,36.072 32.958,36.253 33.174,36.436 
			33.399,36.573 33.656,36.701 33.925,36.786 34.216,36.861 34.526,36.903 34.87,36.936 35.096,36.914 35.332,36.894 35.548,36.861 
			35.654,36.84 35.676,36.829 35.708,36.829 35.772,36.829 35.815,36.808 35.838,36.797 35.869,36.797 35.977,36.776 36.02,36.754 
			36.041,36.744 36.073,36.744 36.182,36.723 36.374,36.647 36.567,36.573 36.256,35.709 35.72,35.901 34.988,35.998 34.764,35.976 
			34.56,35.944 34.355,35.891 34.184,35.826 34.012,35.73 33.861,35.624 33.722,35.507 33.604,35.369 33.475,35.198 33.377,35.038 
			33.292,34.856 33.228,34.675 33.162,34.474 33.131,34.271 33.109,34.057 33.109,33.843 33.109,33.608 33.142,33.396 
			33.238,33.001 33.303,32.81 33.399,32.639 33.496,32.469 33.624,32.318 33.742,32.17 33.883,32.053 34.032,31.935 34.204,31.86 
			34.376,31.786 34.569,31.732 34.764,31.7 34.988,31.69 35.72,31.786 36.256,31.988 36.567,31.114 36.567,31.114 		"/>
		<path fill-rule="evenodd" clip-rule="evenodd" fill="#5394A9" d="M18.921,36.041l0.033-0.065l0.042-0.054l0.086-0.105l0.162-0.234
			l0.128-0.256l0.021-0.075l0.032-0.064l0.065-0.127l0.031-0.149l0.044-0.139l0.063-0.298l0.032-0.32l0.011-0.171l0.021-0.16
			l-0.021-0.353l-0.031-0.319l-0.065-0.309l-0.075-0.289l-0.118-0.275l-0.129-0.246l-0.161-0.234l-0.172-0.203l-0.214-0.202
			l-0.119-0.096l-0.107-0.074l-0.235-0.14l-0.247-0.117l-0.27-0.095l-0.149-0.043l-0.141-0.022l-0.301-0.042l-0.311-0.012
			l-0.333,0.012l-0.302,0.042l-0.289,0.075l-0.259,0.096l-0.257,0.117l-0.226,0.149l-0.227,0.181l-0.182,0.203l-0.192,0.203
			l-0.163,0.245l-0.139,0.244l-0.107,0.277l-0.097,0.277l-0.054,0.31l-0.043,0.309l-0.011,0.352l0.011,0.331l0.011,0.16l0.032,0.171
			l0.054,0.31l0.097,0.287l0.097,0.268l0.14,0.244l0.161,0.234l0.183,0.225l0.193,0.181l0.226,0.171l0.226,0.139l0.258,0.128
			l0.269,0.086l0.289,0.074l0.302,0.032l0.333,0.031l0.149-0.021l0.011-0.011h0.021h0.043h0.086l0.301-0.043l0.141-0.043
			l0.149-0.031l0.129-0.043l0.141-0.043l0.118-0.063l0.129-0.064l0.235-0.139l0.107-0.097l0.119-0.084L18.921,36.041L18.921,36.041
			L18.921,36.041L18.921,36.041z M18.094,32.244l0.108,0.139l0.096,0.17l0.086,0.171l0.075,0.203l0.054,0.192l0.043,0.224
			l0.022,0.224l0.021,0.256l-0.011,0.234l-0.021,0.234l-0.044,0.214l-0.054,0.213l-0.075,0.192l-0.086,0.182l-0.106,0.159
			l-0.108,0.16l-0.139,0.128l-0.129,0.117l-0.151,0.096l-0.149,0.096l-0.173,0.054l-0.086,0.021l-0.043,0.012l-0.032,0.021h-0.054
			l-0.043,0.01l-0.086,0.021h-0.096l-0.086,0.012l-0.204-0.012l-0.184-0.031l-0.172-0.054l-0.161-0.054l-0.16-0.096l-0.141-0.096
			l-0.128-0.117l-0.119-0.128l-0.129-0.16l-0.096-0.159l-0.086-0.182l-0.065-0.182l-0.063-0.214l-0.043-0.212l-0.032-0.224v-0.236
			v-0.255l0.032-0.234l0.043-0.224l0.063-0.203l0.065-0.203l0.086-0.171l0.096-0.17l0.129-0.139l0.119-0.138l0.128-0.118
			l0.141-0.106l0.16-0.075l0.161-0.074l0.172-0.032l0.184-0.031h0.204h0.182l0.183,0.031l0.161,0.032l0.173,0.074l0.149,0.075
			l0.151,0.106l0.129,0.118L18.094,32.244L18.094,32.244L18.094,32.244z"/>
		<polygon fill-rule="evenodd" clip-rule="evenodd" fill="#5394A9" points="25.344,30.794 24.302,30.794 24.302,34.591 
			24.28,34.761 24.259,34.932 24.216,35.08 24.184,35.229 24.12,35.347 24.055,35.464 24.012,35.507 23.991,35.527 23.979,35.527 
			23.979,35.539 23.979,35.561 23.937,35.604 23.916,35.624 23.904,35.624 23.904,35.635 23.904,35.656 23.798,35.73 23.7,35.795 
			23.636,35.816 23.615,35.816 23.604,35.816 23.604,35.826 23.583,35.848 23.518,35.869 23.497,35.869 23.485,35.869 
			23.485,35.881 23.465,35.901 23.422,35.901 23.399,35.901 23.389,35.901 23.389,35.912 23.324,35.934 23.185,35.955 
			23.035,35.965 22.885,35.976 22.713,35.965 22.562,35.955 22.423,35.934 22.294,35.901 22.047,35.795 21.938,35.73 21.843,35.656 
			21.746,35.561 21.671,35.464 21.607,35.347 21.562,35.229 21.52,35.08 21.499,34.932 21.477,34.761 21.477,34.591 21.477,30.794 
			20.425,30.794 20.425,34.569 20.425,34.856 20.457,35.123 20.511,35.369 20.586,35.613 20.661,35.816 20.779,36.019 
			20.919,36.201 21.08,36.359 21.231,36.477 21.413,36.594 21.607,36.69 21.832,36.776 22.057,36.829 22.314,36.871 22.573,36.903 
			22.863,36.914 23.142,36.903 23.411,36.883 23.658,36.84 23.894,36.786 24.108,36.701 24.151,36.669 24.206,36.647 24.312,36.605 
			24.398,36.542 24.442,36.51 24.496,36.488 24.668,36.359 24.731,36.275 24.764,36.232 24.807,36.201 24.872,36.104 24.946,36.019 
			25.001,35.912 25.065,35.816 25.107,35.709 25.129,35.656 25.162,35.613 25.193,35.486 25.236,35.369 25.258,35.24 25.269,35.177 
			25.291,35.123 25.291,35.049 25.301,34.985 25.322,34.856 25.344,34.569 25.344,30.794 25.344,30.794 		"/>
		<polygon fill-rule="evenodd" clip-rule="evenodd" fill="#5394A9" points="30.188,30.794 30.188,34.11 30.22,34.91 30.188,34.91 
			27.362,30.794 26.246,30.794 26.246,36.84 27.299,36.84 27.299,33.236 27.267,32.446 30.316,36.84 31.219,36.84 31.219,30.794 
			30.188,30.794 30.188,30.794 		"/>
		<polygon fill-rule="evenodd" clip-rule="evenodd" fill="#5394A9" points="38.426,36.84 38.426,30.794 37.373,30.794 37.373,36.84 
			38.426,36.84 38.426,36.84 		"/>
		<polygon fill-rule="evenodd" clip-rule="evenodd" fill="#5394A9" points="39.37,36.84 42.786,36.84 42.786,35.901 40.423,35.901 
			40.423,30.794 39.37,30.794 39.37,36.84 39.37,36.84 		"/>
		<polygon fill-rule="evenodd" clip-rule="evenodd" fill="#5394A9" points="27.202,24.59 27.202,23.641 22.251,23.641 22.251,24.59 
			24.206,24.59 24.206,29.664 25.248,29.664 25.248,24.59 27.202,24.59 27.202,24.59 		"/>
		<path fill-rule="evenodd" clip-rule="evenodd" fill="#5394A9" d="M18.943,26.381l0.063-0.118l0.063-0.106l0.045-0.117l0.053-0.106
			v-0.042v-0.022v-0.011h0.011l0.022-0.063l0.032-0.128v-0.075l0.011-0.063v-0.074l0.01-0.064l-0.01-0.182l-0.022-0.171
			l-0.032-0.159l-0.043-0.149l-0.076-0.149l-0.084-0.138l-0.098-0.139l-0.117-0.129l-0.141-0.127l-0.161-0.107l-0.182-0.096
			l-0.194-0.064l-0.225-0.063l-0.237-0.043l-0.269-0.031h-0.269h-2.051v6.023h1.052v-2.325h0.946l0.129,0.012l0.139,0.096
			l0.141,0.16L17.6,27.83l0.924,1.834h1.192l-1.062-2.058l-0.161-0.268l-0.129-0.191l-0.13-0.139l-0.097-0.074l0.022-0.021v-0.01
			h0.01h0.022l0.063-0.022l0.118-0.042l0.107-0.064l0.107-0.054l0.086-0.085l0.043-0.043l0.022-0.021v-0.011h0.01h0.022l0.086-0.096
			L18.943,26.381L18.943,26.381L18.943,26.381L18.943,26.381z M17.965,24.855l0.097,0.118l0.087,0.148l0.043,0.16l0.021,0.202
			l-0.01,0.086l-0.011,0.043v0.053l-0.032,0.085l-0.022,0.097l-0.086,0.149l-0.053,0.063l-0.021,0.011l-0.012,0.021l-0.021,0.043
			l-0.087,0.054l-0.042,0.021l-0.022,0.012l-0.01,0.021l-0.098,0.043L17.6,26.326l-0.118,0.022l-0.106,0.032l-0.129,0.011
			l-0.129,0.01h-1.021V24.59h1.064l0.247,0.009l0.215,0.055l0.182,0.074l0.075,0.054L17.965,24.855L17.965,24.855L17.965,24.855z"/>
		<polygon fill-rule="evenodd" clip-rule="evenodd" fill="#5394A9" points="21.616,7.631 21.271,7.65 20.955,7.699 20.648,7.777 
			20.362,7.886 20.075,8.013 19.818,8.17 19.571,8.347 19.354,8.562 19.138,8.778 18.949,9.022 18.792,9.278 18.662,9.562 
			18.555,9.848 18.485,10.151 18.436,10.465 18.416,10.808 18.416,10.965 18.436,11.131 18.485,11.446 18.555,11.739 18.662,12.034 
			18.792,12.299 18.86,12.426 18.949,12.563 19.138,12.809 19.235,12.926 19.354,13.054 19.571,13.249 19.818,13.437 20.075,13.593 
			20.362,13.73 20.648,13.829 20.955,13.906 21.271,13.956 21.616,13.995 21.774,13.976 21.942,13.956 22.259,13.906 22.556,13.829 
			22.852,13.73 22.91,13.691 22.94,13.672 22.98,13.662 23.119,13.593 23.247,13.515 23.386,13.437 23.503,13.338 23.562,13.289 
			23.632,13.249 23.75,13.152 23.879,13.054 23.978,12.926 24.076,12.809 24.115,12.74 24.166,12.682 24.264,12.563 24.333,12.426 
			24.412,12.299 24.481,12.161 24.491,12.122 24.512,12.093 24.551,12.034 24.648,11.739 24.728,11.446 24.769,11.131 
			24.769,11.044 24.778,10.965 24.797,10.808 24.769,10.465 24.728,10.151 24.648,9.848 24.551,9.562 24.412,9.278 24.264,9.022 
			24.076,8.778 23.879,8.562 23.75,8.444 23.632,8.347 23.503,8.249 23.386,8.17 23.247,8.082 23.119,8.013 22.852,7.886 
			22.556,7.777 22.259,7.699 21.942,7.65 21.774,7.631 21.616,7.631 21.616,7.631 		"/>
		<polygon fill-rule="evenodd" clip-rule="evenodd" fill="#5394A9" points="31.653,10.808 31.623,10.465 31.574,10.151 
			31.495,9.848 31.407,9.562 31.268,9.278 31.12,9.022 30.932,8.778 30.734,8.562 30.606,8.444 30.488,8.347 30.359,8.249 
			30.24,8.17 30.103,8.082 29.974,8.013 29.707,7.886 29.411,7.777 29.114,7.699 28.799,7.65 28.63,7.631 28.473,7.631 28.127,7.65 
			27.811,7.699 27.505,7.777 27.218,7.886 26.932,8.013 26.674,8.17 26.428,8.347 26.21,8.562 25.993,8.778 25.806,9.022 
			25.646,9.278 25.519,9.562 25.41,9.848 25.331,10.151 25.281,10.465 25.262,10.808 25.262,10.965 25.281,11.131 25.331,11.446 
			25.41,11.739 25.519,12.034 25.646,12.299 25.716,12.426 25.806,12.563 25.993,12.809 26.092,12.926 26.21,13.054 26.428,13.249 
			26.674,13.437 26.932,13.593 27.218,13.73 27.505,13.829 27.811,13.906 28.127,13.956 28.473,13.995 28.63,13.976 28.799,13.956 
			29.114,13.906 29.411,13.829 29.707,13.73 29.767,13.691 29.796,13.672 29.836,13.662 29.974,13.593 30.103,13.515 30.24,13.437 
			30.359,13.338 30.419,13.289 30.488,13.249 30.606,13.152 30.734,13.054 30.834,12.926 30.932,12.809 30.972,12.74 31.021,12.682 
			31.12,12.563 31.189,12.426 31.268,12.299 31.338,12.161 31.347,12.122 31.366,12.093 31.407,12.034 31.495,11.739 31.574,11.446 
			31.623,11.131 31.623,11.044 31.633,10.965 31.653,10.808 31.653,10.808 		"/>
		<polygon fill-rule="evenodd" clip-rule="evenodd" fill="#5394A9" points="24.797,17.613 24.769,17.271 24.728,16.957 
			24.648,16.652 24.551,16.368 24.412,16.085 24.264,15.829 24.076,15.584 23.879,15.367 23.75,15.25 23.632,15.153 23.386,14.966 
			23.247,14.878 23.119,14.81 22.852,14.682 22.556,14.573 22.259,14.505 21.942,14.456 21.774,14.436 21.616,14.436 21.271,14.456 
			20.955,14.505 20.648,14.573 20.362,14.682 20.075,14.81 19.818,14.966 19.571,15.153 19.354,15.367 19.138,15.584 18.949,15.829 
			18.792,16.085 18.662,16.368 18.555,16.652 18.485,16.957 18.436,17.271 18.416,17.613 18.416,17.771 18.436,17.938 
			18.485,18.252 18.555,18.545 18.662,18.84 18.792,19.104 18.86,19.232 18.949,19.369 19.138,19.614 19.235,19.731 19.354,19.86 
			19.571,20.056 19.818,20.242 20.075,20.39 20.362,20.525 20.648,20.624 20.955,20.703 21.271,20.742 21.616,20.771 21.774,20.752 
			21.854,20.742 21.942,20.742 22.259,20.703 22.556,20.624 22.852,20.525 22.91,20.487 22.94,20.467 22.98,20.458 23.119,20.39 
			23.247,20.311 23.386,20.242 23.503,20.144 23.562,20.095 23.632,20.056 23.75,19.958 23.879,19.86 23.978,19.731 24.076,19.614 
			24.115,19.546 24.166,19.486 24.264,19.369 24.333,19.232 24.412,19.104 24.481,18.967 24.491,18.929 24.512,18.898 24.551,18.84 
			24.648,18.545 24.728,18.252 24.769,17.938 24.769,17.85 24.778,17.771 24.797,17.613 24.797,17.613 		"/>
		<polygon fill-rule="evenodd" clip-rule="evenodd" fill="#5394A9" points="31.653,17.613 31.623,17.271 31.574,16.957 
			31.495,16.652 31.407,16.368 31.268,16.085 31.12,15.829 30.932,15.584 30.734,15.367 30.606,15.25 30.488,15.153 30.24,14.966 
			30.103,14.878 29.974,14.81 29.707,14.682 29.411,14.573 29.114,14.505 28.799,14.456 28.63,14.436 28.473,14.436 28.127,14.456 
			27.811,14.505 27.505,14.573 27.218,14.682 26.932,14.81 26.674,14.966 26.428,15.153 26.21,15.367 25.993,15.584 25.806,15.829 
			25.646,16.085 25.519,16.368 25.41,16.652 25.331,16.957 25.281,17.271 25.262,17.613 25.262,17.771 25.281,17.938 25.331,18.252 
			25.41,18.545 25.519,18.84 25.646,19.104 25.716,19.232 25.806,19.369 25.993,19.614 26.092,19.731 26.21,19.86 26.428,20.056 
			26.674,20.242 26.932,20.39 27.218,20.525 27.505,20.624 27.811,20.703 28.127,20.742 28.473,20.771 28.63,20.752 28.709,20.742 
			28.799,20.742 29.114,20.703 29.411,20.624 29.707,20.525 29.767,20.487 29.796,20.467 29.836,20.458 29.974,20.39 30.103,20.311 
			30.24,20.242 30.359,20.144 30.419,20.095 30.488,20.056 30.606,19.958 30.734,19.86 30.834,19.731 30.932,19.614 30.972,19.546 
			31.021,19.486 31.12,19.369 31.189,19.232 31.268,19.104 31.338,18.967 31.347,18.929 31.366,18.898 31.407,18.84 31.495,18.545 
			31.574,18.252 31.623,17.938 31.623,17.85 31.633,17.771 31.653,17.613 31.653,17.613 		"/>
	</g>
</g>
</svg>
