<?xml version="1.0" encoding="utf-8"?>
<!-- Generator: Adobe Illustrator 16.0.0, SVG Export Plug-In . SVG Version: 6.00 Build 0)  -->
<!DOCTYPE svg PUBLIC "-//W3C//DTD SVG 1.1//EN" "http://www.w3.org/Graphics/SVG/1.1/DTD/svg11.dtd">
<svg version="1.1" id="Layer_1" xmlns="http://www.w3.org/2000/svg" xmlns:xlink="http://www.w3.org/1999/xlink" x="0px" y="0px"
	 width="50px" height="50px" viewBox="0 0 50 50" enable-background="new 0 0 50 50" xml:space="preserve">
<g>
	<circle fill="#FFFFF9" cx="25" cy="25" r="25"/>
	<g>
		<g>
			<path fill="#F7921E" d="M40,13.278v24.375c0,1.552-1.261,2.812-2.812,2.812H12.812c-1.552,0-2.812-1.261-2.812-2.812V13.278
				c0-1.552,1.261-2.812,2.812-2.812h24.375C38.739,10.466,40,11.727,40,13.278z"/>
		</g>
		<g>
			<path fill="#DF7126" d="M40,14.661v22.992c0,1.552-1.261,2.812-2.812,2.812H12.812c-1.552,0-2.812-1.261-2.812-2.812v-6.44
				l5.255-3.38l7.974,1.406l7.279-4.852l4.2-7.458L40,14.661z"/>
		</g>
		<g>
			<path fill="#FBA919" d="M40,18.435v-0.938h-3.281v-1.875h-0.938v1.875h-2.344v0.938h2.344v2.812h-2.812v-1.406h-0.938v1.406
				h-0.469v0.938h0.469v2.812h-2.812l0,0h-0.938l0,0l0,0v0.938l0,0v2.812h-2.812V27.81h-0.938v0.938h-2.812v-0.469h-0.938v0.469
				h-2.812V27.81h-0.938v0.938h-2.812v-0.469h-0.938v0.469H12.24v0.938h1.041v2.812H10v0.938h3.281v2.812H10v0.938h3.281v3.281
				h0.938v-3.281h2.812v3.281h0.938v-3.281h2.812v3.281h0.938v-3.281h2.812v3.281h0.938v-3.281h2.812v3.281h0.938v-3.281h2.812
				v3.281h0.938v-3.281h2.812v3.281h0.938v-3.281H40v-0.938h-3.281v-2.812H40v-0.938h-3.281v-2.812H40v-0.938h-3.281v-2.812H40
				v-0.938h-3.281v-2.812H40v-0.938h-3.281v-2.812H40z M29.219,25.935h2.812v2.812h-2.812V25.935z M32.031,29.685v2.812h-2.812
				v-2.812H32.031z M28.281,29.685v2.812h-2.812v-2.812H28.281z M24.531,29.685v2.812h-2.812v-2.812H24.531z M20.781,29.685v2.812
				h-2.812v-2.812H20.781z M14.219,29.685h2.812v2.812h-2.812V29.685z M14.219,36.247v-2.812h2.812v2.812H14.219z M17.969,36.247
				v-2.812h2.812v2.812H17.969z M21.719,36.247v-2.812h2.812v2.812H21.719z M25.469,36.247v-2.812h2.812v2.812H25.469z
				 M29.219,36.247v-2.812h2.812v2.812H29.219z M35.781,36.247h-2.812v-2.812h2.812V36.247z M35.781,32.497h-2.812v-2.812h2.812
				V32.497z M35.781,28.747h-2.812v-2.812h2.812V28.747z M35.781,24.997h-2.812v-2.812h2.812V24.997z"/>
		</g>
		<g>
			<path fill="#FFFFFF" d="M40,13.639l-4.995,2.139c-1.254-0.633-2.549,0.764-1.835,1.965l-2.772,4.936
				c-1.003-0.174-1.853,0.729-1.601,1.726l-4.831,3.223c-0.235-0.177-0.524-0.285-0.841-0.285c-0.524,0-0.977,0.291-1.219,0.717
				l-5.367-0.947c-0.318-1.92-3.185-1.301-2.749,0.552L10,30.097v1.116l4.299-2.766c0.695,0.54,1.658,0.319,2.076-0.417l5.367,0.946
				c0.11,0.667,0.686,1.177,1.383,1.177c0.887,0,1.593-0.828,1.358-1.751l4.833-3.221c1.338,1.003,2.999-0.779,1.895-2.043
				l2.697-4.79c1.154,0.408,2.21-0.729,1.772-1.836L40,14.661V13.639z"/>
		</g>
		<g>
			<polygon fill="#FFFFFF" points="26.875,22.185 23.125,24.997 19.375,22.185 19.375,13.747 26.875,13.747 			"/>
		</g>
		<g>
			<g>
				<path fill="#FBA919" d="M23.142,15.693c0.206,0,0.37,0.164,0.37,0.37v0.1c0.383,0.057,0.725,0.17,1.03,0.341
					c0.136,0.078,0.256,0.214,0.256,0.427c0,0.271-0.213,0.477-0.483,0.477c-0.085,0-0.171-0.021-0.249-0.064
					c-0.199-0.106-0.397-0.191-0.59-0.241v1.08c1.081,0.292,1.543,0.732,1.543,1.529c0,0.796-0.611,1.308-1.507,1.407v0.377
					c0,0.206-0.164,0.37-0.37,0.37s-0.37-0.164-0.37-0.37v-0.384c-0.504-0.064-0.98-0.242-1.4-0.498
					c-0.149-0.092-0.241-0.234-0.241-0.427c0-0.277,0.213-0.483,0.49-0.483c0.092,0,0.192,0.036,0.277,0.093
					c0.298,0.191,0.583,0.327,0.91,0.398v-1.131c-1.023-0.277-1.528-0.668-1.528-1.515c0-0.781,0.597-1.308,1.492-1.4v-0.085
					C22.771,15.857,22.936,15.693,23.142,15.693z M22.808,17.997v-0.96c-0.342,0.05-0.491,0.221-0.491,0.448
					C22.316,17.706,22.416,17.855,22.808,17.997z M23.476,19.241v0.988c0.334-0.05,0.505-0.206,0.505-0.462
					C23.98,19.533,23.859,19.377,23.476,19.241z"/>
			</g>
		</g>
	</g>
</g>
</svg>
