<?xml version="1.0" encoding="utf-8"?>
<!-- Generator: Adobe Illustrator 16.0.0, SVG Export Plug-In . SVG Version: 6.00 Build 0)  -->
<!DOCTYPE svg PUBLIC "-//W3C//DTD SVG 1.1//EN" "http://www.w3.org/Graphics/SVG/1.1/DTD/svg11.dtd">
<svg version="1.1" id="Layer_1" xmlns="http://www.w3.org/2000/svg" xmlns:xlink="http://www.w3.org/1999/xlink" x="0px" y="0px"
	 width="50px" height="50px" viewBox="0 0 50 50" enable-background="new 0 0 50 50" xml:space="preserve">
<g>
	<path fill="#FFFFF9" d="M49.975,25c0,13.807-11.192,25.001-25,25.001s-25-11.194-25-25.001c0-13.805,11.192-25,25-25
		S49.975,11.195,49.975,25z"/>
	<polygon fill="#363933" points="16.6,11.966 19.222,11.966 17.874,16.077 	"/>
	<polygon fill="#363933" points="12.346,13.029 13.338,17.141 10.076,14.376 	"/>
	<polygon fill="#363933" points="23.476,13.029 25.744,14.306 22.555,17.212 	"/>
	<polygon fill="#77C2B3" points="6.886,17.496 9.863,20.686 5.682,19.764 	"/>
	<polygon fill="#363933" points="4.547,23.946 8.659,25.294 4.547,26.641 	"/>
	<polygon fill="#363933" points="9.863,29.902 7.028,33.092 5.682,30.895 	"/>
	<polygon fill="#363933" points="13.196,33.305 12.346,37.559 10.076,36.212 	"/>
	<polygon fill="#363933" points="22.482,33.305 25.674,36.212 23.476,37.559 	"/>
	<polygon fill="#363933" points="19.222,38.622 16.6,38.622 17.946,34.581 	"/>
	<path fill="#363933" d="M32.215,21.253l0.088,1.732l-0.119,0.006c-0.045-0.295-0.118-0.538-0.222-0.73s-0.254-0.362-0.449-0.509
		c-0.162-0.122-0.354-0.21-0.574-0.26c-0.221-0.052-0.512-0.076-0.878-0.076h-1.183v3.149h0.311c0.312,0,0.549-0.021,0.708-0.062
		c0.157-0.042,0.287-0.117,0.387-0.226c0.096-0.102,0.168-0.222,0.215-0.36c0.046-0.138,0.085-0.342,0.116-0.611l0.118,0.005
		l-0.021,2.814h-0.119c-0.031-0.27-0.076-0.486-0.137-0.651c-0.06-0.164-0.144-0.304-0.25-0.42
		c-0.104-0.112-0.238-0.193-0.402-0.246c-0.166-0.053-0.376-0.08-0.631-0.08h-0.295v1.203c0,0.479,0.013,0.828,0.036,1.048
		c0.024,0.218,0.07,0.401,0.14,0.548c0.117,0.253,0.296,0.438,0.535,0.555c0.239,0.116,0.555,0.176,0.947,0.176
		c0.414,0,0.76-0.054,1.038-0.16c0.279-0.107,0.507-0.272,0.682-0.496c0.124-0.15,0.226-0.322,0.303-0.515s0.148-0.446,0.215-0.762
		l0.118,0.006l-0.067,2.089h-6.162v-0.121c0.197-0.01,0.356-0.038,0.478-0.083c0.122-0.045,0.232-0.119,0.329-0.221
		c0.106-0.112,0.179-0.255,0.22-0.428c0.039-0.173,0.059-0.438,0.059-0.796v-3.869c0-0.356-0.02-0.622-0.059-0.795
		c-0.041-0.174-0.113-0.316-0.22-0.429c-0.094-0.102-0.201-0.175-0.323-0.221c-0.122-0.044-0.283-0.073-0.483-0.083v-0.121H32.215
		L32.215,21.253z"/>
	<g>
		<path fill="#363933" d="M21.158,26.858c-0.083,0.247-0.187,0.458-0.311,0.631c-0.18,0.25-0.43,0.443-0.754,0.581
			s-0.691,0.206-1.098,0.206c-0.813,0-1.466-0.274-1.958-0.823c-0.267-0.296-0.47-0.661-0.61-1.099
			c-0.139-0.438-0.209-0.929-0.209-1.475c0-0.642,0.104-1.215,0.307-1.718c0.142-0.358,0.325-0.677,0.551-0.955
			c0.225-0.28,0.467-0.494,0.727-0.644c0.297-0.171,0.646-0.256,1.049-0.256c0.268,0,0.508,0.042,0.723,0.125
			c0.214,0.084,0.421,0.217,0.62,0.401c0.264,0.243,0.465,0.511,0.604,0.803c0.079,0.163,0.181,0.41,0.306,0.743
			c0.021,0.053,0.052,0.129,0.091,0.229h0.123l-0.063-2.327h-0.129c-0.036,0.08-0.066,0.137-0.091,0.172
			c-0.058,0.072-0.131,0.109-0.219,0.109c-0.065,0-0.141-0.016-0.227-0.047l-0.438-0.141c-0.48-0.16-0.938-0.239-1.369-0.239
			c-0.453,0-0.905,0.073-1.355,0.221c-0.452,0.147-0.84,0.346-1.164,0.597c-0.421,0.325-0.748,0.757-0.984,1.294
			c-0.236,0.536-0.353,1.122-0.353,1.758c0,0.829,0.201,1.543,0.604,2.143c0.402,0.599,0.963,1.013,1.68,1.241
			c0.449,0.143,0.919,0.214,1.411,0.214c0.528,0,0.994-0.082,1.395-0.245c0.401-0.163,0.716-0.399,0.943-0.708
			c0.182-0.243,0.313-0.553,0.396-0.925C21.283,26.763,21.219,26.808,21.158,26.858z"/>
	</g>
	<path fill="#363933" d="M40.769,21.253v0.122c-0.177,0.011-0.321,0.039-0.433,0.085s-0.209,0.12-0.293,0.224
		c-0.103,0.119-0.17,0.269-0.202,0.445c-0.032,0.178-0.049,0.481-0.049,0.913v3.007c0,0.489,0.017,0.841,0.049,1.06
		c0.032,0.218,0.099,0.418,0.198,0.603c0.148,0.279,0.332,0.482,0.55,0.608c0.219,0.125,0.493,0.188,0.826,0.188
		c0.321,0,0.629-0.057,0.921-0.167c0.293-0.112,0.537-0.267,0.733-0.466c0.12-0.123,0.209-0.258,0.267-0.403
		c0.058-0.145,0.096-0.329,0.113-0.552c0.013-0.146,0.019-0.488,0.019-1.031v-2.968c0-0.365-0.018-0.635-0.054-0.808
		c-0.035-0.174-0.102-0.317-0.196-0.43c-0.087-0.104-0.186-0.178-0.295-0.224c-0.111-0.046-0.254-0.074-0.431-0.085v-0.122h2.143
		v0.122c-0.177,0.011-0.32,0.039-0.431,0.085c-0.109,0.046-0.208,0.12-0.294,0.224c-0.097,0.112-0.162,0.257-0.198,0.433
		c-0.036,0.175-0.054,0.443-0.054,0.805v3.351c0,0.495-0.033,0.861-0.1,1.098c-0.067,0.234-0.199,0.45-0.396,0.645
		c-0.453,0.447-1.099,0.669-1.938,0.669c-0.877,0-1.522-0.21-1.938-0.632c-0.27-0.27-0.43-0.623-0.483-1.062
		c-0.018-0.155-0.027-0.438-0.027-0.845v-3.223c0-0.365-0.018-0.635-0.051-0.808c-0.035-0.174-0.101-0.317-0.2-0.431
		c-0.084-0.103-0.181-0.177-0.291-0.223c-0.109-0.046-0.254-0.074-0.434-0.085v-0.122H40.769L40.769,21.253z"/>
</g>
</svg>
