<?xml version="1.0" encoding="utf-8"?>
<!-- Generator: Adobe Illustrator 16.0.0, SVG Export Plug-In . SVG Version: 6.00 Build 0)  -->
<!DOCTYPE svg PUBLIC "-//W3C//DTD SVG 1.1//EN" "http://www.w3.org/Graphics/SVG/1.1/DTD/svg11.dtd">
<svg version="1.1" id="Layer_1" xmlns="http://www.w3.org/2000/svg" xmlns:xlink="http://www.w3.org/1999/xlink" x="0px" y="0px"
	 width="50px" height="50px" viewBox="0 0 50 50" enable-background="new 0 0 50 50" xml:space="preserve">
<g>
	<path fill="#FFFFF9" d="M49.975,25c0,13.807-11.193,25.001-25,25.001c-13.808,0-25-11.194-25-25.001c0-13.805,11.192-25,25-25
		C38.781,0,49.975,11.195,49.975,25z"/>
	<g>
		<g>
			<path fill-rule="evenodd" clip-rule="evenodd" fill="#FFCD31" d="M17.438,26.861l1.191-2.712
				c-13.326,0.21-12.008,13.312-7.046,16.122l0.519-1.184C8.691,36.321,9.004,27.667,17.438,26.861z"/>
			<path fill-rule="evenodd" clip-rule="evenodd" fill="#FFCD31" d="M38.389,10.657l-0.518,1.181
				c3.41,2.769,3.095,11.427-5.34,12.229l-1.187,2.712C44.668,26.565,43.35,13.464,38.389,10.657z"/>
			<path fill-rule="evenodd" clip-rule="evenodd" fill="#231F20" d="M33.286,9.147c-8.501,0.086-8.748,9.111-9.823,15.014
				c-1.616,0.018-2.372-0.018-3.995-0.021l-1.173,2.673h4.781c-1.227,9.367-1.978,13.805-7.644,13.58
				c-1.06-0.121-1.954-0.423-2.694-0.847l-0.484,1.104c1.232,0.714,2.717,1.139,4.43,1.135c8.505-0.087,8.752-9.116,9.824-15.02
				c1.615-0.015,2.375,0.02,3.994,0.02l1.174-2.672h-4.781c1.225-9.366,1.977-13.801,7.643-13.573
				c1.061,0.121,1.957,0.419,2.695,0.844l0.486-1.104C36.484,9.564,34.998,9.138,33.286,9.147z"/>
		</g>
	</g>
</g>
</svg>
