<?xml version="1.0" encoding="utf-8"?>
<!-- Generator: Adobe Illustrator 16.0.0, SVG Export Plug-In . SVG Version: 6.00 Build 0)  -->
<!DOCTYPE svg PUBLIC "-//W3C//DTD SVG 1.1//EN" "http://www.w3.org/Graphics/SVG/1.1/DTD/svg11.dtd">
<svg version="1.1" id="Layer_1" xmlns="http://www.w3.org/2000/svg" xmlns:xlink="http://www.w3.org/1999/xlink" x="0px" y="0px"
	 width="50px" height="50px" viewBox="0 0 50 50" enable-background="new 0 0 50 50" xml:space="preserve">
<circle fill="#EFEFEF" cx="25" cy="25" r="25"/>
<g>
	<g>
		<polygon fill="#93D3C7" points="5.688,23.622 5.488,23.822 5.488,24.022 5.488,24.322 5.787,24.721 5.986,25.021 6.087,25.121 
			6.186,25.222 6.186,25.322 6.387,25.522 6.486,25.622 6.586,25.921 6.586,26.121 6.486,26.221 6.387,26.221 6.287,26.021 
			6.186,25.921 6.087,26.021 6.087,25.921 5.986,25.721 5.887,25.522 5.787,25.522 5.787,25.622 6.087,26.121 6.287,26.221 
			6.287,26.421 6.287,26.522 6.087,26.522 6.087,26.421 5.986,26.522 5.986,26.321 5.887,26.221 5.787,26.221 5.787,26.221 
			5.688,26.121 5.688,26.221 5.688,26.221 5.787,26.321 5.887,26.421 5.986,26.522 6.087,26.721 6.287,26.822 6.486,26.921 
			6.686,27.221 6.785,27.522 6.885,27.921 7.184,28.221 7.383,28.42 7.482,28.621 7.582,28.822 7.682,29.021 7.781,29.121 
			7.883,29.221 7.982,29.82 8.082,30.221 8.281,30.521 8.381,30.621 8.48,30.72 8.58,30.92 8.68,31.12 8.979,31.521 9.078,31.72 
			9.078,32.02 9.078,32.12 9.179,32.32 9.179,32.521 9.078,32.42 9.179,32.621 9.179,32.82 9.278,33.02 9.179,33.22 9.078,33.52 
			8.979,33.52 8.779,33.52 8.779,33.52 8.779,33.52 8.779,33.72 8.879,34.22 9.179,34.22 9.278,34.22 9.479,34.32 9.678,34.52 
			9.877,34.719 10.076,34.62 10.176,34.719 10.275,34.719 10.275,34.719 10.375,34.819 10.574,34.819 10.774,34.819 11.074,34.719 
			11.074,34.719 11.273,34.819 11.373,34.719 11.473,34.819 11.473,34.62 11.572,34.62 11.771,34.62 11.871,34.52 11.871,34.419 
			11.971,34.22 12.171,34.12 12.271,34.02 12.47,33.92 12.67,33.92 12.77,33.821 12.77,33.72 12.77,33.72 12.77,33.52 
			12.969,33.419 13.068,33.32 13.467,33.32 13.767,33.32 13.966,33.12 14.165,33.12 14.465,33.12 14.764,33.12 14.864,33.02 
			14.864,33.12 14.964,33.12 15.163,33.12 15.362,33.02 15.462,33.02 15.661,33.02 15.861,33.02 15.961,33.02 16.16,32.92 
			16.26,32.92 16.26,32.72 16.359,32.621 16.459,32.521 16.459,32.22 16.559,32.02 16.759,31.92 16.958,31.92 17.058,31.82 
			17.157,31.72 17.457,31.621 17.656,31.42 17.855,31.321 18.056,31.221 18.255,31.12 18.454,31.12 18.653,31.12 18.753,31.12 
			19.053,31.12 19.352,31.02 19.552,30.92 19.851,30.92 20.05,30.821 20.349,30.621 20.948,30.321 21.247,30.221 21.944,30.221 
			22.244,30.221 22.544,30.121 22.644,30.121 22.843,30.121 23.042,30.221 23.241,30.221 23.54,30.521 23.64,30.621 23.741,30.72 
			23.841,30.72 23.841,30.621 23.94,30.621 24.04,30.621 24.438,30.72 24.538,30.821 24.737,30.821 24.737,30.821 24.737,30.72 
			24.837,30.821 25.136,31.12 25.235,31.12 25.437,31.221 25.437,31.42 25.337,31.42 25.337,31.621 25.437,31.72 25.636,31.82 
			25.835,31.92 25.935,31.82 25.935,32.02 26.034,32.12 26.134,32.42 26.233,32.521 26.333,32.72 26.433,32.92 26.532,33.02 
			26.532,33.22 26.532,33.419 26.333,33.22 26.233,33.22 26.233,33.32 26.433,33.32 26.532,33.419 26.632,33.52 26.833,33.72 
			26.933,33.72 27.032,33.821 27.032,33.52 26.933,33.52 26.933,33.52 26.933,33.32 27.132,33.22 27.331,33.02 27.431,32.82 
			27.53,32.72 27.63,32.621 27.829,32.521 27.829,32.42 27.929,32.42 28.028,32.42 28.129,32.32 28.129,32.22 28.229,32.02 
			28.328,31.82 28.429,31.621 28.528,31.621 28.528,31.521 28.528,31.321 28.628,31.221 28.728,31.221 28.728,31.42 28.728,31.42 
			28.728,31.621 28.728,31.621 28.827,31.72 28.827,31.82 28.728,31.82 28.728,31.92 28.728,32.22 28.628,32.42 28.528,32.42 
			28.429,32.72 28.328,32.92 28.328,33.02 28.328,33.12 28.328,33.22 28.328,33.22 28.328,33.419 28.229,33.621 28.129,33.72 
			27.829,33.72 27.829,33.821 27.729,34.02 27.929,34.12 28.028,34.02 28.229,34.02 28.429,33.92 28.528,33.92 28.528,33.92 
			28.628,33.72 28.628,33.52 28.628,33.32 28.728,33.22 28.827,33.02 28.927,33.12 29.126,33.32 29.226,33.52 29.226,33.821 
			29.126,34.02 29.026,34.32 28.927,34.419 29.026,34.52 29.126,34.52 29.126,34.52 29.226,34.419 29.425,34.419 29.525,34.32 
			29.525,34.32 29.625,34.32 29.924,34.22 29.924,34.32 29.824,34.52 29.824,34.62 29.924,34.719 30.124,35.02 30.124,35.02 
			30.124,35.12 30.224,35.32 30.224,35.52 30.224,35.719 30.124,35.82 30.124,35.919 30.224,36.12 30.323,36.419 30.522,36.52 
			30.522,36.719 30.722,36.919 30.921,37.019 31.221,37.019 31.42,37.22 31.52,37.419 31.52,37.419 31.62,37.419 31.72,37.32 
			31.819,37.32 31.919,37.32 32.118,37.419 32.317,37.52 32.518,37.52 32.717,37.719 33.016,37.919 33.115,38.019 33.315,37.919 
			33.315,37.919 33.515,37.82 33.714,37.62 33.913,37.52 34.013,37.419 34.213,37.419 34.213,37.419 34.013,37.22 34.113,37.22 
			34.312,37.119 34.412,37.019 34.512,37.119 34.512,37.32 34.512,37.52 34.312,37.52 34.312,37.62 34.512,37.62 34.611,37.62 
			34.711,37.52 34.812,37.52 34.911,37.62 34.911,37.719 34.911,37.82 35.011,37.919 35.11,37.919 35.11,38.019 35.21,38.119 
			35.31,38.219 35.409,38.219 35.409,38.319 35.51,38.52 35.609,38.418 35.709,38.219 35.709,38.119 35.709,38.119 35.609,38.119 
			35.51,38.219 35.51,38.119 35.51,38.019 35.51,38.019 35.709,38.019 35.809,38.019 35.908,38.019 35.908,38.019 36.008,38.019 
			36.207,37.919 36.207,37.82 36.307,37.719 36.407,37.719 36.606,37.62 36.706,37.419 36.905,37.419 37.105,37.32 37.305,37.32 
			37.504,37.32 37.902,37.32 38.103,37.32 38.402,37.32 38.502,37.119 38.502,37.119 38.701,37.22 38.701,37.119 38.801,36.919 
			38.801,36.82 38.701,36.62 38.801,36.52 38.801,36.419 38.9,36.32 39,36.22 39,36.02 39,35.919 39,35.82 39.1,35.719 39.1,35.52 
			39.199,35.32 39.199,35.22 39.299,35.22 39.398,35.02 39.498,35.02 39.599,34.719 39.698,34.719 39.698,34.819 39.798,34.62 
			39.798,34.52 40.098,33.92 40.197,33.821 40.297,33.621 40.297,33.621 40.396,33.419 40.496,33.32 40.396,33.22 40.396,33.12 
			40.496,33.12 40.596,33.12 40.695,33.02 40.795,32.72 40.895,32.621 40.994,32.521 41.094,32.42 41.294,32.42 41.194,32.32 
			41.294,32.32 41.395,32.32 41.594,32.22 41.693,32.12 41.594,32.02 41.693,31.92 41.793,31.82 41.793,31.621 41.893,31.621 
			41.992,31.42 41.992,31.42 42.291,31.02 42.291,30.92 42.391,30.821 42.391,30.621 42.391,30.521 42.391,30.42 42.391,30.42 
			42.49,30.221 42.49,30.021 42.59,29.92 42.689,29.82 42.891,29.321 42.891,29.021 43.09,28.72 43.09,28.621 43.189,28.42 
			43.189,28.121 43.289,28.021 43.289,27.921 43.189,27.622 43.189,27.522 43.189,27.42 43.09,27.221 43.09,27.121 43.09,26.921 
			43.09,26.822 43.09,26.721 42.99,26.622 43.09,26.522 43.09,26.622 43.09,26.421 43.09,25.921 43.09,25.721 43.189,25.522 
			43.189,25.222 43.09,25.322 43.09,25.222 42.99,25.121 42.99,24.921 42.99,24.721 42.99,24.622 42.791,24.522 42.891,24.421 
			42.791,24.222 42.689,24.022 42.689,24.022 42.49,23.922 42.391,23.721 42.391,23.622 42.191,23.522 42.191,23.322 42.092,23.122 
			41.893,23.122 41.693,23.022 41.594,22.922 41.494,22.721 41.395,22.622 41.395,22.322 41.395,22.122 41.395,21.822 
			41.395,21.523 41.395,21.523 41.395,21.421 41.294,21.322 41.194,21.523 41.094,21.421 40.895,21.322 40.795,21.222 
			40.795,21.022 40.695,21.122 40.596,21.421 40.496,21.322 40.496,21.421 40.396,21.421 40.396,21.222 40.297,21.122 
			40.297,21.022 40.297,21.022 40.297,21.022 40.297,20.922 40.297,20.722 40.297,20.422 40.297,20.323 40.197,20.323 
			40.098,20.122 40.098,20.022 40.098,19.822 39.998,19.722 39.897,19.623 39.798,19.523 39.698,19.422 39.698,19.223 
			39.798,19.223 39.798,19.223 39.798,19.022 39.698,18.922 39.498,18.822 39.398,18.722 39.299,18.822 39.199,18.623 
			39.199,18.523 39,18.422 38.9,18.323 38.801,18.422 38.701,18.422 38.602,18.323 38.502,18.123 38.502,17.822 38.402,17.923 
			38.303,17.923 38.103,17.822 38.003,17.822 37.803,17.722 37.703,17.623 37.504,17.523 37.404,17.323 37.504,17.223 
			37.404,17.123 37.504,17.023 37.404,17.123 37.404,17.023 37.305,16.923 37.205,16.823 37.205,16.623 37.205,16.422 
			37.305,16.323 37.305,16.223 37.305,16.023 37.305,15.823 37.205,15.624 37.105,15.422 37.105,15.223 37.006,15.223 
			36.905,15.023 36.806,14.823 36.706,14.624 36.706,14.524 36.706,14.324 36.706,14.223 36.606,14.023 36.606,13.823 
			36.606,13.624 36.606,13.524 36.606,13.423 36.706,13.224 36.507,13.023 36.307,12.923 36.207,12.723 36.008,12.624 
			36.008,12.524 35.908,12.324 35.809,12.324 35.609,12.324 35.51,12.423 35.31,12.524 35.21,12.423 35.011,12.324 35.011,12.124 
			35.011,11.924 34.911,11.723 34.911,11.524 34.911,11.423 34.911,11.124 34.812,10.824 34.711,10.824 34.711,10.724 
			34.711,10.523 34.711,10.523 34.611,10.324 34.512,10.124 34.512,10.024 34.512,9.924 34.512,9.824 34.312,9.824 34.213,9.625 
			34.213,9.324 34.213,9.124 34.213,8.924 34.213,8.824 34.213,8.824 34.213,8.824 34.213,8.824 34.213,8.625 34.213,8.524 
			34.113,8.524 34.013,8.625 33.813,8.724 33.714,8.724 33.714,8.724 33.714,8.824 33.714,9.024 33.415,9.324 33.315,9.625 
			33.216,9.824 33.016,9.924 32.916,10.224 32.916,10.423 32.916,10.423 33.115,10.423 33.016,10.624 32.916,10.824 32.916,10.924 
			32.916,11.124 32.916,11.324 32.816,11.524 32.816,11.924 32.816,12.124 32.717,12.423 32.816,12.723 32.916,13.023 
			32.816,13.224 32.717,13.524 32.617,13.823 32.518,14.123 32.417,14.624 32.118,15.023 32.019,15.422 31.919,15.524 31.62,15.624 
			31.42,15.723 31.221,15.723 31.021,15.723 30.921,15.624 30.722,15.422 30.423,15.223 30.323,15.123 30.224,14.923 30.124,14.823 
			29.924,14.723 29.625,14.624 29.425,14.624 29.325,14.524 29.126,14.423 29.026,14.223 28.927,14.123 28.628,14.023 
			28.528,13.923 28.429,13.823 28.129,13.823 27.929,13.723 27.729,13.723 27.63,13.823 27.63,13.524 27.53,13.423 27.431,13.224 
			27.331,13.124 27.231,13.124 27.132,13.023 27.032,12.923 26.933,13.023 26.833,12.823 26.732,12.823 26.732,12.624 
			26.833,12.423 26.933,12.224 27.032,11.924 27.032,11.823 27.032,11.723 27.132,11.524 27.231,11.423 27.032,11.524 
			27.032,11.324 27.032,11.224 27.132,11.024 27.231,11.024 27.231,11.124 27.331,11.224 27.331,11.124 27.231,10.924 
			27.331,10.824 27.431,10.924 27.53,11.024 27.63,10.924 27.63,10.824 27.729,10.724 27.729,10.624 27.729,10.624 27.63,10.523 
			27.63,10.523 27.729,10.523 27.829,10.423 27.929,10.224 28.028,10.124 28.028,10.024 27.929,9.924 27.829,9.924 27.729,10.024 
			27.63,9.724 27.63,9.625 27.63,9.625 27.431,9.724 27.331,9.924 27.431,10.024 27.331,10.224 27.132,10.224 27.132,10.224 
			27.132,10.224 27.132,10.024 27.132,9.924 27.132,9.824 27.132,9.824 27.032,9.924 26.933,9.924 26.933,9.824 27.032,9.625 
			26.833,9.724 26.732,9.724 26.632,9.724 26.532,9.724 26.532,9.724 26.333,9.824 26.233,9.924 26.134,9.824 26.134,9.824 
			25.935,9.824 25.835,9.625 25.735,9.625 25.536,9.724 25.437,9.724 25.235,9.724 25.136,9.625 25.036,9.625 24.937,9.524 
			24.837,9.524 24.837,9.423 24.737,9.423 24.638,9.524 24.538,9.423 24.438,9.423 24.339,9.423 24.239,9.423 24.14,9.423 
			23.94,9.224 23.94,9.124 23.841,9.024 23.741,9.124 23.741,9.224 23.64,9.224 23.54,9.124 23.44,9.024 23.341,8.924 23.341,8.924 
			23.241,8.824 23.241,8.824 23.142,8.924 23.142,9.024 23.042,9.124 23.042,9.024 23.042,8.924 22.942,8.824 22.942,8.924 
			22.843,8.924 22.743,8.924 22.743,8.924 22.743,8.924 22.843,9.024 22.942,9.124 23.142,9.224 23.241,9.224 23.44,9.224 
			23.64,9.324 23.64,9.524 23.64,9.824 23.44,9.924 23.341,9.924 23.042,10.024 22.942,10.024 22.743,10.024 22.544,10.024 
			22.344,10.024 22.244,10.024 22.244,10.124 22.144,10.024 22.044,10.024 21.845,10.124 21.845,10.224 21.944,10.324 
			21.944,10.523 21.845,10.324 21.745,10.324 21.546,10.224 21.546,10.423 21.347,10.523 21.247,10.523 21.147,10.724 
			21.147,10.924 21.147,11.024 21.247,11.024 21.247,11.224 21.147,11.324 20.948,11.324 20.848,11.324 20.749,11.423 
			20.749,11.624 20.648,11.823 20.548,11.924 20.448,12.024 20.448,11.924 20.349,12.224 20.448,12.423 20.749,12.723 
			20.749,12.723 20.548,12.823 20.648,13.124 20.548,13.124 20.349,12.923 20.249,12.823 20.149,12.723 19.95,12.823 19.651,12.823 
			19.452,12.723 19.452,12.823 19.452,12.923 19.352,12.923 19.252,12.923 19.252,12.923 19.152,13.023 19.152,13.023 
			19.152,13.023 19.152,13.224 19.152,13.224 19.053,13.224 19.053,13.423 18.853,13.624 18.952,13.423 19.053,13.423 
			19.053,13.224 19.053,13.023 19.053,12.723 18.952,12.624 18.853,12.524 18.554,12.124 18.354,12.024 18.155,11.924 
			17.956,11.924 17.855,11.823 17.756,11.823 17.656,11.823 17.656,11.924 17.557,12.024 17.356,12.224 17.257,12.224 
			17.257,12.124 17.257,12.124 17.157,12.224 17.058,12.324 16.958,12.124 16.958,12.024 16.858,12.124 16.958,12.224 
			16.958,12.324 16.858,12.624 16.759,12.723 16.659,12.723 16.659,12.624 16.459,12.624 16.459,12.624 16.359,12.723 16.26,12.723 
			16.061,12.823 16.061,13.023 16.26,13.224 16.26,13.324 16.061,13.224 15.961,13.224 15.861,13.324 15.861,13.423 15.861,13.524 
			15.961,13.624 15.961,13.624 15.661,13.624 15.562,13.624 15.462,13.723 15.562,14.023 15.562,14.123 15.462,14.223 
			15.362,14.423 15.362,14.624 15.462,14.624 15.462,14.823 15.263,14.823 15.163,14.823 15.063,14.624 14.964,14.524 
			14.764,14.524 14.564,14.423 14.465,14.524 14.564,14.823 14.564,14.823 14.465,14.923 14.564,15.023 14.764,15.223 
			14.764,15.422 14.664,15.422 14.664,15.422 14.664,15.723 14.564,15.923 14.465,15.823 14.365,15.723 14.266,15.624 
			14.165,15.422 13.966,15.123 13.866,15.023 13.866,14.823 13.866,14.823 13.767,15.023 13.767,15.123 13.667,15.123 
			13.567,15.323 13.467,15.422 13.367,15.422 13.367,15.524 13.168,15.723 13.168,16.023 13.268,16.123 13.268,16.323 
			13.367,16.522 13.467,16.522 13.367,16.623 13.168,16.923 13.068,17.023 12.869,17.023 12.869,17.223 12.869,17.223 12.77,17.523 
			12.77,17.623 12.67,17.822 12.569,17.923 12.47,18.123 12.37,18.223 12.171,18.323 11.971,18.422 11.771,18.523 11.572,18.623 
			11.473,18.722 11.273,18.722 11.074,18.822 10.774,18.922 10.675,18.822 10.375,18.922 10.275,19.022 10.076,19.323 9.877,19.323 
			9.678,19.323 9.479,19.422 9.378,19.523 9.179,19.722 9.078,19.822 8.879,19.822 8.68,19.822 8.58,19.822 8.381,19.822 
			8.281,19.822 8.182,19.822 8.182,19.822 7.982,19.922 7.883,20.122 7.682,20.122 7.682,20.222 7.482,20.323 7.383,20.422 
			7.283,20.623 7.184,20.722 7.084,20.822 6.984,21.022 6.785,21.122 6.686,21.122 6.586,21.322 6.486,21.322 6.287,21.421 
			6.186,21.523 6.186,21.722 6.087,21.822 6.087,22.022 5.887,22.222 5.787,22.222 5.887,22.122 5.887,21.922 5.787,21.922 
			5.787,21.822 5.787,21.722 5.787,21.722 5.787,21.623 5.787,21.421 5.688,21.523 5.588,21.623 5.588,21.922 5.488,22.022 
			5.488,22.322 5.488,22.421 5.588,22.622 5.688,22.822 5.688,23.022 5.688,23.122 5.688,23.322 		"/>
		<polygon fill="#93D3C7" points="43.389,24.222 43.389,24.122 43.488,24.222 43.488,24.421 43.488,24.622 43.289,25.021 
			43.189,25.121 43.189,25.121 43.189,24.921 43.189,24.721 43.189,24.622 43.289,24.522 43.389,24.322 		"/>
		<polygon fill="#93D3C7" points="43.389,24.222 43.389,24.122 43.488,24.222 43.488,24.421 43.488,24.622 43.289,25.021 
			43.189,25.121 43.189,25.121 43.189,24.921 43.189,24.721 43.189,24.622 43.289,24.522 43.389,24.322 		"/>
		<polygon fill="#93D3C7" points="43.289,26.921 43.389,26.921 43.389,26.921 43.389,27.121 43.289,27.221 43.289,27.121 
			43.289,27.021 43.289,26.921 43.289,27.021 		"/>
		<polygon fill="#93D3C7" points="43.289,26.921 43.389,26.921 43.389,26.921 43.389,27.121 43.289,27.221 43.289,27.121 
			43.289,27.021 43.289,26.921 43.289,27.021 		"/>
		<polygon fill="#93D3C7" points="36.706,39.919 36.706,39.919 36.905,39.819 37.006,39.919 37.006,40.019 36.905,40.019 		"/>
		<polygon fill="#93D3C7" points="36.706,39.919 36.706,39.919 36.905,39.819 37.006,39.919 37.006,40.019 36.905,40.019 		"/>
		<polygon fill="#93D3C7" points="27.63,11.524 27.63,11.524 27.729,11.624 27.829,11.423 27.829,11.624 27.929,11.524 
			28.028,11.823 28.028,11.924 28.129,12.024 27.929,12.024 27.729,12.024 27.63,11.924 		"/>
		<polygon fill="#93D3C7" points="27.63,11.524 27.63,11.524 27.729,11.624 27.829,11.423 27.829,11.624 27.929,11.524 
			28.028,11.823 28.028,11.924 28.129,12.024 27.929,12.024 27.729,12.024 27.63,11.924 		"/>
		<polygon fill="#93D3C7" points="27.63,9.124 27.63,9.124 27.63,9.024 27.63,8.924 27.729,8.724 27.829,8.724 27.829,8.824 
			27.729,9.024 		"/>
		<polygon fill="#93D3C7" points="27.63,9.124 27.63,9.124 27.63,9.024 27.63,8.924 27.729,8.724 27.829,8.724 27.829,8.824 
			27.729,9.024 		"/>
		<polygon fill="#93D3C7" points="21.247,8.924 21.347,9.024 21.446,9.024 21.446,9.124 21.646,9.124 21.845,9.024 21.944,9.124 
			22.144,9.024 22.244,8.924 22.344,8.924 22.344,9.024 22.444,9.124 22.444,9.224 22.344,9.324 22.244,9.423 22.044,9.625 
			21.845,9.625 21.745,9.524 21.546,9.423 21.446,9.324 21.347,9.224 		"/>
		<polygon fill="#93D3C7" points="21.247,8.924 21.347,9.024 21.446,9.024 21.446,9.124 21.646,9.124 21.845,9.024 21.944,9.124 
			22.144,9.024 22.244,8.924 22.344,8.924 22.344,9.024 22.444,9.124 22.444,9.224 22.344,9.324 22.244,9.423 22.044,9.625 
			21.845,9.625 21.745,9.524 21.546,9.423 21.446,9.324 21.347,9.224 		"/>
		<polygon fill="#93D3C7" points="21.048,9.524 21.048,9.524 20.948,9.423 20.948,9.423 21.048,9.324 21.048,9.224 21.147,9.124 
			21.147,9.124 21.247,9.224 21.347,9.324 21.347,9.423 21.446,9.524 21.446,9.524 21.247,9.524 		"/>
		<polygon fill="#93D3C7" points="21.048,9.524 21.048,9.524 20.948,9.423 20.948,9.423 21.048,9.324 21.048,9.224 21.147,9.124 
			21.147,9.124 21.247,9.224 21.347,9.324 21.347,9.423 21.446,9.524 21.446,9.524 21.247,9.524 		"/>
		<polygon fill="#93D3C7" points="30.821,14.324 30.921,14.423 31.021,14.524 30.921,14.524 30.722,14.524 30.722,14.624 
			30.722,14.624 30.522,14.723 30.423,14.524 30.522,14.423 30.622,14.423 30.722,14.324 		"/>
		<polygon fill="#93D3C7" points="30.821,14.324 30.921,14.423 31.021,14.524 30.921,14.524 30.722,14.524 30.722,14.624 
			30.722,14.624 30.522,14.723 30.423,14.524 30.522,14.423 30.622,14.423 30.722,14.324 		"/>
		<polygon fill="#93D3C7" points="27.53,34.62 27.53,34.62 27.729,34.52 27.829,34.52 28.028,34.419 28.129,34.419 28.229,34.419 
			28.328,34.419 28.328,34.52 28.429,34.62 28.628,34.62 28.728,34.62 28.827,34.719 28.628,34.719 28.429,34.719 28.429,34.819 
			28.328,34.92 28.129,34.819 27.929,34.819 27.729,34.819 27.63,34.819 27.53,34.719 		"/>
		<polygon fill="#93D3C7" points="27.53,34.62 27.53,34.62 27.729,34.52 27.829,34.52 28.028,34.419 28.129,34.419 28.229,34.419 
			28.328,34.419 28.328,34.52 28.429,34.62 28.628,34.62 28.728,34.62 28.827,34.719 28.628,34.719 28.429,34.719 28.429,34.819 
			28.328,34.92 28.129,34.819 27.929,34.819 27.729,34.819 27.63,34.819 27.53,34.719 		"/>
		<polygon fill="#93D3C7" points="36.606,39.319 36.706,39.219 36.806,39.319 36.806,39.319 36.905,39.519 36.905,39.62 
			36.905,39.719 36.706,39.819 36.706,39.62 36.706,39.418 36.606,39.418 36.606,39.319 		"/>
		<polygon fill="#93D3C7" points="36.606,39.319 36.706,39.219 36.806,39.319 36.806,39.319 36.905,39.519 36.905,39.62 
			36.905,39.719 36.706,39.819 36.706,39.62 36.706,39.418 36.606,39.418 36.606,39.319 		"/>
		<polygon fill="#93D3C7" points="34.013,40.119 34.013,40.319 33.913,40.519 34.013,40.82 34.113,41.119 34.213,41.319 
			34.312,41.418 34.412,41.619 34.412,41.718 34.312,41.818 34.312,41.718 34.213,41.519 34.213,41.718 34.312,42.119 
			34.312,42.219 34.412,42.319 34.412,42.319 34.512,42.519 34.611,42.718 34.711,42.718 34.812,42.819 34.812,42.819 
			34.711,42.918 34.711,43.018 34.812,43.018 35.011,43.018 35.11,43.018 35.21,43.018 35.21,43.118 35.31,43.118 35.409,43.018 
			35.51,42.918 35.51,42.718 35.609,42.718 35.609,42.718 35.709,42.819 35.709,42.718 35.908,42.619 35.908,42.519 35.908,42.418 
			36.008,42.319 36.107,42.418 36.207,42.418 36.307,42.418 36.307,42.119 36.407,42.119 36.407,41.918 36.507,41.718 
			36.606,41.619 36.606,41.519 36.706,41.718 36.706,41.818 36.606,41.918 36.706,41.718 36.706,41.718 36.706,41.418 
			36.706,41.119 36.806,41.019 36.806,40.82 36.806,40.519 36.706,40.319 36.507,40.319 36.507,40.418 36.407,40.418 36.307,40.319 
			36.107,40.519 35.908,40.519 35.809,40.418 35.609,40.519 35.51,40.519 35.51,40.619 35.409,40.619 35.11,40.519 34.911,40.519 
			34.812,40.319 34.611,40.219 34.412,40.119 34.412,40.119 34.312,40.119 34.213,40.119 34.013,40.019 34.013,40.019 		"/>
		<polygon fill="#93D3C7" points="34.013,40.119 34.013,40.319 33.913,40.519 34.013,40.82 34.113,41.119 34.213,41.319 
			34.312,41.418 34.412,41.619 34.412,41.718 34.312,41.818 34.312,41.718 34.213,41.519 34.213,41.718 34.312,42.119 
			34.312,42.219 34.412,42.319 34.412,42.319 34.512,42.519 34.611,42.718 34.711,42.718 34.812,42.819 34.812,42.819 
			34.711,42.918 34.711,43.018 34.812,43.018 35.011,43.018 35.11,43.018 35.21,43.018 35.21,43.118 35.31,43.118 35.409,43.018 
			35.51,42.918 35.51,42.718 35.609,42.718 35.609,42.718 35.709,42.819 35.709,42.718 35.908,42.619 35.908,42.519 35.908,42.418 
			36.008,42.319 36.107,42.418 36.207,42.418 36.307,42.418 36.307,42.119 36.407,42.119 36.407,41.918 36.507,41.718 
			36.606,41.619 36.606,41.519 36.706,41.718 36.706,41.818 36.606,41.918 36.706,41.718 36.706,41.718 36.706,41.418 
			36.706,41.119 36.806,41.019 36.806,40.82 36.806,40.519 36.706,40.319 36.507,40.319 36.507,40.418 36.407,40.418 36.307,40.319 
			36.107,40.519 35.908,40.519 35.809,40.418 35.609,40.519 35.51,40.519 35.51,40.619 35.409,40.619 35.11,40.519 34.911,40.519 
			34.812,40.319 34.611,40.219 34.412,40.119 34.412,40.119 34.312,40.119 34.213,40.119 34.013,40.019 34.013,40.019 		"/>
	</g>
</g>
<path id="path4500" fill="#353833" d="M32.264,29.631c-0.039-0.009-0.281-0.062-0.536-0.12c-0.648-0.145-0.935-0.197-1.735-0.321
	c-1.944-0.3-2.527-0.421-2.917-0.608c-0.347-0.166-0.455-0.271-0.636-0.611c-0.192-0.363-0.323-0.753-0.561-1.678
	c-0.114-0.442-0.234-0.877-0.267-0.966c-0.076-0.21-0.44-0.956-0.527-1.081c-0.037-0.053-0.207-0.172-0.379-0.265
	c-0.608-0.327-1.098-0.644-1.401-0.907c-0.201-0.174-0.394-0.363-0.394-0.387c0-0.014-0.036-0.065-0.081-0.114
	c-0.044-0.049-0.112-0.15-0.151-0.225c-0.082-0.155-0.14-0.156-0.375-0.008c-0.182,0.114-0.601,0.337-1.148,0.611
	c-0.747,0.372-1.291,0.568-2.121,0.762c-0.244,0.058-1.12,0.048-1.451-0.016c-0.455-0.087-1.059-0.28-1.397-0.448
	c-0.377-0.187-0.551-0.384-0.824-0.937c-0.377-0.761-0.446-1.097-0.267-1.291c0.154-0.167,0.225-0.127,0.338,0.192
	c0.147,0.414,0.33,0.71,0.646,1.05c0.567,0.611,1.439,0.838,2.218,0.577c0.513-0.172,1.494-0.72,1.807-1.009
	c0.039-0.037,0.151-0.127,0.25-0.201c0.294-0.223,1.717-1.56,2-1.879c0.286-0.324,1.508-1.317,1.898-1.545
	c0.362-0.211,0.419-0.237,0.733-0.34c0.271-0.088,0.357-0.099,0.805-0.1c0.813-0.002,1.313,0.171,2.025,0.703
	c0.361,0.27,0.635,0.542,1.302,1.294c0.638,0.72,1.25,1.338,1.466,1.479c0.126,0.084,0.179,0.095,0.447,0.095
	c0.271,0,0.331-0.013,0.54-0.116c0.277-0.137,0.515-0.315,0.462-0.349c-0.021-0.012-0.178-0.096-0.35-0.184
	c-0.598-0.309-0.801-0.497-0.748-0.696c0.032-0.126,0.243-0.247,0.428-0.247c0.15,0,0.458,0.125,0.61,0.249
	c0.118,0.096,0.608,0.516,0.719,0.616c0.058,0.054,0.169,0.107,0.247,0.12c0.186,0.032,0.349,0.102,0.475,0.205
	c0.143,0.116,0.298,0.207,0.692,0.403C34.665,21.619,35,21.874,35,22.023c0,0.1-0.147,0.191-0.481,0.303l-0.248,0.083l-0.628-0.079
	c-0.588-0.075-0.642-0.076-0.842-0.024c-0.335,0.087-0.659,0.328-1.278,0.95c-0.648,0.652-0.877,0.833-1.177,0.932
	c-0.314,0.104-0.394,0.186-1.123,1.166c-0.323,0.435-0.599,0.691-0.899,0.835c-0.236,0.113-0.548,0.177-0.548,0.112
	c0-0.021-0.028-0.048-0.062-0.059c-0.095-0.03-0.26-0.315-0.26-0.448c0-0.128,0.168-0.318,0.29-0.329
	c0.173-0.016,0.19-0.009,0.211,0.077c0.026,0.112,0.155,0.137,0.304,0.057c0.133-0.072,0.396-0.46,0.486-0.719
	c0.093-0.264,0.089-0.525-0.01-0.701c-0.043-0.076-0.087-0.139-0.099-0.139c-0.011,0-0.1-0.073-0.197-0.161
	c-0.1-0.09-0.213-0.161-0.258-0.161c-0.07,0-0.322,0.122-0.37,0.18c-0.01,0.012-0.074,0.056-0.143,0.097
	c-0.342,0.208-0.495,0.54-0.524,1.137c-0.011,0.218-0.002,0.537,0.021,0.715c0.022,0.178,0.062,0.531,0.087,0.787
	c0.053,0.523,0.12,0.7,0.315,0.83c0.251,0.167,1.342,0.566,2.496,0.914c1.328,0.401,1.525,0.466,2.146,0.713
	c0.472,0.188,0.572,0.25,0.572,0.355C32.782,29.554,32.455,29.671,32.264,29.631z M29.527,28.332
	c-0.029-0.02-0.077-0.034-0.107-0.033c-0.035,0.002-0.029,0.013,0.019,0.033C29.536,28.374,29.593,28.374,29.527,28.332z"/>
</svg>
