<?xml version="1.0" encoding="utf-8"?>
<!-- Generator: Adobe Illustrator 16.0.0, SVG Export Plug-In . SVG Version: 6.00 Build 0)  -->
<!DOCTYPE svg PUBLIC "-//W3C//DTD SVG 1.1//EN" "http://www.w3.org/Graphics/SVG/1.1/DTD/svg11.dtd">
<svg version="1.1" id="Layer_1" xmlns="http://www.w3.org/2000/svg" xmlns:xlink="http://www.w3.org/1999/xlink" x="0px" y="0px"
	 width="50px" height="50px" viewBox="0 0 50 50" enable-background="new 0 0 50 50" xml:space="preserve">
<g>
	<circle fill="#FFFFF9" cx="25.029" cy="25" r="25"/>
	<g>
		<path fill-rule="evenodd" clip-rule="evenodd" fill="#3D3D3D" d="M25.029,32.326H12.391V16.447c0-0.477,0.387-0.863,0.863-0.863
			h11.775h11.127c0.477,0,0.863,0.387,0.863,0.863v15.879H25.029z"/>
		<path fill-rule="evenodd" clip-rule="evenodd" fill="#C3C3C3" d="M40.262,32.326c0,0.717-0.57,1.297-1.271,1.297H10.422
			c-0.703,0-1.273-0.58-1.273-1.297H40.262z"/>
		<path fill-rule="evenodd" clip-rule="evenodd" fill="#E7E8E7" d="M25.084,15.81c0.111,0,0.203,0.09,0.203,0.202
			s-0.092,0.202-0.203,0.202s-0.203-0.09-0.203-0.202S24.973,15.81,25.084,15.81z"/>
		<path fill-rule="evenodd" clip-rule="evenodd" fill="#91D2C5" d="M13.039,31.463V16.447h23.332v15.016H13.039z"/>
		<path fill-rule="evenodd" clip-rule="evenodd" fill="#B3B2B2" d="M26.865,32.326c0,0.24-0.197,0.434-0.441,0.434h-3.438
			c-0.244,0-0.441-0.193-0.441-0.434H26.865z"/>
	</g>
</g>
</svg>
