<?xml version="1.0" encoding="utf-8"?>
<!-- Generator: Adobe Illustrator 16.0.0, SVG Export Plug-In . SVG Version: 6.00 Build 0)  -->
<!DOCTYPE svg PUBLIC "-//W3C//DTD SVG 1.1//EN" "http://www.w3.org/Graphics/SVG/1.1/DTD/svg11.dtd">
<svg version="1.1" id="Layer_1" xmlns="http://www.w3.org/2000/svg" xmlns:xlink="http://www.w3.org/1999/xlink" x="0px" y="0px"
	 width="50px" height="50px" viewBox="0 0 50 50" enable-background="new 0 0 50 50" xml:space="preserve">
<g>
	<circle fill="#FFFFF9" cx="25" cy="25" r="25"/>
	<g>
		<polygon fill="#6AA6A6" points="22.643,32.746 22.643,34.092 21.297,34.092 21.297,35.439 28.705,35.439 28.705,34.092 
			27.357,34.092 27.357,32.746 		"/>
		<path fill="#6AA6A6" d="M33.418,21.971H16.582v10.102h16.836V21.971z M32.072,30.725H17.93v-7.408h14.143V30.725z"/>
		<path fill="#555655" d="M14.562,14.664H8.5v20.776h6.062V14.664z M11.531,34.092c-1.115,0-2.021-0.904-2.021-2.02
			s0.906-2.021,2.021-2.021s2.02,0.906,2.02,2.021S12.646,34.092,11.531,34.092z"/>
		<circle fill="#555655" cx="11.531" cy="32.072" r="0.758"/>
		<path fill="#555655" d="M35.439,35.439H41.5V14.664h-6.061V35.439z M38.471,30.051c1.115,0,2.02,0.906,2.02,2.021
			s-0.904,2.02-2.02,2.02c-1.117,0-2.021-0.904-2.021-2.02S37.354,30.051,38.471,30.051z"/>
		<circle fill="#555655" cx="38.471" cy="32.072" r="0.758"/>
		<circle fill="#EFEFEF" cx="11.531" cy="18.985" r="2.021"/>
		<circle fill="#555655" cx="11.531" cy="18.986" r="0.758"/>
		<circle fill="#EFEFEF" cx="38.471" cy="18.985" r="2.021"/>
		<circle fill="#555655" cx="38.471" cy="18.986" r="0.758"/>
		<circle fill="#EFEFEF" cx="38.471" cy="25.683" r="0.632"/>
		<circle fill="#EFEFEF" cx="11.531" cy="25.683" r="0.632"/>
	</g>
</g>
</svg>
