<?xml version="1.0" encoding="utf-8"?>
<!-- Generator: Adobe Illustrator 16.0.0, SVG Export Plug-In . SVG Version: 6.00 Build 0)  -->
<!DOCTYPE svg PUBLIC "-//W3C//DTD SVG 1.1//EN" "http://www.w3.org/Graphics/SVG/1.1/DTD/svg11.dtd">
<svg version="1.1" id="Layer_1" xmlns="http://www.w3.org/2000/svg" xmlns:xlink="http://www.w3.org/1999/xlink" x="0px" y="0px"
	 width="50px" height="50px" viewBox="0 0 50 50" enable-background="new 0 0 50 50" xml:space="preserve">
<g>
	<circle fill="#FFFFF9" cx="25" cy="25" r="25"/>
	<g>
		<g>
			<path fill="#E09B4A" d="M34.398,36.039c0,1.318-1.068,2.385-2.387,2.385H18.155c-1.317,0-2.386-1.066-2.386-2.385V14.13
				c0-1.318,1.068-2.387,2.386-2.387h13.857c1.318,0,2.387,1.068,2.387,2.387V36.039z"/>
			<circle fill="#E7E8E7" cx="25.084" cy="31.809" r="4.905"/>
			<circle fill="#E09B4A" cx="25.084" cy="31.809" r="2.156"/>
			<polygon fill="#71BCC3" points="17.617,14.347 17.617,15.577 20.1,14.347 			"/>
			<polygon fill="#71BCC3" points="24.01,14.347 17.617,17.513 17.617,19.014 27.041,14.347 			"/>
			<polygon fill="#91D2C5" points="17.617,14.347 17.617,20.951 17.617,25.627 32.836,25.627 32.836,14.347 			"/>
		</g>
	</g>
</g>
</svg>
