<?xml version="1.0" encoding="utf-8"?>
<!-- Generator: Adobe Illustrator 16.0.0, SVG Export Plug-In . SVG Version: 6.00 Build 0)  -->
<!DOCTYPE svg PUBLIC "-//W3C//DTD SVG 1.1//EN" "http://www.w3.org/Graphics/SVG/1.1/DTD/svg11.dtd">
<svg version="1.1" id="Layer_1" xmlns="http://www.w3.org/2000/svg" xmlns:xlink="http://www.w3.org/1999/xlink" x="0px" y="0px"
	 width="50px" height="50px" viewBox="0 0 50 50" enable-background="new 0 0 50 50" xml:space="preserve">
<g>
	<circle fill="#FFFFF9" cx="25.029" cy="25" r="25"/>
	<g>
		<path fill-rule="evenodd" clip-rule="evenodd" fill="#555655" d="M18.471,8.453h11.6c1.684,0,3.051,1.215,3.051,2.713v27.668
			c0,1.498-1.367,2.713-3.051,2.713h-11.6c-1.688,0-3.053-1.215-3.053-2.713V11.166C15.418,9.667,16.783,8.453,18.471,8.453z"/>
		<path fill-rule="evenodd" clip-rule="evenodd" fill="#E7E8E7" d="M21.904,10.595c0.186,0,0.334,0.135,0.334,0.299
			s-0.148,0.299-0.334,0.299s-0.336-0.135-0.336-0.299S21.719,10.595,21.904,10.595z"/>
		<path fill-rule="evenodd" clip-rule="evenodd" fill="#E7E8E7" d="M23.277,10.595h3.357c0.186,0,0.336,0.135,0.336,0.299
			s-0.15,0.299-0.336,0.299h-3.357c-0.186,0-0.336-0.135-0.336-0.299S23.092,10.595,23.277,10.595z"/>
		<path fill-rule="evenodd" clip-rule="evenodd" fill="#E7E8E7" d="M24.27,37.861c0.77,0,1.393,0.555,1.393,1.236
			c0,0.684-0.623,1.236-1.393,1.236c-0.768,0-1.391-0.553-1.391-1.236C22.879,38.416,23.502,37.861,24.27,37.861z"/>
		<path fill-rule="evenodd" clip-rule="evenodd" fill="#91D2C5" d="M16.639,36.664v-23.6H31.9v23.6H16.639z"/>
	</g>
</g>
</svg>
