<?xml version="1.0" encoding="utf-8"?>
<!-- Generator: Adobe Illustrator 16.0.0, SVG Export Plug-In . SVG Version: 6.00 Build 0)  -->
<!DOCTYPE svg PUBLIC "-//W3C//DTD SVG 1.1//EN" "http://www.w3.org/Graphics/SVG/1.1/DTD/svg11.dtd">
<svg version="1.1" id="Layer_1" xmlns="http://www.w3.org/2000/svg" xmlns:xlink="http://www.w3.org/1999/xlink" x="0px" y="0px"
	 width="50px" height="50px" viewBox="0 0 50 50" enable-background="new 0 0 50 50" xml:space="preserve">
<g>
	<circle fill="#FFFFF9" cx="24.967" cy="25" r="25"/>
	<g>
		<path fill="#353231" d="M42.029,6.835c-1.277,0.438-13.041,8.736-14.117,9.152c-1.143,0.444-2.031-0.664-2.648-0.379
			c-0.172,0.08-0.4,0.25-0.516,0.607c-0.312,0.961-0.281,1.723-0.188,2.225h-0.887c-0.201,0-0.367,0.188-0.367,0.421v0.882
			c0,0.231,0.166,0.419,0.367,0.419h2.6c0.205,0,0.367-0.188,0.367-0.419v-0.882c0-0.232-0.162-0.421-0.367-0.421h-0.871
			c-0.096-0.37-0.172-1.049,0.127-1.972c0.029-0.09,0.062-0.104,0.082-0.113c0.291-0.136,1.137,0.445,1.99,0.56
			c1.381,0.184,13.125-8.764,14.693-9.302L42.029,6.835z"/>
		<path fill="#555655" d="M32.625,19.302h-15.74v0.015c-3.854,0.227-6.91,3.423-6.91,7.335c0,4.059,3.291,7.348,7.35,7.348
			c2.338,0,4.42-1.094,5.766-2.797h3.768C28.203,32.906,30.287,34,32.625,34c4.059,0,7.35-3.289,7.35-7.348
			S36.684,19.302,32.625,19.302z"/>
		<circle fill="#F3EFEE" cx="32.879" cy="26.652" r="5.039"/>
		<g>
			<g>
				<circle fill="#BD2428" cx="30.274" cy="26.654" r="1.292"/>
				<circle fill="#6FAD44" cx="35.44" cy="26.654" r="1.292"/>
			</g>
			<g>
				<circle fill="#FAAB19" cx="32.857" cy="23.674" r="1.291"/>
				<path fill="#D96127" d="M34.148,29.631c0,0.713-0.578,1.289-1.291,1.289s-1.291-0.576-1.291-1.289
					c0-0.715,0.578-1.293,1.291-1.293S34.148,28.916,34.148,29.631z"/>
			</g>
		</g>
		<g>
			<circle fill="#F3EFEE" cx="17.289" cy="26.719" r="5.039"/>
			<path fill="#555655" d="M20.385,26.061h-2.438v-2.436c0-0.217-0.189-0.385-0.434-0.385h-0.449c-0.244,0-0.434,0.168-0.434,0.385
				v2.436h-2.436c-0.217,0-0.387,0.191-0.387,0.434v0.451c0,0.244,0.17,0.434,0.387,0.434h2.436v2.436
				c0,0.217,0.189,0.387,0.434,0.387h0.449c0.244,0,0.434-0.17,0.434-0.387v-2.436h2.438c0.215,0,0.385-0.189,0.385-0.434v-0.451
				C20.77,26.252,20.6,26.061,20.385,26.061z"/>
		</g>
		<path fill="#D96127" d="M24.672,23.471c0,0.453-0.367,0.822-0.822,0.822h-0.314c-0.455,0-0.822-0.369-0.822-0.822v-1.866
			c0-0.453,0.367-0.822,0.822-0.822h0.314c0.455,0,0.822,0.369,0.822,0.822V23.471z"/>
		<path fill="#6FAD44" d="M27.58,23.471c0,0.453-0.369,0.822-0.824,0.822h-0.314c-0.455,0-0.822-0.369-0.822-0.822v-1.866
			c0-0.453,0.367-0.822,0.822-0.822h0.314c0.455,0,0.824,0.369,0.824,0.822V23.471z"/>
		<circle fill="#FAAB19" cx="24.975" cy="26.654" r="1.291"/>
	</g>
</g>
</svg>
