<?xml version="1.0" encoding="utf-8"?>
<!-- Generator: Adobe Illustrator 16.0.0, SVG Export Plug-In . SVG Version: 6.00 Build 0)  -->
<!DOCTYPE svg PUBLIC "-//W3C//DTD SVG 1.1//EN" "http://www.w3.org/Graphics/SVG/1.1/DTD/svg11.dtd">
<svg version="1.1" id="Layer_1" xmlns="http://www.w3.org/2000/svg" xmlns:xlink="http://www.w3.org/1999/xlink" x="0px" y="0px"
	 width="50px" height="50px" viewBox="0 0 50 50" enable-background="new 0 0 50 50" xml:space="preserve">
<g>
	<circle fill="#FFFFF9" cx="25.029" cy="25" r="25"/>
	<path fill="#A82D46" d="M17.355,16.03c0,0.733-0.594,1.327-1.328,1.327h-1.658c-0.734,0-1.328-0.594-1.328-1.327l0,0
		c0-0.733,0.594-1.329,1.328-1.329h1.658C16.762,14.701,17.355,15.296,17.355,16.03L17.355,16.03z"/>
	<path fill="#E0C27F" d="M40.398,32.316c0,1.646-1.336,2.982-2.982,2.982H12.643c-1.648,0-2.982-1.336-2.982-2.982V19.011
		c0-1.646,1.334-2.982,2.982-2.982h24.773c1.646,0,2.982,1.336,2.982,2.982V32.316z"/>
	<rect x="9.66" y="19.7" fill="#998A32" width="30.738" height="11.929"/>
	<circle fill="#2D594F" cx="25.029" cy="25.664" r="6.729"/>
	<circle fill="#6AA6A6" cx="25.029" cy="25.664" r="4.404"/>
	<circle fill="#002D3F" cx="25.029" cy="25.664" r="2.088"/>
	<circle fill="#FFFFFF" cx="25.654" cy="25.068" r="1.113"/>
	<path fill="#A82D46" d="M38.309,17.964c0,0.536-0.434,0.971-0.971,0.971H34.99c-0.537,0-0.971-0.435-0.971-0.971l0,0
		c0-0.535,0.434-0.97,0.971-0.97h2.348C37.875,16.995,38.309,17.429,38.309,17.964L38.309,17.964z"/>
</g>
</svg>
