<?xml version="1.0" encoding="utf-8"?>
<!-- Generator: Adobe Illustrator 16.0.0, SVG Export Plug-In . SVG Version: 6.00 Build 0)  -->
<!DOCTYPE svg PUBLIC "-//W3C//DTD SVG 1.1//EN" "http://www.w3.org/Graphics/SVG/1.1/DTD/svg11.dtd">
<svg version="1.1" id="Layer_1" xmlns="http://www.w3.org/2000/svg" xmlns:xlink="http://www.w3.org/1999/xlink" x="0px" y="0px"
	 width="50px" height="50px" viewBox="0 0 50 50" enable-background="new 0 0 50 50" xml:space="preserve">
<g>
	<circle fill="#FFFFF9" cx="25.04" cy="25" r="25"/>
	<g>
		<path fill="#C75128" d="M16.503,12.742c0,0.483-0.391,0.875-0.875,0.875l0,0c-0.482,0-0.875-0.392-0.875-0.875v-1.435
			c0-0.483,0.393-0.875,0.875-0.875l0,0c0.484,0,0.875,0.392,0.875,0.875V12.742z"/>
		<rect x="10.022" y="25.377" fill="#C7CC91" stroke="#A1A371" stroke-miterlimit="10" width="10.018" height="10.018"/>
		<rect x="19.907" y="25.377" fill="#C7CC91" stroke="#A1A371" stroke-miterlimit="10" width="10.016" height="10.018"/>
		<rect x="29.923" y="25.377" fill="#C7CC91" stroke="#A1A371" stroke-miterlimit="10" width="10.018" height="10.018"/>
		<rect x="10.022" y="15.359" fill="#C7CC91" stroke="#A1A371" stroke-miterlimit="10" width="10.018" height="10.018"/>
		<rect x="19.907" y="15.359" fill="#C7CC91" stroke="#A1A371" stroke-miterlimit="10" width="10.016" height="10.018"/>
		<rect x="29.923" y="15.359" fill="#C7CC91" stroke="#A1A371" stroke-miterlimit="10" width="10.018" height="10.018"/>
		<g>
			<polygon fill="#D2764C" points="8.847,15.616 25.091,9.723 41.28,15.616 			"/>
			<polygon fill="#C75128" points="9.61,15.616 8.04,15.616 25.063,9.436 42.04,15.616 40.462,15.616 25.062,10.01 			"/>
			<polygon opacity="0.5" fill="#FFFFFF" points="11.79,15.616 11.286,15.616 25.089,10.614 38.813,15.616 38.308,15.616 
				25.087,10.799 			"/>
			<polygon opacity="0.5" fill="#FFFFFF" points="13.981,15.616 13.478,15.616 25.089,11.415 36.663,15.616 36.157,15.616 
				25.087,11.6 			"/>
			<polygon opacity="0.5" fill="#FFFFFF" points="16.132,15.616 15.628,15.616 25.089,12.198 34.472,15.616 33.964,15.616 
				25.087,12.383 			"/>
			<polygon opacity="0.5" fill="#FFFFFF" points="18.304,15.616 17.798,15.616 25.089,12.98 32.343,15.616 31.837,15.616 
				25.087,13.166 			"/>
			<polygon opacity="0.5" fill="#FFFFFF" points="20.517,15.616 20.013,15.616 25.089,13.772 30.185,15.616 29.677,15.616 
				25.087,13.958 			"/>
			<polygon opacity="0.5" fill="#FFFFFF" points="22.646,15.616 22.14,15.616 25.089,14.554 28.001,15.616 27.493,15.616 
				25.087,14.741 			"/>
			<polygon opacity="0.5" fill="#FFFFFF" points="24.858,15.616 24.354,15.616 25.089,15.355 25.851,15.616 25.343,15.616 
				25.087,15.542 			"/>
		</g>
	</g>
</g>
</svg>
