<?xml version="1.0" encoding="utf-8"?>
<!-- Generator: Adobe Illustrator 16.0.0, SVG Export Plug-In . SVG Version: 6.00 Build 0)  -->
<!DOCTYPE svg PUBLIC "-//W3C//DTD SVG 1.1//EN" "http://www.w3.org/Graphics/SVG/1.1/DTD/svg11.dtd">
<svg version="1.1" id="Layer_1" xmlns="http://www.w3.org/2000/svg" xmlns:xlink="http://www.w3.org/1999/xlink" x="0px" y="0px"
	 width="50px" height="50px" viewBox="0 0 50 50" enable-background="new 0 0 50 50" xml:space="preserve">
<g>
	<circle fill="#FFFFF9" cx="25.023" cy="25" r="25"/>
	<g>
		<path fill="#C75128" d="M21.616,22.008c0,0.282-0.229,0.511-0.511,0.511l0,0c-0.282,0-0.511-0.229-0.511-0.511v-1.794
			c0-0.282,0.229-0.511,0.511-0.511l0,0c0.282,0,0.511,0.229,0.511,0.511V22.008z"/>
		<rect x="19.639" y="24.695" fill="#C7CC91" stroke="#A1A371" stroke-miterlimit="10" width="10.792" height="10.678"/>
		<polygon fill="#D2764C" points="17.404,25.035 25.048,18.754 32.666,25.035 		"/>
		<polygon fill="#C75128" points="17.763,25.035 17.023,25.035 25.036,18.448 33.023,25.035 32.281,25.035 25.035,19.06 		"/>
		<polygon opacity="0.5" fill="#FFFFFF" points="18.789,25.035 18.551,25.035 25.046,19.704 31.506,25.035 31.268,25.035 
			25.046,19.902 		"/>
		<polygon opacity="0.5" fill="#FFFFFF" points="19.821,25.035 19.583,25.035 25.046,20.557 30.494,25.035 30.256,25.035 
			25.046,20.756 		"/>
		<polygon opacity="0.5" fill="#FFFFFF" points="20.833,25.035 20.594,25.035 25.046,21.391 29.463,25.035 29.225,25.035 
			25.046,21.59 		"/>
		<polygon opacity="0.5" fill="#FFFFFF" points="21.854,25.035 21.616,25.035 25.046,22.225 28.461,25.035 28.223,25.035 
			25.046,22.424 		"/>
		<polygon opacity="0.5" fill="#FFFFFF" points="22.896,25.035 22.658,25.035 25.046,23.07 27.445,25.035 27.207,25.035 
			25.046,23.268 		"/>
		<polygon opacity="0.5" fill="#FFFFFF" points="23.897,25.035 23.66,25.035 25.046,23.904 26.416,25.035 26.18,25.035 
			25.046,24.102 		"/>
		<polygon opacity="0.5" fill="#FFFFFF" points="24.939,25.035 24.702,25.035 25.046,24.757 25.405,25.035 25.167,25.035 
			25.046,24.957 		"/>
	</g>
</g>
</svg>
