<?xml version="1.0" encoding="utf-8"?>
<!-- Generator: Adobe Illustrator 16.0.0, SVG Export Plug-In . SVG Version: 6.00 Build 0)  -->
<!DOCTYPE svg PUBLIC "-//W3C//DTD SVG 1.1//EN" "http://www.w3.org/Graphics/SVG/1.1/DTD/svg11.dtd">
<svg version="1.1" id="Layer_1" xmlns="http://www.w3.org/2000/svg" xmlns:xlink="http://www.w3.org/1999/xlink" x="0px" y="0px"
	 width="50px" height="50px" viewBox="0 0 50 50" enable-background="new 0 0 50 50" xml:space="preserve">
<g>
	<circle fill="#FFFFF9" cx="25.005" cy="25" r="25"/>
	<g>
		<path fill="#C75128" d="M16.94,10.959c0,0.281-0.229,0.51-0.511,0.51l0,0c-0.282,0-0.511-0.229-0.511-0.51V9.165
			c0-0.281,0.229-0.51,0.511-0.51l0,0c0.282,0,0.511,0.229,0.511,0.51V10.959z"/>
		<rect x="15.246" y="24.438" fill="#C7CC91" stroke="#A1A371" stroke-miterlimit="10" width="10.995" height="10.927"/>
		<rect x="15.246" y="13.511" fill="#C7CC91" stroke="#A1A371" stroke-miterlimit="10" width="10.995" height="10.927"/>
		<rect x="26.099" y="24.438" fill="#C7CC91" stroke="#A1A371" stroke-miterlimit="10" width="10.995" height="10.927"/>
		<g>
			<polygon fill="#D2764C" points="12.981,13.791 20.77,7.363 28.531,13.791 			"/>
			<polygon fill="#C75128" points="13.347,13.791 12.594,13.791 20.757,7.049 28.895,13.791 28.139,13.791 20.756,7.676 			"/>
			<polygon opacity="0.5" fill="#FFFFFF" points="14.393,13.791 14.149,13.791 20.769,8.334 27.349,13.791 27.106,13.791 
				20.768,8.538 			"/>
			<polygon opacity="0.5" fill="#FFFFFF" points="15.443,13.791 15.201,13.791 20.769,9.208 26.317,13.791 26.075,13.791 
				20.768,9.412 			"/>
			<polygon opacity="0.5" fill="#FFFFFF" points="16.474,13.791 16.231,13.791 20.769,10.062 25.267,13.791 25.024,13.791 
				20.768,10.265 			"/>
			<polygon opacity="0.5" fill="#FFFFFF" points="17.515,13.791 17.272,13.791 20.769,10.917 24.246,13.791 24.003,13.791 
				20.768,11.119 			"/>
			<polygon opacity="0.5" fill="#FFFFFF" points="18.576,13.791 18.334,13.791 20.769,11.78 23.211,13.791 22.968,13.791 
				20.768,11.983 			"/>
			<polygon opacity="0.5" fill="#FFFFFF" points="19.597,13.791 19.354,13.791 20.769,12.633 22.164,13.791 21.921,13.791 
				20.768,12.836 			"/>
			<polygon opacity="0.5" fill="#FFFFFF" points="20.658,13.791 20.416,13.791 20.769,13.506 21.134,13.791 20.891,13.791 
				20.768,13.709 			"/>
		</g>
	</g>
</g>
</svg>
