<?xml version="1.0" encoding="utf-8"?>
<!-- Generator: Adobe Illustrator 16.0.0, SVG Export Plug-In . SVG Version: 6.00 Build 0)  -->
<!DOCTYPE svg PUBLIC "-//W3C//DTD SVG 1.1//EN" "http://www.w3.org/Graphics/SVG/1.1/DTD/svg11.dtd">
<svg version="1.1" id="Layer_1" xmlns="http://www.w3.org/2000/svg" xmlns:xlink="http://www.w3.org/1999/xlink" x="0px" y="0px"
	 width="50px" height="50px" viewBox="0 0 50 50" enable-background="new 0 0 50 50" xml:space="preserve">
<g>
	<circle fill="#FFFFF9" cx="25.039" cy="25" r="25"/>
	<g>
		<path fill="#C75128" d="M15.061,12.253c0,0.483-0.391,0.875-0.875,0.875l0,0c-0.482,0-0.875-0.392-0.875-0.875v-1.435
			c0-0.483,0.393-0.875,0.875-0.875l0,0c0.484,0,0.875,0.392,0.875,0.875V12.253z"/>
		<rect x="10.649" y="25.084" fill="#C7CC91" stroke="#A1A371" stroke-miterlimit="10" width="10.375" height="10.3"/>
		<rect x="20.889" y="25.084" fill="#C7CC91" stroke="#A1A371" stroke-miterlimit="10" width="10.375" height="10.3"/>
		<rect x="10.649" y="14.785" fill="#C7CC91" stroke="#A1A371" stroke-miterlimit="10" width="10.375" height="10.3"/>
		<rect x="20.889" y="14.785" fill="#C7CC91" stroke="#A1A371" stroke-miterlimit="10" width="10.375" height="10.3"/>
		<rect x="31.264" y="25.084" fill="#C7CC91" stroke="#A1A371" stroke-miterlimit="10" width="10.375" height="10.3"/>
		<g>
			<polygon fill="#D2764C" points="8.745,15.048 20.928,8.99 33.07,15.048 			"/>
			<polygon fill="#C75128" points="9.317,15.048 8.139,15.048 20.909,8.694 33.639,15.048 32.457,15.048 20.907,9.286 			"/>
			<polygon opacity="0.5" fill="#FFFFFF" points="10.952,15.048 10.573,15.048 20.926,9.906 31.221,15.048 30.84,15.048 
				20.924,10.097 			"/>
			<polygon opacity="0.5" fill="#FFFFFF" points="12.596,15.048 12.217,15.048 20.926,10.729 29.607,15.048 29.229,15.048 
				20.924,10.92 			"/>
			<polygon opacity="0.5" fill="#FFFFFF" points="14.209,15.048 13.831,15.048 20.926,11.534 27.963,15.048 27.584,15.048 
				20.924,11.725 			"/>
			<polygon opacity="0.5" fill="#FFFFFF" points="15.836,15.048 15.458,15.048 20.926,12.338 26.365,15.048 25.986,15.048 
				20.924,12.53 			"/>
			<polygon opacity="0.5" fill="#FFFFFF" points="17.497,15.048 17.118,15.048 20.926,13.153 24.749,15.048 24.368,15.048 
				20.924,13.344 			"/>
			<polygon opacity="0.5" fill="#FFFFFF" points="19.094,15.048 18.715,15.048 20.926,13.958 23.11,15.048 22.731,15.048 
				20.924,14.149 			"/>
			<polygon opacity="0.5" fill="#FFFFFF" points="20.754,15.048 20.375,15.048 20.926,14.782 21.497,15.048 21.118,15.048 
				20.924,14.972 			"/>
		</g>
	</g>
</g>
</svg>
