<?xml version="1.0" encoding="utf-8"?>
<!-- Generator: Adobe Illustrator 16.0.0, SVG Export Plug-In . SVG Version: 6.00 Build 0)  -->
<!DOCTYPE svg PUBLIC "-//W3C//DTD SVG 1.1//EN" "http://www.w3.org/Graphics/SVG/1.1/DTD/svg11.dtd">
<svg version="1.1" id="Layer_1" xmlns="http://www.w3.org/2000/svg" xmlns:xlink="http://www.w3.org/1999/xlink" x="0px" y="0px"
	 width="50px" height="50px" viewBox="0 0 50 50" enable-background="new 0 0 50 50" xml:space="preserve">
<g>
	<circle fill="#FFFFF9" cx="25.005" cy="25" r="25"/>
	<g>
		<path fill="#C75128" d="M19.835,12.551c0,0.482-0.393,0.875-0.875,0.875l0,0c-0.484,0-0.875-0.393-0.875-0.875v-1.436
			c0-0.482,0.391-0.875,0.875-0.875l0,0c0.482,0,0.875,0.393,0.875,0.875V12.551z"/>
		<rect x="14.968" y="25.297" fill="#C7CC91" stroke="#A1A371" stroke-miterlimit="10" width="10.17" height="10.093"/>
		<rect x="25.005" y="25.297" fill="#C7CC91" stroke="#A1A371" stroke-miterlimit="10" width="10.172" height="10.093"/>
		<rect x="14.968" y="15.204" fill="#C7CC91" stroke="#A1A371" stroke-miterlimit="10" width="10.17" height="10.094"/>
		<rect x="25.005" y="15.204" fill="#C7CC91" stroke="#A1A371" stroke-miterlimit="10" width="10.172" height="10.094"/>
		<g>
			<polygon fill="#D2764C" points="13.099,15.542 25.044,9.604 36.948,15.542 			"/>
			<polygon fill="#C75128" points="13.661,15.542 12.505,15.542 25.024,9.315 37.505,15.542 36.345,15.542 25.022,9.895 			"/>
			<polygon opacity="0.5" fill="#FFFFFF" points="15.263,15.542 14.892,15.542 25.042,10.502 35.134,15.542 34.763,15.542 
				25.04,10.69 			"/>
			<polygon opacity="0.5" fill="#FFFFFF" points="16.876,15.542 16.505,15.542 25.042,11.309 33.554,15.542 33.181,15.542 
				25.04,11.497 			"/>
			<polygon opacity="0.5" fill="#FFFFFF" points="18.456,15.542 18.085,15.542 25.042,12.098 31.94,15.542 31.569,15.542 
				25.04,12.286 			"/>
			<polygon opacity="0.5" fill="#FFFFFF" points="20.054,15.542 19.681,15.542 25.042,12.887 30.376,15.542 30.003,15.542 
				25.04,13.075 			"/>
			<polygon opacity="0.5" fill="#FFFFFF" points="21.681,15.542 21.31,15.542 25.042,13.684 28.788,15.542 28.417,15.542 
				25.04,13.872 			"/>
			<polygon opacity="0.5" fill="#FFFFFF" points="23.245,15.542 22.874,15.542 25.042,14.473 27.183,15.542 26.81,15.542 
				25.04,14.661 			"/>
			<polygon opacity="0.5" fill="#FFFFFF" points="24.874,15.542 24.501,15.542 25.042,15.28 25.603,15.542 25.229,15.542 
				25.04,15.467 			"/>
		</g>
	</g>
</g>
</svg>
