<?xml version="1.0" encoding="utf-8"?>
<!-- Generator: Adobe Illustrator 16.0.0, SVG Export Plug-In . SVG Version: 6.00 Build 0)  -->
<!DOCTYPE svg PUBLIC "-//W3C//DTD SVG 1.1//EN" "http://www.w3.org/Graphics/SVG/1.1/DTD/svg11.dtd">
<svg version="1.1" id="Layer_1" xmlns="http://www.w3.org/2000/svg" xmlns:xlink="http://www.w3.org/1999/xlink" x="0px" y="0px"
	 width="50px" height="50px" viewBox="0 0 50 50" enable-background="new 0 0 50 50" xml:space="preserve">
<g>
	<circle fill="#FFFFF9" cx="25.022" cy="25" r="25"/>
	<g>
		<path fill="#C75128" d="M18.964,23.342c0,0.482-0.392,0.875-0.875,0.875l0,0c-0.483,0-0.875-0.393-0.875-0.875v-1.436
			c0-0.482,0.392-0.875,0.875-0.875l0,0c0.483,0,0.875,0.393,0.875,0.875V23.342z"/>
		<rect x="14.987" y="25.347" fill="#C7CC91" stroke="#A1A371" stroke-miterlimit="10" width="10.171" height="10.043"/>
		<rect x="25.025" y="25.347" fill="#C7CC91" stroke="#A1A371" stroke-miterlimit="10" width="10.171" height="10.043"/>
		<g>
			<polygon fill="#D2764C" points="13.116,25.666 25.062,19.758 36.965,25.666 			"/>
			<polygon fill="#C75128" points="13.679,25.666 12.522,25.666 25.041,19.47 37.522,25.666 36.363,25.666 25.04,20.046 			"/>
			<polygon opacity="0.5" fill="#FFFFFF" points="15.281,25.666 14.91,25.666 25.06,20.651 35.151,25.666 34.779,25.666 
				25.059,20.838 			"/>
			<polygon opacity="0.5" fill="#FFFFFF" points="16.893,25.666 16.521,25.666 25.06,21.455 33.57,25.666 33.198,25.666 
				25.059,21.641 			"/>
			<polygon opacity="0.5" fill="#FFFFFF" points="18.474,25.666 18.103,25.666 25.06,22.239 31.958,25.666 31.586,25.666 
				25.059,22.426 			"/>
			<polygon opacity="0.5" fill="#FFFFFF" points="20.07,25.666 19.699,25.666 25.06,23.024 30.393,25.666 30.021,25.666 
				25.059,23.21 			"/>
			<polygon opacity="0.5" fill="#FFFFFF" points="21.698,25.666 21.326,25.666 25.06,23.818 28.806,25.666 28.434,25.666 
				25.059,24.004 			"/>
			<polygon opacity="0.5" fill="#FFFFFF" points="23.264,25.666 22.892,25.666 25.06,24.602 27.2,25.666 26.828,25.666 
				25.059,24.79 			"/>
			<polygon opacity="0.5" fill="#FFFFFF" points="24.891,25.666 24.52,25.666 25.06,25.406 25.619,25.666 25.247,25.666 
				25.059,25.592 			"/>
		</g>
	</g>
</g>
</svg>
