<?xml version="1.0" encoding="utf-8"?>
<!-- Generator: Adobe Illustrator 16.0.0, SVG Export Plug-In . SVG Version: 6.00 Build 0)  -->
<!DOCTYPE svg PUBLIC "-//W3C//DTD SVG 1.1//EN" "http://www.w3.org/Graphics/SVG/1.1/DTD/svg11.dtd">
<svg version="1.1" id="Layer_1" xmlns="http://www.w3.org/2000/svg" xmlns:xlink="http://www.w3.org/1999/xlink" x="0px" y="0px"
	 width="50px" height="50px" viewBox="0 0 50 50" enable-background="new 0 0 50 50" xml:space="preserve">
<g>
	<g>
		<circle fill="#FFFEF9" cx="25" cy="25" r="25"/>
		<g id="Your_Icon">
			<path fill="#0586BB" d="M43.947,24.435c-0.123-0.686-0.686-0.831-1.619-0.986c-0.936-0.156-9.012-1.217-9.012-1.217
				s-2.809-3.678-4.021-4.986c-1.068-1.153-1.379-1.057-3.811-1.244c-1.906-0.146-14.902-0.279-16.182-0.031
				c-0.895,0.174-1.336,0.557-1.646,1.149c-0.312,0.593-1.029,4.942-1.309,6.501c-0.281,1.557,0.035,3.682,0.035,3.682H5.729
				c0,0-0.031,0.701,0,1.449c0.031,0.746,0.781,1.119,1.338,1.316c0.613,0.215,1.74,0.654,3.266,1.049c0,0,0.205-4.201,4.066-4.201
				c4.166,0,4.027,5.016,4.027,5.016h13.816c0,0,1.309-0.064,1.48-0.084c-0.273,0.133-0.652-4.727,3.639-5.129
				c4.32-0.404,4.428,4.156,4.428,4.156c1.186-0.143,1.74-0.225,1.951-0.262c0.436-0.076,0.484-0.145,0.52-0.398
				C44.373,29.407,44.072,25.123,43.947,24.435z M8.477,22.165c0.094-0.498,0.533-3.438,0.799-3.964
				c0.242-0.476,0.686-0.54,1.277-0.54c0.469,0,4.307,0,4.307,0l-0.654,5.398c0,0-4.357,0-4.885,0
				C8.789,23.06,8.385,22.665,8.477,22.165z M21.914,23.06h-5.836l0.529-5.398h5.307V23.06z M30.967,23.06c-0.404,0-7.123,0-7.123,0
				v-5.432c0,0,2.586,0,3.428,0.312c0.84,0.312,3.561,4.1,3.871,4.443C31.455,22.727,31.371,23.06,30.967,23.06z"/>
		</g>
		<path fill="#4A4A4B" d="M14.4,27.284c-1.902,0-3.445,1.537-3.445,3.443c0,1.898,1.541,3.441,3.445,3.441s3.441-1.539,3.441-3.441
			C17.842,28.821,16.301,27.284,14.4,27.284z M14.41,32.601c-1.059,0-1.914-0.857-1.914-1.914s0.855-1.912,1.914-1.912
			c1.057,0,1.91,0.855,1.91,1.912C16.322,31.743,15.461,32.601,14.41,32.601z"/>
		<path fill="#4A4A4B" d="M37.857,27.284c-1.904,0-3.445,1.537-3.445,3.443c0,1.898,1.541,3.441,3.445,3.441
			s3.441-1.539,3.441-3.441C41.299,28.821,39.758,27.284,37.857,27.284z M37.867,32.601c-1.061,0-1.914-0.857-1.914-1.914
			s0.854-1.912,1.914-1.912c1.055,0,1.908,0.855,1.908,1.912C39.777,31.743,38.918,32.601,37.867,32.601z"/>
	</g>
	<path fill="#FFFFFF" d="M41.877,26.585l-1.529-2.515l2.295,0.493c0.254,0,0.762,2.021,0.762,2.021H41.877L41.877,26.585z"/>
</g>
</svg>
