<?xml version="1.0" encoding="utf-8"?>
<!-- Generator: Adobe Illustrator 16.0.0, SVG Export Plug-In . SVG Version: 6.00 Build 0)  -->
<!DOCTYPE svg PUBLIC "-//W3C//DTD SVG 1.1//EN" "http://www.w3.org/Graphics/SVG/1.1/DTD/svg11.dtd">
<svg version="1.1" id="Layer_1" xmlns="http://www.w3.org/2000/svg" xmlns:xlink="http://www.w3.org/1999/xlink" x="0px" y="0px"
	 width="50px" height="50px" viewBox="0 0 50 50" enable-background="new 0 0 50 50" xml:space="preserve">
<g>
	<circle fill="#FFFEF9" cx="25" cy="24.933" r="25"/>
	<path fill="#4A4A4B" d="M36.551,22.576c2.683,0,4.865,2.182,4.865,4.866c0,2.682-2.183,4.863-4.865,4.863
		c-2.682,0-4.865-2.182-4.865-4.863C31.686,24.757,33.869,22.576,36.551,22.576 M36.551,20.919c-3.601,0-6.52,2.92-6.52,6.522
		c0,3.6,2.919,6.52,6.52,6.52c3.602,0,6.521-2.92,6.521-6.52C43.071,23.839,40.152,20.919,36.551,20.919L36.551,20.919z"/>
	<path fill="#149D86" d="M36.551,25.316c1.172,0,2.125,0.952,2.125,2.125c0,1.17-0.953,2.123-2.125,2.123
		c-1.171,0-2.125-0.953-2.125-2.123C34.426,26.268,35.38,25.316,36.551,25.316 M36.551,23.55c-2.148,0-3.889,1.74-3.889,3.891
		c0,2.146,1.74,3.889,3.889,3.889c2.149,0,3.891-1.742,3.891-3.889C40.441,25.291,38.7,23.55,36.551,23.55L36.551,23.55z"/>
	<path fill="#149D86" d="M13.877,25.316c1.172,0,2.125,0.952,2.125,2.125c0,1.17-0.953,2.123-2.125,2.123
		c-1.171,0-2.123-0.953-2.123-2.123C11.754,26.268,12.706,25.316,13.877,25.316 M13.877,23.55c-2.148,0-3.889,1.74-3.889,3.891
		c0,2.146,1.74,3.889,3.889,3.889s3.891-1.742,3.891-3.889C17.768,25.291,16.025,23.55,13.877,23.55L13.877,23.55z"/>
	<path fill="#4A4A4B" d="M13.877,22.576c2.684,0,4.865,2.182,4.865,4.866c0,2.682-2.182,4.863-4.865,4.863
		c-2.682,0-4.864-2.182-4.864-4.863C9.013,24.757,11.195,22.576,13.877,22.576 M13.877,20.919c-3.6,0-6.52,2.92-6.52,6.522
		c0,3.6,2.92,6.52,6.52,6.52c3.603,0,6.521-2.92,6.521-6.52C20.398,23.839,17.479,20.919,13.877,20.919L13.877,20.919z"/>
	
		<line fill="none" stroke="#F0EFEF" stroke-width="0.4446" stroke-miterlimit="10" x1="36.551" y1="23.244" x2="36.551" y2="31.969"/>
	
		<line fill="none" stroke="#F0EFEF" stroke-width="0.4446" stroke-miterlimit="10" x1="32.168" y1="27.441" x2="40.894" y2="27.441"/>
	
		<line fill="none" stroke="#F0EFEF" stroke-width="0.4446" stroke-miterlimit="10" x1="33.578" y1="24.398" x2="39.746" y2="30.566"/>
	
		<line fill="none" stroke="#F0EFEF" stroke-width="0.4446" stroke-miterlimit="10" x1="39.637" y1="24.313" x2="33.466" y2="30.482"/>
	
		<line fill="none" stroke="#F0EFEF" stroke-width="0.4446" stroke-miterlimit="10" x1="13.863" y1="23.244" x2="13.863" y2="31.969"/>
	<line fill="none" stroke="#F0EFEF" stroke-width="0.4446" stroke-miterlimit="10" x1="9.48" y1="27.441" x2="18.205" y2="27.441"/>
	
		<line fill="none" stroke="#F0EFEF" stroke-width="0.4446" stroke-miterlimit="10" x1="10.89" y1="24.398" x2="17.059" y2="30.566"/>
	
		<line fill="none" stroke="#F0EFEF" stroke-width="0.4446" stroke-miterlimit="10" x1="16.949" y1="24.313" x2="10.779" y2="30.482"/>
	<path fill="#4A4A4B" d="M24.631,18.882v5.501c0,0-0.723-0.026-1.028-0.222s-5.89-4.613-5.89-4.613l1.416-1.834L24.631,18.882z"/>
	<path fill="#4A4A4B" d="M25.547,18.744v5.64c0,0,0.641-0.083,1.057-0.333c0.417-0.25,5.863-4.445,5.863-4.445l-1.473-1.891
		L25.547,18.744z"/>
	<polygon fill="#FDFEFF" points="27.622,19.4 27.622,20.512 30.031,19.957 30.031,18.66 	"/>
	<path fill="#4A4A4B" d="M35.217,21.244c0,0-2.426-5.327-3.011-5.912c-0.306-0.305-1.101-0.315-1.101-0.315l-2.279,0.003
		c0,0-0.333,0.251-0.333,0.64c0,0.39,0.251,0.639,0.333,0.639c0.084,0,2.279,0.028,2.279,0.028s0.36-0.028,0.916,1.25
		c0.557,1.278,1.918,4.225,1.918,4.225L35.217,21.244z"/>
	<path fill="#E7754B" d="M36.857,14.826v3.334h-2.141c0,0-1.139-0.277-1.139-1.668c0-1.389,0.973-1.666,0.973-1.666H36.857z"/>
	<path fill="#4A4A4B" d="M22.241,23.912v1.473l-4.251-3.28c0,0-2.39-1.861-2.751-2.057c-0.361-0.193-1.194-0.453-1.723-0.463
		c-0.528-0.009-1.417,0.158-1.584,0.186s-0.306-0.361,0-0.527c0.306-0.168,1.167-0.611,1.973-0.584s1.835,0.074,2.862,0.926
		C17.795,20.438,22.241,23.912,22.241,23.912z"/>
	<path fill="#4A4A4B" d="M26.965,25.607l1.557-1.807c0,0,1.027-0.501,1.444,0c0.417,0.5,0.38,1.166,0.093,1.416
		c-0.287,0.25-3.066,3.641-3.482,3.725c-0.417,0.082-3.807,0-3.807,0v-2.812h1.307c0,0,0.443-1.051,1.499-1.051
		S26.965,25.607,26.965,25.607z"/>
	<path fill="#4A4A4B" d="M22.77,26.801h-8.947c0,0-0.668,0.277-0.668,0.807c0,0.527,0.695,0.834,0.695,0.834h8.92V26.801z"/>
</g>
</svg>
