<?xml version="1.0" encoding="utf-8"?>
<!-- Generator: Adobe Illustrator 16.0.0, SVG Export Plug-In . SVG Version: 6.00 Build 0)  -->
<!DOCTYPE svg PUBLIC "-//W3C//DTD SVG 1.1//EN" "http://www.w3.org/Graphics/SVG/1.1/DTD/svg11.dtd">
<svg version="1.1" id="Layer_1" xmlns="http://www.w3.org/2000/svg" xmlns:xlink="http://www.w3.org/1999/xlink" x="0px" y="0px"
	 width="50px" height="50px" viewBox="0 0 50 50" enable-background="new 0 0 50 50" xml:space="preserve">
<g>
	<path fill="#FFFEF9" d="M50,24.999c0,13.807-11.192,25.002-25,25.002S0,38.806,0,24.999c0-13.805,11.192-25,25-25
		S50,11.194,50,24.999z"/>
	<g>
		<path fill="#C85752" d="M8.2,28.011c0.008,0.141,0.295,0.082,0.295,0.133c0,0.549,0.814,0.605,1.024,0.609l0.87,0.436
			c0.021,0.012,0.047,0.018,0.071,0.018h0.452c-0.037-0.197-0.059-0.402-0.059-0.611c0-1.773,1.443-3.219,3.219-3.219
			s3.22,1.445,3.22,3.219c0,0.209-0.021,0.414-0.059,0.611h16.472c-0.039-0.197-0.061-0.402-0.061-0.611
			c0-1.773,1.445-3.219,3.22-3.219c1.775,0,3.22,1.445,3.22,3.219c0,0.178-0.016,0.35-0.043,0.52
			c0.977-0.074,2.177-0.162,2.177-0.162c0.087,0,0.159-0.072,0.159-0.16c0-0.014,0.01-0.398,0.393-0.793
			c0.029-0.027,0.045-0.068,0.045-0.109c0-0.518,0.045-0.922,0.041-1.326c-1.373-0.227-2.629-1.574-3.005-2.293
			c-0.032-0.062-0.009-0.139,0.054-0.172c0.018-0.008,0.034-0.012,0.051-0.014c0.256-0.057,0.91,0.25,1.23,0.629
			c0.35,0.413,0.276,0.883,0.637,1.18c0.326,0.193,0.674,0.342,1.023,0.41c-0.02-0.27-0.068-0.547-0.176-0.869
			c0,0-0.451-0.901-0.452-0.904c-0.874-1.312-5.023-2.273-9.448-2.722c-1.684-1.519-5.459-3.484-6.559-3.76
			c0,0-1.393-0.291-2.743-0.291c-3.603,0-9.726,0.092-11.388,0.518c-0.822,0.212-3.473,2.549-4.352,3.704
			c-0.859,1.284-0.449,2.941-0.244,3.621h0.232c0.32-0.014,0.244-0.215,0.188-0.424c-0.12-0.442-0.154-0.952-0.059-1.04
			c0.172-0.16,0.752-0.021,0.844,0.629c0.033,0.229,0.058,1.073-0.326,1.088c-0.002,0-0.004,0-0.005,0H7.28
			c-0.039,0.023-0.063,0.051-0.072,0.088C7.208,25.942,6.761,27.007,8.2,28.011z M12.241,20.465c0.574-0.74,1.266-1.454,2.17-1.545
			c5.217-0.527,10.172-0.363,11.71-0.029c1.126,0.281,4.435,2.73,4.845,3.25c0.237,0.308,0.066,0.584-0.326,0.584
			c-0.394,0-16.478-0.699-18.422-0.699C11.218,22.026,11.63,21.251,12.241,20.465z"/>
		<path fill="#4A4A4B" d="M34.155,28.597c0,1.496,1.214,2.709,2.709,2.709c1.497,0,2.711-1.213,2.711-2.709
			s-1.214-2.711-2.711-2.711C35.369,25.886,34.155,27.101,34.155,28.597z M35.261,28.597c0-0.887,0.719-1.605,1.604-1.605
			s1.605,0.719,1.605,1.605c0,0.885-0.721,1.604-1.605,1.604S35.261,29.481,35.261,28.597z"/>
		<path fill="#4A4A4B" d="M11.364,28.597c0,1.496,1.213,2.709,2.709,2.709s2.709-1.213,2.709-2.709s-1.211-2.711-2.709-2.711
			C12.577,25.886,11.364,27.101,11.364,28.597z M12.464,28.597c0-0.887,0.719-1.605,1.604-1.605c0.886,0,1.605,0.719,1.605,1.605
			c0,0.885-0.721,1.604-1.605,1.604S12.464,29.481,12.464,28.597z"/>
	</g>
</g>
</svg>
