<?xml version="1.0" encoding="utf-8"?>
<!-- Generator: Adobe Illustrator 16.0.0, SVG Export Plug-In . SVG Version: 6.00 Build 0)  -->
<!DOCTYPE svg PUBLIC "-//W3C//DTD SVG 1.1//EN" "http://www.w3.org/Graphics/SVG/1.1/DTD/svg11.dtd">
<svg version="1.1" id="Layer_1" xmlns="http://www.w3.org/2000/svg" xmlns:xlink="http://www.w3.org/1999/xlink" x="0px" y="0px"
	 width="50px" height="50px" viewBox="0 0 50 50" enable-background="new 0 0 50 50" xml:space="preserve">
<g>
	<circle fill="#FFFEF9" cx="25" cy="25.062" r="25"/>
	<g>
		<path fill="none" d="M43.254,24.843c0.465,0.246,0.775,0.322,0.672-0.051c-0.105-0.371-0.672-0.654-0.672-0.654h-0.205
			C42.535,24.138,42.793,24.601,43.254,24.843z"/>
		<path fill="none" d="M25.752,23.467c1.139,0.051,0.715-0.412,0.459-0.412c-0.26,0-1.135,0-1.135,0
			C24.664,23.055,24.611,23.417,25.752,23.467z"/>
		<circle fill="none" cx="14.305" cy="27.491" r="1.514"/>
		<circle fill="none" cx="37.271" cy="27.388" r="1.514"/>
		<path fill="none" d="M17.766,19.089c-0.463,0.669-0.311,2.473-0.311,2.473s5.51,0.205,5.51,0c0-0.206-0.309-3.296-0.309-3.296
			s-2.471,0-2.934,0C19.256,18.266,18.227,18.421,17.766,19.089z"/>
		<path fill="none" d="M7.307,23.366c0.027,0.334,0.824,0.514,0.98,0c0.156-0.516-0.615-1.958-0.615-1.958
			C7.285,21.407,7.285,23.031,7.307,23.366z"/>
		<path fill="none" d="M23.994,18.266c0,0,0.617,3.193,0.566,3.4c-0.053,0.206,6.18,0.206,6.18,0.206v-1.339
			c0,0-1.803-1.493-2.936-1.805C26.674,18.42,24.561,18.266,23.994,18.266z"/>
		<path fill="#4A4A4B" d="M11.584,27.522c0,1.508,1.219,2.727,2.725,2.727c1.51,0,2.729-1.223,2.729-2.727
			c0-1.51-1.221-2.729-2.729-2.729C12.805,24.794,11.584,26.013,11.584,27.522z M12.791,27.491c0-0.838,0.676-1.516,1.512-1.516
			c0.838,0,1.516,0.678,1.516,1.516c0,0.836-0.678,1.514-1.516,1.514C13.469,29.005,12.789,28.327,12.791,27.491z"/>
		<path fill="#4A4A4B" d="M34.551,27.417c0,1.508,1.221,2.727,2.727,2.727c1.508,0,2.729-1.223,2.729-2.727
			c0-1.508-1.223-2.729-2.729-2.729S34.551,25.909,34.551,27.417z M35.758,27.388c0-0.836,0.678-1.516,1.514-1.516
			c0.834,0,1.514,0.678,1.514,1.516c0,0.836-0.68,1.516-1.514,1.516S35.758,28.224,35.758,27.388z"/>
		<path fill="#EED361" d="M6.846,26.608c0.309,0.361,3.965,0.928,4.117,0.928c0.156,0,0.209-3.09,3.223-3.066
			c3.012,0.027,3.373,3.066,3.373,3.066v0.773h16.48V27.69c0,0,0.1-3.346,3.344-3.346c2.938,0,3.193,3.398,3.193,3.398h3.967
			c0,0,0-0.771,0-1.029c0-0.26,0.41,0.051,0.359-0.26c-0.049-0.309,0.361-1.285-0.049-1.441c-0.412-0.154-0.568-0.412-0.773-0.875
			c-0.207-0.463-3.193-1.855-7.982-2.576c-0.766-0.115-5.82-3.399-7.26-3.708c-1.445-0.309-8.369-1.316-11.588-0.141
			c-1.496,0.547-4.535,2.615-5.564,2.872s-3.912-0.103-4.324,0.257c-0.412,0.361-0.412,2.678-0.412,2.936
			c0,0.256-0.23,0.488-0.41,0.668C6.357,24.626,6.539,26.251,6.846,26.608z M43.049,24.138h0.205c0,0,0.566,0.283,0.672,0.656
			c0.104,0.373-0.207,0.297-0.672,0.049C42.793,24.601,42.535,24.138,43.049,24.138z M25.076,23.055c0,0,0.873,0,1.133,0
			c0.256,0,0.682,0.463-0.457,0.412C24.611,23.417,24.664,23.055,25.076,23.055z M23.994,18.266c0.566,0,2.68,0.154,3.811,0.463
			c1.133,0.312,2.936,1.805,2.936,1.805v1.336c0,0-6.232,0-6.18-0.205C24.611,21.459,23.994,18.266,23.994,18.266z M17.764,19.09
			c0.463-0.669,1.492-0.824,1.959-0.824c0.463,0,2.934,0,2.934,0s0.309,3.092,0.309,3.297s-5.51,0-5.51,0
			S17.303,19.758,17.764,19.09z M7.672,21.408c0,0,0.771,1.444,0.615,1.958c-0.154,0.514-0.953,0.334-0.979,0
			C7.285,23.031,7.285,21.407,7.672,21.408z"/>
	</g>
</g>
</svg>
