<?xml version="1.0" encoding="utf-8"?>
<!-- Generator: Adobe Illustrator 16.0.0, SVG Export Plug-In . SVG Version: 6.00 Build 0)  -->
<!DOCTYPE svg PUBLIC "-//W3C//DTD SVG 1.1//EN" "http://www.w3.org/Graphics/SVG/1.1/DTD/svg11.dtd">
<svg version="1.1" id="Layer_1" xmlns="http://www.w3.org/2000/svg" xmlns:xlink="http://www.w3.org/1999/xlink" x="0px" y="0px"
	 width="50px" height="50px" viewBox="0 0 50 50" enable-background="new 0 0 50 50" xml:space="preserve">
<g>
	<circle fill="#FFFEF9" cx="25" cy="24.933" r="25"/>
	<g>
		<path fill="#D7C8A8" d="M14.023,19.48c3.689,0,6.68,2.99,6.68,6.68c0,3.689-2.99,6.68-6.68,6.68s-6.68-2.99-6.68-6.68
			C7.344,22.47,10.334,19.48,14.023,19.48 M14.023,19.969c-3.413,0-6.189,2.778-6.189,6.191c0,3.412,2.776,6.188,6.189,6.188
			s6.189-2.775,6.189-6.188C20.213,22.748,17.437,19.969,14.023,19.969L14.023,19.969z"/>
		<path fill="#4A3133" d="M13.993,18.749c4.097,0,7.415,3.32,7.415,7.417c0,4.094-3.318,7.414-7.415,7.414
			c-4.095,0-7.414-3.32-7.414-7.414C6.579,22.069,9.898,18.749,13.993,18.749 M13.993,19.541c-3.651,0-6.623,2.973-6.623,6.625
			c0,3.65,2.972,6.623,6.623,6.623c3.653,0,6.626-2.973,6.626-6.623C20.619,22.513,17.646,19.541,13.993,19.541L13.993,19.541z"/>
		<path fill="#D7C8A8" d="M36.007,19.486c3.688,0,6.68,2.99,6.68,6.68c0,3.688-2.991,6.68-6.68,6.68s-6.68-2.992-6.68-6.68
			C29.327,22.476,32.318,19.486,36.007,19.486 M36.007,19.975c-3.413,0-6.188,2.776-6.188,6.191c0,3.412,2.775,6.188,6.188,6.188
			s6.188-2.775,6.188-6.188C42.195,22.751,39.42,19.975,36.007,19.975L36.007,19.975z"/>
		<path fill="#493338" d="M36.007,18.749c4.095,0,7.415,3.32,7.415,7.417c0,4.094-3.32,7.414-7.415,7.414
			c-4.096,0-7.415-3.32-7.415-7.414C28.592,22.069,31.911,18.749,36.007,18.749 M36.007,19.541c-3.653,0-6.624,2.973-6.624,6.625
			c0,3.65,2.971,6.623,6.624,6.623c3.652,0,6.624-2.973,6.624-6.623C42.631,22.513,39.659,19.541,36.007,19.541L36.007,19.541z"/>
		<line x1="14.027" y1="25.391" x2="22.902" y2="25.082"/>
		<polygon fill="#493338" points="14.023,25.283 22.898,24.974 22.906,25.191 14.031,25.498 14.023,25.283 		"/>
		<line x1="22.245" y1="29.537" x2="14.002" y2="26.98"/>
		<polygon fill="#493338" points="13.971,27.082 14.033,26.877 22.276,29.434 22.213,29.641 13.971,27.082 		"/>
		<path fill="#5E5E5E" d="M22.846,24.996c1.3,0,2.354,1.055,2.354,2.354c0,1.301-1.054,2.355-2.354,2.355
			c-1.301,0-2.354-1.055-2.354-2.355C20.492,26.051,21.545,24.996,22.846,24.996 M22.846,25.789c-0.859,0-1.561,0.701-1.561,1.561
			c0,0.861,0.701,1.561,1.561,1.561s1.559-0.699,1.559-1.561C24.404,26.49,23.705,25.789,22.846,25.789L22.846,25.789z"/>
		<path fill="#493338" d="M16.311,12.199c0.087,0.403,0.696,0.699,1.136,0.773c0.114,0.066,0.129,0.239,0.292,0.262
			c0.29,0.043,1.319-0.074,1.678-0.201c0.242-0.085,0.432-0.246,0.662-0.338c0.188-0.073,0.513-0.139,0.75-0.115
			c0.135,0.014,0.268,0.144,0.442,0.152c0.177,0.008,0.353-0.035,0.517-0.1c0.096-0.036,0.192-0.082,0.281-0.129
			c0.035-0.02,0.053-0.041,0.06-0.062c0.013-0.049-0.021-0.102-0.052-0.157c-0.025-0.048-0.055-0.093-0.09-0.136
			c-0.074-0.082-0.17-0.139-0.275-0.176c-0.255-0.084-0.542-0.083-0.807-0.08c-0.172,0.002-0.343,0.012-0.515,0.018
			c-0.448,0.019-0.97,0.041-1.417,0.039c-0.723-0.001-1.271-0.076-1.947-0.15C16.674,11.761,16.202,11.695,16.311,12.199z
			 M18.017,13.128c-0.157,0.002-0.294-0.02-0.354-0.132l0.229-0.019v0.004c0.038-0.004,0.127-0.01,0.129-0.01v-0.004
			c0.623-0.027,1.109-0.16,1.653-0.213c-0.146,0.11-0.216,0.163-0.463,0.223C19.211,12.986,18.442,13.115,18.017,13.128z"/>
		<path fill="#493338" d="M20.906,27.51c0,0,1.217-0.07,1.322-0.354s-0.547-1.27-0.547-1.27l0.335-0.193c0,0,0.44,1.092,0.794,1.092
			c0.353,0,0.969-1.057,0.969-1.057l0.336,0.281c0,0-0.795,0.83-0.759,1.129c0.036,0.301,1.252,0.705,1.252,0.705l-0.141,0.389
			l-0.706-0.123l1.552,2.396l0.582,0.123L25.948,31l-0.229,0.229l-1.428,0.178l-0.264-0.301l0.07-0.352l0.352-0.143l-1.498-2.203
			l-0.018,0.811h-0.458c0,0,0.194-1.252-0.036-1.41c-0.229-0.158-1.428,0.193-1.428,0.193L20.906,27.51z"/>
		<path fill="#FFFFFF" d="M32.398,18.708c0.711-0.109,1.445-0.247,2.05-0.59l0,0l0.039,0.068c-0.622,0.353-1.364,0.49-2.077,0.6l0,0
			L32.398,18.708L32.398,18.708z"/>
		<path fill="#FFFFFF" d="M32.135,18.041c0.519-0.078,1.025-0.175,1.443-0.336l0,0l0.027,0.076c-0.428,0.163-0.939,0.26-1.459,0.338
			l0,0L32.135,18.041L32.135,18.041z"/>
		<g>
			<path fill="none" d="M14.436,25.383c0.285,0.156,0.477,0.457,0.477,0.805c0,0.041-0.003,0.08-0.009,0.119L22.437,27L19.47,16.811
				L14.436,25.383z"/>
			<path fill="none" d="M34.711,17.048c0.14-0.213,0.232-0.473,0.26-0.823c0.002-0.03,0.004-0.06,0.004-0.088
				c-0.002-0.303-0.116-0.532-0.32-0.747c-0.203-0.211-0.503-0.391-0.821-0.525c-0.639-0.273-1.347-0.374-1.491-0.391
				c-0.006-0.002-0.01-0.002-0.013-0.002l-0.564-0.119l0.208,0.467l0.24-0.074l-0.24,0.074l0.004,0.012l0.008-0.004
				c0.071-0.024,0.148,0.015,0.172,0.084c0.022,0.064-0.008,0.136-0.067,0.165l0.803,2.588l0.02-0.005
				c0.071-0.025,0.147,0.012,0.173,0.082c0.023,0.072-0.014,0.148-0.084,0.173l-0.06,0.021c0.003,0.009,0.007,0.02,0.01,0.029
				c0.284-0.059,0.558-0.129,0.8-0.222C34.176,17.582,34.503,17.361,34.711,17.048z"/>
			<polygon fill="none" points="20.097,16.437 23.013,26.777 32.02,17.094 31.675,16.014 			"/>
			<path fill="#727272" d="M19.025,13.001c-0.389-0.155-0.623,0.089-0.623,0.089l0.91,3.139l0.527-0.527L19.025,13.001z"/>
			<path fill="#E7754B" d="M31.765,14.353l0.564,0.119c0.003,0,0.007,0,0.013,0.002c0.145,0.017,0.853,0.117,1.491,0.391
				c0.318,0.135,0.618,0.314,0.821,0.525c0.204,0.215,0.318,0.444,0.32,0.747c0,0.028-0.002,0.058-0.004,0.088
				c-0.027,0.351-0.12,0.61-0.26,0.823c-0.208,0.312-0.535,0.533-0.961,0.694c-0.242,0.093-0.516,0.163-0.8,0.222
				c0.039,0.12,0.108,0.334,0.198,0.609c0.461-0.099,0.912-0.235,1.31-0.461c0.306-0.175,0.58-0.408,0.784-0.715
				c0.203-0.307,0.33-0.685,0.363-1.127c0.004-0.045,0.005-0.09,0.005-0.134c0.003-0.517-0.235-0.943-0.558-1.247
				c-0.484-0.459-1.146-0.706-1.689-0.858c-0.543-0.147-0.972-0.192-0.983-0.194l-0.032-0.001l-1.041-0.208
				c-0.105,0-0.203,0.052-0.262,0.137c-0.06,0.086-0.073,0.195-0.037,0.292l0.356,0.95l0.608-0.188L31.765,14.353z"/>
			<path fill="#71A587" d="M32.95,17.964c-0.003-0.01-0.007-0.021-0.01-0.029L33,17.915c0.07-0.024,0.107-0.101,0.084-0.173
				c-0.025-0.07-0.102-0.107-0.173-0.082l-0.02,0.005l-0.803-2.588c0.06-0.029,0.09-0.101,0.067-0.165
				c-0.023-0.069-0.101-0.108-0.172-0.084l-0.008,0.004l-0.004-0.012l-0.608,0.188l0.011,0.03l-0.006,0.001
				c-0.071,0.025-0.109,0.103-0.084,0.174c0.023,0.069,0.098,0.105,0.168,0.085l0.012,0.04c-0.014,0.014-0.03,0.027-0.045,0.041
				l-11.568,0.359l-0.012-0.036l-0.527,0.527l0.004,0.015l-5.123,9.048c-0.064-0.015-0.131-0.023-0.2-0.023
				c-0.507,0-0.918,0.412-0.918,0.919c0,0.506,0.411,0.92,0.918,0.92c0.331,0,0.621-0.176,0.782-0.439l8.271,1.129l9.214-9.944
				l0.01,0.031c-0.054,0.031-0.078,0.098-0.058,0.158c0.011,0.032,0.034,0.057,0.062,0.072c0.014-0.021,0.026-0.034,0.026-0.034
				C32.521,18.046,32.739,18.007,32.95,17.964z M14.903,26.307c0.006-0.039,0.009-0.078,0.009-0.119
				c0-0.348-0.191-0.648-0.477-0.805l5.034-8.572L22.437,27L14.903,26.307z M23.013,26.777l-2.916-10.34l11.578-0.423l0.345,1.08
				L23.013,26.777z"/>
			<path fill="#E7754B" d="M32.384,18.126c-0.038,0.014-0.078,0.007-0.11-0.012c-0.033,0.047-0.08,0.143-0.051,0.308
				c0.041,0.239,0.172,0.286,0.172,0.286c0.072-0.012,0.146-0.022,0.219-0.035l-0.188-0.561L32.384,18.126z"/>
			<path fill="#71A587" d="M35.941,25.268c-0.08,0-0.156,0.011-0.23,0.03c-0.326-0.652-0.878-1.775-1.055-2.218
				c-0.193-0.483-1.08-3.189-1.508-4.507c-0.178,0.038-0.357,0.072-0.535,0.1l1.328,3.984c0,0,0.908,1.893,1.424,2.815
				c-0.209,0.168-0.342,0.426-0.342,0.715c0,0.506,0.411,0.92,0.918,0.92c0.508,0,0.919-0.414,0.919-0.92
				C36.86,25.68,36.449,25.268,35.941,25.268z"/>
			<path fill="#E7754B" d="M32.95,17.964c-0.211,0.043-0.43,0.082-0.65,0.116c0,0-0.013,0.014-0.026,0.034
				c0.032,0.019,0.072,0.025,0.11,0.012l0.042-0.014l0.188,0.561c0.178-0.027,0.357-0.062,0.535-0.1
				C33.059,18.298,32.989,18.084,32.95,17.964z"/>
		</g>
	</g>
	<circle fill="#E7754B" cx="13.984" cy="26.16" r="0.924"/>
	<circle fill="#E7754B" cx="35.936" cy="26.16" r="0.924"/>
</g>
</svg>
