<?xml version="1.0" encoding="utf-8"?>
<!-- Generator: Adobe Illustrator 16.0.0, SVG Export Plug-In . SVG Version: 6.00 Build 0)  -->
<!DOCTYPE svg PUBLIC "-//W3C//DTD SVG 1.1//EN" "http://www.w3.org/Graphics/SVG/1.1/DTD/svg11.dtd">
<svg version="1.1" id="Layer_1" xmlns="http://www.w3.org/2000/svg" xmlns:xlink="http://www.w3.org/1999/xlink" x="0px" y="0px"
	 width="50px" height="50px" viewBox="0 0 50 50" enable-background="new 0 0 50 50" xml:space="preserve">
<g>
	<circle fill="#FFFEF9" cx="25" cy="25" r="25"/>
	<path fill="#D88166" d="M44.471,27.251h-0.438c0.219-2.446-1.09-3.586-1.09-3.586c-1.094-0.438-10.699-1.186-10.699-1.186
		c-1.748-3.275-3.715-4.559-3.715-4.559c-9.607-1.092-18.559-0.152-18.559-0.152c-1.748,2.84-1.529,9.074-1.529,9.074H7.133v1.725
		c0.814,0.598,3.264,1.195,3.652,1.295l0.932-3.262c0,0,0.875-1.308,1.746-1.091l3.713,0.221c0,0,1.311,0.332,1.746,1.642
		l0.525,2.734h14.324c0.074,0,0.145-0.111,0.217-0.109l0.875-3.119c0,0,0.873-1.339,1.748-1.121l3.711,0.205
		c0,0,1.309,0.211,1.748,1.52l0.479,2.398c1.854-0.084,1.924-0.223,1.924-0.223C45.127,27.476,44.471,27.251,44.471,27.251z
		 M18.705,21.798L12.59,21.58l-0.654-0.874l0.873-2.402l6.986,0.219L18.705,21.798z M22.852,22.042l0.213-3.357h-0.213l0.219-0.108
		l-0.006,0.108h5.465l2.186,3.645L22.852,22.042z M42.506,26.435l-1.311-2.154l1.965,0.424c0.219,0,0.654,1.732,0.654,1.732h-1.309
		V26.435z"/>
	<path fill="#4A4A4B" d="M6.914,20.726H8.66c0,0-0.873,3.264-0.656,5.709H6.475C6.475,26.435,5.604,23.581,6.914,20.726z"/>
	<path fill="#30302F" d="M15.102,26.601c1.809,0,3.281,1.422,3.375,3.207c0.156,0.004,0.312,0.006,0.465,0.008l-0.396-2.123
		c-0.404-1.309-1.623-1.527-1.623-1.527l-3.453-0.219c-0.812-0.216-1.625,1.092-1.625,1.092l-0.699,2.635
		c0.17,0.002,0.369,0.006,0.588,0.01C11.885,27.956,13.334,26.601,15.102,26.601z"/>
	<path fill="#30302F" d="M38.246,26.819c1.812,0,3.285,1.42,3.377,3.207c0.158,0.004,0.312,0.006,0.465,0.01l-0.395-2.125
		c-0.406-1.311-1.625-1.527-1.625-1.527l-3.453-0.219c-0.812-0.219-1.625,1.092-1.625,1.092l-0.699,2.635
		c0.17,0.002,0.369,0.006,0.586,0.01C35.033,28.175,36.479,26.819,38.246,26.819z"/>
	<path fill="#4A4A4B" d="M15.102,26.819c-1.748,0-3.166,1.418-3.166,3.166c0,1.75,1.418,3.168,3.166,3.168s3.164-1.418,3.164-3.168
		C18.266,28.237,16.85,26.819,15.102,26.819z M15.086,32.147c-1.238,0-2.244-1.006-2.244-2.244c0-1.24,1.006-2.244,2.244-2.244
		s2.244,1.004,2.244,2.244C17.33,31.142,16.324,32.147,15.086,32.147z"/>
	<path fill="#4A4A4B" d="M38.246,27.038c-1.748,0-3.166,1.418-3.166,3.166s1.418,3.166,3.166,3.166c1.75,0,3.168-1.418,3.168-3.166
		S39.996,27.038,38.246,27.038z M38.34,32.556c-1.24,0-2.246-1.006-2.246-2.244c0-1.24,1.006-2.244,2.246-2.244
		c1.236,0,2.242,1.004,2.242,2.244C40.582,31.55,39.576,32.556,38.34,32.556z"/>
</g>
</svg>
