<?xml version="1.0" encoding="utf-8"?>
<!-- Generator: Adobe Illustrator 16.0.0, SVG Export Plug-In . SVG Version: 6.00 Build 0)  -->
<!DOCTYPE svg PUBLIC "-//W3C//DTD SVG 1.1//EN" "http://www.w3.org/Graphics/SVG/1.1/DTD/svg11.dtd">
<svg version="1.1" id="Layer_1" xmlns="http://www.w3.org/2000/svg" xmlns:xlink="http://www.w3.org/1999/xlink" x="0px" y="0px"
	 width="50px" height="50px" viewBox="0 0 50 50" enable-background="new 0 0 50 50" xml:space="preserve">
<g>
	<circle fill="#FFFFF9" cx="24.975" cy="25" r="25"/>
	<g>
		<g>
			<polygon fill="#91D2C5" points="5.662,23.621 5.463,23.821 5.463,24.021 5.463,24.321 5.762,24.721 5.961,25.021 6.062,25.12 
				6.16,25.222 6.16,25.321 6.361,25.521 6.461,25.621 6.561,25.921 6.561,26.12 6.461,26.221 6.361,26.221 6.262,26.021 
				6.16,25.921 6.062,26.021 6.062,25.921 5.961,25.721 5.861,25.521 5.762,25.521 5.762,25.621 6.062,26.12 6.262,26.221 
				6.262,26.421 6.262,26.521 6.062,26.521 6.062,26.421 5.961,26.521 5.961,26.32 5.861,26.221 5.762,26.221 5.762,26.221 
				5.662,26.12 5.662,26.221 5.662,26.221 5.762,26.32 5.861,26.421 5.961,26.521 6.062,26.721 6.262,26.821 6.461,26.921 
				6.66,27.221 6.76,27.521 6.859,27.921 7.158,28.221 7.357,28.42 7.457,28.62 7.557,28.821 7.656,29.021 7.756,29.12 
				7.857,29.221 7.957,29.819 8.057,30.221 8.256,30.521 8.355,30.62 8.455,30.72 8.555,30.92 8.654,31.119 8.953,31.521 
				9.053,31.72 9.053,32.02 9.053,32.119 9.153,32.319 9.153,32.521 9.053,32.42 9.153,32.62 9.153,32.819 9.253,33.02 9.153,33.22 
				9.053,33.52 8.953,33.52 8.754,33.52 8.754,33.52 8.754,33.52 8.754,33.72 8.854,34.22 9.153,34.22 9.253,34.22 9.453,34.319 
				9.652,34.52 9.852,34.719 10.051,34.619 10.15,34.719 10.25,34.719 10.25,34.719 10.35,34.818 10.549,34.818 10.749,34.818 
				11.049,34.719 11.049,34.719 11.248,34.818 11.348,34.719 11.447,34.818 11.447,34.619 11.547,34.619 11.746,34.619 
				11.846,34.52 11.846,34.419 11.945,34.22 12.146,34.119 12.245,34.02 12.444,33.92 12.645,33.92 12.744,33.82 12.744,33.72 
				12.744,33.72 12.744,33.52 12.943,33.419 13.043,33.319 13.441,33.319 13.741,33.319 13.94,33.119 14.14,33.119 14.439,33.119 
				14.738,33.119 14.839,33.02 14.839,33.119 14.938,33.119 15.138,33.119 15.337,33.02 15.437,33.02 15.636,33.02 15.836,33.02 
				15.936,33.02 16.135,32.92 16.234,32.92 16.234,32.72 16.334,32.62 16.434,32.521 16.434,32.22 16.533,32.02 16.733,31.92 
				16.933,31.92 17.032,31.819 17.132,31.72 17.432,31.62 17.631,31.42 17.83,31.32 18.03,31.221 18.229,31.119 18.429,31.119 
				18.628,31.119 18.728,31.119 19.027,31.119 19.326,31.02 19.526,30.92 19.825,30.92 20.024,30.82 20.323,30.62 20.923,30.32 
				21.222,30.221 21.919,30.221 22.219,30.221 22.519,30.12 22.618,30.12 22.817,30.12 23.017,30.221 23.216,30.221 23.515,30.521 
				23.614,30.62 23.716,30.72 23.815,30.72 23.815,30.62 23.915,30.62 24.015,30.62 24.413,30.72 24.513,30.82 24.712,30.82 
				24.712,30.82 24.712,30.72 24.812,30.82 25.11,31.119 25.21,31.119 25.411,31.221 25.411,31.42 25.312,31.42 25.312,31.62 
				25.411,31.72 25.61,31.819 25.81,31.92 25.909,31.819 25.909,32.02 26.009,32.119 26.108,32.42 26.208,32.521 26.308,32.72 
				26.407,32.92 26.507,33.02 26.507,33.22 26.507,33.419 26.308,33.22 26.208,33.22 26.208,33.319 26.407,33.319 26.507,33.419 
				26.606,33.52 26.808,33.72 26.907,33.72 27.007,33.82 27.007,33.52 26.907,33.52 26.907,33.52 26.907,33.319 27.106,33.22 
				27.306,33.02 27.405,32.819 27.505,32.72 27.604,32.62 27.804,32.521 27.804,32.42 27.903,32.42 28.003,32.42 28.104,32.319 
				28.104,32.22 28.203,32.02 28.303,31.819 28.403,31.62 28.503,31.62 28.503,31.521 28.503,31.32 28.603,31.221 28.702,31.221 
				28.702,31.42 28.702,31.42 28.702,31.62 28.702,31.62 28.802,31.72 28.802,31.819 28.702,31.819 28.702,31.92 28.702,32.22 
				28.603,32.42 28.503,32.42 28.403,32.72 28.303,32.92 28.303,33.02 28.303,33.119 28.303,33.22 28.303,33.22 28.303,33.419 
				28.203,33.62 28.104,33.72 27.804,33.72 27.804,33.82 27.704,34.02 27.903,34.119 28.003,34.02 28.203,34.02 28.403,33.92 
				28.503,33.92 28.503,33.92 28.603,33.72 28.603,33.52 28.603,33.319 28.702,33.22 28.802,33.02 28.901,33.119 29.101,33.319 
				29.2,33.52 29.2,33.82 29.101,34.02 29.001,34.319 28.901,34.419 29.001,34.52 29.101,34.52 29.101,34.52 29.2,34.419 
				29.399,34.419 29.5,34.319 29.5,34.319 29.6,34.319 29.898,34.22 29.898,34.319 29.799,34.52 29.799,34.619 29.898,34.719 
				30.099,35.02 30.099,35.02 30.099,35.119 30.198,35.319 30.198,35.52 30.198,35.719 30.099,35.819 30.099,35.919 30.198,36.119 
				30.298,36.419 30.497,36.52 30.497,36.719 30.696,36.919 30.896,37.019 31.195,37.019 31.395,37.22 31.494,37.419 31.494,37.419 
				31.595,37.419 31.694,37.319 31.794,37.319 31.894,37.319 32.093,37.419 32.292,37.52 32.492,37.52 32.691,37.719 32.99,37.919 
				33.09,38.019 33.29,37.919 33.29,37.919 33.489,37.819 33.688,37.619 33.888,37.52 33.987,37.419 34.188,37.419 34.188,37.419 
				33.987,37.22 34.088,37.22 34.287,37.118 34.387,37.019 34.486,37.118 34.486,37.319 34.486,37.52 34.287,37.52 34.287,37.619 
				34.486,37.619 34.586,37.619 34.686,37.52 34.786,37.52 34.886,37.619 34.886,37.719 34.886,37.819 34.985,37.919 35.085,37.919 
				35.085,38.019 35.185,38.118 35.284,38.219 35.384,38.219 35.384,38.318 35.484,38.52 35.584,38.418 35.684,38.219 
				35.684,38.118 35.684,38.118 35.584,38.118 35.484,38.219 35.484,38.118 35.484,38.019 35.484,38.019 35.684,38.019 
				35.783,38.019 35.883,38.019 35.883,38.019 35.982,38.019 36.182,37.919 36.182,37.819 36.281,37.719 36.382,37.719 
				36.581,37.619 36.681,37.419 36.88,37.419 37.08,37.319 37.279,37.319 37.479,37.319 37.877,37.319 38.077,37.319 38.377,37.319 
				38.477,37.118 38.477,37.118 38.676,37.22 38.676,37.118 38.775,36.919 38.775,36.819 38.676,36.619 38.775,36.52 38.775,36.419 
				38.875,36.319 38.975,36.22 38.975,36.02 38.975,35.919 38.975,35.819 39.074,35.719 39.074,35.52 39.174,35.319 39.174,35.22 
				39.273,35.22 39.373,35.02 39.473,35.02 39.573,34.719 39.673,34.719 39.673,34.818 39.772,34.619 39.772,34.52 40.072,33.92 
				40.172,33.82 40.271,33.62 40.271,33.62 40.371,33.419 40.471,33.319 40.371,33.22 40.371,33.119 40.471,33.119 40.57,33.119 
				40.67,33.02 40.77,32.72 40.869,32.62 40.969,32.521 41.068,32.42 41.269,32.42 41.169,32.319 41.269,32.319 41.369,32.319 
				41.568,32.22 41.668,32.119 41.568,32.02 41.668,31.92 41.768,31.819 41.768,31.62 41.867,31.62 41.967,31.42 41.967,31.42 
				42.266,31.02 42.266,30.92 42.365,30.82 42.365,30.62 42.365,30.521 42.365,30.42 42.365,30.42 42.465,30.221 42.465,30.021 
				42.564,29.92 42.664,29.819 42.865,29.32 42.865,29.021 43.064,28.72 43.064,28.62 43.164,28.42 43.164,28.12 43.264,28.021 
				43.264,27.921 43.164,27.621 43.164,27.521 43.164,27.42 43.064,27.221 43.064,27.12 43.064,26.921 43.064,26.821 43.064,26.721 
				42.965,26.621 43.064,26.521 43.064,26.621 43.064,26.421 43.064,25.921 43.064,25.721 43.164,25.521 43.164,25.222 
				43.064,25.321 43.064,25.222 42.965,25.12 42.965,24.921 42.965,24.721 42.965,24.621 42.766,24.521 42.865,24.421 
				42.766,24.222 42.664,24.021 42.664,24.021 42.465,23.922 42.365,23.721 42.365,23.621 42.166,23.521 42.166,23.321 
				42.066,23.121 41.867,23.121 41.668,23.021 41.568,22.922 41.469,22.721 41.369,22.621 41.369,22.321 41.369,22.121 
				41.369,21.821 41.369,21.522 41.369,21.522 41.369,21.421 41.269,21.321 41.169,21.522 41.068,21.421 40.869,21.321 
				40.77,21.222 40.77,21.021 40.67,21.121 40.57,21.421 40.471,21.321 40.471,21.421 40.371,21.421 40.371,21.222 40.271,21.121 
				40.271,21.021 40.271,21.021 40.271,21.021 40.271,20.922 40.271,20.722 40.271,20.422 40.271,20.322 40.172,20.322 
				40.072,20.121 40.072,20.021 40.072,19.821 39.973,19.722 39.872,19.622 39.772,19.522 39.673,19.422 39.673,19.223 
				39.772,19.223 39.772,19.223 39.772,19.021 39.673,18.922 39.473,18.821 39.373,18.722 39.273,18.821 39.174,18.622 
				39.174,18.522 38.975,18.422 38.875,18.322 38.775,18.422 38.676,18.422 38.576,18.322 38.477,18.122 38.477,17.821 
				38.377,17.923 38.277,17.923 38.077,17.821 37.978,17.821 37.777,17.722 37.678,17.622 37.479,17.522 37.379,17.322 
				37.479,17.223 37.379,17.122 37.479,17.022 37.379,17.122 37.379,17.022 37.279,16.923 37.18,16.822 37.18,16.622 37.18,16.422 
				37.279,16.322 37.279,16.223 37.279,16.022 37.279,15.822 37.18,15.623 37.08,15.422 37.08,15.223 36.98,15.223 36.88,15.022 
				36.78,14.822 36.681,14.623 36.681,14.523 36.681,14.323 36.681,14.223 36.581,14.022 36.581,13.822 36.581,13.623 
				36.581,13.523 36.581,13.423 36.681,13.224 36.481,13.022 36.281,12.923 36.182,12.723 35.982,12.623 35.982,12.523 
				35.883,12.323 35.783,12.323 35.584,12.323 35.484,12.423 35.284,12.523 35.185,12.423 34.985,12.323 34.985,12.123 
				34.985,11.924 34.886,11.723 34.886,11.523 34.886,11.423 34.886,11.123 34.786,10.823 34.686,10.823 34.686,10.724 
				34.686,10.522 34.686,10.522 34.586,10.323 34.486,10.123 34.486,10.023 34.486,9.924 34.486,9.823 34.287,9.823 34.188,9.624 
				34.188,9.323 34.188,9.123 34.188,8.924 34.188,8.823 34.188,8.823 34.188,8.823 34.188,8.823 34.188,8.624 34.188,8.523 
				34.088,8.523 33.987,8.624 33.788,8.724 33.688,8.724 33.688,8.724 33.688,8.823 33.688,9.023 33.39,9.323 33.29,9.624 
				33.19,9.823 32.99,9.924 32.891,10.224 32.891,10.423 32.891,10.423 33.09,10.423 32.99,10.623 32.891,10.823 32.891,10.924 
				32.891,11.123 32.891,11.323 32.791,11.523 32.791,11.924 32.791,12.123 32.691,12.423 32.791,12.723 32.891,13.022 
				32.791,13.224 32.691,13.523 32.592,13.822 32.492,14.122 32.392,14.623 32.093,15.022 31.993,15.422 31.894,15.523 
				31.595,15.623 31.395,15.723 31.195,15.723 30.995,15.723 30.896,15.623 30.696,15.422 30.397,15.223 30.298,15.122 
				30.198,14.923 30.099,14.822 29.898,14.723 29.6,14.623 29.399,14.623 29.3,14.523 29.101,14.423 29.001,14.223 28.901,14.122 
				28.603,14.022 28.503,13.923 28.403,13.822 28.104,13.822 27.903,13.723 27.704,13.723 27.604,13.822 27.604,13.523 
				27.505,13.423 27.405,13.224 27.306,13.123 27.206,13.123 27.106,13.022 27.007,12.923 26.907,13.022 26.808,12.822 
				26.707,12.822 26.707,12.623 26.808,12.423 26.907,12.224 27.007,11.924 27.007,11.822 27.007,11.723 27.106,11.523 
				27.206,11.423 27.007,11.523 27.007,11.323 27.007,11.224 27.106,11.023 27.206,11.023 27.206,11.123 27.306,11.224 
				27.306,11.123 27.206,10.924 27.306,10.823 27.405,10.924 27.505,11.023 27.604,10.924 27.604,10.823 27.704,10.724 
				27.704,10.623 27.704,10.623 27.604,10.522 27.604,10.522 27.704,10.522 27.804,10.423 27.903,10.224 28.003,10.123 
				28.003,10.023 27.903,9.924 27.804,9.924 27.704,10.023 27.604,9.724 27.604,9.624 27.604,9.624 27.405,9.724 27.306,9.924 
				27.405,10.023 27.306,10.224 27.106,10.224 27.106,10.224 27.106,10.224 27.106,10.023 27.106,9.924 27.106,9.823 27.106,9.823 
				27.007,9.924 26.907,9.924 26.907,9.823 27.007,9.624 26.808,9.724 26.707,9.724 26.606,9.724 26.507,9.724 26.507,9.724 
				26.308,9.823 26.208,9.924 26.108,9.823 26.108,9.823 25.909,9.823 25.81,9.624 25.71,9.624 25.511,9.724 25.411,9.724 
				25.21,9.724 25.11,9.624 25.011,9.624 24.911,9.523 24.812,9.523 24.812,9.423 24.712,9.423 24.612,9.523 24.513,9.423 
				24.413,9.423 24.313,9.423 24.214,9.423 24.114,9.423 23.915,9.224 23.915,9.123 23.815,9.023 23.716,9.123 23.716,9.224 
				23.614,9.224 23.515,9.123 23.415,9.023 23.315,8.924 23.315,8.924 23.216,8.823 23.216,8.823 23.116,8.924 23.116,9.023 
				23.017,9.123 23.017,9.023 23.017,8.924 22.917,8.823 22.917,8.924 22.817,8.924 22.718,8.924 22.718,8.924 22.718,8.924 
				22.817,9.023 22.917,9.123 23.116,9.224 23.216,9.224 23.415,9.224 23.614,9.323 23.614,9.523 23.614,9.823 23.415,9.924 
				23.315,9.924 23.017,10.023 22.917,10.023 22.718,10.023 22.519,10.023 22.318,10.023 22.219,10.023 22.219,10.123 
				22.118,10.023 22.019,10.023 21.819,10.123 21.819,10.224 21.919,10.323 21.919,10.522 21.819,10.323 21.72,10.323 
				21.521,10.224 21.521,10.423 21.321,10.522 21.222,10.522 21.122,10.724 21.122,10.924 21.122,11.023 21.222,11.023 
				21.222,11.224 21.122,11.323 20.923,11.323 20.822,11.323 20.724,11.423 20.724,11.623 20.623,11.822 20.522,11.924 
				20.423,12.023 20.423,11.924 20.323,12.224 20.423,12.423 20.724,12.723 20.724,12.723 20.522,12.822 20.623,13.123 
				20.522,13.123 20.323,12.923 20.224,12.822 20.124,12.723 19.925,12.822 19.626,12.822 19.427,12.723 19.427,12.822 
				19.427,12.923 19.326,12.923 19.227,12.923 19.227,12.923 19.127,13.022 19.127,13.022 19.127,13.022 19.127,13.224 
				19.127,13.224 19.027,13.224 19.027,13.423 18.827,13.623 18.927,13.423 19.027,13.423 19.027,13.224 19.027,13.022 
				19.027,12.723 18.927,12.623 18.827,12.523 18.528,12.123 18.329,12.023 18.13,11.924 17.931,11.924 17.83,11.822 17.73,11.822 
				17.631,11.822 17.631,11.924 17.531,12.023 17.331,12.224 17.231,12.224 17.231,12.123 17.231,12.123 17.132,12.224 
				17.032,12.323 16.933,12.123 16.933,12.023 16.833,12.123 16.933,12.224 16.933,12.323 16.833,12.623 16.733,12.723 
				16.634,12.723 16.634,12.623 16.434,12.623 16.434,12.623 16.334,12.723 16.234,12.723 16.035,12.822 16.035,13.022 
				16.234,13.224 16.234,13.323 16.035,13.224 15.936,13.224 15.836,13.323 15.836,13.423 15.836,13.523 15.936,13.623 
				15.936,13.623 15.636,13.623 15.536,13.623 15.437,13.723 15.536,14.022 15.536,14.122 15.437,14.223 15.337,14.423 
				15.337,14.623 15.437,14.623 15.437,14.822 15.237,14.822 15.138,14.822 15.038,14.623 14.938,14.523 14.738,14.523 
				14.539,14.423 14.439,14.523 14.539,14.822 14.539,14.822 14.439,14.923 14.539,15.022 14.738,15.223 14.738,15.422 
				14.639,15.422 14.639,15.422 14.639,15.723 14.539,15.923 14.439,15.822 14.34,15.723 14.24,15.623 14.14,15.422 13.94,15.122 
				13.841,15.022 13.841,14.822 13.841,14.822 13.741,15.022 13.741,15.122 13.642,15.122 13.542,15.322 13.441,15.422 
				13.342,15.422 13.342,15.523 13.143,15.723 13.143,16.022 13.242,16.122 13.242,16.322 13.342,16.521 13.441,16.521 
				13.342,16.622 13.143,16.923 13.043,17.022 12.844,17.022 12.844,17.223 12.844,17.223 12.744,17.522 12.744,17.622 
				12.645,17.821 12.544,17.923 12.444,18.122 12.345,18.223 12.146,18.322 11.945,18.422 11.746,18.522 11.547,18.622 
				11.447,18.722 11.248,18.722 11.049,18.821 10.749,18.922 10.649,18.821 10.35,18.922 10.25,19.021 10.051,19.322 9.852,19.322 
				9.652,19.322 9.453,19.422 9.353,19.522 9.153,19.722 9.053,19.821 8.854,19.821 8.654,19.821 8.555,19.821 8.355,19.821 
				8.256,19.821 8.156,19.821 8.156,19.821 7.957,19.922 7.857,20.121 7.656,20.121 7.656,20.222 7.457,20.322 7.357,20.422 
				7.258,20.622 7.158,20.722 7.059,20.821 6.959,21.021 6.76,21.121 6.66,21.121 6.561,21.321 6.461,21.321 6.262,21.421 
				6.16,21.522 6.16,21.722 6.062,21.821 6.062,22.021 5.861,22.222 5.762,22.222 5.861,22.121 5.861,21.922 5.762,21.922 
				5.762,21.821 5.762,21.722 5.762,21.722 5.762,21.622 5.762,21.421 5.662,21.522 5.562,21.622 5.562,21.922 5.463,22.021 
				5.463,22.321 5.463,22.421 5.562,22.621 5.662,22.821 5.662,23.021 5.662,23.121 5.662,23.321 			"/>
			<polygon fill="#91D2C5" points="43.363,24.222 43.363,24.121 43.463,24.222 43.463,24.421 43.463,24.621 43.264,25.021 
				43.164,25.12 43.164,25.12 43.164,24.921 43.164,24.721 43.164,24.621 43.264,24.521 43.363,24.321 			"/>
			<polygon fill="#91D2C5" points="43.363,24.222 43.363,24.121 43.463,24.222 43.463,24.421 43.463,24.621 43.264,25.021 
				43.164,25.12 43.164,25.12 43.164,24.921 43.164,24.721 43.164,24.621 43.264,24.521 43.363,24.321 			"/>
			<polygon fill="#91D2C5" points="43.264,26.921 43.363,26.921 43.363,26.921 43.363,27.12 43.264,27.221 43.264,27.12 
				43.264,27.021 43.264,26.921 43.264,27.021 			"/>
			<polygon fill="#91D2C5" points="43.264,26.921 43.363,26.921 43.363,26.921 43.363,27.12 43.264,27.221 43.264,27.12 
				43.264,27.021 43.264,26.921 43.264,27.021 			"/>
			<polygon fill="#91D2C5" points="36.681,39.919 36.681,39.919 36.88,39.818 36.98,39.919 36.98,40.019 36.88,40.019 			"/>
			<polygon fill="#91D2C5" points="36.681,39.919 36.681,39.919 36.88,39.818 36.98,39.919 36.98,40.019 36.88,40.019 			"/>
			<polygon fill="#91D2C5" points="27.604,11.523 27.604,11.523 27.704,11.623 27.804,11.423 27.804,11.623 27.903,11.523 
				28.003,11.822 28.003,11.924 28.104,12.023 27.903,12.023 27.704,12.023 27.604,11.924 			"/>
			<polygon fill="#91D2C5" points="27.604,11.523 27.604,11.523 27.704,11.623 27.804,11.423 27.804,11.623 27.903,11.523 
				28.003,11.822 28.003,11.924 28.104,12.023 27.903,12.023 27.704,12.023 27.604,11.924 			"/>
			<polygon fill="#91D2C5" points="27.604,9.123 27.604,9.123 27.604,9.023 27.604,8.924 27.704,8.724 27.804,8.724 27.804,8.823 
				27.704,9.023 			"/>
			<polygon fill="#91D2C5" points="27.604,9.123 27.604,9.123 27.604,9.023 27.604,8.924 27.704,8.724 27.804,8.724 27.804,8.823 
				27.704,9.023 			"/>
			<polygon fill="#91D2C5" points="21.222,8.924 21.321,9.023 21.421,9.023 21.421,9.123 21.62,9.123 21.819,9.023 21.919,9.123 
				22.118,9.023 22.219,8.924 22.318,8.924 22.318,9.023 22.419,9.123 22.419,9.224 22.318,9.323 22.219,9.423 22.019,9.624 
				21.819,9.624 21.72,9.523 21.521,9.423 21.421,9.323 21.321,9.224 			"/>
			<polygon fill="#91D2C5" points="21.222,8.924 21.321,9.023 21.421,9.023 21.421,9.123 21.62,9.123 21.819,9.023 21.919,9.123 
				22.118,9.023 22.219,8.924 22.318,8.924 22.318,9.023 22.419,9.123 22.419,9.224 22.318,9.323 22.219,9.423 22.019,9.624 
				21.819,9.624 21.72,9.523 21.521,9.423 21.421,9.323 21.321,9.224 			"/>
			<polygon fill="#91D2C5" points="21.022,9.523 21.022,9.523 20.923,9.423 20.923,9.423 21.022,9.323 21.022,9.224 21.122,9.123 
				21.122,9.123 21.222,9.224 21.321,9.323 21.321,9.423 21.421,9.523 21.421,9.523 21.222,9.523 			"/>
			<polygon fill="#91D2C5" points="21.022,9.523 21.022,9.523 20.923,9.423 20.923,9.423 21.022,9.323 21.022,9.224 21.122,9.123 
				21.122,9.123 21.222,9.224 21.321,9.323 21.321,9.423 21.421,9.523 21.421,9.523 21.222,9.523 			"/>
			<polygon fill="#91D2C5" points="30.796,14.323 30.896,14.423 30.995,14.523 30.896,14.523 30.696,14.523 30.696,14.623 
				30.696,14.623 30.497,14.723 30.397,14.523 30.497,14.423 30.597,14.423 30.696,14.323 			"/>
			<polygon fill="#91D2C5" points="30.796,14.323 30.896,14.423 30.995,14.523 30.896,14.523 30.696,14.523 30.696,14.623 
				30.696,14.623 30.497,14.723 30.397,14.523 30.497,14.423 30.597,14.423 30.696,14.323 			"/>
			<polygon fill="#91D2C5" points="27.505,34.619 27.505,34.619 27.704,34.52 27.804,34.52 28.003,34.419 28.104,34.419 
				28.203,34.419 28.303,34.419 28.303,34.52 28.403,34.619 28.603,34.619 28.702,34.619 28.802,34.719 28.603,34.719 
				28.403,34.719 28.403,34.818 28.303,34.92 28.104,34.818 27.903,34.818 27.704,34.818 27.604,34.818 27.505,34.719 			"/>
			<polygon fill="#91D2C5" points="27.505,34.619 27.505,34.619 27.704,34.52 27.804,34.52 28.003,34.419 28.104,34.419 
				28.203,34.419 28.303,34.419 28.303,34.52 28.403,34.619 28.603,34.619 28.702,34.619 28.802,34.719 28.603,34.719 
				28.403,34.719 28.403,34.818 28.303,34.92 28.104,34.818 27.903,34.818 27.704,34.818 27.604,34.818 27.505,34.719 			"/>
			<polygon fill="#91D2C5" points="36.581,39.318 36.681,39.219 36.78,39.318 36.78,39.318 36.88,39.519 36.88,39.619 36.88,39.719 
				36.681,39.818 36.681,39.619 36.681,39.418 36.581,39.418 36.581,39.318 			"/>
			<polygon fill="#91D2C5" points="36.581,39.318 36.681,39.219 36.78,39.318 36.78,39.318 36.88,39.519 36.88,39.619 36.88,39.719 
				36.681,39.818 36.681,39.619 36.681,39.418 36.581,39.418 36.581,39.318 			"/>
			<polygon fill="#91D2C5" points="33.987,40.118 33.987,40.318 33.888,40.519 33.987,40.819 34.088,41.118 34.188,41.318 
				34.287,41.418 34.387,41.618 34.387,41.718 34.287,41.817 34.287,41.718 34.188,41.519 34.188,41.718 34.287,42.118 
				34.287,42.219 34.387,42.318 34.387,42.318 34.486,42.519 34.586,42.718 34.686,42.718 34.786,42.818 34.786,42.818 
				34.686,42.918 34.686,43.018 34.786,43.018 34.985,43.018 35.085,43.018 35.185,43.018 35.185,43.117 35.284,43.117 
				35.384,43.018 35.484,42.918 35.484,42.718 35.584,42.718 35.584,42.718 35.684,42.818 35.684,42.718 35.883,42.618 
				35.883,42.519 35.883,42.418 35.982,42.318 36.082,42.418 36.182,42.418 36.281,42.418 36.281,42.118 36.382,42.118 
				36.382,41.918 36.481,41.718 36.581,41.618 36.581,41.519 36.681,41.718 36.681,41.817 36.581,41.918 36.681,41.718 
				36.681,41.718 36.681,41.418 36.681,41.118 36.78,41.019 36.78,40.819 36.78,40.519 36.681,40.318 36.481,40.318 36.481,40.418 
				36.382,40.418 36.281,40.318 36.082,40.519 35.883,40.519 35.783,40.418 35.584,40.519 35.484,40.519 35.484,40.618 
				35.384,40.618 35.085,40.519 34.886,40.519 34.786,40.318 34.586,40.219 34.387,40.118 34.387,40.118 34.287,40.118 
				34.188,40.118 33.987,40.019 33.987,40.019 			"/>
			<polygon fill="#91D2C5" points="33.987,40.118 33.987,40.318 33.888,40.519 33.987,40.819 34.088,41.118 34.188,41.318 
				34.287,41.418 34.387,41.618 34.387,41.718 34.287,41.817 34.287,41.718 34.188,41.519 34.188,41.718 34.287,42.118 
				34.287,42.219 34.387,42.318 34.387,42.318 34.486,42.519 34.586,42.718 34.686,42.718 34.786,42.818 34.786,42.818 
				34.686,42.918 34.686,43.018 34.786,43.018 34.985,43.018 35.085,43.018 35.185,43.018 35.185,43.117 35.284,43.117 
				35.384,43.018 35.484,42.918 35.484,42.718 35.584,42.718 35.584,42.718 35.684,42.818 35.684,42.718 35.883,42.618 
				35.883,42.519 35.883,42.418 35.982,42.318 36.082,42.418 36.182,42.418 36.281,42.418 36.281,42.118 36.382,42.118 
				36.382,41.918 36.481,41.718 36.581,41.618 36.581,41.519 36.681,41.718 36.681,41.817 36.581,41.918 36.681,41.718 
				36.681,41.718 36.681,41.418 36.681,41.118 36.78,41.019 36.78,40.819 36.78,40.519 36.681,40.318 36.481,40.318 36.481,40.418 
				36.382,40.418 36.281,40.318 36.082,40.519 35.883,40.519 35.783,40.418 35.584,40.519 35.484,40.519 35.484,40.618 
				35.384,40.618 35.085,40.519 34.886,40.519 34.786,40.318 34.586,40.219 34.387,40.118 34.387,40.118 34.287,40.118 
				34.188,40.118 33.987,40.019 33.987,40.019 			"/>
		</g>
	</g>
	<path id="path4500_1_" fill="#363933" d="M32.238,29.631c-0.039-0.009-0.281-0.062-0.536-0.12
		c-0.648-0.145-0.935-0.197-1.735-0.321c-1.944-0.3-2.527-0.421-2.917-0.608c-0.347-0.166-0.455-0.271-0.636-0.611
		c-0.192-0.363-0.323-0.753-0.561-1.678c-0.114-0.442-0.234-0.877-0.267-0.966c-0.076-0.21-0.44-0.956-0.527-1.081
		c-0.037-0.053-0.207-0.172-0.379-0.265c-0.608-0.327-1.098-0.644-1.401-0.907c-0.201-0.174-0.394-0.363-0.394-0.387
		c0-0.014-0.036-0.065-0.081-0.114c-0.044-0.049-0.112-0.15-0.151-0.225c-0.082-0.155-0.14-0.156-0.375-0.008
		c-0.182,0.114-0.601,0.337-1.148,0.611c-0.747,0.372-1.291,0.568-2.121,0.762c-0.244,0.058-1.12,0.048-1.451-0.016
		c-0.455-0.087-1.059-0.28-1.397-0.448c-0.377-0.187-0.551-0.384-0.824-0.937c-0.377-0.761-0.446-1.097-0.267-1.291
		c0.154-0.167,0.225-0.127,0.338,0.192c0.147,0.414,0.33,0.71,0.646,1.05c0.567,0.611,1.439,0.838,2.218,0.577
		c0.513-0.172,1.494-0.72,1.807-1.009c0.039-0.037,0.151-0.127,0.25-0.201c0.294-0.223,1.717-1.56,2-1.879
		c0.286-0.324,1.508-1.317,1.898-1.545c0.362-0.211,0.419-0.237,0.733-0.34c0.271-0.088,0.357-0.099,0.805-0.1
		c0.813-0.002,1.313,0.171,2.025,0.703c0.361,0.27,0.635,0.542,1.302,1.294c0.638,0.72,1.25,1.338,1.466,1.479
		c0.126,0.084,0.179,0.095,0.447,0.095c0.271,0,0.331-0.013,0.54-0.116c0.277-0.137,0.515-0.315,0.462-0.349
		c-0.021-0.012-0.178-0.096-0.35-0.184c-0.598-0.309-0.801-0.497-0.748-0.696c0.032-0.126,0.243-0.247,0.428-0.247
		c0.15,0,0.458,0.125,0.61,0.249c0.118,0.096,0.608,0.516,0.719,0.616c0.058,0.054,0.169,0.107,0.247,0.12
		c0.186,0.032,0.349,0.102,0.475,0.205c0.143,0.116,0.298,0.207,0.692,0.403c0.56,0.277,0.895,0.532,0.895,0.682
		c0,0.1-0.147,0.191-0.481,0.303l-0.248,0.083l-0.628-0.079c-0.588-0.075-0.642-0.076-0.842-0.024
		c-0.335,0.087-0.659,0.328-1.278,0.95c-0.648,0.652-0.877,0.833-1.177,0.932c-0.314,0.104-0.394,0.186-1.123,1.166
		c-0.323,0.435-0.599,0.691-0.899,0.835c-0.236,0.113-0.548,0.177-0.548,0.112c0-0.021-0.028-0.048-0.062-0.059
		c-0.095-0.03-0.26-0.315-0.26-0.448c0-0.128,0.168-0.318,0.29-0.329c0.173-0.016,0.19-0.009,0.211,0.077
		c0.026,0.112,0.155,0.137,0.304,0.057c0.133-0.072,0.396-0.46,0.486-0.719c0.093-0.264,0.089-0.525-0.01-0.701
		c-0.043-0.076-0.087-0.139-0.099-0.139c-0.011,0-0.1-0.073-0.197-0.161c-0.1-0.09-0.213-0.161-0.258-0.161
		c-0.07,0-0.322,0.122-0.37,0.18c-0.01,0.012-0.074,0.056-0.143,0.097c-0.342,0.208-0.495,0.54-0.524,1.137
		c-0.011,0.218-0.002,0.537,0.021,0.715c0.022,0.178,0.062,0.531,0.087,0.787c0.053,0.523,0.12,0.7,0.315,0.83
		c0.251,0.167,1.342,0.566,2.496,0.914c1.328,0.401,1.525,0.466,2.146,0.713c0.472,0.188,0.572,0.25,0.572,0.355
		C32.757,29.554,32.43,29.671,32.238,29.631z M29.502,28.331c-0.029-0.02-0.077-0.034-0.107-0.033
		c-0.035,0.002-0.029,0.013,0.019,0.033C29.511,28.373,29.567,28.373,29.502,28.331z"/>
</g>
</svg>
