<?xml version="1.0" encoding="utf-8"?>
<!-- Generator: Adobe Illustrator 16.0.0, SVG Export Plug-In . SVG Version: 6.00 Build 0)  -->
<!DOCTYPE svg PUBLIC "-//W3C//DTD SVG 1.1//EN" "http://www.w3.org/Graphics/SVG/1.1/DTD/svg11.dtd">
<svg version="1.1" id="Layer_1" xmlns="http://www.w3.org/2000/svg" xmlns:xlink="http://www.w3.org/1999/xlink" x="0px" y="0px"
	 width="50px" height="50px" viewBox="0 0 50 50" enable-background="new 0 0 50 50" xml:space="preserve">
<g>
	<circle fill="#FFFFF9" cx="24.975" cy="25" r="25"/>
	<g>
		<polygon fill="#77C2B3" points="26.299,7.25 23.632,7.25 18.272,19.254 31.605,19.254 		"/>
		<path fill="#C7AE46" d="M8.396,23.962l2.76-2.667l2.758,2.667l2.76-2.667l2.76,2.667l2.76-2.667l2.762,2.667l2.761-2.667
			l2.761,2.667l2.762-2.667l2.76,2.667l2.762-2.666l2.766,2.667l1.09-1.051c0.35-1.499,0.351-2.658,0.351-2.658h-36
			c0,0,0.002,1.161,0.353,2.665L8.396,23.962z"/>
		<path fill="#77C2B3" d="M34.966,29.588c2.389,0,4.063-0.833,5.239-2.001H9.727c1.176,1.168,2.851,2.001,5.239,2.001
			C20.966,29.588,29.633,29.588,34.966,29.588z"/>
		<path fill="#F05E60" d="M41.521,25.826l-2.762-2.661l-2.762,2.667l-2.762-2.667l-2.76,2.667l-2.762-2.667l-2.762,2.667
			l-2.761-2.667l-2.76,2.667l-2.759-2.667l-2.761,2.667l-2.757-2.667l-2.748,2.656c0.209,0.379,0.451,0.748,0.727,1.099h31.662
			C41.071,26.571,41.311,26.203,41.521,25.826z"/>
	</g>
	<g>
		<path fill="#75583B" d="M23.616,38.763c-0.445-0.754-1.466-1.005-2.221-0.559c-0.015,0.008-0.028,0.017-0.042,0.025
			c-0.802,0.405-3.261,1.638-3.844,1.819c-0.391,0.122-0.735-0.098-0.721-0.525c0.012-0.329,0.573-0.354,0.573-0.354
			s-0.365-0.929-1.245-0.171s-0.099,2.786,1.026,3.226c1.124,0.44,4.51,0.699,6.396-1.739l-0.019-0.022
			C23.871,39.97,23.939,39.311,23.616,38.763z"/>
		<path fill="#75583B" d="M32.982,38.998c-0.88-0.758-1.245,0.171-1.245,0.171s0.561,0.025,0.573,0.354
			c0.015,0.428-0.33,0.647-0.721,0.525c-0.583-0.182-3.042-1.414-3.844-1.819c-0.015-0.009-0.027-0.018-0.043-0.025
			c-0.754-0.446-1.774-0.195-2.22,0.559c-0.323,0.548-0.255,1.207,0.095,1.699l-0.02,0.022c1.888,2.438,5.273,2.18,6.397,1.739
			C33.081,41.784,33.862,39.756,32.982,38.998z"/>
	</g>
	<path fill="#A2454F" d="M14.073,30.021c0,0-1.043,2.607,0,2.521S14.073,31.15,14.073,30.021z"/>
	<path fill="#A2454F" d="M18.244,30.021c0,0-1.043,2.607,0,2.521S18.244,31.15,18.244,30.021z"/>
	<path fill="#A2454F" d="M22.415,30.021c0,0-1.042,2.607,0,2.521C23.458,32.454,22.415,31.15,22.415,30.021z"/>
	<path fill="#A2454F" d="M26.586,30.021c0,0-1.043,2.607,0,2.521S26.586,31.15,26.586,30.021z"/>
	<path fill="#A2454F" d="M30.758,30.021c0,0-1.043,2.607,0,2.521C31.8,32.454,30.758,31.15,30.758,30.021z"/>
	<path fill="#A2454F" d="M34.928,30.021c0,0-1.042,2.607,0,2.521C35.971,32.454,34.928,31.15,34.928,30.021z"/>
</g>
</svg>
