<?xml version="1.0" encoding="utf-8"?>
<!-- Generator: Adobe Illustrator 16.0.0, SVG Export Plug-In . SVG Version: 6.00 Build 0)  -->
<!DOCTYPE svg PUBLIC "-//W3C//DTD SVG 1.1//EN" "http://www.w3.org/Graphics/SVG/1.1/DTD/svg11.dtd">
<svg version="1.1" id="Layer_1" xmlns="http://www.w3.org/2000/svg" xmlns:xlink="http://www.w3.org/1999/xlink" x="0px" y="0px"
	 width="50px" height="50px" viewBox="0 0 50 50" enable-background="new 0 0 50 50" xml:space="preserve">
<g>
	<circle fill="#FFFFF9" cx="24.755" cy="25" r="25"/>
	<g>
		<path fill="#E09B4A" d="M27.219,25.369l-0.775,24.534c3.303-0.214,6.431-1.065,9.26-2.441l-0.678-22.093H27.219z"/>
	</g>
	<path fill-rule="evenodd" clip-rule="evenodd" fill="#E09B4A" d="M26.397,24.734h1.231c0,0,0.303-1.648,0.822-1.648
		s0.821,1.648,0.821,1.648h1.045c0,0,0.286-1.648,0.819-1.648c0.537,0,0.824,1.648,0.824,1.648h1.043c0,0,0.268-1.648,0.822-1.648
		c0.557,0,0.82,1.648,0.82,1.648h0.742v-3.366l-4.249-1.994l-4.742,2.01V24.734z"/>
	<polyline fill-rule="evenodd" clip-rule="evenodd" fill="none" stroke="#CA8030" stroke-miterlimit="10" points="26.159,21.469 
		31.14,19.374 35.68,21.291 	"/>
	<path fill-rule="evenodd" clip-rule="evenodd" fill="#FFFFFF" d="M31.121,35.216c0.551,0.009,0.39,2.23,0.39,2.23l-0.778,0.009
		C30.732,37.455,30.573,35.206,31.121,35.216z"/>
	<g>
		<path fill="#D26C42" d="M15.371,18.153l-1.024,29.575C17.517,49.184,21.039,50,24.755,50c1.242,0,2.462-0.094,3.655-0.269
			l-1.107-31.578H15.371z"/>
	</g>
	<path fill-rule="evenodd" clip-rule="evenodd" fill="#D26C42" d="M14.744,17.802h1.255c0,0,0.461-2.52,1.256-2.52
		c0.796,0,1.257,2.52,1.257,2.52h1.594c0,0,0.439-2.52,1.258-2.52s1.257,2.52,1.257,2.52h1.595c0,0,0.406-2.52,1.257-2.52
		s1.255,2.52,1.255,2.52h1.258v-5.147l-6.621-3.045l-6.619,3.071V17.802z"/>
	<polyline fill-rule="evenodd" clip-rule="evenodd" fill="none" stroke="#BC5532" stroke-miterlimit="10" points="14.155,12.642 
		21.363,9.609 28.474,12.61 	"/>
	<path fill-rule="evenodd" clip-rule="evenodd" fill="#FFFFFF" d="M21.337,30.604c0.841,0.012,0.595,3.408,0.595,3.408l-1.189,0.013
		C20.742,34.024,20.498,30.589,21.337,30.604z"/>
</g>
</svg>
