<?xml version="1.0" encoding="utf-8"?>
<!-- Generator: Adobe Illustrator 16.0.0, SVG Export Plug-In . SVG Version: 6.00 Build 0)  -->
<!DOCTYPE svg PUBLIC "-//W3C//DTD SVG 1.1//EN" "http://www.w3.org/Graphics/SVG/1.1/DTD/svg11.dtd">
<svg version="1.1" id="Layer_1" xmlns="http://www.w3.org/2000/svg" xmlns:xlink="http://www.w3.org/1999/xlink" x="0px" y="0px"
	 width="50px" height="50px" viewBox="0 0 50 50" enable-background="new 0 0 50 50" xml:space="preserve">
<g>
	<circle fill="#FFFFF9" cx="24.975" cy="25" r="25"/>
	<g>
		<path fill="#91D2C5" d="M10.343,30.056c-1.23,0.292-1.831,0.571-1.831,2.067c0,0.727,0.165,1.547,0.339,2.209
			c0.198,0.756,0.851,1.303,1.629,1.366l11.284,0.885V25.427C18.209,27.179,14.986,28.946,10.343,30.056z"/>
		<path fill="#91D2C5" d="M43.505,20.935c0.063-0.474-0.32-0.89-0.797-0.863c-10.598,0.598-16.082,2.961-20.944,5.355v11.156
			l17.362,1.364c0.844,0.064,1.392-0.871,0.92-1.575l-1.288-1.931c-0.218-0.328-0.212-0.751,0.004-1.08
			C41.041,29.893,42.961,24.962,43.505,20.935z"/>
		<path fill="#7B5D3E" d="M20.478,13.813c-0.601,0-1.088,0.486-1.088,1.088v1.174h2.374v-2.262H20.478z"/>
		<path fill="#A67F53" d="M23.709,14.901c0-0.602-0.487-1.088-1.088-1.088h-0.857v2.262h1.945V14.901z"/>
		<path fill="#A67F53" d="M37.362,28.635c0-0.269-0.218-0.486-0.486-0.486c-0.27,0-0.487,0.218-0.487,0.486
			c0,0.751-0.501,1.38-1.184,1.59v-3.353c0.365-0.181,0.619-0.555,0.619-0.99c0-0.612-0.497-1.108-1.108-1.108
			c-0.612,0-1.109,0.496-1.109,1.108c0,0.438,0.257,0.813,0.626,0.993v3.35c-0.683-0.21-1.185-0.839-1.185-1.59
			c0-0.269-0.218-0.486-0.486-0.486c-0.27,0-0.487,0.218-0.487,0.486c0,1.457,1.187,2.644,2.644,2.644
			C36.176,31.278,37.362,30.092,37.362,28.635z"/>
		<path fill="#F6B917" d="M19.39,17.135v2.261h-3.839c-0.247,0-0.616,0.113-0.82,0.251l-2.39,1.627
			c-0.4,0.271-0.639,0.723-0.639,1.206v6.207c3.2-0.932,5.729-2.188,8.379-3.51c0.557-0.277,1.115-0.557,1.683-0.833v-7.209H19.39z"
			/>
		<path fill="#F6B917" d="M27.991,20.367c0-0.537-0.436-0.972-0.973-0.972h-3.31v-2.261h-1.945v7.209
			c1.894-0.926,3.886-1.833,6.228-2.632V20.367z"/>
		<path fill="#91D2C5" d="M20.67,10.96L20.67,10.96c0.081-0.196,0.127-0.411,0.127-0.638c0-0.928-0.752-1.68-1.681-1.68
			c-0.03,0-0.059,0.007-0.089,0.008c-0.263-0.944-1.118-1.641-2.146-1.641c-1.234,0-2.235,1-2.235,2.235s1.001,2.235,2.235,2.235
			c0.312,0,0.606-0.063,0.875-0.179c0.306,0.423,0.8,0.701,1.36,0.701c0.184,0,0.356-0.036,0.521-0.092
			c-0.002,0.03-0.009,0.062-0.009,0.092c0,0.575,0.466,1.042,1.041,1.042s1.043-0.467,1.043-1.042S21.245,10.96,20.67,10.96z"/>
	</g>
</g>
</svg>
