<?xml version="1.0" encoding="utf-8"?>
<!-- Generator: Adobe Illustrator 16.0.0, SVG Export Plug-In . SVG Version: 6.00 Build 0)  -->
<!DOCTYPE svg PUBLIC "-//W3C//DTD SVG 1.1//EN" "http://www.w3.org/Graphics/SVG/1.1/DTD/svg11.dtd">
<svg version="1.1" id="Layer_1" xmlns="http://www.w3.org/2000/svg" xmlns:xlink="http://www.w3.org/1999/xlink" x="0px" y="0px"
	 width="50px" height="50px" viewBox="0 0 50 50" enable-background="new 0 0 50 50" xml:space="preserve">
<g>
	<circle fill="#FFFFF9" cx="24.916" cy="25" r="25"/>
	<path fill="#C75652" d="M35.362,19.451c4.369-0.573,7.73-1.485,9.347-2.576l-2.882-4.039c-3.695,2.309-10.002,3.989-17.163,3.989
		c-7.162,0-13.468-1.681-17.163-3.989l-2.882,4.039c1.616,1.091,4.978,2.003,9.347,2.576v2.277h-3.942v1.062h3.942v12.754h-0.331
		v-0.927h-1.724v0.927h-1.323v1.06h1.323v9.751l1.724,0.928V36.604h0.331v10.863l1.722,0.767v-11.63h0.465v-1.06h-0.465V22.79
		h17.953v12.754h-0.465v1.06h0.465v11.783l1.722-0.702V36.604h0.332v11.053l1.722-1.003v-10.05h1.324v-1.06h-1.324v-0.927h-1.722
		v0.927h-0.332V22.79h3.942v-1.062h-3.942V19.451z M15.688,21.729v-2.073c1.841,0.192,3.827,0.327,5.912,0.396v1.678H15.688z
		 M22.461,21.729v-1.654c0.188,0.003,0.375,0.009,0.564,0.011v1.644H22.461z M26.204,21.729v-1.641
		c0.222-0.004,0.442-0.009,0.663-0.014v1.654H26.204z M27.729,21.729v-1.678c2.083-0.068,4.072-0.203,5.912-0.396v2.073H27.729z"/>
	<g>
		<path fill="#F6B917" d="M28.157,35.894c0.703-0.828,1.129-1.897,1.129-3.067c0-2.62-2.125-4.744-4.743-4.744
			c-2.62,0-4.744,2.124-4.744,4.744c0,2.619,2.124,4.743,4.744,4.743c0.823,0,1.597-0.211,2.271-0.579l-1.612-1.6
			c-0.089,0.015-0.18,0.022-0.271,0.022c-0.882,0-1.597-0.715-1.597-1.596c0-0.879,0.715-1.596,1.597-1.596
			c0.879,0,1.595,0.717,1.595,1.596c0,0.135-0.019,0.27-0.054,0.401L28.157,35.894z"/>
		<path fill="#363933" d="M24.499,38.604c-3.144-0.006-5.688-2.549-5.691-5.691c0.004-3.144,2.548-5.688,5.691-5.693
			c3.145,0.006,5.687,2.55,5.69,5.693c-0.001,1.396-0.507,2.675-1.343,3.666l0.737,0.729c1.021-1.179,1.642-2.714,1.642-4.396
			c0-3.716-3.011-6.728-6.727-6.729c-3.716,0.001-6.727,3.013-6.727,6.729c0,3.715,3.011,6.727,6.727,6.727
			c1.409,0,2.718-0.435,3.798-1.177l-0.755-0.749C26.662,38.272,25.621,38.602,24.499,38.604z"/>
		<path fill="#363933" d="M25.865,34.345c0.088-0.155,0.144-0.334,0.144-0.527c0-0.595-0.482-1.078-1.078-1.078
			s-1.078,0.483-1.078,1.078c0,0.597,0.482,1.078,1.078,1.078c0.15,0,0.293-0.031,0.422-0.086l5.414,5.376l0.486-0.489
			L25.865,34.345z"/>
	</g>
</g>
</svg>
