<?xml version="1.0" encoding="utf-8"?>
<!-- Generator: Adobe Illustrator 16.0.0, SVG Export Plug-In . SVG Version: 6.00 Build 0)  -->
<!DOCTYPE svg PUBLIC "-//W3C//DTD SVG 1.1//EN" "http://www.w3.org/Graphics/SVG/1.1/DTD/svg11.dtd">
<svg version="1.1" id="Layer_1" xmlns="http://www.w3.org/2000/svg" xmlns:xlink="http://www.w3.org/1999/xlink" x="0px" y="0px"
	 width="50px" height="50px" viewBox="0 0 50 50" enable-background="new 0 0 50 50" xml:space="preserve">
<g>
	<circle fill="#FFFFF9" cx="24.916" cy="25" r="25"/>
	<g>
		<path fill="none" d="M32.609,38.828l-1.693,2.839L31.189,48h-1.229l-0.579-9.463l-2.598-3.261l-3.729,4.316l-1.311,8.38h-1.311
			l0.273-6.688l-0.847-2.484l-3.03,3.194l-1.638,5.978h-0.126C18.094,49.275,21.43,50,24.936,50c4.099,0,7.964-0.993,11.378-2.742
			l-1.467-5.48L32.609,38.828z"/>
		<path fill="none" d="M14.811,41.285l-2.021,2.129l-1.074,2.803c0.726,0.452,1.474,0.87,2.245,1.248l0.74-4.706L14.811,41.285z"/>
		<path fill="none" d="M37.659,41.312l-0.792,1.938l0.438,3.471c0.905-0.517,1.778-1.083,2.608-1.705l-0.235-1.575L37.659,41.312z"
			/>
		<path fill="#E09B4A" d="M26.166,33.641l-0.765-0.108L10.36,40.93l-0.366,4.115c0.555,0.414,1.132,0.803,1.722,1.172l1.074-2.803
			l2.021-2.129l-0.109,1.474l-0.74,4.706c0.363,0.178,0.732,0.348,1.105,0.508h0.126l1.638-5.978l3.03-3.194l0.847,2.484
			l-0.273,6.688h1.311l1.311-8.38l3.729-4.316l2.598,3.261L29.961,48h1.229l-0.273-6.333l1.693-2.839l2.237,2.949l1.467,5.48
			c0.335-0.172,0.666-0.351,0.992-0.536l-0.438-3.471l0.792-1.938l2.02,2.129l0.235,1.575c0.097-0.072,0.188-0.149,0.283-0.223
			l-0.164-3.235L26.166,33.641z"/>
	</g>
	<polygon fill="#E09B4A" points="39.174,40.848 33.551,38.118 32.785,23.978 36.99,24.633 	"/>
	<polygon fill="#9A4443" points="36.617,25.066 35.85,25.066 36.238,30.728 37.058,30.728 	"/>
	<polygon fill="#9A4443" points="35.409,25.005 34.662,24.913 34.867,30.522 35.85,30.522 	"/>
	<polygon fill="#9A4443" points="34.109,24.779 34.457,30.304 33.557,30.246 33.352,24.636 	"/>
	<rect x="35.692" y="31.786" fill="#9A4443" width="0.761" height="1.556"/>
	<rect x="34.662" y="35.443" fill="#9A4443" width="0.758" height="1.42"/>
	<rect x="36.537" y="38.118" fill="#9A4443" width="0.779" height="1.45"/>
	<polygon fill="#E09B4A" points="32.104,21.137 32.963,37.27 27.148,34.361 27.148,20.317 	"/>
	<polygon fill="#9A4443" points="30.807,28.22 31.707,28.356 31.707,21.724 30.807,21.587 	"/>
	<polygon fill="#9A4443" points="29.154,27.947 30.179,28.22 30.179,21.587 29.154,21.313 	"/>
	<polygon fill="#9A4443" points="27.817,27.701 28.719,27.947 28.719,21.313 27.817,21.068 	"/>
	<rect x="30.056" y="29.584" fill="#9A4443" width="0.751" height="1.612"/>
	<rect x="28.557" y="33.762" fill="#9A4443" width="0.857" height="1.305"/>
	<polygon fill="#E09B4A" points="17.717,21.137 16.857,37.27 22.672,34.361 22.672,20.317 	"/>
	<polygon fill="#9A4443" points="19.014,28.22 18.113,28.356 18.113,21.724 19.014,21.587 	"/>
	<polygon fill="#9A4443" points="20.666,27.947 19.643,28.22 19.643,21.587 20.666,21.313 	"/>
	<polygon fill="#9A4443" points="22.004,27.701 21.102,27.947 21.102,21.313 22.004,21.068 	"/>
	<rect x="19.014" y="29.584" fill="#9A4443" width="0.75" height="1.612"/>
	<rect x="20.406" y="33.762" fill="#9A4443" width="0.856" height="1.305"/>
	<polygon fill="#E09B4A" points="10.469,40.848 16.092,38.118 16.857,23.978 12.652,24.633 	"/>
	<g>
		<path fill="none" d="M31.298,38.828l-1.474,2.784L29.961,48h-0.547l-0.982-9.008l-3.519-4.42l-3.497,4.393l-0.982,9.008h-0.547
			l0.137-6.388l-1.475-2.784l-3.029,3.194l-1.492,5.446C17.352,49.077,21.091,50,25.047,50c3.867,0,7.528-0.879,10.797-2.446
			l-1.516-5.531L31.298,38.828z"/>
		<path fill="none" d="M13.499,41.285l-2.021,2.129l-0.785,2.049c0.891,0.625,1.822,1.194,2.791,1.701l0.725-3.914L13.499,41.285z"
			/>
		<path fill="none" d="M36.348,41.312l-0.709,1.965l0.74,4.005c0.979-0.499,1.92-1.057,2.818-1.675l-0.829-2.166L36.348,41.312z"/>
		<path fill="#9A4443" d="M24.938,32.455v-0.043L9.05,40.93v3.279c0.529,0.44,1.079,0.857,1.644,1.254l0.785-2.049l2.021-2.129
			l0.71,1.965l-0.725,3.914c0.181,0.094,0.36,0.188,0.543,0.277l1.492-5.446l3.029-3.194l1.475,2.784l-0.137,6.388h0.547
			l0.982-9.008l3.497-4.393l3.519,4.42L29.414,48h0.547l-0.137-6.388l1.474-2.784l3.03,3.194l1.516,5.531
			c0.181-0.087,0.357-0.181,0.535-0.271l-0.74-4.005l0.709-1.965l2.021,2.129l0.829,2.166c0.55-0.379,1.084-0.777,1.6-1.197v-3.453
			L24.938,32.455z"/>
	</g>
	<polygon fill="#9A4443" points="13.025,25.066 13.793,25.066 13.404,30.728 12.585,30.728 	"/>
	<polygon fill="#9A4443" points="14.233,25.005 14.98,24.913 14.775,30.522 13.793,30.522 	"/>
	<polygon fill="#9A4443" points="15.533,24.779 15.186,30.304 16.086,30.246 16.291,24.636 	"/>
	<rect x="13.189" y="31.786" fill="#9A4443" width="0.761" height="1.556"/>
	<rect x="14.223" y="35.443" fill="#9A4443" width="0.758" height="1.42"/>
	<rect x="12.326" y="38.118" fill="#9A4443" width="0.78" height="1.45"/>
	<rect x="23.184" y="21.494" fill="#9A4443" width="3.48" height="12.447"/>
	<path fill="#E09B4A" d="M15.861,12.103L12.79,23.978c0,0,3.685-0.328,4.013-0.573L15.861,12.103z"/>
	<path fill="#E09B4A" d="M20.57,7.312l-2.867,13.021c0,0,1.68,0.408,4.709-0.369L20.57,7.312z"/>
	<path fill="#E09B4A" d="M33.7,12.103l3.071,11.875c0,0-3.686-0.328-4.014-0.573L33.7,12.103z"/>
	<path fill="#E09B4A" d="M28.991,7.312l2.866,13.021c0,0-1.679,0.408-4.709-0.369L28.991,7.312z"/>
	<circle fill="#9A4443" cx="20.406" cy="6.078" r="1.235"/>
	<circle fill="#9A4443" cx="28.985" cy="6.078" r="1.235"/>
	<circle fill="#9A4443" cx="33.618" cy="11.277" r="0.655"/>
	<circle fill="#9A4443" cx="15.841" cy="11.277" r="0.655"/>
	<g>
		<g>
			<path fill="none" stroke="#FCD8AF" stroke-width="1.1664" stroke-miterlimit="10" d="M14.752,19.319"/>
		</g>
	</g>
</g>
</svg>
