<?xml version="1.0" encoding="utf-8"?>
<!-- Generator: Adobe Illustrator 16.0.0, SVG Export Plug-In . SVG Version: 6.00 Build 0)  -->
<!DOCTYPE svg PUBLIC "-//W3C//DTD SVG 1.1//EN" "http://www.w3.org/Graphics/SVG/1.1/DTD/svg11.dtd">
<svg version="1.1" id="Layer_1" xmlns="http://www.w3.org/2000/svg" xmlns:xlink="http://www.w3.org/1999/xlink" x="0px" y="0px"
	 width="59px" height="178px" viewBox="0 0 59 178" enable-background="new 0 0 59 178" xml:space="preserve">
<g>
	<g>
		<g>
			<path fill="#F8B69C" d="M27.925,10.099l3.163,11.284h-1.91v8.022h-3.109c0,0-1.484,0.186-1.484,1.485c0,0.554,0,5.146,0,7.375
				v2.596h-7.115v-1.667V9.865h10.269L27.925,10.099z"/>
			<circle fill="#477838" cx="26.867" cy="17.248" r="0.544"/>
			<path fill="#F28A82" d="M27.996,24.844c-0.081,0-0.144-0.067-0.144-0.142h-0.557c0,0.384,0.314,0.697,0.701,0.697h1.192v-0.556
				H27.996z"/>
			<path fill="#7C3C1A" d="M12.475,7.128v28.628c0,0,1.795,0,3.563,0c5.366,0,5.082-5.08,5.082-5.08V19.811
				c-1.012-0.003-1.831-0.82-1.831-1.836c0-1.009,0.822-1.83,1.833-1.83c0.802,0,1.477,0.518,1.724,1.238l0.024-0.076
				c1.172-0.086,2.097-1.029,2.153-2.209h0.011v-1.46c0.522,0,1.176,0,1.998,0c1.823,0,3.231-0.548,4.312-1.327
				c2.646-1.901-1.371-5.181-1.371-5.181H12.475z"/>
		</g>
		<path fill="#FFD62C" d="M32.411,10.008C31.597,4.764,28.36-0.014,21.394-0.014c-8.078,0-11.237,6.6-11.237,12.808h21.218h1.256
			h2.565L32.411,10.008z"/>
	</g>
	<g>
		<path fill="#F8B69C" d="M42.119,88.427c-0.002,0.001-0.003,0.001-0.005,0.002l-0.042-0.286l-0.689-4.656l-4.487-30.301l-6,0.889
			l4.487,30.301l0.689,4.655l0.595,4.019l0.013-0.002c0.003,0.043-0.001,0.084,0.004,0.123c0.246,1.662,1.791,2.805,3.449,2.559
			c1.66-0.246,2.803-1.787,2.557-3.449c-0.005-0.037-0.021-0.076-0.031-0.117l0.008-0.002l-0.083-0.562c0.002,0,0.002,0,0.005,0
			c0.875-0.129,1.479-0.945,1.35-1.82C43.808,88.901,42.994,88.298,42.119,88.427z"/>
		
			<rect x="31.029" y="53.618" transform="matrix(0.9892 -0.1465 0.1465 0.9892 -7.6548 5.5814)" opacity="0.4" fill="#B78D7E" width="6.065" height="2.275"/>
		
			<rect x="30.346" y="46.623" transform="matrix(0.9892 -0.1465 0.1465 0.9892 -6.9868 5.4316)" fill="#FFFFFF" width="6.065" height="7.045"/>
	</g>
	<path fill="#2D7994" d="M12.95,86.614c0,3.659,2.962,6.62,6.619,6.62h5.008c3.657,0,6.622-2.961,6.622-6.62V84.11H12.95V86.614z"/>
	<g>
		<g>
			<path fill="#B25C27" d="M19.167,172.864l-3.05-0.725c-1.268-0.65-2.276-1.674-2.918-2.896c-0.483-0.926-0.757-1.957-0.776-3.035
				l1.412-5.938l-0.144-0.07l-4.57-1.088l-1.783,7.512l-0.595,2.512l-0.19,0.807l-0.193,0.807l-0.413,1.746l16.246,3.855
				C22.042,174.706,20.863,173.267,19.167,172.864z"/>
			<path fill="#34383A" d="M5.652,173.72l4.722,1.123l0.109-0.461l0.182-0.766l1.806,1.723l9.631,2.283
				c0.103-0.43,0.127-0.854,0.089-1.271l-16.246-3.855l-0.184,0.766L5.652,173.72z"/>
		</g>
		<g>
			<polygon fill="#2D7994" points="18.229,110.323 5.374,164.479 12.618,166.198 22.041,126.509 			"/>
			<polygon fill="#2D7994" points="22.262,93.335 24.001,86.009 31.247,87.729 26.084,109.475 			"/>
			<path fill="#1B6478" d="M20.161,120.325l-1.935,8.143l-0.552,2.328l-0.299,1.258c-0.108,0.463,0.177,0.926,0.639,1.035
				l2.333,0.555l1.701-7.167l-1.48-6.055L20.161,120.325z"/>
		</g>
	</g>
	<path fill="#FFFFFF" d="M30.697,37.115H26.57h-1.976h-0.002c-0.002,1.963-1.595,3.555-3.559,3.555
		c-1.963,0-3.556-1.592-3.556-3.555h-0.083h-4.308h-1.795c-1.011,0-1.883,0.596-2.283,1.458c-0.149,0.322-0.815,1.999-1.296,4.234
		c-0.327,1.517-0.735,4.288-0.735,4.288h6.105v13.873h9.671V54.45h8.346v-7.355h1.14h3.755l-1.139-6.821
		C34.458,38.038,32.901,37.115,30.697,37.115z"/>
	<rect x="17.668" y="46.971" fill="#FFFFFF" width="13.535" height="24.375"/>
	<rect x="22.753" y="41.829" fill="#FFFFFF" width="1.855" height="20.611"/>
	<path fill="#2D7994" d="M31.199,51.827c0-0.505-0.143-0.973-0.369-1.387l0.002-0.021l-2.658-6.579v-6.725h-2.112v6.725h-8.593
		v-6.725h-2.108v6.725l-1.857,6.594l-0.423,1.321v9.215v23.954h18.117V59.32v-2.115V51.827L31.199,51.827L31.199,51.827z"/>
	<path fill="#1B6478" d="M19.156,46.922v1.76v1.602v0.863c0,0.319,0.259,0.577,0.578,0.577h5.255c0.318,0,0.577-0.257,0.577-0.577
		v-0.863v-1.602v-1.76H19.156z"/>
	<g>
		<g>
			<path fill="#C0772A" d="M47.466,167.46l-3.057,0.705c-1.424-0.018-2.783-0.486-3.901-1.297c-0.844-0.613-1.549-1.42-2.043-2.377
				l-1.376-5.945h-0.16l-4.575,1.061l1.738,7.516l0.582,2.52l0.186,0.805l0.188,0.811l0.404,1.746l16.271-3.764
				C50.857,167.833,49.163,167.065,47.466,167.46z"/>
			<path fill="#34383A" d="M35.734,174.229l4.731-1.092l-0.108-0.463l-0.177-0.764l2.382,0.74l9.645-2.23
				c-0.1-0.43-0.267-0.826-0.485-1.182l-16.271,3.764l0.176,0.77L35.734,174.229z"/>
		</g>
		<g>
			
				<rect x="22.202" y="85.621" transform="matrix(0.9743 -0.2253 0.2253 0.9743 -27.7122 9.0805)" fill="#2D7994" width="7.446" height="80.651"/>
			<path fill="#1B6478" d="M25.017,119.948l1.886,8.154l0.539,2.33l0.291,1.26c0.106,0.461,0.569,0.75,1.032,0.645L31.1,131.8
				l-2.909-12.586L25.017,119.948z"/>
		</g>
	</g>
	<g>
		<path fill="#F8B69C" d="M6.571,89.588c-0.002,0-0.002,0-0.003,0l0.043-0.283l0.717-4.654l4.667-30.274L6,53.452L1.333,83.725
			l-0.718,4.654l-0.618,4.016l0.014,0.004c-0.01,0.037-0.027,0.078-0.033,0.117c-0.255,1.656,0.881,3.209,2.537,3.465
			c1.657,0.254,3.207-0.883,3.463-2.541c0.005-0.039,0-0.082,0.006-0.121l0.009,0.002l0.087-0.566c0.001,0,0.002,0,0.003,0
			c0.875,0.135,1.693-0.465,1.827-1.336C8.045,90.542,7.446,89.722,6.571,89.588z"/>
		
			<rect x="5.79" y="53.905" transform="matrix(0.9883 0.1524 -0.1524 0.9883 8.4898 -0.7016)" opacity="0.4" fill="#B78D7E" width="6.066" height="2.277"/>
		
			<rect x="6.522" y="46.636" transform="matrix(0.9883 0.1523 -0.1523 0.9883 7.7706 -0.8685)" fill="#FFFFFF" width="6.066" height="7.317"/>
	</g>
</g>
</svg>
