<?xml version="1.0" encoding="utf-8"?>
<!-- Generator: Adobe Illustrator 16.0.0, SVG Export Plug-In . SVG Version: 6.00 Build 0)  -->
<!DOCTYPE svg PUBLIC "-//W3C//DTD SVG 1.1//EN" "http://www.w3.org/Graphics/SVG/1.1/DTD/svg11.dtd">
<svg version="1.1" id="Layer_1" xmlns="http://www.w3.org/2000/svg" xmlns:xlink="http://www.w3.org/1999/xlink" x="0px" y="0px"
	 width="191.064px" height="511.137px" viewBox="0 0 191.064 511.137" enable-background="new 0 0 191.064 511.137"
	 xml:space="preserve">
<g>
	<path fill="#F7B69C" d="M136.84,243.391c-0.101,0-0.189,0.023-0.288,0.031v-3.82v-0.879h-19.959l0,0v9.482v12.512
		c0,0.008-0.002,0.012-0.002,0.012c0,0.018,0.002,0.021,0.002,0.021v0.977h0.099c0.502,5.045,4.705,8.996,9.882,8.996
		c5.175,0,9.38-3.951,9.882-8.996h0.099v-0.967c0,0,0.002-0.014,0.002-0.021c0,0-0.002-0.013-0.002-0.021v-10.244
		c0.099,0.008,0.188,0.031,0.288,0.031c1.966,0,3.559-1.592,3.559-3.553C140.396,244.983,138.805,243.391,136.84,243.391z"/>
	<path fill="#FFFFFF" d="M110.882,141.362v82.312c0,2.908,2.358,5.268,5.267,5.268h0.44v0.451v9.33h19.961v-9.33v-5.719v-3.611
		v-78.701L110.882,141.362L110.882,141.362z"/>
	<rect x="116.591" y="228.94" opacity="0.3" fill="#84A8C1" enable-background="new    " width="19.959" height="9.781"/>
</g>
<g>
	<path fill="#F7B69C" d="M109.119,8.16l-0.51-0.637H72.009v78.072l0,0v29.463h27.928V85.596l0,0v-0.029c0-6.121,0-6.121,0-7.652
		c0-3.57,4.079-4.082,4.079-4.082h8.544V40.169h10.842L109.119,8.16z"/>
	<circle fill="#303F4B" cx="103.858" cy="20.244" r="1.498"/>
	<path fill="#D0867D" d="M107.452,48.645c-0.572,0-1.039-0.467-1.039-1.039h-1.53c0,1.414,1.151,2.568,2.569,2.568h5.107v-1.529
		H107.452z"/>
	<path fill="none" d="M90.602,22.188c0,0.035,0.011,0.068,0.011,0.105v-0.105H90.602z"/>
	<path fill="#50595D" d="M70.353,0v43.738c0,0,0,0,3.953,0c11.986,0,11.349-11.348,11.349-11.348v-5.07
		c-0.026,0.004-0.051,0.01-0.077,0.01c-2.781,0-5.037-2.254-5.037-5.035c0-2.783,2.256-5.039,5.037-5.039
		c2.745,0,4.966,2.199,5.024,4.934h0.011v0.105v5.035h5.372V14.535c1.71,0,3.927,0,6.887,0C116.896,14.535,119.959,0,119.959,0
		H70.353z"/>
</g>
<g>
	<path fill="#1F2328" d="M96.107,506.658c-0.656-5.766-2.231-6.732-13.755-9.781l-7.902-4.521
		c-4.508-2.188-8.128-5.703-10.475-9.947c-0.527-0.957-0.983-1.951-1.378-2.975c-5.459-0.756-5.733,4.299-5.733,4.299l-15.138-3.238
		l-0.438,2.045l-0.608,2.848l-0.607,2.85l-1.316,6.16l-0.579,2.705l-0.347,1.621l16.668,3.564l0.348-1.621l0.577-2.697l6.478,5.9
		l33.991,7.268C96.213,509.621,96.274,508.113,96.107,506.658z"/>
	<polygon fill="#222F42" points="66.827,486.738 41.548,481.332 95.887,227.21 120.579,232.531 120.174,237.125 	"/>
</g>
<g>
	<path fill="#2E333C" d="M168.829,489.539c-2.957-4.992-4.789-5.23-16.552-3.303l-9.062-0.896
		c-5.007-0.148-9.749-1.883-13.627-4.793c-0.871-0.658-1.694-1.379-2.473-2.15c-5.289,1.543-3.477,6.268-3.477,6.268l-15.137,3.234
		l0.438,2.045l0.607,2.848l0.608,2.848l1.315,6.158l0.578,2.709l0.347,1.619l16.67-3.562l-0.348-1.617l-0.576-2.697l8.322,2.734
		l33.991-7.268C170.137,492.199,169.576,490.799,168.829,489.539z"/>
	
		<rect x="81.153" y="228.039" transform="matrix(0.9779 -0.2091 0.2091 0.9779 -72.8853 27.6003)" fill="#222F42" width="25.852" height="260.87"/>
</g>
<g>
	<path fill="#FFFFFF" d="M120.069,85.598h-16.017h-0.691l-3.441-7.176l-6.289,18.635l-5.378-18.635h-5.885h-5.179h-5.181v7.176
		h-5.665H50.333c-9.092,0-16.466,7.369-16.466,16.461v12.066v47.82h20.755v54.723h1.633h57.395h6.865v-54.723h16.01V142.51v-17.131
		v-23.322C136.521,92.966,129.157,85.598,120.069,85.598z"/>
	<polygon opacity="0.3" fill="#84A8C1" enable-background="new    " points="91.412,89.373 88.253,78.421 83.461,87.826 	"/>
	<path opacity="0.3" fill="#84A8C1" enable-background="new    " d="M94.551,141.703c0,2.168,1.758,3.924,3.927,3.924h15.379
		c2.168,0,3.924-1.756,3.924-3.924V121.19H94.551V141.703z"/>
</g>
<path fill="#222F42" d="M54.622,232.531c0,13.213,10.71,23.926,23.927,23.926h18.104c13.214,0,23.927-10.713,23.927-23.926v-15.051
	H54.622V232.531z"/>
<rect x="54.622" y="212.667" fill="#9C3E22" width="65.804" height="5.812"/>
<g>
	<path fill="#F7B69C" d="M59.825,243.391c-0.101,0-0.19,0.023-0.288,0.031v-3.82v-0.879H39.578l0,0v9.482v12.512
		c0,0.008-0.002,0.012-0.002,0.012c0,0.018,0.002,0.021,0.002,0.021v0.977h0.099c0.501,5.045,4.707,8.996,9.882,8.996
		c5.176,0,9.381-3.951,9.883-8.996h0.098v-0.967c0,0,0.002-0.014,0.002-0.021c0,0-0.002-0.013-0.002-0.021v-10.244
		c0.098,0.008,0.188,0.031,0.288,0.031c1.965,0,3.558-1.592,3.558-3.553C63.383,244.983,61.791,243.391,59.825,243.391z"/>
	<path fill="#FFFFFF" d="M33.867,141.362v82.312c0,2.908,2.358,5.268,5.268,5.268h0.439v0.451v9.33h19.96v-9.33v-5.719v-3.611
		v-78.701L33.867,141.362L33.867,141.362z"/>
	<rect x="39.576" y="228.94" opacity="0.3" fill="#84A8C1" enable-background="new    " width="19.958" height="9.781"/>
</g>
<line fill="none" stroke="#FFFFFF" stroke-width="0.5" stroke-miterlimit="10" x1="87.523" y1="265.312" x2="100.757" y2="327.98"/>
<line fill="none" stroke="#FFFFFF" stroke-width="0.5" stroke-miterlimit="10" x1="74.446" y1="327.98" x2="87.679" y2="390.648"/>
</svg>
