<?xml version="1.0" encoding="utf-8"?>
<!-- Generator: Adobe Illustrator 16.0.0, SVG Export Plug-In . SVG Version: 6.00 Build 0)  -->
<!DOCTYPE svg PUBLIC "-//W3C//DTD SVG 1.1//EN" "http://www.w3.org/Graphics/SVG/1.1/DTD/svg11.dtd">
<svg version="1.1" id="Layer_1" xmlns="http://www.w3.org/2000/svg" xmlns:xlink="http://www.w3.org/1999/xlink" x="0px" y="0px"
	 width="52px" height="52px" viewBox="0 0 52 52" enable-background="new 0 0 52 52" xml:space="preserve">
<g>
	<path fill="#EFDA82" d="M51,26c0,13.807-11.193,25-25,25C12.192,51,1,39.807,1,26C1,12.194,12.192,1,26,1C39.807,1,51,12.195,51,26
		z"/>
	<g>
		<path fill="#5B7A81" d="M24.324,19.757c0,0.419-0.34,0.759-0.76,0.759H23.1c-0.418,0-0.758-0.34-0.758-0.759v-1.013
			c0-0.419,0.34-0.759,0.758-0.759h0.465c0.42,0,0.76,0.34,0.76,0.759V19.757z"/>
		<rect x="23.238" y="20.01" fill="#5B7A81" width="0.189" height="6.074"/>
		<path fill="#5B7A81" d="M27.086,19.757c0,0.419-0.34,0.759-0.759,0.759h-0.465c-0.419,0-0.759-0.34-0.759-0.759v-1.013
			c0-0.419,0.34-0.759,0.759-0.759h0.465c0.419,0,0.759,0.34,0.759,0.759V19.757z"/>
		<rect x="26" y="20.01" fill="#5B7A81" width="0.189" height="6.074"/>
		<path fill="#5B7A81" d="M29.848,19.757c0,0.419-0.34,0.759-0.76,0.759h-0.464c-0.42,0-0.76-0.34-0.76-0.759v-1.013
			c0-0.419,0.34-0.759,0.76-0.759h0.464c0.42,0,0.76,0.34,0.76,0.759V19.757z"/>
		<rect x="28.762" y="20.01" fill="#5B7A81" width="0.188" height="6.074"/>
	</g>
	<g>
		<path fill="#D7B37D" d="M14.399,24.527v23.569C17.889,49.949,21.868,51,26.094,51c4.227,0,8.205-1.053,11.695-2.903V24.527H14.399
			z"/>
	</g>
	<g>
		<circle fill="#E7ECED" cx="26.094" cy="33.649" r="4.229"/>
		<circle fill="#81AAB4" cx="26.094" cy="33.65" r="3.357"/>
	</g>
</g>
</svg>
