<?xml version="1.0" encoding="utf-8"?>
<!-- Generator: Adobe Illustrator 16.0.0, SVG Export Plug-In . SVG Version: 6.00 Build 0)  -->
<!DOCTYPE svg PUBLIC "-//W3C//DTD SVG 1.1//EN" "http://www.w3.org/Graphics/SVG/1.1/DTD/svg11.dtd">
<svg version="1.1" id="Layer_1" xmlns="http://www.w3.org/2000/svg" xmlns:xlink="http://www.w3.org/1999/xlink" x="0px" y="0px"
	 width="52px" height="52px" viewBox="0 0 52 52" enable-background="new 0 0 52 52" xml:space="preserve">
<g>
	<path fill="#EFDA82" d="M51,26c0,13.807-11.193,25.001-25,25.001C12.192,51.001,1,39.807,1,26C1,12.195,12.192,1,26,1
		C39.807,1,51,12.195,51,26z"/>
	<path fill="#7BA240" d="M30.885,29.68h6.402l0.586-0.834c0.479-0.721,1.006-1.412,1.461-2.146c0.217-0.35,0.621-0.922,0.461-1.363
		c-0.111-0.316-0.404-0.424-0.718-0.479c-0.228-0.038-1.382-0.331-1.847-0.236c-0.415,0.085-0.797,0.282-1.194,0.42
		c-0.56,0.194-1.179,0.357-1.792,0.323c-0.531-0.028-1.133-0.096-1.632-0.275c-0.416-0.151-0.815-0.373-1.254-0.447
		c-0.377-0.064-1.756,0.127-2.034,0.174c-1.953,0.336-0.531,1.822,0.975,4.031L30.885,29.68z"/>
	<path fill="#9EB362" d="M45.194,41.926c-0.062-0.178-0.123-0.354-0.2-0.533c-1.642-3.783-4.613-7.908-7.729-9.897h-6.461
		c-3.113,1.989-6.086,6.117-7.728,9.897c-1.646,3.793,0.329,7.519,4.091,7.519h8.766C39.545,47.329,42.715,44.924,45.194,41.926z"/>
	<g>
		<path fill="#9EB362" d="M39.078,24.856c-0.227-0.038-1.382-0.331-1.847-0.236c-0.415,0.085-0.796,0.282-1.194,0.42
			c-0.56,0.194-1.179,0.357-1.792,0.323c-0.53-0.028-1.133-0.096-1.632-0.275c-0.416-0.151-0.816-0.373-1.254-0.447
			c-0.377-0.064-1.756,0.127-2.034,0.174c-1.953,0.336-0.532,1.822,0.974,4.031l0.586,0.834h6.403l0.587-0.834
			c0.479-0.721,1.004-1.412,1.461-2.146c0.217-0.35,0.621-0.922,0.461-1.363C39.684,25.019,39.391,24.912,39.078,24.856z"/>
		<path fill="#8B9F3C" d="M24.944,14.791c-0.315-0.054-1.933-0.463-2.583-0.33c-0.58,0.119-1.113,0.395-1.671,0.588
			c-0.781,0.271-1.647,0.5-2.506,0.453c-0.742-0.041-1.585-0.135-2.282-0.388c-0.581-0.21-1.141-0.52-1.753-0.624
			c-0.528-0.091-2.456,0.176-2.845,0.242c-2.73,0.471-0.745,2.548,1.361,5.638l0.818,1.169h8.956l0.819-1.169
			c0.668-1.008,1.403-1.974,2.041-3.001c0.305-0.49,0.871-1.289,0.646-1.908C25.791,15.019,25.383,14.869,24.944,14.791z"/>
		<path fill="#8B9F3C" d="M23.077,41.393c-1.297,2.986-0.341,5.924,1.959,7.041h2.462c5.262,0,8.021-5.211,5.721-10.515
			c-0.844-1.942-1.939-3.95-3.203-5.853C27.196,34.205,24.579,37.934,23.077,41.393z"/>
		<path fill="#8B9F3C" d="M22.408,24.075h-9.035C9.408,26.609,5.611,31.621,3.23,36.49c2.402,5.189,6.531,9.417,11.652,11.941
			h10.152c-2.3-1.115-3.256-4.054-1.959-7.039c1.502-3.459,4.119-7.188,6.938-9.326C27.84,28.793,25.164,25.836,22.408,24.075z"/>
	</g>
</g>
</svg>
