<?xml version="1.0" encoding="utf-8"?>
<!-- Generator: Adobe Illustrator 16.0.0, SVG Export Plug-In . SVG Version: 6.00 Build 0)  -->
<!DOCTYPE svg PUBLIC "-//W3C//DTD SVG 1.1//EN" "http://www.w3.org/Graphics/SVG/1.1/DTD/svg11.dtd">
<svg version="1.1" id="Layer_1" xmlns="http://www.w3.org/2000/svg" xmlns:xlink="http://www.w3.org/1999/xlink" x="0px" y="0px"
	 width="52px" height="52px" viewBox="0 0 52 52" enable-background="new 0 0 52 52" xml:space="preserve">
<g>
	<path fill="#EFDA82" d="M51,26c0,13.807-11.193,25.001-25,25.001C12.192,51.001,1,39.807,1,26C1,12.195,12.192,1,26,1
		C39.807,1,51,12.195,51,26z"/>
	<path fill="#5B7A81" d="M10.361,32.927c-0.24,0.476-1.545,3.248-1.14,6.333c0.447,3.393,2.794,5.881,2.794,5.881
		s1.031-1.91,1.223-4.401C11.852,38.641,10.824,36.07,10.361,32.927z"/>
	<path fill="#5B7A81" d="M38.544,47.631c-0.55-1.779,1.321-1.764,0.552-2.045c-3.158-1.15-4.963,1.723-5.048,2.574
		c-0.004,0.041,0.696,0.541,1.274,1.049c0,0,0.823-0.396,1.627-0.75C37.688,48.135,38.544,47.631,38.544,47.631z"/>
	<path fill="#5B7A81" d="M24.168,33.771c1.429,1.283,1.836,3.162,1.836,3.162s-1.91-0.207-3.339-1.49
		c-1.428-1.285-1.836-3.162-1.836-3.162S22.739,32.488,24.168,33.771z"/>
	<path fill="#81AAB4" d="M24.666,32.459c-0.31-8.656-1.785-14.787-3.232-14.787c-1.636,0-10.98,3.646-10.296,13.346
		c1.336,18.887,22.562,18.493,23.45,18.493c0.834,0-8.588-2.534-9.771-11.504l-0.007-0.067c-0.822-0.231-1.984-0.69-2.97-1.578
		c-1.706-1.532-2.197-3.725-2.216-3.817l-0.362-1.67l1.7,0.185c0.088,0.008,2.058,0.233,3.711,1.529L24.666,32.459z M19.052,21.197
		c0-0.443,0.358-0.801,0.8-0.801c0.442,0,0.801,0.356,0.801,0.801c0,0.441-0.359,0.801-0.801,0.801
		C19.41,21.998,19.052,21.639,19.052,21.197z"/>
	<path fill="#BC5638" d="M31.003,13.164c0,2.422,0.448,3.202,0.991,4.375c0.197,0.432,0.41,0.893,0.625,1.462
		c0.818,2.565,0.771,4.491-0.143,5.739c-0.896,1.229-2.38,1.484-3.466,1.484h-0.203c-1.882,0-3.413-1.505-3.413-3.354v-1.186
		l0.01-0.645c0-0.373,0.226-0.693,0.552-0.831l0.028,0.017c1.563-0.844-1.925-5.894-1.925-5.894
		c6.013,6.612,3.968,7.457,3.968,7.457h-0.014c0-0.498-0.404-0.901-0.9-0.901c-0.5,0-0.903,0.403-0.903,0.901l0.003,1.08
		c0,1.399,1.165,2.538,2.596,2.538h0.203c0.896,0,2.107-0.2,2.805-1.151c0.75-1.026,0.76-2.705,0.031-4.989
		c-0.199-0.526-0.404-0.972-0.597-1.386c-0.562-1.213-1.068-2.048-1.068-4.651V13.02c0.136,0.047,0.279,0.073,0.431,0.073
		c0.137,0,0.267-0.021,0.39-0.059V13.164z"/>
	<path fill="#BC5638" d="M30.648,8.727c-1.055,0-1.906,0.854-1.906,1.906c0,1.055,0.853,1.908,1.906,1.908
		c1.051,0,1.906-0.854,1.906-1.908C32.555,9.58,31.699,8.727,30.648,8.727z M30.648,11.969c-0.738,0-1.336-0.598-1.336-1.335
		c0-0.735,0.598-1.333,1.336-1.333c0.736,0,1.334,0.598,1.334,1.333C31.982,11.371,31.385,11.969,30.648,11.969z"/>
	<polygon fill="#BC5638" points="30.027,1.324 31.269,1.557 31.269,8.08 30.027,8.08 	"/>
</g>
</svg>
