<?xml version="1.0" encoding="utf-8"?>
<!-- Generator: Adobe Illustrator 16.0.0, SVG Export Plug-In . SVG Version: 6.00 Build 0)  -->
<!DOCTYPE svg PUBLIC "-//W3C//DTD SVG 1.1//EN" "http://www.w3.org/Graphics/SVG/1.1/DTD/svg11.dtd">
<svg version="1.1" id="Layer_1" xmlns="http://www.w3.org/2000/svg" xmlns:xlink="http://www.w3.org/1999/xlink" x="0px" y="0px"
	 width="52px" height="52px" viewBox="0 0 52 52" enable-background="new 0 0 52 52" xml:space="preserve">
<g>
	<path fill="#EFDA82" d="M51,26c0,13.807-11.193,25.001-25,25.001C12.191,51.001,1,39.807,1,26C1,12.195,12.191,1,26,1
		C39.807,1,51,12.195,51,26z"/>
	<g>
		<g>
			<path fill="#88B4AE" d="M40.885,31.715h-29.77c-0.475,0-0.896-0.299-1.057-0.744c-0.16-0.447-0.021-0.947,0.346-1.247
				l15.888-12.989V13.47c0-1.091-0.325-1.735-0.97-1.917c-0.756-0.213-1.852,0.203-2.253,0.857
				c-0.325,0.528-1.017,0.692-1.546,0.367c-0.527-0.324-0.691-1.017-0.367-1.543c0.924-1.5,3.066-2.326,4.777-1.844
				c0.783,0.223,2.604,1.062,2.604,4.078v3.329l13.137,12.996c0.323,0.319,0.422,0.804,0.248,1.225
				C41.749,31.441,41.34,31.715,40.885,31.715z M14.262,29.471h23.892l-10.81-10.695L14.262,29.471z"/>
		</g>
		<path fill="#C85753" d="M34.766,40.544c0,0.558-0.451,1.011-1.011,1.011H19.104c-0.559,0-1.01-0.453-1.01-1.011V28.379
			c0-0.559,0.451-1.01,1.01-1.01h14.651c0.56,0,1.011,0.451,1.011,1.01V40.544z"/>
	</g>
</g>
</svg>
