<?xml version="1.0" encoding="utf-8"?>
<!-- Generator: Adobe Illustrator 16.0.0, SVG Export Plug-In . SVG Version: 6.00 Build 0)  -->
<!DOCTYPE svg PUBLIC "-//W3C//DTD SVG 1.1//EN" "http://www.w3.org/Graphics/SVG/1.1/DTD/svg11.dtd">
<svg version="1.1" id="Layer_1" xmlns="http://www.w3.org/2000/svg" xmlns:xlink="http://www.w3.org/1999/xlink" x="0px" y="0px"
	 width="52px" height="52px" viewBox="0 0 52 52" enable-background="new 0 0 52 52" xml:space="preserve">
<g>
	<path fill="#EFDA82" d="M51,25.999c0,13.808-11.193,25.002-25,25.002c-13.807,0-25-11.194-25-25.002c0-13.805,11.193-25,25-25
		C39.807,0.999,51,12.194,51,25.999z"/>
	<polygon fill="#EFDA82" points="7.232,24.947 1.169,28.865 1.169,28.866 	"/>
	<path fill="#E2AE68" d="M20.427,35.359V24.947L7.232,33.481v-6.334L1.49,30.851C3.75,42.333,13.855,50.999,26,50.999
		c9.652,0,18.012-5.479,22.176-13.49h-27.76L20.427,35.359z"/>
	<path fill="#BC5638" d="M7.232,24.947L1.17,28.866c0.076,0.672,0.191,1.33,0.32,1.984l5.742-3.703V24.947z"/>
	<path fill="#BC5638" d="M33.686,16.769h-3.854l-0.888,18.591h-8.518l-0.012,2.149h27.76c0.365-0.7,0.709-1.412,1.006-2.149H34.422
		L33.686,16.769z"/>
	<polygon fill="#BC5638" points="20.416,24.938 7.232,33.427 7.232,35.576 7.275,35.576 20.416,27.138 	"/>
	<g>
		<path fill="#B0BCC1" d="M28.785,2.05V1.156c-0.461-0.051-0.926-0.092-1.395-0.116C27.585,1.626,28.134,2.05,28.785,2.05z"/>
		<path fill="#B0BCC1" d="M31.841,7.796c0.816,0,1.479-0.662,1.479-1.478h-2.957C30.363,7.134,31.027,7.796,31.841,7.796z"/>
		<path fill="#B0BCC1" d="M29.296,2.052c0.586,0,1.056,0.47,1.065,1.051V2.052H29.296z"/>
		<path fill="#B0BCC1" d="M31.876,2.05h-1.515v0.002h0.845v1.07h-0.84c0-0.008-0.005-0.014-0.005-0.021v3.217h2.957V2.089
			c-0.475-0.146-0.957-0.272-1.442-0.391V2.05z"/>
		<path fill="#B0BCC1" d="M31.207,3.122v-1.07h-0.844v1.052c0,0.007,0.004,0.013,0.004,0.021h0.84V3.122z"/>
		<path fill="#B0BCC1" d="M30.391,1.392c-0.113-0.021-0.228-0.043-0.343-0.062c-0.26,0.43-0.725,0.721-1.264,0.721h1.577V1.669
			C30.363,1.573,30.373,1.481,30.391,1.392z"/>
		<path fill="#B0BCC1" d="M30.048,1.331c-0.418-0.067-0.838-0.127-1.264-0.174V2.05C29.324,2.05,29.789,1.759,30.048,1.331z"/>
		<path fill="#B0BCC1" d="M31.738,1.669c-0.445-0.104-0.896-0.196-1.348-0.276c-0.019,0.09-0.027,0.182-0.027,0.276H31.738z"/>
		<path fill="#B0BCC1" d="M31.876,1.669h-0.14c0.046,0.011,0.093,0.021,0.14,0.031V1.669z"/>
		<path fill="#B0BCC1" d="M31.876,1.7c-0.047-0.011-0.094-0.021-0.14-0.031h-1.375V2.05h1.515V1.7z"/>
		<circle fill="#B0BCC1" cx="31.826" cy="10.015" r="1.496"/>
		<circle fill="#B0BCC1" cx="31.841" cy="12.981" r="0.837"/>
	</g>
</g>
</svg>
