<?xml version="1.0" encoding="utf-8"?>
<!-- Generator: Adobe Illustrator 16.0.0, SVG Export Plug-In . SVG Version: 6.00 Build 0)  -->
<!DOCTYPE svg PUBLIC "-//W3C//DTD SVG 1.1//EN" "http://www.w3.org/Graphics/SVG/1.1/DTD/svg11.dtd">
<svg version="1.1" id="Layer_1" xmlns="http://www.w3.org/2000/svg" xmlns:xlink="http://www.w3.org/1999/xlink" x="0px" y="0px"
	 width="52px" height="52px" viewBox="0 0 52 52" enable-background="new 0 0 52 52" xml:space="preserve">
<g>
	<path fill="#EFDA82" d="M51,26c0,13.807-11.193,25-25,25C12.191,51,1,39.807,1,26C1,12.195,12.191,1,26,1C39.807,1,51,12.195,51,26
		z"/>
	<g>
		<path fill="#CCA572" d="M19.508,35.773c0.991-1.029,4.505-4.68,5.497-5.709c0.994-1.031,3.199-3.229,4.33-4.397l-2.442-2.442
			c0.047,0.076,0.106,0.156,0.192,0.242c-1.167,1.129-3.422,3.228-4.457,4.222c-1.046,1.01-4.609,4.439-5.656,5.445
			c-1.261,1.215-2.521,2.428-3.781,3.643c-1.986,1.91-3.971,3.822-5.955,5.732c0.919,1.045,1.922,2.016,3.003,2.895
			c1.893-1.969,3.786-3.936,5.68-5.9C17.115,38.26,18.311,37.018,19.508,35.773z"/>
	</g>
	<path fill="#B0BCC1" d="M33.168,21.631c-0.002,0-0.002-0.001-0.002-0.001c0.309-0.316,0.617-0.635,0.927-0.951
		c0.143-0.146,0.153-0.378,0.014-0.518c-0.524-0.524-1.051-1.049-1.577-1.574c-0.138-0.139-0.369-0.129-0.515,0.013
		c-0.315,0.31-0.636,0.618-0.952,0.927c0,0,0,0-0.001-0.002c-2.578-3.969-14.54-8.359-14.54-8.359
		c-0.092,0.574-0.092,0.574-0.105,1.636c-0.206,0.207,7.816,1.582,11.067,8.133c1.099,1.099-1.194,1.322-0.592,2.291l2.442,2.442
		c0.002-0.002,0.002-0.004,0.004-0.006c0.342,0.343,0.189,0.103,0.531,0.442c0.848-0.21,1.08-1.184,1.988-0.839
		c1.524,0.574,3.359,2.608,4.951,4.729c0.232,0.09,3.955,6.729,4.064,6.586C39.004,25.264,33.168,21.631,33.168,21.631z"/>
</g>
</svg>
