<?xml version="1.0" encoding="utf-8"?>
<!-- Generator: Adobe Illustrator 16.0.0, SVG Export Plug-In . SVG Version: 6.00 Build 0)  -->
<!DOCTYPE svg PUBLIC "-//W3C//DTD SVG 1.1//EN" "http://www.w3.org/Graphics/SVG/1.1/DTD/svg11.dtd">
<svg version="1.1" id="Layer_1" xmlns="http://www.w3.org/2000/svg" xmlns:xlink="http://www.w3.org/1999/xlink" x="0px" y="0px"
	 width="52px" height="52px" viewBox="0 0 52 52" enable-background="new 0 0 52 52" xml:space="preserve">
<g>
	<path fill="#EFDA82" d="M50.794,26c0,13.807-11.192,25.001-25,25.001s-25-11.194-25-25.001c0-13.805,11.192-25,25-25
		C39.601,1,50.794,12.194,50.794,26z"/>
	<g>
		<path fill="#F6F3CD" d="M9.503,19.219v25.804c4.364,3.724,10.022,5.978,16.211,5.978c6.188,0,11.848-2.254,16.213-5.979V19.219
			H9.503z"/>
	</g>
	<rect x="14.183" y="22.64" fill="#E2AE68" width="1.459" height="3.936"/>
	<rect x="20.945" y="22.64" fill="#E2AE68" width="1.461" height="3.936"/>
	<rect x="27.71" y="22.64" fill="#E2AE68" width="1.461" height="3.936"/>
	<rect x="34.474" y="22.64" fill="#E2AE68" width="1.461" height="3.936"/>
	<rect x="14.183" y="31.933" fill="#E2AE68" width="1.459" height="3.936"/>
	<rect x="20.945" y="31.933" fill="#E2AE68" width="1.461" height="3.936"/>
	<rect x="27.71" y="31.933" fill="#E2AE68" width="1.461" height="3.936"/>
	<rect x="34.474" y="31.933" fill="#E2AE68" width="1.461" height="3.936"/>
	<rect x="14.183" y="41.187" fill="#E2AE68" width="1.459" height="3.938"/>
	<rect x="20.945" y="41.187" fill="#E2AE68" width="1.461" height="3.938"/>
	<rect x="27.71" y="41.187" fill="#E2AE68" width="1.461" height="3.938"/>
	<rect x="34.474" y="41.187" fill="#E2AE68" width="1.461" height="3.938"/>
	<polygon fill="#C85753" points="43.714,19.371 7.714,19.371 25.714,12.856 25.714,12.856 	"/>
	<circle fill="#ECF7FB" cx="25.794" cy="16.103" r="1.264"/>
</g>
</svg>
