<?xml version="1.0" encoding="utf-8"?>
<!-- Generator: Adobe Illustrator 16.0.0, SVG Export Plug-In . SVG Version: 6.00 Build 0)  -->
<!DOCTYPE svg PUBLIC "-//W3C//DTD SVG 1.1//EN" "http://www.w3.org/Graphics/SVG/1.1/DTD/svg11.dtd">
<svg version="1.1" id="Layer_1" xmlns="http://www.w3.org/2000/svg" xmlns:xlink="http://www.w3.org/1999/xlink" x="0px" y="0px"
	 width="52px" height="52px" viewBox="0 0 52 52" enable-background="new 0 0 52 52" xml:space="preserve">
<g>
	<circle fill="#EFDA82" cx="26" cy="26" r="25"/>
	<g>
		<path fill="#5B7A81" d="M10.408,42.84c-0.207,0.324-0.109,0.756,0.215,0.961c0.078,0.049,0.16,0.082,0.244,0.096
			c0.272,0.054,0.562-0.063,0.717-0.311c2.793-4.402,6.17-7.398,9.386-9.438l-2.222-0.228C15.857,36.004,12.924,38.873,10.408,42.84
			z"/>
		<path fill="#9FD0C9" d="M33.699,12.648c-1.274-0.77-2.771-1.934-4.808-1.781c-2.037,0.152-8.729,0.561-11.36,0.426
			c-2.634-0.137-3.137,2.25-3.24,3.117c-0.102,0.867-2.476,10.762-2.842,14.945c-0.365,4.186,3.489,6.322,6.133,6.399
			c2.645,0.08,13.057-0.641,14.059-0.631c0.531,0.004,0.945-1.055,3.686-2.608l3.108-16.691
			C36.938,14.99,35.349,13.953,33.699,12.648z"/>
		<path fill="#88B4AE" d="M49.563,19.441c-1.254-0.279-5.534-0.5-11.13-3.617l-3.107,16.691c2.437-1.381,6.713-3.156,14.551-4.922
			C49.732,26.148,50.107,20.961,49.563,19.441z"/>
		<circle fill="#F3F4BE" cx="16.211" cy="30.272" r="1.887"/>
		<circle fill="#F3F4BE" cx="27.229" cy="29.785" r="1.889"/>
		<path fill="#F6F3CD" d="M18.385,14.869c-1.271,0.051-1.537,0.756-1.621,1.449c-0.084,0.693-0.378,2.387-0.698,3.99
			c-0.321,1.6,1.507,1.543,2.536,1.49c1.028-0.053,7.391-0.195,9.102-0.344c1.711-0.146,1.562-1.48,1.439-2.146
			c-0.119-0.664-0.49-2.24-0.744-3.262c-0.255-1.242-0.633-1.357-1.719-1.471C25.594,14.461,19.658,14.818,18.385,14.869z"/>
		<path fill="#5B7A81" d="M19.142,12.353c-0.921,0.182-0.206,1.223,0.269,1.18c0.474-0.047,4.84-0.186,5.877-0.281
			c0.879-0.078,0.647-1.098,0.02-1.17C24.679,12.01,20.062,12.17,19.142,12.353z"/>
		<path fill="#F6F3CD" d="M33.621,15.601c0.41,0.055,2.672,1.229,2.951,1.393c0.825,0.33,0.354,6.068,0.098,6.264
			c-0.258,0.196-2.696,0.207-3.033,0.232C33.77,22.297,33.781,18.312,33.621,15.601z"/>
		<path fill="#F6F3CD" d="M38.262,17.683c0.304,0.041,1.829,0.678,2.036,0.797c0.608,0.246,0.351,4.629,0.159,4.773
			c-0.19,0.145-2.174,0.039-2.424,0.059C38.404,21.92,38.379,19.689,38.262,17.683z"/>
		<path fill="#F6F3CD" d="M41.959,18.883c0.242,0.031,1.629,0.504,1.793,0.6c0.486,0.195,0.146,3.848-0.006,3.963
			c-0.154,0.117-1.771-0.094-1.969-0.078C42.072,22.258,42.053,20.48,41.959,18.883z"/>
		<path fill="#F6F3CD" d="M45.328,19.709c0.203,0.027,1.498,0.402,1.639,0.482c0.408,0.164,0.102,3.375-0.027,3.473
			c-0.128,0.098-1.597-0.186-1.765-0.174C45.423,22.555,45.406,21.057,45.328,19.709z"/>
		<path fill="#5B7A81" d="M50.617,29.203c-0.029-0.385-0.365-0.674-0.748-0.643c-0.41,0.031-7.814,0.666-15.021,6.526l-0.415,2.229
			c7.329-6.646,15.44-7.359,15.542-7.365C50.358,29.92,50.645,29.586,50.617,29.203z"/>
		<path fill="#5B7A81" d="M27.938,42.914c-0.207,0.324-0.111,0.756,0.215,0.961c0.077,0.049,0.16,0.082,0.244,0.098
			c0.273,0.051,0.561-0.063,0.717-0.312c1.625-2.562,3.445-4.646,5.318-6.344l0.415-2.229
			C32.432,37.053,30.037,39.602,27.938,42.914z"/>
		<polygon fill="#5B7A81" points="15.565,37.389 33.051,36.746 31.385,39.035 14.076,39.355 		"/>
	</g>
</g>
</svg>
