<?xml version="1.0" encoding="utf-8"?>
<!-- Generator: Adobe Illustrator 16.0.0, SVG Export Plug-In . SVG Version: 6.00 Build 0)  -->
<!DOCTYPE svg PUBLIC "-//W3C//DTD SVG 1.1//EN" "http://www.w3.org/Graphics/SVG/1.1/DTD/svg11.dtd">
<svg version="1.1" id="Layer_1" xmlns="http://www.w3.org/2000/svg" xmlns:xlink="http://www.w3.org/1999/xlink" x="0px" y="0px"
	 width="52px" height="52px" viewBox="0 0 52 52" enable-background="new 0 0 52 52" xml:space="preserve">
<g>
	<path fill="#EFDA82" d="M51,25.999c0,13.808-11.193,25.002-25,25.002c-13.808,0-25-11.194-25-25.002c0-13.805,11.192-25,25-25
		C39.807,0.999,51,12.194,51,25.999z"/>
	<g>
		<path fill="#E2AE68" d="M17.921,28.745c0-3.734,0.42-7.255,0.42-7.255h-3.625c0,0,0.421,3.521,0.421,7.255
			s-0.631,4.422-0.631,8.541v10.938c1.289,0.664,2.64,1.228,4.048,1.662v-12.6C18.554,33.167,17.921,32.48,17.921,28.745z"/>
		<path fill="#B0BCC1" d="M23.157,15.138L22.59,15.11c-0.418-0.027-0.892,0.289-0.921,0.757c-0.225,0.222-0.62,0.415-1.066,0.411
			c-0.988-0.059-1.57-1.299-2.211-1.305c-0.297-0.002-1.482-0.014-2.617-0.021c-1.238-0.01-4.918-0.313-8.324,5.34l0.589,0.549
			c0,0,2.241-2.254,5.428-2.25c0,0,1.235,0.061,1.228,1.194c0.021,0.321,0.021,0.47,0.021,0.47l-0.005,0.596l3.632,0.005
			c0,0-0.017-0.815,0.008-1.037c-0.021-0.619,0.778-1.353,1.987-1.317c0.814-0.018,1.333,0.358,1.255,0.729
			c0.044,0.298,0.515,0.572,0.935,0.552l0.617,0.028c0.568-0.018,0.993-0.434,0.995-0.979v-2.697
			C24.116,15.566,23.7,15.144,23.157,15.138z"/>
		<path fill="#9EB362" d="M27.583,49.622l0.02-16.16c1.139-0.586,1.926-1.758,1.926-3.127s-0.791-2.545-1.935-3.129l-0.001,2.611
			l-1.598,0.92l-1.596-0.924l0.002-2.605c-1.142,0.584-1.931,1.758-1.931,3.127c0,1.365,0.783,2.535,1.916,3.121l-0.019,16.162
			c0,0.575,0.303,1.076,0.756,1.361c0.275,0.009,0.551,0.021,0.828,0.021c0.295,0,0.587-0.014,0.879-0.022
			C27.282,50.693,27.583,50.194,27.583,49.622z M25.998,50.393c-0.349,0-0.634-0.283-0.634-0.634c0-0.35,0.285-0.633,0.634-0.633
			c0.351,0,0.633,0.283,0.633,0.633C26.631,50.109,26.349,50.393,25.998,50.393z"/>
		<path fill="#E2AE68" d="M37.317,37.536c0,0-0.121-0.094-0.315-0.24c0.312-0.521,0.594-0.938,0.81-1.244
			c-0.603-0.133-1.15-0.411-1.601-0.803c-0.188,0.271-0.399,0.592-0.634,0.974c-0.662-0.505-1.28-0.976-1.355-1.035
			c-0.176-0.14-0.279-0.067,0,0.625c0.235,0.59,0.291,1.181,0.094,1.854c-1.354,2.635-2.808,6.58-2.816,11.414
			c0,0.303,0.007,0.606,0.02,0.92c0.006,0.125,0.047,0.237,0.086,0.352c0.84-0.193,1.664-0.43,2.469-0.706
			c-0.006-0.188-0.012-0.379-0.012-0.563C34.049,43.907,35.979,39.774,37.317,37.536z"/>
		<path fill="#E2AE68" d="M44.715,42.513c-0.533-1.904-1.229-3.539-1.901-4.848c-0.199-0.674-0.141-1.265,0.094-1.854
			c0.277-0.693,0.175-0.765,0-0.625c-0.075,0.062-0.694,0.53-1.357,1.034c-0.223-0.363-0.425-0.67-0.605-0.936
			c-0.457,0.383-1.008,0.656-1.615,0.779c0.217,0.305,0.49,0.718,0.801,1.229c-0.195,0.147-0.318,0.241-0.318,0.241
			c0.93,1.552,2.129,4.029,2.78,7.118C43.341,43.984,44.049,43.269,44.715,42.513z"/>
		<circle fill="#054648" cx="38.597" cy="32.333" r="0.527"/>
		<path fill="#B0BCC1" d="M41.793,32.333c0-0.863-0.347-1.646-0.902-2.22c0.091-0.61,0.269-1.933,0.296-3.164
			c0.032-1.665-1.427-3.853-2.119-4.097h-0.338v4.306c0,0.078-0.045,0.147-0.115,0.181c0,0-0.121,0.056-0.26,0.121
			c-0.012,0.004-0.021,0.01-0.031,0.017c0.076,0.043,0.158,0.09,0.238,0.139c0.24,0.142,0.459,0.281,0.459,0.281
			c0.064,0.041,0.1,0.119,0.09,0.196c-0.012,0.076-0.069,0.14-0.145,0.16l-0.521,0.14l0.692,0.325
			c0.071,0.031,0.115,0.104,0.115,0.181c-0.002,0.076-0.048,0.146-0.12,0.178l-0.779,0.349l1.004,0.326
			c0.104,0.033,0.164,0.146,0.127,0.248c-0.031,0.104-0.145,0.159-0.248,0.129l-1.494-0.487c-0.076-0.024-0.131-0.097-0.135-0.177
			v-0.012c0-0.076,0.045-0.148,0.116-0.181l0.854-0.381l-0.788-0.371c-0.073-0.035-0.121-0.114-0.113-0.197
			c0.008-0.082,0.065-0.151,0.146-0.172l0.601-0.161c-0.005-0.001-0.011-0.005-0.017-0.01c-0.203-0.124-0.455-0.262-0.517-0.275
			c-0.019-0.003-0.04-0.004-0.073-0.019c-0.041-0.011-0.125-0.088-0.121-0.187c0.01-0.11,0.049-0.127,0.062-0.149
			c0.019-0.019,0.032-0.029,0.046-0.038c0.028-0.021,0.057-0.038,0.09-0.059c0.067-0.037,0.15-0.078,0.231-0.119
			c0.077-0.039,0.151-0.073,0.211-0.101v-4.182h-0.208c-0.693,0.243-2.152,2.433-2.116,4.097c0.024,1.232,0.202,2.555,0.291,3.165
			c-0.556,0.573-0.897,1.356-0.897,2.22c0,1.767,1.43,3.195,3.193,3.195S41.793,34.099,41.793,32.333z M39.793,33.024l-1.196,0.691
			l-1.197-0.691v-1.383l1.197-0.69l1.196,0.69V33.024z"/>
	</g>
</g>
</svg>
