<?xml version="1.0" encoding="utf-8"?>
<!-- Generator: Adobe Illustrator 16.0.0, SVG Export Plug-In . SVG Version: 6.00 Build 0)  -->
<!DOCTYPE svg PUBLIC "-//W3C//DTD SVG 1.1//EN" "http://www.w3.org/Graphics/SVG/1.1/DTD/svg11.dtd">
<svg version="1.1" id="Layer_1" xmlns="http://www.w3.org/2000/svg" xmlns:xlink="http://www.w3.org/1999/xlink" x="0px" y="0px"
	 width="117.072px" height="505.451px" viewBox="0 0 117.072 505.451" enable-background="new 0 0 117.072 505.451"
	 xml:space="preserve">
<g>
	<path fill="#F8B69C" d="M73.365,21.056l-0.497-0.622H37.188v76.115h-4.896v28.723h36.242V96.549h-4.12v-0.027v-7.461
		c0-3.479,3.979-3.979,3.979-3.979h8.33V52.26h10.566L73.365,21.056z"/>
	<path fill="#2F3E4A" d="M69.699,32.835c0,0.806-0.653,1.463-1.461,1.463s-1.461-0.657-1.461-1.463s0.653-1.463,1.461-1.463
		S69.699,32.029,69.699,32.835"/>
	<g opacity="0.4">
		<g>
			<defs>
				<rect id="SVGID_1_" x="55.326" y="26.796" width="21.397" height="58.186"/>
			</defs>
			<clipPath id="SVGID_2_">
				<use xlink:href="#SVGID_1_"  overflow="visible"/>
			</clipPath>
			<path clip-path="url(#SVGID_2_)" fill="#A3852F" d="M55.341,37.362v26.854c0,0-0.038,4.568,0,6.093
				c0.151,5.954-0.621,14.673,9.202,14.673h12.181V52.156h-5.72h-5.717c-3.232,0-4.724-1.615-4.724-4.723V26.796h-5.222V37.362z"/>
		</g>
	</g>
	<path fill="#A3852F" d="M75.879,3.02c-3.017,0-5.634,1.63-7.087,4.04c-1.076-1.545-2.862-2.562-4.888-2.562
		c-1.372,0-2.622,0.482-3.63,1.264C59.398,2.452,56.411,0,52.824,0c-3.517,0-6.446,2.356-7.393,5.56
		c-0.825-0.653-1.854-1.062-2.99-1.062c-1.967,0-3.65,1.176-4.409,2.858c-1.105-0.567-2.341-0.918-3.674-0.918
		c-4.46,0-8.076,3.614-8.076,8.08c0,3.019,1.677,5.62,4.131,7.007c-1.463,0.911-2.438,2.521-2.438,4.369
		c0,1.245,0.457,2.369,1.188,3.261c-1.724,1.069-2.882,2.964-2.882,5.143c0,3.142,2.405,5.697,5.47,5.998
		c-0.948,0.966-1.538,2.288-1.538,3.751c0,2.525,1.752,4.63,4.107,5.195c-1.166,0.543-1.98,1.718-1.98,3.087
		c0,1.823,1.432,3.298,3.229,3.395v0.021h3.854c11.687,0,11.062-11.066,11.062-11.066v-4.939c-0.022,0-0.05,0.008-0.075,0.008
		c-2.712,0-4.91-2.2-4.91-4.912s2.198-4.909,4.91-4.909c2.679,0,4.844,2.142,4.901,4.805h0.011v0.104v4.912h5.237V27.271h6.713
		c10.952,0,15.038-9.073,16.235-12.694c0.426-1.001,0.667-2.103,0.667-3.256C84.177,6.733,80.462,3.02,75.879,3.02 M58.387,13.097
		c0.041-0.043,0.076-0.094,0.118-0.142c0.023,0.051,0.054,0.096,0.079,0.142H58.387z"/>
	<path fill="#F8B69C" d="M76.724,59.879h-5.532c-1.277,0-3.851,0.121-3.851,3.357v2.496h9.383V59.879z"/>
	<path fill="#CF867C" d="M71.743,62.201c-0.56,0-1.013-0.455-1.013-1.014h-1.492c0,1.38,1.12,2.503,2.503,2.504h4.982v-1.49H71.743z
		"/>
	<path fill="#F8B69C" d="M94.819,265.671c-0.098,0-0.188,0.021-0.282,0.027v-1.547v-3.029H75.079v3.029v6.213v12.197
		c0,0.008-0.001,0.012-0.001,0.02s0.001,0.012,0.001,0.02v0.943h0.095c0.489,4.916,4.589,8.768,9.636,8.768
		c5.045,0,9.145-3.852,9.633-8.768h0.095v-0.943c0-0.008,0.003-0.012,0.003-0.02s-0.003-0.012-0.003-0.02v-9.984
		c0.095,0.008,0.185,0.027,0.282,0.027c1.916,0,3.468-1.553,3.468-3.465C98.287,267.224,96.735,265.671,94.819,265.671"/>
	<path fill="#415728" d="M100.103,166.196v80.255c0,2.834-2.301,5.135-5.137,5.135h-0.429v0.439v9.097H75.078v-9.097v-5.574v-3.52
		v-76.735H100.103z"/>
	<rect x="75.075" y="251.583" fill="#D65228" width="19.46" height="9.538"/>
	<path fill="#402A19" d="M116.368,501.13c-1.804-5.359-3.5-5.961-15.107-6.52l-8.459-2.701c-4.741-1.164-8.91-3.779-12.014-7.348
		c-0.697-0.803-1.335-1.658-1.92-2.553c-5.356,0.391-4.59,5.266-4.59,5.266H59.188v2.039v2.838v2.844v6.135v2.705v1.615h16.615
		v-1.615v-2.691l7.379,4.301h33.891C117.072,503.933,116.822,502.486,116.368,501.13"/>
	<rect x="59.187" y="226.955" fill="#A2742A" width="25.202" height="261.158"/>
	<path fill="#5C412E" d="M77.412,501.13c-1.802-5.359-3.497-5.961-15.104-6.52l-8.459-2.701c-4.741-1.164-8.909-3.779-12.014-7.348
		c-0.696-0.803-1.333-1.658-1.918-2.553c-5.358,0.391-4.59,5.266-4.59,5.266H20.235v2.039v2.838v2.844v6.135v2.705v1.615h16.616
		v-1.615v-2.691l7.379,4.301h33.889C78.119,503.933,77.871,502.486,77.412,501.13"/>
	<rect x="20.235" y="226.955" fill="#A2742A" width="25.202" height="261.158"/>
	<rect x="20.235" y="217.514" fill="#5C412E" width="64.152" height="5.665"/>
	<rect x="20.235" y="223.179" fill="#A2742A" width="64.152" height="31.356"/>
	<rect x="33.939" y="217.514" fill="#A2742A" width="2.877" height="8.175"/>
	<rect x="75.206" y="217.514" fill="#A2742A" width="2.878" height="8.175"/>
	<path fill="#415728" d="M84.04,96.549H71.582c-3.984,7.388-11.797,12.412-20.779,12.412c-8.983,0-16.795-5.024-20.781-12.412
		H16.053C7.187,96.549,0,103.739,0,112.603v11.764v46.62h20.235v46.527h1.592h55.952h6.694v-46.527h15.611v-18.943V135.34v-22.737
		C100.085,103.739,92.9,96.549,84.04,96.549"/>
	<path fill="#D65228" d="M50.803,108.957c8.982,0,16.795-5.021,20.781-12.408h-3.156H64.49h-0.063
		c-3.231,3.932-8.134,6.441-13.624,6.441c-5.489,0-10.393-2.51-13.623-6.441h-5.516h-1.643
		C34.007,103.937,41.819,108.957,50.803,108.957"/>
	<path fill="#D65228" d="M61.116,151.255c0,2.11,1.714,3.825,3.828,3.825h14.988c2.114,0,3.829-1.715,3.829-3.825v-19.996H61.116
		V151.255z"/>
	<path fill="#F8B69C" d="M25.309,265.371c-0.098,0-0.187,0.021-0.281,0.029v-1.549v-3.029H5.57v3.029v6.213v12.197
		c0,0.008-0.003,0.012-0.003,0.02s0.003,0.012,0.003,0.023v0.939h0.096c0.486,4.916,4.586,8.77,9.632,8.77s9.146-3.854,9.635-8.77
		h0.095v-0.939c0-0.012,0.002-0.016,0.002-0.023s-0.002-0.012-0.002-0.02v-9.984c0.095,0.008,0.184,0.027,0.281,0.027
		c1.916,0,3.468-1.553,3.468-3.465C28.776,266.923,27.225,265.371,25.309,265.371"/>
	<path fill="#415728" d="M0,165.898v80.253c0,2.834,2.3,5.134,5.136,5.134h0.429v0.439v9.097h19.461v-9.097v-5.573v-3.52v-76.733H0z
		"/>
	<rect x="5.564" y="251.285" fill="#D65228" width="19.461" height="9.537"/>
</g>
</svg>
