<?xml version="1.0" encoding="utf-8"?>
<!-- Generator: Adobe Illustrator 16.0.0, SVG Export Plug-In . SVG Version: 6.00 Build 0)  -->
<!DOCTYPE svg PUBLIC "-//W3C//DTD SVG 1.1//EN" "http://www.w3.org/Graphics/SVG/1.1/DTD/svg11.dtd">
<svg version="1.1" id="Layer_1" xmlns="http://www.w3.org/2000/svg" xmlns:xlink="http://www.w3.org/1999/xlink" x="0px" y="0px"
	 width="100px" height="150.75px" viewBox="0 0 100 150.75" enable-background="new 0 0 100 150.75" xml:space="preserve">
<path fill="none" stroke="#DC5D39" stroke-miterlimit="10" stroke-dasharray="8,5" d="M98.883,1H1v126.089c0,0,7.911,0,15.71,0
	c2.344,0,4.435-0.228,6.315-0.622v15.748v7.353h31.355v-11.441c0-9.81,0-30.029,0-32.483c0-5.722,6.543-6.535,6.543-6.535h13.703
	V81.473h0.044v-2.451h-0.044v-9.345h13.162L73.975,28.574C94.156,23.361,98.883,1,98.883,1z"/>
<path fill="#2F3E4A" d="M66.076,46.22c0,1.346-1.092,2.432-2.433,2.432c-1.337,0-2.429-1.086-2.429-2.432
	c0-1.344,1.092-2.43,2.429-2.43C64.984,43.79,66.076,44.876,66.076,46.22z"/>
<path fill="#F18980" d="M68.674,80.089c-0.355,0-0.639-0.285-0.639-0.635h-2.484c0,1.719,1.4,3.116,3.123,3.116h5.318v-2.481H68.674
	z"/>
<path fill="none" stroke="#DC5D39" stroke-width="0.75" stroke-miterlimit="10" d="M24.538,127.091
	c14.85-4.707,13.912-21.371,13.912-21.371V57.398c-4.492-0.006-8.136-3.653-8.136-8.156c0-4.496,3.651-8.145,8.149-8.145
	c3.568,0,6.57,2.307,7.673,5.502l0.107-0.34c5.209-0.388,9.324-4.578,9.569-9.825h0.051v-6.491c2.326,0,5.23,0,8.885,0
	c3.082,0,5.898-0.353,8.47-0.98"/>
</svg>
