<?xml version="1.0" encoding="utf-8"?>
<!-- Generator: Adobe Illustrator 16.0.0, SVG Export Plug-In . SVG Version: 6.00 Build 0)  -->
<!DOCTYPE svg PUBLIC "-//W3C//DTD SVG 1.1//EN" "http://www.w3.org/Graphics/SVG/1.1/DTD/svg11.dtd">
<svg version="1.1" id="Layer_1" xmlns="http://www.w3.org/2000/svg" xmlns:xlink="http://www.w3.org/1999/xlink" x="0px" y="0px"
	 width="105px" height="159.502px" viewBox="-2.5 -3.798 105 159.502" enable-background="new -2.5 -3.798 105 159.502"
	 xml:space="preserve">
<path fill="none" stroke="#DB5C39" stroke-miterlimit="10" stroke-dasharray="8,5" d="M101.607,0.464H3.725v126.089
	c0,0,7.911,0,15.71,0c2.344,0,4.435-0.228,6.315-0.622v15.748v7.353h31.355V137.59c0-9.81,0-30.029,0-32.483
	c0-5.722,6.543-6.535,6.543-6.535h13.703V80.937h0.044v-2.451h-0.044v-9.345h13.162L76.699,28.038
	C96.881,22.825,101.607,0.464,101.607,0.464z"/>
<path fill="#2E3D49" d="M68.801,45.684c0,1.346-1.092,2.432-2.433,2.432c-1.337,0-2.429-1.086-2.429-2.432
	c0-1.344,1.092-2.43,2.429-2.43C67.709,43.254,68.801,44.34,68.801,45.684z"/>
<path fill="#F18880" d="M71.398,79.553c-0.355,0-0.639-0.285-0.639-0.635h-2.484c0,1.719,1.4,3.116,3.123,3.116h5.318v-2.481H71.398
	z"/>
<path fill="none" stroke="#DB5C39" stroke-width="0.75" stroke-miterlimit="10" d="M27.263,126.555
	c14.85-4.707,13.912-21.371,13.912-21.371V56.863c-4.492-0.006-8.136-3.653-8.136-8.156c0-4.496,3.651-8.145,8.149-8.145
	c3.568,0,6.57,2.307,7.673,5.502l0.107-0.34c5.209-0.388,9.324-4.578,9.569-9.825h0.051v-6.491c2.326,0,5.23,0,8.885,0
	c3.082,0,5.898-0.353,8.47-0.98"/>
</svg>
