<?xml version="1.0" encoding="utf-8"?>
<!-- Generator: Adobe Illustrator 16.0.0, SVG Export Plug-In . SVG Version: 6.00 Build 0)  -->
<!DOCTYPE svg PUBLIC "-//W3C//DTD SVG 1.1//EN" "http://www.w3.org/Graphics/SVG/1.1/DTD/svg11.dtd">
<svg version="1.1" id="Layer_1" xmlns="http://www.w3.org/2000/svg" xmlns:xlink="http://www.w3.org/1999/xlink" x="0px" y="0px"
	 width="106.014px" height="166.173px" viewBox="0 0 106.014 166.173" enable-background="new 0 0 106.014 166.173"
	 xml:space="preserve">
<g>
	<path fill="#FAB59B" d="M24.98,36.24l0.855-1.07h61.411v131.003H40.387v-0.047v-12.842c0-5.99-6.848-6.848-6.848-6.848H19.202
		V89.948H1.014L24.98,36.24z"/>
	<path fill="#2F3E4A" d="M31.289,56.515c0,1.386,1.126,2.517,2.517,2.517c1.389,0,2.513-1.131,2.513-2.517
		c0-1.389-1.124-2.521-2.513-2.521C32.415,53.994,31.289,55.126,31.289,56.515"/>
	<g opacity="0.4">
		<g>
			<g>
				<defs>
					<rect id="SVGID_1_" x="19.2" y="46.121" width="36.829" height="100.142"/>
				</defs>
				<clipPath id="SVGID_2_">
					<use xlink:href="#SVGID_1_"  overflow="visible"/>
				</clipPath>
				<path clip-path="url(#SVGID_2_)" fill="#A2852F" d="M56,64.306v46.219c0,0,0.065,7.861,0,10.484
					c-0.258,10.248,1.07,25.254-15.837,25.254H19.2V89.769h9.843h9.839c5.565,0,8.134-2.78,8.134-8.13V46.121h8.987v18.185H56z"/>
			</g>
		</g>
	</g>
	<path fill="#A2852F" d="M20.653,5.196c-7.889,0-14.283,6.39-14.283,14.288c0,1.984,0.416,3.88,1.149,5.603
		c2.06,6.234,9.092,21.849,27.942,21.849h11.555v21.472h9.013v-8.453v-0.179h0.02c0.099-4.585,3.824-8.269,8.436-8.269
		c4.67,0,8.451,3.781,8.451,8.448s-3.781,8.453-8.451,8.453c-0.043,0-0.094-0.014-0.129-0.014v8.501c0,0-1.074,19.047,19.039,19.047
		h6.633v-0.037c3.094-0.166,5.559-2.703,5.559-5.84c0-2.358-1.4-4.378-3.406-5.312c4.053-0.974,7.066-4.597,7.066-8.942
		c0-2.517-1.012-4.794-2.645-6.458c5.271-0.518,9.412-4.915,9.412-10.322c0-3.751-1.992-7.01-4.959-8.852
		c1.26-1.535,2.043-3.468,2.043-5.612c0-3.183-1.676-5.948-4.193-7.518c4.225-2.389,7.109-6.865,7.109-12.063
		c0-7.685-6.225-13.903-13.9-13.903c-2.295,0-4.42,0.601-6.322,1.579c-1.309-2.899-4.203-4.919-7.588-4.919
		c-1.957,0-3.729,0.7-5.148,1.824C71.43,4.055,66.387,0,60.336,0C54.16,0,49.019,4.218,47.511,9.917
		c-1.733-1.344-3.886-2.173-6.248-2.173c-3.485,0-6.56,1.748-8.412,4.405C30.35,8.002,25.846,5.196,20.653,5.196 M50.421,22.542
		c0.044-0.079,0.096-0.158,0.137-0.244c0.071,0.082,0.133,0.168,0.201,0.244H50.421z"/>
	<path fill="#FAB59B" d="M19.2,103.06h9.522c2.197,0,6.625,0.207,6.625,5.781v4.293H19.2V103.06z"/>
	<path fill="#D0857D" d="M27.77,107.058c0.964,0,1.743-0.787,1.743-1.744h2.569c0,2.375-1.929,4.309-4.308,4.309h-8.576v-2.564
		H27.77z"/>
</g>
<g>
	<g>
		<g>
			<path fill="none" stroke="#DB5C39" stroke-miterlimit="10" d="M97.876-147.16c-0.766-1.092-1.751-2.021-2.889-2.728
				c0.838-1.021,1.452-2.232,1.737-3.567"/>
			<path fill="none" stroke="#DB5C39" stroke-miterlimit="10" d="M95.751-159.346c-0.683-1.149-1.637-2.12-2.774-2.829
				c1.168-0.661,2.226-1.492,3.138-2.46"/>
			<path fill="none" stroke="#DB5C39" stroke-miterlimit="10" stroke-dasharray="8.3379,5.2112" d="M98.843-169.033
				c0.508-1.379,0.786-2.87,0.786-4.43c0-7.039-5.578-12.762-12.55-13.002"/>
			<path fill="none" stroke="#DB5C39" stroke-miterlimit="10" d="M84.478-186.285c-1.339,0.237-2.602,0.686-3.773,1.289
				c-0.554-1.229-1.414-2.29-2.483-3.082"/>
			<path fill="none" stroke="#DB5C39" stroke-miterlimit="10" d="M72.404-189.503c-1.355,0.218-2.586,0.795-3.618,1.612
				c-0.384-1.298-0.969-2.51-1.721-3.597"/>
			<path fill="none" stroke="#DB5C39" stroke-miterlimit="10" stroke-dasharray="6.2601,3.9126" d="M64.376-194.311
				c-2.076-1.589-4.668-2.535-7.495-2.535c-3.652,0-6.919,1.578-9.185,4.085"/>
			<path fill="none" stroke="#DB5C39" stroke-miterlimit="10" d="M46.501-191.209c-0.722,1.105-1.274,2.333-1.621,3.643
				c-1.045-0.809-2.252-1.419-3.57-1.75"/>
			<path fill="none" stroke="#DB5C39" stroke-miterlimit="10" d="M34.054-188.2c-1.143,0.698-2.127,1.628-2.891,2.723
				c-0.692-1.147-1.548-2.185-2.536-3.077"/>
			<path fill="none" stroke="#DB5C39" stroke-miterlimit="10" stroke-dasharray="7.6317,4.7698" d="M24.6-191.061
				c-1.5-0.594-3.135-0.921-4.851-0.921c-7.382,0-13.366,5.98-13.366,13.371c0,1.855,0.39,3.631,1.076,5.242
				c1.04,3.147,3.437,8.846,8.193,13.429"/>
			<path fill="none" stroke="#DB5C39" stroke-miterlimit="10" d="M17.448-158.361c1.012,0.81,2.114,1.564,3.312,2.238l-1.63,3.653"
				/>
			
				<line fill="none" stroke="#DB5C39" stroke-miterlimit="10" stroke-dasharray="7.196,4.4975" x1="17.297" y1="-148.363" x2="3.917" y2="-118.381"/>
			<polyline fill="none" stroke="#DB5C39" stroke-miterlimit="10" points="3.001,-116.327 1.371,-112.675 5.371,-112.675 			"/>
			
				<line fill="none" stroke="#DB5C39" stroke-miterlimit="10" stroke-dasharray="4.0074,2.5046" x1="7.875" y1="-112.675" x2="13.135" y2="-112.675"/>
			<polyline fill="none" stroke="#DB5C39" stroke-miterlimit="10" points="14.388,-112.675 18.388,-112.675 18.388,-108.675 			"/>
			<polyline fill="none" stroke="#DB5C39" stroke-miterlimit="10" stroke-dasharray="8.1273,5.0796" points="18.388,-103.596 
				18.388,-100.406 18.388,-96.663 18.388,-94.264 18.388,-90.977 18.388,-66.515 			"/>
			<polyline fill="none" stroke="#DB5C39" stroke-miterlimit="10" points="18.388,-63.975 18.388,-59.975 18.39,-59.975 
				18.39,-59.813 22.39,-59.813 			"/>
			<path fill="none" stroke="#DB5C39" stroke-miterlimit="10" stroke-dasharray="7.0717,4.4198" d="M26.81-59.813h4.997
				c0,0,6.407,0.804,6.407,6.409v5.851"/>
			<polyline fill="none" stroke="#DB5C39" stroke-miterlimit="10" points="38.214,-45.344 38.214,-41.387 38.214,-41.344 
				38.194,-41.344 38.092,-41.344 42.092,-41.344 			"/>
			
				<line fill="none" stroke="#DB5C39" stroke-miterlimit="10" stroke-dasharray="9.2868,5.8042" x1="47.896" y1="-41.344" x2="75.176" y2="-41.344"/>
			<polyline fill="none" stroke="#DB5C39" stroke-miterlimit="10" points="78.078,-41.344 82.078,-41.344 82.064,-41.344 
				82.064,-45.344 			"/>
			
				<line fill="none" stroke="#DB5C39" stroke-miterlimit="10" stroke-dasharray="8.101,5.0631" x1="82.064" y1="-50.407" x2="82.064" y2="-100.532"/>
			<path fill="none" stroke="#DB5C39" stroke-miterlimit="10" d="M82.064-103.063v-4h2.605v-0.034
				c1.394-0.075,2.65-0.664,3.579-1.582"/>
			<path fill="none" stroke="#DB5C39" stroke-miterlimit="10" d="M89.419-114.737c-0.537-1.233-1.518-2.229-2.736-2.798
				c1.325-0.318,2.532-0.94,3.541-1.787"/>
			<path fill="none" stroke="#DB5C39" stroke-miterlimit="10" stroke-dasharray="4.5253,2.8283" d="M92.059-121.46
				c0.785-1.295,1.237-2.814,1.237-4.442c0-0.432-0.032-0.857-0.094-1.272"/>
			<path fill="none" stroke="#DB5C39" stroke-miterlimit="10" d="M92.878-128.557c-0.418-1.289-1.132-2.445-2.059-3.388
				c1.366-0.134,2.651-0.546,3.795-1.18"/>
			<path fill="none" stroke="#DB5C39" stroke-miterlimit="10" stroke-dasharray="7.216,4.51" d="M97.928-136.127
				c1.073-1.556,1.701-3.439,1.701-5.476c0-1.265-0.242-2.469-0.682-3.574"/>
		</g>
	</g>
</g>
<path fill="#2E3D49" d="M28.786-144.885c0,1.307,1.061,2.373,2.372,2.373c1.311,0,2.37-1.066,2.37-2.373
	c0-1.312-1.06-2.377-2.37-2.377C29.847-147.262,28.786-146.196,28.786-144.885"/>
<path fill="#D0857D" d="M25.469-97.231c0.91,0,1.644-0.741,1.644-1.645h2.422c0,2.237-1.817,4.062-4.061,4.062h-8.086v-2.417H25.469
	z"/>
<path fill="none" stroke="#DB5C39" stroke-width="0.75" stroke-miterlimit="10" d="M22.689-155.6
	c3.211,1.596,7.071,2.607,11.697,2.607h10.738v19.955h8.376v-7.856v-0.167h0.018c0.092-4.26,3.556-7.684,7.84-7.684
	c4.338,0,7.854,3.514,7.854,7.851s-3.516,7.856-7.854,7.856c-0.04,0-0.085-0.012-0.12-0.012v7.899c0,0-0.997,17.702,17.694,17.702
	h2.358"/>
</svg>
