<?xml version="1.0" encoding="utf-8"?>
<!-- Generator: Adobe Illustrator 16.0.0, SVG Export Plug-In . SVG Version: 6.00 Build 0)  -->
<!DOCTYPE svg PUBLIC "-//W3C//DTD SVG 1.1//EN" "http://www.w3.org/Graphics/SVG/1.1/DTD/svg11.dtd">
<svg version="1.1" id="Layer_1" xmlns="http://www.w3.org/2000/svg" xmlns:xlink="http://www.w3.org/1999/xlink" x="0px" y="0px"
	 width="112px" height="175.084px" viewBox="0 0 112 175.084" enable-background="new 0 0 112 175.084" xml:space="preserve">
<g>
	<path fill="#FAB59B" d="M26.107,38.965l0.895-1.121h64.334v137.24H42.247v-0.05v-13.453c0-6.275-7.174-7.174-7.174-7.174H20.053
		V95.229H1L26.107,38.965z"/>
	<path fill="#2F3E4A" d="M32.716,60.205c0,1.452,1.179,2.637,2.636,2.637c1.455,0,2.633-1.185,2.633-2.637
		c0-1.455-1.178-2.641-2.633-2.641C33.895,57.564,32.716,58.75,32.716,60.205"/>
	<g opacity="0.4">
		<g>
			<defs>
				<rect id="SVGID_1_" x="20.051" y="49.316" width="38.582" height="104.91"/>
			</defs>
			<clipPath id="SVGID_2_">
				<use xlink:href="#SVGID_1_"  overflow="visible"/>
			</clipPath>
			<path clip-path="url(#SVGID_2_)" fill="#A2852F" d="M58.604,68.367v48.418c0,0,0.068,8.238,0,10.985
				c-0.271,10.736,1.12,26.456-16.591,26.456H20.051V95.041h10.312H40.67c5.83,0,8.521-2.912,8.521-8.516V49.316h9.414V68.367z"/>
		</g>
	</g>
	<path fill="#A2852F" d="M21.574,6.444c-8.264,0-14.963,6.694-14.963,14.968c0,2.078,0.436,4.065,1.204,5.869
		c2.157,6.531,9.525,22.89,29.272,22.89h12.105v22.494h9.442v-8.856v-0.188h0.02c0.104-4.803,4.007-8.662,8.837-8.662
		c4.891,0,8.853,3.961,8.853,8.85s-3.962,8.856-8.853,8.856c-0.046,0-0.096-0.015-0.136-0.015v8.906c0,0-1.124,19.953,19.945,19.953
		h6.951v-0.037c3.24-0.174,5.821-2.832,5.821-6.119c0-2.471-1.466-4.586-3.568-5.566c4.246-1.021,7.404-4.815,7.404-9.367
		c0-2.637-1.063-5.023-2.772-6.765c5.524-0.542,9.862-5.149,9.862-10.813c0-3.93-2.088-7.344-5.196-9.273
		c1.319-1.608,2.142-3.633,2.142-5.879c0-3.335-1.756-6.232-4.394-7.876c4.424-2.502,7.448-7.192,7.448-12.637
		c0-8.051-6.521-14.565-14.562-14.565c-2.404,0-4.632,0.629-6.624,1.654c-1.37-3.037-4.404-5.153-7.949-5.153
		c-2.049,0-3.906,0.733-5.394,1.911C74.767,5.248,69.484,1,63.145,1C56.676,1,51.289,5.419,49.71,11.389
		c-1.816-1.408-4.071-2.276-6.545-2.276c-3.651,0-6.872,1.831-8.813,4.614C31.732,9.384,27.014,6.444,21.574,6.444 M52.759,24.615
		c0.045-0.083,0.1-0.166,0.143-0.256c0.074,0.086,0.139,0.176,0.211,0.256H52.759z"/>
	<path fill="#FAB59B" d="M20.051,108.964h9.976c2.302,0,6.941,0.218,6.941,6.056v4.5H20.051V108.964z"/>
	<path fill="#D0857D" d="M29.03,113.153c1.01,0,1.826-0.823,1.826-1.827h2.691c0,2.488-2.021,4.514-4.514,4.514h-8.983v-2.687H29.03
		z"/>
</g>
</svg>
