<?xml version="1.0" encoding="utf-8"?>
<!-- Generator: Adobe Illustrator 16.0.0, SVG Export Plug-In . SVG Version: 6.00 Build 0)  -->
<!DOCTYPE svg PUBLIC "-//W3C//DTD SVG 1.1//EN" "http://www.w3.org/Graphics/SVG/1.1/DTD/svg11.dtd">
<svg version="1.1" id="Layer_1" xmlns="http://www.w3.org/2000/svg" xmlns:xlink="http://www.w3.org/1999/xlink" x="0px" y="0px"
	 width="101.5px" height="158.5px" viewBox="0 0 101.5 158.5" enable-background="new 0 0 101.5 158.5" xml:space="preserve">
<g>
	<g>
		<g>
			<path fill="none" stroke="#DC5D39" stroke-miterlimit="10" d="M98.121,51.429c-0.766-1.092-1.751-2.021-2.889-2.728
				c0.837-1.021,1.452-2.232,1.737-3.567"/>
			<path fill="none" stroke="#DC5D39" stroke-miterlimit="10" d="M95.997,39.243c-0.683-1.149-1.637-2.12-2.775-2.829
				c1.167-0.661,2.226-1.492,3.138-2.46"/>
			<path fill="none" stroke="#DC5D39" stroke-miterlimit="10" stroke-dasharray="8.3379,5.2112" d="M99.088,29.556
				c0.508-1.379,0.786-2.87,0.786-4.43c0-7.039-5.578-12.762-12.55-13.002"/>
			<path fill="none" stroke="#DC5D39" stroke-miterlimit="10" d="M84.722,12.304c-1.339,0.237-2.601,0.686-3.773,1.289
				c-0.554-1.229-1.414-2.29-2.483-3.082"/>
			<path fill="none" stroke="#DC5D39" stroke-miterlimit="10" d="M72.649,9.085c-1.355,0.218-2.586,0.795-3.618,1.612
				c-0.383-1.298-0.969-2.51-1.721-3.597"/>
			<path fill="none" stroke="#DC5D39" stroke-miterlimit="10" stroke-dasharray="6.2601,3.9126" d="M64.621,4.278
				c-2.076-1.589-4.668-2.535-7.495-2.535c-3.652,0-6.919,1.578-9.185,4.085"/>
			<path fill="none" stroke="#DC5D39" stroke-miterlimit="10" d="M46.747,7.379c-0.722,1.105-1.274,2.333-1.621,3.643
				c-1.045-0.809-2.252-1.419-3.57-1.75"/>
			<path fill="none" stroke="#DC5D39" stroke-miterlimit="10" d="M34.299,10.389c-1.143,0.698-2.127,1.628-2.891,2.723
				c-0.692-1.147-1.548-2.185-2.536-3.077"/>
			<path fill="none" stroke="#DC5D39" stroke-miterlimit="10" stroke-dasharray="7.6317,4.7698" d="M24.845,7.528
				c-1.5-0.594-3.135-0.921-4.851-0.921c-7.382,0-13.366,5.98-13.366,13.371c0,1.855,0.39,3.631,1.076,5.242
				c1.04,3.147,3.437,8.846,8.193,13.429"/>
			<path fill="none" stroke="#DC5D39" stroke-miterlimit="10" d="M17.693,40.228c1.012,0.81,2.114,1.564,3.312,2.238l-1.63,3.653"/>
			
				<line fill="none" stroke="#DC5D39" stroke-miterlimit="10" stroke-dasharray="7.196,4.4975" x1="17.542" y1="50.226" x2="4.163" y2="80.208"/>
			<polyline fill="none" stroke="#DC5D39" stroke-miterlimit="10" points="3.246,82.261 1.616,85.914 5.616,85.914 			"/>
			
				<line fill="none" stroke="#DC5D39" stroke-miterlimit="10" stroke-dasharray="4.0074,2.5046" x1="8.121" y1="85.914" x2="13.38" y2="85.914"/>
			<polyline fill="none" stroke="#DC5D39" stroke-miterlimit="10" points="14.633,85.914 18.633,85.914 18.633,89.914 			"/>
			<polyline fill="none" stroke="#DC5D39" stroke-miterlimit="10" stroke-dasharray="8.1273,5.0796" points="18.633,94.994 
				18.633,98.183 18.633,101.926 18.633,104.325 18.633,107.612 18.633,132.075 			"/>
			<polyline fill="none" stroke="#DC5D39" stroke-miterlimit="10" points="18.633,134.614 18.633,138.614 18.635,138.614 
				18.635,138.775 22.635,138.775 			"/>
			<path fill="none" stroke="#DC5D39" stroke-miterlimit="10" stroke-dasharray="7.0717,4.4198" d="M27.055,138.775h4.997
				c0,0,6.407,0.804,6.407,6.409v5.851"/>
			<polyline fill="none" stroke="#DC5D39" stroke-miterlimit="10" points="38.459,153.245 38.459,157.202 38.459,157.245 
				38.439,157.245 38.337,157.245 42.337,157.245 			"/>
			
				<line fill="none" stroke="#DC5D39" stroke-miterlimit="10" stroke-dasharray="9.2868,5.8042" x1="48.141" y1="157.245" x2="75.421" y2="157.245"/>
			<polyline fill="none" stroke="#DC5D39" stroke-miterlimit="10" points="78.323,157.245 82.323,157.245 82.31,157.245 
				82.31,153.245 			"/>
			
				<line fill="none" stroke="#DC5D39" stroke-miterlimit="10" stroke-dasharray="8.101,5.0631" x1="82.31" y1="148.182" x2="82.31" y2="98.057"/>
			<path fill="none" stroke="#DC5D39" stroke-miterlimit="10" d="M82.31,95.525v-4h2.605v-0.034c1.393-0.075,2.65-0.664,3.579-1.582
				"/>
			<path fill="none" stroke="#DC5D39" stroke-miterlimit="10" d="M89.664,83.852c-0.538-1.233-1.518-2.229-2.736-2.798
				c1.325-0.319,2.532-0.94,3.541-1.787"/>
			<path fill="none" stroke="#DC5D39" stroke-miterlimit="10" stroke-dasharray="4.5253,2.8283" d="M92.303,77.128
				c0.786-1.295,1.238-2.814,1.238-4.442c0-0.432-0.032-0.857-0.094-1.272"/>
			<path fill="none" stroke="#DC5D39" stroke-miterlimit="10" d="M93.123,70.032c-0.418-1.289-1.132-2.445-2.059-3.388
				c1.366-0.134,2.651-0.546,3.795-1.18"/>
			<path fill="none" stroke="#DC5D39" stroke-miterlimit="10" stroke-dasharray="7.216,4.51" d="M98.173,62.461
				c1.072-1.556,1.701-3.439,1.701-5.476c0-1.265-0.242-2.469-0.682-3.574"/>
		</g>
	</g>
</g>
<path fill="#2F3E4A" d="M29.031,53.704c0,1.307,1.061,2.373,2.372,2.373c1.311,0,2.37-1.066,2.37-2.373
	c0-1.312-1.06-2.377-2.37-2.377C30.092,51.327,29.031,52.393,29.031,53.704"/>
<path fill="#D0857D" d="M25.714,101.357c0.91,0,1.644-0.741,1.644-1.645h2.422c0,2.237-1.817,4.062-4.061,4.062h-8.086v-2.417
	H25.714z"/>
<path fill="none" stroke="#DC5D39" stroke-width="0.75" stroke-miterlimit="10" d="M22.935,42.989
	c3.211,1.596,7.071,2.607,11.697,2.607H45.37v19.955h8.376v-7.856v-0.167h0.018c0.092-4.26,3.556-7.684,7.84-7.684
	c4.338,0,7.854,3.514,7.854,7.851s-3.516,7.856-7.854,7.856c-0.04,0-0.085-0.012-0.12-0.012v7.899c0,0-0.997,17.702,17.694,17.702
	h2.358"/>
</svg>
