<?xml version="1.0" encoding="utf-8"?>
<!-- Generator: Adobe Illustrator 16.0.0, SVG Export Plug-In . SVG Version: 6.00 Build 0)  -->
<!DOCTYPE svg PUBLIC "-//W3C//DTD SVG 1.1//EN" "http://www.w3.org/Graphics/SVG/1.1/DTD/svg11.dtd">
<svg version="1.1" id="Layer_1" xmlns="http://www.w3.org/2000/svg" xmlns:xlink="http://www.w3.org/1999/xlink" x="0px" y="0px"
	 width="62.525px" height="172px" viewBox="0 0 62.525 172" enable-background="new 0 0 62.525 172" xml:space="preserve">
<g>
	<g>
		<g>
			<path fill="#2D363D" d="M43.394,166.613c-0.053,0-0.104,0-0.151,0.004v-0.004h-3.351c-3.105-2.195-5.133-5.808-5.133-9.897
				h-0.023v-15.515h-5.822v15.515v0.417v2.733v3.521v6.597h3.646v-4.074l3.75,4.074h3.709h3.523h3.223
				C46.765,168.12,45.255,166.613,43.394,166.613z"/>
			<rect x="28.913" y="110.335" fill="#F9B59B" width="5.822" height="30.866"/>
		</g>
		<rect x="28.913" y="121.223" opacity="0.4" fill="#B78C7E" width="5.822" height="2.181"/>
	</g>
	<g>
		<g>
			<path fill="#3B474D" d="M31.698,166.628c-0.054,0-0.102,0.002-0.151,0.002v-0.002h-3.354c-3.104-2.192-5.132-5.805-5.132-9.893
				h-0.003v-15.534h-5.823v15.534h-0.017v3.147v3.521V170h3.647v-4.072L24.613,170h3.711h3.522h3.225
				C35.071,168.139,33.56,166.628,31.698,166.628z"/>
			<rect x="17.236" y="110.335" fill="#F9B59B" width="5.823" height="30.866"/>
		</g>
		<rect x="17.236" y="121.223" opacity="0.4" fill="#B78C7E" width="5.824" height="2.181"/>
	</g>
	<path fill="#F9B59B" d="M35.657,85.29c0,0-0.002,0-0.006,0v-0.278v-4.515V47.648h-5.818v32.849v4.515v3.898h0.013
		c-0.001,0.042-0.013,0.078-0.013,0.116c0,1.61,1.305,2.913,2.912,2.913c1.609,0,2.912-1.303,2.912-2.913
		c0-0.038-0.01-0.074-0.011-0.116h0.005v-0.547c0.004,0,0.004,0.001,0.004,0.001c0.853,0,1.539-0.689,1.539-1.54
		C37.195,85.979,36.508,85.29,35.657,85.29z"/>
	<rect x="29.833" y="47.859" opacity="0.4" fill="#B78C7E" width="5.82" height="2.184"/>
	<g>
		<path fill="#F9B59B" d="M30.984,2.849l4.068,12.111h-2.865v6.411H29.2c0,0-1.423,0.177-1.423,1.425c0,0.535,0,4.939,0,7.076v6.666
			H20.95v-5.774V2.625h9.854L30.984,2.849z"/>
		<circle fill="#2E3D49" cx="29.968" cy="9.708" r="0.523"/>
		<path fill="#F18880" d="M31.052,16.996c-0.078,0-0.139-0.062-0.139-0.137h-0.535c0,0.371,0.302,0.671,0.674,0.671h1.143v-0.534
			H31.052z"/>
		<path fill="#C1682A" d="M16.154,0v27.465c0,0,1.723,0,3.422,0c5.148,0,4.875-4.871,4.875-4.871V12.167
			c-0.969-0.002-1.755-0.789-1.755-1.759c0-0.97,0.788-1.758,1.759-1.758c0.771,0,1.417,0.498,1.656,1.187l0.023-0.073
			c1.124-0.082,2.012-0.988,2.065-2.119h0.009V6.244c0.504,0,1.131,0,1.918,0C36.151,6.244,37.468,0,37.468,0H16.154z"/>
	</g>
	<path fill="#D6DEF1" d="M36.509,41.861l0.002-0.002l-0.459-0.709v-1.58v-2.596v-3.332c0-1.332-1.08-2.415-2.412-2.415h-3.959
		h-1.903c0,1.915-1.523,3.467-3.437,3.467c-1.916,0-3.391-1.552-3.391-3.467h-4.213h-1.723c-1.335,0-2.414,1.083-2.414,2.415v3.631
		h-0.014v10.586h5.85v16.209h2.699h8.545h4.443V48.413c1.928-0.257,3.415-1.902,3.415-3.9C37.539,43.49,37.148,42.563,36.509,41.861
		z"/>
	<polygon fill="#5C4C71" points="34.103,63.088 28.048,63.088 26.234,63.088 24.634,63.088 22.82,63.088 16.766,63.088 
		8.825,121.223 22.82,121.223 28.048,121.223 42.044,121.223 	"/>
	<polygon fill="#FFFFFF" points="9.36,111.792 22.61,111.792 22.61,40.125 20.61,31.227 18.482,31.227 	"/>
	<path fill="#F9B59B" d="M18.415,85.29c0,0-0.005,0-0.007,0v-0.278v-4.515V47.859h-5.821v32.638v4.515v3.898h0.014
		c0,0.042-0.014,0.078-0.014,0.116c0,1.61,1.306,2.913,2.914,2.913s2.914-1.303,2.914-2.913c0-0.038-0.011-0.074-0.012-0.116h0.005
		v-0.547c0.002,0,0.005,0.001,0.005,0.001c0.849,0,1.538-0.689,1.538-1.54C19.951,85.979,19.262,85.29,18.415,85.29z"/>
	<rect x="12.587" y="47.859" opacity="0.4" fill="#B78C7E" width="5.823" height="2.184"/>
	<rect x="29.093" y="33.458" fill="#FFFFFF" width="6.895" height="49.824"/>
	<path fill="#FFFFFF" d="M29.681,31.227h0.304h3.655c1.332,0,2.412,1.083,2.412,2.415v3.332v2.596v1.58l0.459,0.709l-0.002,0.002
		c0.639,0.702,1.03,1.628,1.03,2.651c0,1.998-1.487,3.643-3.415,3.9v13.134l6.86,50.246H27.778v-82.56L29.681,31.227z"/>
	<path fill="#FFFFFF" d="M11.62,33.458c0.095-1.245,1.123-2.231,2.395-2.231h1.723h3.744v2.231l0,0v49.824h-7.895V47.859V37.272
		v-3.814H11.62z"/>
	<polygon fill="#E3E4E5" points="12.368,85.042 19.482,85.042 19.482,83.282 12.587,83.282 	"/>
	<polygon fill="#EAEBEC" points="22.61,40.125 19.482,33.176 19.482,29.278 20.95,29.278 	"/>
	<polygon fill="#524365" points="9.865,113.616 22.61,113.616 22.61,111.792 10.114,111.792 	"/>
	<polygon fill="#524365" points="41,113.616 28.001,113.616 28.001,111.792 40.751,111.792 	"/>
</g>
</svg>
