<?xml version="1.0" encoding="utf-8"?>
<!-- Generator: Adobe Illustrator 16.0.0, SVG Export Plug-In . SVG Version: 6.00 Build 0)  -->
<!DOCTYPE svg PUBLIC "-//W3C//DTD SVG 1.1//EN" "http://www.w3.org/Graphics/SVG/1.1/DTD/svg11.dtd">
<svg version="1.1" id="Layer_1" xmlns="http://www.w3.org/2000/svg" xmlns:xlink="http://www.w3.org/1999/xlink" x="0px" y="0px"
	 width="62.525px" height="172px" viewBox="0 0 62.525 172" enable-background="new 0 0 62.525 172" xml:space="preserve">
<g>
	<g>
		<path fill="#2E373E" d="M14.805,167.46c-0.048-0.017-0.096-0.03-0.144-0.045l0.001-0.003l-3.188-1.03
			c-2.279-3.034-3.101-7.098-1.844-10.985l-0.022-0.011l4.766-14.762l-5.536-1.785L4.073,153.6l-0.129,0.396l-0.839,2.603
			l-1.082,3.352L0,166.221l3.468,1.122l1.25-3.875l2.317,5.025l3.524,1.137l3.352,1.08l3.065,0.989
			C17.549,169.932,16.576,168.027,14.805,167.46z"/>
		
			<rect x="18.485" y="77.547" transform="matrix(-0.9518 -0.3069 0.3069 -0.9518 8.181 220.0998)" fill="#F8B69C" width="5.816" height="63.719"/>
	</g>
	<polygon opacity="0.4" fill="#B78D7E" enable-background="new    " points="19.985,123.083 13.905,123.083 14.518,121.191 
		20.638,121.191 	"/>
</g>
<g>
	<g>
		<path fill="#3C474D" d="M58.292,160.257c-0.048,0.015-0.097,0.031-0.143,0.052l-0.001-0.007l-3.19,1.017
			c-3.623-1.145-6.648-3.973-7.889-7.865h-0.004l-4.717-14.797l-5.541,1.768l4.713,14.797l-0.016,0.004l0.954,3.002l1.07,3.353
			l1.999,6.282l3.473-1.107l-1.235-3.879l4.805,2.745l3.532-1.123l3.355-1.072l3.067-0.978
			C61.964,160.675,60.066,159.691,58.292,160.257z"/>
		
			<rect x="27" y="77.318" transform="matrix(-0.9527 0.3039 -0.3039 -0.9527 91.5824 204.1078)" fill="#F8B69C" width="5.816" height="63.725"/>
	</g>
	<polygon opacity="0.4" fill="#B78D7E" enable-background="new    " points="37.367,123.083 31.286,123.083 30.666,121.191 
		36.788,121.191 	"/>
</g>
<g>
	<path fill="#F8B69C" d="M30.945,2.848l4.064,12.108h-2.864v6.409h-2.98c0,0-1.424,0.178-1.424,1.423c0,0.535,0,4.937,0,7.074v7.492
		h-6.823v-6.599V2.628h9.85L30.945,2.848z"/>
	<circle fill="#2F3E4A" cx="29.93" cy="9.704" r="0.524"/>
	<path fill="#F28A82" d="M31.012,16.993c-0.076,0-0.137-0.062-0.137-0.138H30.34c0,0.371,0.302,0.672,0.671,0.672h1.144v-0.534
		H31.012z"/>
	<path fill="#C2692A" d="M16.127,0v27.459c0,0,1.719,0,3.417,0c5.146,0,4.873-4.872,4.873-4.872V12.164
		c-0.969-0.002-1.753-0.789-1.753-1.759c0-0.968,0.786-1.755,1.756-1.755c0.771,0,1.417,0.498,1.656,1.186L26.1,9.763
		c1.123-0.082,2.01-0.985,2.064-2.118h0.009V6.242c0.502,0,1.127,0,1.917,0C36.11,6.242,37.425,0,37.425,0H16.127z"/>
</g>
<path fill="#FFFFFF" d="M29.644,64.053h4.44V47.497c1.928-0.26,3.414-0.998,3.414-2.995c-0.001-1.023-0.393-1.951-1.032-2.651
	l0.004-0.002l2.466-0.828c0,0-0.146-1.078-0.217-1.5c-0.279-1.67-1.825-6.36-1.924-6.651c-0.453-1.331-1.898-1.697-3.195-1.65
	L29.644,64.053z"/>
<path fill="#D6DEF1" d="M14.987,31.22c-0.799,0-1.507,0.389-1.944,0.987c-0.293,0.399-0.939,2.064-1.17,3.438l-0.719,4.038
	l-0.141,1.339h5.708v23.031h4.383L14.987,31.22z"/>
<polygon fill="#5B4C71" points="34.061,63.074 28.011,63.074 26.197,63.074 24.599,63.074 22.785,63.074 16.735,63.074 
	8.798,121.191 22.785,121.191 28.011,121.191 41.997,121.191 "/>
<g>
	<path fill="#F8B69C" d="M10.247,84.678c-0.002,0-0.004,0.002-0.005,0.002l0.042-0.279l0.675-4.462l4.875-32.262l-5.751-0.87
		L5.207,79.071l-0.674,4.461L3.95,87.389l0.013,0.002c-0.01,0.039-0.025,0.076-0.03,0.113c-0.241,1.59,0.854,3.072,2.443,3.312
		c1.59,0.24,3.073-0.854,3.312-2.443c0.006-0.036,0.001-0.076,0.007-0.116L9.7,88.258l0.083-0.543c0.002,0,0.004,0.002,0.005,0.002
		c0.838,0.126,1.623-0.451,1.748-1.289C11.664,85.588,11.085,84.805,10.247,84.678z"/>
	
		<rect x="9.888" y="47.23" transform="matrix(-0.9888 -0.1494 0.1494 -0.9888 18.229 98.0103)" opacity="0.4" fill="#B78D7E" enable-background="new    " width="5.816" height="2.181"/>
	
		<rect x="10.56" y="40.456" transform="matrix(-0.9888 -0.1495 0.1495 -0.9888 20.2278 89.2578)" fill="#D6DEF1" width="5.817" height="6.826"/>
</g>
<g>
	<path fill="#F8B69C" d="M45.503,83.792c-0.001,0.001-0.002,0.003-0.004,0.003l-0.043-0.279l-0.686-4.459l-4.98-32.46l-5.747,0.882
		l4.981,32.459l0.685,4.46l0.593,3.855l0.011-0.002c0.003,0.04,0.001,0.08,0.007,0.116c0.244,1.591,1.728,2.681,3.317,2.438
		c1.588-0.244,2.679-1.729,2.435-3.318c-0.005-0.037-0.021-0.074-0.029-0.113l0.007-0.002l-0.083-0.541c0.002,0,0.003,0,0.005,0
		c0.84-0.131,1.415-0.914,1.287-1.752C47.129,84.239,46.344,83.665,45.503,83.792z"/>
	
		<rect x="34.205" y="47.232" transform="matrix(-0.9884 0.1517 -0.1517 -0.9884 81.128 90.4562)" opacity="0.4" fill="#B78D7E" enable-background="new    " width="5.816" height="2.181"/>
	<polygon fill="#FFFFFF" points="39.824,46.805 34.075,47.687 33.04,40.94 38.617,40.084 38.936,41.021 	"/>
</g>
<path fill="#FFFFFF" d="M38.65,83.095l6.818-1.022c0,0-3.938-26.461-5.259-35.08S36.795,32.87,36.795,32.87l-5.532,0.951
	L38.65,83.095z"/>
<polygon fill="#524365" points="9.83,113.616 22.575,113.616 22.575,111.792 10.079,111.792 "/>
<polygon fill="#524365" points="40.966,113.616 27.967,113.616 27.967,111.792 40.717,111.792 "/>
<g>
	<path fill="#D6DEF1" d="M36.44,41.853l0.004-0.005l-0.459-0.71v-1.581v-2.592v-3.333c0-1.333-1.077-2.413-2.413-2.413h-3.954
		h-1.884v0.086c0,1.889-1.532,3.421-3.421,3.421c-0.134,0-0.262-0.024-0.392-0.04c-1.703-0.196-3.029-1.626-3.029-3.381
		l-0.077-0.086h-0.001h-4.132H14.96c-1.333,0-2.412,1.08-2.412,2.413c0,0-0.158,1.843,0,3.631c0.158,1.788-0.012,0-0.012,0
		l0.396,4.153h3.779v22.636h4.364h8.541h3.438l1-15.654c1.928-0.255,3.414-1.901,3.414-3.9
		C37.471,43.478,37.078,42.549,36.44,41.853z"/>
	<rect x="27.725" y="31.218" fill="#D6DEF1" width="0.009" height="0.001"/>
	<path fill="#D6DEF1" d="M27.734,31.219h-0.009c0.001,0.029,0.009,0.057,0.009,0.086V31.219z"/>
	<rect x="20.814" y="31.218" fill="#D6DEF1" width="0.087" height="0.001"/>
	<path fill="#D6DEF1" d="M20.892,31.305c0-0.029,0.008-0.057,0.009-0.086h-0.086L20.892,31.305L20.892,31.305z"/>
</g>
<polygon fill="#FFFFFF" points="9.334,111.792 22.584,111.792 22.584,40.125 20.584,31.227 18.456,31.227 "/>
<path fill="#FFFFFF" d="M29.656,31.227h0.304h3.655c1.332,0,2.412,1.083,2.412,2.415v3.332v2.596v1.58l0.459,0.709l-0.002,0.002
	c0.639,0.702,1.03,1.628,1.03,2.651c0,1.998-1.487,3.643-3.415,3.9v13.134l6.86,50.246H27.752v-82.56L29.656,31.227z"/>
<polygon fill="#EAEBEC" points="22.584,40.125 19.456,33.176 19.456,29.278 20.925,29.278 "/>
<g>
	<path fill="#FFFFFF" d="M11.013,33.88c0.273-1.218,1.208-2.618,2.542-2.664h1.958h3.721l-0.323,2.434l0,0l-7.2,49.3L3.9,81.81
		l5.119-35.051l1.53-10.476L11.013,33.88z"/>
	<polygon fill="#E3E4E5" points="4.511,83.678 10.267,84.518 10.53,82.78 4.772,81.954 	"/>
</g>
<polygon fill="#E3E4E5" points="39.724,84.718 45.468,83.803 45.199,82.067 39.458,82.996 "/>
</svg>
