<?xml version="1.0" encoding="utf-8"?>
<!-- Generator: Adobe Illustrator 16.0.0, SVG Export Plug-In . SVG Version: 6.00 Build 0)  -->
<!DOCTYPE svg PUBLIC "-//W3C//DTD SVG 1.1//EN" "http://www.w3.org/Graphics/SVG/1.1/DTD/svg11.dtd">
<svg version="1.1" id="Layer_1" xmlns="http://www.w3.org/2000/svg" xmlns:xlink="http://www.w3.org/1999/xlink" x="0px" y="0px"
	 width="67.248px" height="182.292px" viewBox="0 0 67.248 182.292" enable-background="new 0 0 67.248 182.292"
	 xml:space="preserve">
<g>
	<rect x="23.796" y="91.142" fill="#EAEBEC" width="7.938" height="32.453"/>
	<path fill="#F6B49C" d="M34.866,7.457L34.69,7.233H21.991v27.105h-1.742v10.228h12.9V34.34h-1.469v-0.011v-2.656
		c0-1.24,1.416-1.418,1.416-1.418h2.965V18.567h3.76L34.866,7.457z"/>
	<path fill="#2F3F4A" d="M33.563,11.65c0,0.288-0.232,0.521-0.521,0.521c-0.287,0-0.52-0.233-0.52-0.521
		c0-0.288,0.232-0.521,0.52-0.521C33.331,11.128,33.563,11.362,33.563,11.65"/>
	<g opacity="0.4">
		<g>
			<g>
				<defs>
					<rect id="SVGID_1_" x="28.448" y="9.5" width="7.613" height="20.72"/>
				</defs>
				<clipPath id="SVGID_2_">
					<use xlink:href="#SVGID_1_"  overflow="visible"/>
				</clipPath>
				<path clip-path="url(#SVGID_2_)" fill="#A2842F" d="M28.452,13.262v9.565c0,0-0.014,1.625,0,2.168
					c0.055,2.119-0.221,5.224,3.275,5.224h4.334V18.531h-2.035h-2.035c-1.148,0-1.68-0.576-1.68-1.684V9.5h-1.859V13.262z"/>
			</g>
		</g>
	</g>
	<path fill="#A2842F" d="M35.763,1.032c-1.076,0-2.006,0.581-2.521,1.437c-0.385-0.548-1.02-0.909-1.74-0.909
		c-0.488,0-0.934,0.169-1.293,0.449c-0.311-1.181-1.375-2.053-2.648-2.053c-1.254,0-2.295,0.841-2.633,1.98
		c-0.295-0.233-0.658-0.376-1.062-0.376c-0.701,0-1.301,0.418-1.57,1.017C21.901,2.375,21.46,2.25,20.987,2.25
		c-1.59,0-2.875,1.285-2.875,2.876c0,1.076,0.596,2.002,1.471,2.496c-0.521,0.324-0.869,0.896-0.869,1.556
		c0,0.442,0.164,0.843,0.426,1.163c-0.615,0.379-1.027,1.056-1.027,1.83c0,1.119,0.855,2.026,1.945,2.137
		c-0.336,0.342-0.545,0.815-0.545,1.334c0,0.898,0.623,1.649,1.459,1.85c-0.412,0.194-0.701,0.611-0.701,1.101
		c0,0.647,0.508,1.172,1.146,1.208v0.008h1.373c4.158,0,3.938-3.941,3.938-3.941v-1.759c-0.01,0-0.02,0.003-0.027,0.003
		c-0.965,0-1.748-0.784-1.748-1.75c0-0.965,0.783-1.75,1.748-1.75c0.953,0,1.725,0.763,1.744,1.711h0.004v0.038v1.75h1.865V9.666
		h2.389c3.898,0,5.352-3.229,5.777-4.517c0.152-0.359,0.236-0.75,0.236-1.162C38.714,2.355,37.392,1.032,35.763,1.032 M29.536,4.62
		c0.014-0.015,0.025-0.034,0.043-0.049c0.006,0.019,0.02,0.035,0.027,0.049H29.536z"/>
	<path fill="#F6B49C" d="M36.062,21.279h-1.969c-0.453,0-1.371,0.044-1.371,1.196v0.89h3.34V21.279z"/>
	<path fill="#D0867E" d="M34.29,22.107c-0.199,0-0.359-0.162-0.359-0.36h-0.533c0,0.491,0.398,0.891,0.895,0.891h1.771v-0.531H34.29
		z"/>
	<path fill="#F6B49C" d="M42.503,94.564c-0.035,0-0.068,0.008-0.102,0.01v-0.549v-2.076h-6.924v2.076v2.213v4.344
		c0,0.004-0.002,0.004-0.002,0.004c0,0.008,0.002,0.012,0.002,0.012v0.334h0.033c0.174,1.75,1.633,3.125,3.43,3.125
		c1.793,0,3.254-1.375,3.43-3.125h0.031v-0.334c0,0,0.002-0.004,0.002-0.008c0,0-0.002-0.004-0.002-0.008v-3.557
		c0.033,0.004,0.066,0.01,0.102,0.01c0.682,0,1.232-0.553,1.232-1.232C43.735,95.117,43.185,94.564,42.503,94.564"/>
	<path fill="#425729" d="M44.384,58.141v28.581c0,1.01-0.82,1.829-1.828,1.829h-0.154v0.156v3.241h-6.924v-3.241v-1.985v-1.254
		V58.141H44.384z"/>
	<rect x="35.476" y="88.55" fill="#D55329" width="6.926" height="3.397"/>
	<path fill="#402A19" d="M50.173,178.416c-0.643-1.91-1.246-2.125-5.377-2.322l-3.012-0.963c-1.688-0.412-3.172-1.346-4.273-2.615
		c-0.248-0.285-0.477-0.59-0.686-0.908c-1.906,0.137-1.635,1.873-1.635,1.873h-5.369v0.727v1.012v1.012v2.188v0.965v0.574h5.912
		v-0.574v-0.963l2.627,1.531h12.062C50.423,179.414,50.333,178.9,50.173,178.416"/>
	<path fill="#A2742A" d="M16.015,84.773c0,4.568,3.697,8.269,8.262,8.269h6.252c4.564,0,8.264-3.701,8.264-8.269v-4.515H16.015
		V84.773z"/>
	<rect x="29.821" y="82.537" fill="#A2742A" width="8.969" height="91.242"/>
	<path fill="#5C412F" d="M36.306,178.416c-0.641-1.91-1.242-2.125-5.373-2.322l-3.012-0.963c-1.688-0.412-3.172-1.346-4.275-2.615
		c-0.248-0.285-0.475-0.59-0.684-0.908c-1.904,0.137-1.633,1.873-1.633,1.873h-5.371v0.727v1.012v1.012v2.188v0.965v0.574h5.912
		v-0.574v-0.963l2.629,1.531H36.56C36.56,179.414,36.472,178.9,36.306,178.416"/>
	<rect x="15.958" y="82.537" fill="#A2742A" width="8.969" height="91.242"/>
	<rect x="15.958" y="78.47" fill="#5C412F" width="22.832" height="2.018"/>
	<rect x="20.833" y="78.47" fill="#A2742A" width="1.025" height="2.912"/>
	<rect x="35.522" y="78.47" fill="#A2742A" width="1.021" height="2.912"/>
	<path fill="#425729" d="M38.667,34.34h-4.436c-1.418,2.629-4.197,4.419-7.395,4.419s-5.979-1.79-7.398-4.419h-3.967
		c-3.159,0-5.717,2.561-5.717,5.718v4.186v16.604h6.204v17.622h0.566h19.912h2.385V60.848h5.555V54.1v-5.947v-8.095
		C44.376,36.899,41.817,34.34,38.667,34.34"/>
	<path fill="#D55329" d="M26.839,38.755c3.195,0,5.977-1.787,7.395-4.417H33.11h-1.402h-0.021c-1.148,1.401-2.895,2.293-4.848,2.293
		c-1.955,0-3.699-0.894-4.85-2.293h-1.963H19.44C20.86,36.969,23.64,38.755,26.839,38.755"/>
	<polygon fill="#FFFFFF" points="23.858,124.771 14.096,124.771 14.096,34.09 21.858,34.09 23.858,43.271 	"/>
	<path fill="#D55329" d="M30.507,53.82c0,0.75,0.611,1.362,1.363,1.362h5.334c0.752,0,1.361-0.611,1.361-1.362V46.7h-8.059V53.82
		L30.507,53.82z"/>
	<path fill="#F6B49C" d="M17.763,94.457c-0.033,0-0.064,0.01-0.098,0.012v-0.551v-2.078h-6.928v2.078v2.213v4.344v0.004
		c0,0,0,0.006,0,0.012v0.334h0.033c0.174,1.75,1.633,3.123,3.43,3.123c1.797,0,3.254-1.373,3.43-3.123h0.035v-0.334
		c0-0.006,0-0.006,0-0.006c0-0.006,0-0.008,0-0.008v-3.557c0.033,0,0.062,0.008,0.098,0.008c0.684,0,1.236-0.551,1.236-1.234
		C18.999,95.013,18.444,94.457,17.763,94.457"/>
	<path fill="#425729" d="M9.754,58.034v28.579c0,1.009,0.82,1.831,1.828,1.831h0.154v0.155v3.241h6.926v-3.241v-1.986v-1.25V58.034
		H9.754z"/>
	<rect x="10.737" y="88.444" fill="#D55329" width="6.926" height="3.396"/>
	<path fill="#FFFFFF" d="M19.438,34.09h-4.967c-3.159,0-5.717,2.561-5.717,5.718v4.186v0.25v16.354v31.664h10.684V44.243V34.09z"/>
	<path fill="#FFFFFF" d="M34.306,34.09h6.166c2.549,0,4.613,2.561,4.613,5.718v4.186v0.25v16.354v31.664H34.306v-9.427V44.243V34.09
		z"/>
	<polygon fill="#FFFFFF" points="40.296,124.771 31.733,124.771 31.733,34.09 31.733,32.021 33.233,34.09 40.296,34.09 	"/>
	<rect x="10.653" y="92.261" fill="#E3E4E5" width="8.786" height="1.76"/>
	<rect x="40.296" y="92.261" fill="#E3E4E5" width="2.051" height="1.76"/>
	<polygon fill="#EAEBEC" points="23.858,43.271 20.479,35.918 20.479,32.021 21.948,32.021 	"/>
	<rect x="31.733" y="124.771" fill="#936A25" width="7.059" height="1.668"/>
	<rect x="15.958" y="124.771" fill="#936A25" width="7.838" height="1.668"/>
</g>
</svg>
