<?xml version="1.0" encoding="utf-8"?>
<!-- Generator: Adobe Illustrator 16.0.0, SVG Export Plug-In . SVG Version: 6.00 Build 0)  -->
<!DOCTYPE svg PUBLIC "-//W3C//DTD SVG 1.1//EN" "http://www.w3.org/Graphics/SVG/1.1/DTD/svg11.dtd">
<svg version="1.1" id="Layer_1" xmlns="http://www.w3.org/2000/svg" xmlns:xlink="http://www.w3.org/1999/xlink" x="0px" y="0px"
	 width="67.248px" height="182.292px" viewBox="0 0 67.248 182.292" enable-background="new 0 0 67.248 182.292"
	 xml:space="preserve">
<g>
	<path fill="#F8B69C" d="M34.905,7.453l-0.176-0.224h-12.7V34.32h-1.743v10.223h12.9V34.32H31.72v-0.01v-2.657
		c0-1.236,1.416-1.415,1.416-1.415h2.966v-11.68h3.758L34.905,7.453z"/>
	<path fill="#2F3E4A" d="M33.601,11.643c0,0.287-0.233,0.521-0.52,0.521s-0.521-0.234-0.521-0.521s0.233-0.52,0.521-0.52
		C33.367,11.124,33.601,11.356,33.601,11.643"/>
	<g opacity="0.4">
		<g>
			<g>
				<defs>
					<rect id="SVGID_1_" x="28.486" y="9.494" width="7.617" height="20.707"/>
				</defs>
				<clipPath id="SVGID_2_">
					<use xlink:href="#SVGID_1_"  overflow="visible"/>
				</clipPath>
				<path clip-path="url(#SVGID_2_)" fill="#A3852F" d="M28.491,13.255v9.559c0,0-0.014,1.624,0,2.168
					c0.054,2.118-0.223,5.219,3.275,5.219h4.334v-11.68h-2.039h-2.034c-1.148,0-1.68-0.575-1.68-1.683V9.494H28.49L28.491,13.255
					L28.491,13.255z"/>
			</g>
		</g>
	</g>
	<path fill="#A3852F" d="M35.801,1.032c-1.075,0-2.006,0.581-2.522,1.436c-0.385-0.547-1.021-0.909-1.741-0.909
		c-0.488,0-0.934,0.17-1.292,0.45c-0.311-1.181-1.376-2.053-2.65-2.053c-1.253,0-2.295,0.841-2.632,1.98
		c-0.294-0.233-0.66-0.377-1.064-0.377c-0.7,0-1.299,0.419-1.569,1.016c-0.394-0.2-0.834-0.325-1.307-0.325
		c-1.589,0-2.875,1.285-2.875,2.875c0,1.073,0.596,2,1.471,2.493c-0.521,0.325-0.868,0.897-0.868,1.554
		c0,0.443,0.163,0.843,0.423,1.162c-0.613,0.381-1.025,1.057-1.025,1.831c0,1.116,0.855,2.026,1.945,2.135
		c-0.336,0.342-0.547,0.815-0.547,1.335c0,0.897,0.624,1.646,1.461,1.848c-0.413,0.193-0.702,0.61-0.702,1.099
		c0,0.648,0.509,1.173,1.147,1.208v0.007h1.373c4.159,0,3.938-3.94,3.938-3.94v-1.756c-0.009,0-0.019,0.003-0.028,0.003
		c-0.964,0-1.747-0.784-1.747-1.749s0.783-1.749,1.747-1.749c0.954,0,1.724,0.763,1.745,1.711h0.003v0.038v1.749h1.865V9.661h2.389
		c3.899,0,5.353-3.229,5.78-4.515c0.151-0.358,0.235-0.75,0.235-1.16C38.752,2.354,37.431,1.032,35.801,1.032 M29.575,4.617
		c0.014-0.016,0.025-0.033,0.042-0.048c0.007,0.019,0.019,0.033,0.028,0.048H29.575z"/>
	<path fill="#F8B69C" d="M36.103,21.267h-1.971c-0.454,0-1.371,0.045-1.371,1.198v0.887h3.341V21.267z"/>
	<path fill="#CF867C" d="M34.329,22.096c-0.2,0-0.361-0.162-0.361-0.361h-0.532c0,0.492,0.399,0.892,0.894,0.892h1.772v-0.53
		L34.329,22.096L34.329,22.096z"/>
	<g>
		<path fill="#F8B69C" d="M36.608,93.72c-0.035-0.004-0.068-0.002-0.103-0.004l0.068-0.545l0.131-1.068l-6.873-0.842l-0.131,1.067
			l-0.27,2.196l-0.529,4.308c0,0.004-0.001,0.004-0.001,0.004c-0.001,0.006-0.001,0.01-0.001,0.01l-0.039,0.336l0.031,0.004
			c-0.039,1.756,1.242,3.297,3.024,3.516c1.781,0.219,3.396-0.967,3.783-2.682l0.032,0.004l0.041-0.334l0.004-0.004
			c0,0-0.002-0.006-0.002-0.01l0.434-3.527c0.031,0.008,0.064,0.02,0.098,0.021c0.678,0.082,1.293-0.397,1.375-1.073
			C37.767,94.419,37.286,93.803,36.608,93.72"/>
		<path fill="#FFFFFF" d="M44.304,46.324L39.282,87.26c-0.123,1.002-1.035,1.715-2.035,1.593l-0.152-0.02l-0.02,0.156l-0.395,3.215
			l-6.875-0.844l0.395-3.215l0.242-1.971l0.153-1.244l4.867-39.691L44.304,46.324z"/>
		
			<rect x="30.012" y="88.301" transform="matrix(-0.9926 -0.1217 0.1217 -0.9926 55.7507 183.4)" fill="#D65228" width="6.928" height="3.394"/>
	</g>
	<path fill="#402A19" d="M66.733,174.777c-0.967-1.764-1.599-1.869-5.699-1.344l-3.133-0.42c-1.734-0.111-3.359-0.77-4.668-1.826
		c-0.295-0.238-0.57-0.5-0.832-0.775c-1.853,0.469-1.279,2.131-1.279,2.131l-5.289,0.939l0.127,0.717l0.176,0.992l0.178,0.998
		l0.383,2.148l0.169,0.947l0.102,0.563l5.822-1.033l-0.103-0.563l-0.166-0.947l2.854,1.051l11.875-2.109
		C67.155,175.716,66.978,175.223,66.733,174.777"/>
	<path fill="#A2742A" d="M16.052,84.727c0,4.565,3.698,8.265,8.262,8.265h6.252c4.565,0,8.263-3.699,8.263-8.265v-4.512H16.052
		V84.727z"/>
	<polygon fill="#EAEBEC" points="38.291,123.595 17.208,123.595 22.874,91.142 32.041,91.142 	"/>
	
		<rect x="37.84" y="82.502" transform="matrix(-0.9846 0.1749 -0.1749 -0.9846 106.3979 246.8217)" fill="#A2742A" width="8.968" height="91.194"/>
	<g>
		<path fill="#5C412E" d="M20.323,180.031c-0.316-1.986-0.876-2.297-4.918-3.18l-2.81-1.445c-1.596-0.686-2.903-1.852-3.784-3.287
			c-0.196-0.324-0.37-0.66-0.521-1.006c-1.904-0.18-1.921,1.576-1.921,1.576l-5.299-0.891l-0.119,0.715l-0.168,0.996l-0.167,0.998
			l-0.361,2.156l-0.159,0.946L0,178.177l5.833,0.98l0.095-0.568l0.158-0.942l2.338,1.94l11.894,2.002
			C20.407,181.057,20.406,180.533,20.323,180.031"/>
		
			<rect x="8.511" y="82.268" transform="matrix(-0.9862 -0.1655 0.1655 -0.9862 4.6471 256.1187)" fill="#A2742A" width="8.968" height="91.195"/>
	</g>
	<rect x="15.996" y="78.428" fill="#5C412E" width="22.833" height="2.017"/>
	<rect x="20.872" y="78.428" fill="#A2742A" width="1.024" height="2.909"/>
	<rect x="35.562" y="78.428" fill="#A2742A" width="1.023" height="2.909"/>
	<path fill="#FFFFFF" d="M39.595,46.324h4.709l0.11-4.006v-2.283c0.001-3.156-2.556-5.715-5.708-5.715L39.595,46.324z"/>
	<path fill="#415728" d="M37.458,34.32h-3.188c-1.417,2.627-4.196,4.417-7.395,4.417c-3.198,0-5.978-1.791-7.398-4.417h-4.062
		l0.581,12.004v32.104h0.567h19.915h2.383V46.324L37.458,34.32z"/>
	<path fill="#FFFFFF" d="M14.509,34.32c-3.157,0-5.715,2.559-5.715,5.715l0.161,2.408l0.352,3.881h6.109L14.509,34.32z"/>
	<path fill="#415728" d="M38.706,34.32"/>
	<path fill="#D65228" d="M26.876,38.734c3.197,0,5.977-1.787,7.396-4.414h-1.125h-1.401h-0.022
		c-1.149,1.401-2.894,2.293-4.848,2.293c-1.955,0-3.7-0.892-4.849-2.293h-1.964h-0.586C20.898,36.947,23.678,38.734,26.876,38.734"
		/>
	<path fill="#D65228" d="M30.546,53.791c0,0.75,0.611,1.36,1.363,1.36h5.333c0.752,0,1.362-0.61,1.362-1.36v-7.116h-8.06
		L30.546,53.791L30.546,53.791z"/>
	<polygon fill="#FFFFFF" points="16.915,124.981 8.177,124.981 14.177,92.261 14.177,41.48 14.509,34.299 21.938,34.299 
		23.938,43.48 23.938,83.962 	"/>
	<path fill="#FFFFFF" d="M47.376,124.981h-8.184c0,0-7.379-35.144-7.379-42.561s0-48.122,0-48.122v-2.069l1.5,2.069h5.393
		l1.67,18.056v38.792L47.376,124.981z"/>
	<g>
		<path fill="#F8B69C" d="M26.215,91.921c-0.033,0.004-0.062,0.019-0.095,0.027l-0.094-0.545l-0.182-1.062l-6.826,1.167l0.182,1.062
			l0.373,2.183l0.729,4.276c0,0.003,0.001,0.007,0.001,0.007c0.001,0.004,0.001,0.004,0.002,0.01l0.057,0.33l0.033-0.006
			c0.466,1.694,2.134,2.799,3.906,2.498c1.771-0.303,2.976-1.897,2.854-3.652l0.033-0.006l-0.056-0.332
			c-0.001-0.004-0.001-0.004-0.001-0.01l-0.001-0.004l-0.6-3.502c0.033-0.006,0.064-0.005,0.099-0.01
			c0.673-0.115,1.126-0.75,1.011-1.424C27.527,92.259,26.889,91.806,26.215,91.921"/>
		<path fill="#FFFFFF" d="M9.312,46.324l7.895,45.474l8.637-1.456l-0.546-3.193l-0.334-1.954l-0.209-1.234l-6.735-39.418
			L9.312,46.324z"/>
	</g>
	<polygon fill="#936A25" points="46.542,126.649 39.483,126.649 39.192,124.981 46.251,124.981 	"/>
	<polygon fill="#936A25" points="16.624,126.649 8.786,126.649 9.077,124.981 16.915,124.981 	"/>
	
		<rect x="17.293" y="91.061" transform="matrix(0.9861 -0.1664 0.1664 0.9861 -14.9974 4.8906)" fill="#E3E4E5" width="8.785" height="1.76"/>
	<polygon fill="#EAEBEC" points="23.835,43.271 20.457,35.918 20.457,32.021 21.925,32.021 	"/>
</g>
</svg>
