<?xml version="1.0" encoding="utf-8"?>
<!-- Generator: Adobe Illustrator 16.0.0, SVG Export Plug-In . SVG Version: 6.00 Build 0)  -->
<!DOCTYPE svg PUBLIC "-//W3C//DTD SVG 1.1//EN" "http://www.w3.org/Graphics/SVG/1.1/DTD/svg11.dtd">
<svg version="1.1" id="Layer_1" xmlns="http://www.w3.org/2000/svg" xmlns:xlink="http://www.w3.org/1999/xlink" x="0px" y="0px"
	 width="67.248px" height="182.292px" viewBox="0 0 67.248 182.292" enable-background="new 0 0 67.248 182.292"
	 xml:space="preserve">
<g>
	<path fill="#F8B69C" d="M34.872,7.451l-0.176-0.219h-12.7v27.089h-1.743v10.222h12.901V34.322h-1.469v-0.01v-2.655
		c0-1.24,1.416-1.416,1.416-1.416h2.966V18.556h3.76L34.872,7.451z"/>
	<path fill="#2F3E4A" d="M33.566,11.646c0,0.285-0.232,0.519-0.52,0.519s-0.52-0.234-0.52-0.519c0-0.287,0.232-0.522,0.52-0.522
		S33.566,11.36,33.566,11.646"/>
	<g opacity="0.4">
		<g>
			<g>
				<defs>
					<rect id="SVGID_1_" x="28.453" y="9.494" width="7.614" height="20.71"/>
				</defs>
				<clipPath id="SVGID_2_">
					<use xlink:href="#SVGID_1_"  overflow="visible"/>
				</clipPath>
				<path clip-path="url(#SVGID_2_)" fill="#A3852F" d="M28.457,13.255v9.559c0,0-0.013,1.625,0,2.167
					c0.054,2.121-0.222,5.224,3.275,5.224h4.335V18.521H34.03h-2.034c-1.149,0-1.681-0.575-1.681-1.682V9.494h-1.858V13.255z"/>
			</g>
		</g>
	</g>
	<path fill="#A3852F" d="M35.767,1.032c-1.076,0-2.005,0.581-2.521,1.437c-0.384-0.548-1.02-0.909-1.74-0.909
		c-0.488,0-0.934,0.172-1.293,0.449c-0.311-1.179-1.375-2.053-2.65-2.053c-1.253,0-2.294,0.841-2.632,1.98
		c-0.294-0.232-0.66-0.376-1.064-0.376c-0.701,0-1.3,0.418-1.57,1.016c-0.393-0.202-0.833-0.327-1.307-0.327
		c-1.589,0-2.874,1.285-2.874,2.875c0,1.073,0.595,2.001,1.471,2.494c-0.521,0.323-0.869,0.899-0.869,1.556
		c0,0.442,0.164,0.841,0.424,1.16c-0.614,0.381-1.025,1.055-1.025,1.83c0,1.118,0.854,2.027,1.945,2.134
		c-0.337,0.346-0.547,0.815-0.547,1.337c0,0.899,0.624,1.646,1.46,1.85c-0.413,0.192-0.702,0.608-0.702,1.097
		c0,0.647,0.51,1.176,1.148,1.205V19.8h1.373c4.158,0,3.937-3.94,3.937-3.94v-1.758c-0.009,0-0.019,0.002-0.027,0.002
		c-0.964,0-1.748-0.78-1.748-1.747c0-0.967,0.784-1.748,1.748-1.748c0.953,0,1.724,0.761,1.744,1.711h0.004v0.037v1.747h1.864V9.665
		h2.389c3.898,0,5.354-3.231,5.779-4.519c0.15-0.358,0.236-0.75,0.236-1.156C38.719,2.354,37.396,1.032,35.767,1.032 M29.541,4.621
		c0.014-0.016,0.026-0.036,0.043-0.052c0.007,0.018,0.018,0.035,0.027,0.052H29.541z"/>
	<path fill="#F8B69C" d="M36.067,21.27h-1.97c-0.453,0-1.37,0.045-1.37,1.194v0.889h3.34V21.27z"/>
	<path fill="#CF867C" d="M34.294,22.099c-0.199,0-0.361-0.165-0.361-0.363h-0.532c0,0.49,0.4,0.89,0.894,0.89h1.772v-0.527H34.294z"
		/>
	<g>
		<g>
			<path fill="#F8B69C" d="M52.218,91.23c-0.033,0.005-0.064,0.019-0.098,0.026l-0.083-0.546l-0.415-2.396l-6.846,1.045l0.414,2.397
				l0.336,2.188l0.652,4.291c0,0.001,0,0.001,0,0.001c0.002,0.006,0.004,0.01,0.004,0.012l0.051,0.332l0.033-0.004
				c0.437,1.703,2.084,2.838,3.86,2.566c1.774-0.271,3.011-1.848,2.919-3.604l0.033-0.006l-0.053-0.33c0-0.002,0-0.004,0-0.004
				s-0.002-0.008-0.002-0.012l-0.534-3.514c0.032-0.002,0.063,0,0.101-0.002c0.674-0.104,1.137-0.732,1.031-1.407
				C53.522,91.592,52.894,91.128,52.218,91.23"/>
		</g>
	</g>
	<path fill="#A2742A" d="M16.017,84.73c0,4.562,3.698,8.262,8.263,8.262h6.252c4.564,0,8.263-3.7,8.263-8.262v-4.517H16.017V84.73z"
		/>
	<g>
		<path fill="#402A19" d="M30.156,180.783c-0.23-2.002-0.777-2.336-4.777-3.389l-2.745-1.566c-1.564-0.758-2.823-1.975-3.639-3.449
			c-0.184-0.33-0.342-0.676-0.48-1.026c-1.894-0.263-1.986,1.492-1.986,1.492l-5.254-1.117l-0.151,0.711l-0.21,0.985l-0.21,0.992
			l-0.455,2.138l-0.198,0.938l-0.12,0.562l5.785,1.229l0.119-0.561l0.199-0.938l2.251,2.045l11.797,2.506
			C30.194,181.811,30.213,181.287,30.156,180.783"/>
		<polygon fill="#A2742A" points="27.348,139.244 19.985,173.884 11.212,172.02 22.786,117.559 		"/>
		<polygon fill="#A2742A" points="27.557,95.111 30.17,82.815 38.711,84.633 38.644,86.092 32.122,116.774 		"/>
	</g>
	<g>
		<path fill="#5C412E" d="M55.743,173.785c-1.024-1.729-1.659-1.816-5.742-1.147l-3.145-0.313c-1.736-0.052-3.381-0.654-4.728-1.666
			c-0.3-0.229-0.586-0.48-0.856-0.746c-1.836,0.532-1.207,2.172-1.207,2.172l-5.254,1.117l0.15,0.713l0.212,0.985l0.21,0.99
			l0.454,2.137l0.202,0.938l0.118,0.563l5.784-1.229l-0.121-0.562l-0.197-0.939l2.889,0.953l11.795-2.512
			C56.196,174.71,56.002,174.225,55.743,173.785"/>
		<polygon fill="#A2742A" points="43.646,171.623 34.873,173.494 16.017,84.73 24.654,82.428 		"/>
	</g>
	<rect x="15.961" y="78.428" fill="#5C412E" width="22.833" height="2.016"/>
	<rect x="20.837" y="78.428" fill="#A2742A" width="1.025" height="2.91"/>
	<rect x="35.528" y="78.428" fill="#A2742A" width="1.021" height="2.91"/>
	<path fill="#415728" d="M38.671,34.322h-4.436c-1.418,2.629-4.197,4.418-7.395,4.418c-3.199,0-5.979-1.789-7.398-4.418h-4.97
		c-3.157,0-4.269,2.205-5.349,5.918L8.03,44.222l-0.219,1.141h8.149v33.064h0.568H36.44h2.385V47.815h8.617
		c0,0-0.76-4.576-1.975-7.37C44.188,37.499,42.442,34.407,38.671,34.322"/>
	<path fill="#D65228" d="M26.842,38.738c3.196,0,5.976-1.787,7.396-4.416h-1.125h-1.401H31.69c-1.149,1.399-2.895,2.293-4.848,2.293
		c-1.955,0-3.701-0.895-4.849-2.293H20.03h-0.586C20.864,36.951,23.643,38.738,26.842,38.738"/>
	<path fill="#D65228" d="M30.511,53.791c0,0.753,0.611,1.361,1.363,1.361h5.334c0.752,0,1.361-0.608,1.361-1.361v-7.117h-8.06v7.117
		H30.511z"/>
	<g>
		<g>
			<path fill="#F8B69C" d="M9.716,90.527c-0.035-0.003-0.066,0-0.1-0.002l0.082-0.547l0.342-1.82l-6.875-1.304l-0.317,2.099
				l-0.327,2.184l-0.644,4.296c-0.001,0.003-0.001,0.005-0.002,0.005c-0.001,0.007,0.001,0.006-0.001,0.011l-0.05,0.328l0.035,0.01
				c-0.089,1.752,1.15,3.324,2.927,3.594c1.776,0.266,3.423-0.873,3.852-2.582l0.035,0.008l0.05-0.332
				c0.002-0.002,0.002-0.006,0.002-0.008s0-0.004,0-0.004l0.528-3.517c0.032,0.009,0.063,0.017,0.098,0.022
				c0.674,0.102,1.301-0.362,1.402-1.035C10.856,91.256,10.392,90.627,9.716,90.527"/>
		</g>
	</g>
	<path fill="#FFFFFF" d="M19.381,34.259h-4.967c-3.158,0-5.853,2.605-6.253,5.776l-0.449,3.373l-0.204,1.48L5.187,60.381
		l-4.105,27.16l10.5,1.446l7.8-44.658V34.259z"/>
	<path fill="#FFFFFF" d="M34.661,34.259l4.255-0.03c3.125,0.458,4.062,1.396,5.771,4.271c0,0,1.146,2.308,1.559,3.76
		c0.487,1.717,1.197,5.072,1.197,5.072l1.672,10.58l4.688,31.314l-10.661,1.596L41.746,81.5l-5.713-38.166L34.661,34.259z"/>
	<polygon fill="#E3E4E5" points="52.12,91.256 45.288,92.338 45.029,90.598 51.862,89.516 	"/>
	<polygon fill="#E3E4E5" points="9.624,90.529 2.788,89.646 3.038,87.887 9.874,88.77 	"/>
	<polygon fill="#FFFFFF" points="23.801,124.941 14.04,124.941 14.04,34.259 21.801,34.259 23.801,43.44 	"/>
	<polygon fill="#FFFFFF" points="40.239,124.941 31.676,124.941 31.676,34.259 31.676,32.19 33.176,34.259 34.661,34.259 
		40.239,44.653 	"/>
	<polygon fill="#EAEBEC" points="23.801,43.44 20.422,36.088 20.422,32.19 21.891,32.19 	"/>
	<polygon fill="#936A25" points="34.043,126.525 31.707,126.525 31.707,124.857 33.688,124.857 	"/>
	<polygon fill="#936A25" points="23.77,126.525 20.881,126.525 21.235,124.857 23.77,124.857 	"/>
</g>
</svg>
