<?xml version="1.0" encoding="UTF-8" standalone="no"?>
<!-- Created with Inkscape (http://www.inkscape.org/) -->

<svg
   xmlns:dc="http://purl.org/dc/elements/1.1/"
   xmlns:cc="http://creativecommons.org/ns#"
   xmlns:rdf="http://www.w3.org/1999/02/22-rdf-syntax-ns#"
   xmlns:svg="http://www.w3.org/2000/svg"
   xmlns="http://www.w3.org/2000/svg"
   xmlns:sodipodi="http://sodipodi.sourceforge.net/DTD/sodipodi-0.dtd"
   xmlns:inkscape="http://www.inkscape.org/namespaces/inkscape"
   width="37.829468"
   height="11.836536"
   id="svg3820"
   version="1.1"
   inkscape:version="0.48.4 r9939"
   sodipodi:docname="New document 26">
  <defs
     id="defs3" />
  <sodipodi:namedview
     inkscape:document-units="mm"
     id="base"
     pagecolor="#ffffff"
     bordercolor="#666666"
     borderopacity="1.0"
     inkscape:pageopacity="0.0"
     inkscape:pageshadow="2"
     inkscape:zoom="0.35"
     inkscape:cx="154.62902"
     inkscape:cy="254.48969"
     inkscape:current-layer="layer1"
     showgrid="false"
     units="mm"
     fit-margin-top="0"
     fit-margin-left="0"
     fit-margin-right="0"
     fit-margin-bottom="0"
     inkscape:window-width="472"
     inkscape:window-height="367"
     inkscape:window-x="1128"
     inkscape:window-y="24"
     inkscape:window-maximized="0" />
  <metadata
     id="metadata4">
    <rdf:RDF>
      <cc:Work
         rdf:about="">
        <dc:format>image/svg+xml</dc:format>
        <dc:type
           rdf:resource="http://purl.org/dc/dcmitype/StillImage" />
        <dc:title></dc:title>
      </cc:Work>
    </rdf:RDF>
  </metadata>
  <g
     inkscape:label="Layer 1"
     inkscape:groupmode="layer"
     id="layer1"
     transform="translate(-195.37098,-775.01534)">
    <g
       transform="matrix(0.23103576,0,0,0.23103576,72.231538,688.45647)"
       id="layer1-4"
       inkscape:label="Layer 1">
      <path
         inkscape:connector-curvature="0"
         d="M 550.11193,374.65573 C 557.43655,382.90208 565.91284,390.03264 574.62169,396.75881 582.36905,402.29004 590.72932,409.19335 599.67167,412.71976 601.13202,413.29564 602.65429,413.70006 604.1456,414.19021 605.77508,414.34617 607.39759,414.69737 609.03406,414.6581 615.37563,414.50593 621.71482,411.9925 627.58673,409.89295 635.21826,407.16423 635.34443,407.00466 642.9303,403.87684 656.38575,397.83387 670.07767,392.45126 684.13348,387.98554 692.56382,385.36166 688.36575,386.64495 696.72725,384.13424 696.72725,384.13424 681.55504,395.85016 681.55504,395.85016 L 681.55504,395.85016 C 673.23225,398.36146 677.4135,397.07623 669.01179,399.70749 655.09364,404.23371 641.51948,409.61978 628.13116,415.53283 621.28203,418.31146 619.51087,419.1281 612.58564,421.55426 606.40307,423.72024 599.86168,426.08849 593.18849,425.87474 591.45056,425.81908 589.74966,425.35673 588.03024,425.09772 586.5018,424.54319 584.93905,424.07537 583.44492,423.43413 574.26547,419.49457 566.6197,412.58769 558.54726,406.89249 549.6994,400.04074 541.1043,392.86085 532.98867,385.14888 532.98867,385.14888 550.11193,374.65573 550.11193,374.65573 z"
         id="path3450"
         style="fill:#000000" />
    </g>
  </g>
</svg>
