<?xml version="1.0" encoding="utf-8"?>
<!-- Generator: Adobe Illustrator 16.0.0, SVG Export Plug-In . SVG Version: 6.00 Build 0)  -->
<!DOCTYPE svg PUBLIC "-//W3C//DTD SVG 1.1//EN" "http://www.w3.org/Graphics/SVG/1.1/DTD/svg11.dtd">
<svg version="1.1" id="Layer_1" xmlns="http://www.w3.org/2000/svg" xmlns:xlink="http://www.w3.org/1999/xlink" x="0px" y="0px"
	 width="59px" height="178px" viewBox="0 0 59 178" enable-background="new 0 0 59 178" xml:space="preserve">
<g>
	<g>
		<g>
			<path fill="#F8B69C" d="M27.932,10.088l3.162,11.279h-1.91v8.013h-3.107c0,0-1.481,0.186-1.481,1.483c0,0.558,0,5.145,0,7.37
				v2.599h-7.111v-1.668V9.857h10.262L27.932,10.088z"/>
			<path fill="#477838" d="M27.419,17.232c0,0.303-0.245,0.547-0.544,0.547c-0.301,0-0.545-0.244-0.545-0.547
				c0-0.298,0.244-0.542,0.545-0.542C27.175,16.689,27.419,16.934,27.419,17.232z"/>
			<path fill="#F28A82" d="M28.002,24.827c-0.08,0-0.143-0.065-0.143-0.145h-0.557c0,0.385,0.313,0.699,0.7,0.699h1.192v-0.554
				H28.002z"/>
			<path fill="#7C3C1A" d="M12.493,7.124V35.73c0,0,1.794,0,3.562,0c5.363,0,5.076-5.079,5.076-5.079V19.792
				c-1.008,0-1.827-0.817-1.827-1.831c0-1.01,0.819-1.83,1.833-1.83c0.801,0,1.476,0.521,1.724,1.237l0.023-0.076
				c1.17-0.089,2.094-1.03,2.15-2.208h0.01v-1.459c0.524,0,1.176,0,1.997,0c1.82,0,3.228-0.547,4.309-1.327
				c2.644-1.902-1.37-5.176-1.37-5.176H12.493z"/>
		</g>
	</g>
	<g>
		<path fill="#B25C27" d="M39.113,171.097H35.98c-1.384-0.34-2.6-1.102-3.507-2.143c-0.684-0.787-1.188-1.73-1.453-2.773v-6.1
			l-0.157-0.033H26.17v7.711v2.578v0.83v0.828v1.791h16.687C42.333,172.224,40.854,171.097,39.113,171.097z"/>
		<path fill="#34383A" d="M26.17,175.046h4.85v-0.471v-0.783l2.155,1.254h9.89c0-0.441-0.074-0.859-0.208-1.26H26.17v0.789V175.046z
			"/>
	</g>
	<g>
		<path fill="#C0772A" d="M28.775,171.097h-3.133c-1.385-0.34-2.602-1.102-3.506-2.143c-0.685-0.787-1.189-1.73-1.457-2.773v-6.1
			l-0.156-0.033h-4.693v7.711v2.578v0.83v0.828v1.791h16.688C31.993,172.224,30.514,171.097,28.775,171.097z"/>
		<path fill="#34383A" d="M15.831,175.046h4.849v-0.471v-0.783l2.154,1.254h9.892c0-0.441-0.074-0.859-0.206-1.26H15.831v0.789
			V175.046z"/>
	</g>
	<g>
		<path fill="#F8B69C" d="M33.197,89.698c-0.001,0-0.003,0.002-0.006,0.002v-0.289v-4.703V54.097h-6.06v30.611v4.703v4.061h0.012
			c-0.001,0.041-0.012,0.082-0.012,0.121c0,1.678,1.359,3.035,3.034,3.035c1.676,0,3.033-1.357,3.033-3.035
			c0-0.039-0.01-0.08-0.012-0.121h0.006v-0.568c0.003,0,0.005,0,0.006,0c0.884,0,1.601-0.719,1.601-1.602
			C34.798,90.415,34.081,89.698,33.197,89.698z"/>
		<rect x="27.13" y="54.097" opacity="0.4" fill="#B78D7E" width="6.06" height="2.275"/>
	</g>
	<g>
		<rect x="13.427" y="87.965" fill="#2D7994" width="7.442" height="78.163"/>
		<path fill="#1B6478" d="M17.613,119.786v8.361v2.395v1.291c0,0.477,0.385,0.857,0.86,0.857h2.396v-12.904H17.613z"/>
	</g>
	<g>
		<rect x="23.768" y="87.965" fill="#2D7994" width="7.439" height="78.163"/>
		<path fill="#1B6478" d="M27.952,119.786v8.361v2.395v1.291c0,0.477,0.385,0.857,0.86,0.857h2.395v-12.904H27.952z"/>
	</g>
	<path fill="#FFFFFF" d="M30.704,37.087h-4.125h-1.975h-0.002c-0.001,1.96-1.591,3.552-3.555,3.552
		c-1.963,0-3.554-1.592-3.556-3.552H17.41h-4.305h-1.794c-1.388,0-2.514,1.126-2.514,2.512L8.785,54.411H13.1v6.513h9.664v-6.513
		h3.815v-0.314h5.663h0.973v-8.322v-2.706v-3.471C33.214,38.213,32.09,37.087,30.704,37.087z"/>
	<rect x="17.683" y="50.555" fill="#FFFFFF" width="13.524" height="20.739"/>
	<rect x="22.764" y="41.796" fill="#FFFFFF" width="1.855" height="20.596"/>
	<path fill="#2D7994" d="M31.203,51.788c0-0.506-0.141-0.973-0.367-1.384l0.002-0.022l-2.655-6.573v-6.722h-2.111v6.722h-8.586
		v-6.722h-2.107v6.722l-0.534,10.581v2.774L13.1,60.926v32.151h18.103V59.278v-2.115V51.788L31.203,51.788L31.203,51.788z"/>
	<path fill="#1B6478" d="M19.168,46.888v1.757v1.599v0.866c0,0.317,0.26,0.574,0.579,0.574h5.251c0.319,0,0.576-0.256,0.576-0.574
		v-0.866v-1.599v-1.757H19.168z"/>
	<g>
		<path fill="#F8B69C" d="M14.851,89.977c-0.002,0-0.003,0-0.005,0v-0.29v-4.704v-30.61h-6.06v30.61v4.704v4.06h0.012
			c-0.001,0.043-0.012,0.082-0.012,0.125c0,1.678,1.357,3.031,3.032,3.031c1.675,0,3.034-1.354,3.034-3.031
			c0-0.043-0.012-0.082-0.013-0.125h0.008v-0.568c0.002,0,0.003,0,0.005,0c0.885,0,1.602-0.719,1.602-1.6
			C16.453,90.694,15.736,89.977,14.851,89.977z"/>
		<rect x="8.785" y="54.379" opacity="0.4" fill="#B78D7E" width="6.06" height="2.274"/>
	</g>
</g>
</svg>
