<?xml version="1.0" encoding="utf-8"?>
<!-- Generator: Adobe Illustrator 16.0.0, SVG Export Plug-In . SVG Version: 6.00 Build 0)  -->
<!DOCTYPE svg PUBLIC "-//W3C//DTD SVG 1.1//EN" "http://www.w3.org/Graphics/SVG/1.1/DTD/svg11.dtd">
<svg version="1.1" id="Layer_1" xmlns="http://www.w3.org/2000/svg" xmlns:xlink="http://www.w3.org/1999/xlink" x="0px" y="0px"
	 width="59px" height="178px" viewBox="0 0 59 178" enable-background="new 0 0 59 178" xml:space="preserve">
<g>
	<g>
		<g>
			<path fill="#F8B69C" d="M27.929,10.097l3.163,11.282h-1.911v8.025h-3.108c0,0-1.484,0.186-1.484,1.48c0,0.559,0,5.151,0,7.378
				v2.597h-7.115v-1.668V9.866h10.269L27.929,10.097z"/>
			<path fill="#477838" d="M27.414,17.244c0,0.304-0.244,0.548-0.543,0.548c-0.301,0-0.545-0.244-0.545-0.548
				c0-0.299,0.244-0.541,0.545-0.541C27.17,16.703,27.414,16.945,27.414,17.244z"/>
			<path fill="#F28A82" d="M28,24.845c-0.081,0-0.145-0.065-0.145-0.144h-0.557c0,0.384,0.315,0.699,0.702,0.699h1.192v-0.555H28z"
				/>
			<path fill="#7C3C1A" d="M12.478,7.129v28.628c0,0,1.795,0,3.564,0c5.365,0,5.082-5.08,5.082-5.08V19.811
				c-1.012-0.002-1.831-0.823-1.831-1.833c0-1.014,0.821-1.833,1.833-1.833c0.803,0,1.477,0.52,1.725,1.237l0.023-0.076
				c1.172-0.088,2.098-1.028,2.154-2.208h0.011v-1.461c0.521,0,1.176,0,1.997,0c1.824,0,3.231-0.548,4.312-1.327
				c2.646-1.905-1.371-5.181-1.371-5.181H12.478z"/>
		</g>
	</g>
	<g>
		<path fill="#F8B69C" d="M27.72,89.403c-0.003,0-0.005,0.004-0.007,0.002l0.039-0.287l0.607-4.67l3.953-30.375l-6.016-0.784
			l-3.952,30.378l-0.608,4.668l-0.523,4.03l0.012,0.002c-0.009,0.041-0.023,0.08-0.028,0.121c-0.216,1.66,0.957,3.184,2.62,3.402
			c1.663,0.215,3.184-0.959,3.4-2.619c0.005-0.039,0.002-0.082,0.004-0.125l0.007,0.002l0.074-0.568
			c0.002,0,0.002,0.002,0.005,0.002c0.877,0.113,1.681-0.504,1.794-1.379C29.215,90.321,28.598,89.516,27.72,89.403z"/>
		
			<rect x="26.124" y="53.67" transform="matrix(0.9917 0.1289 -0.1289 0.9917 7.3057 -3.3002)" opacity="0.4" fill="#B78D7E" width="6.067" height="2.28"/>
		
			<rect x="26.614" y="48.386" transform="matrix(0.9916 0.129 -0.129 0.9916 6.8319 -3.3973)" fill="#FFFFFF" width="6.065" height="5.328"/>
	</g>
	<path fill="#2D7994" d="M12.953,86.613c0,3.656,2.961,6.621,6.62,6.621h5.007c3.658,0,6.623-2.965,6.623-6.621v-2.505h-18.25
		V86.613z"/>
	<g>
		<g>
			<path fill="#C0772A" d="M14.384,172.919l-3.09-0.527c-1.308-0.568-2.378-1.525-3.097-2.707c-0.541-0.893-0.881-1.906-0.966-2.979
				l1.03-6.016l-0.148-0.062l-4.63-0.793l-1.302,7.609l-0.435,2.545l-0.139,0.814l-0.142,0.82l-0.303,1.766l16.461,2.816
				C17.369,174.575,16.102,173.216,14.384,172.919z"/>
			<path fill="#34383A" d="M0.95,174.632l4.784,0.818l0.08-0.467l0.132-0.771l1.913,1.602l9.754,1.672
				c0.076-0.436,0.076-0.863,0.01-1.279L1.162,173.39l-0.132,0.777L0.95,174.632z"/>
		</g>
		<g>
			
				<rect x="6.838" y="85.983" transform="matrix(0.9856 0.1689 -0.1689 0.9856 21.4887 0.0312)" fill="#2D7994" width="7.446" height="80.651"/>
			<path fill="#1B6478" d="M12.041,120.423l-1.413,8.25l-0.403,2.359l-0.218,1.273c-0.08,0.467,0.236,0.914,0.705,0.994l2.361,0.404
				l2.179-12.73L12.041,120.423z"/>
		</g>
	</g>
	<path fill="#FFFFFF" d="M30.701,37.116h-4.127h-1.976h-0.002c-0.003,1.96-1.596,3.554-3.559,3.554s-3.557-1.594-3.557-3.554h-0.082
		h-4.309h-1.795c-1.389,0-2.515,1.126-2.515,2.512c0,0-0.094,2.588,0,4.654c0.094,2.064,0.404,4.297,0.404,4.297l3.903,0.24v12.149
		h9.67v-6.517h3.817l2.951,0.142v-5.774h3.474l0.218-3.009v-2.705v-3.478C33.216,38.242,32.089,37.116,30.701,37.116z"/>
	<rect x="17.671" y="50.593" fill="#FFFFFF" width="13.536" height="20.751"/>
	<rect x="22.756" y="41.83" fill="#FFFFFF" width="1.856" height="20.608"/>
	<path fill="#2D7994" d="M31.203,51.826c0-0.506-0.144-0.973-0.37-1.385l0.003-0.025l-2.659-6.575v-6.725h-2.112v6.725h-8.592
		v-6.725h-2.108v6.725L14.833,54.43v2.779l-1.748,3.763v23.951h18.117V59.321v-2.112V51.826L31.203,51.826L31.203,51.826z"/>
	<path fill="#1B6478" d="M19.159,46.922v1.762v1.599v0.861c0,0.318,0.26,0.579,0.578,0.579h5.256c0.318,0,0.577-0.26,0.577-0.579
		v-0.861v-1.599v-1.762H19.159z"/>
	<g>
		<g>
			<path fill="#B25C27" d="M54.104,168.864l-3.085,0.551c-1.422-0.09-2.756-0.627-3.832-1.492c-0.814-0.654-1.477-1.494-1.923-2.471
				l-1.077-6.012l-0.159-0.006l-4.624,0.828l1.36,7.594l0.456,2.543l0.147,0.818l0.147,0.816l0.316,1.764l16.438-2.947
				C57.473,169.405,55.819,168.554,54.104,168.864z"/>
			<path fill="#34383A" d="M42.052,175.038l4.776-0.855l-0.081-0.465l-0.138-0.775l2.344,0.859l9.74-1.746
				c-0.076-0.436-0.223-0.838-0.423-1.205l-16.438,2.947l0.138,0.777L42.052,175.038z"/>
		</g>
		<g>
			
				<rect x="30.939" y="86.002" transform="matrix(0.9843 -0.1763 0.1763 0.9843 -21.7228 8.087)" fill="#2D7994" width="7.447" height="80.649"/>
			<path fill="#1B6478" d="M34.053,120.29l1.477,8.236l0.423,2.355l0.227,1.273c0.084,0.467,0.53,0.777,0.999,0.695l2.36-0.422
				l-2.278-12.713L34.053,120.29z"/>
		</g>
	</g>
	<g>
		<path fill="#F8B69C" d="M22.178,88.168h-0.003l-0.05-0.285l-0.799-4.639l-5.213-30.184l-5.978,1.031l5.211,30.184l0.801,4.639
			l0.691,4.006l0.014-0.002c0.002,0.039-0.001,0.078,0.005,0.123c0.285,1.652,1.856,2.76,3.508,2.475
			c1.652-0.287,2.76-1.855,2.475-3.506c-0.009-0.045-0.026-0.082-0.033-0.119l0.009-0.002l-0.098-0.566c0,0,0.002,0,0.004,0
			c0.872-0.15,1.456-0.98,1.307-1.848C23.88,88.601,23.05,88.016,22.178,88.168z"/>
		
			<rect x="10.285" y="53.563" transform="matrix(0.9854 -0.17 0.17 0.9854 -9.1038 3.0597)" opacity="0.4" fill="#B78D7E" width="6.067" height="2.278"/>
		
			<rect x="9.615" y="48.022" transform="matrix(0.9854 -0.17 0.17 0.9854 -8.454 2.8894)" fill="#FFFFFF" width="6.067" height="5.599"/>
	</g>
	<path fill="none" stroke="#FFFFFF" stroke-width="0.1786" stroke-miterlimit="10" d="M22.143,126.444"/>
	<path fill="none" stroke="#FFFFFF" stroke-width="0.1786" stroke-miterlimit="10" d="M18.251,109.896"/>
</g>
</svg>
