<?xml version="1.0" encoding="utf-8"?>
<!-- Generator: Adobe Illustrator 16.0.0, SVG Export Plug-In . SVG Version: 6.00 Build 0)  -->
<!DOCTYPE svg PUBLIC "-//W3C//DTD SVG 1.1//EN" "http://www.w3.org/Graphics/SVG/1.1/DTD/svg11.dtd">
<svg version="1.1" id="Layer_1" xmlns="http://www.w3.org/2000/svg" xmlns:xlink="http://www.w3.org/1999/xlink" x="0px" y="0px"
	 width="67.213px" height="182.292px" viewBox="0 0 67.213 182.292" enable-background="new 0 0 67.213 182.292"
	 xml:space="preserve">
<g>
	<path fill="#2D7994" d="M14.59,87.719c0,4.461,3.624,8.081,8.094,8.081h6.125c4.471,0,8.096-3.62,8.096-8.081v-3.062H14.59V87.719z
		"/>
	<path fill="#F8B69C" d="M42.355,95.894c-0.036,0-0.065,0.009-0.098,0.009v-2.938V52.958h-6.729v40.006v4.55v4.21
		c0,0.006-0.001,0.006-0.001,0.006c0,0.004,0.001,0.004,0.001,0.004v0.327h0.033c0.167,1.7,1.586,3.032,3.332,3.032
		c1.745,0,3.162-1.332,3.332-3.032h0.033v-0.315c0-0.006,0-0.008,0-0.014c0-0.002,0-0.008,0-0.012v-3.445
		c0.033,0.008,0.062,0.012,0.098,0.012c0.662,0,1.198-0.535,1.198-1.197C43.553,96.429,43.018,95.894,42.355,95.894"/>
	<g opacity="0.4">
		<g>
			<defs>
				<rect id="SVGID_1_" x="35.528" y="63.831" width="6.729" height="2.104"/>
			</defs>
			<clipPath id="SVGID_2_">
				<use xlink:href="#SVGID_1_"  overflow="visible"/>
			</clipPath>
			<rect x="35.528" y="63.831" clip-path="url(#SVGID_2_)" fill="#B78D7E" width="6.729" height="2.104"/>
		</g>
	</g>
	<path fill="#9B5E26" d="M46.412,174.634H42.7c-1.639-0.403-3.082-1.305-4.154-2.535c-0.811-0.931-1.409-2.049-1.724-3.277v-7.219
		l-0.184-0.041h-5.56v9.123v3.052v0.979v0.981v2.119h19.767C50.221,175.968,48.473,174.634,46.412,174.634"/>
	<path fill="#34383A" d="M31.078,179.306h5.744v-0.557v-0.928l2.551,1.484H51.09c0-0.518-0.087-1.021-0.246-1.489H31.078v0.933
		V179.306z"/>
	<g opacity="0.4">
		<g>
			<defs>
				<rect id="SVGID_3_" x="31.078" y="166.354" width="5.774" height="1.829"/>
			</defs>
			<clipPath id="SVGID_4_">
				<use xlink:href="#SVGID_3_"  overflow="visible"/>
			</clipPath>
			<rect x="31.078" y="166.354" clip-path="url(#SVGID_4_)" fill="#9B5E26" width="5.774" height="1.829"/>
		</g>
	</g>
	<rect x="28.124" y="85.855" fill="#2D7994" width="8.713" height="80.499"/>
	<path fill="#1B6478" d="M33.024,120.371v9.779v2.797v1.515c0,0.554,0.453,1.003,1.008,1.003h2.804v-15.094H33.024z"/>
	<path fill="#C0772A" d="M32.927,174.634h-3.71c-1.641-0.403-3.083-1.305-4.155-2.535c0,0.121-0.003,0.241-0.003,0.351
		c0,3.061-3.252,3.248-3.252,3.248h-4.212v2.119h19.768C36.739,175.968,34.99,174.634,32.927,174.634"/>
	<path fill="#C0772A" d="M25.059,172.449c0-0.109,0.003-0.229,0.003-0.351c-0.809-0.931-1.407-2.049-1.723-3.277v-7.219
		l-0.185-0.041h-5.56v9.123v3.052v0.979v0.981h4.212C21.807,175.697,25.059,175.51,25.059,172.449"/>
	<path fill="#34383A" d="M17.594,179.306h5.745v-0.557v-0.928l2.55,1.484h11.716c0-0.518-0.086-1.021-0.244-1.489H17.594v0.933
		V179.306z"/>
	<g opacity="0.4">
		<g>
			<defs>
				<rect id="SVGID_5_" x="17.594" y="166.354" width="5.775" height="1.829"/>
			</defs>
			<clipPath id="SVGID_6_">
				<use xlink:href="#SVGID_5_"  overflow="visible"/>
			</clipPath>
			<rect x="17.594" y="166.354" clip-path="url(#SVGID_6_)" fill="#9B5E26" width="5.775" height="1.829"/>
		</g>
	</g>
	<rect x="14.656" y="85.855" fill="#2D7994" width="8.713" height="80.499"/>
	<path fill="#1B6478" d="M17.965,134.462v-1.515v-2.797v-9.779h-3.309v15.094h2.299C17.513,135.465,17.965,135.016,17.965,134.462"
		/>
	<rect x="18.824" y="38.129" fill="#F8B69C" width="12.531" height="9.917"/>
	<path fill="#F8B69C" d="M14.674,95.894c-0.034,0-0.064,0.009-0.099,0.009v-2.938V52.958H7.847v40.006v4.55v4.21
		c0,0.006,0,0.006,0,0.006c0,0.004,0,0.004,0,0.004v0.327H7.88c0.168,1.7,1.587,3.032,3.333,3.032c1.746,0,3.163-1.332,3.331-3.032
		h0.031v-0.315c0-0.006,0.002-0.008,0.002-0.014c0-0.002-0.002-0.008-0.002-0.012v-3.445c0.035,0.008,0.065,0.012,0.099,0.012
		c0.663,0,1.198-0.535,1.198-1.197C15.872,96.429,15.336,95.894,14.674,95.894"/>
	<g opacity="0.4">
		<g>
			<defs>
				<rect id="SVGID_7_" x="7.847" y="63.831" width="6.728" height="2.104"/>
			</defs>
			<clipPath id="SVGID_8_">
				<use xlink:href="#SVGID_7_"  overflow="visible"/>
			</clipPath>
			<rect x="7.847" y="63.831" clip-path="url(#SVGID_8_)" fill="#B78D7E" width="6.728" height="2.104"/>
		</g>
	</g>
	<path fill="#FFFFFF" d="M36.685,38.129h-4.783h-0.614h-1.289c0,2.614-2.122,4.735-4.74,4.735c-2.619,0-4.741-2.121-4.741-4.735
		h-1.939H13.18c-3.066,0-5.552,2.48-5.552,5.542v4.063v16.097h2.148h4.88h22.18h5.399v-6.544v-5.769V43.67
		C42.235,40.609,39.75,38.129,36.685,38.129"/>
	<polygon fill="#2D7994" points="35.64,48.754 35.64,38.129 32.731,38.129 32.731,48.754 20.518,48.754 20.518,38.129 
		17.608,38.129 17.608,48.754 16.312,63.831 14.655,63.831 14.655,86.34 16.312,86.34 36.836,86.34 36.836,63.831 	"/>
	<path fill="#C0E0EF" d="M34.297,62.313c0.415-0.415,0.567-0.996,0.456-1.531l-1.125,1.124l-1.299-1.297l1.125-1.126
		c-0.538-0.11-1.119,0.04-1.536,0.458c-0.417,0.417-0.567,0.996-0.456,1.532l-1.642,1.638l-2.236,2.231l1.299,1.3l2.237-2.234
		l1.64-1.639C33.3,62.881,33.88,62.73,34.297,62.313"/>
	<path fill="#1B6478" d="M20.518,63.831v3.071v2.798v1.51c0,0.557,0.452,1.008,1.01,1.008h9.196c0.557,0,1.007-0.452,1.007-1.008
		v-1.51v-2.798v-3.071H20.518z"/>
	<path fill="#F8B69C" d="M33.026,12.061l4.814,10.776h-3.654V34.17h-2.879c0,0-1.375,0.17-1.375,1.372v2.578v2.403h-9.414V38.98
		V11.85h12.337L33.026,12.061z"/>
	<path fill="#2F3E4A" d="M31.758,16.131c0,0.278-0.227,0.504-0.506,0.504c-0.279,0-0.504-0.227-0.504-0.504
		c0-0.28,0.226-0.505,0.504-0.505C31.531,15.625,31.758,15.851,31.758,16.131"/>
	<g opacity="0.2">
		<g>
			<defs>
				<rect id="SVGID_9_" x="26.788" y="14.082" width="7.398" height="20.089"/>
			</defs>
			<clipPath id="SVGID_10_">
				<use xlink:href="#SVGID_9_"  overflow="visible"/>
			</clipPath>
			<path clip-path="url(#SVGID_10_)" fill="#4D3C18" d="M26.793,17.731v9.27c0,0-0.014,1.578,0,2.103
				c0.053,2.056-0.213,5.067,3.183,5.067h4.209V22.837h-1.977h-1.977c-1.119,0-1.635-0.558-1.635-1.629v-7.126h-1.805V17.731z"/>
		</g>
	</g>
	<path fill="#F8B69C" d="M34.186,24.646h-1.912c-0.443,0-1.331,0.043-1.331,1.161v0.863h3.243V24.646z"/>
	<path fill="#CF867C" d="M32.465,25.692c-0.196,0-0.352-0.159-0.352-0.352h-0.516c0,0.477,0.388,0.864,0.865,0.864h1.724v-0.512
		H32.465z"/>
	<path fill="#67311E" d="M19.953,8.5v14.723h1.332c4.042,0,3.825-3.823,3.825-3.823v-1.705c-0.009,0-0.016,0.003-0.025,0.003
		c-0.939,0-1.698-0.759-1.698-1.696c0-0.936,0.759-1.697,1.698-1.697c0.925,0,1.673,0.742,1.693,1.661h0.002v0.036v1.696h1.812
		v-4.307h2.321c4.728,0,5.76-4.892,5.76-4.892H19.953z"/>
</g>
</svg>
