<?xml version="1.0" encoding="utf-8"?>
<!-- Generator: Adobe Illustrator 16.0.0, SVG Export Plug-In . SVG Version: 6.00 Build 0)  -->
<!DOCTYPE svg PUBLIC "-//W3C//DTD SVG 1.1//EN" "http://www.w3.org/Graphics/SVG/1.1/DTD/svg11.dtd">
<svg version="1.1" id="Layer_1" xmlns="http://www.w3.org/2000/svg" xmlns:xlink="http://www.w3.org/1999/xlink" x="0px" y="0px"
	 width="67.213px" height="182.292px" viewBox="0 0 67.213 182.292" enable-background="new 0 0 67.213 182.292"
	 xml:space="preserve">
<g>
	<g>
		<path fill="#F8B69C" d="M36.143,95.26c-0.036-0.004-0.066,0.002-0.099-0.002l0.339-2.92L41.002,52.6l-6.686-0.776l-4.618,39.739
			l-0.525,4.52l-0.487,4.183c0,0.004-0.001,0.004-0.001,0.004c-0.001,0.006,0,0.006-0.001,0.012l-0.036,0.321l0.033,0.002
			c-0.03,1.706,1.226,3.191,2.96,3.393c1.733,0.2,3.295-0.958,3.658-2.623l0.034,0.002l0.036-0.315
			c0.001-0.006,0.001-0.006,0.001-0.012c0.001-0.004,0.001-0.008,0.001-0.014l0.397-3.42c0.033,0.008,0.061,0.018,0.097,0.021
			c0.657,0.076,1.251-0.394,1.328-1.05C37.27,95.928,36.8,95.336,36.143,95.26"/>
		<g opacity="0.4">
			<g>
				<defs>
					
						<rect id="SVGID_1_" x="32.918" y="63.005" transform="matrix(-0.9934 -0.1151 0.1151 -0.9934 64.9516 131.8639)" width="6.729" height="2.103"/>
				</defs>
				<clipPath id="SVGID_2_">
					<use xlink:href="#SVGID_1_"  overflow="visible"/>
				</clipPath>
				
					<rect x="32.918" y="63.005" transform="matrix(0.9934 0.1151 -0.1151 0.9934 7.6134 -3.75)" clip-path="url(#SVGID_2_)" fill="#B78D7E" width="6.729" height="2.103"/>
			</g>
		</g>
		<g>
			<g>
				<defs>
					<polygon id="SVGID_3_" points="32.175,62.523 39.913,63.419 41.783,48.235 33.856,48.046 					"/>
				</defs>
				<use xlink:href="#SVGID_3_"  overflow="visible" fill="#FFFFFF"/>
				<clipPath id="SVGID_4_">
					<use xlink:href="#SVGID_3_"  overflow="visible"/>
				</clipPath>
				<polygon clip-path="url(#SVGID_4_)" fill="#FFFFFF" points="39.913,63.419 31.323,62.424 33.006,47.948 41.597,48.943 				"/>
			</g>
		</g>
	</g>
	<path fill="#2D7994" d="M14.653,87.667c0,4.462,3.574,8.131,8.043,8.131h6.125c4.471,0,8.013-3.618,8.013-8.081v-3.06
		l-22.181-0.051V87.667z"/>
	<g>
		<path fill="#9B5E26" d="M61.788,171.45l-3.654,0.648c-1.687-0.111-3.263-0.75-4.534-1.776c-0.96-0.771-1.745-1.768-2.27-2.927
			l-1.262-7.105l-0.189-0.006l-5.474,0.968L46,170.235l0.534,3.006l0.17,0.964l0.173,0.965l0.369,2.089l19.464-3.444
			C65.773,172.101,63.819,171.09,61.788,171.45"/>
		<path fill="#34383A" d="M47.506,178.724l5.657-1.001l-0.097-0.55l-0.163-0.911l2.772,1.017l11.537-2.043
			c-0.092-0.512-0.265-0.989-0.502-1.421l-19.464,3.444l0.163,0.917L47.506,178.724z"/>
		<g opacity="0.4">
			<g>
				<defs>
					
						<rect id="SVGID_5_" x="45.36" y="165.45" transform="matrix(-0.9847 0.1741 -0.1741 -0.9847 124.7134 321.7941)" width="5.773" height="1.831"/>
				</defs>
				<clipPath id="SVGID_6_">
					<use xlink:href="#SVGID_5_"  overflow="visible"/>
				</clipPath>
				
					<rect x="45.36" y="165.456" transform="matrix(0.9847 -0.1741 0.1741 0.9847 -28.2217 10.9374)" clip-path="url(#SVGID_6_)" fill="#9B5E26" width="5.773" height="1.825"/>
			</g>
		</g>
		<polygon fill="#2D7994" points="50.914,164.966 42.333,166.484 28.266,87.224 36.846,85.705 		"/>
		<path fill="#1B6478" d="M39.125,120.354l1.709,9.628l0.488,2.758l0.265,1.485c0.097,0.547,0.622,0.915,1.169,0.82l2.76-0.491
			l-2.638-14.862L39.125,120.354z"/>
	</g>
	<g>
		<path fill="#C0772A" d="M18.017,176.863l-3.66-0.619c-1.548-0.67-2.819-1.801-3.669-3.193c-0.022,0.121-0.043,0.239-0.062,0.345
			c-0.513,3.019-3.752,2.658-3.752,2.658l-4.151-0.701l-0.356,2.09l19.49,3.305C21.55,178.818,20.05,177.208,18.017,176.863"/>
		<path fill="#C0772A" d="M10.627,173.396c0.019-0.105,0.038-0.224,0.061-0.345c-0.642-1.056-1.045-2.255-1.149-3.521l1.21-7.114
			l-0.176-0.071l-5.483-0.93l-1.528,8.993l-0.512,3.013l-0.165,0.964l-0.163,0.968l4.151,0.701
			C6.874,176.054,10.113,176.414,10.627,173.396"/>
		<path fill="#34383A" d="M2.118,178.91l5.663,0.958l0.093-0.545l0.155-0.919l2.266,1.889l11.551,1.963
			c0.087-0.514,0.087-1.021,0.009-1.509l-19.49-3.305l-0.156,0.917L2.118,178.91z"/>
		<g opacity="0.4">
			<g>
				<defs>
					
						<rect id="SVGID_7_" x="4.093" y="166.608" transform="matrix(-0.9859 -0.1672 0.1672 -0.9859 -14.1522 333.8531)" width="5.775" height="1.83"/>
				</defs>
				<clipPath id="SVGID_8_">
					<use xlink:href="#SVGID_7_"  overflow="visible"/>
				</clipPath>
				
					<rect x="4.093" y="166.61" transform="matrix(0.9859 0.1672 -0.1672 0.9859 28.1143 1.1918)" clip-path="url(#SVGID_8_)" fill="#9B5E26" width="5.775" height="1.828"/>
			</g>
		</g>
		<polygon fill="#2D7994" points="9.981,167.104 1.392,165.646 14.882,86.285 23.472,87.742 		"/>
		<path fill="#1B6478" d="M9.997,134.758l0.253-1.489l0.47-2.758l1.639-9.643l-3.262-0.552l-2.53,14.88l2.268,0.384
			C9.382,135.676,9.905,135.306,9.997,134.758"/>
	</g>
	<rect x="18.838" y="38.128" fill="#F8B69C" width="12.53" height="9.917"/>
	<path fill="#FFFFFF" d="M36.697,38.128h-4.783h-0.614h-1.288c0,2.614-2.123,4.735-4.741,4.735c-2.619,0-4.741-2.121-4.741-4.735
		h-1.939h-5.399c-3.066,0-5.552,2.48-5.552,5.542c0,0,0.017,1.199,0,2.198c-0.017,0.999,0.522,3.402,0.522,3.402h6.505l0.001,14.561
		h21.346V49.258h5.582c0,0,0.33-1.737,0.475-2.819c0.145-1.083,0.177-2.769,0.177-2.769C42.249,40.609,39.764,38.128,36.697,38.128"
		/>
	<polygon fill="#2D7994" points="35.653,48.754 35.653,38.128 32.745,38.128 32.745,48.754 20.531,48.754 20.531,38.128 
		17.622,38.128 17.622,48.754 14.668,62.604 14.668,86.34 16.324,86.34 36.849,86.34 36.849,63.831 	"/>
	<path fill="#C0E0EF" d="M34.31,62.312c0.416-0.415,0.567-0.995,0.457-1.527l-1.125,1.121l-1.299-1.296l1.125-1.126
		c-0.537-0.11-1.118,0.04-1.535,0.457c-0.416,0.418-0.568,0.997-0.456,1.532l-1.642,1.64l-2.236,2.231l1.299,1.298l2.238-2.234
		l1.64-1.638C33.313,62.881,33.894,62.73,34.31,62.312"/>
	<path fill="#1B6478" d="M20.531,63.831V66.9v2.8v1.509c0,0.557,0.452,1.009,1.009,1.009h9.197c0.557,0,1.007-0.452,1.007-1.009
		v-1.509v-2.8v-3.069H20.531z"/>
	<path fill="#F8B69C" d="M33.04,12.061l4.813,10.776h-3.654v11.332H31.32c0,0-1.375,0.171-1.375,1.374v2.578v2.401h-9.413V38.98
		V11.85h12.336L33.04,12.061z"/>
	<path fill="#2F3E4A" d="M31.771,16.129c0,0.279-0.227,0.505-0.505,0.505s-0.505-0.226-0.505-0.505s0.227-0.505,0.505-0.505
		S31.771,15.85,31.771,16.129"/>
	<g opacity="0.2">
		<g>
			<defs>
				<rect id="SVGID_9_" x="26.802" y="14.082" width="7.397" height="20.087"/>
			</defs>
			<clipPath id="SVGID_10_">
				<use xlink:href="#SVGID_9_"  overflow="visible"/>
			</clipPath>
			<path clip-path="url(#SVGID_10_)" fill="#4D3C18" d="M26.807,17.73v9.271c0,0-0.014,1.577,0,2.103
				c0.053,2.056-0.213,5.065,3.183,5.065h4.209V22.837h-1.977h-1.976c-1.119,0-1.635-0.558-1.635-1.629v-7.126h-1.805V17.73z"/>
		</g>
	</g>
	<path fill="#F8B69C" d="M34.199,24.646h-1.912c-0.443,0-1.331,0.042-1.331,1.161v0.863h3.243V24.646z"/>
	<path fill="#CF867C" d="M32.478,25.691c-0.196,0-0.352-0.159-0.352-0.351h-0.516c0,0.477,0.387,0.863,0.865,0.863h1.724v-0.512
		H32.478z"/>
	<path fill="#67311E" d="M19.967,8.498v14.725h1.331c4.042,0,3.826-3.823,3.826-3.823v-1.705c-0.009,0-0.016,0.003-0.025,0.003
		c-0.939,0-1.699-0.759-1.699-1.696c0-0.936,0.76-1.697,1.699-1.697c0.924,0,1.673,0.742,1.693,1.661h0.002v0.036v1.696h1.812
		v-4.307h2.322c4.728,0,5.759-4.894,5.759-4.894H19.967z"/>
	<g>
		<path fill="#F8B69C" d="M23.015,94.029c-0.033,0.006-0.062,0.02-0.096,0.025l-0.498-2.897L15.638,51.73l-6.631,1.138l6.784,39.427
			l0.772,4.487l0.714,4.147c0,0.004,0,0.004,0,0.004c0.001,0.006,0.001,0.006,0.002,0.012l0.055,0.317l0.033-0.006
			c0.453,1.647,2.077,2.717,3.797,2.423c1.72-0.296,2.891-1.847,2.769-3.548l0.031-0.006l-0.054-0.313
			c-0.001-0.006,0.002-0.006,0.001-0.012c-0.001-0.004-0.003-0.008-0.005-0.014l-0.583-3.393c0.033-0.002,0.065-0.002,0.099-0.006
			c0.651-0.113,1.09-0.732,0.978-1.383S23.667,93.917,23.015,94.029"/>
		<g opacity="0.4">
			<g>
				<defs>
					
						<rect id="SVGID_11_" x="10.98" y="63.001" transform="matrix(-0.9856 0.1693 -0.1693 -0.9856 39.3255 124.7515)" width="6.728" height="2.102"/>
				</defs>
				<clipPath id="SVGID_12_">
					<use xlink:href="#SVGID_11_"  overflow="visible"/>
				</clipPath>
				
					<rect x="10.98" y="62.998" transform="matrix(0.9856 -0.1693 0.1693 0.9856 -10.6377 3.3535)" clip-path="url(#SVGID_12_)" fill="#B78D7E" width="6.728" height="2.105"/>
			</g>
		</g>
		<g>
			<g>
				<defs>
					<polygon id="SVGID_13_" points="10.634,63.62 18.166,62.408 15.694,48.046 8.164,49.258 					"/>
				</defs>
				<use xlink:href="#SVGID_13_"  overflow="visible" fill="#FFFFFF"/>
				<clipPath id="SVGID_14_">
					<use xlink:href="#SVGID_13_"  overflow="visible"/>
				</clipPath>
				<polygon clip-path="url(#SVGID_14_)" fill="#FFFFFF" points="19.159,62.158 10.634,63.62 8.164,49.258 16.687,47.795 				"/>
			</g>
		</g>
	</g>
</g>
</svg>
