<?xml version="1.0" encoding="utf-8"?>
<!-- Generator: Adobe Illustrator 16.0.0, SVG Export Plug-In . SVG Version: 6.00 Build 0)  -->
<!DOCTYPE svg PUBLIC "-//W3C//DTD SVG 1.1//EN" "http://www.w3.org/Graphics/SVG/1.1/DTD/svg11.dtd">
<svg version="1.1" id="Layer_1" xmlns="http://www.w3.org/2000/svg" xmlns:xlink="http://www.w3.org/1999/xlink" x="0px" y="0px"
	 width="191.064px" height="511.137px" viewBox="0 0 191.064 511.137" enable-background="new 0 0 191.064 511.137"
	 xml:space="preserve">
<g>
	<path fill="#F7B69C" d="M138.38,249.53c-0.1,0-0.188,0.022-0.287,0.03v-3.82v-0.878h-19.961l0,0v9.482v12.51
		c0,0.011-0.002,0.015-0.002,0.015c0,0.017,0.002,0.021,0.002,0.021v0.976h0.099c0.502,5.043,4.706,8.993,9.882,8.993
		s9.38-3.95,9.882-8.993h0.099v-0.968c0,0,0.002-0.012,0.002-0.021c0,0-0.002-0.012-0.002-0.021v-10.243
		c0.099,0.008,0.188,0.03,0.287,0.03c1.967,0,3.56-1.592,3.56-3.553C141.938,251.123,140.345,249.53,138.38,249.53z"/>
	<path fill="#FFFFFF" d="M112.423,147.501v82.313c0,2.907,2.357,5.267,5.266,5.267h0.441v0.451v9.331h19.961v-9.331v-5.718v-3.612
		v-78.701H112.423z"/>
	<rect x="118.13" y="235.079" opacity="0.3" fill="#84A8C1" enable-background="new    " width="19.959" height="9.782"/>
</g>
<g>
	<path fill="#F7B69C" d="M110.659,14.299l-0.51-0.638h-36.6v78.072l0,0v29.463h27.928V91.734l0,0v-0.028c0-6.122,0-6.122,0-7.653
		c0-3.569,4.078-4.081,4.078-4.081h8.545V46.308h10.841L110.659,14.299z"/>
	<circle fill="#303F4B" cx="105.398" cy="26.382" r="1.498"/>
	<path fill="#D0867D" d="M108.992,54.783c-0.573,0-1.039-0.467-1.039-1.039h-1.53c0,1.415,1.151,2.568,2.569,2.568h5.108v-1.529
		H108.992z"/>
	<path fill="none" d="M92.143,28.327c0,0.036,0.01,0.068,0.01,0.105v-0.105H92.143z"/>
	<path fill="#50595D" d="M71.894,6.139v43.738c0,0,0,0,3.953,0c11.987,0,11.348-11.349,11.348-11.349v-5.069
		c-0.027,0.003-0.05,0.009-0.077,0.009c-2.782,0-5.037-2.254-5.037-5.035c0-2.782,2.255-5.038,5.037-5.038
		c2.745,0,4.966,2.199,5.025,4.933h0.01v0.105v5.035h5.372V20.674c1.71,0,3.927,0,6.887,0c14.026,0,17.088-14.535,17.088-14.535
		H71.894z"/>
</g>
<g>
	<path fill="#1F2328" d="M154.934,506.711c-1.849-5.5-3.591-6.117-15.496-6.689l-8.675-2.77c-4.864-1.193-9.141-3.877-12.321-7.535
		c-0.718-0.826-1.371-1.703-1.97-2.621c-5.496,0.402-4.709,5.402-4.709,5.402H96.284v2.09v2.912v2.912v6.299v2.768v1.658h17.045
		v-1.658v-2.756l7.567,4.414h34.76C155.656,509.586,155.4,508.1,154.934,506.711z"/>
	<rect x="96.284" y="233.489" fill="#222F42" width="25.852" height="259.864"/>
</g>
<g>
	<path fill="#2E333C" d="M114.811,506.711c-1.849-5.5-3.589-6.117-15.495-6.689l-8.674-2.77c-4.865-1.193-9.141-3.877-12.324-7.535
		c-0.715-0.826-1.369-1.703-1.967-2.621c-5.495,0.402-4.708,5.402-4.708,5.402h-15.48v2.09v2.912v2.912v6.299v2.768v1.658h17.045
		v-1.658v-2.756l7.567,4.414h34.76C115.534,509.586,115.278,508.1,114.811,506.711z"/>
	<rect x="56.163" y="232.489" fill="#222F42" width="25.851" height="260.864"/>
</g>
<g>
	<path fill="#FFFFFF" d="M121.609,91.736h-16.017h-0.691l-3.441-7.176l-6.289,18.635L89.793,84.56h-5.885h-5.179h-5.18v7.176h-5.665
		H51.874c-9.092,0-16.466,7.37-16.466,16.462v12.066v47.819h20.755v54.724h1.632h57.394h6.865v-54.724h16.01V148.65v-17.131v-23.321
		C138.062,99.106,130.697,91.736,121.609,91.736z"/>
	<polygon opacity="0.3" fill="#84A8C1" enable-background="new    " points="92.952,95.512 89.793,84.56 85.001,93.965 	"/>
	<path opacity="0.3" fill="#84A8C1" enable-background="new    " d="M96.091,147.841c0,2.168,1.758,3.924,3.928,3.924h15.378
		c2.168,0,3.924-1.756,3.924-3.924V127.33H96.091V147.841z"/>
</g>
<path fill="#222F42" d="M56.163,238.669c0,13.214,10.71,23.927,23.926,23.927h18.104c13.214,0,23.927-10.713,23.927-23.927v-15.051
	H56.163V238.669z"/>
<rect x="56.163" y="218.807" fill="#9C3E22" width="65.803" height="5.812"/>
<g>
	<path fill="#F7B69C" d="M61.365,249.53c-0.1,0-0.191,0.022-0.288,0.03v-3.82v-0.878H41.118l0,0v9.482v12.51
		c0,0.011-0.002,0.015-0.002,0.015c0,0.017,0.002,0.021,0.002,0.021v0.976h0.098c0.501,5.043,4.707,8.993,9.882,8.993
		c5.175,0,9.38-3.95,9.882-8.993h0.098v-0.968c0,0,0.002-0.012,0.002-0.021c0,0-0.002-0.012-0.002-0.021v-10.243
		c0.097,0.008,0.188,0.03,0.288,0.03c1.965,0,3.557-1.592,3.557-3.553C64.922,251.123,63.332,249.53,61.365,249.53z"/>
	<path fill="#FFFFFF" d="M35.407,147.501v82.313c0,2.907,2.359,5.267,5.267,5.267h0.44v0.451v9.331h19.96v-9.331v-5.718v-3.612
		v-78.701H35.407z"/>
	<rect x="41.116" y="235.079" opacity="0.3" fill="#84A8C1" enable-background="new    " width="19.958" height="9.782"/>
</g>
</svg>
