<?xml version="1.0" encoding="utf-8"?>
<!-- Generator: Adobe Illustrator 16.0.0, SVG Export Plug-In . SVG Version: 6.00 Build 0)  -->
<!DOCTYPE svg PUBLIC "-//W3C//DTD SVG 1.1//EN" "http://www.w3.org/Graphics/SVG/1.1/DTD/svg11.dtd">
<svg version="1.1" id="Layer_1" xmlns="http://www.w3.org/2000/svg" xmlns:xlink="http://www.w3.org/1999/xlink" x="0px" y="0px"
	 width="102.24px" height="458.264px" viewBox="0 0 102.24 458.264" enable-background="new 0 0 102.24 458.264"
	 xml:space="preserve">
<g>
	<g>
		<path fill="#2E373E" d="M93.149,449.127c-0.136,0-0.271,0.003-0.404,0.012l-0.001-0.012h-9.031
			c-8.365-5.908-13.83-15.648-13.83-26.669h-0.062v-41.826H54.139v41.826v1.115v7.371v9.496v17.777h9.825v-10.979l10.104,10.979
			h9.991h9.496h8.686C102.24,453.196,98.17,449.127,93.149,449.127z"/>
		<rect x="54.139" y="297.426" fill="#F8B69C" width="15.683" height="83.206"/>
	</g>
	<rect x="54.139" y="326.774" opacity="0.4" fill="#B78D7E" width="15.683" height="5.884"/>
</g>
<g>
	<g>
		<path fill="#3C474D" d="M61.634,449.172c-0.138,0-0.271,0.005-0.405,0.012v-0.012h-9.033
			c-8.365-5.907-13.828-15.647-13.828-26.665h-0.01v-41.875H22.672v41.875h-0.049v8.483v9.496v17.777h9.825v-10.979l10.1,10.979
			h9.995h9.495h8.687C70.723,453.242,66.654,449.172,61.634,449.172z"/>
		<rect x="22.672" y="297.426" fill="#F8B69C" width="15.686" height="83.206"/>
	</g>
	<rect x="22.672" y="326.774" opacity="0.4" fill="#B78D7E" width="15.687" height="5.884"/>
</g>
<path fill="#F8B69C" d="M72.309,229.91c-0.006,0-0.01,0.005-0.015,0.005v-0.754V216.99v-88.546H56.613v88.546v12.171v10.514h0.033
	c-0.006,0.107-0.033,0.209-0.033,0.316c0,4.333,3.513,7.849,7.847,7.849c4.335,0,7.849-3.516,7.849-7.849
	c0-0.107-0.029-0.209-0.033-0.316h0.018v-1.476c0.005,0,0.009,0,0.015,0c2.287,0,4.145-1.856,4.145-4.146
	C76.454,231.764,74.596,229.91,72.309,229.91z"/>
<rect x="56.613" y="129.011" opacity="0.4" fill="#B78D7E" width="15.683" height="5.887"/>
<g>
	<path fill="#F8B69C" d="M59.71,7.681l10.963,32.648H62.95V57.61h-8.04c0,0-3.838,0.479-3.838,3.839c0,1.441,0,13.314,0,19.074v6.72
		H32.674v-4.32V7.081H59.23L59.71,7.681z"/>
	<path fill="#2F3E4A" d="M58.384,26.167c0,0.781-0.632,1.411-1.41,1.411c-0.775,0-1.411-0.63-1.411-1.411
		c0-0.778,0.635-1.408,1.411-1.408C57.752,24.759,58.384,25.39,58.384,26.167z"/>
	<path fill="#F28A82" d="M59.892,45.817c-0.206,0-0.37-0.167-0.37-0.37H58.08c0,0.997,0.813,1.81,1.812,1.81h3.085v-1.44H59.892z"/>
	<path fill="#C2692A" d="M19.753,0v74.042c0,0,4.64,0,9.217,0c13.879,0,13.14-13.141,13.14-13.141V32.799
		c-2.612-0.004-4.731-2.125-4.731-4.741c0-2.616,2.122-4.739,4.738-4.739c2.075,0,3.821,1.343,4.464,3.2l0.061-0.196
		c3.03-0.227,5.422-2.662,5.565-5.714h0.029v-3.777c1.353,0,3.042,0,5.167,0C73.64,16.832,77.184,0,77.184,0H19.753z"/>
</g>
<path fill="#4C789C" d="M74.601,112.847l0.007-0.008l-1.236-1.916v-4.256v-7v-8.983c0-3.592-2.91-6.505-6.502-6.505h-10.67h-5.115
	H32.466H21.321h-4.639c-3.593,0-6.506,2.913-6.506,6.505v9.792h-0.03v28.536h15.757v43.697h7.272h23.023h11.976v-42.202
	c5.195-0.694,9.202-5.132,9.202-10.516C77.376,117.236,76.319,114.734,74.601,112.847z"/>
<polygon fill="#5B4C71" points="68.115,170.064 51.804,170.064 46.911,170.064 42.6,170.064 37.709,170.064 21.397,170.064 
	0,326.774 37.709,326.774 51.804,326.774 89.513,326.774 "/>
<rect x="28.719" y="149.674" fill="#5B4C71" width="39.456" height="20.393"/>
<rect x="25.828" y="149.674" fill="#2F3E4A" width="42.347" height="20.604"/>
<polygon fill="#FFFFFF" points="32.466,84.179 46.322,99.64 46.322,149.674 51.122,149.674 51.122,107.399 51.122,96.37 
	51.122,84.179 "/>
<path fill="#F8B69C" d="M25.842,229.91c-0.005,0-0.009,0.005-0.016,0.005v-0.754V216.99v-87.979H10.146v87.979v12.171v10.514h0.032
	c-0.005,0.107-0.032,0.209-0.032,0.316c0,4.333,3.514,7.849,7.847,7.849c4.335,0,7.849-3.516,7.849-7.849
	c0-0.107-0.028-0.209-0.033-0.316h0.017v-1.476c0.006,0,0.01,0,0.016,0c2.287,0,4.145-1.856,4.145-4.146
	C29.986,231.764,28.129,229.91,25.842,229.91z"/>
<rect x="10.146" y="129.011" opacity="0.4" fill="#B78D7E" width="15.683" height="5.887"/>
<g>
	
		<ellipse fill="#00AF7E" stroke="#BAD7EE" stroke-width="0.9783" stroke-miterlimit="10" cx="43.761" cy="88.625" rx="2.853" ry="3.587"/>
	<circle fill="#FFFFFF" cx="44.44" cy="87.541" r="0.694"/>
</g>
</svg>
