<?xml version="1.0" encoding="utf-8"?>
<!-- Generator: Adobe Illustrator 16.0.0, SVG Export Plug-In . SVG Version: 6.00 Build 0)  -->
<!DOCTYPE svg PUBLIC "-//W3C//DTD SVG 1.1//EN" "http://www.w3.org/Graphics/SVG/1.1/DTD/svg11.dtd">
<svg version="1.1" id="Layer_1" xmlns="http://www.w3.org/2000/svg" xmlns:xlink="http://www.w3.org/1999/xlink" x="0px" y="0px"
	 width="117.883px" height="504.975px" viewBox="0 0 117.883 504.975" enable-background="new 0 0 117.883 504.975"
	 xml:space="preserve">
<g>
	<path fill="#F8B69C" d="M95.826,249.429h-0.004v6.778v0.004H76.231v9.305v12.281c0,0.008-0.002,0.012-0.002,0.012
		c0,0.018,0.002,0.021,0.002,0.021v0.955h0.098c0.49,4.951,4.62,8.83,9.698,8.83c5.081,0,9.209-3.879,9.703-8.83h0.096v-0.947
		c0,0,0-0.012,0-0.021c0,0,0-0.012,0-0.02v-10.053c0.096,0.008,0.184,0.027,0.283,0.027c1.929,0,3.491-1.562,3.491-3.488
		c0-1.93-1.562-3.492-3.491-3.492c-0.1,0-0.188,0.02-0.283,0.029v-8.576V249.429z"/>
	<rect x="76.233" y="256.207" fill="#FFFFFF" width="19.591" height="0.004"/>
	<polygon fill="#FFFFFF" points="76.229,249.429 76.229,249.429 76.229,256.211 76.233,256.211 76.233,256.207 76.229,256.207 	"/>
	<polygon fill="#FFFFFF" points="76.233,249.429 76.229,249.429 76.229,256.207 76.233,256.207 76.233,252.244 	"/>
	<g opacity="0.3">
		<g>
			<defs>
				<rect id="SVGID_1_" x="76.229" y="249.429" width="0.004" height="6.778"/>
			</defs>
			<clipPath id="SVGID_2_">
				<use xlink:href="#SVGID_1_"  overflow="visible"/>
			</clipPath>
			<polygon clip-path="url(#SVGID_2_)" fill="#84A8C1" points="76.233,249.429 76.229,249.429 76.229,256.207 76.233,256.207 
				76.233,252.244 			"/>
		</g>
	</g>
	<polygon fill="#FFFFFF" points="79.147,249.429 76.231,249.429 76.231,252.244 76.231,256.207 95.822,256.207 95.822,249.429 	"/>
	<rect x="75.053" y="159.621" fill="#212F42" width="25.723" height="92.189"/>
	<path fill="#1F2328" d="M117.173,500.631c-1.815-5.398-3.526-6.004-15.213-6.566l-8.514-2.719
		c-4.775-1.172-8.974-3.807-12.099-7.398c-0.702-0.809-1.344-1.67-1.934-2.57c-5.394,0.395-4.622,5.301-4.622,5.301H59.598v2.053
		v2.859v2.857v6.184v2.719v1.625h16.731v-1.625v-2.707l7.431,4.332h34.123C117.883,503.453,117.631,501.994,117.173,500.631"/>
	<rect x="59.596" y="224.56" fill="#212F42" width="25.377" height="262.96"/>
	<path fill="#F8B69C" d="M73.873,17.239l-0.498-0.628H37.443v76.644v28.923H64.86V93.255v-0.03v-7.51
		c0-3.504,4.006-4.007,4.006-4.007h8.385V48.661h10.643L73.873,17.239z"/>
	<path fill="#2F3E4A" d="M70.182,29.101c0,0.812-0.657,1.471-1.473,1.471c-0.812,0-1.469-0.659-1.469-1.471s0.657-1.472,1.469-1.472
		C69.524,27.629,70.182,28.289,70.182,29.101"/>
	<path fill="#CF867C" d="M72.238,56.98c-0.562,0-1.021-0.458-1.021-1.02h-1.503c0,1.389,1.131,2.521,2.523,2.521h5.016V56.98H72.238
		z"/>
	<path fill="#2D323B" d="M77.951,500.631c-1.815-5.398-3.526-6.004-15.212-6.566l-8.515-2.719
		c-4.775-1.172-8.974-3.807-12.099-7.398c-0.702-0.809-1.344-1.67-1.934-2.57c-5.396,0.395-4.622,5.301-4.622,5.301H20.376v2.053
		v2.859v2.857v6.184v2.719v1.625h16.731v-1.625v-2.707l7.43,4.332h34.124C78.661,503.453,78.409,501.994,77.951,500.631"/>
	<rect x="20.372" y="224.56" fill="#212F42" width="25.379" height="262.96"/>
	<rect x="20.376" y="215.056" fill="#9B3C21" width="64.595" height="5.704"/>
	<polygon fill="#212F42" points="78.625,220.76 78.625,215.056 75.727,215.056 75.727,220.76 37.075,220.76 37.075,215.056 
		34.177,215.056 34.177,220.76 20.376,220.76 20.376,252.328 84.971,252.328 84.971,220.76 	"/>
	<polygon fill="#FFFFFF" points="64.86,93.257 64.844,86.213 58.669,86.213 53.392,86.213 47.615,86.213 42.53,86.213 
		37.443,86.213 37.443,93.257 37.318,93.257 37.318,215.056 64.886,215.056 64.886,93.257 	"/>
	<g opacity="0.3">
		<g>
			<defs>
				<rect id="SVGID_3_" x="59.574" y="128.199" width="22.802" height="23.988"/>
			</defs>
			<clipPath id="SVGID_4_">
				<use xlink:href="#SVGID_3_"  overflow="visible"/>
			</clipPath>
			<path clip-path="url(#SVGID_4_)" fill="#84A8C1" d="M59.574,148.334c0,2.129,1.726,3.854,3.854,3.854h15.097
				c2.129,0,3.851-1.725,3.851-3.854v-20.133H59.574V148.334z"/>
		</g>
	</g>
	<polygon fill="#BF302E" points="58.063,93.847 52.115,86.213 46.164,93.847 49.429,97.111 46.641,195.271 46.639,195.271 
		52.104,200.736 57.564,195.271 57.587,195.271 54.801,97.111 	"/>
	<path fill="#313335" d="M76.759,0c-4.287,0-7.758,3.475-7.758,7.758c0,0.504,0.059,0.994,0.146,1.471H35.642v42.937h3.885
		c11.766,0,11.138-11.142,11.138-11.142v-4.875c-0.111,0.008-0.219,0.035-0.33,0.035c-2.73,0-4.943-2.212-4.943-4.942
		c0-2.734,2.213-4.947,4.943-4.947c1.398,0,2.658,0.588,3.56,1.524v3.191v3.647v1.526h5.274V23.5h8.398
		c10.894,0,15.037-8.914,16.297-12.646c0.416-0.948,0.653-1.995,0.653-3.097C84.517,3.475,81.044,0,76.759,0"/>
	<polygon fill="#354F69" points="70.445,93.219 72.422,100.199 68.994,104.558 73.467,109.026 64.884,171.999 64.884,109.776 
		64.884,103.797 64.884,93.219 	"/>
	<path fill="#212F42" d="M31.885,93.219H16.167c-8.926,0-16.166,7.235-16.166,16.163v0.035v11.808v0.036v46.907h20.373v0.036v46.852
		v28.408h1.603h15.342v-28.408V93.257v-0.038H31.885z"/>
	<path fill="#212F42" d="M84.624,93.257H68.902h-4.019v121.799v28.408h15.344h4.743v-28.408v-46.888h15.807v-19.039v-16.818v-22.894
		C100.777,100.492,93.546,93.257,84.624,93.257"/>
	<polygon fill="#354F69" points="31.885,93.219 29.905,100.199 33.335,104.558 28.863,109.026 37.446,171.999 37.446,109.776 
		37.446,103.797 37.446,93.219 	"/>
	<polygon fill="#354F69" points="70.445,93.219 72.422,100.199 68.994,104.558 73.467,109.026 64.884,171.999 64.884,109.776 
		64.884,103.797 64.884,93.219 	"/>
	<path fill="#F8B69C" d="M25.383,249.429L25.383,249.429v6.782H5.79v9.305v12.281c0,0.008-0.002,0.012-0.002,0.012
		c0,0.018,0.002,0.021,0.002,0.021v0.955h0.096c0.492,4.951,4.62,8.83,9.703,8.83c5.078,0,9.208-3.879,9.698-8.83h0.096v-0.947
		c0,0,0.004-0.012,0.004-0.021c0,0-0.004-0.012-0.004-0.02v-10.053c0.096,0.008,0.188,0.027,0.285,0.027
		c1.928,0,3.492-1.562,3.492-3.488c0-1.93-1.564-3.492-3.492-3.492c-0.098,0-0.189,0.02-0.285,0.029v-8.576V249.429z"/>
	<path fill="#FFFFFF" d="M25.383,256.211H5.79H25.383z"/>
	<polygon fill="#FFFFFF" points="5.79,249.429 5.786,249.429 5.786,256.211 5.79,256.211 5.79,256.211 	"/>
	<polygon fill="#FFFFFF" points="5.79,249.429 5.79,249.429 5.79,256.211 5.79,256.211 5.79,252.244 	"/>
	<g opacity="0.3">
		<g>
			<defs>
				<rect id="SVGID_5_" x="5.788" y="249.429" width="0.002" height="6.782"/>
			</defs>
			<clipPath id="SVGID_6_">
				<use xlink:href="#SVGID_5_"  overflow="visible"/>
			</clipPath>
			<polygon clip-path="url(#SVGID_6_)" fill="#84A8C1" points="5.79,249.429 5.79,249.429 5.79,256.211 5.79,256.211 5.79,252.244 
							"/>
		</g>
	</g>
	<polygon fill="#FFFFFF" points="8.708,249.429 5.79,249.429 5.79,252.244 5.79,256.211 25.383,256.211 25.383,249.429 	"/>
	<rect y="159.625" fill="#212F42" width="25.722" height="92.186"/>
</g>
</svg>
