<?xml version="1.0" encoding="utf-8"?>
<!-- Generator: Adobe Illustrator 16.0.0, SVG Export Plug-In . SVG Version: 6.00 Build 0)  -->
<!DOCTYPE svg PUBLIC "-//W3C//DTD SVG 1.1//EN" "http://www.w3.org/Graphics/SVG/1.1/DTD/svg11.dtd">
<svg version="1.1" id="Layer_1" xmlns="http://www.w3.org/2000/svg" xmlns:xlink="http://www.w3.org/1999/xlink" x="0px" y="0px"
	 width="122px" height="480.093px" viewBox="0 0 122 480.093" enable-background="new 0 0 122 480.093" xml:space="preserve">
<g>
	<path fill="#F8B69C" d="M97.479,245.645c-0.095,0-0.184,0.021-0.275,0.03v-8.268V124.966H78.317v112.441v12.79v11.837
		c0,0.009-0.002,0.011-0.002,0.011c0,0.015,0.002,0.021,0.002,0.029v0.908h0.092c0.473,4.772,4.455,8.516,9.354,8.516
		c4.897,0,8.876-3.743,9.351-8.516h0.09v-0.89c0-0.017,0.004-0.023,0.004-0.04c0-0.01-0.004-0.022-0.004-0.037v-9.669
		c0.092,0.006,0.181,0.024,0.275,0.024c1.859,0,3.363-1.507,3.363-3.367C100.842,247.151,99.338,245.645,97.479,245.645"/>
	<g opacity="0.4">
		<g>
			<defs>
				<rect id="SVGID_1_" x="78.315" y="155.521" width="18.888" height="5.916"/>
			</defs>
			<clipPath id="SVGID_2_">
				<use xlink:href="#SVGID_1_"  overflow="visible"/>
			</clipPath>
			<rect x="78.315" y="155.521" clip-path="url(#SVGID_2_)" fill="#B78D7E" width="18.888" height="5.916"/>
		</g>
	</g>
	<path fill="#9B5E26" d="M108.864,466.957H98.447c-4.6-1.128-8.649-3.664-11.657-7.127c-2.274-2.61-3.955-5.755-4.839-9.212v-20.284
		l-0.52-0.114H65.827v25.645v8.578v2.754v2.757v5.959h55.485C119.562,470.708,114.655,466.957,108.864,466.957"/>
	<path fill="#34383A" d="M65.827,480.093h16.124v-1.563v-2.608l7.162,4.172H122c0-1.463-0.244-2.868-0.688-4.182H65.827v2.618
		V480.093z"/>
	<g opacity="0.4">
		<g>
			<defs>
				<rect id="SVGID_3_" x="65.827" y="443.684" width="16.208" height="5.144"/>
			</defs>
			<clipPath id="SVGID_4_">
				<use xlink:href="#SVGID_3_"  overflow="visible"/>
			</clipPath>
			<rect x="65.827" y="443.686" clip-path="url(#SVGID_4_)" fill="#9B5E26" width="16.208" height="5.142"/>
		</g>
	</g>
	<rect x="57.53" y="209.835" fill="#2D7994" width="24.458" height="233.849"/>
	<path fill="#1B6478" d="M71.289,314.447v27.488v7.861v4.246c0,1.563,1.271,2.831,2.83,2.831h7.87v-42.427H71.289z"/>
	<path fill="#C0772A" d="M71.018,466.957h-10.42c-4.601-1.128-8.648-3.664-11.657-7.127c-0.003,0.343-0.009,0.678-0.009,0.989
		c0,8.605-9.131,9.134-9.131,9.134H27.978v5.959h55.487C81.715,470.708,76.804,466.957,71.018,466.957"/>
	<path fill="#C0772A" d="M48.933,460.819c0-0.312,0.004-0.646,0.007-0.989c-2.272-2.61-3.954-5.755-4.836-9.212v-20.284
		l-0.521-0.114H27.978v25.645v8.578v2.754v2.757h11.823C39.801,469.953,48.933,469.424,48.933,460.819"/>
	<path fill="#34383A" d="M27.978,480.093h16.127v-1.563v-2.608l7.158,4.172H84.15c0-1.463-0.242-2.868-0.686-4.182H27.978v2.618
		V480.093z"/>
	<g opacity="0.4">
		<g>
			<defs>
				<rect id="SVGID_5_" x="27.978" y="443.684" width="16.21" height="5.144"/>
			</defs>
			<clipPath id="SVGID_6_">
				<use xlink:href="#SVGID_5_"  overflow="visible"/>
			</clipPath>
			<rect x="27.979" y="443.686" clip-path="url(#SVGID_6_)" fill="#9B5E26" width="16.209" height="5.142"/>
		</g>
	</g>
	<rect x="19.73" y="209.835" fill="#2D7994" width="24.458" height="233.849"/>
	<path fill="#1B6478" d="M29.017,354.042v-4.246v-7.861v-27.488H19.73v42.427h6.456C27.747,356.874,29.017,355.606,29.017,354.042"
		/>
	<rect x="31.431" y="83.284" fill="#F8B69C" width="35.174" height="27.875"/>
	<path fill="#F8B69C" d="M19.779,245.645c-0.095,0-0.183,0.021-0.275,0.03v-8.268V124.966H0.616v112.441v12.79v11.837
		c0,0.009-0.001,0.011-0.001,0.011c0,0.015,0.001,0.021,0.001,0.029v0.908h0.093c0.473,4.772,4.455,8.516,9.354,8.516
		c4.899,0,8.877-3.743,9.352-8.516h0.09v-0.89c0-0.017,0.003-0.023,0.003-0.04c0-0.01-0.003-0.022-0.003-0.037v-9.669
		c0.093,0.006,0.181,0.024,0.275,0.024c1.859,0,3.364-1.507,3.364-3.367C23.143,247.151,21.638,245.645,19.779,245.645"/>
	<g opacity="0.4">
		<g>
			<defs>
				<rect id="SVGID_7_" x="0.616" y="155.521" width="18.888" height="5.916"/>
			</defs>
			<clipPath id="SVGID_8_">
				<use xlink:href="#SVGID_7_"  overflow="visible"/>
			</clipPath>
			<rect x="0.616" y="155.521" clip-path="url(#SVGID_8_)" fill="#B78D7E" width="18.888" height="5.916"/>
		</g>
	</g>
	<path fill="#FFFFFF" d="M81.563,83.287h-13.43h-1.723h-3.615c0,7.348-5.958,13.307-13.307,13.307
		c-7.348,0-13.304-5.959-13.304-13.307h-5.447H15.584C6.978,83.287,0,90.257,0,98.864v11.415v45.243h6.031H19.73h62.258h15.152
		v-18.384v-16.214v-22.06C97.141,90.257,90.167,83.287,81.563,83.287"/>
	<polygon fill="#2D7994" points="78.632,113.149 78.632,83.284 70.468,83.284 70.468,113.149 36.184,113.149 36.184,83.284 
		28.016,83.284 28.016,113.149 24.376,155.521 19.73,155.521 19.73,245.382 24.376,245.382 81.988,245.382 81.988,155.521 	"/>
	<path fill="#C0E0EF" d="M74.856,151.264c1.172-1.167,1.597-2.797,1.284-4.303l-3.157,3.16l-3.65-3.65l3.159-3.159
		c-1.507-0.314-3.137,0.112-4.307,1.28c-1.169,1.171-1.596,2.8-1.281,4.306l-4.608,4.609l-6.276,6.275l3.65,3.648l6.274-6.276
		l4.609-4.609C72.06,152.861,73.689,152.436,74.856,151.264"/>
	<path fill="#1B6478" d="M36.184,155.521v8.64v7.862v4.246c0,1.562,1.268,2.83,2.83,2.83h25.815c1.565,0,2.829-1.267,2.829-2.83
		v-4.246v-7.862v-8.64H36.184z"/>
	<path fill="#F8B69C" d="M71.292,10.022l13.515,30.284H74.549v31.851h-8.083c0,0-3.859,0.483-3.859,3.861v7.238v6.76H36.184v-4.344
		V9.421H70.81L71.292,10.022z"/>
	<path fill="#2F3E4A" d="M67.733,21.454c0,0.782-0.635,1.419-1.418,1.419c-0.782,0-1.418-0.637-1.418-1.419s0.636-1.418,1.418-1.418
		C67.099,20.036,67.733,20.672,67.733,21.454"/>
	<g opacity="0.2">
		<g>
			<defs>
				<rect id="SVGID_9_" x="53.784" y="15.696" width="20.765" height="56.461"/>
			</defs>
			<clipPath id="SVGID_10_">
				<use xlink:href="#SVGID_9_"  overflow="visible"/>
			</clipPath>
			<path clip-path="url(#SVGID_10_)" fill="#4D3C18" d="M53.798,25.949v26.061c0,0-0.038,4.433,0,5.913
				c0.146,5.778-0.602,14.237,8.933,14.237h11.818V40.306H69h-5.549c-3.138,0-4.585-1.569-4.585-4.583V15.696h-5.068V25.949z"/>
		</g>
	</g>
	<path fill="#F8B69C" d="M74.549,45.394h-5.367c-1.241,0-3.74,0.117-3.74,3.257v2.426h9.106V45.394z"/>
	<path fill="#CF867C" d="M69.715,48.325c-0.545,0-0.983-0.443-0.983-0.984h-1.448c0,1.341,1.088,2.428,2.429,2.43h4.836v-1.446
		H69.715z"/>
	<path fill="#67311E" d="M34.597,0v41.385h3.74c11.341,0,10.737-10.737,10.737-10.737v-4.795c-0.026,0-0.048,0.007-0.074,0.007
		c-2.632,0-4.765-2.133-4.765-4.766c0-2.632,2.133-4.767,4.765-4.767c2.597,0,4.698,2.082,4.755,4.665h0.008v0.102v4.766h5.084
		V13.754h6.516C78.634,13.754,81.53,0,81.53,0H34.597z"/>
</g>
</svg>
