<?xml version="1.0" encoding="UTF-8" standalone="no"?>
<!-- Created with Inkscape (http://www.inkscape.org/) -->

<svg
   xmlns:dc="http://purl.org/dc/elements/1.1/"
   xmlns:cc="http://creativecommons.org/ns#"
   xmlns:rdf="http://www.w3.org/1999/02/22-rdf-syntax-ns#"
   xmlns:svg="http://www.w3.org/2000/svg"
   xmlns="http://www.w3.org/2000/svg"
   xmlns:sodipodi="http://sodipodi.sourceforge.net/DTD/sodipodi-0.dtd"
   xmlns:inkscape="http://www.inkscape.org/namespaces/inkscape"
   width="181"
   height="266"
   id="svg2"
   version="1.1"
   inkscape:version="0.48.4 r9939"
   sodipodi:docname="10.svg">
  <defs
     id="defs4">
    <inkscape:perspective
       sodipodi:type="inkscape:persp3d"
       inkscape:vp_x="0 : 526.18109 : 1"
       inkscape:vp_y="0 : 1000 : 0"
       inkscape:vp_z="744.09448 : 526.18109 : 1"
       inkscape:persp3d-origin="372.04724 : 350.78739 : 1"
       id="perspective10" />
    <clipPath
       id="clipPath3565"
       clipPathUnits="userSpaceOnUse">
      <path
         id="path3567"
         d="M 0,576 788,576 788,0 0,0 0,576 z"
         inkscape:connector-curvature="0" />
    </clipPath>
    <clipPath
       id="clipPath3485"
       clipPathUnits="userSpaceOnUse">
      <path
         id="path3487"
         d="M 0,576 788,576 788,0 0,0 0,576 z"
         inkscape:connector-curvature="0" />
    </clipPath>
    <clipPath
       id="clipPath3409"
       clipPathUnits="userSpaceOnUse">
      <path
         id="path3411"
         d="M 0,576 788,576 788,0 0,0 0,576 z"
         inkscape:connector-curvature="0" />
    </clipPath>
    <clipPath
       id="clipPath3329"
       clipPathUnits="userSpaceOnUse">
      <path
         id="path3331"
         d="M 0,576 788,576 788,0 0,0 0,576 z"
         inkscape:connector-curvature="0" />
    </clipPath>
    <clipPath
       id="clipPath3249"
       clipPathUnits="userSpaceOnUse">
      <path
         id="path3251"
         d="M 0,576 788,576 788,0 0,0 0,576 z"
         inkscape:connector-curvature="0" />
    </clipPath>
    <clipPath
       id="clipPath3169"
       clipPathUnits="userSpaceOnUse">
      <path
         id="path3171"
         d="M 0,576 788,576 788,0 0,0 0,576 z"
         inkscape:connector-curvature="0" />
    </clipPath>
    <clipPath
       id="clipPath3089"
       clipPathUnits="userSpaceOnUse">
      <path
         id="path3091"
         d="M 0,576 788,576 788,0 0,0 0,576 z"
         inkscape:connector-curvature="0" />
    </clipPath>
    <clipPath
       id="clipPath3013"
       clipPathUnits="userSpaceOnUse">
      <path
         id="path3015"
         d="M 0,576 788,576 788,0 0,0 0,576 z"
         inkscape:connector-curvature="0" />
    </clipPath>
    <clipPath
       id="clipPath2933"
       clipPathUnits="userSpaceOnUse">
      <path
         id="path2935"
         d="M 0,576 788,576 788,0 0,0 0,576 z"
         inkscape:connector-curvature="0" />
    </clipPath>
    <clipPath
       id="clipPath2853"
       clipPathUnits="userSpaceOnUse">
      <path
         id="path2855"
         d="M 0,576 788,576 788,0 0,0 0,576 z"
         inkscape:connector-curvature="0" />
    </clipPath>
    <inkscape:perspective
       id="perspective2845"
       inkscape:persp3d-origin="0.5 : 0.33333333 : 1"
       inkscape:vp_z="1 : 0.5 : 1"
       inkscape:vp_y="0 : 1000 : 0"
       inkscape:vp_x="0 : 0.5 : 1"
       sodipodi:type="inkscape:persp3d" />
  </defs>
  <sodipodi:namedview
     id="base"
     pagecolor="#ffffff"
     bordercolor="#666666"
     borderopacity="1.0"
     inkscape:pageopacity="0.0"
     inkscape:pageshadow="2"
     inkscape:zoom="1.4"
     inkscape:cx="346.99032"
     inkscape:cy="220.32548"
     inkscape:document-units="px"
     inkscape:current-layer="layer1"
     showgrid="false"
     inkscape:window-width="1871"
     inkscape:window-height="1056"
     inkscape:window-x="49"
     inkscape:window-y="24"
     inkscape:window-maximized="1"
     fit-margin-top="0"
     fit-margin-left="0"
     fit-margin-right="0"
     fit-margin-bottom="0"
     showguides="true"
     inkscape:guide-bbox="true">
    <sodipodi:guide
       orientation="1,0"
       position="91.428572,329.28571"
       id="guide3639" />
  </sodipodi:namedview>
  <metadata
     id="metadata7">
    <rdf:RDF>
      <cc:Work
         rdf:about="">
        <dc:format>image/svg+xml</dc:format>
        <dc:type
           rdf:resource="http://purl.org/dc/dcmitype/StillImage" />
        <dc:title></dc:title>
      </cc:Work>
    </rdf:RDF>
  </metadata>
  <g
     inkscape:label="Layer 1"
     inkscape:groupmode="layer"
     id="layer1"
     transform="translate(-856.66119,-693.03663)">
    <g
       id="g3245"
       transform="matrix(1.0278596,0,0,-1.0278596,559.49583,1100.5747)">
      <g
         id="g3247"
         clip-path="url(#clipPath3249)">
        <g
           id="g3253"
           transform="translate(370.46,324.9951)">
          <path
             d="m 0,0 c 0,0 -31.604,-57.639 -49.805,-60.673 l 5.055,-8.596 c 0,0 38.176,16.656 50.059,64.212 L 0,0 z"
             style="fill:#3a4869;fill-opacity:1;fill-rule:nonzero;stroke:none"
             id="path3255"
             inkscape:connector-curvature="0" />
        </g>
        <g
           id="g3257"
           transform="translate(383.8174,236.2881)">
          <path
             d="m 0,0 c 0,0 6.654,-49.236 71.372,-50.246 l 4.046,8.091 c 0,0 -29.913,1.516 -37.709,10.869 0,0 -29.046,20.983 -28.785,38.679 L 0,0 z"
             style="fill:#3a4869;fill-opacity:1;fill-rule:nonzero;stroke:none"
             id="path3259"
             inkscape:connector-curvature="0" />
        </g>
        <g
           id="g3261"
           transform="translate(400.04,336.8701)">
          <path
             d="m 0,0 -33.557,-4.643 c 0,0 -3.128,-73.31 6,-95.016 0,0 25.353,8.61 33.796,10.289 0,0 -19.327,36.406 -6.239,89.37"
             style="fill:#7d9ed2;fill-opacity:1;fill-rule:nonzero;stroke:none"
             id="path3263"
             inkscape:connector-curvature="0" />
        </g>
        <g
           id="g3265"
           transform="translate(415.457,360.165)">
          <path
             d="m 0,0 c 0,-19.406 -17.091,-35.14 -38.172,-35.14 -21.083,0 -38.174,15.734 -38.174,35.14 0,19.408 17.091,35.141 38.174,35.141 C -17.091,35.141 0,19.408 0,0"
             style="fill:#ffdcad;fill-opacity:1;fill-rule:nonzero;stroke:none"
             id="path3267"
             inkscape:connector-curvature="0" />
        </g>
        <g
           id="g3269"
           transform="translate(423.042,356.626)">
          <path
             d="m 0,0 c 0,-3.211 -2.717,-5.814 -6.067,-5.814 -3.351,0 -6.068,2.603 -6.068,5.814 0,3.211 2.717,5.814 6.068,5.814 C -2.717,5.814 0,3.211 0,0"
             style="fill:#ffdcad;fill-opacity:1;fill-rule:nonzero;stroke:none"
             id="path3271"
             inkscape:connector-curvature="0" />
        </g>
        <g
           id="g3273"
           transform="translate(351.751,363.0205)">
          <path
             d="m 0,0 c 0,-3.531 -2.527,-6.395 -5.646,-6.395 -3.12,0 -5.647,2.864 -5.647,6.395 0,3.532 2.527,6.396 5.647,6.396 C -2.527,6.396 0,3.532 0,0"
             style="fill:#ffffff;fill-opacity:1;fill-rule:nonzero;stroke:none"
             id="path3275"
             inkscape:connector-curvature="0" />
        </g>
        <g
           id="g3277"
           transform="translate(371.9766,359.9131)">
          <path
             d="m 0,0 c 0,-3.91 -2.942,-7.079 -6.574,-7.079 -3.629,0 -6.572,3.169 -6.572,7.079 0,3.908 2.943,7.078 6.572,7.078 C -2.942,7.078 0,3.908 0,0"
             style="fill:#ffffff;fill-opacity:1;fill-rule:nonzero;stroke:none"
             id="path3279"
             inkscape:connector-curvature="0" />
        </g>
        <g
           id="g3281"
           transform="translate(348.2119,363.4512)">
          <path
             d="m 0,0 c 0,-1.954 -1.131,-3.538 -2.528,-3.538 -1.396,0 -2.527,1.584 -2.527,3.538 0,1.955 1.131,3.54 2.527,3.54 C -1.131,3.54 0,1.955 0,0"
             style="fill:#594334;fill-opacity:1;fill-rule:nonzero;stroke:none"
             id="path3283"
             inkscape:connector-curvature="0" />
        </g>
        <g
           id="g3285"
           transform="translate(367.9307,359.5332)">
          <path
             d="m 0,0 c 0,-1.606 -1.132,-2.907 -2.528,-2.907 -1.396,0 -2.528,1.301 -2.528,2.907 0,1.605 1.132,2.907 2.528,2.907 C -1.132,2.907 0,1.605 0,0"
             style="fill:#594334;fill-opacity:1;fill-rule:nonzero;stroke:none"
             id="path3287"
             inkscape:connector-curvature="0" />
        </g>
        <g
           id="g3289"
           transform="translate(341.9746,373.5283)">
          <path
             d="m 0,0 c 0,0 2.699,1.551 6.237,3.574 3.539,2.023 -1.262,-0.07 0,-3.574 0,0 -0.505,-0.727 3.539,2.183 l 1.771,-6.295 c 0,0 0.505,4.653 5.308,6.675 0,0 -1.77,-6.019 -1.011,-6.675 0.759,-0.657 1.771,4.401 5.056,6.423 l 3.287,2.021 c 0,0 -2.528,-4.043 0,-6.572 2.528,-2.529 3.792,0.883 4.549,2.338 0.759,1.455 2.276,-3.35 2.53,-6.635 0.253,-3.287 4.045,2.425 4.045,2.425 0,0 2.023,1.35 2.275,-3.445 l 6.319,0 -1.768,-6.438 5.054,5.434 1.264,-8.341 5.31,6.825 0,-6.825 6.573,5.814 2.527,-8.09 6.068,6.825 2.275,-2.78 2.274,4.045 c 0,0 -1.009,26.799 -33.875,32.865 C 39.607,21.777 11.711,25.75 0,0"
             style="fill:#594334;fill-opacity:1;fill-rule:nonzero;stroke:none"
             id="path3291"
             inkscape:connector-curvature="0" />
        </g>
        <g
           id="g3293"
           transform="translate(346.1045,339.9053)">
          <path
             d="m 0,0 c 0,0 18.794,-5.345 25.872,0 0,0 -9.387,-11.736 -18.093,-7.493 0,0 -6.043,5.028 -7.779,7.493"
             style="fill:#cd9db0;fill-opacity:1;fill-rule:nonzero;stroke:none"
             id="path3295"
             inkscape:connector-curvature="0" />
        </g>
        <g
           id="g3297"
           transform="translate(347.0322,350.5576)">
          <path
             d="m 0,0 c 0,-2.094 -2.266,-3.791 -5.058,-3.791 -2.792,0 -5.056,1.697 -5.056,3.791 0,2.096 2.264,3.793 5.056,3.793 C -2.266,3.793 0,2.096 0,0"
             style="fill:#ffdcad;fill-opacity:1;fill-rule:nonzero;stroke:none"
             id="path3299"
             inkscape:connector-curvature="0" />
        </g>
        <g
           id="g3301"
           transform="translate(392.4502,327.5537)">
          <path
             d="m 0,0 c 0,0 35.393,-60.703 69.774,-59.186 l -5.055,-12.641 c 0,0 -63.202,37.921 -68.257,64.718 L 0,0 z"
             style="fill:#4c71a0;fill-opacity:1;fill-rule:nonzero;stroke:none"
             id="path3303"
             inkscape:connector-curvature="0" />
        </g>
        <g
           id="g3305"
           transform="translate(403.4063,246.8359)">
          <path
             d="m 0,0 -46.092,-35.097 c 0,0 -12.049,-35.39 -12.725,-51.572 l -9.187,0 9.187,61.685 L -14.494,4.847 0,0 z"
             style="fill:#4c71a0;fill-opacity:1;fill-rule:nonzero;stroke:none"
             id="path3307"
             inkscape:connector-curvature="0" />
        </g>
        <g
           id="g3309"
           transform="translate(322.2061,264.7061)">
          <path
             d="m 0,0 c 0,0 -24.05,0.88 -21.017,-5.439 0,0 1.769,0.504 4.803,0 0,0 -3.034,-2.022 -3.034,-3.54 0,0 1.265,-4.549 6.574,0 0,0 -5.309,-4.551 -2.023,-5.561 3.285,-1.012 3.287,-1.012 5.815,1.517 0,0 -4.299,-3.289 0,-4.299 0,0 12.135,6.826 15.168,11.377 L 0,0 z"
             style="fill:#ffdcad;fill-opacity:1;fill-rule:nonzero;stroke:none"
             id="path3311"
             inkscape:connector-curvature="0" />
        </g>
        <g
           id="g3313"
           transform="translate(455.9209,257.7881)">
          <path
             d="m 0,0 c 0,0 16.583,-17.443 18.832,-10.803 0,0 -1.618,0.876 -3.434,3.359 0,0 3.581,-0.676 4.642,0.409 0,0 2.278,4.139 -4.698,4.595 0,0 6.976,-0.456 5.334,2.563 -1.643,3.021 -1.643,3.021 -5.219,2.981 0,0 5.371,-0.654 3.005,3.074 0,0 -13.447,3.601 -18.798,2.468 L 0,0 z"
             style="fill:#ffdcad;fill-opacity:1;fill-rule:nonzero;stroke:none"
             id="path3315"
             inkscape:connector-curvature="0" />
        </g>
        <g
           id="g3317"
           transform="translate(344.5889,165.7295)">
          <path
             d="m 0,0 0.926,-12.64 c 0,0 -38.006,-6.067 -40.029,2.022 -2.021,8.089 -1.781,10.112 9.221,13.146 L 0,0 z"
             style="fill:#99866a;fill-opacity:1;fill-rule:nonzero;stroke:none"
             id="path3319"
             inkscape:connector-curvature="0" />
        </g>
        <g
           id="g3321"
           transform="translate(446.9668,194.2188)">
          <path
             d="m 0,0 12.622,1.146 c 0,0 6.732,-37.894 -1.321,-40.058 -8.054,-2.164 -10.08,-1.959 -13.307,8.99 L 0,0 z"
             style="fill:#99866a;fill-opacity:1;fill-rule:nonzero;stroke:none"
             id="path3323"
             inkscape:connector-curvature="0" />
        </g>
      </g>
    </g>
  </g>
</svg>
