<?xml version="1.0" encoding="UTF-8" standalone="no"?>
<!-- Created with Inkscape (http://www.inkscape.org/) -->

<svg
   xmlns:dc="http://purl.org/dc/elements/1.1/"
   xmlns:cc="http://creativecommons.org/ns#"
   xmlns:rdf="http://www.w3.org/1999/02/22-rdf-syntax-ns#"
   xmlns:svg="http://www.w3.org/2000/svg"
   xmlns="http://www.w3.org/2000/svg"
   xmlns:sodipodi="http://sodipodi.sourceforge.net/DTD/sodipodi-0.dtd"
   xmlns:inkscape="http://www.inkscape.org/namespaces/inkscape"
   width="181"
   height="266"
   id="svg2"
   version="1.1"
   inkscape:version="0.48.4 r9939"
   sodipodi:docname="1.svg">
  <defs
     id="defs4">
    <inkscape:perspective
       sodipodi:type="inkscape:persp3d"
       inkscape:vp_x="0 : 526.18109 : 1"
       inkscape:vp_y="0 : 1000 : 0"
       inkscape:vp_z="744.09448 : 526.18109 : 1"
       inkscape:persp3d-origin="372.04724 : 350.78739 : 1"
       id="perspective10" />
    <clipPath
       id="clipPath3565"
       clipPathUnits="userSpaceOnUse">
      <path
         id="path3567"
         d="M 0,576 788,576 788,0 0,0 0,576 z"
         inkscape:connector-curvature="0" />
    </clipPath>
    <clipPath
       id="clipPath3485"
       clipPathUnits="userSpaceOnUse">
      <path
         id="path3487"
         d="M 0,576 788,576 788,0 0,0 0,576 z"
         inkscape:connector-curvature="0" />
    </clipPath>
    <clipPath
       id="clipPath3409"
       clipPathUnits="userSpaceOnUse">
      <path
         id="path3411"
         d="M 0,576 788,576 788,0 0,0 0,576 z"
         inkscape:connector-curvature="0" />
    </clipPath>
    <clipPath
       id="clipPath3329"
       clipPathUnits="userSpaceOnUse">
      <path
         id="path3331"
         d="M 0,576 788,576 788,0 0,0 0,576 z"
         inkscape:connector-curvature="0" />
    </clipPath>
    <clipPath
       id="clipPath3249"
       clipPathUnits="userSpaceOnUse">
      <path
         id="path3251"
         d="M 0,576 788,576 788,0 0,0 0,576 z"
         inkscape:connector-curvature="0" />
    </clipPath>
    <clipPath
       id="clipPath3169"
       clipPathUnits="userSpaceOnUse">
      <path
         id="path3171"
         d="M 0,576 788,576 788,0 0,0 0,576 z"
         inkscape:connector-curvature="0" />
    </clipPath>
    <clipPath
       id="clipPath3089"
       clipPathUnits="userSpaceOnUse">
      <path
         id="path3091"
         d="M 0,576 788,576 788,0 0,0 0,576 z"
         inkscape:connector-curvature="0" />
    </clipPath>
    <clipPath
       id="clipPath3013"
       clipPathUnits="userSpaceOnUse">
      <path
         id="path3015"
         d="M 0,576 788,576 788,0 0,0 0,576 z"
         inkscape:connector-curvature="0" />
    </clipPath>
    <clipPath
       id="clipPath2933"
       clipPathUnits="userSpaceOnUse">
      <path
         id="path2935"
         d="M 0,576 788,576 788,0 0,0 0,576 z"
         inkscape:connector-curvature="0" />
    </clipPath>
    <clipPath
       id="clipPath2853"
       clipPathUnits="userSpaceOnUse">
      <path
         id="path2855"
         d="M 0,576 788,576 788,0 0,0 0,576 z"
         inkscape:connector-curvature="0" />
    </clipPath>
    <inkscape:perspective
       id="perspective2845"
       inkscape:persp3d-origin="0.5 : 0.33333333 : 1"
       inkscape:vp_z="1 : 0.5 : 1"
       inkscape:vp_y="0 : 1000 : 0"
       inkscape:vp_x="0 : 0.5 : 1"
       sodipodi:type="inkscape:persp3d" />
  </defs>
  <sodipodi:namedview
     id="base"
     pagecolor="#ffffff"
     bordercolor="#666666"
     borderopacity="1.0"
     inkscape:pageopacity="0.0"
     inkscape:pageshadow="2"
     inkscape:zoom="0.98994949"
     inkscape:cx="532.48707"
     inkscape:cy="-95.800017"
     inkscape:document-units="px"
     inkscape:current-layer="layer1"
     showgrid="false"
     inkscape:window-width="1871"
     inkscape:window-height="1056"
     inkscape:window-x="49"
     inkscape:window-y="24"
     inkscape:window-maximized="1"
     fit-margin-top="0"
     fit-margin-left="0"
     fit-margin-right="0"
     fit-margin-bottom="0"
     showguides="true"
     inkscape:guide-bbox="true">
    <sodipodi:guide
       orientation="1,0"
       position="91.923882,237.38585"
       id="guide3641" />
  </sodipodi:namedview>
  <metadata
     id="metadata7">
    <rdf:RDF>
      <cc:Work
         rdf:about="">
        <dc:format>image/svg+xml</dc:format>
        <dc:type
           rdf:resource="http://purl.org/dc/dcmitype/StillImage" />
        <dc:title />
      </cc:Work>
    </rdf:RDF>
  </metadata>
  <g
     inkscape:label="Layer 1"
     inkscape:groupmode="layer"
     id="layer1"
     transform="translate(-40.037657,-366.13039)">
    <g
       id="g3165"
       transform="matrix(-1.0278596,0,0,-1.0278596,521.84988,772.3117)">
      <g
         id="g3167"
         clip-path="url(#clipPath3169)">
        <g
           id="g3173"
           transform="translate(330.9482,262.9561)">
          <path
             d="m 0,0 c 0,0 -23.659,-4.397 -19.319,-9.902 0,0 1.618,0.881 4.687,1.049 0,0 -2.518,-2.636 -2.186,-4.116 0,0 2.228,-4.164 6.414,1.437 0,0 -4.186,-5.601 -0.759,-5.87 3.428,-0.268 3.428,-0.268 5.342,2.751 0,0 -3.475,-4.147 0.942,-4.194 0,0 10.348,9.313 12.312,14.416 L 0,0 z"
             style="fill:#ffdcad;fill-opacity:1;fill-rule:nonzero;stroke:none"
             id="path3175"
             inkscape:connector-curvature="0" />
        </g>
        <g
           id="g3177"
           transform="translate(372.5483,323.2051)">
          <path
             d="m 0,0 9.101,-9.102 c 0,0 -28.061,-48.537 -43.988,-59.155 l -11.376,7.584 c 0,0 33.37,28.819 46.263,60.673"
             style="fill:#3a4869;fill-opacity:1;fill-rule:nonzero;stroke:none"
             id="path3179"
             inkscape:connector-curvature="0" />
        </g>
        <g
           id="g3181"
           transform="translate(447.707,194.4668)">
          <path
             d="m 0,0 12.201,-3.427 c 0,0 -7.222,-37.804 -15.519,-36.954 -8.295,0.847 -10.114,1.763 -9.225,13.142 L 0,0 z"
             style="fill:#99866a;fill-opacity:1;fill-rule:nonzero;stroke:none"
             id="path3183"
             inkscape:connector-curvature="0" />
        </g>
        <g
           id="g3185"
           transform="translate(383.166,248.8809)">
          <path
             d="m 0,0 13.651,6.067 c 0,0 17.444,-40.195 53.089,-61.431 l -9.101,-10.617 c 0,0 -28.061,8.342 -57.639,65.981"
             style="fill:#3a4869;fill-opacity:1;fill-rule:nonzero;stroke:none"
             id="path3187"
             inkscape:connector-curvature="0" />
        </g>
        <g
           id="g3189"
           transform="translate(400.1768,335.2188)">
          <path
             d="m 0,0 -33.687,-3.568 c 0,0 -5.27,-75.036 3.224,-97.609 0,0 25.599,7.928 34.093,9.35 0,0 -18.265,38.002 -3.63,91.827"
             style="fill:#7d9ed2;fill-opacity:1;fill-rule:nonzero;stroke:none"
             id="path3191"
             inkscape:connector-curvature="0" />
        </g>
        <g
           id="g3193"
           transform="translate(417.5469,358.7227)">
          <path
             d="m 0,0 c 0,-19.407 -17.092,-35.139 -38.176,-35.139 -21.081,0 -38.172,15.732 -38.172,35.139 0,19.408 17.091,35.141 38.172,35.141 C -17.092,35.141 0,19.408 0,0"
             style="fill:#ffdcad;fill-opacity:1;fill-rule:nonzero;stroke:none"
             id="path3195"
             inkscape:connector-curvature="0" />
        </g>
        <g
           id="g3197"
           transform="translate(425.1309,355.1826)">
          <path
             d="m 0,0 c 0,-3.21 -2.717,-5.813 -6.068,-5.813 -3.35,0 -6.067,2.603 -6.067,5.813 0,3.212 2.717,5.815 6.067,5.815 C -2.717,5.815 0,3.212 0,0"
             style="fill:#ffdcad;fill-opacity:1;fill-rule:nonzero;stroke:none"
             id="path3199"
             inkscape:connector-curvature="0" />
        </g>
        <g
           id="g3201"
           transform="translate(353.8398,361.5791)">
          <path
             d="m 0,0 c 0,-3.532 -2.53,-6.396 -5.646,-6.396 -3.12,0 -5.647,2.864 -5.647,6.396 0,3.532 2.527,6.396 5.647,6.396 C -2.53,6.396 0,3.532 0,0"
             style="fill:#ffffff;fill-opacity:1;fill-rule:nonzero;stroke:none"
             id="path3203"
             inkscape:connector-curvature="0" />
        </g>
        <g
           id="g3205"
           transform="translate(374.0649,358.4707)">
          <path
             d="m 0,0 c 0,-3.91 -2.944,-7.078 -6.574,-7.078 -3.632,0 -6.573,3.168 -6.573,7.078 0,3.908 2.941,7.078 6.573,7.078 C -2.944,7.078 0,3.908 0,0"
             style="fill:#ffffff;fill-opacity:1;fill-rule:nonzero;stroke:none"
             id="path3207"
             inkscape:connector-curvature="0" />
        </g>
        <g
           id="g3209"
           transform="translate(350.2998,362.0078)">
          <path
             d="m 0,0 c 0,-1.953 -1.132,-3.537 -2.527,-3.537 -1.395,0 -2.527,1.584 -2.527,3.537 0,1.957 1.132,3.541 2.527,3.541 C -1.132,3.541 0,1.957 0,0"
             style="fill:#594334;fill-opacity:1;fill-rule:nonzero;stroke:none"
             id="path3211"
             inkscape:connector-curvature="0" />
        </g>
        <g
           id="g3213"
           transform="translate(370.0181,358.0918)">
          <path
             d="m 0,0 c 0,-1.605 -1.131,-2.909 -2.527,-2.909 -1.395,0 -2.527,1.304 -2.527,2.909 0,1.605 1.132,2.906 2.527,2.906 C -1.131,2.906 0,1.605 0,0"
             style="fill:#594334;fill-opacity:1;fill-rule:nonzero;stroke:none"
             id="path3215"
             inkscape:connector-curvature="0" />
        </g>
        <g
           id="g3217"
           transform="translate(344.0635,372.0859)">
          <path
             d="m 0,0 c 0,0 2.696,1.552 6.236,3.574 3.54,2.024 -1.265,-0.07 0,-3.574 0,0 -0.504,-0.726 3.54,2.184 l 1.769,-6.295 c 0,0 0.507,4.652 5.309,6.674 0,0 -1.769,-6.018 -1.01,-6.674 0.758,-0.657 1.768,4.4 5.057,6.422 l 3.285,2.022 c 0,0 -2.527,-4.044 0,-6.572 2.527,-2.529 3.792,0.883 4.551,2.337 0.758,1.455 2.275,-3.349 2.527,-6.635 0.255,-3.285 4.044,2.426 4.044,2.426 0,0 2.023,1.35 2.278,-3.446 l 6.319,0 -1.769,-6.437 5.054,5.433 1.265,-8.342 5.31,6.825 0,-6.825 6.573,5.815 2.527,-8.09 6.068,6.825 2.275,-2.779 2.275,4.044 c 0,0 -1.013,26.799 -33.877,32.865 C 39.606,21.777 11.711,25.75 0,0"
             style="fill:#594334;fill-opacity:1;fill-rule:nonzero;stroke:none"
             id="path3219"
             inkscape:connector-curvature="0" />
        </g>
        <g
           id="g3221"
           transform="translate(348.1934,338.4629)">
          <path
             d="m 0,0 c 0,0 18.792,-5.346 25.872,0 0,0 -9.389,-11.735 -18.092,-7.493 0,0 -6.044,5.028 -7.78,7.493"
             style="fill:#cd9db0;fill-opacity:1;fill-rule:nonzero;stroke:none"
             id="path3223"
             inkscape:connector-curvature="0" />
        </g>
        <g
           id="g3225"
           transform="translate(349.1177,349.1152)">
          <path
             d="m 0,0 c 0,-2.094 -2.264,-3.792 -5.054,-3.792 -2.794,0 -5.057,1.698 -5.057,3.792 0,2.095 2.263,3.793 5.057,3.793 C -2.264,3.793 0,2.095 0,0"
             style="fill:#ffdcad;fill-opacity:1;fill-rule:nonzero;stroke:none"
             id="path3227"
             inkscape:connector-curvature="0" />
        </g>
        <g
           id="g3229"
           transform="translate(375.8354,260.5107)">
          <path
             d="m 0,0 c 0,0 -25.786,-25.028 -45.505,-82.667 l 11.377,-6.067 c 0,0 17.443,45.505 45.504,78.116 L 0,0 z"
             style="fill:#4c71a0;fill-opacity:1;fill-rule:nonzero;stroke:none"
             id="path3231"
             inkscape:connector-curvature="0" />
        </g>
        <g
           id="g3233"
           transform="translate(342.0903,172.3809)">
          <path
             d="m 0,0 -7.753,-10.922 c 0,0 -33.462,19.121 -29.61,27.016 3.851,7.898 5.394,9.397 15.935,4.909 L 0,0 z"
             style="fill:#99866a;fill-opacity:1;fill-rule:nonzero;stroke:none"
             id="path3235"
             inkscape:connector-curvature="0" />
        </g>
        <g
           id="g3237"
           transform="translate(385.9478,306.2656)">
          <path
             d="m 0,0 c 0,0 17.189,-29.323 35.39,-40.448 l 9.102,8.594 c 0,0 -29.324,22.752 -37.921,47.022 L 0,0 z"
             style="fill:#4c71a0;fill-opacity:1;fill-rule:nonzero;stroke:none"
             id="path3239"
             inkscape:connector-curvature="0" />
        </g>
        <g
           id="g3241"
           transform="translate(423.3906,268.043)">
          <path
             d="m 0,0 c 0,0 12.5,-20.569 16.105,-14.559 0,0 -1.396,1.201 -2.64,4.012 0,0 3.357,-1.422 4.621,-0.587 0,0 3.105,3.56 -3.613,5.49 0,0 6.722,-1.93 5.756,1.372 -0.963,3.298 -0.963,3.3 -4.465,4.02 0,0 5.107,-1.78 3.588,2.364 0,0 -12.377,6.377 -17.846,6.407 L 0,0 z"
             style="fill:#ffdcad;fill-opacity:1;fill-rule:nonzero;stroke:none"
             id="path3243"
             inkscape:connector-curvature="0" />
        </g>
      </g>
    </g>
  </g>
</svg>
