<?xml version="1.0" encoding="UTF-8" standalone="no"?>
<!-- Created with Inkscape (http://www.inkscape.org/) -->

<svg
   xmlns:dc="http://purl.org/dc/elements/1.1/"
   xmlns:cc="http://creativecommons.org/ns#"
   xmlns:rdf="http://www.w3.org/1999/02/22-rdf-syntax-ns#"
   xmlns:svg="http://www.w3.org/2000/svg"
   xmlns="http://www.w3.org/2000/svg"
   xmlns:sodipodi="http://sodipodi.sourceforge.net/DTD/sodipodi-0.dtd"
   xmlns:inkscape="http://www.inkscape.org/namespaces/inkscape"
   width="181"
   height="266"
   id="svg2"
   version="1.1"
   inkscape:version="0.48.4 r9939"
   sodipodi:docname="5.svg">
  <defs
     id="defs4">
    <inkscape:perspective
       sodipodi:type="inkscape:persp3d"
       inkscape:vp_x="0 : 526.18109 : 1"
       inkscape:vp_y="0 : 1000 : 0"
       inkscape:vp_z="744.09448 : 526.18109 : 1"
       inkscape:persp3d-origin="372.04724 : 350.78739 : 1"
       id="perspective10" />
    <clipPath
       id="clipPath3565"
       clipPathUnits="userSpaceOnUse">
      <path
         id="path3567"
         d="M 0,576 788,576 788,0 0,0 0,576 z"
         inkscape:connector-curvature="0" />
    </clipPath>
    <clipPath
       id="clipPath3485"
       clipPathUnits="userSpaceOnUse">
      <path
         id="path3487"
         d="M 0,576 788,576 788,0 0,0 0,576 z"
         inkscape:connector-curvature="0" />
    </clipPath>
    <clipPath
       id="clipPath3409"
       clipPathUnits="userSpaceOnUse">
      <path
         id="path3411"
         d="M 0,576 788,576 788,0 0,0 0,576 z"
         inkscape:connector-curvature="0" />
    </clipPath>
    <clipPath
       id="clipPath3329"
       clipPathUnits="userSpaceOnUse">
      <path
         id="path3331"
         d="M 0,576 788,576 788,0 0,0 0,576 z"
         inkscape:connector-curvature="0" />
    </clipPath>
    <clipPath
       id="clipPath3249"
       clipPathUnits="userSpaceOnUse">
      <path
         id="path3251"
         d="M 0,576 788,576 788,0 0,0 0,576 z"
         inkscape:connector-curvature="0" />
    </clipPath>
    <clipPath
       id="clipPath3169"
       clipPathUnits="userSpaceOnUse">
      <path
         id="path3171"
         d="M 0,576 788,576 788,0 0,0 0,576 z"
         inkscape:connector-curvature="0" />
    </clipPath>
    <clipPath
       id="clipPath3089"
       clipPathUnits="userSpaceOnUse">
      <path
         id="path3091"
         d="M 0,576 788,576 788,0 0,0 0,576 z"
         inkscape:connector-curvature="0" />
    </clipPath>
    <clipPath
       id="clipPath3013"
       clipPathUnits="userSpaceOnUse">
      <path
         id="path3015"
         d="M 0,576 788,576 788,0 0,0 0,576 z"
         inkscape:connector-curvature="0" />
    </clipPath>
    <clipPath
       id="clipPath2933"
       clipPathUnits="userSpaceOnUse">
      <path
         id="path2935"
         d="M 0,576 788,576 788,0 0,0 0,576 z"
         inkscape:connector-curvature="0" />
    </clipPath>
    <clipPath
       id="clipPath2853"
       clipPathUnits="userSpaceOnUse">
      <path
         id="path2855"
         d="M 0,576 788,576 788,0 0,0 0,576 z"
         inkscape:connector-curvature="0" />
    </clipPath>
    <inkscape:perspective
       id="perspective2845"
       inkscape:persp3d-origin="0.5 : 0.33333333 : 1"
       inkscape:vp_z="1 : 0.5 : 1"
       inkscape:vp_y="0 : 1000 : 0"
       inkscape:vp_x="0 : 0.5 : 1"
       sodipodi:type="inkscape:persp3d" />
  </defs>
  <sodipodi:namedview
     id="base"
     pagecolor="#ffffff"
     bordercolor="#666666"
     borderopacity="1.0"
     inkscape:pageopacity="0.0"
     inkscape:pageshadow="2"
     inkscape:zoom="0.98994949"
     inkscape:cx="-440.60811"
     inkscape:cy="-62.361492"
     inkscape:document-units="px"
     inkscape:current-layer="layer1"
     showgrid="false"
     inkscape:window-width="1871"
     inkscape:window-height="1056"
     inkscape:window-x="49"
     inkscape:window-y="24"
     inkscape:window-maximized="1"
     fit-margin-top="0"
     fit-margin-left="0"
     fit-margin-right="0"
     fit-margin-bottom="0"
     showguides="true"
     inkscape:guide-bbox="true">
    <sodipodi:guide
       orientation="1,0"
       position="91.923882,256.57875"
       id="guide3633" />
  </sodipodi:namedview>
  <metadata
     id="metadata7">
    <rdf:RDF>
      <cc:Work
         rdf:about="">
        <dc:format>image/svg+xml</dc:format>
        <dc:type
           rdf:resource="http://purl.org/dc/dcmitype/StillImage" />
        <dc:title />
      </cc:Work>
    </rdf:RDF>
  </metadata>
  <g
     inkscape:label="Layer 1"
     inkscape:groupmode="layer"
     id="layer1"
     transform="translate(-844.31452,-370.86815)">
    <g
       id="g2849"
       transform="matrix(-1.0278596,0,0,-1.0278596,1326.965,778.13709)">
      <g
         id="g2851"
         clip-path="url(#clipPath2853)">
        <g
           id="g2857"
           transform="translate(456.5059,258.082)">
          <path
             d="m 0,0 c 0,0 16.582,-17.442 18.832,-10.804 0,0 -1.619,0.877 -3.436,3.361 0,0 3.583,-0.676 4.643,0.408 0,0 2.277,4.138 -4.699,4.595 0,0 6.978,-0.456 5.334,2.563 -1.643,3.022 -1.643,3.022 -5.217,2.98 0,0 5.369,-0.654 3.004,3.074 0,0 -13.449,3.602 -18.799,2.469 L 0,0 z"
             style="fill:#ffdcad;fill-opacity:1;fill-rule:nonzero;stroke:none"
             id="path2859"
             inkscape:connector-curvature="0" />
        </g>
        <g
           id="g2861"
           transform="translate(447.5508,194.5117)">
          <path
             d="m 0,0 12.621,1.146 c 0,0 6.733,-37.892 -1.32,-40.058 -8.053,-2.162 -10.08,-1.958 -13.307,8.99 L 0,0 z"
             style="fill:#99866a;fill-opacity:1;fill-rule:nonzero;stroke:none"
             id="path2863"
             inkscape:connector-curvature="0" />
        </g>
        <g
           id="g2865"
           transform="translate(393.0342,327.8477)">
          <path
             d="m 0,0 c 0,0 35.392,-60.703 69.774,-59.187 l -5.056,-12.639 c 0,0 -63.201,37.92 -68.257,64.717 L 0,0 z"
             style="fill:#3a4869;fill-opacity:1;fill-rule:nonzero;stroke:none"
             id="path2867"
             inkscape:connector-curvature="0" />
        </g>
        <g
           id="g2869"
           transform="translate(403.9902,247.1289)">
          <path
             d="m 0,0 -46.092,-35.096 c 0,0 -12.048,-35.391 -12.725,-51.571 l -9.187,0 9.187,61.683 L -14.495,4.847 0,0 z"
             style="fill:#3a4869;fill-opacity:1;fill-rule:nonzero;stroke:none"
             id="path2871"
             inkscape:connector-curvature="0" />
        </g>
        <g
           id="g2873"
           transform="translate(345.1733,166.0225)">
          <path
             d="m 0,0 0.926,-12.64 c 0,0 -38.006,-6.066 -40.029,2.022 -2.022,8.091 -1.782,10.113 9.221,13.146 L 0,0 z"
             style="fill:#99866a;fill-opacity:1;fill-rule:nonzero;stroke:none"
             id="path2875"
             inkscape:connector-curvature="0" />
        </g>
        <g
           id="g2877"
           transform="translate(384.4014,236.5811)">
          <path
             d="m 0,0 c 0,0 6.654,-49.234 71.372,-50.245 l 4.045,8.09 c 0,0 -29.912,1.516 -37.709,10.871 0,0 -29.045,20.982 -28.785,38.679 L 0,0 z"
             style="fill:#4c71a0;fill-opacity:1;fill-rule:nonzero;stroke:none"
             id="path2879"
             inkscape:connector-curvature="0" />
        </g>
        <g
           id="g2881"
           transform="translate(400.625,337.165)">
          <path
             d="m 0,0 -33.557,-4.642 c 0,0 -3.128,-73.311 6,-95.017 0,0 25.352,8.608 33.795,10.288 0,0 -19.328,36.407 -6.238,89.371"
             style="fill:#7d9ed2;fill-opacity:1;fill-rule:nonzero;stroke:none"
             id="path2883"
             inkscape:connector-curvature="0" />
        </g>
        <g
           id="g2885"
           transform="translate(416.041,360.459)">
          <path
             d="m 0,0 c 0,-19.407 -17.09,-35.14 -38.172,-35.14 -21.083,0 -38.174,15.733 -38.174,35.14 0,19.407 17.091,35.141 38.174,35.141 C -17.09,35.141 0,19.407 0,0"
             style="fill:#ffdcad;fill-opacity:1;fill-rule:nonzero;stroke:none"
             id="path2887"
             inkscape:connector-curvature="0" />
        </g>
        <g
           id="g2889"
           transform="translate(423.627,356.9199)">
          <path
             d="m 0,0 c 0,-3.212 -2.717,-5.814 -6.068,-5.814 -3.35,0 -6.067,2.602 -6.067,5.814 0,3.211 2.717,5.814 6.067,5.814 C -2.717,5.814 0,3.211 0,0"
             style="fill:#ffdcad;fill-opacity:1;fill-rule:nonzero;stroke:none"
             id="path2891"
             inkscape:connector-curvature="0" />
        </g>
        <g
           id="g2893"
           transform="translate(352.3359,363.3145)">
          <path
             d="m 0,0 c 0,-3.531 -2.529,-6.395 -5.647,-6.395 -3.119,0 -5.647,2.864 -5.647,6.395 0,3.532 2.528,6.396 5.647,6.396 C -2.529,6.396 0,3.532 0,0"
             style="fill:#ffffff;fill-opacity:1;fill-rule:nonzero;stroke:none"
             id="path2895"
             inkscape:connector-curvature="0" />
        </g>
        <g
           id="g2897"
           transform="translate(372.5605,360.2061)">
          <path
             d="m 0,0 c 0,-3.909 -2.943,-7.079 -6.573,-7.079 -3.631,0 -6.573,3.17 -6.573,7.079 0,3.909 2.942,7.079 6.573,7.079 C -2.943,7.079 0,3.909 0,0"
             style="fill:#ffffff;fill-opacity:1;fill-rule:nonzero;stroke:none"
             id="path2899"
             inkscape:connector-curvature="0" />
        </g>
        <g
           id="g2901"
           transform="translate(348.7964,363.7451)">
          <path
             d="m 0,0 c 0,-1.954 -1.132,-3.539 -2.528,-3.539 -1.396,0 -2.528,1.585 -2.528,3.539 0,1.955 1.132,3.54 2.528,3.54 C -1.132,3.54 0,1.955 0,0"
             style="fill:#594334;fill-opacity:1;fill-rule:nonzero;stroke:none"
             id="path2903"
             inkscape:connector-curvature="0" />
        </g>
        <g
           id="g2905"
           transform="translate(368.5151,359.8271)">
          <path
             d="m 0,0 c 0,-1.606 -1.132,-2.907 -2.528,-2.907 -1.396,0 -2.528,1.301 -2.528,2.907 0,1.605 1.132,2.907 2.528,2.907 C -1.132,2.907 0,1.605 0,0"
             style="fill:#594334;fill-opacity:1;fill-rule:nonzero;stroke:none"
             id="path2907"
             inkscape:connector-curvature="0" />
        </g>
        <g
           id="g2909"
           transform="translate(342.5586,373.8223)">
          <path
             d="m 0,0 c 0,0 2.698,1.551 6.238,3.574 3.539,2.023 -1.264,-0.07 0,-3.574 0,0 -0.506,-0.727 3.539,2.183 l 1.77,-6.295 c 0,0 0.505,4.653 5.308,6.675 0,0 -1.769,-6.019 -1.01,-6.675 0.758,-0.657 1.77,4.401 5.056,6.423 l 3.286,2.021 c 0,0 -2.528,-4.043 0,-6.572 2.528,-2.529 3.792,0.883 4.55,2.338 0.759,1.455 2.275,-3.35 2.528,-6.635 0.254,-3.287 4.045,2.425 4.045,2.425 0,0 2.023,1.35 2.276,-3.445 l 6.32,0 -1.77,-6.438 5.056,5.434 1.264,-8.341 5.31,6.825 0,-6.825 6.572,5.814 2.527,-8.09 6.069,6.825 2.275,-2.78 2.273,4.045 c 0,0 -1.011,26.798 -33.874,32.865 C 39.608,21.777 11.711,25.75 0,0"
             style="fill:#594334;fill-opacity:1;fill-rule:nonzero;stroke:none"
             id="path2911"
             inkscape:connector-curvature="0" />
        </g>
        <g
           id="g2913"
           transform="translate(346.6895,340.1992)">
          <path
             d="m 0,0 c 0,0 18.792,-5.345 25.871,0 0,0 -9.387,-11.734 -18.092,-7.492 0,0 -6.043,5.027 -7.779,7.492"
             style="fill:#cd9db0;fill-opacity:1;fill-rule:nonzero;stroke:none"
             id="path2915"
             inkscape:connector-curvature="0" />
        </g>
        <g
           id="g2917"
           transform="translate(347.6152,350.8516)">
          <path
             d="m 0,0 c 0,-2.094 -2.264,-3.791 -5.057,-3.791 -2.792,0 -5.056,1.697 -5.056,3.791 0,2.096 2.264,3.793 5.056,3.793 C -2.264,3.793 0,2.096 0,0"
             style="fill:#ffdcad;fill-opacity:1;fill-rule:nonzero;stroke:none"
             id="path2919"
             inkscape:connector-curvature="0" />
        </g>
        <g
           id="g2921"
           transform="translate(371.0444,325.2881)">
          <path
             d="m 0,0 c 0,0 -31.604,-57.639 -49.806,-60.673 l 5.056,-8.594 c 0,0 38.176,16.656 50.058,64.211 L 0,0 z"
             style="fill:#4c71a0;fill-opacity:1;fill-rule:nonzero;stroke:none"
             id="path2923"
             inkscape:connector-curvature="0" />
        </g>
        <g
           id="g2925"
           transform="translate(322.7905,265.001)">
          <path
             d="m 0,0 c 0,0 -24.051,0.88 -21.018,-5.441 0,0 1.769,0.505 4.803,0 0,0 -3.034,-2.022 -3.034,-3.538 0,0 1.265,-4.551 6.574,0 0,0 -5.309,-4.551 -2.023,-5.563 3.286,-1.012 3.287,-1.012 5.815,1.517 0,0 -4.297,-3.288 0,-4.297 0,0 12.134,6.825 15.168,11.376 L 0,0 z"
             style="fill:#ffdcad;fill-opacity:1;fill-rule:nonzero;stroke:none"
             id="path2927"
             inkscape:connector-curvature="0" />
        </g>
      </g>
    </g>
  </g>
</svg>
