<?xml version="1.0" encoding="utf-8"?>
<!-- Generator: Adobe Illustrator 16.0.0, SVG Export Plug-In . SVG Version: 6.00 Build 0)  -->
<!DOCTYPE svg PUBLIC "-//W3C//DTD SVG 1.1//EN" "http://www.w3.org/Graphics/SVG/1.1/DTD/svg11.dtd">
<svg version="1.1" id="Layer_1" xmlns="http://www.w3.org/2000/svg" xmlns:xlink="http://www.w3.org/1999/xlink" x="0px" y="0px"
	 width="105px" height="159.502px" viewBox="-2.5 -3.798 105 159.502" enable-background="new -2.5 -3.798 105 159.502"
	 xml:space="preserve">
<g>
	<path fill="#FAB59B" d="M70.555,10.245L90.6,69.933H76.479v31.597H61.782c0,0-7.021,0.872-7.021,7.018c0,2.633,0,24.34,0,34.874
		v12.282H21.126v-7.896V9.15H69.68L70.555,10.245z"/>
	<path fill="#2F3E4A" d="M68.131,44.043c0,1.426-1.156,2.579-2.58,2.579c-1.417,0-2.575-1.153-2.575-2.579
		c0-1.424,1.158-2.578,2.575-2.578C66.975,41.466,68.131,42.619,68.131,44.043z"/>
	<path fill="#F18980" d="M70.887,79.964c-0.376,0-0.679-0.302-0.679-0.673h-2.635c0,1.823,1.486,3.307,3.312,3.307h5.643v-2.636
		h-5.641V79.964z"/>
	<path fill="#C2692A" d="M-2.5-3.798V131.57c0,0,8.486,0,16.853,0c25.375,0,24.023-24.023,24.023-24.023V56.168
		c-4.775-0.007-8.651-3.884-8.651-8.672c0-4.781,3.882-8.661,8.665-8.661c3.794,0,6.986,2.453,8.158,5.85l0.113-0.36
		c5.54-0.414,9.915-4.87,10.174-10.448h0.054v-6.902c2.473,0,5.562,0,9.448,0C96.021,26.977,102.5-3.798,102.5-3.798H-2.5z"/>
</g>
</svg>
