<?xml version="1.0" encoding="utf-8"?>
<!-- Generator: Adobe Illustrator 16.0.0, SVG Export Plug-In . SVG Version: 6.00 Build 0)  -->
<!DOCTYPE svg PUBLIC "-//W3C//DTD SVG 1.1//EN" "http://www.w3.org/Graphics/SVG/1.1/DTD/svg11.dtd">
<svg version="1.1" id="Layer_1" xmlns="http://www.w3.org/2000/svg" xmlns:xlink="http://www.w3.org/1999/xlink" x="0px" y="0px"
	 width="105px" height="159.502px" viewBox="0 0 105 159.502" enable-background="new 0 0 105 159.502" xml:space="preserve">
<path fill="none" stroke="#DB5C39" stroke-width="0.7745" stroke-miterlimit="10" stroke-dasharray="6.1959,3.8724" d="
	M98.922,16.272H23.039v97.559c0,0,6.134,0,12.18,0c1.817,0,3.438-0.176,4.896-0.481v12.185v5.69h24.308v-8.854
	c0-7.59,0-23.234,0-25.134c0-4.427,5.072-5.057,5.072-5.057h10.624V78.536h0.033V76.64h-0.033v-7.23h10.203L79.612,37.607
	C95.258,33.574,98.922,16.272,98.922,16.272z"/>
<path fill="#2E3D49" d="M73.489,51.26c0,1.042-0.847,1.882-1.886,1.882c-1.037,0-1.884-0.84-1.884-1.882
	c0-1.04,0.847-1.88,1.884-1.88C72.643,49.38,73.489,50.22,73.489,51.26z"/>
<path fill="#F18880" d="M75.503,77.466c-0.275,0-0.496-0.221-0.496-0.491h-1.925c0,1.331,1.084,2.411,2.421,2.411h4.122v-1.92
	H75.503L75.503,77.466z"/>
<path fill="none" stroke="#DB5C39" stroke-width="0.5809" stroke-miterlimit="10" d="M41.287,113.833
	c11.513-3.642,10.785-16.535,10.785-16.535V59.91c-3.482-0.004-6.308-2.826-6.308-6.311c0-3.479,2.83-6.302,6.317-6.302
	c2.767,0,5.094,1.785,5.949,4.257l0.082-0.263c4.038-0.301,7.229-3.542,7.419-7.602h0.039v-5.022c1.804,0,4.055,0,6.888,0
	c2.39,0,4.573-0.273,6.567-0.758"/>
</svg>
