<?xml version="1.0" encoding="utf-8"?>
<!-- Generator: Adobe Illustrator 16.0.0, SVG Export Plug-In . SVG Version: 6.00 Build 0)  -->
<!DOCTYPE svg PUBLIC "-//W3C//DTD SVG 1.1//EN" "http://www.w3.org/Graphics/SVG/1.1/DTD/svg11.dtd">
<svg version="1.1" id="Layer_1" xmlns="http://www.w3.org/2000/svg" xmlns:xlink="http://www.w3.org/1999/xlink" x="0px" y="0px"
	 width="106.014px" height="166.173px" viewBox="0 0 106.014 166.173" enable-background="new 0 0 106.014 166.173"
	 xml:space="preserve">
<g>
	<g>
		<g>
			<path fill="none" stroke="#DB5C39" stroke-miterlimit="10" d="M97.876,55.021c-0.766-1.092-1.751-2.021-2.889-2.728
				c0.838-1.021,1.452-2.232,1.737-3.567"/>
			<path fill="none" stroke="#DB5C39" stroke-miterlimit="10" d="M95.751,42.836c-0.683-1.149-1.637-2.12-2.774-2.829
				c1.168-0.661,2.226-1.492,3.138-2.46"/>
			<path fill="none" stroke="#DB5C39" stroke-miterlimit="10" stroke-dasharray="8.3379,5.2112" d="M98.843,33.148
				c0.508-1.379,0.786-2.87,0.786-4.43c0-7.039-5.578-12.762-12.55-13.002"/>
			<path fill="none" stroke="#DB5C39" stroke-miterlimit="10" d="M84.478,15.897c-1.339,0.237-2.602,0.686-3.773,1.289
				c-0.554-1.229-1.414-2.29-2.483-3.082"/>
			<path fill="none" stroke="#DB5C39" stroke-miterlimit="10" d="M72.404,12.678c-1.355,0.218-2.586,0.795-3.618,1.612
				c-0.384-1.298-0.969-2.51-1.721-3.597"/>
			<path fill="none" stroke="#DB5C39" stroke-miterlimit="10" stroke-dasharray="6.2601,3.9126" d="M64.376,7.871
				c-2.076-1.589-4.668-2.535-7.495-2.535c-3.652,0-6.919,1.578-9.185,4.085"/>
			<path fill="none" stroke="#DB5C39" stroke-miterlimit="10" d="M46.501,10.972c-0.722,1.105-1.274,2.333-1.621,3.643
				c-1.045-0.809-2.252-1.419-3.57-1.75"/>
			<path fill="none" stroke="#DB5C39" stroke-miterlimit="10" d="M34.054,13.982c-1.143,0.698-2.127,1.628-2.891,2.723
				c-0.692-1.147-1.548-2.185-2.536-3.077"/>
			<path fill="none" stroke="#DB5C39" stroke-miterlimit="10" stroke-dasharray="7.6317,4.7698" d="M24.6,11.121
				c-1.5-0.594-3.135-0.921-4.851-0.921c-7.382,0-13.366,5.98-13.366,13.371c0,1.855,0.39,3.631,1.076,5.242
				c1.04,3.147,3.437,8.846,8.193,13.429"/>
			<path fill="none" stroke="#DB5C39" stroke-miterlimit="10" d="M17.448,43.821c1.012,0.81,2.114,1.564,3.312,2.238l-1.63,3.653"/>
			
				<line fill="none" stroke="#DB5C39" stroke-miterlimit="10" stroke-dasharray="7.196,4.4975" x1="17.297" y1="53.818" x2="3.917" y2="83.801"/>
			<polyline fill="none" stroke="#DB5C39" stroke-miterlimit="10" points="3.001,85.854 1.371,89.507 5.371,89.507 			"/>
			
				<line fill="none" stroke="#DB5C39" stroke-miterlimit="10" stroke-dasharray="4.0074,2.5046" x1="7.875" y1="89.507" x2="13.135" y2="89.507"/>
			<polyline fill="none" stroke="#DB5C39" stroke-miterlimit="10" points="14.388,89.507 18.388,89.507 18.388,93.507 			"/>
			<polyline fill="none" stroke="#DB5C39" stroke-miterlimit="10" stroke-dasharray="8.1273,5.0796" points="18.388,98.586 
				18.388,101.775 18.388,105.519 18.388,107.918 18.388,111.205 18.388,135.667 			"/>
			<polyline fill="none" stroke="#DB5C39" stroke-miterlimit="10" points="18.388,138.207 18.388,142.207 18.39,142.207 
				18.39,142.368 22.39,142.368 			"/>
			<path fill="none" stroke="#DB5C39" stroke-miterlimit="10" stroke-dasharray="7.0717,4.4198" d="M26.81,142.368h4.997
				c0,0,6.407,0.804,6.407,6.409v5.851"/>
			<polyline fill="none" stroke="#DB5C39" stroke-miterlimit="10" points="38.214,156.838 38.214,160.795 38.214,160.838 
				38.194,160.838 38.092,160.838 42.092,160.838 			"/>
			
				<line fill="none" stroke="#DB5C39" stroke-miterlimit="10" stroke-dasharray="9.2868,5.8042" x1="47.896" y1="160.838" x2="75.176" y2="160.838"/>
			<polyline fill="none" stroke="#DB5C39" stroke-miterlimit="10" points="78.078,160.838 82.078,160.838 82.064,160.838 
				82.064,156.838 			"/>
			
				<line fill="none" stroke="#DB5C39" stroke-miterlimit="10" stroke-dasharray="8.101,5.0631" x1="82.064" y1="151.774" x2="82.064" y2="101.649"/>
			<path fill="none" stroke="#DB5C39" stroke-miterlimit="10" d="M82.064,99.118v-4h2.605v-0.034
				c1.394-0.075,2.65-0.664,3.579-1.582"/>
			<path fill="none" stroke="#DB5C39" stroke-miterlimit="10" d="M89.419,87.444c-0.537-1.233-1.518-2.229-2.736-2.798
				c1.325-0.318,2.532-0.94,3.541-1.787"/>
			<path fill="none" stroke="#DB5C39" stroke-miterlimit="10" stroke-dasharray="4.5253,2.8283" d="M92.059,80.721
				c0.785-1.295,1.237-2.814,1.237-4.442c0-0.432-0.032-0.857-0.094-1.272"/>
			<path fill="none" stroke="#DB5C39" stroke-miterlimit="10" d="M92.878,73.625c-0.418-1.289-1.132-2.445-2.059-3.388
				c1.366-0.134,2.651-0.546,3.795-1.18"/>
			<path fill="none" stroke="#DB5C39" stroke-miterlimit="10" stroke-dasharray="7.216,4.51" d="M97.928,66.054
				c1.073-1.556,1.701-3.439,1.701-5.476c0-1.265-0.242-2.469-0.682-3.574"/>
		</g>
	</g>
</g>
<path fill="#2E3D49" d="M28.786,57.297c0,1.307,1.061,2.373,2.372,2.373c1.311,0,2.37-1.066,2.37-2.373
	c0-1.312-1.06-2.377-2.37-2.377C29.847,54.92,28.786,55.985,28.786,57.297"/>
<path fill="#D0857D" d="M25.469,104.95c0.91,0,1.644-0.741,1.644-1.645h2.422c0,2.237-1.817,4.062-4.061,4.062h-8.086v-2.417H25.469
	z"/>
<path fill="none" stroke="#DB5C39" stroke-width="0.75" stroke-miterlimit="10" d="M22.689,46.582
	c3.211,1.596,7.071,2.607,11.697,2.607h10.738v19.955h8.376v-7.856v-0.167h0.018c0.092-4.26,3.556-7.684,7.84-7.684
	c4.338,0,7.854,3.514,7.854,7.851s-3.516,7.856-7.854,7.856c-0.04,0-0.085-0.012-0.12-0.012v7.899c0,0-0.997,17.702,17.694,17.702
	h2.358"/>
</svg>
