<?xml version="1.0" encoding="utf-8"?>
<!-- Generator: Adobe Illustrator 16.0.0, SVG Export Plug-In . SVG Version: 6.00 Build 0)  -->
<!DOCTYPE svg PUBLIC "-//W3C//DTD SVG 1.1//EN" "http://www.w3.org/Graphics/SVG/1.1/DTD/svg11.dtd">
<svg version="1.1" id="Layer_1" xmlns="http://www.w3.org/2000/svg" xmlns:xlink="http://www.w3.org/1999/xlink" x="0px" y="0px"
	 width="106.014px" height="166.172px" viewBox="0 0 106.014 166.172" enable-background="new 0 0 106.014 166.172"
	 xml:space="preserve">
<g>
	<g>
		<g>
			<path fill="none" stroke="#DB5C39" stroke-width="0.779" stroke-miterlimit="10" d="M76.995,61.939
				c-0.597-0.851-1.364-1.575-2.25-2.125c0.653-0.796,1.132-1.738,1.354-2.778"/>
			<path fill="none" stroke="#DB5C39" stroke-width="0.779" stroke-miterlimit="10" d="M75.341,52.447
				c-0.532-0.896-1.275-1.651-2.162-2.203c0.909-0.515,1.734-1.162,2.444-1.917"/>
			<path fill="none" stroke="#DB5C39" stroke-width="0.779" stroke-miterlimit="10" stroke-dasharray="6.4947,4.0592" d="
				M77.747,44.905c0.396-1.075,0.613-2.237,0.613-3.454c0-5.482-4.344-9.941-9.774-10.128"/>
			<path fill="none" stroke="#DB5C39" stroke-width="0.779" stroke-miterlimit="10" d="M66.558,31.463
				c-1.042,0.185-2.025,0.534-2.938,1.003c-0.432-0.958-1.102-1.783-1.936-2.4"/>
			<path fill="none" stroke="#DB5C39" stroke-width="0.779" stroke-miterlimit="10" d="M57.154,28.957
				c-1.056,0.169-2.014,0.62-2.818,1.255c-0.299-1.011-0.755-1.955-1.34-2.802"/>
			<path fill="none" stroke="#DB5C39" stroke-width="0.779" stroke-miterlimit="10" stroke-dasharray="4.876,3.0475" d="
				M50.901,25.211c-1.617-1.238-3.636-1.975-5.838-1.975c-2.845,0-5.39,1.229-7.154,3.183"/>
			<path fill="none" stroke="#DB5C39" stroke-width="0.779" stroke-miterlimit="10" d="M36.977,27.627
				c-0.562,0.861-0.993,1.816-1.263,2.837c-0.814-0.63-1.754-1.105-2.781-1.364"/>
			<path fill="none" stroke="#DB5C39" stroke-width="0.779" stroke-miterlimit="10" d="M27.281,29.972
				c-0.89,0.544-1.657,1.268-2.252,2.121c-0.539-0.894-1.206-1.702-1.976-2.397"/>
			<path fill="none" stroke="#DB5C39" stroke-width="0.779" stroke-miterlimit="10" stroke-dasharray="5.9444,3.7153" d="
				M19.913,27.742c-1.168-0.462-2.44-0.716-3.775-0.716c-5.75,0-10.412,4.658-10.412,10.415c0,1.445,0.304,2.829,0.839,4.083
				c0.81,2.453,2.678,6.894,6.384,10.464"/>
			<path fill="none" stroke="#DB5C39" stroke-width="0.779" stroke-miterlimit="10" d="M14.345,53.215
				c0.789,0.631,1.647,1.219,2.58,1.743l-1.27,2.845"/>
			
				<line fill="none" stroke="#DB5C39" stroke-width="0.779" stroke-miterlimit="10" stroke-dasharray="5.6055,3.5034" x1="14.228" y1="61.003" x2="3.806" y2="84.358"/>
			<polyline fill="none" stroke="#DB5C39" stroke-width="0.779" stroke-miterlimit="10" points="3.093,85.958 1.823,88.803 
				4.939,88.803 			"/>
			
				<line fill="none" stroke="#DB5C39" stroke-width="0.779" stroke-miterlimit="10" stroke-dasharray="3.1214,1.9509" x1="6.89" y1="88.803" x2="10.987" y2="88.803"/>
			<polyline fill="none" stroke="#DB5C39" stroke-width="0.779" stroke-miterlimit="10" points="11.962,88.803 15.078,88.803 
				15.078,91.919 			"/>
			<polyline fill="none" stroke="#DB5C39" stroke-width="0.779" stroke-miterlimit="10" stroke-dasharray="6.3307,3.9567" points="
				15.078,95.875 15.078,98.36 15.078,101.276 15.078,103.143 15.078,105.704 15.078,124.76 			"/>
			<polyline fill="none" stroke="#DB5C39" stroke-width="0.779" stroke-miterlimit="10" points="15.078,126.738 15.078,129.854 
				15.079,129.854 15.079,129.979 18.195,129.979 			"/>
			<path fill="none" stroke="#DB5C39" stroke-width="0.779" stroke-miterlimit="10" stroke-dasharray="5.5085,3.4428" d="
				M21.637,129.979h3.894c0,0,4.99,0.627,4.99,4.992v4.558"/>
			<polyline fill="none" stroke="#DB5C39" stroke-width="0.779" stroke-miterlimit="10" points="30.521,141.25 30.521,144.333 
				30.521,144.366 30.507,144.366 30.427,144.366 33.542,144.366 			"/>
			
				<line fill="none" stroke="#DB5C39" stroke-width="0.779" stroke-miterlimit="10" stroke-dasharray="7.2342,4.5214" x1="38.064" y1="144.366" x2="59.314" y2="144.366"/>
			<polyline fill="none" stroke="#DB5C39" stroke-width="0.779" stroke-miterlimit="10" points="61.574,144.366 64.691,144.366 
				64.679,144.366 64.679,141.25 			"/>
			
				<line fill="none" stroke="#DB5C39" stroke-width="0.779" stroke-miterlimit="10" stroke-dasharray="6.3101,3.9438" x1="64.679" y1="137.306" x2="64.679" y2="98.262"/>
			<path fill="none" stroke="#DB5C39" stroke-width="0.779" stroke-miterlimit="10" d="M64.679,96.291v-3.116h2.029v-0.027
				c1.085-0.059,2.064-0.518,2.788-1.232"/>
			<path fill="none" stroke="#DB5C39" stroke-width="0.779" stroke-miterlimit="10" d="M70.407,87.196
				c-0.418-0.961-1.181-1.737-2.131-2.18c1.032-0.248,1.972-0.732,2.758-1.393"/>
			<path fill="none" stroke="#DB5C39" stroke-width="0.779" stroke-miterlimit="10" stroke-dasharray="3.5232,2.202" d="
				M72.464,81.96c0.612-1.009,0.965-2.193,0.965-3.462c0-0.335-0.024-0.665-0.072-0.987"/>
			<path fill="none" stroke="#DB5C39" stroke-width="0.779" stroke-miterlimit="10" d="M73.105,76.435
				c-0.326-1.006-0.883-1.908-1.605-2.644c1.064-0.104,2.065-0.426,2.956-0.919"/>
			<path fill="none" stroke="#DB5C39" stroke-width="0.779" stroke-miterlimit="10" stroke-dasharray="5.6179,3.5112" d="
				M77.035,70.535c0.836-1.212,1.325-2.68,1.325-4.267c0-0.983-0.188-1.92-0.529-2.779"/>
		</g>
	</g>
</g>
<path fill="#2E3D49" d="M23.177,63.712c0,1.019,0.826,1.849,1.848,1.849s1.847-0.83,1.847-1.849c0-1.021-0.825-1.851-1.847-1.851
	S23.177,62.69,23.177,63.712"/>
<path fill="#D0857D" d="M20.594,100.833c0.709,0,1.28-0.578,1.28-1.281h1.887c0,1.744-1.416,3.164-3.163,3.164h-6.299v-1.883H20.594
	z"/>
<path fill="none" stroke="#DB5C39" stroke-width="0.5842" stroke-miterlimit="10" d="M18.428,55.365
	c2.501,1.244,5.509,2.031,9.112,2.031h8.364v15.545h6.524v-6.12v-0.13h0.014c0.071-3.318,2.77-5.986,6.107-5.986
	c3.379,0,6.117,2.738,6.117,6.116s-2.738,6.12-6.117,6.12c-0.031,0-0.066-0.01-0.094-0.01v6.153c0,0-0.777,13.791,13.783,13.791
	h1.838"/>
</svg>
