<?xml version="1.0" encoding="utf-8"?>
<!-- Generator: Adobe Illustrator 16.0.0, SVG Export Plug-In . SVG Version: 6.00 Build 0)  -->
<!DOCTYPE svg PUBLIC "-//W3C//DTD SVG 1.1//EN" "http://www.w3.org/Graphics/SVG/1.1/DTD/svg11.dtd">
<svg version="1.1" id="Layer_1" xmlns="http://www.w3.org/2000/svg" xmlns:xlink="http://www.w3.org/1999/xlink" x="0px" y="0px"
	 width="93.491px" height="458.264px" viewBox="0 0 93.491 458.264" enable-background="new 0 0 93.491 458.264"
	 xml:space="preserve">
<g>
	<g>
		<path fill="#F8B69C" d="M52.22,8.095l8.622,30.751h-5.207V60.71h-8.473c0,0-4.045,0.505-4.045,4.046c0,1.519,0,14.03,0,20.1v7.083
			H23.729v-4.553V7.462h27.985L52.22,8.095z"/>
		<path fill="#477838" d="M50.823,27.576c0,0.823-0.666,1.487-1.486,1.487c-0.817,0-1.486-0.664-1.486-1.487
			c0-0.819,0.668-1.484,1.486-1.484C50.157,26.092,50.823,26.757,50.823,27.576z"/>
		<path fill="#F28A82" d="M52.412,48.283c-0.217,0-0.391-0.175-0.391-0.39h-1.518c0,1.051,0.855,1.907,1.909,1.907h3.251v-1.517
			H52.412z"/>
		<path fill="#7C3C1A" d="M10.112,0v78.027c0,0,4.891,0,9.713,0c14.626,0,13.847-13.848,13.847-13.848V34.564
			c-2.752-0.004-4.986-2.239-4.986-4.996c0-2.757,2.237-4.995,4.994-4.995c2.187,0,4.027,1.416,4.704,3.373l0.064-0.207
			c3.193-0.238,5.714-2.806,5.866-6.021h0.03v-3.98c1.426,0,3.206,0,5.445,0c4.966,0,8.805-1.493,11.753-3.613
			C68.753,8.938,57.804,0,57.804,0H10.112z"/>
	</g>
</g>
<g>
	<path fill="#B25C27" d="M82.715,447.225h-8.546c-3.771-0.928-7.089-3.006-9.562-5.848c-1.862-2.143-3.241-4.717-3.964-7.557
		v-16.639l-0.427-0.092h-12.8v21.033v7.033v2.26v2.264v4.885h45.512C91.496,450.297,87.465,447.225,82.715,447.225z"/>
	<path fill="#34383A" d="M47.416,458h13.227v-1.285v-2.141L66.516,458h26.975c0-1.205-0.201-2.355-0.563-3.436H47.416v2.15V458z"/>
</g>
<g>
	<path fill="#C0772A" d="M54.516,447.225h-8.544c-3.775-0.928-7.093-3.006-9.562-5.848c-1.864-2.143-3.244-4.717-3.97-7.557v-16.639
		l-0.425-0.092H19.213v21.033v7.033v2.26v2.264v4.885h45.514C63.292,450.297,59.264,447.225,54.516,447.225z"/>
	<path fill="#34383A" d="M19.213,458H32.44v-1.285v-2.141L38.315,458H65.29c0-1.205-0.199-2.355-0.563-3.436H19.213v2.15V458z"/>
</g>
<g>
	<path fill="#F8B69C" d="M66.581,225.219c-0.006,0-0.01,0.004-0.016,0.004v-0.791v-12.826v-83.485H50.036v83.485v12.826v11.078
		h0.034c-0.006,0.115-0.034,0.221-0.034,0.334c0,4.57,3.707,8.271,8.273,8.271c4.569,0,8.271-3.701,8.271-8.271
		c0-0.113-0.03-0.219-0.034-0.334h0.018v-1.555c0.006,0,0.01,0,0.016,0c2.411,0,4.365-1.953,4.365-4.365
		S68.991,225.219,66.581,225.219z"/>
	<rect x="50.036" y="128.121" opacity="0.4" fill="#B78D7E" width="16.528" height="6.206"/>
</g>
<g>
	<rect x="12.661" y="220.492" fill="#2D7994" width="20.292" height="213.18"/>
	<path fill="#1B6478" d="M24.075,307.279v22.809v6.523v3.523c0,1.293,1.051,2.346,2.348,2.346h6.53v-35.201H24.075z"/>
</g>
<g>
	<rect x="40.862" y="220.492" fill="#2D7994" width="20.29" height="213.18"/>
	<path fill="#1B6478" d="M52.275,307.279v22.809v6.523v3.523c0,1.293,1.051,2.346,2.348,2.346h6.53v-35.201H52.275z"/>
</g>
<path fill="#FFFFFF" d="M59.777,81.726H48.53h-5.386h-0.008c-0.002,5.352-4.342,9.688-9.695,9.688c-5.354,0-9.693-4.336-9.697-9.688
	h-0.222H11.779H6.888c-3.786,0-6.856,3.068-6.856,6.855L0,128.97h11.769v17.771h26.354V128.97H48.53v-0.849h15.448h2.652v-22.698
	v-7.375v-9.466C66.629,84.794,63.562,81.726,59.777,81.726z"/>
<rect x="24.269" y="118.461" fill="#FFFFFF" width="36.883" height="56.558"/>
<rect x="38.124" y="94.572" fill="#FFFFFF" width="5.058" height="56.174"/>
<path fill="#2D7994" d="M61.142,121.821c0-1.376-0.384-2.65-1.003-3.777l0.008-0.06l-7.243-17.928V81.726h-5.756v18.331H23.733
	V81.726H17.98v18.331l-1.452,28.86v7.57l-4.759,10.254v87.696h49.373v-92.189v-5.761V121.821L61.142,121.821L61.142,121.821z"/>
<path fill="#1B6478" d="M28.322,108.457v4.795v4.362v2.354c0,0.868,0.705,1.571,1.573,1.571h14.326c0.868,0,1.568-0.703,1.568-1.571
	v-2.354v-4.362v-4.795H28.322z"/>
<g>
	<path fill="#F8B69C" d="M16.541,225.977c-0.004,0-0.008,0.002-0.012,0.002v-0.791v-12.826v-83.484H0v83.484v12.826v11.078h0.034
		C0.028,236.381,0,236.488,0,236.6c0,4.57,3.703,8.273,8.271,8.273c4.567,0,8.27-3.703,8.27-8.273c0-0.111-0.03-0.219-0.034-0.334
		h0.021v-1.555c0.004,0,0.008,0,0.012,0c2.415,0,4.37-1.955,4.37-4.365C20.91,227.934,18.955,225.977,16.541,225.977z"/>
	<rect y="128.892" opacity="0.4" fill="#B78D7E" width="16.528" height="6.206"/>
</g>
</svg>
