<?xml version="1.0" encoding="UTF-8" standalone="no"?>
<!-- Created with Inkscape (http://www.inkscape.org/) -->

<svg
   xmlns:dc="http://purl.org/dc/elements/1.1/"
   xmlns:cc="http://creativecommons.org/ns#"
   xmlns:rdf="http://www.w3.org/1999/02/22-rdf-syntax-ns#"
   xmlns:svg="http://www.w3.org/2000/svg"
   xmlns="http://www.w3.org/2000/svg"
   xmlns:sodipodi="http://sodipodi.sourceforge.net/DTD/sodipodi-0.dtd"
   xmlns:inkscape="http://www.inkscape.org/namespaces/inkscape"
   width="181"
   height="266"
   id="svg2"
   version="1.1"
   inkscape:version="0.48.4 r9939"
   sodipodi:docname="3l.svg">
  <defs
     id="defs4">
    <inkscape:perspective
       sodipodi:type="inkscape:persp3d"
       inkscape:vp_x="0 : 526.18109 : 1"
       inkscape:vp_y="0 : 1000 : 0"
       inkscape:vp_z="744.09448 : 526.18109 : 1"
       inkscape:persp3d-origin="372.04724 : 350.78739 : 1"
       id="perspective10" />
    <clipPath
       id="clipPath3565"
       clipPathUnits="userSpaceOnUse">
      <path
         id="path3567"
         d="M 0,576 788,576 788,0 0,0 0,576 z"
         inkscape:connector-curvature="0" />
    </clipPath>
    <clipPath
       id="clipPath3485"
       clipPathUnits="userSpaceOnUse">
      <path
         id="path3487"
         d="M 0,576 788,576 788,0 0,0 0,576 z"
         inkscape:connector-curvature="0" />
    </clipPath>
    <clipPath
       id="clipPath3409"
       clipPathUnits="userSpaceOnUse">
      <path
         id="path3411"
         d="M 0,576 788,576 788,0 0,0 0,576 z"
         inkscape:connector-curvature="0" />
    </clipPath>
    <clipPath
       id="clipPath3329"
       clipPathUnits="userSpaceOnUse">
      <path
         id="path3331"
         d="M 0,576 788,576 788,0 0,0 0,576 z"
         inkscape:connector-curvature="0" />
    </clipPath>
    <clipPath
       id="clipPath3249"
       clipPathUnits="userSpaceOnUse">
      <path
         id="path3251"
         d="M 0,576 788,576 788,0 0,0 0,576 z"
         inkscape:connector-curvature="0" />
    </clipPath>
    <clipPath
       id="clipPath3169"
       clipPathUnits="userSpaceOnUse">
      <path
         id="path3171"
         d="M 0,576 788,576 788,0 0,0 0,576 z"
         inkscape:connector-curvature="0" />
    </clipPath>
    <clipPath
       id="clipPath3089"
       clipPathUnits="userSpaceOnUse">
      <path
         id="path3091"
         d="M 0,576 788,576 788,0 0,0 0,576 z"
         inkscape:connector-curvature="0" />
    </clipPath>
    <clipPath
       id="clipPath3013"
       clipPathUnits="userSpaceOnUse">
      <path
         id="path3015"
         d="M 0,576 788,576 788,0 0,0 0,576 z"
         inkscape:connector-curvature="0" />
    </clipPath>
    <clipPath
       id="clipPath2933"
       clipPathUnits="userSpaceOnUse">
      <path
         id="path2935"
         d="M 0,576 788,576 788,0 0,0 0,576 z"
         inkscape:connector-curvature="0" />
    </clipPath>
    <clipPath
       id="clipPath2853"
       clipPathUnits="userSpaceOnUse">
      <path
         id="path2855"
         d="M 0,576 788,576 788,0 0,0 0,576 z"
         inkscape:connector-curvature="0" />
    </clipPath>
    <inkscape:perspective
       id="perspective2845"
       inkscape:persp3d-origin="0.5 : 0.33333333 : 1"
       inkscape:vp_z="1 : 0.5 : 1"
       inkscape:vp_y="0 : 1000 : 0"
       inkscape:vp_x="0 : 0.5 : 1"
       sodipodi:type="inkscape:persp3d" />
  </defs>
  <sodipodi:namedview
     id="base"
     pagecolor="#ffffff"
     bordercolor="#666666"
     borderopacity="1.0"
     inkscape:pageopacity="0.0"
     inkscape:pageshadow="2"
     inkscape:zoom="0.98994949"
     inkscape:cx="-195.34982"
     inkscape:cy="132.80926"
     inkscape:document-units="px"
     inkscape:current-layer="layer1"
     showgrid="false"
     inkscape:window-width="1871"
     inkscape:window-height="1056"
     inkscape:window-x="49"
     inkscape:window-y="24"
     inkscape:window-maximized="1"
     fit-margin-top="0"
     fit-margin-left="0"
     fit-margin-right="0"
     fit-margin-bottom="0"
     showguides="true"
     inkscape:guide-bbox="true">
    <sodipodi:guide
       orientation="1,0"
       position="91.923882,391.93919"
       id="guide3061" />
  </sodipodi:namedview>
  <metadata
     id="metadata7">
    <rdf:RDF>
      <cc:Work
         rdf:about="">
        <dc:format>image/svg+xml</dc:format>
        <dc:type
           rdf:resource="http://purl.org/dc/dcmitype/StillImage" />
        <dc:title></dc:title>
      </cc:Work>
    </rdf:RDF>
  </metadata>
  <g
     inkscape:label="Layer 1"
     inkscape:groupmode="layer"
     id="layer1"
     transform="translate(-474.30796,-385.82668)">
    <g
       id="g2929"
       transform="matrix(-1.0278596,0,0,-1.0278596,955.14842,805.53334)">
      <g
         id="g2931"
         clip-path="url(#clipPath2933)">
        <g
           id="g2937"
           transform="translate(440.2158,259.6953)">
          <path
             d="m 0,0 c 0,0 0.375,-24.066 6.529,-20.707 0,0 -0.597,1.74 -0.25,4.797 0,0 2.176,-2.924 3.692,-2.846 0,0 4.478,1.502 -0.344,6.565 0,0 4.822,-5.063 5.662,-1.731 0.838,3.336 0.838,3.336 -1.818,5.729 0,0 3.506,-4.12 4.293,0.222 0,0 -7.451,11.766 -12.153,14.555 L 0,0 z"
             style="fill:#ffdcad;fill-opacity:1;fill-rule:nonzero;stroke:none"
             id="path2939"
             inkscape:connector-curvature="0" />
        </g>
        <g
           id="g2941"
           transform="translate(399.1865,337.5142)">
          <path
             d="m 0,0 -5.688,-7.584 c 0,0 31.094,-59.536 49.295,-73.565 l 5.309,7.963 c 0,0 -38.678,46.263 -48.916,73.186"
             style="fill:#3a4869;fill-opacity:1;fill-rule:nonzero;stroke:none"
             id="path2943"
             inkscape:connector-curvature="0" />
        </g>
        <g
           id="g2945"
           transform="translate(379.7383,186.0645)">
          <path
             d="m 0,0 10.981,-6.328 c 0,0 -16.311,-34.86 -24.141,-31.994 -7.83,2.865 -9.368,4.201 -5.704,15.009 L 0,0 z"
             style="fill:#99866a;fill-opacity:1;fill-rule:nonzero;stroke:none"
             id="path2947"
             inkscape:connector-curvature="0" />
        </g>
        <g
           id="g2949"
           transform="translate(416.6299,257.8809)">
          <path
             d="m 0,0 c 0,0 -47.401,-29.199 -46.263,-38.678 1.137,-9.48 15.926,-33.75 15.926,-33.75 l -10.996,-7.205 -18.582,46.264 c 0,0 -2.654,10.238 7.963,16.685 L -6.447,10.998 0,0 z"
             style="fill:#3a4869;fill-opacity:1;fill-rule:nonzero;stroke:none"
             id="path2951"
             inkscape:connector-curvature="0" />
        </g>
        <g
           id="g2953"
           transform="translate(398.8066,255.2266)">
          <path
             d="m 0,0 c 0,0 6.069,-43.988 28.062,-74.324 l 10.617,1.517 c 0,0 -30.334,52.33 -28.061,76.979 L 0,0 z"
             style="fill:#4c71a0;fill-opacity:1;fill-rule:nonzero;stroke:none"
             id="path2955"
             inkscape:connector-curvature="0" />
        </g>
        <g
           id="g2957"
           transform="translate(402.4902,352.9995)">
          <path
             d="m 0,0 -32.805,-8.446 c 0,0 5.269,-73.186 16.818,-93.708 0,0 24.201,11.449 32.398,14.084 0,0 -23.361,33.958 -16.411,88.07"
             style="fill:#7d9ed2;fill-opacity:1;fill-rule:nonzero;stroke:none"
             id="path2959"
             inkscape:connector-curvature="0" />
        </g>
        <g
           id="g2961"
           transform="translate(416.124,371.3901)">
          <path
             d="m 0,0 c 0,-19.408 -17.09,-35.141 -38.173,-35.141 -21.082,0 -38.174,15.733 -38.174,35.141 0,19.406 17.092,35.139 38.174,35.139 C -17.09,35.139 0,19.406 0,0"
             style="fill:#ffdcad;fill-opacity:1;fill-rule:nonzero;stroke:none"
             id="path2963"
             inkscape:connector-curvature="0" />
        </g>
        <g
           id="g2965"
           transform="translate(423.708,367.8491)">
          <path
             d="m 0,0 c 0,-3.211 -2.717,-5.814 -6.066,-5.814 -3.352,0 -6.069,2.603 -6.069,5.814 0,3.211 2.717,5.814 6.069,5.814 C -2.717,5.814 0,3.211 0,0"
             style="fill:#ffdcad;fill-opacity:1;fill-rule:nonzero;stroke:none"
             id="path2967"
             inkscape:connector-curvature="0" />
        </g>
        <g
           id="g2969"
           transform="translate(352.418,374.2446)">
          <path
             d="m 0,0 c 0,-3.532 -2.529,-6.396 -5.647,-6.396 -3.119,0 -5.647,2.864 -5.647,6.396 0,3.532 2.528,6.396 5.647,6.396 C -2.529,6.396 0,3.532 0,0"
             style="fill:#ffffff;fill-opacity:1;fill-rule:nonzero;stroke:none"
             id="path2971"
             inkscape:connector-curvature="0" />
        </g>
        <g
           id="g2973"
           transform="translate(372.6426,371.1362)">
          <path
             d="m 0,0 c 0,-3.909 -2.943,-7.078 -6.573,-7.078 -3.631,0 -6.573,3.169 -6.573,7.078 0,3.909 2.942,7.078 6.573,7.078 C -2.943,7.078 0,3.909 0,0"
             style="fill:#ffffff;fill-opacity:1;fill-rule:nonzero;stroke:none"
             id="path2975"
             inkscape:connector-curvature="0" />
        </g>
        <g
           id="g2977"
           transform="translate(348.8784,374.6753)">
          <path
             d="m 0,0 c 0,-1.955 -1.132,-3.539 -2.528,-3.539 -1.396,0 -2.528,1.584 -2.528,3.539 0,1.955 1.132,3.539 2.528,3.539 C -1.132,3.539 0,1.955 0,0"
             style="fill:#594334;fill-opacity:1;fill-rule:nonzero;stroke:none"
             id="path2979"
             inkscape:connector-curvature="0" />
        </g>
        <g
           id="g2981"
           transform="translate(368.5972,370.7573)">
          <path
             d="m 0,0 c 0,-1.605 -1.132,-2.908 -2.528,-2.908 -1.396,0 -2.528,1.303 -2.528,2.908 0,1.605 1.132,2.906 2.528,2.906 C -1.132,2.906 0,1.605 0,0"
             style="fill:#594334;fill-opacity:1;fill-rule:nonzero;stroke:none"
             id="path2983"
             inkscape:connector-curvature="0" />
        </g>
        <g
           id="g2985"
           transform="translate(342.6406,384.7515)">
          <path
             d="m 0,0 c 0,0 2.698,1.553 6.238,3.574 3.539,2.024 -1.264,-0.07 0,-3.574 0,0 -0.505,-0.725 3.539,2.184 l 1.77,-6.295 c 0,0 0.505,4.652 5.308,6.675 0,0 -1.769,-6.019 -1.01,-6.675 0.758,-0.657 1.77,4.4 5.056,6.422 l 3.286,2.022 c 0,0 -2.528,-4.044 0,-6.572 2.528,-2.529 3.792,0.883 4.551,2.337 0.758,1.455 2.274,-3.349 2.527,-6.635 0.254,-3.286 4.045,2.426 4.045,2.426 0,0 2.023,1.35 2.276,-3.446 l 6.32,0 -1.77,-6.437 5.056,5.434 1.264,-8.342 5.309,6.826 0,-6.826 6.573,5.814 2.528,-8.09 6.067,6.826 2.275,-2.781 2.275,4.045 c 0,0 -1.011,26.799 -33.875,32.865 0,0 -27.897,3.974 -39.608,-21.777"
             style="fill:#594334;fill-opacity:1;fill-rule:nonzero;stroke:none"
             id="path2987"
             inkscape:connector-curvature="0" />
        </g>
        <g
           id="g2989"
           transform="translate(346.7715,351.1284)">
          <path
             d="m 0,0 c 0,0 18.792,-5.344 25.871,0 0,0 -9.387,-11.736 -18.092,-7.494 0,0 -6.043,5.029 -7.779,7.494"
             style="fill:#cd9db0;fill-opacity:1;fill-rule:nonzero;stroke:none"
             id="path2991"
             inkscape:connector-curvature="0" />
        </g>
        <g
           id="g2993"
           transform="translate(347.6973,361.7817)">
          <path
             d="m 0,0 c 0,-2.095 -2.264,-3.792 -5.057,-3.792 -2.792,0 -5.056,1.697 -5.056,3.792 0,2.095 2.264,3.792 5.056,3.792 C -2.264,3.792 0,2.095 0,0"
             style="fill:#ffdcad;fill-opacity:1;fill-rule:nonzero;stroke:none"
             id="path2995"
             inkscape:connector-curvature="0" />
        </g>
        <g
           id="g2997"
           transform="translate(429.2002,186.8535)">
          <path
             d="m 0,0 11.016,-6.264 c 0,0 -16.11,-34.951 -23.957,-32.129 -7.848,2.821 -9.391,4.145 -5.791,14.975 L 0,0 z"
             style="fill:#99866a;fill-opacity:1;fill-rule:nonzero;stroke:none"
             id="path2999"
             inkscape:connector-curvature="0" />
        </g>
        <g
           id="g3001"
           transform="translate(376.0547,327.2759)">
          <path
             d="m 0,0 -15.547,-73.186 9.48,-2.275 L 7.963,-2.654 0,0 z"
             style="fill:#4c71a0;fill-opacity:1;fill-rule:nonzero;stroke:none"
             id="path3003"
             inkscape:connector-curvature="0" />
        </g>
        <g
           id="g3005"
           transform="translate(361.3071,253.9863)">
          <path
             d="m 0,0 c 0,0 -12.766,-20.404 -5.775,-20.928 0,0 0.444,1.785 2.397,4.162 0,0 0.237,-3.638 1.553,-4.394 0,0 4.574,-1.176 3.28,5.695 0,0 1.294,-6.871 3.811,-4.529 2.516,2.344 2.516,2.346 1.587,5.797 0,0 0.704,-5.366 3.725,-2.145 0,0 0.14,13.92 -2.289,18.821 L 0,0 z"
             style="fill:#ffdcad;fill-opacity:1;fill-rule:nonzero;stroke:none"
             id="path3007"
             inkscape:connector-curvature="0" />
        </g>
      </g>
    </g>
  </g>
</svg>
