<?xml version="1.0" encoding="UTF-8" standalone="no"?>
<!-- Generator: Adobe Illustrator 16.0.0, SVG Export Plug-In . SVG Version: 6.00 Build 0)  -->

<svg
   xmlns:dc="http://purl.org/dc/elements/1.1/"
   xmlns:cc="http://creativecommons.org/ns#"
   xmlns:rdf="http://www.w3.org/1999/02/22-rdf-syntax-ns#"
   xmlns:svg="http://www.w3.org/2000/svg"
   xmlns="http://www.w3.org/2000/svg"
   xmlns:sodipodi="http://sodipodi.sourceforge.net/DTD/sodipodi-0.dtd"
   xmlns:inkscape="http://www.inkscape.org/namespaces/inkscape"
   version="1.1"
   id="Layer_1"
   x="0px"
   y="0px"
   width="102.24px"
   height="458.264px"
   viewBox="0 0 102.24 458.264"
   enable-background="new 0 0 102.24 458.264"
   xml:space="preserve"
   inkscape:version="0.48.4 r9939"
   sodipodi:docname="fl.svg"><metadata
     id="metadata61"><rdf:RDF><cc:Work
         rdf:about=""><dc:format>image/svg+xml</dc:format><dc:type
           rdf:resource="http://purl.org/dc/dcmitype/StillImage" /></cc:Work></rdf:RDF></metadata><defs
     id="defs59" /><sodipodi:namedview
     pagecolor="#ffffff"
     bordercolor="#666666"
     borderopacity="1"
     objecttolerance="10"
     gridtolerance="10"
     guidetolerance="10"
     inkscape:pageopacity="0"
     inkscape:pageshadow="2"
     inkscape:window-width="1871"
     inkscape:window-height="1056"
     id="namedview57"
     showgrid="false"
     inkscape:zoom="0.51498699"
     inkscape:cx="51.119999"
     inkscape:cy="229.132"
     inkscape:window-x="1649"
     inkscape:window-y="24"
     inkscape:window-maximized="1"
     inkscape:current-layer="Layer_1" /><g
     id="g3038"
     transform="matrix(-1,0,0,1,102.241,0)"><g
       id="g3"><g
         id="g5"><path
           id="path7"
           d="M 93.149,449.127 C 93.013,449.127 92.878,449.13 92.745,449.139 L 92.744,449.127 H 83.713 C 75.348,443.219 69.883,433.479 69.883,422.458 H 69.821 V 380.632 H 54.139 V 422.458 V 423.573 V 430.944 V 440.44 V 458.217 H 63.964 V 447.238 L 74.068,458.217 H 84.059 H 93.555 H 102.241 C 102.24,453.196 98.17,449.127 93.149,449.127 z"
           inkscape:connector-curvature="0"
           style="fill:#2e373e" /><rect
           id="rect9"
           height="83.206001"
           width="15.683"
           y="297.42599"
           x="54.139"
           style="fill:#f8b69c" /></g><rect
         id="rect11"
         height="5.8839998"
         width="15.683"
         y="326.77399"
         x="54.139"
         style="opacity:0.4;fill:#b78d7e" /></g><g
       id="g13"><g
         id="g15"><path
           id="path17"
           d="M 61.634,449.172 C 61.496,449.172 61.363,449.177 61.229,449.184 V 449.172 H 52.196 C 43.831,443.265 38.368,433.525 38.368,422.507 H 38.358 V 380.632 H 22.672 V 422.507 H 22.623 V 430.99 V 440.486 V 458.263 H 32.448 V 447.284 L 42.548,458.263 H 52.543 H 62.038 H 70.725 C 70.723,453.242 66.654,449.172 61.634,449.172 z"
           inkscape:connector-curvature="0"
           style="fill:#3c474d" /><rect
           id="rect19"
           height="83.206001"
           width="15.686"
           y="297.42599"
           x="22.672001"
           style="fill:#f8b69c" /></g><rect
         id="rect21"
         height="5.8839998"
         width="15.687"
         y="326.77399"
         x="22.672001"
         style="opacity:0.4;fill:#b78d7e" /></g><path
       id="path23"
       d="M 72.309,229.91 C 72.303,229.91 72.299,229.915 72.294,229.915 V 229.161 V 216.99 V 128.444 H 56.613 V 216.99 V 229.161 V 239.675 H 56.646 C 56.64,239.782 56.613,239.884 56.613,239.991 C 56.613,244.324 60.126,247.84 64.46,247.84 C 68.795,247.84 72.309,244.324 72.309,239.991 C 72.309,239.884 72.28,239.782 72.276,239.675 H 72.294 V 238.199 C 72.299,238.199 72.303,238.199 72.309,238.199 C 74.596,238.199 76.454,236.343 76.454,234.053 C 76.454,231.764 74.596,229.91 72.309,229.91 z"
       inkscape:connector-curvature="0"
       style="fill:#f8b69c" /><rect
       id="rect25"
       height="5.8870001"
       width="15.683"
       y="129.011"
       x="56.612999"
       style="opacity:0.4;fill:#b78d7e" /><g
       id="g27"><path
         id="path29"
         d="M 59.71,7.681 L 70.673,40.329 H 62.95 V 57.61 H 54.91 C 54.91,57.61 51.072,58.089 51.072,61.449 C 51.072,62.89 51.072,74.763 51.072,80.523 V 87.243 H 32.674 V 82.923 V 7.081 H 59.23 L 59.71,7.681 z"
         inkscape:connector-curvature="0"
         style="fill:#f8b69c" /><path
         id="path31"
         d="M 58.384,26.167 C 58.384,26.948 57.752,27.578 56.974,27.578 C 56.199,27.578 55.563,26.948 55.563,26.167 C 55.563,25.389 56.198,24.759 56.974,24.759 C 57.752,24.759 58.384,25.39 58.384,26.167 z"
         inkscape:connector-curvature="0"
         style="fill:#2f3e4a" /><path
         id="path33"
         d="M 59.892,45.817 C 59.686,45.817 59.522,45.65 59.522,45.447 H 58.08 C 58.08,46.444 58.893,47.257 59.892,47.257 H 62.977 V 45.817 H 59.892 z"
         inkscape:connector-curvature="0"
         style="fill:#f28a82" /><path
         id="path35"
         d="M 19.753,0 V 74.042 C 19.753,74.042 24.393,74.042 28.97,74.042 C 42.849,74.042 42.11,60.901 42.11,60.901 V 32.799 C 39.498,32.795 37.379,30.674 37.379,28.058 C 37.379,25.442 39.501,23.319 42.117,23.319 C 44.192,23.319 45.938,24.662 46.581,26.519 L 46.642,26.323 C 49.672,26.096 52.064,23.661 52.207,20.609 H 52.236 V 16.832 C 53.589,16.832 55.278,16.832 57.403,16.832 C 73.64,16.832 77.184,0 77.184,0 H 19.753 z"
         inkscape:connector-curvature="0"
         style="fill:#c2692a" /></g><path
       id="path37"
       d="M 74.601,112.847 L 74.608,112.839 L 73.372,110.923 V 106.667 V 99.667 V 90.684 C 73.372,87.092 70.462,84.179 66.87,84.179 H 56.2 H 51.085 H 32.466 H 21.321 H 16.682 C 13.089,84.179 10.176,87.092 10.176,90.684 V 100.476 H 10.146 V 129.012 H 25.903 V 172.709 H 33.175 H 56.198 H 68.174 V 130.507 C 73.369,129.813 77.376,125.375 77.376,119.991 C 77.376,117.236 76.319,114.734 74.601,112.847 z"
       inkscape:connector-curvature="0"
       style="fill:#4c789c" /><polygon
       id="polygon39"
       points="51.804,170.064 46.911,170.064 42.6,170.064 37.709,170.064 21.397,170.064 0,326.774 37.709,326.774 51.804,326.774 89.513,326.774 68.115,170.064 "
       style="fill:#5b4c71" /><rect
       id="rect41"
       height="20.393"
       width="39.456001"
       y="149.674"
       x="28.719"
       style="fill:#5b4c71" /><rect
       id="rect43"
       height="20.604"
       width="42.347"
       y="149.674"
       x="25.827999"
       style="fill:#2f3e4a" /><polygon
       id="polygon45"
       points="46.322,99.64 46.322,149.674 51.122,149.674 51.122,107.399 51.122,96.37 51.122,84.179 32.466,84.179 "
       style="fill:#ffffff" /><path
       id="path47"
       d="M 25.842,229.91 C 25.837,229.91 25.833,229.915 25.826,229.915 V 229.161 V 216.99 V 129.011 H 10.146 V 216.99 V 229.161 V 239.675 H 10.178 C 10.173,239.782 10.146,239.884 10.146,239.991 C 10.146,244.324 13.66,247.84 17.993,247.84 C 22.328,247.84 25.842,244.324 25.842,239.991 C 25.842,239.884 25.814,239.782 25.809,239.675 H 25.826 V 238.199 C 25.832,238.199 25.836,238.199 25.842,238.199 C 28.129,238.199 29.987,236.343 29.987,234.053 C 29.986,231.764 28.129,229.91 25.842,229.91 z"
       inkscape:connector-curvature="0"
       style="fill:#f8b69c" /><rect
       id="rect49"
       height="5.8870001"
       width="15.683"
       y="129.011"
       x="10.146"
       style="opacity:0.4;fill:#b78d7e" /><g
       id="g51"><ellipse
         id="ellipse53"
         ry="3.5869999"
         rx="2.8529999"
         cy="88.625"
         cx="43.761002"
         stroke-miterlimit="10"
         sodipodi:cx="43.761002"
         sodipodi:cy="88.625"
         sodipodi:rx="2.8529999"
         sodipodi:ry="3.5869999"
         style="fill:#00af7e;stroke:#bad7ee;stroke-width:0.97829998;stroke-miterlimit:10"
         d="M 46.614002,88.625 C 46.614002,90.606045 45.33667,92.212 43.761002,92.212 C 42.185333,92.212 40.908002,90.606045 40.908002,88.625 C 40.908002,86.643955 42.185333,85.038 43.761002,85.038 C 45.33667,85.038 46.614002,86.643955 46.614002,88.625 z" /><circle
         id="circle55"
         r="0.69400001"
         cy="87.541"
         cx="44.439999"
         sodipodi:cx="44.439999"
         sodipodi:cy="87.541"
         sodipodi:rx="0.69400001"
         sodipodi:ry="0.69400001"
         style="fill:#ffffff"
         d="M 45.133999,87.541 C 45.133999,87.924286 44.823284,88.235 44.439999,88.235 C 44.056713,88.235 43.745999,87.924286 43.745999,87.541 C 43.745999,87.157715 44.056713,86.847 44.439999,86.847 C 44.823284,86.847 45.133999,87.157715 45.133999,87.541 z" /></g></g></svg>