<?xml version="1.0" encoding="UTF-8" standalone="no"?>
<!-- Created with Inkscape (http://www.inkscape.org/) -->

<svg
   xmlns:dc="http://purl.org/dc/elements/1.1/"
   xmlns:cc="http://creativecommons.org/ns#"
   xmlns:rdf="http://www.w3.org/1999/02/22-rdf-syntax-ns#"
   xmlns:svg="http://www.w3.org/2000/svg"
   xmlns="http://www.w3.org/2000/svg"
   xmlns:sodipodi="http://sodipodi.sourceforge.net/DTD/sodipodi-0.dtd"
   xmlns:inkscape="http://www.inkscape.org/namespaces/inkscape"
   width="1052.3622"
   height="744.09448"
   id="svg2"
   version="1.1"
   inkscape:version="0.47 r22583"
   sodipodi:docname="New document 1">
  <defs
     id="defs4">
    <inkscape:perspective
       sodipodi:type="inkscape:persp3d"
       inkscape:vp_x="0 : 526.18109 : 1"
       inkscape:vp_y="0 : 1000 : 0"
       inkscape:vp_z="744.09448 : 526.18109 : 1"
       inkscape:persp3d-origin="372.04724 : 350.78739 : 1"
       id="perspective10" />
    <clipPath
       id="clipPath3565"
       clipPathUnits="userSpaceOnUse">
      <path
         id="path3567"
         d="M 0,576 788,576 788,0 0,0 0,576 z" />
    </clipPath>
    <clipPath
       id="clipPath3485"
       clipPathUnits="userSpaceOnUse">
      <path
         id="path3487"
         d="M 0,576 788,576 788,0 0,0 0,576 z" />
    </clipPath>
    <clipPath
       id="clipPath3409"
       clipPathUnits="userSpaceOnUse">
      <path
         id="path3411"
         d="M 0,576 788,576 788,0 0,0 0,576 z" />
    </clipPath>
    <clipPath
       id="clipPath3329"
       clipPathUnits="userSpaceOnUse">
      <path
         id="path3331"
         d="M 0,576 788,576 788,0 0,0 0,576 z" />
    </clipPath>
    <clipPath
       id="clipPath3249"
       clipPathUnits="userSpaceOnUse">
      <path
         id="path3251"
         d="M 0,576 788,576 788,0 0,0 0,576 z" />
    </clipPath>
    <clipPath
       id="clipPath3169"
       clipPathUnits="userSpaceOnUse">
      <path
         id="path3171"
         d="M 0,576 788,576 788,0 0,0 0,576 z" />
    </clipPath>
    <clipPath
       id="clipPath3089"
       clipPathUnits="userSpaceOnUse">
      <path
         id="path3091"
         d="M 0,576 788,576 788,0 0,0 0,576 z" />
    </clipPath>
    <clipPath
       id="clipPath3013"
       clipPathUnits="userSpaceOnUse">
      <path
         id="path3015"
         d="M 0,576 788,576 788,0 0,0 0,576 z" />
    </clipPath>
    <clipPath
       id="clipPath2933"
       clipPathUnits="userSpaceOnUse">
      <path
         id="path2935"
         d="M 0,576 788,576 788,0 0,0 0,576 z" />
    </clipPath>
    <clipPath
       id="clipPath2853"
       clipPathUnits="userSpaceOnUse">
      <path
         id="path2855"
         d="M 0,576 788,576 788,0 0,0 0,576 z" />
    </clipPath>
    <inkscape:perspective
       id="perspective2845"
       inkscape:persp3d-origin="0.5 : 0.33333333 : 1"
       inkscape:vp_z="1 : 0.5 : 1"
       inkscape:vp_y="0 : 1000 : 0"
       inkscape:vp_x="0 : 0.5 : 1"
       sodipodi:type="inkscape:persp3d" />
  </defs>
  <sodipodi:namedview
     id="base"
     pagecolor="#ffffff"
     bordercolor="#666666"
     borderopacity="1.0"
     inkscape:pageopacity="0.0"
     inkscape:pageshadow="2"
     inkscape:zoom="0.35"
     inkscape:cx="-0.71428571"
     inkscape:cy="520"
     inkscape:document-units="px"
     inkscape:current-layer="layer1"
     showgrid="false"
     inkscape:window-width="1920"
     inkscape:window-height="1083"
     inkscape:window-x="0"
     inkscape:window-y="0"
     inkscape:window-maximized="0" />
  <metadata
     id="metadata7">
    <rdf:RDF>
      <cc:Work
         rdf:about="">
        <dc:format>image/svg+xml</dc:format>
        <dc:type
           rdf:resource="http://purl.org/dc/dcmitype/StillImage" />
        <dc:title></dc:title>
      </cc:Work>
    </rdf:RDF>
  </metadata>
  <g
     inkscape:label="Layer 1"
     inkscape:groupmode="layer"
     id="layer1"
     transform="translate(0,-308.2677)">
    <g
       id="g2849"
       transform="matrix(1.0278596,0,0,-1.0278596,-278.03217,792.27923)">
      <g
         id="g2851"
         clip-path="url(#clipPath2853)">
        <g
           id="g2857"
           transform="translate(456.5059,258.082)">
          <path
             d="m 0,0 c 0,0 16.582,-17.442 18.832,-10.804 0,0 -1.619,0.877 -3.436,3.361 0,0 3.583,-0.676 4.643,0.408 0,0 2.277,4.138 -4.699,4.595 0,0 6.978,-0.456 5.334,2.563 -1.643,3.022 -1.643,3.022 -5.217,2.98 0,0 5.369,-0.654 3.004,3.074 0,0 -13.449,3.602 -18.799,2.469 L 0,0 z"
             style="fill:#ffdcad;fill-opacity:1;fill-rule:nonzero;stroke:none"
             id="path2859" />
        </g>
        <g
           id="g2861"
           transform="translate(447.5508,194.5117)">
          <path
             d="m 0,0 12.621,1.146 c 0,0 6.733,-37.892 -1.32,-40.058 -8.053,-2.162 -10.08,-1.958 -13.307,8.99 L 0,0 z"
             style="fill:#99866a;fill-opacity:1;fill-rule:nonzero;stroke:none"
             id="path2863" />
        </g>
        <g
           id="g2865"
           transform="translate(393.0342,327.8477)">
          <path
             d="m 0,0 c 0,0 35.392,-60.703 69.774,-59.187 l -5.056,-12.639 c 0,0 -63.201,37.92 -68.257,64.717 L 0,0 z"
             style="fill:#3a4869;fill-opacity:1;fill-rule:nonzero;stroke:none"
             id="path2867" />
        </g>
        <g
           id="g2869"
           transform="translate(403.9902,247.1289)">
          <path
             d="m 0,0 -46.092,-35.096 c 0,0 -12.048,-35.391 -12.725,-51.571 l -9.187,0 9.187,61.683 L -14.495,4.847 0,0 z"
             style="fill:#3a4869;fill-opacity:1;fill-rule:nonzero;stroke:none"
             id="path2871" />
        </g>
        <g
           id="g2873"
           transform="translate(345.1733,166.0225)">
          <path
             d="m 0,0 0.926,-12.64 c 0,0 -38.006,-6.066 -40.029,2.022 -2.022,8.091 -1.782,10.113 9.221,13.146 L 0,0 z"
             style="fill:#99866a;fill-opacity:1;fill-rule:nonzero;stroke:none"
             id="path2875" />
        </g>
        <g
           id="g2877"
           transform="translate(384.4014,236.5811)">
          <path
             d="m 0,0 c 0,0 6.654,-49.234 71.372,-50.245 l 4.045,8.09 c 0,0 -29.912,1.516 -37.709,10.871 0,0 -29.045,20.982 -28.785,38.679 L 0,0 z"
             style="fill:#4c71a0;fill-opacity:1;fill-rule:nonzero;stroke:none"
             id="path2879" />
        </g>
        <g
           id="g2881"
           transform="translate(400.625,337.165)">
          <path
             d="m 0,0 -33.557,-4.642 c 0,0 -3.128,-73.311 6,-95.017 0,0 25.352,8.608 33.795,10.288 0,0 -19.328,36.407 -6.238,89.371"
             style="fill:#7d9ed2;fill-opacity:1;fill-rule:nonzero;stroke:none"
             id="path2883" />
        </g>
        <g
           id="g2885"
           transform="translate(416.041,360.459)">
          <path
             d="m 0,0 c 0,-19.407 -17.09,-35.14 -38.172,-35.14 -21.083,0 -38.174,15.733 -38.174,35.14 0,19.407 17.091,35.141 38.174,35.141 C -17.09,35.141 0,19.407 0,0"
             style="fill:#ffdcad;fill-opacity:1;fill-rule:nonzero;stroke:none"
             id="path2887" />
        </g>
        <g
           id="g2889"
           transform="translate(423.627,356.9199)">
          <path
             d="m 0,0 c 0,-3.212 -2.717,-5.814 -6.068,-5.814 -3.35,0 -6.067,2.602 -6.067,5.814 0,3.211 2.717,5.814 6.067,5.814 C -2.717,5.814 0,3.211 0,0"
             style="fill:#ffdcad;fill-opacity:1;fill-rule:nonzero;stroke:none"
             id="path2891" />
        </g>
        <g
           id="g2893"
           transform="translate(352.3359,363.3145)">
          <path
             d="m 0,0 c 0,-3.531 -2.529,-6.395 -5.647,-6.395 -3.119,0 -5.647,2.864 -5.647,6.395 0,3.532 2.528,6.396 5.647,6.396 C -2.529,6.396 0,3.532 0,0"
             style="fill:#ffffff;fill-opacity:1;fill-rule:nonzero;stroke:none"
             id="path2895" />
        </g>
        <g
           id="g2897"
           transform="translate(372.5605,360.2061)">
          <path
             d="m 0,0 c 0,-3.909 -2.943,-7.079 -6.573,-7.079 -3.631,0 -6.573,3.17 -6.573,7.079 0,3.909 2.942,7.079 6.573,7.079 C -2.943,7.079 0,3.909 0,0"
             style="fill:#ffffff;fill-opacity:1;fill-rule:nonzero;stroke:none"
             id="path2899" />
        </g>
        <g
           id="g2901"
           transform="translate(348.7964,363.7451)">
          <path
             d="m 0,0 c 0,-1.954 -1.132,-3.539 -2.528,-3.539 -1.396,0 -2.528,1.585 -2.528,3.539 0,1.955 1.132,3.54 2.528,3.54 C -1.132,3.54 0,1.955 0,0"
             style="fill:#594334;fill-opacity:1;fill-rule:nonzero;stroke:none"
             id="path2903" />
        </g>
        <g
           id="g2905"
           transform="translate(368.5151,359.8271)">
          <path
             d="m 0,0 c 0,-1.606 -1.132,-2.907 -2.528,-2.907 -1.396,0 -2.528,1.301 -2.528,2.907 0,1.605 1.132,2.907 2.528,2.907 C -1.132,2.907 0,1.605 0,0"
             style="fill:#594334;fill-opacity:1;fill-rule:nonzero;stroke:none"
             id="path2907" />
        </g>
        <g
           id="g2909"
           transform="translate(342.5586,373.8223)">
          <path
             d="m 0,0 c 0,0 2.698,1.551 6.238,3.574 3.539,2.023 -1.264,-0.07 0,-3.574 0,0 -0.506,-0.727 3.539,2.183 l 1.77,-6.295 c 0,0 0.505,4.653 5.308,6.675 0,0 -1.769,-6.019 -1.01,-6.675 0.758,-0.657 1.77,4.401 5.056,6.423 l 3.286,2.021 c 0,0 -2.528,-4.043 0,-6.572 2.528,-2.529 3.792,0.883 4.55,2.338 0.759,1.455 2.275,-3.35 2.528,-6.635 0.254,-3.287 4.045,2.425 4.045,2.425 0,0 2.023,1.35 2.276,-3.445 l 6.32,0 -1.77,-6.438 5.056,5.434 1.264,-8.341 5.31,6.825 0,-6.825 6.572,5.814 2.527,-8.09 6.069,6.825 2.275,-2.78 2.273,4.045 c 0,0 -1.011,26.798 -33.874,32.865 C 39.608,21.777 11.711,25.75 0,0"
             style="fill:#594334;fill-opacity:1;fill-rule:nonzero;stroke:none"
             id="path2911" />
        </g>
        <g
           id="g2913"
           transform="translate(346.6895,340.1992)">
          <path
             d="m 0,0 c 0,0 18.792,-5.345 25.871,0 0,0 -9.387,-11.734 -18.092,-7.492 0,0 -6.043,5.027 -7.779,7.492"
             style="fill:#cd9db0;fill-opacity:1;fill-rule:nonzero;stroke:none"
             id="path2915" />
        </g>
        <g
           id="g2917"
           transform="translate(347.6152,350.8516)">
          <path
             d="m 0,0 c 0,-2.094 -2.264,-3.791 -5.057,-3.791 -2.792,0 -5.056,1.697 -5.056,3.791 0,2.096 2.264,3.793 5.056,3.793 C -2.264,3.793 0,2.096 0,0"
             style="fill:#ffdcad;fill-opacity:1;fill-rule:nonzero;stroke:none"
             id="path2919" />
        </g>
        <g
           id="g2921"
           transform="translate(371.0444,325.2881)">
          <path
             d="m 0,0 c 0,0 -31.604,-57.639 -49.806,-60.673 l 5.056,-8.594 c 0,0 38.176,16.656 50.058,64.211 L 0,0 z"
             style="fill:#4c71a0;fill-opacity:1;fill-rule:nonzero;stroke:none"
             id="path2923" />
        </g>
        <g
           id="g2925"
           transform="translate(322.7905,265.001)">
          <path
             d="m 0,0 c 0,0 -24.051,0.88 -21.018,-5.441 0,0 1.769,0.505 4.803,0 0,0 -3.034,-2.022 -3.034,-3.538 0,0 1.265,-4.551 6.574,0 0,0 -5.309,-4.551 -2.023,-5.563 3.286,-1.012 3.287,-1.012 5.815,1.517 0,0 -4.297,-3.288 0,-4.297 0,0 12.134,6.825 15.168,11.376 L 0,0 z"
             style="fill:#ffdcad;fill-opacity:1;fill-rule:nonzero;stroke:none"
             id="path2927" />
        </g>
      </g>
    </g>
    <g
       id="g2929"
       transform="matrix(1.0278596,0,0,-1.0278596,111.96714,803.51304)">
      <g
         id="g2931"
         clip-path="url(#clipPath2933)">
        <g
           id="g2937"
           transform="translate(440.2158,259.6953)">
          <path
             d="m 0,0 c 0,0 0.375,-24.066 6.529,-20.707 0,0 -0.597,1.74 -0.25,4.797 0,0 2.176,-2.924 3.692,-2.846 0,0 4.478,1.502 -0.344,6.565 0,0 4.822,-5.063 5.662,-1.731 0.838,3.336 0.838,3.336 -1.818,5.729 0,0 3.506,-4.12 4.293,0.222 0,0 -7.451,11.766 -12.153,14.555 L 0,0 z"
             style="fill:#ffdcad;fill-opacity:1;fill-rule:nonzero;stroke:none"
             id="path2939" />
        </g>
        <g
           id="g2941"
           transform="translate(399.1865,337.5142)">
          <path
             d="m 0,0 -5.688,-7.584 c 0,0 31.094,-59.536 49.295,-73.565 l 5.309,7.963 c 0,0 -38.678,46.263 -48.916,73.186"
             style="fill:#3a4869;fill-opacity:1;fill-rule:nonzero;stroke:none"
             id="path2943" />
        </g>
        <g
           id="g2945"
           transform="translate(379.7383,186.0645)">
          <path
             d="m 0,0 10.981,-6.328 c 0,0 -16.311,-34.86 -24.141,-31.994 -7.83,2.865 -9.368,4.201 -5.704,15.009 L 0,0 z"
             style="fill:#99866a;fill-opacity:1;fill-rule:nonzero;stroke:none"
             id="path2947" />
        </g>
        <g
           id="g2949"
           transform="translate(416.6299,257.8809)">
          <path
             d="m 0,0 c 0,0 -47.401,-29.199 -46.263,-38.678 1.137,-9.48 15.926,-33.75 15.926,-33.75 l -10.996,-7.205 -18.582,46.264 c 0,0 -2.654,10.238 7.963,16.685 L -6.447,10.998 0,0 z"
             style="fill:#3a4869;fill-opacity:1;fill-rule:nonzero;stroke:none"
             id="path2951" />
        </g>
        <g
           id="g2953"
           transform="translate(398.8066,255.2266)">
          <path
             d="m 0,0 c 0,0 6.069,-43.988 28.062,-74.324 l 10.617,1.517 c 0,0 -30.334,52.33 -28.061,76.979 L 0,0 z"
             style="fill:#4c71a0;fill-opacity:1;fill-rule:nonzero;stroke:none"
             id="path2955" />
        </g>
        <g
           id="g2957"
           transform="translate(402.4902,352.9995)">
          <path
             d="m 0,0 -32.805,-8.446 c 0,0 5.269,-73.186 16.818,-93.708 0,0 24.201,11.449 32.398,14.084 0,0 -23.361,33.958 -16.411,88.07"
             style="fill:#7d9ed2;fill-opacity:1;fill-rule:nonzero;stroke:none"
             id="path2959" />
        </g>
        <g
           id="g2961"
           transform="translate(416.124,371.3901)">
          <path
             d="m 0,0 c 0,-19.408 -17.09,-35.141 -38.173,-35.141 -21.082,0 -38.174,15.733 -38.174,35.141 0,19.406 17.092,35.139 38.174,35.139 C -17.09,35.139 0,19.406 0,0"
             style="fill:#ffdcad;fill-opacity:1;fill-rule:nonzero;stroke:none"
             id="path2963" />
        </g>
        <g
           id="g2965"
           transform="translate(423.708,367.8491)">
          <path
             d="m 0,0 c 0,-3.211 -2.717,-5.814 -6.066,-5.814 -3.352,0 -6.069,2.603 -6.069,5.814 0,3.211 2.717,5.814 6.069,5.814 C -2.717,5.814 0,3.211 0,0"
             style="fill:#ffdcad;fill-opacity:1;fill-rule:nonzero;stroke:none"
             id="path2967" />
        </g>
        <g
           id="g2969"
           transform="translate(352.418,374.2446)">
          <path
             d="m 0,0 c 0,-3.532 -2.529,-6.396 -5.647,-6.396 -3.119,0 -5.647,2.864 -5.647,6.396 0,3.532 2.528,6.396 5.647,6.396 C -2.529,6.396 0,3.532 0,0"
             style="fill:#ffffff;fill-opacity:1;fill-rule:nonzero;stroke:none"
             id="path2971" />
        </g>
        <g
           id="g2973"
           transform="translate(372.6426,371.1362)">
          <path
             d="m 0,0 c 0,-3.909 -2.943,-7.078 -6.573,-7.078 -3.631,0 -6.573,3.169 -6.573,7.078 0,3.909 2.942,7.078 6.573,7.078 C -2.943,7.078 0,3.909 0,0"
             style="fill:#ffffff;fill-opacity:1;fill-rule:nonzero;stroke:none"
             id="path2975" />
        </g>
        <g
           id="g2977"
           transform="translate(348.8784,374.6753)">
          <path
             d="m 0,0 c 0,-1.955 -1.132,-3.539 -2.528,-3.539 -1.396,0 -2.528,1.584 -2.528,3.539 0,1.955 1.132,3.539 2.528,3.539 C -1.132,3.539 0,1.955 0,0"
             style="fill:#594334;fill-opacity:1;fill-rule:nonzero;stroke:none"
             id="path2979" />
        </g>
        <g
           id="g2981"
           transform="translate(368.5972,370.7573)">
          <path
             d="m 0,0 c 0,-1.605 -1.132,-2.908 -2.528,-2.908 -1.396,0 -2.528,1.303 -2.528,2.908 0,1.605 1.132,2.906 2.528,2.906 C -1.132,2.906 0,1.605 0,0"
             style="fill:#594334;fill-opacity:1;fill-rule:nonzero;stroke:none"
             id="path2983" />
        </g>
        <g
           id="g2985"
           transform="translate(342.6406,384.7515)">
          <path
             d="m 0,0 c 0,0 2.698,1.553 6.238,3.574 3.539,2.024 -1.264,-0.07 0,-3.574 0,0 -0.505,-0.725 3.539,2.184 l 1.77,-6.295 c 0,0 0.505,4.652 5.308,6.675 0,0 -1.769,-6.019 -1.01,-6.675 0.758,-0.657 1.77,4.4 5.056,6.422 l 3.286,2.022 c 0,0 -2.528,-4.044 0,-6.572 2.528,-2.529 3.792,0.883 4.551,2.337 0.758,1.455 2.274,-3.349 2.527,-6.635 0.254,-3.286 4.045,2.426 4.045,2.426 0,0 2.023,1.35 2.276,-3.446 l 6.32,0 -1.77,-6.437 5.056,5.434 1.264,-8.342 5.309,6.826 0,-6.826 6.573,5.814 2.528,-8.09 6.067,6.826 2.275,-2.781 2.275,4.045 c 0,0 -1.011,26.799 -33.875,32.865 0,0 -27.897,3.974 -39.608,-21.777"
             style="fill:#594334;fill-opacity:1;fill-rule:nonzero;stroke:none"
             id="path2987" />
        </g>
        <g
           id="g2989"
           transform="translate(346.7715,351.1284)">
          <path
             d="m 0,0 c 0,0 18.792,-5.344 25.871,0 0,0 -9.387,-11.736 -18.092,-7.494 0,0 -6.043,5.029 -7.779,7.494"
             style="fill:#cd9db0;fill-opacity:1;fill-rule:nonzero;stroke:none"
             id="path2991" />
        </g>
        <g
           id="g2993"
           transform="translate(347.6973,361.7817)">
          <path
             d="m 0,0 c 0,-2.095 -2.264,-3.792 -5.057,-3.792 -2.792,0 -5.056,1.697 -5.056,3.792 0,2.095 2.264,3.792 5.056,3.792 C -2.264,3.792 0,2.095 0,0"
             style="fill:#ffdcad;fill-opacity:1;fill-rule:nonzero;stroke:none"
             id="path2995" />
        </g>
        <g
           id="g2997"
           transform="translate(429.2002,186.8535)">
          <path
             d="m 0,0 11.016,-6.264 c 0,0 -16.11,-34.951 -23.957,-32.129 -7.848,2.821 -9.391,4.145 -5.791,14.975 L 0,0 z"
             style="fill:#99866a;fill-opacity:1;fill-rule:nonzero;stroke:none"
             id="path2999" />
        </g>
        <g
           id="g3001"
           transform="translate(376.0547,327.2759)">
          <path
             d="m 0,0 -15.547,-73.186 9.48,-2.275 L 7.963,-2.654 0,0 z"
             style="fill:#4c71a0;fill-opacity:1;fill-rule:nonzero;stroke:none"
             id="path3003" />
        </g>
        <g
           id="g3005"
           transform="translate(361.3071,253.9863)">
          <path
             d="m 0,0 c 0,0 -12.766,-20.404 -5.775,-20.928 0,0 0.444,1.785 2.397,4.162 0,0 0.237,-3.638 1.553,-4.394 0,0 4.574,-1.176 3.28,5.695 0,0 1.294,-6.871 3.811,-4.529 2.516,2.344 2.516,2.346 1.587,5.797 0,0 0.704,-5.366 3.725,-2.145 0,0 0.14,13.92 -2.289,18.821 L 0,0 z"
             style="fill:#ffdcad;fill-opacity:1;fill-rule:nonzero;stroke:none"
             id="path3007" />
        </g>
      </g>
    </g>
    <g
       id="g3009"
       transform="matrix(1.0278596,0,0,-1.0278596,-66.586766,801.70837)">
      <g
         id="g3011"
         clip-path="url(#clipPath3013)">
        <g
           id="g3017"
           transform="translate(387.9863,235.6172)">
          <path
             d="m 0,0 c 0,0 15.287,-18.59 18.006,-12.127 0,0 -1.551,0.986 -3.184,3.594 0,0 3.526,-0.93 4.66,0.076 0,0 2.569,3.963 -4.357,4.92 0,0 6.928,-0.957 5.506,2.174 -1.422,3.131 -1.424,3.131 -4.99,3.347 0,0 5.308,-1.037 3.216,2.85 0,0 -13.156,4.559 -18.572,3.812 L 0,0 z"
             style="fill:#ffdcad;fill-opacity:1;fill-rule:nonzero;stroke:none"
             id="path3019" />
        </g>
        <g
           id="g3021"
           transform="translate(413.3223,189.4629)">
          <path
             d="m 0,0 5.73,11.303 c 0,0 35.682,-14.418 33.241,-22.391 -2.442,-7.973 -3.692,-9.58 -14.682,-6.5 L 0,0 z"
             style="fill:#99866a;fill-opacity:1;fill-rule:nonzero;stroke:none"
             id="path3023" />
        </g>
        <g
           id="g3025"
           transform="translate(378.4492,252.7109)">
          <path
             d="m 0,0 c 0,0 -18.707,-41.965 -15.168,-48.539 3.539,-6.572 44.492,-12.639 62.695,-15.674 l 1.518,12.135 -39.943,11.123 c 0,0 -7.08,-0.504 -7.08,7.584 0,8.092 13.652,30.336 13.652,30.336 L 0,0 z"
             style="fill:#4c71a0;fill-opacity:1;fill-rule:nonzero;stroke:none"
             id="path3027" />
        </g>
        <g
           id="g3029"
           transform="translate(383.9043,174.9941)">
          <path
             d="m 0,0 5.123,-12.375 c 0,0 -33.996,-18.156 -38.631,-10.695 -4.637,7.463 -5.088,9.568 4.326,16.105 L 0,0 z"
             style="fill:#99866a;fill-opacity:1;fill-rule:nonzero;stroke:none"
             id="path3031" />
        </g>
        <g
           id="g3033"
           transform="translate(370.8652,254.2266)">
          <path
             d="m 0,0 c -0.506,-1.516 -23.764,-24.775 -22.247,-30.336 1.517,-5.56 27.809,-54.1 27.809,-54.1 l 9.1,6.069 -21.234,46.513 c 0,0 9.1,9.608 19.718,28.821 L 0,0 z"
             style="fill:#3a4869;fill-opacity:1;fill-rule:nonzero;stroke:none"
             id="path3035" />
        </g>
        <g
           id="g3037"
           transform="translate(396.4727,340.3159)">
          <path
             d="m 0,0 -33.687,-3.57 c 0,0 -5.268,-75.035 3.225,-97.609 0,0 25.601,7.929 34.091,9.349 0,0 -18.262,38.004 -3.629,91.83"
             style="fill:#7d9ed2;fill-opacity:1;fill-rule:nonzero;stroke:none"
             id="path3039" />
        </g>
        <g
           id="g3041"
           transform="translate(365.5859,235.127)">
          <path
             d="m 0,0 c 0,0 -22.105,-9.521 -16.654,-13.93 0,0 1.381,1.217 4.338,2.059 0,0 -1.873,-3.125 -1.223,-4.496 0,0 3.094,-3.569 5.938,2.82 0,0 -2.844,-6.391 0.558,-5.894 3.402,0.496 3.403,0.496 4.602,3.865 0,0 -2.471,-4.811 1.844,-3.885 0,0 8.035,11.373 8.824,16.783 L 0,0 z"
             style="fill:#ffdcad;fill-opacity:1;fill-rule:nonzero;stroke:none"
             id="path3043" />
        </g>
        <g
           id="g3045"
           transform="translate(372.8877,331.0815)">
          <path
             d="m 0,0 c -0.364,1.555 10.112,-10.618 10.112,-10.618 l -9.101,-90.507 -11.123,3.036 c 0,0 13.651,82.921 10.112,98.089"
             style="fill:#4c71a0;fill-opacity:1;fill-rule:nonzero;stroke:none"
             id="path3047" />
        </g>
        <g
           id="g3049"
           transform="translate(414.3477,369.6343)">
          <path
             d="m 0,0 c 0,-19.408 -17.092,-35.141 -38.174,-35.141 -21.082,0 -38.174,15.733 -38.174,35.141 0,19.406 17.092,35.139 38.174,35.139 C -17.092,35.139 0,19.406 0,0"
             style="fill:#ffdcad;fill-opacity:1;fill-rule:nonzero;stroke:none"
             id="path3051" />
        </g>
        <g
           id="g3053"
           transform="translate(421.9316,366.0933)">
          <path
             d="m 0,0 c 0,-3.21 -2.717,-5.813 -6.068,-5.813 -3.35,0 -6.067,2.603 -6.067,5.813 0,3.212 2.717,5.815 6.067,5.815 C -2.717,5.815 0,3.212 0,0"
             style="fill:#ffdcad;fill-opacity:1;fill-rule:nonzero;stroke:none"
             id="path3055" />
        </g>
        <g
           id="g3057"
           transform="translate(350.6406,372.4897)">
          <path
             d="m 0,0 c 0,-3.533 -2.528,-6.396 -5.646,-6.396 -3.12,0 -5.647,2.863 -5.647,6.396 0,3.531 2.527,6.395 5.647,6.395 C -2.528,6.395 0,3.531 0,0"
             style="fill:#ffffff;fill-opacity:1;fill-rule:nonzero;stroke:none"
             id="path3059" />
        </g>
        <g
           id="g3061"
           transform="translate(370.8652,369.3804)">
          <path
             d="m 0,0 c 0,-3.908 -2.942,-7.078 -6.572,-7.078 -3.631,0 -6.574,3.17 -6.574,7.078 0,3.91 2.943,7.078 6.574,7.078 C -2.942,7.078 0,3.91 0,0"
             style="fill:#ffffff;fill-opacity:1;fill-rule:nonzero;stroke:none"
             id="path3063" />
        </g>
        <g
           id="g3065"
           transform="translate(347.1016,372.9194)">
          <path
             d="m 0,0 c 0,-1.954 -1.132,-3.539 -2.527,-3.539 -1.397,0 -2.529,1.585 -2.529,3.539 0,1.955 1.132,3.539 2.529,3.539 C -1.132,3.539 0,1.955 0,0"
             style="fill:#594334;fill-opacity:1;fill-rule:nonzero;stroke:none"
             id="path3067" />
        </g>
        <g
           id="g3069"
           transform="translate(366.8203,369.0015)">
          <path
             d="m 0,0 c 0,-1.605 -1.132,-2.908 -2.527,-2.908 -1.397,0 -2.529,1.303 -2.529,2.908 0,1.605 1.132,2.907 2.529,2.907 C -1.132,2.907 0,1.605 0,0"
             style="fill:#594334;fill-opacity:1;fill-rule:nonzero;stroke:none"
             id="path3071" />
        </g>
        <g
           id="g3073"
           transform="translate(340.8633,382.9966)">
          <path
             d="m 0,0 c 0,0 2.699,1.552 6.238,3.574 3.539,2.023 -1.263,-0.07 0,-3.574 0,0 -0.505,-0.726 3.539,2.183 l 1.77,-6.295 c 0,0 0.506,4.653 5.308,6.675 0,0 -1.769,-6.019 -1.009,-6.675 0.758,-0.657 1.769,4.401 5.055,6.424 l 3.287,2.021 c 0,0 -2.528,-4.044 0,-6.572 2.527,-2.53 3.791,0.883 4.55,2.337 0.758,1.455 2.275,-3.349 2.528,-6.636 0.254,-3.285 4.045,2.426 4.045,2.426 0,0 2.023,1.351 2.275,-3.445 l 6.32,0 -1.769,-6.438 5.055,5.435 1.265,-8.343 5.309,6.826 0,-6.826 6.572,5.815 2.527,-8.09 6.069,6.825 2.275,-2.779 2.275,4.044 c 0,0 -1.011,26.798 -33.876,32.864 0,0 -27.897,3.975 -39.608,-21.776"
             style="fill:#594334;fill-opacity:1;fill-rule:nonzero;stroke:none"
             id="path3075" />
        </g>
        <g
           id="g3077"
           transform="translate(344.9941,349.3735)">
          <path
             d="m 0,0 c 0,0 18.793,-5.345 25.871,0 0,0 -9.387,-11.736 -18.092,-7.493 0,0 -6.043,5.028 -7.779,7.493"
             style="fill:#cd9db0;fill-opacity:1;fill-rule:nonzero;stroke:none"
             id="path3079" />
        </g>
        <g
           id="g3081"
           transform="translate(345.9199,360.0269)">
          <path
             d="m 0,0 c 0,-2.095 -2.264,-3.792 -5.057,-3.792 -2.791,0 -5.055,1.697 -5.055,3.792 0,2.094 2.264,3.792 5.055,3.792 C -2.264,3.792 0,2.094 0,0"
             style="fill:#ffdcad;fill-opacity:1;fill-rule:nonzero;stroke:none"
             id="path3083" />
        </g>
      </g>
    </g>
    <g
       id="g3085"
       transform="matrix(1.0278596,0,0,-1.0278596,330.46072,786.10614)">
      <g
         id="g3087"
         clip-path="url(#clipPath3089)">
        <g
           id="g3093"
           transform="translate(311.0464,258.9795)">
          <path
             d="m 0,0 c 0,0 -21.306,11.192 -21.303,4.18 0,0 1.813,-0.308 4.328,-2.074 0,0 -3.608,-0.512 -4.263,-1.881 0,0 -0.827,-4.652 5.928,-2.841 0,0 -6.758,-1.808 -4.231,-4.142 2.527,-2.332 2.527,-2.332 5.899,-1.146 0,0 -5.295,-1.106 -1.858,-3.875 0,0 13.895,0.909 18.596,3.7 L 0,0 z"
             style="fill:#ffdcad;fill-opacity:1;fill-rule:nonzero;stroke:none"
             id="path3095" />
        </g>
        <g
           id="g3097"
           transform="translate(374.1191,306.7998)">
          <path
             d="m 0,0 c 0,0 -48.538,-53.595 -60.673,-56.122 l -7.077,11.125 c 0,0 45.916,30.145 60.012,52.682 0.622,0.992 1.182,1.972 1.671,2.933"
             style="fill:#3a4869;fill-opacity:1;fill-rule:nonzero;stroke:none"
             id="path3099" />
        </g>
        <g
           id="g3101"
           transform="translate(425.7676,185.1797)">
          <path
             d="m 0,0 10.873,6.509 c 0,0 22.504,-31.22 16.188,-36.665 -6.317,-5.446 -8.231,-6.138 -15.889,2.326 L 0,0 z"
             style="fill:#99866a;fill-opacity:1;fill-rule:nonzero;stroke:none"
             id="path3103" />
        </g>
        <g
           id="g3105"
           transform="translate(378.6724,239.0498)">
          <path
             d="m 0,0 3.538,-51.571 c 0,0 -1.515,-5.058 10.113,-6.068 11.628,-1.013 41.964,0 41.964,0 l 0.508,9.605 -36.911,2.53 L 16.685,0.504 0,0 z"
             style="fill:#3a4869;fill-opacity:1;fill-rule:nonzero;stroke:none"
             id="path3107" />
        </g>
        <g
           id="g3109"
           transform="translate(399.2227,325.6416)">
          <path
             d="m 0,0 -33.686,-3.569 c 0,0 -5.271,-75.035 3.223,-97.61 0,0 25.599,7.931 34.092,9.35 0,0 -18.263,38.003 -3.629,91.829"
             style="fill:#7d9ed2;fill-opacity:1;fill-rule:nonzero;stroke:none"
             id="path3111" />
        </g>
        <g
           id="g3113"
           transform="translate(415.0762,354.4551)">
          <path
             d="m 0,0 c 0,-19.408 -17.092,-35.142 -38.175,-35.142 -21.082,0 -38.173,15.734 -38.173,35.142 0,19.406 17.091,35.139 38.173,35.139 C -17.092,35.139 0,19.406 0,0"
             style="fill:#ffdcad;fill-opacity:1;fill-rule:nonzero;stroke:none"
             id="path3115" />
        </g>
        <g
           id="g3117"
           transform="translate(422.6602,350.915)">
          <path
             d="m 0,0 c 0,-3.212 -2.717,-5.815 -6.068,-5.815 -3.35,0 -6.067,2.603 -6.067,5.815 0,3.211 2.717,5.813 6.067,5.813 C -2.717,5.813 0,3.211 0,0"
             style="fill:#ffdcad;fill-opacity:1;fill-rule:nonzero;stroke:none"
             id="path3119" />
        </g>
        <g
           id="g3121"
           transform="translate(351.3696,357.3096)">
          <path
             d="m 0,0 c 0,-3.532 -2.53,-6.395 -5.646,-6.395 -3.12,0 -5.647,2.863 -5.647,6.395 0,3.532 2.527,6.396 5.647,6.396 C -2.53,6.396 0,3.532 0,0"
             style="fill:#ffffff;fill-opacity:1;fill-rule:nonzero;stroke:none"
             id="path3123" />
        </g>
        <g
           id="g3125"
           transform="translate(371.5947,354.2002)">
          <path
             d="m 0,0 c 0,-3.907 -2.944,-7.077 -6.574,-7.077 -3.632,0 -6.573,3.17 -6.573,7.077 0,3.911 2.941,7.079 6.573,7.079 C -2.944,7.079 0,3.911 0,0"
             style="fill:#ffffff;fill-opacity:1;fill-rule:nonzero;stroke:none"
             id="path3127" />
        </g>
        <g
           id="g3129"
           transform="translate(347.8296,357.7402)">
          <path
             d="m 0,0 c 0,-1.955 -1.132,-3.54 -2.527,-3.54 -1.395,0 -2.527,1.585 -2.527,3.54 0,1.955 1.132,3.539 2.527,3.539 C -1.132,3.539 0,1.955 0,0"
             style="fill:#594334;fill-opacity:1;fill-rule:nonzero;stroke:none"
             id="path3131" />
        </g>
        <g
           id="g3133"
           transform="translate(367.5483,353.8213)">
          <path
             d="m 0,0 c 0,-1.606 -1.132,-2.906 -2.527,-2.906 -1.396,0 -2.527,1.3 -2.527,2.906 0,1.605 1.131,2.907 2.527,2.907 C -1.132,2.907 0,1.605 0,0"
             style="fill:#594334;fill-opacity:1;fill-rule:nonzero;stroke:none"
             id="path3135" />
        </g>
        <g
           id="g3137"
           transform="translate(341.5933,367.8164)">
          <path
             d="m 0,0 c 0,0 2.696,1.553 6.236,3.574 3.54,2.024 -1.265,-0.07 0,-3.574 0,0 -0.504,-0.726 3.54,2.184 l 1.769,-6.295 c 0,0 0.507,4.652 5.309,6.675 0,0 -1.769,-6.019 -1.01,-6.675 0.758,-0.657 1.768,4.4 5.057,6.422 l 3.285,2.022 c 0,0 -2.527,-4.044 0,-6.572 2.527,-2.529 3.792,0.883 4.551,2.337 0.758,1.455 2.275,-3.349 2.527,-6.635 0.255,-3.287 4.044,2.426 4.044,2.426 0,0 2.023,1.35 2.278,-3.446 l 6.319,0 -1.769,-6.438 5.054,5.435 1.266,-8.341 5.308,6.825 0,-6.825 6.574,5.813 2.528,-8.089 6.066,6.825 2.276,-2.781 2.275,4.045 c 0,0 -1.014,26.799 -33.877,32.865 0,0 -27.895,3.974 -39.606,-21.777"
             style="fill:#594334;fill-opacity:1;fill-rule:nonzero;stroke:none"
             id="path3139" />
        </g>
        <g
           id="g3141"
           transform="translate(345.7231,334.1943)">
          <path
             d="m 0,0 c 0,0 18.792,-5.345 25.872,0 0,0 -9.389,-11.736 -18.092,-7.493 0,0 -6.044,5.028 -7.78,7.493"
             style="fill:#cd9db0;fill-opacity:1;fill-rule:nonzero;stroke:none"
             id="path3143" />
        </g>
        <g
           id="g3145"
           transform="translate(346.6475,344.8477)">
          <path
             d="m 0,0 c 0,-2.095 -2.263,-3.792 -5.054,-3.792 -2.794,0 -5.057,1.697 -5.057,3.792 0,2.094 2.263,3.792 5.057,3.792 C -2.263,3.792 0,2.094 0,0"
             style="fill:#ffdcad;fill-opacity:1;fill-rule:nonzero;stroke:none"
             id="path3147" />
        </g>
        <g
           id="g3149"
           transform="translate(349.0146,172.6006)">
          <path
             d="m 0,0 2.302,-13.192 c 0,0 -37.138,-10.304 -40.036,-2.012 -2.897,8.295 -2.877,10.449 7.735,14.774 L 0,0 z"
             style="fill:#99866a;fill-opacity:1;fill-rule:nonzero;stroke:none"
             id="path3151" />
        </g>
        <g
           id="g3153"
           transform="translate(373.1709,224.0479)">
          <path
             d="m 0,0 c 0.064,0.035 0.126,0.071 0.19,0.106 l 0,19.09 C -0.184,18.96 -0.612,18.692 -1.085,18.395 -8.335,13.841 -26.28,2.599 -29.892,0.593 c -2.845,-1.582 -5.689,-3.952 -8.162,-6.371 -1.485,-1.452 -2.836,-2.921 -3.972,-4.247 -0.661,-0.772 -0.674,-3.416 -0.289,-7.08 1.378,-13.152 7.873,-39.438 7.873,-39.438 l 10.111,2.53 c 0,0 -6.571,27.303 -5.054,33.37 C -28.353,-16.515 -10.989,-6.182 0,0"
             style="fill:#4c71a0;fill-opacity:1;fill-rule:nonzero;stroke:none"
             id="path3155" />
        </g>
        <g
           id="g3157"
           transform="translate(439.8789,259.4736)">
          <path
             d="m 0,0 c 0,0 12.498,-20.565 16.107,-14.555 0,0 -1.396,1.198 -2.642,4.009 0,0 3.355,-1.42 4.623,-0.584 0,0 3.105,3.558 -3.617,5.486 0,0 6.722,-1.928 5.759,1.373 -0.964,3.299 -0.964,3.302 -4.466,4.019 0,0 5.109,-1.777 3.59,2.367 0,0 -12.377,6.376 -17.846,6.406 L 0,0 z"
             style="fill:#ffdcad;fill-opacity:1;fill-rule:nonzero;stroke:none"
             id="path3159" />
        </g>
        <g
           id="g3161"
           transform="translate(386.7603,296.6885)">
          <path
             d="m 0,0 52.582,-39.943 5.564,11.125 c 0,0 -38.428,19.717 -53.595,46.008"
             style="fill:#4c71a0;fill-opacity:1;fill-rule:nonzero;stroke:none"
             id="path3163" />
        </g>
      </g>
    </g>
    <g
       id="g3165"
       transform="matrix(1.0278596,0,0,-1.0278596,544.25552,790.49445)">
      <g
         id="g3167"
         clip-path="url(#clipPath3169)">
        <g
           id="g3173"
           transform="translate(330.9482,262.9561)">
          <path
             d="m 0,0 c 0,0 -23.659,-4.397 -19.319,-9.902 0,0 1.618,0.881 4.687,1.049 0,0 -2.518,-2.636 -2.186,-4.116 0,0 2.228,-4.164 6.414,1.437 0,0 -4.186,-5.601 -0.759,-5.87 3.428,-0.268 3.428,-0.268 5.342,2.751 0,0 -3.475,-4.147 0.942,-4.194 0,0 10.348,9.313 12.312,14.416 L 0,0 z"
             style="fill:#ffdcad;fill-opacity:1;fill-rule:nonzero;stroke:none"
             id="path3175" />
        </g>
        <g
           id="g3177"
           transform="translate(372.5483,323.2051)">
          <path
             d="m 0,0 9.101,-9.102 c 0,0 -28.061,-48.537 -43.988,-59.155 l -11.376,7.584 c 0,0 33.37,28.819 46.263,60.673"
             style="fill:#3a4869;fill-opacity:1;fill-rule:nonzero;stroke:none"
             id="path3179" />
        </g>
        <g
           id="g3181"
           transform="translate(447.707,194.4668)">
          <path
             d="m 0,0 12.201,-3.427 c 0,0 -7.222,-37.804 -15.519,-36.954 -8.295,0.847 -10.114,1.763 -9.225,13.142 L 0,0 z"
             style="fill:#99866a;fill-opacity:1;fill-rule:nonzero;stroke:none"
             id="path3183" />
        </g>
        <g
           id="g3185"
           transform="translate(383.166,248.8809)">
          <path
             d="m 0,0 13.651,6.067 c 0,0 17.444,-40.195 53.089,-61.431 l -9.101,-10.617 c 0,0 -28.061,8.342 -57.639,65.981"
             style="fill:#3a4869;fill-opacity:1;fill-rule:nonzero;stroke:none"
             id="path3187" />
        </g>
        <g
           id="g3189"
           transform="translate(400.1768,335.2188)">
          <path
             d="m 0,0 -33.687,-3.568 c 0,0 -5.27,-75.036 3.224,-97.609 0,0 25.599,7.928 34.093,9.35 0,0 -18.265,38.002 -3.63,91.827"
             style="fill:#7d9ed2;fill-opacity:1;fill-rule:nonzero;stroke:none"
             id="path3191" />
        </g>
        <g
           id="g3193"
           transform="translate(417.5469,358.7227)">
          <path
             d="m 0,0 c 0,-19.407 -17.092,-35.139 -38.176,-35.139 -21.081,0 -38.172,15.732 -38.172,35.139 0,19.408 17.091,35.141 38.172,35.141 C -17.092,35.141 0,19.408 0,0"
             style="fill:#ffdcad;fill-opacity:1;fill-rule:nonzero;stroke:none"
             id="path3195" />
        </g>
        <g
           id="g3197"
           transform="translate(425.1309,355.1826)">
          <path
             d="m 0,0 c 0,-3.21 -2.717,-5.813 -6.068,-5.813 -3.35,0 -6.067,2.603 -6.067,5.813 0,3.212 2.717,5.815 6.067,5.815 C -2.717,5.815 0,3.212 0,0"
             style="fill:#ffdcad;fill-opacity:1;fill-rule:nonzero;stroke:none"
             id="path3199" />
        </g>
        <g
           id="g3201"
           transform="translate(353.8398,361.5791)">
          <path
             d="m 0,0 c 0,-3.532 -2.53,-6.396 -5.646,-6.396 -3.12,0 -5.647,2.864 -5.647,6.396 0,3.532 2.527,6.396 5.647,6.396 C -2.53,6.396 0,3.532 0,0"
             style="fill:#ffffff;fill-opacity:1;fill-rule:nonzero;stroke:none"
             id="path3203" />
        </g>
        <g
           id="g3205"
           transform="translate(374.0649,358.4707)">
          <path
             d="m 0,0 c 0,-3.91 -2.944,-7.078 -6.574,-7.078 -3.632,0 -6.573,3.168 -6.573,7.078 0,3.908 2.941,7.078 6.573,7.078 C -2.944,7.078 0,3.908 0,0"
             style="fill:#ffffff;fill-opacity:1;fill-rule:nonzero;stroke:none"
             id="path3207" />
        </g>
        <g
           id="g3209"
           transform="translate(350.2998,362.0078)">
          <path
             d="m 0,0 c 0,-1.953 -1.132,-3.537 -2.527,-3.537 -1.395,0 -2.527,1.584 -2.527,3.537 0,1.957 1.132,3.541 2.527,3.541 C -1.132,3.541 0,1.957 0,0"
             style="fill:#594334;fill-opacity:1;fill-rule:nonzero;stroke:none"
             id="path3211" />
        </g>
        <g
           id="g3213"
           transform="translate(370.0181,358.0918)">
          <path
             d="m 0,0 c 0,-1.605 -1.131,-2.909 -2.527,-2.909 -1.395,0 -2.527,1.304 -2.527,2.909 0,1.605 1.132,2.906 2.527,2.906 C -1.131,2.906 0,1.605 0,0"
             style="fill:#594334;fill-opacity:1;fill-rule:nonzero;stroke:none"
             id="path3215" />
        </g>
        <g
           id="g3217"
           transform="translate(344.0635,372.0859)">
          <path
             d="m 0,0 c 0,0 2.696,1.552 6.236,3.574 3.54,2.024 -1.265,-0.07 0,-3.574 0,0 -0.504,-0.726 3.54,2.184 l 1.769,-6.295 c 0,0 0.507,4.652 5.309,6.674 0,0 -1.769,-6.018 -1.01,-6.674 0.758,-0.657 1.768,4.4 5.057,6.422 l 3.285,2.022 c 0,0 -2.527,-4.044 0,-6.572 2.527,-2.529 3.792,0.883 4.551,2.337 0.758,1.455 2.275,-3.349 2.527,-6.635 0.255,-3.285 4.044,2.426 4.044,2.426 0,0 2.023,1.35 2.278,-3.446 l 6.319,0 -1.769,-6.437 5.054,5.433 1.265,-8.342 5.31,6.825 0,-6.825 6.573,5.815 2.527,-8.09 6.068,6.825 2.275,-2.779 2.275,4.044 c 0,0 -1.013,26.799 -33.877,32.865 C 39.606,21.777 11.711,25.75 0,0"
             style="fill:#594334;fill-opacity:1;fill-rule:nonzero;stroke:none"
             id="path3219" />
        </g>
        <g
           id="g3221"
           transform="translate(348.1934,338.4629)">
          <path
             d="m 0,0 c 0,0 18.792,-5.346 25.872,0 0,0 -9.389,-11.735 -18.092,-7.493 0,0 -6.044,5.028 -7.78,7.493"
             style="fill:#cd9db0;fill-opacity:1;fill-rule:nonzero;stroke:none"
             id="path3223" />
        </g>
        <g
           id="g3225"
           transform="translate(349.1177,349.1152)">
          <path
             d="m 0,0 c 0,-2.094 -2.264,-3.792 -5.054,-3.792 -2.794,0 -5.057,1.698 -5.057,3.792 0,2.095 2.263,3.793 5.057,3.793 C -2.264,3.793 0,2.095 0,0"
             style="fill:#ffdcad;fill-opacity:1;fill-rule:nonzero;stroke:none"
             id="path3227" />
        </g>
        <g
           id="g3229"
           transform="translate(375.8354,260.5107)">
          <path
             d="m 0,0 c 0,0 -25.786,-25.028 -45.505,-82.667 l 11.377,-6.067 c 0,0 17.443,45.505 45.504,78.116 L 0,0 z"
             style="fill:#4c71a0;fill-opacity:1;fill-rule:nonzero;stroke:none"
             id="path3231" />
        </g>
        <g
           id="g3233"
           transform="translate(342.0903,172.3809)">
          <path
             d="m 0,0 -7.753,-10.922 c 0,0 -33.462,19.121 -29.61,27.016 3.851,7.898 5.394,9.397 15.935,4.909 L 0,0 z"
             style="fill:#99866a;fill-opacity:1;fill-rule:nonzero;stroke:none"
             id="path3235" />
        </g>
        <g
           id="g3237"
           transform="translate(385.9478,306.2656)">
          <path
             d="m 0,0 c 0,0 17.189,-29.323 35.39,-40.448 l 9.102,8.594 c 0,0 -29.324,22.752 -37.921,47.022 L 0,0 z"
             style="fill:#4c71a0;fill-opacity:1;fill-rule:nonzero;stroke:none"
             id="path3239" />
        </g>
        <g
           id="g3241"
           transform="translate(423.3906,268.043)">
          <path
             d="m 0,0 c 0,0 12.5,-20.569 16.105,-14.559 0,0 -1.396,1.201 -2.64,4.012 0,0 3.357,-1.422 4.621,-0.587 0,0 3.105,3.56 -3.613,5.49 0,0 6.722,-1.93 5.756,1.372 -0.963,3.298 -0.963,3.3 -4.465,4.02 0,0 5.107,-1.78 3.588,2.364 0,0 -12.377,6.377 -17.846,6.407 L 0,0 z"
             style="fill:#ffdcad;fill-opacity:1;fill-rule:nonzero;stroke:none"
             id="path3243" />
        </g>
      </g>
    </g>
    <g
       id="g3245"
       transform="matrix(1.0278596,0,0,-1.0278596,-289.7791,1114.1461)">
      <g
         id="g3247"
         clip-path="url(#clipPath3249)">
        <g
           id="g3253"
           transform="translate(370.46,324.9951)">
          <path
             d="m 0,0 c 0,0 -31.604,-57.639 -49.805,-60.673 l 5.055,-8.596 c 0,0 38.176,16.656 50.059,64.212 L 0,0 z"
             style="fill:#3a4869;fill-opacity:1;fill-rule:nonzero;stroke:none"
             id="path3255" />
        </g>
        <g
           id="g3257"
           transform="translate(383.8174,236.2881)">
          <path
             d="m 0,0 c 0,0 6.654,-49.236 71.372,-50.246 l 4.046,8.091 c 0,0 -29.913,1.516 -37.709,10.869 0,0 -29.046,20.983 -28.785,38.679 L 0,0 z"
             style="fill:#3a4869;fill-opacity:1;fill-rule:nonzero;stroke:none"
             id="path3259" />
        </g>
        <g
           id="g3261"
           transform="translate(400.04,336.8701)">
          <path
             d="m 0,0 -33.557,-4.643 c 0,0 -3.128,-73.31 6,-95.016 0,0 25.353,8.61 33.796,10.289 0,0 -19.327,36.406 -6.239,89.37"
             style="fill:#7d9ed2;fill-opacity:1;fill-rule:nonzero;stroke:none"
             id="path3263" />
        </g>
        <g
           id="g3265"
           transform="translate(415.457,360.165)">
          <path
             d="m 0,0 c 0,-19.406 -17.091,-35.14 -38.172,-35.14 -21.083,0 -38.174,15.734 -38.174,35.14 0,19.408 17.091,35.141 38.174,35.141 C -17.091,35.141 0,19.408 0,0"
             style="fill:#ffdcad;fill-opacity:1;fill-rule:nonzero;stroke:none"
             id="path3267" />
        </g>
        <g
           id="g3269"
           transform="translate(423.042,356.626)">
          <path
             d="m 0,0 c 0,-3.211 -2.717,-5.814 -6.067,-5.814 -3.351,0 -6.068,2.603 -6.068,5.814 0,3.211 2.717,5.814 6.068,5.814 C -2.717,5.814 0,3.211 0,0"
             style="fill:#ffdcad;fill-opacity:1;fill-rule:nonzero;stroke:none"
             id="path3271" />
        </g>
        <g
           id="g3273"
           transform="translate(351.751,363.0205)">
          <path
             d="m 0,0 c 0,-3.531 -2.527,-6.395 -5.646,-6.395 -3.12,0 -5.647,2.864 -5.647,6.395 0,3.532 2.527,6.396 5.647,6.396 C -2.527,6.396 0,3.532 0,0"
             style="fill:#ffffff;fill-opacity:1;fill-rule:nonzero;stroke:none"
             id="path3275" />
        </g>
        <g
           id="g3277"
           transform="translate(371.9766,359.9131)">
          <path
             d="m 0,0 c 0,-3.91 -2.942,-7.079 -6.574,-7.079 -3.629,0 -6.572,3.169 -6.572,7.079 0,3.908 2.943,7.078 6.572,7.078 C -2.942,7.078 0,3.908 0,0"
             style="fill:#ffffff;fill-opacity:1;fill-rule:nonzero;stroke:none"
             id="path3279" />
        </g>
        <g
           id="g3281"
           transform="translate(348.2119,363.4512)">
          <path
             d="m 0,0 c 0,-1.954 -1.131,-3.538 -2.528,-3.538 -1.396,0 -2.527,1.584 -2.527,3.538 0,1.955 1.131,3.54 2.527,3.54 C -1.131,3.54 0,1.955 0,0"
             style="fill:#594334;fill-opacity:1;fill-rule:nonzero;stroke:none"
             id="path3283" />
        </g>
        <g
           id="g3285"
           transform="translate(367.9307,359.5332)">
          <path
             d="m 0,0 c 0,-1.606 -1.132,-2.907 -2.528,-2.907 -1.396,0 -2.528,1.301 -2.528,2.907 0,1.605 1.132,2.907 2.528,2.907 C -1.132,2.907 0,1.605 0,0"
             style="fill:#594334;fill-opacity:1;fill-rule:nonzero;stroke:none"
             id="path3287" />
        </g>
        <g
           id="g3289"
           transform="translate(341.9746,373.5283)">
          <path
             d="m 0,0 c 0,0 2.699,1.551 6.237,3.574 3.539,2.023 -1.262,-0.07 0,-3.574 0,0 -0.505,-0.727 3.539,2.183 l 1.771,-6.295 c 0,0 0.505,4.653 5.308,6.675 0,0 -1.77,-6.019 -1.011,-6.675 0.759,-0.657 1.771,4.401 5.056,6.423 l 3.287,2.021 c 0,0 -2.528,-4.043 0,-6.572 2.528,-2.529 3.792,0.883 4.549,2.338 0.759,1.455 2.276,-3.35 2.53,-6.635 0.253,-3.287 4.045,2.425 4.045,2.425 0,0 2.023,1.35 2.275,-3.445 l 6.319,0 -1.768,-6.438 5.054,5.434 1.264,-8.341 5.31,6.825 0,-6.825 6.573,5.814 2.527,-8.09 6.068,6.825 2.275,-2.78 2.274,4.045 c 0,0 -1.009,26.799 -33.875,32.865 C 39.607,21.777 11.711,25.75 0,0"
             style="fill:#594334;fill-opacity:1;fill-rule:nonzero;stroke:none"
             id="path3291" />
        </g>
        <g
           id="g3293"
           transform="translate(346.1045,339.9053)">
          <path
             d="m 0,0 c 0,0 18.794,-5.345 25.872,0 0,0 -9.387,-11.736 -18.093,-7.493 0,0 -6.043,5.028 -7.779,7.493"
             style="fill:#cd9db0;fill-opacity:1;fill-rule:nonzero;stroke:none"
             id="path3295" />
        </g>
        <g
           id="g3297"
           transform="translate(347.0322,350.5576)">
          <path
             d="m 0,0 c 0,-2.094 -2.266,-3.791 -5.058,-3.791 -2.792,0 -5.056,1.697 -5.056,3.791 0,2.096 2.264,3.793 5.056,3.793 C -2.266,3.793 0,2.096 0,0"
             style="fill:#ffdcad;fill-opacity:1;fill-rule:nonzero;stroke:none"
             id="path3299" />
        </g>
        <g
           id="g3301"
           transform="translate(392.4502,327.5537)">
          <path
             d="m 0,0 c 0,0 35.393,-60.703 69.774,-59.186 l -5.055,-12.641 c 0,0 -63.202,37.921 -68.257,64.718 L 0,0 z"
             style="fill:#4c71a0;fill-opacity:1;fill-rule:nonzero;stroke:none"
             id="path3303" />
        </g>
        <g
           id="g3305"
           transform="translate(403.4063,246.8359)">
          <path
             d="m 0,0 -46.092,-35.097 c 0,0 -12.049,-35.39 -12.725,-51.572 l -9.187,0 9.187,61.685 L -14.494,4.847 0,0 z"
             style="fill:#4c71a0;fill-opacity:1;fill-rule:nonzero;stroke:none"
             id="path3307" />
        </g>
        <g
           id="g3309"
           transform="translate(322.2061,264.7061)">
          <path
             d="m 0,0 c 0,0 -24.05,0.88 -21.017,-5.439 0,0 1.769,0.504 4.803,0 0,0 -3.034,-2.022 -3.034,-3.54 0,0 1.265,-4.549 6.574,0 0,0 -5.309,-4.551 -2.023,-5.561 3.285,-1.012 3.287,-1.012 5.815,1.517 0,0 -4.299,-3.289 0,-4.299 0,0 12.135,6.826 15.168,11.377 L 0,0 z"
             style="fill:#ffdcad;fill-opacity:1;fill-rule:nonzero;stroke:none"
             id="path3311" />
        </g>
        <g
           id="g3313"
           transform="translate(455.9209,257.7881)">
          <path
             d="m 0,0 c 0,0 16.583,-17.443 18.832,-10.803 0,0 -1.618,0.876 -3.434,3.359 0,0 3.581,-0.676 4.642,0.409 0,0 2.278,4.139 -4.698,4.595 0,0 6.976,-0.456 5.334,2.563 -1.643,3.021 -1.643,3.021 -5.219,2.981 0,0 5.371,-0.654 3.005,3.074 0,0 -13.447,3.601 -18.798,2.468 L 0,0 z"
             style="fill:#ffdcad;fill-opacity:1;fill-rule:nonzero;stroke:none"
             id="path3315" />
        </g>
        <g
           id="g3317"
           transform="translate(344.5889,165.7295)">
          <path
             d="m 0,0 0.926,-12.64 c 0,0 -38.006,-6.067 -40.029,2.022 -2.021,8.089 -1.781,10.112 9.221,13.146 L 0,0 z"
             style="fill:#99866a;fill-opacity:1;fill-rule:nonzero;stroke:none"
             id="path3319" />
        </g>
        <g
           id="g3321"
           transform="translate(446.9668,194.2188)">
          <path
             d="m 0,0 12.622,1.146 c 0,0 6.732,-37.894 -1.321,-40.058 -8.054,-2.164 -10.08,-1.959 -13.307,8.99 L 0,0 z"
             style="fill:#99866a;fill-opacity:1;fill-rule:nonzero;stroke:none"
             id="path3323" />
        </g>
      </g>
    </g>
    <g
       id="g3325"
       transform="matrix(1.0278596,0,0,-1.0278596,-73.634905,1130.107)">
      <g
         id="g3327"
         clip-path="url(#clipPath3329)">
        <g
           id="g3333"
           transform="translate(398.4648,259.5313)">
          <path
             d="m 0,0 c 0,0 6.068,-43.988 28.063,-74.324 l 10.617,1.516 c 0,0 -30.336,52.33 -28.063,76.979 L 0,0 z"
             style="fill:#3a4869;fill-opacity:1;fill-rule:nonzero;stroke:none"
             id="path3335" />
        </g>
        <g
           id="g3337"
           transform="translate(375.7124,331.5801)">
          <path
             d="M 0,0 -15.547,-73.187 -6.066,-75.462 7.964,-2.654 0,0 z"
             style="fill:#3a4869;fill-opacity:1;fill-rule:nonzero;stroke:none"
             id="path3339" />
        </g>
        <g
           id="g3341"
           transform="translate(402.1484,357.3047)">
          <path
             d="m 0,0 -32.805,-8.445 c 0,0 5.27,-73.189 16.818,-93.71 0,0 24.202,11.451 32.399,14.084 0,0 -23.363,33.958 -16.412,88.071"
             style="fill:#7d9ed2;fill-opacity:1;fill-rule:nonzero;stroke:none"
             id="path3343" />
        </g>
        <g
           id="g3345"
           transform="translate(415.7832,375.6943)">
          <path
             d="m 0,0 c 0,-19.407 -17.092,-35.14 -38.174,-35.14 -21.081,0 -38.172,15.733 -38.172,35.14 0,19.407 17.091,35.14 38.172,35.14 C -17.092,35.14 0,19.407 0,0"
             style="fill:#ffdcad;fill-opacity:1;fill-rule:nonzero;stroke:none"
             id="path3347" />
        </g>
        <g
           id="g3349"
           transform="translate(423.3672,372.1543)">
          <path
             d="m 0,0 c 0,-3.211 -2.717,-5.814 -6.068,-5.814 -3.35,0 -6.067,2.603 -6.067,5.814 0,3.211 2.717,5.814 6.067,5.814 C -2.717,5.814 0,3.211 0,0"
             style="fill:#ffdcad;fill-opacity:1;fill-rule:nonzero;stroke:none"
             id="path3351" />
        </g>
        <g
           id="g3353"
           transform="translate(352.0767,378.5488)">
          <path
             d="m 0,0 c 0,-3.531 -2.529,-6.395 -5.648,-6.395 -3.119,0 -5.647,2.864 -5.647,6.395 0,3.533 2.528,6.396 5.647,6.396 C -2.529,6.396 0,3.533 0,0"
             style="fill:#ffffff;fill-opacity:1;fill-rule:nonzero;stroke:none"
             id="path3355" />
        </g>
        <g
           id="g3357"
           transform="translate(372.3003,375.4414)">
          <path
             d="m 0,0 c 0,-3.91 -2.942,-7.078 -6.572,-7.078 -3.631,0 -6.573,3.168 -6.573,7.078 0,3.908 2.942,7.078 6.573,7.078 C -2.942,7.078 0,3.908 0,0"
             style="fill:#ffffff;fill-opacity:1;fill-rule:nonzero;stroke:none"
             id="path3359" />
        </g>
        <g
           id="g3361"
           transform="translate(348.5376,378.9795)">
          <path
             d="m 0,0 c 0,-1.954 -1.132,-3.538 -2.528,-3.538 -1.398,0 -2.529,1.584 -2.529,3.538 0,1.956 1.131,3.54 2.529,3.54 C -1.132,3.54 0,1.956 0,0"
             style="fill:#594334;fill-opacity:1;fill-rule:nonzero;stroke:none"
             id="path3363" />
        </g>
        <g
           id="g3365"
           transform="translate(368.2563,375.0615)">
          <path
             d="m 0,0 c 0,-1.605 -1.132,-2.907 -2.528,-2.907 -1.398,0 -2.53,1.302 -2.53,2.907 0,1.606 1.132,2.907 2.53,2.907 C -1.132,2.907 0,1.606 0,0"
             style="fill:#594334;fill-opacity:1;fill-rule:nonzero;stroke:none"
             id="path3367" />
        </g>
        <g
           id="g3369"
           transform="translate(342.2983,389.0566)">
          <path
             d="m 0,0 c 0,0 2.699,1.552 6.239,3.574 3.539,2.024 -1.264,-0.07 0,-3.574 0,0 -0.507,-0.726 3.539,2.183 l 1.77,-6.294 c 0,0 0.504,4.652 5.309,6.674 0,0 -1.77,-6.018 -1.011,-6.674 0.758,-0.657 1.769,4.4 5.054,6.422 l 3.288,2.022 c 0,0 -2.529,-4.044 0,-6.573 2.528,-2.528 3.791,0.883 4.55,2.338 0.759,1.455 2.274,-3.35 2.529,-6.635 0.252,-3.287 4.044,2.426 4.044,2.426 0,0 2.023,1.349 2.275,-3.446 l 6.32,0 -1.769,-6.438 5.056,5.434 1.264,-8.341 5.309,6.825 0,-6.825 6.572,5.814 2.528,-8.09 6.068,6.826 2.275,-2.781 2.276,4.045 c 0,0 -1.012,26.799 -33.876,32.865 C 39.609,21.777 11.711,25.75 0,0"
             style="fill:#594334;fill-opacity:1;fill-rule:nonzero;stroke:none"
             id="path3371" />
        </g>
        <g
           id="g3373"
           transform="translate(346.4292,355.4336)">
          <path
             d="m 0,0 c 0,0 18.793,-5.345 25.871,0 0,0 -9.386,-11.735 -18.093,-7.493 0,0 -6.042,5.028 -7.778,7.493"
             style="fill:#cd9db0;fill-opacity:1;fill-rule:nonzero;stroke:none"
             id="path3375" />
        </g>
        <g
           id="g3377"
           transform="translate(347.356,366.0859)">
          <path
             d="m 0,0 c 0,-2.094 -2.264,-3.791 -5.058,-3.791 -2.791,0 -5.055,1.697 -5.055,3.791 0,2.096 2.264,3.793 5.055,3.793 C -2.264,3.793 0,2.096 0,0"
             style="fill:#ffdcad;fill-opacity:1;fill-rule:nonzero;stroke:none"
             id="path3379" />
        </g>
        <g
           id="g3381"
           transform="translate(360.9653,258.293)">
          <path
             d="m 0,0 c 0,0 -12.766,-20.405 -5.774,-20.931 0,0 0.445,1.786 2.397,4.162 0,0 0.236,-3.637 1.552,-4.393 0,0 4.574,-1.176 3.28,5.695 0,0 1.294,-6.871 3.811,-4.527 2.516,2.343 2.516,2.343 1.587,5.794 0,0 0.705,-5.363 3.725,-2.145 0,0 0.141,13.923 -2.289,18.822 L 0,0 z"
             style="fill:#ffdcad;fill-opacity:1;fill-rule:nonzero;stroke:none"
             id="path3383" />
        </g>
        <g
           id="g3385"
           transform="translate(439.875,263.998)">
          <path
             d="m 0,0 c 0,0 0.375,-24.064 6.529,-20.705 0,0 -0.597,1.74 -0.252,4.797 0,0 2.178,-2.924 3.692,-2.845 0,0 4.48,1.499 -0.342,6.564 0,0 4.822,-5.065 5.66,-1.73 0.838,3.334 0.838,3.334 -1.816,5.728 0,0 3.506,-4.121 4.291,0.223 0,0 -7.449,11.763 -12.153,14.554 L 0,0 z"
             style="fill:#ffdcad;fill-opacity:1;fill-rule:nonzero;stroke:none"
             id="path3387" />
        </g>
        <g
           id="g3389"
           transform="translate(379.397,190.3701)">
          <path
             d="m 0,0 10.98,-6.329 c 0,0 -16.31,-34.859 -24.14,-31.994 -7.831,2.866 -9.368,4.201 -5.704,15.011 L 0,0 z"
             style="fill:#99866a;fill-opacity:1;fill-rule:nonzero;stroke:none"
             id="path3391" />
        </g>
        <g
           id="g3393"
           transform="translate(428.8574,191.1602)">
          <path
             d="m 0,0 11.018,-6.265 c 0,0 -16.11,-34.952 -23.957,-32.131 -7.848,2.82 -9.393,4.146 -5.793,14.977 L 0,0 z"
             style="fill:#99866a;fill-opacity:1;fill-rule:nonzero;stroke:none"
             id="path3395" />
        </g>
        <g
           id="g3397"
           transform="translate(416.2871,262.1855)">
          <path
             d="m 0,0 c 0,0 -47.4,-29.199 -46.262,-38.679 1.137,-9.48 15.927,-33.75 15.927,-33.75 l -10.998,-7.204 -18.581,46.263 c 0,0 -2.654,10.238 7.963,16.684 L -6.445,10.997 0,0 z"
             style="fill:#4c71a0;fill-opacity:1;fill-rule:nonzero;stroke:none"
             id="path3399" />
        </g>
        <g
           id="g3401"
           transform="translate(398.8438,341.8184)">
          <path
             d="m 0,0 -5.687,-7.584 c 0,0 31.095,-59.535 49.296,-73.565 l 5.309,7.962 c 0,0 -38.68,46.263 -48.918,73.187"
             style="fill:#4c71a0;fill-opacity:1;fill-rule:nonzero;stroke:none"
             id="path3403" />
        </g>
      </g>
    </g>
    <g
       id="g3405"
       transform="matrix(1.0278596,0,0,-1.0278596,133.11171,1124.3908)">
      <g
         id="g3407"
         clip-path="url(#clipPath3409)">
        <g
           id="g3413"
           transform="translate(390.8101,236.1162)">
          <path
             d="m 0,0 c 0,0 15.286,-18.588 18.008,-12.127 0,0 -1.55,0.988 -3.183,3.594 0,0 3.523,-0.93 4.66,0.077 0,0 2.568,3.962 -4.358,4.921 0,0 6.926,-0.959 5.504,2.173 -1.422,3.13 -1.422,3.13 -4.99,3.346 0,0 5.311,-1.037 3.219,2.85 0,0 -13.156,4.56 -18.575,3.812 L 0,0 z"
             style="fill:#ffdcad;fill-opacity:1;fill-rule:nonzero;stroke:none"
             id="path3415" />
        </g>
        <g
           id="g3417"
           transform="translate(386.729,175.4932)">
          <path
             d="m 0,0 5.124,-12.375 c 0,0 -33.998,-18.157 -38.632,-10.694 -4.637,7.462 -5.087,9.568 4.325,16.105 L 0,0 z"
             style="fill:#99866a;fill-opacity:1;fill-rule:nonzero;stroke:none"
             id="path3419" />
        </g>
        <g
           id="g3421"
           transform="translate(416.1465,189.9619)">
          <path
             d="m 0,0 5.732,11.304 c 0,0 35.682,-14.417 33.239,-22.392 -2.442,-7.974 -3.692,-9.579 -14.682,-6.501 L 0,0 z"
             style="fill:#99866a;fill-opacity:1;fill-rule:nonzero;stroke:none"
             id="path3423" />
        </g>
        <g
           id="g3425"
           transform="translate(373.689,254.7256)">
          <path
             d="m 0,0 c -0.505,-1.517 -23.762,-24.774 -22.245,-30.336 1.516,-5.56 27.808,-54.099 27.808,-54.099 l 9.1,6.067 -21.235,46.515 c 0,0 9.101,9.608 19.718,28.82 L 0,0 z"
             style="fill:#3a4869;fill-opacity:1;fill-rule:nonzero;stroke:none"
             id="path3427" />
        </g>
        <g
           id="g3429"
           transform="translate(399.2969,340.8145)">
          <path
             d="m 0,0 -33.686,-3.569 c 0,0 -5.268,-75.036 3.225,-97.608 0,0 25.6,7.928 34.09,9.35 0,0 -18.262,38.002 -3.629,91.827"
             style="fill:#7d9ed2;fill-opacity:1;fill-rule:nonzero;stroke:none"
             id="path3431" />
        </g>
        <g
           id="g3433"
           transform="translate(381.2729,253.2109)">
          <path
             d="m 0,0 c 0,0 -18.705,-41.966 -15.168,-48.539 3.541,-6.572 44.495,-12.64 62.696,-15.673 l 1.517,12.135 -39.943,11.123 c 0,0 -7.079,-0.506 -7.079,7.584 0,8.089 13.653,30.336 13.653,30.336 L 0,0 z"
             style="fill:#4c71a0;fill-opacity:1;fill-rule:nonzero;stroke:none"
             id="path3435" />
        </g>
        <g
           id="g3437"
           transform="translate(368.4097,235.626)">
          <path
             d="m 0,0 c 0,0 -22.104,-9.52 -16.653,-13.93 0,0 1.382,1.218 4.339,2.061 0,0 -1.874,-3.127 -1.224,-4.497 0,0 3.094,-3.569 5.938,2.819 0,0 -2.845,-6.389 0.559,-5.892 3.4,0.494 3.402,0.496 4.601,3.863 0,0 -2.471,-4.812 1.845,-3.883 0,0 8.034,11.372 8.823,16.781 L 0,0 z"
             style="fill:#ffdcad;fill-opacity:1;fill-rule:nonzero;stroke:none"
             id="path3439" />
        </g>
        <g
           id="g3441"
           transform="translate(375.7124,331.5801)">
          <path
             d="m 0,0 c -0.364,1.557 10.111,-10.618 10.111,-10.618 l -9.1,-90.504 -11.123,3.034 c 0,0 13.651,82.919 10.112,98.088"
             style="fill:#4c71a0;fill-opacity:1;fill-rule:nonzero;stroke:none"
             id="path3443" />
        </g>
        <g
           id="g3445"
           transform="translate(417.1719,370.1338)">
          <path
             d="m 0,0 c 0,-19.408 -17.09,-35.141 -38.173,-35.141 -21.082,0 -38.173,15.733 -38.173,35.141 0,19.406 17.091,35.139 38.173,35.139 C -17.09,35.139 0,19.406 0,0"
             style="fill:#ffdcad;fill-opacity:1;fill-rule:nonzero;stroke:none"
             id="path3447" />
        </g>
        <g
           id="g3449"
           transform="translate(424.7559,366.5928)">
          <path
             d="m 0,0 c 0,-3.21 -2.717,-5.813 -6.066,-5.813 -3.352,0 -6.069,2.603 -6.069,5.813 0,3.212 2.717,5.815 6.069,5.815 C -2.717,5.815 0,3.212 0,0"
             style="fill:#ffdcad;fill-opacity:1;fill-rule:nonzero;stroke:none"
             id="path3451" />
        </g>
        <g
           id="g3453"
           transform="translate(353.4653,372.9893)">
          <path
             d="m 0,0 c 0,-3.533 -2.528,-6.396 -5.647,-6.396 -3.119,0 -5.647,2.863 -5.647,6.396 0,3.531 2.528,6.395 5.647,6.395 C -2.528,6.395 0,3.531 0,0"
             style="fill:#ffffff;fill-opacity:1;fill-rule:nonzero;stroke:none"
             id="path3455" />
        </g>
        <g
           id="g3457"
           transform="translate(373.689,369.8799)">
          <path
             d="m 0,0 c 0,-3.908 -2.941,-7.078 -6.572,-7.078 -3.631,0 -6.573,3.17 -6.573,7.078 0,3.91 2.942,7.078 6.573,7.078 C -2.941,7.078 0,3.91 0,0"
             style="fill:#ffffff;fill-opacity:1;fill-rule:nonzero;stroke:none"
             id="path3459" />
        </g>
        <g
           id="g3461"
           transform="translate(349.9272,373.4189)">
          <path
             d="m 0,0 c 0,-1.954 -1.132,-3.539 -2.529,-3.539 -1.397,0 -2.529,1.585 -2.529,3.539 0,1.955 1.132,3.539 2.529,3.539 C -1.132,3.539 0,1.955 0,0"
             style="fill:#594334;fill-opacity:1;fill-rule:nonzero;stroke:none"
             id="path3463" />
        </g>
        <g
           id="g3465"
           transform="translate(369.646,369.501)">
          <path
             d="m 0,0 c 0,-1.605 -1.132,-2.908 -2.529,-2.908 -1.397,0 -2.529,1.303 -2.529,2.908 0,1.605 1.132,2.907 2.529,2.907 C -1.132,2.907 0,1.605 0,0"
             style="fill:#594334;fill-opacity:1;fill-rule:nonzero;stroke:none"
             id="path3467" />
        </g>
        <g
           id="g3469"
           transform="translate(343.688,383.4961)">
          <path
             d="m 0,0 c 0,0 2.698,1.552 6.239,3.574 3.538,2.023 -1.265,-0.07 0,-3.574 0,0 -0.507,-0.726 3.538,2.183 l 1.771,-6.295 c 0,0 0.504,4.653 5.308,6.675 0,0 -1.769,-6.019 -1.011,-6.675 0.759,-0.657 1.77,4.401 5.055,6.424 l 3.288,2.021 c 0,0 -2.529,-4.044 0,-6.572 2.528,-2.53 3.791,0.883 4.55,2.338 0.758,1.454 2.274,-3.35 2.529,-6.637 0.252,-3.285 4.044,2.426 4.044,2.426 0,0 2.023,1.351 2.274,-3.445 l 6.321,0 -1.77,-6.438 5.057,5.435 1.263,-8.343 5.309,6.826 0,-6.826 6.572,5.815 2.53,-8.09 6.066,6.825 2.275,-2.779 2.276,4.044 c 0,0 -1.012,26.798 -33.876,32.864 0,0 -27.897,3.975 -39.608,-21.776"
             style="fill:#594334;fill-opacity:1;fill-rule:nonzero;stroke:none"
             id="path3471" />
        </g>
        <g
           id="g3473"
           transform="translate(347.8188,349.873)">
          <path
             d="m 0,0 c 0,0 18.793,-5.345 25.87,0 0,0 -9.385,-11.735 -18.092,-7.493 0,0 -6.042,5.028 -7.778,7.493"
             style="fill:#cd9db0;fill-opacity:1;fill-rule:nonzero;stroke:none"
             id="path3475" />
        </g>
        <g
           id="g3477"
           transform="translate(348.7446,360.5264)">
          <path
             d="m 0,0 c 0,-2.095 -2.263,-3.792 -5.057,-3.792 -2.791,0 -5.055,1.697 -5.055,3.792 0,2.094 2.264,3.792 5.055,3.792 C -2.263,3.792 0,2.094 0,0"
             style="fill:#ffdcad;fill-opacity:1;fill-rule:nonzero;stroke:none"
             id="path3479" />
        </g>
      </g>
    </g>
    <g
       id="g3481"
       transform="matrix(1.0278596,0,0,-1.0278596,337.50887,1108.4219)">
      <g
         id="g3483"
         clip-path="url(#clipPath3485)">
        <g
           id="g3489"
           transform="translate(452.3516,259.6182)">
          <path
             d="m 0,0 c 0,0 12.498,-20.568 16.105,-14.558 0,0 -1.396,1.201 -2.64,4.012 0,0 3.355,-1.423 4.623,-0.587 0,0 3.103,3.56 -3.617,5.489 0,0 6.722,-1.929 5.758,1.373 -0.963,3.298 -0.963,3.299 -4.465,4.019 0,0 5.107,-1.78 3.588,2.364 0,0 -12.377,6.377 -17.846,6.407 L 0,0 z"
             style="fill:#ffdcad;fill-opacity:1;fill-rule:nonzero;stroke:none"
             id="path3491" />
        </g>
        <g
           id="g3493"
           transform="translate(399.2324,296.8311)">
          <path
             d="m 0,0 52.582,-39.944 5.563,11.125 c 0,0 -38.426,19.718 -53.594,46.009"
             style="fill:#3a4869;fill-opacity:1;fill-rule:nonzero;stroke:none"
             id="path3495" />
        </g>
        <g
           id="g3497"
           transform="translate(400.75,233.6309)">
          <path
             d="m 0,0 c 0,0 -41.459,-21.742 -42.977,-27.81 -1.517,-6.066 5.056,-33.37 5.056,-33.37 l -10.113,-2.526 c 0,0 -10.618,42.975 -7.584,46.515 3.034,3.54 7.584,8.09 12.135,10.618 4.55,2.526 31.853,19.718 31.853,19.718 l 0,-17.696"
             style="fill:#3a4869;fill-opacity:1;fill-rule:nonzero;stroke:none"
             id="path3499" />
        </g>
        <g
           id="g3501"
           transform="translate(361.4868,172.7451)">
          <path
             d="m 0,0 2.301,-13.195 c 0,0 -37.139,-10.304 -40.034,-2.01 C -40.631,-6.91 -40.61,-4.758 -30,-0.43 L 0,0 z"
             style="fill:#99866a;fill-opacity:1;fill-rule:nonzero;stroke:none"
             id="path3503" />
        </g>
        <g
           id="g3505"
           transform="translate(438.2383,185.3213)">
          <path
             d="m 0,0 10.873,6.51 c 0,0 22.506,-31.221 16.19,-36.664 -6.317,-5.445 -8.231,-6.137 -15.889,2.327 L 0,0 z"
             style="fill:#99866a;fill-opacity:1;fill-rule:nonzero;stroke:none"
             id="path3507" />
        </g>
        <g
           id="g3509"
           transform="translate(323.5171,259.124)">
          <path
             d="m 0,0 c 0,0 -21.307,11.189 -21.303,4.179 0,0 1.815,-0.309 4.329,-2.075 0,0 -3.608,-0.513 -4.264,-1.88 0,0 -0.826,-4.651 5.927,-2.843 0,0 -6.755,-1.808 -4.23,-4.141 2.527,-2.333 2.529,-2.333 5.898,-1.144 0,0 -5.294,-1.107 -1.855,-3.878 0,0 13.893,0.909 18.594,3.703 L 0,0 z"
             style="fill:#ffdcad;fill-opacity:1;fill-rule:nonzero;stroke:none"
             id="path3511" />
        </g>
        <g
           id="g3513"
           transform="translate(411.6953,325.7832)">
          <path
             d="m 0,0 -33.688,-3.568 c 0,0 -5.269,-75.036 3.225,-97.608 0,0 25.6,7.928 34.092,9.35 0,0 -18.264,38 -3.629,91.826"
             style="fill:#7d9ed2;fill-opacity:1;fill-rule:nonzero;stroke:none"
             id="path3515" />
        </g>
        <g
           id="g3517"
           transform="translate(427.5469,354.5977)">
          <path
             d="m 0,0 c 0,-19.408 -17.09,-35.141 -38.173,-35.141 -21.083,0 -38.174,15.733 -38.174,35.141 0,19.406 17.091,35.139 38.174,35.139 C -17.09,35.139 0,19.406 0,0"
             style="fill:#ffdcad;fill-opacity:1;fill-rule:nonzero;stroke:none"
             id="path3519" />
        </g>
        <g
           id="g3521"
           transform="translate(435.1309,351.0566)">
          <path
             d="m 0,0 c 0,-3.21 -2.717,-5.813 -6.066,-5.813 -3.352,0 -6.069,2.603 -6.069,5.813 0,3.212 2.717,5.815 6.069,5.815 C -2.717,5.815 0,3.212 0,0"
             style="fill:#ffdcad;fill-opacity:1;fill-rule:nonzero;stroke:none"
             id="path3523" />
        </g>
        <g
           id="g3525"
           transform="translate(363.8403,357.4531)">
          <path
             d="m 0,0 c 0,-3.533 -2.528,-6.396 -5.646,-6.396 -3.12,0 -5.647,2.863 -5.647,6.396 0,3.531 2.527,6.395 5.647,6.395 C -2.528,6.395 0,3.531 0,0"
             style="fill:#ffffff;fill-opacity:1;fill-rule:nonzero;stroke:none"
             id="path3527" />
        </g>
        <g
           id="g3529"
           transform="translate(384.0659,354.3438)">
          <path
             d="m 0,0 c 0,-3.908 -2.943,-7.078 -6.574,-7.078 -3.631,0 -6.573,3.17 -6.573,7.078 0,3.909 2.942,7.078 6.573,7.078 C -2.943,7.078 0,3.909 0,0"
             style="fill:#ffffff;fill-opacity:1;fill-rule:nonzero;stroke:none"
             id="path3531" />
        </g>
        <g
           id="g3533"
           transform="translate(360.3003,357.8828)">
          <path
             d="m 0,0 c 0,-1.955 -1.132,-3.539 -2.527,-3.539 -1.395,0 -2.527,1.584 -2.527,3.539 0,1.955 1.132,3.539 2.527,3.539 C -1.132,3.539 0,1.955 0,0"
             style="fill:#594334;fill-opacity:1;fill-rule:nonzero;stroke:none"
             id="path3535" />
        </g>
        <g
           id="g3537"
           transform="translate(380.019,353.9648)">
          <path
             d="m 0,0 c 0,-1.605 -1.132,-2.908 -2.527,-2.908 -1.396,0 -2.528,1.303 -2.528,2.908 0,1.605 1.132,2.907 2.528,2.907 C -1.132,2.907 0,1.605 0,0"
             style="fill:#594334;fill-opacity:1;fill-rule:nonzero;stroke:none"
             id="path3539" />
        </g>
        <g
           id="g3541"
           transform="translate(354.064,367.96)">
          <path
             d="m 0,0 c 0,0 2.697,1.552 6.236,3.574 3.54,2.023 -1.263,-0.07 0,-3.574 0,0 -0.504,-0.726 3.54,2.183 l 1.769,-6.295 c 0,0 0.507,4.652 5.309,6.675 0,0 -1.768,-6.019 -1.01,-6.675 0.759,-0.657 1.77,4.4 5.056,6.423 l 3.287,2.022 c 0,0 -2.528,-4.045 0,-6.572 2.526,-2.53 3.792,0.883 4.549,2.337 0.759,1.454 2.276,-3.349 2.528,-6.636 0.255,-3.285 4.046,2.426 4.046,2.426 0,0 2.023,1.351 2.276,-3.445 l 6.319,0 -1.768,-6.438 5.053,5.434 1.266,-8.342 5.308,6.826 0,-6.826 6.574,5.815 2.528,-8.091 6.066,6.826 2.276,-2.78 2.275,4.045 c 0,0 -1.012,26.798 -33.877,32.864 0,0 -27.895,3.975 -39.606,-21.776"
             style="fill:#594334;fill-opacity:1;fill-rule:nonzero;stroke:none"
             id="path3543" />
        </g>
        <g
           id="g3545"
           transform="translate(358.1938,334.3359)">
          <path
             d="m 0,0 c 0,0 18.793,-5.344 25.872,0 0,0 -9.389,-11.734 -18.092,-7.492 0,0 -6.044,5.027 -7.78,7.492"
             style="fill:#cd9db0;fill-opacity:1;fill-rule:nonzero;stroke:none"
             id="path3547" />
        </g>
        <g
           id="g3549"
           transform="translate(359.1196,344.9902)">
          <path
             d="m 0,0 c 0,-2.095 -2.265,-3.793 -5.056,-3.793 -2.793,0 -5.056,1.698 -5.056,3.793 0,2.094 2.263,3.791 5.056,3.791 C -2.265,3.791 0,2.094 0,0"
             style="fill:#ffdcad;fill-opacity:1;fill-rule:nonzero;stroke:none"
             id="path3551" />
        </g>
        <g
           id="g3553"
           transform="translate(391.1431,239.1914)">
          <path
             d="m 0,0 3.539,-51.571 c 0,0 -1.516,-5.058 10.113,-6.068 11.627,-1.01 41.965,0 41.965,0 l 0.506,9.608 -36.911,2.527 L 16.685,0.507 0,0 z"
             style="fill:#4c71a0;fill-opacity:1;fill-rule:nonzero;stroke:none"
             id="path3555" />
        </g>
        <g
           id="g3557"
           transform="translate(386.5913,306.9434)">
          <path
             d="m 0,0 c 0,0 -48.538,-53.595 -60.673,-56.124 l -7.077,11.125 c 0,0 45.915,30.146 60.012,52.683 0.621,0.994 1.18,1.972 1.671,2.933"
             style="fill:#4c71a0;fill-opacity:1;fill-rule:nonzero;stroke:none"
             id="path3559" />
        </g>
      </g>
    </g>
    <g
       id="g3561"
       transform="matrix(1.0278596,0,0,-1.0278596,563.05062,1109.9213)">
      <g
         id="g3563"
         clip-path="url(#clipPath3565)">
        <g
           id="g3569"
           transform="translate(387.6152,303.5986)">
          <path
             d="m 0,0 c 0,0 17.19,-29.325 35.393,-40.449 l 9.1,8.595 c 0,0 -29.325,22.752 -37.921,47.022 L 0,0 z"
             style="fill:#3a4869;fill-opacity:1;fill-rule:nonzero;stroke:none"
             id="path3571" />
        </g>
        <g
           id="g3573"
           transform="translate(379.5244,259.8643)">
          <path
             d="m 0,0 c 0,0 -25.785,-25.028 -45.504,-82.667 l 11.376,-6.067 c 0,0 17.443,45.505 45.505,78.116 L 0,0 z"
             style="fill:#3a4869;fill-opacity:1;fill-rule:nonzero;stroke:none"
             id="path3575" />
        </g>
        <g
           id="g3577"
           transform="translate(425.0586,265.374)">
          <path
             d="m 0,0 c 0,0 12.499,-20.567 16.106,-14.557 0,0 -1.395,1.2 -2.641,4.01 0,0 3.356,-1.422 4.623,-0.586 0,0 3.104,3.561 -3.615,5.489 0,0 6.721,-1.928 5.756,1.373 -0.963,3.299 -0.963,3.299 -4.465,4.019 0,0 5.109,-1.778 3.59,2.366 0,0 -12.378,6.377 -17.847,6.407 L 0,0 z"
             style="fill:#ffdcad;fill-opacity:1;fill-rule:nonzero;stroke:none"
             id="path3579" />
        </g>
        <g
           id="g3581"
           transform="translate(343.7578,169.7139)">
          <path
             d="m 0,0 -7.751,-10.923 c 0,0 -33.464,19.12 -29.612,27.016 3.851,7.897 5.394,9.398 15.936,4.908 L 0,0 z"
             style="fill:#99866a;fill-opacity:1;fill-rule:nonzero;stroke:none"
             id="path3583" />
        </g>
        <g
           id="g3585"
           transform="translate(449.376,191.7998)">
          <path
             d="m 0,0 12.199,-3.428 c 0,0 -7.22,-37.803 -15.516,-36.955 -8.295,0.849 -10.115,1.763 -9.227,13.142 L 0,0 z"
             style="fill:#99866a;fill-opacity:1;fill-rule:nonzero;stroke:none"
             id="path3587" />
        </g>
        <g
           id="g3589"
           transform="translate(332.6172,260.2891)">
          <path
             d="m 0,0 c 0,0 -23.66,-4.397 -19.318,-9.902 0,0 1.616,0.88 4.685,1.048 0,0 -2.516,-2.635 -2.186,-4.115 0,0 2.229,-4.165 6.415,1.437 0,0 -4.188,-5.602 -0.76,-5.871 3.428,-0.267 3.429,-0.267 5.342,2.752 0,0 -3.474,-4.147 0.941,-4.196 0,0 10.35,9.315 12.315,14.416 L 0,0 z"
             style="fill:#ffdcad;fill-opacity:1;fill-rule:nonzero;stroke:none"
             id="path3591" />
        </g>
        <g
           id="g3593"
           transform="translate(401.8447,332.5518)">
          <path
             d="m 0,0 -33.688,-3.57 c 0,0 -5.268,-75.034 3.225,-97.609 0,0 25.6,7.93 34.092,9.35 0,0 -18.263,38.004 -3.629,91.829"
             style="fill:#7d9ed2;fill-opacity:1;fill-rule:nonzero;stroke:none"
             id="path3595" />
        </g>
        <g
           id="g3597"
           transform="translate(419.2139,356.0557)">
          <path
             d="m 0,0 c 0,-19.407 -17.091,-35.14 -38.174,-35.14 -21.083,0 -38.174,15.733 -38.174,35.14 0,19.407 17.091,35.14 38.174,35.14 C -17.091,35.14 0,19.407 0,0"
             style="fill:#ffdcad;fill-opacity:1;fill-rule:nonzero;stroke:none"
             id="path3599" />
        </g>
        <g
           id="g3601"
           transform="translate(426.7979,352.5156)">
          <path
             d="m 0,0 c 0,-3.21 -2.717,-5.813 -6.067,-5.813 -3.351,0 -6.068,2.603 -6.068,5.813 0,3.212 2.717,5.815 6.068,5.815 C -2.717,5.815 0,3.212 0,0"
             style="fill:#ffdcad;fill-opacity:1;fill-rule:nonzero;stroke:none"
             id="path3603" />
        </g>
        <g
           id="g3605"
           transform="translate(355.5078,358.9111)">
          <path
             d="m 0,0 c 0,-3.532 -2.529,-6.396 -5.647,-6.396 -3.12,0 -5.647,2.864 -5.647,6.396 0,3.532 2.527,6.396 5.647,6.396 C -2.529,6.396 0,3.532 0,0"
             style="fill:#ffffff;fill-opacity:1;fill-rule:nonzero;stroke:none"
             id="path3607" />
        </g>
        <g
           id="g3609"
           transform="translate(375.7324,355.8027)">
          <path
             d="m 0,0 c 0,-3.909 -2.943,-7.078 -6.573,-7.078 -3.631,0 -6.574,3.169 -6.574,7.078 0,3.909 2.943,7.078 6.574,7.078 C -2.943,7.078 0,3.909 0,0"
             style="fill:#ffffff;fill-opacity:1;fill-rule:nonzero;stroke:none"
             id="path3611" />
        </g>
        <g
           id="g3613"
           transform="translate(351.9678,359.3408)">
          <path
             d="m 0,0 c 0,-1.954 -1.132,-3.538 -2.527,-3.538 -1.396,0 -2.528,1.584 -2.528,3.538 0,1.956 1.132,3.54 2.528,3.54 C -1.132,3.54 0,1.956 0,0"
             style="fill:#594334;fill-opacity:1;fill-rule:nonzero;stroke:none"
             id="path3615" />
        </g>
        <g
           id="g3617"
           transform="translate(371.6855,355.4229)">
          <path
             d="m 0,0 c 0,-1.605 -1.132,-2.907 -2.526,-2.907 -1.396,0 -2.528,1.302 -2.528,2.907 0,1.606 1.132,2.908 2.528,2.908 C -1.132,2.908 0,1.606 0,0"
             style="fill:#594334;fill-opacity:1;fill-rule:nonzero;stroke:none"
             id="path3619" />
        </g>
        <g
           id="g3621"
           transform="translate(345.7314,369.4189)">
          <path
             d="m 0,0 c 0,0 2.697,1.551 6.236,3.574 3.54,2.023 -1.263,-0.07 0,-3.574 0,0 -0.504,-0.727 3.54,2.182 l 1.769,-6.294 c 0,0 0.506,4.652 5.309,6.675 0,0 -1.769,-6.019 -1.01,-6.675 0.758,-0.657 1.769,4.401 5.056,6.423 l 3.286,2.021 c 0,0 -2.528,-4.043 0,-6.572 2.527,-2.529 3.792,0.883 4.55,2.338 0.758,1.454 2.276,-3.35 2.528,-6.636 0.254,-3.286 4.045,2.426 4.045,2.426 0,0 2.023,1.35 2.276,-3.445 l 6.319,0 -1.768,-6.439 5.053,5.435 1.266,-8.342 5.309,6.825 0,-6.825 6.574,5.815 2.526,-8.09 6.068,6.825 2.275,-2.78 2.275,4.045 c 0,0 -1.011,26.798 -33.877,32.864 C 39.605,21.776 11.711,25.75 0,0"
             style="fill:#594334;fill-opacity:1;fill-rule:nonzero;stroke:none"
             id="path3623" />
        </g>
        <g
           id="g3625"
           transform="translate(349.8604,335.7959)">
          <path
             d="m 0,0 c 0,0 18.793,-5.346 25.872,0 0,0 -9.388,-11.736 -18.092,-7.494 0,0 -6.044,5.029 -7.78,7.494"
             style="fill:#cd9db0;fill-opacity:1;fill-rule:nonzero;stroke:none"
             id="path3627" />
        </g>
        <g
           id="g3629"
           transform="translate(350.7861,346.4482)">
          <path
             d="m 0,0 c 0,-2.094 -2.265,-3.792 -5.055,-3.792 -2.794,0 -5.057,1.698 -5.057,3.792 0,2.095 2.263,3.793 5.057,3.793 C -2.265,3.793 0,2.095 0,0"
             style="fill:#ffdcad;fill-opacity:1;fill-rule:nonzero;stroke:none"
             id="path3631" />
        </g>
        <g
           id="g3633"
           transform="translate(384.834,246.2129)">
          <path
             d="m 0,0 13.651,6.067 c 0,0 17.444,-40.196 53.088,-61.431 l -9.1,-10.618 c 0,0 -28.062,8.342 -57.639,65.982"
             style="fill:#4c71a0;fill-opacity:1;fill-rule:nonzero;stroke:none"
             id="path3635" />
        </g>
        <g
           id="g3637"
           transform="translate(374.2158,320.5361)">
          <path
             d="m 0,0 9.101,-9.101 c 0,0 -28.061,-48.538 -43.988,-59.155 l -11.376,7.584 c 0,0 33.37,28.819 46.263,60.672"
             style="fill:#4c71a0;fill-opacity:1;fill-rule:nonzero;stroke:none"
             id="path3639" />
        </g>
      </g>
    </g>
  </g>
</svg>
