<?xml version="1.0" encoding="utf-8"?>
<!-- Generator: Adobe Illustrator 16.0.0, SVG Export Plug-In . SVG Version: 6.00 Build 0)  -->
<!DOCTYPE svg PUBLIC "-//W3C//DTD SVG 1.1//EN" "http://www.w3.org/Graphics/SVG/1.1/DTD/svg11.dtd">
<svg version="1.1" id="Layer_1" xmlns="http://www.w3.org/2000/svg" xmlns:xlink="http://www.w3.org/1999/xlink" x="0px" y="0px"
	 width="68.719px" height="178px" viewBox="-9.719 0 68.719 178" enable-background="new -9.719 0 68.719 178" xml:space="preserve"
	>
<g>
	<g>
		<g>
			<path fill="#F8B69C" d="M27.919,10.102l3.162,11.279h-1.91v8.013h-3.107c0,0-1.481,0.186-1.481,1.483c0,0.558,0,5.145,0,7.37
				v2.599h-7.111v-1.668V9.871h10.263L27.919,10.102z"/>
			<path fill="#477838" d="M27.406,17.246c0,0.303-0.246,0.547-0.545,0.547c-0.3,0-0.544-0.244-0.544-0.547
				c0-0.298,0.244-0.542,0.544-0.542C27.162,16.703,27.406,16.948,27.406,17.246z"/>
			<path fill="#F28A82" d="M27.988,24.841c-0.08,0-0.143-0.065-0.143-0.145h-0.557c0,0.385,0.312,0.699,0.699,0.699h1.192v-0.554
				H27.988z"/>
			<path fill="#7C3C1A" d="M12.48,7.138v28.606c0,0,1.794,0,3.562,0c5.363,0,5.076-5.079,5.076-5.079V19.806
				c-1.008,0-1.827-0.817-1.827-1.831c0-1.01,0.819-1.83,1.833-1.83c0.801,0,1.476,0.521,1.724,1.237l0.023-0.076
				c1.17-0.089,2.094-1.03,2.15-2.208h0.01v-1.459c0.524,0,1.176,0,1.997,0c1.82,0,3.229-0.547,4.31-1.327
				c2.645-1.902-1.37-5.176-1.37-5.176H12.48V7.138z"/>
		</g>
		<path fill="#FFD62C" d="M32.401,10.015C31.589,4.772,28.355,0,21.393,0c-8.072,0-11.229,6.595-11.229,12.796h21.201h1.258h2.562
			L32.401,10.015z"/>
	</g>
	<g>
		<path fill="#B25C27" d="M39.101,171.111h-3.133c-1.385-0.34-2.602-1.102-3.508-2.143c-0.684-0.787-1.188-1.73-1.453-2.773v-6.1
			l-0.156-0.033h-4.694v7.711v2.578v0.83v0.828v1.791h16.688C42.319,172.238,40.841,171.111,39.101,171.111z"/>
		<path fill="#34383A" d="M26.157,175.061h4.85v-0.471v-0.783l2.154,1.254h9.891c0-0.441-0.074-0.859-0.207-1.26H26.157v0.789
			V175.061z"/>
	</g>
	<g>
		<path fill="#C0772A" d="M28.762,171.111h-3.133c-1.385-0.34-2.602-1.102-3.506-2.143c-0.685-0.787-1.189-1.73-1.457-2.773v-6.1
			l-0.156-0.033h-4.693v7.711v2.578v0.83v0.828v1.791h16.688C31.979,172.238,30.501,171.111,28.762,171.111z"/>
		<path fill="#34383A" d="M15.818,175.061h4.849v-0.471v-0.783l2.154,1.254h9.893c0-0.441-0.074-0.859-0.207-1.26H15.818v0.789
			V175.061z"/>
	</g>
	<g>
		<path fill="#F8B69C" d="M33.185,89.713c-0.002,0-0.004,0.002-0.006,0.002v-0.29v-4.703V54.111h-6.062v30.611v4.703v4.061h0.013
			c-0.001,0.041-0.013,0.082-0.013,0.121c0,1.678,1.359,3.035,3.034,3.035c1.676,0,3.033-1.357,3.033-3.035
			c0-0.039-0.01-0.08-0.012-0.121h0.006v-0.568c0.004,0,0.006,0,0.006,0c0.885,0,1.602-0.719,1.602-1.602
			C34.784,90.43,34.067,89.713,33.185,89.713z"/>
		<rect x="27.117" y="54.111" opacity="0.4" fill="#B78D7E" enable-background="new    " width="6.06" height="2.275"/>
	</g>
	<g>
		<rect x="13.414" y="87.978" fill="#2D7994" width="7.442" height="78.165"/>
		<path fill="#1B6478" d="M17.6,119.801v8.359v2.396v1.291c0,0.477,0.385,0.855,0.86,0.855h2.396v-12.902H17.6z"/>
	</g>
	<g>
		<rect x="23.755" y="87.978" fill="#2D7994" width="7.439" height="78.165"/>
		<path fill="#1B6478" d="M27.939,119.801v8.359v2.396v1.291c0,0.477,0.385,0.855,0.859,0.855h2.396v-12.902H27.939z"/>
	</g>
	<path fill="#FFFFFF" d="M30.69,37.101h-4.124h-1.976h-0.002c-0.001,1.96-1.591,3.552-3.555,3.552c-1.963,0-3.554-1.592-3.556-3.552
		h-0.081h-4.305h-1.794c-1.388,0-2.514,1.126-2.514,2.512L8.772,54.426h4.315v6.512h9.664v-6.512h3.815v-0.314h5.663h0.973v-8.322
		v-2.706v-3.471C33.2,38.227,32.077,37.101,30.69,37.101z"/>
	<rect x="17.67" y="50.569" fill="#FFFFFF" width="13.524" height="20.739"/>
	<rect x="22.751" y="41.81" fill="#FFFFFF" width="1.855" height="20.596"/>
	<path fill="#2D7994" d="M31.19,51.803c0-0.506-0.141-0.974-0.367-1.385l0.002-0.021l-2.655-6.573v-6.722h-2.111v6.722h-8.586
		v-6.722h-2.107v6.722l-0.534,10.581v2.773l-1.745,3.762v32.152H31.19v-33.8v-2.114V51.803L31.19,51.803L31.19,51.803z"/>
	<path fill="#1B6478" d="M19.155,46.902v1.757v1.599v0.866c0,0.317,0.26,0.574,0.579,0.574h5.251c0.319,0,0.576-0.257,0.576-0.574
		v-0.866v-1.599v-1.757H19.155z"/>
	<g>
		<path fill="#939393" d="M7.99,92.514h7.624c2.3,0,4.169,1.871,4.169,4.168v7.303c0,2.299-1.869,4.168-4.169,4.168H7.99
			c-2.298,0-4.168-1.869-4.168-4.168v-7.303C3.822,94.385,5.692,92.514,7.99,92.514z M15.614,105.654
			c0.921,0,1.672-0.748,1.672-1.67v-7.303c0-0.92-0.751-1.67-1.672-1.67H7.99c-0.921,0-1.671,0.75-1.671,1.67v7.303
			c0,0.922,0.75,1.67,1.671,1.67H15.614z"/>
		<polygon fill="#FFFFFF" points="9.812,133.42 13.793,133.42 13.793,156.646 11.802,159.605 9.812,156.646 		"/>
		<rect x="7.435" y="127.588" fill="#939393" width="8.735" height="20.564"/>
		<path fill="#FFD62C" d="M3.848,128.672c0,1.84,1.49,3.33,3.329,3.33h9.249c1.839,0,3.33-1.49,3.33-3.33v-25.057H3.848V128.672z"/>
	</g>
	<g>
		<path fill="#F8B69C" d="M14.838,89.99c-0.002,0-0.003,0-0.005,0v-0.289v-4.704V54.387h-6.06v30.611v4.704v4.061h0.012
			c-0.001,0.043-0.012,0.082-0.012,0.125c0,1.678,1.357,3.029,3.032,3.029c1.675,0,3.034-1.354,3.034-3.029
			c0-0.043-0.012-0.082-0.013-0.125h0.008v-0.568c0.002,0,0.003,0,0.005,0c0.885,0,1.602-0.719,1.602-1.6
			C16.44,90.707,15.723,89.99,14.838,89.99z"/>
		<rect x="8.772" y="54.393" opacity="0.4" fill="#B78D7E" enable-background="new    " width="6.06" height="2.274"/>
	</g>
</g>
</svg>
