<?xml version="1.0" encoding="utf-8"?>
<!-- Generator: Adobe Illustrator 16.0.0, SVG Export Plug-In . SVG Version: 6.00 Build 0)  -->
<!DOCTYPE svg PUBLIC "-//W3C//DTD SVG 1.1//EN" "http://www.w3.org/Graphics/SVG/1.1/DTD/svg11.dtd">
<svg version="1.1" id="Layer_1" xmlns="http://www.w3.org/2000/svg" xmlns:xlink="http://www.w3.org/1999/xlink" x="0px" y="0px"
	 width="68.719px" height="178px" viewBox="-9.719 0 68.719 178" enable-background="new -9.719 0 68.719 178" xml:space="preserve"
	>
<g>
	<g>
		<g>
			<path fill="#F8B69C" d="M27.933,10.111l3.163,11.282h-1.91v8.025h-3.108c0,0-1.484,0.186-1.484,1.48c0,0.559,0,5.151,0,7.378
				v2.597h-7.115v-1.668V9.88h10.27L27.933,10.111z"/>
			<path fill="#477838" d="M27.418,17.258c0,0.304-0.244,0.548-0.543,0.548c-0.302,0-0.545-0.244-0.545-0.548
				c0-0.299,0.243-0.541,0.545-0.541C27.174,16.717,27.418,16.959,27.418,17.258z"/>
			<path fill="#F28A82" d="M28.004,24.859c-0.081,0-0.146-0.064-0.146-0.144h-0.557c0,0.384,0.314,0.699,0.702,0.699h1.191v-0.555
				H28.004z"/>
			<path fill="#7C3C1A" d="M12.482,7.143v28.628c0,0,1.795,0,3.564,0c5.365,0,5.082-5.08,5.082-5.08V19.825
				c-1.012-0.002-1.831-0.823-1.831-1.833c0-1.014,0.821-1.833,1.833-1.833c0.803,0,1.477,0.52,1.725,1.237l0.023-0.076
				c1.172-0.088,2.098-1.028,2.154-2.208h0.011v-1.461c0.521,0,1.176,0,1.997,0c1.823,0,3.231-0.548,4.311-1.327
				c2.646-1.905-1.371-5.181-1.371-5.181H12.482z"/>
		</g>
		<path fill="#FFD62C" d="M32.42,10.023C31.605,4.778,28.368,0,21.4,0c-8.076,0-11.235,6.6-11.235,12.807h21.218h1.256h2.564
			L32.42,10.023z"/>
	</g>
	<g>
		<path fill="#F8B69C" d="M27.724,89.417c-0.003,0-0.005,0.005-0.007,0.002l0.039-0.286l0.607-4.67l3.953-30.375L26.3,53.303
			l-3.951,30.378l-0.609,4.668l-0.522,4.03l0.013,0.002c-0.01,0.041-0.023,0.08-0.029,0.121c-0.215,1.66,0.957,3.184,2.621,3.402
			c1.662,0.215,3.184-0.959,3.399-2.619c0.005-0.039,0.003-0.082,0.005-0.125l0.006,0.002l0.074-0.568
			c0.002,0,0.002,0.002,0.006,0.002c0.877,0.113,1.681-0.504,1.794-1.379C29.219,90.334,28.602,89.529,27.724,89.417z"/>
		
			<rect x="26.127" y="53.687" transform="matrix(-0.9917 -0.1288 0.1288 -0.9917 51.0139 112.9553)" opacity="0.4" fill="#B78D7E" enable-background="new    " width="6.068" height="2.28"/>
		
			<rect x="26.616" y="48.399" transform="matrix(-0.9916 -0.129 0.129 -0.9916 52.4607 105.5229)" fill="#FFFFFF" width="6.064" height="5.328"/>
	</g>
	<path fill="#2D7994" d="M12.958,86.627c0,3.656,2.961,6.621,6.62,6.621h5.007c3.657,0,6.623-2.965,6.623-6.621v-2.506h-18.25
		V86.627z"/>
	<g>
		<g>
			<path fill="#C0772A" d="M14.388,172.934l-3.09-0.527c-1.309-0.568-2.378-1.525-3.098-2.707c-0.541-0.893-0.881-1.906-0.965-2.979
				l1.029-6.018l-0.148-0.061l-4.629-0.793l-1.303,7.607l-0.435,2.547l-0.14,0.812l-0.142,0.82l-0.303,1.766l16.461,2.816
				C17.374,174.59,16.107,173.23,14.388,172.934z"/>
			<path fill="#34383A" d="M0.955,174.646l4.783,0.818l0.08-0.469l0.133-0.77l1.912,1.602l9.754,1.672
				c0.076-0.436,0.076-0.863,0.011-1.279l-16.461-2.816l-0.132,0.777L0.955,174.646z"/>
		</g>
		<g>
			
				<rect x="6.846" y="85.995" transform="matrix(-0.9856 -0.1688 0.1688 -0.9856 -0.3393 252.6084)" fill="#2D7994" width="7.445" height="80.647"/>
			<path fill="#1B6478" d="M12.045,120.438l-1.413,8.25l-0.402,2.359l-0.219,1.271c-0.08,0.467,0.236,0.914,0.705,0.994l2.361,0.404
				l2.179-12.73L12.045,120.438z"/>
		</g>
	</g>
	<path fill="#FFFFFF" d="M30.705,37.13h-4.126h-1.976h-0.002c-0.004,1.96-1.597,3.554-3.56,3.554s-3.558-1.594-3.558-3.554h-0.082
		h-4.309h-1.795c-1.389,0-2.516,1.126-2.516,2.512c0,0-0.094,2.588,0,4.654c0.095,2.064,0.404,4.297,0.404,4.297l3.903,0.24v12.149
		h9.67v-6.517h3.817l2.95,0.142v-5.774h3.474l0.219-3.009v-2.705v-3.478C33.221,38.256,32.094,37.13,30.705,37.13z"/>
	<rect x="17.675" y="50.607" fill="#FFFFFF" width="13.536" height="20.751"/>
	<rect x="22.76" y="41.844" fill="#FFFFFF" width="1.856" height="20.607"/>
	<path fill="#2D7994" d="M31.207,51.84c0-0.506-0.145-0.973-0.369-1.385l0.002-0.025l-2.659-6.575V37.13H26.07v6.725h-8.592V37.13
		H15.37v6.725l-0.532,10.589v2.779l-1.748,3.763v23.951h18.118V59.335v-2.112V51.84L31.207,51.84L31.207,51.84z"/>
	<path fill="#1B6478" d="M19.164,46.936v1.762v1.599v0.861c0,0.318,0.26,0.579,0.578,0.579h5.256c0.318,0,0.576-0.26,0.576-0.579
		v-0.861v-1.599v-1.762H19.164z"/>
	<g>
		<g>
			<path fill="#B25C27" d="M54.107,168.879l-3.084,0.551c-1.422-0.09-2.756-0.627-3.832-1.492c-0.814-0.654-1.477-1.494-1.924-2.471
				l-1.076-6.014l-0.16-0.006l-4.623,0.828l1.359,7.594l0.457,2.543l0.146,0.818l0.146,0.816l0.316,1.764l16.438-2.947
				C57.477,169.418,55.822,168.568,54.107,168.879z"/>
			<path fill="#34383A" d="M42.057,175.053l4.775-0.855l-0.08-0.465l-0.139-0.775l2.344,0.859l9.74-1.746
				c-0.076-0.436-0.223-0.838-0.424-1.205l-16.438,2.947l0.139,0.777L42.057,175.053z"/>
		</g>
		<g>
			
				<rect x="30.948" y="86.01" transform="matrix(-0.9843 0.1764 -0.1764 -0.9843 91.0827 244.5689)" fill="#2D7994" width="7.446" height="80.646"/>
			<path fill="#1B6478" d="M34.057,120.305l1.477,8.234l0.424,2.355l0.227,1.273c0.084,0.467,0.531,0.777,1,0.695l2.359-0.422
				l-2.277-12.713L34.057,120.305z"/>
		</g>
	</g>
	<g>
		<path fill="#939393" d="M15.332,91.576l7.494-1.4c2.261-0.422,4.441,1.072,4.863,3.332l1.341,7.18
			c0.422,2.258-1.072,4.439-3.333,4.861l-7.494,1.4c-2.26,0.422-4.441-1.074-4.863-3.332L12,96.438
			C11.578,94.18,13.072,91.998,15.332,91.576z M25.238,103.094c0.906-0.17,1.506-1.043,1.338-1.949l-1.342-7.178
			c-0.168-0.906-1.045-1.504-1.949-1.334l-7.495,1.398c-0.905,0.17-1.505,1.043-1.336,1.949l1.341,7.178
			c0.17,0.906,1.044,1.504,1.949,1.334L25.238,103.094z"/>
		<polygon fill="#FFFFFF" points="24.632,131.453 28.545,130.721 32.811,153.553 31.396,156.828 28.897,154.285 		"/>
		
			<rect x="23.039" y="125.18" transform="matrix(-0.983 0.1836 -0.1836 -0.983 79.2155 263.5897)" fill="#939393" width="8.734" height="20.564"/>
		<path fill="#FFD62C" d="M17.898,127.879c0.338,1.809,2.076,3,3.885,2.662l9.092-1.695c1.807-0.338,2.998-2.078,2.66-3.887
			l-4.599-24.631l-15.638,2.922L17.898,127.879z"/>
	</g>
	<g>
		<path fill="#F8B69C" d="M22.183,88.182h-0.004l-0.05-0.285l-0.799-4.639l-5.214-30.184l-5.978,1.031l5.212,30.185l0.801,4.639
			l0.69,4.005l0.015-0.002c0.002,0.039-0.002,0.078,0.004,0.123c0.285,1.652,1.856,2.76,3.509,2.475
			c1.651-0.287,2.76-1.854,2.475-3.506c-0.009-0.045-0.026-0.082-0.032-0.119l0.008-0.002l-0.098-0.564c0,0,0.002,0,0.004,0
			c0.873-0.15,1.457-0.98,1.307-1.849C23.884,88.616,23.054,88.03,22.183,88.182z"/>
		
			<rect x="10.291" y="53.574" transform="matrix(-0.9854 0.17 -0.17 -0.9854 35.7548 106.3652)" opacity="0.4" fill="#B78D7E" enable-background="new    " width="6.067" height="2.278"/>
		
			<rect x="9.62" y="48.034" transform="matrix(-0.9854 0.17 -0.17 -0.9854 33.7641 98.7748)" fill="#FFFFFF" width="6.067" height="5.598"/>
	</g>
	<path fill="none" stroke="#FFFFFF" stroke-width="0.1786" stroke-miterlimit="10" d="M22.148,126.457"/>
	<path fill="none" stroke="#FFFFFF" stroke-width="0.1786" stroke-miterlimit="10" d="M18.255,109.91"/>
</g>
</svg>
