<?xml version="1.0" encoding="utf-8"?>
<!-- Generator: Adobe Illustrator 16.0.0, SVG Export Plug-In . SVG Version: 6.00 Build 0)  -->
<!DOCTYPE svg PUBLIC "-//W3C//DTD SVG 1.1//EN" "http://www.w3.org/Graphics/SVG/1.1/DTD/svg11.dtd">
<svg version="1.1" id="Layer_1" xmlns="http://www.w3.org/2000/svg" xmlns:xlink="http://www.w3.org/1999/xlink" x="0px" y="0px"
	 width="68.719px" height="178px" viewBox="-9.719 0 68.719 178" enable-background="new -9.719 0 68.719 178" xml:space="preserve"
	>
<g>
	<g>
		<path fill="#F8B69C" d="M27.925,10.099l3.163,11.284h-1.91v8.022h-3.109c0,0-1.484,0.186-1.484,1.485c0,0.554,0,5.146,0,7.375
			v2.596H17.47v-1.667V9.865h10.269L27.925,10.099z"/>
		<circle fill="#477838" cx="26.867" cy="17.248" r="0.544"/>
		<path fill="#F28A82" d="M27.996,24.844c-0.081,0-0.144-0.067-0.144-0.142h-0.557c0,0.384,0.314,0.697,0.701,0.697h1.192v-0.556
			L27.996,24.844L27.996,24.844z"/>
		<path fill="#7C3C1A" d="M12.475,7.128v28.628c0,0,1.795,0,3.563,0c5.366,0,5.082-5.08,5.082-5.08V19.811
			c-1.012-0.003-1.831-0.82-1.831-1.836c0-1.009,0.822-1.83,1.833-1.83c0.802,0,1.477,0.518,1.724,1.238l0.024-0.076
			c1.172-0.086,2.097-1.029,2.153-2.209h0.011v-1.46c0.522,0,1.176,0,1.998,0c1.823,0,3.231-0.548,4.312-1.327
			c2.646-1.901-1.371-5.181-1.371-5.181H12.475V7.128z"/>
	</g>
	<path fill="#FFD62C" d="M32.411,10.008C31.598,4.764,28.36-0.014,21.394-0.014c-8.078,0-11.237,6.6-11.237,12.808h21.218h1.256
		h2.564L32.411,10.008z"/>
</g>
<g>
	<path fill="#F8B69C" d="M42.119,88.427c-0.002,0.001-0.003,0.001-0.006,0.002l-0.041-0.286l-0.689-4.656l-4.486-30.301l-6,0.889
		l4.486,30.301l0.689,4.655l0.595,4.019l0.013-0.002c0.004,0.043,0,0.084,0.004,0.123c0.246,1.662,1.791,2.806,3.449,2.56
		c1.66-0.246,2.803-1.787,2.557-3.449c-0.004-0.037-0.021-0.076-0.03-0.117l0.008-0.002L42.584,91.6c0.002,0,0.002,0,0.005,0
		c0.875-0.129,1.479-0.945,1.351-1.82C43.809,88.901,42.994,88.298,42.119,88.427z"/>
	
		<rect x="31.028" y="53.618" transform="matrix(-0.9892 0.1465 -0.1465 -0.9892 75.7771 103.929)" opacity="0.4" fill="#B78D7E" enable-background="new    " width="6.064" height="2.275"/>
	
		<rect x="30.345" y="46.623" transform="matrix(-0.9892 0.1465 -0.1465 -0.9892 73.7427 94.8591)" fill="#FFFFFF" width="6.065" height="7.045"/>
</g>
<path fill="#2D7994" d="M12.95,86.614c0,3.659,2.962,6.62,6.619,6.62h5.008c3.657,0,6.622-2.961,6.622-6.62V84.11H12.95V86.614z"/>
<g>
	<g>
		<path fill="#B25C27" d="M19.167,172.864l-3.05-0.726c-1.268-0.649-2.276-1.674-2.918-2.896c-0.483-0.927-0.757-1.957-0.776-3.035
			l1.412-5.938l-0.144-0.069l-4.57-1.089l-1.783,7.513l-0.595,2.512l-0.19,0.808L6.36,170.75l-0.413,1.746l16.246,3.855
			C22.042,174.706,20.863,173.268,19.167,172.864z"/>
		<path fill="#34383A" d="M5.652,173.721l4.722,1.122l0.109-0.461l0.182-0.766l1.806,1.723l9.631,2.283
			c0.103-0.431,0.127-0.854,0.089-1.271l-16.246-3.855l-0.184,0.766L5.652,173.721z"/>
	</g>
	<g>
		<polygon fill="#2D7994" points="18.229,110.323 5.374,164.479 12.618,166.198 22.041,126.509 		"/>
		<polygon fill="#2D7994" points="22.262,93.335 24.001,86.009 31.247,87.729 26.084,109.475 		"/>
		<path fill="#1B6478" d="M20.161,120.325l-1.935,8.143l-0.552,2.328l-0.299,1.259c-0.108,0.463,0.177,0.926,0.639,1.034
			l2.333,0.556l1.701-7.168l-1.48-6.055L20.161,120.325z"/>
	</g>
</g>
<path fill="#FFFFFF" d="M30.697,37.115H26.57h-1.976h-0.002c-0.002,1.963-1.595,3.555-3.559,3.555c-1.963,0-3.556-1.592-3.556-3.555
	h-0.083h-4.308h-1.795c-1.011,0-1.883,0.596-2.283,1.458c-0.149,0.322-0.815,1.999-1.296,4.234
	c-0.327,1.517-0.735,4.288-0.735,4.288h6.105v13.873h9.671V54.45H31.1v-7.355h1.139h3.756l-1.139-6.821
	C34.458,38.038,32.9,37.115,30.697,37.115z"/>
<rect x="17.668" y="46.971" fill="#FFFFFF" width="13.535" height="24.375"/>
<rect x="22.753" y="41.829" fill="#FFFFFF" width="1.855" height="20.611"/>
<path fill="#2D7994" d="M31.199,51.827c0-0.505-0.143-0.973-0.369-1.387l0.002-0.021l-2.658-6.579v-6.725h-2.112v6.725h-8.593
	v-6.725h-2.108v6.725l-1.857,6.594l-0.423,1.321v9.215v23.954h18.117V59.32v-2.115L31.199,51.827L31.199,51.827L31.199,51.827z"/>
<path fill="#1B6478" d="M19.156,46.922v1.76v1.602v0.863c0,0.319,0.259,0.577,0.578,0.577h5.255c0.318,0,0.577-0.257,0.577-0.577
	v-0.863v-1.602v-1.76H19.156z"/>
<g>
	<g>
		<path fill="#C0772A" d="M47.466,167.46l-3.057,0.705c-1.425-0.019-2.783-0.485-3.901-1.297c-0.844-0.613-1.549-1.42-2.043-2.377
			l-1.376-5.945H36.93l-4.576,1.062l1.738,7.516l0.582,2.52l0.186,0.806l0.188,0.811l0.404,1.746l16.271-3.764
			C50.857,167.833,49.163,167.064,47.466,167.46z"/>
		<path fill="#34383A" d="M35.734,174.229l4.73-1.092l-0.107-0.463l-0.178-0.764l2.383,0.74l9.645-2.23
			c-0.1-0.43-0.268-0.826-0.484-1.182l-16.271,3.764l0.176,0.77L35.734,174.229z"/>
	</g>
	<g>
		
			<rect x="22.199" y="85.623" transform="matrix(-0.9743 0.2253 -0.2253 -0.9743 79.5553 242.8194)" fill="#2D7994" width="7.446" height="80.652"/>
		<path fill="#1B6478" d="M25.017,119.948l1.886,8.153l0.539,2.33l0.291,1.26c0.106,0.461,0.569,0.75,1.032,0.646L31.1,131.8
			l-2.909-12.586L25.017,119.948z"/>
	</g>
</g>
<g>
	<path fill="#939393" d="M-0.465,90.07l7.547,1.08c2.276,0.325,3.862,2.441,3.537,4.716l-1.034,7.229
		c-0.326,2.274-2.44,3.861-4.717,3.535l-7.547-1.08c-2.274-0.324-3.861-2.441-3.536-4.716l1.034-7.229
		C-4.855,91.331-2.739,89.744-0.465,90.07z M5.222,104.158c0.912,0.131,1.761-0.505,1.891-1.416l1.034-7.229
		c0.13-0.911-0.507-1.759-1.418-1.89l-7.547-1.08c-0.912-0.131-1.76,0.505-1.891,1.416l-1.034,7.229
		c-0.13,0.911,0.506,1.759,1.417,1.89L5.222,104.158z"/>
	<polygon fill="#FFFFFF" points="-4.454,130.822 -0.512,131.385 -3.802,154.377 -6.192,157.025 -7.743,153.814 	"/>
	
		<rect x="-7.481" y="125.226" transform="matrix(-0.9899 -0.1417 0.1417 -0.9899 -25.4035 269.2079)" fill="#939393" width="8.736" height="20.565"/>
	<path fill="#FFD62C" d="M-9.685,125.277c-0.261,1.82,1.003,3.506,2.824,3.768l9.156,1.309c1.82,0.262,3.507-1.002,3.768-2.824
		l3.548-24.803l-15.748-2.254L-9.685,125.277z"/>
</g>
<g>
	<path fill="#F8B69C" d="M6.571,89.588c-0.002,0-0.002,0-0.003,0l0.043-0.283l0.717-4.654l4.667-30.274L6,53.452L1.333,83.725
		l-0.718,4.654l-0.618,4.016l0.014,0.004c-0.01,0.037-0.027,0.078-0.033,0.117c-0.255,1.656,0.881,3.209,2.537,3.465
		c1.657,0.254,3.207-0.883,3.463-2.541c0.005-0.039,0-0.082,0.006-0.121l0.009,0.002l0.087-0.565c0.001,0,0.002,0,0.003,0
		c0.875,0.136,1.693-0.465,1.827-1.336C8.045,90.542,7.446,89.723,6.571,89.588z"/>
	
		<rect x="5.788" y="53.904" transform="matrix(-0.9883 -0.1524 0.1524 -0.9883 9.1518 110.7863)" opacity="0.4" fill="#B78D7E" enable-background="new    " width="6.066" height="2.277"/>
	
		<rect x="6.521" y="46.635" transform="matrix(-0.9883 -0.1523 0.1523 -0.9883 11.3369 101.4538)" fill="#FFFFFF" width="6.066" height="7.316"/>
</g>
</svg>
