<?xml version="1.0" encoding="utf-8"?>
<!-- Generator: Adobe Illustrator 16.0.0, SVG Export Plug-In . SVG Version: 6.00 Build 0)  -->
<!DOCTYPE svg PUBLIC "-//W3C//DTD SVG 1.1//EN" "http://www.w3.org/Graphics/SVG/1.1/DTD/svg11.dtd">
<svg version="1.1" id="Layer_1" xmlns="http://www.w3.org/2000/svg" xmlns:xlink="http://www.w3.org/1999/xlink" x="0px" y="0px"
	 width="117.959px" height="217.646px" viewBox="0 -39.646 117.959 217.646" enable-background="new 0 -39.646 117.959 217.646"
	 xml:space="preserve">
<g>
	<g>
		<path fill="#F9B69B" d="M51.223,60.557l0.002,0.004h-0.291h-4.702H27.104v6.059h19.128h4.702h4.061v-0.014
			c0.043,0.002,0.082,0.014,0.123,0.014c1.675,0,3.032-1.358,3.032-3.033c0-1.673-1.357-3.029-3.032-3.029
			c-0.041,0-0.08,0.01-0.123,0.012v-0.008h-0.57l0.001-0.004c0-0.887-0.718-1.603-1.601-1.603
			C51.94,58.954,51.223,59.67,51.223,60.557z"/>
		<rect x="27.104" y="49.852" fill="#F9B69B" width="6.06" height="14.119"/>
	</g>
	<g>
		<g>
			<path fill="#F9B69B" d="M27.905,10.096l3.16,11.273h-1.909v8.014h-3.105c0,0-1.482,0.186-1.482,1.483c0,0.558,0,5.143,0,7.368
				v2.596h-7.107v-1.669V9.864h10.258L27.905,10.096z"/>
			<circle fill="#467700" cx="26.847" cy="17.238" r="0.544"/>
			<path fill="#F28981" d="M27.975,24.828c-0.08,0-0.143-0.064-0.143-0.143h-0.557c0,0.385,0.313,0.698,0.699,0.698h1.192v-0.556
				H27.975z"/>
			<path fill="#7C3A0E" d="M12.471,7.13V35.73c0,0,1.792,0,3.56,0c5.361,0,5.075-5.075,5.075-5.075V19.799
				c-1.009-0.002-1.826-0.822-1.826-1.831c0-1.011,0.818-1.831,1.83-1.831c0.801,0,1.476,0.52,1.724,1.235l0.023-0.075
				c1.171-0.086,2.095-1.027,2.149-2.206h0.012v-1.459c0.522,0,1.175,0,1.996,0c1.82,0,3.228-0.548,4.308-1.325
				c2.644-1.9-1.369-5.177-1.369-5.177H12.471z"/>
		</g>
		<path fill="#FFD62C" d="M32.387,10.009C31.572,4.767,28.34-0.006,21.38-0.006c-8.069,0-11.228,6.596-11.228,12.795h21.198h1.257
			h2.561L32.387,10.009z"/>
	</g>
	<g>
		<path fill="#B25A0B" d="M39.083,171.061h-3.132c-1.383-0.338-2.6-1.1-3.506-2.141c-0.682-0.787-1.188-1.73-1.453-2.77v-6.1
			l-0.156-0.033h-4.692v7.709v2.578v0.828v0.83v1.789h16.684C42.301,172.188,40.824,171.061,39.083,171.061z"/>
		<path fill="#33373A" d="M26.144,175.012h4.849v-0.471v-0.785l2.152,1.256h9.889c0-0.441-0.074-0.863-0.206-1.26H26.144v0.789
			V175.012z"/>
	</g>
	<g>
		<path fill="#C17614" d="M28.746,171.061h-3.131c-1.385-0.338-2.601-1.1-3.506-2.141c-0.684-0.787-1.189-1.73-1.455-2.77v-6.1
			l-0.156-0.033h-4.692v7.709v2.578v0.828v0.83v1.789h16.683C31.963,172.188,30.486,171.061,28.746,171.061z"/>
		<path fill="#33373A" d="M15.806,175.012h4.849v-0.471v-0.785l2.154,1.256h9.887c0-0.441-0.072-0.863-0.207-1.26H15.806v0.789
			V175.012z"/>
	</g>
	<rect x="27.104" y="54.092" opacity="0.4" fill="#B78C7D" width="6.06" height="2.275"/>
	<g>
		<rect x="13.403" y="87.953" fill="#2C7893" width="7.438" height="78.143"/>
		<path fill="#196377" d="M17.589,119.764v8.361v2.393v1.291c0,0.475,0.385,0.859,0.859,0.859h2.393v-12.904H17.589z"/>
	</g>
	<g>
		<rect x="23.741" y="87.953" fill="#2C7893" width="7.437" height="78.143"/>
		<path fill="#196377" d="M27.925,119.764v8.361v2.393v1.291c0,0.475,0.385,0.859,0.86,0.859h2.393v-12.904H27.925z"/>
	</g>
	<path fill="#FFFFFF" d="M30.675,37.086h-4.122h-1.975h-0.004c0,1.962-1.59,3.551-3.554,3.551c-1.962,0-3.553-1.589-3.554-3.551
		h-0.082H13.08h-1.793c-1.387,0-2.512,1.125-2.512,2.514L8.763,54.404h4.313v6.514h9.661v-6.514h3.815v-0.312h5.662h0.971v-8.32
		v-2.703V39.6C33.186,38.211,32.062,37.086,30.675,37.086z"/>
	<rect x="17.658" y="50.553" fill="#FFFFFF" width="13.52" height="20.73"/>
	<rect x="22.737" y="41.796" fill="#FFFFFF" width="1.854" height="20.591"/>
	<path fill="#2C7893" d="M31.174,51.783c0-0.505-0.14-0.972-0.366-1.385l0.004-0.021l-2.656-6.57v-6.721h-2.11v6.721h-8.582v-6.721
		h-2.109v6.721l-0.532,10.578v2.774l-1.745,3.759v32.146h18.098V59.271v-2.112V51.783L31.174,51.783L31.174,51.783z"/>
	<path fill="#196377" d="M19.145,46.885v1.758v1.6v0.862c0,0.319,0.258,0.577,0.576,0.577h5.252c0.318,0,0.575-0.258,0.575-0.577
		v-0.862v-1.6v-1.758H19.145z"/>
	<g>
		<path fill="#939393" d="M31.172,73.57v-7.624c0-2.3,1.87-4.169,4.168-4.169h7.303c2.298,0,4.168,1.869,4.168,4.169v7.624
			c0,2.298-1.87,4.168-4.168,4.168H35.34C33.042,77.738,31.172,75.868,31.172,73.57z M44.312,65.946c0-0.921-0.749-1.672-1.67-1.672
			H35.34c-0.921,0-1.67,0.751-1.67,1.672v7.624c0,0.921,0.749,1.671,1.67,1.671h7.303c0.921,0,1.67-0.75,1.67-1.671V65.946z"/>
		<polygon fill="#FFFFFF" points="72.078,71.748 72.078,67.767 95.305,67.767 98.264,69.758 95.305,71.748 		"/>
		<rect x="66.246" y="65.39" fill="#939393" width="20.564" height="8.735"/>
		<path fill="#FFD62C" d="M67.33,77.712c1.84,0,3.33-1.49,3.33-3.329v-9.249c0-1.839-1.49-3.33-3.33-3.33H42.273v15.908H67.33z"/>
	</g>
	<g>
		<path fill="#F9B69B" d="M28.418,69.342l0.002,0.004h-0.291H26.82H8.906v6.059H26.82h1.309h4.062v-0.012
			c0.042,0.002,0.081,0.012,0.122,0.012c1.676,0,3.033-1.357,3.033-3.032c0-1.674-1.357-3.03-3.033-3.03
			c-0.041,0-0.08,0.011-0.122,0.012v-0.008h-0.571l0.002-0.004c0-0.886-0.718-1.603-1.6-1.603
			C29.137,67.739,28.418,68.456,28.418,69.342z"/>
		<rect x="8.906" y="54.408" fill="#F9B69B" width="6.06" height="18.348"/>
	</g>
	<rect x="8.763" y="54.408" opacity="0.4" fill="#B78C7D" width="6.093" height="2.205"/>
	<g opacity="0.26">
		<path fill="#D3E5EF" d="M99.213,51.334c5.088,0,9.211,4.125,9.211,9.211c0,5.089-4.123,9.213-9.211,9.213"/>
		<path fill="#D3E5EF" d="M99.213-31.791c8.572,0,15.521,6.949,15.521,15.521S107.785-0.746,99.213-0.746"/>
		<path fill="#D3E5EF" d="M99.213,13.843c10.352,0,18.746,8.392,18.746,18.746c0,10.351-8.395,18.745-18.746,18.745"/>
		<path fill="#D3E5EF" d="M99.213-3.395c-13.633,0-24.684,11.053-24.684,24.685c0,13.631,11.051,24.681,24.684,24.681"/>
		<path fill="#D3E5EF" d="M99.213-39.646c-5.48,0-9.924,4.444-9.924,9.924c0,5.481,4.443,9.926,9.924,9.926"/>
	</g>
</g>
</svg>
