<?xml version="1.0" encoding="utf-8"?>
<!-- Generator: Adobe Illustrator 16.0.0, SVG Export Plug-In . SVG Version: 6.00 Build 0)  -->
<!DOCTYPE svg PUBLIC "-//W3C//DTD SVG 1.1//EN" "http://www.w3.org/Graphics/SVG/1.1/DTD/svg11.dtd">
<svg version="1.1" id="Layer_1" xmlns="http://www.w3.org/2000/svg" xmlns:xlink="http://www.w3.org/1999/xlink" x="0px" y="0px"
	 width="75.418px" height="182.292px" viewBox="0 0 75.418 182.292" enable-background="new 0 0 75.418 182.292"
	 xml:space="preserve">
<g>
	<path fill="#2D7994" d="M22.717,87.719c0,4.461,3.624,8.082,8.094,8.082h6.125c4.471,0,8.096-3.619,8.096-8.082v-3.062H22.717
		V87.719z"/>
	<path fill="#F8B69C" d="M50.48,95.894c-0.035,0-0.063,0.009-0.098,0.009v-2.938V52.958h-6.729v40.006v4.55v4.21
		c0,0.006-0.002,0.006-0.002,0.006c0,0.004,0.002,0.004,0.002,0.004v0.327h0.033c0.166,1.7,1.586,3.032,3.332,3.032
		c1.744,0,3.162-1.332,3.332-3.032h0.031v-0.315c0-0.006,0-0.008,0-0.014c0-0.002,0-0.008,0-0.012v-3.445
		c0.033,0.008,0.062,0.012,0.1,0.012c0.662,0,1.197-0.535,1.197-1.197C51.682,96.429,51.145,95.894,50.48,95.894"/>
	<g opacity="0.4">
		<g>
			<g>
				<g>
					<defs>
						<rect id="SVGID_1_" x="43.655" y="63.831" width="6.729" height="2.104"/>
					</defs>
					<clipPath id="SVGID_2_">
						<use xlink:href="#SVGID_1_"  overflow="visible"/>
					</clipPath>
					<rect x="43.655" y="63.831" clip-path="url(#SVGID_2_)" fill="#B78D7E" width="6.729" height="2.104"/>
				</g>
			</g>
		</g>
	</g>
	<path fill="#9B5E26" d="M54.539,174.634h-3.712c-1.64-0.403-3.082-1.305-4.154-2.535c-0.812-0.932-1.407-2.049-1.725-3.277v-7.219
		l-0.185-0.041h-5.56v9.123v3.052v0.979v0.979v2.119h19.769C58.35,175.968,56.602,174.634,54.539,174.634"/>
	<path fill="#34383A" d="M39.205,179.306h5.743v-0.557v-0.93l2.552,1.484h11.717c0-0.52-0.087-1.021-0.244-1.489H39.205v0.935
		V179.306z"/>
	<g opacity="0.4">
		<g>
			<g>
				<g>
					<defs>
						<rect id="SVGID_3_" x="39.205" y="166.354" width="5.773" height="1.829"/>
					</defs>
					<clipPath id="SVGID_4_">
						<use xlink:href="#SVGID_3_"  overflow="visible"/>
					</clipPath>
					<rect x="39.205" y="166.354" clip-path="url(#SVGID_4_)" fill="#9B5E26" width="5.773" height="1.829"/>
				</g>
			</g>
		</g>
	</g>
	<rect x="36.251" y="85.855" fill="#2D7994" width="8.713" height="80.499"/>
	<path fill="#1B6478" d="M41.15,120.371v9.779v2.797v1.516c0,0.555,0.453,1.002,1.009,1.002h2.804v-15.094H41.15z"/>
	<path fill="#C0772A" d="M41.055,174.634h-3.71c-1.641-0.403-3.083-1.305-4.155-2.535c0,0.121-0.003,0.24-0.003,0.352
		c0,3.062-3.252,3.248-3.252,3.248h-4.212v2.118h19.767C44.866,175.968,43.117,174.634,41.055,174.634"/>
	<path fill="#C0772A" d="M33.186,172.449c0-0.109,0.003-0.229,0.003-0.351c-0.809-0.931-1.407-2.05-1.723-3.277v-7.219l-0.185-0.041
		h-5.56v9.123v3.052v0.979v0.982h4.212C29.934,175.697,33.186,175.509,33.186,172.449"/>
	<path fill="#34383A" d="M25.721,179.306h5.745v-0.557v-0.93l2.55,1.484H45.73c0-0.52-0.086-1.021-0.244-1.489H25.721v0.935V179.306
		z"/>
	<g opacity="0.4">
		<g>
			<g>
				<g>
					<defs>
						<rect id="SVGID_5_" x="25.721" y="166.354" width="5.775" height="1.829"/>
					</defs>
					<clipPath id="SVGID_6_">
						<use xlink:href="#SVGID_5_"  overflow="visible"/>
					</clipPath>
					<rect x="25.721" y="166.354" clip-path="url(#SVGID_6_)" fill="#9B5E26" width="5.775" height="1.829"/>
				</g>
			</g>
		</g>
	</g>
	<rect x="22.783" y="85.855" fill="#2D7994" width="8.713" height="80.499"/>
	<path fill="#1B6478" d="M26.092,134.462v-1.517v-2.797v-9.778h-3.309v15.094h2.299C25.64,135.464,26.092,135.016,26.092,134.462"/>
	<g>
		<path fill="#939393" d="M15.809,98.25h7.059c2.127,0,3.857,1.73,3.857,3.857v6.76c0,2.127-1.73,3.857-3.857,3.857h-7.059
			c-2.127,0-3.857-1.73-3.857-3.857v-6.76C11.951,99.98,13.682,98.25,15.809,98.25z M22.867,110.414
			c0.852,0,1.545-0.695,1.545-1.547v-6.76c0-0.854-0.693-1.547-1.545-1.547h-7.058c-0.852,0-1.545,0.693-1.545,1.547v6.76
			c0,0.852,0.693,1.547,1.545,1.547H22.867z"/>
		<polygon fill="#FFFFFF" points="17.494,136.111 21.18,136.111 21.18,157.609 19.338,160.347 17.494,157.609 		"/>
		<rect x="15.295" y="130.714" fill="#939393" width="8.084" height="19.031"/>
		<path fill="#FFD62C" d="M11.975,131.716c0,1.701,1.381,3.082,3.082,3.082h8.561c1.703,0,3.082-1.381,3.082-3.082v-23.191H11.975
			V131.716z"/>
	</g>
	<rect x="26.951" y="38.129" fill="#F8B69C" width="12.531" height="9.917"/>
	<path fill="#F8B69C" d="M22.801,95.894c-0.034,0-0.064,0.009-0.099,0.009v-2.938V52.958h-6.728v40.006v4.55v4.21
		c0,0.006,0,0.006,0,0.006c0,0.004,0,0.004,0,0.004v0.327h0.033c0.168,1.7,1.587,3.032,3.333,3.032c1.746,0,3.163-1.332,3.331-3.032
		h0.031v-0.315c0-0.006,0.002-0.008,0.002-0.014c0-0.002-0.002-0.008-0.002-0.012v-3.445c0.035,0.008,0.065,0.012,0.099,0.012
		c0.663,0,1.198-0.535,1.198-1.197C23.999,96.429,23.463,95.894,22.801,95.894"/>
	<g opacity="0.4">
		<g>
			<g>
				<g>
					<defs>
						<rect id="SVGID_7_" x="15.974" y="63.831" width="6.728" height="2.104"/>
					</defs>
					<clipPath id="SVGID_8_">
						<use xlink:href="#SVGID_7_"  overflow="visible"/>
					</clipPath>
					<rect x="15.974" y="63.831" clip-path="url(#SVGID_8_)" fill="#B78D7E" width="6.728" height="2.104"/>
				</g>
			</g>
		</g>
	</g>
	<path fill="#FFFFFF" d="M44.811,38.129h-4.783h-0.613h-1.289c0,2.614-2.122,4.735-4.74,4.735c-2.619,0-4.741-2.121-4.741-4.735
		h-1.939h-5.399c-3.066,0-5.552,2.48-5.552,5.542v4.063v16.097h2.148h4.88h22.18h5.399v-6.544v-5.769V43.67
		C50.361,40.609,47.877,38.129,44.811,38.129"/>
	<polygon fill="#2D7994" points="43.768,48.754 43.768,38.129 40.857,38.129 40.857,48.754 28.645,48.754 28.645,38.129 
		25.735,38.129 25.735,48.754 24.439,63.831 22.782,63.831 22.782,86.34 24.439,86.34 44.963,86.34 44.963,63.831 	"/>
	<path fill="#C0E0EF" d="M42.424,62.313c0.415-0.415,0.567-0.996,0.456-1.531l-1.125,1.124l-1.299-1.297l1.125-1.126
		c-0.538-0.11-1.119,0.04-1.536,0.458c-0.417,0.417-0.566,0.996-0.456,1.532l-1.642,1.638l-2.236,2.231l1.299,1.3l2.237-2.234
		l1.64-1.639C41.428,62.881,42.007,62.73,42.424,62.313"/>
	<path fill="#1B6478" d="M28.645,63.831v3.071V69.7v1.51c0,0.557,0.452,1.008,1.01,1.008h9.196c0.557,0,1.006-0.452,1.006-1.008
		V69.7v-2.798v-3.071H28.645z"/>
	<path fill="#F8B69C" d="M41.152,12.061l4.814,10.776h-3.652V34.17h-2.879c0,0-1.375,0.17-1.375,1.372v2.578v2.403h-9.414V38.98
		V11.85h12.336L41.152,12.061z"/>
	<path fill="#2F3E4A" d="M39.885,16.131c0,0.278-0.227,0.504-0.506,0.504s-0.504-0.227-0.504-0.504c0-0.28,0.227-0.505,0.504-0.505
		C39.658,15.625,39.885,15.851,39.885,16.131"/>
	<g opacity="0.2">
		<g>
			<g>
				<g>
					<defs>
						<rect id="SVGID_9_" x="34.915" y="14.082" width="7.397" height="20.089"/>
					</defs>
					<clipPath id="SVGID_10_">
						<use xlink:href="#SVGID_9_"  overflow="visible"/>
					</clipPath>
					<path clip-path="url(#SVGID_10_)" fill="#4D3C18" d="M34.92,17.731v9.27c0,0-0.014,1.578,0,2.103
						c0.053,2.056-0.213,5.067,3.183,5.067h4.208V22.837h-1.977h-1.977c-1.119,0-1.635-0.558-1.635-1.629v-7.126h-1.805v3.649H34.92
						z"/>
				</g>
			</g>
		</g>
	</g>
	<path fill="#F8B69C" d="M42.312,24.646H40.4c-0.443,0-1.332,0.043-1.332,1.161v0.863h3.244V24.646L42.312,24.646z"/>
	<path fill="#CF867C" d="M40.592,25.692c-0.195,0-0.352-0.159-0.352-0.352h-0.516c0,0.477,0.387,0.864,0.864,0.864h1.726v-0.512
		H40.592L40.592,25.692z"/>
	<path fill="#67311E" d="M28.08,8.5v14.723h1.332c4.042,0,3.825-3.823,3.825-3.823v-1.705c-0.009,0-0.016,0.003-0.025,0.003
		c-0.939,0-1.698-0.759-1.698-1.696c0-0.936,0.759-1.697,1.698-1.697c0.925,0,1.673,0.742,1.693,1.661h0.002v0.036v1.696h1.812
		v-4.307h2.321c4.729,0,5.76-4.892,5.76-4.892L28.08,8.5L28.08,8.5z"/>
	<path fill="#FFD62C" d="M45.832,9.272C45.078,4.418,42.079,0,35.627,0c-7.482,0-10.409,6.106-10.409,11.85H44.87h1.165h2.375
		L45.832,9.272z"/>
</g>
</svg>
