<?xml version="1.0" encoding="utf-8"?>
<!-- Generator: Adobe Illustrator 16.0.0, SVG Export Plug-In . SVG Version: 6.00 Build 0)  -->
<!DOCTYPE svg PUBLIC "-//W3C//DTD SVG 1.1//EN" "http://www.w3.org/Graphics/SVG/1.1/DTD/svg11.dtd">
<svg version="1.1" id="Layer_1" xmlns="http://www.w3.org/2000/svg" xmlns:xlink="http://www.w3.org/1999/xlink" x="0px" y="0px"
	 width="75.418px" height="182.292px" viewBox="-8.205 0 75.418 182.292" enable-background="new -8.205 0 75.418 182.292"
	 xml:space="preserve">
<g>
	<path fill="#2D7994" d="M14.635,87.719c0,4.461,3.624,8.082,8.094,8.082h6.125c4.471,0,8.096-3.62,8.096-8.082v-3.062H14.635
		V87.719z"/>
	<path fill="#F8B69C" d="M42.399,95.894c-0.035,0-0.064,0.009-0.098,0.009v-2.938V52.958h-6.729v40.006v4.55v4.21
		c0,0.006-0.002,0.006-0.002,0.006c0,0.004,0.002,0.004,0.002,0.004v0.327h0.033c0.166,1.7,1.586,3.032,3.332,3.032
		c1.744,0,3.162-1.332,3.332-3.032h0.032v-0.315c0-0.006,0-0.008,0-0.014c0-0.002,0-0.008,0-0.012v-3.445
		c0.033,0.008,0.062,0.012,0.099,0.012c0.662,0,1.197-0.535,1.197-1.197C43.599,96.429,43.063,95.894,42.399,95.894"/>
	<g opacity="0.4">
		<g>
			<g>
				<defs>
					<rect id="SVGID_1_" x="35.573" y="63.831" width="6.729" height="2.104"/>
				</defs>
				<clipPath id="SVGID_2_">
					<use xlink:href="#SVGID_1_"  overflow="visible"/>
				</clipPath>
				<rect x="35.573" y="63.831" clip-path="url(#SVGID_2_)" fill="#B78D7E" width="6.729" height="2.104"/>
			</g>
		</g>
	</g>
	<path fill="#9B5E26" d="M46.457,174.634h-3.712c-1.639-0.403-3.082-1.305-4.154-2.535c-0.811-0.932-1.408-2.049-1.725-3.277v-7.219
		l-0.184-0.041h-5.56v9.123v3.052v0.979v0.98v2.119H50.89C50.267,175.968,48.519,174.634,46.457,174.634"/>
	<path fill="#34383A" d="M31.123,179.306h5.743v-0.557v-0.929l2.552,1.484h11.717c0-0.519-0.087-1.021-0.245-1.489H31.123v0.934
		V179.306z"/>
	<g opacity="0.4">
		<g>
			<g>
				<defs>
					<rect id="SVGID_3_" x="31.123" y="166.354" width="5.774" height="1.829"/>
				</defs>
				<clipPath id="SVGID_4_">
					<use xlink:href="#SVGID_3_"  overflow="visible"/>
				</clipPath>
				<rect x="31.123" y="166.354" clip-path="url(#SVGID_4_)" fill="#9B5E26" width="5.774" height="1.829"/>
			</g>
		</g>
	</g>
	<rect x="28.169" y="85.855" fill="#2D7994" width="8.713" height="80.499"/>
	<path fill="#1B6478" d="M33.069,120.371v9.779v2.797v1.516c0,0.554,0.453,1.002,1.008,1.002h2.804v-15.094H33.069z"/>
	<path fill="#C0772A" d="M32.972,174.634h-3.71c-1.641-0.403-3.083-1.305-4.155-2.535c0,0.121-0.003,0.24-0.003,0.352
		c0,3.061-3.252,3.248-3.252,3.248H17.64v2.118h19.767C36.784,175.968,35.035,174.634,32.972,174.634"/>
	<path fill="#C0772A" d="M25.104,172.449c0-0.109,0.003-0.229,0.003-0.351c-0.809-0.931-1.407-2.05-1.723-3.277v-7.219l-0.185-0.041
		h-5.56v9.123v3.052v0.979v0.982h4.212C21.852,175.697,25.104,175.509,25.104,172.449"/>
	<path fill="#34383A" d="M17.639,179.306h5.745v-0.557v-0.929l2.55,1.484h11.715c0-0.519-0.086-1.021-0.244-1.489H17.639v0.934
		V179.306z"/>
	<g opacity="0.4">
		<g>
			<g>
				<defs>
					<rect id="SVGID_5_" x="17.639" y="166.354" width="5.775" height="1.829"/>
				</defs>
				<clipPath id="SVGID_6_">
					<use xlink:href="#SVGID_5_"  overflow="visible"/>
				</clipPath>
				<rect x="17.639" y="166.354" clip-path="url(#SVGID_6_)" fill="#9B5E26" width="5.775" height="1.829"/>
			</g>
		</g>
	</g>
	<rect x="14.701" y="85.855" fill="#2D7994" width="8.713" height="80.499"/>
	<path fill="#1B6478" d="M18.01,134.462v-1.516v-2.797v-9.779h-3.309v15.094H17C17.558,135.464,18.01,135.016,18.01,134.462"/>
	<g>
		<path fill="#939393" d="M7.727,98.25h7.059c2.127,0,3.857,1.73,3.857,3.857v6.759c0,2.128-1.73,3.858-3.857,3.858H7.727
			c-2.127,0-3.857-1.73-3.857-3.858v-6.759C3.869,99.98,5.6,98.25,7.727,98.25z M14.785,110.414c0.852,0,1.545-0.695,1.545-1.548
			v-6.759c0-0.853-0.693-1.547-1.545-1.547H7.727c-0.852,0-1.545,0.694-1.545,1.547v6.759c0,0.853,0.693,1.548,1.545,1.548H14.785z"
			/>
		<polygon fill="#FFFFFF" points="9.412,136.111 13.098,136.111 13.098,157.609 11.256,160.347 9.412,157.609 		"/>
		<rect x="7.213" y="130.714" fill="#939393" width="8.084" height="19.031"/>
		<path fill="#FFD62C" d="M3.893,131.716c0,1.701,1.381,3.082,3.082,3.082h8.561c1.703,0,3.082-1.381,3.082-3.082v-23.191H3.893
			V131.716z"/>
	</g>
	<rect x="18.869" y="38.129" fill="#F8B69C" width="12.531" height="9.917"/>
	<path fill="#F8B69C" d="M14.719,95.894c-0.034,0-0.064,0.009-0.099,0.009v-2.938V52.958H7.892v40.006v4.55v4.21
		c0,0.006,0,0.006,0,0.006c0,0.004,0,0.004,0,0.004v0.327h0.033c0.168,1.7,1.587,3.032,3.333,3.032s3.163-1.332,3.331-3.032h0.031
		v-0.315c0-0.006,0.002-0.008,0.002-0.014c0-0.002-0.002-0.008-0.002-0.012v-3.445c0.035,0.008,0.065,0.012,0.099,0.012
		c0.663,0,1.198-0.535,1.198-1.197C15.917,96.429,15.381,95.894,14.719,95.894"/>
	<g opacity="0.4">
		<g>
			<g>
				<defs>
					<rect id="SVGID_7_" x="7.892" y="63.831" width="6.728" height="2.104"/>
				</defs>
				<clipPath id="SVGID_8_">
					<use xlink:href="#SVGID_7_"  overflow="visible"/>
				</clipPath>
				<rect x="7.892" y="63.831" clip-path="url(#SVGID_8_)" fill="#B78D7E" width="6.728" height="2.104"/>
			</g>
		</g>
	</g>
	<path fill="#FFFFFF" d="M36.729,38.129h-4.783h-0.614h-1.289c0,2.614-2.122,4.735-4.74,4.735c-2.619,0-4.741-2.121-4.741-4.735
		h-1.939h-5.399c-3.066,0-5.552,2.48-5.552,5.542v4.063v16.097h2.148h4.88h22.18h5.399v-6.544v-5.769V43.67
		C42.28,40.609,39.795,38.129,36.729,38.129"/>
	<polygon fill="#2D7994" points="35.685,48.754 35.685,38.129 32.776,38.129 32.776,48.754 20.563,48.754 20.563,38.129 
		17.653,38.129 17.653,48.754 16.357,63.831 14.7,63.831 14.7,86.34 16.357,86.34 36.881,86.34 36.881,63.831 	"/>
	<path fill="#C0E0EF" d="M34.342,62.313c0.415-0.415,0.567-0.996,0.456-1.531l-1.125,1.124l-1.299-1.297l1.125-1.126
		c-0.538-0.11-1.119,0.04-1.536,0.458c-0.417,0.417-0.567,0.996-0.456,1.532l-1.642,1.638l-2.236,2.231l1.299,1.3l2.237-2.234
		l1.64-1.639C33.345,62.881,33.925,62.73,34.342,62.313"/>
	<path fill="#1B6478" d="M20.563,63.831v3.071V69.7v1.51c0,0.557,0.452,1.008,1.01,1.008h9.196c0.557,0,1.007-0.452,1.007-1.008
		V69.7v-2.798v-3.071H20.563z"/>
	<path fill="#F8B69C" d="M33.071,12.061l4.814,10.776h-3.653V34.17h-2.879c0,0-1.375,0.17-1.375,1.372v2.578v2.403h-9.414V38.98
		V11.85H32.9L33.071,12.061z"/>
	<path fill="#2F3E4A" d="M31.803,16.131c0,0.278-0.227,0.504-0.506,0.504s-0.504-0.227-0.504-0.504c0-0.28,0.226-0.505,0.504-0.505
		C31.576,15.625,31.803,15.851,31.803,16.131"/>
	<g opacity="0.2">
		<g>
			<g>
				<defs>
					<rect id="SVGID_9_" x="26.833" y="14.082" width="7.398" height="20.089"/>
				</defs>
				<clipPath id="SVGID_10_">
					<use xlink:href="#SVGID_9_"  overflow="visible"/>
				</clipPath>
				<path clip-path="url(#SVGID_10_)" fill="#4D3C18" d="M26.838,17.731v9.27c0,0-0.014,1.578,0,2.103
					c0.053,2.056-0.213,5.067,3.183,5.067h4.208V22.837h-1.977h-1.977c-1.119,0-1.635-0.558-1.635-1.629v-7.126h-1.805v3.649H26.838
					z"/>
			</g>
		</g>
	</g>
	<path fill="#F8B69C" d="M34.231,24.646h-1.913c-0.443,0-1.331,0.043-1.331,1.161v0.863h3.244V24.646z"/>
	<path fill="#CF867C" d="M32.51,25.692c-0.196,0-0.352-0.159-0.352-0.352h-0.516c0,0.477,0.388,0.864,0.865,0.864h1.725v-0.512
		H32.51z"/>
	<path fill="#67311E" d="M19.998,8.5v14.723h1.332c4.042,0,3.825-3.823,3.825-3.823v-1.705c-0.009,0-0.016,0.003-0.025,0.003
		c-0.939,0-1.698-0.759-1.698-1.696c0-0.936,0.759-1.697,1.698-1.697c0.925,0,1.673,0.742,1.693,1.661h0.002v0.036v1.696h1.812
		v-4.307h2.321c4.729,0,5.76-4.892,5.76-4.892L19.998,8.5L19.998,8.5z"/>
	<path fill="#FFD62C" d="M37.75,9.272C36.996,4.418,33.997,0,27.545,0c-7.482,0-10.409,6.106-10.409,11.85h19.652h1.165h2.375
		L37.75,9.272z"/>
</g>
</svg>
