<?xml version="1.0" encoding="utf-8"?>
<!-- Generator: Adobe Illustrator 16.0.0, SVG Export Plug-In . SVG Version: 6.00 Build 0)  -->
<!DOCTYPE svg PUBLIC "-//W3C//DTD SVG 1.1//EN" "http://www.w3.org/Graphics/SVG/1.1/DTD/svg11.dtd">
<svg version="1.1" id="Layer_1" xmlns="http://www.w3.org/2000/svg" xmlns:xlink="http://www.w3.org/1999/xlink" x="0px" y="0px"
	 width="75.418px" height="182.292px" viewBox="0 0 75.418 182.292" enable-background="new 0 0 75.418 182.292"
	 xml:space="preserve">
<g>
	<g>
		<path fill="#F8B69C" d="M44.281,95.259c-0.035-0.004-0.064,0.003-0.1-0.002l0.34-2.92L49.141,52.6l-6.688-0.776l-4.618,39.739
			l-0.525,4.521l-0.487,4.185c0,0.004,0,0.004,0,0.004c-0.002,0.006,0,0.006-0.002,0.015l-0.034,0.318l0.032,0.002
			c-0.03,1.706,1.226,3.189,2.958,3.395c1.734,0.201,3.297-0.957,3.658-2.623l0.035,0.002l0.035-0.314
			c0.002-0.006,0.002-0.006,0.002-0.012c0-0.004,0-0.008,0-0.014l0.398-3.42c0.031,0.008,0.061,0.018,0.096,0.021
			c0.658,0.075,1.252-0.394,1.328-1.05C45.408,95.928,44.938,95.335,44.281,95.259"/>
		<g>
			<g>
				<g>
					<polygon id="SVGID_3_" fill="#FFFFFF" points="40.312,62.523 48.051,63.419 49.922,48.235 41.994,48.046 					"/>
				</g>
				<g>
					<g>
						<g>
							<defs>
								<polygon id="SVGID_1_" points="40.312,62.523 48.051,63.419 49.922,48.235 41.994,48.046 								"/>
							</defs>
							<clipPath id="SVGID_2_">
								<use xlink:href="#SVGID_1_"  overflow="visible"/>
							</clipPath>
							<polygon clip-path="url(#SVGID_2_)" fill="#FFFFFF" points="48.051,63.419 39.461,62.424 41.145,47.948 49.734,48.943 
															"/>
						</g>
					</g>
				</g>
			</g>
		</g>
		<g opacity="0.4">
			<g>
				<g>
					<g>
						<defs>
							
								<rect id="SVGID_4_" x="41.071" y="63.011" transform="matrix(-0.9939 -0.11 0.11 -0.9939 81.5552 132.6236)" width="6.727" height="2.104"/>
						</defs>
						<clipPath id="SVGID_5_">
							<use xlink:href="#SVGID_4_"  overflow="visible"/>
						</clipPath>
						
							<rect x="41.071" y="63.011" transform="matrix(-0.9939 -0.11 0.11 -0.9939 81.5552 132.6236)" clip-path="url(#SVGID_5_)" fill="#B78D7E" width="6.727" height="2.104"/>
					</g>
				</g>
			</g>
		</g>
	</g>
	<path fill="#2D7994" d="M22.791,87.667c0,4.461,3.574,8.131,8.043,8.131h6.125c4.473,0,8.014-3.618,8.014-8.083v-3.06
		l-22.182-0.051V87.667z"/>
	<g>
		<path fill="#9B5E26" d="M69.926,171.451l-3.654,0.647c-1.688-0.111-3.262-0.75-4.533-1.776c-0.961-0.771-1.746-1.768-2.27-2.927
			l-1.264-7.104l-0.189-0.006l-5.475,0.967l1.596,8.983l0.533,3.007l0.17,0.963l0.174,0.965l0.369,2.09l19.463-3.442
			C73.91,172.101,71.957,171.089,69.926,171.451"/>
		<path fill="#34383A" d="M55.645,178.724l5.656-1.001l-0.098-0.55l-0.162-0.911l2.77,1.017l11.537-2.043
			c-0.092-0.512-0.268-0.988-0.502-1.421l-19.465,3.444l0.164,0.916L55.645,178.724z"/>
		<g opacity="0.4">
			<g>
				<g>
					<g>
						<g>
							<defs>
								
									<rect id="SVGID_6_" x="53.502" y="165.455" transform="matrix(-0.7649 0.6441 -0.6441 -0.7649 206.6856 257.3057)" width="5.773" height="1.83"/>
							</defs>
							<clipPath id="SVGID_7_">
								<use xlink:href="#SVGID_6_"  overflow="visible"/>
							</clipPath>
							
								<rect x="53.498" y="165.452" transform="matrix(-0.9847 0.1742 -0.1742 -0.9847 140.8899 320.3647)" clip-path="url(#SVGID_7_)" fill="#9B5E26" width="5.774" height="1.827"/>
						</g>
					</g>
				</g>
			</g>
		</g>
		<polygon fill="#2D7994" points="59.053,164.966 50.471,166.484 36.404,87.224 44.984,85.705 		"/>
		<path fill="#1B6478" d="M47.264,120.354l1.709,9.628l0.486,2.758l0.266,1.485c0.098,0.547,0.623,0.915,1.17,0.819l2.76-0.49
			l-2.639-14.862L47.264,120.354z"/>
	</g>
	<g>
		<path fill="#C0772A" d="M26.155,176.863l-3.659-0.619c-1.549-0.67-2.82-1.801-3.67-3.193c-0.021,0.121-0.043,0.24-0.062,0.348
			c-0.513,3.021-3.752,2.658-3.752,2.658l-4.151-0.701l-0.355,2.09l19.49,3.307C29.688,178.818,28.188,177.208,26.155,176.863"/>
		<path fill="#C0772A" d="M18.765,173.396c0.02-0.105,0.038-0.225,0.061-0.346c-0.642-1.055-1.045-2.254-1.148-3.521l1.21-7.113
			l-0.177-0.069l-5.482-0.931l-1.527,8.992l-0.513,3.014l-0.165,0.963l-0.163,0.97l4.151,0.701
			C15.012,176.054,18.251,176.414,18.765,173.396"/>
		<path fill="#34383A" d="M10.255,178.91l5.664,0.959l0.093-0.545l0.155-0.92l2.266,1.889l11.551,1.963
			c0.087-0.514,0.087-1.021,0.01-1.508l-19.49-3.306l-0.156,0.917L10.255,178.91z"/>
		<g opacity="0.4">
			<g>
				<g>
					<g>
						<g>
							<defs>
								
									<rect id="SVGID_8_" x="12.232" y="166.592" transform="matrix(-0.7825 -0.6227 0.6227 -0.7825 -77.3531 307.995)" width="5.775" height="1.832"/>
							</defs>
							<clipPath id="SVGID_9_">
								<use xlink:href="#SVGID_8_"  overflow="visible"/>
							</clipPath>
							
								<rect x="12.237" y="166.607" transform="matrix(-0.9859 -0.1674 0.1674 -0.9859 1.9892 335.2087)" clip-path="url(#SVGID_9_)" fill="#9B5E26" width="5.775" height="1.828"/>
						</g>
					</g>
				</g>
			</g>
		</g>
		<polygon fill="#2D7994" points="18.119,167.104 9.53,165.646 23.02,86.285 31.61,87.742 		"/>
		<path fill="#1B6478" d="M18.134,134.757l0.254-1.488l0.47-2.758l1.64-9.643l-3.263-0.555l-2.53,14.88l2.269,0.386
			C17.52,135.675,18.042,135.306,18.134,134.757"/>
	</g>
	<rect x="26.976" y="38.128" fill="#F8B69C" width="12.53" height="9.917"/>
	<path fill="#FFFFFF" d="M44.834,38.128h-4.781h-0.615H38.15c0,2.614-2.123,4.735-4.74,4.735c-2.619,0-4.742-2.121-4.742-4.735
		h-1.938H21.33c-3.065,0-5.552,2.48-5.552,5.542c0,0,0.017,1.199,0,2.198S16.3,49.27,16.3,49.27h6.505l0.001,14.561h21.346V49.258
		h5.582c0,0,0.33-1.737,0.475-2.819c0.146-1.083,0.178-2.769,0.178-2.769C50.387,40.609,47.902,38.128,44.834,38.128"/>
	<polygon fill="#2D7994" points="43.793,48.754 43.793,38.128 40.883,38.128 40.883,48.754 28.667,48.754 28.667,38.128 
		25.759,38.128 25.759,48.754 22.806,62.604 22.806,86.34 24.462,86.34 44.986,86.34 44.986,63.831 	"/>
	<path fill="#C0E0EF" d="M42.447,62.312c0.416-0.415,0.566-0.995,0.457-1.527l-1.125,1.121L40.48,60.61l1.125-1.126
		c-0.537-0.11-1.119,0.04-1.535,0.457c-0.416,0.418-0.566,0.997-0.457,1.532l-1.641,1.64l-2.236,2.231l1.299,1.298l2.239-2.234
		l1.639-1.638C41.451,62.881,42.031,62.73,42.447,62.312"/>
	<path fill="#1B6478" d="M28.667,63.831V66.9v2.8v1.509c0,0.557,0.453,1.009,1.01,1.009h9.196c0.559,0,1.008-0.452,1.008-1.009V69.7
		v-2.8v-3.069H28.667z"/>
	<path fill="#F8B69C" d="M41.178,12.061l4.812,10.776h-3.652v11.332h-2.879c0,0-1.375,0.171-1.375,1.374v2.578v2.401h-9.412V38.98
		V11.85h12.336L41.178,12.061z"/>
	<path fill="#2F3E4A" d="M39.91,16.129c0,0.279-0.229,0.505-0.508,0.505c-0.275,0-0.504-0.226-0.504-0.505
		c0-0.279,0.229-0.505,0.504-0.505C39.682,15.624,39.91,15.85,39.91,16.129"/>
	<g opacity="0.2">
		<g>
			<g>
				<g>
					<g>
						<defs>
							<rect id="SVGID_10_" x="34.939" y="14.082" width="7.397" height="20.087"/>
						</defs>
						<clipPath id="SVGID_11_">
							<use xlink:href="#SVGID_10_"  overflow="visible"/>
						</clipPath>
						<path clip-path="url(#SVGID_11_)" fill="#4D3C18" d="M34.945,17.73v9.271c0,0-0.014,1.577,0,2.103
							c0.053,2.056-0.213,5.065,3.184,5.065h4.208V22.837h-1.977h-1.977c-1.119,0-1.635-0.558-1.635-1.629v-7.126h-1.805
							L34.945,17.73L34.945,17.73z"/>
					</g>
				</g>
			</g>
		</g>
	</g>
	<path fill="#F8B69C" d="M42.336,24.646h-1.91c-0.443,0-1.332,0.042-1.332,1.161v0.863h3.244v-2.024H42.336z"/>
	<path fill="#CF867C" d="M40.615,25.691c-0.195,0-0.352-0.159-0.352-0.351h-0.518c0,0.477,0.389,0.863,0.865,0.863h1.725v-0.512
		H40.615z"/>
	<g>
		<path fill="#939393" d="M24.423,97.925l6.994-0.954c2.107-0.287,4.057,1.194,4.344,3.302l0.912,6.695
			c0.289,2.109-1.192,4.058-3.301,4.346l-6.994,0.953c-2.106,0.287-4.056-1.193-4.344-3.303l-0.912-6.696
			C20.835,100.162,22.317,98.212,24.423,97.925z M33.062,109.024c0.844-0.114,1.438-0.897,1.32-1.741l-0.912-6.697
			c-0.115-0.846-0.896-1.438-1.74-1.322l-6.994,0.951c-0.844,0.115-1.438,0.896-1.322,1.742l0.914,6.696
			c0.114,0.845,0.896,1.44,1.739,1.325L33.062,109.024z"/>
		<polygon fill="#FFFFFF" points="31.208,135.21 34.862,134.712 37.766,156.014 36.311,158.976 34.115,156.512 		"/>
		
			<rect x="29.55" y="129.53" transform="matrix(-0.9908 0.1351 -0.1351 -0.9908 85.6556 272.2789)" fill="#939393" width="8.084" height="19.029"/>
		<path fill="#FFD62C" d="M25.147,131.603c0.229,1.686,1.785,2.867,3.47,2.639l8.482-1.158c1.688-0.229,2.868-1.783,2.637-3.469
			l-3.133-22.98l-14.589,1.99L25.147,131.603z"/>
	</g>
	<path fill="#67311E" d="M28.105,8.498v14.725h1.331c4.042,0,3.826-3.823,3.826-3.823v-1.705c-0.009,0-0.017,0.003-0.025,0.003
		c-0.938,0-1.698-0.759-1.698-1.696c0-0.936,0.76-1.697,1.698-1.697c0.925,0,1.673,0.742,1.693,1.661h0.002v0.036v1.696h1.812
		v-4.307h2.323c4.729,0,5.758-4.894,5.758-4.894L28.105,8.498L28.105,8.498z"/>
	<path fill="#FFD62C" d="M45.855,9.272C45.102,4.418,42.104,0,35.651,0c-7.481,0-10.407,6.106-10.407,11.85h19.653h1.164h2.375
		L45.855,9.272z"/>
	<g>
		<path fill="#F8B69C" d="M31.153,94.029c-0.032,0.006-0.062,0.02-0.096,0.025l-0.498-2.897L23.776,51.73l-6.631,1.138l6.784,39.426
			l0.771,4.488l0.715,4.145c0,0.005,0,0.005,0,0.005c0,0.006,0,0.006,0.002,0.012l0.055,0.317l0.033-0.008
			c0.453,1.646,2.076,2.719,3.797,2.424c1.72-0.297,2.891-1.848,2.769-3.549l0.031-0.006l-0.054-0.312
			c-0.002-0.006,0.002-0.006,0-0.014c0-0.004-0.002-0.008-0.004-0.014l-0.584-3.394c0.033-0.002,0.065-0.002,0.1-0.007
			c0.65-0.112,1.09-0.731,0.979-1.383C32.425,94.353,31.805,93.917,31.153,94.029"/>
		<g>
			<g>
				<g>
					<polygon id="SVGID_13_" fill="#FFFFFF" points="18.772,63.62 26.304,62.408 23.832,48.046 16.302,49.258 					"/>
				</g>
				<g>
					<g>
						<g>
							<defs>
								<polygon id="SVGID_12_" points="18.772,63.62 26.304,62.408 23.832,48.046 16.302,49.258 								"/>
							</defs>
							<clipPath id="SVGID_14_">
								<use xlink:href="#SVGID_12_"  overflow="visible"/>
							</clipPath>
							<polygon clip-path="url(#SVGID_14_)" fill="#FFFFFF" points="27.296,62.158 18.772,63.62 16.302,49.258 24.826,47.795 
															"/>
						</g>
					</g>
				</g>
			</g>
		</g>
		<g opacity="0.4">
			<g>
				<g>
					<g>
						<defs>
							
								<rect id="SVGID_15_" x="19.099" y="63.011" transform="matrix(-0.9861 0.166 -0.166 -0.9861 55.2487 123.5075)" width="6.727" height="2.104"/>
						</defs>
						<clipPath id="SVGID_16_">
							<use xlink:href="#SVGID_15_"  overflow="visible"/>
						</clipPath>
						
							<rect x="19.099" y="63.011" transform="matrix(-0.9861 0.166 -0.166 -0.9861 55.2487 123.5075)" clip-path="url(#SVGID_16_)" fill="#B78D7E" width="6.727" height="2.104"/>
					</g>
				</g>
			</g>
		</g>
	</g>
</g>
</svg>
