<?xml version="1.0" encoding="utf-8"?>
<!-- Generator: Adobe Illustrator 16.0.0, SVG Export Plug-In . SVG Version: 6.00 Build 0)  -->
<!DOCTYPE svg PUBLIC "-//W3C//DTD SVG 1.1//EN" "http://www.w3.org/Graphics/SVG/1.1/DTD/svg11.dtd">
<svg version="1.1" id="Layer_1" xmlns="http://www.w3.org/2000/svg" xmlns:xlink="http://www.w3.org/1999/xlink" x="0px" y="0px"
	 width="75.418px" height="182.292px" viewBox="-8.205 0 75.418 182.292" enable-background="new -8.205 0 75.418 182.292"
	 xml:space="preserve">
<g>
	<g>
		<path fill="#F8B69C" d="M36.177,95.259c-0.037-0.004-0.066,0.003-0.1-0.002l0.339-2.92L41.035,52.6l-6.687-0.776l-4.618,39.739
			l-0.525,4.521l-0.487,4.184c0,0.004,0,0.004,0,0.004c-0.002,0.006,0,0.006-0.002,0.014l-0.035,0.319l0.033,0.002
			c-0.031,1.706,1.226,3.19,2.959,3.394c1.733,0.201,3.296-0.957,3.658-2.623l0.035,0.002l0.035-0.314
			c0.002-0.006,0.002-0.006,0.002-0.012c0-0.004,0-0.008,0-0.014l0.398-3.42c0.031,0.008,0.061,0.018,0.096,0.021
			c0.657,0.075,1.251-0.394,1.327-1.05C37.303,95.928,36.832,95.335,36.177,95.259"/>
		<g opacity="0.4">
			<g>
				<g>
					<g>
						<defs>
							
								<rect id="SVGID_1_" x="32.951" y="63.007" transform="matrix(0.9407 0.3393 -0.3393 0.9407 23.8895 -8.5217)" width="6.728" height="2.103"/>
						</defs>
						<clipPath id="SVGID_2_">
							<use xlink:href="#SVGID_1_"  overflow="visible"/>
						</clipPath>
						
							<rect x="32.952" y="63.005" transform="matrix(0.9934 0.1151 -0.1151 0.9934 7.6136 -3.754)" clip-path="url(#SVGID_2_)" fill="#B78D7E" width="6.729" height="2.103"/>
					</g>
				</g>
			</g>
		</g>
		<g>
			<g>
				<g>
					<polygon id="SVGID_3_" fill="#FFFFFF" points="32.208,62.523 39.945,63.419 41.816,48.235 33.888,48.046 					"/>
				</g>
				<g>
					<g>
						<defs>
							<polygon id="SVGID_4_" points="32.208,62.523 39.945,63.419 41.816,48.235 33.888,48.046 							"/>
						</defs>
						<clipPath id="SVGID_5_">
							<use xlink:href="#SVGID_4_"  overflow="visible"/>
						</clipPath>
						<polygon clip-path="url(#SVGID_5_)" fill="#FFFFFF" points="39.945,63.419 31.356,62.424 33.039,47.948 41.629,48.943 						
							"/>
					</g>
				</g>
			</g>
		</g>
	</g>
	<path fill="#2D7994" d="M14.686,87.667c0,4.461,3.574,8.131,8.043,8.131h6.125c4.472,0,8.014-3.618,8.014-8.083v-3.06
		l-22.182-0.051V87.667z"/>
	<g>
		<path fill="#9B5E26" d="M61.82,171.451l-3.654,0.647c-1.688-0.111-3.262-0.75-4.533-1.776c-0.961-0.771-1.746-1.768-2.27-2.927
			l-1.264-7.104l-0.188-0.006l-5.475,0.967l1.596,8.983l0.533,3.007l0.17,0.963l0.174,0.965l0.369,2.09l19.463-3.443
			C65.805,172.101,63.852,171.089,61.82,171.451"/>
		<path fill="#34383A" d="M47.539,178.724l5.656-1.001l-0.098-0.55l-0.162-0.911l2.771,1.017l11.537-2.043
			c-0.092-0.512-0.268-0.988-0.502-1.421l-19.465,3.444l0.164,0.916L47.539,178.724z"/>
		<g opacity="0.4">
			<g>
				<g>
					<g>
						<defs>
							
								<rect id="SVGID_6_" x="45.402" y="165.454" transform="matrix(0.8655 -0.5009 0.5009 0.8655 -76.8427 46.5665)" width="5.773" height="1.829"/>
						</defs>
						<clipPath id="SVGID_7_">
							<use xlink:href="#SVGID_6_"  overflow="visible"/>
						</clipPath>
						
							<rect x="45.394" y="165.453" transform="matrix(0.9847 -0.1742 0.1742 0.9847 -28.2444 10.9551)" clip-path="url(#SVGID_7_)" fill="#9B5E26" width="5.774" height="1.827"/>
					</g>
				</g>
			</g>
		</g>
		<polygon fill="#2D7994" points="50.947,164.966 42.365,166.484 28.299,87.224 36.879,85.705 		"/>
		<path fill="#1B6478" d="M39.158,120.354l1.709,9.628l0.486,2.758l0.266,1.485c0.098,0.547,0.623,0.915,1.17,0.819l2.76-0.49
			l-2.639-14.862L39.158,120.354z"/>
	</g>
	<g>
		<path fill="#C0772A" d="M18.05,176.863l-3.66-0.619c-1.548-0.67-2.819-1.801-3.669-3.193c-0.022,0.121-0.043,0.24-0.062,0.347
			c-0.513,3.021-3.752,2.658-3.752,2.658l-4.151-0.701l-0.356,2.09l19.49,3.306C21.583,178.818,20.083,177.208,18.05,176.863"/>
		<path fill="#C0772A" d="M10.66,173.396c0.019-0.105,0.038-0.225,0.061-0.346c-0.642-1.055-1.045-2.254-1.149-3.521l1.21-7.113
			l-0.176-0.07l-5.483-0.93l-1.528,8.992l-0.512,3.014l-0.165,0.963l-0.163,0.969l4.151,0.701
			C6.907,176.054,10.146,176.414,10.66,173.396"/>
		<path fill="#34383A" d="M2.151,178.91l5.663,0.959l0.093-0.545l0.155-0.92l2.266,1.889l11.551,1.963
			c0.087-0.514,0.087-1.021,0.009-1.508l-19.49-3.306l-0.156,0.917L2.151,178.91z"/>
		<g opacity="0.4">
			<g>
				<g>
					<g>
						<defs>
							
								<rect id="SVGID_8_" x="4.128" y="166.597" transform="matrix(0.8756 0.483 -0.483 0.8756 81.7758 17.4441)" width="5.775" height="1.831"/>
						</defs>
						<clipPath id="SVGID_9_">
							<use xlink:href="#SVGID_8_"  overflow="visible"/>
						</clipPath>
						
							<rect x="4.129" y="166.604" transform="matrix(0.9859 0.1674 -0.1674 0.9859 28.1439 1.1896)" clip-path="url(#SVGID_9_)" fill="#9B5E26" width="5.775" height="1.828"/>
					</g>
				</g>
			</g>
		</g>
		<polygon fill="#2D7994" points="10.014,167.104 1.425,165.646 14.915,86.285 23.505,87.742 		"/>
		<path fill="#1B6478" d="M10.03,134.757l0.253-1.488l0.47-2.758l1.639-9.643l-3.262-0.554l-2.53,14.88l2.268,0.385
			C9.415,135.675,9.938,135.306,10.03,134.757"/>
	</g>
	<rect x="18.871" y="38.128" fill="#F8B69C" width="12.53" height="9.917"/>
	<path fill="#FFFFFF" d="M36.729,38.128h-4.782h-0.614h-1.288c0,2.614-2.123,4.735-4.741,4.735c-2.619,0-4.741-2.121-4.741-4.735
		h-1.939h-5.399c-3.066,0-5.552,2.48-5.552,5.542c0,0,0.017,1.199,0,2.198s0.522,3.402,0.522,3.402H14.7l0.001,14.561h21.347V49.258
		h5.581c0,0,0.33-1.737,0.475-2.819c0.146-1.083,0.178-2.769,0.178-2.769C42.281,40.609,39.797,38.128,36.729,38.128"/>
	<polygon fill="#2D7994" points="35.687,48.754 35.687,38.128 32.778,38.128 32.778,48.754 20.563,48.754 20.563,38.128 
		17.655,38.128 17.655,48.754 14.701,62.604 14.701,86.34 16.357,86.34 36.881,86.34 36.881,63.831 	"/>
	<path fill="#C0E0EF" d="M34.343,62.312c0.416-0.415,0.566-0.995,0.457-1.527l-1.125,1.121l-1.3-1.296l1.125-1.126
		c-0.536-0.11-1.118,0.04-1.534,0.457c-0.416,0.418-0.568,0.997-0.457,1.532l-1.642,1.64l-2.236,2.231l1.299,1.298l2.238-2.234
		l1.639-1.638C33.345,62.881,33.927,62.73,34.343,62.312"/>
	<path fill="#1B6478" d="M20.563,63.831V66.9v2.8v1.509c0,0.557,0.452,1.009,1.009,1.009h9.196c0.558,0,1.008-0.452,1.008-1.009
		V69.7v-2.8v-3.069H20.563z"/>
	<path fill="#F8B69C" d="M33.073,12.061l4.812,10.776h-3.653v11.332h-2.878c0,0-1.375,0.171-1.375,1.374v2.578v2.401h-9.413V38.98
		V11.85h12.336L33.073,12.061z"/>
	<path fill="#2F3E4A" d="M31.804,16.129c0,0.279-0.228,0.505-0.506,0.505c-0.277,0-0.504-0.226-0.504-0.505
		c0-0.279,0.227-0.505,0.504-0.505C31.577,15.624,31.804,15.85,31.804,16.129"/>
	<g opacity="0.2">
		<g>
			<g>
				<g>
					<defs>
						<rect id="SVGID_10_" x="26.834" y="14.082" width="7.397" height="20.087"/>
					</defs>
					<clipPath id="SVGID_11_">
						<use xlink:href="#SVGID_10_"  overflow="visible"/>
					</clipPath>
					<path clip-path="url(#SVGID_11_)" fill="#4D3C18" d="M26.84,17.73v9.271c0,0-0.014,1.577,0,2.103
						c0.053,2.056-0.213,5.065,3.183,5.065h4.208V22.837h-1.976h-1.977c-1.119,0-1.635-0.558-1.635-1.629v-7.126h-1.805L26.84,17.73
						L26.84,17.73z"/>
				</g>
			</g>
		</g>
	</g>
	<path fill="#F8B69C" d="M34.231,24.646H32.32c-0.443,0-1.331,0.042-1.331,1.161v0.863h3.243V24.646z"/>
	<path fill="#CF867C" d="M32.511,25.691c-0.196,0-0.353-0.159-0.353-0.351h-0.517c0,0.477,0.388,0.863,0.865,0.863h1.724v-0.512
		H32.511z"/>
	<g>
		<path fill="#939393" d="M16.319,97.925l6.994-0.954c2.107-0.287,4.056,1.194,4.343,3.302l0.913,6.695
			c0.288,2.109-1.193,4.058-3.301,4.346l-6.994,0.953c-2.107,0.287-4.056-1.193-4.344-3.303l-0.913-6.696
			C12.731,100.162,14.212,98.212,16.319,97.925z M24.957,109.024c0.844-0.114,1.437-0.897,1.321-1.741l-0.913-6.697
			c-0.115-0.846-0.896-1.438-1.74-1.323l-6.994,0.952c-0.844,0.115-1.437,0.896-1.322,1.742l0.913,6.696
			c0.115,0.845,0.896,1.44,1.74,1.325L24.957,109.024z"/>
		<polygon fill="#FFFFFF" points="23.104,135.21 26.757,134.712 29.661,156.014 28.206,158.976 26.01,156.512 		"/>
		
			<rect x="21.44" y="129.536" transform="matrix(0.9908 -0.1351 0.1351 0.9908 -18.5467 4.7156)" fill="#939393" width="8.084" height="19.03"/>
		<path fill="#FFD62C" d="M17.042,131.603c0.23,1.686,1.785,2.867,3.47,2.639l8.482-1.158c1.688-0.229,2.867-1.783,2.637-3.469
			l-3.133-22.98l-14.589,1.99L17.042,131.603z"/>
	</g>
	<path fill="#67311E" d="M20,8.498v14.725h1.331c4.042,0,3.826-3.823,3.826-3.823v-1.705c-0.009,0-0.016,0.003-0.025,0.003
		c-0.939,0-1.699-0.759-1.699-1.696c0-0.936,0.76-1.697,1.699-1.697c0.924,0,1.673,0.742,1.693,1.661h0.002v0.036v1.696h1.812
		v-4.307h2.322c4.728,0,5.758-4.894,5.758-4.894L20,8.498L20,8.498z"/>
	<path fill="#FFD62C" d="M37.75,9.272C36.996,4.418,33.999,0,27.546,0c-7.482,0-10.408,6.106-10.408,11.85h19.653h1.164h2.375
		L37.75,9.272z"/>
	<g>
		<path fill="#F8B69C" d="M23.048,94.029c-0.033,0.006-0.062,0.02-0.096,0.025l-0.498-2.897L15.671,51.73L9.04,52.868l6.784,39.426
			l0.772,4.488l0.714,4.145c0,0.005,0,0.005,0,0.005c0.001,0.006,0.001,0.006,0.002,0.012l0.055,0.317l0.033-0.008
			c0.453,1.647,2.077,2.719,3.797,2.424c1.72-0.297,2.891-1.848,2.769-3.549l0.031-0.006l-0.054-0.312
			c-0.001-0.006,0.002-0.006,0.001-0.013c-0.001-0.004-0.003-0.008-0.005-0.014l-0.583-3.394c0.033-0.002,0.065-0.002,0.099-0.007
			c0.651-0.112,1.09-0.731,0.978-1.383C24.321,94.353,23.7,93.917,23.048,94.029"/>
		<g opacity="0.4">
			<g>
				<g>
					<g>
						<defs>
							
								<rect id="SVGID_12_" x="11.011" y="63" transform="matrix(0.8726 -0.4885 0.4885 0.8726 -29.4551 15.1828)" width="6.728" height="2.102"/>
						</defs>
						<clipPath id="SVGID_14_">
							<use xlink:href="#SVGID_12_"  overflow="visible"/>
						</clipPath>
						
							<rect x="11.012" y="62.998" transform="matrix(0.9856 -0.1693 0.1693 0.9856 -10.6372 3.3589)" clip-path="url(#SVGID_14_)" fill="#B78D7E" width="6.728" height="2.105"/>
					</g>
				</g>
			</g>
		</g>
		<g>
			<g>
				<g>
					<polygon id="SVGID_13_" fill="#FFFFFF" points="10.667,63.62 18.199,62.408 15.727,48.046 8.197,49.258 					"/>
				</g>
				<g>
					<g>
						<defs>
							<polygon id="SVGID_15_" points="10.667,63.62 18.199,62.408 15.727,48.046 8.197,49.258 							"/>
						</defs>
						<clipPath id="SVGID_16_">
							<use xlink:href="#SVGID_15_"  overflow="visible"/>
						</clipPath>
						<polygon clip-path="url(#SVGID_16_)" fill="#FFFFFF" points="19.192,62.158 10.667,63.62 8.197,49.258 16.72,47.795 						"/>
					</g>
				</g>
			</g>
		</g>
	</g>
</g>
</svg>
