<?xml version="1.0" encoding="utf-8"?>
<!-- Generator: Adobe Illustrator 16.0.0, SVG Export Plug-In . SVG Version: 6.00 Build 0)  -->
<!DOCTYPE svg PUBLIC "-//W3C//DTD SVG 1.1//EN" "http://www.w3.org/Graphics/SVG/1.1/DTD/svg11.dtd">
<svg version="1.1" id="Layer_1" xmlns="http://www.w3.org/2000/svg" xmlns:xlink="http://www.w3.org/1999/xlink" x="0px" y="0px"
	 width="75.418px" height="182.292px" viewBox="-8.205 0 75.418 182.292" enable-background="new -8.205 0 75.418 182.292"
	 xml:space="preserve">
<path fill="#2D7994" d="M14.635,87.717c0,4.463,3.558,8.083,8.027,8.083h6.125c4.471,0,8.032-3.68,8.032-8.146v-3.057l-22.185,0.062
	V87.717z"/>
<g>
	<path fill="#9B5E26" d="M27.334,176.126l-3.623-0.799c-1.515-0.742-2.729-1.935-3.513-3.365c-0.591-1.082-0.936-2.303-0.978-3.571
		l1.553-7.048l-0.173-0.081l-5.43-1.19l-1.961,8.909l-0.656,2.981l-0.211,0.957l-0.21,0.957l-0.457,2.069l19.306,4.239
		C30.771,178.244,29.351,176.567,27.334,176.126"/>
	<path fill="#34383A" d="M11.356,177.401l5.61,1.231l0.12-0.545l0.199-0.905l2.173,1.998l11.443,2.511
		c0.112-0.507,0.136-1.016,0.081-1.506l-19.306-4.239l-0.199,0.909L11.356,177.401z"/>
	<g opacity="0.4">
		<g>
			<g>
				<defs>
					
						<rect id="SVGID_1_" x="13.878" y="165.343" transform="matrix(0.908 0.419 -0.419 0.908 71.2138 8.277)" width="5.772" height="1.834"/>
				</defs>
				<clipPath id="SVGID_2_">
					<use xlink:href="#SVGID_1_"  overflow="visible"/>
				</clipPath>
				
					<rect x="13.878" y="165.343" transform="matrix(-0.9767 -0.2145 0.2145 -0.9767 -2.5219 332.2439)" clip-path="url(#SVGID_2_)" fill="#9B5E26" width="5.773" height="1.831"/>
			</g>
		</g>
	</g>
	<polygon fill="#2D7994" points="21.116,119.326 11.256,164.117 19.765,165.983 25.558,139.628 	"/>
	<polygon fill="#2D7994" points="25.831,97.908 28.563,85.496 36.569,87.255 36.614,89.326 30.278,118.15 	"/>
</g>
<g>
	<path fill="#C0772A" d="M50.838,170.203l-3.627,0.785c-1.687-0.043-3.289-0.621-4.597-1.597c0.023,0.123,0.047,0.237,0.07,0.345
		c0.651,2.993-2.485,3.867-2.485,3.867l-4.117,0.896l0.451,2.068l19.315-4.195C54.847,170.694,52.851,169.764,50.838,170.203"/>
	<path fill="#C0772A" d="M42.685,169.736c-0.023-0.107-0.047-0.222-0.072-0.345c-0.988-0.736-1.812-1.7-2.381-2.835l-1.537-7.055
		l-0.189,0.002l-5.433,1.18l1.943,8.916l0.649,2.98l0.209,0.959l0.208,0.961l4.117-0.896
		C40.198,173.604,43.337,172.729,42.685,169.736"/>
	<path fill="#34383A" d="M36.851,178.022l5.613-1.219l-0.117-0.546l-0.197-0.903l2.808,0.909l11.448-2.488
		c-0.111-0.509-0.303-0.979-0.555-1.402l-19.316,4.196l0.199,0.91L36.851,178.022z"/>
	<g opacity="0.4">
		<g>
			<g>
				<defs>
					
						<rect id="SVGID_3_" x="34.208" y="164.736" transform="matrix(0.9098 -0.4152 0.4152 0.9098 -65.4231 30.3506)" width="5.777" height="1.832"/>
				</defs>
				<clipPath id="SVGID_4_">
					<use xlink:href="#SVGID_3_"  overflow="visible"/>
				</clipPath>
				
					<rect x="34.218" y="164.739" transform="matrix(-0.9772 0.2123 -0.2123 -0.9772 108.5273 319.6543)" clip-path="url(#SVGID_4_)" fill="#9B5E26" width="5.774" height="1.828"/>
			</g>
		</g>
	</g>
	<polygon fill="#2D7994" points="40.049,164.158 31.535,166.005 15.019,90.2 14.893,87.246 22.912,85.5 	"/>
	<path fill="#1B6478" d="M27.665,134.123l-0.322-1.478l-0.596-2.729l-2.08-9.559l-2.938,0.705l3.213,14.686l1.95-0.424
		C27.437,135.205,27.783,134.667,27.665,134.123"/>
</g>
<g>
	<path fill="#939393" d="M0.205,94.773l6.992,0.967c2.107,0.291,3.584,2.242,3.293,4.349l-0.926,6.695
		c-0.291,2.107-2.242,3.585-4.349,3.294l-6.992-0.967c-2.107-0.291-3.584-2.242-3.293-4.35l0.926-6.695
		C-3.854,95.958-1.902,94.482,0.205,94.773z M5.531,107.789c0.843,0.117,1.625-0.477,1.742-1.322l0.925-6.695
		c0.117-0.844-0.475-1.627-1.318-1.743l-6.992-0.966c-0.844-0.117-1.625,0.476-1.742,1.32l-0.925,6.695
		c-0.117,0.844,0.475,1.628,1.318,1.744L5.531,107.789z"/>
	<polygon fill="#FFFFFF" points="-3.31,132.508 0.341,133.013 -2.603,154.308 -4.802,156.769 -6.253,153.804 	"/>
	
		<rect x="-6.09" y="127.325" transform="matrix(-0.9906 -0.1369 0.1369 -0.9906 -22.8069 272.1135)" fill="#939393" width="8.084" height="19.031"/>
	<path fill="#FFD62C" d="M-8.176,127.399c-0.233,1.686,0.946,3.242,2.631,3.476l8.48,1.172c1.687,0.233,3.242-0.946,3.475-2.631
		l3.176-22.973L-5,104.426L-8.176,127.399z"/>
</g>
<rect x="18.803" y="38.13" fill="#F8B69C" width="12.531" height="9.915"/>
<g>
	<path fill="#F8B69C" d="M7.746,93.183c-0.033-0.004-0.065,0-0.1-0.004l0.467-2.903l4.723-29.349L6.193,59.86L1.471,89.21
		l-0.723,4.491l-0.669,4.157c0,0.004,0,0.004,0,0.004c-0.001,0.007-0.001,0.009-0.001,0.009l-0.052,0.322l0.032,0.006
		c-0.104,1.699,1.085,3.24,2.809,3.52c1.724,0.275,3.335-0.816,3.77-2.465l0.031,0.004l0.051-0.312
		c0.001-0.006,0.003-0.006,0.004-0.01c0-0.006-0.001-0.012,0-0.016l0.546-3.397c0.033,0.008,0.063,0.021,0.096,0.024
		c0.654,0.104,1.269-0.338,1.373-0.99C8.844,93.903,8.399,93.289,7.746,93.183"/>
	<g opacity="0.4">
		<g>
			<g>
				<defs>
					
						<rect id="SVGID_5_" x="5.889" y="60.967" transform="matrix(0.9498 0.3129 -0.3129 0.9498 19.8667 0.2182)" width="6.728" height="2.102"/>
				</defs>
				<clipPath id="SVGID_6_">
					<use xlink:href="#SVGID_5_"  overflow="visible"/>
				</clipPath>
				
					<rect x="5.886" y="60.966" transform="matrix(-0.9874 -0.1584 0.1584 -0.9874 8.5594 124.7179)" clip-path="url(#SVGID_6_)" fill="#B78D7E" width="6.729" height="2.103"/>
			</g>
		</g>
	</g>
	<g>
		<g>
			<g>
				<polygon id="SVGID_7_" fill="#FFFFFF" points="5.882,60.411 12.742,61.511 14.882,48.208 8.023,47.108 				"/>
			</g>
			<g>
				<defs>
					<polygon id="SVGID_8_" points="4.979,59.605 11.578,61.778 15.798,48.982 9.2,46.81 					"/>
				</defs>
				<clipPath id="SVGID_9_">
					<use xlink:href="#SVGID_8_"  overflow="visible"/>
				</clipPath>
				
					<rect x="7.13" y="47.591" transform="matrix(-0.9874 -0.1584 0.1584 -0.9874 12.2515 109.633)" clip-path="url(#SVGID_9_)" fill="#FFFFFF" width="6.728" height="13.474"/>
			</g>
		</g>
	</g>
</g>
<g>
	<path fill="#F8B69C" d="M49.461,92.643c-0.036,0.004-0.062,0.019-0.095,0.022l-0.422-2.909l-4.258-29.42l-6.66,0.961l4.259,29.42
		l0.651,4.5l0.603,4.168c0,0.006,0,0.006,0,0.006c0,0.006,0.001,0.008,0.001,0.01l0.047,0.321l0.034-0.007
		c0.409,1.656,2.003,2.773,3.731,2.523c1.726-0.248,2.938-1.771,2.862-3.474l0.032-0.007l-0.045-0.314c0-0.006,0-0.006-0.001-0.01
		c-0.001-0.006-0.002-0.012-0.002-0.016l-0.493-3.406c0.031-0.002,0.062,0,0.098-0.004c0.655-0.096,1.108-0.703,1.014-1.355
		C50.724,93.001,50.116,92.548,49.461,92.643"/>
	<g opacity="0.4">
		<g>
			<g>
				<defs>
					
						<rect id="SVGID_10_" x="38.228" y="61.393" transform="matrix(0.9592 -0.2829 0.2829 0.9592 -15.9664 14.317)" width="6.728" height="2.103"/>
				</defs>
				<clipPath id="SVGID_12_">
					<use xlink:href="#SVGID_10_"  overflow="visible"/>
				</clipPath>
				
					<rect x="38.226" y="61.39" transform="matrix(-0.9897 0.1429 -0.1429 -0.9897 91.6762 118.3)" clip-path="url(#SVGID_12_)" fill="#B78D7E" width="6.729" height="2.103"/>
			</g>
		</g>
	</g>
	<g>
		<g>
			<g>
				<polygon id="SVGID_11_" fill="#FFFFFF" points="37.878,61.945 44.754,60.953 43.22,50.358 42.717,47.633 35.948,48.61 				"/>
			</g>
			<g>
				<defs>
					<polygon id="SVGID_13_" points="38.929,62.238 45.593,60.273 42.56,50.007 41.673,47.382 35.112,49.316 					"/>
				</defs>
				<clipPath id="SVGID_14_">
					<use xlink:href="#SVGID_13_"  overflow="visible"/>
				</clipPath>
				
					<rect x="37.093" y="48.027" transform="matrix(-0.9897 0.1429 -0.1429 -0.9897 88.3254 103.1842)" clip-path="url(#SVGID_14_)" fill="#FFFFFF" width="6.727" height="13.474"/>
			</g>
		</g>
	</g>
</g>
<path fill="#FFFFFF" d="M36.663,38.13H31.88h-0.614h-1.289c0,2.613-2.122,4.734-4.74,4.734c-2.618,0-4.741-2.121-4.741-4.734h-1.939
	h-4.541c-3.065,0-5.318,2.394-5.552,5.543l-0.441,3.435L7.5,50.358h7.054v13.473h22.261V50.358h6.404l-0.914-6.656
	c0,0-0.234-1.456-0.49-2.094C40.997,39.569,38.999,38.13,36.663,38.13"/>
<polygon fill="#2D7994" points="35.618,48.754 35.618,38.13 32.71,38.13 32.71,48.754 20.496,48.754 20.496,38.13 17.587,38.13 
	17.587,48.754 16.29,63.831 14.634,63.831 14.634,86.34 16.29,86.34 36.813,86.34 36.813,63.831 "/>
<path fill="#C0E0EF" d="M34.274,62.315c0.416-0.415,0.567-0.996,0.457-1.531l-1.125,1.125l-1.299-1.3l1.125-1.124
	c-0.538-0.113-1.119,0.038-1.536,0.455c-0.416,0.417-0.567,0.995-0.456,1.534l-1.642,1.638l-2.235,2.235l1.299,1.298l2.238-2.233
	l1.639-1.641C33.278,62.883,33.859,62.729,34.274,62.315"/>
<path fill="#1B6478" d="M20.496,63.831v3.073V69.7v1.512c0,0.554,0.452,1.007,1.01,1.007h9.196c0.557,0,1.007-0.454,1.007-1.007
	V69.7v-2.796v-3.073H20.496z"/>
<path fill="#F8B69C" d="M33.004,12.064l4.813,10.772h-3.653v11.332h-2.879c0,0-1.375,0.174-1.375,1.375v2.576v2.404h-9.414v-1.546
	V11.851h12.337L33.004,12.064z"/>
<path fill="#2F3E4A" d="M31.736,16.133c0,0.276-0.227,0.501-0.505,0.501c-0.279,0-0.505-0.226-0.505-0.501
	c0-0.282,0.226-0.509,0.505-0.509S31.736,15.851,31.736,16.133"/>
<g opacity="0.2">
	<g>
		<g>
			<defs>
				<rect id="SVGID_15_" x="26.767" y="14.082" width="7.398" height="20.087"/>
			</defs>
			<clipPath id="SVGID_16_">
				<use xlink:href="#SVGID_15_"  overflow="visible"/>
			</clipPath>
			<path clip-path="url(#SVGID_16_)" fill="#4D3C18" d="M26.772,17.73v9.273c0,0-0.014,1.575,0,2.102
				c0.053,2.056-0.213,5.063,3.183,5.063h4.209V22.836h-1.977h-1.976c-1.12,0-1.635-0.558-1.635-1.628v-7.126h-1.805L26.772,17.73
				L26.772,17.73z"/>
		</g>
	</g>
</g>
<path fill="#F8B69C" d="M34.165,24.648h-1.912c-0.443,0-1.331,0.043-1.331,1.158v0.864h3.243V24.648z"/>
<path fill="#CF867C" d="M32.443,25.691c-0.196,0-0.352-0.155-0.352-0.351h-0.516c0,0.478,0.388,0.864,0.865,0.864h1.724v-0.513
	H32.443z"/>
<path fill="#67311E" d="M19.932,8.498v14.726h1.332c4.042,0,3.825-3.822,3.825-3.822v-1.707c-0.009,0-0.016,0.002-0.025,0.002
	c-0.939,0-1.698-0.758-1.698-1.695c0-0.936,0.759-1.695,1.698-1.695c0.925,0,1.673,0.74,1.693,1.659h0.002v0.036v1.695h1.812v-4.306
	h2.321c4.728,0,5.759-4.894,5.759-4.894L19.932,8.498L19.932,8.498z"/>
<path fill="#FFD62C" d="M37.685,9.272C36.929,4.419,33.931,0,27.479,0C19.997,0,17.07,6.106,17.07,11.851h19.654h1.164h2.375
	L37.685,9.272z"/>
</svg>
