<?xml version="1.0" encoding="utf-8"?>
<!-- Generator: Adobe Illustrator 16.0.0, SVG Export Plug-In . SVG Version: 6.00 Build 0)  -->
<!DOCTYPE svg PUBLIC "-//W3C//DTD SVG 1.1//EN" "http://www.w3.org/Graphics/SVG/1.1/DTD/svg11.dtd">
<svg version="1.1" id="Layer_1" xmlns="http://www.w3.org/2000/svg" xmlns:xlink="http://www.w3.org/1999/xlink" x="0px" y="0px"
	 width="75.418px" height="182.292px" viewBox="0 0 75.418 182.292" enable-background="new 0 0 75.418 182.292"
	 xml:space="preserve">
<g>
	<path fill="#2D7994" d="M22.84,87.717c0,4.463,3.559,8.083,8.027,8.083h6.125c4.471,0,8.031-3.68,8.031-8.146v-3.057l-22.185,0.062
		L22.84,87.717L22.84,87.717z"/>
	<g>
		<path fill="#9B5E26" d="M35.539,176.126l-3.623-0.799c-1.516-0.742-2.729-1.936-3.513-3.365c-0.591-1.082-0.937-2.303-0.978-3.571
			l1.553-7.048l-0.174-0.081l-5.43-1.19l-1.961,8.909l-0.656,2.981l-0.211,0.957l-0.21,0.957l-0.457,2.068l19.306,4.239
			C38.977,178.244,37.557,176.567,35.539,176.126"/>
		<path fill="#34383A" d="M19.561,177.401l5.61,1.231l0.12-0.545l0.199-0.905l2.173,1.998l11.442,2.511
			c0.113-0.507,0.137-1.016,0.082-1.506l-19.307-4.239l-0.199,0.909L19.561,177.401z"/>
		<g opacity="0.4">
			<g>
				<g>
					<g>
						<defs>
							
								<rect id="SVGID_1_" x="22.079" y="165.338" transform="matrix(0.7969 0.6041 -0.6041 0.7969 105.496 18.679)" width="5.772" height="1.834"/>
						</defs>
						<clipPath id="SVGID_2_">
							<use xlink:href="#SVGID_1_"  overflow="visible"/>
						</clipPath>
						
							<rect x="22.085" y="165.347" transform="matrix(0.9767 0.2145 -0.2145 0.9767 36.2436 -1.4866)" clip-path="url(#SVGID_2_)" fill="#9B5E26" width="5.773" height="1.832"/>
					</g>
				</g>
			</g>
		</g>
		<polygon fill="#2D7994" points="29.321,119.326 19.461,164.117 27.971,165.983 33.764,139.628 		"/>
		<polygon fill="#2D7994" points="34.036,97.908 36.768,85.496 44.773,87.255 44.819,89.326 38.482,118.15 		"/>
	</g>
	<g>
		<path fill="#C0772A" d="M59.043,170.203l-3.627,0.785c-1.688-0.043-3.289-0.621-4.598-1.597c0.023,0.123,0.048,0.237,0.07,0.345
			c0.651,2.993-2.484,3.867-2.484,3.867l-4.117,0.896l0.451,2.067l19.314-4.194C63.053,170.694,61.057,169.764,59.043,170.203"/>
		<path fill="#C0772A" d="M50.891,169.736c-0.023-0.107-0.047-0.222-0.072-0.345c-0.988-0.736-1.812-1.7-2.381-2.835l-1.537-7.055
			l-0.189,0.002l-5.433,1.18l1.942,8.916l0.649,2.98l0.209,0.959l0.208,0.961l4.117-0.896
			C48.403,173.604,51.542,172.729,50.891,169.736"/>
		<path fill="#34383A" d="M45.057,178.022l5.612-1.219l-0.116-0.546l-0.197-0.903l2.808,0.909l11.448-2.488
			c-0.111-0.509-0.303-0.979-0.555-1.402l-19.316,4.196l0.199,0.91L45.057,178.022z"/>
		<g opacity="0.4">
			<g>
				<g>
					<g>
						<defs>
							
								<rect id="SVGID_3_" x="42.414" y="164.734" transform="matrix(0.8008 -0.599 0.599 0.8008 -90.1942 60.1379)" width="5.778" height="1.832"/>
						</defs>
						<clipPath id="SVGID_4_">
							<use xlink:href="#SVGID_3_"  overflow="visible"/>
						</clipPath>
						
							<rect x="42.418" y="164.742" transform="matrix(0.9772 -0.2123 0.2123 0.9772 -34.1288 13.3908)" clip-path="url(#SVGID_4_)" fill="#9B5E26" width="5.774" height="1.828"/>
					</g>
				</g>
			</g>
		</g>
		<polygon fill="#2D7994" points="48.254,164.158 39.74,166.005 23.225,90.2 23.098,87.246 31.117,85.5 		"/>
		<path fill="#1B6478" d="M35.87,134.123l-0.322-1.478l-0.596-2.729l-2.08-9.559l-2.938,0.705l3.213,14.686l1.951-0.424
			C35.643,135.205,35.988,134.667,35.87,134.123"/>
	</g>
	<g>
		<path fill="#939393" d="M8.41,94.773l6.992,0.967c2.107,0.291,3.584,2.242,3.293,4.35l-0.926,6.695
			c-0.291,2.106-2.242,3.584-4.35,3.293l-6.992-0.967c-2.106-0.291-3.584-2.242-3.293-4.35l0.926-6.695
			C4.352,95.958,6.303,94.482,8.41,94.773z M13.736,107.789c0.843,0.117,1.625-0.477,1.742-1.322l0.925-6.694
			c0.116-0.844-0.476-1.627-1.318-1.743l-6.991-0.966c-0.845-0.117-1.625,0.476-1.742,1.319l-0.926,6.695
			c-0.117,0.844,0.475,1.629,1.318,1.744L13.736,107.789z"/>
		<polygon fill="#FFFFFF" points="4.895,132.507 8.546,133.013 5.602,154.308 3.403,156.769 1.952,153.804 		"/>
		
			<rect x="2.118" y="127.324" transform="matrix(0.9906 0.1369 -0.1369 0.9906 18.7873 0.4447)" fill="#939393" width="8.084" height="19.031"/>
		<path fill="#FFD62C" d="M0.029,127.399c-0.233,1.687,0.945,3.242,2.631,3.476l8.48,1.172c1.687,0.233,3.241-0.945,3.475-2.631
			l3.176-22.973l-14.586-2.018L0.029,127.399z"/>
	</g>
	<rect x="27.008" y="38.13" fill="#F8B69C" width="12.531" height="9.915"/>
	<g>
		<path fill="#F8B69C" d="M15.951,93.183c-0.033-0.004-0.064,0-0.1-0.004l0.467-2.903l4.723-29.349l-6.643-1.067L9.676,89.21
			l-0.723,4.491l-0.669,4.157c0,0.004,0,0.004,0,0.004c-0.001,0.007-0.001,0.009-0.001,0.009L8.23,98.193l0.033,0.006
			c-0.104,1.699,1.084,3.24,2.809,3.52c1.724,0.275,3.335-0.815,3.77-2.465l0.031,0.004l0.051-0.312
			c0.002-0.006,0.004-0.006,0.004-0.01c0-0.006,0-0.013,0-0.017l0.547-3.396c0.032,0.008,0.062,0.021,0.096,0.023
			c0.654,0.104,1.269-0.338,1.373-0.989C17.049,93.903,16.604,93.289,15.951,93.183"/>
		<g>
			<g>
				<g>
					<polygon id="SVGID_7_" fill="#FFFFFF" points="14.087,60.411 20.947,61.511 23.087,48.208 16.229,47.108 					"/>
				</g>
				<g>
					<g>
						<defs>
							<polygon id="SVGID_5_" points="24.982,49.99 18.811,46.799 12.616,58.766 18.787,61.956 							"/>
						</defs>
						<clipPath id="SVGID_6_">
							<use xlink:href="#SVGID_5_"  overflow="visible"/>
						</clipPath>
						
							<rect x="15.336" y="47.59" transform="matrix(0.9874 0.1584 -0.1584 0.9874 8.8425 -2.2764)" clip-path="url(#SVGID_6_)" fill="#FFFFFF" width="6.729" height="13.474"/>
					</g>
				</g>
			</g>
		</g>
		<g opacity="0.4">
			<g>
				<g>
					<g>
						<defs>
							
								<rect id="SVGID_8_" x="14.084" y="60.998" transform="matrix(-0.9863 -0.1647 0.1647 -0.9863 24.4401 126.1252)" width="6.728" height="2.104"/>
						</defs>
						<clipPath id="SVGID_9_">
							<use xlink:href="#SVGID_8_"  overflow="visible"/>
						</clipPath>
						
							<rect x="14.084" y="60.998" transform="matrix(-0.9863 -0.1647 0.1647 -0.9863 24.4401 126.1252)" clip-path="url(#SVGID_9_)" fill="#B78D7E" width="6.728" height="2.104"/>
					</g>
				</g>
			</g>
		</g>
	</g>
	<g>
		<path fill="#F8B69C" d="M57.666,92.643c-0.036,0.004-0.062,0.019-0.095,0.022l-0.423-2.91l-4.258-29.42l-6.66,0.961l4.26,29.42
			l0.65,4.5l0.604,4.168c0,0.007,0,0.007,0,0.007c0,0.006,0.001,0.008,0.001,0.01l0.047,0.321l0.034-0.008
			c0.408,1.656,2.003,2.773,3.73,2.523c1.727-0.248,2.938-1.771,2.862-3.474l0.032-0.007l-0.045-0.314c0-0.006,0-0.006-0.001-0.01
			c-0.001-0.006-0.002-0.012-0.002-0.016l-0.493-3.406c0.031-0.002,0.062,0,0.098-0.004c0.655-0.096,1.108-0.703,1.014-1.355
			C58.93,93.001,58.321,92.548,57.666,92.643"/>
		<g>
			<g>
				<g>
					<polygon id="SVGID_11_" fill="#FFFFFF" points="46.083,61.945 52.959,60.953 51.426,50.358 50.922,47.633 44.153,48.61 					
						"/>
				</g>
			</g>
		</g>
		<g opacity="0.4">
			<g>
				<g>
					<g>
						<defs>
							
								<rect id="SVGID_10_" x="46.462" y="61.456" transform="matrix(-0.9885 0.151 -0.151 -0.9885 108.5208 116.7735)" width="6.728" height="2.104"/>
						</defs>
						<clipPath id="SVGID_12_">
							<use xlink:href="#SVGID_10_"  overflow="visible"/>
						</clipPath>
						
							<rect x="46.462" y="61.456" transform="matrix(-0.9885 0.151 -0.151 -0.9885 108.5208 116.7735)" clip-path="url(#SVGID_12_)" fill="#B78D7E" width="6.728" height="2.104"/>
					</g>
				</g>
			</g>
		</g>
	</g>
	<path fill="#FFFFFF" d="M44.868,38.13h-4.783h-0.614h-1.289c0,2.613-2.121,4.734-4.74,4.734c-2.617,0-4.74-2.121-4.74-4.734h-1.939
		h-4.541c-3.064,0-5.317,2.394-5.552,5.543l-0.44,3.435l-0.523,3.25h7.055v13.473h22.26V50.358h6.404l-0.914-6.656
		c0,0-0.234-1.456-0.49-2.094C49.202,39.569,47.204,38.13,44.868,38.13"/>
	<polygon fill="#2D7994" points="43.823,48.754 43.823,38.13 40.915,38.13 40.915,48.754 28.701,48.754 28.701,38.13 25.792,38.13 
		25.792,48.754 24.495,63.831 22.839,63.831 22.839,86.34 24.495,86.34 45.018,86.34 45.018,63.831 	"/>
	<path fill="#C0E0EF" d="M42.479,62.315c0.416-0.415,0.567-0.996,0.457-1.531l-1.125,1.125l-1.299-1.3l1.125-1.124
		c-0.537-0.113-1.119,0.038-1.535,0.455s-0.567,0.995-0.457,1.534l-1.642,1.638l-2.235,2.235l1.299,1.298l2.238-2.233l1.64-1.641
		C41.482,62.883,42.064,62.729,42.479,62.315"/>
	<path fill="#1B6478" d="M28.701,63.831v3.073V69.7v1.512c0,0.554,0.452,1.007,1.01,1.007h9.196c0.557,0,1.007-0.454,1.007-1.007
		V69.7v-2.796v-3.073H28.701z"/>
	<path fill="#F8B69C" d="M41.209,12.064l4.812,10.772h-3.652v11.332H39.49c0,0-1.375,0.174-1.375,1.375v2.576v2.404h-9.414v-1.546
		V11.851h12.337L41.209,12.064z"/>
	<path fill="#2F3E4A" d="M39.941,16.133c0,0.276-0.228,0.501-0.506,0.501s-0.504-0.226-0.504-0.501c0-0.282,0.226-0.509,0.504-0.509
		C39.715,15.624,39.941,15.851,39.941,16.133"/>
	<g opacity="0.2">
		<g>
			<g>
				<g>
					<defs>
						<rect id="SVGID_13_" x="34.973" y="14.082" width="7.397" height="20.087"/>
					</defs>
					<clipPath id="SVGID_14_">
						<use xlink:href="#SVGID_13_"  overflow="visible"/>
					</clipPath>
					<path clip-path="url(#SVGID_14_)" fill="#4D3C18" d="M34.977,17.73v9.273c0,0-0.014,1.575,0,2.102
						c0.054,2.056-0.213,5.063,3.184,5.063h4.209V22.836h-1.977h-1.977c-1.12,0-1.635-0.558-1.635-1.628v-7.126h-1.805V17.73
						L34.977,17.73z"/>
				</g>
			</g>
		</g>
	</g>
	<path fill="#F8B69C" d="M42.37,24.648h-1.912c-0.442,0-1.331,0.043-1.331,1.158v0.864h3.243V24.648z"/>
	<path fill="#CF867C" d="M40.648,25.691c-0.196,0-0.353-0.155-0.353-0.351H39.78c0,0.478,0.388,0.864,0.864,0.864h1.725v-0.513
		H40.648z"/>
	<path fill="#67311E" d="M28.137,8.498v14.726h1.332c4.043,0,3.825-3.822,3.825-3.822v-1.707c-0.009,0-0.016,0.002-0.024,0.002
		c-0.939,0-1.698-0.758-1.698-1.695c0-0.936,0.759-1.695,1.698-1.695c0.925,0,1.672,0.74,1.692,1.659h0.002v0.036v1.695h1.812
		v-4.306h2.322c4.728,0,5.758-4.894,5.758-4.894L28.137,8.498L28.137,8.498z"/>
	<path fill="#FFD62C" d="M45.891,9.272C45.135,4.419,42.137,0,35.684,0c-7.481,0-10.408,6.106-10.408,11.851H44.93h1.164h2.375
		L45.891,9.272z"/>
</g>
</svg>
