<?xml version="1.0" encoding="utf-8"?>
<!-- Generator: Adobe Illustrator 16.0.0, SVG Export Plug-In . SVG Version: 6.00 Build 0)  -->
<!DOCTYPE svg PUBLIC "-//W3C//DTD SVG 1.1//EN" "http://www.w3.org/Graphics/SVG/1.1/DTD/svg11.dtd">
<svg version="1.1" id="Layer_1" xmlns="http://www.w3.org/2000/svg" xmlns:xlink="http://www.w3.org/1999/xlink" x="0px" y="0px"
	 width="117.307px" height="208.483px" viewBox="0 -26.191 117.307 208.483" enable-background="new 0 -26.191 117.307 208.483"
	 xml:space="preserve">
<g>
	<g>
		<path fill="#F9B69B" d="M60.676,72.54c0,0.034,0.009,0.063,0.011,0.098h-2.938H43.701v6.717h14.048h4.548h4.21
			c0,0,0.002,0,0.007,0h0.008h0.321v-0.033c1.697-0.17,3.027-1.584,3.027-3.327c0-1.742-1.33-3.157-3.027-3.325v-0.032h-0.315
			c0,0-0.008-0.002-0.014-0.002c-0.005,0-0.011,0.002-0.015,0.002H63.06c0.003-0.034,0.01-0.063,0.01-0.098
			c0-0.662-0.535-1.197-1.195-1.197C61.212,71.342,60.676,71.877,60.676,72.54z"/>
		<rect x="43.701" y="63.823" fill="#F9B69B" width="6.73" height="13.584"/>
	</g>
	<rect x="43.701" y="63.825" opacity="0.4" fill="#B78C7D" enable-background="new    " width="6.717" height="2.104"/>
	<g>
		<g>
			<path fill="#9B5C12" d="M54.565,174.574h-3.704c-1.637-0.398-3.076-1.303-4.146-2.533c-0.81-0.928-1.405-2.047-1.722-3.274
				v-7.216l-0.186-0.041h-5.549v9.121v3.052v0.979v0.979v2.118h19.73C58.37,175.908,56.624,174.574,54.565,174.574z"/>
			<path fill="#33373A" d="M39.261,179.248h5.732v-0.555v-0.93l2.547,1.482h11.694c0-0.521-0.086-1.021-0.244-1.488H39.261v0.936
				V179.248z"/>
			<rect x="39.261" y="166.298" opacity="0.4" fill="#9B5C12" enable-background="new    " width="5.765" height="1.83"/>
		</g>
		<g>
			<rect x="36.311" y="83.14" fill="#2C7893" width="8.695" height="83.158"/>
			<path fill="#196377" d="M41.203,120.339v9.777v2.795v1.51c0,0.557,0.451,1.008,1.008,1.008h2.796v-15.09H41.203L41.203,120.339z"
				/>
		</g>
	</g>
	<g>
		<g>
			<g>
				<path fill="#C17614" d="M41.107,174.574h-3.706c-1.636-0.398-3.075-1.303-4.146-2.533c-0.002,0.123-0.002,0.24-0.002,0.354
					c0,3.058-3.248,3.246-3.248,3.246H25.8v2.118h19.732C44.912,175.908,43.164,174.574,41.107,174.574z"/>
				<path fill="#C17614" d="M33.253,172.394c0-0.113,0-0.23,0.002-0.354c-0.809-0.929-1.405-2.047-1.721-3.275v-7.215l-0.184-0.041
					H25.8v9.121v3.051v0.979v0.98h4.205C30.006,175.64,33.253,175.451,33.253,172.394z"/>
				<path fill="#33373A" d="M25.801,179.248h5.734v-0.555v-0.93l2.547,1.482h11.696c0-0.521-0.089-1.021-0.244-1.488H25.801v0.936
					V179.248z"/>
			</g>
			<rect x="25.801" y="166.298" opacity="0.4" fill="#9B5C12" enable-background="new    " width="5.767" height="1.83"/>
		</g>
		<rect x="22.87" y="83.14" fill="#2C7893" width="8.697" height="83.158"/>
	</g>
	<path fill="#196377" d="M26.169,134.421v-1.51v-2.795v-9.777h-3.301v15.09h2.295C25.721,135.429,26.169,134.978,26.169,134.421z"/>
	<rect x="27.03" y="38.138" fill="#F9B69B" width="12.507" height="9.913"/>
	<path fill="#FFFFFF" d="M44.857,38.138h-4.775H39.47h-1.286c0,2.613-2.119,4.732-4.732,4.732s-4.731-2.119-4.731-4.732h-1.938
		h-5.387c-3.062,0-5.543,2.48-5.543,5.54v4.058l0,0v16.09h2.145h4.873l0,0h22.138l0,0h5.391V57.29v-5.767v-7.845
		C50.396,40.618,47.916,38.138,44.857,38.138z"/>
	<polygon fill="#2C7893" points="43.814,48.756 43.814,38.138 40.91,38.138 40.91,48.756 28.719,48.756 28.719,38.138 
		25.814,38.138 25.814,48.756 24.52,63.825 22.87,63.825 22.87,95.781 24.52,95.781 45.007,95.781 45.007,63.825 	"/>
	<path fill="#BFE0EF" d="M42.471,62.312c0.418-0.414,0.567-0.996,0.457-1.529l-1.123,1.123l-1.298-1.299l1.123-1.123
		c-0.534-0.111-1.114,0.041-1.53,0.456s-0.568,0.995-0.457,1.53l-1.639,1.639l-2.23,2.231l1.299,1.298l2.23-2.23l1.639-1.64
		C41.477,62.878,42.057,62.729,42.471,62.312z"/>
	<path fill="#196377" d="M28.719,63.825v3.072v2.795v1.511c0,0.557,0.451,1.007,1.007,1.007h9.18c0.56,0,1.008-0.45,1.008-1.007
		v-1.511v-2.795v-3.072H28.719z"/>
	<g>
		<g>
			<path fill="#F9B69B" d="M41.203,12.084l4.807,10.769h-3.647V34.18h-2.873c0,0-1.373,0.172-1.373,1.374c0,0.515,0,0.515,0,2.574
				v2.402H28.72v-1.543V11.87h12.312L41.203,12.084z"/>
			<circle fill="#2E3D49" cx="39.435" cy="16.148" r="0.505"/>
			<path opacity="0.2" fill="#4C3B15" enable-background="new    " d="M34.984,17.748v9.267c0,0-0.014,1.576,0,2.103
				c0.051,2.056-0.215,5.062,3.176,5.062c2.617,0,4.201,0,4.201,0V22.854h-1.973c0,0-0.449,0-1.974,0
				c-1.115,0-1.631-0.558-1.631-1.63c0-1.76,0-7.122,0-7.122h-1.801L34.984,17.748L34.984,17.748z"/>
			<path fill="#F9B69B" d="M42.361,24.663c0,0-0.664,0-1.908,0c-0.438,0-1.328,0.041-1.328,1.158c0,0.685,0,0.861,0,0.861h3.236
				V24.663z"/>
			<path fill="#CE857C" d="M40.643,25.706c-0.191,0-0.351-0.158-0.351-0.352h-0.514c0,0.477,0.387,0.865,0.862,0.865l0,0h1.72
				v-0.514L40.643,25.706L40.643,25.706z"/>
			<path fill="#66301D" d="M28.155,8.521v14.715c0,0,0,0,1.332,0c4.031,0,3.816-3.817,3.816-3.817v-1.707
				c-0.011,0-0.019,0.004-0.025,0.004c-0.937,0-1.696-0.756-1.696-1.692c0-0.938,0.761-1.697,1.696-1.697
				c0.923,0,1.67,0.74,1.69,1.66h0.003v0.037v1.692h1.809v-4.304c0.574,0,1.32,0,2.316,0c4.719,0,5.75-4.891,5.75-4.891H28.155z"/>
		</g>
		<path fill="#FFD62C" d="M45.875,9.293c-0.754-4.85-3.744-9.267-10.187-9.267c-7.47,0-10.393,6.105-10.393,11.843h19.617h1.164
			h2.371L45.875,9.293z"/>
	</g>
	<g>
		<path fill="#939393" d="M36.311,86.668v-7.059c0-2.127,1.729-3.857,3.856-3.857h6.759c2.129,0,3.858,1.73,3.858,3.857v7.059
			c0,2.127-1.729,3.857-3.858,3.857h-6.759C38.041,90.526,36.311,88.795,36.311,86.668z M48.475,79.61
			c0-0.852-0.695-1.545-1.549-1.545h-6.759c-0.854,0-1.547,0.693-1.547,1.545v7.059c0,0.852,0.693,1.545,1.547,1.545h6.759
			c0.854,0,1.549-0.693,1.549-1.545V79.61z"/>
		<polygon fill="#FFFFFF" points="74.172,84.983 74.172,81.297 95.669,81.297 98.409,83.14 95.669,84.983 		"/>
		<rect x="68.775" y="79.099" fill="#939393" width="19.031" height="8.084"/>
		<path fill="#FFD62C" d="M69.778,90.502c1.7,0,3.082-1.381,3.082-3.082v-8.561c0-1.703-1.382-3.082-3.082-3.082H46.586v14.725
			H69.778z"/>
	</g>
	<g>
		<path fill="#F9B69B" d="M33.047,80.549c0,0.035,0.009,0.064,0.009,0.098h-2.938H16.072v6.717h14.046h4.549h4.208
			c0,0,0.005,0,0.009,0h0.007h0.323v-0.033c1.694-0.168,3.026-1.584,3.026-3.326c0-1.742-1.332-3.156-3.026-3.324v-0.033h-0.315
			c0,0-0.01-0.002-0.015-0.002c-0.007,0-0.011,0.002-0.015,0.002h-3.438c0.002-0.033,0.01-0.062,0.01-0.098
			c0-0.662-0.537-1.195-1.197-1.195S33.047,79.888,33.047,80.549z"/>
		<rect x="16.072" y="63.825" fill="#F9B69B" width="6.729" height="21.594"/>
	</g>
	<rect x="16.072" y="63.825" opacity="0.4" fill="#B78C7D" enable-background="new    " width="6.716" height="2.104"/>
	<g opacity="0.26">
		<path fill="#D3E5EF" d="M98.56,64.789c5.089,0,9.212,4.125,9.212,9.211c0,5.089-4.123,9.212-9.212,9.212"/>
		<path fill="#D3E5EF" d="M98.56-18.336c8.572,0,15.521,6.949,15.521,15.521c0,8.572-6.948,15.523-15.521,15.523"/>
		<path fill="#D3E5EF" d="M98.56,27.297c10.354,0,18.746,8.392,18.746,18.746c0,10.351-8.396,18.745-18.746,18.745"/>
		<path fill="#D3E5EF" d="M98.56,10.061c-13.632,0-24.685,11.053-24.685,24.685c0,13.631,11.053,24.681,24.685,24.681"/>
		<path fill="#D3E5EF" d="M98.56-26.191c-5.48,0-9.924,4.444-9.924,9.924c0,5.481,4.442,9.926,9.924,9.926"/>
	</g>
</g>
</svg>
