<?xml version="1.0" encoding="utf-8"?>
<!-- Generator: Adobe Illustrator 16.0.0, SVG Export Plug-In . SVG Version: 6.00 Build 0)  -->
<!DOCTYPE svg PUBLIC "-//W3C//DTD SVG 1.1//EN" "http://www.w3.org/Graphics/SVG/1.1/DTD/svg11.dtd">
<svg version="1.1" id="Layer_1" xmlns="http://www.w3.org/2000/svg" xmlns:xlink="http://www.w3.org/1999/xlink" x="0px" y="0px"
	 width="109.082px" height="208.547px" viewBox="0 -26.254 109.082 208.547" enable-background="new 0 -26.254 109.082 208.547"
	 xml:space="preserve">
<g>
	<g>
		<path fill="#F9B69B" d="M52.452,72.477c0,0.034,0.008,0.063,0.01,0.098h-2.938H35.478v6.717h14.047h4.548h4.21
			c0,0,0.002,0,0.006,0h0.008h0.322v-0.033c1.697-0.17,3.027-1.584,3.027-3.327c0-1.742-1.33-3.157-3.027-3.325v-0.032h-0.316
			c0,0-0.008-0.002-0.014-0.002c-0.004,0-0.01,0.002-0.014,0.002h-3.439c0.003-0.034,0.01-0.063,0.01-0.098
			c0-0.662-0.535-1.197-1.195-1.197C52.988,71.28,52.452,71.815,52.452,72.477z"/>
		<rect x="35.478" y="63.761" fill="#F9B69B" width="6.73" height="13.584"/>
	</g>
	<rect x="35.478" y="63.762" opacity="0.4" fill="#B78C7D" width="6.717" height="2.104"/>
	<g>
		<g>
			<path fill="#9B5C12" d="M46.342,174.511h-3.704c-1.637-0.398-3.076-1.303-4.146-2.533c-0.809-0.928-1.406-2.047-1.721-3.275
				v-7.215l-0.186-0.041h-5.548v9.121v3.051v0.979v0.98v2.119h19.731C50.146,175.845,48.401,174.511,46.342,174.511z"/>
			<path fill="#33373A" d="M31.037,179.185h5.733v-0.555v-0.93l2.547,1.484h11.695c0-0.52-0.086-1.023-0.244-1.488H31.037v0.934
				V179.185z"/>
			<rect x="31.037" y="166.236" opacity="0.4" fill="#9B5C12" width="5.765" height="1.83"/>
		</g>
		<g>
			<rect x="28.087" y="83.077" fill="#2C7893" width="8.696" height="83.159"/>
			<path fill="#196377" d="M32.979,120.277v9.777v2.795v1.51c0,0.557,0.451,1.008,1.008,1.008h2.796v-15.09H32.979z"/>
		</g>
	</g>
	<g>
		<g>
			<g>
				<path fill="#C17614" d="M32.884,174.511h-3.706c-1.636-0.398-3.075-1.303-4.146-2.533c-0.002,0.123-0.002,0.24-0.002,0.354
					c0,3.057-3.248,3.246-3.248,3.246h-4.205v2.119H37.31C36.688,175.845,34.941,174.511,32.884,174.511z"/>
				<path fill="#C17614" d="M25.03,172.332c0-0.113,0-0.23,0.002-0.354c-0.809-0.928-1.406-2.047-1.721-3.275v-7.215l-0.184-0.041
					h-5.551v9.121v3.051v0.979v0.98h4.205C21.782,175.578,25.03,175.388,25.03,172.332z"/>
				<path fill="#33373A" d="M17.577,179.185h5.734v-0.555v-0.93l2.547,1.484h11.695c0-0.52-0.088-1.023-0.244-1.488H17.577v0.934
					V179.185z"/>
			</g>
			<rect x="17.577" y="166.236" opacity="0.4" fill="#9B5C12" width="5.766" height="1.83"/>
		</g>
		<rect x="14.646" y="83.077" fill="#2C7893" width="8.697" height="83.159"/>
	</g>
	<path fill="#196377" d="M17.946,134.359v-1.51v-2.795v-9.777h-3.301v15.09h2.295C17.497,135.367,17.946,134.916,17.946,134.359z"/>
	<rect x="18.806" y="38.075" fill="#F9B69B" width="12.508" height="9.913"/>
	<path fill="#FFFFFF" d="M36.634,38.075h-4.775h-0.613H29.96c0,2.613-2.119,4.732-4.732,4.732s-4.732-2.119-4.732-4.732h-1.938
		h-5.387c-3.061,0-5.543,2.48-5.543,5.54v4.058l0,0v16.09h2.145h4.873l0,0h22.138l0,0h5.39v-6.536v-5.767v-7.845
		C42.173,40.555,39.692,38.075,36.634,38.075z"/>
	<polygon fill="#2C7893" points="35.591,48.694 35.591,38.075 32.687,38.075 32.687,48.694 20.495,48.694 20.495,38.075 
		17.591,38.075 17.591,48.694 16.296,63.762 14.646,63.762 14.646,95.718 16.296,95.718 36.783,95.718 36.783,63.762 	"/>
	<path fill="#BFE0EF" d="M34.247,62.249c0.418-0.414,0.568-0.996,0.457-1.529l-1.123,1.123l-1.297-1.299l1.123-1.123
		c-0.535-0.111-1.115,0.041-1.531,0.456s-0.568,0.995-0.457,1.53l-1.638,1.639l-2.231,2.231l1.299,1.298l2.23-2.23l1.639-1.64
		C33.253,62.816,33.833,62.666,34.247,62.249z"/>
	<path fill="#196377" d="M20.495,63.762v3.072v2.795v1.511c0,0.557,0.451,1.007,1.006,1.007h9.18c0.559,0,1.008-0.45,1.008-1.007
		v-1.511v-2.795v-3.072H20.495z"/>
	<g>
		<g>
			<path fill="#F9B69B" d="M32.98,12.022l4.806,10.769h-3.648v11.326h-2.873c0,0-1.373,0.172-1.373,1.374c0,0.515,0,0.515,0,2.574
				v2.402h-9.396v-1.543V11.807H32.81L32.98,12.022z"/>
			<circle fill="#2E3D49" cx="31.211" cy="16.086" r="0.505"/>
			<path opacity="0.2" fill="#4C3B15" d="M26.761,17.685v9.267c0,0-0.014,1.576,0,2.103c0.051,2.056-0.215,5.062,3.176,5.062
				c2.617,0,4.201,0,4.201,0V22.791h-1.973c0,0-0.449,0-1.973,0c-1.115,0-1.631-0.558-1.631-1.63c0-1.76,0-7.122,0-7.122h-1.801
				V17.685z"/>
			<path fill="#F9B69B" d="M34.138,24.6c0,0-0.664,0-1.908,0c-0.439,0-1.329,0.041-1.329,1.158c0,0.685,0,0.861,0,0.861h3.237V24.6z
				"/>
			<path fill="#CE857C" d="M32.419,25.643c-0.192,0-0.35-0.158-0.35-0.352h-0.514c0,0.477,0.387,0.865,0.863,0.865l0,0h1.719v-0.514
				H32.419z"/>
			<path fill="#66301D" d="M19.931,8.458v14.715c0,0,0,0,1.332,0c4.031,0,3.816-3.817,3.816-3.817v-1.707
				c-0.01,0-0.018,0.004-0.025,0.004c-0.936,0-1.696-0.756-1.696-1.692c0-0.938,0.761-1.697,1.696-1.697
				c0.923,0,1.67,0.74,1.691,1.66h0.002v0.037v1.692h1.809v-4.304c0.574,0,1.32,0,2.316,0c4.719,0,5.75-4.891,5.75-4.891H19.931z"/>
		</g>
		<path fill="#FFD62C" d="M37.651,9.231c-0.754-4.85-3.744-9.267-10.186-9.267c-7.469,0-10.392,6.105-10.392,11.843h19.618h1.164
			h2.371L37.651,9.231z"/>
	</g>
	<g>
		<path fill="#939393" d="M28.087,86.606v-7.059c0-2.127,1.73-3.857,3.857-3.857h6.759c2.128,0,3.858,1.73,3.858,3.857v7.059
			c0,2.127-1.73,3.857-3.858,3.857h-6.759C29.817,90.464,28.087,88.733,28.087,86.606z M40.251,79.548
			c0-0.852-0.695-1.545-1.548-1.545h-6.759c-0.853,0-1.547,0.693-1.547,1.545v7.059c0,0.852,0.694,1.545,1.547,1.545h6.759
			c0.853,0,1.548-0.693,1.548-1.545V79.548z"/>
		<polygon fill="#FFFFFF" points="65.948,84.921 65.948,81.235 87.446,81.235 90.185,83.077 87.446,84.921 		"/>
		<rect x="60.552" y="79.036" fill="#939393" width="19.031" height="8.084"/>
		<path fill="#FFD62C" d="M61.554,90.44c1.701,0,3.082-1.381,3.082-3.082v-8.561c0-1.703-1.381-3.082-3.082-3.082H38.362V90.44
			H61.554z"/>
	</g>
	<g>
		<path fill="#F9B69B" d="M24.823,80.487c0,0.035,0.008,0.064,0.008,0.098h-2.938H7.848v6.717h14.046h4.549h4.209
			c0,0,0.004,0,0.008,0h0.006h0.324v-0.033c1.695-0.168,3.027-1.584,3.027-3.326s-1.332-3.156-3.027-3.324v-0.033h-0.316
			c0,0-0.01-0.002-0.014-0.002c-0.006,0-0.01,0.002-0.014,0.002h-3.439c0.002-0.033,0.01-0.062,0.01-0.098
			c0-0.662-0.537-1.195-1.197-1.195S24.823,79.825,24.823,80.487z"/>
		<rect x="7.848" y="63.762" fill="#F9B69B" width="6.73" height="21.594"/>
	</g>
	<rect x="7.848" y="63.762" opacity="0.4" fill="#B78C7D" width="6.716" height="2.104"/>
	<g opacity="0.26">
		<path fill="#D3E5EF" d="M90.336,64.726c5.089,0,9.212,4.125,9.212,9.211c0,5.089-4.123,9.212-9.212,9.212"/>
		<path fill="#D3E5EF" d="M90.336-18.399c8.573,0,15.522,6.949,15.522,15.521s-6.949,15.523-15.522,15.523"/>
		<path fill="#D3E5EF" d="M90.336,27.235c10.353,0,18.746,8.392,18.746,18.746c0,10.351-8.394,18.745-18.746,18.745"/>
		<path fill="#D3E5EF" d="M90.336,9.998c-13.632,0-24.683,11.053-24.683,24.685c0,13.631,11.051,24.681,24.683,24.681"/>
		<path fill="#D3E5EF" d="M90.336-26.254c-5.48,0-9.924,4.444-9.924,9.924c0,5.481,4.443,9.926,9.924,9.926"/>
	</g>
</g>
</svg>
