<?xml version="1.0" encoding="UTF-8" standalone="no"?>
<!-- Created with Inkscape (http://www.inkscape.org/) -->

<svg
   xmlns:dc="http://purl.org/dc/elements/1.1/"
   xmlns:cc="http://creativecommons.org/ns#"
   xmlns:rdf="http://www.w3.org/1999/02/22-rdf-syntax-ns#"
   xmlns:svg="http://www.w3.org/2000/svg"
   xmlns="http://www.w3.org/2000/svg"
   xmlns:sodipodi="http://sodipodi.sourceforge.net/DTD/sodipodi-0.dtd"
   xmlns:inkscape="http://www.inkscape.org/namespaces/inkscape"
   width="181"
   height="266"
   id="svg2"
   version="1.1"
   inkscape:version="0.48.4 r9939"
   sodipodi:docname="7.svg">
  <defs
     id="defs4">
    <inkscape:perspective
       sodipodi:type="inkscape:persp3d"
       inkscape:vp_x="0 : 526.18109 : 1"
       inkscape:vp_y="0 : 1000 : 0"
       inkscape:vp_z="744.09448 : 526.18109 : 1"
       inkscape:persp3d-origin="372.04724 : 350.78739 : 1"
       id="perspective10" />
    <clipPath
       id="clipPath3565"
       clipPathUnits="userSpaceOnUse">
      <path
         id="path3567"
         d="M 0,576 788,576 788,0 0,0 0,576 z"
         inkscape:connector-curvature="0" />
    </clipPath>
    <clipPath
       id="clipPath3485"
       clipPathUnits="userSpaceOnUse">
      <path
         id="path3487"
         d="M 0,576 788,576 788,0 0,0 0,576 z"
         inkscape:connector-curvature="0" />
    </clipPath>
    <clipPath
       id="clipPath3409"
       clipPathUnits="userSpaceOnUse">
      <path
         id="path3411"
         d="M 0,576 788,576 788,0 0,0 0,576 z"
         inkscape:connector-curvature="0" />
    </clipPath>
    <clipPath
       id="clipPath3329"
       clipPathUnits="userSpaceOnUse">
      <path
         id="path3331"
         d="M 0,576 788,576 788,0 0,0 0,576 z"
         inkscape:connector-curvature="0" />
    </clipPath>
    <clipPath
       id="clipPath3249"
       clipPathUnits="userSpaceOnUse">
      <path
         id="path3251"
         d="M 0,576 788,576 788,0 0,0 0,576 z"
         inkscape:connector-curvature="0" />
    </clipPath>
    <clipPath
       id="clipPath3169"
       clipPathUnits="userSpaceOnUse">
      <path
         id="path3171"
         d="M 0,576 788,576 788,0 0,0 0,576 z"
         inkscape:connector-curvature="0" />
    </clipPath>
    <clipPath
       id="clipPath3089"
       clipPathUnits="userSpaceOnUse">
      <path
         id="path3091"
         d="M 0,576 788,576 788,0 0,0 0,576 z"
         inkscape:connector-curvature="0" />
    </clipPath>
    <clipPath
       id="clipPath3013"
       clipPathUnits="userSpaceOnUse">
      <path
         id="path3015"
         d="M 0,576 788,576 788,0 0,0 0,576 z"
         inkscape:connector-curvature="0" />
    </clipPath>
    <clipPath
       id="clipPath2933"
       clipPathUnits="userSpaceOnUse">
      <path
         id="path2935"
         d="M 0,576 788,576 788,0 0,0 0,576 z"
         inkscape:connector-curvature="0" />
    </clipPath>
    <clipPath
       id="clipPath2853"
       clipPathUnits="userSpaceOnUse">
      <path
         id="path2855"
         d="M 0,576 788,576 788,0 0,0 0,576 z"
         inkscape:connector-curvature="0" />
    </clipPath>
    <inkscape:perspective
       id="perspective2845"
       inkscape:persp3d-origin="0.5 : 0.33333333 : 1"
       inkscape:vp_z="1 : 0.5 : 1"
       inkscape:vp_y="0 : 1000 : 0"
       inkscape:vp_x="0 : 0.5 : 1"
       sodipodi:type="inkscape:persp3d" />
  </defs>
  <sodipodi:namedview
     id="base"
     pagecolor="#ffffff"
     bordercolor="#666666"
     borderopacity="1.0"
     inkscape:pageopacity="0.0"
     inkscape:pageshadow="2"
     inkscape:zoom="0.98994949"
     inkscape:cx="186.22436"
     inkscape:cy="188.33369"
     inkscape:document-units="px"
     inkscape:current-layer="layer1"
     showgrid="false"
     inkscape:window-width="1871"
     inkscape:window-height="1056"
     inkscape:window-x="49"
     inkscape:window-y="24"
     inkscape:window-maximized="1"
     fit-margin-top="0"
     fit-margin-left="0"
     fit-margin-right="0"
     fit-margin-bottom="0"
     showguides="true"
     inkscape:guide-bbox="true">
    <sodipodi:guide
       orientation="1,0"
       position="91.923882,409.11178"
       id="guide3637" />
  </sodipodi:namedview>
  <metadata
     id="metadata7">
    <rdf:RDF>
      <cc:Work
         rdf:about="">
        <dc:format>image/svg+xml</dc:format>
        <dc:type
           rdf:resource="http://purl.org/dc/dcmitype/StillImage" />
        <dc:title></dc:title>
      </cc:Work>
    </rdf:RDF>
  </metadata>
  <g
     inkscape:label="Layer 1"
     inkscape:groupmode="layer"
     id="layer1"
     transform="translate(-233.66143,-687.11562)">
    <g
       id="g3481"
       transform="matrix(1.0278596,0,0,-1.0278596,-71.921475,1089.229)">
      <g
         id="g3483"
         clip-path="url(#clipPath3485)">
        <g
           id="g3489"
           transform="translate(452.3516,259.6182)">
          <path
             d="m 0,0 c 0,0 12.498,-20.568 16.105,-14.558 0,0 -1.396,1.201 -2.64,4.012 0,0 3.355,-1.423 4.623,-0.587 0,0 3.103,3.56 -3.617,5.489 0,0 6.722,-1.929 5.758,1.373 -0.963,3.298 -0.963,3.299 -4.465,4.019 0,0 5.107,-1.78 3.588,2.364 0,0 -12.377,6.377 -17.846,6.407 L 0,0 z"
             style="fill:#ffdcad;fill-opacity:1;fill-rule:nonzero;stroke:none"
             id="path3491"
             inkscape:connector-curvature="0" />
        </g>
        <g
           id="g3493"
           transform="translate(399.2324,296.8311)">
          <path
             d="m 0,0 52.582,-39.944 5.563,11.125 c 0,0 -38.426,19.718 -53.594,46.009"
             style="fill:#3a4869;fill-opacity:1;fill-rule:nonzero;stroke:none"
             id="path3495"
             inkscape:connector-curvature="0" />
        </g>
        <g
           id="g3497"
           transform="translate(400.75,233.6309)">
          <path
             d="m 0,0 c 0,0 -41.459,-21.742 -42.977,-27.81 -1.517,-6.066 5.056,-33.37 5.056,-33.37 l -10.113,-2.526 c 0,0 -10.618,42.975 -7.584,46.515 3.034,3.54 7.584,8.09 12.135,10.618 4.55,2.526 31.853,19.718 31.853,19.718 l 0,-17.696"
             style="fill:#3a4869;fill-opacity:1;fill-rule:nonzero;stroke:none"
             id="path3499"
             inkscape:connector-curvature="0" />
        </g>
        <g
           id="g3501"
           transform="translate(361.4868,172.7451)">
          <path
             d="m 0,0 2.301,-13.195 c 0,0 -37.139,-10.304 -40.034,-2.01 C -40.631,-6.91 -40.61,-4.758 -30,-0.43 L 0,0 z"
             style="fill:#99866a;fill-opacity:1;fill-rule:nonzero;stroke:none"
             id="path3503"
             inkscape:connector-curvature="0" />
        </g>
        <g
           id="g3505"
           transform="translate(438.2383,185.3213)">
          <path
             d="m 0,0 10.873,6.51 c 0,0 22.506,-31.221 16.19,-36.664 -6.317,-5.445 -8.231,-6.137 -15.889,2.327 L 0,0 z"
             style="fill:#99866a;fill-opacity:1;fill-rule:nonzero;stroke:none"
             id="path3507"
             inkscape:connector-curvature="0" />
        </g>
        <g
           id="g3509"
           transform="translate(323.5171,259.124)">
          <path
             d="m 0,0 c 0,0 -21.307,11.189 -21.303,4.179 0,0 1.815,-0.309 4.329,-2.075 0,0 -3.608,-0.513 -4.264,-1.88 0,0 -0.826,-4.651 5.927,-2.843 0,0 -6.755,-1.808 -4.23,-4.141 2.527,-2.333 2.529,-2.333 5.898,-1.144 0,0 -5.294,-1.107 -1.855,-3.878 0,0 13.893,0.909 18.594,3.703 L 0,0 z"
             style="fill:#ffdcad;fill-opacity:1;fill-rule:nonzero;stroke:none"
             id="path3511"
             inkscape:connector-curvature="0" />
        </g>
        <g
           id="g3513"
           transform="translate(411.6953,325.7832)">
          <path
             d="m 0,0 -33.688,-3.568 c 0,0 -5.269,-75.036 3.225,-97.608 0,0 25.6,7.928 34.092,9.35 0,0 -18.264,38 -3.629,91.826"
             style="fill:#7d9ed2;fill-opacity:1;fill-rule:nonzero;stroke:none"
             id="path3515"
             inkscape:connector-curvature="0" />
        </g>
        <g
           id="g3517"
           transform="translate(427.5469,354.5977)">
          <path
             d="m 0,0 c 0,-19.408 -17.09,-35.141 -38.173,-35.141 -21.083,0 -38.174,15.733 -38.174,35.141 0,19.406 17.091,35.139 38.174,35.139 C -17.09,35.139 0,19.406 0,0"
             style="fill:#ffdcad;fill-opacity:1;fill-rule:nonzero;stroke:none"
             id="path3519"
             inkscape:connector-curvature="0" />
        </g>
        <g
           id="g3521"
           transform="translate(435.1309,351.0566)">
          <path
             d="m 0,0 c 0,-3.21 -2.717,-5.813 -6.066,-5.813 -3.352,0 -6.069,2.603 -6.069,5.813 0,3.212 2.717,5.815 6.069,5.815 C -2.717,5.815 0,3.212 0,0"
             style="fill:#ffdcad;fill-opacity:1;fill-rule:nonzero;stroke:none"
             id="path3523"
             inkscape:connector-curvature="0" />
        </g>
        <g
           id="g3525"
           transform="translate(363.8403,357.4531)">
          <path
             d="m 0,0 c 0,-3.533 -2.528,-6.396 -5.646,-6.396 -3.12,0 -5.647,2.863 -5.647,6.396 0,3.531 2.527,6.395 5.647,6.395 C -2.528,6.395 0,3.531 0,0"
             style="fill:#ffffff;fill-opacity:1;fill-rule:nonzero;stroke:none"
             id="path3527"
             inkscape:connector-curvature="0" />
        </g>
        <g
           id="g3529"
           transform="translate(384.0659,354.3438)">
          <path
             d="m 0,0 c 0,-3.908 -2.943,-7.078 -6.574,-7.078 -3.631,0 -6.573,3.17 -6.573,7.078 0,3.909 2.942,7.078 6.573,7.078 C -2.943,7.078 0,3.909 0,0"
             style="fill:#ffffff;fill-opacity:1;fill-rule:nonzero;stroke:none"
             id="path3531"
             inkscape:connector-curvature="0" />
        </g>
        <g
           id="g3533"
           transform="translate(360.3003,357.8828)">
          <path
             d="m 0,0 c 0,-1.955 -1.132,-3.539 -2.527,-3.539 -1.395,0 -2.527,1.584 -2.527,3.539 0,1.955 1.132,3.539 2.527,3.539 C -1.132,3.539 0,1.955 0,0"
             style="fill:#594334;fill-opacity:1;fill-rule:nonzero;stroke:none"
             id="path3535"
             inkscape:connector-curvature="0" />
        </g>
        <g
           id="g3537"
           transform="translate(380.019,353.9648)">
          <path
             d="m 0,0 c 0,-1.605 -1.132,-2.908 -2.527,-2.908 -1.396,0 -2.528,1.303 -2.528,2.908 0,1.605 1.132,2.907 2.528,2.907 C -1.132,2.907 0,1.605 0,0"
             style="fill:#594334;fill-opacity:1;fill-rule:nonzero;stroke:none"
             id="path3539"
             inkscape:connector-curvature="0" />
        </g>
        <g
           id="g3541"
           transform="translate(354.064,367.96)">
          <path
             d="m 0,0 c 0,0 2.697,1.552 6.236,3.574 3.54,2.023 -1.263,-0.07 0,-3.574 0,0 -0.504,-0.726 3.54,2.183 l 1.769,-6.295 c 0,0 0.507,4.652 5.309,6.675 0,0 -1.768,-6.019 -1.01,-6.675 0.759,-0.657 1.77,4.4 5.056,6.423 l 3.287,2.022 c 0,0 -2.528,-4.045 0,-6.572 2.526,-2.53 3.792,0.883 4.549,2.337 0.759,1.454 2.276,-3.349 2.528,-6.636 0.255,-3.285 4.046,2.426 4.046,2.426 0,0 2.023,1.351 2.276,-3.445 l 6.319,0 -1.768,-6.438 5.053,5.434 1.266,-8.342 5.308,6.826 0,-6.826 6.574,5.815 2.528,-8.091 6.066,6.826 2.276,-2.78 2.275,4.045 c 0,0 -1.012,26.798 -33.877,32.864 0,0 -27.895,3.975 -39.606,-21.776"
             style="fill:#594334;fill-opacity:1;fill-rule:nonzero;stroke:none"
             id="path3543"
             inkscape:connector-curvature="0" />
        </g>
        <g
           id="g3545"
           transform="translate(358.1938,334.3359)">
          <path
             d="m 0,0 c 0,0 18.793,-5.344 25.872,0 0,0 -9.389,-11.734 -18.092,-7.492 0,0 -6.044,5.027 -7.78,7.492"
             style="fill:#cd9db0;fill-opacity:1;fill-rule:nonzero;stroke:none"
             id="path3547"
             inkscape:connector-curvature="0" />
        </g>
        <g
           id="g3549"
           transform="translate(359.1196,344.9902)">
          <path
             d="m 0,0 c 0,-2.095 -2.265,-3.793 -5.056,-3.793 -2.793,0 -5.056,1.698 -5.056,3.793 0,2.094 2.263,3.791 5.056,3.791 C -2.265,3.791 0,2.094 0,0"
             style="fill:#ffdcad;fill-opacity:1;fill-rule:nonzero;stroke:none"
             id="path3551"
             inkscape:connector-curvature="0" />
        </g>
        <g
           id="g3553"
           transform="translate(391.1431,239.1914)">
          <path
             d="m 0,0 3.539,-51.571 c 0,0 -1.516,-5.058 10.113,-6.068 11.627,-1.01 41.965,0 41.965,0 l 0.506,9.608 -36.911,2.527 L 16.685,0.507 0,0 z"
             style="fill:#4c71a0;fill-opacity:1;fill-rule:nonzero;stroke:none"
             id="path3555"
             inkscape:connector-curvature="0" />
        </g>
        <g
           id="g3557"
           transform="translate(386.5913,306.9434)">
          <path
             d="m 0,0 c 0,0 -48.538,-53.595 -60.673,-56.124 l -7.077,11.125 c 0,0 45.915,30.146 60.012,52.683 0.621,0.994 1.18,1.972 1.671,2.933"
             style="fill:#4c71a0;fill-opacity:1;fill-rule:nonzero;stroke:none"
             id="path3559"
             inkscape:connector-curvature="0" />
        </g>
      </g>
    </g>
  </g>
</svg>
