<?xml version="1.0" encoding="utf-8"?>
<!-- Generator: Adobe Illustrator 16.0.0, SVG Export Plug-In . SVG Version: 6.00 Build 0)  -->
<!DOCTYPE svg PUBLIC "-//W3C//DTD SVG 1.1//EN" "http://www.w3.org/Graphics/SVG/1.1/DTD/svg11.dtd">
<svg version="1.1" id="Layer_1" xmlns="http://www.w3.org/2000/svg" xmlns:xlink="http://www.w3.org/1999/xlink" x="0px" y="0px"
	 width="37.928px" height="170px" viewBox="0 0 37.928 170" enable-background="new 0 0 37.928 170" xml:space="preserve">
<g>
	<g>
		<g>
			<path fill="#2E373E" d="M34.555,166.611c-0.049,0-0.1,0.001-0.148,0.004v-0.004h-3.352c-3.104-2.192-5.131-5.806-5.131-9.895
				h-0.021v-15.515h-5.818v15.516v0.414v2.734v3.522v6.594h3.645v-4.072l3.749,4.072h3.707h3.523h3.221
				C37.928,168.12,36.418,166.611,34.555,166.611z"/>
			<rect x="20.083" y="110.336" fill="#F8B69C" width="5.818" height="30.866"/>
		</g>
		<rect x="20.083" y="121.223" opacity="0.4" fill="#B78D7E" enable-background="new    " width="5.818" height="2.184"/>
	</g>
	<g>
		<g>
			<path fill="#3C474D" d="M22.865,166.628c-0.053,0-0.102,0.001-0.15,0.004v-0.004h-3.351c-3.103-2.191-5.13-5.806-5.13-9.893
				h-0.004v-15.533H8.411v15.533H8.393v3.147v3.522V170h3.645v-4.072L15.784,170h3.708h3.521h3.223
				C26.236,168.138,24.726,166.628,22.865,166.628z"/>
			<rect x="8.411" y="110.336" fill="#F8B69C" width="5.818" height="30.866"/>
		</g>
		<rect x="8.411" y="121.223" opacity="0.4" fill="#B78D7E" enable-background="new    " width="5.819" height="2.184"/>
	</g>
	<path fill="#F8B69C" d="M26.824,85.29c-0.002,0-0.004,0.001-0.006,0.001v-0.279v-4.515V47.648h-5.817v32.849v4.515v3.899h0.012
		c-0.002,0.04-0.012,0.078-0.012,0.118c0,1.607,1.303,2.911,2.91,2.911c1.609,0,2.913-1.304,2.913-2.911
		c0-0.04-0.01-0.078-0.012-0.118h0.006v-0.547c0.002,0,0.004,0,0.006,0c0.85,0,1.537-0.688,1.537-1.538
		C28.361,85.978,27.674,85.29,26.824,85.29z"/>
	<rect x="21.001" y="47.859" opacity="0.4" fill="#B78D7E" enable-background="new    " width="5.819" height="2.184"/>
	<g>
		<path fill="#F8B69C" d="M22.15,2.85l4.069,12.111h-2.866v6.411h-2.982c0,0-1.424,0.177-1.424,1.423c0,0.535,0,4.939,0,7.076v2.493
			h-6.825v-1.602V2.628h9.851L22.15,2.85z"/>
		<path fill="#2F3E4A" d="M21.658,9.708c0,0.29-0.234,0.523-0.523,0.523c-0.287,0-0.521-0.233-0.521-0.523
			c0-0.289,0.234-0.523,0.521-0.523C21.423,9.185,21.658,9.419,21.658,9.708z"/>
		<path fill="#F28A82" d="M22.218,16.997c-0.076,0-0.139-0.061-0.139-0.137h-0.533c0,0.37,0.301,0.671,0.67,0.671h1.146v-0.534
			H22.218L22.218,16.997z"/>
		<path fill="#C2692A" d="M7.328,0v27.467c0,0,1.722,0,3.419,0c5.149,0,4.875-4.875,4.875-4.875V12.167
			c-0.969-0.001-1.755-0.788-1.755-1.759c0-0.97,0.788-1.757,1.758-1.757c0.77,0,1.417,0.498,1.655,1.187l0.023-0.073
			c1.124-0.083,2.012-0.987,2.064-2.12h0.011V6.244c0.501,0,1.128,0,1.917,0C27.316,6.244,28.633,0,28.633,0L7.328,0L7.328,0z"/>
	</g>
	<path fill="#4C789C" d="M27.674,41.863l0.004-0.004l-0.459-0.71V39.57v-2.597v-3.332c0-1.333-1.08-2.414-2.413-2.414h-3.959h-1.896
		h-6.907H7.91H6.189c-1.333,0-2.414,1.081-2.414,2.414v3.632H3.764v10.586h5.845v16.209h2.698h8.54h4.443V48.414
		c1.928-0.259,3.415-1.904,3.415-3.901C28.703,43.491,28.312,42.562,27.674,41.863z"/>
	<polygon fill="#5B4C71" points="25.269,63.089 19.218,63.089 17.402,63.089 15.803,63.089 13.989,63.089 7.938,63.089 0,121.223 
		13.989,121.223 19.218,121.223 33.207,121.223 	"/>
	<rect x="10.654" y="55.524" fill="#5B4C71" width="14.637" height="7.564"/>
	<rect x="9.582" y="55.524" fill="#2F3E4A" width="15.709" height="7.645"/>
	<polygon fill="#FFFFFF" points="12.043,31.228 17.184,36.963 17.184,55.524 18.964,55.524 18.964,39.842 18.964,35.751 
		18.964,31.228 	"/>
	<path fill="#F8B69C" d="M9.587,85.29c-0.002,0-0.004,0.001-0.006,0.001v-0.279v-4.515V47.859H3.764v32.638v4.515v3.899h0.012
		c-0.002,0.04-0.012,0.078-0.012,0.118c0,1.607,1.304,2.911,2.911,2.911c1.608,0,2.911-1.304,2.911-2.911
		c0-0.04-0.01-0.078-0.012-0.118h0.006v-0.547c0.002,0,0.003,0,0.005,0c0.849,0,1.538-0.688,1.538-1.538
		C11.124,85.978,10.435,85.29,9.587,85.29z"/>
	<rect x="3.764" y="47.859" opacity="0.4" fill="#B78D7E" enable-background="new    " width="5.818" height="2.184"/>
	<g>
		
			<ellipse fill="#00AF7E" stroke="#BAD7EE" stroke-width="0.3629" stroke-miterlimit="10" cx="16.234" cy="32.878" rx="1.059" ry="1.33"/>
		<circle fill="#FFFFFF" cx="16.486" cy="32.475" r="0.257"/>
	</g>
</g>
</svg>
