<?xml version="1.0" encoding="UTF-8" standalone="no"?>
<!-- Generator: Adobe Illustrator 16.0.0, SVG Export Plug-In . SVG Version: 6.00 Build 0)  -->

<svg
   xmlns:dc="http://purl.org/dc/elements/1.1/"
   xmlns:cc="http://creativecommons.org/ns#"
   xmlns:rdf="http://www.w3.org/1999/02/22-rdf-syntax-ns#"
   xmlns:svg="http://www.w3.org/2000/svg"
   xmlns="http://www.w3.org/2000/svg"
   xmlns:sodipodi="http://sodipodi.sourceforge.net/DTD/sodipodi-0.dtd"
   xmlns:inkscape="http://www.inkscape.org/namespaces/inkscape"
   version="1.1"
   id="Layer_1"
   x="0px"
   y="0px"
   width="1207.9587"
   height="400"
   viewBox="0 0 1207.9588 400"
   enable-background="new 0 0 1218.001 400"
   xml:space="preserve"
   inkscape:version="0.48.4 r9939"
   sodipodi:docname="bg.svg"><metadata
     id="metadata149"><rdf:RDF><cc:Work
         rdf:about=""><dc:format>image/svg+xml</dc:format><dc:type
           rdf:resource="http://purl.org/dc/dcmitype/StillImage" /></cc:Work></rdf:RDF></metadata><defs
     id="defs147"><clipPath
       clipPathUnits="userSpaceOnUse"
       id="clipPath3133"><rect
         style="fill:#786721;stroke:#000000;stroke-width:1.04127264;stroke-opacity:1"
         id="rect3135"
         width="1207.9587"
         height="471.95874"
         x="6.0206351"
         y="-45.979366"
         ry="0" /></clipPath></defs><sodipodi:namedview
     pagecolor="#ffffff"
     bordercolor="#666666"
     borderopacity="1"
     objecttolerance="10"
     gridtolerance="10"
     guidetolerance="10"
     inkscape:pageopacity="0"
     inkscape:pageshadow="2"
     inkscape:window-width="1551"
     inkscape:window-height="876"
     id="namedview145"
     showgrid="false"
     inkscape:zoom="0.42820571"
     inkscape:cx="-26.212601"
     inkscape:cy="139.24809"
     inkscape:window-x="49"
     inkscape:window-y="24"
     inkscape:window-maximized="1"
     inkscape:current-layer="Layer_1"
     fit-margin-top="0"
     fit-margin-left="0"
     fit-margin-right="0"
     fit-margin-bottom="0" /><rect
     style="fill:#acdbef"
     y="-3.8485191e-06"
     x="-6.0206351"
     width="1218.001"
     height="296.98499"
     id="rect3" /><polygon
     style="fill:#77c0de"
     points="366.464,288.912 572.962,157.978 572.962,157.978 779.46,288.912 "
     id="polygon5"
     transform="translate(-6.0206351,-3.848519e-6)" /><polygon
     style="fill:#77c0de"
     points="61.714,281.884 275.718,150.949 275.718,150.949 489.721,281.884 "
     id="polygon7"
     transform="translate(-6.0206351,-3.848519e-6)" /><polygon
     style="fill:#77c0de"
     points="756.591,277.395 970.595,146.459 970.595,146.459 1184.597,277.395 "
     id="polygon9"
     transform="translate(-6.0206351,-3.848519e-6)" /><path
     style="fill:#305a42"
     inkscape:connector-curvature="0"
     d="M 796.13836,132.089 L 796.13836,132.089 C 784.47636,124.819 768.36536,120.322 750.57036,120.322 C 732.77536,120.322 716.66436,124.819 705.00236,132.089 L 705.00236,132.089 L 429.92536,290.817 H 750.57036 H 1071.2154 L 796.13836,132.089 z"
     id="path11" /><circle
     d="M 1180.466,82.846001 C 1180.466,93.855245 1171.5412,102.78 1160.532,102.78 C 1149.5227,102.78 1140.598,93.855245 1140.598,82.846001 C 1140.598,71.836756 1149.5227,62.912001 1160.532,62.912001 C 1171.5412,62.912001 1180.466,71.836756 1180.466,82.846001 z"
     style="fill:#fcf8c9"
     sodipodi:ry="19.934"
     sodipodi:rx="19.934"
     sodipodi:cy="82.846001"
     sodipodi:cx="1160.532"
     cx="1160.532"
     cy="82.846001"
     r="19.934"
     id="circle13"
     transform="translate(-6.0206351,-3.848519e-6)" /><path
     style="fill:#ffffff"
     inkscape:connector-curvature="0"
     d="M 799.05436,97.204996 V 97.202996 C 803.83336,97.202996 807.70636,93.328996 807.70636,88.551996 V 89.064996 V 89.559996 H 807.71836 C 807.71236,89.395996 807.70636,89.230996 807.70636,89.064996 C 807.70636,80.828996 814.38236,74.152996 822.61636,74.152996 H 846.30036 C 851.07936,74.152996 854.95236,70.279996 854.95236,65.501996 H 854.93836 C 854.93836,57.266996 861.61436,50.591996 869.84836,50.591996 C 869.85036,50.591996 869.85236,50.591996 869.85636,50.591996 L 869.85636,50.591996 H 907.09236 C 915.32836,50.591996 922.00236,57.266996 922.00236,65.501996 V 64.517996 C 922.00236,69.294996 925.87736,73.168996 930.65436,73.168996 V 73.169996 C 938.89036,73.169996 945.56436,79.846996 945.56436,88.080996 C 945.56436,96.316996 938.89036,102.993 930.65436,102.993 H 903.89636 C 899.11936,102.993 895.24636,106.866 895.24636,111.645 H 895.26936 C 895.26936,119.88 888.59136,126.556 880.35736,126.556 L 880.35736,126.556 L 880.35736,126.556 H 838.15836 V 126.422 C 837.70936,126.507 837.24636,126.556 836.77336,126.556 C 832.70136,126.556 829.40236,123.257 829.40236,119.186 H 829.40036 C 829.40036,115.362 826.44536,112.236 822.69736,111.948 H 799.05236 C 794.98036,111.948 791.68136,108.648 791.68136,104.577 C 791.68336,100.504 794.98236,97.204996 799.05436,97.204996 z"
     id="path15" /><g
     id="g17"
     transform="matrix(1,0,0,0.91247881,-6.020949,11.604553)"><path
       style="fill:#4c8a5d"
       inkscape:connector-curvature="0"
       d="M 1217.954,145.971 C 1198.184,145.971 1180.417,154.534 1168.151,168.15 L 1037.06,290.812 H 1150.943 V 291.947 H 1218.009 V 145.972 C 1217.991,145.972 1217.974,145.971 1217.954,145.971 z"
       id="path19" /></g><path
     style="fill:#ffffff"
     inkscape:connector-curvature="0"
     d="M 193.19136,91.374996 C 193.19136,83.939996 187.29336,77.885996 179.92136,77.625996 C 177.07536,77.538996 174.79436,75.209996 174.79436,72.342996 H 174.79236 C 174.79236,69.377996 172.39036,66.975996 169.42536,66.975996 C 169.19136,66.975996 168.84836,66.990996 168.41536,67.019996 V 66.975996 H 156.37436 C 149.46636,66.975996 143.86636,61.376996 143.86636,54.466996 H 143.86036 C 143.86036,51.501996 141.45836,49.098996 138.49136,49.098996 H 92.831365 C 87.412365,49.098996 83.018365,53.493996 83.018365,58.913996 H 83.015365 C 83.015365,63.366996 79.405365,66.975996 74.953365,66.975996 H 72.215365 L 72.215365,66.975996 C 69.697365,66.975996 67.657365,69.016996 67.657365,71.533996 V 76.671996 C 67.248365,80.486996 64.313365,83.535996 60.559365,84.134996 H 60.485365 C 54.488365,84.134996 49.626365,88.996996 49.626365,94.993996 C 49.626365,100.991 54.488365,105.853 60.485365,105.853 V 105.853 C 63.964365,105.853 66.786365,108.674 66.786365,112.153 V 111.437 C 66.786365,117.434 71.646365,122.295 77.644365,122.295 H 127.25136 L 127.25136,122.295 C 127.25336,122.295 127.25536,122.295 127.25736,122.295 C 133.25336,122.295 138.11636,117.434 138.11636,111.437 H 138.10536 C 138.10536,107.957 140.92436,105.136 144.40536,105.136 H 179.73336 V 105.129 C 187.19336,104.966 193.19136,98.873996 193.19136,91.374996 z"
     id="path21" /><g
     id="g23"
     transform="matrix(1,0,0,0.9118916,-6.0276351,11.797872)"><path
       d="M 50.256,167.351 H 50.254 C 38.006,154.131 20.499,145.853 1.056,145.853 C 0.704,145.853 0.358,145.876 0.007,145.881 V 291.923 H 60.12 V 290.788 H 182.177 L 50.256,167.351 z"
       id="path25"
       inkscape:connector-curvature="0"
       style="fill:#4c8a5d" /></g><g
     id="g27"
     transform="translate(-3.996635,-3.8485189e-6)"><path
       d="M 325.715,141.437 C 317.003,135.593 306.521,132.183 295.242,132.183 C 286.655,132.183 278.532,134.16 271.298,137.682 L 271.294,137.684 C 269.669,138.476 268.088,139.346 266.557,140.289 L -0.024,286.875 V 300.648 H 293.206 H 296.977 H 615.256 L 325.715,141.437 z"
       id="path29"
       inkscape:connector-curvature="0"
       style="fill:#2e764f" /></g><rect
     y="275.5"
     width="1218.01"
     height="124.5"
     id="rect31"
     x="-6.0206351"
     style="fill:#7ca56f" /><rect
     style="fill:#db7557"
     x="393.17636"
     y="182.142"
     width="15.842"
     height="166.188"
     id="rect33" /><circle
     d="M 471.02099,161.70399 C 471.02099,196.80279 442.56779,225.25599 407.46899,225.25599 C 372.37019,225.25599 343.917,196.80279 343.917,161.70399 C 343.917,126.6052 372.37019,98.151997 407.46899,98.151997 C 442.56779,98.151997 471.02099,126.6052 471.02099,161.70399 z"
     style="fill:#78c146"
     sodipodi:ry="63.551998"
     sodipodi:rx="63.551998"
     sodipodi:cy="161.70399"
     sodipodi:cx="407.46899"
     cx="407.46899"
     cy="161.70399"
     r="63.551998"
     id="circle35"
     transform="translate(-6.0206351,-3.848519e-6)" /><g
     id="g37"
     transform="translate(-6.0206351,-3.848519e-6)"><rect
       style="fill:#db7557"
       x="544.216"
       y="238.255"
       width="6.2150002"
       height="65.188004"
       id="rect39" /><circle
       d="M 566.55997,224.54601 C 566.55997,235.16975 557.94772,243.78201 547.32397,243.78201 C 536.70023,243.78201 528.08797,235.16975 528.08797,224.54601 C 528.08797,213.92226 536.70023,205.31001 547.32397,205.31001 C 557.94772,205.31001 566.55997,213.92226 566.55997,224.54601 z"
       style="fill:#78c146"
       sodipodi:ry="19.236"
       sodipodi:rx="19.236"
       sodipodi:cy="224.54601"
       sodipodi:cx="547.32397"
       cx="547.32397"
       cy="224.54601"
       r="19.236"
       id="circle41" /></g><g
     id="g43"
     transform="translate(-6.0206351,-3.848519e-6)"><rect
       style="fill:#93391f"
       x="290.94299"
       y="237.062"
       width="6.4169998"
       height="73.186996"
       id="rect45" /><g
       id="g47"><circle
         d="M 312.584,222.159 C 312.584,232.33926 304.33127,240.592 294.151,240.592 C 283.97074,240.592 275.718,232.33926 275.718,222.159 C 275.718,211.97873 283.97074,203.726 294.151,203.726 C 304.33127,203.726 312.584,211.97873 312.584,222.159 z"
         style="fill:#2a8d43"
         sodipodi:ry="18.433001"
         sodipodi:rx="18.433001"
         sodipodi:cy="222.159"
         sodipodi:cx="294.151"
         cx="294.151"
         cy="222.159"
         r="18.433001"
         id="circle49" /><circle
         d="M 312.584,174.17999 C 312.584,184.36026 304.33127,192.61299 294.151,192.61299 C 283.97074,192.61299 275.718,184.36026 275.718,174.17999 C 275.718,163.99973 283.97074,155.74699 294.151,155.74699 C 304.33127,155.74699 312.584,163.99973 312.584,174.17999 z"
         style="fill:#2a8d43"
         sodipodi:ry="18.433001"
         sodipodi:rx="18.433001"
         sodipodi:cy="174.17999"
         sodipodi:cx="294.151"
         cx="294.151"
         cy="174.17999"
         r="18.433001"
         id="circle51" /><rect
         style="fill:#2a8d43"
         x="275.71799"
         y="171.851"
         width="36.866001"
         height="50.307999"
         id="rect53" /></g></g><g
     id="g55"
     transform="translate(-6.0206351,-3.848519e-6)"><rect
       style="fill:#93391f"
       x="795.66901"
       y="263.92599"
       width="4.0700002"
       height="46.429001"
       id="rect57" /><g
       id="g59"><circle
         d="M 809.39698,254.472 C 809.39698,260.92987 804.16184,266.165 797.70398,266.165 C 791.24611,266.165 786.01098,260.92987 786.01098,254.472 C 786.01098,248.01413 791.24611,242.779 797.70398,242.779 C 804.16184,242.779 809.39698,248.01413 809.39698,254.472 z"
         style="fill:#2a8d43"
         sodipodi:ry="11.693"
         sodipodi:rx="11.693"
         sodipodi:cy="254.472"
         sodipodi:cx="797.70398"
         cx="797.70398"
         cy="254.472"
         r="11.693"
         id="circle61" /><circle
         d="M 809.39698,224.034 C 809.39698,230.49186 804.16184,235.727 797.70398,235.727 C 791.24611,235.727 786.01098,230.49186 786.01098,224.034 C 786.01098,217.57613 791.24611,212.341 797.70398,212.341 C 804.16184,212.341 809.39698,217.57613 809.39698,224.034 z"
         style="fill:#2a8d43"
         sodipodi:ry="11.693"
         sodipodi:rx="11.693"
         sodipodi:cy="224.034"
         sodipodi:cx="797.70398"
         cx="797.70398"
         cy="224.034"
         r="11.693"
         id="circle63" /><rect
         style="fill:#2a8d43"
         x="786.01099"
         y="222.55701"
         width="23.386999"
         height="31.915001"
         id="rect65" /></g></g><g
     id="g67"
     transform="translate(-6.0206351,-3.848519e-6)"><rect
       style="fill:#ba5427"
       x="581.08301"
       y="271.75101"
       width="6.3080001"
       height="29.851"
       id="rect69" /><polygon
       style="fill:#23441f"
       points="572.962,283.822 584.238,232.484 584.238,232.484 595.513,283.822 "
       id="polygon71" /></g><g
     id="g73"
     transform="translate(-6.0206351,-3.848519e-6)"><rect
       style="fill:#ffffff"
       x="609.97198"
       y="254.37601"
       width="71.441002"
       height="50.554001"
       id="rect75" /><rect
       style="fill:#25475a"
       x="644.67499"
       y="274.20499"
       width="6.7659998"
       height="8.9350004"
       id="rect77" /><rect
       style="fill:#dc4a29"
       x="609.97198"
       y="233.558"
       width="71.441002"
       height="25.047001"
       id="rect79" /><rect
       style="fill:#f47e6a"
       x="657.18799"
       y="222.67799"
       width="8.2110004"
       height="20.735001"
       id="rect81" /></g><g
     id="g83"
     transform="translate(-6.0206351,-3.848519e-6)"><path
       style="fill:#308950"
       inkscape:connector-curvature="0"
       d="M 645.692,305.964 C 645.692,298.511 651.735,292.468 659.188,292.468 C 666.641,292.468 672.684,298.511 672.684,305.964"
       id="path85" /><path
       style="fill:#308950"
       inkscape:connector-curvature="0"
       d="M 672.685,305.964 C 672.685,298.511 678.726,292.468 686.181,292.468 C 693.634,292.468 699.675,298.511 699.675,305.964"
       id="path87" /><path
       style="fill:#308950"
       inkscape:connector-curvature="0"
       d="M 699.675,305.964 C 699.675,298.511 705.718,292.468 713.171,292.468 C 720.626,292.468 726.669,298.511 726.669,305.964"
       id="path89" /></g><g
     id="g91"
     transform="translate(-6.0206351,-3.848519e-6)"><g
       id="g93"><path
         style="fill:#2a8d43"
         inkscape:connector-curvature="0"
         d="M 978.175,400 C 978.175,389.835 986.415,381.596 996.581,381.596 C 1006.745,381.596 1014.985,389.835 1014.985,400"
         id="path95" /><path
         style="fill:#2a8d43"
         inkscape:connector-curvature="0"
         d="M 1014.985,400 C 1014.985,389.835 1023.225,381.596 1033.389,381.596 C 1043.553,381.596 1051.793,389.835 1051.793,400"
         id="path97" /><path
         style="fill:#2a8d43"
         inkscape:connector-curvature="0"
         d="M 1051.794,400 C 1051.794,389.835 1060.034,381.596 1070.2,381.596 C 1080.364,381.596 1088.604,389.835 1088.604,400"
         id="path99" /></g><g
       id="g101"><path
         style="fill:#2a8d43"
         inkscape:connector-curvature="0"
         d="M 1088.604,400 C 1088.604,389.835 1096.844,381.596 1107.01,381.596 C 1117.174,381.596 1125.414,389.835 1125.414,400"
         id="path103" /><path
         style="fill:#2a8d43"
         inkscape:connector-curvature="0"
         d="M 1125.415,400 C 1125.415,389.835 1133.655,381.596 1143.819,381.596 C 1153.985,381.596 1162.223,389.835 1162.223,400"
         id="path105" /><path
         style="fill:#2a8d43"
         inkscape:connector-curvature="0"
         d="M 1162.224,400 C 1162.224,389.835 1170.466,381.596 1180.63,381.596 C 1190.794,381.596 1199.034,389.835 1199.034,400"
         id="path107" /></g></g><g
     id="g109"
     transform="translate(-6.0206351,-3.848519e-6)"><path
       style="fill:#a6b7bc"
       inkscape:connector-curvature="0"
       d="M 674.091,159.79 C 674.091,157.43 672.177,155.518 669.816,155.518 C 667.457,155.518 665.545,157.431 665.545,159.79"
       id="path111" /><path
       style="fill:#a6b7bc"
       inkscape:connector-curvature="0"
       d="M 665.544,178.486 C 665.544,180.845 667.458,182.758 669.815,182.758 C 672.176,182.758 674.09,180.845 674.09,178.486"
       id="path113" /><path
       style="fill:#a6b7bc"
       inkscape:connector-curvature="0"
       d="M 656.71,195.094 C 656.71,197.454 658.624,199.366 660.983,199.366 C 663.342,199.366 665.254,197.454 665.254,195.094"
       id="path115" /><path
       style="fill:#a6b7bc"
       inkscape:connector-curvature="0"
       d="M 665.255,181.656 C 665.255,179.296 663.343,177.383 660.984,177.383 C 658.623,177.383 656.711,179.296 656.711,181.656"
       id="path117" /><path
       style="fill:#a6b7bc"
       inkscape:connector-curvature="0"
       d="M 665.591,174.423 C 665.591,176.131 664.206,177.517 662.499,177.517 H 668.013 V 174.423 H 665.591 z"
       id="path119" /><path
       style="fill:#a6b7bc"
       inkscape:connector-curvature="0"
       d="M 665.247,185.857 C 665.247,184.149 666.632,182.764 668.339,182.764 H 662.825 V 185.857 H 665.247 z"
       id="path121" /><rect
       style="fill:#a6b7bc"
       x="667.92902"
       y="172.369"
       width="6.1620002"
       height="3.602"
       id="rect123" /><rect
       style="fill:#a6b7bc"
       x="665.54401"
       y="159.78999"
       width="8.5469999"
       height="18.697001"
       id="rect125" /><rect
       style="fill:#a6b7bc"
       x="656.71002"
       y="181.65601"
       width="8.5450001"
       height="13.438"
       id="rect127" /><rect
       style="fill:#a6b7bc"
       x="660.88599"
       y="177.383"
       width="8.9300003"
       height="5.375"
       id="rect129" /><circle
       d="M 665.35003,205.77499 C 665.35003,208.16086 663.4159,210.09499 661.03003,210.09499 C 658.64416,210.09499 656.71003,208.16086 656.71003,205.77499 C 656.71003,203.38912 658.64416,201.45499 661.03003,201.45499 C 663.4159,201.45499 665.35003,203.38912 665.35003,205.77499 z"
       style="fill:#a6b7bc"
       sodipodi:ry="4.3200002"
       sodipodi:rx="4.3200002"
       sodipodi:cy="205.77499"
       sodipodi:cx="661.03003"
       cx="661.03003"
       cy="205.77499"
       r="4.3200002"
       id="circle131" /><circle
       d="M 663.40099,214.34599 C 663.40099,215.68197 662.31797,216.76499 660.98199,216.76499 C 659.64602,216.76499 658.56299,215.68197 658.56299,214.34599 C 658.56299,213.01002 659.64602,211.92699 660.98199,211.92699 C 662.31797,211.92699 663.40099,213.01002 663.40099,214.34599 z"
       style="fill:#a6b7bc"
       sodipodi:ry="2.4189999"
       sodipodi:rx="2.4189999"
       sodipodi:cy="214.34599"
       sodipodi:cx="660.98199"
       cx="660.98199"
       cy="214.34599"
       r="2.4189999"
       id="circle133" /></g><circle
     d="M 434.237,194.548 C 434.237,199.84939 429.93938,204.147 424.638,204.147 C 419.33662,204.147 415.039,199.84939 415.039,194.548 C 415.039,189.24662 419.33662,184.949 424.638,184.949 C 429.93938,184.949 434.237,189.24662 434.237,194.548 z"
     style="fill:#f3744b"
     sodipodi:ry="9.599"
     sodipodi:rx="9.599"
     sodipodi:cy="194.548"
     sodipodi:cx="424.638"
     cx="424.638"
     cy="194.548"
     r="9.599"
     id="circle135"
     transform="translate(-6.0206351,-3.848519e-6)" /><circle
     d="M 405.33399,165.714 C 405.33399,169.10338 402.58636,171.851 399.19699,171.851 C 395.80762,171.851 393.05999,169.10338 393.05999,165.714 C 393.05999,162.32463 395.80762,159.577 399.19699,159.577 C 402.58636,159.577 405.33399,162.32463 405.33399,165.714 z"
     style="fill:#f3744b"
     sodipodi:ry="6.1370001"
     sodipodi:rx="6.1370001"
     sodipodi:cy="165.714"
     sodipodi:cx="399.19699"
     cx="399.19699"
     cy="165.714"
     r="6.1370001"
     id="circle137"
     transform="translate(-6.0206351,-3.848519e-6)" /><circle
     d="M 440.375,133.017 C 440.375,136.40692 437.62692,139.155 434.237,139.155 C 430.84708,139.155 428.099,136.40692 428.099,133.017 C 428.099,129.62707 430.84708,126.879 434.237,126.879 C 437.62692,126.879 440.375,129.62707 440.375,133.017 z"
     style="fill:#f3744b"
     sodipodi:ry="6.138"
     sodipodi:rx="6.138"
     sodipodi:cy="133.017"
     sodipodi:cx="434.237"
     cx="434.237"
     cy="133.017"
     r="6.138"
     id="circle139"
     transform="translate(-6.0206351,-3.848519e-6)" /><circle
     d="M 370.025,169.138 C 370.025,172.52737 367.27737,175.275 363.888,175.275 C 360.49863,175.275 357.751,172.52737 357.751,169.138 C 357.751,165.74863 360.49863,163.001 363.888,163.001 C 367.27737,163.001 370.025,165.74863 370.025,169.138 z"
     style="fill:#f3744b"
     sodipodi:ry="6.1370001"
     sodipodi:rx="6.1370001"
     sodipodi:cy="169.138"
     sodipodi:cx="363.888"
     cx="363.888"
     cy="169.138"
     r="6.1370001"
     id="circle141"
     transform="translate(-6.0206351,-3.848519e-6)" /><circle
     d="M 452.54899,171.851 C 452.54899,174.82616 450.13715,177.238 447.16199,177.238 C 444.18683,177.238 441.77499,174.82616 441.77499,171.851 C 441.77499,168.87584 444.18683,166.464 447.16199,166.464 C 450.13715,166.464 452.54899,168.87584 452.54899,171.851 z"
     style="fill:#f3744b"
     sodipodi:ry="5.3870001"
     sodipodi:rx="5.3870001"
     sodipodi:cy="171.851"
     sodipodi:cx="447.16199"
     cx="447.16199"
     cy="171.851"
     r="5.3870001"
     id="circle143"
     transform="translate(-6.0206351,-3.848519e-6)" /></svg>