<?xml version="1.0" encoding="utf-8"?>
<!-- Generator: Adobe Illustrator 16.0.0, SVG Export Plug-In . SVG Version: 6.00 Build 0)  -->
<!DOCTYPE svg PUBLIC "-//W3C//DTD SVG 1.1//EN" "http://www.w3.org/Graphics/SVG/1.1/DTD/svg11.dtd">
<svg version="1.1" id="Layer_1" xmlns="http://www.w3.org/2000/svg" xmlns:xlink="http://www.w3.org/1999/xlink" x="0px" y="0px"
	 width="1281.999px" height="401.001px" viewBox="0 0 1281.999 401.001" enable-background="new 0 0 1281.999 401.001"
	 xml:space="preserve">
<rect x="-1" fill="#D3EDED" width="1283.999" height="247.284"/>
<polygon fill="#B3D9D6" points="788.942,247.112 971.584,131.304 971.584,131.304 1154.226,247.11 "/>
<path fill="#FFFFFF" d="M383.407,139.948L383.407,139.948c2.73,0,4.943-2.212,4.943-4.943v0.294v0.282h0.006
	c-0.002-0.092-0.006-0.186-0.006-0.282c0-4.703,3.812-8.517,8.517-8.517h13.528c2.73,0,4.941-2.211,4.941-4.942h-0.008
	c0-4.703,3.814-8.515,8.518-8.515c0.002,0,0.002,0,0.004,0l0,0h21.27c4.706,0,8.519,3.812,8.519,8.515v-0.562
	c0,2.729,2.212,4.941,4.942,4.941v0.002c4.703,0,8.517,3.812,8.517,8.516s-3.813,8.519-8.517,8.519h-15.284
	c-2.729,0-4.942,2.212-4.942,4.942h0.014c0,4.701-3.814,8.517-8.518,8.517h-0.001l0,0h-24.104v-0.077
	c-0.257,0.051-0.52,0.077-0.791,0.077c-2.326,0-4.211-1.886-4.211-4.21h-0.001c0-2.186-1.687-3.971-3.829-4.136h-13.506
	c-2.324,0-4.21-1.885-4.21-4.21C379.197,141.833,381.083,139.948,383.407,139.948z"/>
<polygon fill="#B3D9D6" points="416.791,247.112 617.388,124.38 617.388,124.38 817.985,247.112 "/>
<path fill="#A3B07F" d="M798.741,115.832c-8.584-5.759-18.916-9.118-30.029-9.118c-8.459,0-16.465,1.95-23.594,5.42l0,0
	l-0.004,0.002c-1.604,0.779-3.156,1.638-4.67,2.566l-240.798,132.41l537.833-0.001L798.741,115.832z"/>
<polygon fill="#B3D9D6" points="38.314,247.113 213.363,133.452 213.363,133.452 388.407,247.11 "/>
<path fill="#A3B07F" d="M63.277,86.608h-0.004C47.27,69.333,24.399,58.513-1,58.492v188.622l235.814,0.001L63.277,86.608z"/>
<path fill="#FFFFFF" d="M197.824,111.073L197.824,111.073c-2.729,0-4.943-2.212-4.943-4.943v0.294v0.282h-0.006
	c0.002-0.092,0.006-0.186,0.006-0.282c0-4.703-3.812-8.517-8.517-8.517h-13.528c-2.73,0-4.942-2.211-4.942-4.942h0.008
	c0-4.703-3.814-8.515-8.517-8.515c-0.002,0-0.003,0-0.005,0l0,0h-21.27c-4.706,0-8.518,3.812-8.518,8.515v-0.562
	c0,2.729-2.212,4.941-4.942,4.941v0.002c-4.704,0-8.517,3.812-8.517,8.516s3.813,8.519,8.517,8.519h15.284
	c2.729,0,4.943,2.212,4.943,4.942h-0.014c0,4.701,3.814,8.517,8.517,8.517h0.001l0,0h24.104v-0.077
	c0.257,0.051,0.52,0.077,0.791,0.077c2.327,0,4.211-1.886,4.211-4.21h0.001c0-2.186,1.687-3.971,3.83-4.136h13.505
	c2.325,0,4.21-1.885,4.21-4.21C202.034,112.958,200.149,111.073,197.824,111.073z"/>
<path fill="#FFFFFF" d="M1128.97,71.42v-0.002c4.708,0,8.525-3.817,8.525-8.524v0.504v0.49h0.014
	c-0.005-0.164-0.014-0.326-0.014-0.49c0-8.113,6.577-14.693,14.693-14.693h23.338c4.709,0,8.525-3.816,8.525-8.525h-0.015
	c0-8.114,6.579-14.691,14.693-14.691c0.004,0,0.006,0,0.008,0l0,0h36.694c8.115,0,14.691,6.577,14.691,14.691V39.21
	c0,4.707,3.818,8.523,8.525,8.523v0.002c8.117,0,14.694,6.58,14.694,14.693c0,8.116-6.577,14.695-14.694,14.695h-26.365
	c-4.707,0-8.525,3.813-8.525,8.524h0.023c0,8.114-6.578,14.692-14.695,14.692l0,0l0,0h-41.584v-0.133
	c-0.442,0.086-0.898,0.133-1.363,0.133c-4.013,0-7.266-3.252-7.266-7.262l0,0c0-3.77-2.911-6.848-6.605-7.135h-23.299
	c-4.012,0-7.262-3.25-7.262-7.262S1124.958,71.42,1128.97,71.42z"/>
<path fill="#A3B07F" d="M1282.927,58.491c-25.873,0-49.126,11.205-65.179,29.027l-170.563,159.594l235.814,0.001V58.492
	C1282.975,58.492,1282.951,58.491,1282.927,58.491z"/>
<path fill="#FFFFFF" d="M758.939,77.556c0-7.329-5.812-13.297-13.076-13.549c-2.805-0.089-5.055-2.383-5.055-5.207h-0.002
	c0-2.922-2.365-5.287-5.287-5.287c-0.23,0-0.568,0.012-0.994,0.039v-0.039h-11.867c-6.807,0-12.324-5.519-12.324-12.329h-0.006
	c0-2.921-2.367-5.288-5.289-5.288h-44.996c-5.34,0-9.67,4.328-9.67,9.669h-0.004c0,4.391-3.557,7.948-7.943,7.948h-2.697l0,0
	c-2.48,0-4.49,2.009-4.49,4.49v5.062c-0.406,3.758-3.297,6.765-6.996,7.354h-0.074c-5.908,0-10.699,4.791-10.699,10.701
	c0,5.906,4.791,10.699,10.699,10.699l0,0c3.43,0,6.209,2.783,6.209,6.208v-0.706c0,5.912,4.789,10.703,10.701,10.703h48.885l0,0
	c0.002,0,0.004,0,0.004,0c5.908,0,10.701-4.791,10.701-10.703h-0.01c0-3.426,2.779-6.206,6.207-6.206h34.812v-0.008
	C753.027,90.946,758.939,84.941,758.939,77.556z"/>
<path fill="#BABC84" d="M503.909,247.113L390.013,140.542h-0.003c-12.069-13.027-29.319-21.185-48.479-21.185
	c-19.494,0-37.013,8.444-49.108,21.869L179.259,247.112L503.909,247.113z"/>
<rect x="-1" y="247.112" fill="#C8CD93" width="1283.999" height="153.889"/>
<g>
	<rect x="862.493" y="228.888" fill="#F7F4CE" width="47.418" height="33.554"/>
	<rect x="885.526" y="242.05" fill="#E3AE68" width="4.491" height="5.932"/>
	<rect x="862.493" y="215.069" fill="#C85752" width="47.418" height="16.625"/>
	<rect x="893.833" y="207.85" fill="#EC8776" width="5.45" height="13.761"/>
	<g>
		<path fill="#B1BCC1" d="M905.052,166.106c0-1.566-1.271-2.834-2.838-2.834c-1.565,0-2.835,1.268-2.835,2.834"/>
		<path fill="#B1BCC1" d="M899.379,178.517c0,1.566,1.27,2.836,2.835,2.836c1.568,0,2.838-1.27,2.838-2.836"/>
		<path fill="#B1BCC1" d="M893.518,189.541c0,1.564,1.268,2.835,2.834,2.835s2.835-1.271,2.835-2.835"/>
		<path fill="#B1BCC1" d="M899.187,180.62c0-1.566-1.269-2.834-2.835-2.834s-2.834,1.268-2.834,2.834"/>
		<path fill="#B1BCC1" d="M899.411,175.817c0,1.136-0.919,2.055-2.053,2.055h3.659v-2.055H899.411z"/>
		<path fill="#B1BCC1" d="M899.184,183.409c0-1.135,0.919-2.051,2.051-2.051h-3.661v2.051H899.184z"/>
		<rect x="900.961" y="174.456" fill="#B1BCC1" width="4.091" height="2.391"/>
		<rect x="899.379" y="166.106" fill="#B1BCC1" width="5.673" height="12.41"/>
		<rect x="893.518" y="180.62" fill="#B1BCC1" width="5.669" height="8.921"/>
		<rect x="896.288" y="177.786" fill="#B1BCC1" width="5.926" height="3.566"/>
		<path fill="#B1BCC1" d="M893.518,196.629c0-1.58,1.281-2.868,2.865-2.868s2.869,1.288,2.869,2.868
			c0,1.584-1.285,2.867-2.869,2.867S893.518,198.213,893.518,196.629z"/>
		<circle fill="#B1BCC1" cx="896.352" cy="202.32" r="1.605"/>
	</g>
</g>
<g>
	<g>
		
			<rect x="33.629" y="236.348" transform="matrix(-0.5643 -0.8256 0.8256 -0.5643 -155.7361 423.8294)" fill="#D88166" width="0.677" height="33.321"/>
		<rect x="37.722" y="261.169" fill="#D88166" width="8.86" height="11.461"/>
		<rect x="28.86" y="264.642" fill="#D88166" width="12.224" height="7.988"/>
		<rect x="20" y="268.638" fill="#D88166" width="10.808" height="3.992"/>
		<rect x="33.291" y="253.382" fill="#D88166" width="0.678" height="12.084"/>
		<rect x="25.086" y="258.913" fill="#D88166" width="0.677" height="11.088"/>
		<rect x="41.662" y="247.64" fill="#D88166" width="0.677" height="14.539"/>
	</g>
	<rect x="46.583" y="158.274" fill="#E3AE68" width="69.876" height="114.355"/>
	<g>
		<rect x="62.707" y="235.341" fill="#EBF7FC" width="5.345" height="9.639"/>
		<rect x="78.979" y="235.341" fill="#EBF7FC" width="5.343" height="9.639"/>
		<rect x="95.25" y="235.341" fill="#EBF7FC" width="5.344" height="9.639"/>
	</g>
	<g>
		<rect x="62.707" y="204.138" fill="#EBF7FC" width="5.345" height="9.637"/>
		<rect x="78.979" y="204.138" fill="#EBF7FC" width="5.343" height="9.637"/>
		<rect x="95.25" y="204.138" fill="#EBF7FC" width="5.344" height="9.637"/>
	</g>
	<g>
		<rect x="62.707" y="172.934" fill="#EBF7FC" width="5.345" height="9.638"/>
		<rect x="78.979" y="172.934" fill="#EBF7FC" width="5.343" height="9.638"/>
		<rect x="95.25" y="172.934" fill="#EBF7FC" width="5.344" height="9.638"/>
	</g>
	<polygon fill="#D88166" points="23.342,224.593 46.604,224.593 46.604,201.329 23.342,224.593 	"/>
	<rect x="46.583" y="150.562" fill="#C85752" width="69.876" height="7.713"/>
</g>
<g>
	<rect x="685.487" y="237.755" fill="#E3AE68" width="51.227" height="35.525"/>
	<rect x="685.487" y="177.731" fill="#E3AE68" width="51.227" height="51.283"/>
	<g>
		
			<rect x="745.771" y="246.23" transform="matrix(0.5687 -0.8225 0.8225 0.5687 109.1841 725.0989)" fill="#D88166" width="0.496" height="24.412"/>
		<rect x="736.776" y="264.413" fill="#D88166" width="6.492" height="8.399"/>
		<rect x="740.805" y="266.96" fill="#D88166" width="8.956" height="5.853"/>
		<rect x="748.335" y="269.886" fill="#D88166" width="7.919" height="2.927"/>
		<rect x="746.02" y="258.71" fill="#D88166" width="0.496" height="8.854"/>
		<rect x="752.031" y="262.763" fill="#D88166" width="0.496" height="8.121"/>
		<rect x="739.886" y="254.501" fill="#D88166" width="0.497" height="10.652"/>
	</g>
	<rect x="685.534" y="174.905" fill="#C85752" width="51.197" height="5.652"/>
	<g>
		<rect x="724.218" y="208.853" fill="#F7F4CE" width="3.994" height="9.082"/>
		<rect x="709.504" y="208.853" fill="#F7F4CE" width="3.995" height="9.082"/>
		<rect x="694.789" y="208.853" fill="#F7F4CE" width="3.996" height="9.082"/>
	</g>
	<g>
		<rect x="724.218" y="189.345" fill="#F7F4CE" width="3.994" height="9.084"/>
		<rect x="709.504" y="189.345" fill="#F7F4CE" width="3.995" height="9.084"/>
		<rect x="694.789" y="189.345" fill="#F7F4CE" width="3.996" height="9.084"/>
	</g>
	<rect x="699.032" y="247.901" fill="#F7F4CE" width="25.643" height="18.396"/>
	<g>
		<rect x="705.252" y="254.954" fill="#B35F50" width="13.202" height="6.963"/>
		<g>
			<path fill="#FFFFFF" d="M706.783,257.754c0,0.084,0.015,0.157,0.047,0.21c0.03,0.057,0.073,0.104,0.123,0.137
				c0.056,0.039,0.115,0.066,0.187,0.092c0.068,0.021,0.141,0.043,0.216,0.064c0.102,0.025,0.199,0.057,0.297,0.09
				c0.098,0.035,0.186,0.08,0.263,0.138c0.076,0.058,0.139,0.135,0.185,0.229c0.047,0.094,0.071,0.213,0.071,0.361
				c0,0.15-0.026,0.278-0.078,0.39c-0.05,0.106-0.121,0.196-0.21,0.269c-0.091,0.07-0.197,0.122-0.32,0.154
				c-0.123,0.035-0.261,0.051-0.406,0.051c-0.069,0-0.136-0.006-0.209-0.014c-0.07-0.01-0.138-0.021-0.202-0.039
				c-0.063-0.014-0.123-0.032-0.175-0.051c-0.052-0.021-0.093-0.041-0.121-0.062v-0.321c0.045,0.024,0.097,0.05,0.157,0.071
				c0.058,0.021,0.118,0.037,0.182,0.055c0.062,0.014,0.124,0.027,0.188,0.035c0.064,0.01,0.123,0.014,0.181,0.014
				c0.09,0,0.177-0.008,0.259-0.025c0.084-0.02,0.155-0.047,0.218-0.088c0.062-0.041,0.112-0.096,0.149-0.165
				c0.035-0.07,0.055-0.159,0.055-0.265c0-0.087-0.017-0.158-0.049-0.215c-0.032-0.053-0.076-0.102-0.127-0.137
				c-0.055-0.039-0.116-0.069-0.185-0.093c-0.071-0.023-0.144-0.045-0.219-0.062c-0.102-0.028-0.201-0.056-0.299-0.09
				c-0.097-0.032-0.183-0.075-0.258-0.136c-0.076-0.057-0.138-0.133-0.185-0.223c-0.046-0.092-0.067-0.205-0.067-0.351
				s0.023-0.272,0.071-0.378c0.05-0.105,0.113-0.195,0.196-0.264c0.083-0.069,0.179-0.121,0.286-0.152
				c0.109-0.034,0.224-0.052,0.346-0.052c0.14,0,0.269,0.016,0.389,0.044c0.119,0.029,0.231,0.069,0.33,0.117v0.327
				c-0.108-0.052-0.219-0.093-0.334-0.122c-0.115-0.031-0.237-0.051-0.37-0.051c-0.098,0-0.183,0.012-0.256,0.035
				c-0.072,0.025-0.134,0.058-0.183,0.102c-0.048,0.044-0.083,0.098-0.105,0.16C706.795,257.604,706.783,257.679,706.783,257.754z"
				/>
			<path fill="#FFFFFF" d="M709.451,258.239h1.364v-1.252h0.318v2.898h-0.318v-1.327h-1.364v1.327h-0.318v-2.898h0.318V258.239z"/>
			<path fill="#FFFFFF" d="M714.526,258.438c0,0.218-0.029,0.422-0.085,0.604c-0.058,0.184-0.136,0.344-0.242,0.475
				c-0.107,0.133-0.234,0.238-0.383,0.311c-0.148,0.074-0.315,0.111-0.499,0.111c-0.191,0-0.363-0.037-0.514-0.111
				c-0.149-0.072-0.279-0.178-0.384-0.311c-0.103-0.131-0.184-0.291-0.238-0.475c-0.057-0.182-0.084-0.386-0.084-0.604
				c0-0.223,0.027-0.424,0.088-0.608c0.056-0.183,0.137-0.343,0.242-0.476c0.106-0.133,0.233-0.236,0.382-0.31
				c0.15-0.075,0.318-0.113,0.502-0.113c0.191,0,0.36,0.038,0.51,0.113c0.151,0.073,0.279,0.177,0.383,0.31s0.184,0.293,0.239,0.476
				C714.499,258.015,714.526,258.216,714.526,258.438z M714.211,258.438c0-0.195-0.021-0.369-0.069-0.516
				c-0.045-0.149-0.109-0.273-0.188-0.373c-0.082-0.101-0.177-0.176-0.286-0.227c-0.11-0.049-0.229-0.076-0.355-0.076
				c-0.125,0-0.242,0.027-0.354,0.076c-0.108,0.051-0.204,0.126-0.285,0.227c-0.079,0.1-0.143,0.224-0.19,0.373
				c-0.047,0.146-0.067,0.32-0.067,0.516s0.021,0.367,0.067,0.513c0.048,0.149,0.111,0.274,0.192,0.372
				c0.081,0.102,0.176,0.176,0.287,0.227c0.108,0.051,0.227,0.076,0.355,0.076c0.126,0,0.242-0.025,0.351-0.076
				s0.203-0.125,0.285-0.227c0.079-0.098,0.144-0.223,0.188-0.372C714.189,258.806,714.211,258.634,714.211,258.438z"/>
			<path fill="#FFFFFF" d="M715.829,259.886h-0.317v-2.898h0.721c0.108,0,0.208,0.006,0.3,0.021
				c0.092,0.013,0.176,0.036,0.252,0.065c0.156,0.063,0.274,0.155,0.354,0.28c0.079,0.123,0.119,0.275,0.119,0.454
				c0,0.149-0.025,0.279-0.076,0.392c-0.056,0.111-0.13,0.205-0.229,0.278c-0.101,0.075-0.222,0.133-0.365,0.17
				c-0.145,0.038-0.305,0.058-0.488,0.058c-0.087,0-0.179-0.004-0.27-0.012V259.886z M715.829,258.37
				c0.042,0.006,0.087,0.012,0.135,0.014c0.045,0.002,0.09,0.002,0.131,0.002c0.15,0,0.276-0.012,0.382-0.035
				c0.106-0.027,0.192-0.066,0.258-0.115c0.067-0.049,0.114-0.109,0.145-0.182c0.028-0.07,0.044-0.154,0.044-0.245
				c0-0.113-0.023-0.206-0.072-0.276c-0.049-0.072-0.118-0.127-0.206-0.164c-0.056-0.023-0.122-0.039-0.195-0.051
				c-0.072-0.008-0.155-0.012-0.253-0.012h-0.367V258.37z"/>
		</g>
	</g>
	<rect x="685.487" y="229.079" fill="#D88166" width="7.321" height="19.226"/>
	<rect x="692.809" y="229.079" fill="#F7F4CE" width="7.319" height="19.226"/>
	<rect x="700.128" y="229.079" fill="#D88166" width="7.321" height="19.226"/>
	<rect x="707.449" y="229.079" fill="#F7F4CE" width="7.319" height="19.226"/>
	<rect x="714.769" y="229.079" fill="#D88166" width="7.32" height="19.226"/>
	<rect x="729.407" y="229.079" fill="#D88166" width="7.32" height="19.226"/>
	<rect x="722.089" y="229.079" fill="#F7F4CE" width="7.318" height="19.226"/>
	<path fill="#B35F50" d="M736.714,248.187c0.014,2.02-1.612,3.664-3.629,3.68c-2.019,0.01-3.664-1.612-3.677-3.63"/>
	<path fill="#BDB999" d="M729.401,248.187c0.013,2.02-1.611,3.664-3.629,3.68c-2.02,0.01-3.664-1.612-3.676-3.63"/>
	<path fill="#B35F50" d="M722.087,248.187c0.014,2.02-1.611,3.664-3.629,3.68c-2.017,0.01-3.663-1.612-3.675-3.63"/>
	<path fill="#BDB999" d="M714.775,248.187c0.013,2.02-1.613,3.664-3.629,3.68c-2.017,0.01-3.663-1.612-3.676-3.63"/>
	<path fill="#B35F50" d="M707.464,248.187c0.012,2.02-1.613,3.664-3.631,3.68c-2.016,0.01-3.663-1.612-3.675-3.63"/>
	<path fill="#BDB999" d="M700.149,248.187c0.013,2.02-1.611,3.664-3.628,3.68c-2.02,0.01-3.665-1.612-3.679-3.63"/>
	<path fill="#B35F50" d="M692.837,248.187c0.014,2.02-1.61,3.664-3.628,3.68c-2.019,0.01-3.664-1.612-3.679-3.63"/>
</g>
<g>
	<rect x="1229.543" y="198.142" fill="#E3AE68" width="33.703" height="67.418"/>
	<polygon fill="#C85752" points="1266.29,198.275 1226.193,198.275 1246.241,188.501 1246.241,188.501 	"/>
	<rect x="1244.983" y="202.687" fill="#F7F4CE" width="2.825" height="7.619"/>
	<rect x="1244.983" y="218.329" fill="#F7F4CE" width="2.825" height="7.619"/>
	<rect x="1244.983" y="233.971" fill="#F7F4CE" width="2.825" height="7.618"/>
	<rect x="1244.983" y="249.614" fill="#F7F4CE" width="2.825" height="7.619"/>
</g>
<g>
	<rect x="780.9" y="241.824" fill="#D58065" width="4.831" height="50.685"/>
	<circle fill="#809958" cx="783.316" cy="231.166" r="14.956"/>
</g>
<g>
	<rect x="986.341" y="235.058" fill="#B65E27" width="7.313" height="34.613"/>
	<polygon fill="#6F8839" points="1003.069,249.055 976.925,249.055 989.997,189.529 989.997,189.529 	"/>
</g>
<g>
	<rect x="1018.469" y="248.6" fill="#954422" width="4.014" height="45.752"/>
	<g>
		<circle fill="#788F5A" cx="1020.474" cy="239.286" r="11.523"/>
		<path fill="#788F5A" d="M1031.997,209.292c0,6.364-5.158,11.522-11.521,11.522c-6.365,0-11.525-5.158-11.525-11.522
			c0-6.367,5.16-11.523,11.525-11.523C1026.839,197.769,1031.997,202.925,1031.997,209.292z"/>
		<rect x="1008.951" y="207.836" fill="#788F5A" width="23.046" height="31.45"/>
	</g>
</g>
<g>
	<rect x="814.356" y="248.6" fill="#954422" width="4.013" height="45.752"/>
	<g>
		<path fill="#788F5A" d="M827.885,239.286c0,6.363-5.158,11.523-11.523,11.523c-6.361,0-11.523-5.16-11.523-11.523
			c0-6.365,5.162-11.525,11.523-11.525C822.727,227.761,827.885,232.921,827.885,239.286z"/>
		<path fill="#788F5A" d="M827.885,209.292c0,6.364-5.158,11.522-11.523,11.522c-6.361,0-11.523-5.158-11.523-11.522
			c0-6.367,5.162-11.523,11.523-11.523C822.727,197.769,827.885,202.925,827.885,209.292z"/>
		<rect x="804.838" y="207.836" fill="#788F5A" width="23.047" height="31.45"/>
	</g>
</g>
<g>
	<rect x="661.4" y="227.526" fill="#D58065" width="3.447" height="36.158"/>
	<circle fill="#809958" cx="663.123" cy="219.923" r="10.669"/>
</g>
<g>
	<rect x="243.573" y="227.526" fill="#D58065" width="3.447" height="36.158"/>
	<circle fill="#809958" cx="245.295" cy="219.923" r="10.669"/>
</g>
<g>
	<rect x="521.17" y="142.766" fill="#D6B62C" width="0.271" height="15.068"/>
	<rect x="528.533" y="142.766" fill="#D6B62C" width="0.271" height="15.068"/>
	<rect x="521.17" y="142.766" fill="#D6B62C" width="95.643" height="1.021"/>
	
		<rect x="590.543" y="139.49" transform="matrix(-0.5613 -0.8276 0.8276 -0.5613 803.4045 714.4383)" fill="#D6B62C" width="1.02" height="9.599"/>
	
		<rect x="590.592" y="139.49" transform="matrix(0.5613 -0.8276 0.8276 0.5613 139.8935 552.4952)" fill="#D6B62C" width="1.02" height="9.599"/>
	
		<rect x="585.489" y="134.281" transform="matrix(0.8286 -0.5598 0.5598 0.8286 22.5586 351.8555)" fill="#5D878F" width="1.021" height="9.599"/>
	
		<rect x="585.489" y="134.33" transform="matrix(0.8286 0.5598 -0.5598 0.8286 178.2913 -304.1841)" fill="#5D878F" width="1.021" height="9.598"/>
	
		<rect x="607.282" y="134.281" transform="matrix(0.8283 -0.5602 0.5602 0.8283 26.4135 364.3659)" fill="#D6B62C" width="1.02" height="9.599"/>
	
		<rect x="601.056" y="134.281" transform="matrix(0.8283 -0.5602 0.5602 0.8283 25.3448 360.8783)" fill="#D6B62C" width="1.02" height="9.599"/>
	
		<rect x="607.282" y="134.33" transform="matrix(0.8283 0.5602 -0.5602 0.8283 182.2697 -316.611)" fill="#D6B62C" width="1.02" height="9.598"/>
	
		<rect x="601.572" y="134.329" transform="matrix(0.828 0.5607 -0.5607 0.828 181.5325 -313.6378)" fill="#D6B62C" width="1.019" height="9.599"/>
	
		<rect x="613.508" y="134.281" transform="matrix(0.8283 -0.5602 0.5602 0.8283 27.4822 367.8539)" fill="#D6B62C" width="1.02" height="9.6"/>
	
		<rect x="613.508" y="134.329" transform="matrix(0.8283 0.5602 -0.5602 0.8283 183.3384 -320.0989)" fill="#D6B62C" width="1.02" height="9.598"/>
	<rect x="582.523" y="125.293" fill="#D6B62C" width="16.432" height="18.519"/>
	<rect x="616.653" y="140.687" fill="#D6B62C" width="18.517" height="3.104"/>
	<rect x="616.653" y="137.576" fill="#3C4253" width="18.517" height="3.104"/>
	<rect x="616.653" y="134.469" fill="#D6B62C" width="18.517" height="3.104"/>
	<rect x="616.653" y="131.36" fill="#3C4253" width="18.517" height="3.104"/>
	<path fill="#D6B62C" d="M617.388,135.575v-1.023h-90.413v0.043l-0.067-0.043l-5.737,8.191l0.859,0.562l1.318-1.883
		c0.313,1.141,1.356,1.98,2.595,1.98c0.603,0,1.156-0.199,1.604-0.533l0.767,0.521l1.976-2.921l1.942,2.87l0.846-0.571l-2.172-3.208
		l2.498-3.688l2.188,3.232l-2.514,3.71l0.844,0.575l2.284-3.377l2.254,3.326l0.844-0.571l-2.48-3.663l2.391-3.531h0.212l2.393,3.531
		l-2.515,3.71l0.845,0.575l2.286-3.377l2.251,3.326l0.847-0.571l-2.483-3.663l2.393-3.531h0.211l2.391,3.531l-2.511,3.71
		l0.843,0.575l2.284-3.377l2.251,3.326l0.845-0.571l-2.479-3.663l2.39-3.531h0.213l2.393,3.531l-2.517,3.71l0.847,0.575l2.284-3.377
		l2.253,3.326l0.845-0.571l-2.481-3.663l2.392-3.531h0.211l2.393,3.531l-2.514,3.71l0.845,0.575l2.284-3.377l2.251,3.326
		l0.846-0.571l-2.481-3.663l2.392-3.531h0.212l2.393,3.531l-2.515,3.71l0.846,0.575l2.283-3.377l2.252,3.326l0.844-0.571
		l-2.479-3.663l2.39-3.531h0.214l2.391,3.531l-2.515,3.71l0.846,0.575l2.287-3.377l2.251,3.326l0.844-0.571l-2.48-3.663l2.393-3.531
		h0.209l2.392,3.531l-2.513,3.71l0.844,0.575l2.285-3.377l2.253,3.326l0.845-0.571l-2.481-3.663l2.391-3.531H617.388z
		 M525.942,142.532c-1.005,0-1.824-0.818-1.824-1.822c0-0.168,0.024-0.326,0.064-0.48l0.71-1.011c0.295-0.21,0.657-0.335,1.05-0.335
		c1.008,0,1.827,0.82,1.827,1.826C527.77,141.714,526.95,142.532,525.942,142.532z M528.599,141.148
		c0.025-0.146,0.039-0.291,0.039-0.438c0-1.486-1.208-2.695-2.695-2.695c-0.071,0-0.144,0.005-0.215,0.01l1.477-2.109l2.469,3.646
		L528.599,141.148z M528.205,135.575h4.168l-2.085,3.078L528.205,135.575z M536.204,138.196l-1.774-2.621h3.551L536.204,138.196z
		 M542.433,138.196l-1.776-2.621h3.551L542.433,138.196z M548.657,138.196l-1.775-2.621h3.551L548.657,138.196z M554.884,138.196
		l-1.775-2.621h3.553L554.884,138.196z M561.11,138.196l-1.775-2.621h3.551L561.11,138.196z M567.336,138.196l-1.776-2.621h3.552
		L567.336,138.196z M573.564,138.196l-1.776-2.621h3.55L573.564,138.196z M579.788,138.196l-1.775-2.621h3.552L579.788,138.196z"/>
	<rect x="589.601" y="132.351" fill="#3C4253" width="2.276" height="4.931"/>
	<circle fill="#D6B62C" cx="522.421" cy="157.653" r="1.435"/>
	<circle fill="#D6B62C" cx="527.565" cy="157.653" r="1.435"/>
	<path fill="#D6B62C" d="M526.749,171.13c-0.137-0.346-0.371-0.65-0.683-0.867c-0.094-0.068-0.193-0.123-0.301-0.174
		c-0.19-0.162-0.308-0.392-0.328-0.639h1.35v-0.997v-0.295h-1.44h-0.188v-8.612h-0.272v8.612h-1.355v1.292h1.184h0.064
		c-0.001,0.158,0.019,0.319,0.061,0.471c0.1,0.355,0.314,0.672,0.612,0.893c0.029,0.023,0.058,0.049,0.089,0.067
		c0.328,0.263,0.483,0.706,0.356,1.136c-0.166,0.566-0.761,0.891-1.327,0.723c-0.567-0.166-0.892-0.76-0.726-1.327
		c0.003-0.01,0.006-0.016,0.01-0.023c0.016-0.028,0.031-0.058,0.041-0.09c0.004-0.012,0.004-0.02,0.007-0.031
		c0.039-0.192-0.073-0.384-0.265-0.442c-0.117-0.035-0.235-0.012-0.327,0.059c-0.063,0.108-0.117,0.232-0.156,0.359
		c-0.005,0.014-0.011,0.028-0.016,0.044c-0.299,1.011,0.279,2.075,1.292,2.374c1.013,0.295,2.076-0.281,2.375-1.295
		C526.93,171.942,526.899,171.511,526.749,171.13z"/>
	<path fill="#F7F4CE" d="M540.76,173.589v24.688h-25.591v61.575h51.179v-86.263H540.76z M524.832,250.009h-1.812v-4.004h1.812
		V250.009z M524.832,237.017h-1.812v-4.002h1.812V237.017z M524.832,224.026h-1.812v-4.004h1.812V224.026z M524.832,211.035h-1.812
		v-4.004h1.812V211.035z M536.146,250.009h-1.814v-4.004h1.814V250.009z M536.146,237.017h-1.814v-4.002h1.814V237.017z
		 M536.146,224.026h-1.814v-4.004h1.814V224.026z M536.146,211.035h-1.814v-4.004h1.814V211.035z M547.458,250.009h-1.812v-4.004
		h1.812V250.009z M547.458,237.017h-1.812v-4.002h1.812V237.017z M547.458,224.026h-1.812v-4.004h1.812V224.026z M547.458,211.035
		h-1.812v-4.004h1.812V211.035z M547.458,198.044h-1.812v-4.006h1.812V198.044z M547.458,185.052h-1.812v-4.002h1.812V185.052z
		 M558.771,250.009h-1.813v-4.004h1.813V250.009z M558.771,237.017h-1.813v-4.002h1.813V237.017z M558.771,224.026h-1.813v-4.004
		h1.813V224.026z M558.771,211.035h-1.813v-4.004h1.813V211.035z M558.771,198.044h-1.813v-4.006h1.813V198.044z M558.771,185.052
		h-1.813v-4.002h1.813V185.052z"/>
	<g>
		<polygon fill="#3C4253" points="529,157.653 526.331,157.653 529,161.049 		"/>
		<polygon fill="#F5C429" points="523.129,157.653 526.935,162.493 529,161.098 529,161.068 526.313,157.653 		"/>
		<polygon fill="#271E19" points="526.331,157.653 526.313,157.653 529,161.068 529,161.049 		"/>
		<polygon fill="#3C4253" points="520.986,157.653 520.986,159.004 524.502,163.471 524.996,163.802 526.923,162.501 
			523.111,157.653 		"/>
		<polygon fill="#271E19" points="523.111,157.653 526.923,162.501 526.935,162.493 523.129,157.653 		"/>
		<polygon fill="#F5C429" points="520.986,161.098 524.465,163.447 520.986,159.024 		"/>
		<polygon fill="#271E19" points="520.986,159.024 524.465,163.447 524.502,163.471 520.986,159.004 		"/>
	</g>
	<polygon fill="none" points="594.558,186.595 594.558,183.116 591.987,184.857 	"/>
	<polygon fill="none" points="594.558,233.431 594.558,229.949 591.987,231.688 	"/>
	<polygon fill="none" points="594.558,239.284 594.558,235.8 591.987,237.543 	"/>
	<polygon fill="none" points="594.558,250.991 594.558,247.51 591.987,249.249 	"/>
	<polygon fill="none" points="594.558,256.843 594.558,253.364 591.987,255.106 	"/>
	<polygon fill="none" points="591.076,242.781 594.492,240.47 591.076,238.159 587.662,240.47 	"/>
	<polygon fill="none" points="591.076,248.634 594.492,246.323 591.076,244.013 587.662,246.323 	"/>
	<polygon fill="none" points="591.076,236.927 594.492,234.614 591.076,232.305 587.662,234.614 	"/>
	<polygon fill="none" points="594.558,227.574 594.558,224.093 591.987,225.833 	"/>
	<polygon fill="none" points="594.558,192.452 594.558,188.97 591.987,190.708 	"/>
	<polygon fill="none" points="594.558,204.159 594.558,200.677 591.987,202.417 	"/>
	<polygon fill="none" points="594.558,198.305 594.558,194.823 591.987,196.563 	"/>
	<polygon fill="none" points="594.558,210.013 594.558,206.531 591.987,208.272 	"/>
	<polygon fill="none" points="594.558,221.722 594.558,218.241 591.987,219.979 	"/>
	<polygon fill="none" points="594.558,215.866 594.558,212.388 591.987,214.127 	"/>
	<polygon fill="none" points="594.558,245.137 594.558,241.655 591.987,243.396 	"/>
	<polygon fill="none" points="591.076,156.202 587.662,158.513 591.076,160.823 594.492,158.513 	"/>
	<polygon fill="none" points="591.076,172.532 594.492,170.221 591.076,167.909 587.662,170.221 	"/>
	<polygon fill="none" points="591.076,231.071 594.492,228.762 591.076,226.45 587.662,228.762 	"/>
	<polygon fill="none" points="591.076,166.679 594.492,164.366 591.076,162.056 587.662,164.366 	"/>
	<polygon fill="none" points="591.076,255.72 587.364,258.233 587.364,258.231 587.364,259.854 594.558,259.854 594.558,258.075 	
		"/>
	<polygon fill="none" points="591.076,184.241 594.492,181.931 591.076,179.618 587.662,181.931 	"/>
	<polygon fill="none" points="591.076,249.865 587.662,252.178 591.076,254.487 594.492,252.178 	"/>
	<polygon fill="none" points="591.076,178.386 594.492,176.074 591.076,173.765 587.662,176.074 	"/>
	<polygon fill="none" points="591.076,219.364 594.492,217.054 591.076,214.741 587.662,217.054 	"/>
	<polygon fill="none" points="591.076,207.655 594.492,205.345 591.076,203.033 587.662,205.345 	"/>
	<polygon fill="none" points="591.076,225.22 594.492,222.907 591.076,220.596 587.662,222.907 	"/>
	<polygon fill="none" points="591.076,195.947 594.492,193.638 591.076,191.325 587.662,193.638 	"/>
	<polygon fill="none" points="591.076,201.802 594.492,199.49 591.076,197.18 587.662,199.49 	"/>
	<polygon fill="none" points="591.076,190.095 594.492,187.782 591.076,185.472 587.662,187.782 	"/>
	<polygon fill="none" points="591.076,213.511 594.492,211.2 591.076,208.89 587.662,211.2 	"/>
	<polygon fill="none" points="587.364,206.374 587.364,210.17 590.167,208.272 	"/>
	<polygon fill="none" points="587.364,212.228 587.364,216.024 590.167,214.127 	"/>
	<polygon fill="none" points="587.364,218.082 587.364,221.878 590.167,219.979 	"/>
	<polygon fill="none" points="587.364,194.667 587.364,198.462 590.167,196.563 	"/>
	<polygon fill="none" points="587.364,200.521 587.364,204.313 590.167,202.417 	"/>
	<polygon fill="none" points="587.364,223.938 587.364,227.732 590.167,225.833 	"/>
	<polygon fill="none" points="587.364,253.206 587.364,257.001 590.167,255.106 	"/>
	<polygon fill="none" points="587.364,229.79 587.364,233.586 590.167,231.688 	"/>
	<polygon fill="none" points="587.364,188.811 587.364,192.608 590.167,190.708 	"/>
	<polygon fill="none" points="587.364,247.353 587.364,251.149 590.167,249.249 	"/>
	<polygon fill="none" points="587.364,241.497 587.364,245.294 590.167,243.396 	"/>
	<polygon fill="none" points="587.364,235.645 587.364,239.439 590.167,237.543 	"/>
	<polygon fill="none" points="594.558,147.991 591.987,149.731 594.558,151.474 	"/>
	<polygon fill="none" points="594.558,157.327 594.558,153.846 591.987,155.587 	"/>
	<polygon fill="none" points="594.558,163.183 594.558,159.7 591.987,161.442 	"/>
	<polygon fill="none" points="594.558,180.744 594.558,177.259 591.987,179.001 	"/>
	<polygon fill="none" points="591.076,154.97 594.492,152.659 591.076,150.348 587.662,152.659 	"/>
	<polygon fill="none" points="587.364,182.958 587.364,186.755 590.167,184.857 	"/>
	<polygon fill="none" points="594.558,169.035 594.558,165.552 591.987,167.297 	"/>
	<polygon fill="none" points="594.558,174.888 594.558,171.408 591.987,173.149 	"/>
	<polygon fill="none" points="587.364,147.835 587.364,151.63 590.167,149.731 	"/>
	<polygon fill="none" points="587.364,177.104 587.364,180.9 590.167,179.001 	"/>
	<polygon fill="none" points="587.364,165.396 587.364,169.192 590.167,167.297 	"/>
	<polygon fill="none" points="587.364,171.25 587.364,175.046 590.167,173.149 	"/>
	<polygon fill="none" points="587.364,153.688 587.364,157.485 590.167,155.587 	"/>
	<polygon fill="none" points="587.364,159.544 587.364,163.338 590.167,161.442 	"/>
	<path fill="#D6B62C" d="M587.364,258.231v0.002l3.712-2.514l3.481,2.355v1.778h1.021V143.786h-1.021v2.974l-3.481,2.355
		l-3.663-2.481l-0.049,0.073v-3.7h-1.021v116.847h1.021V258.231z M587.662,252.178l3.414-2.312l3.416,2.312l-3.416,2.31
		L587.662,252.178z M594.492,164.366l-3.416,2.312l-3.414-2.312l3.414-2.311L594.492,164.366z M587.662,158.513l3.414-2.311
		l3.416,2.311l-3.416,2.311L587.662,158.513z M594.492,170.221l-3.416,2.312l-3.414-2.312l3.414-2.312L594.492,170.221z
		 M594.492,176.074l-3.416,2.312l-3.414-2.312l3.414-2.31L594.492,176.074z M594.492,181.931l-3.416,2.311l-3.414-2.311l3.414-2.312
		L594.492,181.931z M594.492,187.782l-3.416,2.312l-3.414-2.312l3.414-2.311L594.492,187.782z M594.492,193.638l-3.416,2.31
		l-3.414-2.31l3.414-2.312L594.492,193.638z M594.492,199.49l-3.416,2.312l-3.414-2.312l3.414-2.311L594.492,199.49z
		 M594.492,205.345l-3.416,2.311l-3.414-2.311l3.414-2.312L594.492,205.345z M594.492,211.2l-3.416,2.311l-3.414-2.311l3.414-2.311
		L594.492,211.2z M594.492,217.054l-3.416,2.311l-3.414-2.311l3.414-2.312L594.492,217.054z M594.492,222.907l-3.416,2.312
		l-3.414-2.312l3.414-2.312L594.492,222.907z M594.492,228.762l-3.416,2.31l-3.414-2.31l3.414-2.312L594.492,228.762z
		 M594.492,234.614l-3.416,2.312l-3.414-2.312l3.414-2.31L594.492,234.614z M594.492,240.47l-3.416,2.312l-3.414-2.312l3.414-2.311
		L594.492,240.47z M594.492,246.323l-3.416,2.311l-3.414-2.311l3.414-2.311L594.492,246.323z M594.558,256.843l-2.57-1.736
		l2.57-1.742V256.843z M594.558,250.991l-2.57-1.742l2.57-1.739V250.991z M594.558,245.137l-2.57-1.741l2.57-1.74V245.137z
		 M594.558,239.284l-2.57-1.741l2.57-1.743V239.284z M594.558,233.431l-2.57-1.742l2.57-1.739V233.431z M594.558,227.574
		l-2.57-1.741l2.57-1.74V227.574z M594.558,221.722l-2.57-1.742l2.57-1.738V221.722z M594.558,215.866l-2.57-1.739l2.57-1.739
		V215.866z M594.558,210.013l-2.57-1.74l2.57-1.741V210.013z M594.558,204.159l-2.57-1.742l2.57-1.74V204.159z M594.558,198.305
		l-2.57-1.741l2.57-1.74V198.305z M594.558,192.452l-2.57-1.744l2.57-1.738V192.452z M594.558,186.595l-2.57-1.737l2.57-1.741
		V186.595z M594.558,180.744l-2.57-1.743l2.57-1.742V180.744z M594.558,174.888l-2.57-1.738l2.57-1.741V174.888z M594.558,169.035
		l-2.57-1.738l2.57-1.745V169.035z M594.558,163.183l-2.57-1.74l2.57-1.742V163.183z M594.558,157.327l-2.57-1.74l2.57-1.741
		V157.327z M594.558,147.991v3.482l-2.57-1.742L594.558,147.991z M594.492,152.659l-3.416,2.311l-3.414-2.311l3.414-2.312
		L594.492,152.659z M587.364,147.835l2.803,1.896l-2.803,1.898V147.835z M587.364,153.688l2.803,1.898l-2.803,1.898V153.688z
		 M587.364,159.544l2.803,1.898l-2.803,1.896V159.544z M587.364,165.396l2.803,1.9l-2.803,1.896V165.396z M587.364,171.25
		l2.803,1.899l-2.803,1.896V171.25z M587.364,177.104l2.803,1.896l-2.803,1.899V177.104z M587.364,182.958l2.803,1.899l-2.803,1.897
		V182.958z M587.364,188.811l2.803,1.897l-2.803,1.9V188.811z M587.364,194.667l2.803,1.896l-2.803,1.898V194.667z M587.364,200.521
		l2.803,1.896l-2.803,1.896V200.521z M587.364,206.374l2.803,1.898l-2.803,1.897V206.374z M587.364,212.228l2.803,1.899
		l-2.803,1.897V212.228z M587.364,218.082l2.803,1.897l-2.803,1.898V218.082z M587.364,223.938l2.803,1.895l-2.803,1.899V223.938z
		 M587.364,229.79l2.803,1.898l-2.803,1.897V229.79z M587.364,235.645l2.803,1.898l-2.803,1.896V235.645z M587.364,241.497
		l2.803,1.898l-2.803,1.898V241.497z M587.364,247.353l2.803,1.896l-2.803,1.9V247.353z M587.364,253.206l2.803,1.9l-2.803,1.895
		V253.206z"/>
</g>
<g>
	<rect x="290.318" y="231.888" fill="#E3AE68" width="78.29" height="35.609"/>
	<rect x="303.101" y="241.249" fill="#BC854D" width="21.096" height="15.137"/>
	<rect x="334.728" y="241.249" fill="#BC854D" width="21.096" height="15.137"/>
	<rect x="290.318" y="224.751" fill="#E3AE68" width="6.021" height="15.816"/>
	<rect x="296.34" y="224.751" fill="#F7F4CE" width="6.023" height="15.816"/>
	<rect x="302.363" y="224.751" fill="#E3AE68" width="6.021" height="15.816"/>
	<rect x="308.384" y="224.751" fill="#F7F4CE" width="6.022" height="15.816"/>
	<rect x="314.406" y="224.751" fill="#E3AE68" width="6.024" height="15.816"/>
	<rect x="326.452" y="224.751" fill="#E3AE68" width="6.022" height="15.816"/>
	<rect x="320.43" y="224.751" fill="#F7F4CE" width="6.022" height="15.816"/>
	<path fill="#BC854D" d="M332.462,240.472c0.01,1.66-1.328,3.013-2.988,3.022c-1.659,0.011-3.013-1.325-3.023-2.985"/>
	<path fill="#BDB999" d="M326.445,240.472c0.01,1.66-1.325,3.013-2.987,3.022c-1.659,0.011-3.013-1.325-3.024-2.985"/>
	<path fill="#BC854D" d="M320.43,240.472c0.01,1.66-1.328,3.013-2.987,3.022c-1.66,0.011-3.014-1.325-3.024-2.985"/>
	<path fill="#BDB999" d="M314.413,240.472c0.012,1.66-1.327,3.013-2.987,3.022c-1.659,0.011-3.013-1.325-3.024-2.985"/>
	<path fill="#BC854D" d="M308.396,240.472c0.01,1.66-1.325,3.013-2.985,3.022c-1.66,0.011-3.015-1.325-3.025-2.985"/>
	<path fill="#BDB999" d="M302.381,240.472c0.009,1.66-1.328,3.013-2.987,3.022c-1.661,0.011-3.013-1.325-3.023-2.985"/>
	<path fill="#BC854D" d="M296.364,240.472c0.011,1.66-1.326,3.013-2.986,3.022c-1.66,0.011-3.015-1.325-3.024-2.985"/>
	<rect x="332.474" y="224.751" fill="#F7F4CE" width="6.021" height="15.816"/>
	<rect x="338.495" y="224.751" fill="#E3AE68" width="6.023" height="15.816"/>
	<rect x="344.518" y="224.751" fill="#F7F4CE" width="6.023" height="15.816"/>
	<rect x="350.541" y="224.751" fill="#E3AE68" width="6.021" height="15.816"/>
	<rect x="362.585" y="224.751" fill="#E3AE68" width="6.023" height="15.816"/>
	<rect x="356.562" y="224.751" fill="#F7F4CE" width="6.023" height="15.816"/>
	<path fill="#BC854D" d="M368.594,240.472c0.013,1.66-1.325,3.013-2.984,3.022c-1.661,0.011-3.014-1.325-3.025-2.985"/>
	<path fill="#BDB999" d="M362.577,240.472c0.013,1.66-1.325,3.013-2.984,3.022c-1.66,0.011-3.013-1.325-3.024-2.985"/>
	<path fill="#BC854D" d="M356.562,240.472c0.012,1.66-1.325,3.013-2.984,3.022c-1.66,0.011-3.015-1.325-3.025-2.985"/>
	<path fill="#BDB999" d="M350.545,240.472c0.012,1.66-1.325,3.013-2.984,3.022c-1.661,0.011-3.014-1.325-3.024-2.985"/>
	<path fill="#BC854D" d="M344.529,240.472c0.012,1.66-1.326,3.013-2.985,3.022c-1.66,0.011-3.015-1.325-3.025-2.985"/>
	<path fill="#BDB999" d="M338.513,240.472c0.01,1.66-1.327,3.013-2.985,3.022c-1.66,0.011-3.014-1.325-3.025-2.985"/>
	<rect x="317.323" y="218.066" fill="#E3AE68" width="27.2" height="6.685"/>
	<g>
		<path fill="#FAE27D" d="M324.087,220.747l-0.279,0.172c-0.241-0.319-0.571-0.48-0.986-0.48c-0.332,0-0.609,0.107-0.829,0.322
			c-0.221,0.213-0.33,0.474-0.33,0.781c0,0.197,0.049,0.385,0.15,0.562c0.101,0.176,0.241,0.311,0.418,0.408
			c0.176,0.096,0.374,0.145,0.593,0.145c0.4,0,0.731-0.158,0.984-0.479l0.279,0.187c-0.131,0.193-0.306,0.346-0.528,0.456
			c-0.22,0.107-0.47,0.161-0.752,0.161c-0.431,0-0.792-0.138-1.075-0.412c-0.284-0.275-0.427-0.607-0.427-1.004
			c0-0.264,0.066-0.51,0.199-0.736c0.133-0.225,0.316-0.402,0.55-0.531c0.232-0.127,0.492-0.19,0.781-0.19
			c0.181,0,0.356,0.026,0.524,0.083c0.168,0.055,0.311,0.125,0.428,0.216C323.904,220.496,324.005,220.608,324.087,220.747z"/>
		<path fill="#FAE27D" d="M330.061,220.179v2.732h-0.347v-0.469c-0.146,0.178-0.312,0.314-0.497,0.403
			c-0.183,0.092-0.384,0.136-0.602,0.136c-0.388,0-0.717-0.139-0.992-0.42c-0.273-0.279-0.411-0.623-0.411-1.025
			c0-0.393,0.139-0.73,0.415-1.011c0.276-0.278,0.609-0.418,0.998-0.418c0.225,0,0.427,0.048,0.609,0.142
			c0.181,0.096,0.341,0.241,0.479,0.43v-0.5H330.061z M328.654,220.446c-0.195,0-0.375,0.05-0.542,0.145
			c-0.167,0.098-0.299,0.232-0.395,0.405c-0.099,0.175-0.147,0.357-0.147,0.554c0,0.191,0.048,0.375,0.148,0.551
			c0.098,0.178,0.23,0.312,0.398,0.41c0.166,0.096,0.345,0.146,0.537,0.146s0.373-0.049,0.546-0.145
			c0.172-0.098,0.306-0.229,0.398-0.395c0.091-0.166,0.139-0.352,0.139-0.561c0-0.314-0.105-0.58-0.312-0.791
			C329.217,220.554,328.959,220.446,328.654,220.446z"/>
		<path fill="#FAE27D" d="M334.552,219.122v0.346c-0.129-0.057-0.24-0.084-0.333-0.084c-0.067,0-0.125,0.014-0.169,0.041
			c-0.045,0.029-0.074,0.059-0.086,0.096c-0.011,0.035-0.017,0.132-0.017,0.286v0.372h0.571v0.302h-0.571l-0.002,2.431h-0.352
			v-2.431h-0.359v-0.302h0.359v-0.429c0-0.196,0.018-0.337,0.054-0.419c0.037-0.085,0.097-0.152,0.183-0.203
			c0.086-0.049,0.19-0.076,0.313-0.076C334.255,219.052,334.393,219.077,334.552,219.122z"/>
		<path fill="#FAE27D" d="M339.917,222.004l0.296,0.158c-0.096,0.188-0.21,0.341-0.336,0.46c-0.129,0.117-0.271,0.206-0.431,0.27
			c-0.159,0.062-0.341,0.09-0.542,0.09c-0.446,0-0.793-0.146-1.046-0.438c-0.251-0.29-0.377-0.622-0.377-0.989
			c0-0.348,0.105-0.658,0.319-0.928c0.27-0.346,0.633-0.519,1.084-0.519c0.466,0,0.839,0.177,1.118,0.53
			c0.198,0.251,0.298,0.562,0.301,0.934h-2.459c0.006,0.32,0.107,0.579,0.304,0.781c0.196,0.202,0.438,0.305,0.727,0.305
			c0.14,0,0.273-0.023,0.407-0.072c0.13-0.048,0.245-0.113,0.335-0.191C339.711,222.312,339.81,222.184,339.917,222.004z
			 M339.917,221.27c-0.045-0.19-0.114-0.339-0.204-0.448c-0.091-0.115-0.209-0.203-0.357-0.275
			c-0.147-0.066-0.303-0.102-0.466-0.102c-0.267,0-0.497,0.085-0.69,0.26c-0.141,0.125-0.249,0.314-0.321,0.565H339.917z"/>
	</g>
</g>
<g>
	<path fill="#BD772E" d="M648.672,284.456c-0.219,0.221-0.576,0.221-0.795,0l0,0c-0.221-0.221-0.221-0.577,0-0.795l7.594-7.596
		c0.22-0.219,0.576-0.219,0.796,0l0,0c0.22,0.221,0.22,0.576,0,0.797L648.672,284.456z"/>
	<path fill="#BD772E" d="M633.47,295.581c-1.305,0-2.366-1.061-2.366-2.365V277.57c0-1.306,1.062-2.367,2.366-2.367l0,0
		c1.308,0,2.367,1.062,2.367,2.367v15.646C635.837,294.521,634.777,295.581,633.47,295.581L633.47,295.581z"/>
	<path fill="#BD772E" d="M613.107,295.581c-1.309,0-2.369-1.061-2.369-2.365V277.57c0-1.306,1.061-2.367,2.369-2.367l0,0
		c1.307,0,2.366,1.062,2.366,2.367v15.646C615.474,294.521,614.414,295.581,613.107,295.581L613.107,295.581z"/>
	<path fill="#C85752" d="M648.686,257.509c-0.033,0-0.068,0.002-0.104,0.002H614.51c-0.034,0-0.068-0.002-0.102-0.002
		c-0.036,0-0.07,0.002-0.104,0.002h-0.161v0.012c-1.321,0.131-2.354,1.246-2.354,2.603h2.354h0.454h31.473h2.625h2.607
		C651.303,258.681,650.132,257.509,648.686,257.509z"/>
	<rect x="629.805" y="257.636" fill="#C85752" width="1.299" height="25.771"/>
	<polygon fill="#C85752" points="650.96,258.819 649.738,259.255 661.9,283.019 663.123,282.577 	"/>
	<polygon fill="#C85752" points="609.668,282.8 610.892,283.237 615.474,259.255 614.251,258.819 	"/>
	<path fill="#C85752" d="M676.679,287.679c4.365,0,7.906,3.537,7.906,7.902c0,0.854-0.136,1.676-0.387,2.447h5.221
		c0-8.907-7.221-16.129-16.126-16.129c-0.235,0-0.469,0.009-0.699,0.019h-60.398c-0.235-0.01-0.467-0.019-0.702-0.019
		c-0.234,0-0.469,0.009-0.699,0.019h-0.923v0.065c-8.145,0.816-14.505,7.686-14.505,16.045h4.681
		c-0.251-0.771-0.385-1.594-0.385-2.447c0-4.365,3.54-7.902,7.906-7.902c4.364,0,7.905,3.537,7.905,7.902
		c0,0.854-0.135,1.676-0.386,2.447h12.531h29.547h11.992c-0.249-0.771-0.385-1.594-0.385-2.447
		C668.773,291.216,672.312,287.679,676.679,287.679z"/>
	<path fill="#373C41" d="M607.568,287.679c-4.366,0-7.906,3.537-7.906,7.902c0,0.854,0.134,1.676,0.385,2.447h9.824h5.217
		c0.251-0.771,0.386-1.594,0.386-2.447C615.474,291.216,611.933,287.679,607.568,287.679z"/>
	<path fill="#373C41" d="M684.198,298.028c0.251-0.771,0.387-1.594,0.387-2.447c0-4.365-3.541-7.902-7.906-7.902
		c-4.367,0-7.905,3.537-7.905,7.902c0,0.854,0.136,1.676,0.385,2.447h4.19H684.198z"/>
	<path fill="#DBF0F2" d="M661.378,281.817c0,0.576-0.466,1.041-1.04,1.041h-3.811c-0.574,0-1.039-0.465-1.039-1.041v-3.115
		c0-0.576,0.465-1.042,1.039-1.042h3.811c0.574,0,1.04,0.466,1.04,1.042V281.817z"/>
	<rect x="659.734" y="281.317" fill="#DBF0F2" width="0.781" height="4.074"/>
	<circle fill="#DBF0F2" cx="660.167" cy="285.831" r="1.211"/>
	<g>
		<path fill="#4F565F" d="M613.921,295.581c0,3.58-2.899,6.48-6.475,6.48c-3.579,0-6.478-2.9-6.478-6.48
			c0-3.574,2.898-6.475,6.478-6.475C611.021,289.106,613.921,292.007,613.921,295.581z"/>
		<circle fill="#DBF0F2" cx="607.445" cy="295.581" r="3.255"/>
	</g>
	<g>
		<path fill="#4F565F" d="M683.155,295.581c0,3.58-2.9,6.48-6.477,6.48c-3.577,0-6.477-2.9-6.477-6.48
			c0-3.574,2.899-6.475,6.477-6.475C680.255,289.106,683.155,292.007,683.155,295.581z"/>
		<circle fill="#DBF0F2" cx="676.677" cy="295.581" r="3.255"/>
	</g>
	<path fill="#DBF0F2" d="M637.021,284.016c0,0.334-0.269,0.604-0.605,0.604h-4.012c-0.337,0-0.608-0.271-0.608-0.604l0,0
		c0-0.337,0.271-0.608,0.608-0.608h4.012C636.753,283.407,637.021,283.679,637.021,284.016L637.021,284.016z"/>
	<path fill="#DBF0F2" d="M616.538,284.016c0,0.334-0.273,0.604-0.609,0.604h-4.014c-0.335,0-0.606-0.271-0.606-0.604l0,0
		c0-0.337,0.271-0.608,0.606-0.608h4.014C616.265,283.407,616.538,283.679,616.538,284.016L616.538,284.016z"/>
</g>
<g>
	<g>
		<path fill="#788F5A" d="M923.503,273.937c0-7.347,5.955-13.301,13.299-13.301c7.345,0,13.299,5.954,13.299,13.301"/>
		<path fill="#788F5A" d="M950.101,273.937c0-7.347,5.953-13.301,13.3-13.301c7.344,0,13.298,5.954,13.298,13.301"/>
		<path fill="#788F5A" d="M976.698,273.937c0-7.347,5.954-13.301,13.299-13.301s13.299,5.954,13.299,13.301"/>
	</g>
	<g>
		<path fill="#F1F9FD" d="M936.458,185.743c0,1.113-0.902,2.018-2.02,2.018c-1.115,0-2.019-0.904-2.019-2.018
			c0-1.117,0.903-2.021,2.019-2.021C935.556,183.722,936.458,184.626,936.458,185.743z"/>
		<rect x="961.866" y="181.782" fill="#645754" width="1.534" height="80.139"/>
		<path fill="#645754" d="M963.4,181.782h-1.534c0-7.35-5.98-13.329-13.33-13.329c-7.352,0-13.33,5.979-13.33,13.329h-1.534
			c0-8.197,6.669-14.864,14.864-14.864S963.4,173.585,963.4,181.782z"/>
		<polygon fill="#645754" points="944.169,186.384 924.71,186.384 934.438,181.062 934.438,181.062 		"/>
	</g>
</g>
<g>
	<rect x="170.701" y="219.128" fill="#F7F4CE" width="69.042" height="46.703"/>
	<rect x="180.667" y="226.409" fill="#E3AE68" width="3.111" height="8.38"/>
	<rect x="195.07" y="226.409" fill="#E3AE68" width="3.11" height="8.38"/>
	<rect x="209.472" y="226.409" fill="#E3AE68" width="3.109" height="8.38"/>
	<rect x="223.875" y="226.409" fill="#E3AE68" width="3.109" height="8.38"/>
	<rect x="180.667" y="246.199" fill="#E3AE68" width="3.111" height="8.38"/>
	<rect x="195.07" y="246.199" fill="#E3AE68" width="3.11" height="8.38"/>
	<rect x="209.472" y="246.199" fill="#E3AE68" width="3.109" height="8.38"/>
	<rect x="223.875" y="246.199" fill="#E3AE68" width="3.109" height="8.38"/>
	<polygon fill="#C85752" points="243.548,219.452 166.896,219.452 205.222,205.581 205.222,205.581 	"/>
	<circle fill="#EBF7FB" cx="205.392" cy="212.494" r="2.692"/>
</g>
<g>
	<g>
		<path fill="#788F5A" d="M1060.488,291.364c0-10.019,8.12-18.139,18.137-18.139s18.136,8.12,18.136,18.139"/>
		<path fill="#788F5A" d="M1096.761,291.364c0-10.019,8.121-18.139,18.137-18.139s18.137,8.12,18.137,18.139"/>
		<path fill="#788F5A" d="M1133.034,291.364c0-10.019,8.119-18.139,18.135-18.139c10.018,0,18.138,8.12,18.138,18.139"/>
	</g>
	<g>
		<path fill="#788F5A" d="M1169.307,291.364c0-10.019,8.118-18.139,18.136-18.139c10.016,0,18.135,8.12,18.135,18.139"/>
		<path fill="#788F5A" d="M1205.577,291.364c0-10.019,8.12-18.139,18.137-18.139s18.136,8.12,18.136,18.139"/>
		<path fill="#788F5A" d="M1241.85,291.364c0-10.019,8.12-18.139,18.139-18.139c10.015,0,18.135,8.12,18.135,18.139"/>
	</g>
</g>
<g>
	<circle fill="#F1F9FD" cx="359.602" cy="204.213" r="1.892"/>
	<rect x="385.29" y="200.501" fill="#645754" width="1.436" height="75.061"/>
	<path fill="#645754" d="M386.726,200.501h-1.436c0-6.882-5.601-12.483-12.485-12.483c-6.884,0-12.484,5.602-12.484,12.483h-1.437
		c0-7.676,6.245-13.92,13.921-13.92C380.482,186.581,386.726,192.825,386.726,200.501z"/>
	<polygon fill="#645754" points="368.715,204.812 350.489,204.812 359.603,199.828 359.603,199.828 	"/>
</g>
<g>
	<path fill="#6B7C58" d="M457.08,264.286c0-13.375,10.846-24.221,24.222-24.221s24.22,10.846,24.22,24.221"/>
	<path fill="#6B7C58" d="M505.521,264.286c0-13.375,10.843-24.221,24.22-24.221c13.376,0,24.219,10.846,24.219,24.221"/>
	<path fill="#6B7C58" d="M553.96,264.286c0-13.375,10.845-24.221,24.22-24.221c13.377,0,24.221,10.846,24.221,24.221"/>
</g>
<g>
	<polygon fill="#645754" points="440.432,204.147 419.806,204.147 430.118,199.887 430.118,199.887 	"/>
	<g>
		<rect x="419.806" y="204.147" fill="#645754" width="20.626" height="15.371"/>
		
			<rect x="431.205" y="214.166" transform="matrix(0.6852 -0.7284 0.7284 0.6852 -31.2891 386.6746)" fill="#645754" width="0.881" height="30.73"/>
		
			<rect x="431.656" y="233.916" transform="matrix(0.6841 -0.7294 0.7294 0.6841 -47.8993 395.0396)" fill="#645754" width="0.884" height="37.801"/>
		<polygon fill="#645754" points="413.861,266.491 414.462,267.134 443.005,240.2 442.404,239.556 		"/>
		
			<rect x="428.49" y="214.166" transform="matrix(-0.6852 -0.7284 0.7284 -0.6852 555.6254 699.2269)" fill="#645754" width="0.881" height="30.731"/>
		<polygon fill="#645754" points="440.394,218.69 439.409,218.817 446.153,270.882 447.155,270.882 		"/>
		<polygon fill="#645754" points="420.935,218.817 419.952,218.69 413.193,270.882 414.191,270.882 		"/>
	</g>
</g>
<g>
	<rect x="1048.398" y="183.71" fill="#F7F4CE" width="102.956" height="87.611"/>
	<rect x="1095.776" y="264.497" fill="#E3AE68" width="6.548" height="6.824"/>
	<rect x="1061.861" y="207.751" fill="#E3AE68" width="2.577" height="5.313"/>
	<rect x="1079.812" y="207.751" fill="#E3AE68" width="2.576" height="5.313"/>
	<rect x="1097.762" y="207.751" fill="#E3AE68" width="2.576" height="5.313"/>
	<rect x="1115.712" y="207.751" fill="#E3AE68" width="2.576" height="5.313"/>
	<rect x="1133.662" y="207.751" fill="#E3AE68" width="2.577" height="5.313"/>
	<rect x="1061.861" y="223.472" fill="#E3AE68" width="2.577" height="5.314"/>
	<rect x="1079.812" y="223.472" fill="#E3AE68" width="2.576" height="5.314"/>
	<rect x="1097.762" y="223.472" fill="#E3AE68" width="2.576" height="5.314"/>
	<rect x="1115.712" y="223.472" fill="#E3AE68" width="2.576" height="5.314"/>
	<rect x="1133.662" y="223.472" fill="#E3AE68" width="2.577" height="5.314"/>
	<rect x="1061.861" y="192.016" fill="#E3AE68" width="2.577" height="5.313"/>
	<rect x="1079.812" y="192.016" fill="#E3AE68" width="2.576" height="5.313"/>
	<rect x="1097.762" y="192.016" fill="#E3AE68" width="2.576" height="5.313"/>
	<rect x="1115.712" y="192.016" fill="#E3AE68" width="2.576" height="5.313"/>
	<rect x="1133.662" y="192.016" fill="#E3AE68" width="2.577" height="5.313"/>
	<rect x="1061.861" y="239.19" fill="#E3AE68" width="2.577" height="5.314"/>
	<rect x="1079.812" y="239.19" fill="#E3AE68" width="2.576" height="5.314"/>
	<rect x="1097.762" y="239.19" fill="#E3AE68" width="2.576" height="5.314"/>
	<rect x="1115.712" y="239.19" fill="#E3AE68" width="2.576" height="5.314"/>
	<rect x="1133.662" y="239.19" fill="#E3AE68" width="2.577" height="5.314"/>
	<rect x="1061.861" y="254.91" fill="#E3AE68" width="2.577" height="5.314"/>
	<rect x="1079.812" y="254.91" fill="#E3AE68" width="2.576" height="5.314"/>
	<rect x="1115.712" y="254.91" fill="#E3AE68" width="2.576" height="5.314"/>
	<rect x="1097.762" y="254.91" fill="#E3AE68" width="2.576" height="5.314"/>
	<rect x="1133.662" y="254.91" fill="#E3AE68" width="2.577" height="5.314"/>
	<rect x="1048.398" y="180.177" fill="#E27459" width="102.956" height="3.533"/>
	<g>
		<rect x="1058.563" y="180.177" fill="#C84836" width="1.138" height="3.533"/>
		<rect x="1074.231" y="180.177" fill="#C84836" width="1.138" height="3.533"/>
		<rect x="1089.9" y="180.177" fill="#C84836" width="1.137" height="3.533"/>
		<rect x="1105.568" y="180.177" fill="#C84836" width="1.137" height="3.533"/>
		<rect x="1121.234" y="180.177" fill="#C84836" width="1.139" height="3.533"/>
		<rect x="1136.902" y="180.177" fill="#C84836" width="1.139" height="3.533"/>
	</g>
</g>
<g>
	<rect x="1181.308" y="240.316" fill="#B65E27" width="6.215" height="29.416"/>
	<polygon fill="#6F8839" points="1195.526,252.213 1173.306,252.213 1184.415,201.624 1184.415,201.624 	"/>
</g>
<g>
	<rect x="267.556" y="240.316" fill="#B65E27" width="6.215" height="29.416"/>
	<polygon fill="#6F8839" points="281.773,252.213 259.553,252.213 270.663,201.624 270.663,201.624 	"/>
</g>
<g>
	<circle fill="#F1F9FD" cx="1230.922" cy="205.247" r="1.861"/>
	<rect x="1204.251" y="201.597" fill="#645754" width="1.412" height="73.811"/>
	<path fill="#645754" d="M1204.251,201.597h1.412c0-6.768,5.507-12.275,12.275-12.275c6.77,0,12.278,5.508,12.278,12.275h1.414
		c0-7.547-6.145-13.686-13.692-13.686S1204.251,194.05,1204.251,201.597z"/>
	<polygon fill="#645754" points="1221.962,205.837 1239.883,205.837 1230.923,200.937 1230.923,200.937 	"/>
</g>
</svg>
