<?xml version="1.0" encoding="utf-8"?>
<!-- Generator: Adobe Illustrator 16.0.0, SVG Export Plug-In . SVG Version: 6.00 Build 0)  -->
<!DOCTYPE svg PUBLIC "-//W3C//DTD SVG 1.1//EN" "http://www.w3.org/Graphics/SVG/1.1/DTD/svg11.dtd">
<svg version="1.1" id="Layer_1" xmlns="http://www.w3.org/2000/svg" xmlns:xlink="http://www.w3.org/1999/xlink" x="0px" y="0px"
	 width="1282px" height="401px" viewBox="0 0 1282 401" enable-background="new 0 0 1282 401" xml:space="preserve">
<rect x="-1" fill="#D3EDED" width="1284" height="247.284"/>
<polygon fill="#B3D9D6" points="788.943,247.112 971.583,131.304 971.583,131.304 1154.226,247.11 "/>
<path fill="#FFFFFF" d="M383.407,139.948L383.407,139.948c2.73,0,4.943-2.212,4.943-4.943v0.294v0.282h0.006
	c-0.002-0.092-0.006-0.186-0.006-0.282c0-4.703,3.812-8.517,8.517-8.517h13.527c2.73,0,4.941-2.211,4.941-4.942h-0.008
	c0-4.703,3.813-8.515,8.518-8.515c0.002,0,0.002,0,0.004,0l0,0h21.271c4.706,0,8.519,3.812,8.519,8.515v-0.562
	c0,2.729,2.213,4.941,4.942,4.941v0.002c4.703,0,8.517,3.812,8.517,8.516c0,4.704-3.812,8.519-8.517,8.519h-15.284
	c-2.729,0-4.941,2.212-4.941,4.942h0.014c0,4.701-3.814,8.517-8.518,8.517h-0.002l0,0h-24.104v-0.077
	c-0.257,0.051-0.52,0.077-0.791,0.077c-2.326,0-4.211-1.886-4.211-4.21h-0.001c0-2.186-1.688-3.971-3.829-4.136h-13.506
	c-2.324,0-4.21-1.885-4.21-4.21C379.197,141.833,381.083,139.948,383.407,139.948z"/>
<polygon fill="#B3D9D6" points="416.791,247.112 617.388,124.38 617.388,124.38 817.986,247.112 "/>
<path fill="#A3B07F" d="M798.742,115.832c-8.584-5.759-18.916-9.118-30.029-9.118c-8.459,0-16.465,1.95-23.594,5.42l0,0
	l-0.004,0.002c-1.605,0.779-3.156,1.638-4.67,2.566l-240.798,132.41l537.832-0.001L798.742,115.832z"/>
<polygon fill="#B3D9D6" points="38.314,247.113 213.363,133.452 213.363,133.452 388.407,247.11 "/>
<path fill="#A3B07F" d="M63.277,86.608h-0.004C47.27,69.333,24.399,58.513-1,58.492v188.622l235.814,0.002L63.277,86.608z"/>
<path fill="#FFFFFF" d="M197.824,111.073L197.824,111.073c-2.729,0-4.943-2.212-4.943-4.943v0.294v0.282h-0.006
	c0.002-0.092,0.006-0.186,0.006-0.282c0-4.703-3.812-8.517-8.517-8.517h-13.528c-2.73,0-4.942-2.211-4.942-4.942h0.008
	c0-4.703-3.814-8.515-8.517-8.515c-0.002,0-0.003,0-0.005,0l0,0h-21.27c-4.706,0-8.518,3.812-8.518,8.515v-0.562
	c0,2.729-2.212,4.941-4.942,4.941v0.002c-4.704,0-8.517,3.812-8.517,8.516c0,4.704,3.813,8.519,8.517,8.519h15.284
	c2.729,0,4.943,2.212,4.943,4.942h-0.014c0,4.701,3.814,8.517,8.517,8.517h0.001l0,0h24.104v-0.077
	c0.257,0.051,0.52,0.077,0.791,0.077c2.327,0,4.211-1.886,4.211-4.21h0.001c0-2.186,1.687-3.971,3.83-4.136h13.505
	c2.325,0,4.21-1.885,4.21-4.21C202.034,112.958,200.149,111.073,197.824,111.073z"/>
<path fill="#FFFFFF" d="M1128.97,71.42v-0.002c4.707,0,8.525-3.817,8.525-8.524v0.504v0.49h0.014
	c-0.006-0.164-0.014-0.326-0.014-0.49c0-8.113,6.576-14.693,14.691-14.693h23.34c4.709,0,8.523-3.816,8.523-8.525h-0.014
	c0-8.114,6.578-14.691,14.691-14.691c0.006,0,0.008,0,0.01,0l0,0h36.693c8.115,0,14.691,6.577,14.691,14.691v-0.97
	c0,4.707,3.818,8.523,8.525,8.523v0.002c8.115,0,14.693,6.58,14.693,14.693c0,8.116-6.578,14.695-14.693,14.695h-26.365
	c-4.707,0-8.525,3.813-8.525,8.524h0.023c0,8.114-6.578,14.692-14.695,14.692l0,0l0,0h-41.584v-0.133
	c-0.443,0.086-0.898,0.133-1.363,0.133c-4.014,0-7.266-3.252-7.266-7.262l0,0c0-3.77-2.912-6.848-6.605-7.135h-23.299
	c-4.012,0-7.262-3.25-7.262-7.262C1121.707,74.668,1124.958,71.42,1128.97,71.42z"/>
<path fill="#A3B07F" d="M1282.927,58.491c-25.873,0-49.127,11.205-65.18,29.027l-170.562,159.594L1283,247.113V58.492
	C1282.974,58.492,1282.951,58.491,1282.927,58.491z"/>
<path fill="#FFFFFF" d="M758.939,77.556c0-7.329-5.812-13.297-13.076-13.549c-2.805-0.089-5.055-2.383-5.055-5.207h-0.002
	c0-2.922-2.365-5.287-5.287-5.287c-0.23,0-0.568,0.012-0.994,0.039v-0.039h-11.867c-6.807,0-12.324-5.519-12.324-12.329h-0.006
	c0-2.921-2.367-5.288-5.289-5.288h-44.996c-5.34,0-9.67,4.328-9.67,9.669h-0.004c0,4.391-3.557,7.948-7.943,7.948h-2.696l0,0
	c-2.48,0-4.49,2.009-4.49,4.49v5.062c-0.406,3.758-3.297,6.765-6.996,7.354h-0.074c-5.908,0-10.699,4.791-10.699,10.701
	c0,5.906,4.791,10.699,10.699,10.699l0,0c3.431,0,6.209,2.783,6.209,6.208v-0.706c0,5.912,4.789,10.703,10.702,10.703h48.885l0,0
	c0.002,0,0.004,0,0.004,0c5.908,0,10.701-4.791,10.701-10.703h-0.01c0-3.426,2.779-6.206,6.207-6.206h34.811v-0.008
	C753.027,90.946,758.939,84.941,758.939,77.556z"/>
<path fill="#BABC84" d="M503.909,247.113L390.013,140.542h-0.003c-12.069-13.027-29.319-21.185-48.479-21.185
	c-19.494,0-37.013,8.444-49.108,21.869L179.259,247.112L503.909,247.113z"/>
<rect x="-1" y="247.112" fill="#C8CD93" width="1284" height="153.889"/>
<g>
	<rect x="780.9" y="241.825" fill="#D58065" width="4.832" height="50.684"/>
	<circle fill="#809958" cx="783.316" cy="231.166" r="14.956"/>
</g>
<g>
	<rect x="986.341" y="235.058" fill="#B65E27" width="7.312" height="34.612"/>
	<polygon fill="#6F8839" points="1003.07,249.055 976.925,249.055 989.998,189.529 989.998,189.529 	"/>
</g>
<g>
	<rect x="1018.468" y="248.6" fill="#954422" width="4.014" height="45.752"/>
	<g>
		<circle fill="#788F5A" cx="1020.474" cy="239.286" r="11.523"/>
		<path fill="#788F5A" d="M1031.998,209.292c0,6.365-5.158,11.522-11.521,11.522c-6.365,0-11.525-5.157-11.525-11.522
			c0-6.367,5.16-11.522,11.525-11.522C1026.839,197.769,1031.998,202.924,1031.998,209.292z"/>
		<rect x="1008.951" y="207.836" fill="#788F5A" width="23.047" height="31.449"/>
	</g>
</g>
<g>
	<rect x="814.357" y="248.6" fill="#954422" width="4.012" height="45.752"/>
	<g>
		<path fill="#788F5A" d="M827.884,239.286c0,6.363-5.158,11.523-11.521,11.523c-6.361,0-11.523-5.16-11.523-11.523
			c0-6.365,5.162-11.525,11.523-11.525C822.726,227.76,827.884,232.92,827.884,239.286z"/>
		<path fill="#788F5A" d="M827.884,209.292c0,6.365-5.158,11.522-11.521,11.522c-6.361,0-11.523-5.157-11.523-11.522
			c0-6.367,5.162-11.522,11.523-11.522C822.726,197.769,827.884,202.924,827.884,209.292z"/>
		<rect x="804.837" y="207.836" fill="#788F5A" width="23.047" height="31.449"/>
	</g>
</g>
<g>
	<rect x="661.4" y="227.526" fill="#D58065" width="3.447" height="36.158"/>
	<circle fill="#809958" cx="663.123" cy="219.923" r="10.669"/>
</g>
<g>
	<rect x="243.573" y="227.526" fill="#D58065" width="3.447" height="36.158"/>
	<circle fill="#809958" cx="245.295" cy="219.923" r="10.669"/>
</g>
<g>
	<rect x="1181.308" y="240.316" fill="#B65E27" width="6.215" height="29.416"/>
	<polygon fill="#6F8839" points="1195.527,252.213 1173.306,252.213 1184.416,201.624 1184.416,201.624 	"/>
</g>
<g>
	<rect x="267.556" y="240.316" fill="#B65E27" width="6.215" height="29.416"/>
	<polygon fill="#6F8839" points="281.773,252.213 259.553,252.213 270.663,201.624 270.663,201.624 	"/>
</g>
</svg>
