<?xml version="1.0" encoding="utf-8"?>
<!-- Generator: Adobe Illustrator 16.0.0, SVG Export Plug-In . SVG Version: 6.00 Build 0)  -->
<!DOCTYPE svg PUBLIC "-//W3C//DTD SVG 1.1//EN" "http://www.w3.org/Graphics/SVG/1.1/DTD/svg11.dtd">
<svg version="1.1" id="Layer_1" xmlns="http://www.w3.org/2000/svg" xmlns:xlink="http://www.w3.org/1999/xlink" x="0px" y="0px"
	 width="52px" height="52px" viewBox="0 0 52 52" enable-background="new 0 0 52 52" xml:space="preserve">
<g>
	<g>
		<circle fill="#EFDA82" cx="26" cy="26" r="25"/>
	</g>
	<g>
		<g>
			<path fill="#9EB362" d="M6.178,14.304v-1.979H5.075c-0.397,0.607-0.772,1.23-1.117,1.873L6.178,14.304z"/>
		</g>
		<g>
			<polygon fill="#9EB362" points="18.687,13.861 18.687,12.326 9.414,12.326 9.414,14.3 			"/>
		</g>
		<g>
			<path fill="#9EB362" d="M36.364,12.326H25.518v1.211l8.404-0.398v1.242h1.08v34.942c0.739-0.285,1.46-0.604,2.162-0.953V13.125
				C37.164,12.685,36.807,12.326,36.364,12.326z"/>
		</g>
		<g>
			<polygon fill="#8B9F3C" points="7.759,14.38 9.414,14.3 9.414,12.326 6.178,12.326 6.178,14.304 			"/>
		</g>
		<g>
			<path fill="#D6D7C0" d="M35.002,49.322V14.38h-1.08v35.331C34.286,49.59,34.646,49.461,35.002,49.322z"/>
		</g>
		<g>
			<path fill="#E6E6D6" d="M6.178,14.38v-0.076l-2.22-0.105c-0.032,0.061-0.062,0.121-0.093,0.182H6.178z"/>
		</g>
		<g>
			<polygon fill="#E6E6D6" points="6.235,14.38 7.759,14.38 6.178,14.304 6.178,14.38 			"/>
		</g>
		<g>
			<path fill="#F1EFE8" d="M3.865,14.38c-0.736,1.398-1.344,2.873-1.806,4.412l2.788,0.088C5.318,18.896,5.7,19.306,5.7,19.796
				s-0.382,0.875-0.853,0.859l-3.245-0.104c-0.136,0.609-0.251,1.225-0.341,1.85l3.586,0.115C5.318,22.533,5.7,22.941,5.7,23.431
				s-0.382,0.875-0.853,0.859l-3.773-0.119c-0.043,0.58-0.07,1.164-0.072,1.754l3.846,0.123C5.318,26.064,5.7,26.472,5.7,26.964
				c0,0.491-0.382,0.875-0.853,0.86l-3.783-0.121c0.042,0.629,0.105,1.252,0.193,1.865l3.59,0.115
				C5.318,29.699,5.7,30.107,5.7,30.598s-0.382,0.877-0.853,0.861L1.58,31.355c0.143,0.65,0.309,1.295,0.5,1.926l2.768,0.088
				C5.318,33.385,5.7,33.795,5.7,34.285c0,0.488-0.382,0.875-0.853,0.859l-2.142-0.068c0.25,0.641,0.521,1.271,0.822,1.885
				l1.319,0.043C5.318,37.02,5.7,37.43,5.7,37.918c0,0.49-0.382,0.875-0.853,0.859l-0.342-0.01c0.51,0.854,1.068,1.674,1.672,2.459
				V14.38H3.865z"/>
		</g>
		<g>
			<path fill="#E6E6D6" d="M6.235,14.38H6.178v26.846c0.02,0.025,0.039,0.049,0.058,0.074V14.38z"/>
		</g>
		<g>
			<path fill="#E6E6D6" d="M6.235,41.301c0.439,0.566,0.899,1.115,1.384,1.641v-27.67h0.14V14.38H6.235V41.301z"/>
		</g>
		<g>
			<polygon fill="#E6E6D6" points="18.687,14.38 18.687,13.861 9.414,14.3 9.414,14.38 			"/>
		</g>
		<g>
			<polygon fill="#E6E6D6" points="33.922,14.38 33.922,13.138 25.518,13.537 25.518,14.38 			"/>
		</g>
		<g>
			<polygon fill="#E6E6D6" points="9.414,14.38 9.414,14.3 7.759,14.38 9.354,14.38 			"/>
		</g>
		<g>
			<polygon fill="#E6E6D6" points="23.674,36.592 22.771,34.762 21.859,34.791 20.774,36.686 			"/>
		</g>
		<g>
			<polygon fill="#E6E6D6" points="18.715,40.283 25.389,40.07 24.535,38.34 19.741,38.492 			"/>
		</g>
		<g>
			<path fill="#F1EFE8" d="M25.518,18.412l5.496-0.176c0.472-0.016,0.854,0.369,0.854,0.861c0,0.49-0.382,0.898-0.854,0.914
				l-5.496,0.176v1.859l5.496-0.176c0.472-0.016,0.854,0.369,0.854,0.859s-0.382,0.9-0.854,0.916l-5.496,0.176v1.758l5.496-0.176
				c0.472-0.016,0.854,0.369,0.854,0.859s-0.382,0.899-0.854,0.915l-5.496,0.176v1.861l5.496-0.176
				c0.472-0.016,0.854,0.367,0.854,0.859c0,0.49-0.382,0.9-0.854,0.914l-5.496,0.176V32.9l5.496-0.176
				c0.472-0.016,0.854,0.369,0.854,0.859c0,0.488-0.382,0.898-0.854,0.914l-5.496,0.176v1.859l5.496-0.176
				c0.472-0.014,0.854,0.371,0.854,0.861s-0.382,0.898-0.854,0.914l-5.496,0.176v1.758l5.496-0.174
				c0.472-0.018,0.854,0.369,0.854,0.857c0,0.49-0.382,0.9-0.854,0.916l-20.198,0.645c-0.472,0.016-0.853-0.369-0.853-0.859
				s0.381-0.9,0.853-0.914l7.871-0.252v-1.76l-7.871,0.252c-0.472,0.016-0.853-0.369-0.853-0.859c0-0.488,0.381-0.898,0.853-0.914
				l7.871-0.252v-1.859l-7.871,0.252c-0.472,0.016-0.853-0.371-0.853-0.859c0-0.49,0.381-0.9,0.853-0.916l7.871-0.25v-1.912
				l-7.871,0.252c-0.472,0.016-0.853-0.371-0.853-0.861s0.381-0.898,0.853-0.914l7.871-0.252v-1.859l-7.871,0.252
				c-0.472,0.016-0.853-0.369-0.853-0.86c0-0.492,0.381-0.9,0.853-0.916l7.871-0.252v-1.756l-7.871,0.25
				c-0.472,0.016-0.853-0.369-0.853-0.859s0.381-0.898,0.853-0.914l7.871-0.252v-1.859l-7.871,0.25
				c-0.472,0.016-0.853-0.369-0.853-0.859s0.381-0.9,0.853-0.916l7.871-0.25v-4.25H9.414v30.319
				c0.184,0.164,0.369,0.326,0.559,0.484c-0.003-0.033-0.01-0.064-0.01-0.1c0-0.488,0.381-0.898,0.853-0.914l20.198-0.645
				c0.472-0.016,0.854,0.369,0.854,0.859s-0.382,0.898-0.854,0.914l-20.09,0.643C15.115,49.115,20.337,51,26,51
				c2.77,0,5.432-0.457,7.922-1.289V14.38h-8.404V18.412z"/>
		</g>
		<g>
			<path fill="#E6E6D6" d="M9.354,44.648c0.019,0.018,0.04,0.033,0.06,0.051V14.38h-0.06V44.648z"/>
		</g>
		<g>
			<path fill="#E6E6D6" d="M7.971,15.271v28.038c0.444,0.463,0.904,0.912,1.384,1.34V14.38H7.759v0.891H7.971z"/>
		</g>
		<g>
			<path fill="#DDDDD7" d="M7.759,15.271h-0.14v27.67c0.046,0.049,0.094,0.096,0.14,0.146V15.271z"/>
		</g>
		<g>
			<path fill="#DDDDD7" d="M7.971,43.309V15.271H7.759v27.817C7.829,43.162,7.899,43.236,7.971,43.309z"/>
		</g>
		<g>
			<path fill="#B9B9B9" d="M5.7,19.796c0-0.49-0.382-0.9-0.853-0.916L2.06,18.792c-0.174,0.578-0.325,1.166-0.457,1.76l3.245,0.104
				C5.318,20.671,5.7,20.287,5.7,19.796z"/>
		</g>
		<g>
			<path fill="#B9B9B9" d="M5.7,23.431c0-0.49-0.382-0.898-0.853-0.914l-3.586-0.115c-0.084,0.584-0.146,1.174-0.188,1.77
				l3.773,0.119C5.318,24.306,5.7,23.921,5.7,23.431z"/>
		</g>
		<g>
			<path fill="#B9B9B9" d="M5.7,26.964c0-0.492-0.382-0.9-0.853-0.916l-3.846-0.123C1.002,25.951,1,25.974,1,26
				c0,0.574,0.026,1.141,0.064,1.704l3.783,0.121C5.318,27.84,5.7,27.455,5.7,26.964z"/>
		</g>
		<g>
			<path fill="#B9B9B9" d="M5.7,30.598c0-0.49-0.382-0.898-0.853-0.914l-3.59-0.115c0.086,0.604,0.194,1.197,0.322,1.787
				l3.268,0.104C5.318,31.475,5.7,31.088,5.7,30.598z"/>
		</g>
		<g>
			<path fill="#B9B9B9" d="M5.7,34.285c0-0.49-0.382-0.9-0.853-0.916L2.08,33.281c0.186,0.609,0.396,1.205,0.626,1.795l2.142,0.068
				C5.318,35.16,5.7,34.773,5.7,34.285z"/>
		</g>
		<g>
			<path fill="#B9B9B9" d="M5.7,37.918c0-0.488-0.382-0.898-0.853-0.914l-1.319-0.043c0.301,0.617,0.628,1.219,0.978,1.807
				l0.342,0.01C5.318,38.793,5.7,38.408,5.7,37.918z"/>
		</g>
		<g>
			<path fill="#B9B9B9" d="M10.815,18.88c-0.472,0.016-0.853,0.426-0.853,0.916s0.381,0.875,0.853,0.859l7.871-0.25V18.63
				L10.815,18.88z"/>
		</g>
		<g>
			<path fill="#B9B9B9" d="M31.014,20.011c0.472-0.016,0.854-0.424,0.854-0.914c0-0.492-0.382-0.877-0.854-0.861l-5.496,0.176v1.775
				L31.014,20.011z"/>
		</g>
		<g>
			<path fill="#B9B9B9" d="M31.014,23.646c0.472-0.016,0.854-0.426,0.854-0.916s-0.382-0.875-0.854-0.859l-5.496,0.176v1.775
				L31.014,23.646z"/>
		</g>
		<g>
			<path fill="#B9B9B9" d="M10.815,22.517c-0.472,0.016-0.853,0.424-0.853,0.914s0.381,0.875,0.853,0.859l7.871-0.25v-1.775
				L10.815,22.517z"/>
		</g>
		<g>
			<path fill="#B9B9B9" d="M10.815,26.048c-0.472,0.016-0.853,0.424-0.853,0.916c0,0.491,0.381,0.875,0.853,0.86l7.871-0.252v-1.776
				L10.815,26.048z"/>
		</g>
		<g>
			<path fill="#B9B9B9" d="M31.014,27.178c0.472-0.016,0.854-0.424,0.854-0.915s-0.382-0.875-0.854-0.859l-5.496,0.176v1.774
				L31.014,27.178z"/>
		</g>
		<g>
			<path fill="#B9B9B9" d="M31.014,30.812c0.472-0.014,0.854-0.424,0.854-0.914c0-0.492-0.382-0.875-0.854-0.859l-5.496,0.176v1.773
				L31.014,30.812z"/>
		</g>
		<g>
			<path fill="#B9B9B9" d="M10.815,29.684c-0.472,0.016-0.853,0.424-0.853,0.914s0.381,0.877,0.853,0.861l7.871-0.252v-1.775
				L10.815,29.684z"/>
		</g>
		<g>
			<path fill="#B9B9B9" d="M31.014,34.498c0.472-0.016,0.854-0.426,0.854-0.914c0-0.49-0.382-0.875-0.854-0.859L25.518,32.9v1.773
				L31.014,34.498z"/>
		</g>
		<g>
			<path fill="#B9B9B9" d="M10.815,33.369c-0.472,0.016-0.853,0.426-0.853,0.916c0,0.488,0.381,0.875,0.853,0.859l7.871-0.252
				v-1.773L10.815,33.369z"/>
		</g>
		<g>
			<polygon fill="#B9B9B9" points="22.357,33.922 21.859,34.791 22.771,34.762 			"/>
		</g>
		<g>
			<path fill="#B9B9B9" d="M31.014,38.133c0.472-0.016,0.854-0.424,0.854-0.914s-0.382-0.875-0.854-0.861l-5.496,0.176v1.775
				L31.014,38.133z"/>
		</g>
		<g>
			<path fill="#B9B9B9" d="M10.815,37.004c-0.472,0.016-0.853,0.426-0.853,0.914c0,0.49,0.381,0.875,0.853,0.859l7.871-0.252v-1.773
				L10.815,37.004z"/>
		</g>
		<g>
			<polygon fill="#B9B9B9" points="19.741,38.492 24.535,38.34 23.674,36.592 20.774,36.686 			"/>
		</g>
		<g>
			<path fill="#B9B9B9" d="M25.389,40.07l-6.674,0.213l-0.028,0.051v-0.049l-7.871,0.252c-0.472,0.014-0.853,0.424-0.853,0.914
				s0.381,0.875,0.853,0.859l20.198-0.645c0.472-0.016,0.854-0.426,0.854-0.916c0-0.488-0.382-0.875-0.854-0.857l-5.496,0.174v0.268
				L25.389,40.07z"/>
		</g>
		<g>
			<path fill="#B9B9B9" d="M10.815,45.945l0.108-0.004c-0.323-0.244-0.64-0.498-0.951-0.758
				C10.021,45.625,10.377,45.959,10.815,45.945z"/>
		</g>
		<g>
			<path fill="#B9B9B9" d="M31.014,45.299c0.472-0.016,0.854-0.424,0.854-0.914s-0.382-0.875-0.854-0.859L10.815,44.17
				c-0.472,0.016-0.853,0.426-0.853,0.914c0,0.035,0.007,0.066,0.01,0.1c0.312,0.26,0.628,0.514,0.951,0.758L31.014,45.299z"/>
		</g>
		<g>
			<rect x="18.687" y="12.31" fill="#BC5638" width="6.831" height="0.016"/>
		</g>
		<g>
			<polygon fill="#E2AE68" points="25.518,13.537 25.518,12.326 18.687,12.326 18.687,13.861 			"/>
		</g>
		<g>
			<polygon fill="#E2AE68" points="18.687,14.38 25.518,14.38 25.518,13.537 18.687,13.861 			"/>
		</g>
		<g>
			<polygon fill="#E2AE68" points="21.859,34.791 18.687,34.893 18.687,36.752 20.774,36.686 			"/>
		</g>
		<g>
			<polygon fill="#E2AE68" points="25.518,18.412 25.518,14.38 18.687,14.38 18.687,18.63 			"/>
		</g>
		<g>
			<polygon fill="#E2AE68" points="18.687,25.796 25.518,25.58 25.518,23.822 18.687,24.041 			"/>
		</g>
		<g>
			<polygon fill="#E2AE68" points="18.687,29.432 25.518,29.215 25.518,27.354 18.687,27.572 			"/>
		</g>
		<g>
			<polygon fill="#E2AE68" points="18.687,22.265 25.518,22.046 25.518,20.187 18.687,20.406 			"/>
		</g>
		<g>
			<polygon fill="#E2AE68" points="23.674,36.592 25.518,36.533 25.518,34.674 22.771,34.762 			"/>
		</g>
		<g>
			<polygon fill="#E2AE68" points="19.741,38.492 18.687,38.525 18.687,40.285 18.715,40.283 			"/>
		</g>
		<g>
			<polygon fill="#E2AE68" points="18.687,33.119 25.518,32.9 25.518,30.988 18.687,31.207 			"/>
		</g>
		<g>
			<polygon fill="#E2AE68" points="25.389,40.07 25.518,40.066 25.518,38.309 24.535,38.34 			"/>
		</g>
		<g>
			<polygon fill="#E2AE68" points="18.687,20.406 25.518,20.187 25.518,18.412 18.687,18.63 			"/>
		</g>
		<g>
			<polygon fill="#E2AE68" points="18.687,24.041 25.518,23.822 25.518,22.046 18.687,22.265 			"/>
		</g>
		<g>
			<polygon fill="#E2AE68" points="18.687,27.572 25.518,27.354 25.518,25.58 18.687,25.796 			"/>
		</g>
		<g>
			<polygon fill="#E2AE68" points="18.687,31.207 25.518,30.988 25.518,29.215 18.687,29.432 			"/>
		</g>
		<g>
			<polygon fill="#E2AE68" points="18.687,34.893 21.859,34.791 22.357,33.922 22.771,34.762 25.518,34.674 25.518,32.9 
				18.687,33.119 			"/>
		</g>
		<g>
			<polygon fill="#E2AE68" points="24.535,38.34 25.518,38.309 25.518,36.533 23.674,36.592 			"/>
		</g>
		<g>
			<polygon fill="#E2AE68" points="20.774,36.686 18.687,36.752 18.687,38.525 19.741,38.492 			"/>
		</g>
		<g>
			<polygon fill="#BC5638" points="18.715,40.283 18.687,40.285 18.687,40.334 			"/>
		</g>
		<g>
			<polygon fill="#BC5638" points="25.518,40.334 25.518,40.066 25.389,40.07 			"/>
		</g>
	</g>
</g>
</svg>
