<?xml version="1.0" encoding="UTF-8" standalone="no"?>
<!-- Created with Inkscape (http://www.inkscape.org/) -->

<svg
   xmlns:dc="http://purl.org/dc/elements/1.1/"
   xmlns:cc="http://creativecommons.org/ns#"
   xmlns:rdf="http://www.w3.org/1999/02/22-rdf-syntax-ns#"
   xmlns:svg="http://www.w3.org/2000/svg"
   xmlns="http://www.w3.org/2000/svg"
   xmlns:sodipodi="http://sodipodi.sourceforge.net/DTD/sodipodi-0.dtd"
   xmlns:inkscape="http://www.inkscape.org/namespaces/inkscape"
   width="181"
   height="266"
   id="svg2"
   version="1.1"
   inkscape:version="0.48.4 r9939"
   sodipodi:docname="4.svg">
  <defs
     id="defs4">
    <inkscape:perspective
       sodipodi:type="inkscape:persp3d"
       inkscape:vp_x="0 : 526.18109 : 1"
       inkscape:vp_y="0 : 1000 : 0"
       inkscape:vp_z="744.09448 : 526.18109 : 1"
       inkscape:persp3d-origin="372.04724 : 350.78739 : 1"
       id="perspective10" />
    <clipPath
       id="clipPath3565"
       clipPathUnits="userSpaceOnUse">
      <path
         id="path3567"
         d="M 0,576 788,576 788,0 0,0 0,576 z"
         inkscape:connector-curvature="0" />
    </clipPath>
    <clipPath
       id="clipPath3485"
       clipPathUnits="userSpaceOnUse">
      <path
         id="path3487"
         d="M 0,576 788,576 788,0 0,0 0,576 z"
         inkscape:connector-curvature="0" />
    </clipPath>
    <clipPath
       id="clipPath3409"
       clipPathUnits="userSpaceOnUse">
      <path
         id="path3411"
         d="M 0,576 788,576 788,0 0,0 0,576 z"
         inkscape:connector-curvature="0" />
    </clipPath>
    <clipPath
       id="clipPath3329"
       clipPathUnits="userSpaceOnUse">
      <path
         id="path3331"
         d="M 0,576 788,576 788,0 0,0 0,576 z"
         inkscape:connector-curvature="0" />
    </clipPath>
    <clipPath
       id="clipPath3249"
       clipPathUnits="userSpaceOnUse">
      <path
         id="path3251"
         d="M 0,576 788,576 788,0 0,0 0,576 z"
         inkscape:connector-curvature="0" />
    </clipPath>
    <clipPath
       id="clipPath3169"
       clipPathUnits="userSpaceOnUse">
      <path
         id="path3171"
         d="M 0,576 788,576 788,0 0,0 0,576 z"
         inkscape:connector-curvature="0" />
    </clipPath>
    <clipPath
       id="clipPath3089"
       clipPathUnits="userSpaceOnUse">
      <path
         id="path3091"
         d="M 0,576 788,576 788,0 0,0 0,576 z"
         inkscape:connector-curvature="0" />
    </clipPath>
    <clipPath
       id="clipPath3013"
       clipPathUnits="userSpaceOnUse">
      <path
         id="path3015"
         d="M 0,576 788,576 788,0 0,0 0,576 z"
         inkscape:connector-curvature="0" />
    </clipPath>
    <clipPath
       id="clipPath2933"
       clipPathUnits="userSpaceOnUse">
      <path
         id="path2935"
         d="M 0,576 788,576 788,0 0,0 0,576 z"
         inkscape:connector-curvature="0" />
    </clipPath>
    <clipPath
       id="clipPath2853"
       clipPathUnits="userSpaceOnUse">
      <path
         id="path2855"
         d="M 0,576 788,576 788,0 0,0 0,576 z"
         inkscape:connector-curvature="0" />
    </clipPath>
    <inkscape:perspective
       id="perspective2845"
       inkscape:persp3d-origin="0.5 : 0.33333333 : 1"
       inkscape:vp_z="1 : 0.5 : 1"
       inkscape:vp_y="0 : 1000 : 0"
       inkscape:vp_x="0 : 0.5 : 1"
       sodipodi:type="inkscape:persp3d" />
  </defs>
  <sodipodi:namedview
     id="base"
     pagecolor="#ffffff"
     bordercolor="#666666"
     borderopacity="1.0"
     inkscape:pageopacity="0.0"
     inkscape:pageshadow="2"
     inkscape:zoom="0.98994949"
     inkscape:cx="-32.679485"
     inkscape:cy="-102.44626"
     inkscape:document-units="px"
     inkscape:current-layer="layer1"
     showgrid="false"
     inkscape:window-width="1871"
     inkscape:window-height="1056"
     inkscape:window-x="49"
     inkscape:window-y="24"
     inkscape:window-maximized="1"
     fit-margin-top="0"
     fit-margin-left="0"
     fit-margin-right="0"
     fit-margin-bottom="0"
     showguides="true"
     inkscape:guide-bbox="true">
    <sodipodi:guide
       orientation="1,0"
       position="91.923882,349.51278"
       id="guide3631" />
  </sodipodi:namedview>
  <metadata
     id="metadata7">
    <rdf:RDF>
      <cc:Work
         rdf:about="">
        <dc:format>image/svg+xml</dc:format>
        <dc:type
           rdf:resource="http://purl.org/dc/dcmitype/StillImage" />
        <dc:title></dc:title>
      </cc:Work>
    </rdf:RDF>
  </metadata>
  <g
     inkscape:label="Layer 1"
     inkscape:groupmode="layer"
     id="layer1"
     transform="translate(-658.58369,-381.40102)">
    <g
       id="g3009"
       transform="matrix(1.0278596,0,0,-1.0278596,360.89751,797.66776)">
      <g
         id="g3011"
         clip-path="url(#clipPath3013)">
        <g
           id="g3017"
           transform="translate(387.9863,235.6172)">
          <path
             d="m 0,0 c 0,0 15.287,-18.59 18.006,-12.127 0,0 -1.551,0.986 -3.184,3.594 0,0 3.526,-0.93 4.66,0.076 0,0 2.569,3.963 -4.357,4.92 0,0 6.928,-0.957 5.506,2.174 -1.422,3.131 -1.424,3.131 -4.99,3.347 0,0 5.308,-1.037 3.216,2.85 0,0 -13.156,4.559 -18.572,3.812 L 0,0 z"
             style="fill:#ffdcad;fill-opacity:1;fill-rule:nonzero;stroke:none"
             id="path3019"
             inkscape:connector-curvature="0" />
        </g>
        <g
           id="g3021"
           transform="translate(413.3223,189.4629)">
          <path
             d="m 0,0 5.73,11.303 c 0,0 35.682,-14.418 33.241,-22.391 -2.442,-7.973 -3.692,-9.58 -14.682,-6.5 L 0,0 z"
             style="fill:#99866a;fill-opacity:1;fill-rule:nonzero;stroke:none"
             id="path3023"
             inkscape:connector-curvature="0" />
        </g>
        <g
           id="g3025"
           transform="translate(378.4492,252.7109)">
          <path
             d="m 0,0 c 0,0 -18.707,-41.965 -15.168,-48.539 3.539,-6.572 44.492,-12.639 62.695,-15.674 l 1.518,12.135 -39.943,11.123 c 0,0 -7.08,-0.504 -7.08,7.584 0,8.092 13.652,30.336 13.652,30.336 L 0,0 z"
             style="fill:#4c71a0;fill-opacity:1;fill-rule:nonzero;stroke:none"
             id="path3027"
             inkscape:connector-curvature="0" />
        </g>
        <g
           id="g3029"
           transform="translate(383.9043,174.9941)">
          <path
             d="m 0,0 5.123,-12.375 c 0,0 -33.996,-18.156 -38.631,-10.695 -4.637,7.463 -5.088,9.568 4.326,16.105 L 0,0 z"
             style="fill:#99866a;fill-opacity:1;fill-rule:nonzero;stroke:none"
             id="path3031"
             inkscape:connector-curvature="0" />
        </g>
        <g
           id="g3033"
           transform="translate(370.8652,254.2266)">
          <path
             d="m 0,0 c -0.506,-1.516 -23.764,-24.775 -22.247,-30.336 1.517,-5.56 27.809,-54.1 27.809,-54.1 l 9.1,6.069 -21.234,46.513 c 0,0 9.1,9.608 19.718,28.821 L 0,0 z"
             style="fill:#3a4869;fill-opacity:1;fill-rule:nonzero;stroke:none"
             id="path3035"
             inkscape:connector-curvature="0" />
        </g>
        <g
           id="g3037"
           transform="translate(396.4727,340.3159)">
          <path
             d="m 0,0 -33.687,-3.57 c 0,0 -5.268,-75.035 3.225,-97.609 0,0 25.601,7.929 34.091,9.349 0,0 -18.262,38.004 -3.629,91.83"
             style="fill:#7d9ed2;fill-opacity:1;fill-rule:nonzero;stroke:none"
             id="path3039"
             inkscape:connector-curvature="0" />
        </g>
        <g
           id="g3041"
           transform="translate(365.5859,235.127)">
          <path
             d="m 0,0 c 0,0 -22.105,-9.521 -16.654,-13.93 0,0 1.381,1.217 4.338,2.059 0,0 -1.873,-3.125 -1.223,-4.496 0,0 3.094,-3.569 5.938,2.82 0,0 -2.844,-6.391 0.558,-5.894 3.402,0.496 3.403,0.496 4.602,3.865 0,0 -2.471,-4.811 1.844,-3.885 0,0 8.035,11.373 8.824,16.783 L 0,0 z"
             style="fill:#ffdcad;fill-opacity:1;fill-rule:nonzero;stroke:none"
             id="path3043"
             inkscape:connector-curvature="0" />
        </g>
        <g
           id="g3045"
           transform="translate(372.8877,331.0815)">
          <path
             d="m 0,0 c -0.364,1.555 10.112,-10.618 10.112,-10.618 l -9.101,-90.507 -11.123,3.036 c 0,0 13.651,82.921 10.112,98.089"
             style="fill:#4c71a0;fill-opacity:1;fill-rule:nonzero;stroke:none"
             id="path3047"
             inkscape:connector-curvature="0" />
        </g>
        <g
           id="g3049"
           transform="translate(414.3477,369.6343)">
          <path
             d="m 0,0 c 0,-19.408 -17.092,-35.141 -38.174,-35.141 -21.082,0 -38.174,15.733 -38.174,35.141 0,19.406 17.092,35.139 38.174,35.139 C -17.092,35.139 0,19.406 0,0"
             style="fill:#ffdcad;fill-opacity:1;fill-rule:nonzero;stroke:none"
             id="path3051"
             inkscape:connector-curvature="0" />
        </g>
        <g
           id="g3053"
           transform="translate(421.9316,366.0933)">
          <path
             d="m 0,0 c 0,-3.21 -2.717,-5.813 -6.068,-5.813 -3.35,0 -6.067,2.603 -6.067,5.813 0,3.212 2.717,5.815 6.067,5.815 C -2.717,5.815 0,3.212 0,0"
             style="fill:#ffdcad;fill-opacity:1;fill-rule:nonzero;stroke:none"
             id="path3055"
             inkscape:connector-curvature="0" />
        </g>
        <g
           id="g3057"
           transform="translate(350.6406,372.4897)">
          <path
             d="m 0,0 c 0,-3.533 -2.528,-6.396 -5.646,-6.396 -3.12,0 -5.647,2.863 -5.647,6.396 0,3.531 2.527,6.395 5.647,6.395 C -2.528,6.395 0,3.531 0,0"
             style="fill:#ffffff;fill-opacity:1;fill-rule:nonzero;stroke:none"
             id="path3059"
             inkscape:connector-curvature="0" />
        </g>
        <g
           id="g3061"
           transform="translate(370.8652,369.3804)">
          <path
             d="m 0,0 c 0,-3.908 -2.942,-7.078 -6.572,-7.078 -3.631,0 -6.574,3.17 -6.574,7.078 0,3.91 2.943,7.078 6.574,7.078 C -2.942,7.078 0,3.91 0,0"
             style="fill:#ffffff;fill-opacity:1;fill-rule:nonzero;stroke:none"
             id="path3063"
             inkscape:connector-curvature="0" />
        </g>
        <g
           id="g3065"
           transform="translate(347.1016,372.9194)">
          <path
             d="m 0,0 c 0,-1.954 -1.132,-3.539 -2.527,-3.539 -1.397,0 -2.529,1.585 -2.529,3.539 0,1.955 1.132,3.539 2.529,3.539 C -1.132,3.539 0,1.955 0,0"
             style="fill:#594334;fill-opacity:1;fill-rule:nonzero;stroke:none"
             id="path3067"
             inkscape:connector-curvature="0" />
        </g>
        <g
           id="g3069"
           transform="translate(366.8203,369.0015)">
          <path
             d="m 0,0 c 0,-1.605 -1.132,-2.908 -2.527,-2.908 -1.397,0 -2.529,1.303 -2.529,2.908 0,1.605 1.132,2.907 2.529,2.907 C -1.132,2.907 0,1.605 0,0"
             style="fill:#594334;fill-opacity:1;fill-rule:nonzero;stroke:none"
             id="path3071"
             inkscape:connector-curvature="0" />
        </g>
        <g
           id="g3073"
           transform="translate(340.8633,382.9966)">
          <path
             d="m 0,0 c 0,0 2.699,1.552 6.238,3.574 3.539,2.023 -1.263,-0.07 0,-3.574 0,0 -0.505,-0.726 3.539,2.183 l 1.77,-6.295 c 0,0 0.506,4.653 5.308,6.675 0,0 -1.769,-6.019 -1.009,-6.675 0.758,-0.657 1.769,4.401 5.055,6.424 l 3.287,2.021 c 0,0 -2.528,-4.044 0,-6.572 2.527,-2.53 3.791,0.883 4.55,2.337 0.758,1.455 2.275,-3.349 2.528,-6.636 0.254,-3.285 4.045,2.426 4.045,2.426 0,0 2.023,1.351 2.275,-3.445 l 6.32,0 -1.769,-6.438 5.055,5.435 1.265,-8.343 5.309,6.826 0,-6.826 6.572,5.815 2.527,-8.09 6.069,6.825 2.275,-2.779 2.275,4.044 c 0,0 -1.011,26.798 -33.876,32.864 0,0 -27.897,3.975 -39.608,-21.776"
             style="fill:#594334;fill-opacity:1;fill-rule:nonzero;stroke:none"
             id="path3075"
             inkscape:connector-curvature="0" />
        </g>
        <g
           id="g3077"
           transform="translate(344.9941,349.3735)">
          <path
             d="m 0,0 c 0,0 18.793,-5.345 25.871,0 0,0 -9.387,-11.736 -18.092,-7.493 0,0 -6.043,5.028 -7.779,7.493"
             style="fill:#cd9db0;fill-opacity:1;fill-rule:nonzero;stroke:none"
             id="path3079"
             inkscape:connector-curvature="0" />
        </g>
        <g
           id="g3081"
           transform="translate(345.9199,360.0269)">
          <path
             d="m 0,0 c 0,-2.095 -2.264,-3.792 -5.057,-3.792 -2.791,0 -5.055,1.697 -5.055,3.792 0,2.094 2.264,3.792 5.055,3.792 C -2.264,3.792 0,2.094 0,0"
             style="fill:#ffdcad;fill-opacity:1;fill-rule:nonzero;stroke:none"
             id="path3083"
             inkscape:connector-curvature="0" />
        </g>
      </g>
    </g>
  </g>
</svg>
