<?xml version="1.0" encoding="UTF-8" standalone="no"?>
<!-- Created with Inkscape (http://www.inkscape.org/) -->

<svg
   xmlns:dc="http://purl.org/dc/elements/1.1/"
   xmlns:cc="http://creativecommons.org/ns#"
   xmlns:rdf="http://www.w3.org/1999/02/22-rdf-syntax-ns#"
   xmlns:svg="http://www.w3.org/2000/svg"
   xmlns="http://www.w3.org/2000/svg"
   xmlns:sodipodi="http://sodipodi.sourceforge.net/DTD/sodipodi-0.dtd"
   xmlns:inkscape="http://www.inkscape.org/namespaces/inkscape"
   width="181"
   height="266"
   id="svg2"
   version="1.1"
   inkscape:version="0.48.4 r9939"
   sodipodi:docname="8.svg">
  <defs
     id="defs4">
    <inkscape:perspective
       sodipodi:type="inkscape:persp3d"
       inkscape:vp_x="0 : 526.18109 : 1"
       inkscape:vp_y="0 : 1000 : 0"
       inkscape:vp_z="744.09448 : 526.18109 : 1"
       inkscape:persp3d-origin="372.04724 : 350.78739 : 1"
       id="perspective10" />
    <clipPath
       id="clipPath3565"
       clipPathUnits="userSpaceOnUse">
      <path
         id="path3567"
         d="M 0,576 788,576 788,0 0,0 0,576 z"
         inkscape:connector-curvature="0" />
    </clipPath>
    <clipPath
       id="clipPath3485"
       clipPathUnits="userSpaceOnUse">
      <path
         id="path3487"
         d="M 0,576 788,576 788,0 0,0 0,576 z"
         inkscape:connector-curvature="0" />
    </clipPath>
    <clipPath
       id="clipPath3409"
       clipPathUnits="userSpaceOnUse">
      <path
         id="path3411"
         d="M 0,576 788,576 788,0 0,0 0,576 z"
         inkscape:connector-curvature="0" />
    </clipPath>
    <clipPath
       id="clipPath3329"
       clipPathUnits="userSpaceOnUse">
      <path
         id="path3331"
         d="M 0,576 788,576 788,0 0,0 0,576 z"
         inkscape:connector-curvature="0" />
    </clipPath>
    <clipPath
       id="clipPath3249"
       clipPathUnits="userSpaceOnUse">
      <path
         id="path3251"
         d="M 0,576 788,576 788,0 0,0 0,576 z"
         inkscape:connector-curvature="0" />
    </clipPath>
    <clipPath
       id="clipPath3169"
       clipPathUnits="userSpaceOnUse">
      <path
         id="path3171"
         d="M 0,576 788,576 788,0 0,0 0,576 z"
         inkscape:connector-curvature="0" />
    </clipPath>
    <clipPath
       id="clipPath3089"
       clipPathUnits="userSpaceOnUse">
      <path
         id="path3091"
         d="M 0,576 788,576 788,0 0,0 0,576 z"
         inkscape:connector-curvature="0" />
    </clipPath>
    <clipPath
       id="clipPath3013"
       clipPathUnits="userSpaceOnUse">
      <path
         id="path3015"
         d="M 0,576 788,576 788,0 0,0 0,576 z"
         inkscape:connector-curvature="0" />
    </clipPath>
    <clipPath
       id="clipPath2933"
       clipPathUnits="userSpaceOnUse">
      <path
         id="path2935"
         d="M 0,576 788,576 788,0 0,0 0,576 z"
         inkscape:connector-curvature="0" />
    </clipPath>
    <clipPath
       id="clipPath2853"
       clipPathUnits="userSpaceOnUse">
      <path
         id="path2855"
         d="M 0,576 788,576 788,0 0,0 0,576 z"
         inkscape:connector-curvature="0" />
    </clipPath>
    <inkscape:perspective
       id="perspective2845"
       inkscape:persp3d-origin="0.5 : 0.33333333 : 1"
       inkscape:vp_z="1 : 0.5 : 1"
       inkscape:vp_y="0 : 1000 : 0"
       inkscape:vp_x="0 : 0.5 : 1"
       sodipodi:type="inkscape:persp3d" />
  </defs>
  <sodipodi:namedview
     id="base"
     pagecolor="#ffffff"
     bordercolor="#666666"
     borderopacity="1.0"
     inkscape:pageopacity="0.0"
     inkscape:pageshadow="2"
     inkscape:zoom="1.4"
     inkscape:cx="311.73841"
     inkscape:cy="184.99921"
     inkscape:document-units="px"
     inkscape:current-layer="layer1"
     showgrid="false"
     inkscape:window-width="1871"
     inkscape:window-height="1056"
     inkscape:window-x="49"
     inkscape:window-y="24"
     inkscape:window-maximized="1"
     fit-margin-top="0"
     fit-margin-left="0"
     fit-margin-right="0"
     fit-margin-bottom="0"
     showguides="true"
     inkscape:snap-global="false"
     inkscape:guide-bbox="true">
    <inkscape:grid
       type="xygrid"
       id="grid3623"
       empspacing="5"
       visible="true"
       enabled="true"
       snapvisiblegridlinesonly="true" />
    <sodipodi:guide
       orientation="1,0"
       position="90.913729,317.1879"
       id="guide3627" />
  </sodipodi:namedview>
  <metadata
     id="metadata7">
    <rdf:RDF>
      <cc:Work
         rdf:about="">
        <dc:format>image/svg+xml</dc:format>
        <dc:type
           rdf:resource="http://purl.org/dc/dcmitype/StillImage" />
        <dc:title />
      </cc:Work>
    </rdf:RDF>
  </metadata>
  <g
     inkscape:label="Layer 1"
     inkscape:groupmode="layer"
     id="layer1"
     transform="translate(-455.98213,-703.57022)">
    <g
       id="g3405"
       transform="matrix(-1.0278596,0,0,-1.0278596,936.02415,1120.3502)">
      <g
         id="g3407"
         clip-path="url(#clipPath3409)">
        <g
           id="g3413"
           transform="translate(390.8101,236.1162)">
          <path
             d="m 0,0 c 0,0 15.286,-18.588 18.008,-12.127 0,0 -1.55,0.988 -3.183,3.594 0,0 3.523,-0.93 4.66,0.077 0,0 2.568,3.962 -4.358,4.921 0,0 6.926,-0.959 5.504,2.173 -1.422,3.13 -1.422,3.13 -4.99,3.346 0,0 5.311,-1.037 3.219,2.85 0,0 -13.156,4.56 -18.575,3.812 L 0,0 z"
             style="fill:#ffdcad;fill-opacity:1;fill-rule:nonzero;stroke:none"
             id="path3415"
             inkscape:connector-curvature="0" />
        </g>
        <g
           id="g3417"
           transform="translate(386.729,175.4932)">
          <path
             d="m 0,0 5.124,-12.375 c 0,0 -33.998,-18.157 -38.632,-10.694 -4.637,7.462 -5.087,9.568 4.325,16.105 L 0,0 z"
             style="fill:#99866a;fill-opacity:1;fill-rule:nonzero;stroke:none"
             id="path3419"
             inkscape:connector-curvature="0" />
        </g>
        <g
           id="g3421"
           transform="translate(416.1465,189.9619)">
          <path
             d="m 0,0 5.732,11.304 c 0,0 35.682,-14.417 33.239,-22.392 -2.442,-7.974 -3.692,-9.579 -14.682,-6.501 L 0,0 z"
             style="fill:#99866a;fill-opacity:1;fill-rule:nonzero;stroke:none"
             id="path3423"
             inkscape:connector-curvature="0" />
        </g>
        <g
           id="g3425"
           transform="translate(373.689,254.7256)">
          <path
             d="m 0,0 c -0.505,-1.517 -23.762,-24.774 -22.245,-30.336 1.516,-5.56 27.808,-54.099 27.808,-54.099 l 9.1,6.067 -21.235,46.515 c 0,0 9.101,9.608 19.718,28.82 L 0,0 z"
             style="fill:#3a4869;fill-opacity:1;fill-rule:nonzero;stroke:none"
             id="path3427"
             inkscape:connector-curvature="0" />
        </g>
        <g
           id="g3429"
           transform="translate(399.2969,340.8145)">
          <path
             d="m 0,0 -33.686,-3.569 c 0,0 -5.268,-75.036 3.225,-97.608 0,0 25.6,7.928 34.09,9.35 0,0 -18.262,38.002 -3.629,91.827"
             style="fill:#7d9ed2;fill-opacity:1;fill-rule:nonzero;stroke:none"
             id="path3431"
             inkscape:connector-curvature="0" />
        </g>
        <g
           id="g3433"
           transform="translate(381.2729,253.2109)">
          <path
             d="m 0,0 c 0,0 -18.705,-41.966 -15.168,-48.539 3.541,-6.572 44.495,-12.64 62.696,-15.673 l 1.517,12.135 -39.943,11.123 c 0,0 -7.079,-0.506 -7.079,7.584 0,8.089 13.653,30.336 13.653,30.336 L 0,0 z"
             style="fill:#4c71a0;fill-opacity:1;fill-rule:nonzero;stroke:none"
             id="path3435"
             inkscape:connector-curvature="0" />
        </g>
        <g
           id="g3437"
           transform="translate(368.4097,235.626)">
          <path
             d="m 0,0 c 0,0 -22.104,-9.52 -16.653,-13.93 0,0 1.382,1.218 4.339,2.061 0,0 -1.874,-3.127 -1.224,-4.497 0,0 3.094,-3.569 5.938,2.819 0,0 -2.845,-6.389 0.559,-5.892 3.4,0.494 3.402,0.496 4.601,3.863 0,0 -2.471,-4.812 1.845,-3.883 0,0 8.034,11.372 8.823,16.781 L 0,0 z"
             style="fill:#ffdcad;fill-opacity:1;fill-rule:nonzero;stroke:none"
             id="path3439"
             inkscape:connector-curvature="0" />
        </g>
        <g
           id="g3441"
           transform="translate(375.7124,331.5801)">
          <path
             d="m 0,0 c -0.364,1.557 10.111,-10.618 10.111,-10.618 l -9.1,-90.504 -11.123,3.034 c 0,0 13.651,82.919 10.112,98.088"
             style="fill:#4c71a0;fill-opacity:1;fill-rule:nonzero;stroke:none"
             id="path3443"
             inkscape:connector-curvature="0" />
        </g>
        <g
           id="g3445"
           transform="translate(417.1719,370.1338)">
          <path
             d="m 0,0 c 0,-19.408 -17.09,-35.141 -38.173,-35.141 -21.082,0 -38.173,15.733 -38.173,35.141 0,19.406 17.091,35.139 38.173,35.139 C -17.09,35.139 0,19.406 0,0"
             style="fill:#ffdcad;fill-opacity:1;fill-rule:nonzero;stroke:none"
             id="path3447"
             inkscape:connector-curvature="0" />
        </g>
        <g
           id="g3449"
           transform="translate(424.7559,366.5928)">
          <path
             d="m 0,0 c 0,-3.21 -2.717,-5.813 -6.066,-5.813 -3.352,0 -6.069,2.603 -6.069,5.813 0,3.212 2.717,5.815 6.069,5.815 C -2.717,5.815 0,3.212 0,0"
             style="fill:#ffdcad;fill-opacity:1;fill-rule:nonzero;stroke:none"
             id="path3451"
             inkscape:connector-curvature="0" />
        </g>
        <g
           id="g3453"
           transform="translate(353.4653,372.9893)">
          <path
             d="m 0,0 c 0,-3.533 -2.528,-6.396 -5.647,-6.396 -3.119,0 -5.647,2.863 -5.647,6.396 0,3.531 2.528,6.395 5.647,6.395 C -2.528,6.395 0,3.531 0,0"
             style="fill:#ffffff;fill-opacity:1;fill-rule:nonzero;stroke:none"
             id="path3455"
             inkscape:connector-curvature="0" />
        </g>
        <g
           id="g3457"
           transform="translate(373.689,369.8799)">
          <path
             d="m 0,0 c 0,-3.908 -2.941,-7.078 -6.572,-7.078 -3.631,0 -6.573,3.17 -6.573,7.078 0,3.91 2.942,7.078 6.573,7.078 C -2.941,7.078 0,3.91 0,0"
             style="fill:#ffffff;fill-opacity:1;fill-rule:nonzero;stroke:none"
             id="path3459"
             inkscape:connector-curvature="0" />
        </g>
        <g
           id="g3461"
           transform="translate(349.9272,373.4189)">
          <path
             d="m 0,0 c 0,-1.954 -1.132,-3.539 -2.529,-3.539 -1.397,0 -2.529,1.585 -2.529,3.539 0,1.955 1.132,3.539 2.529,3.539 C -1.132,3.539 0,1.955 0,0"
             style="fill:#594334;fill-opacity:1;fill-rule:nonzero;stroke:none"
             id="path3463"
             inkscape:connector-curvature="0" />
        </g>
        <g
           id="g3465"
           transform="translate(369.646,369.501)">
          <path
             d="m 0,0 c 0,-1.605 -1.132,-2.908 -2.529,-2.908 -1.397,0 -2.529,1.303 -2.529,2.908 0,1.605 1.132,2.907 2.529,2.907 C -1.132,2.907 0,1.605 0,0"
             style="fill:#594334;fill-opacity:1;fill-rule:nonzero;stroke:none"
             id="path3467"
             inkscape:connector-curvature="0" />
        </g>
        <g
           id="g3469"
           transform="translate(343.688,383.4961)">
          <path
             d="m 0,0 c 0,0 2.698,1.552 6.239,3.574 3.538,2.023 -1.265,-0.07 0,-3.574 0,0 -0.507,-0.726 3.538,2.183 l 1.771,-6.295 c 0,0 0.504,4.653 5.308,6.675 0,0 -1.769,-6.019 -1.011,-6.675 0.759,-0.657 1.77,4.401 5.055,6.424 l 3.288,2.021 c 0,0 -2.529,-4.044 0,-6.572 2.528,-2.53 3.791,0.883 4.55,2.338 0.758,1.454 2.274,-3.35 2.529,-6.637 0.252,-3.285 4.044,2.426 4.044,2.426 0,0 2.023,1.351 2.274,-3.445 l 6.321,0 -1.77,-6.438 5.057,5.435 1.263,-8.343 5.309,6.826 0,-6.826 6.572,5.815 2.53,-8.09 6.066,6.825 2.275,-2.779 2.276,4.044 c 0,0 -1.012,26.798 -33.876,32.864 0,0 -27.897,3.975 -39.608,-21.776"
             style="fill:#594334;fill-opacity:1;fill-rule:nonzero;stroke:none"
             id="path3471"
             inkscape:connector-curvature="0" />
        </g>
        <g
           id="g3473"
           transform="translate(347.8188,349.873)">
          <path
             d="m 0,0 c 0,0 18.793,-5.345 25.87,0 0,0 -9.385,-11.735 -18.092,-7.493 0,0 -6.042,5.028 -7.778,7.493"
             style="fill:#cd9db0;fill-opacity:1;fill-rule:nonzero;stroke:none"
             id="path3475"
             inkscape:connector-curvature="0" />
        </g>
        <g
           id="g3477"
           transform="translate(348.7446,360.5264)">
          <path
             d="m 0,0 c 0,-2.095 -2.263,-3.792 -5.057,-3.792 -2.791,0 -5.055,1.697 -5.055,3.792 0,2.094 2.264,3.792 5.055,3.792 C -2.263,3.792 0,2.094 0,0"
             style="fill:#ffdcad;fill-opacity:1;fill-rule:nonzero;stroke:none"
             id="path3479"
             inkscape:connector-curvature="0" />
        </g>
      </g>
    </g>
  </g>
</svg>
