<?xml version="1.0" encoding="UTF-8" standalone="no"?>
<!-- Created with Inkscape (http://www.inkscape.org/) -->

<svg
   xmlns:dc="http://purl.org/dc/elements/1.1/"
   xmlns:cc="http://creativecommons.org/ns#"
   xmlns:rdf="http://www.w3.org/1999/02/22-rdf-syntax-ns#"
   xmlns:svg="http://www.w3.org/2000/svg"
   xmlns="http://www.w3.org/2000/svg"
   xmlns:sodipodi="http://sodipodi.sourceforge.net/DTD/sodipodi-0.dtd"
   xmlns:inkscape="http://www.inkscape.org/namespaces/inkscape"
   width="181"
   height="266.39999"
   id="svg2"
   version="1.1"
   inkscape:version="0.48.4 r9939"
   sodipodi:docname="9.svg">
  <defs
     id="defs4">
    <inkscape:perspective
       sodipodi:type="inkscape:persp3d"
       inkscape:vp_x="0 : 526.18109 : 1"
       inkscape:vp_y="0 : 1000 : 0"
       inkscape:vp_z="744.09448 : 526.18109 : 1"
       inkscape:persp3d-origin="372.04724 : 350.78739 : 1"
       id="perspective10" />
    <clipPath
       id="clipPath3565"
       clipPathUnits="userSpaceOnUse">
      <path
         id="path3567"
         d="M 0,576 788,576 788,0 0,0 0,576 z"
         inkscape:connector-curvature="0" />
    </clipPath>
    <clipPath
       id="clipPath3485"
       clipPathUnits="userSpaceOnUse">
      <path
         id="path3487"
         d="M 0,576 788,576 788,0 0,0 0,576 z"
         inkscape:connector-curvature="0" />
    </clipPath>
    <clipPath
       id="clipPath3409"
       clipPathUnits="userSpaceOnUse">
      <path
         id="path3411"
         d="M 0,576 788,576 788,0 0,0 0,576 z"
         inkscape:connector-curvature="0" />
    </clipPath>
    <clipPath
       id="clipPath3329"
       clipPathUnits="userSpaceOnUse">
      <path
         id="path3331"
         d="M 0,576 788,576 788,0 0,0 0,576 z"
         inkscape:connector-curvature="0" />
    </clipPath>
    <clipPath
       id="clipPath3249"
       clipPathUnits="userSpaceOnUse">
      <path
         id="path3251"
         d="M 0,576 788,576 788,0 0,0 0,576 z"
         inkscape:connector-curvature="0" />
    </clipPath>
    <clipPath
       id="clipPath3169"
       clipPathUnits="userSpaceOnUse">
      <path
         id="path3171"
         d="M 0,576 788,576 788,0 0,0 0,576 z"
         inkscape:connector-curvature="0" />
    </clipPath>
    <clipPath
       id="clipPath3089"
       clipPathUnits="userSpaceOnUse">
      <path
         id="path3091"
         d="M 0,576 788,576 788,0 0,0 0,576 z"
         inkscape:connector-curvature="0" />
    </clipPath>
    <clipPath
       id="clipPath3013"
       clipPathUnits="userSpaceOnUse">
      <path
         id="path3015"
         d="M 0,576 788,576 788,0 0,0 0,576 z"
         inkscape:connector-curvature="0" />
    </clipPath>
    <clipPath
       id="clipPath2933"
       clipPathUnits="userSpaceOnUse">
      <path
         id="path2935"
         d="M 0,576 788,576 788,0 0,0 0,576 z"
         inkscape:connector-curvature="0" />
    </clipPath>
    <clipPath
       id="clipPath2853"
       clipPathUnits="userSpaceOnUse">
      <path
         id="path2855"
         d="M 0,576 788,576 788,0 0,0 0,576 z"
         inkscape:connector-curvature="0" />
    </clipPath>
    <inkscape:perspective
       id="perspective2845"
       inkscape:persp3d-origin="0.5 : 0.33333333 : 1"
       inkscape:vp_z="1 : 0.5 : 1"
       inkscape:vp_y="0 : 1000 : 0"
       inkscape:vp_x="0 : 0.5 : 1"
       sodipodi:type="inkscape:persp3d" />
  </defs>
  <sodipodi:namedview
     id="base"
     pagecolor="#ffffff"
     bordercolor="#666666"
     borderopacity="1.0"
     inkscape:pageopacity="0.0"
     inkscape:pageshadow="2"
     inkscape:zoom="0.98994949"
     inkscape:cx="233.68996"
     inkscape:cy="408.86346"
     inkscape:document-units="px"
     inkscape:current-layer="layer1"
     showgrid="false"
     inkscape:window-width="1871"
     inkscape:window-height="1056"
     inkscape:window-x="49"
     inkscape:window-y="24"
     inkscape:window-maximized="1"
     fit-margin-top="0"
     fit-margin-left="0"
     fit-margin-right="0"
     fit-margin-bottom="0"
     showguides="true"
     inkscape:guide-bbox="true">
    <sodipodi:guide
       orientation="1,0"
       position="91.923882,270.72088"
       id="guide3643" />
  </sodipodi:namedview>
  <metadata
     id="metadata7">
    <rdf:RDF>
      <cc:Work
         rdf:about="">
        <dc:format>image/svg+xml</dc:format>
        <dc:type
           rdf:resource="http://purl.org/dc/dcmitype/StillImage" />
        <dc:title></dc:title>
      </cc:Work>
    </rdf:RDF>
  </metadata>
  <g
     inkscape:label="Layer 1"
     inkscape:groupmode="layer"
     id="layer1"
     transform="translate(-660.26232,-707.59597)">
    <g
       id="g3325"
       transform="matrix(1.0278596,0,0,-1.0278596,361.10105,1129.0968)">
      <g
         id="g3327"
         clip-path="url(#clipPath3329)">
        <g
           id="g3333"
           transform="translate(398.4648,259.5313)">
          <path
             d="m 0,0 c 0,0 6.068,-43.988 28.063,-74.324 l 10.617,1.516 c 0,0 -30.336,52.33 -28.063,76.979 L 0,0 z"
             style="fill:#3a4869;fill-opacity:1;fill-rule:nonzero;stroke:none"
             id="path3335"
             inkscape:connector-curvature="0" />
        </g>
        <g
           id="g3337"
           transform="translate(375.7124,331.5801)">
          <path
             d="M 0,0 -15.547,-73.187 -6.066,-75.462 7.964,-2.654 0,0 z"
             style="fill:#3a4869;fill-opacity:1;fill-rule:nonzero;stroke:none"
             id="path3339"
             inkscape:connector-curvature="0" />
        </g>
        <g
           id="g3341"
           transform="translate(402.1484,357.3047)">
          <path
             d="m 0,0 -32.805,-8.445 c 0,0 5.27,-73.189 16.818,-93.71 0,0 24.202,11.451 32.399,14.084 0,0 -23.363,33.958 -16.412,88.071"
             style="fill:#7d9ed2;fill-opacity:1;fill-rule:nonzero;stroke:none"
             id="path3343"
             inkscape:connector-curvature="0" />
        </g>
        <g
           id="g3345"
           transform="translate(415.7832,375.6943)">
          <path
             d="m 0,0 c 0,-19.407 -17.092,-35.14 -38.174,-35.14 -21.081,0 -38.172,15.733 -38.172,35.14 0,19.407 17.091,35.14 38.172,35.14 C -17.092,35.14 0,19.407 0,0"
             style="fill:#ffdcad;fill-opacity:1;fill-rule:nonzero;stroke:none"
             id="path3347"
             inkscape:connector-curvature="0" />
        </g>
        <g
           id="g3349"
           transform="translate(423.3672,372.1543)">
          <path
             d="m 0,0 c 0,-3.211 -2.717,-5.814 -6.068,-5.814 -3.35,0 -6.067,2.603 -6.067,5.814 0,3.211 2.717,5.814 6.067,5.814 C -2.717,5.814 0,3.211 0,0"
             style="fill:#ffdcad;fill-opacity:1;fill-rule:nonzero;stroke:none"
             id="path3351"
             inkscape:connector-curvature="0" />
        </g>
        <g
           id="g3353"
           transform="translate(352.0767,378.5488)">
          <path
             d="m 0,0 c 0,-3.531 -2.529,-6.395 -5.648,-6.395 -3.119,0 -5.647,2.864 -5.647,6.395 0,3.533 2.528,6.396 5.647,6.396 C -2.529,6.396 0,3.533 0,0"
             style="fill:#ffffff;fill-opacity:1;fill-rule:nonzero;stroke:none"
             id="path3355"
             inkscape:connector-curvature="0" />
        </g>
        <g
           id="g3357"
           transform="translate(372.3003,375.4414)">
          <path
             d="m 0,0 c 0,-3.91 -2.942,-7.078 -6.572,-7.078 -3.631,0 -6.573,3.168 -6.573,7.078 0,3.908 2.942,7.078 6.573,7.078 C -2.942,7.078 0,3.908 0,0"
             style="fill:#ffffff;fill-opacity:1;fill-rule:nonzero;stroke:none"
             id="path3359"
             inkscape:connector-curvature="0" />
        </g>
        <g
           id="g3361"
           transform="translate(348.5376,378.9795)">
          <path
             d="m 0,0 c 0,-1.954 -1.132,-3.538 -2.528,-3.538 -1.398,0 -2.529,1.584 -2.529,3.538 0,1.956 1.131,3.54 2.529,3.54 C -1.132,3.54 0,1.956 0,0"
             style="fill:#594334;fill-opacity:1;fill-rule:nonzero;stroke:none"
             id="path3363"
             inkscape:connector-curvature="0" />
        </g>
        <g
           id="g3365"
           transform="translate(368.2563,375.0615)">
          <path
             d="m 0,0 c 0,-1.605 -1.132,-2.907 -2.528,-2.907 -1.398,0 -2.53,1.302 -2.53,2.907 0,1.606 1.132,2.907 2.53,2.907 C -1.132,2.907 0,1.606 0,0"
             style="fill:#594334;fill-opacity:1;fill-rule:nonzero;stroke:none"
             id="path3367"
             inkscape:connector-curvature="0" />
        </g>
        <g
           id="g3369"
           transform="translate(342.2983,389.0566)">
          <path
             d="m 0,0 c 0,0 2.699,1.552 6.239,3.574 3.539,2.024 -1.264,-0.07 0,-3.574 0,0 -0.507,-0.726 3.539,2.183 l 1.77,-6.294 c 0,0 0.504,4.652 5.309,6.674 0,0 -1.77,-6.018 -1.011,-6.674 0.758,-0.657 1.769,4.4 5.054,6.422 l 3.288,2.022 c 0,0 -2.529,-4.044 0,-6.573 2.528,-2.528 3.791,0.883 4.55,2.338 0.759,1.455 2.274,-3.35 2.529,-6.635 0.252,-3.287 4.044,2.426 4.044,2.426 0,0 2.023,1.349 2.275,-3.446 l 6.32,0 -1.769,-6.438 5.056,5.434 1.264,-8.341 5.309,6.825 0,-6.825 6.572,5.814 2.528,-8.09 6.068,6.826 2.275,-2.781 2.276,4.045 c 0,0 -1.012,26.799 -33.876,32.865 C 39.609,21.777 11.711,25.75 0,0"
             style="fill:#594334;fill-opacity:1;fill-rule:nonzero;stroke:none"
             id="path3371"
             inkscape:connector-curvature="0" />
        </g>
        <g
           id="g3373"
           transform="translate(346.4292,355.4336)">
          <path
             d="m 0,0 c 0,0 18.793,-5.345 25.871,0 0,0 -9.386,-11.735 -18.093,-7.493 0,0 -6.042,5.028 -7.778,7.493"
             style="fill:#cd9db0;fill-opacity:1;fill-rule:nonzero;stroke:none"
             id="path3375"
             inkscape:connector-curvature="0" />
        </g>
        <g
           id="g3377"
           transform="translate(347.356,366.0859)">
          <path
             d="m 0,0 c 0,-2.094 -2.264,-3.791 -5.058,-3.791 -2.791,0 -5.055,1.697 -5.055,3.791 0,2.096 2.264,3.793 5.055,3.793 C -2.264,3.793 0,2.096 0,0"
             style="fill:#ffdcad;fill-opacity:1;fill-rule:nonzero;stroke:none"
             id="path3379"
             inkscape:connector-curvature="0" />
        </g>
        <g
           id="g3381"
           transform="translate(360.9653,258.293)">
          <path
             d="m 0,0 c 0,0 -12.766,-20.405 -5.774,-20.931 0,0 0.445,1.786 2.397,4.162 0,0 0.236,-3.637 1.552,-4.393 0,0 4.574,-1.176 3.28,5.695 0,0 1.294,-6.871 3.811,-4.527 2.516,2.343 2.516,2.343 1.587,5.794 0,0 0.705,-5.363 3.725,-2.145 0,0 0.141,13.923 -2.289,18.822 L 0,0 z"
             style="fill:#ffdcad;fill-opacity:1;fill-rule:nonzero;stroke:none"
             id="path3383"
             inkscape:connector-curvature="0" />
        </g>
        <g
           id="g3385"
           transform="translate(439.875,263.998)">
          <path
             d="m 0,0 c 0,0 0.375,-24.064 6.529,-20.705 0,0 -0.597,1.74 -0.252,4.797 0,0 2.178,-2.924 3.692,-2.845 0,0 4.48,1.499 -0.342,6.564 0,0 4.822,-5.065 5.66,-1.73 0.838,3.334 0.838,3.334 -1.816,5.728 0,0 3.506,-4.121 4.291,0.223 0,0 -7.449,11.763 -12.153,14.554 L 0,0 z"
             style="fill:#ffdcad;fill-opacity:1;fill-rule:nonzero;stroke:none"
             id="path3387"
             inkscape:connector-curvature="0" />
        </g>
        <g
           id="g3389"
           transform="translate(379.397,190.3701)">
          <path
             d="m 0,0 10.98,-6.329 c 0,0 -16.31,-34.859 -24.14,-31.994 -7.831,2.866 -9.368,4.201 -5.704,15.011 L 0,0 z"
             style="fill:#99866a;fill-opacity:1;fill-rule:nonzero;stroke:none"
             id="path3391"
             inkscape:connector-curvature="0" />
        </g>
        <g
           id="g3393"
           transform="translate(428.8574,191.1602)">
          <path
             d="m 0,0 11.018,-6.265 c 0,0 -16.11,-34.952 -23.957,-32.131 -7.848,2.82 -9.393,4.146 -5.793,14.977 L 0,0 z"
             style="fill:#99866a;fill-opacity:1;fill-rule:nonzero;stroke:none"
             id="path3395"
             inkscape:connector-curvature="0" />
        </g>
        <g
           id="g3397"
           transform="translate(416.2871,262.1855)">
          <path
             d="m 0,0 c 0,0 -47.4,-29.199 -46.262,-38.679 1.137,-9.48 15.927,-33.75 15.927,-33.75 l -10.998,-7.204 -18.581,46.263 c 0,0 -2.654,10.238 7.963,16.684 L -6.445,10.997 0,0 z"
             style="fill:#4c71a0;fill-opacity:1;fill-rule:nonzero;stroke:none"
             id="path3399"
             inkscape:connector-curvature="0" />
        </g>
        <g
           id="g3401"
           transform="translate(398.8438,341.8184)">
          <path
             d="m 0,0 -5.687,-7.584 c 0,0 31.095,-59.535 49.296,-73.565 l 5.309,7.962 c 0,0 -38.68,46.263 -48.918,73.187"
             style="fill:#4c71a0;fill-opacity:1;fill-rule:nonzero;stroke:none"
             id="path3403"
             inkscape:connector-curvature="0" />
        </g>
      </g>
    </g>
  </g>
</svg>
