<?xml version="1.0" encoding="utf-8"?>
<!-- Generator: Adobe Illustrator 16.0.0, SVG Export Plug-In . SVG Version: 6.00 Build 0)  -->
<!DOCTYPE svg PUBLIC "-//W3C//DTD SVG 1.1//EN" "http://www.w3.org/Graphics/SVG/1.1/DTD/svg11.dtd">
<svg version="1.1" id="Layer_1" xmlns="http://www.w3.org/2000/svg" xmlns:xlink="http://www.w3.org/1999/xlink" x="0px" y="0px"
	 width="600px" height="600px" viewBox="0 0 600 600" enable-background="new 0 0 600 600" xml:space="preserve">
<g>
	<path fill="#F8B69C" d="M314.876,70.023l-0.497-0.622h-35.681v76.115h-4.896v28.723h36.242v-28.723h-4.12v-0.027v-7.461
		c0-3.479,3.979-3.979,3.979-3.979h8.33v-32.822H328.8L314.876,70.023z"/>
	<path fill="#2F3E4A" d="M311.21,81.802c0,0.806-0.653,1.463-1.461,1.463s-1.461-0.657-1.461-1.463s0.653-1.463,1.461-1.463
		S311.21,80.997,311.21,81.802"/>
	<g opacity="0.4">
		<g>
			<defs>
				<rect id="SVGID_1_" x="296.837" y="75.763" width="21.397" height="58.186"/>
			</defs>
			<clipPath id="SVGID_2_">
				<use xlink:href="#SVGID_1_"  overflow="visible"/>
			</clipPath>
			<path clip-path="url(#SVGID_2_)" fill="#A3852F" d="M296.852,86.33v26.854c0,0-0.038,4.568,0,6.093
				c0.151,5.954-0.621,14.673,9.202,14.673h12.181v-32.825h-5.72h-5.717c-3.232,0-4.724-1.615-4.724-4.723V75.763h-5.222V86.33z"/>
		</g>
	</g>
	<path fill="#A3852F" d="M317.39,51.987c-3.017,0-5.634,1.63-7.087,4.04c-1.076-1.545-2.862-2.562-4.888-2.562
		c-1.372,0-2.622,0.482-3.63,1.264c-0.876-3.31-3.863-5.762-7.45-5.762c-3.517,0-6.446,2.356-7.393,5.56
		c-0.825-0.653-1.854-1.062-2.99-1.062c-1.967,0-3.65,1.176-4.409,2.858c-1.105-0.567-2.341-0.918-3.674-0.918
		c-4.46,0-8.076,3.614-8.076,8.08c0,3.019,1.677,5.62,4.131,7.007c-1.463,0.911-2.438,2.521-2.438,4.369
		c0,1.245,0.457,2.369,1.188,3.261c-1.724,1.069-2.882,2.964-2.882,5.143c0,3.142,2.405,5.697,5.47,5.998
		c-0.948,0.966-1.538,2.288-1.538,3.751c0,2.525,1.752,4.63,4.107,5.195c-1.166,0.543-1.98,1.718-1.98,3.087
		c0,1.823,1.432,3.298,3.229,3.395v0.021h3.854c11.687,0,11.062-11.066,11.062-11.066v-4.939c-0.022,0-0.05,0.008-0.075,0.008
		c-2.712,0-4.91-2.2-4.91-4.912s2.198-4.909,4.91-4.909c2.679,0,4.844,2.142,4.901,4.805h0.011v0.104v4.912h5.237V76.238h6.713
		c10.952,0,15.038-9.073,16.235-12.694c0.426-1.001,0.667-2.103,0.667-3.256C325.688,55.701,321.973,51.987,317.39,51.987
		 M299.897,62.064c0.041-0.043,0.076-0.094,0.118-0.142c0.023,0.051,0.054,0.096,0.079,0.142H299.897z"/>
	<path fill="#F8B69C" d="M318.234,108.846h-5.532c-1.277,0-3.851,0.121-3.851,3.357v2.496h9.383V108.846z"/>
	<path fill="#CF867C" d="M313.254,111.168c-0.56,0-1.013-0.455-1.013-1.014h-1.492c0,1.38,1.12,2.503,2.503,2.504h4.982v-1.49
		H313.254z"/>
	<path fill="#F8B69C" d="M336.33,314.639c-0.098,0-0.188,0.021-0.282,0.027v-1.547v-3.029H316.59v3.029v6.213v12.197
		c0,0.008-0.001,0.012-0.001,0.02s0.001,0.012,0.001,0.02v0.943h0.095c0.489,4.916,4.589,8.768,9.636,8.768
		c5.045,0,9.145-3.852,9.633-8.768h0.095v-0.943c0-0.008,0.003-0.012,0.003-0.02s-0.003-0.012-0.003-0.02v-9.984
		c0.095,0.008,0.185,0.027,0.282,0.027c1.916,0,3.468-1.553,3.468-3.465C339.798,316.191,338.246,314.639,336.33,314.639"/>
	<path fill="#415728" d="M341.613,215.164v80.255c0,2.834-2.301,5.135-5.137,5.135h-0.429v0.439v9.097h-19.459v-9.097v-5.574v-3.52
		v-76.735H341.613z"/>
	<rect x="316.586" y="300.55" fill="#D65228" width="19.46" height="9.538"/>
	<path fill="#402A19" d="M357.879,550.098c-1.804-5.359-3.5-5.961-15.107-6.52l-8.459-2.701c-4.741-1.164-8.91-3.779-12.014-7.348
		c-0.697-0.803-1.335-1.658-1.92-2.553c-5.356,0.391-4.59,5.266-4.59,5.266h-15.091v2.039v2.838v2.844v6.135v2.705v1.615h16.615
		v-1.615v-2.691l7.379,4.301h33.891C358.583,552.9,358.333,551.453,357.879,550.098"/>
	<rect x="300.697" y="275.922" fill="#A2742A" width="25.202" height="261.158"/>
	<path fill="#5C412E" d="M318.923,550.098c-1.802-5.359-3.497-5.961-15.104-6.52l-8.459-2.701
		c-4.741-1.164-8.909-3.779-12.014-7.348c-0.696-0.803-1.333-1.658-1.918-2.553c-5.358,0.391-4.59,5.266-4.59,5.266h-15.092v2.039
		v2.838v2.844v6.135v2.705v1.615h16.616v-1.615v-2.691l7.379,4.301h33.889C319.63,552.9,319.382,551.453,318.923,550.098"/>
	<rect x="261.746" y="275.922" fill="#A2742A" width="25.202" height="261.158"/>
	<rect x="261.746" y="266.481" fill="#5C412E" width="64.152" height="5.665"/>
	<rect x="261.746" y="272.146" fill="#A2742A" width="64.152" height="31.356"/>
	<rect x="275.45" y="266.481" fill="#A2742A" width="2.877" height="8.175"/>
	<rect x="316.717" y="266.481" fill="#A2742A" width="2.878" height="8.175"/>
	<path fill="#415728" d="M325.551,145.516h-12.458c-3.984,7.388-11.797,12.412-20.779,12.412c-8.983,0-16.795-5.024-20.781-12.412
		h-13.969c-8.866,0-16.053,7.19-16.053,16.054v11.764v46.62h20.235v46.527h1.592h55.952h6.694v-46.527h15.611V201.01v-16.703V161.57
		C341.596,152.707,334.411,145.516,325.551,145.516"/>
	<path fill="#D65228" d="M292.313,157.924c8.982,0,16.795-5.021,20.781-12.408h-3.156h-3.938h-0.063
		c-3.231,3.932-8.134,6.441-13.624,6.441c-5.489,0-10.393-2.51-13.623-6.441h-5.516h-1.643
		C275.518,152.904,283.33,157.924,292.313,157.924"/>
	<path fill="#D65228" d="M302.627,200.222c0,2.11,1.714,3.825,3.828,3.825h14.988c2.114,0,3.829-1.715,3.829-3.825v-19.996h-22.646
		V200.222z"/>
	<path fill="#F8B69C" d="M266.819,314.338c-0.098,0-0.187,0.021-0.281,0.029v-1.549v-3.029h-19.457v3.029v6.213v12.197
		c0,0.008-0.003,0.012-0.003,0.02s0.003,0.012,0.003,0.023v0.939h0.096c0.486,4.916,4.586,8.77,9.632,8.77s9.146-3.854,9.635-8.77
		h0.095v-0.939c0-0.012,0.002-0.016,0.002-0.023s-0.002-0.012-0.002-0.02v-9.984c0.095,0.008,0.184,0.027,0.281,0.027
		c1.916,0,3.468-1.553,3.468-3.465C270.287,315.891,268.735,314.338,266.819,314.338"/>
	<path fill="#415728" d="M241.511,214.866v80.253c0,2.834,2.3,5.134,5.136,5.134h0.429v0.439v9.097h19.461v-9.097v-5.573v-3.52
		v-76.733H241.511z"/>
	<rect x="247.075" y="300.252" fill="#D65228" width="19.461" height="9.537"/>
</g>
</svg>
