<?xml version="1.0" encoding="utf-8"?>
<!-- Generator: Adobe Illustrator 16.0.0, SVG Export Plug-In . SVG Version: 6.00 Build 0)  -->
<!DOCTYPE svg PUBLIC "-//W3C//DTD SVG 1.1//EN" "http://www.w3.org/Graphics/SVG/1.1/DTD/svg11.dtd">
<svg version="1.1" id="Layer_1" xmlns="http://www.w3.org/2000/svg" xmlns:xlink="http://www.w3.org/1999/xlink" x="0px" y="0px"
	 width="37px" height="37.053px" viewBox="0 0 37 37.053" enable-background="new 0 0 37 37.053" xml:space="preserve">
<polygon fill="#C35E46" points="0,0 37,37.053 0,37.053 "/>
<g>
	<path fill="#FFFFFF" d="M11.034,30.199c-0.08,0.18-0.06,0.3,0.08,0.3c0.28,0,1.38-0.78,1.88-1.26c0.24,0,0.44,0.22,0.38,0.479
		c-0.78,1.04-2.561,2.381-4.201,2.381c-0.52,0-0.92-0.561-0.92-0.801c0-0.22,0.08-0.46,0.24-0.859l2.081-4.981
		c0.06-0.16,0.06-0.28-0.04-0.28c-0.34,0-1.46,0.841-1.78,1.141c-0.24-0.04-0.4-0.3-0.32-0.48c1.08-1.32,2.961-2.301,4.021-2.301
		c0.44,0,0.92,0.44,0.92,0.881c0,0.2-0.14,0.58-0.26,0.88L11.034,30.199z M13.314,19.156c0.68,0,1.121,0.421,1.121,1.181
		c0,0.88-0.6,1.62-1.521,1.62c-0.74,0-1.18-0.5-1.18-1.14C11.734,19.937,12.395,19.156,13.314,19.156z"/>
</g>
</svg>
