<?xml version="1.0" encoding="UTF-8" standalone="no"?>
<!-- Created with Inkscape (http://www.inkscape.org/) -->

<svg
   xmlns:dc="http://purl.org/dc/elements/1.1/"
   xmlns:cc="http://creativecommons.org/ns#"
   xmlns:rdf="http://www.w3.org/1999/02/22-rdf-syntax-ns#"
   xmlns:svg="http://www.w3.org/2000/svg"
   xmlns="http://www.w3.org/2000/svg"
   xmlns:sodipodi="http://sodipodi.sourceforge.net/DTD/sodipodi-0.dtd"
   xmlns:inkscape="http://www.inkscape.org/namespaces/inkscape"
   id="svg2"
   version="1.1"
   inkscape:version="0.48.4 r9939"
   width="58.126877"
   height="24.076111"
   xml:space="preserve"
   sodipodi:docname="arrow-up.svg"><metadata
     id="metadata8"><rdf:RDF><cc:Work
         rdf:about=""><dc:format>image/svg+xml</dc:format><dc:type
           rdf:resource="http://purl.org/dc/dcmitype/StillImage" /><dc:title></dc:title></cc:Work></rdf:RDF></metadata><defs
     id="defs6"><clipPath
       clipPathUnits="userSpaceOnUse"
       id="clipPath16"><path
         d="M 0,1191 L 842,1191 L 842,0 L 0,0 L 0,1191 z"
         id="path18"
         inkscape:connector-curvature="0" /></clipPath><clipPath
       clipPathUnits="userSpaceOnUse"
       id="clipPath228"><path
         d="M 262.558,910.449 C 267.27,907.059 271.406,905.008 270.237,899.479 L 270.237,899.479 C 269.546,896.261 264.872,894.869 264.206,891.801 L 264.206,891.801 C 263.702,889.538 266.541,884.732 266.944,881.93 L 266.944,881.93 C 272.246,889.597 279.737,895.097 284.497,903.317 L 284.497,903.317 C 278.392,909.648 270.55,914.239 263.099,919.221 L 263.099,919.221 C 262.735,915.359 263.2,913.587 262.558,910.449"
         id="path230"
         inkscape:connector-curvature="0" /></clipPath><linearGradient
       x1="0"
       y1="0"
       x2="1"
       y2="0"
       gradientUnits="userSpaceOnUse"
       gradientTransform="matrix(5.2051849,-42.392853,-42.392853,-5.2051849,271.95166,916.43359)"
       spreadMethod="pad"
       id="linearGradient236"><stop
         style="stop-opacity:1;stop-color:#ffffff"
         offset="0"
         id="stop238" /><stop
         style="stop-opacity:1;stop-color:#d3d2d2"
         offset="1"
         id="stop240" /></linearGradient><clipPath
       clipPathUnits="userSpaceOnUse"
       id="clipPath248"><path
         d="M 0,1191 L 842,1191 L 842,0 L 0,0 L 0,1191 z"
         id="path250"
         inkscape:connector-curvature="0" /></clipPath><clipPath
       clipPathUnits="userSpaceOnUse"
       id="clipPath260"><path
         d="M 216.731,903.317 C 221.492,895.097 228.982,889.597 234.284,881.93 L 234.284,881.93 C 234.688,884.732 237.526,889.538 237.023,891.801 L 237.023,891.801 C 236.357,894.869 231.682,896.261 230.991,899.479 L 230.991,899.479 C 229.823,905.008 233.959,907.059 238.67,910.449 L 238.67,910.449 C 238.029,913.587 238.493,915.359 238.129,919.221 L 238.129,919.221 C 230.678,914.239 222.835,909.648 216.731,903.317"
         id="path262"
         inkscape:connector-curvature="0" /></clipPath><linearGradient
       x1="0"
       y1="0"
       x2="1"
       y2="0"
       gradientUnits="userSpaceOnUse"
       gradientTransform="matrix(25.200409,-27.987884,-27.987884,-25.200409,222.26318,916.06152)"
       spreadMethod="pad"
       id="linearGradient268"><stop
         style="stop-opacity:1;stop-color:#ffffff"
         offset="0"
         id="stop270" /><stop
         style="stop-opacity:1;stop-color:#d3d2d2"
         offset="1"
         id="stop272" /></linearGradient><clipPath
       clipPathUnits="userSpaceOnUse"
       id="clipPath280"><path
         d="M 269.21,422.564 L 267.72,387.125 C 267.72,387.125 268.934,387.456 269.87,388.56 L 269.87,388.56 C 270.808,389.664 292.973,398.496 292.973,398.496 L 292.973,398.496 C 292.973,398.496 288.066,401.035 285.419,401.808 L 285.419,401.808 C 282.773,402.581 280.512,404.899 277.645,407.769 L 277.645,407.769 C 274.778,410.64 269.975,423.194 269.975,423.194 L 269.975,423.194 L 269.21,422.564 z"
         id="path282"
         inkscape:connector-curvature="0" /></clipPath><linearGradient
       x1="0"
       y1="0"
       x2="1"
       y2="0"
       gradientUnits="userSpaceOnUse"
       gradientTransform="matrix(26.934463,29.913757,29.913757,-26.934463,257.74121,384.59668)"
       spreadMethod="pad"
       id="linearGradient288"><stop
         style="stop-opacity:1;stop-color:#d3d2d2"
         offset="0"
         id="stop290" /><stop
         style="stop-opacity:1;stop-color:#ffffff"
         offset="1"
         id="stop292" /></linearGradient><clipPath
       clipPathUnits="userSpaceOnUse"
       id="clipPath300"><path
         d="M 223.583,407.769 C 220.716,404.899 218.456,402.581 215.809,401.808 L 215.809,401.808 C 213.162,401.035 208.255,398.496 208.255,398.496 L 208.255,398.496 C 208.255,398.496 230.42,389.664 231.358,388.56 L 231.358,388.56 C 232.294,387.456 233.508,387.125 233.508,387.125 L 233.508,387.125 L 232.018,422.564 L 231.253,423.194 C 231.253,423.194 226.451,410.64 223.583,407.769"
         id="path302"
         inkscape:connector-curvature="0" /></clipPath><linearGradient
       x1="0"
       y1="0"
       x2="1"
       y2="0"
       gradientUnits="userSpaceOnUse"
       gradientTransform="matrix(-26.772018,30.797684,30.797684,26.772018,239.73291,387.9873)"
       spreadMethod="pad"
       id="linearGradient308"><stop
         style="stop-opacity:1;stop-color:#d3d2d2"
         offset="0"
         id="stop310" /><stop
         style="stop-opacity:1;stop-color:#ffffff"
         offset="1"
         id="stop312" /></linearGradient><clipPath
       clipPathUnits="userSpaceOnUse"
       id="clipPath320"><path
         d="M 265.019,411.467 C 264.137,407.825 262.679,404.017 262.66,403.688 L 262.66,403.688 C 262.642,403.357 259.616,386.186 259.616,386.186 L 259.616,386.186 L 266.563,385.799 C 266.563,385.799 270.533,410.916 268.547,424.386 L 268.547,424.386 C 268.547,424.386 265.9,415.111 265.019,411.467"
         id="path322"
         inkscape:connector-curvature="0" /></clipPath><linearGradient
       x1="0"
       y1="0"
       x2="1"
       y2="0"
       gradientUnits="userSpaceOnUse"
       gradientTransform="matrix(-10.0952,47.494186,47.494186,10.0952,266.47266,394.03906)"
       spreadMethod="pad"
       id="linearGradient328"><stop
         style="stop-opacity:1;stop-color:#d3d2d2"
         offset="0"
         id="stop330" /><stop
         style="stop-opacity:1;stop-color:#ffffff"
         offset="1"
         id="stop332" /></linearGradient><clipPath
       clipPathUnits="userSpaceOnUse"
       id="clipPath340"><path
         d="M 234.665,385.799 L 241.612,386.186 C 241.612,386.186 238.585,403.357 238.568,403.688 L 238.568,403.688 C 238.549,404.017 237.091,407.825 236.21,411.467 L 236.21,411.467 C 235.327,415.111 232.681,424.386 232.681,424.386 L 232.681,424.386 C 230.696,410.916 234.665,385.799 234.665,385.799"
         id="path342"
         inkscape:connector-curvature="0" /></clipPath><linearGradient
       x1="0"
       y1="0"
       x2="1"
       y2="0"
       gradientUnits="userSpaceOnUse"
       gradientTransform="matrix(10.872482,47.093903,47.093903,-10.872482,228.42578,367.5166)"
       spreadMethod="pad"
       id="linearGradient348"><stop
         style="stop-opacity:1;stop-color:#d3d2d2"
         offset="0"
         id="stop350" /><stop
         style="stop-opacity:1;stop-color:#ffffff"
         offset="1"
         id="stop352" /></linearGradient><clipPath
       clipPathUnits="userSpaceOnUse"
       id="clipPath360"><path
         d="M 0,1191 L 842,1191 L 842,0 L 0,0 L 0,1191 z"
         id="path362"
         inkscape:connector-curvature="0" /></clipPath><clipPath
       clipPathUnits="userSpaceOnUse"
       id="clipPath376"><path
         d="M 260.27,275.085 C 260.676,274.849 260.817,274.247 260.817,273.991 L 260.817,273.991 C 260.721,265.03 260.272,253.092 260.472,243.688 L 260.472,243.688 C 262.875,246.216 264.912,248.306 265.088,252.546 L 265.088,252.546 C 265.458,261.355 264.523,270.174 265.203,278.908 L 265.203,278.908 C 263.056,278.364 262.206,275.936 260.27,275.085"
         id="path378"
         inkscape:connector-curvature="0" /></clipPath><linearGradient
       x1="0"
       y1="0"
       x2="1"
       y2="0"
       gradientUnits="userSpaceOnUse"
       gradientTransform="matrix(1.6927795,48.474731,48.474731,-1.6927795,261.771,237.76953)"
       spreadMethod="pad"
       id="linearGradient384"><stop
         style="stop-opacity:1;stop-color:#d3d2d2"
         offset="0"
         id="stop386" /><stop
         style="stop-opacity:1;stop-color:#393536"
         offset="1"
         id="stop388" /></linearGradient><clipPath
       clipPathUnits="userSpaceOnUse"
       id="clipPath396"><path
         d="M 0,1191 L 842,1191 L 842,0 L 0,0 L 0,1191 z"
         id="path398"
         inkscape:connector-curvature="0" /></clipPath><clipPath
       clipPathUnits="userSpaceOnUse"
       id="clipPath412"><path
         d="M 283.105,251.725 C 283.183,252.156 282.895,252.084 282.499,252.011 L 282.499,252.011 C 282.095,251.937 281.579,251.863 281.224,252.32 L 281.224,252.32 C 280.836,251.36 277.862,251.348 279.182,250.703 L 279.182,250.703 C 278.951,250.025 278.474,249.698 277.759,249.72 L 277.759,249.72 C 278.04,250.139 278.876,250.809 278.023,251.165 L 278.023,251.165 C 277.154,250.903 276.709,250.028 275.788,249.835 L 275.788,249.835 C 276.077,250.221 276.73,250.43 275.966,250.797 L 275.966,250.797 C 272.442,249.772 269.243,249.839 266.215,247.859 L 266.215,247.859 C 266.173,248.179 265.998,248.408 265.582,248.474 L 265.582,248.474 C 264.814,246.839 262.925,245.561 262.971,243.727 L 262.971,243.727 C 265.54,243.619 266.802,244.469 269.386,244.788 L 269.386,244.788 C 269.83,245.644 269.357,245.928 270.133,246.145 L 270.133,246.145 C 270.119,245.854 269.969,245.467 270.243,245.377 L 270.243,245.377 C 271.204,245.525 272.869,245.613 273.531,247.013 L 273.531,247.013 C 273.496,245.707 274.662,246.931 274.822,247.273 L 274.822,247.273 C 275.116,246.646 275.647,246.949 276.188,247.253 L 276.188,247.253 C 276.512,247.434 276.84,247.616 277.123,247.598 L 277.123,247.598 C 280.212,248.092 282.763,248.718 285.118,249.115 L 285.118,249.115 C 286.572,249.359 288.181,250.582 290.088,250.441 L 290.088,250.441 C 290.18,250.719 290.169,251.134 290.464,251.119 L 290.464,251.119 C 292.937,250.742 294.497,252.616 295.442,255.183 L 295.442,255.183 C 291.748,253.424 286.848,253.412 283.105,251.725"
         id="path414"
         inkscape:connector-curvature="0" /></clipPath><linearGradient
       x1="0"
       y1="0"
       x2="1"
       y2="0"
       gradientUnits="userSpaceOnUse"
       gradientTransform="matrix(64.39978,0,0,-64.399765,247.04834,249.45117)"
       spreadMethod="pad"
       id="linearGradient420"><stop
         style="stop-opacity:1;stop-color:#e9e9e9"
         offset="0"
         id="stop422" /><stop
         style="stop-opacity:1;stop-color:#ffffff"
         offset="1"
         id="stop424" /></linearGradient><clipPath
       clipPathUnits="userSpaceOnUse"
       id="clipPath432"><path
         d="M 236.14,269.162 C 235.77,260.353 236.705,251.533 236.025,242.801 L 236.025,242.801 C 238.171,243.346 239.023,245.771 240.958,246.622 L 240.958,246.622 C 240.553,246.859 240.412,247.462 240.412,247.719 L 240.412,247.719 C 240.508,256.677 240.956,268.618 240.757,278.021 L 240.757,278.021 C 238.354,275.492 236.317,273.402 236.14,269.162"
         id="path434"
         inkscape:connector-curvature="0" /></clipPath><linearGradient
       x1="0"
       y1="0"
       x2="1"
       y2="0"
       gradientUnits="userSpaceOnUse"
       gradientTransform="matrix(0.4574585,-26.207871,-26.207871,-0.4574585,238.1665,273.3125)"
       spreadMethod="pad"
       id="linearGradient440"><stop
         style="stop-opacity:1;stop-color:#d3d2d2"
         offset="0"
         id="stop442" /><stop
         style="stop-opacity:1;stop-color:#393536"
         offset="1"
         id="stop444" /></linearGradient><clipPath
       clipPathUnits="userSpaceOnUse"
       id="clipPath452"><path
         d="M 0,1191 L 842,1191 L 842,0 L 0,0 L 0,1191 z"
         id="path454"
         inkscape:connector-curvature="0" /></clipPath><clipPath
       clipPathUnits="userSpaceOnUse"
       id="clipPath464"><path
         d="M 233.065,269.45 C 232.861,269.453 232.658,269.456 232.438,269.344 L 232.438,269.344 C 232.647,268.689 232.887,268.827 233.266,268.965 L 233.266,268.965 C 233.439,269.028 233.643,269.091 233.886,269.078 L 233.886,269.078 C 233.329,268.971 233.69,267.528 233.096,267.482 L 233.096,267.482 C 233.401,268.673 232.229,268.85 231.717,269.475 L 231.717,269.475 C 231.647,268.815 231.438,269.016 231.165,269.218 L 231.165,269.218 C 231.027,269.32 230.873,269.421 230.713,269.412 L 230.713,269.412 C 230.159,268.133 229.07,269.008 227.992,268.171 L 227.992,268.171 C 228.064,268.475 228.362,268.447 228.368,268.847 L 228.368,268.847 C 227.119,269.039 226.336,268.835 225.257,268.175 L 225.257,268.175 C 225.681,267.016 225.26,267.889 226.221,267.998 L 226.221,267.998 C 225.475,266.305 225.794,262.88 224.543,261.587 L 224.543,261.587 C 224.367,263.399 225.717,264.965 224.903,266.249 L 224.903,266.249 C 224.812,265.973 224.82,265.557 224.532,265.57 L 224.532,265.57 C 223.988,266.358 224.933,266.536 225.079,267.212 L 225.079,267.212 C 223.903,266.737 224.689,267.983 224.054,268.397 L 224.054,268.397 C 223.915,267.983 223.539,267.924 223,268.091 L 223,268.091 C 222.74,267.363 223.354,266.821 222.628,267.413 L 222.628,267.413 C 222.924,265.287 222.87,264.813 222.225,262.51 L 222.225,262.51 C 222.159,263.608 221.835,265.848 222.342,267.217 L 222.342,267.217 C 222.055,267.298 221.789,267.393 221.952,267.786 L 221.952,267.786 C 221.035,268.02 220.378,267.628 219.772,267.236 L 219.772,267.236 C 219.068,266.78 218.435,266.323 217.548,266.854 L 217.548,266.854 C 217.452,265.527 217.907,264.575 217.607,263.11 L 217.607,263.11 C 217.427,263.133 217.28,263.114 217.159,263.096 L 217.159,263.096 C 216.875,263.052 216.742,263.008 216.686,263.528 L 216.686,263.528 C 217.677,263.798 216.173,265.848 217.025,266.702 L 217.025,266.702 C 216.031,266.82 215.822,265.801 215.27,265.281 L 215.27,265.281 C 215.45,265.257 215.597,265.276 215.716,265.295 L 215.716,265.295 C 215.998,265.34 216.128,265.384 216.184,264.865 L 216.184,264.865 C 215.348,264.962 215.734,263.282 215.108,263.071 L 215.108,263.071 C 214.931,263.158 214.636,263.164 214.673,263.399 L 214.673,263.399 C 215.123,263.558 215.413,263.951 215.418,264.755 L 215.418,264.755 C 215.192,264.956 214.956,264.871 214.773,264.787 L 214.773,264.787 C 214.564,264.691 214.426,264.594 214.457,264.931 L 214.457,264.931 C 215.036,265.405 215.052,265.49 214.679,266.134 L 214.679,266.134 C 214.057,266.223 213.755,265.849 213.345,265.635 L 213.345,265.635 C 214.069,265.229 214.023,263.798 213.184,263.424 L 213.184,263.424 C 213.54,264.158 212.449,263.902 212.638,264.521 L 212.638,264.521 C 212.911,264.735 213.54,264.432 213.493,265.109 L 213.493,265.109 C 213.161,265.232 213.164,265.58 212.86,265.723 L 212.86,265.723 C 212.718,265.114 212.261,264.962 211.916,264.654 L 211.916,264.654 C 212.074,265.827 211.142,264.724 210.911,264.589 L 210.911,264.589 C 209.671,265.445 206.115,263.972 203.964,263.376 L 203.964,263.376 C 204.127,262.924 204.52,262.635 205.321,262.63 L 205.321,262.63 C 207.047,260.031 210.991,258.969 212.909,256.506 L 212.909,256.506 C 220.12,253.409 226.402,246.757 233.708,243.724 L 233.708,243.724 C 233.221,242.748 233.852,241.459 234.644,242.059 L 234.644,242.059 C 233.762,242.77 235.095,245.785 234.416,247.577 L 234.416,247.577 C 235.635,247.453 234.472,248.341 234.637,248.781 L 234.637,248.781 C 234.88,248.738 234.888,248.533 235.074,248.451 L 235.074,248.451 C 234.96,252.153 234.901,255.21 235.139,259.639 L 235.139,259.639 C 234.671,259.669 234.66,260.008 234.217,260.057 L 234.217,260.057 C 233.018,259.28 234.481,257.712 233.052,257.783 L 233.052,257.783 C 233.346,257.979 233.387,259.077 233.125,259.512 L 233.125,259.512 C 232.383,259.386 232.443,260.548 231.613,260.785 L 231.613,260.785 C 231.391,260.383 232.137,259.654 231.393,259.58 L 231.393,259.58 C 231.232,259.61 231.073,259.639 230.911,259.669 L 230.911,259.669 C 231.025,260.309 231.305,261.061 230.699,261.202 L 230.699,261.202 C 230.512,260.348 230.279,259.57 229.622,259.409 L 229.622,259.409 C 230.238,259.816 229.626,260.118 229.886,260.853 L 229.886,260.853 C 229.495,260.976 229.361,260.725 229.227,260.476 L 229.227,260.476 C 229.117,260.269 229.005,260.061 228.746,260.068 L 228.746,260.068 C 229.277,260.015 229.475,259.728 229.334,259.212 L 229.334,259.212 C 228.605,259.56 228.521,258.97 228.043,258.952 L 228.043,258.952 C 227.303,260.139 229.711,260.608 228.53,261.601 L 228.53,261.601 C 228.481,260.958 228.252,260.581 227.632,260.77 L 227.632,260.77 C 227.728,262.047 228.277,262.675 228.84,263.287 L 228.84,263.287 C 228.751,262.871 229.744,261.691 229.998,262.824 L 229.998,262.824 C 229.999,263.385 228.673,263.029 228.928,263.767 L 228.928,263.767 C 229.906,263.867 229.647,264.85 229.762,265.605 L 229.762,265.605 C 229.888,265.256 230.253,265.308 230.633,265.36 L 230.633,265.36 C 231.048,265.416 231.481,265.473 231.643,265.01 L 231.643,265.01 C 231.446,264.991 231.331,264.859 231.317,264.572 L 231.317,264.572 C 231.053,264.941 230.486,265.045 230.11,264.793 L 230.11,264.793 C 230.667,263.707 230.842,262.354 231.178,261.115 L 231.178,261.115 C 231.191,262.458 231.319,262.559 231.665,263.762 L 231.665,263.762 C 231.493,263.894 231.298,263.813 231.129,263.731 L 231.129,263.731 C 230.899,263.619 230.715,263.507 230.701,263.939 L 230.701,263.939 C 231.709,263.788 230.778,264.089 230.788,264.42 L 230.788,264.42 C 231.508,264.494 231.348,263.968 231.952,263.958 L 231.952,263.958 C 232.085,264.681 232.217,265.404 232.349,266.125 L 232.349,266.125 C 232.77,265.508 232.781,265.955 232.863,266.403 L 232.863,266.403 C 232.932,266.772 233.049,267.141 233.487,266.911 L 233.487,266.911 C 233.014,266.107 233.341,266.026 232.934,265.271 L 232.934,265.271 C 234.244,265.29 233.47,263.874 233.634,263.65 L 233.634,263.65 C 233.64,263.995 233.96,263.887 234.279,263.779 L 234.279,263.779 C 234.598,263.671 234.918,263.563 234.924,263.909 L 234.924,263.909 C 234.68,264.208 234.619,264.154 234.459,264.1 L 234.459,264.1 C 234.358,264.064 234.217,264.03 233.965,264.086 L 233.965,264.086 C 234.862,265.056 232.935,266.829 233.906,267.829 L 233.906,267.829 C 234.233,267.007 233.992,265.787 234.667,265.201 L 234.667,265.201 C 234.606,267.075 235.447,268.707 234.348,270.238 L 234.348,270.238 C 233.842,269.44 233.454,269.445 233.065,269.45"
         id="path466"
         inkscape:connector-curvature="0" /></clipPath><linearGradient
       x1="0"
       y1="0"
       x2="1"
       y2="0"
       gradientUnits="userSpaceOnUse"
       gradientTransform="matrix(47.026459,0,0,-47.026459,195.6626,256.07227)"
       spreadMethod="pad"
       id="linearGradient472"><stop
         style="stop-opacity:1;stop-color:#e9e9e9"
         offset="0"
         id="stop474" /><stop
         style="stop-opacity:1;stop-color:#ffffff"
         offset="1"
         id="stop476" /></linearGradient><clipPath
       clipPathUnits="userSpaceOnUse"
       id="clipPath484"><path
         d="M 0,1191 L 842,1191 L 842,0 L 0,0 L 0,1191 z"
         id="path486"
         inkscape:connector-curvature="0" /></clipPath><clipPath
       clipPathUnits="userSpaceOnUse"
       id="clipPath572"><path
         d="M 240.664,672.298 C 240.664,672.298 235.364,659.071 230.418,653.607 L 230.418,653.607 C 225.47,648.145 217.008,651.179 217.008,651.179 L 217.008,651.179 L 243.133,632.135 L 236.446,652.749 L 243.969,676.185 L 240.664,672.298 z"
         id="path574"
         inkscape:connector-curvature="0" /></clipPath><linearGradient
       x1="0"
       y1="0"
       x2="1"
       y2="0"
       gradientUnits="userSpaceOnUse"
       gradientTransform="matrix(121.14848,0,0,-121.14847,169.91406,654.16016)"
       spreadMethod="pad"
       id="linearGradient580"><stop
         style="stop-opacity:1;stop-color:#e9e9e9"
         offset="0"
         id="stop582" /><stop
         style="stop-opacity:1;stop-color:#ffffff"
         offset="1"
         id="stop584" /></linearGradient><clipPath
       clipPathUnits="userSpaceOnUse"
       id="clipPath592"><path
         d="M 264.784,652.749 L 258.095,632.135 L 284.221,651.179 C 284.221,651.179 275.756,648.145 270.81,653.607 L 270.81,653.607 C 265.865,659.071 260.566,672.298 260.566,672.298 L 260.566,672.298 L 257.258,676.185 L 264.784,652.749 z"
         id="path594"
         inkscape:connector-curvature="0" /></clipPath><linearGradient
       x1="0"
       y1="0"
       x2="1"
       y2="0"
       gradientUnits="userSpaceOnUse"
       gradientTransform="matrix(-121.16583,-1.53e-5,-1.53e-5,121.16583,331.32227,654.15967)"
       spreadMethod="pad"
       id="linearGradient600"><stop
         style="stop-opacity:1;stop-color:#e9e9e9"
         offset="0"
         id="stop602" /><stop
         style="stop-opacity:1;stop-color:#ffffff"
         offset="1"
         id="stop604" /></linearGradient><clipPath
       clipPathUnits="userSpaceOnUse"
       id="clipPath612"><path
         d="M 0,1191 L 842,1191 L 842,0 L 0,0 L 0,1191 z"
         id="path614"
         inkscape:connector-curvature="0" /></clipPath><clipPath
       clipPathUnits="userSpaceOnUse"
       id="clipPath628"><path
         d="M 216.452,653.315 C 224.299,646.472 232.418,640.177 241.258,635.696 L 241.258,635.696 C 239.602,641.328 236.965,646.173 235.462,651.925 L 235.462,651.925 C 237.325,658.552 239.862,664.312 240.664,672.298 L 240.664,672.298 C 232.582,665.976 224.998,659.023 216.452,653.315"
         id="path630"
         inkscape:connector-curvature="0" /></clipPath><linearGradient
       x1="0"
       y1="0"
       x2="1"
       y2="0"
       gradientUnits="userSpaceOnUse"
       gradientTransform="matrix(-17.118622,18.357483,18.357483,17.118622,245.58545,644.54639)"
       spreadMethod="pad"
       id="linearGradient636"><stop
         style="stop-opacity:1;stop-color:#d3d2d2"
         offset="0"
         id="stop638" /><stop
         style="stop-opacity:1;stop-color:#ffffff"
         offset="1"
         id="stop640" /></linearGradient><clipPath
       clipPathUnits="userSpaceOnUse"
       id="clipPath648"><path
         d="M 265.767,651.925 C 264.263,646.173 261.624,641.326 259.969,635.696 L 259.969,635.696 C 268.812,640.177 276.929,646.472 284.777,653.315 L 284.777,653.315 C 276.228,659.023 268.646,665.976 260.566,672.298 L 260.566,672.298 C 261.366,664.312 263.904,658.552 265.767,651.925"
         id="path650"
         inkscape:connector-curvature="0" /></clipPath><linearGradient
       x1="0"
       y1="0"
       x2="1"
       y2="0"
       gradientUnits="userSpaceOnUse"
       gradientTransform="matrix(17.498474,18.120209,18.120209,-17.498474,253.81836,643.28271)"
       spreadMethod="pad"
       id="linearGradient656"><stop
         style="stop-opacity:1;stop-color:#d3d2d2"
         offset="0"
         id="stop658" /><stop
         style="stop-opacity:1;stop-color:#ffffff"
         offset="1"
         id="stop660" /></linearGradient><clipPath
       clipPathUnits="userSpaceOnUse"
       id="clipPath668"><path
         d="M 0,1191 L 842,1191 L 842,0 L 0,0 L 0,1191 z"
         id="path670"
         inkscape:connector-curvature="0" /></clipPath><clipPath
       clipPathUnits="userSpaceOnUse"
       id="clipPath904"><path
         d="M 152.491,290.322 C 150.942,290.3 150.51,291.391 149.439,291.844 L 149.439,291.844 C 149.172,288.122 149.148,286.395 149.439,282.193 L 149.439,282.193 C 146.03,281.426 140.867,281.88 138.785,281.182 L 138.785,281.182 C 139.329,281.058 139.992,280.348 139.285,280.171 L 139.285,280.171 C 139.042,281.071 138.75,279.943 138.27,279.664 L 138.27,279.664 C 137.574,283.238 132.35,280.552 128.626,282.701 L 128.626,282.701 C 128.872,280.241 127.811,278.779 126.081,279.664 L 126.081,279.664 C 126.509,276.709 126.021,275.647 126.594,272.551 L 126.594,272.551 C 133.688,275.547 140.259,276.788 147.416,275.594 L 147.416,275.594 C 147.602,270.796 146.695,267.541 147.919,263.408 L 147.919,263.408 C 156.443,269.657 168.751,272.922 176.864,278.141 L 176.864,278.141 C 173.892,280.436 169.287,277.986 168.23,282.193 L 168.23,282.193 C 166.648,281.464 164.819,282.159 164.668,284.226 L 164.668,284.226 C 165.273,284.154 165.822,283.327 166.196,284.226 L 166.196,284.226 C 164.809,285.442 163.132,285.231 161.121,284.733 L 161.121,284.733 C 160.411,285.049 161.038,286.684 160.108,286.767 L 160.108,286.767 C 159.979,284.107 155.735,289.138 154.523,290.322 L 154.523,290.322 C 155.153,290.527 155.558,290.975 155.537,291.844 L 155.537,291.844 C 152.499,292.021 152.139,294.889 149.439,295.4 L 149.439,295.4 C 149.439,292.693 151.381,291.921 152.491,290.322"
         id="path906"
         inkscape:connector-curvature="0" /></clipPath><linearGradient
       x1="0"
       y1="0"
       x2="1"
       y2="0"
       gradientUnits="userSpaceOnUse"
       gradientTransform="matrix(55.88237,0,0,-55.88237,123.56201,279.40332)"
       spreadMethod="pad"
       id="linearGradient912"><stop
         style="stop-opacity:1;stop-color:#d3d2d2"
         offset="0"
         id="stop914" /><stop
         style="stop-opacity:1;stop-color:#ffffff"
         offset="1"
         id="stop916" /></linearGradient><clipPath
       clipPathUnits="userSpaceOnUse"
       id="clipPath924"><path
         d="M 0,1191 L 842,1191 L 842,0 L 0,0 L 0,1191 z"
         id="path926"
         inkscape:connector-curvature="0" /></clipPath><clipPath
       clipPathUnits="userSpaceOnUse"
       id="clipPath940"><path
         d="M 65.777,291.845 C 65.756,290.974 66.162,290.527 66.79,290.319 L 66.79,290.319 C 65.579,289.135 61.333,284.107 61.204,286.769 L 61.204,286.769 C 60.277,286.687 60.902,285.049 60.193,284.733 L 60.193,284.733 C 58.18,285.232 56.506,285.442 55.121,284.226 L 55.121,284.226 C 55.492,283.326 56.039,284.154 56.643,284.226 L 56.643,284.226 C 56.494,282.159 54.667,281.463 53.085,282.195 L 53.085,282.195 C 52.026,277.985 47.42,280.437 44.451,278.139 L 44.451,278.139 C 52.562,272.92 64.87,269.656 73.398,263.408 L 73.398,263.408 C 74.62,267.542 73.712,270.799 73.898,275.594 L 73.898,275.594 C 81.052,276.787 87.626,275.547 94.722,272.552 L 94.722,272.552 C 95.294,275.648 94.806,276.709 95.235,279.664 L 95.235,279.664 C 93.502,278.775 92.443,280.241 92.687,282.7 L 92.687,282.7 C 88.965,280.552 83.741,283.236 83.042,279.664 L 83.042,279.664 C 82.566,279.943 82.273,281.068 82.031,280.171 L 82.031,280.171 C 81.321,280.35 81.984,281.056 82.53,281.182 L 82.53,281.182 C 80.448,281.879 75.283,281.426 71.874,282.195 L 71.874,282.195 C 72.164,286.393 72.14,288.121 71.874,291.845 L 71.874,291.845 C 70.804,291.393 70.373,290.3 68.825,290.319 L 68.825,290.319 C 69.933,291.922 71.874,292.691 71.874,295.401 L 71.874,295.401 C 69.174,294.889 68.815,292.023 65.777,291.845"
         id="path942"
         inkscape:connector-curvature="0" /></clipPath><linearGradient
       x1="0"
       y1="0"
       x2="1"
       y2="0"
       gradientUnits="userSpaceOnUse"
       gradientTransform="matrix(-50.722748,0,0,50.722748,95.234863,279.40332)"
       spreadMethod="pad"
       id="linearGradient948"><stop
         style="stop-opacity:1;stop-color:#d3d2d2"
         offset="0"
         id="stop950" /><stop
         style="stop-opacity:1;stop-color:#ffffff"
         offset="1"
         id="stop952" /></linearGradient><clipPath
       clipPathUnits="userSpaceOnUse"
       id="clipPath960"><path
         d="M 0,1191 L 842,1191 L 842,0 L 0,0 L 0,1191 z"
         id="path962"
         inkscape:connector-curvature="0" /></clipPath><clipPath
       clipPathUnits="userSpaceOnUse"
       id="clipPath1048"><path
         d="M 348.417,1130.133 C 347.498,1129.927 346.452,1129.378 347.515,1128.912 L 347.515,1128.912 C 347.509,1129.585 348.892,1130.046 349.5,1130.133 L 349.5,1130.133 C 348.727,1129.881 348.197,1127.939 349.5,1128.044 L 349.5,1128.044 C 349.174,1128.087 350.092,1128.707 349.319,1128.305 L 349.319,1128.305 C 348.953,1128.883 349.366,1129.539 350.042,1129.87 L 350.042,1129.87 C 349.878,1129.511 349.185,1128.955 349.68,1128.567 L 349.68,1128.567 C 349.806,1128.768 349.751,1129.189 350.219,1129.437 L 350.219,1129.437 C 350.33,1129.316 350.913,1129.423 350.941,1129.262 L 350.941,1129.262 C 350.105,1129.203 349.861,1127.7 350.762,1127.869 L 350.762,1127.869 C 350.578,1128.164 350.982,1128.92 351.663,1129.088 L 351.663,1129.088 C 351.71,1128.831 351.257,1128.819 351.302,1128.567 L 351.302,1128.567 C 351.64,1128.55 351.967,1128.618 352.279,1128.685 L 352.279,1128.685 C 352.712,1128.78 353.113,1128.874 353.466,1128.741 L 353.466,1128.741 C 353.22,1128.677 352.535,1128.387 353.104,1128.219 L 353.104,1128.219 C 353.295,1128.478 353.624,1128.614 354.189,1128.478 L 354.189,1128.478 C 352.984,1127.909 351.955,1126.444 353.645,1125.869 L 353.645,1125.869 C 353.335,1125.872 353.184,1125.801 353.104,1125.694 L 353.104,1125.694 C 354.379,1125.302 354.212,1124.752 355.45,1124.39 L 355.45,1124.39 C 355.293,1124.689 355.455,1124.718 355.088,1124.996 L 355.088,1124.996 C 355.211,1125.109 355.393,1125.078 355.543,1125.048 L 355.543,1125.048 C 355.72,1125.013 355.855,1124.977 355.809,1125.171 L 355.809,1125.171 C 355.335,1125.199 355.562,1125.393 355.45,1125.869 L 355.45,1125.869 C 356.155,1125.67 355.909,1125.998 356.35,1126.129 L 356.35,1126.129 C 356.491,1125.481 356.098,1125.089 356.17,1124.475 L 356.17,1124.475 C 356.485,1124.482 356.73,1124.455 356.891,1124.39 L 356.891,1124.39 C 356.895,1124.649 356.873,1124.919 357.432,1124.91 L 357.432,1124.91 C 357.342,1124.427 357.517,1124.437 357.613,1123.865 L 357.613,1123.865 C 358.239,1124.02 358.298,1123.943 358.874,1124.04 L 358.874,1124.04 C 359.103,1123.512 359.107,1122.445 360.496,1122.561 L 360.496,1122.561 C 360.389,1122.855 360.36,1123.229 360.053,1123.256 L 360.053,1123.256 C 360.028,1123.252 359.996,1123.251 359.956,1123.254 L 359.956,1123.254 C 359.991,1123.258 360.023,1123.259 360.053,1123.256 L 360.053,1123.256 C 360.149,1123.272 360.149,1123.335 360.148,1123.397 L 360.148,1123.397 C 360.147,1123.493 360.145,1123.59 360.496,1123.517 L 360.496,1123.517 C 360.327,1122.884 361.012,1122.663 361.397,1122.299 L 361.397,1122.299 C 361.05,1122.46 361.255,1122.457 360.677,1122.385 L 360.677,1122.385 C 360.629,1121.897 361.37,1121.793 361.939,1121.602 L 361.939,1121.602 C 361.25,1121.656 362.21,1121.286 362.12,1121.08 L 362.12,1121.08 C 362.243,1120.97 362.417,1120.999 362.564,1121.026 L 362.564,1121.026 C 362.703,1121.053 362.817,1121.08 362.842,1120.992 L 362.842,1120.992 C 362.659,1120.61 363.569,1120.249 364.464,1120.297 L 364.464,1120.297 C 364.699,1120.513 363.935,1120.657 364.464,1120.733 L 364.464,1120.733 C 364.676,1120.689 364.872,1120.64 365.005,1120.558 L 365.005,1120.558 C 364.552,1120.416 364.747,1120.074 363.921,1119.949 L 363.921,1119.949 C 364.511,1119.979 365.09,1119.816 364.643,1119.601 L 364.643,1119.601 C 364.925,1119.547 365.115,1119.548 365.275,1119.55 L 365.275,1119.55 C 365.487,1119.551 365.647,1119.553 365.906,1119.425 L 365.906,1119.425 C 365.85,1119.309 365.65,1119.26 365.726,1119.079 L 365.726,1119.079 C 365.939,1119.001 366.203,1119.012 366.418,1119.022 L 366.418,1119.022 C 366.607,1119.031 366.758,1119.041 366.808,1118.992 L 366.808,1118.992 C 366.478,1118.89 367.22,1118.917 366.808,1118.644 L 366.808,1118.644 C 367.23,1118.672 367.552,1118.746 367.889,1118.816 L 367.889,1118.816 C 368.168,1118.545 368.058,1118.404 367.603,1118.308 L 367.603,1118.308 C 367.808,1118.34 368.021,1118.309 368.198,1118.278 L 368.198,1118.278 C 368.479,1118.228 368.672,1118.178 368.61,1118.382 L 368.61,1118.382 C 368.527,1118.59 368.926,1118.814 368.429,1119.165 L 368.429,1119.165 C 367.857,1119.153 367.637,1118.967 366.988,1118.992 L 366.988,1118.992 C 367.346,1119.274 367.082,1119.272 366.729,1119.271 L 366.729,1119.271 C 366.504,1119.269 366.244,1119.268 366.086,1119.34 L 366.086,1119.34 C 367.013,1119.49 366.781,1119.703 367.889,1119.688 L 367.889,1119.688 C 368.038,1120.117 367.42,1120.394 368.069,1120.472 L 368.069,1120.472 C 368.498,1120.126 367.671,1119.518 368.61,1119.34 L 368.61,1119.34 C 368.657,1120.066 369.026,1121.161 368.972,1122.385 L 368.972,1122.385 C 368.146,1122.361 368.825,1121.944 368.429,1121.864 L 368.429,1121.864 C 367.781,1122.058 368.302,1122.662 368.79,1122.822 L 368.79,1122.822 C 368.554,1123.053 368.357,1123.308 368.069,1123.517 L 368.069,1123.517 C 368.481,1123.492 368.747,1123.538 368.79,1123.69 L 368.79,1123.69 C 368.706,1124.229 368.074,1124.674 368.429,1125.346 L 368.429,1125.346 C 368.96,1125.114 369.185,1125.56 369.512,1125.694 L 369.512,1125.694 C 369.473,1125.53 369.715,1125.501 369.692,1125.346 L 369.692,1125.346 C 371.839,1125.679 375.583,1125.648 377.625,1125.518 L 377.625,1125.518 C 377.653,1125.621 377.592,1125.767 377.806,1125.78 L 377.806,1125.78 C 378.048,1125.769 378.325,1125.775 378.602,1125.781 L 378.602,1125.781 C 379.141,1125.792 379.68,1125.804 379.968,1125.694 L 379.968,1125.694 C 380.659,1126.211 380.835,1127.506 381.022,1128.582 L 381.022,1128.582 C 375.905,1128.477 368.915,1128.441 363.137,1128.802 L 363.137,1128.802 C 352.687,1129.459 348.596,1130.804 348.562,1130.814 L 348.562,1130.814 C 348.413,1130.636 348.379,1130.403 348.417,1130.133 M 367.529,1118.293 C 367.554,1118.298 367.579,1118.303 367.603,1118.308 L 367.603,1118.308 C 367.578,1118.304 367.553,1118.299 367.529,1118.293"
         id="path1050"
         inkscape:connector-curvature="0" /></clipPath><linearGradient
       x1="0"
       y1="0"
       x2="1"
       y2="0"
       gradientUnits="userSpaceOnUse"
       gradientTransform="matrix(33.349716,0,0,-33.349716,347.67236,1124.5244)"
       spreadMethod="pad"
       id="linearGradient1056"><stop
         style="stop-opacity:1;stop-color:#e9e9e9"
         offset="0"
         id="stop1058" /><stop
         style="stop-opacity:1;stop-color:#ffffff"
         offset="1"
         id="stop1060" /></linearGradient><clipPath
       clipPathUnits="userSpaceOnUse"
       id="clipPath1068"><path
         d="M 0,1191 L 842,1191 L 842,0 L 0,0 L 0,1191 z"
         id="path1070"
         inkscape:connector-curvature="0" /></clipPath><clipPath
       clipPathUnits="userSpaceOnUse"
       id="clipPath1092"><path
         d="M 424.91,1128.802 C 419.134,1128.441 412.144,1128.477 407.027,1128.582 L 407.027,1128.582 C 407.215,1127.506 407.389,1126.211 408.08,1125.694 L 408.08,1125.694 C 408.367,1125.804 408.907,1125.792 409.446,1125.781 L 409.446,1125.781 C 409.723,1125.775 410,1125.769 410.243,1125.78 L 410.243,1125.78 C 410.456,1125.767 410.396,1125.621 410.425,1125.518 L 410.425,1125.518 C 412.466,1125.648 416.211,1125.679 418.356,1125.346 L 418.356,1125.346 C 418.334,1125.501 418.577,1125.53 418.536,1125.694 L 418.536,1125.694 C 418.864,1125.56 419.089,1125.114 419.619,1125.346 L 419.619,1125.346 C 419.974,1124.674 419.342,1124.229 419.259,1123.69 L 419.259,1123.69 C 419.301,1123.538 419.568,1123.492 419.979,1123.517 L 419.979,1123.517 C 419.692,1123.308 419.495,1123.053 419.259,1122.822 L 419.259,1122.822 C 419.746,1122.662 420.268,1122.058 419.619,1121.864 L 419.619,1121.864 C 419.223,1121.944 419.903,1122.361 419.077,1122.385 L 419.077,1122.385 C 419.023,1121.161 419.392,1120.066 419.438,1119.34 L 419.438,1119.34 C 420.378,1119.518 419.55,1120.126 419.979,1120.472 L 419.979,1120.472 C 420.629,1120.394 420.011,1120.117 420.159,1119.688 L 420.159,1119.688 C 421.269,1119.703 421.035,1119.49 421.962,1119.34 L 421.962,1119.34 C 421.804,1119.268 421.543,1119.269 421.319,1119.271 L 421.319,1119.271 C 420.966,1119.272 420.701,1119.274 421.06,1118.992 L 421.06,1118.992 C 420.413,1118.967 420.191,1119.153 419.619,1119.165 L 419.619,1119.165 C 419.122,1118.814 419.521,1118.59 419.438,1118.382 L 419.438,1118.382 C 419.377,1118.178 419.57,1118.228 419.85,1118.278 L 419.85,1118.278 C 420.028,1118.309 420.24,1118.34 420.446,1118.308 L 420.446,1118.308 C 419.991,1118.404 419.88,1118.545 420.159,1118.816 L 420.159,1118.816 C 420.496,1118.746 420.819,1118.672 421.241,1118.644 L 421.241,1118.644 C 420.828,1118.917 421.571,1118.89 421.241,1118.992 L 421.241,1118.992 C 421.289,1119.041 421.441,1119.031 421.63,1119.022 L 421.63,1119.022 C 421.845,1119.012 422.11,1119.001 422.323,1119.079 L 422.323,1119.079 C 422.399,1119.26 422.198,1119.309 422.142,1119.425 L 422.142,1119.425 C 422.401,1119.553 422.561,1119.551 422.773,1119.55 L 422.773,1119.55 C 422.932,1119.548 423.122,1119.547 423.405,1119.601 L 423.405,1119.601 C 422.958,1119.816 423.538,1119.979 424.127,1119.949 L 424.127,1119.949 C 423.301,1120.074 423.496,1120.416 423.044,1120.558 L 423.044,1120.558 C 423.176,1120.64 423.372,1120.689 423.586,1120.733 L 423.586,1120.733 C 424.113,1120.657 423.352,1120.513 423.586,1120.297 L 423.586,1120.297 C 424.48,1120.249 425.39,1120.61 425.207,1120.992 L 425.207,1120.992 C 425.231,1121.08 425.345,1121.053 425.484,1121.026 L 425.484,1121.026 C 425.631,1120.999 425.805,1120.97 425.93,1121.08 L 425.93,1121.08 C 425.839,1121.286 426.799,1121.656 426.109,1121.602 L 426.109,1121.602 C 426.678,1121.793 427.42,1121.897 427.371,1122.385 L 427.371,1122.385 C 426.793,1122.457 426.999,1122.46 426.651,1122.299 L 426.651,1122.299 C 427.036,1122.663 427.721,1122.884 427.553,1123.517 L 427.553,1123.517 C 427.904,1123.59 427.9,1123.493 427.9,1123.397 L 427.9,1123.397 C 427.899,1123.335 427.898,1123.272 427.996,1123.256 L 427.996,1123.256 C 428.026,1123.259 428.058,1123.258 428.093,1123.254 L 428.093,1123.254 C 428.053,1123.251 428.021,1123.252 427.996,1123.256 L 427.996,1123.256 C 427.69,1123.229 427.66,1122.855 427.553,1122.561 L 427.553,1122.561 C 428.942,1122.445 428.947,1123.512 429.175,1124.04 L 429.175,1124.04 C 429.752,1123.943 429.81,1124.02 430.436,1123.865 L 430.436,1123.865 C 430.532,1124.437 430.706,1124.427 430.616,1124.91 L 430.616,1124.91 C 431.175,1124.919 431.153,1124.649 431.158,1124.39 L 431.158,1124.39 C 431.318,1124.455 431.564,1124.482 431.878,1124.475 L 431.878,1124.475 C 431.952,1125.089 431.557,1125.481 431.698,1126.129 L 431.698,1126.129 C 432.139,1125.998 431.894,1125.67 432.598,1125.869 L 432.598,1125.869 C 432.487,1125.393 432.714,1125.199 432.239,1125.171 L 432.239,1125.171 C 432.193,1124.977 432.329,1125.013 432.505,1125.048 L 432.505,1125.048 C 432.655,1125.078 432.836,1125.109 432.96,1124.996 L 432.96,1124.996 C 432.594,1124.718 432.756,1124.689 432.598,1124.39 L 432.598,1124.39 C 433.836,1124.752 433.669,1125.302 434.944,1125.694 L 434.944,1125.694 C 434.866,1125.801 434.711,1125.872 434.403,1125.869 L 434.403,1125.869 C 436.094,1126.444 435.065,1127.909 433.86,1128.478 L 433.86,1128.478 C 434.426,1128.614 434.753,1128.478 434.944,1128.219 L 434.944,1128.219 C 435.514,1128.387 434.828,1128.677 434.582,1128.741 L 434.582,1128.741 C 434.935,1128.874 435.335,1128.78 435.768,1128.685 L 435.768,1128.685 C 436.08,1128.618 436.407,1128.55 436.746,1128.567 L 436.746,1128.567 C 436.793,1128.819 436.338,1128.831 436.385,1129.088 L 436.385,1129.088 C 437.066,1128.92 437.471,1128.164 437.288,1127.869 L 437.288,1127.869 C 438.188,1127.7 437.944,1129.203 437.107,1129.262 L 437.107,1129.262 C 437.134,1129.423 437.718,1129.316 437.828,1129.437 L 437.828,1129.437 C 438.299,1129.189 438.242,1128.768 438.369,1128.567 L 438.369,1128.567 C 438.864,1128.955 438.171,1129.511 438.007,1129.87 L 438.007,1129.87 C 438.682,1129.539 439.095,1128.883 438.73,1128.305 L 438.73,1128.305 C 437.957,1128.707 438.875,1128.087 438.548,1128.044 L 438.548,1128.044 C 439.851,1127.939 439.321,1129.881 438.548,1130.133 L 438.548,1130.133 C 439.156,1130.046 440.539,1129.585 440.533,1128.912 L 440.533,1128.912 C 441.597,1129.378 440.55,1129.927 439.632,1130.133 L 439.632,1130.133 C 439.669,1130.403 439.636,1130.636 439.487,1130.814 L 439.487,1130.814 C 439.453,1130.804 435.362,1129.459 424.91,1128.802 M 420.52,1118.293 C 420.495,1118.299 420.471,1118.304 420.446,1118.308 L 420.446,1118.308 C 420.47,1118.303 420.494,1118.298 420.52,1118.293"
         id="path1094"
         inkscape:connector-curvature="0" /></clipPath><linearGradient
       x1="0"
       y1="0"
       x2="1"
       y2="0"
       gradientUnits="userSpaceOnUse"
       gradientTransform="matrix(-33.350189,0,0,33.350204,440.98145,1124.5239)"
       spreadMethod="pad"
       id="linearGradient1100"><stop
         style="stop-opacity:1;stop-color:#e9e9e9"
         offset="0"
         id="stop1102" /><stop
         style="stop-opacity:1;stop-color:#ffffff"
         offset="1"
         id="stop1104" /></linearGradient><clipPath
       clipPathUnits="userSpaceOnUse"
       id="clipPath1112"><path
         d="M 0,1191 L 842,1191 L 842,0 L 0,0 L 0,1191 z"
         id="path1114"
         inkscape:connector-curvature="0" /></clipPath><clipPath
       clipPathUnits="userSpaceOnUse"
       id="clipPath1152"><path
         d="M 420.896,544.904 C 409.798,547.058 394.287,539.156 400.115,525.502 L 400.115,525.502 C 402.297,523.876 405.599,523.368 408.424,522.385 L 408.424,522.385 C 414.641,521.669 419.008,531.409 413.092,533.081 L 413.092,533.081 C 414.89,532.493 414.683,528.729 413.964,526.889 L 413.964,526.889 C 412.291,522.584 404.089,523.003 401.845,526.543 L 401.845,526.543 C 395.755,536.132 412.951,545.858 421.594,540.748 L 421.594,540.748 C 421.23,539.836 421.174,538.623 421.245,537.282 L 421.245,537.282 C 423.738,538.831 426.461,540.15 428.524,542.133 L 428.524,542.133 C 426.748,545.209 424.675,547.987 422.635,550.795 L 422.635,550.795 C 422.001,548.887 422.403,545.94 420.896,544.904 M 413.092,533.081 C 413.04,533.098 412.987,533.112 412.932,533.124 L 412.932,533.124 C 412.986,533.11 413.039,533.096 413.092,533.081"
         id="path1154"
         inkscape:connector-curvature="0" /></clipPath><linearGradient
       x1="0"
       y1="0"
       x2="1"
       y2="0"
       gradientUnits="userSpaceOnUse"
       gradientTransform="matrix(138.05952,-111.7984,-111.7984,-138.05952,333.11475,601.52295)"
       spreadMethod="pad"
       id="linearGradient1160"><stop
         style="stop-opacity:1;stop-color:#ffffff"
         offset="0"
         id="stop1162" /><stop
         style="stop-opacity:1;stop-color:#d3d2d2"
         offset="1"
         id="stop1164" /></linearGradient><clipPath
       clipPathUnits="userSpaceOnUse"
       id="clipPath1172"><path
         d="M 0,1191 L 842,1191 L 842,0 L 0,0 L 0,1191 z"
         id="path1174"
         inkscape:connector-curvature="0" /></clipPath><clipPath
       clipPathUnits="userSpaceOnUse"
       id="clipPath1184"><path
         d="M 359.525,542.133 C 361.588,540.15 364.311,538.831 366.804,537.282 L 366.804,537.282 C 366.876,538.623 366.819,539.836 366.455,540.748 L 366.455,540.748 C 375.099,545.858 392.294,536.132 386.204,526.543 L 386.204,526.543 C 383.96,523.003 375.757,522.584 374.084,526.889 L 374.084,526.889 C 373.366,528.729 373.159,532.493 374.957,533.081 L 374.957,533.081 C 369.041,531.409 373.408,521.669 379.624,522.385 L 379.624,522.385 C 382.45,523.368 385.752,523.876 387.937,525.502 L 387.937,525.502 C 393.763,539.156 378.25,547.058 367.152,544.904 L 367.152,544.904 C 365.647,545.94 366.049,548.887 365.415,550.795 L 365.415,550.795 C 363.373,547.987 361.301,545.209 359.525,542.133 M 374.957,533.081 C 375.009,533.096 375.062,533.11 375.116,533.124 L 375.116,533.124 C 375.061,533.112 375.008,533.098 374.957,533.081"
         id="path1186"
         inkscape:connector-curvature="0" /></clipPath><linearGradient
       x1="0"
       y1="0"
       x2="1"
       y2="0"
       gradientUnits="userSpaceOnUse"
       gradientTransform="matrix(-133.78761,-112.26114,-112.26114,133.78761,432.4873,584.98047)"
       spreadMethod="pad"
       id="linearGradient1192"><stop
         style="stop-opacity:1;stop-color:#ffffff"
         offset="0"
         id="stop1194" /><stop
         style="stop-opacity:1;stop-color:#d3d2d2"
         offset="1"
         id="stop1196" /></linearGradient><clipPath
       clipPathUnits="userSpaceOnUse"
       id="clipPath1204"><path
         d="M 0,1191 L 842,1191 L 842,0 L 0,0 L 0,1191 z"
         id="path1206"
         inkscape:connector-curvature="0" /></clipPath><clipPath
       clipPathUnits="userSpaceOnUse"
       id="clipPath1280"><path
         d="M 392.646,794.023 C 391.874,786.847 377.797,782.066 377.797,782.066 L 377.797,782.066 C 385.682,782.02 392.678,780.819 400.951,781.239 L 400.951,781.239 C 401.07,783.708 400.97,785.409 401.154,787.441 L 401.154,787.441 C 403.368,787.124 405.647,787.234 407.949,787.343 L 407.949,787.343 C 411.19,787.497 414.477,787.652 417.693,786.614 L 417.693,786.614 C 412.738,792.273 406.058,796.2 400.951,801.702 L 400.951,801.702 C 398.625,802.408 397.855,804.67 395.367,805.218 L 395.367,805.218 C 394.177,806.527 392.104,809.076 390.225,809.294 L 390.225,809.294 C 390.255,809.217 393.414,801.165 392.646,794.023"
         id="path1282"
         inkscape:connector-curvature="0" /></clipPath><linearGradient
       x1="0"
       y1="0"
       x2="1"
       y2="0"
       gradientUnits="userSpaceOnUse"
       gradientTransform="matrix(-67.701447,83.604309,83.604309,67.701462,406.34717,773.7168)"
       spreadMethod="pad"
       id="linearGradient1288"><stop
         style="stop-opacity:1;stop-color:#d3d2d2"
         offset="0"
         id="stop1290" /><stop
         style="stop-opacity:1;stop-color:#ffffff"
         offset="1"
         id="stop1292" /></linearGradient><clipPath
       clipPathUnits="userSpaceOnUse"
       id="clipPath1300"><path
         d="M 0,1191 L 842,1191 L 842,0 L 0,0 L 0,1191 z"
         id="path1302"
         inkscape:connector-curvature="0" /></clipPath><clipPath
       clipPathUnits="userSpaceOnUse"
       id="clipPath1316"><path
         d="M 387.097,763.403 C 386.979,760.935 387.078,759.233 386.895,757.201 L 386.895,757.201 C 384.68,757.517 382.401,757.408 380.099,757.299 L 380.099,757.299 C 376.858,757.144 373.571,756.989 370.356,758.028 L 370.356,758.028 C 375.311,752.37 381.991,748.442 387.097,742.94 L 387.097,742.94 C 389.424,742.234 390.194,739.972 392.682,739.425 L 392.682,739.425 C 393.871,738.115 395.945,735.567 397.824,735.349 L 397.824,735.349 C 397.794,735.426 394.635,743.477 395.402,750.619 L 395.402,750.619 C 396.175,757.795 410.253,762.576 410.253,762.576 L 410.253,762.576 C 403.536,762.616 397.467,763.492 390.702,763.492 L 390.702,763.492 C 389.524,763.492 388.324,763.466 387.097,763.403"
         id="path1318"
         inkscape:connector-curvature="0" /></clipPath><linearGradient
       x1="0"
       y1="0"
       x2="1"
       y2="0"
       gradientUnits="userSpaceOnUse"
       gradientTransform="matrix(69.379791,-82.683594,-82.683594,-69.379776,338.17969,822.42236)"
       spreadMethod="pad"
       id="linearGradient1324"><stop
         style="stop-opacity:1;stop-color:#d3d2d2"
         offset="0"
         id="stop1326" /><stop
         style="stop-opacity:1;stop-color:#ffffff"
         offset="1"
         id="stop1328" /></linearGradient><clipPath
       clipPathUnits="userSpaceOnUse"
       id="clipPath1336"><path
         d="M 0,1191 L 842,1191 L 842,0 L 0,0 L 0,1191 z"
         id="path1338"
         inkscape:connector-curvature="0" /></clipPath><clipPath
       clipPathUnits="userSpaceOnUse"
       id="clipPath1356"><path
         d="M 338.35,963.45 C 337.087,962.865 335.645,961.302 337.109,959.973 L 337.109,959.973 C 337.101,961.892 339.004,963.205 339.84,963.45 L 339.84,963.45 C 338.777,962.734 338.049,957.199 339.84,957.497 L 339.84,957.497 C 339.393,957.616 340.655,959.388 339.592,958.242 L 339.592,958.242 C 339.089,959.884 339.655,961.762 340.585,962.704 L 340.585,962.704 C 340.359,961.679 339.407,960.09 340.087,958.987 L 340.087,958.987 C 340.262,959.56 340.186,960.761 340.832,961.465 L 340.832,961.465 C 340.985,961.124 341.788,961.427 341.824,960.97 L 341.824,960.97 C 340.673,960.8 340.338,956.518 341.577,956.996 L 341.577,956.996 C 341.325,957.837 341.88,959.997 342.818,960.469 L 342.818,960.469 C 342.883,959.747 342.257,959.709 342.322,958.987 L 342.322,958.987 C 342.787,958.939 343.237,959.132 343.666,959.324 L 343.666,959.324 C 344.262,959.593 344.814,959.861 345.299,959.482 L 345.299,959.482 C 344.962,959.299 344.02,958.475 344.803,957.992 L 344.803,957.992 C 345.064,958.738 345.517,959.118 346.292,958.738 L 346.292,958.738 C 344.636,957.109 343.22,952.934 345.547,951.293 L 345.547,951.293 C 345.12,951.305 344.911,951.101 344.803,950.792 L 344.803,950.792 C 346.556,949.683 346.326,948.108 348.029,947.075 L 348.029,947.075 C 347.816,947.933 348.036,948.012 347.532,948.81 L 347.532,948.81 C 347.702,949.129 347.951,949.042 348.159,948.956 L 348.159,948.956 C 348.401,948.855 348.587,948.754 348.525,949.301 L 348.525,949.301 C 347.872,949.383 348.184,949.939 348.029,951.293 L 348.029,951.293 C 349.001,950.731 348.663,951.663 349.27,952.038 L 349.27,952.038 C 349.464,950.189 348.92,949.074 349.021,947.319 L 349.021,947.319 C 349.454,947.343 349.793,947.268 350.014,947.075 L 350.014,947.075 C 350.019,947.814 349.991,948.586 350.758,948.56 L 350.758,948.56 C 350.635,947.182 350.875,947.211 351.007,945.584 L 351.007,945.584 C 351.868,946.018 351.949,945.8 352.743,946.079 L 352.743,946.079 C 353.056,944.577 353.064,941.535 354.976,941.86 L 354.976,941.86 C 354.829,942.699 354.786,943.766 354.366,943.848 L 354.366,943.848 C 354.332,943.837 354.288,943.834 354.233,943.844 L 354.233,943.844 C 354.281,943.855 354.326,943.856 354.366,943.848 L 354.366,943.848 C 354.5,943.893 354.499,944.072 354.497,944.251 L 354.497,944.251 C 354.496,944.526 354.492,944.801 354.976,944.589 L 354.976,944.589 C 354.744,942.787 355.686,942.156 356.217,941.116 L 356.217,941.116 C 355.739,941.576 356.022,941.57 355.225,941.366 L 355.225,941.366 C 355.159,939.972 356.179,939.671 356.962,939.13 L 356.962,939.13 C 356.012,939.284 357.334,938.228 357.21,937.643 L 357.21,937.643 C 357.379,937.329 357.62,937.41 357.822,937.491 L 357.822,937.491 C 358.012,937.568 358.169,937.644 358.204,937.392 L 358.204,937.392 C 357.952,936.301 359.204,935.276 360.437,935.407 L 360.437,935.407 C 360.76,936.027 359.709,936.437 360.437,936.652 L 360.437,936.652 C 360.73,936.527 361,936.385 361.182,936.152 L 361.182,936.152 C 360.559,935.747 360.829,934.775 359.691,934.418 L 359.691,934.418 C 360.502,934.5 361.301,934.036 360.685,933.422 L 360.685,933.422 C 361.072,933.27 361.333,933.275 361.552,933.279 L 361.552,933.279 C 361.845,933.285 362.066,933.291 362.423,932.927 L 362.423,932.927 C 362.344,932.592 362.069,932.449 362.173,931.934 L 362.173,931.934 C 362.467,931.714 362.831,931.745 363.128,931.775 L 363.128,931.775 C 363.388,931.802 363.596,931.828 363.664,931.689 L 363.664,931.689 C 363.21,931.393 364.232,931.472 363.664,930.694 L 363.664,930.694 C 364.243,930.773 364.688,930.987 365.152,931.189 L 365.152,931.189 C 365.537,930.413 365.384,930.012 364.755,929.739 L 364.755,929.739 C 365.038,929.832 365.331,929.742 365.576,929.651 L 365.576,929.651 C 365.962,929.508 366.229,929.365 366.144,929.948 L 366.144,929.948 C 366.03,930.539 366.58,931.182 365.897,932.185 L 365.897,932.185 C 365.107,932.143 364.804,931.62 363.91,931.689 L 363.91,931.689 C 364.404,932.494 364.041,932.487 363.556,932.481 L 363.556,932.481 C 363.247,932.477 362.888,932.473 362.67,932.679 L 362.67,932.679 C 363.947,933.11 363.625,933.719 365.152,933.672 L 365.152,933.672 C 365.357,934.894 364.504,935.68 365.4,935.907 L 365.4,935.907 C 365.99,934.918 364.852,933.183 366.144,932.679 L 366.144,932.679 C 366.207,934.752 366.718,937.876 366.641,941.366 L 366.641,941.366 C 365.505,941.297 366.441,940.102 365.897,939.875 L 365.897,939.875 C 365.003,940.429 365.721,942.149 366.392,942.605 L 366.392,942.605 C 366.068,943.269 365.795,943.992 365.4,944.589 L 365.4,944.589 C 365.966,944.522 366.333,944.654 366.392,945.085 L 366.392,945.085 C 366.277,946.621 365.406,947.886 365.897,949.802 L 365.897,949.802 C 366.626,949.145 366.937,950.411 367.385,950.792 L 367.385,950.792 C 367.33,950.326 367.665,950.248 367.633,949.802 L 367.633,949.802 C 370.587,950.751 375.742,950.661 378.552,950.297 L 378.552,950.297 C 378.591,950.588 378.508,951.002 378.8,951.043 L 378.8,951.043 C 379.132,951.012 379.512,951.028 379.892,951.044 L 379.892,951.044 C 380.636,951.076 381.381,951.107 381.778,950.792 L 381.778,950.792 C 382.728,952.27 382.969,955.963 383.228,959.031 L 383.228,959.031 C 376.185,958.728 366.564,958.624 358.612,959.657 L 358.612,959.657 C 344.227,961.528 338.596,965.363 338.549,965.396 L 338.549,965.396 C 338.345,964.885 338.298,964.217 338.35,963.45 M 364.656,929.698 C 364.69,929.711 364.723,929.725 364.755,929.739 L 364.755,929.739 C 364.722,929.728 364.689,929.715 364.656,929.698"
         id="path1358"
         inkscape:connector-curvature="0" /></clipPath><linearGradient
       x1="0"
       y1="0"
       x2="1"
       y2="0"
       gradientUnits="userSpaceOnUse"
       gradientTransform="matrix(45.903458,0,0,-45.903458,337.3252,947.45996)"
       spreadMethod="pad"
       id="linearGradient1364"><stop
         style="stop-opacity:1;stop-color:#e9e9e9"
         offset="0"
         id="stop1366" /><stop
         style="stop-opacity:1;stop-color:#ffffff"
         offset="1"
         id="stop1368" /></linearGradient><clipPath
       clipPathUnits="userSpaceOnUse"
       id="clipPath1376"><path
         d="M 0,1191 L 842,1191 L 842,0 L 0,0 L 0,1191 z"
         id="path1378"
         inkscape:connector-curvature="0" /></clipPath><clipPath
       clipPathUnits="userSpaceOnUse"
       id="clipPath1400"><path
         d="M 429.437,959.657 C 421.484,958.624 411.864,958.728 404.82,959.031 L 404.82,959.031 C 405.079,955.963 405.32,952.27 406.27,950.792 L 406.27,950.792 C 406.667,951.107 407.412,951.076 408.156,951.044 L 408.156,951.044 C 408.536,951.028 408.916,951.012 409.249,951.043 L 409.249,951.043 C 409.54,951.002 409.457,950.588 409.497,950.297 L 409.497,950.297 C 412.306,950.661 417.461,950.751 420.415,949.802 L 420.415,949.802 C 420.384,950.248 420.719,950.326 420.664,950.792 L 420.664,950.792 C 421.111,950.411 421.423,949.145 422.152,949.802 L 422.152,949.802 C 422.642,947.886 421.772,946.621 421.656,945.085 L 421.656,945.085 C 421.716,944.654 422.083,944.522 422.647,944.589 L 422.647,944.589 C 422.254,943.992 421.981,943.269 421.656,942.605 L 421.656,942.605 C 422.327,942.149 423.046,940.429 422.152,939.875 L 422.152,939.875 C 421.608,940.102 422.543,941.297 421.407,941.366 L 421.407,941.366 C 421.331,937.876 421.842,934.752 421.905,932.679 L 421.905,932.679 C 423.197,933.183 422.059,934.918 422.647,935.907 L 422.647,935.907 C 423.544,935.68 422.691,934.894 422.896,933.672 L 422.896,933.672 C 424.423,933.719 424.103,933.11 425.379,932.679 L 425.379,932.679 C 425.159,932.473 424.801,932.477 424.491,932.481 L 424.491,932.481 C 424.006,932.487 423.644,932.494 424.138,931.689 L 424.138,931.689 C 423.244,931.62 422.941,932.143 422.152,932.185 L 422.152,932.185 C 421.468,931.182 422.018,930.539 421.905,929.948 L 421.905,929.948 C 421.819,929.365 422.085,929.508 422.472,929.651 L 422.472,929.651 C 422.717,929.742 423.011,929.832 423.294,929.739 L 423.294,929.739 C 422.665,930.011 422.512,930.412 422.896,931.189 L 422.896,931.189 C 423.36,930.987 423.805,930.773 424.385,930.694 L 424.385,930.694 C 423.816,931.472 424.838,931.393 424.385,931.689 L 424.385,931.689 C 424.452,931.828 424.66,931.802 424.92,931.775 L 424.92,931.775 C 425.217,931.745 425.58,931.714 425.875,931.934 L 425.875,931.934 C 425.98,932.449 425.704,932.592 425.626,932.927 L 425.626,932.927 C 425.982,933.291 426.202,933.285 426.496,933.279 L 426.496,933.279 C 426.715,933.275 426.975,933.27 427.363,933.422 L 427.363,933.422 C 426.748,934.036 427.546,934.5 428.357,934.418 L 428.357,934.418 C 427.22,934.775 427.489,935.747 426.866,936.152 L 426.866,936.152 C 427.049,936.385 427.319,936.527 427.612,936.652 L 427.612,936.652 C 428.339,936.437 427.289,936.027 427.612,935.407 L 427.612,935.407 C 428.844,935.276 430.096,936.301 429.844,937.392 L 429.844,937.392 C 429.878,937.644 430.035,937.568 430.226,937.491 L 430.226,937.491 C 430.428,937.41 430.669,937.329 430.839,937.643 L 430.839,937.643 C 430.715,938.228 432.036,939.284 431.086,939.13 L 431.086,939.13 C 431.87,939.671 432.889,939.972 432.823,941.366 L 432.823,941.366 C 432.026,941.57 432.309,941.576 431.831,941.116 L 431.831,941.116 C 432.363,942.156 433.305,942.787 433.072,944.589 L 433.072,944.589 C 433.555,944.801 433.552,944.526 433.55,944.251 L 433.55,944.251 C 433.549,944.072 433.548,943.892 433.682,943.848 L 433.682,943.848 C 433.723,943.856 433.768,943.855 433.816,943.844 L 433.816,943.844 C 433.761,943.834 433.717,943.837 433.682,943.848 L 433.682,943.848 C 433.263,943.765 433.22,942.699 433.072,941.86 L 433.072,941.86 C 434.985,941.535 434.992,944.577 435.305,946.079 L 435.305,946.079 C 436.099,945.8 436.18,946.018 437.041,945.584 L 437.041,945.584 C 437.173,947.211 437.413,947.182 437.29,948.56 L 437.29,948.56 C 438.058,948.586 438.029,947.814 438.034,947.075 L 438.034,947.075 C 438.255,947.268 438.594,947.343 439.027,947.319 L 439.027,947.319 C 439.128,949.074 438.585,950.189 438.778,952.038 L 438.778,952.038 C 439.385,951.663 439.048,950.731 440.02,951.293 L 440.02,951.293 C 439.864,949.939 440.176,949.383 439.523,949.301 L 439.523,949.301 C 439.46,948.754 439.646,948.855 439.889,948.956 L 439.889,948.956 C 440.096,949.042 440.346,949.129 440.516,948.81 L 440.516,948.81 C 440.012,948.012 440.233,947.933 440.02,947.075 L 440.02,947.075 C 441.723,948.108 441.493,949.683 443.246,950.792 L 443.246,950.792 C 443.137,951.101 442.929,951.305 442.502,951.293 L 442.502,951.293 C 444.828,952.934 443.412,957.109 441.756,958.738 L 441.756,958.738 C 442.531,959.118 442.984,958.738 443.246,957.992 L 443.246,957.992 C 444.029,958.475 443.087,959.299 442.749,959.482 L 442.749,959.482 C 443.233,959.861 443.785,959.593 444.382,959.324 L 444.382,959.324 C 444.81,959.132 445.262,958.939 445.727,958.987 L 445.727,958.987 C 445.791,959.709 445.166,959.747 445.231,960.469 L 445.231,960.469 C 446.169,959.997 446.725,957.837 446.472,956.996 L 446.472,956.996 C 447.711,956.518 447.375,960.8 446.224,960.97 L 446.224,960.97 C 446.26,961.427 447.064,961.124 447.217,961.465 L 447.217,961.465 C 447.863,960.761 447.786,959.56 447.961,958.987 L 447.961,958.987 C 448.643,960.09 447.689,961.679 447.464,962.704 L 447.464,962.704 C 448.393,961.762 448.961,959.884 448.457,958.242 L 448.457,958.242 C 447.393,959.388 448.655,957.616 448.209,957.497 L 448.209,957.497 C 450,957.199 449.272,962.734 448.209,963.45 L 448.209,963.45 C 449.044,963.205 450.948,961.892 450.94,959.973 L 450.94,959.973 C 452.403,961.302 450.962,962.865 449.698,963.45 L 449.698,963.45 C 449.75,964.217 449.704,964.885 449.498,965.396 L 449.498,965.396 C 449.452,965.363 443.822,961.528 429.437,959.657 M 423.393,929.698 C 423.361,929.714 423.328,929.728 423.294,929.739 L 423.294,929.739 C 423.326,929.725 423.359,929.711 423.393,929.698"
         id="path1402"
         inkscape:connector-curvature="0" /></clipPath><linearGradient
       x1="0"
       y1="0"
       x2="1"
       y2="0"
       gradientUnits="userSpaceOnUse"
       gradientTransform="matrix(-45.903458,0,0,45.903458,451.55566,947.45947)"
       spreadMethod="pad"
       id="linearGradient1408"><stop
         style="stop-opacity:1;stop-color:#e9e9e9"
         offset="0"
         id="stop1410" /><stop
         style="stop-opacity:1;stop-color:#ffffff"
         offset="1"
         id="stop1412" /></linearGradient><clipPath
       clipPathUnits="userSpaceOnUse"
       id="clipPath1420"><path
         d="M 0,1191 L 842,1191 L 842,0 L 0,0 L 0,1191 z"
         id="path1422"
         inkscape:connector-curvature="0" /></clipPath><clipPath
       clipPathUnits="userSpaceOnUse"
       id="clipPath1516"><path
         d="M 384.682,1097.609 L 384.746,1097.052 C 384.746,1097.052 381.064,1089.414 373.456,1085.367 L 373.456,1085.367 C 368.176,1082.558 358.917,1083.892 353.742,1084.972 L 353.742,1084.972 L 380.496,1075.617 L 385.658,1097.94 L 384.682,1097.609 z"
         id="path1518"
         inkscape:connector-curvature="0" /></clipPath><linearGradient
       x1="0"
       y1="0"
       x2="1"
       y2="0"
       gradientUnits="userSpaceOnUse"
       gradientTransform="matrix(24.267227,-60.063522,-60.063522,-24.267227,369.66553,1091.541)"
       spreadMethod="pad"
       id="linearGradient1524"><stop
         style="stop-opacity:1;stop-color:#e9e9e9"
         offset="0"
         id="stop1526" /><stop
         style="stop-opacity:1;stop-color:#7b7979"
         offset="1"
         id="stop1528" /></linearGradient><clipPath
       clipPathUnits="userSpaceOnUse"
       id="clipPath1536"><path
         d="M 407.552,1075.617 L 434.307,1084.972 C 429.131,1083.892 419.871,1082.558 414.592,1085.367 L 414.592,1085.367 C 406.984,1089.414 403.303,1097.052 403.303,1097.052 L 403.303,1097.052 L 403.366,1097.609 L 402.391,1097.94 L 407.552,1075.617 z"
         id="path1538"
         inkscape:connector-curvature="0" /></clipPath><linearGradient
       x1="0"
       y1="0"
       x2="1"
       y2="0"
       gradientUnits="userSpaceOnUse"
       gradientTransform="matrix(-23.472443,-61.147812,-61.147812,23.472443,435.13574,1135.186)"
       spreadMethod="pad"
       id="linearGradient1544"><stop
         style="stop-opacity:1;stop-color:#e9e9e9"
         offset="0"
         id="stop1546" /><stop
         style="stop-opacity:1;stop-color:#7b7979"
         offset="1"
         id="stop1548" /></linearGradient><clipPath
       clipPathUnits="userSpaceOnUse"
       id="clipPath1556"><path
         d="M 0,1191 L 842,1191 L 842,0 L 0,0 L 0,1191 z"
         id="path1558"
         inkscape:connector-curvature="0" /></clipPath><clipPath
       clipPathUnits="userSpaceOnUse"
       id="clipPath2056"><path
         d="M 631.785,424.202 L 625.44,424.202 L 625.987,423.62 C 625.987,423.62 634.861,413.098 635.693,408.75 L 635.693,408.75 C 636.524,404.401 631.785,396.076 631.785,396.076 L 631.785,396.076 L 652.486,414.302 L 652.486,414.95 L 638.161,414.95 L 638.161,424.202 L 631.785,424.202 z"
         id="path2058"
         inkscape:connector-curvature="0" /></clipPath><linearGradient
       x1="0"
       y1="0"
       x2="1"
       y2="0"
       gradientUnits="userSpaceOnUse"
       gradientTransform="matrix(58.505691,0,0,-58.505676,609.70996,410.13867)"
       spreadMethod="pad"
       id="linearGradient2064"><stop
         style="stop-opacity:1;stop-color:#e9e9e9"
         offset="0"
         id="stop2066" /><stop
         style="stop-opacity:1;stop-color:#7b7979"
         offset="1"
         id="stop2068" /></linearGradient><clipPath
       clipPathUnits="userSpaceOnUse"
       id="clipPath2076"><path
         d="M 0,1191 L 842,1191 L 842,0 L 0,0 L 0,1191 z"
         id="path2078"
         inkscape:connector-curvature="0" /></clipPath><clipPath
       clipPathUnits="userSpaceOnUse"
       id="clipPath2116"><path
         d="M 613.635,445.539 L 613.635,444.891 L 627.96,444.891 L 627.96,435.639 L 634.336,435.639 L 640.683,435.639 L 640.135,436.218 C 640.135,436.218 631.26,446.741 630.428,451.09 L 630.428,451.09 C 629.597,455.44 634.336,463.766 634.336,463.766 L 634.336,463.766 L 613.635,445.539 z"
         id="path2118"
         inkscape:connector-curvature="0" /></clipPath><linearGradient
       x1="0"
       y1="0"
       x2="1"
       y2="0"
       gradientUnits="userSpaceOnUse"
       gradientTransform="matrix(-58.513199,0,0,58.513214,656.41602,449.70215)"
       spreadMethod="pad"
       id="linearGradient2124"><stop
         style="stop-opacity:1;stop-color:#e9e9e9"
         offset="0"
         id="stop2126" /><stop
         style="stop-opacity:1;stop-color:#7b7979"
         offset="1"
         id="stop2128" /></linearGradient><clipPath
       clipPathUnits="userSpaceOnUse"
       id="clipPath2136"><path
         d="M 0,1191 L 842,1191 L 842,0 L 0,0 L 0,1191 z"
         id="path2138"
         inkscape:connector-curvature="0" /></clipPath><clipPath
       clipPathUnits="userSpaceOnUse"
       id="clipPath2172"><path
         d="M 526.257,129.56 L 542.062,136.851 C 539.005,136.01 533.535,134.97 530.415,137.158 L 530.415,137.158 C 525.921,140.313 523.745,146.265 523.745,146.265 L 523.745,146.265 L 523.784,146.697 L 523.207,146.955 L 526.257,129.56 z"
         id="path2174"
         inkscape:connector-curvature="0" /></clipPath><linearGradient
       x1="0"
       y1="0"
       x2="1"
       y2="0"
       gradientUnits="userSpaceOnUse"
       gradientTransform="matrix(-14.890442,-51.929123,-51.929123,14.890442,542.6875,176.96094)"
       spreadMethod="pad"
       id="linearGradient2180"><stop
         style="stop-opacity:1;stop-color:#e9e9e9"
         offset="0"
         id="stop2182" /><stop
         style="stop-opacity:1;stop-color:#7b7979"
         offset="1"
         id="stop2184" /></linearGradient><clipPath
       clipPathUnits="userSpaceOnUse"
       id="clipPath2192"><path
         d="M 0,1191 L 842,1191 L 842,0 L 0,0 L 0,1191 z"
         id="path2194"
         inkscape:connector-curvature="0" /></clipPath><clipPath
       clipPathUnits="userSpaceOnUse"
       id="clipPath2224"><path
         d="M 489.732,135.502 C 492.79,136.344 498.26,137.383 501.379,135.194 L 501.379,135.194 C 505.874,132.041 508.049,126.088 508.049,126.088 L 508.049,126.088 L 508.01,125.655 L 508.588,125.399 L 505.538,142.793 L 489.732,135.502 z"
         id="path2226"
         inkscape:connector-curvature="0" /></clipPath><linearGradient
       x1="0"
       y1="0"
       x2="1"
       y2="0"
       gradientUnits="userSpaceOnUse"
       gradientTransform="matrix(15.660263,51.222443,51.222443,-15.660263,497.41406,124.73828)"
       spreadMethod="pad"
       id="linearGradient2232"><stop
         style="stop-opacity:1;stop-color:#e9e9e9"
         offset="0"
         id="stop2234" /><stop
         style="stop-opacity:1;stop-color:#7b7979"
         offset="1"
         id="stop2236" /></linearGradient><clipPath
       clipPathUnits="userSpaceOnUse"
       id="clipPath2244"><path
         d="M 0,1191 L 842,1191 L 842,0 L 0,0 L 0,1191 z"
         id="path2246"
         inkscape:connector-curvature="0" /></clipPath></defs><sodipodi:namedview
     pagecolor="#ffffff"
     bordercolor="#666666"
     borderopacity="1"
     objecttolerance="10"
     gridtolerance="10"
     guidetolerance="10"
     inkscape:pageopacity="0"
     inkscape:pageshadow="2"
     inkscape:window-width="1871"
     inkscape:window-height="1056"
     id="namedview4"
     showgrid="false"
     fit-margin-top="0"
     fit-margin-left="0"
     fit-margin-right="0"
     fit-margin-bottom="0"
     inkscape:zoom="1.7934745"
     inkscape:cx="8.3359214"
     inkscape:cy="-59.015776"
     inkscape:window-x="1649"
     inkscape:window-y="24"
     inkscape:window-maximized="1"
     inkscape:current-layer="g10" /><g
     id="g10"
     inkscape:groupmode="layer"
     inkscape:label="arrows"
     transform="matrix(1.25,0,0,-1.25,-602.31936,1026.4524)"><g
       id="g4441"
       transform="matrix(0,1,1,0,-306.42521,306.42521)"><g
         transform="translate(513.6367,833.7617)"
         id="g1608"><path
           inkscape:connector-curvature="0"
           id="path1610"
           style="fill:#231f20;fill-opacity:1;fill-rule:evenodd;stroke:none"
           d="M 0,0 C -1.905,-1.484 -1.012,-2.835 -1.438,-4.333 C -2.549,-8.145 -5.072,-14.103 -6.854,-16.966 C -7.904,-18.647 -10.01,-20.292 -10.107,-21.657 C -10.272,-23.991 -6.998,-26.513 -5.775,-30.321 C -4.111,-35.511 -3.65,-39.377 -2.888,-45.481 C 0.047,-43.633 -1.655,-35.518 -3.252,-31.403 C -4.598,-27.899 -7.173,-24.759 -8.304,-22.38 C -6.203,-19.52 -4.061,-15.536 -2.167,-11.553 C -0.563,-8.186 2.854,-3.404 0,0" /></g><g
         transform="translate(509.0518,834.7822)"
         id="g1612"><path
           inkscape:connector-curvature="0"
           id="path1614"
           style="fill:#231f20;fill-opacity:1;fill-rule:evenodd;stroke:none"
           d="M 0,0 C -2.909,-9.356 -7.978,-16.43 -13.576,-23.102 C -11.866,-26.724 -6.839,-31.218 -5.522,-36.034 C -4.733,-38.916 -5.983,-42.919 -2.989,-45.056 C -1.174,-36.18 -7.102,-29.012 -10.573,-23.04 C -5.86,-16.437 -0.331,-9.777 0,0" /></g></g></g></svg>