<?xml version="1.0" encoding="utf-8"?>
<!-- Generator: Adobe Illustrator 16.0.0, SVG Export Plug-In . SVG Version: 6.00 Build 0)  -->
<!DOCTYPE svg PUBLIC "-//W3C//DTD SVG 1.1//EN" "http://www.w3.org/Graphics/SVG/1.1/DTD/svg11.dtd">
<svg version="1.1" id="Layer_1" xmlns="http://www.w3.org/2000/svg" xmlns:xlink="http://www.w3.org/1999/xlink" x="0px" y="0px"
	 width="26.366px" height="18.043px" viewBox="0 0 26.366 18.043" enable-background="new 0 0 26.366 18.043" xml:space="preserve">
<rect fill="#C85752" width="26.366" height="18.043"/>
<path fill="#FFFEF9" d="M13.452,13.939L8.535,9.021l4.917-4.916c0.144-0.145,0.144-0.377,0-0.521c-0.145-0.146-0.379-0.146-0.522,0
	L7.752,8.761C7.68,8.832,7.644,8.928,7.644,9.021c0,0.096,0.036,0.191,0.108,0.263l5.178,5.177c0.144,0.146,0.378,0.146,0.522,0
	C13.596,14.317,13.596,14.083,13.452,13.939z"/>
<path fill="#FFFEF9" d="M17.509,13.939l-4.917-4.918l4.917-4.916c0.144-0.145,0.144-0.377,0-0.521c-0.145-0.146-0.379-0.146-0.522,0
	l-5.178,5.177C11.736,8.832,11.7,8.928,11.7,9.021c0,0.096,0.036,0.191,0.108,0.263l5.178,5.177c0.144,0.146,0.378,0.146,0.522,0
	C17.652,14.317,17.652,14.083,17.509,13.939z"/>
</svg>
