<?xml version="1.0" encoding="utf-8"?>
<!-- Generator: Adobe Illustrator 16.0.0, SVG Export Plug-In . SVG Version: 6.00 Build 0)  -->
<!DOCTYPE svg PUBLIC "-//W3C//DTD SVG 1.1//EN" "http://www.w3.org/Graphics/SVG/1.1/DTD/svg11.dtd">
<svg version="1.1" id="Layer_1" xmlns="http://www.w3.org/2000/svg" xmlns:xlink="http://www.w3.org/1999/xlink" x="0px" y="0px"
	 width="26.366px" height="18.043px" viewBox="0 0 26.366 18.043" enable-background="new 0 0 26.366 18.043" xml:space="preserve">
<rect fill="#C85752" width="26.366" height="18.043"/>
<path fill="#FFFEF9" d="M12.914,4.104l4.917,4.918l-4.917,4.916c-0.144,0.145-0.144,0.377,0,0.521c0.145,0.146,0.379,0.146,0.522,0
	l5.178-5.177c0.072-0.071,0.108-0.167,0.108-0.261c0-0.096-0.036-0.191-0.108-0.263l-5.178-5.177c-0.144-0.146-0.378-0.146-0.522,0
	C12.771,3.726,12.771,3.96,12.914,4.104z"/>
<path fill="#FFFEF9" d="M8.857,4.104l4.917,4.918l-4.917,4.916c-0.144,0.145-0.144,0.377,0,0.521c0.145,0.146,0.379,0.146,0.522,0
	l5.178-5.177c0.072-0.071,0.108-0.167,0.108-0.261c0-0.096-0.036-0.191-0.108-0.263L9.38,3.582c-0.144-0.146-0.378-0.146-0.522,0
	C8.714,3.726,8.714,3.96,8.857,4.104z"/>
</svg>
