<?xml version="1.0" encoding="utf-8"?>
<!-- Generator: Adobe Illustrator 16.0.0, SVG Export Plug-In . SVG Version: 6.00 Build 0)  -->
<!DOCTYPE svg PUBLIC "-//W3C//DTD SVG 1.1//EN" "http://www.w3.org/Graphics/SVG/1.1/DTD/svg11.dtd">
<svg version="1.1" id="Layer_1" xmlns="http://www.w3.org/2000/svg" xmlns:xlink="http://www.w3.org/1999/xlink" x="0px" y="0px"
	 width="10.326px" height="13.498px" viewBox="0 0 10.326 13.498" enable-background="new 0 0 10.326 13.498" xml:space="preserve">
<g>
	<path fill="#FFFFFF" d="M5.163,13.497c-1.345,0.027-2.541-0.501-3.59-1.585C0.524,10.827,0,9.316,0,7.379
		C0,5.432,0.471,3.882,1.411,2.73c0.94-1.15,2.191-1.727,3.752-1.727S7.975,1.58,8.915,2.73c0.94,1.151,1.411,2.701,1.411,4.648
		H8.732c0-1.555-0.321-2.78-0.963-3.677S6.259,2.357,5.163,2.357c-1.085,0-1.95,0.448-2.599,1.345
		C1.918,4.599,1.594,5.824,1.594,7.379c0,1.545,0.354,2.726,1.062,3.545s1.544,1.229,2.507,1.229V13.497z M0.515,13.497v-1.345
		h8.782v1.345H0.515z M3.52,0h1.088v7.479H3.52V0z M5.811,0H6.89v7.479H5.811V0z"/>
</g>
</svg>
