<?xml version="1.0" encoding="utf-8"?>
<!-- Generator: Adobe Illustrator 16.0.0, SVG Export Plug-In . SVG Version: 6.00 Build 0)  -->
<!DOCTYPE svg PUBLIC "-//W3C//DTD SVG 1.1//EN" "http://www.w3.org/Graphics/SVG/1.1/DTD/svg11.dtd">
<svg version="1.1" id="Layer_1" xmlns="http://www.w3.org/2000/svg" xmlns:xlink="http://www.w3.org/1999/xlink" x="0px" y="0px"
	 width="51.667px" height="100px" viewBox="0 0 51.667 100" enable-background="new 0 0 51.667 100" xml:space="preserve">
<polyline fill="#E0EFEF" stroke="#79B9C3" stroke-width="0.5" stroke-miterlimit="10" points="0.361,-0.139 50.362,49.861 
	0.362,99.861 "/>
<g>
	<g>
		<g>
			<path fill="#78CAC5" d="M28.878,44.289c-1.473,0.396-4.466-0.632-5.38,0.471c-0.485,0.585-0.021,2.136-0.777,3.313
				c-0.574,0.899-2.272,1.78-3.457,1.78l8.395,0.003c1.37,0,2.491-1.123,2.491-2.494v-3.861
				C30.151,43.501,30.151,43.946,28.878,44.289z"/>
			<g>
				<path fill="#CBC6C7" d="M24.412,39.384h-2.444c0-1.086-0.888-1.972-1.974-1.972h-4.715c-1.087,0-1.972,0.886-1.972,1.972H10.86
					c0-2.434,1.981-4.419,4.419-4.419h4.715C22.431,34.965,24.412,36.95,24.412,39.384z"/>
			</g>
			<g>
				<path fill="#EF4474" d="M27.66,41.009H7.613c-1.371,0-2.492,1.122-2.492,2.492v3.861c0,1.369,1.121,2.491,2.492,2.491h8.596
					v-0.678c0-0.476,0.389-0.864,0.865-0.864h1.125c0.475,0,0.862,0.389,0.862,0.864v0.678h0.203c1.185,0,2.883-0.881,3.457-1.78
					c0.756-1.178,0.292-2.729,0.777-3.313c0.914-1.103,3.908-0.075,5.38-0.471c1.272-0.343,1.272-0.788,1.272-0.788
					C30.151,42.131,29.03,41.009,27.66,41.009z"/>
			</g>
		</g>
	</g>
	<path fill="#78CAC5" d="M27.66,52.812h-8.598v0.769c0,0.477-0.388,0.865-0.862,0.865h-1.125c-0.476,0-0.865-0.389-0.865-0.865
		v-0.769H7.613c-1.371,0-2.492,1.123-2.492,2.494v3.862c0,1.37,1.121,2.492,2.492,2.492H27.66c1.37,0,2.491-1.122,2.491-2.492
		v-3.862C30.151,53.936,29.03,52.812,27.66,52.812z"/>
</g>
</svg>
