<?xml version="1.0" encoding="utf-8"?>
<!-- Generator: Adobe Illustrator 16.0.0, SVG Export Plug-In . SVG Version: 6.00 Build 0)  -->
<!DOCTYPE svg PUBLIC "-//W3C//DTD SVG 1.1//EN" "http://www.w3.org/Graphics/SVG/1.1/DTD/svg11.dtd">
<svg version="1.1" id="Layer_1" xmlns="http://www.w3.org/2000/svg" xmlns:xlink="http://www.w3.org/1999/xlink" x="0px" y="0px"
	 width="19.539px" height="45.244px" viewBox="0 0 19.539 45.244" enable-background="new 0 0 19.539 45.244" xml:space="preserve">
<circle opacity="0.6" fill="#E2C759" cx="9.77" cy="17.562" r="1.954"/>
<path fill="#C4C0B1" d="M9.77,9.42C4.374,9.42,0,13.795,0,19.191v16.281c0,5.396,4.374,9.771,9.77,9.771
	c5.396,0,9.77-4.375,9.77-9.771V19.191C19.539,13.795,15.166,9.42,9.77,9.42z M18.238,35.473c0,4.67-3.799,8.47-8.469,8.47
	c-4.668,0-8.467-3.8-8.467-8.47V19.191c0-4.669,3.799-8.468,8.467-8.468c4.67,0,8.469,3.799,8.469,8.468V35.473z"/>
<path opacity="0.6" fill="#DC5D39" d="M4.618,6.087L9.77,0.936l5.151,5.151c0.151,0.151,0.396,0.151,0.548,0s0.152-0.396,0-0.548
	l-5.425-5.425C9.968,0.038,9.868,0,9.77,0C9.67,0,9.57,0.038,9.494,0.114L4.07,5.539c-0.151,0.152-0.151,0.396,0,0.548
	C4.222,6.238,4.467,6.238,4.618,6.087z"/>
<path opacity="0.6" fill="#DC5D39" d="M14.921,24.346L9.77,29.498l-5.151-5.152c-0.151-0.152-0.396-0.152-0.548,0
	c-0.151,0.15-0.151,0.396,0,0.547l5.424,5.426c0.076,0.076,0.176,0.114,0.275,0.114s0.199-0.038,0.275-0.114l5.424-5.426
	c0.152-0.15,0.152-0.396,0-0.547C15.317,24.193,15.072,24.193,14.921,24.346z"/>
</svg>
