<?xml version="1.0" encoding="utf-8"?>
<!-- Generator: Adobe Illustrator 16.0.0, SVG Export Plug-In . SVG Version: 6.00 Build 0)  -->
<!DOCTYPE svg PUBLIC "-//W3C//DTD SVG 1.1//EN" "http://www.w3.org/Graphics/SVG/1.1/DTD/svg11.dtd">
<svg version="1.1" id="Layer_1" xmlns="http://www.w3.org/2000/svg" xmlns:xlink="http://www.w3.org/1999/xlink" x="0px" y="0px"
	 width="25.911px" height="25.717px" viewBox="0 0 25.911 25.717" enable-background="new 0 0 25.911 25.717" xml:space="preserve">
<path fill="#C4C0B1" d="M21.512,25.717H4.398C1.973,25.717,0,23.744,0,21.318V4.398C0,1.973,1.973,0,4.398,0h17.114
	c2.425,0,4.398,1.973,4.398,4.398v16.92C25.911,23.744,23.938,25.717,21.512,25.717z M4.398,1.5C2.8,1.5,1.5,2.8,1.5,4.398v16.92
	c0,1.599,1.3,2.898,2.898,2.898h17.114c1.598,0,2.898-1.3,2.898-2.898V4.398c0-1.598-1.3-2.898-2.898-2.898H4.398z"/>
<path opacity="0.6" fill="#DC5D39" d="M15.805,17.953l-4.916-4.917l4.916-4.916c0.145-0.145,0.145-0.378,0-0.523
	c-0.143-0.145-0.378-0.145-0.522,0l-5.178,5.178c-0.072,0.072-0.108,0.167-0.108,0.262s0.036,0.19,0.108,0.262l5.178,5.178
	c0.144,0.145,0.379,0.145,0.522,0C15.95,18.331,15.95,18.097,15.805,17.953z"/>
</svg>
