<?xml version="1.0" encoding="utf-8"?>
<!-- Generator: Adobe Illustrator 16.0.0, SVG Export Plug-In . SVG Version: 6.00 Build 0)  -->
<!DOCTYPE svg PUBLIC "-//W3C//DTD SVG 1.1//EN" "http://www.w3.org/Graphics/SVG/1.1/DTD/svg11.dtd">
<svg version="1.1" id="Layer_1" xmlns="http://www.w3.org/2000/svg" xmlns:xlink="http://www.w3.org/1999/xlink" x="0px" y="0px"
	 width="51px" height="54.5px" viewBox="0 0 51 54.5" enable-background="new 0 0 51 54.5" xml:space="preserve">
<g>
	
		<path fill-rule="evenodd" clip-rule="evenodd" fill="#E01E26" stroke="#E01E26" stroke-width="3.187400e-02" stroke-miterlimit="22.9256" d="
		M7.5,19.3v3.1c0,0.1,0,0.1,0.1,0.2c0.1,0,0.1,0.1,0.2,0.1c0.1,0,0.1,0,0.2-0.1C8,22.6,8,22.5,8,22.4v-0.8c0-0.1,0-0.1,0-0.2
		c0,0,0-0.1,0-0.1c0-0.1,0-0.2-0.1-0.2l0-0.1l0-0.1h0.9c0,0.1,0.1,0.2,0.1,0.3l0,0.4c0,0,0,0.1,0,0.1v0.1c0,0,0,0.1,0,0.1
		s0,0.1,0,0.1l0,0.2c0,0.2-0.2,0.4-0.3,0.6s-0.5,0.3-0.8,0.3c-0.4,0-0.7-0.1-0.9-0.3s-0.3-0.4-0.4-0.8v-2.9H7.5L7.5,19.3z
		 M10.7,19.3c0,0.2,0,0.3,0,0.3c0,0.1,0.1,0.1,0.2,0.2l0.1,0l0.1,0l0.1,0l0.1,0c0.2,0.1,0.3,0.1,0.3,0.2c0.1,0.1,0.1,0.2,0.1,0.4
		l0,0.1v0.1v0c0,0.1,0,0.2-0.1,0.3c-0.1,0.1-0.2,0.1-0.3,0.2c0.2,0.1,0.3,0.2,0.4,0.3c0,0.1,0.1,0.3,0.1,0.5c0,0.4-0.1,0.8-0.4,0.9
		c-0.2,0.2-0.5,0.2-0.8,0.2c-0.3,0-0.6-0.1-0.8-0.2c-0.2-0.1-0.3-0.3-0.4-0.4c0-0.1-0.1-0.2-0.1-0.2c0-0.1,0-0.1,0-0.2v-0.5h1v0.7
		c0,0.1,0,0.1,0.1,0.2c0.1,0,0.1,0.1,0.2,0.1h0c0.1,0,0.1,0,0.2-0.1s0.1-0.1,0.1-0.2v-0.6c0-0.1,0-0.2,0-0.2c0,0,0-0.1-0.1-0.1h-0.2
		V21h0.2c0.1,0,0.1,0,0.1-0.1s0,0,0-0.1v0v0v0v0v0v0v0v0c0-0.1,0-0.3,0-0.3c0-0.1-0.1-0.1-0.2-0.2l-0.1-0.1l-0.2-0.1l-0.1,0l-0.1,0
		c-0.2,0-0.3-0.1-0.4-0.2c-0.1-0.1-0.1-0.3-0.1-0.6H10.7L10.7,19.3z M14.6,19.3c0.1,0.1,0.1,0.2,0.1,0.3c0,0.1,0.1,0.2,0.1,0.3
		l0,0.1v0.1c0,0.2,0,0.3-0.1,0.5c-0.1,0.1-0.2,0.3-0.4,0.3c0.1,0,0.2,0.1,0.2,0.1c0.1,0.1,0.1,0.1,0.2,0.2l0,0.1c0,0,0,0,0,0.1v0.9
		c0,0.3-0.1,0.6-0.4,0.8c-0.2,0.2-0.5,0.3-0.8,0.3h0h0c-0.1,0-0.3,0-0.4-0.1c-0.1,0-0.3-0.1-0.4-0.2c-0.2-0.2-0.4-0.4-0.4-0.8v-0.7
		h1v1c0,0.1,0,0.1,0.1,0.1c0,0,0.1,0.1,0.2,0.1h0c0.1,0,0.1,0,0.2-0.1c0,0,0.1-0.1,0.1-0.1v-1c0-0.1,0-0.2,0-0.2
		c0,0-0.1-0.1-0.1-0.1h-0.2v-0.5h0.2l0,0l0,0c0.1,0,0.1-0.1,0.1-0.2c0-0.1,0-0.2,0-0.3c0-0.2,0-0.3,0-0.4c0-0.1,0-0.2-0.1-0.2l0-0.1
		l0-0.1l0,0l0,0H14.6L14.6,19.3z M16.6,20C16.6,20,16.6,19.9,16.6,20c-0.1-0.1-0.1-0.1-0.1-0.1h0c0,0-0.1,0-0.1,0s0,0,0,0.1v0.4
		h-0.8V20c0-0.2,0.1-0.4,0.3-0.5c0.1-0.1,0.2-0.1,0.3-0.1c0.1,0,0.2,0,0.3,0h0c0.2,0,0.4,0.1,0.6,0.2c0.2,0.1,0.3,0.3,0.3,0.5v0.8
		c0,0.1,0,0.2,0.1,0.2c0,0,0.1,0.1,0.1,0.1l0,0l0,0l0,0l0,0c0.2,0.1,0.3,0.2,0.3,0.4c0.1,0.1,0.1,0.3,0.1,0.5c0,0.4-0.1,0.7-0.4,0.9
		c-0.1,0.1-0.3,0.2-0.5,0.2c-0.2,0.1-0.3,0.1-0.5,0.1h0c-0.4,0-0.7-0.1-1-0.3c-0.3-0.2-0.5-0.5-0.5-0.9c0-0.2,0.1-0.4,0.2-0.6
		c0.1-0.2,0.3-0.3,0.4-0.4l0.1,0l0.1,0l0.1,0l0.1,0c0.1,0,0.2,0,0.3-0.1c0.1,0,0.1-0.1,0.1-0.1V20L16.6,20z M16.7,21.5
		c-0.2,0-0.3,0.1-0.4,0.2c-0.1,0.1-0.1,0.3-0.1,0.4c0,0.2,0,0.3,0.1,0.4c0.1,0.1,0.2,0.2,0.4,0.2h0h0c0.1,0,0.2-0.1,0.3-0.2
		c0.1-0.1,0.1-0.2,0.1-0.4c0-0.2,0-0.3-0.1-0.4C16.9,21.5,16.8,21.5,16.7,21.5C16.7,21.5,16.7,21.5,16.7,21.5L16.7,21.5z"/>
	<path fill-rule="evenodd" clip-rule="evenodd" fill="#E01E26" d="M7.3,39.8l-2-1.3H11c5.6,11.9,23.3,11.9,28.9,0h5.6l-2,1.3
		C36.9,55.7,14.1,55.7,7.3,39.8L7.3,39.8z M50.3,39.8C49,40,46.6,40.1,44,40.1c-0.2,0.8-0.6,1.7-1,2.7c3,0.8,5.3,1,7.1,0.6
		c-0.6-0.5-1.3-1.1-1.9-1.7C49.1,41.2,49.8,40.6,50.3,39.8L50.3,39.8z M45.8,38.8l-1.6,0.9l1.8-0.1C46.1,39.4,46,39.1,45.8,38.8
		L45.8,38.8z M0.7,39.8c0.6,0.7,1.2,1.4,2.1,1.8c-0.6,0.7-1.2,1.2-1.9,1.7C2.7,43.9,5,43.7,8,42.9c-0.4-1-0.8-2-1-2.7
		C4.4,40.1,2,40,0.7,39.8L0.7,39.8z M5.1,38.8c-0.2,0.2-0.2,0.5-0.2,0.9l1.8,0.1L5.1,38.8z"/>
	<path fill-rule="evenodd" clip-rule="evenodd" fill="#FFFFFF" d="M4.3,40.5c0.5,0,0.5,0,1,0c-0.1,0.3-0.2,0.7-0.2,1
		c0.3,0,0.7-0.1,1-0.2c0,0.7,0,0.3,0,1c-0.3-0.1-0.7-0.2-1-0.2c0,0.3,0.1,0.7,0.2,1c-0.7,0-0.3,0-1,0c0.1-0.3,0.2-0.7,0.2-1
		c-0.3,0-0.7,0.1-1,0.2c0-0.5,0-0.5,0-1c0.3,0.1,0.7,0.2,1,0.2C4.5,41.2,4.4,40.8,4.3,40.5z"/>
	<path fill-rule="evenodd" clip-rule="evenodd" fill="#FFFFFF" d="M46.7,40.5c-0.5,0-0.5,0-1,0c0.1,0.3,0.2,0.7,0.2,1
		c-0.3,0-0.7-0.1-1-0.2c0,0.7,0,0.3,0,1c0.3-0.1,0.7-0.2,1-0.2c0,0.3-0.1,0.7-0.2,1c0.7,0,0.3,0,1,0c-0.1-0.3-0.2-0.7-0.2-1
		c0.3,0,0.7,0.1,1,0.2c0-0.5,0-0.5,0-1c-0.3,0.1-0.7,0.2-1,0.2C46.5,41.2,46.6,40.8,46.7,40.5z"/>
	
		<path fill-rule="evenodd" clip-rule="evenodd" fill="#E01E26" stroke="#E01E26" stroke-width="3.187400e-02" stroke-miterlimit="22.9256" d="
		M34.8,20.4c0-0.1,0-0.1-0.1-0.1h-1c-0.1,0-0.1,0-0.1,0.1v0.4c0,0.1,0,0.1,0.1,0.1h0.4v0.8c-0.1,0-0.2,0.1-0.4,0.1
		c-0.6,0-0.8-0.6-0.8-1.4c0-0.9,0.2-1.4,0.8-1.4c0.4,0,0.7,0.2,0.7,0.2c0,0,0,0,0.1-0.1l0.2-0.4c0,0,0-0.1,0-0.1
		c0-0.1-0.5-0.3-1-0.3c-1,0-1.5,0.7-1.5,2c0,1.4,0.5,2,1.5,2c0.5,0,1.1-0.2,1.1-0.4V20.4L34.8,20.4z M36.7,19.1h0.7
		c0,0,0.1,0,0.1-0.1l0.1-0.4c0,0,0,0,0-0.1c0-0.1,0-0.1-0.1-0.1h-2.3c-0.1,0-0.1,0-0.1,0.1V19c0,0.1,0,0.1,0.1,0.1h0.7v3.1
		c0,0.1,0,0.1,0.1,0.1h0.5c0.1,0,0.1,0,0.1-0.1V19.1L36.7,19.1z M40.7,18.6c0-0.1,0-0.1-0.1-0.1h-0.5c-0.1,0-0.1,0-0.1,0.1V21
		c0,0.4,0,0.8-0.6,0.8s-0.6-0.4-0.6-0.8v-2.4c0-0.1,0-0.1-0.1-0.1h-0.5c-0.1,0-0.1,0-0.1,0.1V21c0,0.8,0.3,1.4,1.4,1.4
		s1.4-0.6,1.4-1.4V18.6L40.7,18.6z M43.6,21.7C43.6,21.6,43.5,21.6,43.6,21.7c-0.2-0.1-0.4,0.2-0.7,0.2c-0.6,0-0.7-0.6-0.7-1.5
		c0-1,0.2-1.3,0.7-1.3c0.3,0,0.5,0.3,0.6,0.3c0,0,0,0,0.1-0.1l0.2-0.3c0,0,0-0.1,0-0.1c0-0.1-0.5-0.4-0.9-0.4c-1,0-1.5,0.8-1.5,2.1
		c0,1.4,0.5,2,1.5,2c0.6,0,0.9-0.3,0.9-0.4c0,0,0-0.1,0-0.1L43.6,21.7z"/>
	
		<path fill-rule="evenodd" clip-rule="evenodd" fill="#0769B3" stroke="#0769B3" stroke-width="7.378243e-02" stroke-miterlimit="22.9256" d="
		M16,7.6c0,0.2,0.1,0.4,0.1,0.5c0,0.1,0,0,0.1,0.2c0.1,0.2,0.4,0.7,0.6,0.8c0,0,0.1,0.1,0.2,0.3c0.6,1.3,0.6,2.7,1.3,4
		c0.7,1.2,1.6,2.6,2.6,3.6c0.3,0.3,0.5,0.6,0.8,0.8c1,1.1,0.4,2.9,0.4,4.2c0,0.3,0.1,0.3,0.1,0.4s0,0.1-0.1,0.2
		c-1.6,1.7-1.2,3.5-1.2,5.6c0,0.2,0.4,0.2,0.4,0.1c-0.5-3.1,0.5-5.4,1.6-6.2c0.3-0.2,0.7-0.5,1-0.6c0.1-0.1,0.3-0.1,0.3,0
		c0.1,0.8,0.5,0.7,1,1.2c0.3,0.3,0.4,0.1,0.5,0c0.2-0.4,0.4,0.7,0.8,0.3c0.3-0.3,0.2-0.4,0.5-0.7c0-0.1,0.2-0.1,0.2-0.1
		c0.3,0.2,0.3-0.2,0.3-0.5c0-0.1,0.1-0.3,0.1-0.4c0,0,0-0.1,0-0.1c0.3-0.1,0.3-0.8,0.3-0.8c0.2-0.2,0.3-0.3,0.3-0.4
		c0-0.2,0.1-0.3,0.1-0.4c0-0.1-0.2-0.3-0.2-0.4c0-0.1-0.5-0.5-0.6-0.6s-0.2-0.1-0.2-0.1c-0.1,0-0.2-0.2-0.3-0.2
		c-1.1,0-1.4-0.6-2.3,0.3c-0.2,0.2-0.4,0.6-0.5,0.9c0,0.3,0,0.6,0.1,0.9c0,0.1,0.1,0.4,0,0.5c0,0,0,0-0.1,0s-0.3,0-0.3,0.2
		c-0.2,0.1-0.4,0.1-0.6,0.2c-0.5,0.3-1,0.8-1,0.6c0-0.8,0.4-2.6,0.1-3.7c-0.1-0.5-0.5-0.9-0.8-1.1c-0.7-0.5-2-1.7-2.2-2.5
		c-0.1-0.3-0.4-0.4-0.6-0.8c-0.8-1.5-1-2.9-1.6-4.4c0,0,0,0,0,0c0-0.1,0-0.2-0.1-0.2C17.1,9.1,17,9,17,9c0,0-0.2-0.1-0.4-0.4
		c-0.2-0.3-0.4-0.6-0.4-0.8c-0.1-0.3-0.1-0.6,0-0.6c0.2-0.1,0,0.1,0,0.4c0,0.1,0.1,0.4,0.1,0.4c0.1,0,0.1,0,0.1-0.1
		c0,0-0.1-0.2-0.2-0.3c0,0,0-0.1,0-0.1c0.1-0.1,0.2,0,0.2,0c0,0.2,0.2,0.1,0.1,0c-0.1-0.2-0.2-0.3-0.2-0.4c0-0.1,0-0.2,0.1-0.2
		c0.1,0,0.1,0.4,0.2,0.4c0.1,0-0.1-0.6-0.1-0.7c0,0,0-0.1,0-0.2c0-0.2,0.2-0.1,0.2,0c0.1,0.4,0.4,1.6,0.8,1.5c0.2-0.1,0.1-0.4,0-0.5
		c0-0.1-0.1-0.2,0-0.3c0.1-0.2,0.2-0.1,0.2,0.1c0.1,0.1,0.1,0.3,0.1,0.4c0,0.4,0.1,0.6,0,1.1c-0.1,0.3-0.1,0.4,0,0.7
		c0.1,0.3,0.3,0.7,0.5,1.1c0.7,1.1,1.3,2.4,2,3.4c0.5,0.7,3.5,2.2,3.9,2.2c0.6,0.1,0.5-0.4,0.6-0.6c0.1-0.2,0.2,0.1,0.4,0.2
		c0.1,0,0,0,0.1,0c0.3,0,0.6-0.3,0.6-0.3c0.1-0.1,0.2-0.3,0.3-0.3c0.1,0.1,0,0.4,0.1,0.7c0.1,0.3,0.6,0.3,0.8,0.2
		c0.4-0.1,1-0.4,1.6-0.8h0c0.7-0.4,1.3-0.9,1.5-1.2c0.7-1,1.1-2.3,1.8-3.4c0.2-0.3,0.5-0.9,0.6-1.2c0.1-0.3,0.1-0.4,0-0.7
		c-0.1-0.5,0-0.6,0-1.1c0-0.1,0-0.3,0.1-0.4C32.9,7,33,6.9,33.1,7.1c0,0.1,0,0.2,0,0.3c0,0.1-0.2,0.4,0,0.5c0.4,0.2,0.7-1.1,0.8-1.5
		c0-0.1,0.1-0.2,0.2,0c0,0.1,0,0.2,0,0.2c0,0.1-0.3,0.7-0.1,0.7c0.1,0,0.1-0.5,0.2-0.4c0.1,0,0,0.1,0.1,0.2c0,0.2,0,0.2-0.2,0.4
		c-0.1,0.1,0.2,0.1,0.1,0c0-0.1,0.1-0.2,0.2,0c0,0,0,0.1,0,0.1c0,0.1-0.1,0.2-0.2,0.3C34,8,34.1,8.1,34.2,8c0.1,0,0.1-0.3,0.1-0.4
		c0-0.3-0.2-0.5,0-0.4c0.1,0.1,0.1,0.4,0,0.6c0,0.1-0.2,0.5-0.4,0.8C33.8,8.9,33.6,9,33.6,9c0,0-0.1,0.1-0.1,0.2c0,0,0,0.1,0,0.2
		c0,0,0,0,0,0c-0.6,1.5-0.8,3.1-1.7,4.6c-0.7,1.3-1.6,2.5-2.7,3.6c-0.3,0.3-0.6,0.8-0.7,1.3c-0.3,2.3,0.5,5.2,0.4,6.3
		c0,0.3,0,0.9,0.1,1c0.1,0.1,0.1,0.1,0.2,0.1c0.3,0.2,0.3,0.7,0.3,0.1c0-2.3-0.9-4.7-0.6-7.3c0-0.4,0-0.8,0.3-1
		c0.8-0.7,1.7-1.7,2.3-2.7c0.2-0.1,1-1.7,1.1-2c0.4-1.1,0.7-2.4,1.2-4.1c0-0.1,0.1-0.2,0.2-0.3C34,9,34.3,8.5,34.4,8.3
		c0.1-0.2,0.1-0.1,0.1-0.2c0-0.1,0.1-0.3,0.1-0.5c0-0.2,0-0.3-0.1-0.7c0,0,0-0.2,0-0.2c0,0,0,0,0-0.1c0-0.6-0.4-0.4-0.4-0.4
		c0,0,0,0,0,0c0-0.1-0.2-0.1-0.2,0c-0.1,0.1-0.2,0.5-0.2,0.6c-0.1,0.1-0.2,0.4-0.3,0.6c-0.2,0.5-0.3,0.2-0.2,0c0-0.1,0.1-0.2,0-0.3
		C33.1,7,33,6.9,32.9,7c-0.1,0.1-0.1,0.1-0.2,0.3c-0.1,0.2,0,0.4-0.2,0.6c-0.3,0.5,0.2,0.9-0.1,1.5c-0.1,0.2-0.2,0.4-0.3,0.5
		c-0.6,1-1.1,1.8-1.5,2.8c-0.1,0.4-0.7,1.2-0.9,1.3c-0.2,0.1-1.1,0.9-1.5,1.2v0c-0.4,0.3-0.7,0.5-0.9,0.5c-0.6,0-0.8-0.2-0.7-0.8
		c0-0.1,0.3-0.5,0.3-0.5c0-0.2,0.2-0.5,0.3-0.7c0-0.1,0.2-0.7,0.2-0.7c0.3-0.6-0.7-2.1-1-2.3c-0.9-0.5-2.1-0.2-2.9,0.8
		c-0.1,0.2-0.2,0.5-0.3,0.7c0,0.3,0,0.7,0,0.9c0,0.4,0,0.5,0,0.6s0.1,0.3,0.1,0.4c0,0.1,0.3,0.3,0.5,0.5c0.1,0.2,0.3,0,0.3,0.1
		c0,0.1,0.1,0.2,0.1,0.3c0,0.1,0,0.3,0,0.4c-0.1,0.3-0.4,0.2-0.6,0.1c-0.8-0.3-2.2-1.2-2.8-1.6c-0.2-0.2-0.6-0.6-0.8-1
		c-0.4-1.1-1.2-2-1.8-3c-0.1-0.1-0.2-0.3-0.3-0.5c-0.3-0.6,0.2-1-0.1-1.5c-0.1-0.2,0-0.5-0.2-0.6c-0.1-0.1-0.1-0.2-0.2-0.3
		c-0.1-0.1-0.3,0-0.3,0.2c0,0.1,0,0.2,0,0.3c0.1,0.2,0,0.5-0.2,0C17.2,7.3,17.1,7,17,6.8c-0.1-0.1-0.1-0.6-0.2-0.6
		c-0.1,0-0.2,0-0.2,0c0,0,0,0,0,0c0-0.1-0.4-0.3-0.4,0.4c0,0,0,0,0,0.1c0,0,0,0.2,0,0.2C16,7.3,15.9,7.4,16,7.6L16,7.6z M10.1,35.4
		c0-0.2,0.2-0.4,0.4-0.5c0.6-0.3,1.6,0.1,1.8,0.2c0.6,0.5,1,0.8,1.1,0.7c0.1-0.1-0.5-0.6-1-1.4c-0.4-0.7-1.2-2.7-0.8-3.6
		c0.1-0.4,0.6-0.5,1.1-0.5c0,0,0.1,0.1,0-0.1c-0.2-0.6,0.2-1.3,0.5-1.5c0.3-0.2,0.9-0.2,1.2,0.1c0.2,0.2,0.2,0.3,0.3,0.2
		c0.3-0.2,0.7-0.8,1.5-0.2c0.4,0.3,0.6,0.9,0.6,0.9c0.1-0.5,1.5-0.6,1.9,0.2c0.3,0.6,0.5,1.1,0.9,1.7c0.2-0.8,0.8-1.7,1.4-2.6
		c0.5-0.8,1.3-1.7,2.3-1.9c0.4-0.1,0.6-0.1,0.8,0s0.3,0.1,0.4,0.2c0.2,0.1,0.4,0,0.6,0c0.1,0,0.4-0.3,0.4-0.3
		c0.3-0.5,0.4-1.1,1.1-1.1c0.4,0,0.8,0.2,1.1,0.2c0.8,0,1.3,2.2,1.2,2.7c-0.1,0.2-0.4,0.6-0.7,0.6c-0.2,0-0.4,0.1-0.5,0.1
		s-0.1,0.2-0.1,0.2c-0.1,0-0.2,0.1-0.3,0.1c0,0,0,0.1-0.1,0.1c0,0-0.2,0-0.3,0c-0.1,0-0.2,0.1-0.4,0.3c-0.2,0.2-0.4,0.2-0.4,0
		c0,0-0.1-0.2-0.1-0.2c-0.8,0-1,0.6-1.3-0.5c0,0-0.1,0-0.1,0c0,0-0.3-0.2-0.3-0.3c0-0.1-0.1-0.2-0.2-0.4c-0.1-0.1-0.1-0.3-0.1-0.5
		c0-0.2,0-0.4,0-0.4c0-0.1,0,0.1,0.1,0c0-0.1,0.1-0.3-0.1-0.5c-0.2-0.2-0.8-0.3-1-0.2c-0.3,0.1-0.3,0.1-0.4,0.1
		c-2.6,1.7-4.2,6.5-3.1,8.6c0.1,0.1,0.1,0.2,0.2,0.2c0.1,0,0.5-0.1,0.6-0.2c0,0,0.2-0.4,0.3-0.5c0.6-1.2,0.9-2.7,1.1-4.1
		c0.1-0.9,0.3-2.1,0.3-3c0-0.1,0.4-0.1,0.4,0.2c0.1,0.8-0.4,2.3-0.4,3.1c0,1.4-0.6,2.9-1.1,3.7C21.1,35.8,21,35.9,21,36
		c0,0.1-0.1,0.2-0.1,0.3s-0.5,0.1-0.6,0.2c-0.1,0-0.2,0.1-0.3,0.1c-0.1,0-0.4,0.3-0.5,0.3c-0.1,0-0.3,0.2-0.3,0.3
		c0,0-0.4,0.4-0.2,0.3c0,0,0.1-0.1,0.2-0.2s0.2-0.1,0.2-0.1c0,0-0.4,0.4-0.5,0.5c0,0-0.1,0.1-0.1,0.2c0,0.1,0.1,0.1,0.1,0
		c0.1-0.1,0.4-0.4,0.4-0.4c0.1,0-0.1,0.2-0.2,0.3c-0.1,0-0.2,0.2-0.3,0.3C19,38,19,38.2,19.2,38c0.1-0.1,0.1-0.1,0.2-0.2
		c0.1-0.1,0.2-0.3,0.4-0.4c0.1,0-0.3,0.3-0.5,0.6c-0.2,0.2,0.1,0.2,0.2,0.1c0-0.1,0.1-0.1,0.2-0.2c0.1-0.1,0.4-0.4,0.6-0.5
		c0.2-0.1,0.4-0.2,0.4,0c0.1,0.1,0,0.3-0.1,0.3c0,0-0.1,0.1-0.2,0.2c0,0.1-0.1,0.1-0.1,0.2c0,0,0.1,0,0.2-0.1c0.2-0.2,0.8-0.7,0.8-1
		c0-0.4,0.3-0.6,0.3-0.7c0.4-0.3,1.5-3.1,1.6-3.3c0.1-0.3,0.8-3.3,0.7-3.3c-0.1,0,0.3-0.4,0.3-0.2c0,0.2,0,0.2,0,0.5
		c-0.1,1.1-0.7,1.8-0.7,3.1c0,0.6-0.9,2.1-1.3,2.8c-0.2,0.3-0.3,0.4-0.5,0.6c-0.1,0.1-0.2,0.3-0.2,0.5c0,0.2-0.3,0.7-0.5,0.8
		c-0.2,0.2-0.5,0.6-0.7,0.5c-0.3-0.2,0.3-0.6,0.2-0.7s-0.4,0.3-0.6,0.3s-0.4,0.4-0.5,0.4c0,0-0.2,0.1-0.3-0.1c0,0,0,0,0,0
		c-0.1,0.1-0.3,0.1-0.2-0.2c0-0.1,0.1-0.1,0.1-0.1c-0.1,0-0.1-0.1-0.1-0.2c0.1-0.1,0.1-0.1,0.1-0.1c0,0,0,0-0.1,0c0,0,0-0.1,0-0.1
		c0-0.1,0.1-0.2,0.2-0.3c0.1-0.2,0.3-0.4,0.5-0.5c0,0,0,0,0,0c-0.2-0.5-0.5-0.8-0.5-1.4c0-0.2,0-0.4,0-0.6c-0.1-0.1-0.3-0.3-0.4-0.4
		c-1.4-1.4-1.9-2.6-2.4-4.5c-0.2-0.8-1.3-0.7-1.2,0.2c0.1,0.5,0.2,1,0.4,1.5c0.7,1.9,1.7,2.6,2.6,3.5c0.2,0.2,0.2,0.3,0.1,0.4
		c-0.1,0.1-0.2,0-0.4-0.1c-0.6-0.5-2.3-2-2.8-3.5c-0.4-1.2-0.3-1.6-0.5-2.1c-0.1-0.3-0.5-0.4-0.8-0.3c-0.3,0.1-0.4,0.4-0.3,1.4
		c0.2,0.1,0.4,0.5,0.5,1.2c0.3,1.6,2,3.5,2.9,4.1c0.3,0.2,0.1,0.5-0.3,0.3c-0.6-0.4-1.1-0.9-1.6-1.5c-0.7-0.8-1.3-1.6-1.4-2.5
		c-0.1-0.4-0.1-0.8-0.3-1.1c-0.2-0.2-0.5-0.3-0.7-0.3c-1.5,0.3,0.8,4.8,1.7,5.3c0.3,0.2,0.7,0.5,1,0.7c0.4,0.2,1.1,0.2,1.5,0.3
		c0.8,0.1,1.3,0.8,1.8,0.7v0c0,0.1,0,0.3,0,0.4c-0.6,0.1-1.5-0.7-2.2-0.8c-0.4,0-1.5-0.5-2-0.5c-1.2,0-2.6-2.1-3.6-1.6
		c-0.4,0.2-0.3,0.6,0,0.9c1.3,1.3,2.9,2.7,4.6,3.3c0.9,0.3,1.6,0.4,2.1,0.6c1,0.4,1.2,0.9,1.6,1.8c0,0,0.1,0.1,0,0.1
		c-0.1,0.2,0.3,0.6,0.5,0.7c0.3,0.1-0.1,0.2-0.2,0.2c-0.1,0-0.1-0.1-0.2-0.1c-0.1-0.2-0.3-0.4-0.3-0.3c-0.1,0.3,0,1.6,0,2.3
		c0,0.4,0,0.4-0.1,0.4l-0.6-0.5c-0.1-0.1,0.1,0,0.1-0.4c0-0.9,0.1-2.7-0.7-3.3c-0.5-0.3-1.1-0.4-1.8-0.7c-1.2-0.5-2.4-1-3.2-1.7
		C12.1,37.8,10,36.3,10.1,35.4L10.1,35.4z M19.5,32.2c-0.5-0.9-0.9-1.7-1.2-2.1c-0.4-0.5-1.2-0.2-1,0.5c0.3,1,1.1,2.4,2,3.3
		C19.2,33.3,19.3,32.9,19.5,32.2L19.5,32.2z M24.3,21.3c0-0.1,0.2-0.2,0.3-0.1c0.3,0.2,0.5,0,0.6-0.2c0-0.2-0.1-0.1-0.2,0
		c0,0-0.2,0-0.3-0.1c0-0.1-0.1-0.1-0.1-0.2c0-0.1-0.1-0.2,0-0.3c0.1-0.1,0.2-0.1,0.4,0.1c0.2,0.1,0.2-0.5,0.1-0.6
		c-0.1-0.1-0.1,0-0.3,0c-0.4,0,0.1-1.1,0.6-1.4c0.9-0.3,1.7,0.4,1.7,0.3c0-0.1,0.3,0.2,0.4,0.3c0.1,0.1,0.6,0.2,0.3,0.9
		c-0.3,0.7-1.3-0.5-1.5-0.5s-0.7,0.6-0.9,0.8c-0.2,0.2,0.1,0.2,0.1,0.3c0,0.1,0,0,0.1-0.1c0,0,0.2-0.1,0.3-0.2
		c0.1-0.1,0.3-0.5,0.3-0.4c0.4,0.6,1,0.7,1.1,0.6c0.1-0.1,0.2,0.1,0.1,0.1c-0.1,0.2,0,0.2,0,0.3c0.1,0.2-0.1,0.2-0.2,0.3
		c-0.1,0.2-0.1,0.7-0.2,0.7c0,0-0.4-0.2-0.4,0c0,0.1-0.2,0.6-0.4,0.6c-0.2,0-0.6-0.4-0.7-0.6c-0.1-0.1-0.3-0.5-0.4-0.3
		c-0.1,0.2,0.2,0.5,0.2,0.5c0,0.1-0.6-0.1-0.8-0.5C24.3,21.7,24.3,21.5,24.3,21.3L24.3,21.3z M24.4,14c-0.1-0.1-0.2-0.5-0.2-0.7
		c0-0.2,0.1-0.7,0.1-0.8c0-0.1,0.2-0.3,0.2-0.3c0,0,0.2-0.2,0.4-0.3c0.2-0.1,0.1-0.1-0.2-0.1s-0.1,0.1-0.3,0.1S23.9,13,23.9,13
		c0.1,0,0.1,0.6,0.1,0.6c0,0,0.1,0.2,0,0.3C24,14,23.7,14,23.6,13.8s0.1-0.2,0-0.5c-0.3-0.7,0.1-0.9,0.2-1.3
		c0.1-0.5,0.5-0.6,0.7-0.9c0.2-0.2,0.2-0.3,0.5-0.3s0.8-0.2,1.1,0c0.3,0.2,0.6,0.4,0.7,0.6c0.1,0.2,0.3,0.8,0.1,0.8
		c-0.2,0-0.3,0.1-0.4,0c-0.1,0-0.7-0.2-0.7-0.3S25.8,12,25.6,12c-0.2,0-0.5,0-0.6,0.2C25,12.4,25.3,12,25.5,12
		c0.2,0.1,0.3,0.3,0.4,0.3c0.2,0,0.4-0.1,0.4,0.1c0,0.2,0.5,0.3,0.5,0.4c0.1,0.3,0,0.2-0.1,0.4c0,0.3,0.1,0.4-0.1,0.8
		c-0.1,0.2-0.1,0.2-0.2,0.3c-0.1,0.1-0.1,0.3-0.2,0.5c-0.4,0.8-1.3,0.8-1.7-0.1c0-0.1-0.1-0.2-0.1-0.2c0-0.1-0.1-0.1-0.1-0.2
		C24.4,14.1,24.4,14.1,24.4,14L24.4,14z M24.7,28.3c0-0.2,0.3-0.7,0.5-0.4c0.1,0.4,0.3,0.3,0.5,0.3s0.1,0,0.1-0.1
		c0-0.1-0.2,0-0.3-0.2s0-0.4,0.1-0.4c0.1-0.1,0.3-0.1,0.3,0c0,0.2,0.2,0.4,0.4,0.2c0.2-0.1,0.1-0.2,0-0.3c0-0.1-0.2-0.3-0.2-0.3
		s-0.1-0.1,0-0.3c0.1-0.2,0.2-0.2,0.3-0.3c0.1-0.1,0.9-0.3,0.9-0.1c0,0.1,0.4,0.3,0.4,0.3c0.6,0.1,1.4,2.1,0.9,2
		c-0.1,0,0,0.2-0.1,0.3c-0.1,0.1-0.4,0.3-0.5,0.1c-0.1-0.1-0.2-0.2-0.2-0.2s-0.1-0.4-0.1-0.4c0,0-0.1-0.4-0.1-0.5
		c0-0.1,0-0.1-0.1-0.2s-0.5,0-0.6,0c-0.2,0-0.4-0.2-0.6,0.1c-0.2,0.2,0.5,0.3,0.7,0.3c0.2,0,0.2,0,0.3,0.1c0.1,0.1,0.1,0.6,0.1,0.6
		c0,0,0.3,0.3,0.3,0.4c0,0.1-0.2,0.5-0.3,0.4c-0.2-0.1-0.3,0.1-0.4,0.1S26.7,30,26.7,30c0,0-0.1,0-0.2,0c-0.1-0.1-0.1-0.1-0.2-0.1
		c0,0-0.1,0.1-0.2,0.1c-0.1,0.1-0.6,0.1-0.7,0c-0.2-0.2,0-0.6,0-0.8c-0.1-0.3,0-0.5-0.1-0.5c-0.1,0-0.1,0-0.2,0.1s0.1,0.3,0,0.4
		c-0.1,0.1-0.2-0.3-0.2-0.4C24.8,28.7,24.7,28.5,24.7,28.3L24.7,28.3z M40.9,35.5c0,0.3-0.1,0.7-0.6,1c-0.8,0.6-1.2,1.6-2,2
		c-0.9,0.4-1.9,1.3-2.8,1.5c-0.7,0.2-1.7,0.4-2.4,0.9c-1.1,0.9-0.5,2.7-0.7,3.6c0,0.2-0.6,0.5-0.6,0.4c-0.1-0.5,0.1-2,0-2.4
		c0-0.1-0.2,0.3-0.4,0.4c-0.1,0.1-0.1-0.2-0.1-0.3c0-0.3,0.4-0.6,0.5-0.8c0.3-0.7,0.5-1.1,1.2-1.6c0.8-0.6,1.9-0.6,2.5-0.8
		c0.3-0.1,0.6-0.3,1-0.5c0.5-0.4,0.9-0.5,1.4-0.7c0.9-0.5,1.6-1.4,2.3-2.1c0.3-0.3,0.5-0.7,0-0.8c-0.9-0.3-2,1.1-2.9,1.5
		c-0.4,0.2-2.1,0.6-2.5,0.5c-4.1-0.7-5.9-0.3-7.1,0.2c-0.4,0.2-0.6,0.2-0.8,0.1c-0.2-0.1-0.3-0.2-0.1-0.3c0.1-0.1,0.6,0,0.6-0.1
		c0-0.1,0.4-0.1,0.4-0.2c0-0.1,0.3-0.4,0.3-0.5c0-0.2-0.1-0.4,0-0.4s-0.1-0.4-0.1-0.5c-0.1-0.3-1.1-0.9-1.3-0.9
		c-0.4,0-0.9-0.5-1.3-0.6c-0.2,0-0.4,0.1-0.4,0.2c0,0.1-0.1,0.1-0.1,0.2c0,0.1,0,0.2,0.2,0.3c0.1,0.1,0.3,0.2,0.3,0.2
		c0,0,0.5,0.5,0.6,0.6c0.1,0.2,0.4,0.5,0.4,0.7c0,0.3,0,0.6,0,0.8c0,0.2-0.1,0.2-0.1,0.3c0,0.1-0.1,0.3-0.4,0.5
		c-0.3,0.2-1.5,0.1-2.1,0.1s-1.5,0-1.8,0c-0.3,0-0.2-0.1-0.2-0.1c-0.1,0-0.3-0.1-0.3-0.1s0.5,0,0.7,0c0.2,0,0.8,0,1.2,0
		c0.4,0,0.7,0.1,1.1,0.1s1,0,1.2-0.1c0.2-0.1,0.5-0.3,0.5-0.6c0-0.3-0.1-1-0.2-1.2c-0.1-0.2-0.2-0.3-0.2-0.3S25,35.1,25,35.1
		c0,0-0.4-0.4-0.5-0.4c-0.1-0.1-0.5-0.1-0.6-0.3c-0.1-0.2,0.5-0.1,0.5-0.3c0-0.2,0.2-0.2,0.2-0.3c0.1-0.1,0.3-0.3,0.3-0.3
		c0-0.2,1.2-1.2,1.4-1.4c0.1-0.1,0.4-1.2,0.6-0.8c0,0.1-0.1,0.2-0.1,0.3c0.1,0.4,0.1,1.4,0,2.5c0,0.2,0.9,1,1.1,0.9
		c0.1-0.1,0-0.3,0-0.4s0-0.6,0-0.8c0-1.3-0.4-3.5,0.1-3.5c0.1,0,0.1-0.2,0.2,0c0.1,1.5,0,3,0.1,4.5c0,0.2,0.7,0,1.1-0.5
		c1.2-1.2,2.3-2.8,2.9-4.4c0.3-0.7,1.5-0.6,1.8-0.2c0,0,0.2-0.7,0.6-0.9c0.7-0.4,1.2-0.1,1.5,0.2c0,0,0-0.1,0.3-0.3
		c0.7-0.5,1.5,0,1.7,0.7c0,0.2,0,0.9,0,0.9c0.7-0.1,1.1,0.3,1.1,0.7c0.3,1.2-0.4,3.1-1.3,4.2c-0.4,0.4-0.7,0.9,0.1,0.3
		c0.2-0.1,0.3-0.3,0.6-0.4c0.3-0.3,1.2-0.6,1.8-0.3C40.6,34.9,40.9,35.2,40.9,35.5L40.9,35.5z M25.3,33.6c0,0,1.3,1.1,1.2,0.4
		c0-0.6,0.3-1.7-0.1-1.7c-0.1,0-1.1,1.1-1.1,1.1s-0.1,0-0.1,0.1C25.2,33.5,25.3,33.6,25.3,33.6L25.3,33.6z M35.8,36.7
		c0.4-0.1,0.5-0.4,0.8-0.6c0.7-0.4,2.1-2.8,2.3-4.3c0-0.5,0-1-0.4-1.1c-0.2-0.1-0.4,0.1-0.6,0.2c-0.2,0.2-0.4,0.6-0.5,1
		c-0.5,1.5-1.6,3.3-2.9,4.2c-0.4,0.3-0.6-0.1-0.3-0.3c0.9-0.6,1.8-1.9,2.6-3c0.3-0.4,0.3-1.8,0.9-2.2c0.1,0,0-0.2,0-0.2
		c0.1-1.2-0.2-1.3-0.5-1.3c-0.3,0-0.6,0.2-0.7,0.5c-0.2,0.5,0,1.2-0.6,2.3c-0.6,1.1-2.2,2.8-2.9,3.4c-0.3,0.3-0.7,0.3-0.2-0.3
		c0.9-1.1,2-1.9,2.7-3.7c0.2-0.5,0.2-1,0.3-1.5c0.1-0.9-1-0.8-1.2,0c-0.6,3.2-2.3,4.3-3,5c-0.3,0.3-0.6,0-0.1-0.4
		c1-0.8,2.1-2.5,2.3-3.7c0.1-0.7-0.8-0.9-1.1-0.4c-0.5,0.7-1.3,2.5-2.6,3.9c-0.6,0.6-1.1,1.2-1.7,1.2c-0.1,0-0.3,0.6-0.2,0.6
		c0.1,0,0.1,0.8,0.3,0.8s0,0.1,0.1,0.1s0.1,0,0.2,0c2-0.3,3.3-0.1,5.6,0.2C34.8,36.9,35.4,36.8,35.8,36.7L35.8,36.7z M27.5,23.9
		c0,0.6-0.3,1.1-0.3,1.7c0,0.1-0.4,0.4-0.4,0.2c0-0.6,0.5-1.4,0.4-2c0-0.1,0-0.4-0.1-0.5c0-0.1-0.1-0.1-0.1-0.2c0,0-0.1-0.1-0.1-0.2
		c0-0.1,0-0.2,0.2-0.1C27.4,22.9,27.5,23.7,27.5,23.9L27.5,23.9z M25.2,38.6c-0.1,0.1,0,0.2,0.1,0.3c0.2,0.4,0.3,1.4-0.1,2.3
		c-0.1,0.1-0.1,0.2-0.1,0.3c0.1,0.9,0.1,2,0.1,2.6c0,0.7,0,1.1,0,1.5c0,0.1-0.1,0.3,0,0.3l0.7,0.2c0.1,0,0-0.2,0-0.4
		c0-0.8,0-2.4,0-4c0-0.2-0.1-0.3,0-0.5c0.7-1.9,0-3.1-0.2-3L25.2,38.6z"/>
	<path fill-rule="evenodd" clip-rule="evenodd" fill="#FFFFFF" d="M34.2,6.7c0,0-0.1,0.1,0,0.2c0,0.1,0,0.2,0.1,0.2
		c0,0,0.1,0.1,0.1,0.1c0,0,0-0.1-0.1-0.3S34.2,6.7,34.2,6.7L34.2,6.7z M34.2,6.3c0,0-0.1,0.1-0.1,0.1c0,0.1,0,0.1,0,0.1
		c0,0,0.1,0,0.1,0c0,0,0.1-0.1,0-0.2C34.3,6.4,34.3,6.3,34.2,6.3z"/>
	<path fill-rule="evenodd" clip-rule="evenodd" fill="#E01E26" d="M26.5,2.7C26.6,2.7,26.6,2.7,26.5,2.7c0.2-0.9,1.1-0.7,1.1,0.1
		C27.6,2.3,26.9,2.2,26.5,2.7c0.1,0.1,0.1,0.1,0.1,0.1c0.8-0.5,1.2,0.4,0.6,0.9c0.3-0.4,0-0.9-0.6-0.8c0,0,0,0.1,0,0.1
		c0.8,0.3,0.4,1.2-0.3,1c0.5,0,0.7-0.6,0.3-0.9c0,0,0,0-0.1,0c0.3,0.9-0.6,1.1-1,0.4c0.3,0.4,0.9,0.2,0.9-0.4c0,0-0.1,0-0.1,0
		c-0.5,0.8-1.2,0.2-0.9-0.5c-0.2,0.5,0.4,0.8,0.9,0.5c0,0,0,0,0-0.1c0,0,0,0,0,0c-0.9,0.1-0.9-0.9-0.1-1c-0.5,0.2-0.4,0.8,0.2,1
		C26.4,2.7,26.5,2.7,26.5,2.7c-0.7-0.6,0-1.2,0.6-0.7C26.8,1.7,26.3,2.2,26.5,2.7C26.5,2.7,26.5,2.7,26.5,2.7z"/>
	
		<path fill-rule="evenodd" clip-rule="evenodd" fill="#E01E26" stroke="#E01E26" stroke-width="3.187400e-02" stroke-miterlimit="22.9256" d="
		M30.7,3.8l0.1-0.3l0.6,0.1l-0.1,0.5c-0.1,0.1-0.2,0.1-0.3,0.1c-0.1,0-0.2,0-0.3,0c-0.1,0-0.3-0.1-0.3-0.2c-0.1-0.1-0.1-0.2-0.2-0.3
		c0-0.1,0-0.2,0-0.4c0-0.1,0.1-0.2,0.2-0.3C30.4,3.1,30.5,3,30.6,3c0.1,0,0.2,0,0.4,0c0.1,0,0.2,0.1,0.3,0.1c0.1,0,0.1,0.1,0.1,0.2
		c0,0.1,0,0.1,0.1,0.2l-0.4,0c0-0.1,0-0.1-0.1-0.1c0,0-0.1-0.1-0.1-0.1c-0.1,0-0.2,0-0.2,0c-0.1,0-0.1,0.1-0.1,0.3
		c0,0.1,0,0.2,0,0.3c0,0.1,0.1,0.1,0.2,0.1c0,0,0.1,0,0.1,0c0,0,0.1,0,0.1,0l0-0.1L30.7,3.8L30.7,3.8z M31.8,3.2l1,0.3l-0.1,0.3
		l-0.6-0.2L32,3.8l0.6,0.2l-0.1,0.2L32,4l-0.1,0.2l0.7,0.2l-0.1,0.3l-1-0.3L31.8,3.2L31.8,3.2z M32.8,4.2c0,0.1-0.1,0.3,0,0.4
		c0,0.1,0.1,0.2,0.2,0.3C33,4.9,33.1,5,33.3,5c0.1,0,0.3,0.1,0.4,0c0.1,0,0.2-0.1,0.3-0.1C34,4.8,34,4.7,34.1,4.6
		c0.1-0.2,0.1-0.4,0-0.5c-0.1-0.1-0.2-0.2-0.4-0.3c-0.2-0.1-0.4-0.1-0.5,0C33,3.9,32.9,4,32.8,4.2L32.8,4.2z M33.2,4.3
		c0-0.1,0.1-0.2,0.2-0.2c0.1,0,0.1,0,0.2,0c0.1,0,0.1,0.1,0.2,0.1s0,0.2,0,0.3c0,0.1-0.1,0.2-0.2,0.3c-0.1,0-0.1,0-0.2,0
		c-0.1,0-0.1-0.1-0.2-0.1C33.2,4.5,33.2,4.4,33.2,4.3L33.2,4.3z M34.1,5.3l0.5-1.2l0.6,0.3c0.1,0,0.2,0.1,0.2,0.1
		c0,0,0.1,0.1,0.1,0.2s0,0.1,0,0.2c0,0.1-0.1,0.1-0.1,0.1c0,0-0.1,0.1-0.2,0.1c0,0-0.1,0-0.1,0c0,0,0.1,0.1,0.1,0.1c0,0,0,0,0,0.1
		c0,0,0,0.1,0,0.1l0,0.4l-0.4-0.2l0-0.4c0-0.1,0-0.1,0-0.1c0,0,0-0.1-0.1-0.1l0,0l-0.2,0.5L34.1,5.3L34.1,5.3z M34.8,4.8l0.2,0.1
		c0,0,0.1,0,0.1,0c0,0,0.1,0,0.1,0c0,0,0,0,0.1-0.1c0,0,0-0.1,0-0.1c0,0-0.1-0.1-0.1-0.1l-0.2-0.1L34.8,4.8L34.8,4.8z M36.1,5.7
		l0.2,0.1l-0.1,0.1c-0.1,0-0.1,0-0.2,0c0,0-0.1,0-0.1,0c-0.1,0-0.1-0.1-0.2-0.2s0-0.2,0.1-0.3C36,5.3,36,5.2,36.1,5.2s0.1,0,0.2,0
		c0.1,0,0.1,0.1,0.1,0.1s0,0.1,0,0.1l0.4,0.1c0-0.1,0-0.2,0-0.2c0-0.1-0.1-0.1-0.1-0.2C36.7,5.1,36.6,5,36.5,5
		c-0.1-0.1-0.2-0.1-0.3-0.1c-0.1,0-0.2,0-0.3,0.1c-0.1,0.1-0.2,0.2-0.2,0.3c-0.1,0.1-0.1,0.2-0.1,0.3c0,0.1,0,0.2,0.1,0.3
		c0.1,0.1,0.2,0.2,0.3,0.2c0.1,0.1,0.2,0.1,0.3,0.1c0.1,0,0.2,0,0.3,0l0.2-0.5l-0.5-0.3L36.1,5.7L36.1,5.7z M37.2,5.4l0.3,0.2
		L37,6.7l-0.3-0.2L37.2,5.4L37.2,5.4z M38,7.1l-0.1,0.2l0.3,0.2l0.3-1.3l-0.4-0.2l-1.1,0.8L37.5,7l0.2-0.1L38,7.1L38,7.1z M38.1,6.8
		l-0.2-0.1l0.4-0.3L38.1,6.8L38.1,6.8z M39.1,6.5l0.3,0.2l0,0.8L39.8,7l0.3,0.2l-0.7,1L39.1,8l0-0.8l-0.4,0.6l-0.3-0.2L39.1,6.5
		L39.1,6.5z M40.8,7.8l0.9,0.8l-0.2,0.2l-0.3-0.3l-0.6,0.7L40.3,9l0.6-0.7L40.6,8L40.8,7.8L40.8,7.8z M41,9.6l0.3,0.3l0.3-0.4l0,0
		c0,0,0,0.1,0.1,0.1c0,0,0,0.1,0,0.1l-0.1,0.4l0.3,0.3l0.1-0.4c0,0,0-0.1,0-0.1c0,0,0-0.1,0-0.1c0,0,0-0.1,0-0.1
		c0.1,0,0.1,0,0.1,0.1c0.1,0,0.1,0,0.2,0c0.1,0,0.1-0.1,0.2-0.1c0.1-0.1,0.1-0.1,0.1-0.2s0-0.1,0-0.2c0-0.1-0.1-0.1-0.2-0.2
		l-0.5-0.4L41,9.6L41,9.6z M41.8,9.3L42,9.1l0.1,0.1c0.1,0,0.1,0.1,0.1,0.1c0,0,0,0.1,0,0.1c0,0,0,0-0.1,0c0,0-0.1,0-0.1,0
		c0,0-0.1,0-0.1-0.1L41.8,9.3L41.8,9.3z M42.7,11l-0.3-0.3l-0.2,0.1l-0.3-0.3l1.2-0.5l0.3,0.3l-0.6,1.2l-0.3-0.3L42.7,11L42.7,11z
		 M42.9,10.7l0.2-0.4l-0.4,0.2L42.9,10.7L42.9,10.7z M43.9,10.8l-1,0.8l0.4,0.4c0,0.1,0.1,0.1,0.2,0.2c0.1,0,0.1,0.1,0.2,0.1
		s0.1,0,0.2,0c0.1,0,0.2-0.1,0.3-0.2c0.1-0.1,0.1-0.1,0.2-0.2c0-0.1,0.1-0.1,0.1-0.2c0-0.1,0-0.1,0-0.2c0-0.1-0.1-0.2-0.1-0.2
		L43.9,10.8L43.9,10.8z M44,11.2l-0.5,0.5l0.1,0.1c0.1,0.1,0.1,0.1,0.1,0.1c0,0,0.1,0,0.1,0c0,0,0.1-0.1,0.2-0.1
		c0.1-0.1,0.2-0.2,0.2-0.2C44.1,11.5,44.1,11.4,44,11.2L44,11.2L44,11.2z M44.9,11.9l0.6,0.8l-0.2,0.2l-0.4-0.5l-0.2,0.1l0.4,0.5
		l-0.2,0.2l-0.4-0.5l-0.2,0.1l0.4,0.5l-0.2,0.2l-0.6-0.9L44.9,11.9L44.9,11.9z M46.4,14.2l-0.6,0.4c-0.1,0-0.1,0.1-0.2,0
		c-0.1,0-0.1,0-0.1-0.1c0-0.1-0.1-0.1,0-0.2c0-0.1,0-0.1,0.1-0.1l0.6-0.4L46,13.5l-0.6,0.4c-0.1,0-0.1,0.1-0.2,0.1
		c0,0-0.1,0.1-0.1,0.1c0,0.1,0,0.1,0,0.2s0,0.1,0.1,0.2c0,0.1,0.1,0.1,0.1,0.2c0.1,0.1,0.1,0.2,0.2,0.2c0,0,0.1,0.1,0.2,0.1
		c0.1,0,0.1,0,0.2,0c0.1,0,0.1,0,0.2-0.1l0.6-0.4L46.4,14.2L46.4,14.2z M46.8,14.8l0.2,0.3l-0.4,0.8l0.6-0.3l0.2,0.3l-1.1,0.6
		l-0.2-0.3l0.4-0.7l-0.6,0.3l-0.2-0.3L46.8,14.8L46.8,14.8z M47.5,16.2l-1.1,0.5l0.2,0.4l1.1-0.5L47.5,16.2L47.5,16.2z M47.3,17
		c0.2-0.1,0.4-0.1,0.5,0c0.2,0.1,0.3,0.2,0.3,0.4c0.1,0.2,0.1,0.4,0,0.5c-0.1,0.1-0.2,0.3-0.4,0.3c-0.1,0.1-0.3,0.1-0.4,0.1
		c-0.1,0-0.2,0-0.3-0.1S47,18,46.9,17.9c-0.1-0.1-0.1-0.3-0.1-0.4c0-0.1,0-0.2,0.1-0.3C47,17.2,47.1,17.1,47.3,17L47.3,17z
		 M47.4,17.4c-0.1,0-0.2,0.1-0.2,0.2c0,0.1,0,0.1,0,0.2c0,0.1,0.1,0.1,0.1,0.2c0.1,0,0.2,0,0.3,0c0.1,0,0.2-0.1,0.2-0.2
		c0-0.1,0-0.1,0-0.2c0-0.1-0.1-0.1-0.1-0.1C47.6,17.4,47.5,17.4,47.4,17.4L47.4,17.4z M48.4,18.3l-1.2,0.4l0.1,0.3l0.7-0.2l-0.5,0.7
		l0.1,0.3l1.2-0.4l-0.1-0.3l-0.7,0.2l0.5-0.7L48.4,18.3L48.4,18.3z M48.1,19.9l0.1,0.4c-0.1,0-0.1,0.1-0.1,0.1c0,0.1,0,0.1,0,0.2
		c0,0.1,0,0.1,0.1,0.1c0,0,0.1,0,0.1,0c0,0,0.1,0,0.1-0.1c0,0,0-0.1,0-0.2c0-0.2,0-0.3,0-0.4c0-0.1,0.1-0.1,0.2-0.2
		c0.1,0,0.1,0,0.2,0c0.1,0,0.1,0.1,0.2,0.1c0.1,0.1,0.1,0.2,0.1,0.3c0,0.2,0.1,0.3,0,0.4c0,0.1-0.1,0.2-0.2,0.2l-0.1-0.3
		c0.1,0,0.1-0.1,0.1-0.1c0,0,0-0.1,0-0.1c0,0,0-0.1-0.1-0.1c0,0-0.1,0-0.1,0c0,0,0,0,0,0c0,0,0,0.1,0,0.1c0,0.2,0,0.3,0,0.4
		c0,0.1,0,0.1-0.1,0.2c0,0-0.1,0.1-0.2,0.1c-0.1,0-0.2,0-0.2,0C48.1,21,48,21,48,20.9c-0.1-0.1-0.1-0.2-0.1-0.3
		c-0.1-0.2-0.1-0.4,0-0.5C47.9,20,48,20,48.1,19.9L48.1,19.9z M48.9,22.6l0,0.4c-0.1,0-0.2,0-0.3-0.1c-0.1,0-0.1-0.1-0.2-0.2
		c0-0.1-0.1-0.2-0.1-0.3c0-0.1,0-0.3,0-0.3c0-0.1,0.1-0.2,0.2-0.3c0.1-0.1,0.2-0.1,0.4-0.2c0.2,0,0.4,0,0.5,0.1
		c0.1,0.1,0.2,0.2,0.3,0.4c0,0.2,0,0.3,0,0.4c0,0.1-0.1,0.2-0.3,0.3l-0.1-0.3c0,0,0.1,0,0.1-0.1c0,0,0-0.1,0.1-0.1c0,0,0-0.1,0-0.1
		c0-0.1-0.1-0.1-0.1-0.2c-0.1,0-0.1,0-0.3,0c-0.1,0-0.2,0.1-0.3,0.1c0,0.1-0.1,0.1,0,0.2c0,0.1,0,0.1,0.1,0.2
		C48.7,22.6,48.8,22.6,48.9,22.6L48.9,22.6z M49.1,23.1c0.2,0,0.4,0,0.5,0.1c0.1,0.1,0.2,0.2,0.2,0.5c0,0.2,0,0.4-0.1,0.5
		c-0.1,0.1-0.2,0.2-0.4,0.2c-0.1,0-0.3,0-0.4,0c-0.1,0-0.2-0.1-0.2-0.2c-0.1-0.1-0.1-0.2-0.1-0.3c0-0.1,0-0.3,0-0.4
		c0-0.1,0.1-0.2,0.2-0.3C48.8,23.2,48.9,23.2,49.1,23.1L49.1,23.1z M49.1,23.5c-0.1,0-0.2,0.1-0.3,0.1c0,0.1-0.1,0.1-0.1,0.2
		c0,0.1,0,0.1,0.1,0.2s0.2,0,0.3,0c0.1,0,0.2-0.1,0.2-0.1s0.1-0.1,0.1-0.2c0-0.1,0-0.1-0.1-0.2C49.4,23.5,49.3,23.5,49.1,23.5
		L49.1,23.5z M49.9,24.6l0,0.4l-0.7,0.5l0.7-0.1l0,0.4l-1.3,0.1l0-0.4l0.7-0.5l-0.7,0.1l0-0.4L49.9,24.6L49.9,24.6z M50,26.2l0,1
		l-0.3,0l0-0.6l-0.2,0l0,0.5l-0.3,0l0-0.5l-0.5,0l0-0.4L50,26.2L50,26.2z M50,27.4l0,1l-0.3,0l0-0.7l-0.2,0l0,0.6l-0.3,0l0-0.6
		l-0.2,0l0,0.7l-0.3,0l0-1.1L50,27.4L50,27.4z M49.9,28.7l0,0.6c0,0.1,0,0.2-0.1,0.3c0,0.1-0.1,0.1-0.1,0.2c-0.1,0-0.1,0.1-0.2,0.1
		c-0.1,0-0.2,0-0.2,0c-0.1,0-0.2,0-0.3-0.1c-0.1,0-0.1-0.1-0.2-0.1c0-0.1-0.1-0.1-0.1-0.2c0-0.1,0-0.2,0-0.2l0-0.6L49.9,28.7
		L49.9,28.7z M49.6,29.1l-0.7,0l0,0.1c0,0.1,0,0.1,0,0.2c0,0,0,0.1,0.1,0.1c0,0,0.1,0,0.2,0c0.1,0,0.2,0,0.3,0
		C49.6,29.4,49.6,29.3,49.6,29.1L49.6,29.1L49.6,29.1z M49.8,30.3l-0.2,1l-0.3,0l0.1-0.6l-0.2,0l-0.1,0.6l-0.3,0l0.1-0.6l-0.2,0
		l-0.1,0.7l-0.3,0l0.2-1.1L49.8,30.3L49.8,30.3z M48.3,31.3l1.2,0.3l-0.1,0.6c0,0.1-0.1,0.2-0.1,0.3c0,0.1-0.1,0.1-0.1,0.1
		c-0.1,0-0.1,0-0.2,0c-0.1,0-0.1,0-0.2-0.1c0,0-0.1-0.1-0.1-0.1c0,0,0-0.1,0-0.1c0,0,0,0.1-0.1,0.1c0,0,0,0-0.1,0s-0.1,0-0.1,0
		L48,32.5l0.1-0.4l0.4-0.1c0.1,0,0.1,0,0.1,0c0,0,0-0.1,0-0.1l0,0l-0.5-0.1L48.3,31.3L48.3,31.3z M49,31.8l0,0.2c0,0,0,0.1,0,0.1
		c0,0,0,0.1,0,0.1c0,0,0,0,0.1,0c0,0,0.1,0,0.1,0c0,0,0.1-0.1,0.1-0.1l0-0.2L49,31.8L49,31.8z M48,33.4l-0.2,0l-0.1,0.4l1.3-0.1
		l0.1-0.4l-1.1-0.8l-0.1,0.4l0.2,0.1L48,33.4L48,33.4z M48.3,33.4l0.1-0.3l0.4,0.3L48.3,33.4L48.3,33.4z M48.9,34.1l-0.4,1.1
		l-0.3-0.1l0.1-0.4l-0.9-0.3l0.1-0.4l0.9,0.3l0.1-0.4L48.9,34.1L48.9,34.1z M48.4,35.5l-1.2-0.5l-0.1,0.4l1.2,0.5L48.4,35.5
		L48.4,35.5z M47.6,35.9c0.2,0.1,0.3,0.2,0.4,0.4c0.1,0.2,0,0.3,0,0.5c-0.1,0.2-0.2,0.3-0.4,0.4s-0.3,0-0.5,0
		c-0.1-0.1-0.2-0.1-0.3-0.2c-0.1-0.1-0.1-0.2-0.1-0.3s0-0.2,0.1-0.4c0.1-0.1,0.1-0.2,0.2-0.3c0.1-0.1,0.2-0.1,0.3-0.1
		C47.3,35.8,47.5,35.8,47.6,35.9L47.6,35.9z M47.4,36.3c-0.1-0.1-0.2-0.1-0.3,0c-0.1,0-0.1,0.1-0.2,0.1c0,0.1,0,0.1,0,0.2
		c0,0.1,0.1,0.1,0.2,0.2c0.1,0,0.2,0.1,0.3,0c0.1,0,0.1-0.1,0.2-0.1c0-0.1,0-0.1,0-0.2C47.6,36.4,47.6,36.3,47.4,36.3L47.4,36.3z
		 M47.5,37.6L46.4,37l-0.2,0.3l0.6,0.3L46,37.8l-0.2,0.3l1.1,0.6l0.2-0.3L46.5,38l0.8-0.1L47.5,37.6z"/>
	<g>
		
			<path fill-rule="evenodd" clip-rule="evenodd" fill="#E01E26" stroke="#E01E26" stroke-width="3.187400e-02" stroke-miterlimit="22.9256" d="
			M4,38.5l0.9-0.5c0,0,0,0,0-0.1c0,0,0,0,0-0.1c0,0,0,0,0,0s0,0-0.1,0L4.6,38c0,0,0,0,0,0c0,0,0,0,0,0c0,0,0,0-0.1,0.1l0,0l0,0
			l-0.1-0.3c0,0,0.1,0,0.1-0.1l0.1-0.1c0,0,0,0,0,0l0,0c0,0,0,0,0,0c0,0,0,0,0,0l0.1,0c0.1,0,0.1,0,0.2,0c0.1,0,0.1,0.1,0.2,0.2
			c0.1,0.1,0.1,0.2,0.1,0.3c0,0.1-0.1,0.2-0.2,0.2l-0.8,0.4L4,38.5L4,38.5z M3.6,37.8l0.1-0.1c0.1,0,0.1-0.1,0.1-0.1c0,0,0,0,0-0.1
			c0,0,0,0,0-0.1c0,0,0-0.1,0-0.1c0,0,0-0.1,0.1-0.1l0.1,0l0.1,0l0.1,0l0.1,0c0,0,0.1,0,0.1,0c0,0,0,0,0.1,0c0,0,0,0,0,0.1
			c0,0,0,0-0.1,0.1l-0.2,0.1l0.1,0.3l0.2-0.1c0.1-0.1,0.2-0.1,0.2-0.2c0-0.1,0-0.1,0-0.1c0,0,0-0.1,0-0.1l0,0v0l0,0l0,0
			c0-0.1-0.1-0.1-0.2-0.2c-0.1,0-0.2,0-0.3,0L3.9,37c-0.1,0-0.1,0.1-0.1,0.1c0,0,0,0.1,0,0.1v0l0,0c0,0,0,0.1,0,0.1
			c0,0,0,0.1-0.1,0.1l-0.1,0.1L3.6,37.8L3.6,37.8z M2.9,36.4L3.8,36c0,0,0,0,0.1,0c0,0,0,0,0.1,0C4,35.9,4,36,4.1,36
			c0.1,0,0.1,0.1,0.1,0.2c0.1,0.1,0.1,0.2,0,0.3s-0.1,0.1-0.2,0.2l-0.2,0.1l-0.1-0.3L4,36.4c0,0,0,0,0,0c0,0,0,0,0-0.1l0,0
			c0,0,0,0,0,0c0,0,0,0-0.1,0l-0.5,0.2c0,0,0,0,0,0c0,0,0,0,0,0.1l0,0c0,0,0,0,0,0c0,0,0,0,0.1,0l0.1,0l0.1,0.2l-0.2,0.1
			c-0.1,0-0.1,0-0.2,0c0,0-0.1,0-0.1,0c0,0,0,0,0-0.1l0,0l0,0c0,0,0-0.1,0-0.1c0,0,0-0.1,0-0.1l-0.2,0.1L2.9,36.4L2.9,36.4z
			 M2.8,36.1L3,36c0.1,0,0.1-0.1,0.1-0.1c0,0,0,0,0-0.1c0,0,0,0,0-0.1c0-0.1,0-0.1,0-0.1c0,0,0.1-0.1,0.1-0.1l0.1,0l0.1,0l0.1,0
			l0.1,0c0,0,0.1,0,0.1,0c0,0,0,0,0,0c0,0,0,0,0,0.1c0,0,0,0-0.1,0.1l-0.3,0.1l0.1,0.3l0.2-0.1c0.1,0,0.2-0.1,0.2-0.2
			c0,0,0-0.1,0-0.1s0-0.1,0-0.1l0,0l0,0l0,0l0,0c0-0.1-0.1-0.1-0.2-0.2c-0.1,0-0.2,0-0.3,0l-0.3,0.1c-0.1,0-0.1,0.1-0.1,0.1
			c0,0,0,0.1,0,0.1l0,0l0,0c0,0,0,0.1,0,0.1c0,0,0,0.1-0.1,0.1l-0.1,0.1L2.8,36.1L2.8,36.1z M2.2,34.2l0.1,0c0,0,0.1,0,0.1,0
			c0,0,0.1,0,0.1,0.1l0,0l0,0c0,0,0,0,0,0c0,0,0,0,0,0c0,0,0.1,0.1,0.1,0.1c0,0.1,0.1,0.1,0.1,0.1c0,0,0.1,0.1,0.1,0.1c0,0,0,0,0,0
			c0,0,0,0,0,0c0,0,0,0,0,0c0,0,0-0.1,0-0.1c0,0,0-0.1,0.1-0.1c0,0-0.1,0-0.1-0.1c0,0-0.1-0.1-0.1-0.2c0-0.1,0-0.2,0-0.3
			c0-0.1,0.1-0.1,0.2-0.1l0.3-0.1l0.1,0c0,0,0,0,0,0s0,0,0,0c0,0,0,0,0,0c0,0,0,0,0,0c0,0,0,0,0,0L3.4,34c0,0,0,0,0,0c0,0,0,0,0,0
			l0,0l0,0l0,0L3,34.1c0,0-0.1,0-0.1,0c0,0,0,0,0,0.1l0,0c0,0,0,0,0,0c0,0,0,0,0.1,0l0.2-0.1l0.1,0.3l-0.2,0.1c0,0,0,0-0.1,0
			c0,0,0,0,0,0c0,0,0,0,0,0l0,0l0,0c0,0,0,0,0,0c0,0,0,0,0.1,0l0.3-0.1l0,0h0c0,0,0,0,0,0c0,0,0,0,0,0c0,0,0,0,0,0c0,0,0,0,0,0
			l0.1,0.3l0,0l0,0l0,0l0,0c0,0,0,0,0,0c0,0,0,0-0.1,0L3.2,35c-0.1,0-0.1,0-0.1,0c0,0-0.1,0-0.1,0c-0.1,0-0.2-0.1-0.2-0.1
			c0,0-0.1-0.1-0.1-0.1l-0.1-0.1l0,0l0,0c0-0.1-0.1-0.1-0.1-0.1s-0.1-0.1-0.1,0l-0.1,0L2.2,34.2L2.2,34.2z M2,33.5
			c0,0.1,0.1,0.2,0.2,0.2c0.1,0.1,0.2,0.1,0.3,0L3,33.6c0.1,0,0.2-0.1,0.2-0.2s0-0.2,0-0.3c0-0.1-0.1-0.2-0.2-0.2s-0.2-0.1-0.3,0
			l-0.6,0.2c0,0,0,0-0.1,0c0,0,0,0,0,0l0,0c0,0,0,0,0-0.1s0,0,0.1,0l0.8-0.2l0,0l0,0l0.1,0c0,0,0.1,0,0.1,0L3,32.4l-0.1,0
			c0,0,0,0,0,0c0,0,0,0,0,0c0,0,0,0,0,0l0,0L2,32.6c-0.1,0-0.2,0.1-0.2,0.2c0,0.1,0,0.2,0,0.2l0,0l0,0c0,0,0,0,0,0.1c0,0,0,0,0,0.1
			c0,0,0.1,0.1,0.1,0.1c0,0.1-0.1,0.1,0,0.1C1.9,33.4,1.9,33.5,2,33.5L2,33.5z M2.2,33.4l0.7-0.2c0,0,0.1,0,0.1,0c0,0,0,0,0,0l0,0
			c0,0,0,0,0,0.1c0,0,0,0-0.1,0l-0.7,0.2c0,0-0.1,0-0.1,0c0,0,0,0,0,0v0C2.1,33.4,2.1,33.4,2.2,33.4C2.1,33.4,2.2,33.4,2.2,33.4
			L2.2,33.4z M1.6,32.1c0-0.1,0-0.2,0-0.3c0-0.1,0.1-0.1,0.2-0.1c0.1,0,0.1,0,0.1,0c0,0,0.1,0,0.1,0.1l0,0l0,0c0,0,0-0.1,0-0.1
			c0,0,0-0.1,0.1-0.1l0,0c0,0,0,0,0,0l0.2,0c0.1,0,0.2,0,0.2,0.1c0.1,0.1,0.1,0.1,0.2,0.2c0,0.1,0,0.2,0,0.3c0,0.1-0.1,0.1-0.2,0.2
			l-0.2,0l-0.1-0.3L2.6,32c0,0,0.1,0,0.1,0c0,0,0,0,0-0.1l0,0c0,0,0,0,0-0.1c0,0,0,0-0.1,0l-0.3,0.1c0,0,0,0-0.1,0c0,0,0,0,0,0.1
			l0,0l-0.2,0l0,0c0,0,0,0,0,0c0,0,0,0,0,0l0,0l0,0l-0.1,0c0,0-0.1,0-0.1,0c0,0,0,0,0,0.1v0c0,0,0,0,0,0s0,0,0.1,0l0.1,0l0.1,0.3
			l-0.1,0c-0.1,0-0.2,0-0.2-0.1C1.7,32.3,1.6,32.2,1.6,32.1L1.6,32.1z M1.7,30.7l0.6-0.1c0.1,0,0.2,0,0.3,0.1
			c0.1,0.1,0.1,0.2,0.1,0.2l0,0c0,0.1,0,0.2,0,0.3c0,0.1-0.1,0.1-0.2,0.2l-0.2,0l0-0.3l0.3,0c0,0,0.1,0,0.1,0c0,0,0,0,0-0.1l0,0
			c0,0,0,0,0-0.1c0,0,0,0-0.1,0L1.7,31c0,0-0.1,0-0.1,0c0,0,0,0,0,0.1l0,0c0,0,0,0,0,0c0,0,0,0,0.1,0l0.2,0l0,0.3l-0.1,0
			c-0.1,0-0.2,0-0.3-0.1c-0.1-0.1-0.1-0.1-0.1-0.3c0-0.1,0-0.2,0.1-0.3C1.5,30.8,1.6,30.8,1.7,30.7L1.7,30.7z M1.3,30.3
			c0,0,0-0.1,0-0.1c0,0,0-0.1,0.1-0.1c0,0-0.1,0-0.1-0.1c0,0,0-0.1,0-0.1c0-0.1,0-0.1,0-0.1c0,0,0-0.1,0.1-0.1c0,0-0.1,0-0.1-0.1
			c0,0,0-0.1,0-0.1c0-0.1,0-0.1,0-0.2c0,0,0.1-0.1,0.1-0.1c0,0,0,0,0.1,0c0,0,0,0,0.1,0l0.3,0l0,0.3l-0.3,0c0,0,0,0,0,0s0,0,0,0v0
			c0,0,0,0,0,0s0,0,0.1,0l0.2,0l0,0.3l-0.2,0c0,0,0,0,0,0c0,0,0,0,0,0v0c0,0,0,0,0,0c0,0,0,0,0.1,0l0.2,0l0,0.3l-0.2,0c0,0,0,0,0,0
			c0,0,0,0,0,0v0l0,0c0,0,0,0,0,0c0,0,0,0,0.1,0l0.2,0c0.1,0,0.1,0,0.2-0.1C2,30.1,2,30.1,2,30c0,0,0-0.1,0-0.1c0,0,0-0.1,0-0.1
			l0-0.3c0-0.1,0-0.2,0.1-0.3c0-0.1,0.1-0.1,0.2-0.1l0.2,0l0,0.3l-0.1,0c-0.1,0-0.1,0-0.1,0.1c0,0.1,0,0.1,0,0.2l0,0.1l0,0.1
			l0.1,0.6l-0.2,0l0-0.1c0,0,0,0.1-0.1,0.1c0,0-0.1,0.1-0.1,0.1c0,0,0,0,0,0c0,0,0,0,0,0c0,0,0,0,0,0c0,0,0,0,0,0l-0.2,0l0,0h0
			l-0.1,0c0,0,0,0,0,0c0,0,0,0,0,0c0,0-0.1,0-0.1-0.1C1.3,30.5,1.3,30.4,1.3,30.3L1.3,30.3z M1.1,28.6c0-0.1,0-0.1,0-0.1
			c0,0,0-0.1,0.1-0.1c0,0-0.1,0-0.1-0.1c0,0,0-0.1,0-0.2c0-0.1,0-0.2,0.1-0.3c0.1-0.1,0.2-0.1,0.3-0.1l0.7,0h0l0,0h0h0l0,0
			c0,0,0,0,0.1,0c0,0,0,0,0.1,0l0,0l0,0.3c0,0,0,0,0,0c0,0,0,0,0,0l0,0l0,0l-0.1,0L1.3,28c0,0-0.1,0-0.1,0s0,0,0,0.1v0
			c0,0,0,0,0,0.1c0,0,0,0,0.1,0l0.4,0l0,0.3l-0.4,0c0,0-0.1,0-0.1,0c0,0,0,0,0,0.1v0c0,0,0,0,0,0.1c0,0,0,0,0.1,0l0.8-0.1
			c0,0,0,0,0.1,0l0,0l0,0l0,0l0,0l0,0l0,0.3c0,0,0,0,0,0c0,0,0,0,0,0l0,0l0,0c0,0,0,0,0,0l-0.7,0c-0.1,0-0.2,0-0.3-0.1
			C1.1,28.8,1.1,28.7,1.1,28.6L1.1,28.6z M1,27.2l1,0c0,0,0,0,0.1,0c0,0,0,0,0-0.1c0,0,0,0,0-0.1c0,0,0,0-0.1,0l-0.2,0
			c0,0,0,0-0.1,0c0,0,0,0,0,0c0,0-0.1,0-0.1,0l0,0l0,0l0-0.3c0,0,0.1,0,0.1,0l0.1,0c0,0,0,0,0,0h0c0,0,0,0,0,0c0,0,0,0,0,0l0.1,0
			c0.1,0,0.1,0,0.2,0.1s0.1,0.1,0.1,0.3c0,0.1,0,0.2-0.1,0.3c-0.1,0.1-0.1,0.1-0.3,0.1l-0.9,0L1,27.2L1,27.2z M1.1,25.7
			c0.1,0,0.1,0,0.1,0c0,0,0,0,0.1-0.1l0,0l0,0l0,0l0,0c0-0.1,0-0.1,0.1-0.1s0.1,0,0.1,0l0,0l0,0h0c0,0,0.1,0,0.1,0s0,0.1,0.1,0.1
			c0-0.1,0.1-0.1,0.1-0.1c0,0,0.1,0,0.1,0c0.1,0,0.2,0,0.3,0.1c0.1,0.1,0.1,0.2,0.1,0.3c0,0.1,0,0.2-0.1,0.2c0,0.1-0.1,0.1-0.1,0.1
			c0,0-0.1,0-0.1,0c0,0,0,0-0.1,0l-0.1,0l0-0.3l0.2,0c0,0,0,0,0.1,0c0,0,0,0,0-0.1v0c0,0,0,0,0-0.1c0,0,0,0-0.1,0l-0.2,0
			c0,0-0.1,0-0.1,0c0,0,0,0,0,0l0,0.1l-0.2,0l0-0.1c0,0,0,0,0,0c0,0,0,0,0,0h0h0h0h0h0h0h0h0c0,0-0.1,0-0.1,0c0,0,0,0-0.1,0.1l0,0
			l0,0.1l0,0l0,0c0,0.1,0,0.1-0.1,0.1c0,0-0.1,0-0.2,0L1.1,25.7L1.1,25.7z M1.2,24l0.1,0c0,0,0.1,0,0.1,0c0,0,0,0.1,0.1,0.1l0,0l0,0
			c0,0,0,0,0,0c0,0,0,0,0,0.1c0,0,0,0.1,0,0.1c0,0.1,0,0.1,0,0.2c0,0,0,0.1,0.1,0.1c0,0,0,0,0,0c0,0,0,0,0,0c0,0,0,0,0,0
			c0,0,0-0.1,0-0.1c0,0,0,0,0.1-0.1c0,0-0.1-0.1-0.1-0.1c0,0,0-0.1,0-0.2c0-0.1,0.1-0.2,0.1-0.3c0.1,0,0.1-0.1,0.2-0.1l0.3,0l0.1,0
			c0,0,0,0,0,0s0,0,0,0c0,0,0,0,0,0c0,0,0,0,0,0c0,0,0,0,0,0l0,0.3c0,0,0,0,0,0c0,0,0,0,0,0l0,0l0,0l0,0l-0.3,0c0,0-0.1,0-0.1,0
			c0,0,0,0,0,0.1v0c0,0,0,0,0,0.1c0,0,0,0,0.1,0l0.2,0l0,0.3l-0.2,0c0,0-0.1,0-0.1,0c0,0,0,0,0,0c0,0,0,0,0,0v0l0,0c0,0,0,0,0,0
			c0,0,0,0,0.1,0l0.3,0h0h0c0,0,0,0,0,0c0,0,0,0,0,0c0,0,0,0,0,0c0,0,0,0,0,0l0,0.3l0,0l0,0l0,0l0,0c0,0,0,0-0.1,0c0,0,0,0-0.1,0
			l-0.4,0c-0.1,0-0.1,0-0.1,0c0,0-0.1,0-0.1-0.1c-0.1-0.1-0.1-0.1-0.1-0.2c0,0,0-0.1,0-0.1l0-0.1v0l0,0c0-0.1,0-0.1-0.1-0.2
			c0-0.1-0.1-0.1-0.1-0.1l-0.1,0L1.2,24L1.2,24z M1.3,23.2c0,0,0-0.1,0-0.1c0,0,0-0.1,0.1-0.1c0,0,0-0.1-0.1-0.1c0,0,0-0.1,0-0.2
			c0-0.1,0.1-0.2,0.2-0.2c0.1,0,0.2-0.1,0.3,0l0.7,0.1h0l0,0l0,0l0,0l0,0c0,0,0,0,0.1,0c0,0,0,0,0,0l0,0L2.6,23c0,0,0,0,0,0
			c0,0,0,0,0,0l0,0l0,0l-0.1,0l-0.8-0.1c0,0-0.1,0-0.1,0c0,0,0,0,0,0.1v0c0,0,0,0,0,0.1s0,0,0.1,0L2,23l0,0.3l-0.4-0.1
			c0,0-0.1,0-0.1,0c0,0,0,0,0,0.1v0c0,0,0,0,0,0.1s0,0,0.1,0l0.8,0.1c0,0,0,0,0.1,0l0,0l0,0h0l0,0l0,0l-0.1,0.3c0,0,0,0,0,0
			c0,0,0,0,0,0l0,0l0,0c0,0,0,0,0,0l-0.7-0.1c-0.1,0-0.2-0.1-0.3-0.2C1.3,23.4,1.3,23.3,1.3,23.2L1.3,23.2z M1.6,21.9
			c0-0.1,0-0.1,0.1-0.2c0,0,0.1-0.1,0.1-0.1c0,0,0-0.1,0-0.1c0,0,0-0.1,0-0.1c0-0.1,0.1-0.2,0.1-0.2c0,0,0.1,0,0.1,0
			c0,0,0.1,0,0.1,0c0,0,0.1,0,0.1,0c0,0,0.1,0,0.1,0c0,0,0.1,0.1,0.1,0.1c0-0.1,0.1-0.1,0.1-0.1c0.1,0,0.1,0,0.2,0l0,0l0,0l0,0l0,0
			c0.1,0,0.2,0.1,0.2,0.2c0,0.1,0,0.2,0,0.3c0,0.1-0.1,0.2-0.1,0.2c0,0.1-0.1,0.1-0.1,0.1c0,0,0,0,0,0c0,0,0,0,0,0c0,0-0.1,0-0.1,0
			l-0.1,0l0.1-0.3l0.1,0c0,0,0.1,0,0.1,0c0,0,0-0.1,0.1-0.1c0,0,0-0.1,0-0.1c0,0,0-0.1-0.1-0.1l-0.3-0.1l0,0l0,0c0,0,0,0,0,0
			c0,0,0,0,0,0l0,0l-0.2,0l0,0c0,0,0,0,0,0s0,0,0,0l-0.2,0c0,0,0,0-0.1,0s0,0,0,0c0,0,0,0,0,0c0,0,0,0,0,0h0l0,0l0,0l0,0
			c0.1,0,0.2,0.1,0.2,0.2c0.1,0.1,0.1,0.2,0,0.3c0,0.1-0.1,0.2-0.2,0.2s-0.2,0.1-0.3,0l0,0h0l0,0l0,0c-0.1,0-0.2-0.1-0.2-0.1
			C1.6,22.1,1.5,22,1.6,21.9L1.6,21.9L1.6,21.9L1.6,21.9z M1.8,21.8C1.8,21.8,1.8,21.8,1.8,21.8c-0.1,0-0.1,0-0.1,0.1v0
			c0,0,0,0,0,0.1c0,0,0,0,0.1,0L2,22C2,22,2,22,2,22c0,0,0,0,0,0l0,0c0,0,0,0,0-0.1c0,0,0,0-0.1,0L1.8,21.8L1.8,21.8z M2.3,20.2
			c-0.1,0-0.2,0-0.3,0c-0.1,0.1-0.1,0.1-0.2,0.2c0,0.1,0,0.2,0,0.3S2,20.9,2.1,21l0.1,0l0.1-0.3l-0.2,0c0,0,0,0-0.1,0s0,0,0-0.1l0,0
			c0,0,0,0,0,0c0,0,0,0,0.1,0l0.7,0.2c0,0,0.1,0,0.1,0c0,0,0,0,0,0.1v0c0,0,0,0,0,0c0,0,0,0-0.1,0l-0.3-0.1l-0.1,0.3l0.2,0.1
			c0.1,0,0.2,0,0.3,0s0.1-0.1,0.2-0.2l0,0c0-0.1,0-0.2,0-0.3c0-0.1-0.1-0.2-0.2-0.2L2.3,20.2L2.3,20.2z M2.1,19.6l1,0.3
			c0,0,0,0,0.1,0s0,0,0,0s0,0,0-0.1c0,0,0,0-0.1,0l-0.2-0.1c0,0,0,0-0.1,0c0,0,0,0,0,0c0,0-0.1,0-0.1,0l0,0h0l0.1-0.3
			c0,0,0.1,0,0.1,0l0.1,0c0,0,0,0,0,0l0,0c0,0,0,0,0,0c0,0,0,0,0,0l0.1,0c0.1,0,0.1,0.1,0.1,0.2c0,0.1,0,0.2,0,0.3
			c0,0.1-0.1,0.2-0.2,0.2c-0.1,0-0.2,0-0.3,0L2,19.9L2.1,19.6L2.1,19.6z M2.9,18.4C2.9,18.4,2.9,18.4,2.9,18.4
			C2.9,18.4,2.9,18.4,2.9,18.4L2.9,18.4c-0.2,0-0.2,0-0.3,0.1c-0.1,0-0.1,0.1-0.2,0.2c0,0.1,0,0.2,0,0.3c0,0.1,0.1,0.1,0.1,0.2
			c0,0,0,0,0.1,0c0,0,0,0,0,0c0,0,0,0,0,0l0.7,0.2c0,0,0,0,0,0l0.1,0h0h0l0,0c0,0,0,0,0,0c0,0,0,0,0,0l0.1-0.3c0,0,0,0,0,0s0,0,0,0
			l0,0c0,0,0,0,0,0c0,0,0,0,0,0c0,0,0,0,0,0c0,0,0,0-0.1,0l0,0l-0.8-0.3c0,0-0.1,0-0.1-0.1c0,0,0,0,0-0.1c0,0,0,0,0-0.1
			c0,0,0,0,0.1,0l0.8,0.3l0,0l0,0c0,0,0,0,0,0s0,0,0,0l0.1-0.3c0,0,0,0,0,0l0,0l0,0l0,0l-0.1,0l0,0L2.9,18.4z"/>
		
			<path fill-rule="evenodd" clip-rule="evenodd" fill="#E01E26" stroke="#E01E26" stroke-width="3.187400e-02" stroke-miterlimit="22.9256" d="
			M2.9,17.4C3,17.4,3,17.3,3,17.3c0,0,0.1,0,0.1,0c0,0,0.1,0,0.1,0l0,0L4,17.5l0,0c0,0,0.1,0,0.1,0.1c0,0,0,0.1,0,0.1
			c0,0.1,0,0.1,0,0.2c0,0.1-0.1,0.1-0.1,0.2c0,0-0.1,0.1-0.1,0.1c0,0-0.1,0-0.1,0c0,0,0,0-0.1,0l-0.3-0.1l0.1-0.3L3.8,18
			c0,0,0,0,0.1,0c0,0,0,0,0,0l0,0c0,0,0,0,0-0.1c0,0,0,0-0.1-0.1l-0.7-0.3c0,0,0,0,0,0c0,0,0,0,0,0l0,0c0,0,0,0,0,0c0,0,0,0,0,0
			l0.2,0.1L3.2,18l-0.2-0.1l0,0l0,0c0,0,0,0,0,0c0,0,0,0,0,0c0,0,0,0,0,0l0,0l0,0l0,0c0,0,0,0,0,0c0,0,0,0,0,0.1c0,0,0,0,0,0
			c0,0,0,0,0,0c0,0,0,0,0,0l0,0l0,0l-0.2-0.1c0,0,0,0,0,0l0,0l0,0c0,0,0,0,0,0c0,0,0,0,0,0c0,0,0,0,0,0l0-0.1l0,0l0,0l0,0l0,0
			c0,0,0,0,0-0.1c0,0,0,0,0.1,0l0,0l0,0c0,0,0-0.1,0-0.1C2.9,17.5,2.9,17.5,2.9,17.4L2.9,17.4z M3.3,16.6c0,0.1-0.1,0.2-0.1,0.2
			c0,0.1,0,0.1,0,0.1c0,0,0,0,0,0s0,0,0,0l0,0l0,0l0,0l0.2,0.1c0,0,0,0,0,0c0,0,0,0,0,0c0,0,0,0,0,0c0,0,0,0,0,0c0,0,0.1,0,0.1,0
			c0,0,0.1,0,0.1-0.1l-0.1,0.1L4,17.3l0.3-0.6l0-0.1l0-0.1c0-0.1,0.1-0.1,0.1-0.1s0.1,0,0.2,0l0.1,0l0.1-0.3l-0.2-0.1
			c-0.1,0-0.1,0-0.2,0c-0.1,0-0.1,0.1-0.2,0.2l-0.1,0.3c0,0,0,0-0.1,0.1c0,0-0.1,0.1-0.1,0.1c0,0-0.1,0.1-0.2,0.1
			c-0.1,0-0.1,0-0.2,0l-0.2-0.1c0,0,0,0,0,0c0,0,0,0,0,0l0,0l0,0c0,0,0,0,0,0c0,0,0,0,0.1,0l0.2,0.1l0.1-0.2l-0.2-0.1c0,0,0,0,0,0
			c0,0,0,0,0,0l0,0c0,0,0,0,0,0c0,0,0,0,0.1,0l0.2,0.1L4,16.2l-0.2-0.1c0,0,0,0,0,0c0,0,0,0,0,0l0,0c0,0,0,0,0,0c0,0,0,0,0.1,0
			l0.3,0.2l0.1-0.3l-0.3-0.1c0,0,0,0-0.1,0c0,0,0,0-0.1,0c0,0-0.1,0-0.2,0c-0.1,0-0.1,0.1-0.1,0.1c0,0,0,0.1-0.1,0.1
			c0,0,0,0.1,0,0.1c0,0-0.1,0-0.1,0c0,0,0,0.1-0.1,0.1c0,0.1,0,0.1-0.1,0.1c0,0,0,0.1,0,0.1c0,0-0.1,0-0.1,0
			C3.3,16.5,3.3,16.5,3.3,16.6L3.3,16.6z M4.6,14.9l0.6,0.4l0,0l0.1,0l0,0l0,0l0,0c0,0,0,0,0,0l-0.2,0.3c0,0,0,0,0,0c0,0,0,0,0,0
			l0,0l0,0l-0.7-0.4c0,0-0.1,0-0.1,0c0,0,0,0-0.1,0s0,0,0,0.1c0,0,0,0,0,0.1L5,15.7l0,0c0,0,0,0,0.1,0c0,0,0,0,0,0s0,0,0,0
			c0,0,0,0,0,0h0c0,0,0,0,0,0s0,0,0,0L5,16c0,0,0,0,0,0c0,0,0,0,0,0l0,0l0,0l0,0l0,0c0,0,0,0,0,0l-0.6-0.4c0,0,0,0,0,0c0,0,0,0,0,0
			c0,0,0,0,0-0.1c0,0-0.1-0.1-0.1-0.2c0-0.1,0-0.2,0.1-0.2c0-0.1,0.1-0.1,0.2-0.2S4.4,14.8,4.6,14.9L4.6,14.9
			C4.5,14.9,4.6,14.9,4.6,14.9C4.6,14.9,4.6,14.9,4.6,14.9L4.6,14.9z M5,13.6c0,0,0.1,0,0.1,0c0,0,0.1,0,0.1,0l0,0l0,0
			c0,0,0.1,0.1,0.1,0.1c0,0,0,0.1,0,0.2c0,0,0.1,0,0.1,0c0,0,0.1,0,0.1,0l0,0c0,0,0,0,0,0L5.8,14C5.9,14.1,6,14.2,6,14.3
			c0,0.1,0,0.2-0.1,0.3l0,0l0,0c0,0-0.1,0.1-0.1,0.1c0,0-0.1,0.1-0.1,0.1c-0.1,0-0.2,0-0.3,0l-0.2-0.1l0.2-0.3l0.3,0.2
			c0,0,0,0,0.1,0s0,0,0,0l0,0c0,0,0,0,0-0.1c0,0,0,0,0,0l-0.3-0.2c0,0-0.1,0-0.1,0c0,0,0,0,0,0l0,0.1l-0.1-0.1l0-0.1l0,0l0,0
			c0,0,0,0,0-0.1c0,0,0,0-0.1-0.1c0,0-0.1,0-0.1-0.1c0,0-0.1,0-0.1,0l0,0l0,0l0,0l0,0L5,13.6L5,13.6z M5.2,13.2l0.1,0.1
			c0.1,0,0.1,0.1,0.2,0c0,0,0,0,0.1,0c0,0,0,0,0.1,0c0,0,0.1,0,0.1,0c0,0,0.1,0,0.1,0L6,13.3L6,13.4l0.1,0.1l0.1,0.1
			c0,0,0,0,0.1,0.1c0,0,0,0,0,0.1c0,0,0,0-0.1,0c0,0-0.1,0-0.1,0l-0.2-0.2l-0.2,0.3l0.2,0.1c0.1,0.1,0.2,0.1,0.3,0.1
			c0.1,0,0.1,0,0.1-0.1c0,0,0.1-0.1,0.1-0.1l0,0l0,0l0,0l0,0c0-0.1,0.1-0.2,0.1-0.3c0-0.1-0.1-0.2-0.2-0.3L6.1,13C6,13,6,13,5.9,13
			c0,0-0.1,0-0.1,0l0,0l0,0c0,0-0.1,0-0.1,0c0,0-0.1,0-0.1,0l-0.1-0.1L5.2,13.2L5.2,13.2z M5.9,12.2C6,12.1,6.1,12,6.2,12
			c0.1,0,0.2,0,0.2,0.1c0,0,0.1,0.1,0.1,0.1c0,0,0,0.1,0,0.1l0,0l0,0c0,0,0,0,0.1,0c0,0,0.1,0,0.1,0l0,0c0,0,0,0,0,0l0.2,0.1
			C7,12.6,7,12.6,7,12.7c0,0.1,0,0.2-0.1,0.3c-0.1,0.1-0.2,0.1-0.3,0.2c-0.1,0-0.2,0-0.3-0.1l-0.2-0.1l0.2-0.2l0.2,0.2
			c0,0,0,0,0.1,0c0,0,0,0,0.1,0l0,0c0,0,0,0,0-0.1c0,0,0,0,0-0.1l-0.2-0.2c0,0,0,0-0.1,0c0,0,0,0-0.1,0l0,0l-0.1-0.1l0,0
			c0,0,0,0,0,0c0,0,0,0,0,0l0,0l0,0l-0.1-0.1c0,0,0,0-0.1,0c0,0,0,0-0.1,0l0,0c0,0,0,0,0,0.1c0,0,0,0,0,0.1l0.1,0.1L6,12.7l-0.1-0.1
			c-0.1-0.1-0.1-0.1-0.1-0.2C5.8,12.3,5.9,12.3,5.9,12.2L5.9,12.2z M6.6,11.3L6.6,11.3c-0.1,0.1-0.1,0.1-0.1,0.1c0,0,0,0,0,0.1
			c0,0,0,0,0,0.1c0,0,0,0-0.1,0c0,0,0,0-0.1,0c0,0-0.1,0-0.1,0c0,0,0,0,0,0l0,0l0,0c0,0,0,0,0,0.1c0,0,0,0.1,0,0.1l0.2,0.1l0,0l0,0
			c0,0,0,0,0,0c0,0,0,0,0,0c0,0,0,0,0,0c0,0,0,0,0,0c0,0,0,0,0.1,0c0,0,0,0,0.1,0l0.1,0.1l0.2-0.2l-0.1-0.1c0,0,0,0,0-0.1
			c0,0,0,0,0,0l0,0c0,0,0,0,0,0c0,0,0,0,0.1,0l0.3,0.2c0,0,0,0,0,0c0,0,0,0,0,0c0,0,0,0,0,0c0,0,0,0,0,0l0,0
			c-0.1,0.1-0.1,0.1-0.1,0.2c0,0.1,0.1,0.2,0.1,0.2c0.1,0.1,0.2,0.1,0.3,0.1c0.1,0,0.2-0.1,0.3-0.2c0.1-0.1,0.1-0.2,0.1-0.2
			c0-0.1,0-0.2-0.1-0.2l0,0l0,0l-0.5-0.4c0,0,0,0,0,0c0,0,0,0-0.1,0c0,0-0.1,0-0.1,0C6.8,11.2,6.7,11.2,6.6,11.3L6.6,11.3L6.6,11.3
			L6.6,11.3L6.6,11.3L6.6,11.3z M7.3,11.8l0.1,0.1c0,0,0,0,0,0.1c0,0,0,0,0,0.1c0,0,0,0-0.1,0c0,0,0,0-0.1,0l-0.1-0.1c0,0,0,0,0-0.1
			c0,0,0,0,0-0.1C7.2,11.8,7.2,11.8,7.3,11.8C7.2,11.8,7.3,11.8,7.3,11.8L7.3,11.8z M7.8,10.5L8.3,11l0,0l0,0l0,0l0,0l0,0
			c0,0,0,0,0,0l-0.2,0.2c0,0,0,0,0,0c0,0,0,0,0,0l0,0l0,0l-0.6-0.5c0,0,0,0-0.1,0c0,0,0,0-0.1,0c0,0,0,0,0,0.1c0,0,0,0,0,0.1L8,11.4
			l0,0c0,0,0,0,0,0c0,0,0,0,0,0c0,0,0,0,0,0c0,0,0,0,0,0l0,0c0,0,0,0,0,0c0,0,0,0,0,0L8,11.7c0,0,0,0,0,0c0,0,0,0,0,0l0,0l0,0l0,0
			l0,0c0,0,0,0,0,0l-0.5-0.5c0,0,0,0,0,0c0,0,0,0,0,0c0,0,0,0,0-0.1c0-0.1,0-0.1,0-0.2c0-0.1,0-0.2,0.1-0.2c0.1-0.1,0.1-0.1,0.2-0.1
			C7.6,10.5,7.6,10.5,7.8,10.5L7.8,10.5C7.7,10.5,7.7,10.5,7.8,10.5C7.8,10.5,7.8,10.5,7.8,10.5L7.8,10.5z M8.4,9.4L8.2,9.6l0.1,0
			c0,0,0,0.1,0,0.1c0,0.1,0,0.1-0.1,0.2l0,0l0,0l0,0.1c0,0,0,0.1,0,0.1c0,0.1,0,0.2,0,0.2c0,0,0,0.1,0,0.1c0,0,0,0.1,0.1,0.1
			l0.3,0.3c0,0,0,0,0.1,0c0,0,0,0,0,0l0,0l0,0l0,0l0,0l0.2-0.2c0,0,0,0,0,0c0,0,0,0,0,0c0,0,0,0,0,0c0,0,0,0,0,0l0,0l0,0l-0.2-0.2
			c0,0,0,0,0-0.1c0,0,0,0,0,0l0,0l0,0c0,0,0,0,0,0c0,0,0,0,0,0c0,0,0,0,0.1,0l0.1,0.1l0.2-0.2l-0.1-0.1c0,0,0,0,0-0.1c0,0,0,0,0-0.1
			l0,0c0,0,0,0,0.1,0c0,0,0,0,0.1,0l0.2,0.2l0,0l0,0l0,0c0,0,0,0,0,0c0,0,0,0,0,0l0.2-0.2c0,0,0,0,0,0c0,0,0,0,0,0c0,0,0,0,0,0
			c0,0,0,0,0,0c0,0,0,0,0,0l0,0L9.1,9.8C9,9.8,9,9.8,8.9,9.7c-0.1,0-0.2,0-0.3,0.1C8.6,9.9,8.6,10,8.5,10c0,0,0,0.1,0,0.1
			c0,0-0.1,0-0.1,0c0,0-0.1,0-0.1,0.1c0,0,0,0,0,0s0,0,0,0c0,0,0,0,0,0c0,0,0-0.1,0-0.1c0-0.1,0-0.1,0.1-0.2c0,0,0-0.1,0.1-0.1
			c0,0,0,0,0-0.1c0,0,0,0,0,0l0,0l0-0.1c0,0,0-0.1,0-0.1S8.5,9.5,8.4,9.4L8.4,9.4L8.4,9.4z M9.5,8.9l0.4,0.4C9.9,9.4,10,9.5,9.9,9.6
			c0,0.1-0.1,0.2-0.1,0.2l0,0C9.7,9.9,9.7,9.9,9.6,9.9c-0.1,0-0.2,0-0.3-0.1L9.1,9.7l0.2-0.2l0.2,0.2c0,0,0,0,0.1,0c0,0,0,0,0.1,0
			l0,0c0,0,0,0,0-0.1c0,0,0,0,0-0.1L9.2,9c0,0,0,0-0.1,0c0,0,0,0-0.1,0l0,0c0,0,0,0,0,0.1c0,0,0,0,0,0.1l0.1,0.1L9,9.5L8.9,9.4
			C8.8,9.3,8.8,9.2,8.8,9.1c0-0.1,0-0.2,0.1-0.3C9,8.8,9.1,8.8,9.2,8.8C9.3,8.8,9.4,8.8,9.5,8.9L9.5,8.9z M9.6,8.3L9.4,8.5l0.2,0.2
			l0.2-0.2l0.2,0.2C9.9,8.8,9.8,8.9,9.9,9c0,0.1,0,0.2,0.1,0.2c0,0,0.1,0.1,0.1,0.1c0,0,0.1,0,0.2,0c0.1,0,0.2-0.1,0.3-0.1
			c0.1-0.1,0.1-0.2,0.2-0.3c0-0.1,0-0.2-0.1-0.3c-0.1-0.1-0.1-0.1-0.2-0.1s-0.2,0-0.2,0.1L9.9,8.2L9.6,8.3L9.6,8.3L9.6,8.3z
			 M10.1,8.7c0,0,0.1,0,0.1,0c0,0,0.1,0,0.1,0.1l0,0c0,0,0,0,0,0.1s0,0,0,0.1c0,0,0,0.1,0,0.1c0,0-0.1,0-0.1,0c0,0-0.1,0-0.1-0.1
			l0,0c0,0,0,0,0-0.1c0,0,0,0,0-0.1C10.1,8.8,10.1,8.8,10.1,8.7L10.1,8.7z M11,7.6l0.5,0.6l0,0l0,0.1l0,0l0,0l0,0c0,0,0,0,0,0
			l-0.2,0.2c0,0,0,0,0,0c0,0,0,0,0-0.1l0,0l0,0l-0.5-0.6c0,0,0,0-0.1,0c0,0,0,0-0.1,0s0,0,0,0.1c0,0,0,0,0,0.1l0.5,0.6l0,0
			c0,0,0,0,0,0c0,0,0,0,0,0c0,0,0,0,0,0c0,0,0,0,0,0l0,0c0,0,0,0,0,0c0,0,0,0,0,0L11,8.8c0,0,0,0,0,0c0,0,0,0,0,0l0,0l0,0l0,0l0,0
			c0,0,0,0,0,0l-0.5-0.6c0,0,0,0,0,0c0,0,0,0,0,0c0,0,0,0,0-0.1c0-0.1,0-0.1,0-0.2c0-0.1,0.1-0.1,0.2-0.2c0.1-0.1,0.2-0.1,0.2-0.1
			C10.8,7.5,10.9,7.5,11,7.6L11,7.6C11,7.6,11,7.6,11,7.6C11,7.6,11,7.6,11,7.6L11,7.6z M11.2,7L11,7.2l0.5,0.8
			c0.1,0.1,0.2,0.1,0.3,0.1c0.1,0,0.2,0,0.3-0.1c0.1-0.1,0.2-0.1,0.2-0.2c0-0.1,0-0.2,0-0.2l0-0.1c0,0,0,0,0,0c0,0,0,0,0,0l0,0
			c0,0,0,0,0,0L12,7.3c0,0-0.1-0.1-0.1-0.1l-0.2,0.2l0,0l0,0c0,0,0,0,0.1,0.1c0,0,0,0,0,0c0,0,0,0,0,0L12,7.7c0,0,0,0,0,0.1
			c0,0,0,0,0,0.1c0,0,0,0-0.1,0c0,0,0,0-0.1,0L11.2,7L11.2,7z M12.7,6.3C12.6,6.3,12.6,6.3,12.7,6.3C12.6,6.3,12.6,6.3,12.7,6.3
			L12.7,6.3C12.6,6.3,12.6,6.3,12.7,6.3C12.6,6.4,12.6,6.4,12.7,6.3l0,0.1l-0.2,0.1l-0.1-0.1c0-0.1,0-0.1,0-0.2c0,0,0-0.1,0.1-0.1
			c0,0,0.1,0,0.1-0.1l0,0c0.1,0,0.1-0.1,0.2-0.1c0.1,0,0.1,0,0.2,0.1L13,6.4c0,0,0,0,0.1,0c0,0,0,0,0.1,0h0h0h0l0,0
			c0.1,0,0.1,0,0.2,0c0,0,0.1,0.1,0.1,0.1c0.1,0.1,0.1,0.2,0,0.3c0,0.1-0.1,0.1-0.1,0.1c0,0-0.1,0.1-0.1,0.1l0,0
			c-0.1,0.1-0.2,0.1-0.3,0.1c-0.1,0-0.2-0.1-0.3-0.2c0-0.1-0.1-0.1-0.1-0.2c0-0.1,0-0.1,0.1-0.2l0,0l0,0l0,0l0,0c0,0,0,0,0.1-0.1
			c0,0,0,0,0-0.1L12.7,6.3L12.7,6.3z M12.9,6.7c0,0-0.1,0.1-0.1,0.1c0,0,0,0.1,0,0.1C12.9,7,13,7,13,7.1c0,0,0.1,0,0.1,0l0,0l0,0
			c0,0,0-0.1,0-0.1c0,0,0-0.1,0-0.1c0,0-0.1-0.1-0.1-0.1C13,6.7,13,6.7,12.9,6.7C12.9,6.7,12.9,6.7,12.9,6.7L12.9,6.7L12.9,6.7z
			 M13.2,5.7l0.1,0.1c0,0.1,0.1,0.1,0.1,0.1c0,0,0,0,0.1,0c0,0,0,0,0.1,0c0.1,0,0.1,0,0.1,0c0,0,0.1,0,0.1,0.1l0,0.1l0,0.1l0,0.1
			l0,0.1c0,0,0,0.1,0,0.1c0,0,0,0,0,0.1c0,0,0,0-0.1,0c0,0,0,0-0.1-0.1l-0.1-0.2l-0.3,0.2l0.1,0.2c0.1,0.1,0.1,0.2,0.2,0.2
			c0.1,0,0.1,0,0.1,0c0,0,0.1,0,0.1,0l0,0l0,0l0,0l0,0c0.1-0.1,0.1-0.1,0.2-0.2c0-0.1,0-0.2,0-0.3l-0.1-0.2c0-0.1-0.1-0.1-0.1-0.1
			c0,0-0.1,0-0.1,0h0l0,0c0,0-0.1,0-0.1,0c0,0-0.1,0-0.1-0.1l-0.1-0.1L13.2,5.7L13.2,5.7z M14.8,5.3l0.3,0.5c0.1,0.1,0.1,0.2,0,0.3
			c0,0.1-0.1,0.2-0.2,0.2l0,0c-0.1,0-0.2,0.1-0.3,0s-0.2-0.1-0.2-0.2l-0.1-0.2l0.3-0.1l0.1,0.3c0,0,0,0,0.1,0.1s0,0,0.1,0l0,0
			c0,0,0,0,0,0c0,0,0,0,0-0.1l-0.3-0.6c0,0,0,0-0.1-0.1c0,0,0,0-0.1,0l0,0c0,0,0,0,0,0c0,0,0,0,0,0.1l0.1,0.1l-0.3,0.1l0-0.1
			c0-0.1-0.1-0.2,0-0.3c0-0.1,0.1-0.2,0.2-0.2c0.1,0,0.2-0.1,0.3,0S14.8,5.2,14.8,5.3L14.8,5.3z M15.8,4.4l-0.3,0.1l0,0.1
			c0,0,0,0.1,0,0.1c0,0-0.1,0.1-0.1,0.1l0,0l0,0L15.3,5c0,0-0.1,0.1-0.1,0.1c-0.1,0.1-0.1,0.1-0.1,0.2c0,0,0,0.1,0,0.1s0,0.1,0,0.1
			l0.2,0.3c0,0,0,0,0,0.1c0,0,0,0,0,0l0,0l0,0l0,0l0,0l0.3-0.1c0,0,0,0,0,0c0,0,0,0,0,0c0,0,0,0,0,0c0,0,0,0,0,0l0,0l0,0l-0.1-0.3
			c0,0,0-0.1,0-0.1c0,0,0,0,0,0l0,0l0,0c0,0,0,0,0,0c0,0,0,0,0,0c0,0,0,0,0,0.1l0.1,0.2l0.3-0.1l-0.1-0.2c0,0,0-0.1,0-0.1
			c0,0,0,0,0,0l0,0c0,0,0,0,0.1,0c0,0,0,0,0.1,0.1l0.1,0.3l0,0l0,0l0,0c0,0,0,0,0,0c0,0,0,0,0,0l0.3-0.1c0,0,0,0,0,0c0,0,0,0,0,0
			c0,0,0,0,0,0c0,0,0,0,0,0c0,0,0,0,0,0l0-0.1l-0.1-0.3C16.2,5,16.2,5,16.1,5c-0.1,0-0.2,0-0.3,0c-0.1,0-0.1,0.1-0.2,0.1
			c0,0,0,0.1,0,0.1c0,0-0.1,0-0.1-0.1c0,0-0.1,0-0.1,0c0,0,0,0,0,0c0,0,0,0,0,0c0,0,0,0,0,0c0,0,0-0.1,0.1-0.1c0,0,0.1-0.1,0.1-0.1
			c0,0,0.1-0.1,0.1-0.1c0,0,0,0,0,0s0,0,0,0l0,0l0,0c0,0,0-0.1,0.1-0.1c0,0,0-0.1,0-0.1L15.8,4.4L15.8,4.4z M16.5,4.1
			c0,0,0.1,0,0.1,0c0,0,0.1,0,0.2,0c0,0,0-0.1,0.1-0.1c0,0,0,0,0,0s0,0,0,0l0,0l0,0c0.1,0,0.2,0,0.2,0c0.1,0,0.1,0.1,0.2,0.2
			l0.3,0.7l0,0c0,0,0,0,0,0c0,0,0,0,0,0s0,0,0,0V5l-0.3,0.1c0,0,0-0.1,0-0.1l0-0.1l0,0l0,0l-0.3-0.7c0,0,0,0,0,0s0,0-0.1,0l0,0
			c0,0,0,0,0,0c0,0,0,0,0,0.1l0.2,0.6c0,0.1,0,0.2,0,0.3c0,0.1-0.1,0.1-0.2,0.2c-0.1,0-0.2,0-0.3,0c-0.1,0-0.2-0.1-0.2-0.2l-0.2-0.5
			c0-0.1,0-0.2,0-0.3C16.3,4.2,16.4,4.2,16.5,4.1L16.5,4.1z M16.7,4.4C16.7,4.3,16.6,4.3,16.7,4.4c-0.1-0.1-0.1-0.1-0.1-0.1l0,0
			c0,0,0,0,0,0s0,0.1,0,0.1l0.3,0.7c0,0,0,0,0.1,0.1c0,0,0,0,0.1,0l0,0c0,0,0,0,0,0c0,0,0,0,0-0.1L16.7,4.4z"/>
		
			<path fill-rule="evenodd" clip-rule="evenodd" fill="#E01E26" stroke="#E01E26" stroke-width="3.187400e-02" stroke-miterlimit="22.9256" d="
			M18.3,3.8l0.2,0.7l0,0l0,0.1l0,0l0,0l0,0c0,0,0,0,0,0l-0.3,0.1c0,0,0,0,0,0c0,0,0,0,0-0.1l0,0l0,0L18,3.9c0,0,0,0,0-0.1
			c0,0,0,0-0.1,0c0,0,0,0-0.1,0c0,0,0,0,0,0.1l0.2,0.8l0,0c0,0,0,0,0,0c0,0,0,0,0,0s0,0,0,0c0,0,0,0,0,0l0,0l0,0c0,0,0,0,0,0L17.9,5
			c0,0,0,0,0,0c0,0,0,0,0,0l0,0l0,0l0,0l0,0c0,0,0,0,0,0l-0.2-0.7c0,0,0,0,0,0c0,0,0,0,0,0c0,0,0,0,0-0.1c0-0.1,0-0.1,0.1-0.2
			c0-0.1,0.1-0.1,0.2-0.1c0.1,0,0.2,0,0.2,0C18.2,3.7,18.2,3.7,18.3,3.8L18.3,3.8C18.3,3.8,18.3,3.8,18.3,3.8
			C18.3,3.8,18.3,3.8,18.3,3.8L18.3,3.8z M18.5,3.4l0,0.2c0,0.1,0,0.1,0.1,0.1c0,0,0,0,0.1,0c0,0,0,0,0.1,0c0,0,0.1,0,0.1,0
			S19,3.9,19,3.9l0,0.1l0,0.1l0,0.1l0,0.1c0,0,0,0.1,0,0.1c0,0,0,0,0,0c0,0,0,0-0.1,0c0,0,0,0,0-0.1l-0.1-0.3l-0.3,0.1l0.1,0.2
			c0,0.1,0.1,0.2,0.2,0.2c0,0,0.1,0,0.1,0c0,0,0.1,0,0.1,0l0,0l0,0l0,0l0,0c0.1,0,0.2-0.1,0.2-0.2c0.1-0.1,0.1-0.2,0-0.3l-0.1-0.3
			c0-0.1,0-0.1-0.1-0.1c0,0-0.1,0-0.1-0.1l0,0l0,0c0,0-0.1,0-0.1,0c0,0-0.1-0.1-0.1-0.1l0-0.2L18.5,3.4L18.5,3.4z M19.7,3.1
			C19.7,3.1,19.7,3.1,19.7,3.1l0.1,0l0,0l0,0l0,0l0,0c0,0,0,0,0.1,0c0,0,0,0,0.1,0l0,0.2c0,0,0,0,0,0c0,0,0,0,0,0c0,0,0,0-0.1,0
			c0,0-0.1,0-0.1,0c0,0,0,0,0,0c0,0,0,0,0,0l0,0l0,0l0,0h0l0,0h0h0c0,0,0,0,0,0c0,0,0,0,0,0v0l0,0l0.1,0.3l0,0l0,0c0,0,0,0,0.1-0.1
			c0,0,0,0,0,0c0,0,0,0,0,0c0.1,0,0.2,0,0.2,0.1s0.1,0.1,0.1,0.2c0,0.1,0,0.2,0,0.3c-0.1,0.1-0.1,0.1-0.3,0.2c-0.1,0-0.2,0-0.3,0
			c-0.1,0-0.1-0.1-0.2-0.2l-0.2-0.7c0-0.1,0-0.2,0.1-0.2C19.5,3.2,19.6,3.1,19.7,3.1L19.7,3.1z M20,3.9C20,3.8,20,3.8,20,3.9
			c-0.1-0.1-0.1-0.1-0.1-0.1l0,0c0,0,0,0-0.1,0s0,0,0,0.1l0.1,0.2c0,0,0,0,0,0c0,0,0,0,0.1,0h0c0,0,0,0,0.1,0c0,0,0,0,0-0.1L20,3.9
			L20,3.9z M21.1,3.2l0.1,0.6c0,0.1,0,0.2-0.1,0.3c-0.1,0.1-0.2,0.1-0.2,0.1h0c-0.1,0-0.2,0-0.3,0c-0.1,0-0.1-0.1-0.2-0.2l0-0.2
			l0.3,0l0,0.3c0,0,0,0.1,0,0.1c0,0,0,0,0.1,0h0c0,0,0,0,0.1,0c0,0,0,0,0-0.1l-0.1-0.7c0,0,0-0.1,0-0.1c0,0,0,0-0.1,0h0c0,0,0,0,0,0
			c0,0,0,0,0,0.1l0,0.2l-0.3,0l0-0.1c0-0.1,0-0.2,0.1-0.3c0.1-0.1,0.1-0.1,0.3-0.1c0.1,0,0.2,0,0.3,0.1C21.1,3,21.1,3.1,21.1,3.2
			L21.1,3.2z M21.5,2.7L21.5,2.7l0.3,0.1l0.1,0.4c0.1,0,0.2,0,0.2,0.1c0.1,0.1,0.1,0.1,0.1,0.2c0,0.1,0,0.2-0.1,0.3
			C22.1,3.9,22,3.9,21.9,4c-0.1,0-0.2,0-0.3,0c-0.1,0-0.1-0.1-0.1-0.1c0,0-0.1-0.1-0.1-0.2c0-0.1,0-0.2,0-0.2c0-0.1,0.1-0.1,0.2-0.2
			l0-0.3l-0.3,0l0-0.3L21.5,2.7L21.5,2.7z M21.8,3.4C21.7,3.4,21.7,3.4,21.8,3.4c-0.1,0.1-0.1,0.1-0.1,0.1c0,0,0,0,0,0.1v0
			c0,0,0,0.1,0.1,0.1c0,0,0.1,0.1,0.1,0s0.1,0,0.1-0.1c0,0,0,0,0-0.1c0,0,0,0,0-0.1l0,0c0,0,0-0.1-0.1-0.1
			C21.8,3.4,21.8,3.4,21.8,3.4L21.8,3.4z M22.4,2.6l0.3,0l0,0.2c0,0,0,0.1,0.1,0.1c0,0,0.1,0,0.1,0.1l0,0l0,0c0,0,0.1,0,0.1,0.1
			c0,0,0.1,0.1,0.1,0.1l0,0.3c0,0.1,0,0.2-0.1,0.3c-0.1,0.1-0.1,0.1-0.2,0.1l0,0l0,0h0l0,0c0,0-0.1,0-0.1,0c0,0-0.1,0-0.1-0.1
			c-0.1-0.1-0.1-0.1-0.2-0.3l0-0.2l0.3,0l0,0.3c0,0,0,0.1,0,0.1c0,0,0,0,0.1,0c0,0,0,0,0.1,0s0,0,0-0.1l0-0.1l0-0.1l0-0.1l0-0.1
			c0-0.1,0-0.1-0.1-0.1c0,0-0.1,0-0.1-0.1c0,0,0,0-0.1,0c0,0,0,0-0.1,0c0,0-0.1-0.1-0.1-0.1L22.4,2.6z"/>
	</g>
	<path fill-rule="evenodd" clip-rule="evenodd" fill="#FFFFFF" d="M16.4,6.7c0,0,0,0.1,0,0.2c0,0,0,0.1-0.1,0.2c0,0-0.1,0.1-0.1,0
		c0,0,0-0.1,0.1-0.2S16.4,6.7,16.4,6.7L16.4,6.7z M16.4,6.3c0,0,0.1,0.1,0.1,0.1c0,0.1,0,0.1,0,0.1c0,0-0.1,0-0.1,0
		c0,0-0.1-0.1,0-0.2C16.3,6.4,16.4,6.3,16.4,6.3z"/>
	<g>
		
			<path fill-rule="evenodd" clip-rule="evenodd" fill="#FFFFFF" stroke="#FFFFFF" stroke-width="3.187400e-02" stroke-miterlimit="22.9256" d="
			M10.8,40.2L10.8,40.2L10.8,40.2L10.8,40.2L10.8,40.2c0,0.1,0.1,0.2,0.1,0.2c0,0.1,0,0.1,0,0.2c0,0,0,0.1-0.1,0.1c0,0,0,0-0.1,0
			L9.9,41l0,0l0,0c-0.1,0-0.2,0-0.3,0c-0.1,0-0.2-0.1-0.2-0.2c-0.1-0.1-0.1-0.3-0.1-0.4c0-0.1,0.1-0.2,0.2-0.3
			c0.1-0.1,0.2-0.1,0.3,0c0.1,0,0.2,0.1,0.2,0.2l0,0c0,0,0,0,0,0.1c0,0,0,0,0,0c0,0,0,0,0,0c0,0,0,0,0,0.1l0.4-0.2c0,0,0,0,0-0.1
			c0,0,0,0,0-0.1l0,0c0,0,0,0,0,0c0,0,0,0-0.1,0l-0.2,0.1L10.2,40l0.1-0.1c0,0,0,0,0-0.1c0,0,0-0.1,0-0.1c0,0,0,0,0,0c0,0,0,0,0,0
			c0,0,0,0,0,0c0,0,0,0,0,0l0,0l0,0l0.2-0.1c0,0,0.1,0,0.1,0.1c0,0,0,0.1,0.1,0.1l0,0l0,0c0,0,0,0,0,0.1c0,0,0,0.1,0,0.1
			c0,0,0,0.1,0,0.1c0,0,0,0,0,0.1c0,0,0.1,0,0.1,0c0,0,0,0,0.1,0C10.7,40.1,10.8,40.1,10.8,40.2L10.8,40.2L10.8,40.2z M10,40.6
			C10,40.6,10,40.6,10,40.6c0.1-0.1,0.1-0.1,0.1-0.1c0,0,0,0-0.1-0.1c0,0-0.1,0-0.1,0l-0.2,0.1c0,0-0.1,0-0.1,0.1c0,0,0,0.1,0,0.1
			c0,0,0,0,0.1,0c0,0,0.1,0,0.1,0L10,40.6L10,40.6z M11.7,41.7l-0.2-0.3l-0.1,0c0,0-0.1,0-0.2,0c-0.1,0-0.1-0.1-0.2-0.1l0,0l0,0
			L11,41.2c0,0-0.1-0.1-0.1-0.1c-0.1,0-0.2-0.1-0.3-0.1c-0.1,0-0.1,0-0.2,0c-0.1,0-0.1,0-0.2,0.1l-0.4,0.2c0,0-0.1,0-0.1,0.1
			c0,0,0,0,0,0.1l0,0l0,0l0,0l0,0l0.2,0.3c0,0,0,0,0,0c0,0,0,0,0,0c0,0,0,0,0,0c0,0,0,0,0,0h0l0,0l0.3-0.2c0,0,0.1,0,0.1,0
			c0,0,0,0,0.1,0l0,0l0,0c0,0,0,0,0,0c0,0,0,0,0,0c0,0,0,0-0.1,0.1l-0.2,0.1l0.2,0.3l0.2-0.1c0,0,0.1,0,0.1,0c0,0,0,0,0.1,0l0,0
			c0,0,0,0,0,0.1c0,0,0,0.1-0.1,0.1l-0.3,0.2l0,0l0,0l0,0c0,0,0,0,0,0c0,0,0,0,0,0l0.2,0.3c0,0,0,0,0,0c0,0,0,0,0,0c0,0,0,0,0,0
			c0,0,0,0,0,0c0,0,0,0,0,0l0.1,0l0.3-0.2c0.1,0,0.1-0.1,0.2-0.2c0-0.1,0-0.2-0.1-0.3c0-0.1-0.1-0.1-0.1-0.2c0,0-0.1,0-0.1,0
			c0,0,0.1-0.1,0-0.1c0,0,0-0.1,0-0.1c0,0,0,0,0,0c0,0,0,0,0,0c0,0,0,0,0,0c0,0,0.1,0,0.1,0.1c0.1,0,0.1,0.1,0.2,0.1
			c0,0,0.1,0.1,0.1,0.1c0,0,0,0,0.1,0s0,0,0.1,0l0,0l0.1,0c0,0,0.1,0,0.1,0c0,0,0.1,0,0.1,0L11.7,41.7L11.7,41.7z M12.1,42.3
			c0,0.1,0.1,0.1,0.1,0.1c0,0.1,0,0.1,0,0.1c0,0,0.1,0,0.1,0c0,0,0.1,0.1,0.1,0.1c0.1,0.1,0.1,0.2,0.1,0.4c0,0.1-0.1,0.2-0.2,0.3
			l-0.7,0.5l0,0l0,0l0,0l0,0l0,0c0,0,0,0-0.1,0c0,0,0,0-0.1,0l0,0l-0.2-0.3c0,0,0,0,0,0s0,0,0,0l0,0l0,0l0.1,0l0.8-0.6
			c0,0,0,0,0-0.1c0,0,0-0.1,0-0.1l0,0c0,0,0,0-0.1,0c0,0-0.1,0-0.1,0l-0.4,0.3l-0.2-0.3l0.4-0.3c0,0,0,0,0.1-0.1c0,0,0-0.1,0-0.1
			l0,0c0,0,0,0-0.1,0s-0.1,0-0.1,0L11,43c0,0,0,0-0.1,0.1l0,0l0,0l0,0l0,0l0,0l-0.2-0.3c0,0,0,0,0,0c0,0,0,0,0,0l0,0l0,0
			c0,0,0,0,0,0l0.7-0.5c0.1-0.1,0.2-0.1,0.4-0.1C11.9,42.1,12,42.1,12.1,42.3L12.1,42.3z M13.2,43.5c-0.1-0.1-0.2-0.2-0.3-0.2
			c-0.1,0-0.2,0-0.3,0.1l-0.1,0.1l0.2,0.3l0.1-0.1c0,0,0,0,0.1,0c0,0,0,0,0.1,0l0,0c0,0,0,0,0,0.1c0,0,0,0,0,0.1L12.7,44
			c0,0,0-0.1,0-0.1c0,0,0-0.1-0.1-0.1c-0.1-0.1-0.2-0.1-0.3-0.1c-0.1,0-0.2,0-0.3,0.2c-0.1,0.1-0.1,0.2-0.2,0.3c0,0.1,0,0.2,0.2,0.4
			c0.1,0.1,0.2,0.1,0.2,0.1c0.1,0,0.2,0,0.2,0l0,0c0,0,0,0,0,0l0.6-0.6c0.1-0.1,0.1-0.2,0.1-0.3C13.3,43.7,13.2,43.6,13.2,43.5
			L13.2,43.5z M12.5,44.2l-0.2,0.2c0,0-0.1,0-0.1,0c0,0-0.1,0-0.1,0l0,0c0,0,0,0,0-0.1c0,0,0-0.1,0-0.1l0.2-0.2c0,0,0.1,0,0.1,0
			s0.1,0,0.1,0l0,0C12.5,44.1,12.5,44.1,12.5,44.2C12.5,44.2,12.5,44.2,12.5,44.2L12.5,44.2z M13.7,44l0.3,0.3l-0.1,0.1
			c0,0-0.1,0.1-0.1,0.1c0,0.1,0,0.1,0,0.2l0,0l0,0c0,0.1,0,0.1,0,0.2c0,0.1,0,0.1-0.1,0.2l-0.2,0.2c-0.1,0.1-0.2,0.2-0.3,0.1
			s-0.2,0-0.3-0.1l0,0l0,0l0,0l0,0c0,0-0.1-0.1-0.1-0.1c0-0.1,0-0.1,0-0.2c0-0.1,0-0.2,0.1-0.3l0.2-0.2l0.3,0.3L13,45
			c0,0,0,0.1,0,0.1s0,0.1,0,0.1c0,0,0,0,0.1,0c0,0,0.1,0,0.1,0l0.1-0.1l0.1-0.1l0.1-0.1l0.1-0.1c0.1-0.1,0.1-0.1,0.1-0.2
			c0-0.1,0-0.1,0-0.2c0,0,0-0.1,0-0.1c0,0,0-0.1,0-0.1c0-0.1,0-0.1,0.1-0.2L13.7,44L13.7,44z M13.7,45.9
			C13.7,45.9,13.7,46,13.7,45.9c-0.1,0-0.1,0.1-0.1,0.1l-0.1,0l-0.1,0h0l0,0l-0.2-0.1l0.1,0v0l0,0c0,0,0-0.1,0-0.1c0,0,0-0.1,0-0.1
			c0,0,0.1-0.1,0.1-0.1c0.1,0,0.1,0,0.1,0.1c0,0,0.1,0.1,0.1,0.1C13.8,45.8,13.7,45.9,13.7,45.9L13.7,45.9z M15.3,45.4l-0.7,1
			c0,0,0,0.1,0,0.1c0,0,0,0.1,0,0.1s0,0,0.1,0c0,0,0.1,0,0.1,0l0.2-0.2c0,0,0,0,0,0c0,0,0,0,0,0c0,0,0-0.1,0-0.1l0,0l0,0l0.3,0.2
			c0,0,0,0.1-0.1,0.1l-0.1,0.1c0,0,0,0,0,0l0,0c0,0,0,0,0,0c0,0,0,0,0,0L15,46.7c-0.1,0.1-0.1,0.1-0.2,0.1s-0.2,0-0.3-0.1
			c-0.1-0.1-0.2-0.2-0.2-0.3c0-0.1,0-0.2,0.1-0.3l0.7-0.9L15.3,45.4L15.3,45.4z M15.9,45.9L15.8,46c0,0.1-0.1,0.1,0,0.2
			c0,0,0,0.1,0,0.1c0,0,0,0.1,0,0.1c0,0.1,0.1,0.1,0.1,0.2c0,0.1,0,0.1,0,0.2l-0.1,0.1l-0.1,0.1L15.7,47l-0.1,0.1
			c0,0-0.1,0.1-0.1,0.1c0,0-0.1,0-0.1,0c0,0,0,0,0-0.1c0,0,0-0.1,0-0.1l0.2-0.3l-0.3-0.2l-0.1,0.2c-0.1,0.1-0.1,0.2-0.1,0.4
			c0,0.1,0,0.1,0.1,0.2c0,0,0.1,0.1,0.1,0.1l0,0l0,0l0,0l0,0c0.1,0,0.2,0.1,0.3,0c0.1,0,0.2-0.1,0.3-0.2l0.2-0.3
			c0-0.1,0.1-0.1,0-0.2c0-0.1,0-0.1-0.1-0.2l0,0l0,0c0,0,0-0.1,0-0.2s0-0.1,0-0.1l0.1-0.2L15.9,45.9L15.9,45.9z M17.1,46.6
			c0.1,0.1,0.2,0.1,0.2,0.2s0.1,0.2,0,0.3l-0.4,0.8c0,0,0,0,0,0l0,0c-0.1,0-0.1,0.1-0.2,0.1c-0.1,0-0.2,0-0.3-0.1
			c-0.1-0.1-0.2-0.2-0.3-0.3c0-0.1,0-0.2,0-0.3c0.1-0.1,0.2-0.2,0.3-0.2c0.1,0,0.2,0,0.3,0c0,0,0.1,0,0.1,0.1c0,0,0,0.1,0.1,0.1
			l0.2-0.3c0,0,0-0.1,0-0.1c0,0,0,0,0-0.1l0,0c0,0,0,0-0.1,0c0,0,0,0-0.1,0.1L16.8,47l-0.3-0.2l0.1-0.1c0.1-0.1,0.2-0.1,0.2-0.2
			S17,46.5,17.1,46.6L17.1,46.6z M16.7,47.5C16.7,47.5,16.7,47.4,16.7,47.5c0-0.1,0-0.1,0-0.1l0,0c0,0,0,0-0.1,0c0,0,0,0-0.1,0.1
			l-0.1,0.2c0,0,0,0.1,0,0.1c0,0,0,0,0,0.1l0,0c0,0,0,0,0.1,0c0,0,0,0,0.1-0.1L16.7,47.5L16.7,47.5z M17.7,46.9l-0.1,0.2
			c0,0.1,0,0.1,0,0.2c0,0,0,0.1,0,0.1s0,0,0,0.1c0,0.1,0.1,0.1,0.1,0.2c0,0.1,0,0.1,0,0.2l-0.1,0.1l0,0.1l-0.1,0.1l-0.1,0.1
			c0,0,0,0.1-0.1,0.1c0,0-0.1,0-0.1,0c0,0,0,0,0-0.1c0,0,0-0.1,0-0.1l0.1-0.3l-0.3-0.2l-0.1,0.2c-0.1,0.1-0.1,0.3,0,0.4
			c0,0.1,0.1,0.1,0.1,0.1c0,0,0.1,0.1,0.1,0.1l0,0h0l0,0l0,0c0.1,0,0.2,0,0.3,0s0.2-0.1,0.3-0.2l0.1-0.3c0-0.1,0-0.1,0-0.2
			c0-0.1,0-0.1-0.1-0.2l0,0l0,0c0,0-0.1-0.1-0.1-0.1c0,0,0-0.1,0-0.1l0.1-0.2L17.7,46.9L17.7,46.9z M19.7,47.8l-0.1,0.1
			c0,0,0,0.1-0.1,0.1s-0.1,0-0.1,0l-0.1,0l-0.1,0c0,0,0,0-0.1,0s0,0-0.1,0c-0.1,0-0.1,0-0.2,0c-0.1,0-0.2,0-0.2,0
			c-0.1,0-0.1,0-0.1,0c0,0,0,0,0.1,0c0,0,0,0,0,0c0,0,0,0,0,0c0,0,0.1,0,0.1,0.1s0,0.1,0,0.1c0,0,0.1-0.1,0.1-0.1c0.1,0,0.1,0,0.2,0
			c0.1,0.1,0.2,0.1,0.3,0.2c0,0.1,0,0.2,0,0.3l-0.1,0.3l0,0.1c0,0,0,0,0,0c0,0,0,0,0,0c0,0,0,0,0,0c0,0,0,0,0,0c0,0,0,0,0,0L19,49.1
			c0,0,0,0,0,0c0,0,0,0,0,0l0,0l0,0l0,0l0.1-0.4c0,0,0-0.1,0-0.1s0,0-0.1-0.1h0c0,0,0,0-0.1,0c0,0,0,0-0.1,0.1l-0.1,0.2l-0.3-0.1
			l0.1-0.2c0,0,0-0.1,0-0.1c0,0,0,0,0,0c0,0,0,0,0,0l0,0l0,0c0,0,0,0-0.1,0c0,0,0,0-0.1,0.1l-0.1,0.4l0,0v0c0,0,0,0,0,0c0,0,0,0,0,0
			c0,0,0,0,0,0.1c0,0,0,0,0,0L18,48.8v0l0,0l0,0l0,0c0,0,0,0,0-0.1c0,0,0-0.1,0-0.1l0.2-0.4c0-0.1,0.1-0.1,0.1-0.2
			c0,0,0.1-0.1,0.1-0.1c0.1-0.1,0.2-0.1,0.3-0.1c0.1,0,0.1,0,0.2,0h0.1l0,0l0,0c0.1,0,0.2,0,0.2,0s0.1,0,0.1-0.1l0-0.1L19.7,47.8
			L19.7,47.8z M20.5,48c-0.1,0-0.2,0-0.3,0c-0.1,0-0.2,0.1-0.2,0.3l-0.2,0.6c0,0.1,0,0.2,0,0.3c0.1,0.1,0.1,0.2,0.3,0.2
			c0.1,0,0.2,0,0.4,0c0.1,0,0.2-0.1,0.2-0.2l0.3-0.7c0,0,0-0.1,0.1-0.1c0,0,0,0,0.1,0l0,0c0,0,0,0,0.1,0c0,0,0,0.1,0,0.1l-0.3,0.9
			l0,0l0,0l0,0.1c0,0,0,0.1-0.1,0.1l0.3,0.1l0,0c0,0,0,0,0,0c0,0,0,0,0,0c0,0,0,0,0,0l0-0.1l0.3-0.9c0-0.1,0-0.2,0-0.3
			s-0.1-0.1-0.2-0.2l0,0l0,0c0,0,0,0-0.1,0c0,0,0,0-0.1,0c0,0-0.1,0-0.1,0c0-0.1-0.1-0.1-0.1-0.2C20.6,48,20.5,48,20.5,48L20.5,48z
			 M20.5,48.4l-0.3,0.8c0,0,0,0.1-0.1,0.1c0,0-0.1,0-0.1,0l0,0c0,0,0,0-0.1-0.1c0,0,0-0.1,0-0.1l0.3-0.8c0,0,0-0.1,0.1-0.1
			s0.1,0,0.1,0l0,0c0,0,0,0,0.1,0.1C20.5,48.3,20.5,48.3,20.5,48.4L20.5,48.4z M21.9,48.4c0.1,0,0.1,0,0.2,0c0,0,0.1,0.1,0.1,0.1
			c0,0,0.1-0.1,0.1-0.1s0.1,0,0.2,0c0.1,0,0.1,0,0.1,0c0,0,0.1,0,0.1,0.1c0,0,0.1-0.1,0.1-0.1c0,0,0.1,0,0.2,0
			c0.1,0,0.2,0.1,0.2,0.1c0,0.1,0.1,0.1,0.1,0.2c0,0,0,0,0,0.1c0,0,0,0,0,0.1l-0.1,0.3l-0.4-0.1l0.1-0.4c0,0,0,0,0-0.1c0,0,0,0,0,0
			l0,0c0,0,0,0,0,0c0,0,0,0,0,0.1l0,0.2L22.4,49l0-0.2c0,0,0,0,0-0.1c0,0,0,0,0,0l0,0c0,0,0,0,0,0c0,0,0,0,0,0.1l0,0.2l-0.3-0.1
			l0-0.2c0,0,0,0,0-0.1c0,0,0,0,0,0h0l0,0c0,0,0,0-0.1,0s0,0,0,0.1L21.7,49c0,0.1,0,0.2,0.1,0.2c0,0.1,0.1,0.1,0.2,0.2
			c0,0,0.1,0.1,0.1,0.1s0.1,0,0.1,0l0.4,0.1c0.1,0,0.2,0.1,0.3,0.2s0.1,0.2,0.1,0.3l0,0.2l-0.4-0.1l0-0.1c0-0.1,0-0.1-0.1-0.2
			s-0.1-0.1-0.2-0.1l-0.1,0l-0.1,0l-0.8-0.1l0-0.2l0.2,0c0,0-0.1-0.1-0.1-0.1c0,0,0-0.1-0.1-0.1c0,0,0,0,0-0.1c0,0,0,0,0,0
			c0,0,0,0,0,0c0,0,0,0,0,0l0-0.3l0,0l0,0l0-0.1c0,0,0,0,0,0c0,0,0,0,0,0c0,0,0.1-0.1,0.1-0.1C21.7,48.4,21.8,48.4,21.9,48.4
			L21.9,48.4z M24.3,49.2L24.2,50l0,0l0,0.1l0,0l0,0l0,0c0,0,0,0,0,0l-0.4,0c0,0,0,0,0,0c0,0,0,0,0-0.1l0-0.1l0-0.1l0.1-1
			c0,0,0-0.1,0-0.1c0,0,0,0-0.1,0c0,0-0.1,0-0.1,0c0,0,0,0,0,0.1l-0.1,1l0,0c0,0,0,0,0,0.1c0,0,0,0,0,0c0,0,0,0,0,0c0,0,0,0,0,0l0,0
			c0,0,0,0,0,0c0,0,0,0,0,0l-0.3,0c0,0,0,0,0,0c0,0,0,0,0,0l0-0.1l0,0l0,0l0-0.1c0,0,0,0,0,0l0.1-0.9c0,0,0,0,0,0c0,0,0,0,0,0
			c0,0,0,0,0-0.1c0-0.1,0.1-0.1,0.2-0.2c0.1,0,0.2-0.1,0.3,0c0.1,0,0.2,0.1,0.3,0.1s0.1,0.1,0.1,0.2L24.3,49.2
			C24.3,49.1,24.3,49.1,24.3,49.2C24.3,49.1,24.3,49.1,24.3,49.2L24.3,49.2z M24.6,48.7l0.4,0l0,0.2c0,0.1,0,0.1,0,0.1
			s0.1,0.1,0.1,0.1l0,0l0,0c0,0,0.1,0.1,0.1,0.1s0.1,0.1,0.1,0.2l0,0.3c0,0.1-0.1,0.3-0.1,0.3c-0.1,0.1-0.2,0.1-0.3,0.1l0,0h0h0h0
			c-0.1,0-0.1,0-0.2,0c-0.1,0-0.1-0.1-0.2-0.1c-0.1-0.1-0.1-0.2-0.1-0.3l0-0.2l0.4,0l0,0.3c0,0,0,0.1,0,0.1c0,0,0,0,0.1,0
			c0,0,0,0,0.1,0c0,0,0-0.1,0-0.1l0-0.1l0-0.1l0-0.1l0-0.1c0-0.1,0-0.1-0.1-0.2s-0.1-0.1-0.1-0.1c0,0-0.1,0-0.1,0c0,0,0,0-0.1-0.1
			c0,0-0.1-0.1-0.1-0.2L24.6,48.7L24.6,48.7z M25.9,48.8C25.9,48.8,26,48.8,25.9,48.8l0.2,0l0,0l0,0l0,0l0,0c0,0,0.1,0,0.1,0
			c0,0,0.1,0,0.1,0l0,0.2c0,0,0,0-0.1,0c0,0,0,0,0,0c0,0-0.1,0-0.1,0c0,0-0.1,0-0.1,0c0,0,0,0,0,0c0,0,0,0,0,0l0,0l0,0l0,0l0,0l0,0
			l0,0h0c0,0,0,0,0,0c0,0,0,0,0,0l0,0v0l0,0.4l0,0l0,0c0,0,0.1,0,0.1-0.1c0,0,0,0,0,0c0,0,0,0,0.1,0c0.1,0,0.2,0,0.3,0.1
			c0.1,0.1,0.1,0.2,0.1,0.3c0,0.1,0,0.2-0.1,0.3c-0.1,0.1-0.2,0.1-0.3,0.1c-0.1,0-0.2,0-0.3-0.1s-0.1-0.2-0.1-0.3l0-0.8
			c0-0.1,0.1-0.2,0.1-0.2C25.7,48.8,25.8,48.8,25.9,48.8L25.9,48.8z M26.1,49.7C26.1,49.7,26.1,49.7,26.1,49.7
			c-0.1-0.1-0.1-0.1-0.1-0.1h0c0,0,0,0-0.1,0c0,0,0,0,0,0.1l0,0.3c0,0,0,0.1,0,0.1c0,0,0,0,0.1,0h0c0,0,0.1,0,0.1,0c0,0,0,0,0-0.1
			L26.1,49.7L26.1,49.7z M27,48.7c0.1,0,0.1,0,0.2,0s0.1,0,0.1,0.1c0,0,0.1-0.1,0.1-0.1c0,0,0.1,0,0.2-0.1c0.1,0,0.3,0,0.3,0.1
			S28,49,28,49.1l0.1,0.9v0l0,0l0,0v0l0,0c0,0,0,0,0,0.1c0,0,0,0,0,0.1l0,0l-0.4,0c0,0,0,0,0,0c0,0,0,0,0,0l0,0l0,0l0-0.1l-0.1-1
			c0,0,0-0.1,0-0.1c0,0,0,0-0.1,0h0c0,0,0,0-0.1,0c0,0,0,0.1,0,0.1l0.1,0.5l-0.3,0L27.1,49c0,0,0-0.1,0-0.1c0,0-0.1,0-0.1,0h0
			c0,0,0,0-0.1,0c0,0,0,0.1,0,0.1l0.1,1c0,0,0,0.1,0,0.1l0,0l0,0l0,0l0,0l0,0l-0.3,0c0,0,0,0,0,0c0,0,0,0,0,0l0,0l0,0c0,0,0,0,0,0
			l-0.1-0.9c0-0.1,0-0.3,0.1-0.4S26.9,48.7,27,48.7L27,48.7z M28.5,48.5l-0.3,0.1l0.1,0.3l0.3-0.1l0.1,0.3c-0.1,0-0.2,0.1-0.2,0.2
			c0,0.1-0.1,0.2,0,0.3c0,0.1,0,0.1,0.1,0.2c0,0,0.1,0.1,0.2,0.1c0.1,0.1,0.2,0.1,0.4,0c0.1,0,0.3-0.1,0.3-0.2
			c0.1-0.1,0.1-0.2,0.1-0.4c0-0.1-0.1-0.2-0.1-0.3c-0.1-0.1-0.2-0.1-0.3-0.1l-0.1-0.5l-0.3,0.1L28.5,48.5L28.5,48.5z M28.8,49.3
			c0.1,0,0.1,0,0.1,0.1c0,0,0.1,0.1,0.1,0.2v0c0,0,0,0.1,0,0.1c0,0,0,0.1,0,0.1c0,0.1-0.1,0.1-0.1,0.1c-0.1,0-0.1,0-0.1-0.1
			s-0.1-0.1-0.1-0.2l0,0c0,0,0-0.1,0-0.1c0,0,0-0.1,0-0.1C28.7,49.4,28.7,49.3,28.8,49.3L28.8,49.3z M29.4,48.3l0.4-0.1l0,0.2
			c0,0.1,0,0.1,0.1,0.1s0.1,0.1,0.1,0.1l0,0l0,0c0.1,0,0.1,0,0.2,0.1c0.1,0,0.1,0.1,0.1,0.2l0.1,0.3c0,0.1,0,0.3-0.1,0.4
			c-0.1,0.1-0.2,0.2-0.3,0.2l0,0l0,0h0h0c-0.1,0-0.1,0-0.2,0c-0.1,0-0.1,0-0.2-0.1c-0.1-0.1-0.2-0.2-0.2-0.3l0-0.2l0.4-0.1l0.1,0.3
			c0,0,0,0.1,0,0.1c0,0,0,0,0.1,0c0,0,0,0,0.1,0s0-0.1,0-0.1l0-0.1l0-0.1l0-0.1l0-0.1c0-0.1,0-0.1-0.1-0.2c0,0-0.1,0-0.2-0.1
			c0,0-0.1,0-0.1,0c0,0-0.1,0-0.1,0c-0.1,0-0.1-0.1-0.1-0.2L29.4,48.3z"/>
		
			<path fill-rule="evenodd" clip-rule="evenodd" fill="#FFFFFF" stroke="#FFFFFF" stroke-width="3.187400e-02" stroke-miterlimit="22.9256" d="
			M31,49.4C31,49.4,31,49.4,31,49.4c0,0.1,0,0.1,0,0.1l0,0.1l0,0.1v0l0,0l-0.2,0.1l0.1-0.1l0,0l0,0c0,0-0.1,0-0.1,0s0,0-0.1-0.1
			c0,0,0-0.1,0-0.1c0,0,0.1-0.1,0.1-0.1c0,0,0.1,0,0.1,0C31,49.2,31,49.3,31,49.4L31,49.4z M31.4,47.8l0.4,1.2c0,0,0,0,0.1,0.1
			s0.1,0,0.1,0c0,0,0,0,0.1-0.1c0,0,0-0.1,0-0.1l-0.1-0.3c0,0,0,0,0-0.1c0,0,0,0,0,0c0,0,0-0.1-0.1-0.1l0,0l0,0l0.3-0.1
			c0,0,0,0.1,0.1,0.1l0.1,0.1c0,0,0,0,0,0l0,0c0,0,0,0,0,0s0,0,0,0l0,0.1c0,0.1,0,0.2,0,0.3c0,0.1-0.1,0.2-0.3,0.2
			c-0.1,0.1-0.3,0.1-0.4,0c-0.1,0-0.2-0.1-0.3-0.2L31,47.9L31.4,47.8L31.4,47.8z M32.5,47.4c-0.1,0.1-0.2,0.2-0.3,0.3
			c0,0.1,0,0.2,0,0.4l0.4,0.8c0,0,0,0,0,0l0,0l0,0c0,0,0,0,0,0c0,0,0,0,0,0l0.3-0.2l0,0l0,0l0,0l0,0l0,0c0,0,0,0,0-0.1l-0.5-0.9
			c0,0,0-0.1,0-0.1c0,0,0,0,0-0.1l0,0c0,0,0.1,0,0.1,0c0,0,0,0,0.1,0.1l0.2,0.4l0.3-0.1L33,47.5c0,0,0-0.1,0-0.1c0,0,0,0,0-0.1l0,0
			c0,0,0,0,0.1,0c0,0,0,0,0.1,0.1l0.5,0.9l0,0.1l0,0l0,0c0,0,0,0,0,0c0,0,0,0,0,0l0.3-0.2l0,0c0,0,0,0,0-0.1c0,0,0,0,0-0.1l0,0l0,0
			l0,0l0,0l0,0l-0.4-0.8c-0.1-0.1-0.1-0.2-0.3-0.3c-0.1-0.1-0.2-0.1-0.4,0c-0.1,0-0.1,0.1-0.2,0.1c0,0-0.1,0.1-0.1,0.1
			c0,0-0.1,0-0.1,0C32.6,47.3,32.5,47.4,32.5,47.4L32.5,47.4z M33.8,46.7c0,0,0.1-0.1,0.1-0.1c0,0,0.1,0,0.1,0c0,0,0-0.1,0-0.1
			c0,0,0.1-0.1,0.1-0.1c0.1,0,0.1-0.1,0.1-0.1c0,0,0.1,0,0.1,0c0,0,0-0.1,0-0.1c0,0,0.1-0.1,0.1-0.1c0.1-0.1,0.2-0.1,0.2-0.1
			s0.1,0,0.2,0.1c0,0,0,0,0.1,0c0,0,0,0,0,0.1l0.2,0.3L35,46.8l-0.2-0.3c0,0,0,0,0,0c0,0,0,0-0.1,0l0,0c0,0,0,0,0,0c0,0,0,0,0,0.1
			l0.1,0.2l-0.3,0.2l-0.1-0.2c0,0,0,0,0,0c0,0,0,0-0.1,0l0,0c0,0,0,0,0,0c0,0,0,0,0,0.1l0.1,0.2l-0.3,0.2L34,46.9c0,0,0,0,0,0
			c0,0,0,0-0.1,0l0,0l0,0c0,0,0,0,0,0c0,0,0,0,0,0.1l0.2,0.3c0,0.1,0.1,0.1,0.2,0.1c0.1,0,0.2,0,0.2,0c0.1,0,0.1,0,0.1,0
			c0,0,0.1,0,0.1,0l0.3-0.2c0.1-0.1,0.2-0.1,0.3-0.1c0.1,0,0.2,0.1,0.2,0.1l0.1,0.2l-0.3,0.2l0-0.1c0-0.1-0.1-0.1-0.2-0.1
			c-0.1,0-0.2,0-0.2,0l-0.1,0l-0.1,0L34.1,48L34,47.8l0.2-0.1c0,0-0.1,0-0.1,0c0,0-0.1,0-0.1-0.1c0,0,0,0,0,0c0,0,0,0,0,0
			c0,0,0,0,0,0c0,0,0,0,0,0l-0.1-0.2v0l0,0l0-0.1c0,0,0,0,0,0c0,0,0,0,0,0c0-0.1,0-0.1,0-0.2S33.7,46.8,33.8,46.7L33.8,46.7z
			 M36.1,45.8C36,45.8,36,45.8,36.1,45.8C36,45.8,36,45.8,36.1,45.8L36.1,45.8c-0.2-0.1-0.2-0.2-0.3-0.2c-0.1,0-0.2,0-0.3,0.1
			c-0.1,0.1-0.2,0.2-0.2,0.2c0,0.1,0,0.2,0,0.2c0,0,0,0.1,0,0.1c0,0,0,0,0,0c0,0,0,0,0,0l0.5,0.7c0,0,0,0,0,0l0,0l0,0l0,0l0,0
			c0,0,0,0,0,0c0,0,0,0,0,0l0.3-0.2c0,0,0,0,0,0c0,0,0,0,0,0l0,0c0,0,0,0,0,0c0,0,0,0,0,0c0,0,0,0,0,0c0,0,0,0,0,0l0,0l-0.6-0.8
			c0,0,0-0.1,0-0.1c0,0,0-0.1,0-0.1c0,0,0,0,0.1,0c0,0,0.1,0,0.1,0.1l0.6,0.8l0,0l0,0.1c0,0,0,0,0,0.1c0,0,0,0,0,0.1l0.3-0.2
			c0,0,0,0,0,0l0,0l0,0l0,0l0-0.1l0,0L36.1,45.8L36.1,45.8z M36.5,45.1c0,0,0-0.1,0.1-0.1c0,0,0-0.1,0-0.1c0,0,0,0,0.1-0.1l0,0l0,0
			c0.1-0.1,0.2-0.1,0.3-0.1c0.1,0,0.2,0,0.3,0.2c0.1,0.1,0.1,0.2,0.1,0.3s-0.1,0.2-0.2,0.3c-0.1,0.1-0.2,0.1-0.3,0.1
			c-0.1,0-0.2-0.1-0.3-0.2l0,0l0,0l0,0c0,0,0,0,0,0l0,0l0,0c0,0,0,0-0.1,0c0,0,0,0-0.1,0l0,0l0,0c0,0,0,0,0,0.1c0,0,0,0.1,0,0.1
			l0.2,0.2c0.1,0.1,0.2,0.1,0.3,0.1c0.1,0,0.2-0.1,0.4-0.2c0.1-0.1,0.2-0.1,0.3-0.2s0.2,0,0.3,0.1l0.1,0.1L37.7,46l-0.1-0.1
			c-0.1-0.1-0.1-0.1-0.2,0c-0.1,0-0.2,0.1-0.2,0.2l-0.4,0.4l-0.1-0.2l0.2-0.1c0,0,0,0-0.1,0c0,0-0.1,0-0.1,0c0,0-0.1,0-0.1,0
			c0,0-0.1,0-0.1-0.1l0,0l0,0l-0.2-0.2c-0.1-0.1-0.1-0.2-0.1-0.3c0-0.1,0-0.1,0.1-0.2c0,0,0.1-0.1,0.1-0.1l0,0l0,0c0,0,0,0,0,0l0,0
			C36.4,45.1,36.4,45.1,36.5,45.1L36.5,45.1L36.5,45.1L36.5,45.1L36.5,45.1L36.5,45.1L36.5,45.1z M37,44.9
			C37,44.9,36.9,44.9,37,44.9c-0.1,0-0.1,0-0.2,0c0,0,0,0,0,0.1c0,0,0,0.1,0,0.1l0.2,0.2c0,0,0.1,0.1,0.1,0.1c0,0,0.1,0,0.1,0
			c0,0,0,0,0-0.1c0,0,0-0.1,0-0.1L37,44.9L37,44.9z M37.2,44.3l0.1,0.1c0.1,0.1,0.1,0.1,0.2,0.1c0,0,0.1,0,0.1,0c0,0,0.1,0,0.1,0
			c0.1,0,0.1,0,0.2,0s0.1,0,0.2,0.1l0.1,0.1l0.1,0.1l0.1,0.1l0.1,0.1c0,0,0,0.1,0,0.1c0,0,0,0.1,0,0.1c0,0,0,0-0.1,0
			c0,0-0.1,0-0.1,0L38,44.8L37.7,45l0.2,0.2c0.1,0.1,0.2,0.1,0.3,0.1c0.1,0,0.1,0,0.2,0c0.1,0,0.1-0.1,0.1-0.1l0,0l0,0l0,0l0,0
			c0.1-0.1,0.1-0.2,0.1-0.3s0-0.2-0.1-0.3l-0.2-0.2c-0.1-0.1-0.1-0.1-0.2-0.1s-0.1,0-0.2,0l0,0l0,0c-0.1,0-0.1,0-0.2,0
			c-0.1,0-0.1,0-0.1-0.1L37.5,44L37.2,44.3L37.2,44.3z M38.7,42.7l0.1,0.1c0,0,0,0.1,0.1,0.1c0,0,0,0.1,0,0.1l0,0.1l0,0.1
			c0,0,0,0,0,0.1c0,0,0,0,0,0.1c0,0,0,0.1-0.1,0.2c0,0.1-0.1,0.1-0.1,0.2s0,0.1,0,0.1c0,0,0,0,0,0c0,0,0,0,0,0c0,0,0,0,0,0
			c0,0,0.1-0.1,0.1-0.1s0.1,0,0.1,0c0-0.1,0-0.1,0-0.2c0,0,0.1-0.1,0.1-0.2c0.1-0.1,0.2-0.2,0.3-0.2c0.1,0,0.2,0,0.2,0.1l0.3,0.2
			l0.1,0c0,0,0,0,0,0c0,0,0,0,0,0c0,0,0,0,0,0c0,0,0,0,0,0c0,0,0,0,0,0l-0.2,0.3c0,0,0,0,0,0c0,0,0,0,0,0l0,0l0,0l0,0l-0.3-0.2
			c0,0-0.1,0-0.1,0c0,0,0,0-0.1,0l0,0c0,0,0,0,0,0.1c0,0,0,0.1,0,0.1l0.2,0.1l-0.2,0.3l-0.2-0.1c0,0-0.1,0-0.1,0c0,0,0,0,0,0
			s0,0,0,0l0,0l0,0c0,0,0,0,0,0.1c0,0,0,0,0,0.1l0.3,0.2l0,0l0,0c0,0,0,0,0,0c0,0,0,0,0,0c0,0,0,0,0,0c0,0,0,0,0,0L39,44.7l0,0l0,0
			l0,0l0,0c0,0,0,0-0.1,0c0,0,0,0-0.1,0l-0.3-0.3c-0.1,0-0.1-0.1-0.1-0.1c0,0,0-0.1,0-0.2c0-0.1,0-0.2,0-0.3c0,0,0-0.1,0-0.1l0-0.1
			l0,0l0,0c0-0.1,0.1-0.1,0.1-0.2c0-0.1,0-0.1,0-0.2L38.4,43L38.7,42.7L38.7,42.7z M39.1,42.2C39,42.3,39,42.4,39,42.5
			c0,0.1,0.1,0.2,0.2,0.3l0.7,0.5c0,0,0,0,0,0l0,0l0.1,0c0,0,0,0,0,0s0,0,0,0l0.2-0.3l0,0l0,0l0,0l0,0l0,0c0,0,0,0-0.1,0l-0.9-0.6
			c0,0-0.1,0-0.1-0.1c0,0,0-0.1,0-0.1l0,0c0,0,0,0,0.1,0c0,0,0.1,0,0.1,0l0.4,0.3l0.2-0.3L39.6,42c0,0-0.1,0-0.1-0.1
			c0,0,0-0.1,0-0.1l0,0c0,0,0,0,0.1,0c0,0,0.1,0,0.1,0l0.9,0.6l0.1,0l0,0l0,0c0,0,0,0,0,0c0,0,0,0,0,0l0.2-0.3l0,0c0,0,0,0,0-0.1
			c0,0,0,0,0,0l0,0l0,0l0,0l0,0l0,0l-0.7-0.5c-0.1-0.1-0.2-0.1-0.4-0.1c-0.1,0-0.2,0.1-0.3,0.2c0,0.1-0.1,0.1-0.1,0.2
			c0,0,0,0.1,0,0.1c0,0-0.1,0-0.1,0C39.2,42.1,39.1,42.1,39.1,42.2L39.1,42.2z M39.9,41L40,41l0.1-0.3l0.5,0.3
			c0.1-0.1,0.2-0.2,0.2-0.2c0.1,0,0.2,0,0.3,0.1c0.1,0.1,0.2,0.2,0.2,0.3c0,0.1,0,0.2-0.1,0.4c-0.1,0.1-0.2,0.2-0.3,0.3
			c-0.1,0-0.1,0-0.2,0c-0.1,0-0.1,0-0.2-0.1c-0.1,0-0.2-0.1-0.2-0.2c0-0.1,0-0.2,0-0.3l-0.3-0.2L40,41.4l-0.3-0.2L39.9,41L39.9,41z
			 M40.7,41.3c0,0,0.1-0.1,0.1-0.1s0.1,0,0.2,0l0,0c0,0,0,0,0.1,0s0,0,0.1,0.1c0,0,0,0.1,0,0.1c0,0.1-0.1,0.1-0.1,0.1
			c-0.1,0-0.1,0-0.2,0l0,0c0,0,0,0-0.1-0.1s0,0,0-0.1C40.7,41.4,40.7,41.3,40.7,41.3L40.7,41.3z M40.3,40.1l0.2,0.1
			c0.1,0,0.1,0,0.2,0c0,0,0.1,0,0.1,0c0,0,0,0,0.1,0c0.1,0,0.1-0.1,0.2-0.1c0.1,0,0.1,0,0.2,0l0.1,0.1l0.1,0l0.1,0l0.1,0.1
			c0,0,0.1,0,0.1,0.1c0,0,0,0.1,0,0.1c0,0,0,0-0.1,0c0,0-0.1,0-0.1,0l-0.3-0.1l-0.2,0.3l0.2,0.1c0.1,0.1,0.3,0.1,0.4,0
			c0.1,0,0.1-0.1,0.2-0.1c0,0,0.1-0.1,0.1-0.1l0,0v0l0,0l0,0c0-0.1,0-0.2,0-0.3c0-0.1-0.1-0.2-0.2-0.3l-0.3-0.1c-0.1,0-0.1,0-0.2,0
			c-0.1,0-0.1,0-0.2,0.1l0,0l0,0c0,0-0.1,0.1-0.1,0.1c0,0-0.1,0-0.1,0l-0.2-0.1L40.3,40.1z"/>
	</g>
</g>
</svg>
