<?xml version="1.0" encoding="utf-8"?>
<!-- Generator: Adobe Illustrator 16.0.0, SVG Export Plug-In . SVG Version: 6.00 Build 0)  -->
<!DOCTYPE svg PUBLIC "-//W3C//DTD SVG 1.1//EN" "http://www.w3.org/Graphics/SVG/1.1/DTD/svg11.dtd">
<svg version="1.1" id="Layer_1" xmlns="http://www.w3.org/2000/svg" xmlns:xlink="http://www.w3.org/1999/xlink" x="0px" y="0px"
	 width="45.2px" height="54.5px" viewBox="0 0 45.2 54.5" enable-background="new 0 0 45.2 54.5" xml:space="preserve">
<g>
	<path fill-rule="evenodd" clip-rule="evenodd" fill="#367AB3" d="M7.7,38.5c-0.9-0.9-2.2-5.2-2.4-7c-0.3-3.2,0.1-5.1,1.3-7.7
		c2.1-4.8,3.3-6.8,2.4-12.1C8.5,9.3,7.7,7,6.6,7.2c-1,0.2,0,3-0.9,5c-0.9,2-2,4.2-2.9,6.3c-2.3,5.3-3.6,9-1.7,15.2
		C1.8,36,2.8,38.4,4,40.2c1.1,1.6,1.9,2.5,3.5,3.6c1.4,1,1.7,4.8,4.7,6.9c2.5,1.8,4.8,1.3,6.3-1.1c0.6-1,0.8-2.6,0.6-4
		c-0.6-3.4-4.4-5.2-5.7-8.2c-1.9-4.5-1.4-8.8-3.2-10.7c-0.7-0.9-3.7-2.3-3.6-0.2L7,29C7.3,31.2,8.6,37.2,7.7,38.5 M7.3,41.5
		c-0.9-0.3-1.9-1.8-2.4-2.6c-1.8-2.9-3.2-7.8-3-11.3c0.2-2.9,1.1-5.3,2-7.7c0.4-1.1,2.5-5.7,3.4-6.1c0.3,1.8-1.4,5.9-2,7.5
		c-2.1,5.2-2.4,9.3-0.4,14.6C5.6,37.6,7.3,40.6,7.3,41.5z M16.6,49.1c-2.5,2.7-6-2.6-6.8-6.1c-0.5-2.2,0-4.7-0.2-6.9
		c-0.2-1.9-0.7-4.7-0.6-6.4c0.9-0.1,1,1,1.3,2.3c1,4.1,1,6.9,4.1,10.2C15.9,43.7,18.5,47,16.6,49.1z"/>
	<path fill-rule="evenodd" clip-rule="evenodd" fill="#367AB3" d="M37.7,38.5c0.9-0.9,2.2-5.2,2.4-7c0.3-3.2-0.1-5.1-1.3-7.7
		c-2.1-4.8-3.3-6.8-2.4-12.1c0.4-2.4,1.2-4.7,2.3-4.5c1,0.2,0,3,0.9,5c0.9,2,2,4.2,2.9,6.3c2.3,5.3,3.6,9,1.7,15.2
		c-0.7,2.3-1.7,4.7-2.9,6.5c-1.1,1.6-1.9,2.5-3.5,3.6c-1.4,1-1.7,4.8-4.7,6.9c-2.5,1.8-4.8,1.3-6.3-1.1c-0.6-1-0.8-2.6-0.6-4
		c0.6-3.4,4.4-5.2,5.7-8.2c1.9-4.5,1.4-8.8,3.2-10.7c0.7-0.9,3.7-2.3,3.6-0.2L38.4,29C38.1,31.2,36.8,37.2,37.7,38.5 M38,41.5
		c0.9-0.3,1.9-1.8,2.4-2.6c1.8-2.9,3.2-7.8,3-11.3c-0.2-2.9-1.1-5.3-2-7.7c-0.4-1.1-2.5-5.7-3.4-6.1c-0.3,1.8,1.4,5.9,2,7.5
		c2.1,5.2,2.4,9.3,0.4,14.6C39.8,37.6,38.1,40.6,38,41.5z M28.8,49.1c2.5,2.7,6-2.6,6.8-6.1c0.5-2.2,0-4.7,0.2-6.9
		c0.2-1.9,0.7-4.7,0.6-6.4c-0.9-0.1-1,1-1.3,2.3c-1,4.1-1,6.9-4.1,10.2C29.5,43.7,26.9,47,28.8,49.1z"/>
	<path fill-rule="evenodd" clip-rule="evenodd" fill="#367AB3" d="M22.6,19.5C19.8,19.1,20.3,4.8,17.3,2c-0.6-0.6-0.6-0.1-0.5,0.4
		c0.1,2.2,1.2,8.7,1.4,10.2c0.3,2.2,1.2,9.1,1.3,11c0.3,6.3-0.8,12.7-1.3,19l1.8,2c0.3-3.7,1.1-8.5,1.5-12.4
		c0.1-0.8,0.1-3.4,1.2-3.4c1.1,0,1.1,2.6,1.2,3.4c0.4,3.9,1.2,8.7,1.5,12.4l1.8-2c-0.5-6.3-1.5-12.7-1.3-19c0.1-1.9,1-8.7,1.3-11
		c0.2-1.5,1.3-8.1,1.4-10.2c0-0.5,0.1-0.9-0.5-0.4C25.1,4.8,25.6,19.1,22.6,19.5C22.7,19.5,22.7,19.5,22.6,19.5"/>
	<path fill-rule="evenodd" clip-rule="evenodd" fill="#367AB3" d="M22.7,12.3c0.7,0,1.3,1.2,1.3,2.8c0,1.5-0.6,2.8-1.3,2.8
		c-0.7,0-1.3-1.2-1.3-2.8C21.4,13.5,22,12.3,22.7,12.3"/>
</g>
</svg>
