<?xml version="1.0" encoding="utf-8"?>
<!-- Generator: Adobe Illustrator 16.0.0, SVG Export Plug-In . SVG Version: 6.00 Build 0)  -->
<!DOCTYPE svg PUBLIC "-//W3C//DTD SVG 1.1//EN" "http://www.w3.org/Graphics/SVG/1.1/DTD/svg11.dtd">
<svg version="1.1" id="Layer_1" xmlns="http://www.w3.org/2000/svg" xmlns:xlink="http://www.w3.org/1999/xlink" x="0px" y="0px"
	 width="78.8px" height="54.5px" viewBox="0 0 78.8 54.5" enable-background="new 0 0 78.8 54.5" xml:space="preserve">
<g>
	<g>
		<path fill="#0C2747" d="M1.5,39.9c0.4-0.5,1-0.8,1.6-0.8c0.1,0,0.2,0,0.3,0s0.2,0,0.3,0.1c0.1,0,0.2,0.1,0.2,0.1c0,0,0,0,0,0
			c0.1,0,0.2-0.1,0.2-0.2h0.2l-0.3,1.3l-0.2,0c0-0.1,0-0.1,0-0.2c0-0.2-0.1-0.4-0.2-0.5s-0.2-0.2-0.4-0.3c-0.1,0-0.1,0-0.1,0
			c-0.1,0-0.2,0-0.4,0.1s-0.2,0.1-0.4,0.3c-0.1,0.1-0.2,0.3-0.3,0.5S2,40.6,1.9,40.8c-0.1,0.3-0.1,0.5-0.1,0.9c0,0.2,0,0.3,0,0.4
			c0,0.1,0.1,0.2,0.1,0.3s0.1,0.1,0.2,0.2c0.1,0,0.2,0.1,0.3,0.1c0.2,0,0.3,0,0.5-0.1s0.3-0.1,0.4-0.2s0.2-0.2,0.4-0.3l0.2,0.1
			c-0.2,0.2-0.4,0.4-0.6,0.6c-0.2,0.1-0.5,0.2-0.8,0.2c-0.2,0-0.4,0-0.6-0.1c-0.2-0.1-0.4-0.2-0.5-0.3C1.1,42.4,1,42.2,1,42
			c0-0.1-0.1-0.3-0.1-0.5c0-0.3,0.1-0.6,0.2-0.9C1.2,40.4,1.3,40.1,1.5,39.9L1.5,39.9z M4.7,41.1c-0.1,0.2-0.2,0.3-0.3,0.5
			s-0.1,0.4-0.1,0.5c0,0.1,0,0.2,0.1,0.3c0.1,0.2,0.2,0.3,0.3,0.4c0.1,0.1,0.3,0.1,0.5,0.1c0.4,0,0.7-0.2,1-0.7L6,42.1
			c-0.1,0.2-0.2,0.3-0.3,0.4c-0.1,0.1-0.2,0.1-0.3,0.1c-0.2,0-0.3-0.2-0.3-0.4c0-0.1,0-0.2,0-0.3c0.3,0,0.5-0.1,0.7-0.2
			s0.4-0.2,0.5-0.4c0.1-0.1,0.2-0.3,0.2-0.4c0-0.1,0-0.2-0.1-0.2s-0.1-0.1-0.2-0.2c-0.1,0-0.2-0.1-0.3-0.1c-0.2,0-0.4,0.1-0.7,0.2
			C5,40.7,4.8,40.9,4.7,41.1L4.7,41.1z M5.9,40.6c0,0,0.1,0.1,0.1,0.2c0,0.2-0.1,0.4-0.2,0.6c-0.2,0.2-0.4,0.3-0.6,0.3
			c0,0,0-0.1,0.1-0.2c0-0.1,0.1-0.3,0.2-0.4c0.1-0.2,0.1-0.3,0.2-0.3C5.6,40.6,5.7,40.5,5.9,40.6C5.8,40.5,5.9,40.6,5.9,40.6
			L5.9,40.6z M7.7,41.4C7.8,41.2,7.9,41,8,40.9c0.1-0.1,0.2-0.2,0.3-0.3c0.1-0.1,0.3-0.2,0.5-0.2c0.3,0,0.4,0.1,0.4,0.4
			c0,0.1,0,0.2,0,0.3c0,0.2-0.1,0.4-0.2,0.7c-0.1,0.3-0.2,0.5-0.2,0.6c0,0,0,0,0,0s0,0,0,0c0,0,0,0.1,0,0.1c0,0,0,0,0,0
			c0.1,0,0.1-0.1,0.2-0.1s0.1-0.1,0.2-0.3l0.1,0.1c-0.1,0.3-0.3,0.4-0.4,0.6s-0.3,0.2-0.4,0.2c-0.2,0-0.4-0.1-0.4-0.4
			c0-0.1,0-0.2,0-0.3c0-0.1,0-0.2,0.1-0.3c0-0.1,0.1-0.2,0.1-0.3s0.1-0.2,0.1-0.3c0,0,0-0.1,0.1-0.2c0-0.1,0.1-0.2,0.1-0.2
			c0,0,0-0.1,0-0.1c0,0,0-0.1-0.1-0.1c-0.1,0-0.2,0-0.3,0.1S8,41.1,7.9,41.2c0,0.1-0.1,0.2-0.2,0.3c-0.1,0.2-0.1,0.3-0.2,0.6
			c-0.1,0.2-0.1,0.5-0.2,0.7H6.6L7.2,41c0-0.1,0-0.1,0-0.2c0-0.1,0-0.1-0.1-0.1c0,0-0.1,0-0.2,0v-0.1c0.3,0,0.7-0.1,1.1-0.1
			L7.7,41.4L7.7,41.4L7.7,41.4z M9.8,41.6l0.3-0.9H9.8v-0.2c0.1,0,0.3-0.1,0.4-0.2c0.1-0.1,0.2-0.2,0.3-0.3c0.1-0.1,0.2-0.2,0.3-0.3
			H11l-0.2,0.8h0.4v0.2h-0.4l-0.4,1.5c0,0.1-0.1,0.2-0.1,0.3c0,0,0,0.1,0,0.1c0,0,0,0,0,0c0.1,0,0.1-0.1,0.2-0.1s0.1-0.2,0.2-0.3
			l0.1,0.1c-0.1,0.1-0.2,0.3-0.3,0.4s-0.2,0.2-0.3,0.3c-0.1,0.1-0.2,0.1-0.3,0.1c-0.1,0-0.2,0-0.3-0.1c-0.1-0.1-0.1-0.1-0.1-0.2
			c0-0.1,0-0.2,0-0.3c0-0.1,0.1-0.2,0.1-0.4C9.8,41.7,9.8,41.7,9.8,41.6L9.8,41.6z M11.5,41.1c-0.1,0.2-0.2,0.3-0.3,0.5
			s-0.1,0.4-0.1,0.5c0,0.1,0,0.2,0.1,0.3c0.1,0.2,0.2,0.3,0.3,0.4c0.1,0.1,0.3,0.1,0.5,0.1c0.4,0,0.7-0.2,1-0.7l-0.2-0.1
			c-0.1,0.2-0.2,0.3-0.3,0.4s-0.2,0.1-0.3,0.1c-0.2,0-0.3-0.2-0.3-0.4c0-0.1,0-0.2,0-0.3c0.3,0,0.5-0.1,0.7-0.2
			c0.2-0.1,0.4-0.2,0.5-0.4c0.1-0.1,0.2-0.3,0.2-0.4c0-0.1,0-0.2-0.1-0.2c-0.1-0.1-0.1-0.1-0.2-0.2c-0.1,0-0.2-0.1-0.3-0.1
			c-0.2,0-0.4,0.1-0.7,0.2C11.8,40.7,11.7,40.9,11.5,41.1L11.5,41.1z M12.7,40.6c0,0,0.1,0.1,0.1,0.2c0,0.2-0.1,0.4-0.2,0.6
			c-0.2,0.2-0.4,0.3-0.6,0.3c0,0,0-0.1,0.1-0.2c0-0.1,0.1-0.3,0.2-0.4c0.1-0.2,0.2-0.3,0.2-0.3C12.4,40.6,12.5,40.5,12.7,40.6
			C12.6,40.5,12.7,40.6,12.7,40.6L12.7,40.6z M13.9,41.1c0-0.1,0-0.2,0-0.2c0-0.1,0-0.1-0.1-0.1c0,0-0.1,0-0.2,0v-0.2
			c0.2,0,0.3,0,0.4,0s0.2,0,0.3,0s0.2,0,0.3-0.1l-0.3,1h0c0.2-0.3,0.3-0.5,0.4-0.7c0.1-0.2,0.3-0.2,0.4-0.3c0.1,0,0.2,0,0.2,0.1
			c0.1,0.1,0.1,0.2,0.1,0.3c0,0.1,0,0.2-0.1,0.3s-0.1,0.1-0.2,0.1c0,0-0.1,0-0.1,0c0,0-0.1,0-0.1-0.1s-0.1-0.1-0.1-0.1
			c0,0,0,0-0.1,0c-0.1,0.1-0.2,0.2-0.2,0.3c-0.1,0.1-0.1,0.2-0.2,0.4c-0.1,0.1-0.1,0.3-0.1,0.4c0,0.1-0.1,0.4-0.3,0.8h-0.6
			C13.6,42.2,13.7,41.6,13.9,41.1L13.9,41.1z M16.3,43.9c-0.1,0-0.1-0.1-0.2-0.2c0-0.1-0.1-0.1-0.1-0.2c0-0.1,0-0.1,0.1-0.2
			c0.1-0.1,0.1-0.1,0.2-0.1c0.1,0,0.1,0,0.2,0.1c0.1,0.1,0.1,0.1,0.1,0.2c0,0,0,0,0,0.1c0,0,0,0.1-0.1,0.1s0,0.1,0,0.1
			c0,0,0,0.1,0.1,0.1c0.1,0,0.2,0,0.2-0.1c0.1-0.1,0.1-0.2,0.1-0.3S17,43.1,17,43l0.5-2.4h-0.4l0.1-0.2h0.4c0.1-0.2,0.1-0.5,0.2-0.6
			c0.1-0.2,0.2-0.4,0.4-0.5c0.2-0.1,0.4-0.2,0.6-0.2c0.1,0,0.3,0,0.4,0.1c0.1,0.1,0.2,0.2,0.2,0.3c0,0.1,0,0.2-0.1,0.2
			c0,0.1-0.1,0.1-0.2,0.1c-0.1,0-0.1,0-0.2-0.1s-0.1-0.1-0.1-0.2c0,0,0,0,0-0.1s0-0.1,0-0.1c0,0,0,0,0-0.1l0,0c0,0,0,0,0,0
			c0,0,0,0,0,0c-0.1,0-0.2,0.1-0.3,0.2c-0.1,0.2-0.2,0.5-0.3,1h0.5l-0.1,0.2h-0.5c-0.1,0.2-0.1,0.4-0.1,0.6s-0.1,0.4-0.1,0.6
			c0,0.2-0.1,0.4-0.1,0.6c0,0.2-0.1,0.3-0.1,0.5c-0.1,0.4-0.3,0.6-0.4,0.8c-0.2,0.2-0.4,0.3-0.6,0.3C16.5,43.9,16.4,43.9,16.3,43.9
			L16.3,43.9z M19.5,41.3c-0.1,0.4-0.2,0.7-0.2,0.9c0,0.1,0,0.1,0,0.2c0,0.1,0,0.2,0.1,0.2c0,0.1,0.1,0.1,0.2,0.1c0,0,0,0,0.1,0
			c0.1,0,0.3-0.1,0.4-0.3c0.1-0.2,0.2-0.3,0.2-0.5c0.1-0.2,0.1-0.4,0.2-0.6c0-0.2,0.1-0.4,0.1-0.5c0-0.1,0-0.2,0-0.2
			c0-0.1-0.1-0.1-0.1-0.1c-0.2,0-0.3,0.1-0.4,0.2C19.7,40.9,19.6,41.1,19.5,41.3L19.5,41.3z M18.9,41.2c-0.2,0.3-0.2,0.6-0.2,0.9
			c0,0.2,0,0.3,0.1,0.5c0.1,0.1,0.2,0.2,0.3,0.3c0.1,0.1,0.3,0.1,0.4,0.1c0.2,0,0.4,0,0.6-0.1s0.3-0.2,0.5-0.4
			c0.1-0.2,0.2-0.3,0.3-0.5c0.1-0.2,0.1-0.4,0.1-0.6c0-0.2,0-0.3-0.1-0.4c-0.1-0.1-0.2-0.2-0.3-0.3c-0.1-0.1-0.3-0.1-0.4-0.1
			c-0.2,0-0.3,0-0.5,0.1c-0.2,0.1-0.3,0.2-0.4,0.3C19.1,40.9,19,41,18.9,41.2L18.9,41.2z M21.7,41.1c0-0.1,0-0.2,0-0.2
			c0-0.1,0-0.1-0.1-0.1c0,0-0.1,0-0.2,0v-0.2c0.2,0,0.3,0,0.4,0c0.1,0,0.2,0,0.3,0c0.1,0,0.2,0,0.3-0.1l-0.3,1h0
			c0.2-0.3,0.3-0.5,0.4-0.7c0.1-0.2,0.3-0.2,0.4-0.3c0.1,0,0.2,0,0.2,0.1c0.1,0.1,0.1,0.2,0.1,0.3c0,0.1,0,0.2-0.1,0.3
			s-0.1,0.1-0.2,0.1c0,0-0.1,0-0.1,0c0,0-0.1,0-0.1-0.1c0-0.1-0.1-0.1-0.1-0.1c0,0,0,0-0.1,0c-0.1,0.1-0.2,0.2-0.2,0.3
			c-0.1,0.1-0.1,0.2-0.2,0.4c-0.1,0.1-0.1,0.3-0.1,0.4s-0.1,0.4-0.3,0.8h-0.6C21.4,42.2,21.6,41.6,21.7,41.1L21.7,41.1z M25.3,40
			c0-0.1,0-0.2,0.1-0.3c0-0.1,0.1-0.2,0.2-0.3c0.1-0.1,0.2-0.2,0.3-0.2c0.1-0.1,0.3-0.1,0.4-0.1c0.1,0,0.1,0,0.2,0
			c0.1,0,0.1,0,0.2,0.1c0.1,0,0.2,0,0.2,0.1c0.1,0,0.1,0,0.2,0c0.1,0,0.2-0.1,0.2-0.1h0.2l-0.2,1.1l-0.1,0c0-0.3-0.1-0.5-0.2-0.6
			c-0.1-0.2-0.3-0.3-0.5-0.3c-0.2,0-0.3,0.1-0.4,0.2c-0.1,0.1-0.1,0.3-0.1,0.4c0,0.1,0,0.2,0.1,0.3c0.1,0.1,0.2,0.2,0.3,0.3
			c0.2,0.2,0.5,0.4,0.6,0.6c0.2,0.2,0.2,0.4,0.2,0.7c0,0.2-0.1,0.4-0.2,0.6c-0.1,0.2-0.3,0.3-0.4,0.4c-0.2,0.1-0.4,0.1-0.6,0.1
			c-0.2,0-0.4,0-0.6-0.1c-0.1-0.1-0.3-0.1-0.3-0.1c-0.1,0-0.1,0.1-0.2,0.2h-0.2l0.2-1.2l0.1,0c0,0.7,0.3,1,0.8,1c0,0,0.1,0,0.1,0
			c0.1,0,0.2,0,0.3-0.1c0.1-0.1,0.2-0.1,0.2-0.2s0.1-0.2,0.1-0.3c0-0.2-0.1-0.3-0.2-0.4c-0.1-0.1-0.2-0.2-0.4-0.4
			c-0.2-0.2-0.3-0.3-0.4-0.4c-0.1-0.1-0.2-0.2-0.2-0.3c-0.1-0.1-0.1-0.3-0.1-0.4C25.3,40.2,25.3,40.1,25.3,40L25.3,40z M28.6,41.3
			c-0.1,0.4-0.2,0.7-0.2,0.9c0,0.1,0,0.1,0,0.2c0,0.1,0,0.2,0.1,0.2c0,0.1,0.1,0.1,0.2,0.1c0,0,0.1,0,0.1,0c0.1,0,0.3-0.1,0.4-0.3
			c0.1-0.2,0.2-0.3,0.2-0.5c0.1-0.2,0.1-0.4,0.2-0.6c0-0.2,0.1-0.4,0.1-0.5c0-0.1,0-0.2,0-0.2c0-0.1-0.1-0.1-0.1-0.1
			c-0.2,0-0.3,0.1-0.4,0.2C28.7,40.9,28.6,41.1,28.6,41.3L28.6,41.3z M28,41.2c0.1-0.2,0.2-0.3,0.3-0.4c0.1-0.1,0.3-0.2,0.4-0.3
			c0.2-0.1,0.3-0.1,0.5-0.1c0.2,0,0.3,0,0.4,0.1s0.2,0.2,0.3,0.3c0.1,0.1,0.1,0.3,0.1,0.4c0,0.2,0,0.4-0.1,0.6
			c-0.1,0.2-0.2,0.4-0.3,0.5c-0.1,0.2-0.3,0.3-0.5,0.4c-0.2,0.1-0.4,0.1-0.6,0.1c-0.2,0-0.3,0-0.4-0.1c-0.1-0.1-0.2-0.1-0.3-0.3
			s-0.1-0.3-0.1-0.5C27.7,41.8,27.8,41.5,28,41.2L28,41.2z M30.9,40.9c0.1-0.2,0.3-0.3,0.5-0.4c0.2-0.1,0.4-0.1,0.5-0.1
			c0.1,0,0.2,0,0.3,0.1c0.1,0,0.2,0.1,0.2,0.2c0.1,0.1,0.1,0.2,0.1,0.3c0,0.1,0,0.2-0.1,0.3s-0.1,0.1-0.2,0.1
			c-0.1,0-0.2-0.1-0.2-0.1c0,0-0.1-0.1-0.1-0.2c0,0,0-0.1,0.1-0.2c0-0.1,0.1-0.1,0.1-0.2c0-0.1,0-0.1-0.1-0.1
			c-0.1,0-0.2,0.1-0.3,0.2c-0.1,0.1-0.2,0.3-0.3,0.4c-0.1,0.2-0.1,0.3-0.1,0.4c0,0.1-0.1,0.3-0.1,0.5c0,0.3,0.1,0.5,0.4,0.5
			c0.2,0,0.4-0.2,0.6-0.5l0.1,0.1c-0.1,0.2-0.3,0.4-0.5,0.5c-0.2,0.1-0.4,0.2-0.6,0.2c-0.1,0-0.1,0-0.2,0c-0.4-0.1-0.6-0.3-0.6-0.8
			C30.4,41.7,30.6,41.3,30.9,40.9L30.9,40.9z M33.2,41c0,0,0-0.1,0-0.1c0-0.1,0-0.1-0.1-0.1s-0.1,0-0.2,0h-0.1v-0.2
			c0.4,0,0.8-0.1,1.1-0.1l-0.5,1.8c0,0,0,0.1,0,0.1c0,0.1,0,0.1,0,0.1c0,0,0,0,0,0c0,0,0,0,0,0c0,0,0,0,0,0c0.1,0,0.2-0.2,0.4-0.4
			l0.1,0.1c-0.1,0.2-0.2,0.3-0.3,0.4c-0.1,0.1-0.2,0.2-0.3,0.2c-0.1,0-0.2,0.1-0.3,0.1c-0.2,0-0.4-0.1-0.4-0.3c0-0.1,0-0.2,0-0.2
			L33.2,41L33.2,41z M33.8,39.2c0.1,0,0.1,0,0.2,0c0.1,0,0.1,0.1,0.1,0.1c0,0.1,0.1,0.1,0.1,0.2c0,0.1,0,0.2-0.1,0.2
			c-0.1,0.1-0.2,0.1-0.3,0.1c-0.1,0-0.2,0-0.2-0.1c-0.1-0.1-0.1-0.2-0.1-0.2c0-0.1,0-0.2,0.1-0.3C33.6,39.2,33.7,39.2,33.8,39.2
			L33.8,39.2z M34.6,41c0.1-0.2,0.3-0.3,0.4-0.4c0.2-0.1,0.3-0.2,0.5-0.2c0.2,0,0.4,0.1,0.4,0.4h0l0.1-0.3l0.6,0l-0.5,1.7
			c0,0.1,0,0.2-0.1,0.4c0,0,0,0,0,0.1c0,0,0,0,0,0c0,0,0.1,0,0.2-0.1c0.1-0.1,0.1-0.2,0.2-0.3l0.1,0.1c-0.3,0.4-0.6,0.7-0.8,0.7
			c-0.1,0-0.2,0-0.2-0.1c-0.1-0.1-0.1-0.1-0.1-0.2c0,0,0,0,0,0c0,0,0-0.1,0-0.2s0-0.1,0-0.2l0,0c-0.1,0.1-0.2,0.2-0.2,0.3
			c-0.1,0.1-0.2,0.2-0.3,0.2c-0.1,0.1-0.2,0.1-0.3,0.1c-0.2,0-0.3-0.1-0.4-0.2c-0.1-0.1-0.1-0.3-0.1-0.5c0-0.2,0-0.4,0.1-0.6
			S34.5,41.2,34.6,41L34.6,41z M35.7,40.6c-0.1,0-0.1,0-0.2,0.1c-0.1,0.1-0.2,0.2-0.2,0.3c-0.1,0.1-0.1,0.3-0.2,0.4
			c-0.1,0.3-0.2,0.6-0.2,0.8c0,0.2,0.1,0.3,0.2,0.3c0.3,0,0.5-0.3,0.7-0.9c0.1-0.3,0.2-0.5,0.2-0.7C35.9,40.7,35.8,40.6,35.7,40.6
			L35.7,40.6z M37.7,39.7c0-0.1,0-0.1,0-0.2c0-0.1,0-0.1-0.1-0.1c0,0-0.1,0-0.2,0h-0.1v-0.1c0.4,0,0.8-0.1,1.1-0.2l-0.8,3.1
			c0,0,0,0.1,0,0.1c0,0.1,0,0.1,0,0.1c0,0,0,0,0,0c0,0,0,0,0,0s0,0,0,0c0.1,0,0.2-0.2,0.4-0.4l0.1,0.1c-0.1,0.2-0.2,0.3-0.3,0.4
			c-0.1,0.1-0.2,0.2-0.3,0.2c-0.1,0-0.2,0.1-0.3,0.1c-0.2,0-0.4-0.1-0.4-0.3c0-0.1,0-0.2,0-0.2L37.7,39.7L37.7,39.7z M40.3,40
			c0-0.1,0-0.2,0.1-0.3c0-0.1,0.1-0.2,0.2-0.3c0.1-0.1,0.2-0.2,0.3-0.2c0.1-0.1,0.3-0.1,0.4-0.1c0.1,0,0.1,0,0.2,0
			c0.1,0,0.1,0,0.2,0.1s0.2,0,0.2,0.1c0,0,0.1,0,0.2,0c0.1,0,0.2-0.1,0.2-0.1h0.2l-0.2,1.1l-0.1,0c0-0.3-0.1-0.5-0.2-0.6
			c-0.1-0.2-0.3-0.3-0.5-0.3c-0.2,0-0.3,0.1-0.4,0.2c-0.1,0.1-0.1,0.3-0.1,0.4c0,0.1,0,0.2,0.1,0.3c0.1,0.1,0.2,0.2,0.3,0.3
			c0.2,0.2,0.5,0.4,0.6,0.6c0.2,0.2,0.2,0.4,0.2,0.7c0,0.2-0.1,0.4-0.2,0.6c-0.1,0.2-0.3,0.3-0.4,0.4c-0.2,0.1-0.4,0.1-0.6,0.1
			c-0.2,0-0.4,0-0.6-0.1c-0.2-0.1-0.3-0.1-0.3-0.1c-0.1,0-0.1,0.1-0.2,0.2h-0.2l0.2-1.2l0.1,0c0,0.7,0.3,1,0.8,1c0.1,0,0.1,0,0.1,0
			c0.1,0,0.2,0,0.3-0.1s0.2-0.1,0.2-0.2c0-0.1,0.1-0.2,0.1-0.3c0-0.2-0.1-0.3-0.2-0.4c-0.1-0.1-0.2-0.2-0.4-0.4
			c-0.2-0.2-0.3-0.3-0.4-0.4c-0.1-0.1-0.2-0.2-0.2-0.3c-0.1-0.1-0.1-0.3-0.1-0.4C40.3,40.2,40.3,40.1,40.3,40L40.3,40z M43.2,40.9
			c0.1-0.2,0.3-0.3,0.5-0.4c0.2-0.1,0.4-0.1,0.5-0.1c0.1,0,0.2,0,0.3,0.1c0.1,0,0.2,0.1,0.2,0.2c0.1,0.1,0.1,0.2,0.1,0.3
			c0,0.1,0,0.2-0.1,0.3s-0.1,0.1-0.2,0.1c-0.1,0-0.2-0.1-0.2-0.1c0,0-0.1-0.1-0.1-0.2c0,0,0-0.1,0.1-0.2c0-0.1,0.1-0.1,0.1-0.2
			c0-0.1,0-0.1-0.1-0.1c-0.1,0-0.2,0.1-0.3,0.2c-0.1,0.1-0.2,0.3-0.3,0.4c-0.1,0.2-0.1,0.3-0.1,0.4c0,0.1-0.1,0.3-0.1,0.5
			c0,0.3,0.1,0.5,0.4,0.5c0.2,0,0.4-0.2,0.6-0.5l0.1,0.1c-0.1,0.2-0.3,0.4-0.5,0.5c-0.2,0.1-0.4,0.2-0.6,0.2c-0.1,0-0.1,0-0.2,0
			c-0.4-0.1-0.6-0.3-0.6-0.8C42.7,41.7,42.9,41.3,43.2,40.9L43.2,40.9z M45.5,41c0,0,0-0.1,0-0.1c0-0.1,0-0.1-0.1-0.1s-0.1,0-0.2,0
			h-0.1v-0.2c0.4,0,0.8-0.1,1.1-0.1l-0.5,1.8c0,0,0,0.1,0,0.1c0,0.1,0,0.1,0,0.1c0,0,0,0,0,0c0,0,0,0,0,0s0,0,0,0
			c0.1,0,0.2-0.2,0.4-0.4l0.1,0.1c-0.1,0.2-0.2,0.3-0.3,0.4c-0.1,0.1-0.2,0.2-0.3,0.2c-0.1,0-0.2,0.1-0.3,0.1
			c-0.2,0-0.4-0.1-0.4-0.3c0-0.1,0-0.2,0-0.2L45.5,41L45.5,41z M46.1,39.2c0.1,0,0.1,0,0.2,0c0.1,0,0.1,0.1,0.1,0.1
			c0,0.1,0.1,0.1,0.1,0.2c0,0.1,0,0.2-0.1,0.2c-0.1,0.1-0.2,0.1-0.3,0.1s-0.2,0-0.2-0.1c-0.1-0.1-0.1-0.2-0.1-0.2
			c0-0.1,0-0.2,0.1-0.3C45.9,39.2,46,39.2,46.1,39.2L46.1,39.2z M46.9,41.1c0.1-0.2,0.3-0.4,0.5-0.5c0.2-0.1,0.4-0.2,0.7-0.2
			c0.1,0,0.2,0,0.3,0.1c0.1,0,0.2,0.1,0.2,0.2s0.1,0.2,0.1,0.2c0,0.1-0.1,0.3-0.2,0.4c-0.1,0.1-0.3,0.3-0.5,0.4
			c-0.2,0.1-0.5,0.2-0.7,0.2c0,0,0,0.1,0,0.3c0,0.3,0.1,0.4,0.3,0.4c0.1,0,0.2,0,0.3-0.1c0.1-0.1,0.2-0.2,0.3-0.4l0.2,0.1
			c-0.3,0.5-0.6,0.7-1,0.7c-0.2,0-0.3,0-0.5-0.1c-0.1-0.1-0.2-0.2-0.3-0.4c0-0.1,0-0.2-0.1-0.3c0-0.2,0-0.3,0.1-0.5
			S46.8,41.2,46.9,41.1L46.9,41.1z M48.1,40.6C48.1,40.6,48.1,40.5,48.1,40.6c-0.2,0-0.3,0-0.3,0.1c-0.1,0.1-0.2,0.2-0.2,0.3
			c-0.1,0.2-0.1,0.3-0.2,0.4c0,0.1-0.1,0.2-0.1,0.2c0.2-0.1,0.4-0.2,0.6-0.3c0.2-0.2,0.2-0.4,0.2-0.6C48.2,40.7,48.2,40.6,48.1,40.6
			z"/>
		<path fill="#0C2747" d="M49.9,41.4c0.1-0.2,0.2-0.4,0.3-0.5c0.1-0.1,0.2-0.2,0.3-0.3c0.1-0.1,0.3-0.2,0.5-0.2
			c0.3,0,0.4,0.1,0.4,0.4c0,0.1,0,0.2,0,0.3c0,0.2-0.1,0.4-0.2,0.7C51.1,42,51,42.2,51,42.4c0,0,0,0,0,0c0,0,0,0,0,0
			c0,0,0,0.1,0,0.1c0,0,0,0,0,0c0.1,0,0.1-0.1,0.2-0.1c0-0.1,0.1-0.1,0.2-0.3l0.1,0.1c-0.1,0.3-0.3,0.4-0.4,0.6s-0.3,0.2-0.4,0.2
			c-0.2,0-0.4-0.1-0.4-0.4c0-0.1,0-0.2,0-0.3c0-0.1,0-0.2,0.1-0.3c0-0.1,0.1-0.2,0.1-0.3s0.1-0.2,0.1-0.3c0,0,0-0.1,0.1-0.2
			c0-0.1,0.1-0.2,0.1-0.2c0,0,0-0.1,0-0.1c0,0,0-0.1-0.1-0.1c-0.1,0-0.2,0-0.3,0.1s-0.2,0.2-0.3,0.4c0,0.1-0.1,0.2-0.2,0.3
			c-0.1,0.2-0.1,0.3-0.2,0.6c-0.1,0.2-0.1,0.5-0.2,0.7h-0.6l0.5-1.8c0-0.1,0-0.1,0-0.2c0-0.1,0-0.1-0.1-0.1c0,0-0.1,0-0.2,0v-0.1
			c0.3,0,0.7-0.1,1.1-0.1L49.9,41.4L49.9,41.4L49.9,41.4z M52.4,40.9c0.1-0.2,0.3-0.3,0.5-0.4s0.4-0.1,0.5-0.1c0.1,0,0.2,0,0.3,0.1
			c0.1,0,0.2,0.1,0.2,0.2c0.1,0.1,0.1,0.2,0.1,0.3c0,0.1,0,0.2-0.1,0.3c-0.1,0.1-0.1,0.1-0.2,0.1c-0.1,0-0.2-0.1-0.2-0.1
			c0,0-0.1-0.1-0.1-0.2c0,0,0-0.1,0.1-0.2c0-0.1,0.1-0.1,0.1-0.2c0-0.1,0-0.1-0.1-0.1c-0.1,0-0.2,0.1-0.3,0.2
			c-0.1,0.1-0.2,0.3-0.3,0.4c-0.1,0.2-0.1,0.3-0.1,0.4c0,0.1-0.1,0.3-0.1,0.5c0,0.3,0.1,0.5,0.4,0.5c0.2,0,0.4-0.2,0.6-0.5l0.2,0.1
			c-0.1,0.2-0.3,0.4-0.5,0.5s-0.4,0.2-0.6,0.2c-0.1,0-0.1,0-0.2,0c-0.4-0.1-0.6-0.3-0.6-0.8C51.9,41.7,52,41.3,52.4,40.9L52.4,40.9z
			 M54.6,41.1c0.1-0.2,0.3-0.4,0.5-0.5c0.2-0.1,0.4-0.2,0.7-0.2c0.1,0,0.2,0,0.3,0.1c0.1,0,0.2,0.1,0.2,0.2c0.1,0.1,0.1,0.2,0.1,0.2
			c0,0.1-0.1,0.3-0.2,0.4c-0.1,0.1-0.3,0.3-0.5,0.4s-0.5,0.2-0.7,0.2c0,0,0,0.1,0,0.3c0,0.3,0.1,0.4,0.3,0.4c0.1,0,0.2,0,0.3-0.1
			c0.1-0.1,0.2-0.2,0.3-0.4l0.2,0.1c-0.3,0.5-0.6,0.7-1,0.7c-0.2,0-0.3,0-0.5-0.1c-0.1-0.1-0.2-0.2-0.3-0.4c0-0.1,0-0.2-0.1-0.3
			c0-0.2,0-0.3,0.1-0.5S54.5,41.2,54.6,41.1L54.6,41.1z M55.8,40.6C55.8,40.6,55.8,40.5,55.8,40.6c-0.2,0-0.3,0-0.3,0.1
			c-0.1,0.1-0.2,0.2-0.2,0.3c-0.1,0.2-0.1,0.3-0.2,0.4c0,0.1-0.1,0.2-0.1,0.2c0.2-0.1,0.4-0.2,0.6-0.3c0.2-0.2,0.2-0.4,0.2-0.6
			C55.9,40.7,55.9,40.6,55.8,40.6L55.8,40.6z M57.3,41.9c-0.1-0.1-0.2-0.3-0.3-0.4c-0.1-0.1-0.1-0.2-0.1-0.3c0,0,0-0.1,0-0.2
			c0-0.2,0.1-0.4,0.2-0.5s0.3-0.2,0.5-0.2c0.1,0,0.1,0,0.2,0c0.1,0,0.1,0,0.2,0.1s0.1,0,0.1,0c0.1,0,0.1,0,0.1-0.1h0.2l-0.1,0.8
			l-0.2,0c-0.1-0.4-0.2-0.6-0.4-0.6c-0.1,0-0.2,0-0.2,0.1c-0.1,0.1-0.1,0.1-0.1,0.2c0,0.1,0,0.2,0.1,0.2c0,0.1,0.1,0.2,0.2,0.2
			c0.1,0.1,0.1,0.2,0.2,0.2c0.2,0.2,0.3,0.5,0.3,0.7c0,0.1,0,0.3-0.1,0.4c-0.1,0.1-0.2,0.2-0.3,0.2c-0.1,0.1-0.2,0.1-0.4,0.1
			c-0.1,0-0.2,0-0.3-0.1c-0.1,0-0.2-0.1-0.2-0.1c-0.1,0-0.1,0.1-0.2,0.1h-0.2l0.1-0.9l0.1,0c0.1,0.5,0.2,0.7,0.5,0.7
			c0.1,0,0.2,0,0.2-0.1c0.1-0.1,0.1-0.1,0.1-0.2c0-0.1,0-0.2-0.1-0.3C57.5,42.1,57.4,42,57.3,41.9z"/>
	</g>
	<path fill="#0C2747" d="M3.8,15c2.6-3.2,5.9-4.7,9.8-4.7c0.7,0,1.4,0.1,2,0.2c0.6,0.1,1.2,0.3,1.8,0.5c0.7,0.2,1.1,0.3,1.4,0.4
		c0,0,0.1,0,0.1,0.1c0.6-0.1,1-0.4,1.3-1.1h1.1l-1.7,7.9L18.6,18c0-0.3,0.1-0.8,0.1-1.4c0-1.4-0.3-2.5-0.9-3.4
		c-0.6-0.9-1.5-1.5-2.6-1.6c-0.4,0-0.6-0.1-0.8-0.1c-0.8,0-1.5,0.2-2.3,0.5c-0.8,0.4-1.5,0.9-2.3,1.7c-0.7,0.7-1.4,1.7-2.1,2.9
		c-0.6,1.2-1.2,2.5-1.7,4c-0.5,1.6-0.8,3.4-0.9,5.4c0.1,1.2,0.2,2.1,0.3,2.6c0.2,0.7,0.5,1.3,0.9,1.8c0.4,0.5,0.9,0.9,1.4,1.2
		c0.5,0.3,1.1,0.4,1.8,0.5c1,0,2-0.1,2.9-0.4c0.9-0.3,1.7-0.7,2.5-1.3c0.8-0.6,1.5-1.3,2.2-2.2l0.9,0.7c-1,1.5-2.2,2.7-3.8,3.6
		c-1.5,0.9-3.2,1.4-5.1,1.4c-1.3,0-2.6-0.2-3.8-0.7c-1.2-0.4-2.2-1.1-3.1-2c-0.9-0.9-1.5-1.9-1.8-3.2c-0.2-0.9-0.4-1.9-0.5-3
		c0-1.8,0.4-3.6,1.1-5.4C1.8,17.9,2.7,16.4,3.8,15L3.8,15z M23.2,15.8c-0.1,0.4-0.1,0.7-0.1,1c0,1,0.2,1.8,0.6,2.6
		c0.4,0.8,0.9,1.4,1.5,2c0.6,0.5,1.4,1.3,2.5,2.2c1.1,1,1.9,1.7,2.5,2.3c0.7,0.8,1.1,1.7,1.1,2.7c0,0.7-0.2,1.3-0.5,2
		c-0.3,0.6-0.7,1.1-1.2,1.5c-0.5,0.4-1.1,0.6-1.6,0.6c-0.2,0-0.4,0-0.7,0c-3.3,0-5-2.1-5.2-6.3l-0.9-0.1l-1.2,7.6h1
		c0.3-0.8,0.7-1.1,1.2-1.1c0.5,0,1.2,0.2,2.1,0.5c1.1,0.4,2.3,0.6,3.7,0.6c1.3,0,2.6-0.3,3.7-0.8c1.1-0.6,2-1.4,2.7-2.4
		c0.7-1,1-2.2,1-3.6c0-1.5-0.5-3-1.5-4.4c-1-1.4-2.3-2.6-3.8-3.7c-1.1-0.8-1.8-1.5-2.1-2c-0.4-0.5-0.6-1.1-0.6-1.7
		c0-1.1,0.3-2,0.9-2.8c0.6-0.7,1.4-1.1,2.5-1.1c1.4,0,2.4,0.5,3.1,1.6c0.7,1.1,1.1,2.4,1.3,4l0.9,0.1l1.3-6.8h-0.9
		c-0.3,0.6-0.8,0.9-1.4,0.9c-0.4,0-0.7-0.1-1-0.1c-0.3-0.1-0.8-0.2-1.3-0.4c-0.6-0.2-1.1-0.3-1.5-0.4c-0.4-0.1-0.8-0.1-1.2-0.1
		c-1,0-1.8,0.2-2.6,0.5c-0.8,0.3-1.4,0.8-2,1.3c-0.5,0.5-0.9,1.1-1.2,1.7C23.5,14.5,23.3,15.1,23.2,15.8L23.2,15.8z M40.3,15.8
		c0.1-0.6,0.3-1.2,0.6-1.9c0.3-0.6,0.7-1.2,1.2-1.7c0.5-0.5,1.2-1,2-1.3c0.8-0.3,1.7-0.5,2.6-0.5c0.4,0,0.8,0,1.2,0.1
		c0.4,0.1,0.9,0.2,1.5,0.4c0.6,0.2,1,0.3,1.3,0.4c0.3,0.1,0.6,0.1,1,0.1c0.6-0.1,1.1-0.4,1.4-0.9h0.9l-1.3,6.8L52,17.1
		c-0.1-1.6-0.6-2.9-1.3-4C50,12,49,11.5,47.6,11.5c-1.1,0-1.9,0.4-2.5,1.1c-0.6,0.7-0.9,1.7-0.9,2.8c0,0.6,0.3,1.2,0.6,1.7
		c0.4,0.5,1.1,1.2,2.1,2c1.5,1.1,2.8,2.3,3.8,3.7c1,1.4,1.5,2.8,1.5,4.4c0,1.4-0.3,2.6-1,3.6c-0.7,1-1.6,1.9-2.7,2.4
		c-1.1,0.6-2.4,0.8-3.7,0.8c-1.4,0-2.6-0.2-3.7-0.6c-0.9-0.4-1.6-0.5-2.1-0.5c-0.5,0-0.9,0.4-1.2,1.1h-1l1.2-7.6l0.9,0.1
		c0.2,4.2,1.9,6.3,5.2,6.3c0.3,0,0.5,0,0.7,0c0.6,0,1.1-0.2,1.6-0.6c0.5-0.4,0.9-0.9,1.2-1.5c0.3-0.6,0.5-1.3,0.5-2
		c0-1-0.4-1.9-1.1-2.7c-0.5-0.6-1.3-1.4-2.5-2.3c-1.1-1-1.9-1.7-2.5-2.2c-0.5-0.5-1-1.2-1.5-2c-0.4-0.8-0.6-1.6-0.6-2.6
		C40.2,16.5,40.3,16.1,40.3,15.8z"/>
	<g>
		<rect x="63.4" y="13.3" fill-rule="evenodd" clip-rule="evenodd" fill="#0C2747" width="0.9" height="31"/>
		<rect x="65.4" y="13.3" fill-rule="evenodd" clip-rule="evenodd" fill="#0C2747" width="0.9" height="31"/>
		<rect x="67.4" y="13.3" fill-rule="evenodd" clip-rule="evenodd" fill="#0C2747" width="0.9" height="31"/>
		<rect x="65.4" y="13.3" fill-rule="evenodd" clip-rule="evenodd" fill="#0C2747" width="0.9" height="31"/>
		<rect x="69.3" y="13.3" fill-rule="evenodd" clip-rule="evenodd" fill="#0C2747" width="0.9" height="31"/>
		<rect x="71.5" y="13.3" fill-rule="evenodd" clip-rule="evenodd" fill="#0C2747" width="0.9" height="31"/>
		<rect x="73.4" y="13.3" fill-rule="evenodd" clip-rule="evenodd" fill="#0C2747" width="0.9" height="31"/>
	</g>
	<path fill-rule="evenodd" clip-rule="evenodd" fill="#0C2747" d="M59.9,9.3c6.1,0,11.9,0,18,0c0.4,0,0.9,0.2,0.9,0.6
		c0,1.1-0.1,2.1-0.1,3.3c0,0.4-0.8,1-1.5,1c0,0-0.8-0.1-1.2-0.4c-1-0.9-0.5-2.6,0.5-2.8c0.4-0.1,0.7-0.2,0.8-0.3c0-0.1,0-0.3,0-0.3
		c-0.6-0.1-1.4-0.1-1.8,0.1c-1.1,0.4-1.2,1.4-1.8,1.4c-3.1,0-5.3,0.2-9,0c-1.2,0.1-1.7-1.4-2.6-1.5c-0.5,0-1.5-0.1-1.6,0
		c0,0.2,0,0.3,0,0.3c0.3,0.1,0.9,0.3,1.1,0.4c0.8,0.3,0.7,2.1,0.3,2.4c-0.2,0.2-0.4,0.5-0.8,0.6c-0.4,0.1-1,0.1-1.3-0.1
		C59.6,14,59,13.5,59,13.2c-0.1-1.1-0.2-2.1,0-3.3C59.1,9.5,59.4,9.2,59.9,9.3z"/>
</g>
</svg>
