<?xml version="1.0" encoding="utf-8"?>
<!-- Generator: Adobe Illustrator 16.0.0, SVG Export Plug-In . SVG Version: 6.00 Build 0)  -->
<!DOCTYPE svg PUBLIC "-//W3C//DTD SVG 1.1//EN" "http://www.w3.org/Graphics/SVG/1.1/DTD/svg11.dtd">
<svg version="1.1" id="Layer_1" xmlns="http://www.w3.org/2000/svg" xmlns:xlink="http://www.w3.org/1999/xlink" x="0px" y="0px"
	 width="133.4px" height="54.5px" viewBox="0 0 133.4 54.5" enable-background="new 0 0 133.4 54.5" xml:space="preserve">
<g>
	<g>
		<path fill="none" d="M28.3,12.6c-1.1,1.4-2.2,2.9-3.3,4.3C26.1,15.5,27.2,14,28.3,12.6z"/>
		<path fill="none" d="M27.8,23.3c-0.2-0.5-0.9-1.8-0.9-1.9c-0.4-0.7-0.9-1.3-1.5-1.8c-0.4-0.4-0.9-0.8-1.4-1.2
			c-0.7-0.5-1.5-0.9-2.3-1.3c-1.1-0.4-2.3-0.6-3.5-0.6l0-3.6l0,3.6c-1.1,0-2.1,0.1-3.2,0.5c-0.4,0.1-0.8,0.3-1.2,0.5
			c-0.3,0.1-1.6,0.9-2,1.2c-0.2,0.2-0.5,0.4-0.7,0.6c-0.1,0.1-0.2,0.2-0.2,0.3c-0.5,0.5-0.9,1-1.3,1.5c-0.7,1.1-1.3,2.3-1.6,3.6
			c-0.3,1.2-0.3,2.4-0.2,3.6c0.1,0.8,0.3,1.5,0.6,2.3c0.1,0.3,0.2,0.6,0.4,0.8c0.1,0.2,0.1,0.3,0.2,0.5c0,0.1,0,0.1,0.1,0.2
			c0.7,1.3,1.7,2.4,2.9,3.2c1.2,0.9,2.7,1.5,4.2,1.8c1.4,0.3,2.9,0.2,4.4-0.1c0.9-0.2,1.8-0.5,2.7-1l0,0c0.6-0.4,1.2-0.8,1.7-1.2
			c0.5-0.4,0.9-0.9,1.3-1.3c0.9-1.2,1.6-2.6,1.9-4v0c0.3-1.2,0.4-2.4,0.2-3.6c0-0.2,0-0.3-0.1-0.5C28.1,24.4,28,23.8,27.8,23.3z"/>
		<path fill="#C42F30" d="M10.8,19.4c0.1-0.1,0.2-0.2,0.2-0.3l-4.9-5.3C6,14.1,6,14.1,5.8,14.3C5,15.1,4.2,16,3.6,16.9L9.6,21
			C9.9,20.4,10.4,19.9,10.8,19.4z"/>
		<path fill="#F5B72A" d="M9.6,21l-5.9-4.1c-1.4,2-2.1,3.8-2.6,6.1c0,0,0,0,0,0l7,1.5C8.3,23.3,8.8,22.1,9.6,21z"/>
		<path fill="#EA5E2F" d="M8,24.6L1,23c0,0,0,0,0,0c-0.5,2.1-0.5,3.9-0.2,6.1l7.1-1C7.7,26.9,7.8,25.7,8,24.6z"/>
		<path fill="#C42F30" d="M7.8,28.1l-7.1,1h0c0.2,1.3,0.5,2.6,1,3.8l6.7-2.5C8.2,29.6,7.9,28.9,7.8,28.1z"/>
		<path fill="#EE5F2D" d="M8.4,30.4l-6.7,2.5c0.2,0.5,0.4,0.9,0.6,1.4l6.5-3.1C8.7,30.9,8.5,30.7,8.4,30.4z"/>
		<path fill="#C42F30" d="M8.8,31.2l-6.5,3.1c0.2,0.3,0.3,0.6,0.5,0.9c2.1-1.2,4-2.3,6.2-3.5C8.9,31.5,8.9,31.4,8.8,31.2z"/>
		<path fill="#F5B72A" d="M9.1,31.9c0-0.1,0-0.1-0.1-0.2c-2.2,1.2-4.2,2.4-6.2,3.5c1.2,2.2,2.8,4.1,4.9,5.6l4.2-5.8
			C10.8,34.2,9.8,33.2,9.1,31.9z"/>
		<path fill="#C42F30" d="M12,35.1l-4.2,5.8l0,0c2.1,1.6,4.4,2.6,6.7,3.1c0.6-2.4,1.1-4.7,1.7-7.1C14.6,36.6,13.2,36,12,35.1z"/>
		<path fill="#F5B72A" d="M16.1,36.9c-0.6,2.4-1.1,4.7-1.7,7.1c2.5,0.5,5.1,0.5,7.8-0.2l-1.7-7C19.1,37.1,17.6,37.1,16.1,36.9z"/>
		<path fill="#C42F30" d="M23.2,35.7c1.2,2.1,2.3,4.1,3.5,6.2c1-0.6,2-1.3,2.9-2.1c-1.6-1.8-3.2-3.6-4.7-5.4
			C24.4,35,23.8,35.4,23.2,35.7z"/>
		<path fill="#EA5E2F" d="M23.2,35.7c-0.9,0.5-1.8,0.8-2.7,1l1.7,7c1.6-0.4,3.1-1,4.5-1.8C25.5,39.9,24.4,37.8,23.2,35.7L23.2,35.7z
			"/>
		<path fill="#F5B72A" d="M24.9,34.5c1.6,1.8,3.2,3.6,4.7,5.4c0.8-0.7,1.5-1.4,2.1-2.3l-5.6-4.4C25.8,33.6,25.4,34.1,24.9,34.5z"/>
		<path fill="#C42F30" d="M26.2,33.1l5.6,4.4c1.7-2.1,2.7-4.2,3.3-6.8l-7-1.7C27.8,30.6,27.1,32,26.2,33.1z"/>
		<path fill="#F5B72A" d="M35.4,24.7l-7.1,0.8c0.1,1.2,0,2.4-0.2,3.6l7,1.6l0,0C35.6,28.7,35.7,26.8,35.4,24.7z"/>
		<rect x="31.6" y="26.4" fill="#909293" width="0" height="7.2"/>
		<path fill="#C42F30" d="M28.3,25.5l7.1-0.8c0-0.3-0.1-0.6-0.1-0.9l-7,1.2C28.3,25.2,28.3,25.4,28.3,25.5z"/>
		<path fill="#EE5F2D" d="M28.2,25l7-1.2c-0.2-1.1-0.4-1.9-0.8-2.9l-6.8,2.4C28,23.8,28.1,24.4,28.2,25z"/>
		<path fill="#F5B72A" d="M27.8,23.3l6.8-2.4c-0.4-1.3-0.9-2.1-1.6-3.3l-6.1,3.8C26.9,21.4,27.6,22.7,27.8,23.3z"/>
		<path fill="#EE5F2D" d="M26.8,21.3l6.1-3.8c-0.7-1.1-1.5-2.1-2.5-3.1l-5.1,5.1C25.9,20.1,26.4,20.7,26.8,21.3z"/>
		<path fill="#C42F30" d="M24,18.4c0.5,0.3,1,0.7,1.4,1.2l5.1-5.1c-0.7-0.7-1.4-1.3-2.2-1.9c-1.1,1.4-2.2,2.9-3.3,4.3
			C24.7,17.4,24.3,17.9,24,18.4z"/>
		<path fill="#EE5F2D" d="M24,18.4c0.4-0.5,0.7-1,1.1-1.4c1.1-1.4,2.2-2.9,3.3-4.3c-1.3-0.9-2.6-1.7-4.2-2.2l-2.5,6.8
			C22.5,17.4,23.2,17.8,24,18.4z"/>
		<path fill="#F5B72A" d="M18.1,12.9l0,3.6c1.2,0,2.4,0.2,3.5,0.6l2.5-6.8c-2-0.7-3.8-1.1-6-1.1l0,0l0,0L18.1,12.9z"/>
		<path fill="#EA5E2F" d="M18.1,16.5l0-3.6l0-3.6l0,0c-1.9,0-3.6,0.3-5.4,0.8l2.2,6.8C16,16.6,17,16.5,18.1,16.5z"/>
		<path fill="#C42F30" d="M14.9,16.9l-2.2-6.8c-0.8,0.2-1.3,0.4-2,0.8l3,6.5C14.2,17.2,14.5,17,14.9,16.9z"/>
		<path fill="#F5B72A" d="M13.8,17.4l-3-6.5c-1.2,0.6-2.3,1.2-3.4,2.1l4.4,5.7C12.2,18.3,13.5,17.5,13.8,17.4z"/>
		<path fill="#EA5E2F" d="M11.8,18.6l-4.4-5.7c-0.4,0.3-0.8,0.6-1.2,1l4.9,5.3C11.3,19,11.5,18.8,11.8,18.6z"/>
	</g>
	<g>
		<g>
			<g>
				<path fill="#C42F30" d="M40.9,34.9c-0.6,0-1.1-0.1-1.5-0.1v-2c0.3,0.1,0.7,0.2,1.1,0.2c0.8,0,1.3-0.4,1.3-1.6v-12h2.3v12.1
					C44.1,33.3,43.3,34.9,40.9,34.9z"/>
				<path fill="#C42F30" d="M52.6,31.2c0-0.4,0-1.1,0.1-1.6l0,0c-0.5,1-1.5,1.8-3,1.8c-2,0-2.6-1.3-2.6-2.8v-4.4
					c-0.4-0.1-1-0.1-1.5-0.2v-1.4c1.2-0.1,2.6-0.2,3.8-0.2v5.6c0,0.9,0.2,1.5,1.1,1.5c1.2,0,2.1-1.3,2.1-2.8v-4.2h2.2v7.1
					c0.4,0.1,1,0.1,1.5,0.2v1.4C55.1,31.2,53.8,31.3,52.6,31.2z"/>
				<path fill="#C42F30" d="M68.8,31.2v-5.6c0-0.9-0.2-1.5-1-1.5c-1,0-2,1.2-2,2.9v4.2h-2.2v-5.6c0-0.9-0.2-1.5-1-1.5
					c-1,0-2,1.2-2,2.9v4.2h-2.2v-7.1c-0.4-0.1-1-0.1-1.5-0.2v-1.4c1.1-0.1,2.5-0.2,3.7-0.2c0,0.4,0,1.1-0.1,1.6h0
					c0.5-1.1,1.6-1.8,2.9-1.8c1.6,0,2.2,0.9,2.4,1.8c0.4-0.9,1.4-1.8,2.9-1.8c1.7,0,2.6,0.9,2.6,2.9v6H68.8z"/>
				<path fill="#C42F30" d="M72.6,24v-1.4c1.1-0.1,2.5-0.2,3.6-0.2c0,0.4,0,1-0.1,1.5h0c0.5-1,1.4-1.6,2.8-1.6
					c2.1,0,3.2,1.5,3.2,4.1c0,3.1-1.6,5-4.6,5c-0.4,0-0.8,0-1.1-0.1v4.2h-2.2V24.2C73.7,24.1,73.1,24,72.6,24z M78.2,24.1
					c-1.2,0-1.9,1.4-1.9,2.9v2.4c0.4,0.1,0.7,0.2,1.2,0.2c1.3,0,2.2-0.8,2.2-3C79.7,25,79.3,24.1,78.2,24.1z"/>
				<path fill="#C42F30" d="M86.2,31.4c-0.8,0-1.7-0.1-2.4-0.3l0.1-2.1c0.7,0.2,1.6,0.4,2.5,0.4c1.2,0,2.1-0.5,2.1-1.6
					c0-2.3-5-1.2-5-5.2c0-2.1,1.7-3.6,4.5-3.6c0.7,0,1.5,0.1,2.2,0.2l-0.1,2c-0.7-0.2-1.4-0.3-2.1-0.3c-1.3,0-2,0.6-2,1.5
					c0,2.1,5,1.3,5,5.1C90.9,29.8,89.1,31.4,86.2,31.4z"/>
				<path fill="#C42F30" d="M95.8,31.4c-1.9,0-2.5-0.7-2.5-2.8v-4.5h-1.5v-1.8h1.5v-2.7l2.3-0.6v3.3h2.1v1.8h-2.1V28
					c0,1.1,0.3,1.4,1,1.4c0.4,0,0.8-0.1,1.1-0.1v1.8C97.1,31.3,96.4,31.4,95.8,31.4z"/>
				<path fill="#C42F30" d="M104.2,31.2c0-0.5,0-1,0.1-1.5l0,0c-0.4,1-1.5,1.7-2.8,1.7c-1.6,0-2.5-0.9-2.5-2.3
					c0-2.1,2.1-3.2,5.1-3.2v-0.5c0-0.9-0.4-1.4-1.7-1.4c-0.8,0-1.9,0.3-2.6,0.7l-0.2-1.9c0.9-0.3,2-0.5,3.1-0.5
					c2.8,0,3.6,1.1,3.6,3.1v4.2c0.4,0.1,1,0.1,1.5,0.2v1.4C106.7,31.2,105.3,31.3,104.2,31.2z M104,27.3c-2.4,0-2.9,0.7-2.9,1.4
					c0,0.6,0.4,0.9,1,0.9c1.1,0,1.9-1.1,1.9-2.1V27.3z"/>
				<path fill="#C42F30" d="M111.6,24.2L111.6,24.2c0.5-1.1,1.3-2.1,2.8-2l-0.1,2.2c-1.6-0.3-2.4,0.7-2.4,3.2v3.6h-2.2v-7.1
					c-0.4-0.1-1-0.1-1.5-0.2v-1.4c1.1-0.1,2.5-0.2,3.7-0.2C111.8,22.9,111.7,23.6,111.6,24.2z"/>
				<path fill="#C42F30" d="M119.3,31.4c-1.9,0-2.5-0.7-2.5-2.8v-4.5h-1.5v-1.8h1.5v-2.7l2.3-0.6v3.3h2.1v1.8H119V28
					c0,1.1,0.3,1.4,1,1.4c0.4,0,0.8-0.1,1.1-0.1v1.8C120.6,31.3,119.9,31.4,119.3,31.4z"/>
			</g>
		</g>
		<path fill="#C42F30" d="M127.7,19.1c-0.5-0.2-1.1-0.3-1.7-0.3c-1.3,0-2.2,0.8-2.2,2.3c0,1.4,0.7,2.2,2.1,2.2c0.3,0,0.6,0,0.8-0.1
			v-2.3h1.2v3.1c-0.6,0.3-1.4,0.4-2.2,0.4c-2.1,0-3.3-1.2-3.3-3.2c0-2,1.4-3.5,3.6-3.5c0.6,0,1.3,0.1,1.8,0.3L127.7,19.1z"/>
		<path fill="#C42F30" d="M133.1,22h-3c0,0.9,0.4,1.3,1.3,1.3c0.5,0,1-0.1,1.4-0.3l0.1,1c-0.5,0.2-1.1,0.3-1.7,0.3
			c-1.5,0-2.4-0.8-2.4-2.4c0-1.5,0.8-2.5,2.2-2.5c1.4,0,2,1,2,2.1C133.2,21.6,133.2,21.8,133.1,22z M131.1,20.2
			c-0.5,0-0.9,0.4-0.9,1h1.8C132,20.6,131.6,20.2,131.1,20.2z"/>
	</g>
</g>
</svg>
