<?xml version="1.0" encoding="utf-8"?>
<!-- Generator: Adobe Illustrator 16.0.0, SVG Export Plug-In . SVG Version: 6.00 Build 0)  -->
<!DOCTYPE svg PUBLIC "-//W3C//DTD SVG 1.1//EN" "http://www.w3.org/Graphics/SVG/1.1/DTD/svg11.dtd">
<svg version="1.1" id="Layer_1" xmlns="http://www.w3.org/2000/svg" xmlns:xlink="http://www.w3.org/1999/xlink" x="0px" y="0px"
	 width="34.646px" height="69.074px" viewBox="0 0 34.646 69.074" enable-background="new 0 0 34.646 69.074" xml:space="preserve">
<polygon fill="#84C1C6" points="34.646,69.074 0,34.537 34.646,0 "/>
<g id="Your_Icon_1_">
	<path fill="#FFFFFF" d="M15.95,27.997c-0.259,0.029-0.252,0.229-0.243,0.598c0.01,0.368-0.062,0.699-0.373,0.882
		c-0.06,0.03-0.118,0.061-0.176,0.094c-0.003,0.002-0.005,0.002-0.009,0.004c-0.322,0.167-0.642,0.052-0.949-0.155
		c-0.307-0.205-0.472-0.318-0.634-0.114c-0.161,0.201-0.052,0.064-0.314,0.392c-0.002,0.003-0.004,0.006-0.007,0.009
		c-0.263,0.328-0.152,0.191-0.313,0.393c-0.163,0.203-0.017,0.34,0.251,0.594c0.266,0.252,0.447,0.535,0.361,0.881
		c-0.021,0.063-0.04,0.129-0.058,0.193c-0.001,0.006-0.005,0.007-0.006,0.013c-0.109,0.347-0.418,0.49-0.78,0.562
		s-0.559,0.108-0.529,0.367c0.028,0.257,0.009,0.082,0.055,0.499c0.001,0.005,0.001,0.007,0.002,0.013
		c0.046,0.416,0.026,0.241,0.055,0.498c0.029,0.259,0.229,0.252,0.598,0.242c0.367-0.01,0.698,0.062,0.881,0.373
		c0.03,0.059,0.062,0.118,0.095,0.176c0.002,0.004,0.001,0.007,0.004,0.011c0.167,0.321,0.051,0.642-0.155,0.947
		c-0.205,0.308-0.317,0.472-0.115,0.635c0.203,0.161,0.065,0.052,0.393,0.314c0.002,0.001,0.003,0.003,0.006,0.005
		c0.001,0,0.002,0.001,0.003,0.002c0.327,0.262,0.19,0.151,0.393,0.313c0.203,0.162,0.34,0.018,0.594-0.251
		c0.252-0.267,0.537-0.449,0.884-0.36c0.062,0.021,0.125,0.039,0.188,0.056c0.007,0.002,0.009,0.006,0.016,0.008
		c0.346,0.108,0.489,0.417,0.561,0.779c0.072,0.362,0.108,0.558,0.368,0.53c0.256-0.029,0.082-0.01,0.499-0.055
		c0.003,0,0.004-0.001,0.007-0.001c0.001,0,0.002,0,0.004-0.001c0.417-0.047,0.242-0.028,0.499-0.056
		c0.259-0.029,0.253-0.229,0.242-0.598c-0.01-0.369,0.062-0.702,0.376-0.884l0,0c0.059-0.029,0.115-0.06,0.172-0.092
		c0.004-0.002,0.006-0.001,0.011-0.004c0.322-0.167,0.642-0.051,0.948,0.155c0.308,0.205,0.472,0.317,0.635,0.115
		c0.161-0.203,0.052-0.065,0.313-0.393c0.003-0.003,0.003-0.004,0.005-0.006c0.002-0.001,0.002-0.002,0.003-0.003
		c0.262-0.328,0.151-0.191,0.313-0.393c0.162-0.203,0.017-0.34-0.251-0.595c-0.268-0.252-0.451-0.537-0.36-0.886
		c0.02-0.062,0.038-0.123,0.055-0.185c0.002-0.007,0.006-0.009,0.008-0.017c0.109-0.346,0.418-0.489,0.779-0.561
		c0.362-0.072,0.559-0.109,0.53-0.367s-0.01-0.083-0.055-0.5c-0.001-0.003,0-0.004-0.001-0.007c0-0.002,0-0.003,0-0.005
		c-0.047-0.417-0.028-0.241-0.057-0.499c-0.028-0.259-0.228-0.252-0.598-0.242c-0.369,0.011-0.702-0.062-0.884-0.376
		c0,0,0,0,0-0.001c-0.03-0.057-0.059-0.114-0.091-0.17c-0.002-0.004-0.002-0.007-0.004-0.012c-0.167-0.321-0.052-0.642,0.154-0.948
		c0.205-0.307,0.318-0.472,0.115-0.635c-0.202-0.161-0.065-0.052-0.392-0.313c-0.004-0.002-0.005-0.004-0.008-0.006
		c0-0.001-0.001,0-0.002-0.002c-0.327-0.262-0.19-0.151-0.393-0.312c-0.203-0.163-0.339-0.018-0.594,0.251
		c-0.252,0.268-0.538,0.449-0.886,0.359c-0.061-0.02-0.124-0.038-0.186-0.054c-0.007-0.003-0.009-0.007-0.016-0.009
		c-0.347-0.109-0.49-0.417-0.562-0.78c-0.071-0.362-0.108-0.558-0.367-0.529c-0.259,0.029-0.076,0.009-0.51,0.057
		C16.032,27.988,16.207,27.969,15.95,27.997z M18.767,32.492c0.109,0.989-0.604,1.88-1.592,1.989
		c-0.989,0.11-1.881-0.603-1.99-1.592c-0.109-0.99,0.604-1.88,1.592-1.99C17.767,30.789,18.656,31.502,18.767,32.492z"/>
	<path fill="#FFFFFF" d="M22.04,34.701c-0.289,0.11-0.221,0.337-0.101,0.759c0.122,0.42,0.138,0.823-0.166,1.125
		c-0.06,0.053-0.117,0.105-0.173,0.16c-0.004,0.004-0.006,0.004-0.011,0.007c-0.321,0.289-0.722,0.25-1.136,0.105
		c-0.414-0.146-0.638-0.226-0.764,0.057c-0.126,0.281-0.042,0.091-0.244,0.545c-0.002,0.004-0.004,0.007-0.006,0.013
		c-0.203,0.454-0.119,0.264-0.243,0.543c-0.127,0.283,0.082,0.396,0.466,0.608c0.381,0.211,0.674,0.481,0.677,0.905
		c-0.005,0.079-0.007,0.159-0.007,0.239c-0.001,0.007-0.004,0.01-0.004,0.017c-0.022,0.431-0.334,0.688-0.729,0.878
		c-0.395,0.19-0.61,0.292-0.499,0.58c0.109,0.287,0.034,0.092,0.212,0.558c0.002,0.005,0.003,0.008,0.005,0.013
		c0.177,0.466,0.104,0.271,0.212,0.557c0.111,0.29,0.339,0.223,0.76,0.102c0.42-0.121,0.821-0.138,1.124,0.164
		c0.053,0.06,0.105,0.119,0.161,0.175c0.004,0.004,0.004,0.008,0.008,0.012c0.287,0.319,0.25,0.722,0.104,1.135
		c-0.145,0.415-0.225,0.638,0.057,0.765c0.281,0.124,0.091,0.039,0.545,0.244c0.003,0.001,0.005,0.002,0.008,0.004
		c0.002,0,0.003,0.001,0.005,0.001c0.454,0.204,0.264,0.118,0.544,0.244c0.282,0.125,0.396-0.083,0.608-0.467
		c0.21-0.381,0.482-0.676,0.908-0.678c0.077,0.005,0.155,0.008,0.232,0.007c0.009,0.002,0.011,0.006,0.021,0.006
		c0.43,0.021,0.688,0.334,0.877,0.729c0.19,0.395,0.291,0.609,0.58,0.5c0.286-0.11,0.093-0.036,0.558-0.213
		c0.003-0.001,0.005-0.002,0.008-0.003c0.002-0.001,0.004-0.001,0.005-0.002c0.465-0.178,0.271-0.104,0.558-0.213
		c0.289-0.11,0.222-0.338,0.101-0.76c-0.123-0.421-0.139-0.824,0.168-1.127l0,0c0.058-0.052,0.115-0.103,0.169-0.157
		c0.005-0.004,0.008-0.003,0.013-0.008c0.32-0.288,0.723-0.249,1.137-0.104s0.637,0.225,0.763-0.058
		c0.125-0.279,0.04-0.089,0.245-0.543c0.001-0.004,0.002-0.006,0.003-0.009c0.001-0.002,0.001-0.003,0.002-0.004
		c0.203-0.455,0.117-0.265,0.243-0.545c0.126-0.282-0.081-0.396-0.466-0.608c-0.383-0.211-0.679-0.483-0.678-0.911
		c0.004-0.076,0.007-0.151,0.007-0.229c0.001-0.008,0.005-0.012,0.005-0.021c0.022-0.431,0.334-0.688,0.729-0.877
		c0.395-0.191,0.609-0.292,0.5-0.581c-0.109-0.286-0.036-0.092-0.213-0.558c-0.001-0.003-0.002-0.005-0.004-0.008
		c0-0.002,0-0.004-0.002-0.005c-0.178-0.466-0.104-0.27-0.212-0.558c-0.11-0.288-0.338-0.222-0.761-0.101
		c-0.42,0.123-0.825,0.138-1.126-0.169c-0.001,0-0.001,0-0.001,0c-0.052-0.058-0.103-0.113-0.156-0.168
		c-0.004-0.004-0.004-0.008-0.008-0.013c-0.288-0.319-0.25-0.722-0.105-1.136c0.146-0.414,0.225-0.637-0.057-0.764
		c-0.279-0.126-0.091-0.041-0.544-0.244c-0.004-0.001-0.007-0.003-0.011-0.005c0-0.001-0.001,0-0.002,0
		c-0.455-0.205-0.265-0.118-0.545-0.244c-0.282-0.126-0.396,0.082-0.607,0.466c-0.21,0.382-0.483,0.678-0.911,0.678
		c-0.076-0.005-0.153-0.007-0.23-0.007c-0.008-0.001-0.011-0.004-0.019-0.005c-0.432-0.022-0.688-0.333-0.879-0.729
		c-0.19-0.396-0.292-0.609-0.58-0.5c-0.29,0.111-0.086,0.033-0.57,0.218C22.133,34.666,22.327,34.593,22.04,34.701z M26.619,39.028
		c0.422,1.104-0.133,2.341-1.237,2.763c-1.104,0.421-2.341-0.133-2.762-1.237c-0.422-1.104,0.132-2.342,1.236-2.763
		S26.198,37.923,26.619,39.028z"/>
</g>
</svg>
