<?xml version="1.0" encoding="utf-8"?>
<!-- Generator: Adobe Illustrator 16.0.0, SVG Export Plug-In . SVG Version: 6.00 Build 0)  -->
<!DOCTYPE svg PUBLIC "-//W3C//DTD SVG 1.1//EN" "http://www.w3.org/Graphics/SVG/1.1/DTD/svg11.dtd">
<svg version="1.1" id="Layer_1" xmlns="http://www.w3.org/2000/svg" xmlns:xlink="http://www.w3.org/1999/xlink" x="0px" y="0px"
	 width="34.646px" height="69.074px" viewBox="0 0 34.646 69.074" enable-background="new 0 0 34.646 69.074" xml:space="preserve">
<polygon fill="#84C1C6" points="34.724,69.074 0.078,34.537 34.724,0 "/>
<g id="Your_Icon_1_">
	<path fill="#FFFFFF" d="M16.028,27.997c-0.259,0.029-0.252,0.229-0.243,0.598c0.01,0.368-0.062,0.699-0.373,0.882
		c-0.06,0.03-0.118,0.061-0.176,0.094c-0.003,0.002-0.005,0.002-0.009,0.004c-0.322,0.167-0.643,0.052-0.949-0.155
		c-0.307-0.205-0.472-0.318-0.634-0.114c-0.161,0.201-0.052,0.064-0.314,0.392c-0.002,0.003-0.004,0.006-0.007,0.009
		c-0.263,0.328-0.152,0.191-0.312,0.393c-0.163,0.203-0.018,0.34,0.251,0.594c0.266,0.252,0.446,0.535,0.36,0.881
		c-0.021,0.063-0.04,0.129-0.058,0.193c-0.001,0.006-0.005,0.007-0.006,0.013c-0.109,0.347-0.418,0.49-0.78,0.562
		c-0.362,0.072-0.559,0.108-0.529,0.367c0.028,0.257,0.01,0.082,0.056,0.499c0.001,0.005,0.001,0.007,0.002,0.013
		c0.046,0.416,0.025,0.241,0.055,0.498c0.029,0.259,0.229,0.252,0.598,0.242c0.367-0.01,0.698,0.062,0.882,0.373
		c0.029,0.059,0.062,0.118,0.095,0.176c0.002,0.004,0.001,0.007,0.004,0.011c0.167,0.321,0.051,0.642-0.155,0.947
		c-0.205,0.309-0.316,0.473-0.115,0.635c0.203,0.162,0.065,0.053,0.394,0.314c0.002,0.001,0.003,0.003,0.006,0.005
		c0.001,0,0.002,0.001,0.003,0.002c0.327,0.263,0.19,0.151,0.394,0.313c0.202,0.162,0.34,0.018,0.594-0.252
		c0.252-0.267,0.537-0.448,0.884-0.359c0.062,0.021,0.125,0.039,0.188,0.057c0.008,0.002,0.01,0.006,0.017,0.008
		c0.346,0.107,0.489,0.416,0.561,0.778c0.072,0.362,0.108,0.558,0.368,0.53c0.256-0.029,0.082-0.01,0.499-0.055
		c0.003,0,0.004-0.002,0.007-0.002c0.001,0,0.002,0,0.004,0c0.417-0.047,0.242-0.028,0.499-0.057
		c0.26-0.029,0.253-0.229,0.242-0.598c-0.01-0.369,0.062-0.702,0.376-0.884l0,0c0.06-0.029,0.115-0.061,0.172-0.093
		c0.004-0.002,0.006,0,0.012-0.004c0.321-0.166,0.642-0.051,0.947,0.155c0.309,0.205,0.473,0.317,0.636,0.115
		c0.16-0.203,0.052-0.065,0.312-0.394c0.003-0.002,0.003-0.004,0.005-0.006c0.002,0,0.002-0.002,0.003-0.003
		c0.263-0.327,0.151-0.19,0.313-0.393c0.162-0.203,0.017-0.34-0.251-0.595c-0.269-0.252-0.451-0.537-0.36-0.886
		c0.021-0.062,0.038-0.123,0.055-0.185c0.003-0.007,0.007-0.009,0.009-0.017c0.108-0.346,0.418-0.489,0.778-0.561
		c0.362-0.072,0.56-0.109,0.53-0.367c-0.029-0.258-0.01-0.083-0.055-0.5c-0.001-0.003,0-0.004-0.001-0.007c0-0.002,0-0.003,0-0.005
		c-0.047-0.417-0.028-0.241-0.058-0.499c-0.027-0.259-0.228-0.252-0.598-0.242c-0.369,0.011-0.702-0.062-0.884-0.376
		c0,0,0,0,0-0.001c-0.03-0.057-0.06-0.114-0.091-0.17c-0.002-0.004-0.002-0.007-0.004-0.012c-0.167-0.321-0.053-0.642,0.153-0.948
		c0.205-0.307,0.318-0.472,0.115-0.635c-0.202-0.161-0.065-0.052-0.392-0.313c-0.005-0.002-0.006-0.004-0.009-0.006
		c0-0.001-0.001,0-0.002-0.002c-0.327-0.262-0.189-0.151-0.393-0.312c-0.203-0.163-0.339-0.018-0.594,0.251
		c-0.252,0.268-0.538,0.449-0.887,0.359c-0.061-0.02-0.124-0.038-0.186-0.054c-0.007-0.003-0.009-0.007-0.016-0.009
		c-0.348-0.109-0.49-0.417-0.562-0.78c-0.071-0.362-0.108-0.558-0.367-0.529c-0.259,0.029-0.076,0.009-0.51,0.057
		C16.11,27.988,16.285,27.969,16.028,27.997z M18.845,32.492c0.108,0.989-0.604,1.88-1.593,1.989
		c-0.988,0.11-1.881-0.603-1.989-1.592c-0.109-0.99,0.604-1.88,1.592-1.99C17.845,30.789,18.734,31.502,18.845,32.492z"/>
	<path fill="#FFFFFF" d="M22.118,34.701c-0.289,0.11-0.221,0.337-0.101,0.759c0.122,0.42,0.138,0.823-0.166,1.125
		c-0.061,0.054-0.117,0.104-0.173,0.16c-0.004,0.004-0.006,0.004-0.012,0.007c-0.32,0.289-0.722,0.25-1.136,0.105
		c-0.414-0.146-0.638-0.227-0.764,0.057c-0.126,0.281-0.042,0.091-0.244,0.545c-0.002,0.004-0.004,0.007-0.006,0.014
		c-0.203,0.453-0.119,0.264-0.243,0.543c-0.127,0.282,0.082,0.396,0.466,0.607c0.381,0.211,0.674,0.48,0.677,0.904
		c-0.005,0.08-0.007,0.16-0.007,0.24c-0.001,0.006-0.004,0.01-0.004,0.017c-0.021,0.431-0.334,0.688-0.729,0.878
		c-0.396,0.189-0.61,0.292-0.499,0.58c0.108,0.287,0.033,0.092,0.212,0.558c0.002,0.005,0.003,0.009,0.005,0.013
		c0.177,0.467,0.104,0.271,0.212,0.558c0.111,0.29,0.339,0.223,0.76,0.103c0.42-0.121,0.821-0.139,1.124,0.163
		c0.053,0.06,0.105,0.119,0.161,0.175c0.004,0.004,0.004,0.008,0.008,0.013c0.287,0.319,0.25,0.722,0.104,1.135
		c-0.146,0.415-0.226,0.638,0.057,0.765c0.281,0.125,0.091,0.039,0.545,0.244c0.003,0.001,0.005,0.002,0.008,0.004
		c0.002,0,0.003,0.002,0.005,0.002c0.454,0.203,0.265,0.117,0.545,0.243c0.281,0.125,0.396-0.083,0.607-0.467
		c0.21-0.381,0.482-0.676,0.908-0.679c0.077,0.006,0.155,0.009,0.231,0.008c0.01,0.002,0.012,0.006,0.021,0.006
		c0.43,0.021,0.688,0.334,0.877,0.729c0.19,0.396,0.291,0.609,0.58,0.5c0.286-0.109,0.093-0.035,0.558-0.213
		c0.003,0,0.005-0.002,0.009-0.002c0.002-0.002,0.004-0.002,0.005-0.003c0.465-0.178,0.271-0.104,0.558-0.213
		c0.289-0.11,0.222-0.338,0.101-0.76c-0.122-0.421-0.139-0.824,0.168-1.127l0,0c0.059-0.052,0.115-0.103,0.17-0.157
		c0.005-0.004,0.008-0.003,0.013-0.008c0.32-0.288,0.723-0.249,1.137-0.104c0.414,0.145,0.637,0.225,0.763-0.059
		c0.125-0.279,0.04-0.089,0.245-0.543c0.001-0.004,0.002-0.006,0.003-0.009c0.001-0.002,0.001-0.003,0.002-0.005
		c0.203-0.454,0.117-0.264,0.243-0.545s-0.081-0.396-0.466-0.607c-0.383-0.211-0.679-0.482-0.678-0.911
		c0.004-0.075,0.007-0.151,0.007-0.229c0.001-0.008,0.005-0.012,0.005-0.021c0.022-0.431,0.334-0.688,0.729-0.877
		c0.395-0.19,0.608-0.292,0.5-0.581c-0.109-0.285-0.036-0.092-0.213-0.558c-0.002-0.003-0.003-0.005-0.005-0.009
		c0-0.002,0-0.004-0.002-0.004c-0.178-0.467-0.104-0.271-0.212-0.559c-0.109-0.288-0.338-0.222-0.761-0.102
		c-0.42,0.123-0.825,0.139-1.126-0.168c-0.001,0-0.001,0-0.001,0c-0.052-0.059-0.103-0.113-0.156-0.168
		c-0.004-0.004-0.004-0.008-0.008-0.014c-0.288-0.318-0.25-0.722-0.104-1.136s0.225-0.637-0.058-0.764
		c-0.279-0.126-0.091-0.041-0.544-0.244c-0.004-0.001-0.007-0.003-0.011-0.005c0-0.001-0.001,0-0.002,0
		c-0.455-0.205-0.266-0.118-0.545-0.244c-0.282-0.126-0.396,0.082-0.607,0.466c-0.21,0.382-0.482,0.678-0.911,0.678
		c-0.076-0.005-0.152-0.007-0.229-0.007c-0.008-0.001-0.012-0.004-0.02-0.005c-0.432-0.022-0.688-0.333-0.879-0.729
		c-0.189-0.396-0.292-0.609-0.58-0.5c-0.29,0.111-0.086,0.033-0.569,0.218C22.211,34.666,22.405,34.593,22.118,34.701z
		 M26.697,39.027c0.422,1.104-0.133,2.342-1.237,2.764c-1.104,0.421-2.341-0.133-2.762-1.236c-0.422-1.104,0.132-2.343,1.236-2.764
		C25.038,37.37,26.276,37.923,26.697,39.027z"/>
</g>
</svg>
