<?xml version="1.0" encoding="utf-8"?>
<!-- Generator: Adobe Illustrator 16.0.0, SVG Export Plug-In . SVG Version: 6.00 Build 0)  -->
<!DOCTYPE svg PUBLIC "-//W3C//DTD SVG 1.1//EN" "http://www.w3.org/Graphics/SVG/1.1/DTD/svg11.dtd">
<svg version="1.1" id="Layer_1" xmlns="http://www.w3.org/2000/svg" xmlns:xlink="http://www.w3.org/1999/xlink" x="0px" y="0px"
	 width="22.559px" height="18px" viewBox="0 0 22.559 18" enable-background="new 0 0 22.559 18" xml:space="preserve">
<g opacity="0.5">
	<path fill="#E3AE68" d="M18.155,4.449v9.102H21c0.857,0,1.559-0.703,1.559-1.561V6.008c0-0.857-0.702-1.559-1.559-1.559H18.155z"/>
	<polygon fill="#79B9C3" points="18.126,4.449 9.422,0 9.422,18 18.126,13.551 18.156,13.551 18.156,4.449 	"/>
</g>
<g>
	<path fill="#C85652" d="M16.526,10.844c0.121,0.154,0.254,0.297,0.254,0.495c0,0.297-0.231,0.55-0.528,0.55
		c-0.319,0-0.528-0.318-0.715-0.55l-1.344-1.649l-1.342,1.649c-0.188,0.231-0.396,0.55-0.715,0.55c-0.297,0-0.528-0.253-0.528-0.55
		c0-0.198,0.133-0.341,0.253-0.495l1.617-1.915l-1.617-1.914c-0.12-0.154-0.253-0.297-0.253-0.495c0-0.297,0.231-0.561,0.528-0.561
		c0.319,0,0.527,0.33,0.715,0.561l1.342,1.65l1.344-1.65c0.187-0.231,0.396-0.561,0.715-0.561c0.297,0,0.528,0.264,0.528,0.561
		c0,0.198-0.133,0.341-0.254,0.495l-1.616,1.914L16.526,10.844z"/>
</g>
</svg>
