<?xml version="1.0" encoding="utf-8"?>
<!-- Generator: Adobe Illustrator 16.0.0, SVG Export Plug-In . SVG Version: 6.00 Build 0)  -->
<!DOCTYPE svg PUBLIC "-//W3C//DTD SVG 1.1//EN" "http://www.w3.org/Graphics/SVG/1.1/DTD/svg11.dtd">
<svg version="1.1" id="Layer_1" xmlns="http://www.w3.org/2000/svg" xmlns:xlink="http://www.w3.org/1999/xlink" x="0px" y="0px"
	 width="22.559px" height="18px" viewBox="0 0 22.559 18" enable-background="new 0 0 22.559 18" xml:space="preserve">
<g>
	<path fill="#C85752" d="M0,9.001c0,2.412,0.911,4.824,2.734,6.656c0.477,0.478,1.203-0.244,0.728-0.722
		C1.838,13.305,1.026,11.15,1.026,9c0-2.151,0.812-4.305,2.437-5.934c0.475-0.478-0.251-1.201-0.728-0.723
		C0.911,4.176,0,6.589,0,9.001z"/>
	<path fill="#C85752" d="M2.842,9c0,1.682,0.634,3.365,1.905,4.643c0.476,0.478,1.203-0.244,0.728-0.723
		C4.404,11.843,3.869,10.423,3.869,9s0.534-2.844,1.605-3.921c0.475-0.478-0.252-1.201-0.728-0.724C3.477,5.636,2.842,7.318,2.842,9
		z"/>
	<path fill="#C85752" d="M6.743,6.354C6.02,7.084,5.66,8.043,5.66,9s0.359,1.916,1.083,2.645c0.471,0.48,1.202-0.237,0.729-0.717
		C6.95,10.396,6.686,9.698,6.686,9S6.95,7.602,7.472,7.072C7.946,6.593,7.214,5.875,6.743,6.354z"/>
	<path fill="#E3AE68" d="M18.154,4.449v9.102h2.846c0.857,0,1.559-0.703,1.559-1.561V6.008c0-0.857-0.702-1.559-1.559-1.559H18.154z
		"/>
	<polygon fill="#79B9C3" points="18.125,4.449 9.421,0 9.421,18 18.125,13.551 18.155,13.551 18.155,4.449 	"/>
</g>
</svg>
