<?xml version="1.0" encoding="utf-8"?>
<!-- Generator: Adobe Illustrator 16.0.0, SVG Export Plug-In . SVG Version: 6.00 Build 0)  -->
<!DOCTYPE svg PUBLIC "-//W3C//DTD SVG 1.1//EN" "http://www.w3.org/Graphics/SVG/1.1/DTD/svg11.dtd">
<svg version="1.1" id="Layer_1" xmlns="http://www.w3.org/2000/svg" xmlns:xlink="http://www.w3.org/1999/xlink" x="0px" y="0px"
	 width="258.534px" height="258.288px" viewBox="0 0 258.534 258.288" enable-background="new 0 0 258.534 258.288"
	 xml:space="preserve">
<circle fill="#F1EFE8" cx="129.144" cy="129.144" r="129.144"/>
<g>
	<polygon fill="#F8B69C" points="59.091,234.95 59.091,155.726 45.062,159.726 45.062,215.838 	"/>
	<rect x="45.062" y="160.233" opacity="0.4" fill="#B78D7E" width="14.03" height="5.267"/>
	<path fill="#F8B69C" d="M47.832,51.684l9.81,29.207h-6.91v15.462h-7.193c0,0-3.435,0.428-3.435,3.434c0,1.289,0,11.912,0,17.065
		v16.074H23.644V119V58.966l6.079-7.821h17.682L47.832,51.684z"/>
	<path fill="#2F3E4A" d="M46.646,68.221c0,0.7-0.565,1.263-1.262,1.263c-0.693,0-1.262-0.562-1.262-1.263
		c0-0.696,0.568-1.259,1.262-1.259C46.081,66.962,46.646,67.524,46.646,68.221z"/>
	<path fill="#F28A82" d="M47.996,85.802c-0.186,0-0.332-0.15-0.332-0.331h-1.291c0,0.893,0.727,1.618,1.622,1.618h2.758v-1.287
		H47.996z"/>
	<g>
		<path fill="#C2692A" d="M20.329,111.053c12.417,0,11.756-11.754,11.756-11.754V74.155c-2.336-0.005-4.233-1.9-4.233-4.245
			c0-2.338,1.899-4.236,4.239-4.236c1.857,0,3.419,1.201,3.994,2.861l0.056-0.175c2.711-0.202,4.852-2.382,4.979-5.11h0.025v-3.381
			c1.21,0,2.722,0,4.622,0c14.526,0,17.699-15.058,17.699-15.058H31.583c-7.832,9.075-14.417,19.255-19.502,30.27v35.972
			C12.082,111.053,16.235,111.053,20.329,111.053z"/>
	</g>
	<g>
		<path fill="#5B4C71" d="M40.758,196.964h-4.376h-3.858h-4.375h-8.672c10.46,16.917,24.715,31.235,41.58,41.773l-5.704-41.773
			H40.758z"/>
	</g>
	<rect x="20.104" y="178.721" fill="#5B4C71" width="35.301" height="18.243"/>
	<g>
		<path fill="#F8B69C" d="M5.443,165.5c2.914,9.95,6.987,19.403,12.074,28.198V165.5H5.443z"/>
		<rect x="17.518" y="160.233" opacity="0.4" fill="#B78D7E" width="0.002" height="5.267"/>
		<path fill="#F8B69C" d="M17.518,165.5v-5.267H4.022c0.438,1.77,0.911,3.525,1.421,5.267H17.518z"/>
		<path opacity="0.4" fill="#B78D7E" d="M17.518,165.5v-5.267H4.022c0.438,1.77,0.911,3.525,1.421,5.267H17.518z"/>
	</g>
	<g>
		<path fill="none" d="M4.022,160.233c2.95,11.933,7.553,23.213,13.562,33.578v-33.578H4.022z"/>
		<path fill="#FFFFFF" d="M3.487,160.233h0.536c-0.183-0.741-0.365-1.482-0.536-2.229V160.233z"/>
		<path fill="#FFFFFF" d="M44.691,199.328h10.714v-37.756c4.649-0.62,8.232-4.592,8.232-9.409c0-2.464-0.946-4.704-2.483-6.392
			l0.006-0.008l-1.104-1.712v-3.81v-6.263v-8.035c0-3.213-2.606-5.819-5.819-5.819h-9.546h-4.587c0,4.614-3.671,8.358-8.287,8.358
			c-4.617,0-8.173-3.744-8.173-8.358H13.485h-4.15c-3.215,0-5.819,2.606-5.819,5.819v8.759H3.487v23.302
			c0.17,0.746,0.353,1.487,0.536,2.229h13.562v33.578c1.083,1.869,2.214,3.708,3.387,5.517h3.119H44.691z"/>
	</g>
	<circle fill="#FFFFFF" cx="17.789" cy="160.233" r="1.969"/>
	<g>
		<circle fill="#FFFFFF" cx="5.972" cy="160.233" r="1.969"/>
		<circle fill="#FFFFFF" cx="9.911" cy="160.233" r="1.97"/>
		<circle fill="#FFFFFF" cx="13.851" cy="160.233" r="1.969"/>
		<circle fill="#FFFFFF" cx="58.25" cy="160.233" r="1.969"/>
		<circle fill="#FFFFFF" cx="55.405" cy="160.233" r="1.97"/>
	</g>
</g>
<g>
	<path fill="#FAB59B" d="M184.979,245.181h-0.004v0.446c0.304-0.146,0.604-0.298,0.907-0.446H184.979z"/>
	<path fill="#FFFFFF" d="M206.326,164.211h-21.347v65.45v3.006v4.377h15.137c2.111-1.392,4.185-2.837,6.207-4.347
		c0-0.011,0.003-0.021,0.003-0.03V164.211z"/>
	<path fill="#FFFFFF" d="M200.116,237.044h-15.137v0.375v7.762h0.903C190.812,242.766,195.564,240.044,200.116,237.044z"/>
	<path opacity="0.3" fill="#81A7BE" d="M200.116,237.044h-15.137v0.375v7.762h0.903
		C190.812,242.766,195.564,240.044,200.116,237.044z"/>
	<path fill="#FAB59B" d="M207.79,53.436l0.425-0.522h22.72l7.716,14.217v50.706l0,0v24.503h-23.225v-24.503l0,0v-0.024
		c0-5.089,0-5.089,0-6.365c0-2.969-3.391-3.397-3.391-3.397h-7.106V80.055h-9.015L207.79,53.436z"/>
	<path fill="#2F3E4A" d="M210.92,63.486c0,0.688,0.558,1.243,1.245,1.243c0.686,0,1.247-0.556,1.247-1.243
		c0-0.684-0.562-1.243-1.247-1.243C211.478,62.243,210.92,62.803,210.92,63.486z"/>
	<path fill="#D0857D" d="M209.18,87.108c0.474,0,0.861-0.392,0.861-0.865h1.275c0,1.174-0.963,2.137-2.137,2.137h-4.251v-1.271
		H209.18z"/>
	<path fill="none" d="M223.188,65.108c0,0.029-0.004,0.054-0.004,0.087v-0.087H223.188z"/>
	<g>
		<path fill="#50595D" d="M212.984,58.743c2.467,0,4.309,0,5.728,0v10.64h4.472v-4.188v-0.087h0.004
			c0.052-2.276,1.898-4.101,4.184-4.101c2.31,0,4.188,1.873,4.188,4.188c0,2.313-1.878,4.188-4.188,4.188
			c-0.023,0-0.046-0.009-0.068-0.009v4.212c0,0-0.529,9.441,9.439,9.441c3.287,0,3.287,0,3.287,0V62.919
			c-3.425-5.723-7.276-11.158-11.517-16.261h-29.735C198.777,46.658,201.324,58.743,212.984,58.743z"/>
	</g>
	<g>
		<path fill="#FFFFFF" d="M258.534,129.144c0-3.787-0.173-7.534-0.492-11.238c-0.449-0.045-0.904-0.069-1.365-0.069h-13.313h-4.713
			v-5.966h-4.305h-4.311h-4.895l3.988,7.823l-6.612,1.284l2.624-9.107l-4.469,15.498l-5.231-15.498l-2.861,5.966h-0.574h-13.32
			c-7.556,0-13.683,6.127-13.683,13.695v19.393v14.242v16.165h13.314v43.684h5.711h11.886
			C242.084,201.38,258.534,167.185,258.534,129.144z M219.901,164.495c0,1.804-1.459,3.265-3.263,3.265h-12.787
			c-1.803,0-3.263-1.461-3.263-3.265v-17.059h19.312V164.495z"/>
		<polygon fill="#FFFFFF" points="229.129,119.693 225.141,111.87 222.517,120.978 		"/>
		<polygon opacity="0.3" fill="#81A7BE" points="229.129,119.693 225.141,111.87 222.517,120.978 		"/>
		<path fill="#FFFFFF" d="M200.589,164.495c0,1.804,1.46,3.265,3.263,3.265h12.787c1.804,0,3.263-1.461,3.263-3.265v-17.059h-19.312
			V164.495z"/>
		<path opacity="0.3" fill="#81A7BE" d="M200.589,164.495c0,1.804,1.46,3.265,3.263,3.265h12.787c1.804,0,3.263-1.461,3.263-3.265
			v-17.059h-19.312V164.495z"/>
	</g>
	<g>
		<polygon fill="#222F42" points="198.263,235.723 198.25,235.723 198.25,238.255 198.263,238.247 		"/>
		<path fill="#222F42" d="M198.389,228.344v-0.836h-0.126v8.215v2.524c1.29-0.818,2.563-1.661,3.822-2.524
			c3.366-2.308,6.617-4.771,9.744-7.379H198.389z"/>
		<path fill="#9B3C22" d="M198.263,223.51v3.998v0.836h13.566c0.331-0.276,0.66-0.556,0.988-0.836
			c1.524-1.298,3.018-2.632,4.48-3.998H198.263z"/>
	</g>
</g>
</svg>
