<?xml version="1.0" encoding="UTF-8" standalone="no"?>
<!-- Created with Inkscape (http://www.inkscape.org/) -->

<svg
   xmlns:dc="http://purl.org/dc/elements/1.1/"
   xmlns:cc="http://creativecommons.org/ns#"
   xmlns:rdf="http://www.w3.org/1999/02/22-rdf-syntax-ns#"
   xmlns:svg="http://www.w3.org/2000/svg"
   xmlns="http://www.w3.org/2000/svg"
   xmlns:sodipodi="http://sodipodi.sourceforge.net/DTD/sodipodi-0.dtd"
   xmlns:inkscape="http://www.inkscape.org/namespaces/inkscape"
   width="181"
   height="266"
   id="svg2"
   version="1.1"
   inkscape:version="0.48.4 r9939"
   sodipodi:docname="6.svg">
  <defs
     id="defs4">
    <inkscape:perspective
       sodipodi:type="inkscape:persp3d"
       inkscape:vp_x="0 : 526.18109 : 1"
       inkscape:vp_y="0 : 1000 : 0"
       inkscape:vp_z="744.09448 : 526.18109 : 1"
       inkscape:persp3d-origin="372.04724 : 350.78739 : 1"
       id="perspective10" />
    <clipPath
       id="clipPath3565"
       clipPathUnits="userSpaceOnUse">
      <path
         id="path3567"
         d="M 0,576 788,576 788,0 0,0 0,576 z"
         inkscape:connector-curvature="0" />
    </clipPath>
    <clipPath
       id="clipPath3485"
       clipPathUnits="userSpaceOnUse">
      <path
         id="path3487"
         d="M 0,576 788,576 788,0 0,0 0,576 z"
         inkscape:connector-curvature="0" />
    </clipPath>
    <clipPath
       id="clipPath3409"
       clipPathUnits="userSpaceOnUse">
      <path
         id="path3411"
         d="M 0,576 788,576 788,0 0,0 0,576 z"
         inkscape:connector-curvature="0" />
    </clipPath>
    <clipPath
       id="clipPath3329"
       clipPathUnits="userSpaceOnUse">
      <path
         id="path3331"
         d="M 0,576 788,576 788,0 0,0 0,576 z"
         inkscape:connector-curvature="0" />
    </clipPath>
    <clipPath
       id="clipPath3249"
       clipPathUnits="userSpaceOnUse">
      <path
         id="path3251"
         d="M 0,576 788,576 788,0 0,0 0,576 z"
         inkscape:connector-curvature="0" />
    </clipPath>
    <clipPath
       id="clipPath3169"
       clipPathUnits="userSpaceOnUse">
      <path
         id="path3171"
         d="M 0,576 788,576 788,0 0,0 0,576 z"
         inkscape:connector-curvature="0" />
    </clipPath>
    <clipPath
       id="clipPath3089"
       clipPathUnits="userSpaceOnUse">
      <path
         id="path3091"
         d="M 0,576 788,576 788,0 0,0 0,576 z"
         inkscape:connector-curvature="0" />
    </clipPath>
    <clipPath
       id="clipPath3013"
       clipPathUnits="userSpaceOnUse">
      <path
         id="path3015"
         d="M 0,576 788,576 788,0 0,0 0,576 z"
         inkscape:connector-curvature="0" />
    </clipPath>
    <clipPath
       id="clipPath2933"
       clipPathUnits="userSpaceOnUse">
      <path
         id="path2935"
         d="M 0,576 788,576 788,0 0,0 0,576 z"
         inkscape:connector-curvature="0" />
    </clipPath>
    <clipPath
       id="clipPath2853"
       clipPathUnits="userSpaceOnUse">
      <path
         id="path2855"
         d="M 0,576 788,576 788,0 0,0 0,576 z"
         inkscape:connector-curvature="0" />
    </clipPath>
    <inkscape:perspective
       id="perspective2845"
       inkscape:persp3d-origin="0.5 : 0.33333333 : 1"
       inkscape:vp_z="1 : 0.5 : 1"
       inkscape:vp_y="0 : 1000 : 0"
       inkscape:vp_x="0 : 0.5 : 1"
       sodipodi:type="inkscape:persp3d" />
  </defs>
  <sodipodi:namedview
     id="base"
     pagecolor="#ffffff"
     bordercolor="#666666"
     borderopacity="1.0"
     inkscape:pageopacity="0.0"
     inkscape:pageshadow="2"
     inkscape:zoom="0.98994949"
     inkscape:cx="250.00001"
     inkscape:cy="171.91705"
     inkscape:document-units="px"
     inkscape:current-layer="layer1"
     showgrid="false"
     inkscape:window-width="1871"
     inkscape:window-height="1056"
     inkscape:window-x="49"
     inkscape:window-y="24"
     inkscape:window-maximized="1"
     fit-margin-top="0"
     fit-margin-left="0"
     fit-margin-right="0"
     fit-margin-bottom="0"
     showguides="true"
     inkscape:guide-bbox="true">
    <sodipodi:guide
       orientation="1,0"
       position="91.923882,515.1778"
       id="guide3635" />
  </sodipodi:namedview>
  <metadata
     id="metadata7">
    <rdf:RDF>
      <cc:Work
         rdf:about="">
        <dc:format>image/svg+xml</dc:format>
        <dc:type
           rdf:resource="http://purl.org/dc/dcmitype/StillImage" />
        <dc:title></dc:title>
      </cc:Work>
    </rdf:RDF>
  </metadata>
  <g
     inkscape:label="Layer 1"
     inkscape:groupmode="layer"
     id="layer1"
     transform="translate(-19.529115,-688.30054)">
    <g
       id="g3561"
       transform="matrix(1.0278596,0,0,-1.0278596,-283.97269,1090.7284)">
      <g
         id="g3563"
         clip-path="url(#clipPath3565)">
        <g
           id="g3569"
           transform="translate(387.6152,303.5986)">
          <path
             d="m 0,0 c 0,0 17.19,-29.325 35.393,-40.449 l 9.1,8.595 c 0,0 -29.325,22.752 -37.921,47.022 L 0,0 z"
             style="fill:#3a4869;fill-opacity:1;fill-rule:nonzero;stroke:none"
             id="path3571"
             inkscape:connector-curvature="0" />
        </g>
        <g
           id="g3573"
           transform="translate(379.5244,259.8643)">
          <path
             d="m 0,0 c 0,0 -25.785,-25.028 -45.504,-82.667 l 11.376,-6.067 c 0,0 17.443,45.505 45.505,78.116 L 0,0 z"
             style="fill:#3a4869;fill-opacity:1;fill-rule:nonzero;stroke:none"
             id="path3575"
             inkscape:connector-curvature="0" />
        </g>
        <g
           id="g3577"
           transform="translate(425.0586,265.374)">
          <path
             d="m 0,0 c 0,0 12.499,-20.567 16.106,-14.557 0,0 -1.395,1.2 -2.641,4.01 0,0 3.356,-1.422 4.623,-0.586 0,0 3.104,3.561 -3.615,5.489 0,0 6.721,-1.928 5.756,1.373 -0.963,3.299 -0.963,3.299 -4.465,4.019 0,0 5.109,-1.778 3.59,2.366 0,0 -12.378,6.377 -17.847,6.407 L 0,0 z"
             style="fill:#ffdcad;fill-opacity:1;fill-rule:nonzero;stroke:none"
             id="path3579"
             inkscape:connector-curvature="0" />
        </g>
        <g
           id="g3581"
           transform="translate(343.7578,169.7139)">
          <path
             d="m 0,0 -7.751,-10.923 c 0,0 -33.464,19.12 -29.612,27.016 3.851,7.897 5.394,9.398 15.936,4.908 L 0,0 z"
             style="fill:#99866a;fill-opacity:1;fill-rule:nonzero;stroke:none"
             id="path3583"
             inkscape:connector-curvature="0" />
        </g>
        <g
           id="g3585"
           transform="translate(449.376,191.7998)">
          <path
             d="m 0,0 12.199,-3.428 c 0,0 -7.22,-37.803 -15.516,-36.955 -8.295,0.849 -10.115,1.763 -9.227,13.142 L 0,0 z"
             style="fill:#99866a;fill-opacity:1;fill-rule:nonzero;stroke:none"
             id="path3587"
             inkscape:connector-curvature="0" />
        </g>
        <g
           id="g3589"
           transform="translate(332.6172,260.2891)">
          <path
             d="m 0,0 c 0,0 -23.66,-4.397 -19.318,-9.902 0,0 1.616,0.88 4.685,1.048 0,0 -2.516,-2.635 -2.186,-4.115 0,0 2.229,-4.165 6.415,1.437 0,0 -4.188,-5.602 -0.76,-5.871 3.428,-0.267 3.429,-0.267 5.342,2.752 0,0 -3.474,-4.147 0.941,-4.196 0,0 10.35,9.315 12.315,14.416 L 0,0 z"
             style="fill:#ffdcad;fill-opacity:1;fill-rule:nonzero;stroke:none"
             id="path3591"
             inkscape:connector-curvature="0" />
        </g>
        <g
           id="g3593"
           transform="translate(401.8447,332.5518)">
          <path
             d="m 0,0 -33.688,-3.57 c 0,0 -5.268,-75.034 3.225,-97.609 0,0 25.6,7.93 34.092,9.35 0,0 -18.263,38.004 -3.629,91.829"
             style="fill:#7d9ed2;fill-opacity:1;fill-rule:nonzero;stroke:none"
             id="path3595"
             inkscape:connector-curvature="0" />
        </g>
        <g
           id="g3597"
           transform="translate(419.2139,356.0557)">
          <path
             d="m 0,0 c 0,-19.407 -17.091,-35.14 -38.174,-35.14 -21.083,0 -38.174,15.733 -38.174,35.14 0,19.407 17.091,35.14 38.174,35.14 C -17.091,35.14 0,19.407 0,0"
             style="fill:#ffdcad;fill-opacity:1;fill-rule:nonzero;stroke:none"
             id="path3599"
             inkscape:connector-curvature="0" />
        </g>
        <g
           id="g3601"
           transform="translate(426.7979,352.5156)">
          <path
             d="m 0,0 c 0,-3.21 -2.717,-5.813 -6.067,-5.813 -3.351,0 -6.068,2.603 -6.068,5.813 0,3.212 2.717,5.815 6.068,5.815 C -2.717,5.815 0,3.212 0,0"
             style="fill:#ffdcad;fill-opacity:1;fill-rule:nonzero;stroke:none"
             id="path3603"
             inkscape:connector-curvature="0" />
        </g>
        <g
           id="g3605"
           transform="translate(355.5078,358.9111)">
          <path
             d="m 0,0 c 0,-3.532 -2.529,-6.396 -5.647,-6.396 -3.12,0 -5.647,2.864 -5.647,6.396 0,3.532 2.527,6.396 5.647,6.396 C -2.529,6.396 0,3.532 0,0"
             style="fill:#ffffff;fill-opacity:1;fill-rule:nonzero;stroke:none"
             id="path3607"
             inkscape:connector-curvature="0" />
        </g>
        <g
           id="g3609"
           transform="translate(375.7324,355.8027)">
          <path
             d="m 0,0 c 0,-3.909 -2.943,-7.078 -6.573,-7.078 -3.631,0 -6.574,3.169 -6.574,7.078 0,3.909 2.943,7.078 6.574,7.078 C -2.943,7.078 0,3.909 0,0"
             style="fill:#ffffff;fill-opacity:1;fill-rule:nonzero;stroke:none"
             id="path3611"
             inkscape:connector-curvature="0" />
        </g>
        <g
           id="g3613"
           transform="translate(351.9678,359.3408)">
          <path
             d="m 0,0 c 0,-1.954 -1.132,-3.538 -2.527,-3.538 -1.396,0 -2.528,1.584 -2.528,3.538 0,1.956 1.132,3.54 2.528,3.54 C -1.132,3.54 0,1.956 0,0"
             style="fill:#594334;fill-opacity:1;fill-rule:nonzero;stroke:none"
             id="path3615"
             inkscape:connector-curvature="0" />
        </g>
        <g
           id="g3617"
           transform="translate(371.6855,355.4229)">
          <path
             d="m 0,0 c 0,-1.605 -1.132,-2.907 -2.526,-2.907 -1.396,0 -2.528,1.302 -2.528,2.907 0,1.606 1.132,2.908 2.528,2.908 C -1.132,2.908 0,1.606 0,0"
             style="fill:#594334;fill-opacity:1;fill-rule:nonzero;stroke:none"
             id="path3619"
             inkscape:connector-curvature="0" />
        </g>
        <g
           id="g3621"
           transform="translate(345.7314,369.4189)">
          <path
             d="m 0,0 c 0,0 2.697,1.551 6.236,3.574 3.54,2.023 -1.263,-0.07 0,-3.574 0,0 -0.504,-0.727 3.54,2.182 l 1.769,-6.294 c 0,0 0.506,4.652 5.309,6.675 0,0 -1.769,-6.019 -1.01,-6.675 0.758,-0.657 1.769,4.401 5.056,6.423 l 3.286,2.021 c 0,0 -2.528,-4.043 0,-6.572 2.527,-2.529 3.792,0.883 4.55,2.338 0.758,1.454 2.276,-3.35 2.528,-6.636 0.254,-3.286 4.045,2.426 4.045,2.426 0,0 2.023,1.35 2.276,-3.445 l 6.319,0 -1.768,-6.439 5.053,5.435 1.266,-8.342 5.309,6.825 0,-6.825 6.574,5.815 2.526,-8.09 6.068,6.825 2.275,-2.78 2.275,4.045 c 0,0 -1.011,26.798 -33.877,32.864 C 39.605,21.776 11.711,25.75 0,0"
             style="fill:#594334;fill-opacity:1;fill-rule:nonzero;stroke:none"
             id="path3623"
             inkscape:connector-curvature="0" />
        </g>
        <g
           id="g3625"
           transform="translate(349.8604,335.7959)">
          <path
             d="m 0,0 c 0,0 18.793,-5.346 25.872,0 0,0 -9.388,-11.736 -18.092,-7.494 0,0 -6.044,5.029 -7.78,7.494"
             style="fill:#cd9db0;fill-opacity:1;fill-rule:nonzero;stroke:none"
             id="path3627"
             inkscape:connector-curvature="0" />
        </g>
        <g
           id="g3629"
           transform="translate(350.7861,346.4482)">
          <path
             d="m 0,0 c 0,-2.094 -2.265,-3.792 -5.055,-3.792 -2.794,0 -5.057,1.698 -5.057,3.792 0,2.095 2.263,3.793 5.057,3.793 C -2.265,3.793 0,2.095 0,0"
             style="fill:#ffdcad;fill-opacity:1;fill-rule:nonzero;stroke:none"
             id="path3631"
             inkscape:connector-curvature="0" />
        </g>
        <g
           id="g3633"
           transform="translate(384.834,246.2129)">
          <path
             d="m 0,0 13.651,6.067 c 0,0 17.444,-40.196 53.088,-61.431 l -9.1,-10.618 c 0,0 -28.062,8.342 -57.639,65.982"
             style="fill:#4c71a0;fill-opacity:1;fill-rule:nonzero;stroke:none"
             id="path3635"
             inkscape:connector-curvature="0" />
        </g>
        <g
           id="g3637"
           transform="translate(374.2158,320.5361)">
          <path
             d="m 0,0 9.101,-9.101 c 0,0 -28.061,-48.538 -43.988,-59.155 l -11.376,7.584 c 0,0 33.37,28.819 46.263,60.672"
             style="fill:#4c71a0;fill-opacity:1;fill-rule:nonzero;stroke:none"
             id="path3639"
             inkscape:connector-curvature="0" />
        </g>
      </g>
    </g>
  </g>
</svg>
