<?xml version="1.0" encoding="utf-8"?>
<!-- Generator: Adobe Illustrator 16.0.0, SVG Export Plug-In . SVG Version: 6.00 Build 0)  -->
<!DOCTYPE svg PUBLIC "-//W3C//DTD SVG 1.1//EN" "http://www.w3.org/Graphics/SVG/1.1/DTD/svg11.dtd">
<svg version="1.1" id="Layer_1" xmlns="http://www.w3.org/2000/svg" xmlns:xlink="http://www.w3.org/1999/xlink" x="0px" y="0px"
	 width="191.064px" height="511.137px" viewBox="0 0 191.064 511.137" enable-background="new 0 0 191.064 511.137"
	 xml:space="preserve">
<g>
	<path fill="#F8B69C" d="M126.702,243.391c-0.1,0-0.19,0.023-0.288,0.031v-3.82v-0.879h-19.959l0,0v9.482v12.512
		c0,0.008-0.002,0.012-0.002,0.012c0,0.016,0.002,0.02,0.002,0.02v0.975h0.098c0.502,5.045,4.706,8.996,9.882,8.996
		c5.175,0,9.38-3.951,9.882-8.996h0.098v-0.965c0,0,0.002-0.014,0.002-0.021c0,0-0.002-0.012-0.002-0.02v-10.244
		c0.098,0.008,0.188,0.031,0.288,0.031c1.966,0,3.558-1.592,3.558-3.553C130.259,244.984,128.667,243.391,126.702,243.391z"/>
	<path fill="#FFFFFF" d="M100.744,141.363v82.312c0,2.908,2.359,5.268,5.266,5.268h0.441v0.451v9.33h19.961v-9.33v-5.719v-3.611
		v-78.701H100.744z"/>
	<rect x="106.453" y="228.941" opacity="0.3" fill="#84A8C1" width="19.959" height="9.781"/>
</g>
<g>
	<path fill="#F8B69C" d="M98.981,8.16l-0.51-0.637h-36.6v78.072l0,0v29.463h27.928V85.596l0,0v-0.029c0-6.121,0-6.121,0-7.652
		c0-3.57,4.079-4.082,4.079-4.082h8.544V40.17h10.841L98.981,8.16z"/>
	<circle fill="#2F3E4A" cx="93.72" cy="20.244" r="1.498"/>
	<path fill="#CF867C" d="M97.314,48.645c-0.573,0-1.039-0.467-1.039-1.039h-1.531c0,1.414,1.152,2.568,2.57,2.568h5.108v-1.529
		H97.314z"/>
	<path fill="none" d="M80.464,22.189c0,0.035,0.01,0.068,0.01,0.105v-0.105H80.464z"/>
	<path fill="#4F585C" d="M60.215,0v43.738c0,0,0,0,3.953,0c11.987,0,11.348-11.348,11.348-11.348v-5.07
		c-0.027,0.004-0.05,0.01-0.077,0.01c-2.782,0-5.037-2.254-5.037-5.035c0-2.783,2.255-5.039,5.037-5.039
		c2.745,0,4.966,2.199,5.025,4.934h0.01v0.105v5.035h5.372V14.535c1.71,0,3.927,0,6.887,0C106.759,14.535,109.821,0,109.821,0
		H60.215z"/>
</g>
<g>
	<path fill="#1F2328" d="M189.57,490.33c-2.791-5.084-4.615-5.385-16.436-3.842l-9.026-1.191c-4.999-0.314-9.683-2.199-13.461-5.238
		c-0.852-0.686-1.649-1.432-2.401-2.23c-5.339,1.369-3.68,6.148-3.68,6.148l-15.234,2.738l0.369,2.059l0.516,2.865l0.515,2.865
		l1.114,6.199l0.489,2.727l0.294,1.631l16.775-3.016l-0.293-1.631l-0.488-2.713l8.229,3.006l34.213-6.148
		C190.79,493.033,190.275,491.615,189.57,490.33z"/>
	
		<rect x="106.298" y="227.454" transform="matrix(0.9842 -0.1769 0.1769 0.9842 -61.3339 26.7227)" fill="#212F42" width="25.85" height="259.867"/>
</g>
<g>
	<path fill="#2D323B" d="M58.58,506.496c-0.919-5.725-2.536-6.621-14.186-9.143l-8.102-4.156c-4.602-1.975-8.379-5.326-10.918-9.457
		c-0.57-0.932-1.071-1.904-1.511-2.908c-5.485-0.506-5.531,4.555-5.531,4.555l-15.27-2.543l-0.344,2.062l-0.478,2.871l-0.479,2.873
		l-1.035,6.213l-0.455,2.73L0,501.229l16.813,2.801l0.272-1.637l0.453-2.719l6.739,5.598l34.288,5.711
		C58.821,509.453,58.812,507.943,58.58,506.496z"/>
	
		<rect x="24.172" y="226.717" transform="matrix(0.9864 0.1643 -0.1643 0.9864 59.1943 -1.2409)" fill="#212F42" width="25.851" height="260.866"/>
</g>
<g>
	<path fill="#FFFFFF" d="M109.931,85.598H93.915h-0.692l-3.442-7.176l-6.288,18.635l-5.378-18.635H72.23h-5.179h-5.18v7.176h-5.665
		H40.195c-9.092,0-16.466,7.369-16.466,16.461v12.066v47.82h20.755v54.723h1.632h57.394h6.866v-54.723h16.009v-19.434v-17.131
		v-23.322C126.384,92.967,119.019,85.598,109.931,85.598z"/>
	<polygon opacity="0.3" fill="#84A8C1" points="81.274,89.373 78.115,78.422 73.323,87.826 	"/>
	<path opacity="0.3" fill="#84A8C1" d="M84.413,141.703c0,2.168,1.758,3.924,3.927,3.924h15.378c2.168,0,3.924-1.756,3.924-3.924
		v-20.512H84.413V141.703z"/>
</g>
<path fill="#212F42" d="M44.484,232.531c0,13.213,10.71,23.926,23.926,23.926h18.104c13.214,0,23.927-10.713,23.927-23.926V217.48
	H44.484V232.531z"/>
<rect x="44.484" y="212.668" fill="#9B3C21" width="65.803" height="5.812"/>
<g>
	<path fill="#F8B69C" d="M49.688,243.391c-0.1,0-0.191,0.023-0.288,0.031v-3.82v-0.879H29.44l0,0v9.482v12.512
		c0,0.008-0.002,0.012-0.002,0.012c0,0.016,0.002,0.02,0.002,0.02v0.975h0.098c0.501,5.045,4.707,8.996,9.882,8.996
		s9.38-3.951,9.882-8.996h0.098v-0.965c0,0,0.002-0.014,0.002-0.021c0,0-0.002-0.012-0.002-0.02v-10.244
		c0.097,0.008,0.188,0.031,0.288,0.031c1.965,0,3.557-1.592,3.557-3.553C53.245,244.984,51.653,243.391,49.688,243.391z"/>
	<path fill="#FFFFFF" d="M23.729,141.363v82.312c0,2.908,2.359,5.268,5.267,5.268h0.44v0.451v9.33h19.96v-9.33v-5.719v-3.611
		v-78.701H23.729z"/>
	<rect x="29.438" y="228.941" opacity="0.3" fill="#84A8C1" width="19.958" height="9.781"/>
</g>
</svg>
