<?xml version="1.0" encoding="utf-8"?>
<!-- Generator: Adobe Illustrator 16.0.0, SVG Export Plug-In . SVG Version: 6.00 Build 0)  -->
<!DOCTYPE svg PUBLIC "-//W3C//DTD SVG 1.1//EN" "http://www.w3.org/Graphics/SVG/1.1/DTD/svg11.dtd">
<svg version="1.1" id="Layer_1" xmlns="http://www.w3.org/2000/svg" xmlns:xlink="http://www.w3.org/1999/xlink" x="0px" y="0px"
	 width="191.064px" height="511.137px" viewBox="0 0 191.064 511.137" enable-background="new 0 0 191.064 511.137"
	 xml:space="preserve">
<g>
	<path fill="#F9B69B" d="M173.232,242.223c-0.098,0.016-0.186,0.051-0.28,0.073l-0.568-3.778l-0.131-0.867l-19.736,2.968l0,0
		l1.41,9.377l1.86,12.372c0.002,0.008,0,0.014,0,0.014c0.002,0.014,0.006,0.018,0.006,0.018l0.145,0.965l0.097-0.016
		c1.246,4.914,5.991,8.195,11.11,7.426c5.117-0.77,8.688-5.303,8.434-10.365l0.096-0.014l-0.144-0.955c0,0,0-0.014-0.001-0.021
		c0,0-0.004-0.01-0.005-0.02l-1.523-10.128c0.098-0.008,0.191,0.002,0.289-0.014c1.944-0.292,3.281-2.104,2.989-4.042
		C176.987,243.27,175.176,241.931,173.232,242.223z"/>
	<path fill="#FFFFFF" d="M127.955,116.259l16.676,110.329c0.432,2.875,3.116,4.857,5.991,4.426l0.436-0.066l0.067,0.447l1.388,9.227
		l19.739-2.969l-1.389-9.228l-0.85-5.654l-0.537-3.572l-15.425-102.548L127.955,116.259z"/>
	
		<rect x="151.675" y="229.407" transform="matrix(0.9889 -0.1487 0.1487 0.9889 -33.0513 26.6507)" opacity="0.3" fill="#84A8C1" width="19.959" height="9.783"/>
</g>
<g>
	<path fill="#F9B69B" d="M117.722,8.057l-0.51-0.638H80.612v78.072l0,0v29.463h27.929V85.492l0,0v-0.028c0-6.122,0-6.122,0-7.653
		c0-3.569,4.078-4.081,4.078-4.081h8.545V40.066h10.84L117.722,8.057z"/>
	<circle fill="#2E3D49" cx="112.461" cy="20.14" r="1.499"/>
	<path fill="#CE857C" d="M116.054,48.541c-0.572,0-1.039-0.467-1.039-1.039h-1.531c0,1.415,1.153,2.568,2.57,2.568h5.109v-1.529
		H116.054z"/>
	<path fill="none" d="M99.205,22.085c0,0.036,0.01,0.068,0.01,0.105v-0.105H99.205z"/>
	<path fill="#4F575B" d="M78.956-0.103v43.738c0,0,0,0,3.953,0c11.987,0,11.348-11.349,11.348-11.349v-5.069
		c-0.027,0.003-0.051,0.009-0.077,0.009c-2.782,0-5.037-2.254-5.037-5.035c0-2.782,2.255-5.038,5.037-5.038
		c2.745,0,4.967,2.199,5.025,4.933h0.01v0.105v5.035h5.373V14.432c1.709,0,3.926,0,6.887,0c14.025,0,17.088-14.535,17.088-14.535
		H78.956z"/>
</g>
<g>
	<path fill="#1F2328" d="M104.711,506.555c-0.656-5.764-2.232-6.732-13.755-9.781l-7.902-4.521
		c-4.508-2.186-8.129-5.703-10.475-9.947c-0.528-0.957-0.984-1.951-1.378-2.973c-5.459-0.756-5.733,4.297-5.733,4.297l-15.138-3.238
		l-0.437,2.045l-0.609,2.848l-0.609,2.848l-1.316,6.16l-0.58,2.707l-0.346,1.621l16.668,3.564l0.347-1.621l0.577-2.697l6.477,5.9
		l33.991,7.268C104.816,509.518,104.877,508.01,104.711,506.555z"/>
	<polygon fill="#202E42" points="75.43,486.635 50.15,481.229 104.49,227.108 129.181,232.427 128.777,237.022 	"/>
</g>
<g>
	<path fill="#2C313A" d="M177.431,489.436c-2.956-4.992-4.789-5.23-16.551-3.303l-9.062-0.895c-5.007-0.15-9.75-1.883-13.628-4.793
		c-0.871-0.658-1.693-1.379-2.471-2.152c-5.289,1.543-3.476,6.268-3.476,6.268l-15.138,3.234l0.438,2.045l0.608,2.848l0.608,2.848
		l1.316,6.158l0.579,2.709l0.347,1.619l16.668-3.562l-0.346-1.619l-0.577-2.697l8.322,2.734l33.993-7.266
		C178.74,492.096,178.178,490.695,177.431,489.436z"/>
	
		<rect x="89.737" y="227.946" transform="matrix(0.9779 -0.2091 0.2091 0.9779 -72.654 29.3817)" fill="#202E42" width="25.851" height="260.866"/>
</g>
<g>
	<path fill="#FFFFFF" d="M128.672,85.494h-16.016h-0.692l-3.442-7.176l-6.287,18.635l-5.379-18.635h-5.884h-5.18h-5.18v7.176h-5.664
		H58.936c-9.092,0-13.963,7.739-16.467,16.462l-4,12.066l-1,2.819h25.756v92.724h1.631h57.394h6.867v-92.724h24.935
		c-0.812-3.086-0.972-6.44-5.097-17.19S137.76,85.494,128.672,85.494z"/>
	<polygon opacity="0.3" fill="#84A8C1" points="100.015,89.27 96.855,78.318 92.063,87.723 	"/>
	<path opacity="0.3" fill="#84A8C1" d="M103.154,141.599c0,2.168,1.758,3.924,3.927,3.924h15.378c2.168,0,3.925-1.756,3.925-3.924
		v-20.511h-23.229V141.599z"/>
</g>
<path fill="#202E42" d="M63.225,232.427c0,13.214,10.709,23.926,23.925,23.926h18.105c13.213,0,23.926-10.712,23.926-23.926v-15.051
	H63.225V232.427z"/>
<rect x="63.225" y="212.565" fill="#9B390D" width="65.802" height="5.812"/>
<g>
	<path fill="#F9B69B" d="M34.51,246.277c-0.097-0.022-0.191-0.021-0.287-0.034l0.842-3.727l0.193-0.855l-19.469-4.398l0,0
		l-2.09,9.249l-2.756,12.204c-0.002,0.008-0.005,0.012-0.005,0.012c-0.003,0.016-0.003,0.02-0.003,0.02l-0.215,0.951l0.096,0.021
		c-0.622,5.029,2.608,9.811,7.657,10.951c5.048,1.141,10.021-1.787,11.62-6.598l0.096,0.021l0.213-0.941c0,0,0.005-0.012,0.007-0.02
		c0,0,0.001-0.012,0.003-0.021l2.256-9.99c0.094,0.029,0.178,0.07,0.275,0.093c1.916,0.433,3.82-0.769,4.252-2.683
		C37.63,248.615,36.428,246.709,34.51,246.277z"/>
	<path fill="#FFFFFF" d="M37.469,116.841L13.534,221.327c-0.641,2.836,1.142,5.656,3.979,6.298l0.429,0.097l-0.099,0.439
		l-2.057,9.102l19.47,4.398l2.056-9.102l1.26-5.576l0.797-3.523l24.212-107.2L37.469,116.841z"/>
	
		<rect x="16.621" y="229.798" transform="matrix(0.9754 0.2203 -0.2203 0.9754 52.361 -0.0937)" opacity="0.3" fill="#84A8C1" width="19.959" height="9.784"/>
</g>
<line fill="none" stroke="#FFFFFF" stroke-width="0.5" stroke-miterlimit="10" x1="96.126" y1="265.209" x2="109.359" y2="327.877"/>
<line fill="none" stroke="#FFFFFF" stroke-width="0.5" stroke-miterlimit="10" x1="83.05" y1="327.877" x2="96.283" y2="390.545"/>
</svg>
