<?xml version="1.0" encoding="utf-8"?>
<!-- Generator: Adobe Illustrator 16.0.0, SVG Export Plug-In . SVG Version: 6.00 Build 0)  -->
<!DOCTYPE svg PUBLIC "-//W3C//DTD SVG 1.1//EN" "http://www.w3.org/Graphics/SVG/1.1/DTD/svg11.dtd">
<svg version="1.1" id="Layer_1" xmlns="http://www.w3.org/2000/svg" xmlns:xlink="http://www.w3.org/1999/xlink" x="0px" y="0px"
	 width="92.627px" height="172px" viewBox="0 0 92.627 172" enable-background="new 0 0 92.627 172" xml:space="preserve">
<g>
	<g>
		<g>
			<path fill="#2E373E" d="M43.446,166.57c-0.05,0-0.102,0.003-0.15,0.003l-0.002-0.003h-3.348
				c-3.104-2.191-5.129-5.805-5.129-9.891h-0.023v-15.513h-5.815v15.513v0.412v2.734v3.521v6.594h3.644v-4.07l3.746,4.07h3.708
				h3.521h3.224C46.818,168.079,45.31,166.57,43.446,166.57z"/>
			<rect x="28.979" y="110.309" fill="#F8B69C" width="5.815" height="30.858"/>
		</g>
		<rect x="28.979" y="121.191" opacity="0.4" fill="#B78D7E" enable-background="new    " width="5.815" height="2.184"/>
	</g>
	<g>
		<g>
			<path fill="#3C474D" d="M31.757,166.585c-0.052,0-0.1,0.002-0.15,0.006v-0.006h-3.351c-3.102-2.19-5.127-5.803-5.127-9.89h-0.004
				v-15.528h-5.816v15.528h-0.021v3.146v3.524v6.593h3.646v-4.071l3.746,4.071h3.707h3.521h3.222
				C35.129,168.094,33.618,166.585,31.757,166.585z"/>
			<rect x="17.309" y="110.309" fill="#F8B69C" width="5.816" height="30.858"/>
		</g>
		<rect x="17.309" y="121.191" opacity="0.4" fill="#B78D7E" enable-background="new    " width="5.817" height="2.184"/>
	</g>
	<polygon fill="#D6A23A" points="23.879,74.631 25.156,73.676 74.995,141.029 74.286,141.559 	"/>
	<path fill="#F9B69B" d="M35.743,85.27l-0.004,0.002v-0.28v-4.515v-32.84h-5.816v32.84v4.515v3.182h0.011
		c-0.001,0.041-0.011,0.078-0.011,0.117c0,1.607,1.303,2.912,2.91,2.912c1.607,0,2.91-1.305,2.91-2.912
		c0-0.039-0.01-0.076-0.012-0.117l0.008,0.717v-0.549l0.002,0.002c0.852,0,1.539-0.689,1.539-1.537
		C37.28,85.957,36.593,85.27,35.743,85.27z"/>
	<rect x="29.896" y="47.848" opacity="0.4" fill="#B78D7E" enable-background="new    " width="5.814" height="2.183"/>
	<g>
		<path fill="#F8B69C" d="M31.044,2.849l4.066,12.108h-2.866v6.408h-2.98c0,0-1.424,0.177-1.424,1.423c0,0.534,0,4.937,0,7.074
			v2.491h-6.824v-1.6V2.629h9.851L31.044,2.849z"/>
		<path fill="#2F3E4A" d="M30.553,9.706c0,0.287-0.234,0.521-0.525,0.521c-0.285,0-0.522-0.233-0.522-0.521
			c0-0.29,0.237-0.523,0.522-0.523C30.318,9.183,30.553,9.417,30.553,9.706z"/>
		<path fill="#F28A82" d="M31.11,16.992c-0.075,0-0.136-0.06-0.136-0.138H30.44c0,0.372,0.3,0.672,0.669,0.672h1.144v-0.534H31.11z"
			/>
		<path fill="#C2692A" d="M16.224,0v27.46c0,0,1.723,0,3.419,0c5.146,0,4.873-4.873,4.873-4.873V12.165
			c-0.969-0.004-1.753-0.79-1.753-1.759c0-0.97,0.784-1.757,1.757-1.757c0.769,0,1.417,0.497,1.653,1.185l0.024-0.072
			c1.124-0.083,2.011-0.986,2.065-2.117h0.011V6.242c0.5,0,1.127,0,1.915,0C36.21,6.242,37.523,0,37.523,0H16.224z"/>
	</g>
	<path fill="#4C789C" d="M36.566,41.853l0.004-0.004l-0.46-0.71V39.56v-2.595v-3.33c0-1.333-1.079-2.416-2.41-2.416h-3.958h-1.897
		H20.94h-4.133h-1.723c-1.333,0-2.412,1.083-2.412,2.416v3.629h-0.011v10.583h5.843V64.05h2.696h8.541h4.441V48.401
		c1.927-0.26,3.412-1.901,3.412-3.899C37.596,43.479,37.203,42.552,36.566,41.853z"/>
	<polygon fill="#5B4C71" points="34.16,63.074 28.111,63.074 26.296,63.074 24.698,63.074 22.883,63.074 16.833,63.074 
		8.899,121.191 22.883,121.191 28.111,121.191 42.098,121.191 	"/>
	<rect x="19.549" y="55.513" fill="#5B4C71" width="14.635" height="7.561"/>
	<rect x="18.479" y="55.513" fill="#2F3E4A" width="15.704" height="7.641"/>
	<polygon fill="#FFFFFF" points="20.94,31.219 26.079,36.953 26.079,55.513 27.857,55.513 27.857,39.83 27.857,35.742 
		27.857,31.219 	"/>
	<path fill="#F8B69C" d="M18.483,85.27c0,0-0.003,0-0.006,0v-0.281v-4.512V47.848h-5.815v32.629v4.512v3.901h0.011
		c-0.003,0.037-0.011,0.078-0.011,0.115c0,1.609,1.303,2.912,2.909,2.912c1.609,0,2.912-1.303,2.912-2.912
		c0-0.037-0.011-0.078-0.012-0.115h0.006v-0.55c0.002,0,0.005,0,0.006,0c0.848,0,1.536-0.688,1.536-1.536
		C20.02,85.956,19.331,85.27,18.483,85.27z"/>
	<rect x="12.662" y="47.848" opacity="0.4" fill="#B78D7E" enable-background="new    " width="5.817" height="2.183"/>
	<g>
		<path fill="#00AF7E" stroke="#BAD7EE" stroke-width="0.3628" stroke-miterlimit="10" d="M26.188,32.87
			c0,0.734-0.475,1.328-1.059,1.328s-1.06-0.594-1.06-1.328c0-0.736,0.475-1.334,1.06-1.334S26.188,32.134,26.188,32.87z"/>
		<circle fill="#FFFFFF" cx="25.381" cy="32.467" r="0.257"/>
	</g>
</g>
</svg>
