<?xml version="1.0" encoding="utf-8"?>
<!-- Generator: Adobe Illustrator 16.0.0, SVG Export Plug-In . SVG Version: 6.00 Build 0)  -->
<!DOCTYPE svg PUBLIC "-//W3C//DTD SVG 1.1//EN" "http://www.w3.org/Graphics/SVG/1.1/DTD/svg11.dtd">
<svg version="1.1" id="Layer_1" xmlns="http://www.w3.org/2000/svg" xmlns:xlink="http://www.w3.org/1999/xlink" x="0px" y="0px"
	 width="92.627px" height="172px" viewBox="0 0 92.627 172" enable-background="new 0 0 92.627 172" xml:space="preserve">
<g>
	<g>
		<g>
			<path fill="#2E373E" d="M54.855,164.896c-0.049,0.006-0.1,0.016-0.146,0.025v-0.005l-3.318,0.438
				c-3.365-1.767-5.85-5.082-6.387-9.133l-0.02,0.004l-2.035-15.379l-5.768,0.762l2.035,15.377l0.055,0.408l0.357,2.715l0.463,3.49
				l0.865,6.533l3.609-0.479l-0.533-4.033l4.25,3.545l3.674-0.488l3.49-0.46l3.193-0.423C58.396,165.95,56.7,164.652,54.855,164.896
				z"/>
			
				<rect x="32.981" y="77.781" transform="matrix(-0.9914 0.1309 -0.1309 -0.9914 85.8263 213.6427)" fill="#F8B69C" width="5.817" height="63.724"/>
		</g>
		<polygon opacity="0.4" fill="#B78D7E" enable-background="new    " points="40.595,123.027 34.685,123.027 34.458,121.191 
			40.37,121.191 		"/>
	</g>
	<g>
		<g>
			<path fill="#3C474D" d="M16.203,167.973c-0.048-0.013-0.097-0.018-0.146-0.021l0.002-0.006l-3.302-0.584
				c-2.67-2.702-4.032-6.613-3.317-10.635H9.435l2.717-15.291l-5.729-1.019l-2.716,15.289l-0.019-0.005l-0.549,3.1l-0.618,3.471
				l-1.153,6.488l3.587,0.637l0.713-4.008l2.976,4.666l3.649,0.649l3.466,0.61l3.173,0.566
				C19.259,170.05,18.037,168.295,16.203,167.973z"/>
			
				<rect x="11.956" y="77.691" transform="matrix(-0.9846 -0.1749 0.1749 -0.9846 10.3358 220.0223)" fill="#F8B69C" width="5.817" height="63.728"/>
		</g>
		<polygon opacity="0.4" fill="#B78D7E" enable-background="new    " points="15.408,123.027 9.495,123.027 9.838,121.191 
			15.75,121.191 		"/>
	</g>
	<g>
		<path fill="#F8B69C" d="M30.982,2.848l4.064,12.108h-2.863v6.409h-2.981c0,0-1.424,0.178-1.424,1.421c0,0.537,0,4.938,0,7.076
			v2.492h-6.823v-1.603V2.625h9.851L30.982,2.848z"/>
		<path fill="#2F3E4A" d="M30.49,9.704c0,0.29-0.236,0.523-0.523,0.523c-0.285,0-0.523-0.233-0.523-0.523
			c0-0.287,0.238-0.52,0.523-0.52C30.254,9.184,30.49,9.417,30.49,9.704z"/>
		<path fill="#F28A82" d="M31.048,16.993c-0.075,0-0.137-0.062-0.137-0.14h-0.534c0,0.369,0.301,0.673,0.671,0.673h1.145v-0.534
			L31.048,16.993L31.048,16.993z"/>
		<path fill="#C2692A" d="M16.164,0v27.456c0,0,1.718,0,3.417,0c5.146,0,4.873-4.873,4.873-4.873v-10.42
			c-0.968,0-1.752-0.789-1.752-1.76c0-0.968,0.786-1.758,1.755-1.758c0.771,0,1.418,0.501,1.656,1.189l0.022-0.073
			c1.123-0.085,2.011-0.989,2.064-2.121h0.009V6.242c0.503,0,1.128,0,1.917,0C36.148,6.242,37.462,0,37.462,0H16.164z"/>
	</g>
	<g>
		
			<rect x="29.226" y="47.463" transform="matrix(-0.9921 -0.1253 0.1253 -0.9921 57.9282 100.7504)" opacity="0.4" fill="#B78D7E" enable-background="new    " width="5.816" height="2.18"/>
		
			<rect x="29.764" y="41.066" transform="matrix(-0.9921 -0.1252 0.1252 -0.9921 59.5434 92.3068)" fill="#4C789C" width="5.818" height="6.431"/>
		<polygon fill="#D6A23A" points="19.986,72.904 21.374,72.119 62.243,145.264 61.472,145.699 		"/>
		<path fill="#F9B69B" d="M30.402,84.965l-0.006,0.001l0.034-0.277l0.574-4.478l4.176-32.574l-5.767-0.739l-4.176,32.573
			l-0.574,4.479l-0.405,3.156l0.011,0.002c-0.006,0.039-0.021,0.076-0.026,0.115c-0.205,1.594,0.922,3.053,2.516,3.258
			c1.596,0.203,3.053-0.924,3.258-2.518c0.005-0.039-0.002-0.078,0.002-0.117l-0.084,0.709l0.069-0.543l0.004,0.002
			c0.843,0.107,1.614-0.488,1.721-1.328C31.837,85.842,31.242,85.072,30.402,84.965z"/>
	</g>
	<path fill="#4C789C" d="M36.503,41.853l0.004-0.005l-0.459-0.71v-1.581v-2.592v-3.333c0-1.333-1.078-2.413-2.414-2.413H29.68
		h-1.898h-6.905h-4.132h-1.721c-1.333,0-2.412,1.08-2.412,2.413c0,0-0.159,1.843,0,3.631c0.158,1.788-0.012,0-0.012,0l0.396,4.153
		h3.78v22.636h4.364h8.541h4.439V48.398c1.928-0.255,3.414-1.901,3.414-3.9C37.534,43.478,37.142,42.549,36.503,41.853z"/>
	<polygon fill="#5B4C71" points="34.099,63.072 28.048,63.072 26.234,63.072 24.635,63.072 22.822,63.072 16.772,63.072 
		8.835,121.191 22.822,121.191 28.048,121.191 42.034,121.191 	"/>
	<rect x="19.488" y="55.509" fill="#5B4C71" width="14.632" height="7.563"/>
	<rect x="16.776" y="55.509" fill="#2F3E4A" width="17.344" height="7.643"/>
	<polygon fill="#FFFFFF" points="20.877,31.218 26.016,36.953 26.016,55.509 27.797,55.509 27.797,39.829 27.797,35.741 
		27.797,31.218 	"/>
	<g>
		<path fill="#F8B69C" d="M26.005,83.665c-0.002,0.001-0.003,0.001-0.004,0.002l-0.047-0.274l-0.748-4.453l-5.409-32.177
			l-5.734,0.964l5.409,32.178l0.747,4.451l0.646,3.842l0.012-0.002c0.003,0.043,0.001,0.08,0.008,0.121
			c0.268,1.584,1.769,2.652,3.354,2.387c1.585-0.268,2.653-1.768,2.388-3.354c-0.007-0.039-0.022-0.074-0.03-0.115l0.006-0.002
			l-0.092-0.537c0.003,0,0.005,0,0.006,0c0.836-0.141,1.401-0.934,1.261-1.771C27.634,84.085,26.842,83.525,26.005,83.665z"/>
		
			<rect x="14.201" y="47.23" transform="matrix(-0.9862 0.1657 -0.1657 -0.9862 41.9853 93.14)" opacity="0.4" fill="#B78D7E" enable-background="new    " width="5.816" height="2.181"/>
		
			<rect x="13.488" y="40.861" transform="matrix(-0.9862 0.1657 -0.1657 -0.9862 39.8672 84.8264)" fill="#4C789C" width="5.816" height="6.43"/>
	</g>
	<g>
		<path fill="#00AF7E" stroke="#BAD7EE" stroke-width="0.3628" stroke-miterlimit="10" d="M26.126,32.867
			c0,0.732-0.474,1.332-1.06,1.332c-0.584,0-1.06-0.599-1.06-1.332c0-0.734,0.476-1.329,1.06-1.329
			C25.651,31.539,26.126,32.133,26.126,32.867z"/>
		<path fill="#FFFFFF" d="M25.574,32.462c0,0.145-0.114,0.257-0.255,0.257c-0.143,0-0.256-0.113-0.256-0.257
			c0-0.139,0.113-0.255,0.256-0.255C25.46,32.207,25.574,32.324,25.574,32.462z"/>
	</g>
</g>
</svg>
