<?xml version="1.0" encoding="utf-8"?>
<!-- Generator: Adobe Illustrator 16.0.0, SVG Export Plug-In . SVG Version: 6.00 Build 0)  -->
<!DOCTYPE svg PUBLIC "-//W3C//DTD SVG 1.1//EN" "http://www.w3.org/Graphics/SVG/1.1/DTD/svg11.dtd">
<svg version="1.1" id="Layer_1" xmlns="http://www.w3.org/2000/svg" xmlns:xlink="http://www.w3.org/1999/xlink" x="0px" y="0px"
	 width="92.627px" height="172px" viewBox="0 0 92.627 172" enable-background="new 0 0 92.627 172" xml:space="preserve">
<g>
	<polygon fill="#D6A23A" points="32.14,75.141 33.258,74.006 92.627,133.131 92.006,133.762 	"/>
	<g>
		<g>
			<path fill="#2E373E" d="M14.805,167.46c-0.048-0.017-0.096-0.03-0.144-0.045l0.001-0.003l-3.188-1.03
				c-2.279-3.034-3.101-7.098-1.844-10.985l-0.022-0.011l4.766-14.762l-5.536-1.785L4.073,153.6l-0.129,0.396l-0.839,2.603
				l-1.082,3.352L0,166.221l3.468,1.122l1.25-3.875l2.317,5.025l3.524,1.137l3.352,1.08l3.065,0.989
				C17.549,169.932,16.576,168.027,14.805,167.46z"/>
			
				<rect x="18.485" y="77.547" transform="matrix(-0.9518 -0.3069 0.3069 -0.9518 8.181 220.0998)" fill="#F8B69C" width="5.816" height="63.719"/>
		</g>
		<polygon opacity="0.4" fill="#B78D7E" enable-background="new    " points="19.985,123.083 13.905,123.083 14.518,121.191 
			20.638,121.191 		"/>
	</g>
	<g>
		<g>
			<path fill="#3C474D" d="M58.292,160.257c-0.048,0.015-0.097,0.031-0.143,0.052l-0.001-0.007l-3.19,1.017
				c-3.623-1.145-6.648-3.973-7.889-7.865h-0.004l-4.717-14.797l-5.541,1.768l4.713,14.797l-0.016,0.004l0.954,3.002l1.07,3.353
				l1.999,6.282l3.473-1.107l-1.235-3.879l4.805,2.745l3.532-1.123l3.355-1.072l3.067-0.978
				C61.964,160.675,60.066,159.691,58.292,160.257z"/>
			
				<rect x="27" y="77.318" transform="matrix(-0.9527 0.3039 -0.3039 -0.9527 91.5824 204.1078)" fill="#F8B69C" width="5.816" height="63.725"/>
		</g>
		<polygon opacity="0.4" fill="#B78D7E" enable-background="new    " points="37.367,123.083 31.286,123.083 30.666,121.191 
			36.788,121.191 		"/>
	</g>
	<g>
		<path fill="#F8B69C" d="M30.945,2.848l4.064,12.108h-2.864v6.409h-2.98c0,0-1.424,0.178-1.424,1.423c0,0.535,0,4.937,0,7.074
			v2.492h-6.823v-1.599V2.628h9.85L30.945,2.848z"/>
		<circle fill="#2F3E4A" cx="29.93" cy="9.704" r="0.524"/>
		<path fill="#F28A82" d="M31.012,16.993c-0.076,0-0.137-0.062-0.137-0.138H30.34c0,0.371,0.302,0.672,0.671,0.672h1.144v-0.534
			H31.012z"/>
		<path fill="#C2692A" d="M16.127,0v27.459c0,0,1.719,0,3.417,0c5.146,0,4.873-4.872,4.873-4.872V12.164
			c-0.969-0.002-1.753-0.789-1.753-1.759c0-0.968,0.786-1.755,1.756-1.755c0.771,0,1.417,0.498,1.656,1.186L26.1,9.763
			c1.123-0.082,2.01-0.985,2.064-2.118h0.009V6.242c0.502,0,1.127,0,1.917,0C36.11,6.242,37.425,0,37.425,0H16.127z"/>
	</g>
	<path fill="#4C789C" d="M36.466,41.851l0.004-0.002l2.466-0.828c0,0-0.146-1.078-0.217-1.5c-0.279-1.67-1.825-6.36-1.924-6.651
		c-0.453-1.331-1.898-1.697-3.195-1.65h-3.956h-1.897H20.84h-4.132h-1.722c-0.799,0-1.507,0.389-1.944,0.987
		c-0.293,0.399-0.939,2.064-1.17,3.438l-0.719,4.038l-0.141,1.339h5.708v23.031h4.383h8.54h4.44V47.497
		c1.928-0.26,3.414-0.998,3.414-2.995C37.497,43.479,37.106,42.551,36.466,41.851z"/>
	<polygon fill="#5B4C71" points="34.061,63.074 28.011,63.074 26.197,63.074 24.599,63.074 22.785,63.074 16.735,63.074 
		8.798,121.191 22.785,121.191 28.011,121.191 41.997,121.191 	"/>
	<rect x="19.451" y="55.513" fill="#5B4C71" width="14.632" height="7.561"/>
	<rect x="16.72" y="55.513" fill="#2F3E4A" width="17.363" height="7.641"/>
	<polygon fill="#FFFFFF" points="20.84,31.219 25.978,36.953 25.978,55.513 27.759,55.513 27.759,39.83 27.759,35.742 
		27.759,31.219 	"/>
	<g>
		<path fill="#00AF7E" stroke="#BAD7EE" stroke-width="0.3628" stroke-miterlimit="10" d="M26.088,32.869
			c0,0.734-0.475,1.33-1.061,1.33c-0.583,0-1.059-0.596-1.059-1.33c0-0.738,0.476-1.331,1.059-1.331
			C25.614,31.539,26.088,32.131,26.088,32.869z"/>
		<path fill="#FFFFFF" d="M25.537,32.466c0,0.144-0.114,0.254-0.257,0.254c-0.142,0-0.256-0.11-0.256-0.254
			c0-0.142,0.114-0.259,0.256-0.259C25.423,32.207,25.537,32.324,25.537,32.466z"/>
	</g>
	<g>
		<path fill="#F8B69C" d="M10.247,84.678c-0.002,0-0.004,0.002-0.005,0.002l0.042-0.279l0.675-4.462l4.875-32.262l-5.751-0.87
			L5.207,79.071l-0.674,4.461L3.95,87.389l0.013,0.002c-0.01,0.039-0.025,0.076-0.03,0.113c-0.241,1.59,0.854,3.072,2.443,3.312
			c1.59,0.24,3.073-0.854,3.312-2.443c0.006-0.036,0.001-0.076,0.007-0.116L9.7,88.258l0.083-0.543c0.002,0,0.004,0.002,0.005,0.002
			c0.838,0.126,1.623-0.451,1.748-1.289C11.664,85.588,11.085,84.805,10.247,84.678z"/>
		
			<rect x="9.888" y="47.23" transform="matrix(-0.9888 -0.1494 0.1494 -0.9888 18.229 98.0103)" opacity="0.4" fill="#B78D7E" enable-background="new    " width="5.816" height="2.181"/>
		
			<rect x="10.56" y="40.456" transform="matrix(-0.9888 -0.1495 0.1495 -0.9888 20.2278 89.2578)" fill="#4C789C" width="5.817" height="6.826"/>
	</g>
	<path fill="#F9B69B" d="M45.465,83.882l-0.005,0.003l-0.043-0.276l-0.677-4.464l-4.919-32.469l-5.75,0.871l4.92,32.469l0.678,4.464
		l0.476,3.146l0.01-0.003c0.006,0.041,0.001,0.08,0.007,0.119c0.241,1.59,1.726,2.685,3.315,2.441
		c1.588-0.239,2.681-1.725,2.439-3.314c-0.005-0.039-0.021-0.073-0.028-0.112l0.113,0.706L45.92,86.92l0.003,0.002
		c0.841-0.127,1.418-0.913,1.291-1.75C47.086,84.332,46.303,83.755,45.465,83.882z"/>
	
		<rect x="34.205" y="47.232" transform="matrix(-0.9884 0.1517 -0.1517 -0.9884 81.128 90.4562)" opacity="0.4" fill="#B78D7E" enable-background="new    " width="5.816" height="2.181"/>
	<polygon fill="#4C789C" points="39.824,46.805 34.075,47.687 33.04,40.94 38.617,40.084 38.936,41.021 	"/>
</g>
</svg>
