<?xml version="1.0" encoding="utf-8"?>
<!-- Generator: Adobe Illustrator 16.0.0, SVG Export Plug-In . SVG Version: 6.00 Build 0)  -->
<!DOCTYPE svg PUBLIC "-//W3C//DTD SVG 1.1//EN" "http://www.w3.org/Graphics/SVG/1.1/DTD/svg11.dtd">
<svg version="1.1" id="Layer_1" xmlns="http://www.w3.org/2000/svg" xmlns:xlink="http://www.w3.org/1999/xlink" x="0px" y="0px"
	 width="81.736px" height="178.201px" viewBox="0 -6.201 81.736 178.201" enable-background="new 0 -6.201 81.736 178.201"
	 xml:space="preserve">
<g>
	<polygon fill="#D6A23A" points="54.274,73.251 52.77,72.723 80.903,-6.201 81.737,-5.907 	"/>
	<path fill="#F9B69B" d="M54.878,58.084l0.002,0.005h-0.279h-4.515h-32.84v5.816h32.84h4.515h3.183v-0.011
		c0.04,0.001,0.078,0.011,0.117,0.011c1.607,0,2.911-1.303,2.911-2.91s-1.304-2.911-2.911-2.911c-0.039,0-0.077,0.011-0.117,0.012
		l0.716-0.007h-0.548l0.002-0.003c0-0.851-0.689-1.539-1.537-1.539C55.567,56.547,54.878,57.236,54.878,58.084z"/>
	<g>
		<g>
			<path fill="#2E373E" d="M43.384,166.527c-0.05,0-0.102,0.002-0.15,0.002l-0.002-0.002h-3.348
				c-3.104-2.191-5.129-5.805-5.129-9.891h-0.023v-15.514h-5.815v15.514v0.412v2.734v3.521v6.594h3.644v-4.07l3.746,4.07h3.708
				h3.521h3.224C46.756,168.035,45.247,166.527,43.384,166.527z"/>
			<rect x="28.916" y="110.266" fill="#F8B69C" width="5.815" height="30.857"/>
		</g>
		<rect x="28.916" y="121.148" opacity="0.4" fill="#B78D7E" enable-background="new    " width="5.815" height="2.184"/>
	</g>
	<g>
		<g>
			<path fill="#3C474D" d="M31.695,166.541c-0.052,0-0.1,0.002-0.15,0.006v-0.006h-3.351c-3.102-2.189-5.127-5.803-5.127-9.889
				h-0.004v-15.529h-5.816v15.529h-0.021v3.145v3.525v6.592h3.646v-4.07l3.746,4.07h3.707h3.521h3.222
				C35.067,168.051,33.556,166.541,31.695,166.541z"/>
			<rect x="17.246" y="110.266" fill="#F8B69C" width="5.816" height="30.857"/>
		</g>
		<rect x="17.246" y="121.148" opacity="0.4" fill="#B78D7E" enable-background="new    " width="5.817" height="2.184"/>
	</g>
	<path fill="#F8B69C" d="M35.65,59.946V47.594h-5.814v12.351L35.65,59.946z"/>
	<rect x="29.834" y="47.805" opacity="0.4" fill="#B78D7E" enable-background="new    " width="5.814" height="2.183"/>
	<g>
		<path fill="#F8B69C" d="M30.982,2.806l4.066,12.108h-2.866v6.408h-2.98c0,0-1.424,0.177-1.424,1.423c0,0.534,0,4.937,0,7.074
			v2.491h-6.824v-1.6V2.585h9.851L30.982,2.806z"/>
		<path fill="#2F3E4A" d="M30.49,9.663c0,0.287-0.234,0.521-0.525,0.521c-0.285,0-0.522-0.233-0.522-0.521
			c0-0.29,0.237-0.523,0.522-0.523C30.256,9.14,30.49,9.374,30.49,9.663z"/>
		<path fill="#F28A82" d="M31.048,16.949c-0.075,0-0.136-0.06-0.136-0.138h-0.534c0,0.372,0.3,0.672,0.669,0.672h1.144v-0.534
			H31.048z"/>
		<path fill="#C2692A" d="M16.161-0.043v27.46c0,0,1.723,0,3.419,0c5.146,0,4.873-4.873,4.873-4.873V12.122
			c-0.969-0.004-1.753-0.79-1.753-1.759c0-0.97,0.784-1.757,1.757-1.757c0.769,0,1.417,0.497,1.653,1.185l0.024-0.072
			c1.124-0.083,2.011-0.986,2.065-2.117h0.011V6.199c0.5,0,1.127,0,1.915,0c6.021,0,7.335-6.242,7.335-6.242H16.161z"/>
	</g>
	<path fill="#4C789C" d="M36.504,41.81l0.004-0.004l-0.46-0.71v-1.579v-2.595v-3.33c0-1.333-1.079-2.416-2.41-2.416H29.68h-1.897
		h-6.904h-4.133h-1.723c-1.333,0-2.412,1.083-2.412,2.416v3.629H12.6v10.583h5.843v16.203h2.696h8.541h4.441V48.357
		c1.927-0.26,3.412-1.901,3.412-3.899C37.533,43.436,37.141,42.508,36.504,41.81z"/>
	<polygon fill="#5B4C71" points="34.098,63.031 28.049,63.031 26.234,63.031 24.636,63.031 22.821,63.031 16.771,63.031 
		8.837,121.148 22.821,121.148 28.049,121.148 42.035,121.148 	"/>
	<rect x="19.487" y="55.47" fill="#5B4C71" width="14.635" height="7.561"/>
	<rect x="18.417" y="55.47" fill="#2F3E4A" width="15.704" height="7.641"/>
	<polygon fill="#FFFFFF" points="20.878,31.175 26.017,36.91 26.017,55.47 27.795,55.47 27.795,39.787 27.795,35.699 27.795,31.175 
			"/>
	<path fill="#F8B69C" d="M18.421,85.227c0,0-0.003,0-0.006,0v-0.281v-4.512V47.805H12.6v32.629v4.512v3.902h0.011
		c-0.003,0.037-0.011,0.078-0.011,0.115c0,1.609,1.303,2.912,2.909,2.912c1.609,0,2.912-1.303,2.912-2.912
		c0-0.037-0.011-0.078-0.012-0.115h0.006v-0.551c0.002,0,0.005,0,0.006,0c0.848,0,1.536-0.688,1.536-1.535
		C19.957,85.912,19.269,85.227,18.421,85.227z"/>
	<rect x="12.6" y="47.805" opacity="0.4" fill="#B78D7E" enable-background="new    " width="5.817" height="2.183"/>
	<g>
		<path fill="#00AF7E" stroke="#BAD7EE" stroke-width="0.3628" stroke-miterlimit="10" d="M26.125,32.827
			c0,0.734-0.475,1.328-1.059,1.328s-1.06-0.594-1.06-1.328c0-0.736,0.475-1.334,1.06-1.334S26.125,32.09,26.125,32.827z"/>
		<circle fill="#FFFFFF" cx="25.319" cy="32.424" r="0.257"/>
	</g>
</g>
</svg>
