<?xml version="1.0" encoding="utf-8"?>
<!-- Generator: Adobe Illustrator 16.0.0, SVG Export Plug-In . SVG Version: 6.00 Build 0)  -->
<!DOCTYPE svg PUBLIC "-//W3C//DTD SVG 1.1//EN" "http://www.w3.org/Graphics/SVG/1.1/DTD/svg11.dtd">
<svg version="1.1" id="Layer_1" xmlns="http://www.w3.org/2000/svg" xmlns:xlink="http://www.w3.org/1999/xlink" x="0px" y="0px"
	 width="83.695px" height="182.292px" viewBox="0 0 83.695 182.292" enable-background="new 0 0 83.695 182.292"
	 xml:space="preserve">
<g>
	<path fill="#F8B69C" d="M34.905,7.452l-0.176-0.223H22.03V34.32h-1.743v10.222h12.9V34.321h-1.468V34.31v-2.655
		c0-1.239,1.416-1.417,1.416-1.417h2.965V18.557h3.76L34.905,7.452z"/>
	<path fill="#2F3E4A" d="M33.601,11.643c0,0.288-0.232,0.521-0.52,0.521s-0.52-0.233-0.52-0.521c0-0.287,0.232-0.521,0.52-0.521
		S33.601,11.356,33.601,11.643"/>
	<g opacity="0.4">
		<g>
			<g>
				<defs>
					<rect id="SVGID_1_" x="28.486" y="9.494" width="7.615" height="20.708"/>
				</defs>
				<clipPath id="SVGID_2_">
					<use xlink:href="#SVGID_1_"  overflow="visible"/>
				</clipPath>
				<path clip-path="url(#SVGID_2_)" fill="#A3852F" d="M28.491,13.254v9.56c0,0-0.014,1.624,0,2.167
					c0.054,2.118-0.222,5.221,3.275,5.221h4.334V18.521h-2.037H32.03c-1.149,0-1.681-0.576-1.681-1.683V9.494h-1.858V13.254z"/>
			</g>
		</g>
	</g>
	<path fill="#A3852F" d="M35.802,1.031c-1.076,0-2.006,0.581-2.521,1.437c-0.385-0.548-1.02-0.909-1.74-0.909
		c-0.489,0-0.934,0.169-1.293,0.449c-0.311-1.18-1.375-2.052-2.65-2.052c-1.253,0-2.294,0.841-2.632,1.979
		c-0.294-0.233-0.659-0.376-1.063-0.376c-0.701,0-1.3,0.418-1.57,1.016c-0.393-0.201-0.834-0.326-1.307-0.326
		c-1.589,0-2.875,1.284-2.875,2.875c0,1.075,0.596,2.001,1.471,2.494c-0.521,0.324-0.868,0.896-0.868,1.555
		c0,0.442,0.163,0.842,0.424,1.162c-0.614,0.379-1.026,1.055-1.026,1.829c0,1.118,0.855,2.025,1.945,2.136
		c-0.336,0.342-0.546,0.814-0.546,1.334c0,0.897,0.624,1.648,1.46,1.849c-0.413,0.194-0.702,0.611-0.702,1.1
		c0,0.647,0.509,1.172,1.148,1.207v0.008h1.372c4.159,0,3.938-3.939,3.938-3.939v-1.758c-0.009,0-0.019,0.003-0.028,0.003
		c-0.964,0-1.747-0.784-1.747-1.749s0.783-1.749,1.747-1.749c0.954,0,1.725,0.763,1.745,1.711h0.004v0.038v1.749h1.864V9.66h2.389
		c3.899,0,5.353-3.228,5.778-4.514c0.151-0.359,0.236-0.75,0.236-1.161C38.753,2.354,37.431,1.031,35.802,1.031 M29.575,4.617
		c0.014-0.015,0.025-0.034,0.042-0.049c0.007,0.019,0.019,0.035,0.028,0.049H29.575z"/>
	<path fill="#F8B69C" d="M36.101,21.267h-1.97c-0.454,0-1.371,0.044-1.371,1.196v0.889h3.34V21.267z"/>
	<path fill="#CF867C" d="M34.329,22.095c-0.2,0-0.361-0.162-0.361-0.36h-0.532c0,0.49,0.399,0.89,0.894,0.89h1.772v-0.53H34.329z"/>
	<path fill="#F8B69C" d="M42.542,94.512c-0.035,0-0.068,0.008-0.102,0.01v-0.55v-1.076h-6.924v1.076v2.212v2.69h0.032
		c0.175,1.75,1.634,3.123,3.431,3.123c1.793,0,3.254-1.373,3.429-3.123h0.032v-1.903c0.033,0.004,0.065,0.01,0.102,0.01
		c0.682,0,1.232-0.554,1.232-1.231C43.774,95.065,43.224,94.512,42.542,94.512"/>
	<path fill="#415728" d="M44.422,59.108v28.565c0,1.008-0.819,1.827-1.827,1.827H42.44v0.156v3.239h-6.924v-3.239v-1.983v-1.254
		V59.108H44.422z"/>
	<rect x="35.515" y="89.5" fill="#D65228" width="6.926" height="3.395"/>
	<path fill="#402A19" d="M50.211,178.316c-0.642-1.908-1.246-2.123-5.377-2.32l-3.011-0.963c-1.688-0.412-3.172-1.344-4.274-2.613
		c-0.247-0.285-0.476-0.59-0.685-0.908c-1.906,0.138-1.635,1.873-1.635,1.873h-5.37v0.726v1.011v1.012v2.186v0.965v0.574h5.913
		v-0.574v-0.963l2.627,1.531h12.062C50.462,179.314,50.372,178.8,50.211,178.316"/>
	<polygon fill="#D6A23A" points="35.009,82.716 36.549,82.194 63.657,163.356 62.803,163.642 	"/>
	<path fill="#A2742A" d="M16.052,84.726c0,4.566,3.698,8.264,8.262,8.264h6.253c4.564,0,8.263-3.698,8.263-8.264v-4.512H16.052
		V84.726z"/>
	<rect x="29.86" y="82.491" fill="#A2742A" width="8.969" height="91.193"/>
	<path fill="#5C412E" d="M36.345,178.316c-0.641-1.908-1.242-2.123-5.375-2.32l-3.011-0.963c-1.688-0.412-3.171-1.344-4.275-2.613
		c-0.248-0.285-0.475-0.59-0.683-0.908c-1.906,0.138-1.633,1.873-1.633,1.873h-5.372v0.726v1.011v1.012v2.186v0.965v0.574h5.913
		v-0.574v-0.963l2.628,1.531h12.062C36.599,179.314,36.511,178.8,36.345,178.316"/>
	<rect x="15.996" y="82.491" fill="#A2742A" width="8.969" height="91.193"/>
	<rect x="15.996" y="78.427" fill="#5C412E" width="22.833" height="2.017"/>
	<rect x="20.872" y="78.427" fill="#A2742A" width="1.025" height="2.91"/>
	<rect x="35.562" y="78.427" fill="#A2742A" width="1.021" height="2.91"/>
	<path fill="#415728" d="M38.705,34.321h-4.435c-1.418,2.627-4.197,4.417-7.395,4.417c-3.199,0-5.979-1.789-7.399-4.417h-4.968
		c-3.157,0-5.715,2.559-5.715,5.714v4.184v16.595h7.202v17.612h0.567h19.913h2.385V60.814h5.555V54.07v-5.944v-8.091
		C44.415,36.879,41.856,34.321,38.705,34.321"/>
	<path fill="#D65228" d="M26.877,38.734c3.196,0,5.976-1.786,7.396-4.414h-1.125h-1.401h-0.022c-1.149,1.4-2.894,2.292-4.847,2.292
		c-1.955,0-3.701-0.893-4.85-2.292h-1.964h-0.586C20.898,36.948,23.678,38.734,26.877,38.734"/>
	<path fill="#D65228" d="M30.546,53.79c0,0.75,0.611,1.361,1.363,1.361h5.334c0.752,0,1.361-0.611,1.361-1.361v-7.116h-8.06
		L30.546,53.79L30.546,53.79z"/>
	<path fill="#F8B69C" d="M17.801,94.404c-0.034,0-0.064,0.01-0.098,0.012v-0.551v-1.078h-6.927v1.078v2.213v4.34v0.004
		c0,0,0,0.006,0,0.012v0.335h0.033c0.174,1.75,1.633,3.121,3.429,3.121c1.797,0,3.255-1.371,3.431-3.121h0.034v-0.335
		c0-0.006,0-0.006,0-0.006c0-0.006,0-0.008,0-0.008v-3.555c0.033,0,0.063,0.008,0.098,0.008c0.683,0,1.236-0.551,1.236-1.231
		S18.483,94.404,17.801,94.404"/>
	<path fill="#415728" d="M8.794,59.001v28.564c0,1.008,0.819,1.829,1.827,1.829h0.154v0.155v3.238h6.927v-3.238v-1.984v-1.251
		V59.001H8.794z"/>
	<rect x="10.775" y="89.394" fill="#D65228" width="6.927" height="3.393"/>
</g>
</svg>
