<?xml version="1.0" encoding="utf-8"?>
<!-- Generator: Adobe Illustrator 16.0.0, SVG Export Plug-In . SVG Version: 6.00 Build 0)  -->
<!DOCTYPE svg PUBLIC "-//W3C//DTD SVG 1.1//EN" "http://www.w3.org/Graphics/SVG/1.1/DTD/svg11.dtd">
<svg version="1.1" id="Layer_1" xmlns="http://www.w3.org/2000/svg" xmlns:xlink="http://www.w3.org/1999/xlink" x="0px" y="0px"
	 width="83.695px" height="182.292px" viewBox="0 0 83.695 182.292" enable-background="new 0 0 83.695 182.292"
	 xml:space="preserve">
<g>
	<path fill="#F8B69C" d="M34.905,7.453l-0.176-0.224H22.03V34.32h-1.743v10.223h12.899V34.32H31.72v-0.01v-2.657
		c0-1.236,1.416-1.415,1.416-1.415h2.967v-11.68h3.758L34.905,7.453z"/>
	<path fill="#2F3E4A" d="M33.601,11.643c0,0.287-0.232,0.521-0.52,0.521s-0.521-0.234-0.521-0.521s0.233-0.52,0.521-0.52
		C33.367,11.124,33.601,11.356,33.601,11.643"/>
	<g opacity="0.4">
		<g>
			<g>
				<defs>
					<rect id="SVGID_1_" x="28.485" y="9.494" width="7.617" height="20.707"/>
				</defs>
				<clipPath id="SVGID_2_">
					<use xlink:href="#SVGID_1_"  overflow="visible"/>
				</clipPath>
				<path clip-path="url(#SVGID_2_)" fill="#A3852F" d="M28.491,13.255v9.559c0,0-0.014,1.624,0,2.168
					c0.054,2.118-0.223,5.219,3.275,5.219h4.334v-11.68h-2.039h-2.033c-1.148,0-1.68-0.575-1.68-1.683V9.494H28.49L28.491,13.255
					L28.491,13.255z"/>
			</g>
		</g>
	</g>
	<path fill="#A3852F" d="M35.801,1.032c-1.075,0-2.006,0.581-2.522,1.436c-0.385-0.547-1.021-0.909-1.74-0.909
		c-0.488,0-0.934,0.17-1.292,0.45c-0.312-1.181-1.376-2.053-2.649-2.053c-1.254,0-2.296,0.841-2.633,1.98
		c-0.294-0.233-0.66-0.377-1.064-0.377c-0.699,0-1.299,0.419-1.568,1.016c-0.395-0.2-0.834-0.325-1.307-0.325
		c-1.59,0-2.875,1.285-2.875,2.875c0,1.073,0.596,2,1.471,2.493c-0.521,0.325-0.868,0.897-0.868,1.554
		c0,0.443,0.163,0.843,0.423,1.162c-0.613,0.381-1.025,1.057-1.025,1.831c0,1.116,0.855,2.026,1.945,2.135
		c-0.336,0.342-0.547,0.815-0.547,1.335c0,0.897,0.624,1.646,1.461,1.848c-0.412,0.193-0.701,0.61-0.701,1.099
		c0,0.648,0.508,1.173,1.146,1.208v0.007h1.373c4.158,0,3.938-3.94,3.938-3.94v-1.756c-0.009,0-0.019,0.003-0.027,0.003
		c-0.965,0-1.747-0.784-1.747-1.749s0.782-1.749,1.747-1.749c0.953,0,1.724,0.763,1.744,1.711h0.004v0.038v1.749h1.865V9.661h2.389
		c3.898,0,5.353-3.229,5.779-4.515c0.151-0.358,0.235-0.75,0.235-1.16C38.752,2.354,37.431,1.032,35.801,1.032 M29.575,4.617
		c0.014-0.016,0.025-0.033,0.042-0.048c0.007,0.019,0.019,0.033,0.028,0.048H29.575z"/>
	<path fill="#F8B69C" d="M36.103,21.267h-1.971c-0.453,0-1.371,0.045-1.371,1.198v0.887h3.342V21.267z"/>
	<path fill="#CF867C" d="M34.329,22.096c-0.2,0-0.361-0.162-0.361-0.361h-0.531c0,0.492,0.398,0.892,0.894,0.892h1.772v-0.53
		L34.329,22.096L34.329,22.096z"/>
	<g>
		<path fill="#415728" d="M44.304,46.324L39.282,87.26c-0.123,1.002-1.035,1.715-2.035,1.593l-0.152-0.02l-0.02,0.156l-0.395,3.215
			l-6.875-0.844l0.396-3.215l0.241-1.971l0.154-1.244l4.866-39.691L44.304,46.324z"/>
		
			<rect x="30.012" y="88.301" transform="matrix(-0.9926 -0.1217 0.1217 -0.9926 55.7507 183.4)" fill="#D65228" width="6.928" height="3.394"/>
		<path fill="#F8B69C" d="M36.61,93.801c-0.035-0.005-0.068-0.001-0.102-0.003l0.067-0.546l0.13-1.069l-6.873-0.835l-0.131,1.068
			l-0.268,2.195l-0.324,2.67l0.031,0.004c-0.038,1.759,1.244,3.298,3.029,3.517c1.779,0.215,3.396-0.972,3.781-2.687l0.031,0.003
			l0.23-1.888c0.031,0.007,0.063,0.017,0.1,0.021c0.676,0.082,1.289-0.4,1.372-1.072C37.768,94.499,37.288,93.883,36.61,93.801"/>
		<polygon fill="#D6A23A" points="30.56,81.181 32.151,80.849 49.253,164.692 48.369,164.873 		"/>
	</g>
	<path fill="#402A19" d="M66.733,174.777c-0.967-1.764-1.599-1.869-5.699-1.344l-3.133-0.42c-1.734-0.111-3.359-0.77-4.668-1.826
		c-0.295-0.238-0.57-0.5-0.832-0.775c-1.853,0.469-1.279,2.131-1.279,2.131l-5.289,0.939l0.127,0.717l0.176,0.992l0.178,0.998
		l0.383,2.148l0.169,0.947l0.102,0.563l5.822-1.033l-0.103-0.563l-0.166-0.947l2.854,1.051l11.875-2.109
		C67.155,175.716,66.978,175.223,66.733,174.777"/>
	<path fill="#A2742A" d="M16.052,84.727c0,4.565,3.698,8.265,8.262,8.265h6.252c4.565,0,8.264-3.699,8.264-8.265v-4.512H16.052
		V84.727z"/>
	
		<rect x="37.84" y="82.502" transform="matrix(-0.9846 0.1749 -0.1749 -0.9846 106.3979 246.8217)" fill="#A2742A" width="8.968" height="91.194"/>
	<g>
		<path fill="#5C412E" d="M20.323,180.031c-0.316-1.986-0.877-2.297-4.918-3.18l-2.811-1.445c-1.596-0.686-2.902-1.852-3.783-3.287
			c-0.196-0.324-0.371-0.66-0.521-1.006c-1.904-0.18-1.921,1.576-1.921,1.576l-5.3-0.891l-0.118,0.715l-0.168,0.996l-0.167,0.998
			l-0.361,2.156l-0.158,0.946L0,178.177l5.833,0.98l0.096-0.568l0.157-0.942l2.338,1.94l11.894,2.002
			C20.407,181.057,20.405,180.533,20.323,180.031"/>
		
			<rect x="8.512" y="82.268" transform="matrix(-0.9862 -0.1655 0.1655 -0.9862 4.6464 256.1187)" fill="#A2742A" width="8.967" height="91.195"/>
	</g>
	<rect x="15.996" y="77.428" fill="#5C412E" width="22.833" height="3.017"/>
	<rect x="20.872" y="78.428" fill="#A2742A" width="1.023" height="2.909"/>
	<rect x="35.562" y="78.428" fill="#A2742A" width="1.023" height="2.909"/>
	<path fill="#415728" d="M38.706,34.32h-4.436c-1.418,2.627-4.196,4.417-7.395,4.417c-3.197,0-5.979-1.791-7.398-4.417h-4.969
		c-3.156,0-5.715,2.559-5.715,5.715l0.161,2.408l0.353,3.881h6.688v32.104h0.567h19.914h2.383V46.324h5.443l0.11-4.006v-2.283
		C44.415,36.879,41.858,34.32,38.706,34.32"/>
	<path fill="#D65228" d="M26.876,38.734c3.197,0,5.977-1.787,7.396-4.414h-1.125h-1.401h-0.022
		c-1.148,1.401-2.894,2.293-4.848,2.293c-1.955,0-3.7-0.892-4.85-2.293h-1.963h-0.586C20.897,36.947,23.679,38.734,26.876,38.734"/>
	<path fill="#D65228" d="M30.546,53.791c0,0.75,0.611,1.36,1.363,1.36h5.333c0.752,0,1.362-0.61,1.362-1.36v-7.116h-8.06
		L30.546,53.791L30.546,53.791z"/>
	<g>
		<path fill="#F8B69C" d="M26.21,91.921c-0.033,0.004-0.062,0.019-0.095,0.027l-0.095-0.545l-0.182-1.062l-6.826,1.167l0.182,1.062
			l0.373,2.183l0.729,4.276c0,0.003,0.001,0.007,0.001,0.007c0.001,0.004,0.001,0.004,0.002,0.01l0.057,0.33l0.033-0.006
			c0.467,1.694,2.135,2.799,3.906,2.498c1.771-0.303,2.977-1.897,2.854-3.652l0.033-0.006l-0.056-0.332
			c-0.001-0.004-0.001-0.004-0.001-0.01l-0.001-0.004l-0.601-3.502c0.033-0.006,0.064-0.005,0.1-0.01
			c0.673-0.115,1.126-0.75,1.011-1.424C27.522,92.259,26.884,91.806,26.21,91.921"/>
		<path fill="#415728" d="M9.308,46.324l6.873,40.373c0.17,0.994,1.114,1.663,2.108,1.493l0.151-0.025l0.026,0.151l0.546,3.194
			l6.826-1.167l-0.546-3.193l-0.334-1.954l-0.209-1.234l-6.735-39.418L9.308,46.324z"/>
		
			<rect x="18.676" y="87.556" transform="matrix(-0.9857 0.1684 -0.1684 -0.9857 58.9932 173.5018)" fill="#D65228" width="6.926" height="3.393"/>
	</g>
</g>
</svg>
