<?xml version="1.0" encoding="utf-8"?>
<!-- Generator: Adobe Illustrator 16.0.0, SVG Export Plug-In . SVG Version: 6.00 Build 0)  -->
<!DOCTYPE svg PUBLIC "-//W3C//DTD SVG 1.1//EN" "http://www.w3.org/Graphics/SVG/1.1/DTD/svg11.dtd">
<svg version="1.1" id="Layer_1" xmlns="http://www.w3.org/2000/svg" xmlns:xlink="http://www.w3.org/1999/xlink" x="0px" y="0px"
	 width="83.695px" height="182.292px" viewBox="0 0 83.695 182.292" enable-background="new 0 0 83.695 182.292"
	 xml:space="preserve">
<path fill="#F8B69C" d="M34.872,7.451l-0.176-0.219h-12.7v27.089h-1.743v10.222h12.901V34.322h-1.469v-0.01v-2.655
	c0-1.24,1.416-1.416,1.416-1.416h2.966V18.556h3.76L34.872,7.451z"/>
<path fill="#2F3E4A" d="M33.566,11.646c0,0.285-0.232,0.519-0.52,0.519s-0.52-0.234-0.52-0.519c0-0.287,0.232-0.522,0.52-0.522
	S33.566,11.36,33.566,11.646"/>
<g opacity="0.4">
	<g>
		<g>
			<defs>
				<rect id="SVGID_1_" x="28.453" y="9.494" width="7.614" height="20.71"/>
			</defs>
			<clipPath id="SVGID_2_">
				<use xlink:href="#SVGID_1_"  overflow="visible"/>
			</clipPath>
			<path clip-path="url(#SVGID_2_)" fill="#A3852F" d="M28.457,13.255v9.559c0,0-0.013,1.625,0,2.167
				c0.054,2.121-0.222,5.224,3.275,5.224h4.335V18.521H34.03h-2.034c-1.149,0-1.681-0.575-1.681-1.682V9.494h-1.858V13.255z"/>
		</g>
	</g>
</g>
<path fill="#A3852F" d="M35.767,1.032c-1.076,0-2.005,0.581-2.521,1.437c-0.384-0.548-1.02-0.909-1.74-0.909
	c-0.488,0-0.934,0.172-1.293,0.449c-0.311-1.179-1.375-2.053-2.65-2.053c-1.253,0-2.294,0.841-2.632,1.98
	c-0.294-0.232-0.66-0.376-1.064-0.376c-0.701,0-1.3,0.418-1.57,1.016c-0.393-0.202-0.833-0.327-1.307-0.327
	c-1.589,0-2.874,1.285-2.874,2.875c0,1.073,0.595,2.001,1.471,2.494c-0.521,0.323-0.869,0.899-0.869,1.556
	c0,0.442,0.164,0.841,0.424,1.16c-0.614,0.381-1.025,1.055-1.025,1.83c0,1.118,0.854,2.027,1.945,2.134
	c-0.337,0.346-0.547,0.815-0.547,1.337c0,0.899,0.624,1.646,1.46,1.85c-0.413,0.192-0.702,0.608-0.702,1.097
	c0,0.647,0.51,1.176,1.148,1.205V19.8h1.373c4.158,0,3.937-3.94,3.937-3.94v-1.758c-0.009,0-0.019,0.002-0.027,0.002
	c-0.964,0-1.748-0.78-1.748-1.747c0-0.967,0.784-1.748,1.748-1.748c0.953,0,1.724,0.761,1.744,1.711h0.004v0.037v1.747h1.864V9.665
	h2.389c3.898,0,5.354-3.231,5.779-4.519c0.15-0.358,0.236-0.75,0.236-1.156C38.72,2.354,37.396,1.032,35.767,1.032 M29.541,4.621
	c0.014-0.016,0.026-0.036,0.043-0.052c0.007,0.018,0.018,0.035,0.027,0.052H29.541z"/>
<path fill="#F8B69C" d="M36.067,21.27h-1.97c-0.453,0-1.37,0.045-1.37,1.194v0.889h3.34V21.27z"/>
<path fill="#CF867C" d="M34.294,22.099c-0.199,0-0.361-0.165-0.361-0.363h-0.532c0,0.49,0.4,0.89,0.894,0.89h1.772v-0.527H34.294z"
	/>
<g>
	<g>
		<path fill="#415728" d="M46.619,43.968l0.825,3.847l5.55,36.37c0.155,0.997-0.532,1.93-1.529,2.083l-0.151,0.023l0.024,0.155
			l0.488,3.199l-6.847,1.045l-0.487-3.199l-0.302-1.962l-0.188-1.237l-6.245-40.884L46.619,43.968z"/>
	</g>
	
		<rect x="44.736" y="86.798" transform="matrix(-0.9885 0.1509 -0.1509 -0.9885 109.2024 168.6989)" fill="#D65228" width="6.926" height="3.392"/>
</g>
<path fill="#A2742A" d="M16.017,84.73c0,4.562,3.698,8.262,8.263,8.262h6.252c4.564,0,8.263-3.7,8.263-8.262v-4.517H16.017V84.73z"
	/>
<g>
	<path fill="#402A19" d="M30.156,180.783c-0.23-2.002-0.777-2.336-4.777-3.389l-2.745-1.566c-1.564-0.758-2.823-1.975-3.639-3.449
		c-0.184-0.33-0.342-0.676-0.48-1.026c-1.894-0.263-1.986,1.492-1.986,1.492l-5.254-1.117l-0.151,0.711l-0.21,0.985l-0.21,0.992
		l-0.455,2.138l-0.198,0.938l-0.12,0.562l5.785,1.229l0.119-0.561l0.199-0.938l2.251,2.045l11.797,2.506
		C30.194,181.811,30.213,181.287,30.156,180.783"/>
	<polygon fill="#A2742A" points="27.348,139.244 19.985,173.884 11.212,172.02 22.786,117.559 	"/>
	<polygon fill="#A2742A" points="27.557,95.111 30.17,82.815 38.711,84.633 38.644,86.092 32.122,116.774 	"/>
</g>
<g>
	<path fill="#5C412E" d="M55.743,173.785c-1.023-1.729-1.659-1.816-5.742-1.147l-3.145-0.313c-1.736-0.052-3.381-0.654-4.728-1.666
		c-0.3-0.229-0.586-0.48-0.856-0.746c-1.836,0.532-1.207,2.172-1.207,2.172l-5.254,1.117l0.15,0.713l0.212,0.985l0.21,0.99
		l0.454,2.137l0.202,0.938l0.118,0.563l5.784-1.229l-0.121-0.562l-0.197-0.939l2.889,0.953l11.795-2.512
		C56.196,174.71,56.002,174.225,55.743,173.785"/>
	<polygon fill="#A2742A" points="43.646,171.623 34.873,173.494 16.017,84.73 24.654,82.428 	"/>
</g>
<rect x="15.961" y="78.428" fill="#5C412E" width="22.833" height="2.016"/>
<rect x="20.837" y="78.428" fill="#A2742A" width="1.025" height="2.91"/>
<rect x="35.528" y="78.428" fill="#A2742A" width="1.021" height="2.91"/>
<path fill="#415728" d="M38.671,34.322h-4.436c-1.418,2.629-4.197,4.418-7.395,4.418c-3.199,0-5.979-1.789-7.398-4.418h-4.97
	c-3.157,0-5.232,2-6.312,5.713l-0.557,4.187L7.43,45.363h8.531v33.064h0.568H36.44h2.385V47.815h8.617c0,0-0.76-4.576-1.975-7.37
	C44.188,37.499,42.442,34.407,38.671,34.322"/>
<path fill="#D65228" d="M26.842,38.738c3.196,0,5.976-1.787,7.396-4.416h-1.125h-1.401H31.69c-1.149,1.399-2.895,2.293-4.848,2.293
	c-1.955,0-3.701-0.896-4.849-2.293H20.03h-0.586C20.864,36.951,23.643,38.738,26.842,38.738"/>
<path fill="#D65228" d="M30.511,53.791c0,0.753,0.611,1.361,1.363,1.361h5.334c0.752,0,1.361-0.608,1.361-1.361v-7.117h-8.06v7.117
	H30.511z"/>
<g>
	<g>
		<path fill="#F8B69C" d="M9.716,90.527c-0.035-0.003-0.066,0-0.1-0.002l0.082-0.547l0.159-1.067l-6.85-1.024l-0.159,1.066
			l-0.327,2.184l-0.644,4.296c-0.001,0.003-0.001,0.005-0.002,0.005c-0.001,0.007,0.001,0.006-0.001,0.011l-0.05,0.328l0.035,0.01
			c-0.089,1.752,1.15,3.324,2.927,3.594c1.776,0.266,3.423-0.873,3.852-2.582l0.035,0.008l0.05-0.332
			c0.002-0.002,0.002-0.006,0.002-0.008s0-0.004,0-0.004l0.528-3.517c0.032,0.009,0.063,0.017,0.098,0.022
			c0.674,0.102,1.301-0.362,1.402-1.035C10.856,91.256,10.392,90.627,9.716,90.527"/>
		<path fill="#415728" d="M8.198,40.286L1.883,82.424c-0.148,0.996,0.539,1.928,1.538,2.077l0.15,0.021l-0.022,0.155l-0.482,3.204
			l6.852,1.024l0.479-3.201l0.294-1.962l0.187-1.239l6.128-40.899L8.198,40.286z"/>
	</g>
	
		<rect x="3.263" y="85.032" transform="matrix(-0.9896 -0.1438 0.1438 -0.9896 0.9117 173.5234)" fill="#D65228" width="6.927" height="3.393"/>
</g>
<path fill="#F8B69C" d="M52.244,91.229c-0.035,0.006-0.066,0.019-0.099,0.025l-0.085-0.542l-0.166-1.064l-6.841,1.065l0.166,1.064
	l0.34,2.184l0.414,2.659l0.031-0.005c0.441,1.702,2.094,2.834,3.87,2.558c1.771-0.275,3.004-1.857,2.907-3.612l0.032-0.004
	l-0.293-1.882c0.033-0.002,0.066-0.001,0.102-0.006c0.674-0.105,1.133-0.736,1.028-1.406C53.547,91.586,52.917,91.125,52.244,91.229
	"/>
<polygon fill="#D6A23A" points="42.986,80.733 44.428,79.98 83.695,156.008 82.896,156.42 "/>
</svg>
