<?xml version="1.0" encoding="UTF-8" standalone="no"?>
<!-- Created with Inkscape (http://www.inkscape.org/) -->

<svg
   xmlns:dc="http://purl.org/dc/elements/1.1/"
   xmlns:cc="http://creativecommons.org/ns#"
   xmlns:rdf="http://www.w3.org/1999/02/22-rdf-syntax-ns#"
   xmlns:svg="http://www.w3.org/2000/svg"
   xmlns="http://www.w3.org/2000/svg"
   xmlns:sodipodi="http://sodipodi.sourceforge.net/DTD/sodipodi-0.dtd"
   xmlns:inkscape="http://www.inkscape.org/namespaces/inkscape"
   width="1071.2954"
   height="389.76376"
   id="svg2985"
   version="1.1"
   inkscape:version="0.48.4 r9939"
   sodipodi:docname="bk.svg">
  <defs
     id="defs3" />
  <sodipodi:namedview
     inkscape:document-units="mm"
     id="base"
     pagecolor="#ffffff"
     bordercolor="#666666"
     borderopacity="1.0"
     inkscape:pageopacity="0.0"
     inkscape:pageshadow="2"
     inkscape:zoom="0.98994949"
     inkscape:cx="508.27072"
     inkscape:cy="141.69303"
     inkscape:current-layer="layer1"
     showgrid="false"
     units="mm"
     height="0mm"
     inkscape:window-width="1551"
     inkscape:window-height="876"
     inkscape:window-x="49"
     inkscape:window-y="24"
     inkscape:window-maximized="1"
     fit-margin-top="0"
     fit-margin-left="0"
     fit-margin-right="0"
     fit-margin-bottom="0"
     showguides="true"
     inkscape:guide-bbox="true">
    <sodipodi:guide
       orientation="0,1"
       position="318.19805,241.42646"
       id="guide3628" />
  </sodipodi:namedview>
  <metadata
     id="metadata4">
    <rdf:RDF>
      <cc:Work
         rdf:about="">
        <dc:format>image/svg+xml</dc:format>
        <dc:type
           rdf:resource="http://purl.org/dc/dcmitype/StillImage" />
        <dc:title></dc:title>
      </cc:Work>
    </rdf:RDF>
  </metadata>
  <g
     inkscape:label="Layer 1"
     inkscape:groupmode="layer"
     id="layer1"
     transform="translate(3.0755252,-2781.2817)">
    <g
       id="g3177"
       transform="matrix(0.53897109,0,0,0.53897109,-1.417906,1421.31)">
      <path
         inkscape:connector-curvature="0"
         d="M 2.1562237,3160.9948 C 7.6282842,3155.7154 12.710302,3149.9612 16.901419,3143.6004 18.056985,3141.8466 19.090406,3140.0153 20.1849,3138.2227 26.754705,3125.9058 30.248103,3112.2868 34.747667,3099.142 39.015257,3087.3572 44.055075,3075.8774 49.088462,3064.406 54.559261,3052.6574 59.55743,3040.699 64.918136,3028.902 67.981634,3021.9294 71.54723,3015.1882 76.065981,3009.041 79.001094,3005.0482 80.721634,3003.2064 83.995381,2999.4063 92.8088,2989.1247 103.3571,2980.6062 114.39941,2972.8586 122.20087,2967.6293 130.41251,2963.013 138.6922,2958.5956 139.68385,2958.0665 140.74696,2957.6524 141.83751,2957.3804 144.17296,2956.7979 145.70225,2957.0756 148.04877,2957.2259 154.13402,2958.6681 159.75456,2961.4393 165.71729,2963.2726 170.60484,2965.0572 175.76954,2965.4767 180.91859,2965.7514 186.56484,2965.9052 191.913,2963.7935 196.65149,2960.8761 193.20717,2962.8311 189.82031,2964.8909 186.31853,2966.741 185.48013,2967.1839 187.88599,2965.6725 188.64605,2965.1055 192.39394,2962.3099 195.78516,2959.0776 199.18217,2955.8768 206.23729,2949.1216 212.82914,2941.9062 219.69908,2934.966 225.89068,2928.632 232.64614,2922.8984 239.82243,2917.7191 246.6954,2913.1247 253.84808,2908.9883 260.6292,2904.2547 267.55628,2899.1885 273.82665,2893.2963 280.18598,2887.5506 284.9573,2883.1566 289.64148,2878.6247 293.79531,2873.6304 296.26502,2870.661 298.22719,2867.8456 300.50229,2864.714 306.31518,2855.8085 312.03997,2846.8497 317.96286,2838.0149 321.62241,2832.9211 324.55984,2827.3514 328.19849,2822.2494 330.57846,2819.4586 333.42327,2816.9111 336.60309,2815.0461 350.84831,2806.6915 346.80607,2808.5911 354.74804,2805.0967 357.82432,2803.839 361.04385,2803.0353 364.30247,2802.4259 366.01304,2802.106 368.38518,2801.6804 370.15096,2801.7525 371.1175,2801.7919 372.06583,2802.0287 373.02327,2802.1669 377.51058,2803.4084 381.17632,2806.2495 384.77466,2809.0708 389.32572,2812.6391 386.85421,2810.6777 391.5004,2814.4062 398.34758,2819.6882 406.18974,2823.5274 414.51705,2825.8438 416.34012,2826.3509 418.19842,2826.7216 420.03911,2827.1605 429.79459,2829.2168 439.76991,2829.5109 449.69915,2829.6961 460.46625,2829.8054 471.23443,2829.7647 482.00153,2829.6768 486.89967,2829.8542 491.8258,2829.3233 496.72228,2829.5411 499.1032,2829.6469 499.91816,2829.8827 502.20651,2830.3175 507.64963,2831.314 511.51677,2835.035 515.33391,2838.7482 520.02753,2843.8389 524.68082,2848.9644 529.45264,2853.9825 530.16937,2854.7211 530.88507,2855.4606 531.60282,2856.1981 532.27947,2856.8934 533.00178,2857.5466 533.63584,2858.281 536.21919,2861.2729 537.8564,2864.8231 539.49629,2868.3767 541.70892,2873.5571 543.71628,2878.8144 545.78372,2884.0517 548.10719,2889.5396 550.75344,2894.9247 554.43872,2899.6272 559.06741,2905.1523 565.04433,2909.2726 570.73437,2913.6084 573.11323,2915.5782 575.49703,2917.6834 577.23444,2920.2719 578.48751,2922.1388 579.31966,2924.3094 580.18047,2926.3722 581.87348,2930.9593 581.97408,2935.9153 582.90671,2940.6793 584.3173,2946.1999 586.6659,2948.8236 591.59665,2951.4748 594.9333,2952.9831 598.49287,2953.8899 601.85766,2955.3248 603.81981,2956.1615 605.48657,2957.0239 607.40177,2957.9735 608.42941,2958.5462 609.47415,2959.0893 610.48469,2959.6917 612.69049,2961.0065 614.84777,2962.5287 617.02997,2963.8783 620.34253,2965.9269 623.7295,2967.8618 627.05437,2969.892 631.66123,2972.6002 635.45384,2976.2396 638.41568,2980.6553 640.44213,2983.9598 642.17097,2986.6388 645.2224,2989.074 649.22232,2991.88 654.28091,2991.816 658.97146,2992.0695 669.69192,2992.4239 680.4214,2992.3794 691.14636,2992.3698 700.40737,2992.0501 709.76099,2992.9143 718.96003,2991.5936 721.54775,2990.9085 722.58222,2990.7508 725.02765,2989.6419 726.01994,2989.1919 728.86387,2987.5748 727.91846,2988.1163 724.75212,2989.9302 721.62616,2991.8247 718.36368,2993.4593 717.20839,2994.0382 720.52015,2992.0344 721.57838,2991.2929 722.6493,2990.5425 723.69285,2989.7537 724.75009,2988.9841 731.23347,2984.1523 737.56245,2979.0402 744.5545,2974.9399 750.16729,2971.6484 755.84265,2968.4649 761.48673,2965.2274 770.38068,2960.4542 780.23896,2958.9689 790.15513,2958.1786 798.62387,2957.5482 807.07571,2957.644 815.49597,2958.7116 823.94268,2960.0337 830.08946,2963.5164 836.90566,2968.4302 843.07516,2973.2332 849.53377,2977.5953 856.60409,2980.9489 862.1685,2983.0387 868.02593,2984.3686 873.90254,2985.2203 882.59088,2986.1383 891.34508,2986.1546 900.07239,2986.2083 909.79116,2986.2635 919.51011,2986.2235 929.22894,2986.2113 939.14958,2986.1773 949.0702,2986.2163 958.99082,2986.2358 969.50352,2986.2682 980.01628,2986.2398 990.52879,2986.1725 997.64903,2986.0117 1004.4717,2988.0484 1011.1637,2990.2366 1014.0067,2991.2397 1017.1069,2991.9834 1019.5967,2993.7794 1021.0035,2994.7942 1021.6268,2995.6406 1022.7861,2996.9369 1025.7585,3000.793 1027.7106,3005.3002 1029.2096,3009.9017 1030.5173,3015.684 1031.8282,3021.4657 1032.9501,3027.2883 1033.9325,3034.0608 1035.2471,3040.7809 1036.4869,3047.51 1037.6152,3052.686 1038.884,3057.8515 1040.4496,3062.9143 1042.1664,3068.656 1044.5159,3074.1721 1046.8515,3079.6817 1048.7181,3084.0202 1050.5066,3088.4201 1052.8721,3092.5198 1053.1197,3092.9489 1056.1448,3097.7892 1056.417,3098.2255 1059.4234,3102.7316 1062.6283,3107.0934 1065.6456,3111.592 1068.2069,3115.5002 1070.1835,3119.714 1072.8345,3123.5696 1074.4219,3126.0572 1076.0427,3128.5133 1077.4753,3131.0938 1077.4753,3131.0938 1064.6592,3138.4605 1064.6592,3138.4605 L 1064.6592,3138.4605 C 1063.261,3135.9129 1061.6429,3133.5113 1060.1076,3131.045 1057.4846,3127.1664 1055.4492,3122.9854 1052.932,3119.0472 1049.9048,3114.5414 1046.7932,3110.094 1043.8125,3105.557 1043.4344,3104.9456 1040.5774,3100.3366 1040.2459,3099.7591 1037.8685,3095.6181 1036.0786,3091.1766 1034.1624,3086.8134 1031.7316,3081.2949 1029.2835,3075.772 1027.5853,3069.9733 1025.9369,3064.8708 1024.6455,3059.6369 1023.5471,3054.391 1022.4033,3047.6418 1021.1763,3040.9061 1020.1035,3034.1458 1018.9896,3028.3936 1017.5328,3022.7266 1016.2738,3017.007 1014.8831,3012.6027 1013.0643,3008.2403 1010.1654,3004.6028 1009.018,3003.405 1008.5387,3002.762 1007.1756,3001.8568 1004.7228,3000.228 1001.7811,2999.479 999.06133,2998.4565 992.51101,2996.3013 985.82632,2994.494 978.86108,2994.6496 968.40578,2994.5819 957.95022,2994.554 947.49472,2994.5885 937.53872,2994.6112 927.58275,2994.6548 917.6267,2994.6426 907.9077,2994.6506 898.18863,2994.6551 888.46966,2994.6242 879.62723,2994.5399 870.7543,2994.5833 861.95186,2993.6341 855.97991,2992.71 850.01552,2991.3405 844.44057,2988.9658 837.41341,2985.4108 830.96127,2980.9772 824.72208,2976.1806 818.14806,2971.5838 811.76671,2968.1641 803.68605,2967.0781 795.3493,2966.1339 786.98334,2966.0531 778.61327,2966.7151 768.81445,2967.6064 759.13295,2969.2762 750.42528,2974.1609 752.88765,2972.7058 755.2986,2971.1599 757.81238,2969.7955 759.40002,2968.9337 754.71996,2971.6649 753.20663,2972.6513 748.01157,2976.0375 743.12811,2979.8729 738.21179,2983.6428 728.90562,2990.6001 718.81347,2997.9825 707.27497,3000.3025 698.13079,3001.229 688.90856,3000.405 679.73469,3000.6628 668.87465,3000.678 658.01146,3000.7955 647.15333,3000.5613 642.1057,3000.3029 636.81435,3000.2125 632.65794,2996.9503 629.53007,2994.3528 627.72826,2991.5862 625.63383,2988.1366 622.87021,2983.8717 619.20274,2980.4021 614.84031,2977.77 608.38572,2973.7131 601.87325,2969.7088 595.20648,2966.0193 593.18362,2965.062 591.73795,2964.3421 589.68074,2963.503 586.23237,2962.0964 582.60283,2961.1596 579.25221,2959.5075 574.11969,2956.4734 571.47857,2953.4854 569.93655,2947.6155 568.97523,2942.9563 568.84217,2938.1175 567.26649,2933.6001 566.47533,2931.6478 565.73819,2929.5794 564.59347,2927.7965 562.9812,2925.2855 560.74991,2923.238 558.47914,2921.3428 552.70164,2916.8997 546.56471,2912.7558 541.85288,2907.1195 538.15001,2902.25 535.39237,2896.8208 532.97151,2891.2118 530.83318,2886.0304 529.00989,2880.7174 526.72934,2875.5894 525.55729,2873.02 524.41241,2870.4431 522.80466,2868.1053 521.32878,2865.9593 520.92502,2865.7223 519.11479,2863.8109 518.40786,2863.0645 517.70724,2862.3121 517.00346,2861.5627 512.27858,2856.5282 507.666,2851.3873 502.85354,2846.4364 499.12687,2842.9502 495.40917,2839.5414 490.15483,2838.7538 483.63776,2837.6805 477.00993,2838.2762 470.432,2838.088 459.65615,2838.067 448.88032,2838.1598 438.10461,2838.0879 428.13445,2837.9131 418.13323,2837.4458 408.37317,2835.2154 406.51288,2834.7482 404.63474,2834.347 402.79232,2833.8136 394.31294,2831.359 386.32119,2827.445 379.30993,2822.0692 374.93688,2818.6319 376.83236,2820.0869 372.49821,2816.8145 369.00904,2814.18 365.4431,2811.5437 361.05947,2810.6622 360.15719,2810.5978 359.25712,2810.4561 358.35265,2810.469 353.18094,2810.5429 348.07556,2812.3588 343.31491,2814.1751 337.57024,2816.8881 337.12798,2817.2107 350.24676,2809.6958 351.08621,2809.2149 348.6206,2810.7449 347.82531,2811.2958 345.6468,2812.8047 343.49417,2814.393 341.75064,2816.4083 337.80964,2821.4173 334.93244,2827.1739 331.10514,2832.2741 325.08876,2841.1156 319.24641,2850.0645 313.4961,2859.0802 311.26003,2862.2495 309.3488,2865.0697 306.92268,2868.086 302.85786,2873.1396 298.2373,2877.7212 293.48138,2882.1165 287.16593,2887.9042 280.88241,2893.7751 274.05491,2898.9593 267.33879,2903.7639 260.23038,2907.9381 253.28892,2912.4021 246.01931,2917.5082 239.14064,2923.157 232.901,2929.4955 226.01884,2936.3438 219.50885,2943.5514 212.59007,2950.3623 203.85872,2958.7427 196.84834,2964.7055 185.22527,2970.1262 180.21158,2972.8204 174.7879,2974.6619 169.0141,2974.2969 163.76164,2973.9766 158.52315,2973.4353 153.56578,2971.5341 147.7827,2969.5789 142.24354,2966.785 136.17754,2965.7957 133.6434,2965.809 132.83894,2965.6249 130.37394,2966.4012 129.34116,2966.7264 126.48954,2968.2791 127.38177,2967.6656 130.24684,2965.6956 133.36619,2964.1232 136.33031,2962.3056 139.27381,2960.5007 123.23679,2969.9641 127.49155,2967.7069 116.40591,2975.3316 105.75762,2983.6933 96.939222,2993.9339 93.721022,2997.6472 92.001831,2999.4938 89.085375,3003.3759 84.514705,3009.4598 80.809331,3016.1049 77.726025,3023.0542 72.301749,3034.8115 67.335662,3046.7735 61.903579,3058.5283 56.8971,3070.0143 51.784485,3081.4635 47.410383,3093.2111 44.600018,3101.292 45.660141,3098.1174 42.981731,3106.3321 40.088293,3115.2063 37.485917,3124.2472 33.05331,3132.5158 31.994839,3134.3289 30.996827,3136.1786 29.877896,3137.955 25.9175,3144.2423 21.068717,3149.9314 15.939523,3155.2854 15.939523,3155.2854 2.1562237,3160.9946 2.1562237,3160.9946 z"
         id="path3050"
         style="fill:#008000;fill-opacity:1;fill-rule:nonzero;stroke:none" />
      <path
         inkscape:connector-curvature="0"
         d="M 9.0494417,2799.1284 C 25.149843,2799.6221 41.261487,2799.6444 57.368139,2799.6849 68.255489,2799.7636 79.142556,2799.5826 90.029417,2799.5566 92.897217,2799.5496 100.59862,2799.4869 103.85371,2799.9438 105.43288,2800.1655 106.95006,2800.7083 108.49823,2801.0905 109.63733,2801.6376 110.86889,2802.0238 111.91554,2802.732 117.06525,2806.2162 118.02424,2813.0105 119.02519,2818.6152 120.30324,2826.0492 120.60524,2833.6335 122.43876,2840.9741 122.81574,2842.4834 123.30979,2843.961 123.74531,2845.4545 127.12469,2855.042 133.42786,2863.1711 139.6484,2871.077 143.92579,2876.2917 148.36064,2881.4474 153.7395,2885.5737 156.70213,2887.8463 158.9356,2889.0564 162.1439,2890.979 171.17168,2895.6404 180.86398,2898.9026 190.63378,2901.6158 198.65696,2903.9233 206.6551,2906.3292 214.58108,2908.9527 218.45319,2910.4349 222.98564,2911.6497 225.35657,2915.3755 225.74056,2915.9789 225.99148,2916.6573 226.30894,2917.2982 228.25835,2921.3888 228.90343,2925.8425 229.63363,2930.2608 229.73997,2930.8859 229.84632,2931.5109 229.95266,2932.136 229.95266,2932.136 216.85203,2939.0796 216.85203,2939.0796 L 216.85203,2939.0796 C 216.75423,2938.4508 216.65649,2937.822 216.55872,2937.1932 215.86043,2932.9144 215.39554,2928.5619 213.42985,2924.6192 213.16564,2924.0756 212.96221,2923.498 212.63722,2922.9884 210.46713,2919.5858 206.02707,2918.57 202.57184,2917.0964 194.71326,2914.413 186.73465,2912.1014 178.77597,2909.7363 168.97001,2906.851 159.23641,2903.4786 150.16083,2898.731 146.59285,2896.5805 144.87549,2895.6971 141.60857,2893.1385 136.19777,2888.9007 131.73146,2883.6777 127.39834,2878.3851 121.06607,2870.334 114.68823,2862.0519 111.15479,2852.332 110.69885,2850.8072 110.18395,2849.2989 109.78697,2847.7577 107.89859,2840.4265 107.58454,2832.8431 106.26051,2825.4141 105.30204,2820.345 104.51006,2813.8637 99.78658,2810.7405 98.827705,2810.1065 97.713536,2809.7465 96.677014,2809.2494 95.23425,2808.8933 93.817686,2808.4058 92.348721,2808.1809 88.947248,2807.6603 82.189902,2807.5615 79.083021,2807.5096 68.315066,2807.3296 57.543561,2807.4315 46.774922,2807.3813 30.157562,2807.4228 13.536105,2807.4583 -3.0755252,2807.9377 -3.0755252,2807.9377 9.0494417,2799.1284 9.0494417,2799.1284 z"
         id="path3052"
         style="fill:#008000;fill-opacity:1;fill-rule:nonzero;stroke:none" />
      <path
         inkscape:connector-curvature="0"
         d="M 616.26361,2966.8198 C 624.73727,2967.2727 632.86742,2964.297 640.81457,2961.7571 658.93273,2955.3923 676.66005,2947.9753 694.29255,2940.3848 708.98903,2933.9014 723.89662,2927.6541 737.77258,2919.4936 738.19492,2919.2452 735.97191,2920.1859 736.35429,2919.8796 739.19169,2917.6063 742.26499,2915.6443 745.22034,2913.5267 756.47296,2905.0036 765.85976,2894.3832 773.52856,2882.5632 778.52261,2874.8658 780.09232,2871.3389 784.29672,2863.2055 790.5086,2850.4108 795.12402,2836.9474 800.11874,2823.6577 803.26236,2815.2932 803.43311,2815.0617 806.75697,2807.0343 811.03229,2797.8755 815.42522,2788.2078 823.02387,2781.2456 823.97942,2780.37 825.05501,2779.6353 826.07058,2778.8301 831.27319,2775.876 836.3851,2772.756 841.67842,2769.9677 842.66529,2769.4478 843.7912,2769.2498 844.86045,2768.9322 849.41287,2767.5799 854.06714,2766.9782 858.75544,2766.3181 863.01276,2765.623 867.33947,2765.5637 871.59017,2764.8379 873.84695,2764.4526 875.65846,2764.0175 877.89758,2763.5176 884.91778,2761.5358 891.37443,2758.0544 897.75146,2754.5916 900.834,2753.0864 904.03484,2750.5213 907.69032,2751.4659 910.31174,2752.1433 911.02772,2753.132 913.18669,2754.8447 922.51229,2763.718 928.91309,2774.9603 935.24712,2786.022 943.39784,2800.9059 951.69326,2815.7103 959.79326,2830.6219 963.98203,2838.6438 968.16377,2846.7704 970.60545,2855.5292 971.89066,2860.1395 972.09654,2862.1508 972.87164,2866.8315 974.19845,2877.1225 974.22593,2887.5134 974.25915,2897.8707 973.9882,2907.209 973.54081,2916.5389 973.35033,2925.8798 973.43043,2932.8825 975.28408,2939.1185 978.65997,2945.1843 981.53562,2950.5634 985.32448,2955.3361 989.28088,2959.9456 994.76543,2966.5212 1001.0907,2972.1982 1007.9679,2977.2628 1013.5808,2981.1776 1019.5575,2984.5244 1025.2331,2988.3424 1027.5302,2990.1362 1026.4546,2989.2369 1028.4731,2991.0247 1028.4731,2991.0247 1015.8704,2998.8408 1015.8704,2998.8408 L 1015.8704,2998.8408 C 1013.9826,2997.1199 1014.9872,2997.9873 1012.845,2996.2522 1007.2534,2992.3491 1001.3058,2988.9836 995.78171,2984.9787 988.86638,2979.8027 982.50191,2973.9924 976.84853,2967.4441 972.76853,2962.7963 968.80688,2958.0051 965.92995,2952.4922 962.49748,2946.0621 960.62071,2939.7475 960.50144,2932.3866 960.77392,2923.0487 961.13557,2913.7145 961.48561,2904.3795 961.51511,2894.071 961.56791,2883.726 960.331,2873.4742 959.60539,2868.78 959.44788,2866.9526 958.2206,2862.3224 955.90987,2853.6047 951.95689,2845.4567 947.83465,2837.4774 939.8821,2822.5031 931.61083,2807.7012 923.29956,2792.9236 916.92638,2782.0902 910.50433,2770.9789 900.89226,2762.6404 898.84117,2761.2685 898.15885,2760.3956 895.74177,2760.1354 892.34564,2759.7697 889.32315,2762.4735 886.41484,2763.7149 879.96815,2767.144 873.41251,2770.5695 866.28341,2772.3431 859.94728,2773.6937 853.5546,2774.3276 847.1208,2775.0284 842.46399,2775.7159 837.83098,2776.3859 833.35407,2777.9043 832.33359,2778.2504 829.45868,2779.6869 830.33471,2779.0594 833.24956,2776.9714 836.46554,2775.3396 839.53095,2773.4798 838.45826,2774.2354 837.32288,2774.909 836.31287,2775.7466 828.28428,2782.4044 823.65138,2792.1473 819.18796,2801.3133 815.93451,2808.8846 815.32555,2810.1075 812.29636,2817.9858 807.17288,2831.3108 802.53654,2844.8474 796.38201,2857.7533 792.35665,2865.6458 790.49243,2869.7576 785.74038,2877.2506 778.15475,2889.2116 768.83296,2900.0063 757.56964,2908.6426 754.59347,2910.8009 751.74382,2913.1455 748.64112,2915.1176 739.89326,2920.6779 727.07426,2928.2703 717.00803,2933.4003 706.22316,2938.8965 695.08556,2943.691 683.99622,2948.5259 666.08882,2956.2615 648.10536,2963.8824 629.70097,2970.3694 621.39465,2973.0268 612.99366,2975.8491 604.15533,2975.617 604.15533,2975.617 616.26361,2966.8198 616.26361,2966.8198 z"
         id="path3058"
         style="fill:#008000;fill-opacity:1;fill-rule:nonzero;stroke:none" />
      <path
         inkscape:connector-curvature="0"
         d="M 237.28234,3016.725 C 241.10058,3012.3128 245.21894,3008.1839 249.41527,3004.1351 253.46941,3000.1978 257.20644,2995.9453 261.44008,2992.1904 263.5448,2990.3237 267.48242,2987.173 269.63224,2985.4299 278.92691,2978.2102 287.3806,2970.0384 295.8298,2961.873 305.13613,2952.8392 315.73467,2945.7083 327.5878,2940.2787 331.21009,2938.5178 335.10745,2938.856 338.96933,2938.512 339.96374,2938.4234 340.94476,2938.2214 341.93248,2938.0761 345.64705,2937.2976 349.04465,2935.6862 352.36571,2933.9065 353.61301,2933.2381 357.31252,2931.1554 356.07206,2931.8364 346.32132,2937.1895 344.57437,2938.7692 350.49145,2934.2522 357.10834,2928.6155 359.83087,2920.4406 362.69255,2912.5331 364.90593,2905.2287 368.42741,2898.4945 372.36619,2891.9991 375.55006,2887.4872 378.64149,2882.6668 382.81069,2878.9695 383.54536,2878.318 384.35182,2877.7522 385.12239,2877.1436 396.30982,2870.168 402.7559,2865.9515 414.9236,2863.9747 423.45229,2862.7248 432.04288,2862.9966 440.57189,2863.9966 449.95581,2865.4265 459.17802,2867.6642 468.58312,2868.9845 469.66279,2869.1089 470.74247,2869.2333 471.82214,2869.3577 471.82214,2869.3577 459.90131,2877.7871 459.90131,2877.7871 L 459.90131,2877.7871 C 458.84194,2877.6355 457.78256,2877.4839 456.72319,2877.3323 447.41736,2875.8243 438.27113,2873.4819 428.91804,2872.274 420.38075,2871.4358 411.78583,2871.3202 403.29329,2872.7461 400.28306,2873.3439 399.77884,2873.3579 396.91642,2874.2488 395.28407,2874.7568 392.91657,2875.6418 391.35427,2876.3495 387.27303,2878.1982 379.90365,2882.8839 398.73889,2871.7334 396.67259,2873.1839 395.89435,2873.5928 394.10027,2875.4156 390.92497,2878.6416 388.31952,2882.44 385.69874,2886.1064 381.69885,2892.5372 377.93679,2899.1385 375.74787,2906.4414 372.8593,2914.4553 370.32609,2922.8739 363.91675,2928.8761 356.13035,2935.2031 361.16492,2931.3685 344.84327,2940.8901 340.27671,2943.5541 335.44187,2945.8567 330.21145,2946.8309 325.4418,2947.4002 320.53292,2947.2721 316.10528,2949.4296 312.57507,2951.1883 303.83259,2955.6112 323.29356,2945.0118 324.39754,2944.4105 321.18,2946.3754 320.15945,2947.1094 316.1971,2949.9592 312.54334,2953.2137 308.92389,2956.4776 300.45748,2964.6138 292.10432,2972.8871 282.82981,2980.1238 281.79526,2980.9623 275.84761,2985.7654 274.73524,2986.7356 271.47049,2989.5831 268.55557,2992.736 265.5614,2995.8531 264.66499,2996.7862 263.73841,2997.69 262.82691,2998.6084 258.74226,3002.545 254.69116,3006.5242 251.06118,3010.8933 251.06118,3010.8933 237.28234,3016.725 237.28234,3016.725 z"
         id="path3108"
         style="fill:#008000" />
      <path
         inkscape:connector-curvature="0"
         d="M 784.83141,2923.8675 C 789.29324,2921.3388 793.4824,2918.3901 797.75219,2915.5601 802.97683,2912.3346 808.10945,2909.0888 812.71673,2905.0114 818.98182,2898.4104 822.67636,2889.8864 826.7676,2881.8694 829.84744,2875.4315 828.33619,2878.6516 831.30225,2872.2095 831.30225,2872.2095 844.26198,2866.295 844.26198,2866.295 L 844.26198,2866.295 C 841.29211,2872.7625 842.79536,2869.5256 839.75172,2876.0054 837.4992,2880.4532 835.37653,2884.9697 832.97582,2889.3405 831.89219,2891.3135 829.96589,2894.7277 828.61037,2896.5883 827.86657,2897.6092 826.9941,2898.5299 826.18597,2899.5007 823.77198,2901.792 821.34705,2903.8798 818.57349,2905.7315 816.06144,2907.4086 816.32844,2907.0725 813.77113,2908.6754 812.97199,2909.1763 812.19468,2909.7112 811.40645,2910.2291 807.20273,2912.9591 803.21618,2916.0454 798.75912,2918.3661 798.75912,2918.3661 784.83141,2923.8675 784.83141,2923.8675 z"
         id="path3110"
         style="fill:#008000" />
      <path
         inkscape:connector-curvature="0"
         d="M 865.10753,3078.4752 C 875.68681,3077.1048 886.37136,3076.8283 897.02288,3076.5186 907.75482,3076.0395 918.48977,3076.3613 929.21942,3076.6882 938.53839,3077.0454 947.85431,3077.054 957.17494,3076.8188 959.14505,3076.6887 961.11517,3076.5587 963.08529,3076.4286 963.08529,3076.4286 951.70838,3084.8107 951.70838,3084.8107 L 951.70838,3084.8107 C 949.69961,3084.9458 947.69084,3085.0809 945.68206,3085.216 936.29941,3085.4815 926.9166,3085.5246 917.53583,3085.1183 906.92964,3084.7432 896.32178,3084.31 885.70873,3084.7931 874.87573,3085.1568 863.94012,3085.406 853.2731,3087.4905 853.2731,3087.4905 865.10753,3078.4752 865.10753,3078.4752 z"
         id="path3112"
         style="fill:#008000" />
      <path
         inkscape:connector-curvature="0"
         d="M 830.40249,3013.0748 C 837.27019,3017.0504 846.32601,3017.2173 854.0468,3017.8174 863.32517,3018.1151 858.58583,3018.0926 868.26495,3017.8508 868.26495,3017.8508 857.05891,3026.0347 857.05891,3026.0347 L 857.05891,3026.0347 C 847.20946,3026.2736 852.03392,3026.2914 842.58544,3026.0135 834.25195,3025.404 825.40388,3025.1931 817.83781,3021.2424 817.83781,3021.2424 830.40249,3013.0748 830.40249,3013.0748 z"
         id="path3114"
         style="fill:#008000" />
      <path
         inkscape:connector-curvature="0"
         d="M 515.10844,2942.6484 C 517.73555,2945.9895 519.36546,2949.9671 521.26722,2953.7324 523.48209,2958.1176 523.56791,2958.1671 526.05087,2962.6532 531.51016,2972.5928 539.73072,2980.5147 548.77958,2987.2049 550.57819,2988.5346 552.46661,2989.7384 554.31012,2991.0052 559.47761,2994.8187 565.79421,2997.1122 570.65925,3001.3613 572.8714,3003.2935 573.16258,3004.1001 574.73406,3006.5143 576.43921,3009.8936 577.9328,3013.3721 579.43955,3016.8422 579.43955,3016.8422 566.84746,3023.9345 566.84746,3023.9345 L 566.84746,3023.9345 C 565.32301,3020.5614 563.80479,3017.184 562.1122,3013.8904 560.6581,3011.6488 560.41006,3010.9448 558.37965,3009.1296 553.62884,3004.8824 547.55201,3002.3607 542.50182,2998.5304 531.34194,2990.6199 520.57197,2981.8499 513.72387,2969.7581 510.57962,2964.3529 511.50968,2966.0762 508.74542,2960.8739 506.8408,2957.2894 505.16947,2953.4472 502.31334,2950.4892 502.31334,2950.4892 515.10844,2942.6484 515.10844,2942.6484 z"
         id="path3116"
         style="fill:#008000" />
      <path
         inkscape:connector-curvature="0"
         d="M 27.270959,2862.357 C 30.537053,2867.4333 35.922276,2870.3432 40.782397,2873.642 42.137713,2874.5619 43.464482,2875.5232 44.805524,2876.4638 49.07006,2879.7836 54.095623,2882.5765 57.440331,2886.943 59.274766,2889.3378 59.771296,2890.8187 61.014056,2893.5286 64.09679,2903.4793 63.790005,2914.1094 63.92856,2924.4237 63.92856,2924.4237 51.364777,2930.8499 51.364777,2930.8499 L 51.364777,2930.8499 C 51.187444,2920.7683 51.368377,2910.3961 48.359465,2900.6729 47.139128,2897.9705 46.829154,2896.8656 45.004821,2894.4944 41.731027,2890.2392 36.902354,2887.4127 32.737608,2884.1623 26.33685,2879.8044 19.229019,2876.0415 14.34346,2869.8811 14.34346,2869.8811 27.270959,2862.357 27.270959,2862.357 z"
         id="path3118"
         style="fill:#008000" />
    </g>
    <path
       style="fill:#008000"
       id="path3237"
       d="M 588.877,3104.56 C 594.4739,3104.8216 600.00269,3103.1267 604.95503,3100.5938 606.50727,3099.7998 607.95472,3098.8159 609.45457,3097.9269 606.9878,3099.1838 604.80135,3102.0412 602.05426,3101.6975 599.91409,3101.4297 605.47914,3099.0682 607.08715,3097.6307 615.34974,3090.2445 622.1239,3081.4577 628.70378,3072.6039 639.85911,3057.086 649.30744,3040.472 658.09159,3023.5291 661.34894,3016.8 664.68742,3010.1085 668.29914,3003.5613 669.6363,3001.1373 671.83642,2997.2168 673.48876,2994.8576 674.21437,2993.8215 675.05709,2992.8726 675.84125,2991.8802 681.5911,2986.7758 688.60202,2980.3091 696.63169,2981.6529 700.18884,2982.2482 703.31891,2984.1203 706.40284,2985.8546 710.17595,2987.9168 713.5295,2990.7077 717.36497,2992.6629 719.44962,2993.7255 719.9585,2993.752 722.21483,2994.3986 726.31356,2995.1754 730.53379,2995.884 734.68296,2995.0273 737.72743,2994.3987 739.09156,2993.6397 741.9597,2992.4147 743.24989,2991.7057 747.12405,2989.5851 745.83028,2990.2876 743.08308,2991.7793 740.52098,2993.6703 737.59939,2994.7822 736.05984,2995.3682 740.32089,2992.9203 741.60942,2991.8941 745.73704,2988.6066 749.21106,2984.7171 752.70329,2980.7904 756.80464,2976.2208 760.44542,2971.2399 764.64911,2966.7602 766.50072,2964.787 767.55348,2963.8965 769.51053,2962.1188 771.34916,2960.567 773.23414,2959.032 775.3399,2957.849 783.30059,2953.3765 786.01835,2950.1651 793.09399,2949.1805 797.78739,2948.7364 802.28753,2950.6182 806.73767,2951.8433 812.32211,2953.925 818.14574,2955.0587 824.04853,2955.7178 828.32661,2955.9731 832.67133,2956.4872 836.93025,2955.852 842.52509,2954.1573 847.51448,2950.9519 852.54145,2948.048 849.42651,2949.8161 846.35471,2951.6625 843.19662,2953.3523 842.12968,2953.9232 845.24446,2952.0625 846.26221,2951.4079 846.43652,2951.2958 851.9525,2947.6967 852.21226,2947.5258 860.19753,2942.2709 850.78483,2948.1394 869.83574,2937.0722 874.06855,2934.2964 878.91452,2933.0159 883.77598,2931.8708 887.71648,2931.122 891.72937,2930.917 895.73113,2930.8503 900.24264,2930.8279 904.75438,2930.8578 909.26596,2930.8706 913.98433,2930.8826 918.7027,2930.8741 923.42108,2930.8833 927.41886,2930.821 931.39223,2930.794 935.37056,2931.1985 938.90795,2931.3751 942.16633,2932.8178 945.53163,2933.769 948.60728,2934.894 951.80902,2935.4458 955.05708,2935.7312 957.20298,2935.9272 959.4177,2935.7071 961.4312,2934.894 961.98744,2934.6694 963.5621,2933.7929 963.04313,2934.0938 959.39727,2936.2074 955.71289,2938.2538 952.04778,2940.3339 959.27342,2935.9553 966.15434,2930.4513 974.61785,2929.124 977.51017,2928.6998 980.55248,2929.2051 982.9516,2930.9782 983.58312,2931.445 984.11784,2932.0302 984.70095,2932.5561 988.48949,2936.587 991.3361,2941.3602 994.50173,2945.8691 997.29112,2949.9541 999.73885,2954.2252 1001.3173,2958.9211 1002.525,2963.1278 1002.6907,2967.5511 1003.0367,2971.8924 1003.3331,2977.1471 1003.3624,2982.3921 1004.0924,2987.6088 1004.6668,2991.7715 1005.5966,2995.8656 1006.074,3000.0412 1006.2369,3004.8826 1007.9931,3009.3338 1009.8563,3013.7296 1012.534,3019.7231 1018.2252,3022.9989 1023.7254,3026.0475 1030.5827,3029.5458 1037.7459,3032.377 1044.5623,3035.9527 1047.9731,3037.8915 1051.197,3040.1839 1053.3746,3043.4899 1055.1734,3047.7183 1055.0028,3052.4901 1055.0928,3057.0066 1055.142,3061.8405 1055.159,3066.675 1055.1636,3071.5093 1055.2378,3075.3256 1054.9477,3079.1627 1055.3416,3082.9632 1056.1048,3086.842 1056.8981,3090.735 1057.9734,3094.5416 1058.9838,3097.7678 1059.8345,3101.0455 1060.9398,3104.2408 1062.0791,3107.2481 1062.9635,3110.3312 1063.9407,3113.389 1065.1928,3116.4975 1065.6475,3119.8299 1066.6465,3123.0135 1067.2696,3124.6249 1067.7508,3126.2827 1068.2199,3127.9433 1068.2199,3127.9433 1055.1541,3135.0452 1055.1541,3135.0452 L 1055.1541,3135.0452 C 1054.7205,3133.3967 1054.2623,3131.7554 1053.6402,3130.1652 1052.576,3127.0079 1052.1344,3123.6793 1050.906,3120.5694 1049.8536,3117.548 1049.1286,3114.4108 1047.9374,3111.4287 1046.7917,3108.2107 1045.9108,3104.9101 1044.9697,3101.6282 1043.859,3097.7551 1043.0601,3093.7914 1042.2212,3089.854 1041.6694,3086.004 1042.0499,3082.1075 1041.9652,3078.2271 1042.0108,3073.3861 1042.0934,3068.5448 1042.0188,3063.7035 1041.9212,3059.4766 1042.0789,3055.0115 1040.5062,3051.0207 1038.4833,3047.9487 1035.4552,3045.8198 1032.3295,3043.958 1025.5747,3040.3209 1018.4493,3037.4533 1011.6339,3033.9315 1005.8472,3030.7377 999.79265,3027.2613 997.04064,3020.9236 995.11721,3016.4303 993.1514,3011.868 992.97777,3006.9045 992.49315,3002.736 991.57987,2998.6414 991.07433,2994.4746 990.90704,2993.3113 990.4775,2990.4676 990.3949,2989.309 990.14305,2985.7762 990.39281,2982.2048 989.97934,2978.6775 989.63937,2974.4526 989.32104,2970.1815 988.35108,2966.0489 986.91585,2961.4576 984.54013,2957.3025 981.88802,2953.3035 978.78103,2948.9026 975.96851,2944.2337 972.16753,2940.3802 968.9024,2937.8103 966.82216,2937.3741 962.74833,2938.0951 961.14494,2938.4595 959.62746,2938.8733 958.12451,2939.5592 957.59041,2939.803 956.04768,2940.6531 956.55215,2940.3528 971.7109,2931.3294 970.55541,2932.0342 965.86957,2935.0185 957.95831,2939.5425 951.95141,2945.3255 942.9192,2944.3581 939.62671,2943.9596 936.4093,2943.2436 933.27133,2942.1535 929.98559,2941.1573 926.7441,2939.9505 923.27165,2939.814 919.35207,2939.4642 915.42129,2939.5779 911.48963,2939.5512 906.7731,2939.5561 902.05664,2939.5401 897.34013,2939.5315 892.81098,2939.5258 888.28123,2939.5004 883.75276,2939.5994 879.82046,2939.7325 875.87017,2939.9369 872.02543,2940.843 867.24813,2942.0368 862.60167,2943.5624 858.44633,2946.2942 861.77152,2944.3553 865.05442,2942.3421 868.42189,2940.4776 869.34837,2939.9646 866.66127,2941.655 865.77587,2942.2361 864.80295,2942.8745 863.82108,2943.4993 862.84702,2944.136 855.79578,2948.7453 848.80064,2953.3794 841.24283,2957.1972 836.10952,2960.1576 830.94003,2963.4928 825.05662,2964.6845 820.7255,2965.0278 816.37766,2964.6322 812.06238,2964.2052 806.13185,2963.4163 800.31464,2962.0977 794.65348,2960.1385 790.28757,2958.9475 785.81616,2957.3081 781.23491,2958.1374 775.65522,2959.4716 771.30401,2963.2602 789.15804,2952.5381 789.74869,2952.1834 787.93095,2953.1675 787.34163,2953.5244 785.47186,2954.6569 784.82728,2955.2385 783.04536,2956.6097 781.29516,2958.116 779.62038,2959.5009 777.99139,2961.1512 773.62912,2965.5705 769.96206,2970.6309 765.82943,2975.2539 762.38633,2979.2203 758.95739,2983.2393 754.91062,2986.6203 747.6234,2992.7086 739.00034,2997.0243 730.5938,3001.3566 727.47123,3002.5404 726.29771,3003.1801 723.00819,3003.681 718.68741,3004.339 714.28879,3003.6364 710.07663,3002.6736 709.19462,3002.3823 708.29203,3002.1473 707.4306,3001.7998 702.64078,2999.868 698.8054,2996.1309 694.22718,2993.8015 691.27748,2992.2337 688.25371,2990.4681 684.81508,2990.2788 683.83894,2990.225 681.152,2991.1936 681.89563,2990.5589 684.04821,2988.7218 697.27427,2980.712 689.18846,2986.2126 688.33931,2987.1718 687.42031,2988.0734 686.64101,2989.0901 684.88661,2991.3791 682.46466,2995.4555 681.08438,2997.8371 677.28913,3004.3855 673.84004,3011.1246 670.52602,3017.9271 661.68024,3034.8915 652.1838,3051.5251 641.19141,3067.2087 634.75478,3076.0515 628.13834,3084.867 620.12179,3092.3758 613.02,3099.0277 608.31029,3100.7718 598.37647,3106.8901 596.81715,3107.7503 595.30401,3108.7001 593.69851,3109.4706 588.38999,3112.0184 582.64247,3113.4239 576.75204,3113.3693 576.75204,3113.3693 588.877,3104.56 588.877,3104.56 z"
       inkscape:connector-curvature="0" />
    <path
       style="fill:#008000"
       id="path3241"
       d="M 871.76326,2981.6795 C 875.79365,2977.8533 880.24931,2974.5243 884.97974,2971.6216 890.85962,2968.6323 897.1979,2963.3029 904.22561,2961.8931 906.72783,2961.3911 909.27762,2961.3365 911.81749,2961.2368 917.8387,2960.9351 923.80464,2961.9806 929.77843,2962.5627 929.77843,2962.5627 917.82522,2971.0634 917.82522,2971.0634 L 917.82522,2971.0634 C 911.90227,2970.4352 905.97114,2969.4633 899.99623,2969.9251 897.47554,2970.1035 894.97074,2970.2573 892.51544,2970.9067 887.59015,2972.2095 879.27738,2977.5941 898.66708,2966.3492 893.94809,2969.0529 889.53873,2972.2219 885.57351,2975.9591 885.57351,2975.9591 871.76326,2981.6795 871.76326,2981.6795 z"
       inkscape:connector-curvature="0" />
    <path
       style="fill:#008000"
       id="path3243"
       d="M 708.06205,3038.1738 C 701.66921,3042.4616 694.92447,3045.8511 688.09875,3049.2613 686.94595,3049.8373 685.77757,3050.3819 684.6282,3050.9646 683.31592,3051.63 679.46146,3053.7769 680.71431,3053.0054 683.35667,3051.3783 686.10594,3049.9316 688.80175,3048.3947 680.27238,3053.1395 673.86653,3060.367 667.79101,3067.8262 664.9816,3071.1699 662.78556,3074.948 660.33547,3078.5463 660.33547,3078.5463 646.87669,3084.398 646.87669,3084.398 L 646.87669,3084.398 C 649.47855,3080.7869 651.67074,3076.8956 654.5386,3073.4749 660.65041,3065.9602 666.92021,3058.4525 675.4358,3053.5346 680.93628,3050.3559 686.40944,3047.1295 691.93725,3043.9985 695.42521,3042.023 699.10544,3040.3592 702.65745,3038.501 703.4928,3038.064 705.96647,3036.6943 705.1563,3037.1764 701.49998,3039.352 697.79655,3041.4475 694.11668,3043.583 694.11668,3043.583 708.06205,3038.1738 708.06205,3038.1738 z"
       inkscape:connector-curvature="0" />
    <path
       style="fill:#008000"
       id="path3245"
       d="M 972.06634,3014.8359 C 970.03516,3019.1327 969.14414,3024.0391 969.28055,3028.7884 969.31765,3030.08 969.52109,3031.3615 969.64136,3032.648 970.68146,3039.8921 974.5044,3046.0516 978.25069,3052.1563 981.04061,3056.5256 983.58806,3060.9969 985.59189,3065.7809 987.36562,3070.7675 988.83857,3075.8149 989.77434,3081.0239 989.86875,3081.782 989.96316,3082.5401 990.05756,3083.2982 990.05756,3083.2982 976.97996,3090.1561 976.97996,3090.1561 L 976.97996,3090.1561 C 976.89806,3089.4183 976.81615,3088.6805 976.73425,3087.9427 975.9405,3082.8079 974.51679,3077.8567 972.77518,3072.9628 970.81411,3068.241 968.19157,3063.8841 965.57082,3059.5042 961.85726,3053.1494 958.01654,3046.7543 956.81341,3039.3575 956.65273,3038.0203 956.4075,3036.6906 956.33137,3035.346 956.05477,3030.4602 956.91948,3025.5802 958.37867,3020.9373 958.37867,3020.9373 972.06634,3014.8359 972.06634,3014.8359 z"
       inkscape:connector-curvature="0" />
    <path
       style="fill:#4d4d4d"
       id="path3607"
       d="M -3.4030307,3159.2759 C 2.577063,3157.6903 14.492631,3156.6092 20.469695,3155.0029 29.708495,3152.4682 39.145206,3150.8843 48.625187,3149.5997 58.176636,3148.1287 67.722175,3146.585 77.318288,3145.4308 84.319308,3144.5991 91.370875,3144.5265 98.410476,3144.4587 104.64894,3144.4274 110.88751,3144.4088 117.12605,3144.4056 124.0541,3144.4271 130.98194,3144.4844 137.91004,3144.5003 147.81831,3144.5399 157.72665,3144.5451 167.63498,3144.5498 179.47115,3144.916 191.30666,3145.2616 203.14734,3145.4424 215.31406,3145.5629 227.4815,3145.5972 239.64874,3145.6185 251.71104,3145.6445 263.77328,3145.6107 275.83551,3145.5703 285.59423,3145.3653 295.34196,3145.8614 305.09241,3146.1679 315.0859,3146.4779 325.08498,3146.5058 335.08233,3146.5291 343.44065,3146.5017 351.75886,3147.5305 360.09911,3148.0153 366.94513,3148.3643 373.71414,3149.4606 380.43861,3150.7475 381.4041,3150.9582 382.37321,3151.153 383.33508,3151.3797 385.83933,3151.9698 386.45968,3152.2354 388.97157,3152.7486 392.08824,3153.3854 395.25873,3153.7246 398.40626,3154.1675 403.76755,3154.591 409.02006,3155.519 414.11753,3157.2352 418.02497,3158.564 421.62426,3160.5417 425.28809,3162.4002 428.93284,3164.0427 432.59206,3165.3927 436.53977,3166.0666 440.80461,3166.5084 445.05993,3167.0165 449.3394,3167.3101 454.37593,3167.5944 459.42217,3167.6265 464.46524,3167.6594 470.24334,3167.6711 476.02141,3167.6812 481.79952,3167.6806 489.48794,3167.7066 497.17636,3167.7295 504.86482,3167.7367 515.22405,3167.7708 525.5833,3167.7927 535.94257,3167.8107 548.5692,3167.8379 561.19585,3167.8479 573.82252,3167.8473 585.61357,3167.8708 597.40447,3167.7985 609.19543,3167.7795 618.42576,3167.7451 627.65617,3167.7472 636.88655,3167.7469 645.11242,3167.643 653.35013,3167.9471 661.56926,3167.55 668.10353,3167.2316 674.64047,3166.999 681.11364,3166.0115 687.09131,3165.0966 693.034,3163.9587 699.03084,3163.172 701.58008,3162.6494 704.22578,3162.9062 706.78837,3162.5896 707.9776,3162.4427 709.13449,3162.1002 710.31053,3161.8705 715.27436,3160.9296 720.09501,3159.4496 724.98696,3158.2066 729.56362,3156.9867 733.6718,3154.6286 738.17172,3153.2221 743.47905,3151.9488 748.9371,3151.5031 754.32869,3150.7306 758.48395,3149.8992 762.59016,3148.8193 766.77647,3148.1534 771.16132,3147.4429 775.62474,3147.766 780.00756,3147.1404 785.21084,3146.1245 790.46378,3145.5034 795.72448,3144.8793 802.28978,3143.8739 808.8665,3142.9018 815.47263,3142.2054 821.80206,3141.6524 828.11464,3140.8403 834.39372,3139.8709 839.60441,3139.0291 844.86664,3138.639 850.13592,3138.438 854.27673,3138.283 858.421,3138.3083 862.56379,3138.3164 866.48292,3138.3073 870.402,3138.3127 874.3211,3138.3299 879.49312,3137.8546 884.60619,3136.8901 889.77105,3136.3019 896.91172,3135.5794 904.09604,3135.4844 911.26674,3135.4122 919.86019,3135.3939 928.45369,3135.3888 937.04715,3135.4017 945.07911,3135.3916 953.11106,3135.3985 961.14301,3135.3839 967.37224,3135.4346 973.55381,3136.1543 979.75028,3136.6885 986.78315,3137.1068 993.69189,3138.5959 1000.6716,3139.502 1006.5484,3139.9364 1012.3599,3140.903 1018.1775,3141.8216 1023.9972,3142.4355 1029.7441,3143.4833 1035.5115,3144.4459 1039.5829,3144.9645 1043.6375,3145.5375 1047.6226,3146.5334 1051.162,3147.7989 1054.0674,3150.5298 1056.9966,3152.4284 1063.6614,3154.2323 1064.3167,3158.0705 1068.4242,3158.6019 1068.1649,3168.4994 1068.4758,3159.1016 1068.2508,3167.4731 1064.1307,3166.9073 1050.5502,3157.9175 1046.387,3157.7172 1042.6479,3157.1728 1039.0584,3156.0847 1035.4612,3154.9462 1031.4891,3154.0676 1027.4572,3153.5627 1023.4466,3152.8964 1017.7228,3151.8503 1011.9944,3150.9052 1006.2113,3150.2398 1000.3993,3149.3707 994.59445,3148.4643 988.74069,3147.9244 981.79122,3146.9207 974.88503,3145.4758 967.85273,3145.1798 961.70945,3144.668 955.57611,3143.9815 949.40386,3143.9124 941.39938,3143.8937 933.39488,3143.8933 925.39041,3143.8696 916.77657,3143.8709 908.16217,3143.8314 899.54887,3143.9489 892.37885,3144.0621 885.19393,3144.1952 878.06344,3145.0251 872.82718,3145.6951 867.63576,3146.8235 862.35253,3147.0242 858.4346,3147.0354 854.51676,3147.0286 850.59885,3147.0089 846.4795,3147.0147 842.35913,3147.0213 838.24152,3147.1548 833.02849,3147.3852 827.82717,3147.8194 822.67198,3148.6528 816.38625,3149.5391 810.08593,3150.3621 803.76105,3150.9123 797.16736,3151.6704 790.59789,3152.6225 784.03277,3153.5945 778.72925,3154.2701 773.45803,3155.1001 768.18018,3155.9481 763.77445,3156.3656 759.32108,3156.2717 754.95019,3157.0605 750.81117,3157.8414 746.71857,3158.8581 742.55841,3159.5293 737.18887,3160.2298 731.74724,3160.7343 726.5345,3162.2704 722.1223,3163.8744 717.92537,3166.0537 713.32512,3167.1389 708.39381,3168.4374 703.49448,3169.8418 698.48188,3170.8088 694.75614,3171.498 690.98481,3171.5151 687.22857,3171.9866 681.28183,3172.7817 675.37861,3173.8577 669.44553,3174.746 662.93306,3175.6258 656.37201,3175.873 649.8106,3176.1572 641.62561,3176.3431 633.43583,3176.1274 625.24927,3176.2019 616.04879,3176.2016 606.84827,3176.2038 597.64783,3176.1693 585.91916,3176.1503 574.19055,3176.0777 562.46178,3176.1014 549.80152,3176.1009 537.14127,3176.1109 524.48104,3176.138 514.05355,3176.156 503.62607,3176.1777 493.19862,3176.2128 485.45416,3176.2214 477.70974,3176.2457 469.96535,3176.2796 464.1691,3176.2854 458.37281,3176.3129 452.57659,3176.2868 447.49857,3176.2629 442.41824,3176.2245 437.34887,3175.8926 433.02186,3175.5757 428.6987,3175.1424 424.40164,3174.5444 420.38472,3173.7179 416.61245,3172.2513 412.89346,3170.5326 409.32246,3168.6574 405.72573,3166.8265 401.8892,3165.5408 396.87368,3163.9417 391.72377,3163.0563 386.48141,3162.581 380.39186,3161.7362 374.38024,3160.6544 368.41834,3159.1391 361.77857,3157.8766 355.10857,3156.7602 348.34468,3156.446 340.05235,3155.9124 331.7755,3154.9404 323.45884,3154.9664 313.46433,3154.9032 303.46995,3154.7875 293.47786,3154.5513 283.75994,3154.2523 274.0447,3153.7977 264.31894,3153.938 252.29893,3153.9024 240.27893,3153.8779 228.25887,3153.892 216.09066,3153.89 203.92183,3153.8981 191.75487,3153.6936 179.8668,3153.5198 167.98333,3153.195 156.09729,3152.9324 146.1445,3152.9372 136.19172,3152.943 126.23899,3152.9795 119.23643,3152.9924 112.23399,3153.0482 105.23144,3153.0442 99.039447,3153.0183 92.847301,3152.9619 86.655268,3153.0193 79.66385,3153.1073 72.663905,3153.2793 65.710612,3154.077 56.181366,3155.2079 46.689784,3156.644 37.211247,3158.1362 27.712347,3159.4949 18.267761,3161.2034 9.0168965,3163.7949 2.9065838,3165.456 2.6922238,3165.0751 -3.2926932,3167.1451 z"
       inkscape:connector-curvature="0"
       sodipodi:nodetypes="cccccccccccccccccccccccccccccccccccccccccccccccccccccccccccccccccccccccccccccccccccccccccccccccccccccccccccccc" />
    <path
       style="fill:#008000"
       id="path3929"
       d="M 1007.8896,192.05972 C 1009.1513,195.35508 1010.3015,197.17931 1013.6103,198.53466 1015.8144,199.08064 1018.2452,199.69634 1020.5444,199.51874 1022.146,199.39503 1023.1629,198.88224 1024.6561,198.31998 1031.2757,194.04686 1021.068,200.72024 1016.219,202.52778 1015.1866,202.9126 1017.7404,200.93152 1018.4443,200.08396 1021.0144,196.9892 1023.1778,193.55283 1025.4669,190.25239 1029.3839,184.22583 1034.4885,179.1959 1039.7738,174.39106 1043.4722,170.84794 1047.499,167.74001 1051.7926,164.96431 1057.6956,161.3097 1063.4501,157.21422 1069.8813,154.57349 1071.444,153.93185 1073.0947,153.60445 1074.6737,153.00133 1075.1721,152.82148 1075.6642,152.62305 1076.169,152.46177 1077.445,152.05407 1077.9588,152.04429 1079.1888,151.51949 1080.7401,150.85763 1082.2327,150.01168 1083.7775,149.32439 1083.7775,149.32439 1072.1504,158.5559 1072.1504,158.5559 L 1072.1504,158.5559 C 1069.1499,159.95348 1066.1251,161.20779 1062.9457,162.14967 1061.3738,162.66767 1059.7924,163.12586 1058.2943,163.84154 1057.7427,164.10507 1056.1439,165.00458 1056.6702,164.69359 1072.4687,155.3591 1070.2482,156.70577 1065.5483,159.60667 1061.2383,162.37598 1057.0109,165.22591 1053.3499,168.85432 1047.9877,173.5943 1042.6784,178.46953 1038.7061,184.48737 1036.4303,187.78158 1034.2983,191.20093 1031.8844,194.3971 1031.2199,195.27691 1030.7012,196.32812 1029.8033,196.96798 1019.5678,204.26224 1019.6778,204.10371 1012.9892,207.36104 1012.222,207.56624 1011.4698,207.83917 1010.6876,207.97665 1007.5377,208.53031 1004.1709,207.78713 1001.2114,206.74327 997.59509,204.88301 996.41587,202.84375 994.71604,199.24057 994.71604,199.24057 1007.8896,192.05972 1007.8896,192.05972 z"
       inkscape:connector-curvature="0"
       transform="translate(-3.0755252,2781.2817)" />
  </g>
</svg>
