<?xml version="1.0" encoding="UTF-8" standalone="no"?>
<!-- Generator: Adobe Illustrator 16.0.0, SVG Export Plug-In . SVG Version: 6.00 Build 0)  -->

<svg
   xmlns:dc="http://purl.org/dc/elements/1.1/"
   xmlns:cc="http://creativecommons.org/ns#"
   xmlns:rdf="http://www.w3.org/1999/02/22-rdf-syntax-ns#"
   xmlns:svg="http://www.w3.org/2000/svg"
   xmlns="http://www.w3.org/2000/svg"
   xmlns:sodipodi="http://sodipodi.sourceforge.net/DTD/sodipodi-0.dtd"
   xmlns:inkscape="http://www.inkscape.org/namespaces/inkscape"
   version="1.1"
   id="Layer_1"
   x="0px"
   y="0px"
   width="1218.001px"
   height="400px"
   viewBox="0 0 1218.001 400"
   enable-background="new 0 0 1218.001 400"
   xml:space="preserve"
   inkscape:version="0.48.4 r9939"
   sodipodi:docname="bg.svg"><metadata
     id="metadata149"><rdf:RDF><cc:Work
         rdf:about=""><dc:format>image/svg+xml</dc:format><dc:type
           rdf:resource="http://purl.org/dc/dcmitype/StillImage" /></cc:Work></rdf:RDF></metadata><defs
     id="defs147" /><sodipodi:namedview
     pagecolor="#ffffff"
     bordercolor="#666666"
     borderopacity="1"
     objecttolerance="10"
     gridtolerance="10"
     guidetolerance="10"
     inkscape:pageopacity="0"
     inkscape:pageshadow="2"
     inkscape:window-width="1551"
     inkscape:window-height="876"
     id="namedview145"
     showgrid="false"
     inkscape:zoom="256"
     inkscape:cx="1218.0625"
     inkscape:cy="124.37695"
     inkscape:window-x="49"
     inkscape:window-y="24"
     inkscape:window-maximized="1"
     inkscape:current-layer="Layer_1" /><rect
     fill="#ACDBEF"
     width="1218.001"
     height="296.985"
     id="rect3" /><polygon
     fill="#77C0DE"
     points="779.46,288.912 366.464,288.912 572.962,157.978 572.962,157.978 "
     id="polygon5" /><polygon
     fill="#77C0DE"
     points="489.721,281.884 61.714,281.884 275.718,150.949 275.718,150.949 "
     id="polygon7" /><polygon
     fill="#77C0DE"
     points="1184.597,277.395 756.591,277.395 970.595,146.459 970.595,146.459 "
     id="polygon9" /><path
     fill="#305A42"
     d="M802.159,132.089L802.159,132.089c-11.662-7.27-27.773-11.767-45.568-11.767s-33.906,4.497-45.568,11.767  l0,0L435.946,290.817h320.645h320.645L802.159,132.089z"
     id="path11" /><circle
     fill="#FCF8C9"
     cx="1160.532"
     cy="82.846"
     r="19.934"
     id="circle13" /><path
     fill="#FFFFFF"
     d="M805.075,97.205v-0.002c4.779,0,8.652-3.874,8.652-8.651v0.513v0.495h0.012  c-0.006-0.164-0.012-0.329-0.012-0.495c0-8.236,6.676-14.912,14.91-14.912h23.684c4.779,0,8.652-3.873,8.652-8.651h-0.014  c0-8.235,6.676-14.91,14.91-14.91c0.002,0,0.004,0,0.008,0l0,0h37.236c8.236,0,14.91,6.675,14.91,14.91v-0.984  c0,4.777,3.875,8.651,8.652,8.651v0.001c8.236,0,14.91,6.677,14.91,14.911c0,8.236-6.674,14.912-14.91,14.912h-26.758  c-4.777,0-8.65,3.873-8.65,8.652h0.023c0,8.235-6.678,14.911-14.912,14.911l0,0l0,0h-42.199v-0.134  c-0.449,0.085-0.912,0.134-1.385,0.134c-4.072,0-7.371-3.299-7.371-7.37h-0.002c0-3.824-2.955-6.95-6.703-7.238h-23.645  c-4.072,0-7.371-3.3-7.371-7.371C797.704,100.504,801.003,97.205,805.075,97.205z"
     id="path15" /><g
     id="g17"><path
       fill="#4C8A5D"
       d="M1217.954,145.971c-19.77,0-37.537,8.563-49.803,22.179L1037.06,290.812h113.883v1.135h67.066V145.972   C1217.991,145.972,1217.974,145.971,1217.954,145.971z"
       id="path19" /></g><path
     fill="#FFFFFF"
     d="M199.212,91.375c0-7.435-5.898-13.489-13.27-13.749c-2.846-0.087-5.127-2.416-5.127-5.283h-0.002  c0-2.965-2.402-5.367-5.367-5.367c-0.234,0-0.577,0.015-1.01,0.044v-0.044h-12.041c-6.908,0-12.508-5.599-12.508-12.509h-0.006  c0-2.965-2.402-5.368-5.369-5.368H98.852c-5.419,0-9.813,4.395-9.813,9.815h-0.003c0,4.453-3.61,8.062-8.062,8.062h-2.738l0,0  c-2.518,0-4.558,2.041-4.558,4.558v5.138c-0.409,3.815-3.344,6.864-7.098,7.463h-0.074c-5.997,0-10.859,4.862-10.859,10.859  c0,5.997,4.862,10.859,10.859,10.859v0c3.479,0,6.301,2.821,6.301,6.3v-0.716c0,5.997,4.86,10.858,10.858,10.858h49.607l0,0  c0.002,0,0.004,0,0.006,0c5.996,0,10.859-4.861,10.859-10.858h-0.011c0-3.48,2.819-6.301,6.3-6.301h35.328v-0.007  C193.214,104.966,199.212,98.874,199.212,91.375z"
     id="path21" /><g
     id="g23"
     transform="translate(-0.007,0)"><path
       d="M 50.256,167.351 H 50.254 C 38.006,154.131 20.499,145.853 1.056,145.853 C 0.704,145.853 0.358,145.876 0.007,145.881 V 291.923 H 60.12 V 290.788 H 182.177 L 50.256,167.351 z"
       id="path25"
       inkscape:connector-curvature="0"
       style="fill:#4c8a5d" /></g><g
     id="g27"
     transform="translate(0.024,0)"><path
       d="M 325.715,141.437 C 317.003,135.593 306.521,132.183 295.242,132.183 C 286.655,132.183 278.532,134.16 271.298,137.682 L 271.294,137.684 C 269.669,138.476 268.088,139.346 266.557,140.289 L -0.024,286.875 V 300.648 H 293.206 H 296.977 H 615.256 L 325.715,141.437 z"
       id="path29"
       inkscape:connector-curvature="0"
       style="fill:#2e764f" /></g><rect
     y="275.5"
     width="1218.01"
     height="124.5"
     id="rect31"
     x="0"
     style="fill:#7ca56f" /><rect
     x="399.197"
     y="182.142"
     fill="#DB7557"
     width="15.842"
     height="166.188"
     id="rect33" /><circle
     fill="#78C146"
     cx="407.469"
     cy="161.704"
     r="63.552"
     id="circle35" /><g
     id="g37"><rect
       x="544.216"
       y="238.255"
       fill="#DB7557"
       width="6.215"
       height="65.188"
       id="rect39" /><circle
       fill="#78C146"
       cx="547.324"
       cy="224.546"
       r="19.236"
       id="circle41" /></g><g
     id="g43"><rect
       x="290.943"
       y="237.062"
       fill="#93391F"
       width="6.417"
       height="73.187"
       id="rect45" /><g
       id="g47"><circle
         fill="#2A8D43"
         cx="294.151"
         cy="222.159"
         r="18.433"
         id="circle49" /><circle
         fill="#2A8D43"
         cx="294.151"
         cy="174.18"
         r="18.433"
         id="circle51" /><rect
         x="275.718"
         y="171.851"
         fill="#2A8D43"
         width="36.866"
         height="50.308"
         id="rect53" /></g></g><g
     id="g55"><rect
       x="795.669"
       y="263.926"
       fill="#93391F"
       width="4.07"
       height="46.429"
       id="rect57" /><g
       id="g59"><circle
         fill="#2A8D43"
         cx="797.704"
         cy="254.472"
         r="11.693"
         id="circle61" /><circle
         fill="#2A8D43"
         cx="797.704"
         cy="224.034"
         r="11.693"
         id="circle63" /><rect
         x="786.011"
         y="222.557"
         fill="#2A8D43"
         width="23.387"
         height="31.915"
         id="rect65" /></g></g><g
     id="g67"><rect
       x="581.083"
       y="271.751"
       fill="#BA5427"
       width="6.308"
       height="29.851"
       id="rect69" /><polygon
       fill="#23441F"
       points="595.513,283.822 572.962,283.822 584.238,232.484 584.238,232.484  "
       id="polygon71" /></g><g
     id="g73"><rect
       x="609.972"
       y="254.376"
       fill="#FFFFFF"
       width="71.441"
       height="50.554"
       id="rect75" /><rect
       x="644.675"
       y="274.205"
       fill="#25475A"
       width="6.766"
       height="8.935"
       id="rect77" /><rect
       x="609.972"
       y="233.558"
       fill="#DC4A29"
       width="71.441"
       height="25.047"
       id="rect79" /><rect
       x="657.188"
       y="222.678"
       fill="#F47E6A"
       width="8.211"
       height="20.735"
       id="rect81" /></g><g
     id="g83"><path
       fill="#308950"
       d="M645.692,305.964c0-7.453,6.043-13.496,13.496-13.496s13.496,6.043,13.496,13.496"
       id="path85" /><path
       fill="#308950"
       d="M672.685,305.964c0-7.453,6.041-13.496,13.496-13.496c7.453,0,13.494,6.043,13.494,13.496"
       id="path87" /><path
       fill="#308950"
       d="M699.675,305.964c0-7.453,6.043-13.496,13.496-13.496c7.455,0,13.498,6.043,13.498,13.496"
       id="path89" /></g><g
     id="g91"><g
       id="g93"><path
         fill="#2A8D43"
         d="M978.175,400c0-10.165,8.24-18.404,18.406-18.404c10.164,0,18.404,8.239,18.404,18.404"
         id="path95" /><path
         fill="#2A8D43"
         d="M1014.985,400c0-10.165,8.24-18.404,18.404-18.404s18.404,8.239,18.404,18.404"
         id="path97" /><path
         fill="#2A8D43"
         d="M1051.794,400c0-10.165,8.24-18.404,18.406-18.404c10.164,0,18.404,8.239,18.404,18.404"
         id="path99" /></g><g
       id="g101"><path
         fill="#2A8D43"
         d="M1088.604,400c0-10.165,8.24-18.404,18.406-18.404c10.164,0,18.404,8.239,18.404,18.404"
         id="path103" /><path
         fill="#2A8D43"
         d="M1125.415,400c0-10.165,8.24-18.404,18.404-18.404c10.166,0,18.404,8.239,18.404,18.404"
         id="path105" /><path
         fill="#2A8D43"
         d="M1162.224,400c0-10.165,8.242-18.404,18.406-18.404s18.404,8.239,18.404,18.404"
         id="path107" /></g></g><g
     id="g109"><path
       fill="#A6B7BC"
       d="M674.091,159.79c0-2.36-1.914-4.272-4.275-4.272c-2.359,0-4.271,1.913-4.271,4.272"
       id="path111" /><path
       fill="#A6B7BC"
       d="M665.544,178.486c0,2.359,1.914,4.272,4.271,4.272c2.361,0,4.275-1.913,4.275-4.272"
       id="path113" /><path
       fill="#A6B7BC"
       d="M656.71,195.094c0,2.36,1.914,4.272,4.273,4.272s4.271-1.912,4.271-4.272"
       id="path115" /><path
       fill="#A6B7BC"
       d="M665.255,181.656c0-2.36-1.912-4.273-4.271-4.273c-2.361,0-4.273,1.913-4.273,4.273"
       id="path117" /><path
       fill="#A6B7BC"
       d="M665.591,174.423c0,1.708-1.385,3.094-3.092,3.094h5.514v-3.094H665.591z"
       id="path119" /><path
       fill="#A6B7BC"
       d="M665.247,185.857c0-1.708,1.385-3.093,3.092-3.093h-5.514v3.093H665.247z"
       id="path121" /><rect
       x="667.929"
       y="172.369"
       fill="#A6B7BC"
       width="6.162"
       height="3.602"
       id="rect123" /><rect
       x="665.544"
       y="159.79"
       fill="#A6B7BC"
       width="8.547"
       height="18.697"
       id="rect125" /><rect
       x="656.71"
       y="181.656"
       fill="#A6B7BC"
       width="8.545"
       height="13.438"
       id="rect127" /><rect
       x="660.886"
       y="177.383"
       fill="#A6B7BC"
       width="8.93"
       height="5.375"
       id="rect129" /><circle
       fill="#A6B7BC"
       cx="661.03"
       cy="205.775"
       r="4.32"
       id="circle131" /><circle
       fill="#A6B7BC"
       cx="660.982"
       cy="214.346"
       r="2.419"
       id="circle133" /></g><circle
     fill="#F3744B"
     cx="424.638"
     cy="194.548"
     r="9.599"
     id="circle135" /><circle
     fill="#F3744B"
     cx="399.197"
     cy="165.714"
     r="6.137"
     id="circle137" /><circle
     fill="#F3744B"
     cx="434.237"
     cy="133.017"
     r="6.138"
     id="circle139" /><circle
     fill="#F3744B"
     cx="363.888"
     cy="169.138"
     r="6.137"
     id="circle141" /><circle
     fill="#F3744B"
     cx="447.162"
     cy="171.851"
     r="5.387"
     id="circle143" /></svg>