<?xml version="1.0" encoding="utf-8"?>
<!-- Generator: Adobe Illustrator 16.0.0, SVG Export Plug-In . SVG Version: 6.00 Build 0)  -->
<!DOCTYPE svg PUBLIC "-//W3C//DTD SVG 1.1//EN" "http://www.w3.org/Graphics/SVG/1.1/DTD/svg11.dtd">
<svg version="1.1" id="Layer_1" xmlns="http://www.w3.org/2000/svg" xmlns:xlink="http://www.w3.org/1999/xlink" x="0px" y="0px"
	 width="191.064px" height="511.137px" viewBox="0 0 191.064 511.137" enable-background="new 0 0 191.064 511.137"
	 xml:space="preserve">
<g>
	<path fill="#F9B69B" d="M110.807,241.713c-0.1-0.012-0.193,0-0.291-0.004l0.463-3.793l0.105-0.871l-19.812-2.414l0,0l-1.147,9.412
		l-1.514,12.42c0,0.008-0.004,0.012-0.004,0.012c-0.002,0.016,0,0.02,0,0.02l-0.117,0.969l0.097,0.012
		c-0.112,5.066,3.583,9.498,8.722,10.123c5.137,0.627,9.789-2.787,10.896-7.732l0.098,0.012l0.117-0.959
		c0,0,0.002-0.014,0.004-0.021c0,0,0-0.012,0-0.02l1.24-10.168c0.096,0.02,0.184,0.053,0.281,0.064
		c1.951,0.238,3.725-1.15,3.961-3.096C114.145,243.726,112.759,241.951,110.807,241.713z"/>
	<path fill="#FFFFFF" d="M100.405,112.479L87.424,219.004c-0.352,2.885,1.705,5.513,4.591,5.865l0.438,0.053l-0.055,0.447
		l-1.129,9.263l19.814,2.415l1.129-9.263l0.691-5.676l0.438-3.586l12.545-102.939L100.405,112.479z"/>
	
		<rect x="91.789" y="226.092" transform="matrix(0.9927 0.121 -0.121 0.9927 28.6964 -10.6167)" opacity="0.3" fill="#84A8C1" width="19.959" height="9.782"/>
</g>
<g>
	<path fill="#F9B69B" d="M98.981,7.16l-0.51-0.638h-36.6v78.072l0,0v29.463H89.8V84.595l0,0v-0.028c0-6.122,0-6.122,0-7.653
		c0-3.569,4.078-4.081,4.078-4.081h8.545V39.169h10.84L98.981,7.16z"/>
	<circle fill="#2E3D49" cx="93.72" cy="19.243" r="1.499"/>
	<path fill="#CE857C" d="M97.313,47.644c-0.572,0-1.039-0.467-1.039-1.039h-1.531c0,1.415,1.154,2.568,2.57,2.568h5.109v-1.529
		H97.313z"/>
	<path fill="none" d="M80.464,21.188c0,0.036,0.01,0.068,0.01,0.105v-0.105H80.464z"/>
	<path fill="#4F575B" d="M60.215-1v43.738c0,0,0,0,3.953,0c11.987,0,11.348-11.349,11.348-11.349V26.32
		c-0.026,0.003-0.05,0.009-0.077,0.009c-2.781,0-5.037-2.253-5.037-5.035s2.256-5.038,5.037-5.038c2.745,0,4.967,2.199,5.025,4.933
		h0.01v0.105v5.035h5.373V13.535c1.709,0,3.926,0,6.887,0C106.759,13.535,109.821-1,109.821-1H60.215z"/>
</g>
<g>
	<path fill="#1F2328" d="M189.569,489.33c-2.791-5.084-4.615-5.385-16.434-3.842l-9.027-1.191c-5-0.314-9.682-2.199-13.461-5.238
		c-0.852-0.686-1.65-1.432-2.4-2.23c-5.34,1.369-3.68,6.148-3.68,6.148l-15.236,2.738l0.371,2.059l0.514,2.865l0.516,2.865
		l1.113,6.199l0.49,2.727l0.293,1.631l16.775-3.016l-0.293-1.631l-0.486-2.713l8.229,3.006l34.211-6.148
		C190.79,492.033,190.274,490.615,189.569,489.33z"/>
	
		<rect x="106.298" y="226.454" transform="matrix(0.9842 -0.1769 0.1769 0.9842 -61.1548 26.7058)" fill="#202E42" width="25.851" height="259.867"/>
</g>
<g>
	<path fill="#2C313A" d="M58.579,505.496c-0.919-5.725-2.535-6.621-14.186-9.143l-8.102-4.156
		c-4.602-1.975-8.379-5.326-10.918-9.457c-0.57-0.932-1.071-1.904-1.512-2.908c-5.485-0.506-5.531,4.555-5.531,4.555l-15.27-2.543
		l-0.343,2.062l-0.479,2.871l-0.479,2.873l-1.034,6.213l-0.455,2.73L0,500.229l16.813,2.801l0.272-1.637l0.453-2.719l6.738,5.598
		l34.289,5.711C58.82,508.453,58.812,506.943,58.579,505.496z"/>
	
		<rect x="24.172" y="225.717" transform="matrix(0.9864 0.1643 -0.1643 0.9864 59.0289 -1.2546)" fill="#202E42" width="25.851" height="260.866"/>
</g>
<g>
	<path fill="#FFFFFF" d="M109.93,84.597H93.915h-0.692l-3.442-7.176l-6.287,18.635l-5.379-18.635H72.23h-5.179h-5.18v7.176h-5.665
		H40.195c-9.092,0-16.466,7.37-16.466,16.462v6.066c0,0,0.187,6.526,0.859,8.031l19.895,0.788v92.724h1.633h57.393h6.867v-92.724
		h15.422c0.318-0.788,0.588-8.205,0.588-8.205v-6.681C126.385,91.967,119.018,84.597,109.93,84.597z"/>
	<polygon opacity="0.3" fill="#84A8C1" points="81.274,88.373 78.114,77.421 73.323,86.826 	"/>
	<path opacity="0.3" fill="#84A8C1" d="M84.413,140.702c0,2.168,1.758,3.924,3.927,3.924h15.378c2.168,0,3.926-1.756,3.926-3.924
		v-20.511h-23.23V140.702z"/>
</g>
<path fill="#202E42" d="M44.483,231.53c0,13.214,10.711,23.927,23.926,23.927h18.105c13.213,0,23.926-10.713,23.926-23.927v-15.051
	H44.483V231.53z"/>
<rect x="44.483" y="211.668" fill="#9B390D" width="65.803" height="5.812"/>
<g>
	<path fill="#F9B69B" d="M71.453,235.533c-0.099,0.017-0.185,0.055-0.278,0.078l-0.646-3.766l-0.147-0.865l-19.673,3.371l0,0
		l1.602,9.346l2.113,12.332c0.001,0.008,0,0.014,0,0.014c0.002,0.014,0.005,0.018,0.005,0.018l0.165,0.961l0.096-0.018
		c1.346,4.889,6.158,8.072,11.259,7.199c5.101-0.875,8.579-5.479,8.222-10.536l0.096-0.017l-0.163-0.951c0,0,0-0.014-0.001-0.021
		c0,0-0.004-0.011-0.006-0.02l-1.73-10.096c0.098-0.009,0.191-0.002,0.289-0.02c1.938-0.332,3.237-2.169,2.906-4.101
		C75.227,236.504,73.389,235.201,71.453,235.533z"/>
	<path fill="#FFFFFF" d="M24.417,114.713l18.121,105.771c0.49,2.866,3.215,4.793,6.08,4.303l0.436-0.075l0.076,0.444l1.575,9.197
		l19.674-3.37l-1.575-9.197l-0.967-5.636l-0.609-3.561L49.716,110.378L24.417,114.713z"/>
	
		<rect x="49.737" y="222.955" transform="matrix(0.9856 -0.1689 0.1689 0.9856 -37.6158 13.3552)" opacity="0.3" fill="#84A8C1" width="19.958" height="9.782"/>
</g>
</svg>
