<?xml version="1.0" encoding="utf-8"?>
<!-- Generator: Adobe Illustrator 16.0.0, SVG Export Plug-In . SVG Version: 6.00 Build 0)  -->
<!DOCTYPE svg PUBLIC "-//W3C//DTD SVG 1.1//EN" "http://www.w3.org/Graphics/SVG/1.1/DTD/svg11.dtd">
<svg version="1.1" id="Layer_1" xmlns="http://www.w3.org/2000/svg" xmlns:xlink="http://www.w3.org/1999/xlink" x="0px" y="0px"
	 width="102px" height="458.264px" viewBox="0 0 102 458.264" enable-background="new 0 0 102 458.264" xml:space="preserve">
<g>
	<g>
		<path fill="#F8B69C" d="M50.092,26.434l8.271,29.498h-4.995v20.973H45.24c0,0-3.88,0.485-3.88,3.881c0,1.457,0,13.458,0,19.281
			v6.794H22.762v-4.367V25.827h26.845L50.092,26.434z"/>
		<path fill="#477838" d="M48.751,45.121c0,0.789-0.639,1.426-1.425,1.426c-0.784,0-1.425-0.637-1.425-1.426
			c0-0.786,0.641-1.423,1.425-1.423C48.112,43.698,48.751,44.335,48.751,45.121z"/>
		<path fill="#F28A82" d="M50.275,64.984c-0.208,0-0.375-0.168-0.375-0.374h-1.457c0,1.008,0.821,1.829,1.831,1.829h3.119v-1.456
			H50.275z"/>
		<path fill="#7C3C1A" d="M9.7,18.669v74.846c0,0,4.691,0,9.317,0c14.03,0,13.282-13.283,13.282-13.283V51.824
			c-2.64-0.004-4.782-2.148-4.782-4.792c0-2.645,2.146-4.791,4.79-4.791c2.098,0,3.863,1.358,4.512,3.235l0.062-0.198
			c3.063-0.229,5.481-2.691,5.626-5.776h0.029v-3.818c1.368,0,3.075,0,5.223,0c4.763,0,8.446-1.432,11.274-3.466
			c6.918-4.976-3.585-13.549-3.585-13.549H9.7z"/>
	</g>
	<path fill="#FFD62C" d="M61.822,26.204C59.691,12.488,51.231,0,33.018,0C11.899,0,3.639,17.256,3.639,33.482h55.469h3.289h6.702
		L61.822,26.204z"/>
</g>
<g>
	<path fill="#B25C27" d="M79.344,447.663h-8.197c-3.618-0.889-6.8-2.882-9.172-5.609c-1.787-2.055-3.109-4.523-3.803-7.247v-15.961
		l-0.41-0.089H45.483v20.176v6.748v2.167v2.172v4.686H89.14C87.767,450.61,83.9,447.663,79.344,447.663z"/>
	<path fill="#34383A" d="M45.483,458h12.688v-1.232v-2.055L63.805,458h25.875c0-1.155-0.193-2.26-0.541-3.295H45.483v2.062V458z"/>
</g>
<g>
	<path fill="#C0772A" d="M52.294,447.663h-8.195c-3.622-0.889-6.804-2.882-9.172-5.609c-1.789-2.055-3.111-4.523-3.809-7.247
		v-15.961l-0.408-0.089H18.43v20.176v6.748v2.167v2.172v4.686h43.659C60.713,450.61,56.848,447.663,52.294,447.663z"/>
	<path fill="#34383A" d="M18.43,458h12.688v-1.232v-2.055L36.753,458h25.875c0-1.155-0.191-2.26-0.541-3.295H18.43v2.062V458z"/>
</g>
<g>
	<path fill="#F8B69C" d="M63.867,234.708c-0.005,0-0.009,0.004-0.015,0.004v-0.76v-12.304v-80.082H47.997v80.082v12.304v10.626
		h0.033c-0.006,0.11-0.033,0.212-0.033,0.321c0,4.384,3.556,7.934,7.936,7.934c4.382,0,7.934-3.55,7.934-7.934
		c0-0.109-0.029-0.211-0.033-0.321h0.018v-1.491c0.006,0,0.01,0,0.015,0c2.312,0,4.188-1.873,4.188-4.188
		C68.054,236.586,66.179,234.708,63.867,234.708z"/>
	<rect x="47.997" y="141.567" opacity="0.4" fill="#B78D7E" width="15.855" height="5.953"/>
</g>
<g>
	<rect x="12.145" y="230.174" fill="#2D7994" width="19.465" height="204.49"/>
	<path fill="#1B6478" d="M23.094,313.423v21.879v6.258v3.38c0,1.24,1.008,2.249,2.252,2.249h6.264v-33.766H23.094z"/>
</g>
<g>
	<rect x="39.197" y="230.174" fill="#2D7994" width="19.463" height="204.49"/>
	<path fill="#1B6478" d="M50.144,313.423v21.879v6.258v3.38c0,1.24,1.008,2.249,2.252,2.249h6.264v-33.766H50.144z"/>
</g>
<path fill="#FFFFFF" d="M57.34,97.063H46.552h-5.167h-0.008c-0.002,5.134-4.165,9.293-9.3,9.293c-5.136,0-9.298-4.159-9.302-9.293
	h-0.212H11.299H6.607c-3.631,0-6.577,2.943-6.577,6.576L0,142.382h11.29v17.046h25.28v-17.046h9.982v-0.815H61.37h2.544v-21.772
	v-7.075v-9.081C63.914,100.007,60.972,97.063,57.34,97.063z"/>
<rect x="23.28" y="132.302" fill="#FFFFFF" width="35.38" height="54.252"/>
<rect x="36.57" y="109.386" fill="#FFFFFF" width="4.852" height="53.884"/>
<path fill="#2D7994" d="M58.65,135.524c0-1.32-0.369-2.542-0.962-3.623l0.008-0.057l-6.947-17.197V97.063h-5.522v17.584h-22.46
	V97.063h-5.519v17.584l-1.393,27.684v7.261l-4.565,9.836v84.122h47.36v-88.432v-5.526V135.524L58.65,135.524L58.65,135.524z"/>
<path fill="#1B6478" d="M27.167,122.705v4.6v4.184v2.259c0,0.833,0.676,1.507,1.509,1.507h13.742c0.832,0,1.504-0.674,1.504-1.507
	v-2.259v-4.184v-4.6H27.167z"/>
<g>
	<path fill="#F8B69C" d="M15.867,235.435c-0.004,0-0.008,0.002-0.012,0.002v-0.759v-12.304v-80.081H0v80.081v12.304v10.627h0.033
		C0.027,245.415,0,245.517,0,245.625c0,4.384,3.552,7.935,7.934,7.935c4.381,0,7.933-3.551,7.933-7.935
		c0-0.108-0.029-0.21-0.033-0.32h0.021v-1.491c0.004,0,0.008,0,0.012,0c2.316,0,4.191-1.877,4.191-4.188
		C20.058,237.312,18.183,235.435,15.867,235.435z"/>
	<rect y="142.307" opacity="0.4" fill="#B78D7E" width="15.855" height="5.953"/>
</g>
</svg>
