<?xml version="1.0" encoding="utf-8"?>
<!-- Generator: Adobe Illustrator 16.0.0, SVG Export Plug-In . SVG Version: 6.00 Build 0)  -->
<!DOCTYPE svg PUBLIC "-//W3C//DTD SVG 1.1//EN" "http://www.w3.org/Graphics/SVG/1.1/DTD/svg11.dtd">
<svg version="1.1" id="Layer_1" xmlns="http://www.w3.org/2000/svg" xmlns:xlink="http://www.w3.org/1999/xlink" x="0px" y="0px"
	 width="118.69px" height="458.264px" viewBox="0 0 118.69 458.264" enable-background="new 0 0 118.69 458.264"
	 xml:space="preserve">
<g>
	<rect x="70.258" y="292.359" fill="#F8B69C" width="15.792" height="130.844"/>
	<path fill="#131938" d="M109.535,448.928c-0.136,0-0.271,0.004-0.406,0.012v-0.012h-9.095
		c-8.422-5.947-13.922-15.754-13.922-26.848H70.258v8.541v9.562v17.898h9.892v-11.055l10.171,11.055h10.061h9.561h8.747
		C118.69,453.025,114.591,448.928,109.535,448.928z"/>
	<rect x="70.258" y="325.744" opacity="0.4" fill="#B78D7E" width="15.792" height="5.926"/>
</g>
<g>
	<path fill="#1F244C" d="M78.05,448.975c-0.135,0-0.271,0.004-0.406,0.012l-0.002-0.012H68.55
		c-8.422-5.945-13.926-15.756-13.926-26.848H38.773v8.545v9.557v17.902h9.892v-11.053l10.171,11.053h10.061h9.561h8.745
		C87.203,453.076,83.105,448.975,78.05,448.975z"/>
	<g>
		<rect x="38.823" y="292.359" fill="#F8B69C" width="15.792" height="130.844"/>
		<rect x="38.825" y="325.744" opacity="0.4" fill="#B78D7E" width="15.79" height="5.926"/>
	</g>
</g>
<g>
	<g>
		<rect x="75.387" y="223.52" fill="#F8B69C" width="15.79" height="0"/>
		<path fill="#F8B69C" d="M95.363,228.443c0,2.305-1.87,4.174-4.173,4.174c-2.304,0-4.172-1.869-4.172-4.174
			c0-2.301,1.868-4.17,4.172-4.17C93.493,224.273,95.363,226.143,95.363,228.443z"/>
		<polygon fill="#F8B69C" points="91.177,234.104 75.387,234.104 75.387,226.857 75.387,223.52 91.177,223.52 		"/>
		<circle fill="#F8B69C" cx="83.289" cy="234.422" r="7.902"/>
	</g>
	<rect x="75.387" y="114.898" fill="#1F244C" width="15.79" height="108.621"/>
</g>
<rect x="38.796" y="168.173" fill="#1F5980" width="47.22" height="157.559"/>
<g>
	<path fill="#F8B69C" d="M77.509,7.866l8.237,32.872h-4.975v17.398h-8.095c0,0-3.865,0.483-3.865,3.866c0,1.451,0,13.404,0,19.204
		v6.767H50.288v-4.35V7.262h26.738L77.509,7.866z"/>
	<path fill="#1960A6" d="M76.174,26.479c0,0.786-0.637,1.42-1.419,1.42c-0.781,0-1.42-0.635-1.42-1.42
		c0-0.783,0.639-1.418,1.42-1.418C75.537,25.061,76.174,25.696,76.174,26.479z"/>
	<path fill="#F2695B" d="M77.692,46.262c-0.208,0-0.373-0.167-0.373-0.372h-1.451c0,1.004,0.817,1.822,1.824,1.822h3.107v-1.45
		H77.692z"/>
	<path fill="#33332E" d="M37.278,0.132V74.68c0,0,4.672,0,9.28,0c13.974,0,13.229-13.23,13.229-13.23V33.155
		c-2.63-0.004-4.763-2.139-4.763-4.773c0-2.635,2.137-4.772,4.771-4.772c2.089,0,3.848,1.353,4.494,3.222l0.062-0.197
		c3.051-0.228,5.46-2.681,5.604-5.753h0.029V17.08c1.362,0,3.062,0,5.202,0c16.348,0,19.917-16.947,19.917-16.947H37.278z"/>
</g>
<path fill="#1F244C" d="M92.485,110.35l0.008-0.009l-1.243-1.926v-4.287V97.08v-9.044c0-3.617-2.932-6.549-6.55-6.549H73.956H68.81
	H50.063H38.846h-4.674c-3.617,0-6.548,2.933-6.548,6.549v9.858h-0.031v28.731h11.253v33.952h-0.05v29.86h21.053v-19.818h8.998
	v19.818h17.169v-19.818v-7.076V128.13c5.229-0.7,9.267-5.168,9.267-10.588C95.282,114.769,94.219,112.25,92.485,110.35z"/>
<polygon fill="#FFFFFF" points="50.252,81.486 59.878,97.051 59.878,170.799 68.847,170.799 68.847,104.864 68.847,93.76 
	68.847,81.486 "/>
<polygon fill="#F2695B" points="50.252,81.486 59.878,97.044 50.288,97.044 "/>
<g>
	<g>
		<rect y="247.514" fill="#2E373E" width="70.986" height="60.74"/>
		<g>
			<rect x="32.736" y="274.15" fill="#A2C1C9" width="5.409" height="4.789"/>
			<circle fill="#A2C1C9" cx="35.445" cy="279.051" r="2.708"/>
		</g>
		<rect y="247.514" fill="#3C474D" width="70.986" height="26.637"/>
	</g>
	<path fill="#3C474D" d="M50.575,247.557h-2.901c0-6.365-5.175-11.539-11.541-11.539c-6.364,0-11.542,5.174-11.542,11.539H21.69
		c0-7.965,6.479-14.439,14.443-14.439C44.096,233.117,50.575,239.592,50.575,247.557z"/>
</g>
<g>
	<circle fill="#FFFFFF" cx="75.264" cy="103.26" r="1.849"/>
	<circle fill="#FFFFFF" cx="75.264" cy="121.749" r="1.849"/>
	<circle fill="#FFFFFF" cx="75.264" cy="140.24" r="1.849"/>
	<circle fill="#FFFFFF" cx="75.264" cy="158.729" r="1.849"/>
</g>
<rect x="59.878" y="149.053" fill="#F2695B" width="8.969" height="21.746"/>
<g>
	<g>
		<rect x="27.592" y="227.461" fill="#F8B69C" width="15.79" height="0"/>
		<path fill="#F8B69C" d="M47.568,232.385c0,2.305-1.87,4.176-4.173,4.176c-2.305,0-4.172-1.871-4.172-4.176
			c0-2.301,1.868-4.17,4.172-4.17C45.698,228.215,47.568,230.084,47.568,232.385z"/>
		<polygon fill="#F8B69C" points="43.382,238.045 27.592,238.045 27.592,230.797 27.592,227.461 43.382,227.461 		"/>
		<circle fill="#F8B69C" cx="35.494" cy="238.365" r="7.902"/>
	</g>
	<rect x="27.592" y="118.84" fill="#1F244C" width="15.79" height="108.621"/>
</g>
</svg>
