<?xml version="1.0" encoding="utf-8"?>
<!-- Generator: Adobe Illustrator 16.0.0, SVG Export Plug-In . SVG Version: 6.00 Build 0)  -->
<!DOCTYPE svg PUBLIC "-//W3C//DTD SVG 1.1//EN" "http://www.w3.org/Graphics/SVG/1.1/DTD/svg11.dtd">
<svg version="1.1" id="Layer_1" xmlns="http://www.w3.org/2000/svg" xmlns:xlink="http://www.w3.org/1999/xlink" x="0px" y="0px"
	 width="52px" height="52px" viewBox="0 0 52 52" enable-background="new 0 0 52 52" xml:space="preserve">
<g>
	<circle fill="#EFDA82" cx="26" cy="26" r="25"/>
	<g>
		<g>
			<path fill="#797979" d="M16.852,45.789V18.121c0-1.498-1.367-2.713-3.052-2.713H3.354c-0.639,1.363-1.241,3.129-1.629,4.611
				c-0.527,2.018,2.07,19.122,6.589,23.645c1.884,1.885,4.067,3.471,6.473,4.68C15.985,47.977,16.852,46.979,16.852,45.789z"/>
		</g>
		<path fill-rule="evenodd" clip-rule="evenodd" fill="#E8E9E7" d="M5.635,17.55c0.185,0,0.334,0.135,0.334,0.299
			s-0.149,0.299-0.334,0.299c-0.186,0-0.336-0.135-0.336-0.299S5.449,17.55,5.635,17.55z"/>
		<path fill-rule="evenodd" clip-rule="evenodd" fill="#E8E9E7" d="M7.008,17.55h3.357c0.186,0,0.336,0.135,0.336,0.299
			s-0.15,0.299-0.336,0.299H7.008c-0.186,0-0.336-0.135-0.336-0.299S6.822,17.55,7.008,17.55z"/>
		<g>
			<path fill="#E2AE68" d="M15.631,20.019H1.726C1.255,21.936,1,23.937,1,26c0,6.874,2.775,13.1,7.267,17.62h7.364V20.019z"/>
		</g>
	</g>
	<path fill="#C85753" d="M34.657,11.733c0,1.066-0.866,1.932-1.934,1.932h-2.413c-1.069,0-1.934-0.865-1.934-1.932l0,0
		c0-1.068,0.864-1.935,1.934-1.935h2.413C33.791,9.798,34.657,10.665,34.657,11.733L34.657,11.733z"/>
	<g>
		<path fill="#CCA572" d="M46.522,11.731H27.796c-2.397,0-4.341,1.945-4.341,4.341v19.364c0,2.396,1.943,4.342,4.341,4.342h19.062
			C49.474,35.826,51,31.092,51,26C51,20.695,49.342,15.778,46.522,11.731z"/>
	</g>
	<g>
		<path fill="#9EB362" d="M49.353,17.075H23.455v17.361h26.082C50.481,31.801,51,28.961,51,26
			C51,22.855,50.413,19.847,49.353,17.075z"/>
	</g>
	<g>
		<path fill="#5C8B83" d="M49.146,16.552c-1.038-0.376-2.154-0.591-3.322-0.591c-5.408,0-9.793,4.383-9.793,9.793
			c0,5.41,4.385,9.792,9.793,9.792c1.253,0,2.447-0.244,3.549-0.672C50.421,32.115,51,29.127,51,26
			C51,22.656,50.338,19.467,49.146,16.552z"/>
	</g>
	<g>
		<path fill="#9FD0C9" d="M45.824,19.344c-3.54,0-6.41,2.871-6.41,6.41c0,3.541,2.87,6.41,6.41,6.41
			c1.949,0,3.692-0.873,4.868-2.246C50.894,28.641,51,27.334,51,26c0-1.547-0.147-3.059-0.417-4.527
			C49.409,20.168,47.715,19.344,45.824,19.344z"/>
	</g>
	<circle fill="#5B7A81" cx="45.824" cy="25.754" r="3.039"/>
	<circle fill="#FFFFFF" cx="46.734" cy="24.887" r="1.621"/>
</g>
</svg>
