<?xml version="1.0" encoding="utf-8"?>
<!-- Generator: Adobe Illustrator 16.0.0, SVG Export Plug-In . SVG Version: 6.00 Build 0)  -->
<!DOCTYPE svg PUBLIC "-//W3C//DTD SVG 1.1//EN" "http://www.w3.org/Graphics/SVG/1.1/DTD/svg11.dtd">
<svg version="1.1" id="Layer_1" xmlns="http://www.w3.org/2000/svg" xmlns:xlink="http://www.w3.org/1999/xlink" x="0px" y="0px"
	 width="52px" height="52px" viewBox="0 0 52 52" enable-background="new 0 0 52 52" xml:space="preserve">
<g>
	<circle fill="#EFDA82" cx="26" cy="26" r="25"/>
	<g>
		<path fill="none" d="M22.738,21.076c0.7,0,1.005-0.494,0.582-1.045c-0.732-0.924-6.635-5.294-8.644-5.795
			c-1.66-0.36-5.56-0.608-10.437-0.541c-1.144,2.019-2.014,4.212-2.562,6.53C10.98,20.59,22.301,21.076,22.738,21.076z"/>
		<path fill="#CCA572" d="M28.101,31.547c0-3.164,2.578-5.744,5.743-5.744c3.168,0,5.744,2.58,5.744,5.744
			c0,0.316-0.027,0.623-0.076,0.926c1.742-0.131,3.883-0.289,3.883-0.289c0.155,0,0.284-0.129,0.284-0.285
			c0-0.025,0.018-0.711,0.7-1.414c0.053-0.051,0.08-0.123,0.08-0.197c0-0.922,0.08-1.645,0.073-2.363
			c-2.449-0.406-4.689-2.811-5.36-4.092c-0.058-0.111-0.016-0.248,0.096-0.307c0.031-0.014,0.062-0.021,0.091-0.025
			c0.456-0.101,1.624,0.447,2.195,1.123c0.623,0.736,0.493,1.574,1.136,2.104c0.582,0.346,1.202,0.61,1.826,0.733
			c-0.035-0.481-0.122-0.976-0.314-1.551c0-0.005-0.805-1.605-0.807-1.611c-1.559-2.34-8.961-4.056-16.855-4.855
			c-3.003-2.709-9.738-6.217-11.7-6.707c0,0-2.484-0.52-4.894-0.52c-1.428,0-3.083,0.009-4.818,0.03
			c-0.312,0.472-0.606,0.957-0.887,1.45c4.877-0.067,8.776,0.181,10.437,0.541c2.009,0.501,7.911,4.871,8.644,5.795
			c0.423,0.551,0.118,1.045-0.582,1.045c-0.438,0-11.758-0.485-21.061-0.851C1.239,22.08,1,24.011,1,26
			c0,2.299,0.316,4.522,0.897,6.637h26.311C28.139,32.285,28.101,31.918,28.101,31.547z"/>
	</g>
	<path fill="#4A4A4B" d="M29.01,31.549c0,2.67,2.166,4.834,4.833,4.834c2.671,0,4.836-2.164,4.836-4.834s-2.165-4.834-4.836-4.834
		C31.176,26.714,29.01,28.879,29.01,31.549z M30.982,31.549c0-1.582,1.281-2.863,2.86-2.863c1.578,0,2.864,1.281,2.864,2.863
		c0,1.578-1.286,2.861-2.864,2.861C32.264,34.41,30.982,33.127,30.982,31.549z"/>
</g>
</svg>
