<?xml version="1.0" encoding="utf-8"?>
<!-- Generator: Adobe Illustrator 16.0.0, SVG Export Plug-In . SVG Version: 6.00 Build 0)  -->
<!DOCTYPE svg PUBLIC "-//W3C//DTD SVG 1.1//EN" "http://www.w3.org/Graphics/SVG/1.1/DTD/svg11.dtd">
<svg version="1.1" id="Layer_1" xmlns="http://www.w3.org/2000/svg" xmlns:xlink="http://www.w3.org/1999/xlink" x="0px" y="0px"
	 width="52px" height="52px" viewBox="0 0 52 52" enable-background="new 0 0 52 52" xml:space="preserve">
<g>
	<g>
		<circle fill="#EFDA82" cx="26" cy="26" r="25"/>
		<g>
			<path fill="#9EB362" d="M25.783,8.878c-0.021,0-0.042-0.001-0.062-0.001c-9.475,0-17.155,7.674-17.155,17.139
				c0,9.466,7.681,17.14,17.155,17.14c0.02,0,0.041-0.001,0.062-0.001c9.446-0.033,17.092-7.693,17.092-17.139
				C42.875,16.571,35.229,8.911,25.783,8.878z"/>
			<polygon fill="#074346" points="25.782,34.738 25.783,34.742 25.783,34.737 			"/>
			<path fill="#BDDED9" d="M41.752,19.8l-0.896,0.016l-0.449-0.492l-0.084-0.792l-0.461,0.251l-0.246,0.968l-0.664-0.706
				l-0.027-0.668l-0.641-0.551l-0.236-0.235h-0.744l0.234,0.662l0.896,0.499l0.154,0.164l-0.193,0.097l0.008,0.525l-0.436,0.182
				l-0.371-0.082l-0.232-0.329l0.604,0.032l0.164-0.22l-1.342-0.904l-0.102-0.386l-0.543,0.492L35.59,18.21l-0.84,1.092
				l-0.164,0.428l-0.537,0.049l-0.797,0.005l-0.475-0.222l-0.141-0.945l0.172-0.45l0.809-0.176l0.883,0.176l0.107-0.488
				l-0.375-0.088l0.129-0.761l0.887-0.139l0.621-0.877l0.643-0.107l0.578,0.085h0.213l-0.117-0.823l-0.703,0.283l-0.248-0.615
				l-0.406-0.057l-0.078-0.423l0.334-0.362l0.793-0.311l0.203-0.364c-3.018-2.658-6.971-4.279-11.297-4.289
				c-0.013,0-0.025-0.001-0.039-0.001c-3.767,0-7.252,1.224-10.088,3.289l0.866-0.007l0.386,0.213l0.728,0.157l0.056,0.286
				l1.157,0.042l-0.157-0.37l-1.027-0.029l0.242-0.228l-0.085-0.271h-0.928l1.013-0.756h0.971l0.456,0.628l0.758,0.042l0.455-0.442
				l0.344,0.171l-0.629,0.614c0,0-0.871,0.015-0.826,0.015c0.042,0,0.071,0.599,0.071,0.599l1.054-0.029l0.116-0.284l0.726-0.043
				l0.086-0.428l-0.427-0.072l0.143-0.386l0.327-0.099l1.143,0.057l-0.63,0.571l0.102,0.441l0.656,0.1l-0.043-0.798l0.628-0.329
				l1.113-0.128l1.284,0.568l0.327,0.146v0.613l0.515,0.128l-0.257,0.485h-0.585h-0.144l-0.215,0.557l-1.662-0.393l1.306-0.696
				l-0.499-0.424l-1.127,0.143l-0.099,0.102l-0.003-0.001l-0.02,0.023l-0.323,0.338l-0.536,0.045l0.043,0.268l0.187,0.077
				l-0.007,0.088l-0.437,0.062l-0.032,0.254l-0.417,0.021l-0.076-0.503l-0.749,0.228l-1.529,0.896l0.172,0.631l0.428,0.279
				l0.855,0.118v0.973l0.395-0.063l0.365-0.76l0.91-0.289v-1.167l0.506-0.381l1.224,0.288l-0.087,0.771h0.33l0.898-0.442
				l0.043,1.014l0.3,0.183l0.354,0.216l-0.027,0.601l-0.327,0.111v0.418l0.498,0.227l-0.015,0.414l-0.219,0.019
				c-0.001-0.007-0.002-0.012-0.002-0.012l-0.263-0.081l-0.691-0.213l-0.04-0.306H25.05l0.278-0.191v-0.279l-0.3-0.075l-0.074,0.258
				l-0.525,0.081l-0.053-0.018v0.026l-0.183,0.027l-0.148-0.3l-0.172-0.075h-0.375l-0.17,0.139v0.311l0.32,0.107l0.316,0.045
				l-0.07,0.03l-0.289,0.32l-0.128-0.16L23.2,17.098l-0.761,0.716l0.1,0.082l-1.122,0.621l-1.057,1.099l-0.071,0.489L19.228,20.8
				l-0.522,0.528l0.057,1.055l-0.729-0.339l0.006-0.617l-2.025,0.001l-1.048,0.531l-0.456,0.839l-0.18,0.666l0.295,0.646
				l0.825,0.101l1.313-0.878l0.115,0.436l-0.401,0.757l1.001,0.171l0.099,1.543l1.371,0.233l0.869-1.007l1.057,0.215l0.371,0.517
				l1.013-0.061l0.028-0.299l0.556,0.271l0.628,0.983l1.084,0.015l0.4,0.699l0.057,0.855l0.771,0.294l0.428,0.163l1.512,0.015
				l0.443,0.727l0.67,0.214l-0.129,0.601l-0.734,0.934l-0.217,2.066l-0.662,0.524l-0.984-0.029l-0.327,0.568v0.005l0.242,1.067
				l-0.242,0.312l-0.828,1.059l-0.342,0.628l-1.021,0.49L22.92,38.4l-0.027,0.284l0.471,0.136l-0.057,0.307l-0.422,0.406
				l0.256,0.322l0.508,0.015l-0.028,0.392l-0.135,0.385l-0.044,0.314l0.751,0.632l-0.101,0.328l-1.021-0.019l-1.016-0.888
				l-0.793-1.393l0.11-1.344l-0.599-0.799l0.242-1.355l-0.356-0.1v-2.938c0,0-0.999-0.758-1.056-0.758S19.077,32.2,19.077,32.2
				l-0.101-0.557l-1.298-1.627l0.129-0.584l0.041-0.957l0.898-0.628l-0.128-1.07l-1.312-0.098l-1.026-1.171l-0.729-0.199
				l-0.47-0.087l0.057-0.428l-0.6-0.085v0.242l-1.498-0.371l-0.603-0.923l0.245-0.446l-0.949-1.385l-0.163-1.013h-0.385l0.128,0.983
				l0.656,1.014l-0.071,0.4l-0.557-0.086l-0.685-1.167v-1.358l-0.713-0.344V19.28C9.063,21.346,8.574,23.616,8.574,26
				c0,9.468,7.702,17.17,17.17,17.17c0.014,0,0.026,0,0.039,0c5.352-0.013,10.135-2.486,13.278-6.347h-0.566v-1.142l-0.654-0.883
				v-1.372l-0.502-0.498l-0.041-0.571l0.635-1.213l-1.207-2.127l0.145-1.442l-1.086-0.112l-0.398-0.399h-0.729l-0.369,0.342h-1.285
				l-0.043,0.114h-0.713l-1.641-1.868l0.012-1.456l0.271-0.1l0.102-0.557h-0.385l-0.158-0.585l1.898-1.369v-0.97l0.93-0.516
				l0.375,0.037h0.764l0.6-0.321l1.926-0.15v0.985l1.52,0.385l0.299,0.215h0.279v-0.536l0.877-0.085l0.836,0.621h1.369l0.096-0.088
				C42.078,20.699,41.924,20.246,41.752,19.8z M33.643,14.914l0.158-0.242l0.564-0.114l0.141,0.685l0.301,0.485l0.199,0.229
				l0.363,0.142l-0.342,0.407l-0.662,0.063h-0.5l0.057-0.592l0.414-0.086l-0.035-0.278l-0.387-0.242l-0.271-0.186V14.914z
				 M32.717,15.984l0.342-0.549l0.463-0.107l0.33,0.143l-0.031,0.371l-0.705,0.499h-0.398V15.984z M23.388,18.096l-0.357,0.03
				l0.019-0.249l0.16-0.199l0.215,0.169L23.388,18.096z M24.642,17.657l-0.245,0.021l-0.049,0.237l-0.188,0.116l-0.301,0.025
				c-0.011-0.07-0.018-0.124-0.018-0.124h-0.116v-0.255h0.491l0.102-0.261l0.195-0.005l0.224,0.047L24.642,17.657z"/>
			<polygon fill="#074346" points="25.483,16.562 25.525,16.761 25.783,16.878 25.783,16.46 			"/>
		</g>
	</g>
	<g>
		<path fill="#BC5638" d="M41.031,17.86c0.562-0.354,0.871-0.581,0.883-0.59l-0.637-0.786c-0.002,0.003-0.293,0.216-0.82,0.547
			L41.031,17.86z"/>
		<path fill="#BC5638" d="M26.154,22.317c0.549-0.001,1.11-0.021,1.665-0.059l-0.076-0.99c-0.645,0.045-1.289,0.062-1.934,0.053
			l-0.017,0.992C25.913,22.316,26.034,22.317,26.154,22.317z M23.766,22.195l0.112-0.988c-0.641-0.065-1.282-0.161-1.909-0.284
			l-0.209,0.973C22.418,22.024,23.093,22.125,23.766,22.195z M29.83,22.039c0.654-0.098,1.322-0.224,1.984-0.374l-0.242-0.966
			c-0.635,0.145-1.275,0.265-1.904,0.358L29.83,22.039z M33.76,21.149c0.635-0.192,1.275-0.409,1.9-0.646l-0.383-0.924
			c-0.604,0.228-1.221,0.438-1.832,0.623L33.76,21.149z M37.51,19.737c0.607-0.274,1.211-0.571,1.793-0.88l-0.508-0.867
			c-0.562,0.299-1.145,0.585-1.73,0.851L37.51,19.737z"/>
		<path fill="#BC5638" d="M19.788,21.416l0.305-0.95c-0.32-0.093-0.641-0.195-0.963-0.306l-0.354,0.934
			C19.114,21.21,19.452,21.318,19.788,21.416z"/>
	</g>
	<g>
		<path fill="#D77072" d="M9.378,13.041l1.938,1.318l0.007-0.012l2.128,1.427l-0.006,0.009l-0.01,0.015l4.389,2.894
			c0.173,0.106,0.325,0.218,0.438,0.337l0.029-0.015l1.074,1.008l-0.414,0.605l-1.404-0.616l0.001-0.015
			c-0.147-0.052-0.302-0.133-0.458-0.229l-4.556-2.648l-0.014,0.02l-2.234-1.27l0.009-0.011l-2.051-1.153
			c-0.48-0.299-0.617-0.912-0.304-1.371C8.253,12.874,8.897,12.743,9.378,13.041z"/>
		<polygon fill="#C85753" points="13.098,13.387 14.468,12.688 14.465,12.687 15.088,12.371 15.09,12.371 16.739,11.532 
			18.303,12.502 13.564,15.608 13.437,15.798 11.316,14.357 11.384,14.259 12.474,13.703 12.468,13.699 13.092,13.384 		"/>
		<polygon fill="#C85753" points="10.292,15.854 12.536,17.119 12.43,17.271 11.18,22.955 9.616,21.986 9.761,20.587 9.756,20.584 
			9.817,19.918 9.83,19.926 9.832,19.927 10.018,18.145 10.01,18.14 10.078,17.479 10.087,17.484 10.251,15.92 		"/>
		<polygon fill="#C85753" points="20.004,18.14 20.9,18.441 19.37,20.016 19.366,20.021 18.262,19.021 		"/>
		<polygon fill="#C85753" points="18.945,20.639 17.985,22.72 17.331,22.063 17.543,19.996 18.952,20.627 		"/>
		<path fill="#D77072" d="M8.615,19.877c-0.144-0.089-0.183-0.271-0.089-0.408c0.093-0.136,0.283-0.175,0.427-0.087l0.877,0.544
			l-0.073,0.658L8.615,19.877z"/>
		<path fill="#D77072" d="M9.167,16.914l0.919,0.569l-0.067,0.664L8.83,17.408c-0.143-0.088-0.183-0.271-0.089-0.406
			C8.833,16.865,9.024,16.825,9.167,16.914z"/>
		<path fill="#D77072" d="M12.023,12.721l1.076,0.666l-0.628,0.315l-0.784-0.487c-0.144-0.088-0.183-0.271-0.089-0.407
			S11.88,12.633,12.023,12.721z"/>
		<path fill="#D77072" d="M13.62,12.162c-0.144-0.088-0.185-0.271-0.092-0.408c0.094-0.136,0.284-0.174,0.428-0.086l1.133,0.703
			l-0.623,0.318L13.62,12.162z"/>
	</g>
</g>
</svg>
