<?xml version="1.0" encoding="utf-8"?>
<!-- Generator: Adobe Illustrator 16.0.0, SVG Export Plug-In . SVG Version: 6.00 Build 0)  -->
<!DOCTYPE svg PUBLIC "-//W3C//DTD SVG 1.1//EN" "http://www.w3.org/Graphics/SVG/1.1/DTD/svg11.dtd">
<svg version="1.1" id="Layer_1" xmlns="http://www.w3.org/2000/svg" xmlns:xlink="http://www.w3.org/1999/xlink" x="0px" y="0px"
	 width="84.5px" height="305.002px" viewBox="0 0 84.5 305.002" enable-background="new 0 0 84.5 305.002" xml:space="preserve">
<g>
	<g>
		<path fill="#F7B59B" d="M46.605,195.937v0.006h-0.289H45.01H27.13v6.045h17.88h1.307h4.055v-0.012
			c0.042,0.002,0.079,0.012,0.121,0.012c1.673,0,3.027-1.354,3.027-3.024c0-1.67-1.354-3.024-3.027-3.024
			c-0.042,0-0.079,0.01-0.121,0.014v-0.008H49.8l0.001-0.006c0-0.883-0.717-1.598-1.597-1.598
			C47.322,194.34,46.605,195.055,46.605,195.937z"/>
		<rect x="27.13" y="181.035" fill="#F7B59B" width="6.048" height="18.311"/>
	</g>
	<g>
		<g>
			<path fill="#F7B59B" d="M27.931,137.124l3.153,11.251h-1.905v7.998H26.08c0,0-1.48,0.187-1.48,1.481c0,0.557,0,5.133,0,7.354
				v2.592h-7.093v-1.666v-29.242h10.239L27.931,137.124z"/>
			<circle fill="#477838" cx="26.875" cy="144.252" r="0.544"/>
			<path fill="#F18880" d="M28.001,151.827c-0.081,0-0.144-0.062-0.144-0.143h-0.555c0,0.385,0.313,0.698,0.699,0.698h1.188v-0.557
				L28.001,151.827L28.001,151.827z"/>
			<path fill="#7C3C1A" d="M12.524,134.164v28.546c0,0,1.79,0,3.554,0c5.351,0,5.065-5.066,5.065-5.066v-10.836
				c-1.007-0.001-1.824-0.819-1.824-1.826c0-1.01,0.819-1.828,1.828-1.828c0.8,0,1.473,0.519,1.721,1.234l0.023-0.075
				c1.169-0.087,2.091-1.026,2.145-2.202h0.012v-1.457c0.521,0,1.173,0,1.991,0c1.817,0,3.222-0.548,4.3-1.322
				c2.639-1.896-1.366-5.167-1.366-5.167H12.524z"/>
		</g>
	</g>
	<g>
		<path fill="#B15C27" d="M39.088,297.774h-3.129c-1.378-0.338-2.593-1.098-3.497-2.139c-0.681-0.783-1.187-1.725-1.451-2.764
			v-6.088l-0.155-0.033h-4.683v7.695v2.572v0.83v0.825v1.785h16.65C42.299,298.899,40.824,297.774,39.088,297.774z"/>
		<path fill="#33373A" d="M26.172,301.717h4.838v-0.467v-0.785l2.148,1.252h9.869c0-0.438-0.074-0.858-0.207-1.256H26.171v0.789
			L26.172,301.717L26.172,301.717z"/>
	</g>
	<g>
		<path fill="#BF772A" d="M28.77,297.774h-3.126c-1.381-0.338-2.594-1.098-3.498-2.139c-0.682-0.783-1.187-1.725-1.453-2.764v-6.088
			l-0.156-0.033h-4.683v7.695v2.572v0.83v0.825v1.785h16.651C31.98,298.899,30.506,297.774,28.77,297.774z"/>
		<path fill="#33373A" d="M15.854,301.717h4.839v-0.467v-0.785l2.149,1.252h9.868c0-0.438-0.072-0.858-0.205-1.256H15.854v0.789
			V301.717z"/>
	</g>
	<rect x="27.13" y="181.035" opacity="0.4" fill="#B68B7E" enable-background="new    " width="6.048" height="2.271"/>
	<g>
		<rect x="13.458" y="214.828" fill="#2C7893" width="7.422" height="77.993"/>
		<path fill="#196378" d="M17.633,246.58v8.346v2.386v1.289c0,0.473,0.386,0.856,0.859,0.856h2.388V246.58H17.633z"/>
	</g>
	<g>
		<rect x="23.774" y="214.828" fill="#2C7893" width="7.423" height="77.993"/>
		<path fill="#196378" d="M27.949,246.58v8.346v2.386v1.289c0,0.473,0.385,0.856,0.859,0.856h2.389V246.58H27.949z"/>
	</g>
	<path fill="#FFFFFF" d="M30.694,164.063H26.58h-1.971h-0.002c-0.001,1.957-1.588,3.543-3.548,3.543
		c-1.957,0-3.544-1.586-3.545-3.543h-0.082h-4.296h-1.79c-1.384,0-2.508,1.119-2.508,2.506l-0.014,14.776h4.307v6.501h9.641v-6.501
		h3.807v-0.312h5.653h0.969v-8.305v-2.697v-3.463C33.201,165.183,32.08,164.063,30.694,164.063z"/>
	<rect x="17.703" y="177.502" fill="#FFFFFF" width="13.494" height="20.688"/>
	<rect x="22.772" y="168.761" fill="#FFFFFF" width="1.851" height="20.553"/>
	<path fill="#2C7893" d="M31.193,178.731c0-0.504-0.141-0.971-0.366-1.383l0.003-0.021l-2.65-6.559v-6.705h-2.107v6.705h-8.564
		v-6.705h-2.105v6.705l-0.53,10.559v2.769l-1.742,3.753v32.082h18.062v-33.727v-2.108L31.193,178.731L31.193,178.731L31.193,178.731
		z"/>
	<path fill="#196378" d="M19.186,173.841v1.753v1.599v0.86c0,0.316,0.259,0.574,0.577,0.574h5.241c0.317,0,0.574-0.258,0.574-0.574
		v-0.86v-1.599v-1.753H19.186z"/>
	<rect x="8.824" y="181.241" opacity="0.4" fill="#B68B7E" enable-background="new    " width="6.081" height="2.197"/>
	<g>
		<polygon fill="#282F3D" points="6.217,303.369 3.281,302.625 81.424,0 82.01,0.147 		"/>
		<line fill="none" stroke="#FFFFFF" stroke-width="0.1513" stroke-miterlimit="10" x1="82.01" y1="0" x2="82.01" y2="180.214"/>
	</g>
	<g>
		<rect x="8.824" y="181.241" fill="#F7B59B" width="6.049" height="16.785"/>
		<path fill="#F7B59B" d="M31.007,214.087c-0.029-0.029-0.063-0.049-0.097-0.078l0.007-0.004l-0.401-0.402l0.002-0.002
			c0.625-0.627,0.625-1.639,0.002-2.262c-0.624-0.623-1.636-0.623-2.262,0l-0.001,0.004l-0.206-0.205l-3.318-3.316l-9.791-9.795
			h-0.069H8.824v2.438l6.049,6.047l5.584,5.587l3.317,3.317l2.868,2.866l0.009-0.01c0.028,0.03,0.048,0.065,0.077,0.094
			c1.183,1.186,3.099,1.184,4.28,0.002C32.188,217.187,32.188,215.269,31.007,214.087z"/>
	</g>
</g>
</svg>
