<?xml version="1.0" encoding="utf-8"?>
<!-- Generator: Adobe Illustrator 16.0.0, SVG Export Plug-In . SVG Version: 6.00 Build 0)  -->
<!DOCTYPE svg PUBLIC "-//W3C//DTD SVG 1.1//EN" "http://www.w3.org/Graphics/SVG/1.1/DTD/svg11.dtd">
<svg version="1.1" id="Layer_1" xmlns="http://www.w3.org/2000/svg" xmlns:xlink="http://www.w3.org/1999/xlink" x="0px" y="0px"
	 width="61.334px" height="209.826px" viewBox="0 95.156 61.334 209.826" enable-background="new 0 95.156 61.334 209.826"
	 xml:space="preserve">
<g>
	<g>
		<g>
			<path fill="#C0772A" d="M14.883,300.159l-3.09-0.526c-1.308-0.566-2.378-1.523-3.097-2.707c-0.541-0.894-0.881-1.905-0.966-2.979
				l1.03-6.018l-0.148-0.062l-4.63-0.793l-1.302,7.607l-0.435,2.547l-0.139,0.812l-0.142,0.82l-0.303,1.766l16.461,2.816
				C17.868,301.816,16.601,300.456,14.883,300.159z"/>
			<path fill="#34383A" d="M1.449,301.872l4.784,0.818l0.08-0.469l0.132-0.771l1.913,1.604l9.754,1.672
				c0.076-0.438,0.076-0.862,0.01-1.278l-16.461-2.816l-0.132,0.776L1.449,301.872z"/>
		</g>
		<g>
			
				<rect x="7.352" y="213.222" transform="matrix(-0.9856 -0.1688 0.1688 -0.9856 -20.8104 505.3172)" fill="#2D7994" width="7.445" height="80.643"/>
			<path fill="#1B6478" d="M12.54,247.663l-1.413,8.25l-0.403,2.359l-0.218,1.271c-0.08,0.467,0.236,0.914,0.705,0.994l2.361,0.404
				l2.179-12.73L12.54,247.663z"/>
		</g>
	</g>
	<g>
		<g>
			<path fill="#B25C27" d="M54.604,296.105l-3.084,0.551c-1.422-0.09-2.756-0.627-3.832-1.492c-0.813-0.653-1.479-1.493-1.924-2.471
				l-1.076-6.014l-0.16-0.007l-4.624,0.828l1.359,7.594l0.457,2.544l0.146,0.817l0.146,0.816l0.316,1.764l16.438-2.947
				C57.973,296.644,56.316,295.795,54.604,296.105z"/>
			<path fill="#34383A" d="M42.551,302.279l4.776-0.854l-0.081-0.466l-0.139-0.773l2.345,0.857l9.739-1.745
				c-0.075-0.437-0.224-0.839-0.424-1.205l-16.438,2.946l0.139,0.777L42.551,302.279z"/>
		</g>
		<g>
			
				<rect x="31.453" y="213.234" transform="matrix(-0.9843 0.1764 -0.1764 -0.9843 114.5232 496.9302)" fill="#2D7994" width="7.447" height="80.642"/>
			<path fill="#1B6478" d="M34.552,247.531l1.477,8.234l0.424,2.354l0.227,1.272c0.084,0.468,0.53,0.776,1,0.694l2.359-0.423
				l-2.277-12.713L34.552,247.531z"/>
		</g>
	</g>
	<g>
		<path fill="#F7B59B" d="M47.562,196.195v0.006h-0.289h-1.308h-17.88v6.045h17.88h1.308h4.054v-0.012
			c0.043,0.002,0.08,0.012,0.121,0.012c1.674,0,3.026-1.354,3.026-3.024s-1.354-3.024-3.026-3.024c-0.041,0-0.078,0.01-0.121,0.014
			V196.2h-0.57l0.002-0.006c0-0.882-0.717-1.598-1.598-1.598C48.279,194.597,47.562,195.313,47.562,196.195z"/>
		<rect x="28.087" y="181.292" fill="#F7B59B" width="6.048" height="18.312"/>
	</g>
	<g>
		<g>
			<path fill="#F7B59B" d="M28.888,137.381l3.154,11.251h-1.905v7.998h-3.1c0,0-1.48,0.188-1.48,1.481c0,0.557,0,5.134,0,7.354
				v2.593h-7.093v-1.667v-29.24h10.239L28.888,137.381z"/>
			<circle fill="#477838" cx="27.832" cy="144.51" r="0.544"/>
			<path fill="#F18880" d="M28.958,152.084c-0.081,0-0.144-0.062-0.144-0.143H28.26c0,0.385,0.313,0.698,0.699,0.698h1.188v-0.558
				L28.958,152.084L28.958,152.084z"/>
			<path fill="#7C3C1A" d="M13.482,134.421v28.546c0,0,1.79,0,3.554,0c5.351,0,5.065-5.064,5.065-5.064v-10.837
				c-1.007-0.001-1.824-0.819-1.824-1.826c0-1.011,0.819-1.828,1.828-1.828c0.8,0,1.473,0.52,1.721,1.233l0.023-0.074
				c1.169-0.087,2.091-1.026,2.145-2.202h0.012v-1.457c0.521,0,1.173,0,1.991,0c1.817,0,3.222-0.548,4.3-1.322
				c2.639-1.896-1.367-5.167-1.367-5.167L13.482,134.421L13.482,134.421z"/>
		</g>
	</g>
	<rect x="28.087" y="181.292" opacity="0.4" fill="#B68B7E" enable-background="new    " width="6.048" height="2.271"/>
	<path fill="#FFFFFF" d="M31.651,164.321h-4.114h-1.971h-0.002c-0.001,1.957-1.588,3.543-3.548,3.543
		c-1.957,0-3.544-1.586-3.545-3.543h-0.082h-4.296h-1.79c-1.384,0-2.508,1.12-2.508,2.507l-0.013,14.775h4.307v6.502h9.641v-6.502
		h3.807v-0.312h5.653h0.969v-8.304v-2.697v-3.463C34.159,165.441,33.038,164.321,31.651,164.321z"/>
	<rect x="18.661" y="177.759" fill="#FFFFFF" width="13.495" height="20.689"/>
	<rect x="23.73" y="169.018" fill="#FFFFFF" width="1.851" height="20.553"/>
	<path fill="#2C7893" d="M32.151,178.989c0-0.504-0.141-0.971-0.367-1.383l0.004-0.021l-2.65-6.559v-6.705h-2.107v6.705h-8.564
		v-6.705h-2.105v6.705l-0.53,10.559v2.77l-1.742,3.753v32.082h18.062v-33.728v-2.107L32.151,178.989L32.151,178.989L32.151,178.989z
		"/>
	<path fill="#196378" d="M20.143,174.098v1.753v1.599v0.86c0,0.315,0.259,0.573,0.577,0.573h5.241c0.317,0,0.574-0.258,0.574-0.573
		v-0.86v-1.599v-1.753H20.143z"/>
	<rect x="9.782" y="181.498" opacity="0.4" fill="#B68B7E" enable-background="new    " width="6.081" height="2.198"/>
	<polygon fill="#282F3D" points="8.646,303.626 5.922,302.936 59.586,95.164 60.545,95.549 	"/>
	
		<line fill="none" stroke="#FFFFFF" stroke-width="0.1405" stroke-miterlimit="10" x1="60.545" y1="96.51" x2="60.545" y2="186.89"/>
	<g>
		<rect x="9.782" y="181.498" fill="#F7B59B" width="6.049" height="16.786"/>
		<path fill="#F7B59B" d="M31.964,214.344c-0.029-0.027-0.062-0.049-0.096-0.077l0.006-0.004l-0.4-0.401l0.002-0.002
			c0.625-0.627,0.625-1.641,0.002-2.263c-0.625-0.623-1.637-0.623-2.262,0l-0.001,0.004l-0.206-0.205l-3.318-3.315l-9.791-9.795
			h-0.069H9.782v2.438l6.049,6.047l5.584,5.587l3.317,3.316l2.868,2.865l0.009-0.01c0.028,0.03,0.048,0.065,0.077,0.094
			c1.183,1.187,3.099,1.185,4.281,0.002C33.146,217.443,33.146,215.527,31.964,214.344z"/>
	</g>
</g>
</svg>
