<?xml version="1.0" encoding="utf-8"?>
<!-- Generator: Adobe Illustrator 16.0.0, SVG Export Plug-In . SVG Version: 6.00 Build 0)  -->
<!DOCTYPE svg PUBLIC "-//W3C//DTD SVG 1.1//EN" "http://www.w3.org/Graphics/SVG/1.1/DTD/svg11.dtd">
<svg version="1.1" id="Layer_1" xmlns="http://www.w3.org/2000/svg" xmlns:xlink="http://www.w3.org/1999/xlink" x="0px" y="0px"
	 width="61.334px" height="209.826px" viewBox="0 95.156 61.334 209.826" enable-background="new 0 95.156 61.334 209.826"
	 xml:space="preserve">
<g>
	<path fill="#2D7994" d="M14.076,213.882c0,3.658,2.935,6.619,6.559,6.619h4.962c3.624,0,6.562-2.961,6.562-6.619v-2.506H14.076
		V213.882z"/>
	<g>
		<g>
			<path fill="#B25C27" d="M20.175,300.132l-3.05-0.727c-1.268-0.648-2.276-1.676-2.918-2.896c-0.483-0.928-0.757-1.957-0.776-3.035
				l1.412-5.938l-0.144-0.068l-4.57-1.09l-1.783,7.514l-0.595,2.514l-0.19,0.809l-0.193,0.805l-0.413,1.746l16.246,3.854
				C23.05,301.973,21.871,300.536,20.175,300.132z"/>
			<path fill="#34383A" d="M6.66,300.989l4.722,1.121l0.109-0.461l0.182-0.766l1.806,1.723l9.631,2.283
				c0.103-0.432,0.127-0.854,0.089-1.271l-16.246-3.854l-0.184,0.768L6.66,300.989z"/>
		</g>
		<g>
			<polygon fill="#2D7994" points="19.237,237.591 6.382,291.747 13.626,293.466 23.049,253.776 			"/>
			<polygon fill="#2D7994" points="23.271,220.602 25.009,213.276 32.255,214.997 27.092,236.743 			"/>
			<path fill="#1B6478" d="M21.169,247.593l-1.935,8.143l-0.552,2.328l-0.299,1.26c-0.108,0.463,0.177,0.926,0.639,1.033
				l2.333,0.557l1.701-7.168l-1.48-6.055L21.169,247.593z"/>
		</g>
	</g>
	<g>
		<g>
			<path fill="#C0772A" d="M48.474,294.727l-3.057,0.705c-1.426-0.02-2.785-0.484-3.902-1.297c-0.843-0.613-1.548-1.42-2.042-2.377
				l-1.376-5.945h-0.159l-4.576,1.062l1.738,7.518l0.582,2.52l0.186,0.809l0.188,0.811l0.404,1.746l16.271-3.764
				C51.862,295.1,50.171,294.333,48.474,294.727z"/>
			<path fill="#34383A" d="M36.742,301.497l4.73-1.092l-0.107-0.465l-0.178-0.764l2.383,0.738l9.646-2.229
				c-0.105-0.43-0.271-0.826-0.484-1.184l-16.271,3.766l0.176,0.771L36.742,301.497z"/>
		</g>
		<g>
			
				<rect x="23.204" y="212.891" transform="matrix(0.9743 -0.2253 0.2253 0.9743 -56.3564 12.5767)" fill="#2D7994" width="7.447" height="80.654"/>
			<path fill="#1B6478" d="M26.025,247.216l1.886,8.152l0.539,2.33l0.291,1.26c0.106,0.461,0.569,0.75,1.032,0.646l2.334-0.537
				l-2.909-12.586L26.025,247.216z"/>
		</g>
	</g>
	<g>
		<g>
			<path fill="#F7B59B" d="M47.571,196.223v0.006h-0.289h-1.307h-17.88v6.045h17.88h1.307h4.055v-0.012
				c0.043,0.002,0.08,0.012,0.121,0.012c1.674,0,3.025-1.355,3.025-3.025s-1.354-3.023-3.025-3.023c-0.041,0-0.078,0.01-0.121,0.016
				v-0.01h-0.57l0.002-0.006c0-0.881-0.717-1.598-1.598-1.598C48.286,194.628,47.571,195.341,47.571,196.223z"/>
			<rect x="28.096" y="181.321" fill="#F7B59B" width="6.048" height="18.312"/>
		</g>
		<g>
			<g>
				<path fill="#F7B59B" d="M28.897,137.41l3.154,11.251h-1.906v7.998h-3.099c0,0-1.48,0.188-1.48,1.48c0,0.559,0,5.135,0,7.354
					v2.592h-7.093v-1.666v-29.24h10.239L28.897,137.41z"/>
				<circle fill="#477838" cx="27.841" cy="144.538" r="0.544"/>
				<path fill="#F18880" d="M28.967,152.114c-0.081,0-0.144-0.062-0.144-0.145h-0.555c0,0.385,0.313,0.697,0.699,0.697h1.188v-0.557
					L28.967,152.114L28.967,152.114z"/>
				<path fill="#7C3C1A" d="M13.49,134.45v28.546c0,0,1.79,0,3.554,0c5.351,0,5.065-5.064,5.065-5.064v-10.837
					c-1.007-0.001-1.824-0.819-1.824-1.826c0-1.01,0.819-1.828,1.828-1.828c0.8,0,1.473,0.52,1.721,1.234l0.023-0.075
					c1.169-0.087,2.091-1.025,2.145-2.202h0.012v-1.457c0.521,0,1.173,0,1.991,0c1.817,0,3.222-0.548,4.3-1.321
					c2.639-1.896-1.367-5.167-1.367-5.167L13.49,134.45L13.49,134.45z"/>
			</g>
		</g>
		<rect x="28.096" y="181.321" opacity="0.4" fill="#B68B7E" enable-background="new    " width="6.048" height="2.271"/>
		<path fill="#FFFFFF" d="M31.66,164.348h-4.114h-1.971h-0.002c-0.001,1.957-1.588,3.543-3.548,3.543
			c-1.957,0-3.544-1.586-3.545-3.543h-0.082h-4.296h-1.79c-1.384,0-2.508,1.121-2.508,2.508l-0.013,14.775h4.307v6.502h9.641v-6.502
			h3.807v-0.312h5.653h0.969v-8.303v-2.699v-3.463C34.168,165.469,33.047,164.348,31.66,164.348z"/>
		<rect x="18.67" y="177.788" fill="#FFFFFF" width="13.495" height="20.688"/>
		<rect x="23.739" y="169.046" fill="#FFFFFF" width="1.851" height="20.553"/>
		<path fill="#2C7893" d="M32.16,179.016c0-0.504-0.141-0.971-0.367-1.383l0.004-0.021l-2.65-6.559v-6.705H27.04v6.705h-8.564
			v-6.705h-2.105v6.705l-0.53,10.559v2.771l-1.742,3.752v26.08h18.062v-27.727v-2.105L32.16,179.016L32.16,179.016L32.16,179.016z"
			/>
		<path fill="#196378" d="M20.152,174.128v1.754v1.598v0.861c0,0.314,0.259,0.572,0.577,0.572h5.241
			c0.317,0,0.574-0.258,0.574-0.572v-0.861v-1.598v-1.754H20.152z"/>
		<rect x="9.792" y="181.526" opacity="0.4" fill="#B68B7E" enable-background="new    " width="6.081" height="2.199"/>
		<g>
			<polygon fill="#282F3D" points="8.604,303.618 5.881,302.928 59.543,95.156 60.502,95.541 			"/>
			
				<line fill="none" stroke="#FFFFFF" stroke-width="0.1405" stroke-miterlimit="10" x1="60.502" y1="95.794" x2="60.502" y2="186.175"/>
		</g>
		<g>
			<rect x="9.792" y="181.526" fill="#F7B59B" width="6.049" height="16.787"/>
			<path fill="#F7B59B" d="M31.973,214.374c-0.029-0.027-0.062-0.049-0.096-0.078l0.006-0.004l-0.4-0.4l0.002-0.002
				c0.625-0.627,0.625-1.641,0.002-2.264c-0.625-0.623-1.637-0.623-2.262,0l-0.001,0.006l-0.206-0.205L25.7,208.11l-9.791-9.795
				H15.84H9.792v2.438l6.049,6.049l5.584,5.586l3.317,3.316l2.868,2.863l0.009-0.01c0.028,0.031,0.048,0.064,0.077,0.094
				c1.183,1.188,3.099,1.186,4.281,0.002C33.154,217.471,33.154,215.555,31.973,214.374z"/>
		</g>
	</g>
</g>
</svg>
