<?xml version="1.0" encoding="utf-8"?>
<!-- Generator: Adobe Illustrator 16.0.0, SVG Export Plug-In . SVG Version: 6.00 Build 0)  -->
<!DOCTYPE svg PUBLIC "-//W3C//DTD SVG 1.1//EN" "http://www.w3.org/Graphics/SVG/1.1/DTD/svg11.dtd">
<svg version="1.1" id="Layer_1" xmlns="http://www.w3.org/2000/svg" xmlns:xlink="http://www.w3.org/1999/xlink" x="0px" y="0px"
	 width="85px" height="304.982px" viewBox="0 0 85 304.982" enable-background="new 0 0 85 304.982" xml:space="preserve">
<g>
	<path fill="#2D7994" d="M14.066,213.763c0,3.658,2.935,6.619,6.559,6.619h4.962c3.624,0,6.562-2.961,6.562-6.619v-2.505H14.066
		V213.763z"/>
	<g>
		<g>
			<path fill="#B25C27" d="M20.165,300.013l-3.05-0.727c-1.268-0.648-2.276-1.675-2.918-2.896c-0.483-0.928-0.757-1.957-0.776-3.035
				l1.412-5.938l-0.144-0.068l-4.57-1.09l-1.783,7.514l-0.595,2.513l-0.19,0.809L7.358,297.9l-0.413,1.746l16.246,3.854
				C23.04,301.855,21.861,300.418,20.165,300.013z"/>
			<path fill="#34383A" d="M6.65,300.871l4.722,1.121l0.109-0.461l0.182-0.766l1.806,1.723l9.631,2.283
				c0.103-0.432,0.127-0.854,0.089-1.271l-16.246-3.854l-0.184,0.767L6.65,300.871z"/>
		</g>
		<g>
			<polygon fill="#2D7994" points="19.227,237.472 6.372,291.628 13.616,293.347 23.039,253.658 			"/>
			<polygon fill="#2D7994" points="23.261,220.484 24.999,213.158 32.245,214.879 27.082,236.625 			"/>
			<path fill="#1B6478" d="M21.159,247.474l-1.935,8.143l-0.552,2.328l-0.299,1.26c-0.108,0.463,0.177,0.926,0.639,1.033
				l2.333,0.557l1.701-7.168l-1.48-6.056L21.159,247.474z"/>
		</g>
	</g>
	<g>
		<g>
			<path fill="#C0772A" d="M48.464,294.609l-3.057,0.705c-1.425-0.02-2.784-0.484-3.901-1.297c-0.844-0.613-1.549-1.42-2.043-2.377
				l-1.376-5.945h-0.159l-4.576,1.062l1.738,7.517l0.582,2.521l0.186,0.807l0.188,0.812l0.404,1.745l16.272-3.764
				C51.854,294.982,50.161,294.214,48.464,294.609z"/>
			<path fill="#34383A" d="M36.732,301.378l4.73-1.092l-0.107-0.464l-0.178-0.764l2.383,0.739l9.646-2.229
				c-0.104-0.43-0.271-0.826-0.484-1.183L36.45,300.15l0.176,0.771L36.732,301.378z"/>
		</g>
		<g>
			
				<rect x="23.192" y="212.775" transform="matrix(-0.9743 0.2253 -0.2253 -0.9743 110.1644 493.6324)" fill="#2D7994" width="7.446" height="80.654"/>
			<path fill="#1B6478" d="M26.015,247.097l1.886,8.152l0.539,2.33l0.291,1.26c0.106,0.461,0.569,0.75,1.032,0.646l2.334-0.537
				l-2.909-12.586L26.015,247.097z"/>
		</g>
	</g>
	<g>
		<g>
			<path fill="#F7B59B" d="M47.562,196.104v0.006h-0.289h-1.307h-17.88v6.045h17.88h1.307h4.055v-0.012
				c0.043,0.002,0.08,0.012,0.121,0.012c1.674,0,3.025-1.354,3.025-3.024s-1.354-3.024-3.025-3.024c-0.041,0-0.078,0.01-0.121,0.015
				v-0.009h-0.57l0.002-0.006c0-0.882-0.717-1.598-1.598-1.598C48.278,194.509,47.562,195.222,47.562,196.104z"/>
			<rect x="28.086" y="181.203" fill="#F7B59B" width="6.048" height="18.312"/>
		</g>
		<g>
			<g>
				<path fill="#F7B59B" d="M28.887,137.292l3.154,11.251h-1.906v7.998h-3.099c0,0-1.48,0.187-1.48,1.48c0,0.558,0,5.134,0,7.354
					v2.592h-7.093v-1.666v-29.241h10.239L28.887,137.292z"/>
				<circle fill="#477838" cx="27.831" cy="144.42" r="0.544"/>
				<path fill="#F18880" d="M28.957,151.995c-0.081,0-0.144-0.062-0.144-0.144h-0.555c0,0.385,0.313,0.698,0.699,0.698h1.188v-0.557
					L28.957,151.995L28.957,151.995z"/>
				<path fill="#7C3C1A" d="M13.48,134.332v28.546c0,0,1.79,0,3.554,0c5.351,0,5.065-5.065,5.065-5.065v-10.837
					c-1.007-0.001-1.824-0.819-1.824-1.826c0-1.01,0.819-1.828,1.828-1.828c0.8,0,1.473,0.52,1.721,1.234l0.023-0.075
					c1.169-0.087,2.091-1.025,2.145-2.202h0.012v-1.457c0.521,0,1.173,0,1.991,0c1.817,0,3.222-0.548,4.3-1.321
					c2.639-1.896-1.367-5.167-1.367-5.167L13.48,134.332L13.48,134.332z"/>
			</g>
		</g>
		<rect x="28.086" y="181.203" opacity="0.4" fill="#B68B7E" enable-background="new    " width="6.048" height="2.271"/>
		<path fill="#FFFFFF" d="M31.65,164.23h-4.114h-1.971h-0.002c-0.001,1.957-1.588,3.543-3.548,3.543
			c-1.957,0-3.544-1.586-3.545-3.543h-0.082h-4.296h-1.79c-1.384,0-2.508,1.12-2.508,2.507l-0.013,14.776h4.307v6.501h9.641v-6.501
			h3.807v-0.312h5.653h0.969v-8.304v-2.698v-3.463C34.158,165.35,33.037,164.23,31.65,164.23z"/>
		<rect x="18.66" y="177.669" fill="#FFFFFF" width="13.495" height="20.688"/>
		<rect x="23.729" y="168.927" fill="#FFFFFF" width="1.851" height="20.553"/>
		<path fill="#2C7893" d="M32.15,178.898c0-0.504-0.141-0.971-0.367-1.383l0.004-0.021l-2.65-6.56v-6.705H27.03v6.705h-8.564v-6.705
			h-2.105v6.705l-0.53,10.56v2.77l-1.742,3.752v26.081h18.062v-27.726v-2.107L32.15,178.898L32.15,178.898L32.15,178.898z"/>
		<path fill="#196378" d="M20.142,174.009v1.754v1.598v0.861c0,0.315,0.259,0.573,0.577,0.573h5.241
			c0.317,0,0.574-0.258,0.574-0.573v-0.861v-1.598v-1.754H20.142z"/>
		<rect x="9.782" y="181.408" opacity="0.4" fill="#B68B7E" enable-background="new    " width="6.081" height="2.198"/>
		<g>
			<polygon fill="#282F3D" points="7.173,303.537 4.239,302.793 82.382,0.168 82.968,0.314 			"/>
			
				<line fill="none" stroke="#FFFFFF" stroke-width="0.1513" stroke-miterlimit="10" x1="82.968" y1="0.168" x2="82.968" y2="180.382"/>
		</g>
		<g>
			<rect x="9.782" y="181.408" fill="#F7B59B" width="6.049" height="16.786"/>
			<path fill="#F7B59B" d="M31.963,214.255c-0.029-0.028-0.062-0.049-0.096-0.078l0.006-0.004l-0.4-0.401l0.002-0.002
				c0.625-0.627,0.625-1.64,0.002-2.263c-0.625-0.623-1.637-0.623-2.262,0l-0.001,0.005l-0.206-0.205l-3.318-3.316l-9.791-9.795
				H15.83H9.782v2.438l6.049,6.048l5.584,5.586l3.317,3.317l2.868,2.864l0.009-0.01c0.028,0.031,0.048,0.065,0.077,0.094
				c1.183,1.187,3.099,1.185,4.281,0.002C33.144,217.352,33.144,215.436,31.963,214.255z"/>
		</g>
	</g>
</g>
</svg>
