<?xml version="1.0" encoding="utf-8"?>
<!-- Generator: Adobe Illustrator 16.0.0, SVG Export Plug-In . SVG Version: 6.00 Build 0)  -->
<!DOCTYPE svg PUBLIC "-//W3C//DTD SVG 1.1//EN" "http://www.w3.org/Graphics/SVG/1.1/DTD/svg11.dtd">
<svg version="1.1" id="Layer_1" xmlns="http://www.w3.org/2000/svg" xmlns:xlink="http://www.w3.org/1999/xlink" x="0px" y="0px"
	 width="328.125px" height="209.826px" viewBox="-11.875 95.156 328.125 209.826"
	 enable-background="new -11.875 95.156 328.125 209.826" xml:space="preserve">
<g>
	<g>
		<path fill="#F7B59B" d="M47.6,196.264v0.006h-0.289h-1.307H28.125v6.045h17.879h1.307h4.057v-0.012
			c0.041,0.002,0.078,0.012,0.121,0.012c1.672,0,3.025-1.354,3.025-3.023s-1.354-3.023-3.025-3.023c-0.043,0-0.08,0.01-0.121,0.014
			v-0.008h-0.572v-0.006c0-0.883-0.717-1.598-1.596-1.598C48.316,194.669,47.6,195.384,47.6,196.264z"/>
		<rect x="28.125" y="181.364" fill="#F7B59B" width="6.048" height="18.311"/>
	</g>
	<g>
		<g>
			<path fill="#F7B59B" d="M28.926,137.453l3.153,11.251h-1.905v7.998h-3.099c0,0-1.48,0.188-1.48,1.482c0,0.557,0,5.131,0,7.352
				v2.592h-7.093v-1.666v-29.241h10.239L28.926,137.453z"/>
			<circle fill="#477838" cx="27.87" cy="144.581" r="0.544"/>
			<path fill="#F18880" d="M28.996,152.156c-0.081,0-0.144-0.062-0.144-0.144h-0.555c0,0.385,0.313,0.698,0.699,0.698h1.188v-0.557
				L28.996,152.156L28.996,152.156z"/>
			<path fill="#7C3C1A" d="M13.519,134.493v28.545c0,0,1.79,0,3.554,0c5.351,0,5.065-5.064,5.065-5.064v-10.836
				c-1.007-0.002-1.824-0.819-1.824-1.826c0-1.01,0.819-1.828,1.828-1.828c0.8,0,1.473,0.519,1.721,1.234l0.023-0.076
				c1.169-0.086,2.091-1.025,2.145-2.201h0.012v-1.457c0.521,0,1.173,0,1.991,0c1.817,0,3.222-0.549,4.3-1.322
				c2.639-1.896-1.366-5.167-1.366-5.167L13.519,134.493L13.519,134.493z"/>
		</g>
	</g>
	<g>
		<path fill="#B15C27" d="M40.083,298.102h-3.128c-1.378-0.338-2.593-1.098-3.497-2.139c-0.681-0.783-1.187-1.725-1.451-2.764
			v-6.088l-0.155-0.033h-4.683v7.693v2.572v0.83v0.826v1.785h16.65C43.293,299.227,41.819,298.102,40.083,298.102z"/>
		<path fill="#33373A" d="M27.167,302.046h4.838v-0.467v-0.785l2.148,1.252h9.868c0-0.439-0.074-0.859-0.207-1.256H27.166v0.789
			L27.167,302.046L27.167,302.046z"/>
	</g>
	<g>
		<path fill="#BF772A" d="M29.765,298.102h-3.126c-1.381-0.338-2.594-1.098-3.498-2.139c-0.682-0.783-1.187-1.725-1.453-2.764
			v-6.088l-0.156-0.033h-4.683v7.693v2.572v0.83v0.826v1.785H33.5C32.975,299.227,31.501,298.102,29.765,298.102z"/>
		<path fill="#33373A" d="M16.849,302.046h4.839v-0.467v-0.785l2.149,1.252h9.868c0-0.439-0.072-0.859-0.205-1.256H16.849v0.789
			V302.046z"/>
	</g>
	<rect x="28.125" y="181.364" opacity="0.4" fill="#B68B7E" enable-background="new    " width="6.048" height="2.27"/>
	<g>
		<rect x="14.453" y="215.157" fill="#2C7893" width="7.422" height="77.992"/>
		<path fill="#196378" d="M18.628,246.909v8.346v2.385v1.289c0,0.475,0.386,0.857,0.859,0.857h2.388v-12.877H18.628z"/>
	</g>
	<g>
		<rect x="24.769" y="215.157" fill="#2C7893" width="7.423" height="77.992"/>
		<path fill="#196378" d="M28.944,246.909v8.346v2.385v1.289c0,0.475,0.385,0.857,0.859,0.857h2.389v-12.877H28.944z"/>
	</g>
	<path fill="#FFFFFF" d="M31.689,164.391h-4.114h-1.971h-0.002c-0.001,1.957-1.588,3.543-3.548,3.543
		c-1.957,0-3.544-1.586-3.545-3.543h-0.082h-4.296h-1.79c-1.384,0-2.508,1.119-2.508,2.506l-0.014,14.775h4.307v6.502h9.641v-6.502
		h3.807v-0.311h5.653h0.969v-8.307v-2.697v-3.463C34.196,165.51,33.075,164.391,31.689,164.391z"/>
	<rect x="18.698" y="177.831" fill="#FFFFFF" width="13.494" height="20.688"/>
	<rect x="23.767" y="169.089" fill="#FFFFFF" width="1.851" height="20.553"/>
	<path fill="#2C7893" d="M32.188,179.059c0-0.504-0.141-0.971-0.366-1.383l0.003-0.021l-2.65-6.559v-6.705h-2.107v6.705h-8.564
		v-6.705h-2.105v6.705l-0.53,10.559v2.77l-1.742,3.752v32.082h18.062v-33.727v-2.107L32.188,179.059L32.188,179.059L32.188,179.059z
		"/>
	<path fill="#196378" d="M20.181,174.169v1.754v1.598v0.861c0,0.316,0.259,0.574,0.577,0.574h5.241c0.317,0,0.574-0.258,0.574-0.574
		v-0.861v-1.598v-1.754H20.181z"/>
	<rect x="9.819" y="181.569" opacity="0.4" fill="#B68B7E" enable-background="new    " width="6.081" height="2.197"/>
	<polygon fill="#282F3D" points="8.646,303.698 5.923,303.009 59.584,95.236 60.543,95.62 	"/>
	
		<line fill="none" stroke="#FFFFFF" stroke-width="0.1405" stroke-miterlimit="10" x1="60.543" y1="96.581" x2="60.543" y2="186.962"/>
	<g>
		<rect x="9.819" y="181.569" fill="#F7B59B" width="6.049" height="16.785"/>
		<path fill="#F7B59B" d="M32.002,214.415c-0.029-0.029-0.063-0.049-0.097-0.078l0.007-0.004l-0.401-0.402l0.002-0.002
			c0.625-0.627,0.625-1.639,0.002-2.262c-0.624-0.623-1.636-0.623-2.262,0l-0.001,0.004l-0.206-0.205l-3.318-3.314l-9.791-9.797
			h-0.069H9.819v2.439l6.049,6.047l5.584,5.586l3.317,3.318l2.868,2.865l0.009-0.01c0.028,0.029,0.048,0.064,0.077,0.094
			c1.183,1.186,3.099,1.184,4.28,0.002C33.183,217.514,33.183,215.596,32.002,214.415z"/>
	</g>
	<g>
		<path fill="#A7BDC2" d="M60.543,188.874c-1.027,0.67-1.896,1.785-2.504,3.182h5.008C62.439,190.659,61.57,189.544,60.543,188.874z
			"/>
		<path fill="#A7BDC2" d="M57.111,179.067c0,4.504,1.412,8.373,3.432,10.061c2.019-1.688,3.431-5.557,3.431-10.061
			c0-1.91-0.256-3.703-0.701-5.268h-5.46C57.367,175.364,57.111,177.157,57.111,179.067z"/>
		<path fill="#728A93" d="M60.543,169.009c-1.164,0.971-2.123,2.666-2.73,4.791h5.46C62.666,171.675,61.705,169.979,60.543,169.009z
			"/>
	</g>
</g>
</svg>
