<?xml version="1.0" encoding="utf-8"?>
<!-- Generator: Adobe Illustrator 16.0.0, SVG Export Plug-In . SVG Version: 6.00 Build 0)  -->
<!DOCTYPE svg PUBLIC "-//W3C//DTD SVG 1.1//EN" "http://www.w3.org/Graphics/SVG/1.1/DTD/svg11.dtd">
<svg version="1.1" id="Layer_1" xmlns="http://www.w3.org/2000/svg" xmlns:xlink="http://www.w3.org/1999/xlink" x="0px" y="0px"
	 width="584.562px" height="303.371px" viewBox="0 0 584.562 303.371" enable-background="new 0 0 584.562 303.371"
	 xml:space="preserve">
<g>
	<g>
		<rect x="42.327" y="176.365" fill="#F8B69C" width="6.062" height="16.827"/>
		<path fill="#F8B69C" d="M64.563,209.296c-0.03-0.03-0.064-0.049-0.095-0.08l0.005-0.004l-0.403-0.401l0.004-0.004
			c0.626-0.627,0.625-1.642,0.001-2.265c-0.626-0.627-1.641-0.629-2.268,0l-0.001,0.002l-0.206-0.205l-3.326-3.325l-9.815-9.819
			h-0.07l-6.062-0.002v2.448l6.062,6.062l5.599,5.6l3.326,3.324l2.873,2.875l0.01-0.01c0.028,0.03,0.048,0.067,0.077,0.096
			c1.187,1.186,3.107,1.186,4.292,0C65.75,212.402,65.75,210.484,64.563,209.296z"/>
	</g>
	<g>
		<g>
			<path fill="#F8B69C" d="M43.127,137.157l3.162,11.278h-1.91v8.02h-3.108c0,0-1.481,0.187-1.481,1.483c0,0.558,0,5.146,0,7.371
				v2.599h-7.111v-1.67v-29.314h10.263L43.127,137.157z"/>
			<circle fill="#477838" cx="42.069" cy="144.302" r="0.545"/>
			<path fill="#F28A82" d="M43.197,151.896c-0.078,0-0.144-0.062-0.144-0.143h-0.557c0,0.386,0.314,0.7,0.7,0.7h1.192v-0.558
				L43.197,151.896L43.197,151.896z"/>
			<path fill="#7C3C1A" d="M27.684,134.188v28.618c0,0,1.792,0,3.561,0c5.366,0,5.08-5.078,5.08-5.078v-10.863
				c-1.01-0.002-1.828-0.821-1.828-1.833c0-1.009,0.819-1.832,1.83-1.832c0.803,0,1.477,0.521,1.726,1.239l0.024-0.076
				c1.171-0.088,2.096-1.028,2.15-2.208h0.012v-1.459c0.522,0,1.175,0,1.997,0c1.822,0,3.229-0.55,4.311-1.326
				c2.646-1.901-1.37-5.182-1.37-5.182H27.684z"/>
		</g>
	</g>
	<g>
		<path fill="#B25C27" d="M54.311,298.212h-3.134c-1.384-0.34-2.601-1.104-3.507-2.145c-0.683-0.787-1.189-1.729-1.454-2.771v-6.104
			l-0.157-0.033h-4.694v7.713v2.582v0.83v0.828v1.791h16.692C57.531,299.337,56.054,298.212,54.311,298.212z"/>
		<path fill="#34383A" d="M41.365,302.164h4.851v-0.471v-0.785l2.153,1.256h9.894c0-0.44-0.074-0.863-0.206-1.26H41.365v0.789
			V302.164z"/>
	</g>
	<g>
		<path fill="#C0772A" d="M43.968,298.212h-3.133c-1.384-0.34-2.602-1.104-3.507-2.145c-0.683-0.787-1.189-1.729-1.456-2.771v-6.104
			l-0.157-0.033h-4.694v7.713v2.582v0.83v0.828v1.791h16.692C47.188,299.337,45.709,298.212,43.968,298.212z"/>
		<path fill="#34383A" d="M31.021,302.164h4.852v-0.471v-0.785l2.155,1.256h9.894c0-0.44-0.074-0.863-0.208-1.26H31.021v0.789
			V302.164z"/>
	</g>
	<rect x="42.327" y="181.177" opacity="0.4" fill="#B78D7E" enable-background="new    " width="6.062" height="2.277"/>
	<g>
		<rect x="28.618" y="215.057" fill="#2D7994" width="7.443" height="78.188"/>
		<path fill="#1B6478" d="M32.805,246.887v8.364v2.394v1.291c0,0.476,0.385,0.86,0.859,0.86h2.396v-12.91L32.805,246.887
			L32.805,246.887z"/>
	</g>
	<g>
		<rect x="38.961" y="215.057" fill="#2D7994" width="7.441" height="78.188"/>
		<path fill="#1B6478" d="M43.146,246.887v8.364v2.394v1.291c0,0.476,0.387,0.86,0.862,0.86h2.395v-12.91L43.146,246.887
			L43.146,246.887z"/>
	</g>
	<path fill="#FFFFFF" d="M45.899,164.164h-4.125h-1.976h-0.003c0,1.961-1.592,3.551-3.556,3.551c-1.964,0-3.557-1.59-3.557-3.551
		H32.6h-4.308H26.5c-1.389,0-2.516,1.123-2.516,2.514l-0.011,14.812h4.316v6.516h9.666v-6.516h3.817v-0.312h5.665h0.973v-8.323
		v-2.705v-3.472C48.412,165.287,47.287,164.164,45.899,164.164z"/>
	<rect x="32.875" y="177.636" fill="#FFFFFF" width="13.528" height="20.742"/>
	<rect x="37.957" y="168.873" fill="#FFFFFF" width="1.856" height="20.604"/>
	<path fill="#2D7994" d="M46.4,178.869c0-0.506-0.141-0.974-0.369-1.387l0.003-0.021l-2.656-6.574v-6.723h-2.111v6.723h-8.588
		v-6.723H30.57v6.723l-0.533,10.584v2.775l-1.746,3.76v32.164H46.4v-33.811v-2.113V178.869L46.4,178.869L46.4,178.869z"/>
	<path fill="#1B6478" d="M34.362,173.966v1.759v1.603v0.862c0,0.317,0.259,0.575,0.578,0.575h5.254c0.318,0,0.575-0.258,0.575-0.575
		v-0.862v-1.603v-1.759H34.362z"/>
	<g>
		
			<rect x="580.568" y="223.955" transform="matrix(-0.9453 -0.3262 0.3262 -0.9453 1055.9255 630.5233)" fill="#FFFFFF" width="0.527" height="5.537"/>
		<polygon fill="#292F3D" points="1.581,243.486 0,240.898 267.951,78.478 268.268,78.993 		"/>
		<path fill="none" stroke="#FFFFFF" stroke-width="0.1517" stroke-miterlimit="10" d="M268.268,78.488
			c0,0,98.436,145.965,313.121,145.965"/>
		<path fill="#F04F33" d="M581.764,234.197l0.438-1.26c0.606-1.744-0.314-3.646-2.058-4.252c-1.742-0.605-3.645,0.314-4.25,2.059
			l-0.534,1.535l5.516,1.918H581.764z"/>
		<path fill="#FFFFFF" d="M575.436,232.279l-0.534,1.535c-0.043,0.125-0.076,0.254-0.104,0.383h6.154L575.436,232.279z"/>
	</g>
	<g>
		<rect x="23.975" y="181.382" fill="#F8B69C" width="6.062" height="16.83"/>
		<path fill="#F8B69C" d="M46.21,214.314c-0.028-0.029-0.063-0.049-0.094-0.078l0.004-0.006l-0.403-0.404l0.004-0.002
			c0.627-0.625,0.626-1.641,0.002-2.266c-0.626-0.625-1.64-0.627-2.268,0l-0.001,0.006l-0.206-0.207l-3.326-3.326l-9.816-9.82
			h-0.069h-6.062v2.445l6.062,6.062l5.599,5.6l3.326,3.326l2.872,2.873l0.011-0.008c0.028,0.029,0.048,0.064,0.076,0.094
			c1.188,1.186,3.107,1.186,4.292,0C47.397,217.419,47.397,215.5,46.21,214.314z"/>
	</g>
	<rect x="23.975" y="181.382" opacity="0.4" fill="#B78D7E" enable-background="new    " width="6.096" height="2.205"/>
</g>
</svg>
