<?xml version="1.0" encoding="utf-8"?>
<!-- Generator: Adobe Illustrator 16.0.0, SVG Export Plug-In . SVG Version: 6.00 Build 0)  -->
<!DOCTYPE svg PUBLIC "-//W3C//DTD SVG 1.1//EN" "http://www.w3.org/Graphics/SVG/1.1/DTD/svg11.dtd">
<svg version="1.1" id="Layer_1" xmlns="http://www.w3.org/2000/svg" xmlns:xlink="http://www.w3.org/1999/xlink" x="0px" y="0px"
	 width="328.125px" height="209.826px" viewBox="-11.875 95.156 328.125 209.826"
	 enable-background="new -11.875 95.156 328.125 209.826" xml:space="preserve">
<g>
	<g>
		<rect x="28.169" y="176.61" fill="#F8B69C" width="6.062" height="16.826"/>
		<path fill="#F8B69C" d="M48.254,205.139c-0.029-0.029-0.488-0.488-0.488-0.488c0.626-0.627,0.625-1.643,0.001-2.266
			c-0.626-0.627-1.642-0.629-2.269,0v0.002l-14.563-11.613h-0.07l-6.062-0.002v2.447c0,0,19.133,16.184,19.162,16.213
			c1.188,1.186,3.107,1.186,4.293,0C49.441,208.247,49.441,206.329,48.254,205.139z"/>
	</g>
	<g>
		<g>
			<path fill="#F8B69C" d="M28.969,137.403l3.162,11.278h-1.91v8.019h-3.108c0,0-1.481,0.188-1.481,1.482c0,0.559,0,5.146,0,7.371
				v2.6h-7.111v-1.67v-29.314h10.263L28.969,137.403z"/>
			<circle fill="#477838" cx="27.911" cy="144.548" r="0.545"/>
			<path fill="#F28A82" d="M29.039,152.141c-0.078,0-0.144-0.062-0.144-0.143h-0.557c0,0.385,0.314,0.699,0.7,0.699h1.192v-0.559
				L29.039,152.141L29.039,152.141z"/>
			<path fill="#7C3C1A" d="M13.526,134.433v28.618c0,0,1.792,0,3.561,0c5.366,0,5.08-5.078,5.08-5.078v-10.863
				c-1.01-0.002-1.828-0.821-1.828-1.833c0-1.009,0.819-1.832,1.83-1.832c0.803,0,1.477,0.521,1.726,1.239l0.024-0.076
				c1.171-0.088,2.096-1.028,2.15-2.209h0.012v-1.458c0.522,0,1.175,0,1.997,0c1.822,0,3.229-0.55,4.311-1.326
				c2.646-1.901-1.37-5.182-1.37-5.182H13.526z"/>
		</g>
	</g>
	<g>
		<path fill="#B25C27" d="M40.153,298.458h-3.134c-1.384-0.34-2.601-1.105-3.507-2.146c-0.683-0.785-1.189-1.729-1.454-2.77v-6.105
			l-0.157-0.031h-4.694v7.713v2.582v0.83v0.826v1.791h16.692C43.373,299.583,41.896,298.458,40.153,298.458z"/>
		<path fill="#34383A" d="M27.208,302.409h4.851v-0.471v-0.785l2.153,1.256h9.894c0-0.439-0.074-0.863-0.206-1.26H27.208v0.789
			V302.409z"/>
	</g>
	<g>
		<path fill="#C0772A" d="M29.81,298.458h-3.133c-1.384-0.34-2.602-1.105-3.507-2.146c-0.683-0.785-1.189-1.729-1.456-2.77v-6.105
			l-0.157-0.031h-4.694v7.713v2.582v0.83v0.826v1.791h16.692C33.03,299.583,31.551,298.458,29.81,298.458z"/>
		<path fill="#34383A" d="M16.863,302.409h4.852v-0.471v-0.785l2.155,1.256h9.894c0-0.439-0.074-0.863-0.208-1.26H16.863v0.789
			V302.409z"/>
	</g>
	<rect x="28.169" y="181.423" opacity="0.4" fill="#B78D7E" enable-background="new    " width="6.062" height="2.277"/>
	<g>
		<rect x="14.46" y="215.302" fill="#2D7994" width="7.443" height="78.189"/>
		<path fill="#1B6478" d="M18.647,247.132v8.365v2.393v1.291c0,0.477,0.385,0.861,0.859,0.861h2.396v-12.91H18.647L18.647,247.132z"
			/>
	</g>
	<g>
		<rect x="24.803" y="215.302" fill="#2D7994" width="7.441" height="78.189"/>
		<path fill="#1B6478" d="M28.988,247.132v8.365v2.393v1.291c0,0.477,0.387,0.861,0.862,0.861h2.395v-12.91H28.988L28.988,247.132z"
			/>
	</g>
	<path fill="#FFFFFF" d="M31.741,164.409h-4.125H25.64h-0.003c0,1.961-1.592,3.551-3.556,3.551c-1.964,0-3.557-1.59-3.557-3.551
		h-0.082h-4.308h-1.792c-1.389,0-2.516,1.123-2.516,2.514l-0.011,14.812h4.316v6.516h9.666v-6.516h3.817v-0.312h5.665h0.973V173.1
		v-2.705v-3.473C34.254,165.532,33.129,164.409,31.741,164.409z"/>
	<rect x="18.717" y="177.882" fill="#FFFFFF" width="13.528" height="20.742"/>
	<rect x="23.799" y="169.118" fill="#FFFFFF" width="1.856" height="20.604"/>
	<path fill="#2D7994" d="M32.242,179.114c0-0.506-0.141-0.975-0.369-1.387l0.003-0.021l-2.656-6.574v-6.723h-2.111v6.723h-8.588
		v-6.723h-2.109v6.723l-0.533,10.584v2.775l-1.746,3.76v32.164h18.109v-33.811v-2.113V179.114L32.242,179.114L32.242,179.114z"/>
	<path fill="#1B6478" d="M20.204,174.212v1.758v1.604v0.861c0,0.318,0.259,0.576,0.578,0.576h5.254c0.318,0,0.575-0.258,0.575-0.576
		v-0.861v-1.604v-1.758H20.204z"/>
	<g>
		
			<rect x="314.554" y="229.724" transform="matrix(-0.9446 -0.3282 0.3282 -0.9446 535.9169 555.0355)" fill="#FFFFFF" width="0.488" height="5.136"/>
		<polygon fill="#282F3D" points="-10.143,248.294 -11.875,246.081 157.682,114.552 158.206,115.442 		"/>
		<path fill="none" stroke="#FFFFFF" stroke-width="0.1407" stroke-miterlimit="10" d="M157.678,114.552
			c0,0,63.393,117.395,156.74,118.23"/>
		<path fill="#EF4D33" d="M315.67,239.218l0.408-1.168c0.561-1.617-0.293-3.381-1.91-3.941c-1.615-0.562-3.379,0.291-3.941,1.906
			l-0.492,1.426l5.113,1.777H315.67z"/>
		<path fill="#FFFFFF" d="M309.732,237.438l-0.496,1.426c-0.041,0.115-0.07,0.232-0.098,0.354h5.709L309.732,237.438z"/>
	</g>
	<g>
		<rect x="9.817" y="181.628" fill="#F8B69C" width="6.062" height="16.83"/>
		<path fill="#F8B69C" d="M33.268,212.825c-0.028-0.029-0.489-0.49-0.489-0.49c0.627-0.625,0.626-1.641,0.002-2.266
			c-0.626-0.625-1.64-0.627-2.268,0l-0.001,0.006l-14.563-11.617h-0.069H9.817v2.445l16.202,13.252c0,0,2.931,2.928,2.959,2.959
			c1.188,1.186,3.107,1.186,4.292,0C34.455,215.93,34.455,214.01,33.268,212.825z"/>
	</g>
	<rect x="9.817" y="181.628" opacity="0.4" fill="#B78D7E" enable-background="new    " width="6.096" height="2.205"/>
</g>
</svg>
