<?xml version="1.0" encoding="utf-8"?>
<!-- Generator: Adobe Illustrator 16.0.0, SVG Export Plug-In . SVG Version: 6.00 Build 0)  -->
<!DOCTYPE svg PUBLIC "-//W3C//DTD SVG 1.1//EN" "http://www.w3.org/Graphics/SVG/1.1/DTD/svg11.dtd">
<svg version="1.1" id="Layer_1" xmlns="http://www.w3.org/2000/svg" xmlns:xlink="http://www.w3.org/1999/xlink" x="0px" y="0px"
	 width="584.562px" height="303.37px" viewBox="0 0 584.562 303.37" enable-background="new 0 0 584.562 303.37"
	 xml:space="preserve">
<g>
	<g>
		<path fill="#F8B69C" d="M61.708,195.938l0.001,0.006h-0.291h-1.306h-17.88v6.044h17.88h1.306h4.054v-0.012
			c0.042,0.002,0.079,0.012,0.121,0.012c1.673,0,3.027-1.353,3.027-3.025c0-1.67-1.354-3.025-3.027-3.025
			c-0.042,0-0.079,0.01-0.121,0.014v-0.008h-0.57l0.001-0.006c0-0.882-0.716-1.597-1.597-1.597
			C62.425,194.341,61.708,195.056,61.708,195.938z"/>
		<rect x="42.233" y="181.035" fill="#F8B69C" width="6.048" height="18.311"/>
	</g>
	<g>
		<g>
			<path fill="#F8B69C" d="M43.034,137.124l3.153,11.251h-1.905v7.998h-3.099c0,0-1.48,0.186-1.48,1.481c0,0.557,0,5.134,0,7.354
				v2.592h-7.093v-1.666v-29.241h10.239L43.034,137.124z"/>
			<circle fill="#477838" cx="41.978" cy="144.253" r="0.544"/>
			<path fill="#F28A82" d="M43.104,151.827c-0.081,0-0.144-0.062-0.144-0.143h-0.555c0,0.385,0.313,0.699,0.699,0.699h1.188v-0.557
				H43.104z"/>
			<path fill="#7C3C1A" d="M27.627,134.164v28.546c0,0,1.79,0,3.554,0c5.351,0,5.065-5.066,5.065-5.066v-10.836
				c-1.007-0.001-1.824-0.819-1.824-1.826c0-1.01,0.819-1.828,1.828-1.828c0.8,0,1.473,0.519,1.721,1.234l0.023-0.075
				c1.169-0.087,2.091-1.026,2.145-2.202h0.012v-1.457c0.521,0,1.173,0,1.991,0c1.817,0,3.222-0.548,4.3-1.322
				c2.638-1.896-1.367-5.167-1.367-5.167H27.627z"/>
		</g>
	</g>
	<g>
		<path fill="#B25C27" d="M54.19,297.775h-3.128c-1.378-0.338-2.593-1.098-3.498-2.139c-0.681-0.783-1.186-1.725-1.451-2.764v-6.088
			l-0.155-0.033h-4.683v7.695v2.572v0.83v0.826v1.785h16.65C57.401,298.9,55.927,297.775,54.19,297.775z"/>
		<path fill="#34383A" d="M41.275,301.717h4.838v-0.467v-0.785l2.148,1.252h9.87c0-0.439-0.075-0.859-0.207-1.256h-16.65v0.789
			V301.717z"/>
	</g>
	<g>
		<path fill="#C0772A" d="M43.873,297.775h-3.126c-1.381-0.338-2.594-1.098-3.498-2.139c-0.682-0.783-1.187-1.725-1.453-2.764
			v-6.088l-0.156-0.033h-4.683v7.695v2.572v0.83v0.826v1.785h16.651C47.084,298.9,45.609,297.775,43.873,297.775z"/>
		<path fill="#34383A" d="M30.958,301.717h4.839v-0.467v-0.785l2.149,1.252h9.868c0-0.439-0.072-0.859-0.206-1.256H30.958v0.789
			V301.717z"/>
	</g>
	<rect x="42.233" y="181.035" opacity="0.4" fill="#B78D7E" width="6.048" height="2.271"/>
	<g>
		<rect x="28.561" y="214.828" fill="#2D7994" width="7.422" height="77.992"/>
		<path fill="#1B6478" d="M32.736,246.58v8.346v2.385v1.289c0,0.473,0.386,0.857,0.859,0.857h2.388V246.58H32.736z"/>
	</g>
	<g>
		<rect x="38.877" y="214.828" fill="#2D7994" width="7.423" height="77.992"/>
		<path fill="#1B6478" d="M43.052,246.58v8.346v2.385v1.289c0,0.473,0.385,0.857,0.859,0.857H46.3V246.58H43.052z"/>
	</g>
	<path fill="#FFFFFF" d="M45.797,164.063h-4.115h-1.971h-0.002c-0.001,1.957-1.588,3.543-3.548,3.543
		c-1.957,0-3.544-1.586-3.545-3.543h-0.082h-4.296h-1.79c-1.384,0-2.508,1.12-2.508,2.507l-0.013,14.776h4.307v6.501h9.641v-6.501
		h3.807v-0.312h5.653h0.969v-8.304v-2.698v-3.463C48.304,165.184,47.183,164.063,45.797,164.063z"/>
	<rect x="32.806" y="177.502" fill="#FFFFFF" width="13.494" height="20.69"/>
	<rect x="37.875" y="168.762" fill="#FFFFFF" width="1.851" height="20.552"/>
	<path fill="#2D7994" d="M46.297,178.731c0-0.504-0.141-0.97-0.367-1.383l0.003-0.021l-2.65-6.559v-6.705h-2.107v6.705h-8.564
		v-6.705h-2.105v6.705l-0.53,10.559v2.769l-1.742,3.752v32.082h18.062v-33.726v-2.108V178.731L46.297,178.731L46.297,178.731z"/>
	<path fill="#1B6478" d="M34.289,173.842v1.753v1.598v0.861c0,0.316,0.259,0.574,0.577,0.574h5.241c0.317,0,0.574-0.258,0.574-0.574
		v-0.861v-1.598v-1.753H34.289z"/>
	<rect x="23.927" y="181.241" opacity="0.4" fill="#B78D7E" width="6.081" height="2.198"/>
	<g>
		<polygon fill="#292F3D" points="21.32,303.369 18.384,302.625 96.527,0 97.113,0.147 		"/>
		<line fill="none" stroke="#FFFFFF" stroke-width="0.1513" stroke-miterlimit="10" x1="97.113" y1="0" x2="97.113" y2="180.215"/>
		<g>
			<path fill="#A7BDC2" d="M97.113,184.639c-1.028,0.671-1.897,1.786-2.505,3.183h5.008
				C99.009,186.425,98.139,185.31,97.113,184.639z"/>
			<path fill="#A7BDC2" d="M93.681,174.834c0,4.504,1.412,8.373,3.432,10.06c2.018-1.687,3.43-5.556,3.43-10.06
				c0-1.91-0.256-3.704-0.701-5.268h-5.46C93.937,171.13,93.681,172.924,93.681,174.834z"/>
			<path fill="#728A93" d="M97.113,164.774c-1.165,0.971-2.124,2.667-2.731,4.792h5.46
				C99.235,167.441,98.275,165.745,97.113,164.774z"/>
		</g>
	</g>
	<g>
		<rect x="23.927" y="181.241" fill="#F8B69C" width="6.049" height="16.787"/>
		<path fill="#F8B69C" d="M46.11,214.088c-0.029-0.029-0.064-0.049-0.096-0.078l0.006-0.004l-0.402-0.402l0.003-0.002
			c0.625-0.627,0.625-1.639,0.001-2.262s-1.636-0.623-2.261,0l-0.001,0.004l-0.206-0.205l-3.318-3.316l-9.791-9.794h-0.069h-6.049
			v2.438l6.049,6.046l5.584,5.586l3.317,3.318l2.868,2.865l0.009-0.01c0.028,0.031,0.048,0.066,0.077,0.094
			c1.183,1.186,3.099,1.184,4.28,0.002C47.292,217.186,47.292,215.27,46.11,214.088z"/>
	</g>
</g>
</svg>
