<?xml version="1.0" encoding="utf-8"?>
<!-- Generator: Adobe Illustrator 16.0.0, SVG Export Plug-In . SVG Version: 6.00 Build 0)  -->
<!DOCTYPE svg PUBLIC "-//W3C//DTD SVG 1.1//EN" "http://www.w3.org/Graphics/SVG/1.1/DTD/svg11.dtd">
<svg version="1.1" id="Layer_1" xmlns="http://www.w3.org/2000/svg" xmlns:xlink="http://www.w3.org/1999/xlink" x="0px" y="0px"
	 width="79.41px" height="285.878px" viewBox="0 0 79.41 285.878" enable-background="new 0 0 79.41 285.878" xml:space="preserve">
<g>
	<path fill="#F9B69B" d="M69.07,177.048c0,0.035,0.006,0.066,0.008,0.101h-2.943H45.083v6.726h21.051h4.555h4.218
		c0.002,0,0.004,0.002,0.004,0.002c0.006,0,0.008-0.002,0.008-0.002h0.326v-0.031c1.698-0.168,3.03-1.588,3.03-3.332
		s-1.332-3.16-3.03-3.33v-0.031h-0.319c-0.004,0-0.008,0-0.014,0c-0.004,0-0.008,0-0.015,0h-3.442c0.002-0.033,0.01-0.064,0.01-0.1
		c0-0.662-0.537-1.195-1.199-1.195C69.604,175.854,69.07,176.386,69.07,177.048z"/>
	<rect x="49.026" y="167.453" fill="#F9B69B" width="5.396" height="13.586"/>
	<rect x="47.695" y="167.453" opacity="0.4" fill="#B78C7D" enable-background="new    " width="6.729" height="2.107"/>
	<g>
		<g>
			<path fill="#9B5C12" d="M58.596,278.375h-3.709c-1.639-0.401-3.08-1.307-4.149-2.541c-0.812-0.928-1.41-2.047-1.726-3.278v-7.226
				l-0.186-0.039h-5.558v9.133v3.056v0.979v0.982v2.121H63.03C62.41,279.709,60.66,278.375,58.596,278.375z"/>
			<path fill="#33373A" d="M43.269,283.053h5.743v-0.557v-0.931l2.551,1.485h11.713c0-0.521-0.086-1.021-0.245-1.489H43.27v0.935
				L43.269,283.053L43.269,283.053z"/>
			<rect x="43.269" y="270.086" opacity="0.4" fill="#9B5C12" enable-background="new    " width="5.772" height="1.832"/>
		</g>
		<g>
			<rect x="40.314" y="186.798" fill="#2C7893" width="8.711" height="83.288"/>
			<path fill="#196377" d="M45.216,224.057v9.791v2.799v1.51c0,0.562,0.451,1.013,1.009,1.013h2.802v-15.111L45.216,224.057
				L45.216,224.057z"/>
		</g>
	</g>
	<g>
		<g>
			<g>
				<path fill="#C17614" d="M45.119,278.375h-3.712c-1.64-0.401-3.079-1.307-4.15-2.541c-0.002,0.125-0.004,0.242-0.004,0.354
					c0,3.063-3.252,3.254-3.252,3.254h-4.212v2.121h19.763C48.928,279.709,47.18,278.375,45.119,278.375z"/>
				<path fill="#C17614" d="M37.253,276.188c0-0.111,0.002-0.229,0.004-0.354c-0.811-0.929-1.409-2.047-1.724-3.279v-7.225
					l-0.186-0.039h-5.56v9.133v3.055v0.98v0.981H34C34.001,279.442,37.253,279.252,37.253,276.188z"/>
				<path fill="#33373A" d="M29.789,283.053h5.744v-0.557v-0.931l2.551,1.485h11.712c0-0.521-0.088-1.021-0.244-1.489H29.789v0.935
					V283.053z"/>
			</g>
			<rect x="29.789" y="270.086" opacity="0.4" fill="#9B5C12" enable-background="new    " width="5.773" height="1.832"/>
		</g>
		<rect x="26.851" y="186.798" fill="#2C7893" width="8.711" height="83.288"/>
	</g>
	<path fill="#196377" d="M30.158,238.158v-1.511v-2.799v-9.791h-3.307v15.11h2.299C29.709,239.167,30.158,238.716,30.158,238.158z"
		/>
	<rect x="31.018" y="141.727" fill="#F9B69B" width="12.528" height="9.927"/>
	<path fill="#FFFFFF" d="M48.876,141.727h-4.784h-0.615h-1.288c0,2.618-2.119,4.739-4.737,4.739c-2.617,0-4.738-2.121-4.738-4.739
		h-1.941h-5.395c-3.066,0-5.552,2.483-5.552,5.546v4.068l0,0v16.111h2.146h4.88l0,0h22.174l0,0h5.396v-6.55v-5.771v-7.859
		C54.423,144.21,51.938,141.727,48.876,141.727z"/>
	<polygon fill="#2C7893" points="47.829,152.361 47.829,141.727 44.923,141.727 44.923,152.361 32.713,152.361 32.713,141.727 
		29.803,141.727 29.803,152.361 29.35,167.453 26.851,167.453 26.851,199.46 28.508,199.46 49.026,199.46 49.026,167.453 	"/>
	<path fill="#196377" d="M32.713,167.453v3.078v2.799v1.512c0,0.56,0.451,1.013,1.007,1.013h9.194c0.558,0,1.008-0.453,1.008-1.013
		v-1.512v-2.799v-3.078H32.713z"/>
	<g>
		<path fill="#F9B69B" d="M45.216,115.634l4.813,10.785h-3.652v11.345h-2.878c0,0-1.375,0.171-1.375,1.373c0,0.517,0,0.517,0,2.58
			v2.406h-9.41v-1.546v-27.158h12.331L45.216,115.634z"/>
		<circle fill="#2E3D49" cx="43.445" cy="119.705" r="0.505"/>
		<path opacity="0.2" fill="#4C3B15" enable-background="new    " d="M38.986,121.304v9.283c0,0-0.014,1.578,0,2.106
			c0.053,2.058-0.215,5.07,3.18,5.07c2.622,0,4.21,0,4.21,0v-11.344h-1.977c0,0-0.449,0-1.977,0c-1.117,0-1.632-0.559-1.632-1.635
			c0-1.761,0-7.132,0-7.132h-1.807v3.652H38.986z"/>
		<path fill="#F9B69B" d="M46.376,128.231c0,0-0.667,0-1.913,0c-0.439,0-1.331,0.041-1.331,1.158c0,0.688,0,0.865,0,0.865h3.244
			V128.231z"/>
		<path fill="#CE857C" d="M44.655,129.273c-0.194,0-0.352-0.156-0.352-0.349h-0.515c0,0.477,0.386,0.866,0.864,0.866l0,0h1.722
			v-0.518L44.655,129.273L44.655,129.273z"/>
		<path fill="#66301D" d="M32.145,112.064v14.738c0,0,0,0,1.334,0c4.038,0,3.822-3.823,3.822-3.823v-1.71
			c-0.008,0-0.016,0.004-0.025,0.004c-0.937,0-1.697-0.76-1.697-1.695c0-0.939,0.762-1.699,1.697-1.699
			c0.926,0,1.675,0.743,1.693,1.662h0.003v0.037v1.695h1.812v-4.311c0.574,0,1.321,0,2.318,0c4.728,0,5.759-4.898,5.759-4.898
			H32.145z"/>
	</g>
	<polygon fill="#282F3D" points="2.725,281.768 0.001,281.077 72.579,0 73.122,0.135 	"/>
	<path fill="#F9B69B" d="M41.666,179.583c-0.023,0.023-0.041,0.051-0.063,0.074l-2.081-2.08l-10.027-10.101l0,0h-9.525
		l14.796,14.856l3.224,3.221l1.505,1.521c0.001,0,0.001,0.004,0.001,0.004c0.004,0.002,0.006,0.004,0.006,0.004l0.23,0.229
		l0.022-0.021c1.32,1.082,3.267,1.02,4.499-0.213c1.234-1.232,1.294-3.179,0.212-4.5l0.022-0.021l-0.226-0.225
		c-0.004-0.004-0.006-0.008-0.009-0.013c-0.004-0.004-0.009-0.004-0.012-0.008l-0.958-0.974c0.025-0.021,0.053-0.037,0.076-0.062
		c0.469-0.467,0.469-1.228,0-1.692C42.89,179.119,42.135,179.117,41.666,179.583z"/>
	<polygon opacity="0.4" fill="#B78C7D" enable-background="new    " points="31.477,169.561 21.875,169.561 19.825,167.453 
		29.416,167.453 	"/>
	<line fill="none" stroke="#FFFFFF" stroke-width="0.1405" stroke-miterlimit="10" x1="73.122" y1="0" x2="73.122" y2="167.38"/>
</g>
</svg>
