<?xml version="1.0" encoding="utf-8"?>
<!-- Generator: Adobe Illustrator 16.0.0, SVG Export Plug-In . SVG Version: 6.00 Build 0)  -->
<!DOCTYPE svg PUBLIC "-//W3C//DTD SVG 1.1//EN" "http://www.w3.org/Graphics/SVG/1.1/DTD/svg11.dtd">
<svg version="1.1" id="Layer_1" xmlns="http://www.w3.org/2000/svg" xmlns:xlink="http://www.w3.org/1999/xlink" x="0px" y="0px"
	 width="65.818px" height="212.574px" viewBox="0 0 65.818 212.574" enable-background="new 0 0 65.818 212.574"
	 xml:space="preserve">
<g>
	<path fill="#F9B69B" d="M55.49,103.511c0,0.035,0.007,0.065,0.009,0.101h-2.943H31.503v6.727h21.051h4.557h4.218
		c0.002,0,0.004,0.002,0.004,0.002c0.006,0,0.008-0.002,0.008-0.002h0.326v-0.031c1.698-0.168,3.03-1.588,3.03-3.33
		c0-1.744-1.332-3.16-3.03-3.33v-0.031h-0.318c-0.004,0-0.008,0-0.014,0c-0.004,0-0.008,0-0.017,0h-3.44
		c0.002-0.032,0.01-0.063,0.01-0.102c0-0.66-0.537-1.193-1.199-1.193C56.024,102.316,55.49,102.85,55.49,103.511z"/>
	<rect x="35.446" y="93.916" fill="#F9B69B" width="5.396" height="13.586"/>
	<rect x="34.115" y="93.916" opacity="0.4" fill="#B78C7D" enable-background="new    " width="6.729" height="2.107"/>
	<g>
		<g>
			<path fill="#9B5C12" d="M45.016,204.838h-3.709c-1.639-0.4-3.08-1.307-4.148-2.541c-0.812-0.928-1.409-2.047-1.727-3.277v-7.227
				l-0.186-0.039h-5.56v9.133v3.057v0.979v0.981v2.121h19.763C48.831,206.171,47.081,204.838,45.016,204.838z"/>
			<path fill="#33373A" d="M29.69,209.516h5.742v-0.558v-0.931l2.551,1.484h11.713c0-0.521-0.086-1.021-0.243-1.488H29.69v0.935
				V209.516L29.69,209.516z"/>
			<rect x="29.69" y="196.548" opacity="0.4" fill="#9B5C12" enable-background="new    " width="5.771" height="1.832"/>
		</g>
		<g>
			<rect x="26.735" y="113.261" fill="#2C7893" width="8.711" height="83.287"/>
			<path fill="#196377" d="M31.636,150.52v9.791v2.799v1.512c0,0.561,0.451,1.012,1.01,1.012h2.803v-15.109L31.636,150.52
				L31.636,150.52z"/>
		</g>
	</g>
	<g>
		<g>
			<g>
				<path fill="#C17614" d="M31.54,204.838h-3.713c-1.641-0.4-3.079-1.307-4.15-2.541c-0.002,0.125-0.004,0.242-0.004,0.354
					c0,3.063-3.252,3.254-3.252,3.254h-4.212v2.121h19.762C35.348,206.171,33.6,204.838,31.54,204.838z"/>
				<path fill="#C17614" d="M23.673,202.65c0-0.109,0.002-0.229,0.004-0.354c-0.812-0.93-1.409-2.047-1.724-3.277v-7.227
					l-0.187-0.039h-5.56v9.133v3.057v0.979v0.98h4.213C20.421,205.904,23.673,205.714,23.673,202.65z"/>
				<path fill="#33373A" d="M16.209,209.516h5.744v-0.558v-0.931l2.551,1.484h11.711c0-0.521-0.088-1.021-0.244-1.488H16.209v0.935
					V209.516z"/>
			</g>
			<rect x="16.209" y="196.548" opacity="0.4" fill="#9B5C12" enable-background="new    " width="5.772" height="1.832"/>
		</g>
		<rect x="13.271" y="113.261" fill="#2C7893" width="8.711" height="83.287"/>
	</g>
	<path fill="#196377" d="M16.578,164.621v-1.512v-2.799v-9.791h-3.308v15.11h2.299C16.129,165.63,16.578,165.179,16.578,164.621z"/>
	<rect x="17.438" y="68.189" fill="#F9B69B" width="12.527" height="9.928"/>
	<path fill="#FFFFFF" d="M35.296,68.189h-4.783h-0.615H28.61c0,2.619-2.12,4.739-4.737,4.739s-4.738-2.12-4.738-4.739h-1.941h-5.395
		c-3.066,0-5.552,2.483-5.552,5.547v4.067l0,0v16.111h2.146h4.88l0,0h22.174l0,0h5.396v-6.552v-5.771v-7.858
		C40.843,70.673,38.358,68.189,35.296,68.189z"/>
	<polygon fill="#2C7893" points="34.249,78.824 34.249,68.189 31.343,68.189 31.343,78.824 19.133,78.824 19.133,68.189 
		16.223,68.189 16.223,78.824 15.77,93.916 13.271,93.916 13.271,125.923 14.928,125.923 35.446,125.923 35.446,93.916 	"/>
	<path fill="#196377" d="M19.133,93.916v3.078v2.799v1.512c0,0.561,0.451,1.014,1.007,1.014h9.194c0.559,0,1.008-0.453,1.008-1.014
		v-1.512v-2.799v-3.078H19.133z"/>
	<g>
		<path fill="#F9B69B" d="M31.636,42.097l4.813,10.785h-3.651v11.345h-2.879c0,0-1.375,0.172-1.375,1.373c0,0.518,0,0.518,0,2.58
			v2.406h-9.41v-1.545V41.882h12.332L31.636,42.097z"/>
		<circle fill="#2E3D49" cx="29.865" cy="46.168" r="0.505"/>
		<path opacity="0.2" fill="#4C3B15" enable-background="new    " d="M25.406,47.768v9.282c0,0-0.014,1.578,0,2.106
			c0.054,2.058-0.215,5.07,3.182,5.07c2.621,0,4.209,0,4.209,0V52.882h-1.978c0,0-0.448,0-1.977,0c-1.117,0-1.633-0.56-1.633-1.635
			c0-1.761,0-7.132,0-7.132h-1.808v3.652H25.406z"/>
		<path fill="#F9B69B" d="M32.796,54.693c0,0-0.666,0-1.912,0c-0.439,0-1.332,0.041-1.332,1.158c0,0.688,0,0.865,0,0.865h3.244
			V54.693z"/>
		<path fill="#CE857C" d="M31.074,55.736c-0.192,0-0.352-0.156-0.352-0.35h-0.516c0,0.477,0.387,0.866,0.864,0.866l0,0h1.722v-0.519
			L31.074,55.736L31.074,55.736z"/>
		<path fill="#66301D" d="M18.565,38.527v14.737c0,0,0,0,1.334,0c4.038,0,3.822-3.823,3.822-3.823v-1.709
			c-0.008,0-0.016,0.004-0.025,0.004c-0.937,0-1.696-0.76-1.696-1.695c0-0.939,0.762-1.699,1.696-1.699
			c0.927,0,1.676,0.743,1.693,1.662h0.003v0.037v1.695h1.812v-4.312c0.573,0,1.321,0,2.317,0c4.729,0,5.76-4.897,5.76-4.897H18.565
			L18.565,38.527z"/>
	</g>
	<polygon fill="#282F3D" points="5.145,208.23 2.421,207.541 56.083,-0.233 57.042,0.152 	"/>
	<path fill="#F9B69B" d="M28.087,106.046c-0.023,0.022-0.041,0.051-0.062,0.074l-2.082-2.08L15.916,93.938l0,0H6.39l14.796,14.855
		l3.225,3.222l1.505,1.521c0.001,0,0.001,0.005,0.001,0.005c0.004,0.002,0.006,0.004,0.006,0.004l0.229,0.229l0.022-0.021
		c1.321,1.082,3.268,1.02,4.499-0.213c1.233-1.232,1.295-3.18,0.213-4.5l0.021-0.021l-0.225-0.225
		c-0.006-0.004-0.008-0.008-0.01-0.014c-0.004-0.004-0.01-0.004-0.012-0.008l-0.959-0.976c0.024-0.021,0.053-0.037,0.075-0.062
		c0.47-0.467,0.47-1.229,0-1.692C29.311,105.582,28.555,105.58,28.087,106.046z"/>
	<polygon opacity="0.4" fill="#B78C7D" enable-background="new    " points="17.897,96.023 8.295,96.023 6.245,93.916 
		15.836,93.916 	"/>
	
		<line fill="none" stroke="#FFFFFF" stroke-width="0.1405" stroke-miterlimit="10" x1="57.042" y1="1.113" x2="57.042" y2="91.494"/>
</g>
</svg>
