<?xml version="1.0" encoding="utf-8"?>
<!-- Generator: Adobe Illustrator 16.0.0, SVG Export Plug-In . SVG Version: 6.00 Build 0)  -->
<!DOCTYPE svg PUBLIC "-//W3C//DTD SVG 1.1//EN" "http://www.w3.org/Graphics/SVG/1.1/DTD/svg11.dtd">
<svg version="1.1" id="Layer_1" xmlns="http://www.w3.org/2000/svg" xmlns:xlink="http://www.w3.org/1999/xlink" x="0px" y="0px"
	 width="79.404px" height="285.878px" viewBox="0 0 79.404 285.878" enable-background="new 0 0 79.404 285.878"
	 xml:space="preserve">
<g>
	<path fill="#F9B69B" d="M69.07,177.049c0,0.035,0.006,0.066,0.008,0.1h-2.942H45.082v6.725h21.052h4.555h4.217
		c0.002,0,0.004,0.002,0.004,0.002c0.006,0,0.008-0.002,0.008-0.002h0.326v-0.031c1.699-0.168,3.031-1.588,3.031-3.332
		c0-1.743-1.332-3.159-3.031-3.329v-0.031h-0.318c-0.005,0-0.009,0-0.015,0c-0.004,0-0.008,0-0.014,0h-3.443
		c0.002-0.032,0.01-0.063,0.01-0.101c0-0.662-0.536-1.194-1.198-1.194C69.605,175.854,69.07,176.387,69.07,177.049z"/>
	<rect x="49.027" y="167.453" fill="#F9B69B" width="5.396" height="13.587"/>
	<rect x="47.695" y="167.453" opacity="0.4" fill="#B78C7D" enable-background="new    " width="6.729" height="2.107"/>
	<rect x="31.019" y="141.727" fill="#F9B69B" width="12.527" height="9.927"/>
	<path fill="#FFFFFF" d="M48.875,141.727h-4.783h-0.615h-1.288c0,2.618-2.12,4.739-4.738,4.739c-2.617,0-4.738-2.121-4.738-4.739
		h-1.94h-5.396c-3.065,0-5.552,2.483-5.552,5.546v4.068l0,0v16.111h2.147h4.88l0,0h22.174l0,0h5.396v-6.55v-5.771v-7.859
		C54.423,144.21,51.939,141.727,48.875,141.727z"/>
	<polygon fill="#2C7893" points="47.828,152.361 47.828,141.727 44.923,141.727 44.923,152.361 32.712,152.361 32.712,141.727 
		29.804,141.727 29.804,152.361 29.351,167.453 26.852,167.453 26.852,188.459 28.508,188.459 49.027,188.459 49.027,167.453 	"/>
	<path fill="#196377" d="M32.712,167.453v3.078v2.8v1.512c0,0.559,0.451,1.012,1.008,1.012h9.193c0.559,0,1.008-0.453,1.008-1.012
		v-1.512v-2.8v-3.078H32.712z"/>
	<g>
		<path fill="#F9B69B" d="M45.216,115.634l4.812,10.785h-3.652v11.345h-2.878c0,0-1.375,0.171-1.375,1.373c0,0.517,0,0.517,0,2.58
			v2.406h-9.41v-1.546v-27.158h12.331L45.216,115.634z"/>
		<circle fill="#2E3D49" cx="43.445" cy="119.705" r="0.505"/>
		<path opacity="0.2" fill="#4C3B15" enable-background="new    " d="M38.986,121.304v9.283c0,0-0.013,1.578,0,2.106
			c0.053,2.058-0.214,5.07,3.18,5.07c2.622,0,4.21,0,4.21,0v-11.344H44.4c0,0-0.45,0-1.977,0c-1.117,0-1.633-0.559-1.633-1.635
			c0-1.761,0-7.132,0-7.132h-1.806L38.986,121.304L38.986,121.304z"/>
		<path fill="#F9B69B" d="M46.375,128.231c0,0-0.667,0-1.913,0c-0.438,0-1.33,0.041-1.33,1.158c0,0.688,0,0.865,0,0.865h3.243
			V128.231z"/>
		<path fill="#CE857C" d="M44.655,129.273c-0.194,0-0.351-0.156-0.351-0.349h-0.516c0,0.477,0.387,0.866,0.864,0.866l0,0h1.722
			v-0.518L44.655,129.273L44.655,129.273z"/>
		<path fill="#66301D" d="M32.146,112.064v14.738c0,0,0,0,1.334,0c4.038,0,3.822-3.823,3.822-3.823v-1.71
			c-0.009,0-0.017,0.004-0.025,0.004c-0.937,0-1.698-0.76-1.698-1.695c0-0.939,0.763-1.699,1.698-1.699
			c0.925,0,1.674,0.743,1.693,1.662h0.003v0.037v1.695h1.812v-4.311c0.575,0,1.322,0,2.319,0c4.727,0,5.758-4.898,5.758-4.898
			H32.146z"/>
	</g>
	<polygon fill="#282F3D" points="2.726,281.768 0,281.077 72.578,0 73.121,0.135 	"/>
	<path fill="#F9B69B" d="M41.665,179.584c-0.022,0.022-0.041,0.051-0.062,0.074l-2.081-2.08l-10.028-10.102l0,0h-9.524
		l14.796,14.857l3.223,3.221l1.505,1.52c0.001,0,0.001,0.004,0.001,0.004c0.004,0.002,0.006,0.004,0.006,0.004l0.231,0.23
		l0.021-0.021c1.32,1.082,3.268,1.021,4.499-0.213c1.234-1.232,1.294-3.178,0.212-4.5l0.022-0.021l-0.225-0.226
		c-0.004-0.004-0.007-0.008-0.01-0.012c-0.004-0.004-0.009-0.004-0.012-0.008l-0.958-0.973c0.026-0.021,0.053-0.037,0.077-0.062
		c0.468-0.467,0.468-1.227,0-1.693C42.891,179.12,42.135,179.118,41.665,179.584z"/>
	<polygon opacity="0.4" fill="#B78C7D" enable-background="new    " points="31.478,169.561 21.874,169.561 19.824,167.453 
		29.415,167.453 	"/>
	<line fill="none" stroke="#FFFFFF" stroke-width="0.1405" stroke-miterlimit="10" x1="73.121" y1="0" x2="73.121" y2="167.38"/>
	<path fill="#2D7994" d="M26.847,191.234c0,4.461,3.573,8.131,8.043,8.131h6.125c4.471,0,8.014-3.617,8.014-8.08v-3.061
		l-22.182-0.052V191.234z"/>
	<g>
		<path fill="#9B5E26" d="M73.982,275.017l-3.654,0.647c-1.688-0.111-3.262-0.75-4.533-1.776c-0.961-0.771-1.745-1.769-2.27-2.927
			l-1.264-7.104l-0.188-0.006l-5.475,0.967l1.596,8.983l0.533,3.007l0.17,0.963l0.174,0.965l0.369,2.091l19.463-3.443
			C77.966,275.668,76.013,274.656,73.982,275.017"/>
		<path fill="#34383A" d="M59.7,282.292l5.656-1l-0.098-0.552l-0.162-0.909l2.771,1.016l11.537-2.043
			c-0.092-0.512-0.266-0.988-0.502-1.42l-19.463,3.443l0.162,0.916L59.7,282.292z"/>
		<g opacity="0.4">
			<g>
				<g>
					<g>
						<defs>
							
								<rect id="SVGID_1_" x="57.57" y="269.003" transform="matrix(0.8655 -0.5008 0.5008 0.8655 -127.0589 66.5744)" width="5.773" height="1.83"/>
						</defs>
						<clipPath id="SVGID_2_">
							<use xlink:href="#SVGID_1_"  overflow="visible"/>
						</clipPath>
						
							<rect x="57.563" y="269.005" transform="matrix(0.9848 -0.1739 0.1739 0.9848 -46.0205 14.626)" clip-path="url(#SVGID_2_)" fill="#9B5E26" width="5.773" height="1.826"/>
					</g>
				</g>
			</g>
		</g>
		<polygon fill="#2D7994" points="63.109,268.534 54.527,270.049 40.459,190.791 49.039,189.272 		"/>
		<path fill="#1B6478" d="M51.32,223.921l1.709,9.627l0.486,2.758l0.266,1.486c0.098,0.547,0.623,0.914,1.17,0.817l2.76-0.489
			l-2.639-14.861L51.32,223.921z"/>
	</g>
	<g>
		<path fill="#C0772A" d="M30.21,280.428l-3.659-0.618c-1.549-0.67-2.819-1.802-3.669-3.192c-0.021,0.12-0.044,0.239-0.062,0.346
			c-0.513,3.02-3.752,2.658-3.752,2.658l-4.15-0.701l-0.354,2.09l19.489,3.305C33.743,282.383,32.243,280.775,30.21,280.428"/>
		<path fill="#C0772A" d="M22.822,276.961c0.02-0.104,0.037-0.225,0.062-0.346c-0.644-1.055-1.046-2.254-1.148-3.52l1.209-7.115
			l-0.176-0.07l-5.482-0.93l-1.527,8.992l-0.514,3.014l-0.164,0.963l-0.163,0.969l4.151,0.701
			C19.068,279.622,22.307,279.98,22.822,276.961"/>
		<path fill="#34383A" d="M14.312,282.476l5.663,0.959l0.093-0.545l0.155-0.921l2.267,1.89l11.551,1.963
			c0.087-0.514,0.087-1.021,0.01-1.508l-19.489-3.306l-0.156,0.916L14.312,282.476z"/>
		<g opacity="0.4">
			<g>
				<g>
					<g>
						<defs>
							
								<rect id="SVGID_3_" x="16.289" y="270.165" transform="matrix(0.8756 0.4831 -0.4831 0.8756 133.3449 24.4676)" width="5.775" height="1.831"/>
						</defs>
						<clipPath id="SVGID_4_">
							<use xlink:href="#SVGID_3_"  overflow="visible"/>
						</clipPath>
						
							<rect x="16.29" y="270.172" transform="matrix(0.9859 0.1674 -0.1674 0.9859 45.6544 0.6154)" clip-path="url(#SVGID_4_)" fill="#9B5E26" width="5.775" height="1.828"/>
					</g>
				</g>
			</g>
		</g>
		<polygon fill="#2D7994" points="22.175,270.67 13.585,269.211 27.075,189.852 35.665,191.309 		"/>
		<path fill="#1B6478" d="M22.191,238.324l0.254-1.488l0.47-2.758l1.64-9.643l-3.263-0.553l-2.529,14.881l2.268,0.383
			C21.575,239.242,22.099,238.873,22.191,238.324"/>
	</g>
</g>
</svg>
