<?xml version="1.0" encoding="utf-8"?>
<!-- Generator: Adobe Illustrator 16.0.0, SVG Export Plug-In . SVG Version: 6.00 Build 0)  -->
<!DOCTYPE svg PUBLIC "-//W3C//DTD SVG 1.1//EN" "http://www.w3.org/Graphics/SVG/1.1/DTD/svg11.dtd">
<svg version="1.1" id="Layer_1" xmlns="http://www.w3.org/2000/svg" xmlns:xlink="http://www.w3.org/1999/xlink" x="0px" y="0px"
	 width="65.818px" height="212.574px" viewBox="0 0 65.818 212.574" enable-background="new 0 0 65.818 212.574"
	 xml:space="preserve">
<g>
	<path fill="#F9B69B" d="M55.485,103.771c0,0.035,0.007,0.065,0.009,0.101h-2.941H31.497v6.727h21.052h4.556h4.218
		c0.002,0,0.004,0.002,0.004,0.002c0.006,0,0.008-0.002,0.008-0.002h0.326v-0.031c1.698-0.168,3.03-1.588,3.03-3.332
		c0-1.742-1.332-3.158-3.03-3.328v-0.031h-0.318c-0.005,0-0.009,0-0.015,0c-0.004,0-0.009,0-0.015,0H57.87
		c0.002-0.032,0.01-0.063,0.01-0.102c0-0.662-0.535-1.193-1.197-1.193C56.02,102.577,55.485,103.11,55.485,103.771z"/>
	<rect x="35.442" y="94.177" fill="#F9B69B" width="5.396" height="13.588"/>
	<rect x="34.11" y="94.177" opacity="0.4" fill="#B78C7D" enable-background="new    " width="6.729" height="2.107"/>
	<rect x="17.434" y="68.45" fill="#F9B69B" width="12.526" height="9.928"/>
	<path fill="#FFFFFF" d="M35.29,68.45h-4.783h-0.614h-1.288c0,2.619-2.12,4.739-4.737,4.739s-4.738-2.12-4.738-4.739H17.19h-5.396
		c-3.064,0-5.552,2.483-5.552,5.547v4.067l0,0v16.111h2.146h4.88l0,0h22.174l0,0h5.396v-6.552v-5.771v-7.858
		C40.838,70.934,38.354,68.45,35.29,68.45z"/>
	<polygon fill="#2C7893" points="34.243,79.085 34.243,68.45 31.338,68.45 31.338,79.085 19.127,79.085 19.127,68.45 16.219,68.45 
		16.219,79.085 15.766,94.177 13.267,94.177 13.267,115.182 14.923,115.182 35.442,115.182 35.442,94.177 	"/>
	<path fill="#196377" d="M19.127,94.177v3.078v2.801v1.512c0,0.559,0.451,1.012,1.009,1.012h9.192c0.56,0,1.008-0.453,1.008-1.012
		v-1.512v-2.801v-3.078H19.127z"/>
	<g>
		<path fill="#F9B69B" d="M31.631,42.357l4.812,10.785h-3.651v11.345h-2.878c0,0-1.375,0.172-1.375,1.373c0,0.518,0,0.518,0,2.58
			v2.406h-9.41v-1.545V42.144h12.331L31.631,42.357z"/>
		<circle fill="#2E3D49" cx="29.86" cy="46.429" r="0.505"/>
		<path opacity="0.2" fill="#4C3B15" enable-background="new    " d="M25.401,48.028v9.282c0,0-0.013,1.578,0,2.106
			c0.054,2.058-0.214,5.07,3.181,5.07c2.622,0,4.21,0,4.21,0V53.143h-1.977c0,0-0.449,0-1.978,0c-1.116,0-1.633-0.56-1.633-1.635
			c0-1.761,0-7.132,0-7.132h-1.807L25.401,48.028L25.401,48.028z"/>
		<path fill="#F9B69B" d="M32.79,54.954c0,0-0.667,0-1.913,0c-0.438,0-1.33,0.041-1.33,1.158c0,0.688,0,0.865,0,0.865h3.243V54.954z
			"/>
		<path fill="#CE857C" d="M31.07,55.997c-0.193,0-0.351-0.156-0.351-0.35h-0.517c0,0.477,0.387,0.866,0.863,0.866l0,0h1.723v-0.519
			L31.07,55.997L31.07,55.997z"/>
		<path fill="#66301D" d="M18.561,38.788v14.737c0,0,0,0,1.334,0c4.038,0,3.821-3.823,3.821-3.823v-1.709
			c-0.009,0-0.017,0.004-0.024,0.004c-0.938,0-1.697-0.76-1.697-1.695c0-0.939,0.763-1.699,1.697-1.699
			c0.926,0,1.675,0.743,1.693,1.662h0.003v0.037v1.695H27.2v-4.312c0.574,0,1.321,0,2.318,0c4.728,0,5.758-4.897,5.758-4.897H18.561
			L18.561,38.788z"/>
	</g>
	<path fill="#2D7994" d="M13.262,117.958c0,4.461,3.572,8.131,8.043,8.131h6.125c4.471,0,8.014-3.617,8.014-8.08v-3.061
		l-22.182-0.054V117.958z"/>
	<g>
		<path fill="#9B5E26" d="M60.397,201.741l-3.653,0.646c-1.688-0.11-3.263-0.75-4.533-1.774c-0.961-0.771-1.745-1.771-2.271-2.929
			l-1.264-7.104l-0.188-0.006l-5.476,0.967l1.596,8.982l0.533,3.008l0.17,0.963l0.174,0.965l0.369,2.093l19.463-3.443
			C64.381,202.391,62.428,201.38,60.397,201.741"/>
		<path fill="#34383A" d="M46.115,209.016l5.655-1l-0.099-0.554l-0.161-0.907l2.771,1.017l11.536-2.043
			c-0.092-0.513-0.266-0.988-0.502-1.421l-19.463,3.443l0.162,0.916L46.115,209.016z"/>
		<g opacity="0.4">
			<g>
				<g>
					<g>
						<g>
							<g>
								<defs>
									
										<rect id="SVGID_1_" x="43.997" y="195.73" transform="matrix(-0.6418 0.7669 -0.7669 -0.6418 227.7722 286.901)" width="5.771" height="1.83"/>
								</defs>
								<clipPath id="SVGID_2_">
									<use xlink:href="#SVGID_1_"  overflow="visible"/>
								</clipPath>
								
									<rect x="43.977" y="195.728" transform="matrix(0.9848 -0.1739 0.1739 0.9848 -33.4784 11.1443)" clip-path="url(#SVGID_2_)" fill="#9B5E26" width="5.773" height="1.826"/>
							</g>
						</g>
					</g>
				</g>
			</g>
		</g>
		<polygon fill="#2D7994" points="49.524,195.259 40.942,196.771 26.874,117.515 35.454,115.995 		"/>
		<path fill="#1B6478" d="M37.735,150.645l1.709,9.627l0.486,2.759l0.267,1.485c0.098,0.547,0.622,0.914,1.17,0.815l2.76-0.487
			l-2.64-14.861L37.735,150.645z"/>
	</g>
	<g>
		<path fill="#C0772A" d="M16.625,207.151l-3.659-0.617c-1.549-0.67-2.818-1.804-3.669-3.191c-0.021,0.119-0.044,0.238-0.062,0.346
			c-0.513,3.02-3.752,2.658-3.752,2.658l-4.149-0.701l-0.354,2.09l19.489,3.305C20.158,209.105,18.658,207.499,16.625,207.151"/>
		<path fill="#C0772A" d="M9.237,203.684c0.021-0.104,0.037-0.226,0.062-0.347c-0.644-1.055-1.046-2.254-1.147-3.52l1.209-7.115
			l-0.176-0.069l-5.481-0.931l-1.527,8.992l-0.514,3.014l-0.164,0.964l-0.163,0.969l4.15,0.701
			C5.483,206.347,8.722,206.704,9.237,203.684"/>
		<path fill="#34383A" d="M0.727,209.2l5.663,0.959l0.093-0.545l0.155-0.922l2.268,1.891l11.551,1.963
			c0.087-0.514,0.087-1.021,0.01-1.508L0.978,207.73l-0.155,0.916L0.727,209.2z"/>
		<g opacity="0.4">
			<g>
				<g>
					<g>
						<g>
							<g>
								<defs>
									
										<rect id="SVGID_3_" x="2.696" y="196.903" transform="matrix(-0.6669 -0.7452 0.7452 -0.6669 -138.1001 333.9)" width="5.776" height="1.831"/>
								</defs>
								<clipPath id="SVGID_4_">
									<use xlink:href="#SVGID_3_"  overflow="visible"/>
								</clipPath>
								
									<rect x="2.706" y="196.896" transform="matrix(0.9859 0.1674 -0.1674 0.9859 33.1952 1.8554)" clip-path="url(#SVGID_4_)" fill="#9B5E26" width="5.775" height="1.828"/>
							</g>
						</g>
					</g>
				</g>
			</g>
		</g>
		<polygon fill="#2D7994" points="8.59,197.393 0,195.934 13.49,116.575 22.08,118.032 		"/>
		<path fill="#1B6478" d="M8.606,165.048l0.254-1.488l0.471-2.758l1.641-9.643l-3.264-0.554l-2.528,14.882l2.269,0.383
			C7.99,165.966,8.514,165.597,8.606,165.048"/>
	</g>
	<polygon fill="#282F3D" points="5.139,208.491 2.415,207.803 56.076,0.029 57.036,0.413 	"/>
	
		<line fill="none" stroke="#FFFFFF" stroke-width="0.1405" stroke-miterlimit="10" x1="57.036" y1="1.375" x2="57.036" y2="91.756"/>
	<path fill="#F9B69B" d="M28.08,106.307c-0.021,0.022-0.041,0.051-0.062,0.074l-2.081-2.08L15.909,94.198l0,0H6.385l14.796,14.857
		l3.224,3.221l1.505,1.52c0.001,0,0.001,0.005,0.001,0.005c0.004,0.002,0.006,0.004,0.006,0.004l0.23,0.229l0.021-0.021
		c1.32,1.082,3.269,1.021,4.499-0.213c1.233-1.231,1.294-3.179,0.212-4.5l0.021-0.021l-0.225-0.227
		c-0.005-0.004-0.008-0.008-0.011-0.014c-0.004-0.004-0.009-0.004-0.013-0.008l-0.958-0.974c0.026-0.021,0.054-0.037,0.077-0.062
		c0.469-0.467,0.469-1.229,0-1.692C29.306,105.845,28.55,105.843,28.08,106.307z"/>
	<polygon opacity="0.4" fill="#B78C7D" enable-background="new    " points="17.893,96.284 8.289,96.284 6.24,94.177 15.83,94.177 	
		"/>
</g>
</svg>
