<?xml version="1.0" encoding="utf-8"?>
<!-- Generator: Adobe Illustrator 16.0.0, SVG Export Plug-In . SVG Version: 6.00 Build 0)  -->
<!DOCTYPE svg PUBLIC "-//W3C//DTD SVG 1.1//EN" "http://www.w3.org/Graphics/SVG/1.1/DTD/svg11.dtd">
<svg version="1.1" id="Layer_1" xmlns="http://www.w3.org/2000/svg" xmlns:xlink="http://www.w3.org/1999/xlink" x="0px" y="0px"
	 width="79.404px" height="285.878px" viewBox="0 0 79.404 285.878" enable-background="new 0 0 79.404 285.878"
	 xml:space="preserve">
<path fill="#F9B69B" d="M69.07,177.049c0,0.035,0.006,0.066,0.008,0.1h-2.942H45.082v6.725h21.052h4.555h4.217
	c0.002,0,0.004,0.002,0.004,0.002c0.006,0,0.008-0.002,0.008-0.002h0.326v-0.031c1.699-0.168,3.031-1.588,3.031-3.332
	c0-1.743-1.332-3.159-3.031-3.329v-0.031h-0.318c-0.005,0-0.009,0-0.015,0c-0.004,0-0.008,0-0.014,0h-3.443
	c0.002-0.032,0.01-0.063,0.01-0.101c0-0.662-0.536-1.194-1.198-1.194C69.605,175.854,69.07,176.387,69.07,177.049z"/>
<rect x="49.027" y="167.453" fill="#F9B69B" width="5.396" height="13.587"/>
<rect x="47.695" y="167.453" opacity="0.4" fill="#B78C7D" enable-background="new    " width="6.729" height="2.107"/>
<rect x="31.019" y="141.727" fill="#F9B69B" width="12.527" height="9.927"/>
<path fill="#FFFFFF" d="M48.875,141.727h-4.783h-0.615h-1.288c0,2.618-2.12,4.739-4.738,4.739c-2.617,0-4.738-2.121-4.738-4.739
	h-1.94h-5.396c-3.065,0-5.552,2.483-5.552,5.546v4.068l0,0v16.111h2.147h4.88l0,0h22.174l0,0h5.396v-6.55v-5.771v-7.859
	C54.423,144.21,51.939,141.727,48.875,141.727z"/>
<polygon fill="#2C7893" points="47.828,152.361 47.828,141.727 44.923,141.727 44.923,152.361 32.712,152.361 32.712,141.727 
	29.804,141.727 29.804,152.361 29.351,167.453 26.852,167.453 26.852,188.459 28.508,188.459 49.027,188.459 49.027,167.453 "/>
<path fill="#196377" d="M32.712,167.453v3.078v2.8v1.512c0,0.559,0.451,1.012,1.008,1.012h9.193c0.559,0,1.008-0.453,1.008-1.012
	v-1.512v-2.8v-3.078H32.712z"/>
<g>
	<path fill="#F9B69B" d="M45.216,115.634l4.812,10.785h-3.652v11.345h-2.878c0,0-1.375,0.171-1.375,1.373c0,0.517,0,0.517,0,2.58
		v2.406h-9.41v-1.546v-27.158h12.331L45.216,115.634z"/>
	<circle fill="#2E3D49" cx="43.445" cy="119.705" r="0.505"/>
	<path opacity="0.2" fill="#4C3B15" enable-background="new    " d="M38.986,121.304v9.283c0,0-0.013,1.578,0,2.106
		c0.053,2.058-0.214,5.07,3.18,5.07c2.622,0,4.21,0,4.21,0v-11.344H44.4c0,0-0.45,0-1.977,0c-1.117,0-1.633-0.559-1.633-1.635
		c0-1.761,0-7.132,0-7.132h-1.806L38.986,121.304L38.986,121.304z"/>
	<path fill="#F9B69B" d="M46.375,128.231c0,0-0.667,0-1.913,0c-0.438,0-1.33,0.041-1.33,1.158c0,0.688,0,0.865,0,0.865h3.243
		V128.231z"/>
	<path fill="#CE857C" d="M44.655,129.273c-0.194,0-0.351-0.156-0.351-0.349h-0.516c0,0.477,0.387,0.866,0.864,0.866l0,0h1.722
		v-0.518L44.655,129.273L44.655,129.273z"/>
	<path fill="#66301D" d="M32.146,112.064v14.738c0,0,0,0,1.334,0c4.038,0,3.822-3.823,3.822-3.823v-1.71
		c-0.009,0-0.017,0.004-0.025,0.004c-0.937,0-1.698-0.76-1.698-1.695c0-0.939,0.763-1.699,1.698-1.699
		c0.925,0,1.674,0.743,1.693,1.662h0.003v0.037v1.695h1.812v-4.311c0.575,0,1.322,0,2.319,0c4.727,0,5.758-4.898,5.758-4.898H32.146
		z"/>
</g>
<polygon fill="#282F3D" points="2.726,281.768 0,281.077 72.578,0 73.121,0.135 "/>
<path fill="#F9B69B" d="M41.665,179.584c-0.022,0.022-0.041,0.051-0.062,0.074l-2.081-2.08l-10.028-10.102l0,0h-9.524l14.796,14.857
	l3.223,3.221l1.505,1.52c0.001,0,0.001,0.004,0.001,0.004c0.004,0.002,0.006,0.004,0.006,0.004l0.231,0.23l0.021-0.021
	c1.32,1.082,3.268,1.021,4.499-0.213c1.234-1.232,1.294-3.178,0.212-4.5l0.022-0.021l-0.225-0.226
	c-0.004-0.004-0.007-0.008-0.01-0.012c-0.004-0.004-0.009-0.004-0.012-0.008l-0.958-0.973c0.026-0.021,0.053-0.037,0.077-0.062
	c0.468-0.467,0.468-1.227,0-1.693C42.891,179.12,42.135,179.118,41.665,179.584z"/>
<polygon opacity="0.4" fill="#B78C7D" enable-background="new    " points="31.478,169.561 21.874,169.561 19.824,167.453 
	29.415,167.453 "/>
<line fill="none" stroke="#FFFFFF" stroke-width="0.1405" stroke-miterlimit="10" x1="73.121" y1="0" x2="73.121" y2="167.38"/>
<path fill="#2D7994" d="M26.847,191.234c0,4.461,3.573,8.131,8.043,8.131h6.125c4.471,0,8.014-3.617,8.014-8.08v-3.061
	l-22.182-0.052V191.234z"/>
<g>
	<path fill="#9B5E26" d="M39.763,279.733l-3.623-0.799c-1.515-0.742-2.729-1.935-3.513-3.365c-0.592-1.082-0.936-2.303-0.979-3.571
		l1.553-7.048l-0.172-0.081l-5.431-1.19l-1.961,8.909l-0.655,2.981l-0.212,0.957l-0.21,0.957l-0.457,2.069l19.307,4.239
		C43.199,281.85,41.78,280.173,39.763,279.733"/>
	<path fill="#34383A" d="M23.785,281.007l5.609,1.231l0.12-0.545l0.199-0.905l2.173,1.998l11.443,2.511
		c0.111-0.507,0.136-1.016,0.08-1.506l-19.306-4.239l-0.198,0.909L23.785,281.007z"/>
	<g opacity="0.4">
		<g>
			<g>
				<defs>
					
						<rect id="SVGID_1_" x="26.306" y="268.95" transform="matrix(0.908 0.419 -0.419 0.908 115.7555 12.5979)" width="5.773" height="1.834"/>
				</defs>
				<clipPath id="SVGID_2_">
					<use xlink:href="#SVGID_1_"  overflow="visible"/>
				</clipPath>
				
					<rect x="26.307" y="268.95" transform="matrix(-0.9767 -0.2145 0.2145 -0.9767 -0.1767 539.7113)" clip-path="url(#SVGID_2_)" fill="#9B5E26" width="5.773" height="1.831"/>
			</g>
		</g>
	</g>
	<polygon fill="#2D7994" points="33.545,222.932 23.685,267.723 32.194,269.589 37.987,243.235 	"/>
	<polygon fill="#2D7994" points="38.26,201.514 40.992,189.103 48.998,190.861 49.043,192.933 42.707,221.756 	"/>
</g>
<g>
	<path fill="#C0772A" d="M63.267,273.809l-3.627,0.785c-1.687-0.043-3.289-0.621-4.597-1.597c0.023,0.123,0.047,0.237,0.07,0.345
		c0.651,2.993-2.485,3.867-2.485,3.867l-4.117,0.896l0.451,2.068l19.315-4.195C67.276,274.3,65.28,273.371,63.267,273.809"/>
	<path fill="#C0772A" d="M55.114,273.342c-0.023-0.107-0.047-0.222-0.072-0.345c-0.988-0.736-1.812-1.7-2.381-2.835l-1.537-7.055
		l-0.189,0.002l-5.434,1.18l1.943,8.916l0.649,2.98l0.209,0.959l0.208,0.961l4.117-0.896
		C52.627,277.21,55.766,276.335,55.114,273.342"/>
	<path fill="#34383A" d="M49.28,281.628l5.613-1.219l-0.117-0.546l-0.197-0.903l2.808,0.909l11.448-2.488
		c-0.111-0.509-0.303-0.979-0.555-1.402l-19.316,4.196l0.199,0.91L49.28,281.628z"/>
	<g opacity="0.4">
		<g>
			<g>
				<defs>
					
						<rect id="SVGID_3_" x="46.637" y="268.343" transform="matrix(0.9098 -0.4152 0.4152 0.9098 -107.3138 44.8608)" width="5.777" height="1.832"/>
				</defs>
				<clipPath id="SVGID_4_">
					<use xlink:href="#SVGID_3_"  overflow="visible"/>
				</clipPath>
				
					<rect x="46.646" y="268.345" transform="matrix(-0.9772 0.2123 -0.2123 -0.9772 155.0896 521.8697)" clip-path="url(#SVGID_4_)" fill="#9B5E26" width="5.774" height="1.828"/>
			</g>
		</g>
	</g>
	<polygon fill="#2D7994" points="52.478,267.764 43.964,269.612 27.448,193.807 27.323,190.853 35.341,189.107 	"/>
	<path fill="#1B6478" d="M40.094,237.729l-0.322-1.478l-0.596-2.729l-2.08-9.559l-2.938,0.705l3.213,14.686l1.949-0.424
		C39.865,238.811,40.212,238.274,40.094,237.729"/>
</g>
</svg>
