<?xml version="1.0" encoding="utf-8"?>
<!-- Generator: Adobe Illustrator 16.0.0, SVG Export Plug-In . SVG Version: 6.00 Build 0)  -->
<!DOCTYPE svg PUBLIC "-//W3C//DTD SVG 1.1//EN" "http://www.w3.org/Graphics/SVG/1.1/DTD/svg11.dtd">
<svg version="1.1" id="Layer_1" xmlns="http://www.w3.org/2000/svg" xmlns:xlink="http://www.w3.org/1999/xlink" x="0px" y="0px"
	 width="65.819px" height="212.574px" viewBox="13.585 73.305 65.819 212.574"
	 enable-background="new 13.585 73.305 65.819 212.574" xml:space="preserve">
<g>
	<path fill="#F9B69B" d="M69.036,177.048c0,0.035,0.006,0.066,0.008,0.101h-2.941H45.048v6.726h21.052h4.556h4.217
		c0.002,0,0.004,0.002,0.004,0.002c0.006,0,0.008-0.002,0.008-0.002h0.326v-0.031c1.699-0.168,3.031-1.588,3.031-3.332
		c0-1.743-1.332-3.159-3.031-3.329v-0.031h-0.318c-0.005,0-0.009,0-0.015,0c-0.004,0-0.008,0-0.014,0H71.42
		c0.002-0.032,0.01-0.063,0.01-0.101c0-0.662-0.535-1.194-1.197-1.194C69.571,175.854,69.036,176.387,69.036,177.048z"/>
	<rect x="48.993" y="167.453" fill="#F9B69B" width="5.396" height="13.588"/>
	<rect x="47.661" y="167.453" opacity="0.4" fill="#B78C7D" enable-background="new    " width="6.729" height="2.107"/>
	<rect x="30.985" y="141.727" fill="#F9B69B" width="12.526" height="9.927"/>
	<path fill="#FFFFFF" d="M48.841,141.727h-4.783h-0.614h-1.288c0,2.618-2.12,4.739-4.738,4.739c-2.617,0-4.738-2.121-4.738-4.739
		h-1.939h-5.396c-3.064,0-5.552,2.483-5.552,5.546v4.068l0,0v16.111h2.147h4.88l0,0h22.174l0,0h5.396v-6.551v-5.771v-7.858
		C54.388,144.21,51.905,141.727,48.841,141.727z"/>
	<polygon fill="#2C7893" points="47.794,152.361 47.794,141.727 44.888,141.727 44.888,152.361 32.677,152.361 32.677,141.727 
		29.77,141.727 29.77,152.361 29.317,167.453 26.818,167.453 26.818,188.458 28.473,188.458 48.993,188.458 48.993,167.453 	"/>
	<path fill="#196377" d="M32.677,167.453v3.078v2.801v1.512c0,0.559,0.451,1.012,1.009,1.012h9.192c0.56,0,1.008-0.453,1.008-1.012
		v-1.512v-2.801v-3.078H32.677z"/>
	<g>
		<path fill="#F9B69B" d="M45.181,115.634l4.812,10.785h-3.652v11.345h-2.878c0,0-1.375,0.171-1.375,1.373c0,0.517,0,0.517,0,2.58
			v2.406h-9.41v-1.545v-27.158H45.01L45.181,115.634z"/>
		<circle fill="#2E3D49" cx="43.411" cy="119.705" r="0.505"/>
		<path opacity="0.2" fill="#4C3B15" enable-background="new    " d="M38.952,121.304v9.283c0,0-0.013,1.578,0,2.106
			c0.053,2.058-0.214,5.07,3.18,5.07c2.622,0,4.21,0,4.21,0v-11.344h-1.976c0,0-0.45,0-1.978,0c-1.116,0-1.633-0.559-1.633-1.635
			c0-1.761,0-7.132,0-7.132H38.95L38.952,121.304L38.952,121.304z"/>
		<path fill="#F9B69B" d="M46.341,128.231c0,0-0.667,0-1.913,0c-0.438,0-1.33,0.041-1.33,1.158c0,0.688,0,0.865,0,0.865h3.243
			V128.231z"/>
		<path fill="#CE857C" d="M44.621,129.273c-0.194,0-0.351-0.156-0.351-0.349h-0.517c0,0.477,0.387,0.866,0.864,0.866l0,0h1.722
			v-0.518L44.621,129.273L44.621,129.273z"/>
		<path fill="#66301D" d="M32.112,112.064v14.738c0,0,0,0,1.334,0c4.038,0,3.821-3.823,3.821-3.823v-1.71
			c-0.009,0-0.017,0.004-0.024,0.004c-0.938,0-1.698-0.76-1.698-1.695c0-0.939,0.763-1.699,1.698-1.699
			c0.925,0,1.674,0.743,1.693,1.662h0.003v0.037v1.695h1.812v-4.311c0.575,0,1.322,0,2.319,0c4.727,0,5.758-4.898,5.758-4.898
			H32.112L32.112,112.064z"/>
	</g>
	<path fill="#2D7994" d="M26.813,191.234c0,4.461,3.572,8.131,8.043,8.131h6.125c4.471,0,8.014-3.617,8.014-8.08v-3.061
		l-22.182-0.053V191.234z"/>
	<g>
		<path fill="#9B5E26" d="M39.729,279.733l-3.623-0.799c-1.516-0.742-2.729-1.935-3.514-3.365c-0.592-1.082-0.936-2.303-0.979-3.571
			l1.553-7.047l-0.172-0.082l-5.431-1.189l-1.961,8.908l-0.655,2.981l-0.212,0.957l-0.21,0.957l-0.457,2.069l19.307,4.238
			C43.165,281.85,41.746,280.173,39.729,279.733"/>
		<path fill="#34383A" d="M23.751,281.007l5.609,1.23l0.12-0.545l0.198-0.904l2.173,1.998l11.443,2.51
			c0.111-0.506,0.136-1.016,0.08-1.506l-19.306-4.238l-0.198,0.908L23.751,281.007z"/>
		<g opacity="0.4">
			<g>
				<g>
					<g>
						<defs>
							
								<rect id="SVGID_1_" x="26.282" y="268.953" transform="matrix(0.797 0.604 -0.604 0.797 168.9146 37.1652)" width="5.772" height="1.833"/>
						</defs>
						<clipPath id="SVGID_2_">
							<use xlink:href="#SVGID_1_"  overflow="visible"/>
						</clipPath>
						
							<rect x="26.275" y="268.957" transform="matrix(0.9767 0.2145 -0.2145 0.9767 58.5645 0.0261)" clip-path="url(#SVGID_2_)" fill="#9B5E26" width="5.773" height="1.83"/>
					</g>
				</g>
			</g>
		</g>
		<polygon fill="#2D7994" points="33.51,222.932 23.651,267.723 32.16,269.589 37.953,243.235 		"/>
		<polygon fill="#2D7994" points="38.225,201.514 40.958,189.103 48.964,190.861 49.009,192.933 42.673,221.755 		"/>
	</g>
	<g>
		<path fill="#C0772A" d="M63.233,273.809l-3.627,0.784c-1.688-0.043-3.289-0.62-4.598-1.596c0.023,0.123,0.047,0.236,0.07,0.344
			c0.651,2.994-2.485,3.867-2.485,3.867l-4.116,0.896l0.45,2.068l19.315-4.195C67.242,274.3,65.246,273.371,63.233,273.809"/>
		<path fill="#C0772A" d="M55.08,273.341c-0.023-0.106-0.047-0.221-0.072-0.344c-0.987-0.736-1.812-1.701-2.381-2.836l-1.537-7.055
			l-0.188,0.002l-5.435,1.18l1.943,8.916l0.648,2.98l0.209,0.959l0.208,0.961l4.117-0.896
			C52.593,277.21,55.732,276.335,55.08,273.341"/>
		<path fill="#34383A" d="M49.246,281.628l5.613-1.219l-0.117-0.547l-0.197-0.902l2.809,0.908l11.447-2.488
			c-0.11-0.508-0.303-0.979-0.555-1.401l-19.316,4.196l0.199,0.91L49.246,281.628z"/>
		<g opacity="0.4">
			<g>
				<g>
					<g>
						<defs>
							
								<rect id="SVGID_3_" x="46.59" y="268.341" transform="matrix(0.8009 -0.5988 0.5988 0.8009 -151.3697 83.2258)" width="5.777" height="1.832"/>
						</defs>
						<clipPath id="SVGID_4_">
							<use xlink:href="#SVGID_3_"  overflow="visible"/>
						</clipPath>
						
							<rect x="46.601" y="268.352" transform="matrix(0.9772 -0.2123 0.2123 0.9772 -56.0252 16.6394)" clip-path="url(#SVGID_4_)" fill="#9B5E26" width="5.774" height="1.828"/>
					</g>
				</g>
			</g>
		</g>
		<polygon fill="#2D7994" points="52.444,267.764 43.929,269.612 27.414,193.807 27.289,190.853 35.306,189.107 		"/>
		<path fill="#1B6478" d="M40.059,237.729l-0.321-1.478l-0.597-2.729l-2.079-9.56l-2.938,0.705l3.213,14.687l1.949-0.424
			C39.831,238.811,40.177,238.274,40.059,237.729"/>
	</g>
	<polygon fill="#282F3D" points="18.789,281.628 16.065,280.938 69.726,73.165 70.686,73.549 	"/>
	
		<line fill="none" stroke="#FFFFFF" stroke-width="0.1405" stroke-miterlimit="10" x1="70.686" y1="74.511" x2="70.686" y2="164.891"/>
	<path fill="#F9B69B" d="M41.631,179.583c-0.021,0.022-0.041,0.051-0.062,0.074l-2.081-2.08L29.46,167.476l0,0h-9.523l14.796,14.857
		l3.223,3.221l1.505,1.52c0.001,0,0.001,0.004,0.001,0.004c0.004,0.002,0.006,0.004,0.006,0.004l0.231,0.23l0.021-0.021
		c1.32,1.082,3.269,1.021,4.499-0.213c1.234-1.231,1.294-3.178,0.212-4.5l0.022-0.021l-0.225-0.226
		c-0.005-0.004-0.008-0.008-0.011-0.013c-0.004-0.004-0.009-0.004-0.012-0.008l-0.958-0.974c0.026-0.021,0.053-0.037,0.077-0.062
		c0.468-0.467,0.468-1.228,0-1.692C42.857,179.121,42.1,179.119,41.631,179.583z"/>
	<polygon opacity="0.4" fill="#B78C7D" enable-background="new    " points="31.444,169.561 21.84,169.561 19.79,167.453 
		29.381,167.453 	"/>
</g>
</svg>
