<?xml version="1.0" encoding="utf-8"?>
<!-- Generator: Adobe Illustrator 16.0.0, SVG Export Plug-In . SVG Version: 6.00 Build 0)  -->
<!DOCTYPE svg PUBLIC "-//W3C//DTD SVG 1.1//EN" "http://www.w3.org/Graphics/SVG/1.1/DTD/svg11.dtd">
<svg version="1.1" id="Layer_1" xmlns="http://www.w3.org/2000/svg" xmlns:xlink="http://www.w3.org/1999/xlink" x="0px" y="0px"
	 width="520.289px" height="284.189px" viewBox="0 1.689 520.289 284.189" enable-background="new 0 1.689 520.289 284.189"
	 xml:space="preserve">
<g>
	
		<rect x="518.593" y="192.127" transform="matrix(0.9446 0.3282 -0.3282 0.9446 92.6419 -159.5023)" fill="#FFFFFF" width="0.488" height="5.136"/>
	<path fill="#F9B69B" d="M62.834,178.46c-0.024,0.023-0.041,0.049-0.062,0.074l-2.084-2.082l-28.342-28.342l-4.76,4.762
		l28.342,28.34l3.223,3.225l1.59,1.566c0.002,0.002,0.002,0.004,0.002,0.004c0.004,0.002,0.006,0.004,0.006,0.004l0.23,0.232
		l0.023-0.023c1.322,1.084,3.269,1.023,4.504-0.213c1.234-1.232,1.293-3.18,0.211-4.5l0.023-0.023l-0.225-0.227
		c-0.004-0.004-0.006-0.008-0.01-0.01c-0.004-0.004-0.006-0.006-0.01-0.01l-1.043-1.021c0.025-0.021,0.051-0.037,0.076-0.061
		c0.469-0.469,0.467-1.227,0-1.697C64.061,177.992,63.302,177.992,62.834,178.46z"/>
	<polygon opacity="0.4" fill="#B78C7D" points="56.566,172.289 47.732,172.289 47.732,170.179 54.465,170.179 	"/>
	<g>
		<g>
			<path fill="#9B5C12" d="M58.621,281.197h-3.713c-1.641-0.404-3.083-1.309-4.154-2.543c-0.812-0.93-1.41-2.051-1.726-3.283v-7.23
				l-0.187-0.041h-5.561v9.143v3.057v0.982v0.98v2.125h19.777C62.436,282.533,60.686,281.197,58.621,281.197z"/>
			<path fill="#33373A" d="M43.281,285.878h5.747v-0.557v-0.932l2.554,1.488h11.723c0-0.521-0.088-1.023-0.246-1.492H43.281v0.936
				V285.878z"/>
			<rect x="43.281" y="272.9" opacity="0.4" fill="#9B5C12" width="5.777" height="1.834"/>
		</g>
		<g>
			<rect x="40.324" y="189.541" fill="#2C7893" width="8.717" height="83.359"/>
			<path fill="#196377" d="M45.228,226.83v9.799v2.805v1.512c0,0.559,0.452,1.01,1.009,1.01h2.805V226.83H45.228z"/>
		</g>
	</g>
	<g>
		<g>
			<g>
				<path fill="#C17614" d="M45.131,281.197h-3.715c-1.639-0.404-3.082-1.309-4.154-2.543c-0.002,0.121-0.002,0.242-0.002,0.354
					c0,3.068-3.256,3.254-3.256,3.254h-4.216v2.125h19.779C48.944,282.533,47.193,281.197,45.131,281.197z"/>
				<path fill="#C17614" d="M37.26,279.007c0-0.111,0-0.232,0.002-0.354c-0.812-0.93-1.41-2.051-1.725-3.283v-7.23l-0.186-0.041
					h-5.563v9.143v3.057v0.982v0.98h4.216C34.004,282.261,37.26,282.076,37.26,279.007z"/>
				<path fill="#33373A" d="M29.788,285.878h5.749v-0.557v-0.932l2.552,1.488h11.724c0-0.521-0.088-1.023-0.245-1.492H29.788v0.936
					V285.878z"/>
			</g>
			<rect x="29.788" y="272.9" opacity="0.4" fill="#9B5C12" width="5.779" height="1.834"/>
		</g>
		<rect x="26.85" y="189.541" fill="#2C7893" width="8.718" height="83.359"/>
	</g>
	<path fill="#196377" d="M30.158,240.945v-1.512v-2.805v-9.799H26.85v15.125h2.301C29.707,241.955,30.158,241.503,30.158,240.945z"
		/>
	<rect x="31.021" y="144.431" fill="#F9B69B" width="12.537" height="9.936"/>
	<path fill="#FFFFFF" d="M48.891,144.431h-4.789h-0.613h-1.289c0,2.621-2.123,4.742-4.742,4.742s-4.743-2.121-4.743-4.742h-1.942
		h-5.4c-3.068,0-5.555,2.484-5.555,5.553v4.068l0,0v16.127h2.148h4.885l0,0h22.191l0,0h5.402v-6.553v-5.777v-7.865
		C54.443,146.916,51.957,144.431,48.891,144.431z"/>
	<polygon fill="#2C7893" points="47.846,155.076 47.846,144.431 44.934,144.431 44.934,155.076 32.714,155.076 32.714,144.431 
		29.803,144.431 29.803,155.076 29.35,170.179 26.85,170.179 26.85,202.212 28.506,202.212 49.041,202.212 49.041,170.179 	"/>
	<path fill="#196377" d="M32.714,170.179v3.082v2.801v1.514c0,0.557,0.452,1.01,1.009,1.01h9.201c0.559,0,1.01-0.453,1.01-1.01
		v-1.514v-2.801v-3.082H32.714z"/>
	<g>
		<path fill="#F9B69B" d="M45.229,118.315l4.817,10.794h-3.655v11.354h-2.883c0,0-1.377,0.172-1.377,1.377c0,0.516,0,0.516,0,2.581
			v2.406h-9.417v-1.547v-27.182h12.343L45.229,118.315z"/>
		<circle fill="#2E3D49" cx="43.455" cy="122.39" r="0.506"/>
		<path opacity="0.2" fill="#4C3B15" d="M38.992,123.992v9.289c0,0-0.012,1.581,0,2.107c0.053,2.06-0.215,5.075,3.184,5.075
			c2.623,0,4.215,0,4.215,0v-11.354h-1.979c0,0-0.451,0-1.979,0c-1.119,0-1.635-0.559-1.635-1.636c0-1.761,0-7.137,0-7.137h-1.807
			V123.992z"/>
		<path fill="#F9B69B" d="M46.391,130.923c0,0-0.668,0-1.914,0c-0.443,0-1.334,0.042-1.334,1.162c0,0.686,0,0.863,0,0.863h3.248
			V130.923z"/>
		<path fill="#CE857C" d="M44.666,131.968c-0.193,0-0.351-0.156-0.351-0.352h-0.515c0,0.479,0.387,0.867,0.865,0.867l0,0h1.725
			v-0.516H44.666z"/>
		<path fill="#66301D" d="M32.148,114.743v14.751c0,0,0,0,1.332,0c4.044,0,3.828-3.828,3.828-3.828v-1.711
			c-0.01,0-0.018,0.004-0.025,0.004c-0.938,0-1.7-0.759-1.7-1.696c0-0.939,0.763-1.699,1.7-1.699c0.926,0,1.674,0.74,1.695,1.664
			h0.002v0.035v1.696h1.812v-4.314c0.576,0,1.324,0,2.322,0c4.73,0,5.762-4.901,5.762-4.901H32.148z"/>
	</g>
	<polygon fill="#282F3D" points="7.891,216.451 6.423,214.05 254.885,63.444 255.178,63.923 	"/>
	<path fill="#F9B69B" d="M46.404,187.054c-0.025,0.023-0.043,0.053-0.064,0.078l-2.083-2.084L29.35,170.179l0,0h-9.533l19.68,19.629
		l3.225,3.225l1.506,1.518c0.002,0.002,0.002,0.004,0.002,0.004c0.003,0.004,0.006,0.004,0.006,0.004l0.23,0.23l0.023-0.021
		c1.32,1.084,3.268,1.023,4.504-0.213c1.234-1.234,1.293-3.18,0.211-4.502l0.023-0.021l-0.225-0.227
		c-0.004-0.004-0.007-0.008-0.01-0.01c-0.003-0.004-0.008-0.006-0.011-0.01l-0.96-0.973c0.025-0.021,0.053-0.037,0.077-0.061
		c0.468-0.471,0.468-1.229-0.001-1.699C47.63,186.587,46.871,186.587,46.404,187.054z"/>
	<polygon opacity="0.4" fill="#B78C7D" points="31.479,172.289 21.867,172.289 19.816,170.179 29.416,170.179 	"/>
	<path fill="none" stroke="#FFFFFF" stroke-width="0.1407" stroke-miterlimit="10" d="M255.178,63.454
		c0,0,64,133.448,263.066,133.448"/>
	<path fill="#EF4D33" d="M519.709,201.615l0.408-1.168c0.561-1.617-0.293-3.381-1.91-3.941c-1.615-0.562-3.379,0.291-3.941,1.906
		l-0.494,1.426l5.115,1.777H519.709z"/>
	<path fill="#FFFFFF" d="M513.771,199.837l-0.496,1.424c-0.041,0.117-0.07,0.234-0.098,0.354h5.709L513.771,199.837z"/>
</g>
</svg>
