<?xml version="1.0" encoding="utf-8"?>
<!-- Generator: Adobe Illustrator 16.0.0, SVG Export Plug-In . SVG Version: 6.00 Build 0)  -->
<!DOCTYPE svg PUBLIC "-//W3C//DTD SVG 1.1//EN" "http://www.w3.org/Graphics/SVG/1.1/DTD/svg11.dtd">
<svg version="1.1" id="Layer_1" xmlns="http://www.w3.org/2000/svg" xmlns:xlink="http://www.w3.org/1999/xlink" x="0px" y="0px"
	 width="328.127px" height="212.574px" viewBox="-11.578 0 328.127 212.574" enable-background="new -11.578 0 328.127 212.574"
	 xml:space="preserve">
<g>
	
		<rect x="314.851" y="131.584" transform="matrix(-0.9446 -0.3282 0.3282 -0.9446 568.705 364.2906)" fill="#FFFFFF" width="0.488" height="5.136"/>
	<path fill="#F9B69B" d="M47.951,100.068c-0.022,0.025-0.038,0.051-0.058,0.078l-2.212-1.945L15.593,71.722l-4.447,5.055
		l30.089,26.477l3.422,3.014l1.687,1.461c0.002,0.002,0.002,0.004,0.002,0.004c0.004,0.002,0.006,0.006,0.006,0.006l0.245,0.215
		l0.021-0.023c1.388,0.998,3.327,0.812,4.481-0.5c1.152-1.307,1.088-3.256-0.076-4.504l0.021-0.023l-0.239-0.213
		c-0.004-0.004-0.007-0.008-0.011-0.01c-0.004-0.004-0.006-0.006-0.01-0.01l-1.106-0.953c0.023-0.021,0.048-0.039,0.071-0.064
		c0.439-0.498,0.389-1.254-0.107-1.693C49.146,99.523,48.388,99.572,47.951,100.068z"/>
	<polygon opacity="0.4" fill="#B78C7D" enable-background="new    " points="43.19,96.07 34.154,96.07 34.154,93.961 40.887,93.961 
			"/>
	<g>
		<g>
			<path fill="#9B5C12" d="M45.043,204.979H41.33c-1.642-0.404-3.083-1.309-4.154-2.543c-0.812-0.93-1.41-2.051-1.726-3.283v-7.229
				l-0.188-0.041h-5.561v9.143v3.057v0.982v0.98v2.125H49.48C48.859,206.314,47.109,204.979,45.043,204.979z"/>
			<path fill="#33373A" d="M29.703,209.66h5.747v-0.557v-0.932l2.554,1.486h11.724c0-0.52-0.089-1.021-0.246-1.492H29.703v0.938
				V209.66z"/>
			<rect x="29.703" y="196.682" opacity="0.4" fill="#9B5C12" enable-background="new    " width="5.776" height="1.834"/>
		</g>
		<g>
			<rect x="26.746" y="113.322" fill="#2C7893" width="8.717" height="83.359"/>
			<path fill="#196377" d="M31.65,150.611v9.799v2.807v1.512c0,0.559,0.453,1.01,1.01,1.01h2.805v-15.127H31.65z"/>
		</g>
	</g>
	<g>
		<g>
			<g>
				<path fill="#C17614" d="M31.553,204.979h-3.715c-1.64-0.404-3.082-1.309-4.153-2.543c-0.003,0.121-0.003,0.242-0.003,0.354
					c0,3.068-3.256,3.256-3.256,3.256H16.21v2.125H35.99C35.366,206.314,33.615,204.979,31.553,204.979z"/>
				<path fill="#C17614" d="M23.682,202.789c0-0.111,0-0.232,0.003-0.354c-0.812-0.93-1.41-2.051-1.726-3.283v-7.23l-0.187-0.041
					H16.21v9.143v3.057v0.982v0.98h4.216C20.426,206.043,23.682,205.857,23.682,202.789z"/>
				<path fill="#33373A" d="M16.21,209.66h5.749v-0.557v-0.932l2.552,1.486h11.725c0-0.52-0.088-1.021-0.246-1.492H16.21v0.938
					V209.66z"/>
			</g>
			<rect x="16.21" y="196.682" opacity="0.4" fill="#9B5C12" enable-background="new    " width="5.779" height="1.834"/>
		</g>
		<rect x="13.272" y="113.322" fill="#2C7893" width="8.717" height="83.359"/>
	</g>
	<path fill="#196377" d="M16.58,164.727v-1.512v-2.805v-9.799h-3.308v15.125h2.301C16.129,165.736,16.58,165.285,16.58,164.727z"/>
	<rect x="17.443" y="68.213" fill="#F9B69B" width="12.537" height="9.936"/>
	<g>
		<path fill="#F9B69B" d="M31.652,42.097l4.816,10.794h-3.654v11.354H29.93c0,0-1.377,0.172-1.377,1.377c0,0.517,0,0.517,0,2.581
			v2.406h-9.417v-1.547V41.88H31.48L31.652,42.097z"/>
		<circle fill="#2E3D49" cx="29.877" cy="46.172" r="0.506"/>
		<path opacity="0.2" fill="#4C3B15" enable-background="new    " d="M25.414,47.774v9.289c0,0-0.013,1.581,0,2.107
			c0.053,2.06-0.216,5.074,3.184,5.074c2.623,0,4.216,0,4.216,0V52.891h-1.979c0,0-0.451,0-1.979,0c-1.119,0-1.635-0.56-1.635-1.636
			c0-1.762,0-7.138,0-7.138h-1.807L25.414,47.774L25.414,47.774z"/>
		<path fill="#F9B69B" d="M32.814,54.705c0,0-0.668,0-1.914,0c-0.443,0-1.334,0.042-1.334,1.162c0,0.687,0,0.863,0,0.863h3.248
			V54.705z"/>
		<path fill="#CE857C" d="M31.088,55.75c-0.192,0-0.351-0.155-0.351-0.352h-0.516c0,0.479,0.387,0.867,0.865,0.867l0,0h1.725v-0.517
			L31.088,55.75L31.088,55.75z"/>
		<path fill="#66301D" d="M18.57,38.525v14.751c0,0,0,0,1.332,0c4.044,0,3.828-3.828,3.828-3.828v-1.711
			c-0.01,0-0.018,0.004-0.024,0.004c-0.938,0-1.7-0.759-1.7-1.695c0-0.939,0.764-1.699,1.7-1.699c0.926,0,1.674,0.74,1.694,1.664
			h0.002v0.035v1.695h1.812v-4.313c0.576,0,1.324,0,2.322,0c4.729,0,5.762-4.901,5.762-4.901L18.57,38.525L18.57,38.525z"/>
	</g>
	<path fill="#FFFFFF" d="M35.314,68.213h-4.789h-0.613h-1.289c0,2.62-2.123,4.741-4.742,4.741s-4.743-2.121-4.743-4.741h-1.942h-5.4
		c-3.068,0-5.555,2.483-5.555,5.553v4.067l0,0v16.128h2.148h4.885l0,0h22.191l0,0h5.402v-6.554v-5.776v-7.865
		C40.865,70.698,38.379,68.213,35.314,68.213z"/>
	<polygon fill="#2C7893" points="34.269,78.858 34.269,68.213 31.357,68.213 31.357,78.858 19.136,78.858 19.136,68.213 
		16.225,68.213 16.225,78.858 15.772,93.961 13.272,93.961 13.272,125.994 14.928,125.994 35.463,125.994 35.463,93.961 	"/>
	<path fill="#196377" d="M19.136,93.961v3.082v2.801v1.514c0,0.557,0.452,1.01,1.009,1.01h9.201c0.56,0,1.011-0.453,1.011-1.01
		v-1.514v-2.801v-3.082H19.136z"/>
	<polygon fill="#282F3D" points="-9.845,150.154 -11.578,147.941 157.979,16.413 158.503,17.303 	"/>
	<path fill="#F9B69B" d="M33.847,109.086c-0.023,0.025-0.039,0.057-0.059,0.082l-2.212-1.947L15.772,93.961l0,0L6.24,93.939
		l20.891,18.336l3.424,3.012l1.6,1.418c0.002,0.004,0.002,0.006,0.002,0.006c0.003,0.004,0.006,0.004,0.006,0.004l0.244,0.213
		l0.021-0.021c1.387,0.998,3.326,0.812,4.482-0.498c1.152-1.311,1.087-3.258-0.077-4.508l0.022-0.021l-0.24-0.213
		c-0.004-0.004-0.007-0.008-0.01-0.01c-0.004-0.004-0.009-0.006-0.012-0.01l-1.02-0.908c0.023-0.023,0.05-0.041,0.072-0.066
		c0.438-0.5,0.389-1.256-0.109-1.695C35.04,108.541,34.283,108.59,33.847,109.086z"/>
	<polygon opacity="0.4" fill="#B78C7D" enable-background="new    " points="18.286,96.07 8.668,96.07 6.238,93.961 15.772,93.961 	
		"/>
	<path fill="none" stroke="#FFFFFF" stroke-width="0.1407" stroke-miterlimit="10" d="M157.975,16.413
		c0,0,63.393,117.394,156.74,118.23"/>
	<path fill="#EF4D33" d="M315.967,141.078l0.408-1.168c0.561-1.617-0.293-3.381-1.91-3.941c-1.615-0.562-3.379,0.291-3.941,1.906
		l-0.492,1.426l5.113,1.777H315.967z"/>
	<path fill="#FFFFFF" d="M310.03,139.299l-0.496,1.426c-0.041,0.115-0.07,0.232-0.098,0.354h5.709L310.03,139.299z"/>
</g>
</svg>
