<?xml version="1.0" encoding="utf-8"?>
<!-- Generator: Adobe Illustrator 16.0.0, SVG Export Plug-In . SVG Version: 6.00 Build 0)  -->
<!DOCTYPE svg PUBLIC "-//W3C//DTD SVG 1.1//EN" "http://www.w3.org/Graphics/SVG/1.1/DTD/svg11.dtd">
<svg version="1.1" id="Layer_1" xmlns="http://www.w3.org/2000/svg" xmlns:xlink="http://www.w3.org/1999/xlink" x="0px" y="0px"
	 width="328.127px" height="212.574px" viewBox="-11.578 0 328.127 212.574" enable-background="new -11.578 0 328.127 212.574"
	 xml:space="preserve">
<g>
	<path fill="#F9B69B" d="M55.466,103.518c0,0.035,0.008,0.064,0.01,0.1h-2.943H31.48v6.727h21.051h4.557h4.217
		c0.002,0,0.004,0.002,0.004,0.002c0.006,0,0.008-0.002,0.008-0.002h0.326v-0.031c1.699-0.168,3.031-1.588,3.031-3.33
		c0-1.744-1.332-3.16-3.031-3.33v-0.031h-0.318c-0.004,0-0.008,0-0.014,0c-0.004,0-0.008,0-0.016,0h-3.441
		c0.002-0.031,0.01-0.062,0.01-0.102c0-0.66-0.537-1.193-1.199-1.193C55.999,102.322,55.466,102.855,55.466,103.518z"/>
	<rect x="35.421" y="93.922" fill="#F9B69B" width="5.396" height="13.585"/>
	<rect x="34.091" y="93.922" opacity="0.4" fill="#B78C7D" enable-background="new    " width="6.73" height="2.107"/>
	<g>
		<g>
			<path fill="#9B5C12" d="M44.991,204.844h-3.709c-1.639-0.4-3.08-1.307-4.148-2.541c-0.811-0.928-1.408-2.047-1.727-3.277v-7.227
				l-0.186-0.039h-5.559v9.133v3.057v0.98v0.98v2.121h19.762C48.808,206.178,47.058,204.844,44.991,204.844z"/>
			<path fill="#33373A" d="M29.665,209.521h5.742v-0.557v-0.932l2.551,1.484h11.713c0-0.521-0.086-1.021-0.242-1.488H29.665v0.936
				V209.521L29.665,209.521z"/>
			<rect x="29.665" y="196.555" opacity="0.4" fill="#9B5C12" enable-background="new    " width="5.771" height="1.832"/>
		</g>
		<g>
			<rect x="26.71" y="113.268" fill="#2C7893" width="8.711" height="83.287"/>
			<path fill="#196377" d="M31.613,150.525v9.791v2.799v1.512c0,0.561,0.451,1.012,1.01,1.012h2.803v-15.109L31.613,150.525
				L31.613,150.525z"/>
		</g>
	</g>
	<g>
		<g>
			<g>
				<path fill="#C17614" d="M31.517,204.844h-3.713c-1.641-0.4-3.08-1.307-4.15-2.541c-0.002,0.125-0.004,0.242-0.004,0.354
					c0,3.064-3.252,3.254-3.252,3.254h-4.212v2.121h19.761C35.323,206.178,33.575,204.844,31.517,204.844z"/>
				<path fill="#C17614" d="M23.65,202.656c0-0.109,0.002-0.229,0.004-0.354c-0.812-0.93-1.41-2.047-1.725-3.277v-7.227
					l-0.186-0.039h-5.56v9.133v3.057v0.979v0.98h4.213C20.397,205.91,23.65,205.721,23.65,202.656z"/>
				<path fill="#33373A" d="M16.185,209.521h5.744v-0.557v-0.932l2.551,1.484h11.711c0-0.521-0.088-1.021-0.244-1.488H16.185v0.936
					V209.521z"/>
			</g>
			<rect x="16.185" y="196.555" opacity="0.4" fill="#9B5C12" enable-background="new    " width="5.773" height="1.832"/>
		</g>
		<rect x="13.247" y="113.268" fill="#2C7893" width="8.711" height="83.287"/>
	</g>
	<path fill="#196377" d="M16.554,164.627v-1.512v-2.799v-9.791h-3.308v15.111h2.299C16.105,165.637,16.554,165.186,16.554,164.627z"
		/>
	<rect x="17.414" y="68.196" fill="#F9B69B" width="12.527" height="9.928"/>
	<g>
		<path fill="#F9B69B" d="M31.613,42.103l4.812,10.785h-3.65v11.345h-2.879c0,0-1.375,0.172-1.375,1.373c0,0.518,0,0.518,0,2.58
			v2.406H19.11v-1.545V41.888h12.333L31.613,42.103z"/>
		<circle fill="#2E3D49" cx="29.841" cy="46.174" r="0.505"/>
		<path opacity="0.2" fill="#4C3B15" enable-background="new    " d="M25.382,47.774v9.282c0,0-0.014,1.578,0,2.106
			c0.053,2.058-0.215,5.07,3.182,5.07c2.621,0,4.209,0,4.209,0V52.888h-1.979c0,0-0.447,0-1.977,0c-1.117,0-1.633-0.56-1.633-1.635
			c0-1.761,0-7.132,0-7.132h-1.807v3.652H25.382z"/>
		<path fill="#F9B69B" d="M32.773,54.7c0,0-0.666,0-1.912,0c-0.439,0-1.332,0.041-1.332,1.158c0,0.688,0,0.865,0,0.865h3.244V54.7z"
			/>
		<path fill="#CE857C" d="M31.05,55.743c-0.191,0-0.352-0.156-0.352-0.35h-0.516c0,0.477,0.387,0.866,0.865,0.866l0,0h1.721v-0.519
			L31.05,55.743L31.05,55.743z"/>
		<path fill="#66301D" d="M18.541,38.534v14.737c0,0,0,0,1.334,0c4.039,0,3.822-3.823,3.822-3.823v-1.709
			c-0.008,0-0.016,0.004-0.025,0.004c-0.936,0-1.695-0.76-1.695-1.695c0-0.939,0.762-1.699,1.695-1.699
			c0.928,0,1.676,0.743,1.693,1.662h0.004v0.037v1.695h1.812v-4.312c0.572,0,1.32,0,2.316,0c4.73,0,5.76-4.897,5.76-4.897H18.541
			L18.541,38.534z"/>
	</g>
	<path fill="#FFFFFF" d="M35.273,68.196H30.49h-0.615h-1.289c0,2.619-2.119,4.739-4.736,4.739s-4.739-2.12-4.739-4.739h-1.941
		h-5.395c-3.066,0-5.552,2.483-5.552,5.547v4.067l0,0v16.111h2.146h4.88l0,0h22.173l0,0h5.396V87.37v-5.771v-7.858
		C40.82,70.679,38.333,68.196,35.273,68.196z"/>
	<polygon fill="#2C7893" points="34.226,78.831 34.226,68.196 31.32,68.196 31.32,78.831 19.109,78.831 19.109,68.196 
		16.199,68.196 16.199,78.831 15.746,93.922 13.247,93.922 13.247,125.93 14.904,125.93 35.421,125.93 35.421,93.922 	"/>
	<path fill="#196377" d="M19.109,93.922V97v2.799v1.512c0,0.561,0.451,1.014,1.007,1.014h9.194c0.559,0,1.008-0.453,1.008-1.014
		v-1.512V97v-3.078H19.109z"/>
	<polygon fill="#282F3D" points="5.121,208.236 2.397,207.547 56.06,-0.226 57.019,0.159 	"/>
	<path fill="#F9B69B" d="M28.064,106.053c-0.023,0.021-0.041,0.051-0.062,0.074l-2.082-2.08L15.892,93.944l0,0H6.366l14.795,14.855
		l3.225,3.223l1.506,1.52v0.006c0.004,0.002,0.006,0.004,0.006,0.004l0.23,0.229l0.021-0.021c1.322,1.082,3.268,1.02,4.5-0.213
		s1.295-3.18,0.213-4.5l0.02-0.021l-0.225-0.225c-0.006-0.004-0.008-0.008-0.01-0.014c-0.004-0.004-0.01-0.004-0.012-0.008
		l-0.959-0.975c0.025-0.021,0.053-0.037,0.076-0.062c0.469-0.467,0.469-1.229,0-1.691C29.286,105.588,28.531,105.586,28.064,106.053
		z"/>
	<polygon opacity="0.4" fill="#B78C7D" enable-background="new    " points="17.873,96.029 8.271,96.029 6.221,93.922 
		15.812,93.922 	"/>
	<line fill="none" stroke="#FFFFFF" stroke-width="0.1405" stroke-miterlimit="10" x1="57.019" y1="1.12" x2="57.019" y2="91.5"/>
	<g>
		<path fill="#A7BDC1" d="M57.017,97.723c-0.955,0.625-1.762,1.66-2.326,2.957h4.65C58.779,99.383,57.972,98.348,57.017,97.723z"/>
		<path fill="#A7BDC1" d="M53.832,88.616c0,4.186,1.312,7.777,3.187,9.343c1.873-1.564,3.186-5.158,3.186-9.343
			c0-1.773-0.236-3.439-0.65-4.892h-5.07C54.068,85.175,53.832,86.841,53.832,88.616z"/>
		<path fill="#728A93" d="M57.017,79.274c-1.08,0.903-1.973,2.479-2.535,4.45h5.07C58.99,81.752,58.097,80.177,57.017,79.274z"/>
	</g>
</g>
</svg>
