<?xml version="1.0" encoding="utf-8"?>
<!-- Generator: Adobe Illustrator 16.0.0, SVG Export Plug-In . SVG Version: 6.00 Build 0)  -->
<!DOCTYPE svg PUBLIC "-//W3C//DTD SVG 1.1//EN" "http://www.w3.org/Graphics/SVG/1.1/DTD/svg11.dtd">
<svg version="1.1" id="Layer_1" xmlns="http://www.w3.org/2000/svg" xmlns:xlink="http://www.w3.org/1999/xlink" x="0px" y="0px"
	 width="520.289px" height="284.189px" viewBox="0 1.689 520.289 284.189" enable-background="new 0 1.689 520.289 284.189"
	 xml:space="preserve">
<g>
	<path fill="#F9B69B" d="M69.068,179.775c0,0.035,0.006,0.066,0.008,0.1h-2.943H45.082v6.725h21.051h4.555h4.217
		c0.002,0,0.004,0.002,0.004,0.002c0.006,0,0.008-0.002,0.008-0.002h0.326v-0.031c1.699-0.168,3.032-1.588,3.032-3.332
		s-1.333-3.16-3.032-3.33v-0.031h-0.318c-0.004,0-0.008,0-0.014,0c-0.004,0-0.008,0-0.014,0h-3.443c0.002-0.033,0.01-0.064,0.01-0.1
		c0-0.662-0.537-1.195-1.199-1.195C69.604,178.58,69.068,179.113,69.068,179.775z"/>
	<rect x="49.025" y="170.179" fill="#F9B69B" width="5.396" height="13.586"/>
	<rect x="47.694" y="170.179" opacity="0.4" fill="#B78C7D" width="6.728" height="2.107"/>
	<g>
		<g>
			<path fill="#9B5C12" d="M58.596,281.101h-3.709c-1.639-0.402-3.08-1.307-4.15-2.541c-0.811-0.928-1.41-2.047-1.725-3.279v-7.225
				l-0.186-0.039H43.27v9.133v3.055v0.98v0.982v2.121H63.03C62.408,282.435,60.659,281.101,58.596,281.101z"/>
			<path fill="#33373A" d="M43.27,285.779h5.742v-0.557v-0.93l2.551,1.486h11.713c0-0.521-0.086-1.021-0.245-1.49H43.27v0.934
				V285.779z"/>
			<rect x="43.27" y="272.812" opacity="0.4" fill="#9B5C12" width="5.771" height="1.832"/>
		</g>
		<g>
			<rect x="40.314" y="189.525" fill="#2C7893" width="8.711" height="83.287"/>
			<path fill="#196377" d="M45.215,226.783v9.791v2.799v1.51c0,0.561,0.451,1.012,1.008,1.012h2.803v-15.111H45.215z"/>
		</g>
	</g>
	<g>
		<g>
			<g>
				<path fill="#C17614" d="M45.117,281.101h-3.711c-1.639-0.402-3.08-1.307-4.15-2.541c-0.002,0.125-0.004,0.242-0.004,0.354
					c0,3.064-3.252,3.254-3.252,3.254h-4.212v2.121h19.763C48.928,282.435,47.18,281.101,45.117,281.101z"/>
				<path fill="#C17614" d="M37.252,278.914c0-0.111,0.002-0.229,0.004-0.354c-0.811-0.928-1.41-2.047-1.725-3.279v-7.225
					l-0.184-0.039h-5.56v9.133v3.055v0.98v0.982H34C34,282.167,37.252,281.978,37.252,278.914z"/>
				<path fill="#33373A" d="M29.788,285.779h5.743v-0.557v-0.93l2.552,1.486h11.712c0-0.521-0.088-1.021-0.244-1.49H29.788v0.934
					V285.779z"/>
			</g>
			<rect x="29.788" y="272.812" opacity="0.4" fill="#9B5C12" width="5.774" height="1.832"/>
		</g>
		<rect x="26.852" y="189.525" fill="#2C7893" width="8.711" height="83.287"/>
	</g>
	<path fill="#196377" d="M30.157,240.882v-1.51v-2.799v-9.791h-3.306v15.111h2.299C29.707,241.894,30.157,241.443,30.157,240.882z"
		/>
	<rect x="31.019" y="144.453" fill="#F9B69B" width="12.528" height="9.928"/>
	<path fill="#FFFFFF" d="M48.875,144.453h-4.783h-0.615h-1.288c0,2.619-2.12,4.74-4.739,4.74c-2.617,0-4.738-2.121-4.738-4.74H30.77
		h-5.395c-3.066,0-5.551,2.484-5.551,5.547v4.068l0,0v16.111h2.146h4.881l0,0h22.174l0,0h5.396v-6.549v-5.771V150
		C54.422,146.937,51.938,144.453,48.875,144.453z"/>
	<polygon fill="#2C7893" points="47.829,155.087 47.829,144.453 44.922,144.453 44.922,155.087 32.711,155.087 32.711,144.453 
		29.803,144.453 29.803,155.087 29.35,170.179 26.852,170.179 26.852,202.185 28.506,202.185 49.025,202.185 49.025,170.179 	"/>
	<path fill="#196377" d="M32.711,170.179v3.078v2.799v1.512c0,0.559,0.451,1.012,1.008,1.012h9.193c0.559,0,1.008-0.453,1.008-1.012
		v-1.512v-2.799v-3.078H32.711z"/>
	<g>
		<path fill="#F9B69B" d="M45.215,118.36l4.812,10.785h-3.652v11.345h-2.879c0,0-1.375,0.171-1.375,1.373c0,0.517,0,0.517,0,2.58
			v2.406h-9.41v-1.547v-27.159h12.332L45.215,118.36z"/>
		<circle fill="#2E3D49" cx="43.443" cy="122.431" r="0.506"/>
		<path opacity="0.2" fill="#4C3B15" d="M38.984,124.03v9.283c0,0-0.012,1.578,0,2.106c0.053,2.058-0.213,5.07,3.181,5.07
			c2.622,0,4.21,0,4.21,0v-11.345h-1.977c0,0-0.449,0-1.977,0c-1.117,0-1.631-0.559-1.631-1.635c0-1.761,0-7.132,0-7.132h-1.807
			V124.03z"/>
		<path fill="#F9B69B" d="M46.375,130.957c0,0-0.666,0-1.912,0c-0.439,0-1.332,0.041-1.332,1.158c0,0.688,0,0.865,0,0.865h3.244
			V130.957z"/>
		<path fill="#CE857C" d="M44.654,131.999c-0.195,0-0.352-0.156-0.352-0.349h-0.514c0,0.477,0.385,0.866,0.863,0.866l0,0h1.723
			v-0.518H44.654z"/>
		<path fill="#66301D" d="M32.146,114.79v14.738c0,0,0,0,1.333,0c4.039,0,3.823-3.823,3.823-3.823v-1.71
			c-0.009,0-0.017,0.004-0.026,0.004c-0.936,0-1.697-0.76-1.697-1.695c0-0.939,0.762-1.699,1.697-1.699
			c0.926,0,1.674,0.743,1.693,1.662h0.004v0.037v1.695h1.811v-4.311c0.576,0,1.323,0,2.32,0c4.727,0,5.758-4.898,5.758-4.898H32.146
			z"/>
	</g>
	<polygon fill="#282F3D" points="2.725,284.494 0,283.802 72.578,2.726 73.121,2.861 	"/>
	<path fill="#F9B69B" d="M41.664,182.31c-0.023,0.023-0.041,0.051-0.062,0.074l-2.082-2.08l-10.027-10.102l0,0h-9.525l14.797,14.857
		l3.223,3.221l1.504,1.52c0.002,0,0.002,0.004,0.002,0.004c0.004,0.002,0.006,0.004,0.006,0.004l0.23,0.23l0.023-0.021
		c1.32,1.082,3.266,1.02,4.498-0.213c1.234-1.232,1.295-3.178,0.213-4.5l0.021-0.021l-0.225-0.225
		c-0.003-0.004-0.005-0.008-0.008-0.012c-0.004-0.004-0.01-0.004-0.012-0.008l-0.958-0.973c0.026-0.021,0.052-0.037,0.077-0.062
		c0.468-0.467,0.467-1.227,0-1.693C42.891,181.843,42.133,181.843,41.664,182.31z"/>
	<polygon opacity="0.4" fill="#B78C7D" points="31.477,172.287 21.873,172.287 19.824,170.179 29.415,170.179 	"/>
	
		<line fill="none" stroke="#FFFFFF" stroke-width="0.1405" stroke-miterlimit="10" x1="73.121" y1="2.726" x2="73.121" y2="170.107"/>
	<g>
		<path fill="#A7BDC1" d="M73.121,174.216c-0.955,0.625-1.762,1.66-2.326,2.957h4.65C74.883,175.876,74.076,174.841,73.121,174.216z
			"/>
		<path fill="#A7BDC1" d="M69.936,165.109c0,4.186,1.311,7.777,3.186,9.344c1.874-1.566,3.186-5.158,3.186-9.344
			c0-1.773-0.236-3.439-0.65-4.891h-5.07C70.172,161.669,69.936,163.335,69.936,165.109z"/>
		<path fill="#728A93" d="M73.121,155.767c-1.08,0.904-1.973,2.479-2.535,4.451h5.07C75.094,158.246,74.201,156.671,73.121,155.767z
			"/>
	</g>
</g>
</svg>
