<?xml version="1.0" encoding="utf-8"?>
<!-- Generator: Adobe Illustrator 16.0.0, SVG Export Plug-In . SVG Version: 6.00 Build 0)  -->
<!DOCTYPE svg PUBLIC "-//W3C//DTD SVG 1.1//EN" "http://www.w3.org/Graphics/SVG/1.1/DTD/svg11.dtd">
<svg version="1.1" id="Layer_1" xmlns="http://www.w3.org/2000/svg" xmlns:xlink="http://www.w3.org/1999/xlink" x="0px" y="0px"
	 width="52px" height="52px" viewBox="0 0 52 52" enable-background="new 0 0 52 52" xml:space="preserve">
<g>
	<path fill="#EFDA82" d="M51.018,26.091c0,13.807-11.193,25-25,25c-13.809,0-25-11.193-25-25c0-13.806,11.192-25,25-25
		C39.824,1.091,51.018,12.286,51.018,26.091z"/>
	<g>
		<path fill="#D7B37D" d="M26.018,51.092c8.688,0,16.34-4.436,20.819-11.162c-5.739-5.182-13.343-8.338-21.684-8.338
			c-7.812,0-14.977,2.768-20.569,7.373C8.958,46.23,16.919,51.092,26.018,51.092z"/>
	</g>
	<g>
		<g>
			<path fill="#6D7F36" d="M23.884,44.506c-0.173-0.303-0.246-0.475-0.351-0.697c-0.094-0.213-0.18-0.42-0.261-0.629
				c-0.163-0.414-0.305-0.826-0.435-1.238c-0.257-0.824-0.459-1.65-0.623-2.477c-0.324-1.654-0.49-3.311-0.538-4.955
				c-0.022-0.822-0.017-1.645,0.017-2.459c0.03-0.812,0.101-1.689,0.261-2.533c0.293-1.701,1.021-3.402,2.025-4.758
				c0.992-1.368,2.083-2.431,2.771-3.699c0.708-1.254,1.021-2.727,1.064-4.247c0.037-1.511-0.2-3.056-0.59-4.558
				c-0.397-1.504-0.935-2.983-1.623-4.395c0.832,1.334,1.523,2.762,2.088,4.248c0.554,1.488,0.971,3.047,1.1,4.681
				c0.13,1.608-0.02,3.332-0.691,4.916c-0.658,1.589-1.719,2.876-2.424,4.145c-0.727,1.268-1.112,2.588-1.205,4.004
				c-0.054,0.713-0.033,1.408,0.02,2.166c0.051,0.754,0.125,1.504,0.227,2.246c0.203,1.484,0.515,2.943,0.947,4.338
				c0.22,0.697,0.468,1.377,0.751,2.027c0.141,0.324,0.29,0.641,0.448,0.943c0.079,0.15,0.159,0.299,0.241,0.438
				c0.074,0.125,0.185,0.301,0.216,0.334L23.884,44.506z"/>
		</g>
		<g>
			<path fill="#7BA240" d="M37.582,23.464c-2.547-1.245-3.085-3.031-5.168-3.163c-1.561-0.1-2.904,1.083-3.003,2.645
				c-0.099,1.559,1.083,2.902,2.644,3.002C34.932,26.13,37.582,23.464,37.582,23.464z"/>
		</g>
		<g>
			<path fill="#7BA240" d="M34.755,11.858c-1.921-0.352-2.608-1.435-4.015-1.135c-1.053,0.224-1.723,1.26-1.497,2.312
				c0.224,1.051,1.258,1.723,2.312,1.496C33.494,14.118,34.755,11.858,34.755,11.858z"/>
		</g>
		<g>
			<path fill="#7BA240" d="M37.021,35.723c-3.194-1.002-4.137-2.99-6.592-2.775c-1.836,0.16-3.195,1.779-3.033,3.615
				c0.158,1.838,1.777,3.195,3.615,3.035C34.396,39.303,37.021,35.723,37.021,35.723z"/>
		</g>
		<g>
			<path fill="#7BA240" d="M14.331,22.276c2.792-0.5,3.798-2.07,5.836-1.627c1.527,0.332,2.497,1.84,2.163,3.366
				c-0.331,1.526-1.837,2.495-3.364,2.162C16.15,25.567,14.331,22.276,14.331,22.276z"/>
		</g>
		<g>
			<path fill="#7BA240" d="M20.545,13.5c1.92-0.351,2.609-1.435,4.014-1.134c1.053,0.226,1.724,1.26,1.5,2.312
				c-0.227,1.052-1.261,1.724-2.312,1.498C21.807,15.761,20.545,13.5,20.545,13.5z"/>
		</g>
		<g>
			<path fill="#7BA240" d="M10.452,32.775c3.194-1.002,4.136-2.99,6.591-2.775c1.837,0.16,3.194,1.777,3.034,3.615
				c-0.158,1.836-1.778,3.195-3.615,3.035C13.075,36.354,10.452,32.775,10.452,32.775z"/>
		</g>
		<g>
			<path fill="#6D7F36" d="M27.883,16.007c0.057-0.373,0.141-0.71,0.247-1.053c0.107-0.341,0.243-0.673,0.413-0.988
				c0.174-0.312,0.381-0.61,0.654-0.846c0.268-0.239,0.605-0.394,0.945-0.429c-0.33,0.101-0.609,0.301-0.811,0.56
				c-0.205,0.255-0.342,0.557-0.443,0.864c-0.102,0.312-0.168,0.636-0.207,0.961c-0.039,0.322-0.06,0.66-0.047,0.97v0.004
				c0.008,0.209-0.158,0.385-0.365,0.394c-0.209,0.008-0.385-0.156-0.393-0.365C27.877,16.054,27.878,16.028,27.883,16.007z"/>
		</g>
		<g>
			<path fill="#6D7F36" d="M27.902,17.786c-0.172-0.68-0.432-1.377-0.786-2.004c-0.358-0.614-0.836-1.227-1.563-1.446
				c0.373,0.044,0.733,0.207,1.043,0.435c0.312,0.223,0.586,0.502,0.83,0.799c0.244,0.299,0.461,0.616,0.658,0.946
				c0.197,0.334,0.375,0.668,0.533,1.037c0.083,0.19-0.005,0.415-0.197,0.498c-0.191,0.082-0.414-0.007-0.496-0.199
				c-0.009-0.018-0.016-0.034-0.021-0.055L27.902,17.786z"/>
		</g>
		<g>
			<path fill="#6D7F36" d="M25.179,23.942c0.443-0.385,0.879-0.666,1.361-0.931c0.476-0.254,0.978-0.463,1.498-0.596
				c0.522-0.134,1.065-0.189,1.592-0.138c0.528,0.053,1.034,0.218,1.479,0.465c-0.977-0.334-2.014-0.199-2.877,0.219
				c-0.438,0.206-0.842,0.473-1.215,0.775c-0.365,0.301-0.729,0.655-0.994,0.998l-0.006,0.006c-0.197,0.255-0.563,0.3-0.818,0.101
				c-0.253-0.196-0.298-0.563-0.099-0.817C25.122,23.995,25.152,23.966,25.179,23.942z"/>
		</g>
		<g>
			<path fill="#6D7F36" d="M24.061,38.854c0.36-0.463,0.736-0.824,1.154-1.176c0.417-0.342,0.87-0.646,1.356-0.877
				c0.485-0.23,1.008-0.393,1.534-0.439c0.529-0.053,1.057,0.012,1.541,0.168c-1.021-0.139-2.012,0.193-2.779,0.771
				c-0.389,0.285-0.734,0.627-1.04,0.996c-0.302,0.363-0.589,0.783-0.784,1.172l-0.003,0.008c-0.146,0.287-0.496,0.402-0.783,0.256
				c-0.287-0.145-0.403-0.496-0.258-0.783C24.016,38.916,24.038,38.883,24.061,38.854z"/>
		</g>
		<g>
			<path fill="#6D7F36" d="M22.632,36.424c-0.195-0.389-0.48-0.809-0.783-1.17c-0.306-0.371-0.651-0.711-1.04-0.998
				c-0.769-0.578-1.758-0.91-2.78-0.771c0.484-0.158,1.013-0.221,1.54-0.17c0.529,0.051,1.05,0.209,1.535,0.441
				c0.486,0.232,0.939,0.533,1.356,0.877c0.42,0.35,0.794,0.711,1.155,1.176c0.198,0.254,0.153,0.619-0.1,0.818
				c-0.256,0.197-0.62,0.152-0.819-0.102c-0.022-0.029-0.043-0.061-0.06-0.094L22.632,36.424z"/>
		</g>
		<g>
			<path fill="#6D7F36" d="M23.295,27.553c-0.002-0.01-0.01-0.08-0.041-0.23c-0.029-0.148-0.085-0.363-0.162-0.623
				c-0.085-0.253-0.185-0.556-0.331-0.859c-0.139-0.311-0.323-0.619-0.527-0.919c-0.114-0.138-0.216-0.294-0.341-0.418
				c-0.125-0.127-0.241-0.265-0.378-0.364c-0.132-0.109-0.26-0.22-0.399-0.296c-0.135-0.08-0.259-0.172-0.391-0.219
				c-0.129-0.058-0.248-0.107-0.354-0.154c-0.11-0.028-0.206-0.057-0.286-0.078c-0.162-0.043-0.255-0.067-0.255-0.067
				s0.095,0.008,0.263,0.02c0.084,0.007,0.188,0.016,0.305,0.023c0.115,0.024,0.247,0.056,0.389,0.088
				c0.148,0.023,0.292,0.091,0.452,0.15c0.164,0.053,0.32,0.141,0.484,0.23c0.171,0.083,0.321,0.202,0.486,0.314
				c0.165,0.113,0.305,0.256,0.46,0.388c0.286,0.282,0.557,0.588,0.773,0.897c0.228,0.305,0.401,0.613,0.55,0.881
				c0.142,0.271,0.25,0.5,0.319,0.669c0.071,0.17,0.108,0.283,0.106,0.275c0.079,0.309-0.106,0.627-0.417,0.705
				C23.692,28.049,23.375,27.861,23.295,27.553z"/>
		</g>
	</g>
</g>
</svg>
