<?xml version="1.0" encoding="utf-8"?>
<!-- Generator: Adobe Illustrator 16.0.0, SVG Export Plug-In . SVG Version: 6.00 Build 0)  -->
<!DOCTYPE svg PUBLIC "-//W3C//DTD SVG 1.1//EN" "http://www.w3.org/Graphics/SVG/1.1/DTD/svg11.dtd">
<svg version="1.1" id="Layer_1" xmlns="http://www.w3.org/2000/svg" xmlns:xlink="http://www.w3.org/1999/xlink" x="0px" y="0px"
	 width="52px" height="52px" viewBox="0 0 52 52" enable-background="new 0 0 52 52" xml:space="preserve">
<g>
	<path fill="#EFDA82" d="M51,25.999c0,13.808-11.193,25.002-25,25.002c-13.807,0-25-11.194-25-25.002c0-13.805,11.193-25,25-25
		C39.807,0.999,51,12.194,51,25.999z"/>
	<path fill="none" d="M21.843,40.91c-0.125,0-0.244-0.014-0.363-0.036C21.599,40.896,21.718,40.91,21.843,40.91z"/>
	<path fill="none" d="M20.919,40.658c-0.004-0.002-0.008-0.004-0.012-0.006C20.912,40.654,20.916,40.658,20.919,40.658z"/>
	<path fill="none" d="M21.404,40.855c-0.078-0.02-0.152-0.045-0.227-0.074C21.252,40.811,21.328,40.837,21.404,40.855z"/>
	<circle fill="#8B9F3C" cx="16.916" cy="23.399" r="3.092"/>
	<circle fill="#8B9F3C" cx="34.693" cy="23.399" r="3.092"/>
	<g>
		<path fill="#9EB362" d="M19.097,38.788v-0.043h0.01l1.104-9.746c0.01-0.47,0.135-0.892,0.352-1.263
			c-0.232-0.106-0.49-0.162-0.764-0.162h-5.764c-1.02,0-1.846,0.818-1.846,1.836l-1.043,9.275c0,1.019,0.824,1.834,1.844,1.834
			h0.576l0.926,7.771c1.467,0.746,3.018,1.352,4.635,1.799l1.088-9.148C19.539,40.441,19.097,39.689,19.097,38.788z"/>
		<path fill="#9EB362" d="M38.619,40.52c1.02,0,1.846-0.815,1.846-1.834L39.42,29.41c0-1.018-0.826-1.836-1.846-1.836h-5.764
			c-0.158,0-0.31,0.019-0.453,0.056c0.254,0.396,0.406,0.858,0.416,1.375l1.084,9.699l-0.031,0.041v0.043
			c0,1.036-0.564,1.94-1.406,2.407l1.061,8.896c1.617-0.446,3.168-1.053,4.638-1.799l0.928-7.771h0.573V40.52z"/>
		<path fill="#849A42" d="M30.158,40.91c1.08,0,1.953-0.913,1.953-1.991l-1.105-9.871c0-1.08-0.875-1.862-1.953-1.862h-6.104
			c-1.078,0-1.953,0.825-1.953,1.903l-1.105,9.785c0,0.739,0.412,1.424,1.02,1.778c0.002,0.002,0.006,0.006,0.01,0.008
			c0.082,0.048,0.17,0.089,0.26,0.123c0.072,0.027,0.148,0.054,0.227,0.072c0.025,0.008,0.051,0.012,0.076,0.019
			c0.117,0.022,0.238,0.039,0.361,0.039h0.609l1.188,9.987c0.715,0.062,1.436,0.101,2.164,0.101c0.865,0,1.719-0.045,2.559-0.131
			l1.188-9.96H30.158z"/>
	</g>
	<circle fill="#6D7F36" cx="26.002" cy="22.601" r="3.274"/>
</g>
</svg>
