<?xml version="1.0" encoding="utf-8"?>
<!-- Generator: Adobe Illustrator 16.0.0, SVG Export Plug-In . SVG Version: 6.00 Build 0)  -->
<!DOCTYPE svg PUBLIC "-//W3C//DTD SVG 1.1//EN" "http://www.w3.org/Graphics/SVG/1.1/DTD/svg11.dtd">
<svg version="1.1" id="Layer_1" xmlns="http://www.w3.org/2000/svg" xmlns:xlink="http://www.w3.org/1999/xlink" x="0px" y="0px"
	 width="52px" height="52px" viewBox="0 0 52 52" enable-background="new 0 0 52 52" xml:space="preserve">
<g>
	<g>
		<circle fill="#EFDA82" cx="25.922" cy="26.235" r="25"/>
	</g>
	<g>
		<g>
			<path fill="#81AAB4" d="M6.1,14.54v-1.979H4.997c-0.397,0.607-0.772,1.23-1.117,1.873L6.1,14.54z"/>
		</g>
		<g>
			<polygon fill="#81AAB4" points="18.608,14.096 18.608,12.561 9.336,12.561 9.336,14.536 			"/>
		</g>
		<g>
			<path fill="#81AAB4" d="M36.286,12.561H25.439v1.211l8.404-0.398v1.242h1.08v34.94c0.739-0.285,1.46-0.604,2.162-0.953V13.36
				C37.086,12.92,36.729,12.561,36.286,12.561z"/>
		</g>
		<g>
			<polygon fill="#5B7A81" points="7.681,14.616 9.336,14.536 9.336,12.561 6.1,12.561 6.1,14.54 			"/>
		</g>
		<g>
			<path fill="#D6D7C0" d="M34.924,49.557v-34.94h-1.08v35.329C34.208,49.824,34.568,49.695,34.924,49.557z"/>
		</g>
		<g>
			<path fill="#E6E6D6" d="M6.1,14.616V14.54l-2.22-0.105c-0.032,0.061-0.062,0.121-0.093,0.182L6.1,14.616L6.1,14.616z"/>
		</g>
		<g>
			<polygon fill="#E6E6D6" points="6.157,14.616 7.681,14.616 6.1,14.54 6.1,14.616 			"/>
		</g>
		<g>
			<path fill="#E6E6D6" d="M3.787,14.616c-0.736,1.398-1.344,2.873-1.806,4.412l2.788,0.088c0.471,0.016,0.853,0.426,0.853,0.916
				c0,0.49-0.382,0.875-0.852,0.859l-3.245-0.104c-0.136,0.609-0.251,1.225-0.341,1.85l3.586,0.115
				c0.471,0.016,0.853,0.424,0.853,0.914s-0.383,0.876-0.853,0.86l-3.773-0.119c-0.043,0.58-0.07,1.164-0.072,1.754l3.846,0.123
				C5.242,26.3,5.624,26.708,5.624,27.2c0,0.489-0.382,0.875-0.853,0.858l-3.783-0.121c0.042,0.629,0.105,1.252,0.193,1.865
				l3.59,0.115c0.471,0.016,0.853,0.424,0.853,0.914S5.24,31.709,4.77,31.693L1.502,31.59c0.143,0.65,0.309,1.295,0.5,1.926
				l2.768,0.088c0.471,0.017,0.853,0.427,0.853,0.916c0,0.488-0.382,0.875-0.853,0.859l-2.142-0.068
				c0.25,0.642,0.521,1.271,0.822,1.885l1.319,0.044c0.471,0.016,0.853,0.426,0.853,0.913c0,0.49-0.382,0.875-0.853,0.859
				l-0.342-0.01c0.51,0.854,1.068,1.674,1.672,2.459V14.616H3.787z"/>
		</g>
		<g>
			<path fill="#E6E6D6" d="M6.157,14.616H6.1v26.845c0.02,0.025,0.039,0.049,0.058,0.074L6.157,14.616L6.157,14.616z"/>
		</g>
		<g>
			<path fill="#E6E6D6" d="M6.157,41.535c0.439,0.566,0.899,1.115,1.384,1.641v-27.67h0.14v-0.891H6.157V41.535z"/>
		</g>
		<g>
			<polygon fill="#E6E6D6" points="18.608,14.616 18.608,14.096 9.336,14.536 9.336,14.616 			"/>
		</g>
		<g>
			<polygon fill="#E6E6D6" points="33.844,14.616 33.844,13.374 25.439,13.772 25.439,14.616 			"/>
		</g>
		<g>
			<polygon fill="#E6E6D6" points="9.336,14.616 9.336,14.536 7.681,14.616 9.276,14.616 			"/>
		</g>
		<g>
			<polygon fill="#E6E6D6" points="23.596,36.826 22.693,34.996 21.781,35.025 20.696,36.92 			"/>
		</g>
		<g>
			<polygon fill="#E6E6D6" points="18.637,40.518 25.311,40.305 24.457,38.574 19.663,38.727 			"/>
		</g>
		<g>
			<path fill="#E6E6D6" d="M25.439,18.647l5.497-0.176c0.472-0.016,0.854,0.369,0.854,0.861c0,0.49-0.382,0.898-0.854,0.914
				l-5.497,0.176v1.859l5.497-0.176c0.472-0.016,0.854,0.369,0.854,0.859c0,0.49-0.382,0.9-0.854,0.916l-5.497,0.176v1.758
				l5.497-0.176c0.472-0.016,0.854,0.369,0.854,0.859c0,0.489-0.382,0.897-0.854,0.914l-5.497,0.176v1.861l5.497-0.177
				c0.472-0.016,0.854,0.367,0.854,0.859c0,0.49-0.382,0.9-0.854,0.914l-5.497,0.176v1.912l5.497-0.176
				c0.472-0.016,0.854,0.369,0.854,0.859c0,0.488-0.382,0.897-0.854,0.914l-5.497,0.176v1.859l5.497-0.177
				c0.472-0.014,0.854,0.371,0.854,0.861c0,0.489-0.382,0.897-0.854,0.914l-5.497,0.176v1.758l5.497-0.174
				c0.472-0.019,0.854,0.369,0.854,0.856c0,0.49-0.382,0.9-0.854,0.916l-20.199,0.646c-0.472,0.017-0.853-0.369-0.853-0.858
				c0-0.49,0.381-0.9,0.853-0.914l7.871-0.252v-1.761l-7.871,0.252c-0.472,0.017-0.853-0.368-0.853-0.858
				c0-0.488,0.381-0.898,0.853-0.914l7.871-0.252v-1.859l-7.871,0.252c-0.472,0.016-0.853-0.371-0.853-0.859
				c0-0.49,0.381-0.899,0.853-0.916l7.871-0.25v-1.912l-7.871,0.252c-0.472,0.017-0.853-0.371-0.853-0.86
				c0-0.49,0.381-0.897,0.853-0.914l7.871-0.252v-1.858l-7.871,0.252c-0.472,0.016-0.853-0.369-0.853-0.859
				c0-0.492,0.381-0.9,0.853-0.916l7.871-0.252v-1.756l-7.871,0.25c-0.472,0.016-0.853-0.369-0.853-0.859s0.381-0.898,0.853-0.914
				l7.871-0.252v-1.859l-7.871,0.25c-0.472,0.016-0.853-0.369-0.853-0.859c0-0.49,0.381-0.9,0.853-0.916l7.871-0.25v-4.25H9.336
				v30.317c0.184,0.164,0.369,0.326,0.559,0.484c-0.003-0.033-0.01-0.064-0.01-0.1c0-0.488,0.381-0.898,0.853-0.914l20.198-0.646
				c0.473-0.016,0.854,0.369,0.854,0.859c0,0.489-0.382,0.897-0.854,0.914l-20.089,0.643c4.191,3.175,9.413,5.06,15.076,5.06
				c2.77,0,5.432-0.457,7.922-1.289v-35.33H25.44L25.439,18.647L25.439,18.647z"/>
		</g>
		<g>
			<path fill="#E6E6D6" d="M9.276,44.883c0.019,0.018,0.04,0.033,0.06,0.051V14.616h-0.06V44.883z"/>
		</g>
		<g>
			<path fill="#E6E6D6" d="M7.893,15.506v28.037c0.444,0.463,0.904,0.912,1.384,1.34V14.616H7.681v0.891L7.893,15.506L7.893,15.506z
				"/>
		</g>
		<g>
			<path fill="#DDDDD7" d="M7.681,15.506h-0.14v27.669c0.046,0.05,0.094,0.097,0.14,0.146V15.506z"/>
		</g>
		<g>
			<path fill="#DDDDD7" d="M7.893,43.543V15.506H7.681v27.816C7.751,43.396,7.821,43.471,7.893,43.543z"/>
		</g>
		<g>
			<path fill="#B9B9B9" d="M5.622,20.032c0-0.49-0.382-0.9-0.853-0.916l-2.788-0.088c-0.174,0.578-0.325,1.166-0.457,1.76
				l3.245,0.104C5.24,20.907,5.622,20.522,5.622,20.032z"/>
		</g>
		<g>
			<path fill="#B9B9B9" d="M5.622,23.667c0-0.49-0.382-0.898-0.853-0.914l-3.586-0.115c-0.084,0.584-0.146,1.174-0.188,1.77
				l3.773,0.119C5.24,24.542,5.622,24.157,5.622,23.667z"/>
		</g>
		<g>
			<path fill="#B9B9B9" d="M5.622,27.199c0-0.492-0.382-0.9-0.853-0.916L0.923,26.16c0,0.025-0.002,0.049-0.002,0.074
				c0,0.575,0.026,1.14,0.064,1.704l3.783,0.121C5.24,28.074,5.622,27.689,5.622,27.199z"/>
		</g>
		<g>
			<path fill="#B9B9B9" d="M5.622,30.832c0-0.49-0.382-0.898-0.853-0.914l-3.59-0.115C1.266,30.406,1.374,31,1.502,31.59
				l3.268,0.104C5.24,31.709,5.622,31.322,5.622,30.832z"/>
		</g>
		<g>
			<path fill="#B9B9B9" d="M5.622,34.52c0-0.489-0.382-0.899-0.853-0.916l-2.768-0.088c0.186,0.609,0.396,1.205,0.626,1.795
				l2.142,0.068C5.24,35.395,5.622,35.008,5.622,34.52z"/>
		</g>
		<g>
			<path fill="#B9B9B9" d="M5.622,38.152c0-0.488-0.382-0.898-0.853-0.914L3.45,37.195c0.301,0.617,0.628,1.219,0.978,1.807
				l0.342,0.01C5.24,39.027,5.622,38.643,5.622,38.152z"/>
		</g>
		<g>
			<path fill="#B9B9B9" d="M10.737,19.116c-0.472,0.016-0.853,0.426-0.853,0.916c0,0.49,0.381,0.875,0.853,0.859l7.871-0.25v-1.775
				L10.737,19.116z"/>
		</g>
		<g>
			<path fill="#B9B9B9" d="M30.936,20.247c0.473-0.016,0.854-0.424,0.854-0.914c0-0.492-0.382-0.877-0.854-0.861l-5.496,0.176v1.775
				L30.936,20.247z"/>
		</g>
		<g>
			<path fill="#B9B9B9" d="M30.936,23.881c0.473-0.016,0.854-0.426,0.854-0.916c0-0.49-0.382-0.875-0.854-0.859l-5.496,0.176v1.775
				L30.936,23.881z"/>
		</g>
		<g>
			<path fill="#B9B9B9" d="M10.737,22.752c-0.472,0.016-0.853,0.424-0.853,0.914s0.381,0.875,0.853,0.859l7.871-0.25V22.5
				L10.737,22.752z"/>
		</g>
		<g>
			<path fill="#B9B9B9" d="M10.737,26.284C10.265,26.3,9.884,26.708,9.884,27.2c0,0.489,0.381,0.875,0.853,0.858l7.871-0.252v-1.774
				L10.737,26.284z"/>
		</g>
		<g>
			<path fill="#B9B9B9" d="M30.936,27.412c0.473-0.016,0.854-0.423,0.854-0.914s-0.382-0.875-0.854-0.859l-5.496,0.176v1.773
				L30.936,27.412z"/>
		</g>
		<g>
			<path fill="#B9B9B9" d="M30.936,31.047c0.473-0.014,0.854-0.424,0.854-0.914c0-0.492-0.382-0.875-0.854-0.859L25.44,29.45v1.772
				L30.936,31.047z"/>
		</g>
		<g>
			<path fill="#B9B9B9" d="M10.737,29.918c-0.472,0.016-0.853,0.424-0.853,0.914s0.381,0.877,0.853,0.861l7.871-0.252v-1.775
				L10.737,29.918z"/>
		</g>
		<g>
			<path fill="#B9B9B9" d="M30.936,34.732c0.473-0.017,0.854-0.426,0.854-0.914c0-0.49-0.382-0.875-0.854-0.859l-5.496,0.176v1.773
				L30.936,34.732z"/>
		</g>
		<g>
			<path fill="#B9B9B9" d="M10.737,33.604c-0.472,0.017-0.853,0.427-0.853,0.916c0,0.488,0.381,0.875,0.853,0.859l7.871-0.252
				v-1.773L10.737,33.604z"/>
		</g>
		<g>
			<polygon fill="#B9B9B9" points="22.279,34.156 21.781,35.025 22.693,34.996 			"/>
		</g>
		<g>
			<path fill="#B9B9B9" d="M30.936,38.367c0.473-0.016,0.854-0.424,0.854-0.914s-0.382-0.875-0.854-0.861l-5.496,0.176v1.775
				L30.936,38.367z"/>
		</g>
		<g>
			<path fill="#B9B9B9" d="M10.737,37.238c-0.472,0.016-0.853,0.426-0.853,0.914c0,0.49,0.381,0.875,0.853,0.858l7.871-0.252v-1.772
				L10.737,37.238z"/>
		</g>
		<g>
			<polygon fill="#B9B9B9" points="19.663,38.727 24.457,38.574 23.596,36.826 20.696,36.92 			"/>
		</g>
		<g>
			<path fill="#B9B9B9" d="M25.311,40.305l-6.674,0.213l-0.028,0.051V40.52l-7.871,0.252c-0.472,0.015-0.853,0.424-0.853,0.914
				s0.381,0.875,0.853,0.859L30.936,41.9c0.473-0.017,0.854-0.426,0.854-0.916c0-0.488-0.382-0.875-0.854-0.857l-5.496,0.174v0.268
				L25.311,40.305z"/>
		</g>
		<g>
			<path fill="#B9B9B9" d="M10.737,46.18l0.108-0.004c-0.323-0.244-0.64-0.498-0.951-0.758C9.942,45.859,10.299,46.193,10.737,46.18
				z"/>
		</g>
		<g>
			<path fill="#B9B9B9" d="M30.936,45.533c0.473-0.016,0.854-0.424,0.854-0.914s-0.382-0.875-0.854-0.859l-20.198,0.646
				c-0.472,0.016-0.853,0.426-0.853,0.913c0,0.035,0.007,0.066,0.01,0.101c0.312,0.261,0.628,0.515,0.951,0.758L30.936,45.533z"/>
		</g>
		<g>
			<rect x="18.608" y="12.545" fill="#BC5638" width="6.831" height="0.016"/>
		</g>
		<g>
			<polygon fill="#C85753" points="25.439,13.772 25.439,12.561 18.608,12.561 18.608,14.096 			"/>
		</g>
		<g>
			<polygon fill="#C85753" points="18.608,14.616 25.439,14.616 25.439,13.772 18.608,14.096 			"/>
		</g>
		<g>
			<polygon fill="#C85753" points="21.781,35.025 18.608,35.127 18.608,36.986 20.696,36.92 			"/>
		</g>
		<g>
			<polygon fill="#C85753" points="25.439,18.647 25.439,14.616 18.608,14.616 18.608,18.866 			"/>
		</g>
		<g>
			<polygon fill="#C85753" points="18.608,26.032 25.439,25.815 25.439,24.057 18.608,24.276 			"/>
		</g>
		<g>
			<polygon fill="#C85753" points="18.608,29.666 25.439,29.449 25.439,27.588 18.608,27.807 			"/>
		</g>
		<g>
			<polygon fill="#C85753" points="18.608,22.5 25.439,22.282 25.439,20.422 18.608,20.641 			"/>
		</g>
		<g>
			<polygon fill="#C85753" points="23.596,36.826 25.439,36.768 25.439,34.908 22.693,34.996 			"/>
		</g>
		<g>
			<polygon fill="#C85753" points="19.663,38.727 18.608,38.76 18.608,40.52 18.637,40.518 			"/>
		</g>
		<g>
			<polygon fill="#C85753" points="18.608,33.354 25.439,33.135 25.439,31.223 18.608,31.441 			"/>
		</g>
		<g>
			<polygon fill="#C85753" points="25.311,40.305 25.439,40.301 25.439,38.543 24.457,38.574 			"/>
		</g>
		<g>
			<polygon fill="#C85753" points="18.608,20.641 25.439,20.422 25.439,18.647 18.608,18.866 			"/>
		</g>
		<g>
			<polygon fill="#C85753" points="18.608,24.276 25.439,24.057 25.439,22.282 18.608,22.5 			"/>
		</g>
		<g>
			<polygon fill="#C85753" points="18.608,27.807 25.439,27.588 25.439,25.815 18.608,26.032 			"/>
		</g>
		<g>
			<polygon fill="#C85753" points="18.608,31.441 25.439,31.223 25.439,29.449 18.608,29.666 			"/>
		</g>
		<g>
			<polygon fill="#C85753" points="18.608,35.127 21.781,35.025 22.279,34.156 22.693,34.996 25.439,34.908 25.439,33.135 
				18.608,33.354 			"/>
		</g>
		<g>
			<polygon fill="#C85753" points="24.457,38.574 25.439,38.543 25.439,36.768 23.596,36.826 			"/>
		</g>
		<g>
			<polygon fill="#C85753" points="20.696,36.92 18.608,36.986 18.608,38.76 19.663,38.727 			"/>
		</g>
		<g>
			<polygon fill="#BC5638" points="18.637,40.518 18.608,40.52 18.608,40.568 			"/>
		</g>
		<g>
			<polygon fill="#BC5638" points="25.439,40.568 25.439,40.301 25.311,40.305 			"/>
		</g>
	</g>
</g>
</svg>
