<?xml version="1.0" encoding="utf-8"?>
<!-- Generator: Adobe Illustrator 16.0.0, SVG Export Plug-In . SVG Version: 6.00 Build 0)  -->
<!DOCTYPE svg PUBLIC "-//W3C//DTD SVG 1.1//EN" "http://www.w3.org/Graphics/SVG/1.1/DTD/svg11.dtd">
<svg version="1.1" id="Layer_1" xmlns="http://www.w3.org/2000/svg" xmlns:xlink="http://www.w3.org/1999/xlink" x="0px" y="0px"
	 width="52px" height="52px" viewBox="0 0 52 52" enable-background="new 0 0 52 52" xml:space="preserve">
<g>
	<path fill="#EFDA82" d="M51,26c0,13.807-11.192,25.002-25,25.002C12.191,51.002,1,39.807,1,26C1,12.194,12.191,1,26,1
		C39.808,1,51,12.194,51,26z"/>
	<g>
		<path fill="#D86767" d="M42.215,23.226c0-4.611-3.426-7.652-7.651-7.652c-2.672,0-5.041,1.342-6.427,3.383l-1.09,1.387
			l-0.983-1.256c-1.361-2.113-3.736-3.514-6.436-3.514c-4.227,0-7.652,2.918-7.652,7.652c0,7.101,13.957,18.256,13.957,18.256
			c0.592,0.593,1.551,0.593,2.143,0C28.074,41.481,42.215,30.142,42.215,23.226z"/>
		<path fill="#C85753" d="M13.144,27.317c3.357,6.625,12.789,14.164,12.789,14.164c0.592,0.592,1.551,0.592,2.143,0
			c0,0,9.334-7.485,12.837-14.004l-10.691-0.074l-1.969-2.674l-2.532,2.656l-2.062-2.375l-3.688,6.25l-1.562-3.91l-2.344-6.09
			l-2.344,6.071L13.144,27.317z"/>
		
			<polyline fill="none" stroke="#FAD6D5" stroke-width="0.9375" stroke-linecap="round" stroke-linejoin="round" stroke-miterlimit="10" points="
			1.967,27.386 13.719,27.386 15.971,20.886 19.969,31.261 23.656,25.011 25.719,27.386 27.969,24.698 30.219,27.386 50.469,27.386 
					"/>
	</g>
</g>
</svg>
