<?xml version="1.0" encoding="utf-8"?>
<!-- Generator: Adobe Illustrator 16.0.0, SVG Export Plug-In . SVG Version: 6.00 Build 0)  -->
<!DOCTYPE svg PUBLIC "-//W3C//DTD SVG 1.1//EN" "http://www.w3.org/Graphics/SVG/1.1/DTD/svg11.dtd">
<svg version="1.1" id="Layer_1" xmlns="http://www.w3.org/2000/svg" xmlns:xlink="http://www.w3.org/1999/xlink" x="0px" y="0px"
	 width="52px" height="52px" viewBox="0 0 52 52" enable-background="new 0 0 52 52" xml:space="preserve">
<g>
	<path fill="#EFDA82" d="M51,26.191c0,13.807-11.193,25.001-25,25.001c-13.808,0-25-11.194-25-25.001c0-13.805,11.192-25,25-25
		C39.807,1.191,51,12.387,51,26.191z"/>
	<g>
		<g>
			<g>
				<g>
					<g>
						<path fill="#B8CD8E" d="M26,51.273c10.629,0,19.702-6.639,23.315-15.992c-6.525-3.934-15.011-5.801-24.287-5.801
							c-8.53,0-16.392,1.58-22.674,4.893C5.719,44.203,15.031,51.273,26,51.273z"/>
					</g>
				</g>
			</g>
		</g>
		<g>
			<g>
				<g>
					<path fill="#D7B37D" d="M27.307,29.523l-0.138-2.34c0-0.857-0.415-1.555-0.926-1.555h-0.246l0.009,3.863
						C26.442,29.5,26.875,29.51,27.307,29.523z"/>
				</g>
				<g>
					<path fill="#D7B37D" d="M26.006,29.493l0.049,21.78c0.853-0.002,1.695-0.051,2.526-0.137l-1.274-21.613
						C26.875,29.51,26.442,29.5,26.006,29.493z"/>
				</g>
				<g>
					<path fill="#CCA572" d="M26.006,29.493l-0.009-3.862h-0.141c-0.51,0-0.925,0.695-0.925,1.554l-0.136,2.3
						c0.078-0.001,0.154-0.003,0.232-0.003C25.356,29.48,25.681,29.488,26.006,29.493z"/>
				</g>
				<g>
					<path fill="#CCA572" d="M26.055,51.273l-0.049-21.78c-0.325-0.005-0.649-0.013-0.978-0.013c-0.078,0-0.153,0.002-0.231,0.003
						l-1.276,21.664c0.816,0.08,1.644,0.126,2.479,0.126C26.019,51.273,26.036,51.273,26.055,51.273z"/>
				</g>
			</g>
			<g>
				<g>
					<path fill="#CCA572" d="M27.306,27.223c0,0.277-0.261,0.503-0.584,0.503h-1.373c-0.322,0-0.583-0.226-0.583-0.503v-1.707
						c0-0.279,0.261-0.504,0.583-0.504h1.373c0.323,0,0.584,0.225,0.584,0.504V27.223z"/>
				</g>
				<g>
					<circle fill="#BB9260" cx="25.983" cy="26.259" r="1.063"/>
				</g>
				<g>
					<g>
						<g>
							<g>
								<path fill="#BB9260" d="M21.776,27.608l1.586,0.086c0.375,0.021,2.381-1.161,2.381-1.161
									c0.021-0.377-0.266-0.697-0.643-0.719L5.556,24.752c-0.377-0.021-0.698,0.269-0.719,0.645
									C4.837,25.396,21.399,27.588,21.776,27.608z"/>
							</g>
							<g>
								<path fill="#CCA572" d="M21.84,27.398l1.586,0.086c0.376,0.021,2.384-1.162,2.384-1.162
									c0.021-0.376-0.268-0.697-0.645-0.719L5.62,24.541c-0.376-0.021-0.698,0.27-0.719,0.645
									C4.901,25.186,21.464,27.379,21.84,27.398z"/>
							</g>
						</g>
						<g>
							<g>
								<path fill="#BB9260" d="M26.889,22.229l-0.771,1.389c-0.184,0.328,0.004,2.65,0.004,2.65
									c0.328,0.184,0.744,0.064,0.928-0.266l9.503-17.111c0.183-0.329,0.063-0.744-0.265-0.928
									C36.287,7.963,27.071,21.899,26.889,22.229z"/>
							</g>
							<g>
								<path fill="#CCA572" d="M26.804,22.033l-0.771,1.389c-0.184,0.328,0.005,2.65,0.005,2.65
									c0.327,0.184,0.743,0.064,0.926-0.266l9.504-17.111c0.185-0.33,0.063-0.745-0.267-0.928
									C36.2,7.768,26.985,21.703,26.804,22.033z"/>
							</g>
						</g>
						<g>
							<g>
								<path fill="#BB9260" d="M29.25,29.227l-0.841-1.35c-0.198-0.318-2.32-1.283-2.32-1.283
									c-0.318,0.199-0.417,0.619-0.217,0.938l10.352,16.612c0.199,0.32,0.621,0.417,0.94,0.219
									C37.164,44.364,29.448,29.547,29.25,29.227z"/>
							</g>
							<g>
								<path fill="#CCA572" d="M29.336,28.998l-0.84-1.349c-0.199-0.319-2.32-1.282-2.32-1.282
									c-0.319,0.198-0.417,0.619-0.217,0.939l10.353,16.611c0.199,0.319,0.621,0.416,0.939,0.217
									C37.251,44.135,29.534,29.318,29.336,28.998z"/>
							</g>
						</g>
					</g>
					<g>
						<circle fill="#CCA572" cx="25.983" cy="26.259" r="0.685"/>
					</g>
				</g>
			</g>
		</g>
	</g>
</g>
</svg>
