<?xml version="1.0" encoding="utf-8"?>
<!-- Generator: Adobe Illustrator 16.0.0, SVG Export Plug-In . SVG Version: 6.00 Build 0)  -->
<!DOCTYPE svg PUBLIC "-//W3C//DTD SVG 1.1//EN" "http://www.w3.org/Graphics/SVG/1.1/DTD/svg11.dtd">
<svg version="1.1" id="Layer_1" xmlns="http://www.w3.org/2000/svg" xmlns:xlink="http://www.w3.org/1999/xlink" x="0px" y="0px"
	 width="66.213px" height="134.906px" viewBox="0 0 66.213 134.906" enable-background="new 0 0 66.213 134.906"
	 xml:space="preserve">
<g>
	<g>
		<g>
			<rect x="26.325" y="58.189" fill="#F9B69B" width="0" height="5.84"/>
			<circle fill="#F9B69B" cx="24.502" cy="58.185" r="1.543"/>
			<polygon fill="#F9B69B" points="22.409,58.189 22.409,64.029 25.09,64.029 26.325,64.029 26.325,58.189 			"/>
			<circle fill="#F9B69B" cx="22.291" cy="61.107" r="2.922"/>
		</g>
		<rect x="26.325" y="58.189" fill="#1F244C" width="24.99" height="5.84"/>
	</g>
	<rect x="12.055" y="71.169" fill="#1D587F" width="41.639" height="10.16"/>
	<path fill="#1D587F" d="M45.813,75.617c0,3.161,2.564,5.725,5.727,5.725h4.332c3.164,0,5.728-2.563,5.728-5.725v-4.334
		c0-3.164-2.563-5.728-5.728-5.728H51.54c-3.162,0-5.727,2.563-5.727,5.728V75.617z"/>
	<rect x="45.813" y="62.935" fill="#1D587F" width="15.762" height="12.682"/>
	<g>
		<g>
			<path fill="#F9B69B" d="M47.75,2.86l-3.047,12.159h1.84v6.435h2.994c0,0,1.43,0.178,1.43,1.43c0,0.536,0,4.957,0,7.103v2.502
				h6.852V30.88V2.637h-9.891L47.75,2.86z"/>
			<circle fill="#195FA5" cx="48.77" cy="9.745" r="0.525"/>
			<path fill="#FC6959" d="M47.682,17.063c0.078,0,0.139-0.063,0.139-0.139h0.537c0,0.371-0.303,0.673-0.676,0.673h-1.148v-0.535
				L47.682,17.063L47.682,17.063z"/>
			<path fill="#33322D" d="M62.631,0v27.573c0,0-1.729,0-3.435,0c-5.168,0-4.893-4.894-4.893-4.894V12.214
				c0.973-0.002,1.762-0.791,1.762-1.765c0-0.974-0.791-1.767-1.767-1.767c-0.771,0-1.422,0.502-1.661,1.193l-0.021-0.073
				c-1.13-0.085-2.021-0.992-2.074-2.128h-0.01V6.268c-0.505,0-1.134,0-1.925,0C42.563,6.268,41.243,0,41.243,0H62.631z"/>
		</g>
		<path fill="#1F244C" d="M42.211,40.766l-0.003-0.003l0.459-0.713v-1.586v-2.605v-3.346c0-1.338,1.085-2.422,2.424-2.422h3.974
			h1.902h6.934h4.148h1.729c1.339,0,2.423,1.084,2.423,2.422v3.646h0.012v10.627h-4.164v12.557h0.02v11.045h-7.787v-7.331h-3.328
			v7.331h-6.35v-7.331V60.44V47.342c-1.934-0.26-3.427-1.912-3.427-3.917C41.177,42.399,41.569,41.468,42.211,40.766z"/>
		<polygon fill="#FFFFFF" points="57.833,30.09 54.272,35.847 54.272,63.123 50.954,63.123 50.954,38.736 50.954,34.63 
			50.954,30.09 		"/>
		<polygon fill="#FC6959" points="57.833,30.09 54.272,35.845 57.819,35.845 		"/>
		<g>
			<circle fill="#FFFFFF" cx="48.581" cy="38.143" r="0.684"/>
			<circle fill="#FFFFFF" cx="48.581" cy="44.981" r="0.684"/>
			<circle fill="#FFFFFF" cx="48.581" cy="51.82" r="0.684"/>
			<circle fill="#FFFFFF" cx="48.581" cy="58.659" r="0.684"/>
		</g>
		<rect x="50.954" y="55.08" fill="#FC6959" width="3.318" height="8.043"/>
	</g>
	<g>
		<g>
			<rect x="41.222" y="58.189" fill="#F9B69B" width="0" height="5.84"/>
			<circle fill="#F9B69B" cx="39.399" cy="58.185" r="1.543"/>
			<polygon fill="#F9B69B" points="37.307,58.189 37.307,64.029 39.987,64.029 41.222,64.029 41.222,58.189 			"/>
			<circle fill="#F9B69B" cx="37.188" cy="61.107" r="2.922"/>
		</g>
		<rect x="41.222" y="58.189" fill="#1F244C" width="24.989" height="5.84"/>
	</g>
	<g display="none">
		
			<rect x="73.939" y="53.631" transform="matrix(-0.9768 -0.2143 0.2143 -0.9768 133.5362 153.3104)" display="inline" fill="#9B9B9B" width="2.279" height="31.571"/>
		<path display="inline" fill="#005493" d="M76.924,75.916c-0.402,1.729-2.129,2.803-3.857,2.399l0,0
			c-1.729-0.403-2.803-2.133-2.398-3.858l13.689-58.669c0.402-1.727,2.131-2.801,3.859-2.397l0,0
			c1.729,0.403,2.801,2.131,2.398,3.858L76.924,75.916z"/>
	</g>
	<g display="none">
		<g display="inline">
			<rect x="44.615" y="110.394" fill="#9B9B9B" width="6.051" height="15.898"/>
			<rect x="46.5" y="81.974" fill="#9B9B9B" width="2.278" height="31.574"/>
			<g>
				
					<rect x="55.452" y="117.802" transform="matrix(-0.2709 0.9626 -0.9626 -0.2709 194.526 108.1902)" fill="#9B9B9B" width="1.673" height="19.93"/>
				
					<rect x="38.175" y="117.801" transform="matrix(0.272 0.9623 -0.9623 0.272 151.3501 55.4763)" fill="#9B9B9B" width="1.671" height="19.93"/>
				<circle fill="#9B9B9B" cx="29.632" cy="132.175" r="2.522"/>
				<circle fill="#9B9B9B" cx="65.648" cy="132.175" r="2.522"/>
			</g>
			<rect x="46.717" y="124.802" fill="#9B9B9B" width="1.848" height="6.475"/>
			<rect x="45.682" y="129.667" fill="#9B9B9B" width="3.917" height="5.031"/>
		</g>
		<path display="inline" fill="#0085BA" d="M74.387,85.087c0,1.994-1.619,3.613-3.615,3.613H24.507
			c-1.996,0-3.613-1.619-3.613-3.613l0,0c0-1.998,1.617-3.615,3.613-3.615h46.265C72.768,81.472,74.387,83.089,74.387,85.087
			L74.387,85.087z"/>
	</g>
	<g display="none">
		<g display="inline">
			<rect x="61.788" y="65.556" fill="#9B9B9B" width="2.279" height="17.115"/>
			<circle fill="#9B9B9B" cx="62.932" cy="82.671" r="1.145"/>
		</g>
		<path display="inline" fill="#0085BA" d="M79.735,66.489c0,1.357-1.1,2.458-2.459,2.458H32.458c-1.357,0-2.457-1.1-2.457-2.458
			l0,0c0-1.359,1.1-2.459,2.457-2.459h44.818C78.635,64.03,79.735,65.13,79.735,66.489L79.735,66.489z"/>
	</g>
	<rect x="12.055" y="73.449" fill="#1D587F" width="17.577" height="10.834"/>
	<g>
		<rect x="12.072" y="84.283" fill="#F9B69B" width="5.841" height="37.704"/>
		<path fill="#141938" d="M3.387,131.501c0.051,0,0.1,0.002,0.149,0.004v-0.004H6.9c3.114-2.201,5.149-5.828,5.149-9.931h5.863
			v3.158v3.537v6.618h-3.658v-4.088l-3.762,4.088h-3.72H3.235H0C0,133.017,1.517,131.501,3.387,131.501z"/>
		<rect x="12.072" y="84.283" opacity="0.4" fill="#B78C7D" enable-background="new    " width="5.841" height="1.604"/>
	</g>
	<g>
		<path fill="#1F244C" d="M15.104,131.519c0.051,0,0.101,0.002,0.15,0.004l0.001-0.004h3.362c3.115-2.199,5.15-5.828,5.15-9.93
			h5.863v3.16v3.535v6.621h-3.658v-4.089l-3.763,4.089H18.49h-3.536H11.72C11.72,133.035,13.234,131.519,15.104,131.519z"/>
		<g>
			<rect x="23.772" y="84.283" fill="#F9B69B" width="5.841" height="37.704"/>
			<rect x="23.772" y="84.283" opacity="0.4" fill="#B78C7D" enable-background="new    " width="5.841" height="1.604"/>
		</g>
	</g>
	<rect x="60.959" y="44.981" fill="#1F244C" width="5.252" height="16.125"/>
	<rect x="42.667" y="39.119" fill="#1F244C" width="4.552" height="20.609"/>
</g>
</svg>
