<?xml version="1.0" encoding="utf-8"?>
<!-- Generator: Adobe Illustrator 16.0.0, SVG Export Plug-In . SVG Version: 6.00 Build 0)  -->
<!DOCTYPE svg PUBLIC "-//W3C//DTD SVG 1.1//EN" "http://www.w3.org/Graphics/SVG/1.1/DTD/svg11.dtd">
<svg version="1.1" id="Layer_1" xmlns="http://www.w3.org/2000/svg" xmlns:xlink="http://www.w3.org/1999/xlink" x="0px" y="0px"
	 width="68.156px" height="182.292px" viewBox="0 0 68.156 182.292" enable-background="new 0 0 68.156 182.292"
	 xml:space="preserve">
<g>
	<g>
		<path fill="#F8B69C" d="M45.135,86.724c-0.035,0-0.066,0.01-0.102,0.01v-1.358v-0.313H37.92l0,0v3.379v4.457
			c0,0.004,0,0.006,0,0.006c0,0.004,0,0.004,0,0.004v0.348h0.036c0.179,1.801,1.677,3.205,3.521,3.205
			c1.845,0,3.342-1.404,3.521-3.205h0.035v-0.342c0,0,0-0.006,0-0.01c0,0,0-0.002,0-0.006v-3.652c0.035,0.006,0.066,0.01,0.102,0.01
			c0.7,0,1.268-0.566,1.268-1.263C46.403,87.291,45.835,86.724,45.135,86.724z"/>
		<path fill="#FFFFFF" d="M35.886,50.37v29.332c0,1.032,0.841,1.875,1.877,1.875h0.158v0.16v3.326h7.112v-3.326v-2.035v-1.288V50.37
			H35.886z"/>
		<rect x="37.92" y="81.577" opacity="0.3" fill="#84A8C1" width="7.112" height="3.485"/>
	</g>
	<g>
		<path fill="#F8B69C" d="M35.258,2.905l-0.182-0.224H22.036v27.818l0,0v10.5h9.951v-10.5l0,0v-0.011c0-2.181,0-2.181,0-2.728
			c0-1.271,1.453-1.455,1.453-1.455h3.045V14.311h3.863L35.258,2.905z"/>
		<circle fill="#2F3E4A" cx="33.383" cy="7.211" r="0.534"/>
		<path fill="#CF867C" d="M34.663,17.333c-0.203,0-0.369-0.167-0.369-0.371h-0.547c0,0.503,0.413,0.917,0.916,0.917h1.821v-0.545
			H34.663z"/>
		<path fill="none" d="M28.661,7.906c0,0.013,0.001,0.023,0.001,0.036V7.906H28.661z"/>
		<path fill="#4F585C" d="M21.444,0v15.583c0,0,0,0,1.409,0c4.271,0,4.045-4.044,4.045-4.044V9.734c-0.01,0-0.02,0.002-0.029,0.002
			c-0.99,0-1.794-0.802-1.794-1.794c0-0.991,0.805-1.794,1.794-1.794c0.979,0,1.771,0.782,1.792,1.758h0.001v0.036v1.794h1.916
			V5.179c0.608,0,1.397,0,2.454,0C38.029,5.179,39.121,0,39.121,0H21.444z"/>
	</g>
	<g>
		<path fill="#1F2328" d="M51.034,178.367c-0.657-1.963-1.278-2.18-5.521-2.385l-3.092-0.986c-1.732-0.426-3.257-1.385-4.39-2.688
			c-0.256-0.291-0.489-0.604-0.702-0.934c-1.958,0.145-1.678,1.924-1.678,1.924h-5.517v0.748v1.039v1.035v2.246v0.984v0.59h6.075
			v-0.59v-0.982l2.696,1.572h12.385C51.292,179.389,51.201,178.859,51.034,178.367z"/>
		<rect x="30.135" y="81.011" fill="#212F42" width="9.211" height="92.597"/>
	</g>
	<g>
		<path fill="#2D323B" d="M36.738,178.367c-0.659-1.963-1.279-2.18-5.522-2.385l-3.09-0.986c-1.733-0.426-3.257-1.385-4.391-2.688
			c-0.254-0.291-0.487-0.604-0.701-0.934c-1.958,0.145-1.679,1.924-1.679,1.924h-5.515v0.748v1.039v1.035v2.246v0.984v0.59h6.074
			v-0.59v-0.982l2.695,1.572h12.388C36.996,179.389,36.904,178.859,36.738,178.367z"/>
		<rect x="15.839" y="80.653" fill="#212F42" width="9.211" height="92.955"/>
	</g>
	<g>
		<path fill="#FFFFFF" d="M39.16,30.499h-5.707h-0.246l-1.226-2.556l-2.241,6.64l-1.916-6.64h-2.097H23.88h-1.844v2.556h-2.02
			h-5.705c-3.24,0-5.868,2.626-5.868,5.868v4.298v17.04h7.396v17.004h0.582h20.45h2.447V57.705h5.705v-6.926v-6.102v-8.311
			C45.023,33.125,42.397,30.499,39.16,30.499z"/>
		<polygon opacity="0.3" fill="#84A8C1" points="28.949,31.844 27.824,27.943 26.115,31.294 		"/>
		<path opacity="0.3" fill="#84A8C1" d="M30.069,50.491c0,0.773,0.625,1.4,1.398,1.4h5.479c0.773,0,1.398-0.626,1.398-1.4v-7.309
			h-8.275V50.491z"/>
	</g>
	<path fill="#212F42" d="M15.839,82.854c0,4.709,3.816,8.525,8.526,8.525h6.45c4.709,0,8.526-3.815,8.526-8.525v-5.363H15.839
		V82.854z"/>
	<rect x="15.839" y="75.778" fill="#9B3C21" width="23.447" height="2.07"/>
	<g>
		<path fill="#F8B69C" d="M17.695,86.724c-0.037,0-0.069,0.01-0.104,0.01v-1.358v-0.313h-7.113l0,0v3.379v4.457
			c0,0.004,0,0.006,0,0.006c0,0.004,0,0.004,0,0.004v0.348h0.036c0.178,1.801,1.676,3.205,3.521,3.205
			c1.845,0,3.343-1.404,3.522-3.205h0.034v-0.342c0,0,0-0.006,0-0.01c0,0,0-0.002,0-0.006v-3.652c0.035,0.006,0.066,0.01,0.104,0.01
			c0.7,0,1.266-0.566,1.266-1.263C18.96,87.291,18.395,86.724,17.695,86.724z"/>
		<path fill="#FFFFFF" d="M8.444,50.37v29.332c0,1.032,0.841,1.875,1.876,1.875h0.158v0.16v3.326h7.112v-3.326v-2.035v-1.288V50.37
			H8.444z"/>
		<rect x="10.478" y="81.577" opacity="0.3" fill="#84A8C1" width="7.112" height="3.485"/>
	</g>
</g>
</svg>
