<?xml version="1.0" encoding="utf-8"?>
<!-- Generator: Adobe Illustrator 16.0.0, SVG Export Plug-In . SVG Version: 6.00 Build 0)  -->
<!DOCTYPE svg PUBLIC "-//W3C//DTD SVG 1.1//EN" "http://www.w3.org/Graphics/SVG/1.1/DTD/svg11.dtd">
<svg version="1.1" id="Layer_1" xmlns="http://www.w3.org/2000/svg" xmlns:xlink="http://www.w3.org/1999/xlink" x="0px" y="0px"
	 width="68.156px" height="182.292px" viewBox="0 0 68.156 182.292" enable-background="new 0 0 68.156 182.292"
	 xml:space="preserve">
<g>
	<g>
		<path fill="#F8B69C" d="M39.557,86.483c-0.035-0.002-0.068,0-0.104,0l0.166-1.352l0.037-0.311l-7.059-0.861l0,0l-0.41,3.352
			l-0.539,4.426c0,0.005,0,0.005,0,0.005c-0.002,0.006,0,0.006,0,0.006l-0.043,0.348l0.035,0.001
			c-0.039,1.807,1.275,3.388,3.107,3.61c1.83,0.222,3.487-0.994,3.883-2.756l0.033,0.004l0.043-0.345c0,0,0.002-0.003,0.002-0.005
			c0,0,0-0.005,0-0.009l0.44-3.622c0.035,0.005,0.064,0.018,0.103,0.021c0.692,0.084,1.326-0.409,1.41-1.103
			C40.747,87.201,40.252,86.571,39.557,86.483z"/>
		<path fill="#FFFFFF" d="M35.852,40.435l-4.626,37.958c-0.125,1.028,0.609,1.963,1.637,2.089l0.154,0.021l-0.018,0.159
			l-0.402,3.299l7.061,0.861l0.401-3.301l0.246-2.02l0.154-1.279L44.93,41.54L35.852,40.435z"/>
		
			<rect x="32.778" y="80.918" transform="matrix(-0.9926 -0.1211 0.1211 -0.9926 62.3884 169.1115)" opacity="0.3" fill="#84A8C1" enable-background="new    " width="7.111" height="3.484"/>
	</g>
	<g>
		<path fill="#F8B69C" d="M35.342,2.906l-0.18-0.226h-13.04v27.819l0,0V41h9.951V30.5l0,0v-0.011c0-2.181,0-2.181,0-2.729
			c0-1.271,1.453-1.454,1.453-1.454h3.042V14.312h3.865L35.342,2.906z"/>
		<circle fill="#2F3E4A" cx="33.47" cy="7.213" r="0.534"/>
		<path fill="#CF867C" d="M34.749,17.334c-0.205,0-0.369-0.167-0.369-0.372h-0.545c0,0.503,0.412,0.917,0.914,0.917h1.819v-0.545
			H34.749z"/>
		<path fill="none" d="M28.747,7.906c0,0.014,0.004,0.024,0.004,0.037V7.906H28.747z"/>
		<path fill="#4F585C" d="M21.53,0v15.583c0,0,0,0,1.41,0c4.27,0,4.043-4.043,4.043-4.043V9.735c-0.01,0-0.016,0.002-0.027,0.002
			c-0.992,0-1.793-0.803-1.793-1.794c0-0.991,0.801-1.794,1.793-1.794c0.979,0,1.77,0.783,1.791,1.757h0.004v0.037v1.794h1.914
			V5.179c0.609,0,1.398,0,2.453,0c4.998,0,6.09-5.178,6.09-5.178L21.53,0L21.53,0z"/>
	</g>
	<g>
		<path fill="#1F2328" d="M67.624,174.716c-0.996-1.812-1.646-1.92-5.854-1.367l-3.22-0.426c-1.778-0.11-3.448-0.784-4.797-1.864
			c-0.301-0.245-0.588-0.513-0.854-0.795c-1.902,0.485-1.312,2.188-1.312,2.188l-5.428,0.975l0.131,0.736l0.185,1.02l0.182,1.023
			l0.4,2.207l0.174,0.973l0.104,0.58l5.978-1.072l-0.105-0.584l-0.172-0.964l2.932,1.069l12.191-2.191
			C68.057,175.68,67.874,175.175,67.624,174.716z"/>
		
			<rect x="37.947" y="81.046" transform="matrix(-0.9842 0.177 -0.177 -0.9842 106.9737 245.1486)" fill="#212F42" width="9.211" height="92.6"/>
	</g>
	<g>
		<path fill="#2D323B" d="M20.948,180.477c-0.326-2.039-0.904-2.358-5.053-3.257l-2.889-1.482c-1.639-0.703-2.984-1.896-3.891-3.369
			c-0.203-0.332-0.383-0.68-0.537-1.033c-1.955-0.18-1.971,1.621-1.971,1.621l-5.441-0.906l-0.123,0.734l-0.17,1.023l-0.172,1.023
			l-0.367,2.213l-0.162,0.974l-0.098,0.584l5.99,0.994l0.096-0.582l0.162-0.97l2.402,1.998l12.219,2.031
			C21.036,181.531,21.03,180.994,20.948,180.477z"/>
		
			<rect x="8.683" y="80.786" transform="matrix(-0.9864 -0.1641 0.1641 -0.9864 5.5134 254.9886)" fill="#212F42" width="9.21" height="92.961"/>
	</g>
	<g>
		<path fill="#FFFFFF" d="M39.247,30.499h-5.709h-0.246l-1.227-2.555l-2.238,6.639l-1.918-6.639h-2.096h-1.848h-1.844v2.555h-2.02
			h-5.703c-3.242,0-5.869,2.627-5.869,5.868v2.163c0,0,0.068,2.323,0.307,2.858l7.088,0.28v34.847h0.582h20.451h2.447V41.668H44.9
			c0.111-0.28,0.209-2.921,0.209-2.921v-2.38C45.109,33.126,42.482,30.499,39.247,30.499z"/>
		<polygon opacity="0.3" fill="#84A8C1" enable-background="new    " points="29.036,31.845 27.909,27.944 26.202,31.294 		"/>
		<path opacity="0.3" fill="#84A8C1" enable-background="new    " d="M30.155,50.491c0,0.774,0.625,1.399,1.398,1.399h5.479
			c0.772,0,1.397-0.625,1.397-1.399v-7.31h-8.275V50.491z"/>
	</g>
	<path fill="#212F42" d="M15.924,82.856c0,4.708,3.818,8.525,8.527,8.525H30.9c4.709,0,8.527-3.816,8.527-8.525v-5.365H15.924
		V82.856z"/>
	<rect x="15.924" y="75.78" fill="#9B3C21" width="23.449" height="2.069"/>
	<g>
		<path fill="#F8B69C" d="M25.534,84.281c-0.033,0.005-0.062,0.021-0.096,0.03l-0.232-1.344l-0.053-0.307l-7.01,1.203l0,0
			l0.57,3.327l0.752,4.395c0.002,0.001,0,0.005,0,0.005c0.004,0.005,0.004,0.005,0.004,0.005l0.059,0.344l0.033-0.007
			c0.48,1.739,2.193,2.874,4.014,2.563c1.816-0.31,3.055-1.951,2.928-3.754l0.033-0.005l-0.059-0.339v-0.005c0,0,0-0.005,0-0.009
			l-0.617-3.595c0.033-0.005,0.068-0.004,0.104-0.009c0.689-0.118,1.152-0.773,1.035-1.459
			C26.881,84.629,26.225,84.165,25.534,84.281z"/>
		<path fill="#FFFFFF" d="M8.776,41.232l6.457,37.688c0.174,1.02,1.146,1.709,2.166,1.535l0.156-0.028l0.025,0.157l0.561,3.28
			l7.012-1.203l-0.561-3.276l-0.346-2.009l-0.217-1.267l-6.24-36.423L8.776,41.232z"/>
		
			<rect x="17.802" y="79.798" transform="matrix(-0.9856 0.1692 -0.1692 -0.9856 56.2017 158.2956)" opacity="0.3" fill="#84A8C1" enable-background="new    " width="7.112" height="3.488"/>
	</g>
</g>
</svg>
