<?xml version="1.0" encoding="utf-8"?>
<!-- Generator: Adobe Illustrator 16.0.0, SVG Export Plug-In . SVG Version: 6.00 Build 0)  -->
<!DOCTYPE svg PUBLIC "-//W3C//DTD SVG 1.1//EN" "http://www.w3.org/Graphics/SVG/1.1/DTD/svg11.dtd">
<svg version="1.1" id="Layer_1" xmlns="http://www.w3.org/2000/svg" xmlns:xlink="http://www.w3.org/1999/xlink" x="0px" y="0px"
	 width="68.156px" height="182.292px" viewBox="0 0 68.156 182.292" enable-background="new 0 0 68.156 182.292"
	 xml:space="preserve">
<g>
	<g>
		<path fill="#F8B69C" d="M54.127,84.432c-0.035,0.005-0.064,0.018-0.098,0.026l-0.211-1.347l-0.047-0.308l-7.029,1.098l0,0
			l0.521,3.338l0.688,4.405c0.002,0.005,0.002,0.005,0.002,0.005c0,0.005,0,0.005,0,0.005L48.008,92l0.035-0.006
			c0.455,1.75,2.152,2.909,3.973,2.625c1.822-0.285,3.086-1.908,2.986-3.71l0.035-0.005l-0.055-0.34c0,0,0-0.005,0-0.006
			c0,0,0-0.003-0.002-0.009l-0.562-3.606c0.033-0.002,0.066,0.001,0.102-0.004c0.691-0.108,1.164-0.757,1.058-1.445
			C55.467,84.796,54.82,84.324,54.127,84.432z"/>
		<path fill="#FFFFFF" d="M38.398,43.69l5.506,35.228c0.16,1.025,1.121,1.724,2.143,1.564l0.158-0.024l0.023,0.159l0.514,3.288
			l7.027-1.098l-0.515-3.287l-0.313-2.014l-0.199-1.272L47.73,44.155l-0.646-1.821L38.398,43.69z"/>
		
			<rect x="46.431" y="79.887" transform="matrix(-0.988 0.1545 -0.1545 -0.988 111.9842 154.558)" opacity="0.3" fill="#84A8C1" enable-background="new    " width="7.113" height="3.485"/>
	</g>
	<g>
		<path fill="#F8B69C" d="M35.219,2.907l-0.182-0.229h-13.04v27.818l0,0v10.5h9.951v-10.5l0,0v-0.011c0-2.179,0-2.179,0-2.724
			c0-1.271,1.453-1.454,1.453-1.454h3.044V14.311h3.863L35.219,2.907z"/>
		<circle fill="#2F3E4A" cx="33.345" cy="7.213" r="0.534"/>
		<path fill="#CF867C" d="M34.625,17.331c-0.203,0-0.369-0.164-0.369-0.371h-0.547c0,0.505,0.412,0.917,0.916,0.917h1.82V17.33
			L34.625,17.331L34.625,17.331z"/>
		<path fill="none" d="M28.623,7.904c0,0.014,0.002,0.024,0.002,0.039V7.904H28.623z"/>
		<path fill="#4F585C" d="M21.406,0v15.582c0,0,0,0,1.409,0c4.271,0,4.044-4.043,4.044-4.043V9.734
			c-0.01,0.003-0.02,0.003-0.029,0.003c-0.989,0-1.794-0.805-1.794-1.794c0-0.992,0.805-1.794,1.794-1.794
			c0.979,0,1.771,0.783,1.793,1.755h0.002v0.039v1.794h1.915V5.179c0.608,0,1.397,0,2.455,0C37.99,5.179,39.082,0,39.082,0H21.406z"
			/>
	</g>
	<g>
		<path fill="#1F2328" d="M30.583,180.535c-0.233-2.053-0.794-2.4-4.901-3.486l-2.815-1.61c-1.606-0.776-2.896-2.033-3.73-3.543
			c-0.188-0.345-0.354-0.694-0.492-1.062c-1.946-0.271-2.043,1.531-2.043,1.531l-5.396-1.154l-0.154,0.732l-0.217,1.012
			l-0.217,1.016l-0.47,2.193l-0.205,0.969l-0.125,0.574l5.938,1.27l0.125-0.578l0.206-0.959l2.307,2.102l12.112,2.59
			C30.622,181.587,30.64,181.052,30.583,180.535z"/>
		<polygon fill="#212F42" points="22.749,117.234 11.142,171.509 20.149,173.437 27.436,139.343 		"/>
		<polygon fill="#212F42" points="27.622,94.446 30.505,80.961 39.303,82.854 39.16,84.491 32.307,116.555 		"/>
	</g>
	<g>
		<path fill="#2D323B" d="M56.496,174.432c-1.055-1.774-1.705-1.863-5.898-1.177l-3.229-0.317c-1.783-0.054-3.475-0.671-4.855-1.706
			c-0.311-0.236-0.604-0.494-0.881-0.77c-1.885,0.552-1.238,2.232-1.238,2.232L35,173.85l0.156,0.729l0.217,1.014l0.217,1.014
			l0.469,2.193l0.207,0.97l0.123,0.573l5.941-1.268l-0.125-0.576L42,177.537l2.965,0.973l12.111-2.588
			C56.961,175.38,56.762,174.882,56.496,174.432z"/>
		<polygon fill="#212F42" points="44.072,172.223 35.064,174.146 15.633,83.25 24.641,81.321 		"/>
	</g>
	<g>
		<path fill="#FFFFFF" d="M39.121,30.497h-5.707h-0.246l-1.226-2.555l-2.241,6.642l-1.915-6.642h-2.098h-1.847h-1.845v2.555h-2.019
			h-5.705c-2.014,0-3.79,1.015-4.848,2.562C8.782,34,7.802,40.482,7.802,40.482l-0.676,3.672H15.8v32.359h0.582h20.45h2.447V44.155
			h8.451c0,0-0.551-2.881-1.312-5.78c-0.762-2.898-1.121-3.702-1.467-4.451C44.02,31.914,41.48,30.497,39.121,30.497z"/>
		<polygon opacity="0.3" fill="#84A8C1" enable-background="new    " points="28.91,31.844 27.786,27.942 26.077,31.292 		"/>
		<path opacity="0.3" fill="#84A8C1" enable-background="new    " d="M30.03,50.49c0,0.773,0.626,1.4,1.398,1.4h5.478
			c0.773,0,1.398-0.626,1.398-1.4v-7.309H30.03V50.49z"/>
	</g>
	<path fill="#212F42" d="M15.8,82.854c0,4.709,3.816,8.528,8.526,8.528h6.45c4.708,0,8.526-3.819,8.526-8.528v-5.361H15.8V82.854z"
		/>
	<rect x="15.8" y="75.778" fill="#9B3C21" width="23.448" height="2.073"/>
	<g>
		<path fill="#F8B69C" d="M10.206,87.13c-0.037-0.006-0.069-0.002-0.104-0.004l0.198-1.349l0.044-0.31L3.305,84.44l0,0l-0.488,3.343
			l-0.644,4.412c0,0.006,0,0.006,0,0.006c-0.002,0.004-0.002,0.004-0.002,0.004l-0.05,0.346l0.035,0.006
			c-0.083,1.804,1.196,3.412,3.021,3.68c1.825,0.266,3.512-0.91,3.947-2.662l0.035,0.004l0.05-0.34c0,0,0-0.006,0-0.008
			c0,0,0.001-0.003,0.002-0.008l0.526-3.611c0.034,0.007,0.064,0.021,0.101,0.026c0.693,0.102,1.335-0.379,1.436-1.069
			C11.376,87.874,10.899,87.231,10.206,87.13z"/>
		<path fill="#FFFFFF" d="M7.213,43.56L2.065,78.842c-0.148,1.026,0.563,1.978,1.586,2.127l0.157,0.023l-0.023,0.16l-0.48,3.292
			l7.037,1.027l0.479-3.292l0.295-2.017l0.186-1.274l5.346-36.034L7.213,43.56z"/>
		
			<rect x="3.52" y="81.485" transform="matrix(-0.9895 -0.1444 0.1444 -0.9895 2.058 166.6054)" opacity="0.3" fill="#84A8C1" enable-background="new    " width="7.111" height="3.485"/>
	</g>
</g>
</svg>
