<?xml version="1.0" encoding="utf-8"?>
<!-- Generator: Adobe Illustrator 16.0.0, SVG Export Plug-In . SVG Version: 6.00 Build 0)  -->
<!DOCTYPE svg PUBLIC "-//W3C//DTD SVG 1.1//EN" "http://www.w3.org/Graphics/SVG/1.1/DTD/svg11.dtd">
<svg version="1.1" id="Layer_1" xmlns="http://www.w3.org/2000/svg" xmlns:xlink="http://www.w3.org/1999/xlink" x="0px" y="0px"
	 width="77.763px" height="139.079px" viewBox="0 0 77.763 139.079" enable-background="new 0 0 77.763 139.079"
	 xml:space="preserve">
<g>
	<rect x="42.148" y="54.601" fill="#FFFFFF" width="8.302" height="9.79"/>
	<g display="none">
		
			<rect x="77.208" y="58.55" transform="matrix(-0.9767 -0.2147 0.2147 -0.9767 138.917 163.4453)" display="inline" fill="#9B9B9B" width="2.256" height="31.254"/>
		<path display="inline" fill="#005493" d="M80.156,80.608c-0.399,1.709-2.109,2.773-3.819,2.373l0,0
			c-1.711-0.398-2.772-2.109-2.374-3.82l13.552-58.074c0.398-1.71,2.108-2.773,3.82-2.374l0,0c1.71,0.399,2.771,2.109,2.373,3.819
			L80.156,80.608z"/>
	</g>
	<g display="none">
		<g display="inline">
			<rect x="48.173" y="114.737" fill="#9B9B9B" width="5.99" height="15.738"/>
			<rect x="50.039" y="86.604" fill="#9B9B9B" width="2.257" height="31.254"/>
			<g>
				
					<rect x="58.901" y="122.064" transform="matrix(-0.2707 0.9627 -0.9627 -0.2707 202.9009 110.1493)" fill="#9B9B9B" width="1.656" height="19.729"/>
				
					<rect x="41.8" y="122.073" transform="matrix(0.2711 0.9625 -0.9625 0.2711 158.0651 55.132)" fill="#9B9B9B" width="1.657" height="19.728"/>
				<circle fill="#9B9B9B" cx="33.341" cy="136.298" r="2.497"/>
				<circle fill="#9B9B9B" cx="68.994" cy="136.298" r="2.497"/>
			</g>
			<rect x="50.254" y="128.999" fill="#9B9B9B" width="1.828" height="6.41"/>
			<rect x="49.229" y="133.815" fill="#9B9B9B" width="3.877" height="4.98"/>
		</g>
		<path display="inline" fill="#0085BA" d="M77.644,89.685c0,1.978-1.603,3.578-3.578,3.578H28.268
			c-1.976,0-3.576-1.603-3.576-3.578l0,0c0-1.978,1.602-3.578,3.576-3.578h45.798C76.042,86.106,77.644,87.708,77.644,89.685
			L77.644,89.685z"/>
	</g>
	<g>
		<g>
			<path fill="#2C313A" d="M0.305,137.545c0.641-1.905,1.243-2.119,5.37-2.317l3.007-0.961c1.688-0.412,3.168-1.345,4.271-2.61
				c0.25-0.287,0.476-0.591,0.685-0.908c1.903,0.139,1.631,1.871,1.631,1.871h5.364v0.725v1.01v1.01v2.184v0.959v0.574h-5.905
				v-0.574v-0.955l-2.625,1.529H0.055C0.055,138.542,0.145,138.026,0.305,137.545z"/>
			<rect x="11.674" y="81.12" fill="#202E42" width="8.959" height="51.797"/>
		</g>
		<path fill="#1F2328" d="M11.766,137.545c0.639-1.905,1.241-2.119,5.368-2.317l3.009-0.961c1.686-0.412,3.168-1.345,4.271-2.61
			c0.248-0.287,0.476-0.591,0.683-0.908c1.903,0.139,1.633,1.871,1.633,1.871h5.364v0.725v1.01v1.01v2.184v0.959v0.574h-5.907
			v-0.574v-0.955l-2.623,1.529H11.514C11.514,138.542,11.602,138.026,11.766,137.545z"/>
		<rect x="23.133" y="81.12" fill="#202E42" width="8.961" height="51.797"/>
		<rect x="11.674" y="77.159" fill="#202E42" width="51.002" height="8.959"/>
		<path fill="#202E42" d="M48.241,77.827c0,4.58,3.713,8.291,8.293,8.291h6.275c4.581,0,8.294-3.711,8.294-8.291v-6.275
			c0-4.58-3.713-8.292-8.294-8.292h-6.275c-4.58,0-8.293,3.712-8.293,8.292V77.827z"/>
	</g>
	<g>
		<path fill="#F9B69B" d="M25.953,61.818c0,0.034-0.006,0.066-0.008,0.1h3.027h32.374v6.924H28.973h-4.689h-4.338
			c-0.004,0-0.004,0-0.008,0c-0.002,0-0.004,0-0.008,0h-0.337v-0.035c-1.747-0.173-3.118-1.632-3.118-3.427
			c0-1.796,1.371-3.254,3.118-3.428v-0.034h0.337c0.004,0,0.006,0,0.008,0c0.004,0,0.004,0,0.008,0h3.553
			c-0.004-0.034-0.012-0.066-0.012-0.1c0-0.681,0.555-1.234,1.231-1.234C25.402,60.584,25.953,61.137,25.953,61.818z"/>
		<path fill="#FFFFFF" d="M61.347,59.938H32.793c-1.01,0-1.826,0.818-1.826,1.827v0.153h-0.155h-3.238v6.924h3.238h1.981h1.254
			h27.301V59.938z"/>
		<rect x="27.574" y="61.919" opacity="0.3" fill="#84A8C1" enable-background="new    " width="3.395" height="6.923"/>
	</g>
	<g>
		<g>
			<path fill="#F9B69B" d="M51.657,2.831l0.177-0.221H64.53v27.083l0,0v10.221h-9.688V29.693l0,0v-0.01c0-2.122,0-2.122,0-2.654
				c0-1.239-1.415-1.416-1.415-1.416h-2.964V13.935h-3.76L51.657,2.831z"/>
			<circle fill="#2E3D49" cx="53.481" cy="7.022" r="0.52"/>
			<path fill="#CE857C" d="M52.234,16.874c0.199,0,0.361-0.161,0.361-0.36h0.53c0,0.491-0.4,0.892-0.893,0.892h-1.771v-0.531
				L52.234,16.874L52.234,16.874z"/>
			<path fill="none" d="M58.08,7.697c0,0.013-0.003,0.024-0.003,0.037V7.697H58.08z"/>
			<path fill="#4F575B" d="M65.104,0v15.174c0,0,0,0-1.372,0c-4.157,0-3.937-3.938-3.937-3.938V9.479
				c0.01,0,0.019,0.003,0.026,0.003c0.965,0,1.747-0.782,1.747-1.747c0-0.965-0.782-1.748-1.747-1.748
				c-0.951,0-1.723,0.764-1.743,1.711h-0.003v0.037v1.747h-1.864v-4.44c-0.593,0-1.361,0-2.389,0C48.958,5.042,47.896,0,47.896,0
				H65.104z"/>
		</g>
		<g>
			<rect x="47.735" y="72.733" fill="#9B390D" width="22.826" height="2.016"/>
			<polygon fill="#202E42" points="49.979,74.749 49.979,72.733 51.003,72.733 51.003,74.749 64.661,74.749 64.661,72.733 
				65.685,72.733 65.685,74.749 70.562,74.749 70.562,77.413 47.735,77.413 47.735,74.749 			"/>
		</g>
		<g>
			<path fill="#FFFFFF" d="M47.857,29.694h5.556h0.24l1.195-2.49l2.181,6.466l1.866-6.466h2.041h1.797h1.797v2.49h1.964h5.555
				c3.154,0,5.714,2.556,5.714,5.71v4.186v16.589h-7.2v16.555h-0.566h-19.91h-2.381V56.179H42.15v-6.741v-5.943v-8.09
				C42.15,32.25,44.705,29.694,47.857,29.694z"/>
			<polygon opacity="0.3" fill="#84A8C1" enable-background="new    " points="57.799,31.004 58.896,27.204 60.558,30.467 			"/>
			<path opacity="0.3" fill="#84A8C1" enable-background="new    " d="M56.71,49.156c0,0.752-0.608,1.362-1.36,1.362h-5.335
				c-0.753,0-1.361-0.61-1.361-1.362v-7.115h8.058L56.71,49.156L56.71,49.156z"/>
		</g>
	</g>
	<g display="none">
		<g display="inline">
			<rect x="65.172" y="70.353" fill="#9B9B9B" width="2.258" height="16.94"/>
			<circle fill="#9B9B9B" cx="66.305" cy="87.294" r="1.134"/>
		</g>
		<path display="inline" fill="#0085BA" d="M82.938,71.274c0,1.346-1.089,2.434-2.434,2.434H35.84c-1.344,0-2.432-1.088-2.432-2.434
			l0,0c0-1.343,1.088-2.432,2.432-2.432h44.665C81.849,68.842,82.938,69.931,82.938,71.274L82.938,71.274z"/>
	</g>
	<g>
		<path fill="#F9B69B" d="M49.817,61.818c-0.001,0.034-0.008,0.065-0.011,0.1h3.028H50.65v6.924l2.185-0.002l-4.688,0.002h-4.34
			c-0.002,0-0.005,0-0.007,0c-0.004,0-0.004,0-0.008-0.002h-0.336v-0.032c-1.75-0.175-3.119-1.632-3.119-3.428
			c0-1.794,1.369-3.254,3.119-3.428v-0.033h0.336c0.004,0,0.004,0,0.008,0c0.002,0,0.005,0,0.007,0h3.553
			c-0.002-0.034-0.011-0.065-0.01-0.1c-0.001-0.682,0.552-1.233,1.232-1.233C49.264,60.584,49.816,61.137,49.817,61.818z"/>
		<path fill="#FFFFFF" d="M77.76,59.938H55.281c-1.008,0-1.826,0.819-1.828,1.828l0.002,0.152h-0.157h-3.236v6.924h3.237h1.982
			h1.253H77.76V59.938z"/>
		<rect x="50.062" y="61.919" opacity="0.3" fill="#84A8C1" enable-background="new    " width="3.395" height="6.923"/>
	</g>
	<rect x="69.46" y="54.063" fill="#FFFFFF" width="8.303" height="9.79"/>
</g>
</svg>
