<?xml version="1.0" encoding="UTF-8" standalone="no"?>
<!-- Created with Inkscape (http://www.inkscape.org/) -->

<svg
   xmlns:dc="http://purl.org/dc/elements/1.1/"
   xmlns:cc="http://creativecommons.org/ns#"
   xmlns:rdf="http://www.w3.org/1999/02/22-rdf-syntax-ns#"
   xmlns:svg="http://www.w3.org/2000/svg"
   xmlns="http://www.w3.org/2000/svg"
   xmlns:sodipodi="http://sodipodi.sourceforge.net/DTD/sodipodi-0.dtd"
   xmlns:inkscape="http://www.inkscape.org/namespaces/inkscape"
   width="181"
   height="266"
   id="svg2"
   version="1.1"
   inkscape:version="0.48.4 r9939"
   sodipodi:docname="2.svg">
  <defs
     id="defs4">
    <inkscape:perspective
       sodipodi:type="inkscape:persp3d"
       inkscape:vp_x="0 : 526.18109 : 1"
       inkscape:vp_y="0 : 1000 : 0"
       inkscape:vp_z="744.09448 : 526.18109 : 1"
       inkscape:persp3d-origin="372.04724 : 350.78739 : 1"
       id="perspective10" />
    <clipPath
       id="clipPath3565"
       clipPathUnits="userSpaceOnUse">
      <path
         id="path3567"
         d="M 0,576 788,576 788,0 0,0 0,576 z"
         inkscape:connector-curvature="0" />
    </clipPath>
    <clipPath
       id="clipPath3485"
       clipPathUnits="userSpaceOnUse">
      <path
         id="path3487"
         d="M 0,576 788,576 788,0 0,0 0,576 z"
         inkscape:connector-curvature="0" />
    </clipPath>
    <clipPath
       id="clipPath3409"
       clipPathUnits="userSpaceOnUse">
      <path
         id="path3411"
         d="M 0,576 788,576 788,0 0,0 0,576 z"
         inkscape:connector-curvature="0" />
    </clipPath>
    <clipPath
       id="clipPath3329"
       clipPathUnits="userSpaceOnUse">
      <path
         id="path3331"
         d="M 0,576 788,576 788,0 0,0 0,576 z"
         inkscape:connector-curvature="0" />
    </clipPath>
    <clipPath
       id="clipPath3249"
       clipPathUnits="userSpaceOnUse">
      <path
         id="path3251"
         d="M 0,576 788,576 788,0 0,0 0,576 z"
         inkscape:connector-curvature="0" />
    </clipPath>
    <clipPath
       id="clipPath3169"
       clipPathUnits="userSpaceOnUse">
      <path
         id="path3171"
         d="M 0,576 788,576 788,0 0,0 0,576 z"
         inkscape:connector-curvature="0" />
    </clipPath>
    <clipPath
       id="clipPath3089"
       clipPathUnits="userSpaceOnUse">
      <path
         id="path3091"
         d="M 0,576 788,576 788,0 0,0 0,576 z"
         inkscape:connector-curvature="0" />
    </clipPath>
    <clipPath
       id="clipPath3013"
       clipPathUnits="userSpaceOnUse">
      <path
         id="path3015"
         d="M 0,576 788,576 788,0 0,0 0,576 z"
         inkscape:connector-curvature="0" />
    </clipPath>
    <clipPath
       id="clipPath2933"
       clipPathUnits="userSpaceOnUse">
      <path
         id="path2935"
         d="M 0,576 788,576 788,0 0,0 0,576 z"
         inkscape:connector-curvature="0" />
    </clipPath>
    <clipPath
       id="clipPath2853"
       clipPathUnits="userSpaceOnUse">
      <path
         id="path2855"
         d="M 0,576 788,576 788,0 0,0 0,576 z"
         inkscape:connector-curvature="0" />
    </clipPath>
    <inkscape:perspective
       id="perspective2845"
       inkscape:persp3d-origin="0.5 : 0.33333333 : 1"
       inkscape:vp_z="1 : 0.5 : 1"
       inkscape:vp_y="0 : 1000 : 0"
       inkscape:vp_x="0 : 0.5 : 1"
       sodipodi:type="inkscape:persp3d" />
  </defs>
  <sodipodi:namedview
     id="base"
     pagecolor="#ffffff"
     bordercolor="#666666"
     borderopacity="1.0"
     inkscape:pageopacity="0.0"
     inkscape:pageshadow="2"
     inkscape:zoom="1.979899"
     inkscape:cx="170.23286"
     inkscape:cy="215.36294"
     inkscape:document-units="px"
     inkscape:current-layer="layer1"
     showgrid="false"
     inkscape:window-width="1871"
     inkscape:window-height="1056"
     inkscape:window-x="49"
     inkscape:window-y="24"
     inkscape:window-maximized="1"
     fit-margin-top="0"
     fit-margin-left="0"
     fit-margin-right="0"
     fit-margin-bottom="0"
     showguides="true"
     inkscape:guide-bbox="true">
    <sodipodi:guide
       orientation="1,0"
       position="91.418806,367.69553"
       id="guide3629" />
  </sodipodi:namedview>
  <metadata
     id="metadata7">
    <rdf:RDF>
      <cc:Work
         rdf:about="">
        <dc:format>image/svg+xml</dc:format>
        <dc:type
           rdf:resource="http://purl.org/dc/dcmitype/StillImage" />
        <dc:title />
      </cc:Work>
    </rdf:RDF>
  </metadata>
  <g
     inkscape:label="Layer 1"
     inkscape:groupmode="layer"
     id="layer1"
     transform="translate(-253.52893,-364.94833)">
    <g
       id="g3085"
       transform="matrix(-1.0278596,0,0,-1.0278596,732.10915,766.40817)">
      <g
         id="g3087"
         clip-path="url(#clipPath3089)">
        <g
           id="g3093"
           transform="translate(311.0464,258.9795)">
          <path
             d="m 0,0 c 0,0 -21.306,11.192 -21.303,4.18 0,0 1.813,-0.308 4.328,-2.074 0,0 -3.608,-0.512 -4.263,-1.881 0,0 -0.827,-4.652 5.928,-2.841 0,0 -6.758,-1.808 -4.231,-4.142 2.527,-2.332 2.527,-2.332 5.899,-1.146 0,0 -5.295,-1.106 -1.858,-3.875 0,0 13.895,0.909 18.596,3.7 L 0,0 z"
             style="fill:#ffdcad;fill-opacity:1;fill-rule:nonzero;stroke:none"
             id="path3095"
             inkscape:connector-curvature="0" />
        </g>
        <g
           id="g3097"
           transform="translate(374.1191,306.7998)">
          <path
             d="m 0,0 c 0,0 -48.538,-53.595 -60.673,-56.122 l -7.077,11.125 c 0,0 45.916,30.145 60.012,52.682 0.622,0.992 1.182,1.972 1.671,2.933"
             style="fill:#3a4869;fill-opacity:1;fill-rule:nonzero;stroke:none"
             id="path3099"
             inkscape:connector-curvature="0" />
        </g>
        <g
           id="g3101"
           transform="translate(425.7676,185.1797)">
          <path
             d="m 0,0 10.873,6.509 c 0,0 22.504,-31.22 16.188,-36.665 -6.317,-5.446 -8.231,-6.138 -15.889,2.326 L 0,0 z"
             style="fill:#99866a;fill-opacity:1;fill-rule:nonzero;stroke:none"
             id="path3103"
             inkscape:connector-curvature="0" />
        </g>
        <g
           id="g3105"
           transform="translate(378.6724,239.0498)">
          <path
             d="m 0,0 3.538,-51.571 c 0,0 -1.515,-5.058 10.113,-6.068 11.628,-1.013 41.964,0 41.964,0 l 0.508,9.605 -36.911,2.53 L 16.685,0.504 0,0 z"
             style="fill:#3a4869;fill-opacity:1;fill-rule:nonzero;stroke:none"
             id="path3107"
             inkscape:connector-curvature="0" />
        </g>
        <g
           id="g3109"
           transform="translate(399.2227,325.6416)">
          <path
             d="m 0,0 -33.686,-3.569 c 0,0 -5.271,-75.035 3.223,-97.61 0,0 25.599,7.931 34.092,9.35 0,0 -18.263,38.003 -3.629,91.829"
             style="fill:#7d9ed2;fill-opacity:1;fill-rule:nonzero;stroke:none"
             id="path3111"
             inkscape:connector-curvature="0" />
        </g>
        <g
           id="g3113"
           transform="translate(415.0762,354.4551)">
          <path
             d="m 0,0 c 0,-19.408 -17.092,-35.142 -38.175,-35.142 -21.082,0 -38.173,15.734 -38.173,35.142 0,19.406 17.091,35.139 38.173,35.139 C -17.092,35.139 0,19.406 0,0"
             style="fill:#ffdcad;fill-opacity:1;fill-rule:nonzero;stroke:none"
             id="path3115"
             inkscape:connector-curvature="0" />
        </g>
        <g
           id="g3117"
           transform="translate(422.6602,350.915)">
          <path
             d="m 0,0 c 0,-3.212 -2.717,-5.815 -6.068,-5.815 -3.35,0 -6.067,2.603 -6.067,5.815 0,3.211 2.717,5.813 6.067,5.813 C -2.717,5.813 0,3.211 0,0"
             style="fill:#ffdcad;fill-opacity:1;fill-rule:nonzero;stroke:none"
             id="path3119"
             inkscape:connector-curvature="0" />
        </g>
        <g
           id="g3121"
           transform="translate(351.3696,357.3096)">
          <path
             d="m 0,0 c 0,-3.532 -2.53,-6.395 -5.646,-6.395 -3.12,0 -5.647,2.863 -5.647,6.395 0,3.532 2.527,6.396 5.647,6.396 C -2.53,6.396 0,3.532 0,0"
             style="fill:#ffffff;fill-opacity:1;fill-rule:nonzero;stroke:none"
             id="path3123"
             inkscape:connector-curvature="0" />
        </g>
        <g
           id="g3125"
           transform="translate(371.5947,354.2002)">
          <path
             d="m 0,0 c 0,-3.907 -2.944,-7.077 -6.574,-7.077 -3.632,0 -6.573,3.17 -6.573,7.077 0,3.911 2.941,7.079 6.573,7.079 C -2.944,7.079 0,3.911 0,0"
             style="fill:#ffffff;fill-opacity:1;fill-rule:nonzero;stroke:none"
             id="path3127"
             inkscape:connector-curvature="0" />
        </g>
        <g
           id="g3129"
           transform="translate(347.8296,357.7402)">
          <path
             d="m 0,0 c 0,-1.955 -1.132,-3.54 -2.527,-3.54 -1.395,0 -2.527,1.585 -2.527,3.54 0,1.955 1.132,3.539 2.527,3.539 C -1.132,3.539 0,1.955 0,0"
             style="fill:#594334;fill-opacity:1;fill-rule:nonzero;stroke:none"
             id="path3131"
             inkscape:connector-curvature="0" />
        </g>
        <g
           id="g3133"
           transform="translate(367.5483,353.8213)">
          <path
             d="m 0,0 c 0,-1.606 -1.132,-2.906 -2.527,-2.906 -1.396,0 -2.527,1.3 -2.527,2.906 0,1.605 1.131,2.907 2.527,2.907 C -1.132,2.907 0,1.605 0,0"
             style="fill:#594334;fill-opacity:1;fill-rule:nonzero;stroke:none"
             id="path3135"
             inkscape:connector-curvature="0" />
        </g>
        <g
           id="g3137"
           transform="translate(341.5933,367.8164)">
          <path
             d="m 0,0 c 0,0 2.696,1.553 6.236,3.574 3.54,2.024 -1.265,-0.07 0,-3.574 0,0 -0.504,-0.726 3.54,2.184 l 1.769,-6.295 c 0,0 0.507,4.652 5.309,6.675 0,0 -1.769,-6.019 -1.01,-6.675 0.758,-0.657 1.768,4.4 5.057,6.422 l 3.285,2.022 c 0,0 -2.527,-4.044 0,-6.572 2.527,-2.529 3.792,0.883 4.551,2.337 0.758,1.455 2.275,-3.349 2.527,-6.635 0.255,-3.287 4.044,2.426 4.044,2.426 0,0 2.023,1.35 2.278,-3.446 l 6.319,0 -1.769,-6.438 5.054,5.435 1.266,-8.341 5.308,6.825 0,-6.825 6.574,5.813 2.528,-8.089 6.066,6.825 2.276,-2.781 2.275,4.045 c 0,0 -1.014,26.799 -33.877,32.865 0,0 -27.895,3.974 -39.606,-21.777"
             style="fill:#594334;fill-opacity:1;fill-rule:nonzero;stroke:none"
             id="path3139"
             inkscape:connector-curvature="0" />
        </g>
        <g
           id="g3141"
           transform="translate(345.7231,334.1943)">
          <path
             d="m 0,0 c 0,0 18.792,-5.345 25.872,0 0,0 -9.389,-11.736 -18.092,-7.493 0,0 -6.044,5.028 -7.78,7.493"
             style="fill:#cd9db0;fill-opacity:1;fill-rule:nonzero;stroke:none"
             id="path3143"
             inkscape:connector-curvature="0" />
        </g>
        <g
           id="g3145"
           transform="translate(346.6475,344.8477)">
          <path
             d="m 0,0 c 0,-2.095 -2.263,-3.792 -5.054,-3.792 -2.794,0 -5.057,1.697 -5.057,3.792 0,2.094 2.263,3.792 5.057,3.792 C -2.263,3.792 0,2.094 0,0"
             style="fill:#ffdcad;fill-opacity:1;fill-rule:nonzero;stroke:none"
             id="path3147"
             inkscape:connector-curvature="0" />
        </g>
        <g
           id="g3149"
           transform="translate(349.0146,172.6006)">
          <path
             d="m 0,0 2.302,-13.192 c 0,0 -37.138,-10.304 -40.036,-2.012 -2.897,8.295 -2.877,10.449 7.735,14.774 L 0,0 z"
             style="fill:#99866a;fill-opacity:1;fill-rule:nonzero;stroke:none"
             id="path3151"
             inkscape:connector-curvature="0" />
        </g>
        <g
           id="g3153"
           transform="translate(373.1709,224.0479)">
          <path
             d="m 0,0 c 0.064,0.035 0.126,0.071 0.19,0.106 l 0,19.09 C -0.184,18.96 -0.612,18.692 -1.085,18.395 -8.335,13.841 -26.28,2.599 -29.892,0.593 c -2.845,-1.582 -5.689,-3.952 -8.162,-6.371 -1.485,-1.452 -2.836,-2.921 -3.972,-4.247 -0.661,-0.772 -0.674,-3.416 -0.289,-7.08 1.378,-13.152 7.873,-39.438 7.873,-39.438 l 10.111,2.53 c 0,0 -6.571,27.303 -5.054,33.37 C -28.353,-16.515 -10.989,-6.182 0,0"
             style="fill:#4c71a0;fill-opacity:1;fill-rule:nonzero;stroke:none"
             id="path3155"
             inkscape:connector-curvature="0" />
        </g>
        <g
           id="g3157"
           transform="translate(439.8789,259.4736)">
          <path
             d="m 0,0 c 0,0 12.498,-20.565 16.107,-14.555 0,0 -1.396,1.198 -2.642,4.009 0,0 3.355,-1.42 4.623,-0.584 0,0 3.105,3.558 -3.617,5.486 0,0 6.722,-1.928 5.759,1.373 -0.964,3.299 -0.964,3.302 -4.466,4.019 0,0 5.109,-1.777 3.59,2.367 0,0 -12.377,6.376 -17.846,6.406 L 0,0 z"
             style="fill:#ffdcad;fill-opacity:1;fill-rule:nonzero;stroke:none"
             id="path3159"
             inkscape:connector-curvature="0" />
        </g>
        <g
           id="g3161"
           transform="translate(386.7603,296.6885)">
          <path
             d="m 0,0 52.582,-39.943 5.564,11.125 c 0,0 -38.428,19.717 -53.595,46.008"
             style="fill:#4c71a0;fill-opacity:1;fill-rule:nonzero;stroke:none"
             id="path3163"
             inkscape:connector-curvature="0" />
        </g>
      </g>
    </g>
  </g>
</svg>
