<?xml version="1.0" encoding="utf-8"?>
<!-- Generator: Adobe Illustrator 16.0.0, SVG Export Plug-In . SVG Version: 6.00 Build 0)  -->
<!DOCTYPE svg PUBLIC "-//W3C//DTD SVG 1.1//EN" "http://www.w3.org/Graphics/SVG/1.1/DTD/svg11.dtd">
<svg version="1.1" id="Layer_1" xmlns="http://www.w3.org/2000/svg" xmlns:xlink="http://www.w3.org/1999/xlink" x="0px" y="0px"
	 width="69.642px" height="172.382px" viewBox="0 0 69.642 172.382" enable-background="new 0 0 69.642 172.382"
	 xml:space="preserve">
<g>
	<g>
		<rect x="38.478" y="108.487" fill="#F8B69C" width="5.863" height="48.574"/>
		<path fill="#131938" d="M53.058,166.612c-0.051,0-0.102,0-0.15,0.004v-0.004H49.53c-3.126-2.207-5.169-5.85-5.169-9.969h-5.883
			v3.17v3.553v6.645h3.671v-4.105l3.776,4.105h3.734h3.549h3.247C56.456,168.133,54.936,166.612,53.058,166.612z"/>
		<rect x="38.478" y="120.879" opacity="0.4" fill="#B78D7E" width="5.863" height="2.201"/>
	</g>
	<g>
		<path fill="#1F244C" d="M41.37,166.629c-0.051,0-0.102,0.002-0.151,0.002v-0.002h-3.376c-3.126-2.207-5.168-5.852-5.168-9.967
			h-5.887v3.172v3.547v6.646h3.674v-4.104l3.777,4.104h3.735h3.548h3.246C44.767,168.153,43.246,166.629,41.37,166.629z"/>
		<g>
			<rect x="26.806" y="108.487" fill="#F8B69C" width="5.863" height="48.574"/>
			<rect x="26.807" y="120.879" opacity="0.4" fill="#B78D7E" width="5.862" height="2.201"/>
		</g>
	</g>
	<g>
		<g>
			<rect x="40.38" y="82.93" fill="#F8B69C" width="5.861" height="0"/>
			<path fill="#F8B69C" d="M47.797,84.756c0,0.857-0.693,1.555-1.549,1.555c-0.855,0-1.55-0.697-1.55-1.555
				c0-0.851,0.695-1.547,1.55-1.547C47.104,83.209,47.797,83.905,47.797,84.756z"/>
			<polygon fill="#F8B69C" points="46.242,86.859 40.38,86.859 40.38,84.171 40.38,82.93 46.242,82.93 			"/>
			<path fill="#F8B69C" d="M46.248,86.979c0,1.619-1.314,2.933-2.934,2.933s-2.934-1.314-2.934-2.933
				c0-1.623,1.314-2.935,2.934-2.935S46.248,85.356,46.248,86.979z"/>
		</g>
		<rect x="40.38" y="42.607" fill="#1F244C" width="5.861" height="40.323"/>
	</g>
	<polygon fill="#1F5980" points="19.596,120.877 51.527,120.877 44.325,62.384 26.796,62.384 	"/>
	<g>
		<path fill="#F8B69C" d="M41.17,2.872l3.057,12.202h-1.848v6.462h-3.004c0,0-1.435,0.176-1.435,1.434c0,0.536,0,4.976,0,7.129
			v2.511h-6.876v-1.615V2.646h9.927L41.17,2.872z"/>
		<path fill="#1960A6" d="M40.673,9.779c0,0.294-0.237,0.53-0.527,0.53c-0.291,0-0.527-0.236-0.527-0.53
			c0-0.289,0.236-0.524,0.527-0.524C40.436,9.255,40.673,9.491,40.673,9.779z"/>
		<path fill="#F2695B" d="M41.236,17.127c-0.077,0-0.139-0.063-0.139-0.139h-0.539c0,0.373,0.303,0.675,0.677,0.675h1.154v-0.536
			H41.236z"/>
		<path fill="#33332E" d="M26.233,0v27.676c0,0,1.734,0,3.446,0c5.187,0,4.911-4.912,4.911-4.912V12.259
			c-0.977,0-1.769-0.792-1.769-1.772c0-0.977,0.794-1.77,1.772-1.77c0.774,0,1.427,0.501,1.667,1.198l0.023-0.077
			c1.133-0.082,2.025-0.996,2.079-2.134h0.011V6.292c0.505,0,1.138,0,1.932,0c6.07,0,7.395-6.292,7.395-6.292H26.233z"/>
	</g>
	<path fill="#1F244C" d="M46.728,40.916l0.003-0.002l-0.46-0.715v-1.591v-2.62v-3.354c0-1.344-1.091-2.435-2.433-2.435h-3.989H37.94
		h-6.961h-4.163h-1.737c-1.341,0-2.43,1.09-2.43,2.435v3.66h-0.012v10.664h4.179v12.606h-0.02V70.65h7.815v-7.357h3.342v7.357h6.372
		v-7.357v-2.627V47.521c1.942-0.264,3.442-1.921,3.442-3.931C47.768,42.558,47.372,41.624,46.728,40.916z"/>
	<polygon fill="#FFFFFF" points="31.05,30.2 34.623,35.981 34.623,63.359 37.953,63.359 37.953,38.881 37.953,34.758 37.953,30.2 	
		"/>
	<polygon fill="#F2695B" points="31.05,30.2 34.623,35.978 31.063,35.978 	"/>
	<g>
		<g>
			<rect x="12.394" y="91.838" fill="#2E373E" width="26.353" height="22.551"/>
			<g>
				<rect x="24.547" y="101.727" fill="#A2C1C9" width="2.009" height="1.779"/>
				<path fill="#A2C1C9" d="M26.558,103.545c0,0.555-0.451,1.006-1.005,1.006c-0.556,0-1.005-0.451-1.005-1.006
					c0-0.553,0.449-1.002,1.005-1.002C26.107,102.543,26.558,102.993,26.558,103.545z"/>
			</g>
			<rect x="12.394" y="91.838" fill="#3C474D" width="26.353" height="9.889"/>
		</g>
		<path fill="#3C474D" d="M31.17,91.852h-1.079c0-2.359-1.92-4.279-4.283-4.279s-4.286,1.92-4.286,4.279h-1.076
			c0-2.955,2.403-5.36,5.361-5.36C28.763,86.492,31.17,88.897,31.17,91.852z"/>
	</g>
	<g>
		<circle fill="#FFFFFF" cx="40.335" cy="38.287" r="0.687"/>
		<path fill="#FFFFFF" d="M41.022,45.148c0,0.38-0.307,0.688-0.687,0.688c-0.379,0-0.687-0.308-0.687-0.688
			c0-0.375,0.308-0.687,0.687-0.687C40.715,44.461,41.022,44.772,41.022,45.148z"/>
		<circle fill="#FFFFFF" cx="40.335" cy="52.014" r="0.687"/>
		<circle fill="#FFFFFF" cx="40.335" cy="58.878" r="0.687"/>
	</g>
	<rect x="34.623" y="55.286" fill="#F2695B" width="3.331" height="8.073"/>
	<g>
		<g>
			<rect x="22.637" y="84.392" fill="#F8B69C" width="5.861" height="0"/>
			<circle fill="#F8B69C" cx="28.505" cy="86.224" r="1.55"/>
			<polygon fill="#F8B69C" points="28.499,88.323 22.637,88.323 22.637,85.633 22.637,84.392 28.499,84.392 			"/>
			<path fill="#F8B69C" d="M28.503,88.442c0,1.623-1.313,2.934-2.933,2.934c-1.619,0-2.933-1.311-2.933-2.934
				c0-1.618,1.314-2.933,2.933-2.933C27.19,85.509,28.503,86.824,28.503,88.442z"/>
		</g>
		<rect x="22.637" y="44.071" fill="#1F244C" width="5.861" height="40.32"/>
	</g>
</g>
</svg>
