<?xml version="1.0" encoding="utf-8"?>
<!-- Generator: Adobe Illustrator 16.0.0, SVG Export Plug-In . SVG Version: 6.00 Build 0)  -->
<!DOCTYPE svg PUBLIC "-//W3C//DTD SVG 1.1//EN" "http://www.w3.org/Graphics/SVG/1.1/DTD/svg11.dtd">
<svg version="1.1" id="Layer_1" xmlns="http://www.w3.org/2000/svg" xmlns:xlink="http://www.w3.org/1999/xlink" x="0px" y="0px"
	 width="69.642px" height="172.382px" viewBox="0 0 69.642 172.382" enable-background="new 0 0 69.642 172.382"
	 xml:space="preserve">
<g>
	<g>
		
			<rect x="44.197" y="79.986" transform="matrix(0.989 -0.1479 0.1479 0.989 -17.0365 8.277)" fill="#F8B69C" width="5.862" height="77.376"/>
		<path fill="#131938" d="M65.779,164.663c-0.051,0.01-0.101,0.016-0.149,0.023l-0.001-0.002l-3.34,0.5
			c-3.419-1.725-5.976-5.023-6.585-9.092l-5.82,0.865l0.469,3.141l0.524,3.508l0.981,6.57l3.634-0.543l-0.608-4.059l4.341,3.504
			l3.694-0.553L66.431,168l3.21-0.482C69.363,165.665,67.633,164.387,65.779,164.663z"/>
		<polygon opacity="0.4" fill="#B78D7E" points="50.657,122.727 44.698,122.727 44.451,120.877 50.408,120.877 		"/>
	</g>
	<g>
		<path fill="#1F244C" d="M26.208,168.034c-0.05-0.008-0.102-0.016-0.149-0.021v-0.006l-3.319-0.602
			c-2.684-2.73-4.041-6.68-3.305-10.73l-5.791-1.051l-0.566,3.119l-0.635,3.492l-1.189,6.537l3.612,0.658l0.733-4.037l2.982,4.713
			l3.675,0.664l3.492,0.639l3.195,0.576C29.279,170.141,28.054,168.37,26.208,168.034z"/>
		<g>
			
				<rect x="20.461" y="79.787" transform="matrix(0.9839 0.1786 -0.1786 0.9839 21.5314 -2.273)" fill="#F8B69C" width="5.863" height="77.378"/>
		</g>
		<polygon opacity="0.4" fill="#B78D7E" points="25.582,122.727 19.624,122.727 19.969,120.877 25.928,120.877 		"/>
	</g>
	<g>
		<g>
			
				<rect x="35.363" y="82.283" transform="matrix(0.9928 0.1199 -0.1199 0.9928 10.1429 -3.998)" fill="#F8B69C" width="5.86" height="0"/>
			<circle fill="#F8B69C" cx="40.988" cy="84.451" r="1.549"/>
			<polygon fill="#F8B69C" points="40.73,86.536 34.912,85.834 35.235,83.162 35.384,81.932 41.201,82.634 			"/>
			<path fill="#F8B69C" d="M40.722,86.654c-0.194,1.606-1.656,2.756-3.264,2.561c-1.609-0.193-2.753-1.658-2.56-3.266
				c0.194-1.607,1.654-2.753,3.263-2.559C39.769,83.583,40.916,85.045,40.722,86.654z"/>
		</g>
		
			<rect x="37.905" y="40.004" transform="matrix(0.9928 0.1199 -0.1199 0.9928 7.6356 -4.4548)" fill="#1F244C" width="5.86" height="42.432"/>
	</g>
	<polygon fill="#1F5980" points="19.542,120.877 51.473,120.877 44.272,62.384 26.742,62.384 	"/>
	<g>
		<path fill="#F8B69C" d="M41.116,2.872l3.059,12.204h-1.849v6.458h-3.004c0,0-1.436,0.18-1.436,1.435c0,0.539,0,4.977,0,7.129
			v2.511H31.01v-1.611V2.649h9.927L41.116,2.872z"/>
		<circle fill="#1960A6" cx="40.092" cy="9.781" r="0.527"/>
		<path fill="#F2695B" d="M41.182,17.127c-0.077,0-0.138-0.062-0.138-0.139h-0.54c0,0.374,0.304,0.677,0.677,0.677h1.154v-0.538
			H41.182z"/>
		<path fill="#33332E" d="M26.179,0v27.677c0,0,1.735,0,3.446,0c5.187,0,4.911-4.911,4.911-4.911V12.259
			c-0.978,0-1.769-0.793-1.769-1.77c0-0.979,0.795-1.77,1.771-1.77c0.775,0,1.427,0.497,1.669,1.194L36.23,9.84
			c1.132-0.082,2.027-0.997,2.079-2.134h0.011V6.292c0.506,0,1.138,0,1.931,0c6.07,0,7.395-6.292,7.395-6.292H26.179z"/>
	</g>
	<path fill="#1F244C" d="M46.686,40.916h0.004l-0.461-0.718v-1.59v-2.617v-3.358c0-1.34-1.09-2.432-2.432-2.432h-3.99h-1.909h-6.959
		h-4.165h-1.735c-1.342,0-2.431,1.091-2.431,2.432c0,0-0.163,2.503,0,3.662s-0.012,0-0.012,0l0.635,4.203h3.543v19.067h-0.019V70.65
		h7.816v-7.359h3.34v7.359h7.392l-0.729-7.289l-0.289-2.694V47.519c1.941-0.26,3.44-1.919,3.44-3.931
		C47.726,42.56,47.33,41.624,46.686,40.916z"/>
	<polygon fill="#FFFFFF" points="30.996,30.201 34.57,35.98 34.57,63.361 37.899,63.361 37.899,38.88 37.899,34.759 37.899,30.201 	
		"/>
	<polygon fill="#F2695B" points="30.996,30.201 34.57,35.978 31.01,35.978 	"/>
	<g>
		<circle fill="#FFFFFF" cx="40.281" cy="38.285" r="0.687"/>
		<circle fill="#FFFFFF" cx="40.281" cy="45.151" r="0.687"/>
		<path fill="#FFFFFF" d="M40.968,52.011c0,0.382-0.308,0.69-0.687,0.69c-0.378,0-0.687-0.308-0.687-0.69
			c0-0.376,0.309-0.685,0.687-0.685C40.66,51.326,40.968,51.635,40.968,52.011z"/>
		<circle fill="#FFFFFF" cx="40.281" cy="58.877" r="0.687"/>
	</g>
	<rect x="34.57" y="55.284" fill="#F2695B" width="3.329" height="8.077"/>
	<g>
		<g>
			<g>
				
					<rect x="23.439" y="90.393" transform="matrix(0.9858 -0.1678 0.1678 0.9858 -16.5412 7.5857)" fill="#2E373E" width="26.352" height="22.552"/>
				<g>
					
						<rect x="35.509" y="100.294" transform="matrix(0.9857 -0.1683 0.1683 0.9857 -16.5047 7.5863)" fill="#A2C1C9" width="2.008" height="1.779"/>
					<circle fill="#A2C1C9" cx="36.67" cy="102.101" r="1.005"/>
				</g>
				
					<rect x="22.377" y="90.483" transform="matrix(0.9858 -0.1678 0.1678 0.9858 -15.5092 7.3191)" fill="#3C474D" width="26.351" height="9.89"/>
			</g>
			<path fill="#3C474D" d="M40.247,89.633l-1.062,0.18c-0.396-2.328-2.612-3.899-4.943-3.501c-2.329,0.396-3.902,2.613-3.506,4.941
				l-1.061,0.18c-0.496-2.916,1.472-5.689,4.386-6.186C36.976,84.75,39.75,86.719,40.247,89.633z"/>
		</g>
		<g>
			<g>
				
					<rect x="30.54" y="83.217" transform="matrix(0.9858 -0.1678 0.1678 0.9858 -13.4914 6.7978)" fill="#F8B69C" width="5.862" height="0"/>
				<circle fill="#F8B69C" cx="36.674" cy="84.527" r="1.549"/>
				<polygon fill="#F8B69C" points="37.02,86.599 31.242,87.581 30.791,84.932 30.582,83.709 36.361,82.725 				"/>
				<path fill="#F8B69C" d="M37.045,86.713c0.273,1.6-0.802,3.116-2.399,3.387c-1.594,0.271-3.112-0.801-3.384-2.402
					c-0.272-1.594,0.805-3.112,2.399-3.382C35.258,84.043,36.774,85.119,37.045,86.713z"/>
			</g>
			
				<rect x="26.858" y="39.632" transform="matrix(0.9858 -0.1678 0.1678 0.9858 -9.9123 5.8729)" fill="#1F244C" width="5.862" height="43.897"/>
		</g>
	</g>
</g>
</svg>
