<?xml version="1.0" encoding="utf-8"?>
<!-- Generator: Adobe Illustrator 16.0.0, SVG Export Plug-In . SVG Version: 6.00 Build 0)  -->
<!DOCTYPE svg PUBLIC "-//W3C//DTD SVG 1.1//EN" "http://www.w3.org/Graphics/SVG/1.1/DTD/svg11.dtd">
<svg version="1.1" id="Layer_1" xmlns="http://www.w3.org/2000/svg" xmlns:xlink="http://www.w3.org/1999/xlink" x="0px" y="0px"
	 width="69.642px" height="172.382px" viewBox="0 0 69.642 172.382" enable-background="new 0 0 69.642 172.382"
	 xml:space="preserve">
<g>
	<g>
		
			<rect x="27.87" y="79.912" transform="matrix(0.9581 0.2864 -0.2864 0.9581 35.2636 -3.8533)" fill="#F8B69C" width="5.864" height="77.378"/>
		<path fill="#131938" d="M28.152,168.159c-0.049-0.018-0.097-0.027-0.146-0.041l0.002-0.002l-3.236-0.969
			c-2.364-3.01-3.278-7.084-2.098-11.031l-5.638-1.684l-0.908,3.035l-1.017,3.402l-1.902,6.367l3.519,1.053l1.174-3.934l2.444,5.012
			l3.578,1.072l3.399,1.018l3.113,0.926C30.973,170.588,29.951,168.694,28.152,168.159z"/>
		<polygon opacity="0.4" fill="#B78D7E" points="32.546,122.864 26.485,122.864 27.112,120.874 33.172,120.874 		"/>
	</g>
	<g>
		<path fill="#1F244C" d="M62.122,163.317c-0.05,0.01-0.099,0.025-0.147,0.043v-0.006l-3.276,0.814
			c-3.568-1.381-6.432-4.422-7.428-8.42l-5.71,1.426l0.768,3.078l0.859,3.445l1.607,6.447l3.563-0.889l-0.993-3.98l4.656,3.064
			l3.625-0.902l3.443-0.859l3.15-0.785C65.787,163.973,63.942,162.862,62.122,163.317z"/>
		<g>
			
				<rect x="36.227" y="80.621" transform="matrix(0.9702 -0.2421 0.2421 0.9702 -27.7226 13.0314)" fill="#F8B69C" width="5.864" height="77.378"/>
		</g>
		<polygon opacity="0.4" fill="#B78D7E" points="43.054,122.854 36.994,122.854 36.55,120.87 42.611,120.87 		"/>
	</g>
	<polygon fill="#1F5980" points="19.484,120.874 51.415,120.874 44.215,62.382 26.685,62.382 	"/>
	<g>
		<path fill="#F8B69C" d="M41.058,2.872l3.059,12.203h-1.849v6.459h-3.004c0,0-1.436,0.178-1.436,1.433c0,0.539,0,4.979,0,7.132
			v2.511h-6.875v-1.617V2.647h9.927L41.058,2.872z"/>
		<path fill="#1960A6" d="M40.562,9.779c0,0.292-0.235,0.531-0.526,0.531c-0.292,0-0.528-0.239-0.528-0.531
			c0-0.289,0.236-0.524,0.528-0.524C40.327,9.255,40.562,9.491,40.562,9.779z"/>
		<path fill="#F2695B" d="M41.125,17.125c-0.077,0-0.138-0.062-0.138-0.137h-0.539c0,0.371,0.304,0.675,0.677,0.675h1.154v-0.538
			H41.125z"/>
		<path fill="#33332E" d="M26.122,0v27.676c0,0,1.735,0,3.446,0c5.187,0,4.911-4.911,4.911-4.911V12.26
			c-0.978,0-1.768-0.793-1.768-1.773c0-0.977,0.795-1.77,1.771-1.77c0.775,0,1.427,0.501,1.669,1.198l0.022-0.077
			c1.132-0.085,2.026-0.995,2.079-2.136h0.011V6.291c0.506,0,1.138,0,1.931,0c6.07,0,7.395-6.291,7.395-6.291H26.122z"/>
	</g>
	<path fill="#1F244C" d="M46.617,40.916l0.003-0.002l2.581-0.715l-0.16-1.003c0,0-0.869-4.339-1.453-6.25
		c-0.584-1.911-1.607-2.746-2.948-2.746h-4.903h-1.909h-6.959h-4.165h-1.735c-0.834,0-1.555,0.433-2.008,1.062
		c-0.669,0.928-1.387,4.821-1.387,4.821l-0.667,4.05h5.797v19.432h-0.019v3.794l-1.018,7.292h8.833v-7.358h3.341v7.358h7.392
		l-1.018-7.358v-2.627V47.517c1.941-0.259,3.44-1.92,3.44-3.93C47.656,42.559,47.26,41.624,46.617,40.916z"/>
	<polygon fill="#FFFFFF" points="30.938,30.2 34.513,35.978 34.513,63.359 37.842,63.359 37.842,38.881 37.842,34.758 37.842,30.2 	
		"/>
	<polygon fill="#F2695B" points="30.938,30.2 34.513,35.978 30.953,35.978 	"/>
	<g>
		<circle fill="#FFFFFF" cx="40.224" cy="38.285" r="0.687"/>
		<circle fill="#FFFFFF" cx="40.224" cy="45.148" r="0.687"/>
		<path fill="#FFFFFF" d="M40.911,52.015c0,0.376-0.308,0.685-0.687,0.685c-0.378,0-0.687-0.309-0.687-0.685
			c0-0.382,0.309-0.687,0.687-0.687C40.603,51.328,40.911,51.633,40.911,52.015z"/>
		<path fill="#FFFFFF" d="M40.911,58.875c0,0.382-0.308,0.689-0.687,0.689c-0.378,0-0.687-0.307-0.687-0.689
			c0-0.376,0.309-0.684,0.687-0.684C40.603,58.191,40.911,58.5,40.911,58.875z"/>
	</g>
	<rect x="34.513" y="55.286" fill="#F2695B" width="3.329" height="8.073"/>
	<g>
		<g>
			<g>
				
					<rect x="1.535" y="90.648" transform="matrix(0.9892 0.1466 -0.1466 0.9892 15.1017 -1.0554)" fill="#2E373E" width="26.352" height="22.554"/>
				<g>
					
						<rect x="13.761" y="100.541" transform="matrix(0.9892 0.1468 -0.1468 0.9892 15.0529 -1.0687)" fill="#A2C1C9" width="2.009" height="1.777"/>
					<path fill="#A2C1C9" d="M15.624,102.5c-0.082,0.547-0.593,0.926-1.14,0.844c-0.55-0.08-0.93-0.592-0.849-1.139
						c0.081-0.549,0.593-0.932,1.144-0.85C15.326,101.438,15.705,101.952,15.624,102.5z"/>
				</g>
				
					<rect x="2.463" y="90.717" transform="matrix(0.9892 0.1466 -0.1466 0.9892 14.1935 -1.2591)" fill="#3C474D" width="26.352" height="9.89"/>
			</g>
			<path fill="#3C474D" d="M21.9,91.61l-1.065-0.158c0.347-2.338-1.273-4.518-3.612-4.864c-2.337-0.348-4.521,1.27-4.867,3.608
				l-1.064-0.158c0.433-2.926,3.165-4.953,6.089-4.52C20.306,85.952,22.333,88.684,21.9,91.61z"/>
		</g>
		<g>
			<g>
				
					<rect x="14.521" y="83.407" transform="matrix(0.9892 0.1465 -0.1465 0.9892 12.4088 -1.6569)" fill="#F8B69C" width="5.862" height="0"/>
				<path fill="#F8B69C" d="M21.622,85.873c-0.125,0.846-0.915,1.434-1.76,1.307c-0.845-0.125-1.431-0.914-1.305-1.762
					c0.125-0.844,0.915-1.428,1.758-1.303C21.162,84.24,21.747,85.027,21.622,85.873z"/>
				<polygon fill="#F8B69C" points="19.775,87.725 13.976,86.867 14.371,84.204 14.553,82.978 20.352,83.837 				"/>
				<circle fill="#F8B69C" cx="16.861" cy="87.413" r="2.933"/>
			</g>
			
				<rect x="17.765" y="39.386" transform="matrix(0.9892 0.1465 -0.1465 0.9892 9.2364 -2.3684)" fill="#1F244C" width="5.862" height="44.26"/>
		</g>
	</g>
	<g>
		<g>
			
				<rect x="49.834" y="81.931" transform="matrix(0.988 -0.1546 0.1546 0.988 -12.0289 9.1395)" fill="#F8B69C" width="5.86" height="0"/>
			<path fill="#F8B69C" d="M57.478,83.043c0.132,0.846-0.447,1.639-1.291,1.771c-0.846,0.133-1.638-0.447-1.77-1.293
				c-0.132-0.841,0.446-1.636,1.291-1.769C56.553,81.621,57.346,82.201,57.478,83.043z"/>
			<polygon fill="#F8B69C" points="56.267,85.359 50.477,86.266 50.062,83.607 49.87,82.384 55.66,81.479 			"/>
			<path fill="#F8B69C" d="M56.291,85.479c0.25,1.598-0.844,3.1-2.444,3.35c-1.601,0.252-3.101-0.846-3.351-2.444
				c-0.25-1.604,0.842-3.102,2.444-3.354C54.539,82.782,56.04,83.875,56.291,85.479z"/>
		</g>
		
			<rect x="46.526" y="39.392" transform="matrix(0.988 -0.1546 0.1546 0.988 -8.8012 8.3741)" fill="#1F244C" width="5.86" height="42.797"/>
	</g>
</g>
</svg>
