<?xml version="1.0" encoding="utf-8"?>
<!-- Generator: Adobe Illustrator 16.0.0, SVG Export Plug-In . SVG Version: 6.00 Build 0)  -->
<!DOCTYPE svg PUBLIC "-//W3C//DTD SVG 1.1//EN" "http://www.w3.org/Graphics/SVG/1.1/DTD/svg11.dtd">
<svg version="1.1" id="Layer_1" xmlns="http://www.w3.org/2000/svg" xmlns:xlink="http://www.w3.org/1999/xlink" x="0px" y="0px"
	 width="67.248px" height="182.292px" viewBox="0 0 67.248 182.292" enable-background="new 0 0 67.248 182.292"
	 xml:space="preserve">
<g>
	<path fill="#F8B69C" d="M42.727,88.903h-0.002v2.415v0.004h-6.983v3.316v4.377v0.002c0,0.006,0,0.009,0,0.009v0.341h0.037
		c0.174,1.764,1.646,3.148,3.456,3.148s3.282-1.385,3.459-3.148h0.034v-0.34v-0.008v-0.004v-3.586c0.034,0.004,0.064,0.01,0.1,0.01
		c0.687,0,1.245-0.558,1.245-1.243c0-0.687-0.558-1.243-1.245-1.243c-0.036,0-0.066,0.006-0.1,0.012v-3.059V88.903z"/>
	<rect x="35.742" y="91.317" fill="#FFFFFF" width="6.984" height="0.004"/>
	<polygon fill="#FFFFFF" points="35.741,88.903 35.741,88.903 35.741,91.321 35.742,91.321 35.742,91.317 35.741,91.317 	"/>
	<polygon fill="#FFFFFF" points="35.742,88.903 35.741,88.903 35.741,91.317 35.742,91.317 35.742,89.905 	"/>
	<g opacity="0.3">
		<g>
			<defs>
				<rect id="SVGID_1_" x="35.741" y="88.903" width="0.001" height="2.415"/>
			</defs>
			<clipPath id="SVGID_2_">
				<use xlink:href="#SVGID_1_"  overflow="visible"/>
			</clipPath>
			<polygon clip-path="url(#SVGID_2_)" fill="#84A8C1" points="35.742,88.903 35.741,88.903 35.741,91.317 35.742,91.317 
				35.742,89.905 			"/>
		</g>
	</g>
	<polygon fill="#FFFFFF" points="36.78,88.903 35.741,88.903 35.741,89.905 35.741,91.317 42.724,91.317 42.724,88.903 	"/>
	<rect x="35.322" y="56.893" fill="#212F42" width="9.168" height="32.857"/>
	<path fill="#1F2328" d="M50.334,178.437c-0.647-1.922-1.256-2.139-5.422-2.341l-3.034-0.968c-1.703-0.416-3.201-1.357-4.313-2.635
		c-0.251-0.292-0.479-0.6-0.688-0.918c-1.924,0.139-1.648,1.889-1.648,1.889h-5.417v0.733v1.016v1.02v2.204v0.971v0.58h5.965v-0.58
		v-0.968l2.646,1.548h12.163C50.587,179.444,50.498,178.923,50.334,178.437"/>
	<path fill="#212F42" d="M16.044,85.144c0,4.569,3.704,8.277,8.275,8.277h6.26c4.571,0,8.276-3.708,8.276-8.277v-5.558H16.044
		V85.144z"/>
	<rect x="29.812" y="82.822" fill="#212F42" width="9.046" height="90.942"/>
	<path fill="#F8B69C" d="M34.901,6.143l-0.178-0.224H21.917v27.318v10.311h9.771V33.236v-0.01v-2.677
		c0-1.248,1.428-1.427,1.428-1.427h2.988V17.343h3.794L34.901,6.143z"/>
	<path fill="#2F3E4A" d="M33.586,10.371c0,0.289-0.234,0.522-0.525,0.522c-0.29,0-0.523-0.233-0.523-0.522
		c0-0.291,0.234-0.524,0.523-0.524C33.352,9.847,33.586,10.08,33.586,10.371"/>
	<path fill="#CF867C" d="M34.318,20.308c-0.199,0-0.363-0.161-0.363-0.364h-0.536c0,0.496,0.404,0.899,0.899,0.899h1.789v-0.535
		H34.318z"/>
	<path fill="#2D323B" d="M36.354,178.437c-0.647-1.922-1.257-2.139-5.422-2.341l-3.035-0.968c-1.703-0.416-3.198-1.357-4.312-2.635
		c-0.25-0.292-0.479-0.6-0.689-0.918c-1.922,0.139-1.647,1.889-1.647,1.889h-5.416v0.733v1.016v1.02v2.204v0.971v0.58h5.963v-0.58
		v-0.968l2.647,1.548h12.163C36.607,179.444,36.518,178.923,36.354,178.437"/>
	<rect x="15.832" y="82.822" fill="#212F42" width="9.045" height="90.942"/>
	<rect x="15.833" y="77.698" fill="#9B3C21" width="23.022" height="2.033"/>
	<polygon fill="#FFFFFF" points="31.688,33.236 31.682,30.725 29.482,30.725 27.6,30.725 25.542,30.725 23.73,30.725 21.917,30.725 
		21.917,33.236 21.873,33.236 21.873,76.648 31.698,76.648 31.698,33.236 	"/>
	<g opacity="0.3">
		<g>
			<defs>
				<rect id="SVGID_3_" x="29.804" y="45.692" width="8.129" height="8.548"/>
			</defs>
			<clipPath id="SVGID_4_">
				<use xlink:href="#SVGID_3_"  overflow="visible"/>
			</clipPath>
			<path clip-path="url(#SVGID_4_)" fill="#84A8C1" d="M29.804,52.867c0,0.76,0.615,1.373,1.375,1.373h5.381
				c0.76,0,1.374-0.613,1.374-1.373v-7.173h-8.129V52.867z"/>
		</g>
	</g>
	<polygon fill="#BF302E" points="29.266,33.447 27.146,30.725 25.024,33.447 26.188,34.612 25.195,69.598 25.195,69.598 
		27.142,71.546 29.088,69.598 29.097,69.598 28.103,34.612 	"/>
	<path fill="#313335" d="M35.929,0c-1.526,0-2.765,1.237-2.765,2.763c0,0.179,0.021,0.356,0.052,0.522H21.274v15.306h1.385
		c4.194,0,3.971-3.971,3.971-3.971v-1.738c-0.04,0.003-0.077,0.011-0.118,0.011c-0.975,0-1.763-0.785-1.763-1.76
		s0.788-1.764,1.763-1.764c0.498,0,0.947,0.213,1.268,0.545v1.136v1.302v0.541h1.88V8.375h2.993c3.883,0,5.36-3.177,5.809-4.508
		c0.148-0.336,0.232-0.711,0.232-1.104C38.694,1.237,37.457,0,35.929,0"/>
	<polygon fill="#354F69" points="33.679,33.224 34.384,35.712 33.163,37.267 34.756,38.857 31.698,61.304 31.698,39.128 
		31.698,36.996 31.698,33.224 	"/>
	<path fill="#212F42" d="M19.936,33.224h-5.603c-3.181,0-5.762,2.579-5.762,5.76v0.013v4.208v0.014v16.719h7.261v0.01v16.699v10.129
		h0.57h5.47V76.648V33.236v-0.012H19.936z"/>
	<path fill="#212F42" d="M38.732,33.236H33.13h-1.432v43.412v10.129h5.468h1.69V76.648V59.939h5.635v-6.788v-5.994v-8.16
		C44.491,35.815,41.913,33.236,38.732,33.236"/>
	<polygon fill="#354F69" points="19.936,33.224 19.229,35.712 20.452,37.267 18.857,38.857 21.917,61.304 21.917,39.128 
		21.917,36.996 21.917,33.224 	"/>
	<polygon fill="#354F69" points="33.679,33.224 34.384,35.712 33.163,37.267 34.756,38.857 31.698,61.304 31.698,39.128 
		31.698,36.996 31.698,33.224 	"/>
	<path fill="#F8B69C" d="M17.617,88.903L17.617,88.903v2.418h-6.982v3.316v4.377l-0.001,0.002c0,0.006,0.001,0.009,0.001,0.009
		v0.341h0.034c0.175,1.764,1.647,3.148,3.458,3.148c1.81,0,3.283-1.385,3.457-3.148h0.034v-0.34l0.002-0.008l-0.002-0.004v-3.586
		c0.034,0.004,0.067,0.01,0.103,0.01c0.688,0,1.244-0.558,1.244-1.243c0-0.687-0.556-1.243-1.244-1.243
		c-0.036,0-0.069,0.006-0.103,0.012v-3.059V88.903z"/>
	<path fill="#FFFFFF" d="M17.617,91.321h-6.982H17.617z"/>
	<polygon fill="#FFFFFF" points="10.634,88.903 10.632,88.903 10.632,91.321 10.634,91.321 10.634,91.321 	"/>
	<polygon fill="#FFFFFF" points="10.634,88.903 10.634,88.903 10.634,91.321 10.634,91.321 10.634,89.905 	"/>
	<g opacity="0.3">
		<g>
			<defs>
				<rect id="SVGID_5_" x="10.633" y="88.903" width="0.001" height="2.418"/>
			</defs>
			<clipPath id="SVGID_6_">
				<use xlink:href="#SVGID_5_"  overflow="visible"/>
			</clipPath>
			<polygon clip-path="url(#SVGID_6_)" fill="#84A8C1" points="10.634,88.903 10.634,88.903 10.634,91.321 10.634,91.321 
				10.634,89.905 			"/>
		</g>
	</g>
	<polygon fill="#FFFFFF" points="11.675,88.903 10.634,88.903 10.634,89.905 10.634,91.321 17.617,91.321 17.617,88.903 	"/>
	<rect x="8.571" y="56.893" fill="#212F42" width="9.167" height="32.857"/>
</g>
</svg>
