<?xml version="1.0" encoding="utf-8"?>
<!-- Generator: Adobe Illustrator 16.0.0, SVG Export Plug-In . SVG Version: 6.00 Build 0)  -->
<!DOCTYPE svg PUBLIC "-//W3C//DTD SVG 1.1//EN" "http://www.w3.org/Graphics/SVG/1.1/DTD/svg11.dtd">
<svg version="1.1" id="Layer_1" xmlns="http://www.w3.org/2000/svg" xmlns:xlink="http://www.w3.org/1999/xlink" x="0px" y="0px"
	 width="67.248px" height="182.292px" viewBox="0 0 67.248 182.292" enable-background="new 0 0 67.248 182.292"
	 xml:space="preserve">
<g>
	<rect x="35.79" y="91.317" fill="#FFFFFF" width="6.984" height="0.004"/>
	<polygon fill="#FFFFFF" points="35.79,88.903 35.79,88.903 35.79,91.321 35.79,91.321 35.79,91.317 35.79,91.317 	"/>
	<polygon fill="#FFFFFF" points="35.79,88.903 35.79,88.903 35.79,91.317 35.79,91.317 35.79,89.907 	"/>
	<g opacity="0.3">
		<g>
			<defs>
				<rect id="SVGID_1_" x="35.79" y="88.903" width="0" height="2.414"/>
			</defs>
			<clipPath id="SVGID_2_">
				<use xlink:href="#SVGID_1_"  overflow="visible"/>
			</clipPath>
			<polygon clip-path="url(#SVGID_2_)" fill="#84A8C1" points="35.79,88.903 35.79,88.903 35.79,91.317 35.79,91.317 35.79,89.907 
							"/>
		</g>
	</g>
	<g>
		<path fill="#F8B69C" d="M37.263,88.286H37.26l-0.284,2.397v0.004l-6.934-0.82l-0.39,3.294l-0.514,4.348v0.002
			c-0.001,0.006-0.002,0.009-0.002,0.009l-0.04,0.337l0.037,0.004c-0.035,1.773,1.265,3.319,3.062,3.532
			c1.798,0.212,3.422-0.988,3.805-2.72l0.033,0.004l0.04-0.336l0.001-0.009l0.001-0.003l0.421-3.561
			c0.032,0.008,0.062,0.016,0.098,0.021c0.682,0.081,1.302-0.407,1.381-1.089c0.082-0.682-0.408-1.301-1.089-1.381
			c-0.035-0.005-0.066-0.002-0.101-0.002l0.358-3.035L37.263,88.286z"/>
		<polygon fill="#FFFFFF" points="31.356,87.588 30.325,87.466 30.208,88.463 30.042,89.863 36.976,90.683 37.26,88.286 		"/>
		
			<rect x="32.395" y="44.372" transform="matrix(0.9931 0.1174 -0.1174 0.9931 8.0836 -3.8811)" fill="#212F42" width="9.169" height="44.58"/>
	</g>
	<path fill="#212F42" d="M16.093,85.145c0,4.57,3.705,8.277,8.275,8.277h6.26c4.572,0,8.277-3.707,8.277-8.277v-5.557H16.093V85.145
		z"/>
	<path fill="#F8B69C" d="M34.95,6.144L34.771,5.92H21.966v27.318v10.311h9.771V33.238v-0.01v-2.679c0-1.246,1.428-1.426,1.428-1.426
		h2.988V17.345h3.794L34.95,6.144z"/>
	<path fill="#2F3E4A" d="M33.634,10.373c0,0.288-0.234,0.523-0.524,0.523s-0.524-0.235-0.524-0.523c0-0.291,0.234-0.524,0.524-0.524
		S33.634,10.082,33.634,10.373"/>
	<path fill="#CF867C" d="M34.366,20.308c-0.199,0-0.363-0.161-0.363-0.363h-0.535c0,0.497,0.404,0.9,0.898,0.9h1.789v-0.537H34.366z
		"/>
	<rect x="15.882" y="77.7" fill="#9B3C21" width="23.023" height="2.032"/>
	<polygon fill="#FFFFFF" points="31.737,33.238 31.731,30.727 29.53,30.727 27.648,30.727 25.59,30.727 23.778,30.727 
		21.966,30.727 21.966,33.238 21.921,33.238 21.921,76.65 31.747,76.65 31.747,33.238 	"/>
	<g opacity="0.3">
		<g>
			<defs>
				<rect id="SVGID_3_" x="29.853" y="45.692" width="8.129" height="8.549"/>
			</defs>
			<clipPath id="SVGID_4_">
				<use xlink:href="#SVGID_3_"  overflow="visible"/>
			</clipPath>
			<path clip-path="url(#SVGID_4_)" fill="#84A8C1" d="M29.853,52.869c0,0.76,0.615,1.372,1.375,1.372h5.381
				c0.76,0,1.373-0.612,1.373-1.372v-7.173h-8.129V52.869z"/>
		</g>
	</g>
	<polygon fill="#BF302E" points="29.313,33.449 27.194,30.727 25.073,33.449 26.236,34.614 25.243,69.6 25.243,69.6 27.19,71.546 
		29.137,69.6 29.146,69.6 28.151,34.614 	"/>
	<path fill="#313335" d="M35.978,0c-1.526,0-2.765,1.239-2.765,2.764c0,0.18,0.021,0.356,0.052,0.522H21.323v15.307h1.384
		c4.194,0,3.971-3.972,3.971-3.972v-1.737c-0.04,0.001-0.077,0.01-0.118,0.01c-0.974,0-1.762-0.784-1.762-1.76
		c0-0.975,0.788-1.765,1.762-1.765c0.498,0,0.947,0.213,1.27,0.547v1.135v1.301v0.542h1.879V8.375h2.994
		c3.883,0,5.359-3.175,5.809-4.508c0.148-0.336,0.232-0.711,0.232-1.104C38.743,1.239,37.505,0,35.978,0"/>
	<polygon fill="#354F69" points="33.728,33.226 34.433,35.713 33.212,37.267 34.804,38.859 31.747,61.305 31.747,39.129 
		31.747,36.997 31.747,33.226 	"/>
	<path fill="#212F42" d="M19.983,33.226h-5.602c-3.182,0-5.762,2.578-5.762,5.759v0.014c0,0-0.088,1.447,0,3.552
		c0.087,2.104,0.752,5.63,0.752,5.63l6.509-3.009V59.95v16.7v10.128h0.57h5.47V76.65V33.238v-0.012H19.983z"/>
	<path fill="#212F42" d="M38.78,33.238h-5.602h-1.432V76.65v10.128h5.467h1.691V76.65V45.172h5.242c0,0,0.326-2.085,0.357-3.101
		c0.034-1.108,0.034-3.072,0.034-3.072C44.539,35.816,41.962,33.238,38.78,33.238"/>
	<polygon fill="#354F69" points="19.983,33.226 19.277,35.713 20.501,37.267 18.905,38.859 21.966,61.305 21.966,39.129 
		21.966,36.997 21.966,33.226 	"/>
	<polygon fill="#354F69" points="33.728,33.226 34.433,35.713 33.212,37.267 34.804,38.859 31.747,61.305 31.747,39.129 
		31.747,36.997 31.747,33.226 	"/>
	<path fill="#FFFFFF" d="M17.665,91.321h-6.982H17.665z"/>
	<polygon fill="#FFFFFF" points="10.683,88.903 10.681,88.903 10.681,91.321 10.683,91.321 10.683,91.321 	"/>
	<polygon fill="#FFFFFF" points="10.683,88.903 10.683,88.903 10.683,91.321 10.683,91.321 10.683,89.907 	"/>
	<g opacity="0.3">
		<g>
			<defs>
				<rect id="SVGID_5_" x="10.682" y="88.903" width="0.001" height="2.418"/>
			</defs>
			<clipPath id="SVGID_6_">
				<use xlink:href="#SVGID_5_"  overflow="visible"/>
			</clipPath>
			<polygon clip-path="url(#SVGID_6_)" fill="#84A8C1" points="10.683,88.903 10.683,88.903 10.683,91.321 10.683,91.321 
				10.683,89.907 			"/>
		</g>
	</g>
	<g>
		<path fill="#1F2328" d="M66.493,174.912c-0.976-1.777-1.613-1.883-5.746-1.341l-3.154-0.418c-1.747-0.109-3.383-0.77-4.703-1.828
			c-0.299-0.241-0.578-0.502-0.841-0.781c-1.866,0.478-1.286,2.146-1.286,2.146l-5.324,0.957l0.129,0.721l0.18,1l0.18,1.004
			l0.39,2.165l0.171,0.954l0.104,0.568l5.863-1.052l-0.104-0.573l-0.17-0.944l2.877,1.049l11.957-2.149
			C66.919,175.856,66.738,175.364,66.493,174.912z"/>
		
			<rect x="37.387" y="83.03" transform="matrix(0.9842 -0.1769 0.1769 0.9842 -22.0654 9.4409)" fill="#212F42" width="9.035" height="90.831"/>
	</g>
	<g>
		<path fill="#2D323B" d="M20.709,180.562c-0.321-2-0.886-2.312-4.958-3.193l-2.832-1.454c-1.607-0.69-2.929-1.86-3.816-3.306
			c-0.198-0.325-0.375-0.666-0.527-1.014c-1.917-0.177-1.936,1.59-1.936,1.59l-5.335-0.889l-0.12,0.721l-0.167,1.004l-0.167,1.006
			l-0.361,2.17l-0.16,0.953l-0.096,0.573l5.876,0.976l0.096-0.57l0.158-0.951l2.357,1.959l11.982,1.994
			C20.792,181.597,20.79,181.069,20.709,180.562z"/>
		
			<rect x="8.683" y="82.773" transform="matrix(0.9865 0.164 -0.164 0.9865 21.224 -0.4274)" fill="#212F42" width="9.036" height="91.18"/>
	</g>
	<g>
		<path fill="#F8B69C" d="M25.189,86.665L25.189,86.665l0.41,2.381l-6.88,1.188l0.563,3.269l0.744,4.314l-0.001,0.002
			c0.001,0.005,0.002,0.008,0.002,0.008l0.058,0.334l0.033-0.004c0.474,1.709,2.159,2.82,3.944,2.514
			c1.783-0.309,3-1.921,2.87-3.689l0.034-0.007l-0.057-0.332v-0.009l-0.004-0.002l-0.608-3.535c0.034-0.002,0.067-0.002,0.103-0.009
			c0.678-0.116,1.131-0.761,1.016-1.436c-0.117-0.677-0.76-1.132-1.438-1.015c-0.034,0.006-0.066,0.018-0.099,0.027l-0.52-3.011
			L25.189,86.665z"/>
		<polygon fill="#FFFFFF" points="19.333,87.675 18.308,87.852 18.479,88.841 18.72,90.234 25.6,89.046 25.189,86.665 		"/>
		<polygon fill="#212F42" points="25.452,87.479 16.419,89.039 9.372,48.181 9.185,45.048 17.874,43.548 		"/>
	</g>
</g>
</svg>
