<?xml version="1.0" encoding="utf-8"?>
<!-- Generator: Adobe Illustrator 16.0.0, SVG Export Plug-In . SVG Version: 6.00 Build 0)  -->
<!DOCTYPE svg PUBLIC "-//W3C//DTD SVG 1.1//EN" "http://www.w3.org/Graphics/SVG/1.1/DTD/svg11.dtd">
<svg version="1.1" id="Layer_1" xmlns="http://www.w3.org/2000/svg" xmlns:xlink="http://www.w3.org/1999/xlink" x="0px" y="0px"
	 width="67.248px" height="182.292px" viewBox="0 0 67.248 182.292" enable-background="new 0 0 67.248 182.292"
	 xml:space="preserve">
<g>
	<rect x="35.775" y="91.321" fill="#FFFFFF" width="6.984" height="0"/>
	<polygon fill="#FFFFFF" points="35.774,88.903 35.774,88.903 35.774,91.321 35.775,91.321 35.775,91.321 35.774,91.321 	"/>
	<polygon fill="#FFFFFF" points="35.775,88.903 35.774,88.903 35.774,91.321 35.775,91.321 35.775,89.907 	"/>
	<g opacity="0.3">
		<g>
			<defs>
				<rect id="SVGID_1_" x="35.774" y="88.903" width="0" height="2.418"/>
			</defs>
			<clipPath id="SVGID_2_">
				<use xlink:href="#SVGID_1_"  overflow="visible"/>
			</clipPath>
			<polygon clip-path="url(#SVGID_2_)" fill="#84A8C1" points="35.775,88.903 35.774,88.903 35.774,91.321 35.775,91.321 
				35.775,89.907 			"/>
		</g>
	</g>
	<g>
		<path fill="#F8B69C" d="M51.879,86.325l-0.003,0l0.369,2.389l0,0l-6.901,1.064l0.505,3.279l0.667,4.326l0,0.005
			c0,0.005,0,0.005,0,0.005l0.052,0.337l0.036-0.006c0.441,1.72,2.106,2.862,3.895,2.585c1.79-0.275,3.034-1.866,2.94-3.639
			l0.033-0.006l-0.052-0.333l-0.001-0.008l-0.001-0.004l-0.546-3.544c0.034-0.002,0.065,0,0.1-0.006
			c0.679-0.104,1.145-0.738,1.041-1.416c-0.105-0.682-0.741-1.146-1.42-1.041c-0.035,0.006-0.065,0.014-0.098,0.025l-0.465-3.022
			L51.879,86.325z"/>
		<polygon fill="#FFFFFF" points="46.002,87.231 44.975,87.389 45.128,88.381 45.343,89.779 52.245,88.715 51.876,86.326 		"/>
		<polygon fill="#212F42" points="53.751,86.894 44.69,88.292 37.928,44.433 46.755,43.036 47.499,46.337 		"/>
	</g>
	<path fill="#212F42" d="M16.078,85.145c0,4.57,3.704,8.276,8.275,8.276h6.26c4.571,0,8.276-3.706,8.276-8.276v-5.558H16.078V85.145
		z"/>
	<path fill="#F8B69C" d="M34.934,6.147l-0.178-0.224H21.95v27.315v10.31h9.771v-10.31v-0.01V30.55c0-1.248,1.429-1.427,1.429-1.427
		h2.988V17.344h3.794L34.934,6.147z"/>
	<path fill="#2F3E4A" d="M33.619,10.373c0,0.289-0.234,0.526-0.525,0.526c-0.29,0-0.523-0.237-0.523-0.526
		c0-0.291,0.233-0.525,0.523-0.525C33.384,9.848,33.619,10.082,33.619,10.373"/>
	<path fill="#CF867C" d="M34.351,20.308c-0.199,0-0.364-0.161-0.364-0.363h-0.536c0,0.497,0.404,0.899,0.899,0.899h1.788v-0.536
		H34.351z"/>
	<rect x="15.866" y="77.7" fill="#9B3C21" width="23.023" height="2.033"/>
	<polygon fill="#FFFFFF" points="31.721,33.238 31.715,30.727 29.515,30.727 27.633,30.727 25.575,30.727 23.763,30.727 
		21.95,30.727 21.95,33.238 21.906,33.238 21.906,76.653 31.731,76.653 31.731,33.238 	"/>
	<g opacity="0.3">
		<g>
			<defs>
				<rect id="SVGID_3_" x="29.837" y="45.694" width="8.129" height="8.549"/>
			</defs>
			<clipPath id="SVGID_4_">
				<use xlink:href="#SVGID_3_"  overflow="visible"/>
			</clipPath>
			<path clip-path="url(#SVGID_4_)" fill="#84A8C1" d="M29.837,52.87c0,0.759,0.615,1.374,1.375,1.374h5.381
				c0.76,0,1.373-0.614,1.373-1.374v-7.175h-8.129V52.87z"/>
		</g>
	</g>
	<polygon fill="#BF302E" points="29.299,33.451 27.179,30.727 25.057,33.451 26.221,34.614 25.228,69.6 25.228,69.6 27.175,71.549 
		29.121,69.6 29.13,69.6 28.136,34.614 	"/>
	<path fill="#313335" d="M35.962,0c-1.526,0-2.765,1.237-2.765,2.767c0,0.177,0.022,0.353,0.052,0.522H21.307v15.303h1.384
		c4.194,0,3.971-3.972,3.971-3.972v-1.736c-0.04,0.002-0.077,0.013-0.118,0.013c-0.974,0-1.763-0.787-1.763-1.76
		c0-0.978,0.789-1.765,1.763-1.765c0.498,0,0.948,0.21,1.269,0.542v1.14v1.299v0.543h1.88V8.376h2.993
		c3.883,0,5.36-3.176,5.81-4.507c0.148-0.339,0.232-0.713,0.232-1.103C38.728,1.237,37.49,0,35.962,0"/>
	<polygon fill="#354F69" points="33.712,33.228 34.417,35.713 33.196,37.267 34.789,38.861 31.731,61.305 31.731,39.129 
		31.731,36.998 31.731,33.228 	"/>
	<path fill="#212F42" d="M19.907,33.228h-5.603c-2.014,0-3.787,1.034-4.817,2.6c-0.597,0.908-1.264,3.948-1.264,3.948l-0.567,6.874
		h8.147v13.304v16.7v10.125h0.57h5.47V76.653V33.238v-0.01H19.907z"/>
	<path fill="#212F42" d="M38.766,33.238h-5.603h-1.432v43.416v10.125h5.467h1.691V76.653V46.649l8.629-0.007
		c0,0-0.802-4.762-1.965-7.31c-1.163-2.547-1.523-3.002-2.344-3.999C42.153,34.054,40.555,33.238,38.766,33.238"/>
	<polygon fill="#354F69" points="19.969,33.228 19.262,35.713 20.485,37.267 18.891,38.861 21.95,61.305 21.95,39.129 21.95,36.998 
		21.95,33.228 	"/>
	<polygon fill="#354F69" points="33.712,33.228 34.417,35.713 33.196,37.267 34.789,38.861 31.731,61.305 31.731,39.129 
		31.731,36.998 31.731,33.228 	"/>
	<path fill="#FFFFFF" d="M17.649,91.321h-6.982H17.649z"/>
	<polygon fill="#FFFFFF" points="10.667,88.903 10.666,88.903 10.666,91.321 10.667,91.321 10.667,91.321 	"/>
	<polygon fill="#FFFFFF" points="10.667,88.903 10.667,88.903 10.667,91.321 10.667,91.321 10.667,89.907 	"/>
	<g opacity="0.3">
		<g>
			<defs>
				<rect id="SVGID_5_" x="10.666" y="88.903" width="0.001" height="2.418"/>
			</defs>
			<clipPath id="SVGID_6_">
				<use xlink:href="#SVGID_5_"  overflow="visible"/>
			</clipPath>
			<polygon clip-path="url(#SVGID_6_)" fill="#84A8C1" points="10.667,88.903 10.667,88.903 10.667,91.321 10.667,91.321 
				10.667,89.907 			"/>
		</g>
	</g>
	<g>
		<path fill="#F8B69C" d="M9.984,86.851L9.984,86.851l-0.373,2.389l-6.899-1.076L2.201,91.44l-0.675,4.326l-0.002,0.004
			c0,0.004,0,0.004,0,0.004l-0.052,0.337l0.033,0.005c-0.099,1.771,1.142,3.366,2.931,3.646c1.789,0.277,3.457-0.862,3.901-2.58
			l0.033,0.006l0.052-0.334l0.003-0.008l-0.001-0.004L8.978,93.3c0.033,0.008,0.065,0.021,0.1,0.026
			c0.68,0.105,1.315-0.357,1.421-1.035c0.106-0.681-0.358-1.315-1.038-1.422c-0.035-0.005-0.069-0.007-0.104-0.006l0.472-3.021
			L9.984,86.851z"/>
		<polygon fill="#FFFFFF" points="4.113,85.935 3.085,85.774 2.93,86.766 2.712,88.163 9.611,89.239 9.984,86.851 		"/>
		<polygon fill="#212F42" points="9.973,87.707 0.916,86.293 7.103,46.642 8.223,39.775 16.814,43.861 		"/>
	</g>
	<g>
		<path fill="#1F2328" d="M30.45,180.62c-0.229-2.012-0.78-2.354-4.807-3.419l-2.763-1.58c-1.576-0.762-2.842-1.993-3.661-3.476
			c-0.185-0.337-0.345-0.682-0.482-1.041c-1.908-0.266-2.005,1.502-2.005,1.502l-5.29-1.132l-0.153,0.718l-0.214,0.992l-0.211,0.996
			l-0.46,2.151l-0.203,0.95l-0.122,0.564l5.827,1.244l0.12-0.568l0.203-0.939l2.262,2.062l11.882,2.54
			C30.486,181.653,30.508,181.13,30.45,180.62z"/>
		<polygon fill="#212F42" points="22.767,118.52 11.38,171.769 20.216,173.659 27.364,140.21 		"/>
		<polygon fill="#212F42" points="27.526,96.266 30.373,82.951 38.783,84.76 38.862,86.413 32.156,117.786 		"/>
	</g>
	<g>
		<path fill="#2D323B" d="M55.868,174.635c-1.034-1.741-1.674-1.827-5.787-1.154l-3.165-0.312c-1.751-0.053-3.409-0.658-4.763-1.674
			c-0.305-0.231-0.593-0.484-0.864-0.754c-1.85,0.541-1.216,2.19-1.216,2.19l-5.29,1.132l0.153,0.715l0.213,0.995l0.211,0.993
			l0.462,2.152l0.202,0.951l0.122,0.562l5.825-1.242l-0.122-0.565l-0.2-0.943l2.909,0.955l11.88-2.539
			C56.324,175.565,56.128,175.077,55.868,174.635z"/>
		
			<rect x="25.217" y="83.244" transform="matrix(0.978 -0.2088 0.2088 0.978 -26.2471 9.0494)" fill="#212F42" width="9.035" height="91.174"/>
	</g>
</g>
</svg>
