<?xml version="1.0" encoding="utf-8"?>
<!-- Generator: Adobe Illustrator 16.0.0, SVG Export Plug-In . SVG Version: 6.00 Build 0)  -->
<!DOCTYPE svg PUBLIC "-//W3C//DTD SVG 1.1//EN" "http://www.w3.org/Graphics/SVG/1.1/DTD/svg11.dtd">
<svg version="1.1" id="Layer_1" xmlns="http://www.w3.org/2000/svg" xmlns:xlink="http://www.w3.org/1999/xlink" x="0px" y="0px"
	 width="77.961px" height="142.281px" viewBox="0 0 77.961 142.281" enable-background="new 0 0 77.961 142.281"
	 xml:space="preserve">
<g>
	<rect x="70.206" y="57.99" fill="#202E42" width="7.755" height="9.932"/>
	<rect x="42.455" y="57.99" fill="#202E42" width="7.754" height="9.932"/>
	<g display="none">
		
			<rect x="77.077" y="61.663" transform="matrix(-0.9767 -0.2145 0.2145 -0.9767 138.0029 169.6065)" display="inline" fill="#9B9B9B" width="2.258" height="31.303"/>
		<path display="inline" fill="#005493" d="M80.03,83.757c-0.398,1.714-2.111,2.779-3.823,2.38l0,0
			c-1.715-0.397-2.779-2.113-2.38-3.826l13.572-58.165c0.399-1.712,2.111-2.777,3.826-2.377l0,0
			c1.713,0.399,2.776,2.113,2.378,3.825L80.03,83.757z"/>
	</g>
	<g display="none">
		<g display="inline">
			<rect x="47.997" y="117.941" fill="#9B9B9B" width="5.999" height="15.762"/>
			<rect x="49.866" y="89.766" fill="#9B9B9B" width="2.26" height="31.303"/>
			<g>
				
					<rect x="58.743" y="125.282" transform="matrix(-0.2706 0.9627 -0.9627 -0.2706 205.8095 114.3849)" fill="#9B9B9B" width="1.657" height="19.758"/>
				
					<rect x="41.612" y="125.298" transform="matrix(0.2718 0.9623 -0.9623 0.2718 160.9902 57.5889)" fill="#9B9B9B" width="1.656" height="19.758"/>
				<circle fill="#9B9B9B" cx="33.142" cy="139.537" r="2.5"/>
				<circle fill="#9B9B9B" cx="68.85" cy="139.537" r="2.5"/>
			</g>
			<rect x="50.081" y="132.225" fill="#9B9B9B" width="1.831" height="6.42"/>
			<rect x="49.054" y="137.05" fill="#9B9B9B" width="3.884" height="4.986"/>
		</g>
		<path display="inline" fill="#0085BA" d="M77.515,92.852c0,1.979-1.604,3.582-3.586,3.582H28.061
			c-1.978,0-3.582-1.604-3.582-3.582l0,0c0-1.981,1.604-3.584,3.582-3.584h45.868C75.909,89.268,77.515,90.869,77.515,92.852
			L77.515,92.852z"/>
	</g>
	<g>
		<g>
			<path fill="#2C313A" d="M0.165,140.791c0.638-1.899,1.239-2.113,5.354-2.313l2.998-0.955c1.682-0.414,3.158-1.34,4.259-2.604
				c0.247-0.287,0.475-0.59,0.682-0.906c1.897,0.139,1.626,1.865,1.626,1.865h5.351v0.723v1.006v1.008v2.176v0.957v0.572h-5.891
				v-0.572v-0.953l-2.615,1.525H-0.085C-0.085,141.785,0.004,141.271,0.165,140.791z"/>
			<rect x="11.499" y="84.533" fill="#202E42" width="8.935" height="51.643"/>
		</g>
		<path fill="#1F2328" d="M11.59,140.791c0.639-1.899,1.24-2.113,5.354-2.313l2.997-0.955c1.682-0.414,3.159-1.34,4.261-2.604
			c0.246-0.287,0.474-0.59,0.68-0.906c1.897,0.139,1.627,1.865,1.627,1.865h5.35v0.723v1.006v1.008v2.176v0.957v0.572h-5.89v-0.572
			v-0.953l-2.616,1.525H11.34C11.34,141.785,11.429,141.271,11.59,140.791z"/>
		<rect x="22.924" y="84.533" fill="#202E42" width="8.935" height="51.643"/>
		<rect x="11.499" y="80.585" fill="#202E42" width="50.851" height="8.933"/>
		<path fill="#202E42" d="M47.958,81.251c0,4.566,3.703,8.267,8.268,8.267h6.257c4.567,0,8.269-3.699,8.269-8.267v-6.258
			c0-4.567-3.7-8.268-8.269-8.268h-6.257c-4.564,0-8.268,3.701-8.268,8.268V81.251z"/>
	</g>
	<g>
		<path fill="#F9B69B" d="M32.58,65.136L32.58,65.136h-2.39l0,0v6.903h-3.278h-4.326c-0.002,0-0.004,0-0.007,0s-0.005,0-0.009,0
			h-0.334v-0.033c-1.742-0.174-3.11-1.628-3.11-3.418c0-1.791,1.368-3.246,3.11-3.417v-0.034h0.334c0.004,0,0.006-0.001,0.009-0.001
			s0.005,0.001,0.007,0.001h3.542c-0.003-0.034-0.011-0.066-0.011-0.101c0-0.679,0.551-1.229,1.229-1.229s1.23,0.551,1.23,1.229
			c0,0.035-0.008,0.067-0.012,0.101h3.022H32.58z"/>
		<rect x="30.191" y="65.137" fill="#FFFFFF" width="0" height="6.901"/>
		<polygon fill="#FFFFFF" points="32.58,72.039 32.58,72.039 30.191,72.039 30.191,72.039 30.191,72.039 30.191,72.039 		"/>
		<polygon fill="#FFFFFF" points="32.58,72.039 32.58,72.039 30.191,72.039 30.191,72.039 31.589,72.039 		"/>
		<polygon opacity="0.3" fill="#84A8C1" enable-background="new    " points="32.58,72.039 32.58,72.039 30.191,72.039 
			30.191,72.039 31.589,72.039 		"/>
		<polygon fill="#FFFFFF" points="32.58,71.011 32.58,72.039 31.589,72.039 30.191,72.039 30.191,65.137 32.58,65.137 		"/>
		<rect x="31.742" y="63.392" fill="#202E42" width="32.478" height="9.063"/>
	</g>
	<g>
		<path fill="#F9B69B" d="M51.934,6.113l0.177-0.221h12.657v27.002l0,0v10.191H55.11v-10.19l0,0v-0.01c0-2.116,0-2.116,0-2.646
			c0-1.235-1.409-1.411-1.409-1.411h-2.956V17.184h-3.75L51.934,6.113z"/>
		<circle fill="#2E3D49" cx="53.753" cy="10.293" r="0.519"/>
		<path fill="#CE857C" d="M52.51,20.115c0.198,0,0.36-0.161,0.36-0.36h0.528c0,0.489-0.397,0.888-0.89,0.888h-1.767v-0.528H52.51z"
			/>
		<path fill="none" d="M58.338,10.965c0,0.013-0.004,0.025-0.004,0.038v-0.038H58.338z"/>
		<g>
			<rect x="48.023" y="75.809" fill="#9B390D" width="22.76" height="2.008"/>
			<polygon fill="#202E42" points="50.261,77.816 50.261,75.809 51.28,75.809 51.28,77.816 64.898,77.816 64.898,75.809 
				65.92,75.809 65.92,77.816 70.782,77.816 70.782,80.585 48.023,80.585 48.023,77.816 			"/>
		</g>
		<polygon fill="#FFFFFF" points="55.109,32.895 55.116,30.414 57.289,30.414 59.15,30.414 61.185,30.414 62.978,30.414 
			64.768,30.414 64.768,32.895 64.812,32.895 64.812,75.809 55.101,75.809 55.101,32.895 		"/>
		<path opacity="0.3" fill="#84A8C1" enable-background="new    " d="M56.973,52.3c0,0.75-0.607,1.358-1.357,1.358h-5.318
			c-0.75,0-1.358-0.607-1.358-1.358v-7.095h8.035L56.973,52.3L56.973,52.3z"/>
		<polygon fill="#BF2E2E" points="57.503,33.104 59.6,30.414 61.695,33.104 60.546,34.254 61.528,68.836 61.528,68.836 
			59.604,70.761 57.679,68.836 57.672,68.836 58.653,34.254 		"/>
		<path fill="#303235" d="M50.918,0.041c1.509,0,2.732,1.223,2.732,2.734c0,0.176-0.021,0.349-0.054,0.516h11.805V18.42
			c0,0,0,0-1.366,0c-4.146,0-3.926-3.926-3.926-3.926v-1.718c0.04,0.003,0.077,0.012,0.117,0.012c0.962,0,1.741-0.78,1.741-1.742
			s-0.779-1.742-1.741-1.742c-0.494,0-0.937,0.207-1.256,0.538v1.124v1.286v0.537h-1.855v-4.47c-0.632,0-1.563,0-2.961,0
			c-3.838,0-5.297-3.139-5.74-4.453c-0.146-0.334-0.229-0.704-0.229-1.091C48.185,1.263,49.408,0.041,50.918,0.041z"/>
		<polygon fill="#344E68" points="53.141,32.883 52.445,35.342 53.653,36.877 52.077,38.452 55.101,60.638 55.101,38.716 
			55.101,36.609 55.101,32.883 		"/>
		<g>
			<path fill="#202E42" d="M66.727,32.883h5.538c3.146,0,5.696,2.548,5.696,5.694v0.012v4.162v0.012v16.525h-7.179V59.3v16.508
				v4.777h-0.564h-5.406v-4.777V32.895v-0.012H66.727z"/>
			<path fill="#202E42" d="M48.146,32.895h5.539H55.1v42.914v4.776h-5.404h-1.673v-4.776V59.288h-5.567v-6.707v-5.926V38.59
				C42.455,35.444,45.003,32.895,48.146,32.895z"/>
			<polygon fill="#344E68" points="66.727,32.883 67.424,35.342 66.215,36.877 67.791,38.452 64.768,60.638 64.768,38.716 
				64.768,36.609 64.768,32.883 			"/>
			<polygon fill="#344E68" points="53.141,32.883 52.445,35.342 53.653,36.877 52.077,38.452 55.101,60.638 55.101,38.716 
				55.101,36.609 55.101,32.883 			"/>
		</g>
	</g>
	<g>
		<path fill="#F9B69B" d="M54.271,63.351L54.271,63.351l-2.388,0.001h-0.001v6.902h-3.278h-4.326c-0.004,0-0.005,0-0.009,0
			c-0.003,0-0.005,0-0.007,0h-0.335V70.22c-1.743-0.174-3.11-1.628-3.11-3.418c0-1.791,1.367-3.244,3.11-3.417v-0.034h0.335
			c0.002,0,0.004-0.001,0.007-0.001c0.004,0,0.005,0.001,0.009,0.001h3.543c-0.005-0.034-0.012-0.064-0.012-0.1
			c0-0.679,0.55-1.23,1.229-1.23c0.681,0,1.23,0.551,1.23,1.23c0,0.036-0.007,0.066-0.01,0.1h3.021H54.271z"/>
		<rect x="51.882" y="63.352" fill="#FFFFFF" width="0.001" height="6.902"/>
		<polygon fill="#FFFFFF" points="54.271,70.254 54.271,70.255 51.882,70.255 51.882,70.254 51.883,70.254 51.883,70.254 		"/>
		<polygon fill="#FFFFFF" points="54.271,70.254 54.271,70.254 51.883,70.254 51.883,70.254 53.279,70.254 		"/>
		<polygon opacity="0.3" fill="#84A8C1" enable-background="new    " points="54.271,70.254 54.271,70.254 51.883,70.254 
			51.883,70.254 53.279,70.254 		"/>
		<polygon fill="#FFFFFF" points="54.271,69.226 54.271,70.254 53.279,70.254 51.883,70.254 51.883,63.352 54.271,63.352 		"/>
		<rect x="53.433" y="63.232" fill="#202E42" width="24.528" height="9.061"/>
	</g>
	<g display="none">
		<g display="inline">
			<rect x="65.022" y="73.488" fill="#9B9B9B" width="2.261" height="16.969"/>
			<circle fill="#9B9B9B" cx="66.157" cy="90.455" r="1.135"/>
		</g>
		<path display="inline" fill="#0085BA" d="M82.815,74.412c0,1.346-1.091,2.438-2.437,2.438H36.174
			c-1.345,0-2.437-1.093-2.437-2.438l0,0c0-1.346,1.092-2.436,2.437-2.436h44.205C81.725,71.976,82.815,73.066,82.815,74.412
			L82.815,74.412z"/>
	</g>
</g>
</svg>
