<?xml version="1.0" encoding="utf-8"?>
<!-- Generator: Adobe Illustrator 16.0.0, SVG Export Plug-In . SVG Version: 6.00 Build 0)  -->
<!DOCTYPE svg PUBLIC "-//W3C//DTD SVG 1.1//EN" "http://www.w3.org/Graphics/SVG/1.1/DTD/svg11.dtd">
<svg version="1.1" id="Layer_1" xmlns="http://www.w3.org/2000/svg" xmlns:xlink="http://www.w3.org/1999/xlink" x="0px" y="0px"
	 width="62.526px" height="172px" viewBox="0 0 62.526 172" enable-background="new 0 0 62.526 172" xml:space="preserve">
<g>
	<g>
		<g>
			<path fill="#2E373E" d="M43.384,166.57c-0.05,0-0.102,0.003-0.15,0.003l-0.002-0.003h-3.348
				c-3.103-2.191-5.129-5.805-5.129-9.891h-0.023v-15.512h-5.816v15.512v0.413v2.734v3.521v6.594h3.644v-4.07l3.746,4.07h3.708h3.52
				h3.224C46.756,168.079,45.247,166.57,43.384,166.57z"/>
			<rect x="28.916" y="110.309" fill="#F8B69C" width="5.816" height="30.858"/>
		</g>
		<rect x="28.916" y="121.191" opacity="0.4" fill="#B78D7E" width="5.816" height="2.184"/>
	</g>
	<g>
		<g>
			<path fill="#3C474D" d="M31.695,166.585c-0.052,0-0.1,0.002-0.151,0.006v-0.006h-3.35c-3.102-2.191-5.127-5.803-5.127-9.889
				h-0.004v-15.529h-5.817v15.529h-0.02v3.145v3.524v6.593h3.645v-4.071l3.746,4.071h3.707h3.521h3.222
				C35.067,168.094,33.556,166.585,31.695,166.585z"/>
			<rect x="17.246" y="110.309" fill="#F8B69C" width="5.817" height="30.858"/>
		</g>
		<rect x="17.246" y="121.191" opacity="0.4" fill="#B78D7E" width="5.818" height="2.184"/>
	</g>
	<path fill="#F8B69C" d="M35.655,85.27c-0.002,0-0.003,0-0.005,0v-0.281v-4.512V47.637h-5.815v32.839v4.512v3.901h0.01
		c-0.001,0.038-0.01,0.079-0.01,0.116c0,1.609,1.302,2.912,2.909,2.912s2.912-1.303,2.912-2.912c0-0.037-0.01-0.078-0.013-0.116
		h0.008v-0.549c0.002,0,0.003,0,0.005,0c0.847,0,1.537-0.688,1.537-1.536C37.191,85.956,36.502,85.27,35.655,85.27z"/>
	<rect x="29.834" y="47.848" opacity="0.4" fill="#B78D7E" width="5.815" height="2.183"/>
	<g>
		<path fill="#F8B69C" d="M30.982,2.849l4.066,12.108h-2.866v6.408h-2.981c0,0-1.423,0.177-1.423,1.423c0,0.534,0,4.937,0,7.074
			v2.491h-6.825v-1.6V2.629h9.851L30.982,2.849z"/>
		<path fill="#2F3E4A" d="M30.49,9.706c0,0.287-0.234,0.521-0.525,0.521c-0.285,0-0.522-0.233-0.522-0.521
			c0-0.29,0.237-0.523,0.522-0.523C30.256,9.183,30.49,9.417,30.49,9.706z"/>
		<path fill="#F28A82" d="M31.048,16.992c-0.075,0-0.136-0.06-0.136-0.138h-0.534c0,0.372,0.3,0.672,0.669,0.672h1.144v-0.534
			H31.048z"/>
		<path fill="#C2692A" d="M16.161,0v27.46c0,0,1.723,0,3.419,0c5.147,0,4.873-4.873,4.873-4.873V12.165
			c-0.968-0.004-1.753-0.79-1.753-1.759c0-0.97,0.785-1.757,1.757-1.757c0.769,0,1.417,0.497,1.654,1.185l0.024-0.072
			c1.124-0.083,2.011-0.986,2.065-2.117h0.011V6.242c0.5,0,1.127,0,1.915,0C36.148,6.242,37.461,0,37.461,0H16.161z"/>
	</g>
	<path fill="#4C789C" d="M36.504,41.853l0.004-0.004l-0.46-0.71V39.56v-2.595v-3.33c0-1.333-1.079-2.416-2.41-2.416H29.68h-1.898
		h-6.904h-4.133h-1.722c-1.333,0-2.412,1.083-2.412,2.416v3.629H12.6v10.583h5.843v16.203h2.696h8.541h4.441V48.401
		c1.927-0.26,3.412-1.901,3.412-3.899C37.533,43.479,37.141,42.552,36.504,41.853z"/>
	<polygon fill="#5B4C71" points="34.098,63.074 28.049,63.074 26.234,63.074 24.636,63.074 22.821,63.074 16.771,63.074 
		8.837,121.191 22.821,121.191 28.049,121.191 42.035,121.191 	"/>
	<rect x="19.487" y="55.513" fill="#5B4C71" width="14.634" height="7.561"/>
	<rect x="18.417" y="55.513" fill="#2F3E4A" width="15.704" height="7.641"/>
	<polygon fill="#FFFFFF" points="20.878,31.219 26.017,36.953 26.017,55.513 27.795,55.513 27.795,39.83 27.795,35.742 
		27.795,31.219 	"/>
	<path fill="#F8B69C" d="M18.421,85.27c0,0-0.003,0-0.006,0v-0.281v-4.512V47.848H12.6v32.629v4.512v3.901h0.011
		c-0.003,0.038-0.011,0.079-0.011,0.116c0,1.609,1.303,2.912,2.909,2.912c1.609,0,2.912-1.303,2.912-2.912
		c0-0.037-0.011-0.078-0.012-0.116h0.006v-0.549c0.002,0,0.005,0,0.006,0c0.848,0,1.536-0.688,1.536-1.536
		C19.957,85.956,19.269,85.27,18.421,85.27z"/>
	<rect x="12.6" y="47.848" opacity="0.4" fill="#B78D7E" width="5.817" height="2.183"/>
	<g>
		<path fill="#00AF7E" stroke="#BAD7EE" stroke-width="0.3628" stroke-miterlimit="10" d="M26.125,32.87
			c0,0.734-0.474,1.328-1.058,1.328s-1.06-0.594-1.06-1.328c0-0.736,0.475-1.334,1.06-1.334S26.125,32.134,26.125,32.87z"/>
		<circle fill="#FFFFFF" cx="25.319" cy="32.467" r="0.257"/>
	</g>
</g>
</svg>
