<?xml version="1.0" encoding="utf-8"?>
<!-- Generator: Adobe Illustrator 16.0.0, SVG Export Plug-In . SVG Version: 6.00 Build 0)  -->
<!DOCTYPE svg PUBLIC "-//W3C//DTD SVG 1.1//EN" "http://www.w3.org/Graphics/SVG/1.1/DTD/svg11.dtd">
<svg version="1.1" id="Layer_1" xmlns="http://www.w3.org/2000/svg" xmlns:xlink="http://www.w3.org/1999/xlink" x="0px" y="0px"
	 width="62.526px" height="172px" viewBox="0 0 62.526 172" enable-background="new 0 0 62.526 172" xml:space="preserve">
<g>
	<g>
		<g>
			<path fill="#2E373E" d="M54.833,164.896c-0.049,0.007-0.1,0.016-0.146,0.026v-0.005l-3.32,0.438
				c-3.365-1.766-5.848-5.081-6.385-9.132l-0.021,0.003l-2.035-15.378l-5.767,0.762l2.036,15.377l0.053,0.408l0.359,2.714
				l0.463,3.491l0.865,6.533l3.609-0.479l-0.533-4.033l4.25,3.545l3.674-0.488l3.49-0.46l3.193-0.423
				C58.374,165.95,56.679,164.652,54.833,164.896z"/>
			
				<rect x="32.953" y="77.782" transform="matrix(0.9914 -0.131 0.131 0.9914 -14.0495 5.6404)" fill="#F8B69C" width="5.817" height="63.723"/>
		</g>
		<polygon opacity="0.4" fill="#B78D7E" points="40.573,123.027 34.662,123.027 34.436,121.191 40.349,121.191 		"/>
	</g>
	<g>
		<g>
			<path fill="#3C474D" d="M16.181,167.972c-0.048-0.012-0.097-0.017-0.147-0.021l0.002-0.006l-3.301-0.584
				c-2.67-2.702-4.033-6.613-3.318-10.635H9.413l2.717-15.291l-5.728-1.018l-2.716,15.289l-0.019-0.005l-0.549,3.1l-0.618,3.47
				l-1.153,6.489l3.587,0.637l0.713-4.008l2.975,4.665l3.65,0.65l3.466,0.611l3.172,0.566
				C19.237,170.05,18.015,168.295,16.181,167.972z"/>
			
				<rect x="11.931" y="77.691" transform="matrix(0.9846 0.1749 -0.1749 0.9846 19.3926 -0.9068)" fill="#F8B69C" width="5.817" height="63.727"/>
		</g>
		<polygon opacity="0.4" fill="#B78D7E" points="15.386,123.027 9.473,123.027 9.816,121.191 15.728,121.191 		"/>
	</g>
	<g>
		<path fill="#F8B69C" d="M30.96,2.848l4.064,12.108H32.16v6.409h-2.98c0,0-1.424,0.178-1.424,1.421c0,0.537,0,4.938,0,7.076v2.492
			h-6.823v-1.603V2.625h9.85L30.96,2.848z"/>
		<path fill="#2F3E4A" d="M30.468,9.704c0,0.29-0.236,0.523-0.523,0.523c-0.286,0-0.524-0.233-0.524-0.523
			c0-0.287,0.238-0.52,0.524-0.52C30.232,9.184,30.468,9.417,30.468,9.704z"/>
		<path fill="#F28A82" d="M31.026,16.993c-0.076,0-0.137-0.062-0.137-0.14h-0.534c0,0.369,0.301,0.673,0.671,0.673h1.145v-0.534
			H31.026z"/>
		<path fill="#C2692A" d="M16.142,0v27.456c0,0,1.718,0,3.417,0c5.146,0,4.873-4.873,4.873-4.873v-10.42
			c-0.968,0-1.752-0.789-1.752-1.76c0-0.968,0.786-1.758,1.755-1.758c0.771,0,1.418,0.501,1.656,1.189l0.023-0.073
			c1.123-0.085,2.01-0.989,2.064-2.121h0.009V6.242c0.503,0,1.128,0,1.917,0C36.125,6.242,37.44,0,37.44,0H16.142z"/>
	</g>
	<g>
		<path fill="#F8B69C" d="M30.446,84.964c-0.001,0-0.003,0-0.005,0l0.036-0.276l0.566-4.48l4.114-32.581l-5.768-0.729L25.273,79.48
			l-0.565,4.479l-0.488,3.865h0.01c-0.006,0.043-0.021,0.078-0.025,0.119c-0.202,1.594,0.926,3.049,2.522,3.25
			c1.594,0.202,3.049-0.927,3.251-2.521c0.005-0.04,0-0.079,0.002-0.121l0.007,0.002l0.067-0.542
			c0.002,0.001,0.003,0.001,0.005,0.001c0.843,0.107,1.612-0.49,1.718-1.332C31.887,85.836,31.29,85.071,30.446,84.964z"/>
		
			<rect x="29.202" y="47.465" transform="matrix(0.9921 0.1253 -0.1253 0.9921 6.3395 -3.642)" opacity="0.4" fill="#B78D7E" width="5.816" height="2.18"/>
		
			<rect x="29.742" y="41.068" transform="matrix(0.9921 0.1253 -0.1253 0.9921 5.8073 -3.7428)" fill="#4C789C" width="5.817" height="6.431"/>
	</g>
	<path fill="#4C789C" d="M36.481,41.853l0.004-0.005l-0.459-0.71v-1.581v-2.592v-3.333c0-1.333-1.078-2.413-2.413-2.413h-3.955
		h-1.898h-6.905h-4.132h-1.721c-1.333,0-2.412,1.08-2.412,2.413c0,0-0.159,1.843,0,3.631c0.158,1.788-0.012,0-0.012,0l0.396,4.153
		h3.78v22.636h4.364h8.541h4.439V48.398c1.928-0.255,3.414-1.901,3.414-3.9C37.512,43.478,37.12,42.549,36.481,41.853z"/>
	<polygon fill="#5B4C71" points="34.076,63.072 28.026,63.072 26.212,63.072 24.614,63.072 22.8,63.072 16.75,63.072 8.813,121.191 
		22.8,121.191 28.026,121.191 42.013,121.191 	"/>
	<rect x="19.466" y="55.509" fill="#5B4C71" width="14.632" height="7.563"/>
	<rect x="16.754" y="55.509" fill="#2F3E4A" width="17.344" height="7.643"/>
	<polygon fill="#FFFFFF" points="20.855,31.218 25.994,36.953 25.994,55.509 27.775,55.509 27.775,39.829 27.775,35.741 
		27.775,31.218 	"/>
	<g>
		<path fill="#F8B69C" d="M25.983,83.665c-0.002,0.001-0.003,0.001-0.004,0.002l-0.047-0.274l-0.748-4.454l-5.409-32.177
			l-5.735,0.964l5.409,32.178l0.748,4.452l0.646,3.841l0.012-0.001c0.003,0.042,0.001,0.08,0.008,0.12
			c0.267,1.585,1.768,2.653,3.353,2.387c1.585-0.267,2.653-1.767,2.388-3.353c-0.007-0.039-0.023-0.074-0.031-0.115l0.006-0.002
			l-0.091-0.537c0.002,0,0.004,0,0.005-0.001c0.836-0.141,1.402-0.934,1.261-1.771C27.612,84.085,26.82,83.525,25.983,83.665z"/>
		
			<rect x="14.18" y="47.229" transform="matrix(0.9862 -0.1656 0.1656 0.9862 -7.7675 3.4979)" opacity="0.4" fill="#B78D7E" width="5.816" height="2.181"/>
		
			<rect x="13.467" y="40.859" transform="matrix(0.9862 -0.1657 0.1657 0.9862 -7.078 3.3233)" fill="#4C789C" width="5.816" height="6.43"/>
	</g>
	<g>
		<path fill="#00AF7E" stroke="#BAD7EE" stroke-width="0.3628" stroke-miterlimit="10" d="M26.104,32.867
			c0,0.732-0.474,1.332-1.06,1.332c-0.584,0-1.059-0.599-1.059-1.332c0-0.734,0.475-1.329,1.059-1.329
			C25.629,31.539,26.104,32.133,26.104,32.867z"/>
		<path fill="#FFFFFF" d="M25.552,32.462c0,0.145-0.114,0.257-0.255,0.257c-0.142,0-0.256-0.113-0.256-0.257
			c0-0.139,0.114-0.255,0.256-0.255C25.438,32.207,25.552,32.324,25.552,32.462z"/>
	</g>
</g>
</svg>
