<?xml version="1.0" encoding="utf-8"?>
<!-- Generator: Adobe Illustrator 16.0.0, SVG Export Plug-In . SVG Version: 6.00 Build 0)  -->
<!DOCTYPE svg PUBLIC "-//W3C//DTD SVG 1.1//EN" "http://www.w3.org/Graphics/SVG/1.1/DTD/svg11.dtd">
<svg version="1.1" id="Layer_1" xmlns="http://www.w3.org/2000/svg" xmlns:xlink="http://www.w3.org/1999/xlink" x="0px" y="0px"
	 width="62.526px" height="172px" viewBox="0 0 62.526 172" enable-background="new 0 0 62.526 172" xml:space="preserve">
<g>
	<g>
		<g>
			<path fill="#2E373E" d="M14.805,167.46c-0.048-0.017-0.096-0.031-0.144-0.045l0.001-0.003l-3.187-1.03
				c-2.279-3.035-3.101-7.098-1.844-10.986l-0.022-0.01l4.765-14.762l-5.536-1.785L4.073,153.6l-0.128,0.395l-0.839,2.603
				l-1.082,3.351L0,166.22l3.468,1.123l1.25-3.875l2.317,5.025l3.525,1.137l3.351,1.08l3.066,0.989
				C17.549,169.931,16.576,168.028,14.805,167.46z"/>
			
				<rect x="18.484" y="77.55" transform="matrix(0.9517 0.3069 -0.3069 0.9517 34.6129 -1.2849)" fill="#F8B69C" width="5.816" height="63.722"/>
		</g>
		<polygon opacity="0.4" fill="#B78D7E" points="19.985,123.083 13.905,123.083 14.518,121.191 20.638,121.191 		"/>
	</g>
	<g>
		<g>
			<path fill="#3C474D" d="M58.292,160.257c-0.048,0.015-0.096,0.031-0.142,0.051l-0.001-0.006l-3.191,1.017
				c-3.623-1.145-6.648-3.974-7.888-7.866h-0.004l-4.717-14.797l-5.541,1.768l4.713,14.797l-0.016,0.004l0.954,3.002l1.071,3.352
				l1.999,6.283l3.472-1.108l-1.235-3.879l4.805,2.745l3.532-1.123l3.355-1.072l3.068-0.978
				C61.964,160.675,60.066,159.692,58.292,160.257z"/>
			
				<rect x="27.001" y="77.318" transform="matrix(0.9527 -0.3039 0.3039 0.9527 -31.7663 14.2538)" fill="#F8B69C" width="5.816" height="63.725"/>
		</g>
		<polygon opacity="0.4" fill="#B78D7E" points="37.367,123.083 31.286,123.083 30.666,121.191 36.788,121.191 		"/>
	</g>
	<g>
		<path fill="#F8B69C" d="M30.945,2.848l4.064,12.108h-2.864v6.409h-2.981c0,0-1.424,0.178-1.424,1.423c0,0.535,0,4.937,0,7.074
			v2.492h-6.823v-1.599V2.628h9.85L30.945,2.848z"/>
		<circle fill="#2F3E4A" cx="29.93" cy="9.704" r="0.524"/>
		<path fill="#F28A82" d="M31.012,16.993c-0.076,0-0.137-0.062-0.137-0.138H30.34c0,0.371,0.302,0.672,0.671,0.672h1.144v-0.534
			H31.012z"/>
		<path fill="#C2692A" d="M16.127,0v27.459c0,0,1.719,0,3.417,0c5.146,0,4.873-4.872,4.873-4.872V12.164
			c-0.969-0.002-1.753-0.789-1.753-1.759c0-0.968,0.786-1.755,1.756-1.755c0.771,0,1.417,0.498,1.656,1.186l0.024-0.073
			c1.123-0.082,2.01-0.985,2.064-2.118h0.009V6.242c0.502,0,1.127,0,1.917,0C36.11,6.242,37.425,0,37.425,0H16.127z"/>
	</g>
	<path fill="#4C789C" d="M36.466,41.851l0.004-0.002l2.466-0.828c0,0-0.146-1.078-0.217-1.5c-0.279-1.67-1.825-6.36-1.924-6.651
		c-0.453-1.331-1.898-1.697-3.195-1.65h-3.956h-1.898H20.84h-4.132h-1.721c-0.799,0-1.507,0.389-1.945,0.987
		c-0.293,0.399-0.939,2.064-1.17,3.438l-0.718,4.038l-0.141,1.339h5.708v23.031h4.383h8.54h4.44V47.497
		c1.928-0.26,3.414-0.998,3.414-2.995C37.497,43.479,37.106,42.551,36.466,41.851z"/>
	<polygon fill="#5B4C71" points="34.061,63.074 28.011,63.074 26.197,63.074 24.599,63.074 22.785,63.074 16.735,63.074 
		8.798,121.191 22.785,121.191 28.011,121.191 41.997,121.191 	"/>
	<rect x="19.451" y="55.513" fill="#5B4C71" width="14.632" height="7.561"/>
	<rect x="16.72" y="55.513" fill="#2F3E4A" width="17.363" height="7.641"/>
	<polygon fill="#FFFFFF" points="20.84,31.219 25.978,36.953 25.978,55.513 27.759,55.513 27.759,39.83 27.759,35.742 
		27.759,31.219 	"/>
	<g>
		<path fill="#00AF7E" stroke="#BAD7EE" stroke-width="0.3628" stroke-miterlimit="10" d="M26.088,32.869
			c0,0.734-0.474,1.33-1.06,1.33c-0.583,0-1.059-0.596-1.059-1.33c0-0.738,0.476-1.331,1.059-1.331
			C25.614,31.539,26.088,32.131,26.088,32.869z"/>
		<path fill="#FFFFFF" d="M25.537,32.466c0,0.144-0.114,0.254-0.256,0.254c-0.142,0-0.256-0.11-0.256-0.254
			c0-0.142,0.114-0.259,0.256-0.259C25.423,32.207,25.537,32.324,25.537,32.466z"/>
	</g>
	<g>
		<path fill="#F8B69C" d="M10.247,84.678c-0.002,0-0.004,0.002-0.005,0.002l0.042-0.279l0.675-4.462l4.875-32.262l-5.751-0.87
			L5.207,79.071l-0.674,4.461L3.95,87.389l0.013,0.002c-0.01,0.039-0.025,0.076-0.03,0.113c-0.241,1.59,0.854,3.072,2.443,3.312
			c1.59,0.24,3.073-0.854,3.312-2.443c0.006-0.036,0.001-0.076,0.007-0.116L9.7,88.258l0.083-0.543c0.002,0,0.004,0.002,0.005,0.002
			c0.838,0.126,1.623-0.451,1.748-1.289C11.664,85.588,11.085,84.805,10.247,84.678z"/>
		
			<rect x="9.887" y="47.229" transform="matrix(0.9888 0.1494 -0.1494 0.9888 7.3642 -1.3694)" opacity="0.4" fill="#B78D7E" width="5.816" height="2.181"/>
		
			<rect x="10.56" y="40.454" transform="matrix(0.9888 0.1495 -0.1495 0.9888 6.709 -1.5205)" fill="#4C789C" width="5.817" height="6.826"/>
	</g>
	<g>
		<path fill="#F8B69C" d="M45.503,83.792c-0.001,0.001-0.002,0.003-0.004,0.003l-0.043-0.279l-0.685-4.459l-4.981-32.46
			l-5.747,0.882l4.982,32.459l0.684,4.46l0.593,3.855l0.011-0.002c0.003,0.04,0.001,0.08,0.007,0.116
			c0.244,1.591,1.727,2.681,3.317,2.437c1.588-0.244,2.679-1.729,2.435-3.318c-0.005-0.037-0.021-0.074-0.03-0.113l0.007-0.002
			l-0.083-0.541c0.002,0,0.003,0,0.005,0c0.84-0.131,1.415-0.914,1.287-1.752C47.129,84.239,46.344,83.665,45.503,83.792z"/>
		
			<rect x="34.207" y="47.233" transform="matrix(0.9884 -0.1517 0.1517 0.9884 -6.9016 6.19)" opacity="0.4" fill="#B78D7E" width="5.816" height="2.181"/>
		<polygon fill="#4C789C" points="39.824,46.805 34.075,47.687 33.04,40.94 38.617,40.084 38.936,41.021 		"/>
	</g>
</g>
</svg>
