<?xml version="1.0" encoding="utf-8"?>
<!-- Generator: Adobe Illustrator 16.0.0, SVG Export Plug-In . SVG Version: 6.00 Build 0)  -->
<!DOCTYPE svg PUBLIC "-//W3C//DTD SVG 1.1//EN" "http://www.w3.org/Graphics/SVG/1.1/DTD/svg11.dtd">
<svg version="1.1" id="Layer_1" xmlns="http://www.w3.org/2000/svg" xmlns:xlink="http://www.w3.org/1999/xlink" x="0px" y="0px"
	 width="73.383px" height="134.91px" viewBox="0 0 73.383 134.91" enable-background="new 0 0 73.383 134.91" xml:space="preserve">
<g>
	<rect x="67.584" y="47.889" fill="#F9B69B" width="5.799" height="12.161"/>
	<rect x="50.313" y="47.084" fill="#DD9E8A" width="4.367" height="13.532"/>
	<path fill="#DD9E8A" d="M33.7,58.472c0,0-0.002,0.004-0.002,0.006h0.278h4.519h18.374v5.821H38.495h-4.519h-3.901v-0.012
		c-0.041,0.002-0.078,0.012-0.118,0.012c-1.608,0-2.913-1.305-2.913-2.913c0-1.61,1.305-2.914,2.913-2.914
		c0.04,0,0.077,0.011,0.118,0.012v-0.006h0.547c0-0.002,0-0.004,0-0.004c0-0.85,0.689-1.541,1.539-1.541
		C33.013,56.933,33.7,57.624,33.7,58.472z"/>
	<g>
		<rect x="50.313" y="47.889" opacity="0.4" fill="#B78C7D" enable-background="new    " width="5.821" height="2.186"/>
		<g>
			<path fill="#F9B69B" d="M54.984,2.851l-4.068,12.12h2.866v6.415h2.984c0,0,1.426,0.179,1.426,1.426c0,0.535,0,4.941,0,7.08v2.494
				h6.828v-1.603V2.629h-9.856L54.984,2.851z"/>
			<circle fill="#2E3D49" cx="56" cy="9.714" r="0.523"/>
			<path fill="#F28981" d="M54.917,17.008c0.077,0,0.138-0.062,0.138-0.138h0.535c0,0.371-0.302,0.673-0.673,0.673h-1.146v-0.535
				H54.917z"/>
			<path fill="#C1682B" d="M69.817,0v27.484c0,0-1.724,0-3.422,0c-5.15,0-4.877-4.877-4.877-4.877V12.175
				c0.969-0.002,1.756-0.789,1.756-1.758c0-0.973-0.788-1.761-1.76-1.761c-0.77,0-1.418,0.499-1.656,1.188l-0.021-0.072
				c-1.124-0.084-2.015-0.989-2.066-2.122h-0.011V6.249c-0.502,0-1.129,0-1.918,0C49.814,6.249,48.499,0,48.499,0H69.817z"/>
		</g>
		<path fill="#4C779B" d="M49.457,41.889l-0.002-0.003l0.459-0.711v-1.579v-2.599v-3.335c0-1.333,1.08-2.414,2.413-2.414h3.961
			h1.897h6.911h4.137h1.724c1.334,0,2.415,1.081,2.415,2.414v3.635h0.011v10.592h-5.849v16.22h-2.699h-8.547h-4.445V48.444
			c-1.928-0.258-3.415-1.905-3.415-3.904C48.428,43.518,48.819,42.59,49.457,41.889z"/>
		<rect x="51.843" y="55.559" fill="#5A4B70" width="14.646" height="7.57"/>
		<rect x="51.843" y="55.559" fill="#2E3D49" width="15.719" height="7.648"/>
		<polygon fill="#FFFFFF" points="65.098,31.248 59.955,36.986 59.955,55.559 58.173,55.559 58.173,39.867 58.173,35.773 
			58.173,31.248 		"/>
		<rect x="67.562" y="47.889" opacity="0.4" fill="#B78C7D" enable-background="new    " width="5.821" height="2.186"/>
		<g>
			
				<ellipse fill="#00AF7D" stroke="#B9D7EF" stroke-width="0.5" stroke-miterlimit="10" cx="60.905" cy="32.896" rx="1.06" ry="1.333"/>
			<circle fill="#FFFFFF" cx="60.653" cy="32.495" r="0.258"/>
		</g>
	</g>
	<rect x="51.849" y="63.207" fill="#5A4B70" width="15.713" height="12.639"/>
	<rect x="12.038" y="71.414" fill="#5A4B70" width="46.126" height="10.127"/>
	<g display="none">
		
			<rect x="73.728" y="53.932" transform="matrix(-0.9767 -0.2147 0.2147 -0.9767 133.0226 153.7854)" display="inline" fill="#9B9B9B" width="2.272" height="31.471"/>
		<path display="inline" fill="#005493" d="M76.701,76.146c-0.401,1.723-2.124,2.793-3.848,2.391l0,0
			c-1.723-0.402-2.792-2.125-2.391-3.846L84.109,16.21c0.402-1.722,2.124-2.792,3.849-2.39l0,0c1.722,0.402,2.792,2.125,2.391,3.846
			L76.701,76.146z"/>
	</g>
	<g display="none">
		<g display="inline">
			<rect x="44.494" y="110.514" fill="#9B9B9B" width="6.03" height="15.848"/>
			<rect x="46.374" y="82.186" fill="#9B9B9B" width="2.271" height="31.472"/>
			<g>
				
					<rect x="55.299" y="117.902" transform="matrix(-0.2714 0.9625 -0.9625 -0.2714 194.403 108.5028)" fill="#9B9B9B" width="1.666" height="19.865"/>
				
					<rect x="38.079" y="117.907" transform="matrix(0.2721 0.9623 -0.9623 0.2721 151.3414 55.6133)" fill="#9B9B9B" width="1.665" height="19.866"/>
				<circle fill="#9B9B9B" cx="29.559" cy="132.225" r="2.515"/>
				<circle fill="#9B9B9B" cx="65.46" cy="132.225" r="2.515"/>
			</g>
			<rect x="46.59" y="124.875" fill="#9B9B9B" width="1.841" height="6.455"/>
			<rect x="45.557" y="129.727" fill="#9B9B9B" width="3.905" height="5.015"/>
		</g>
		<path display="inline" fill="#0085BA" d="M74.171,85.287c0,1.99-1.613,3.602-3.604,3.602H24.45c-1.99,0-3.603-1.611-3.603-3.602
			l0,0c0-1.99,1.611-3.604,3.603-3.604h46.116C72.558,81.684,74.171,83.297,74.171,85.287L74.171,85.287z"/>
	</g>
	<path fill="#5A4B70" d="M51.849,75.846c0,3.154,2.556,5.709,5.708,5.709h4.319c3.152,0,5.708-2.555,5.708-5.709v-4.318
		c0-3.153-2.556-5.708-5.708-5.708h-4.319c-3.152,0-5.708,2.554-5.708,5.708V75.846z"/>
	<g display="none">
		<g display="inline">
			<rect x="61.611" y="65.819" fill="#9B9B9B" width="2.272" height="17.06"/>
			<circle fill="#9B9B9B" cx="62.753" cy="82.879" r="1.143"/>
		</g>
		<path display="inline" fill="#0085BA" d="M79.501,66.749c0,1.353-1.097,2.45-2.45,2.45H32.198c-1.353,0-2.449-1.098-2.449-2.45
			l0,0c0-1.354,1.098-2.45,2.449-2.45h44.853C78.405,64.299,79.501,65.395,79.501,66.749L79.501,66.749z"/>
	</g>
	<g>
		<g>
			<g>
				<g>
					<path fill="#2D363D" d="M3.378,131.514c0.051,0,0.102,0.002,0.149,0.004v-0.004h3.354c3.104-2.192,5.135-5.809,5.135-9.899
						h0.021V106.09h5.819v15.523v0.416v2.734v3.524v6.601h-3.645v-4.076l-3.752,4.076H6.753H3.228H0.005
						C0.005,133.023,1.516,131.514,3.378,131.514z"/>
					<rect x="12.038" y="96.182" fill="#F9B69B" width="5.819" height="9.908"/>
				</g>
				<rect x="12.038" y="96.182" opacity="0.4" fill="#B78C7D" enable-background="new    " width="5.819" height="2.185"/>
			</g>
			<g>
				<g>
					<path fill="#3B464C" d="M15.077,131.531c0.051,0,0.1,0,0.149,0.004v-0.004h3.354c3.104-2.193,5.133-5.809,5.133-9.898h0.004
						V106.09h5.822v15.543h0.018v3.148v3.525v6.598h-3.646v-4.074l-3.749,4.074h-3.71H14.93h-3.225
						C11.704,133.041,13.214,131.531,15.077,131.531z"/>
					<rect x="23.718" y="96.182" fill="#F9B69B" width="5.822" height="9.908"/>
				</g>
				<rect x="23.718" y="96.182" opacity="0.4" fill="#B78C7D" enable-background="new    " width="5.822" height="2.185"/>
			</g>
		</g>
		<rect x="12.038" y="73.688" fill="#5A4B70" width="17.52" height="22.494"/>
	</g>
	<path fill="#F9B69B" d="M49.593,58.472c0,0-0.001,0.004-0.001,0.005h0.279h4.519h18.993v5.821H54.39h-4.519h-3.902v-0.013
		c-0.041,0.002-0.077,0.013-0.118,0.013c-1.607,0-2.912-1.305-2.912-2.913c0-1.61,1.305-2.914,2.912-2.914
		c0.041,0,0.077,0.01,0.118,0.012v-0.006h0.548c0-0.001,0-0.004,0-0.004c0-0.85,0.689-1.54,1.539-1.54
		C48.906,56.933,49.593,57.624,49.593,58.472z"/>
</g>
</svg>
