<?xml version="1.0" encoding="utf-8"?>
<!-- Generator: Adobe Illustrator 16.0.0, SVG Export Plug-In . SVG Version: 6.00 Build 0)  -->
<!DOCTYPE svg PUBLIC "-//W3C//DTD SVG 1.1//EN" "http://www.w3.org/Graphics/SVG/1.1/DTD/svg11.dtd">
<svg version="1.1" id="Layer_1" xmlns="http://www.w3.org/2000/svg" xmlns:xlink="http://www.w3.org/1999/xlink" x="0px" y="0px"
	 width="67.248px" height="182.292px" viewBox="0 0 67.248 182.292" enable-background="new 0 0 67.248 182.292"
	 xml:space="preserve">
<g>
	<path fill="#F8B69C" d="M34.905,7.453l-0.176-0.224H22.03V34.32h-1.743v10.223h12.9V34.32H31.72V34.31v-2.657
		c0-1.236,1.416-1.415,1.416-1.415h2.966v-11.68h3.758L34.905,7.453z"/>
	<path fill="#2F3E4A" d="M33.601,11.643c0,0.287-0.233,0.521-0.52,0.521c-0.287,0-0.521-0.234-0.521-0.521
		c0-0.287,0.233-0.52,0.521-0.52C33.367,11.124,33.601,11.356,33.601,11.643"/>
	<g opacity="0.4">
		<g>
			<defs>
				<rect id="SVGID_1_" x="28.486" y="9.494" width="7.616" height="20.707"/>
			</defs>
			<clipPath id="SVGID_2_">
				<use xlink:href="#SVGID_1_"  overflow="visible"/>
			</clipPath>
			<path clip-path="url(#SVGID_2_)" fill="#A3852F" d="M28.491,13.255v9.559c0,0-0.014,1.624,0,2.168
				c0.054,2.118-0.223,5.219,3.275,5.219h4.335v-11.68h-2.039h-2.034c-1.148,0-1.68-0.575-1.68-1.683V9.494h-1.858V13.255z"/>
		</g>
	</g>
	<path fill="#A3852F" d="M35.801,1.032c-1.076,0-2.006,0.581-2.522,1.436c-0.385-0.547-1.021-0.909-1.741-0.909
		c-0.488,0-0.934,0.17-1.292,0.45c-0.311-1.181-1.376-2.053-2.65-2.053c-1.253,0-2.295,0.841-2.632,1.98
		c-0.294-0.233-0.66-0.377-1.064-0.377c-0.7,0-1.299,0.419-1.569,1.016c-0.394-0.2-0.834-0.325-1.307-0.325
		c-1.589,0-2.875,1.285-2.875,2.875c0,1.073,0.596,2,1.471,2.493c-0.521,0.325-0.868,0.897-0.868,1.554
		c0,0.443,0.163,0.843,0.423,1.162c-0.613,0.381-1.025,1.057-1.025,1.831c0,1.116,0.855,2.026,1.945,2.135
		c-0.336,0.342-0.547,0.815-0.547,1.335c0,0.897,0.624,1.646,1.461,1.848c-0.413,0.193-0.702,0.61-0.702,1.099
		c0,0.648,0.509,1.173,1.147,1.208v0.007h1.373c4.159,0,3.938-3.94,3.938-3.94v-1.756c-0.009,0-0.019,0.003-0.028,0.003
		c-0.964,0-1.747-0.784-1.747-1.749s0.783-1.749,1.747-1.749c0.954,0,1.724,0.763,1.745,1.711h0.003v0.038v1.749h1.865V9.661h2.389
		c3.898,0,5.353-3.229,5.779-4.515c0.152-0.358,0.236-0.75,0.236-1.16C38.752,2.354,37.43,1.032,35.801,1.032 M29.575,4.617
		c0.014-0.016,0.025-0.033,0.042-0.048c0.007,0.019,0.019,0.033,0.028,0.048H29.575z"/>
	<path fill="#F8B69C" d="M36.102,21.267h-1.97c-0.454,0-1.371,0.045-1.371,1.198v0.887h3.341V21.267z"/>
	<path fill="#CF867C" d="M34.329,22.096c-0.2,0-0.361-0.162-0.361-0.361h-0.532c0,0.492,0.399,0.892,0.894,0.892h1.773v-0.53H34.329
		z"/>
	<g>
		<path fill="#F8B69C" d="M36.608,93.72c-0.035-0.003-0.068-0.002-0.102-0.003l0.068-0.546l0.131-1.068l-6.873-0.842l-0.131,1.067
			l-0.27,2.196l-0.529,4.307c0,0.004-0.001,0.004-0.001,0.004c-0.001,0.007-0.001,0.01-0.001,0.01l-0.039,0.336l0.031,0.004
			c-0.039,1.756,1.242,3.297,3.024,3.516c1.781,0.218,3.396-0.967,3.783-2.682l0.032,0.004l0.041-0.334l0.004-0.004
			c0,0-0.002-0.006-0.002-0.01l0.434-3.527c0.031,0.008,0.064,0.019,0.098,0.021c0.678,0.083,1.293-0.397,1.375-1.073
			C37.766,94.42,37.286,93.803,36.608,93.72"/>
		<path fill="#415728" d="M44.303,46.324L39.282,87.26c-0.123,1.002-1.035,1.715-2.035,1.593l-0.152-0.02l-0.02,0.156l-0.395,3.215
			l-6.874-0.843l0.395-3.215l0.242-1.971l0.153-1.244l4.867-39.691L44.303,46.324z"/>
		
			<rect x="30.01" y="88.298" transform="matrix(0.9926 0.1217 -0.1217 0.9926 11.2029 -3.4052)" fill="#D65228" width="6.928" height="3.394"/>
	</g>
	<path fill="#402A19" d="M66.733,174.777c-0.967-1.764-1.598-1.869-5.699-1.344l-3.133-0.42c-1.734-0.111-3.359-0.77-4.668-1.826
		c-0.295-0.238-0.57-0.5-0.832-0.775c-1.852,0.469-1.279,2.131-1.279,2.131l-5.289,0.939l0.127,0.717l0.176,0.992l0.178,0.998
		l0.383,2.148l0.168,0.947l0.102,0.564l5.822-1.033l-0.102-0.564l-0.166-0.947l2.854,1.051l11.875-2.109
		C67.155,175.717,66.977,175.223,66.733,174.777"/>
	<path fill="#A2742A" d="M16.052,84.727c0,4.565,3.698,8.264,8.262,8.264h6.252c4.565,0,8.263-3.698,8.263-8.264v-4.512H16.052
		V84.727z"/>
	
		<rect x="37.837" y="82.502" transform="matrix(0.9846 -0.1749 0.1749 0.9846 -21.7494 9.3751)" fill="#A2742A" width="8.968" height="91.193"/>
	<g>
		<path fill="#5C412E" d="M20.323,180.031c-0.316-1.986-0.876-2.297-4.918-3.18l-2.81-1.445c-1.596-0.686-2.903-1.852-3.784-3.287
			c-0.196-0.324-0.37-0.66-0.521-1.006c-1.904-0.18-1.921,1.576-1.921,1.576l-5.299-0.891l-0.119,0.715l-0.168,0.996l-0.167,0.998
			l-0.361,2.156l-0.159,0.947L0,178.178l5.833,0.98l0.095-0.568l0.158-0.943l2.338,1.941l11.894,2.002
			C20.407,181.057,20.406,180.533,20.323,180.031"/>
		
			<rect x="8.51" y="82.269" transform="matrix(0.9862 0.1655 -0.1655 0.9862 21.3427 -0.3872)" fill="#A2742A" width="8.968" height="91.196"/>
	</g>
	<rect x="15.996" y="78.428" fill="#5C412E" width="22.833" height="2.017"/>
	<rect x="20.872" y="78.428" fill="#A2742A" width="1.024" height="2.909"/>
	<rect x="35.562" y="78.428" fill="#A2742A" width="1.023" height="2.909"/>
	<path fill="#415728" d="M38.706,34.32h-4.435c-1.418,2.627-4.197,4.417-7.395,4.417c-3.198,0-5.978-1.791-7.398-4.417h-4.969
		c-3.157,0-5.715,2.559-5.715,5.715l0.161,2.408l0.352,3.881h6.689v32.104h0.567h19.914h2.383V46.324h5.443l0.111-4.006v-2.283
		C44.415,36.879,41.858,34.32,38.706,34.32"/>
	<path fill="#D65228" d="M26.876,38.734c3.197,0,5.977-1.787,7.396-4.414h-1.125h-1.401h-0.022
		c-1.149,1.401-2.894,2.293-4.848,2.293c-1.955,0-3.7-0.892-4.849-2.293h-1.964h-0.586C20.898,36.947,23.678,38.734,26.876,38.734"
		/>
	<path fill="#D65228" d="M30.546,53.791c0,0.75,0.611,1.36,1.363,1.36h5.333c0.752,0,1.363-0.61,1.363-1.36v-7.116h-8.06V53.791z"/>
	<g>
		<path fill="#F8B69C" d="M26.21,91.921c-0.033,0.005-0.062,0.019-0.095,0.028l-0.094-0.545l-0.182-1.062l-6.826,1.167l0.182,1.062
			l0.373,2.183l0.729,4.276c0,0.002,0.001,0.007,0.001,0.007c0.001,0.004,0.001,0.004,0.002,0.01l0.057,0.33l0.033-0.006
			c0.466,1.694,2.134,2.799,3.906,2.498c1.771-0.303,2.976-1.898,2.854-3.653l0.033-0.005l-0.056-0.332
			c-0.001-0.005-0.001-0.005-0.001-0.01l-0.001-0.004l-0.6-3.502c0.033-0.006,0.064-0.005,0.099-0.01
			c0.673-0.115,1.126-0.75,1.011-1.424C27.522,92.259,26.884,91.806,26.21,91.921"/>
		<path fill="#415728" d="M9.307,46.324l6.874,40.373c0.169,0.994,1.114,1.663,2.108,1.493l0.152-0.025l0.026,0.151l0.545,3.194
			l6.827-1.167l-0.546-3.193l-0.334-1.954l-0.209-1.234l-6.735-39.418L9.307,46.324z"/>
		
			<rect x="18.678" y="87.557" transform="matrix(0.9857 -0.1684 0.1684 0.9857 -14.7159 5.0039)" fill="#D65228" width="6.926" height="3.393"/>
	</g>
</g>
</svg>
