<?xml version="1.0" encoding="utf-8"?>
<!-- Generator: Adobe Illustrator 16.0.0, SVG Export Plug-In . SVG Version: 6.00 Build 0)  -->
<!DOCTYPE svg PUBLIC "-//W3C//DTD SVG 1.1//EN" "http://www.w3.org/Graphics/SVG/1.1/DTD/svg11.dtd">
<svg version="1.1" id="Layer_1" xmlns="http://www.w3.org/2000/svg" xmlns:xlink="http://www.w3.org/1999/xlink" x="0px" y="0px"
	 width="93.738px" height="144.43px" viewBox="0 0 93.738 144.43" enable-background="new 0 0 93.738 144.43" xml:space="preserve">
<g>
	<rect x="42.723" y="60.217" fill="#415728" width="8.062" height="8.392"/>
	<path fill="#A2742A" d="M48.242,83.178c0,4.579,3.713,8.291,8.293,8.291h6.275c4.581,0,8.293-3.712,8.293-8.291v-6.276
		c0-4.581-3.712-8.293-8.293-8.293h-6.275c-4.58,0-8.293,3.712-8.293,8.293V83.178z"/>
	<path fill="#402A19" d="M0.305,142.896c0.641-1.905,1.244-2.12,5.371-2.318l3.006-0.96c1.688-0.414,3.169-1.344,4.271-2.611
		c0.249-0.287,0.476-0.591,0.684-0.908c1.904,0.14,1.631,1.871,1.631,1.871h5.366v0.726v1.009v1.01v2.183v0.961v0.573h-5.907v-0.573
		v-0.956l-2.624,1.529H0.055C0.055,143.893,0.143,143.377,0.305,142.896z"/>
	<rect x="11.674" y="86.47" fill="#A2742A" width="8.96" height="51.797"/>
	<g>
		<path fill="#F8B69C" d="M29.765,67.237c0,0.034-0.007,0.067-0.01,0.1h0.551h1.079v6.923h-1.079h-2.21h-4.34
			c-0.002,0-0.004,0-0.008,0c-0.002,0-0.004,0-0.007,0h-0.335v-0.033c-1.75-0.174-3.12-1.633-3.12-3.428
			c0-1.795,1.37-3.254,3.12-3.428v-0.034h0.335c0.003,0,0.005,0,0.007,0c0.004,0,0.006,0,0.008,0h3.553
			c-0.002-0.033-0.01-0.065-0.01-0.1c0-0.682,0.551-1.234,1.231-1.234C29.212,66.003,29.765,66.556,29.765,67.237z"/>
		<path fill="#415728" d="M65.158,65.357H36.604c-1.009,0-1.827,0.818-1.827,1.827v0.153h-0.156h-3.236v6.923h3.236h1.983h1.254
			h27.3V65.357z"/>
		<rect x="31.385" y="67.338" fill="#D65228" width="3.394" height="6.922"/>
	</g>
	<g>
		<g>
			<rect x="48.304" y="77.395" fill="#5B402D" width="22.826" height="2.016"/>
			<rect x="48.304" y="79.411" fill="#A2742A" width="22.826" height="3.1"/>
			<rect x="65.23" y="77.395" fill="#A3720F" width="1.023" height="2.906"/>
			<rect x="50.547" y="77.395" fill="#A3720F" width="1.024" height="2.906"/>
		</g>
		<g>
			<g>
				<path fill="#F8B69C" d="M52.229,7.492l0.177-0.22h12.696v27.082h1.741v10.221H53.948V34.354h1.467v-0.01
					c0-2.123,0-2.123,0-2.655c0-1.239-1.416-1.416-1.416-1.416h-2.965V18.595h-3.759L52.229,7.492z"/>
				<circle fill="#2E3D49" cx="54.054" cy="11.683" r="0.52"/>
				<path opacity="0.4" fill="#A3841F" d="M58.643,13.294v9.555c0,0,0.014,1.626,0,2.167c-0.053,2.12,0.221,5.221-3.274,5.221
					c-2.698,0-4.334,0-4.334,0V18.558h2.036c0,0,0.463,0,2.034,0c1.15,0,1.681-0.574,1.681-1.681c0-1.812,0-7.343,0-7.343h1.857
					V13.294z"/>
				<path fill="none" d="M57.56,4.662h-0.07c0.009-0.019,0.02-0.034,0.028-0.052C57.532,4.626,57.545,4.645,57.56,4.662z"/>
				<path fill="none" d="M58.652,12.358c0,0.013-0.004,0.023-0.004,0.036v-0.036H58.652z"/>
				<path fill="#A3852F" d="M48.384,4.027c0,0.412,0.084,0.803,0.236,1.16c0.427,1.288,1.88,4.518,5.777,4.518
					c1.026,0,1.796,0,2.389,0v4.438h1.862v-1.748v-0.036h0.004c0.021-0.949,0.791-1.71,1.743-1.71c0.966,0,1.748,0.781,1.748,1.747
					c0,0.965-0.782,1.748-1.748,1.748c-0.009,0-0.017-0.003-0.026-0.003v1.758c0,0-0.222,3.937,3.938,3.937c1.371,0,1.371,0,1.371,0
					v-0.006c0.64-0.035,1.149-0.56,1.149-1.208c0-0.487-0.29-0.906-0.705-1.099c0.837-0.2,1.461-0.95,1.461-1.85
					c0-0.52-0.21-0.99-0.547-1.334c1.091-0.106,1.946-1.015,1.946-2.134c0-0.774-0.412-1.447-1.025-1.828
					c0.261-0.317,0.423-0.719,0.423-1.161c0-0.658-0.348-1.23-0.867-1.556c0.873-0.493,1.47-1.418,1.47-2.493
					c0-1.587-1.287-2.875-2.875-2.875c-0.473,0-0.912,0.125-1.307,0.329c-0.27-0.6-0.868-1.019-1.567-1.019
					c-0.405,0-0.771,0.145-1.064,0.379C61.832,0.838,60.789,0,59.539,0c-1.277,0-2.339,0.872-2.651,2.049
					C56.528,1.772,56.084,1.6,55.596,1.6c-0.721,0-1.356,0.362-1.738,0.912c-0.518-0.858-1.448-1.437-2.521-1.437
					C49.704,1.075,48.384,2.396,48.384,4.027z M57.489,4.662c0.009-0.019,0.02-0.034,0.028-0.052
					c0.015,0.016,0.027,0.035,0.042,0.052H57.489z"/>
				<path fill="#F9B69B" d="M51.034,21.306c0,0,0.687,0,1.968,0c0.455,0,1.371,0.042,1.371,1.194c0,0.706,0,0.889,0,0.889h-3.339
					V21.306z"/>
				<path fill="#CE857C" d="M52.807,22.132c0.199,0,0.36-0.161,0.36-0.36h0.531c0,0.491-0.398,0.891-0.891,0.891l0,0h-1.773v-0.53
					H52.807z"/>
			</g>
			<g>
				<path fill="#415728" d="M48.432,34.354h4.432c1.419,2.628,4.199,4.415,7.395,4.415c3.196,0,5.976-1.786,7.395-4.415h4.97
					c3.155,0,5.711,2.557,5.711,5.711v4.186l0,0v16.588h-7.199v16.556h-0.565H50.659h-2.382V60.839h-5.555v-6.741v-5.943v-8.089
					C42.723,36.912,45.279,34.354,48.432,34.354z"/>
				<path fill="#D65228" d="M60.258,38.769c-3.195,0-5.976-1.786-7.395-4.415h1.123h1.401h0.022
					c1.149,1.399,2.894,2.292,4.848,2.292c1.952,0,3.698-0.893,4.848-2.292h1.962h0.585C66.233,36.983,63.454,38.769,60.258,38.769z
					"/>
				<path fill="#D65228" d="M56.589,53.818c0,0.751-0.61,1.362-1.363,1.362h-5.333c-0.752,0-1.361-0.611-1.361-1.362v-7.115h8.058
					V53.818z"/>
			</g>
		</g>
	</g>
	<g display="none">
		
			<rect x="77.205" y="63.902" transform="matrix(0.9767 0.2146 -0.2146 0.9767 18.8956 -14.9598)" display="inline" fill="#9B9B9B" width="2.257" height="31.253"/>
		<path display="inline" fill="#005493" d="M80.157,85.958c-0.399,1.711-2.109,2.774-3.819,2.375l0,0
			c-1.712-0.398-2.773-2.109-2.375-3.82l13.552-58.075c0.398-1.71,2.109-2.773,3.82-2.374l0,0c1.71,0.399,2.772,2.109,2.374,3.819
			L80.157,85.958z"/>
	</g>
	<g display="none">
		<g display="inline">
			<rect x="48.173" y="120.088" fill="#9B9B9B" width="5.99" height="15.737"/>
			<rect x="50.04" y="91.956" fill="#9B9B9B" width="2.256" height="31.254"/>
			<g>
				
					<rect x="58.899" y="127.425" transform="matrix(0.2713 -0.9625 0.9625 0.2713 -88.6166 157.5299)" fill="#9B9B9B" width="1.656" height="19.727"/>
				
					<rect x="41.801" y="127.424" transform="matrix(-0.2713 -0.9625 0.9625 -0.2713 -77.9454 215.5645)" fill="#9B9B9B" width="1.656" height="19.728"/>
				<circle fill="#9B9B9B" cx="33.341" cy="141.649" r="2.498"/>
				<circle fill="#9B9B9B" cx="68.994" cy="141.649" r="2.497"/>
			</g>
			<rect x="50.255" y="134.35" fill="#9B9B9B" width="1.827" height="6.41"/>
			<rect x="49.229" y="139.167" fill="#9B9B9B" width="3.877" height="4.979"/>
		</g>
		<path display="inline" fill="#0085BA" d="M77.645,95.036c0,1.976-1.602,3.578-3.579,3.578H28.269
			c-1.976,0-3.578-1.603-3.578-3.578l0,0c0-1.977,1.603-3.578,3.578-3.578h45.797C76.043,91.458,77.645,93.059,77.645,95.036
			L77.645,95.036z"/>
	</g>
	<path fill="#5C412E" d="M11.765,142.896c0.64-1.905,1.244-2.12,5.37-2.318l3.007-0.96c1.686-0.414,3.169-1.344,4.272-2.611
		c0.248-0.287,0.474-0.591,0.682-0.908c1.904,0.14,1.632,1.871,1.632,1.871h5.366v0.726v1.009v1.01v2.183v0.961v0.573h-5.908v-0.573
		v-0.956l-2.623,1.529H11.514C11.514,143.893,11.603,143.377,11.765,142.896z"/>
	<rect x="23.133" y="86.47" fill="#A2742A" width="8.961" height="51.797"/>
	<rect x="11.674" y="82.51" fill="#A2742A" width="51.002" height="8.959"/>
	<g>
		<path fill="#F8B69C" d="M50.527,67.237c0,0.034-0.007,0.067-0.011,0.1h0.551h1.08v6.923h-1.08h-2.21h-4.34
			c-0.002,0-0.004,0-0.008,0c-0.002,0-0.005,0-0.006,0h-0.336v-0.033c-1.75-0.174-3.12-1.633-3.12-3.428
			c0-1.795,1.37-3.254,3.12-3.428v-0.034h0.336c0.001,0,0.004,0,0.006,0c0.004,0,0.006,0,0.008,0h3.553
			c-0.002-0.033-0.01-0.065-0.01-0.1c0-0.682,0.552-1.234,1.232-1.234S50.527,66.556,50.527,67.237z"/>
		<path fill="#415728" d="M78.333,65.357H57.366c-1.008,0-1.827,0.818-1.827,1.827v0.153h-0.156h-3.235v6.923h3.235h1.983h1.254
			h19.713V65.357z"/>
		<rect x="52.147" y="67.338" fill="#D65228" width="3.393" height="6.922"/>
	</g>
	<rect x="70.271" y="59.653" fill="#415728" width="8.062" height="8.392"/>
	<g display="none">
		<g display="inline">
			<rect x="65.172" y="75.703" fill="#9B9B9B" width="2.257" height="16.942"/>
			<circle fill="#9B9B9B" cx="66.305" cy="92.644" r="1.133"/>
		</g>
		<path display="inline" fill="#0085BA" d="M82.938,76.626c0,1.343-1.089,2.433-2.435,2.433H35.84c-1.344,0-2.434-1.09-2.434-2.433
			l0,0c0-1.345,1.09-2.434,2.434-2.434h44.664C81.85,74.193,82.938,75.282,82.938,76.626L82.938,76.626z"/>
	</g>
</g>
</svg>
