<?xml version="1.0" encoding="utf-8"?>
<!-- Generator: Adobe Illustrator 16.0.0, SVG Export Plug-In . SVG Version: 6.00 Build 0)  -->
<!DOCTYPE svg PUBLIC "-//W3C//DTD SVG 1.1//EN" "http://www.w3.org/Graphics/SVG/1.1/DTD/svg11.dtd">
<svg version="1.1" id="Layer_1" xmlns="http://www.w3.org/2000/svg" xmlns:xlink="http://www.w3.org/1999/xlink" x="0px" y="0px"
	 width="41.803px" height="180px" viewBox="0 0 41.803 180" enable-background="new 0 0 41.803 180" xml:space="preserve">
<g>
	<path fill="#F8B69C" d="M26.237,7.499L26.06,7.277H13.354v27.105H11.61v10.229h12.906V34.383H23.05v-0.01v-2.656
		c0-1.24,1.416-1.417,1.416-1.417h2.967V18.611h3.762L26.237,7.499z"/>
	<path fill="#2F3E4A" d="M24.931,11.694c0,0.286-0.232,0.521-0.52,0.521c-0.287,0-0.519-0.234-0.519-0.521
		c0-0.287,0.232-0.521,0.519-0.521C24.698,11.173,24.931,11.406,24.931,11.694"/>
	<g opacity="0.4">
		<g>
			<g>
				<defs>
					<rect id="SVGID_1_" x="19.812" y="9.543" width="7.62" height="20.721"/>
				</defs>
				<clipPath id="SVGID_2_">
					<use xlink:href="#SVGID_1_"  overflow="visible"/>
				</clipPath>
				<path clip-path="url(#SVGID_2_)" fill="#A3852F" d="M19.818,13.306v9.563c0,0-0.013,1.627,0,2.17
					c0.054,2.12-0.221,5.225,3.277,5.225h4.337V18.574h-2.037h-2.035c-1.152,0-1.682-0.575-1.682-1.682v-7.35h-1.86V13.306
					L19.818,13.306z"/>
			</g>
		</g>
	</g>
	<path fill="#A3852F" d="M27.132,1.076c-1.074,0-2.006,0.58-2.523,1.438c-0.383-0.55-1.019-0.912-1.74-0.912
		c-0.49,0-0.935,0.172-1.293,0.45C21.264,0.874,20.199,0,18.922,0c-1.252,0-2.295,0.84-2.632,1.98
		c-0.294-0.232-0.66-0.378-1.065-0.378c-0.7,0-1.3,0.418-1.57,1.018c-0.393-0.202-0.833-0.326-1.308-0.326
		c-1.588,0-2.876,1.286-2.876,2.877c0,1.074,0.597,2.001,1.471,2.495c-0.521,0.324-0.868,0.896-0.868,1.556
		c0,0.443,0.163,0.844,0.424,1.161c-0.614,0.381-1.026,1.056-1.026,1.832c0,1.118,0.856,2.028,1.947,2.136
		c-0.337,0.344-0.547,0.814-0.547,1.336c0,0.899,0.623,1.648,1.462,1.85c-0.415,0.194-0.705,0.612-0.705,1.1
		c0,0.649,0.511,1.175,1.15,1.209v0.007h1.373c4.161,0,3.938-3.941,3.938-3.941v-1.759c-0.008,0-0.018,0.003-0.026,0.003
		c-0.966,0-1.748-0.783-1.748-1.749s0.782-1.748,1.748-1.748c0.954,0,1.726,0.763,1.745,1.711h0.004v0.037v1.749h1.865V9.711h2.39
		c3.9,0,5.355-3.23,5.783-4.521c0.15-0.356,0.236-0.749,0.236-1.159C30.087,2.398,28.765,1.076,27.132,1.076 M20.903,4.665
		c0.015-0.016,0.027-0.034,0.042-0.051c0.009,0.018,0.02,0.034,0.028,0.051H20.903z"/>
	<path fill="#F8B69C" d="M27.433,21.324h-1.971c-0.455,0-1.371,0.043-1.371,1.196v0.888h3.341V21.324L27.433,21.324z"/>
	<path fill="#CF867C" d="M25.659,22.151c-0.199,0-0.361-0.162-0.361-0.36h-0.531c0,0.491,0.398,0.892,0.891,0.892h1.775v-0.531
		H25.659L25.659,22.151z"/>
	<path fill="#F8B69C" d="M33.876,94.61c-0.033,0-0.066,0.008-0.1,0.011v-0.552v-1.078h-6.93v1.078v2.213v4.343
		c0,0.003,0,0.005,0,0.005c0,0.006,0,0.007,0,0.01v0.336h0.033c0.176,1.751,1.635,3.123,3.432,3.123s3.258-1.372,3.432-3.123h0.033
		v-0.336c0-0.003,0.002-0.005,0.002-0.007c0,0-0.002-0.005-0.002-0.008v-3.556c0.033,0.004,0.066,0.011,0.102,0.011
		c0.682,0,1.234-0.553,1.234-1.234S34.56,94.61,33.876,94.61"/>
	<path fill="#415728" d="M35.759,59.186v28.58c0,1.01-0.82,1.829-1.83,1.829h-0.152v0.156v3.24h-6.93v-3.24v-1.985v-1.253V59.187
		L35.759,59.186L35.759,59.186z"/>
	<rect x="26.845" y="89.594" fill="#D65228" width="6.932" height="3.396"/>
	<path fill="#402A19" d="M41.55,178.462c-0.641-1.909-1.246-2.123-5.379-2.322l-3.012-0.961c-1.689-0.415-3.174-1.347-4.279-2.617
		c-0.248-0.286-0.475-0.592-0.684-0.909c-1.908,0.14-1.635,1.875-1.635,1.875h-5.373v0.726v1.011v1.013v2.187v0.962V180h5.916
		v-0.575v-0.959l2.629,1.532h12.068C41.802,179.46,41.712,178.944,41.55,178.462"/>
	<path fill="#A2742A" d="M7.371,84.819c0,4.566,3.701,8.269,8.268,8.269h6.257c4.564,0,8.266-3.702,8.266-8.269v-4.516H7.371V84.819
		L7.371,84.819z"/>
	<rect x="21.188" y="82.58" fill="#A2742A" width="8.974" height="91.246"/>
	<path fill="#5C412E" d="M27.679,178.462c-0.643-1.909-1.246-2.123-5.378-2.322l-3.013-0.961c-1.688-0.415-3.173-1.347-4.278-2.617
		c-0.248-0.286-0.475-0.592-0.683-0.909c-1.908,0.14-1.635,1.875-1.635,1.875H7.316v0.726v1.011v1.013v2.187v0.962V180h5.917v-0.575
		v-0.959l2.628,1.532h12.067C27.929,179.46,27.841,178.944,27.679,178.462"/>
	<rect x="7.316" y="82.58" fill="#A2742A" width="8.976" height="91.246"/>
	<rect x="7.316" y="78.516" fill="#5C412E" width="22.845" height="2.017"/>
	<rect x="12.197" y="78.516" fill="#A2742A" width="1.024" height="2.91"/>
	<rect x="26.892" y="78.516" fill="#A2742A" width="1.025" height="2.91"/>
	<path fill="#415728" d="M30.038,34.383h-4.436c-1.42,2.631-4.201,4.42-7.4,4.42s-5.98-1.789-7.4-4.42H5.827
		c-3.157,0-5.716,2.561-5.716,5.717v4.19v16.602h7.205v17.623h0.567H27.81h2.383V60.892h5.561v-6.746v-5.948V40.1
		C35.751,36.943,33.192,34.383,30.038,34.383"/>
	<path fill="#D65228" d="M18.202,38.802c3.199,0,5.98-1.788,7.4-4.419h-1.125h-1.402h-0.021c-1.151,1.4-2.897,2.294-4.852,2.294
		c-1.954,0-3.7-0.894-4.852-2.294h-1.964h-0.585C12.222,37.014,15.003,38.802,18.202,38.802"/>
	<path fill="#D65228" d="M21.875,53.865c0,0.752,0.611,1.362,1.363,1.362h5.337c0.754,0,1.363-0.61,1.363-1.362v-7.122h-8.063
		V53.865L21.875,53.865z"/>
	<path fill="#F8B69C" d="M9.123,94.504c-0.034,0-0.066,0.007-0.1,0.01v-0.551v-1.079h-6.93v1.079v2.211v4.345c0,0,0,0.004,0,0.007
		c0,0,0,0.004,0,0.009v0.334h0.034c0.173,1.751,1.634,3.123,3.431,3.123s3.257-1.372,3.431-3.123h0.034v-0.334
		c0-0.005,0-0.006,0-0.006c0-0.006,0-0.008,0-0.008v-3.558c0.033,0.002,0.064,0.009,0.1,0.009c0.683,0,1.234-0.553,1.234-1.233
		C10.358,95.057,9.806,94.504,9.123,94.504"/>
	<path fill="#415728" d="M0.111,59.079v28.58c0,1.009,0.818,1.828,1.828,1.828h0.152v0.156v3.24h6.931v-3.24v-1.984v-1.254V59.08
		L0.111,59.079L0.111,59.079z"/>
	<rect x="2.092" y="89.487" fill="#D65228" width="6.931" height="3.396"/>
</g>
</svg>
